<?xml version="1.0" encoding="UTF-8" standalone="no"?>
<!DOCTYPE svg PUBLIC "-//W3C//DTD SVG 1.1//EN"
 "http://www.w3.org/Graphics/SVG/1.1/DTD/svg11.dtd">
<!-- Generated by graphviz version 2.40.1 (20161225.0304)
 -->
<!-- Title: Source/ARX/include/ARX/ARTrackableMultiSquare.h Pages: 1 -->
<!--zoomable 312 -->
<svg id="main" version="1.1" xmlns="http://www.w3.org/2000/svg" xmlns:xlink="http://www.w3.org/1999/xlink" xml:space="preserve" onload="init(evt)">
<style type="text/css"><![CDATA[
.edge:hover path { stroke: red; }
.edge:hover polygon { stroke: red; fill: red; }
]]></style>
<script type="text/javascript"><![CDATA[
var edges = document.getElementsByTagName('g');
if (edges && edges.length) {
  for (var i=0;i<edges.length;i++) {
    if (edges[i].id.substr(0,4)=='edge') {
      edges[i].setAttribute('class','edge');
    }
  }
}
]]></script>
        <defs>
                <circle id="rim" cx="0" cy="0" r="7"/>
                <circle id="rim2" cx="0" cy="0" r="3.5"/>
                <g id="zoomPlus">
                        <use xlink:href="#rim" fill="#404040">
                                <set attributeName="fill" to="#808080" begin="zoomplus.mouseover" end="zoomplus.mouseout"/>
                        </use>
                        <path d="M-4,0h8M0,-4v8" fill="none" stroke="white" stroke-width="1.5" pointer-events="none"/>
                </g>
                <g id="zoomMin">
                        <use xlink:href="#rim" fill="#404040">
                                <set attributeName="fill" to="#808080" begin="zoomminus.mouseover" end="zoomminus.mouseout"/>
                        </use>
                        <path d="M-4,0h8" fill="none" stroke="white" stroke-width="1.5" pointer-events="none"/>
                </g>
                <g id="dirArrow">
                        <path fill="none" stroke="white" stroke-width="1.5" d="M0,-3.0v7 M-2.5,-0.5L0,-3.0L2.5,-0.5"/>
                </g>
               <g id="resetDef">
                       <use xlink:href="#rim2" fill="#404040">
                               <set attributeName="fill" to="#808080" begin="reset.mouseover" end="reset.mouseout"/>
                       </use>
               </g>
        </defs>

<script type="text/javascript">
var viewWidth = 914;
var viewHeight = 312;
var sectionId = 'dynsection-0';
</script>
<script xlink:href="svgpan.js"/>
<svg id="graph" class="graph">
<g id="viewport">
<title>Source/ARX/include/ARX/ARTrackableMultiSquare.h</title>
<polygon fill="#ffffff" stroke="transparent" points="-4,4 -4,-308 910.3697,-308 910.3697,4 -4,4"/>
<!-- Node0 -->
<g id="node1" class="node">
<title>Node0</title>
<polygon fill="#bfbfbf" stroke="#000000" points="288.3057,-275.5 288.3057,-303.5 449.3789,-303.5 449.3789,-275.5 288.3057,-275.5"/>
<text text-anchor="start" x="296.3057" y="-291.5" font-family="Helvetica,sans-Serif" font-size="10.00" fill="#000000">Source/ARX/include</text>
<text text-anchor="middle" x="368.8423" y="-281.5" font-family="Helvetica,sans-Serif" font-size="10.00" fill="#000000">/ARX/ARTrackableMultiSquare.h</text>
</g>
<!-- Node1 -->
<g id="node2" class="node">
<title>Node1</title>
<g id="a_node2"><a xlink:href="_a_r_trackable_8h.html" target="_top" xlink:title="ARX/ARTrackable.h">
<polygon fill="#ffffff" stroke="#000000" points="395.3745,-220.5 395.3745,-238.5 500.3101,-238.5 500.3101,-220.5 395.3745,-220.5"/>
<text text-anchor="middle" x="447.8423" y="-226.5" font-family="Helvetica,sans-Serif" font-size="10.00" fill="#000000">ARX/ARTrackable.h</text>
</a>
</g>
</g>
<!-- Node0&#45;&gt;Node1 -->
<g id="edge1" class="edge">
<title>Node0&#45;&gt;Node1</title>
<path fill="none" stroke="#191970" d="M387.5642,-275.2808C399.607,-266.1344 415.2521,-254.252 427.5852,-244.8851"/>
<polygon fill="#191970" stroke="#191970" points="430.0348,-247.4198 435.8814,-238.5842 425.8009,-241.8452 430.0348,-247.4198"/>
</g>
<!-- Node23 -->
<g id="node24" class="node">
<title>Node23</title>
<g id="a_node24"><a xlink:href="ar_multi_8h.html" target="_top" xlink:title="ARX/AR/arMulti.h">
<polygon fill="#ffffff" stroke="#000000" points="262.665,-220.5 262.665,-238.5 357.0195,-238.5 357.0195,-220.5 262.665,-220.5"/>
<text text-anchor="middle" x="309.8423" y="-226.5" font-family="Helvetica,sans-Serif" font-size="10.00" fill="#000000">ARX/AR/arMulti.h</text>
</a>
</g>
</g>
<!-- Node0&#45;&gt;Node23 -->
<g id="edge32" class="edge">
<title>Node0&#45;&gt;Node23</title>
<path fill="none" stroke="#191970" d="M354.8601,-275.2808C346.2154,-266.4896 335.0852,-255.1708 326.055,-245.9875"/>
<polygon fill="#191970" stroke="#191970" points="328.2821,-243.2605 318.7751,-238.5842 323.2909,-248.1685 328.2821,-243.2605"/>
</g>
<!-- Node2 -->
<g id="node3" class="node">
<title>Node2</title>
<g id="a_node3"><a xlink:href="ar_8h.html" target="_top" xlink:title="artoolkitX core routines. ">
<polygon fill="#ffffff" stroke="#000000" points="457.4951,-110.5 457.4951,-128.5 530.1895,-128.5 530.1895,-110.5 457.4951,-110.5"/>
<text text-anchor="middle" x="493.8423" y="-116.5" font-family="Helvetica,sans-Serif" font-size="10.00" fill="#000000">ARX/AR/ar.h</text>
</a>
</g>
</g>
<!-- Node1&#45;&gt;Node2 -->
<g id="edge2" class="edge">
<title>Node1&#45;&gt;Node2</title>
<path fill="none" stroke="#191970" d="M477.7602,-220.4465C495.1197,-213.4809 515.5354,-201.9446 525.8423,-184 534.9165,-168.2014 523.2856,-149.4849 511.5845,-136.2942"/>
<polygon fill="#191970" stroke="#191970" points="513.9191,-133.6715 504.4744,-128.8706 508.8637,-138.5134 513.9191,-133.6715"/>
</g>
<!-- Node19 -->
<g id="node20" class="node">
<title>Node19</title>
<g id="a_node20"><a xlink:href="ar_filter_trans_mat_8h.html" target="_top" xlink:title="Provides filtering of transformation matrices (pose estimates). ">
<polygon fill="#ffffff" stroke="#000000" points="379.1782,-165.5 379.1782,-183.5 516.5063,-183.5 516.5063,-165.5 379.1782,-165.5"/>
<text text-anchor="middle" x="447.8423" y="-171.5" font-family="Helvetica,sans-Serif" font-size="10.00" fill="#000000">ARX/AR/arFilterTransMat.h</text>
</a>
</g>
</g>
<!-- Node1&#45;&gt;Node19 -->
<g id="edge26" class="edge">
<title>Node1&#45;&gt;Node19</title>
<path fill="none" stroke="#191970" d="M447.8423,-220.4179C447.8423,-213.2164 447.8423,-202.8962 447.8423,-193.8632"/>
<polygon fill="#191970" stroke="#191970" points="451.3424,-193.7794 447.8423,-183.7795 444.3424,-193.7795 451.3424,-193.7794"/>
</g>
<!-- Node20 -->
<g id="node21" class="node">
<title>Node20</title>
<g id="a_node21"><a xlink:href="_a_r_pattern_8h.html" target="_top" xlink:title="ARX/ARPattern.h">
<polygon fill="#ffffff" stroke="#000000" points="572.936,-165.5 572.936,-183.5 666.7485,-183.5 666.7485,-165.5 572.936,-165.5"/>
<text text-anchor="middle" x="619.8423" y="-171.5" font-family="Helvetica,sans-Serif" font-size="10.00" fill="#000000">ARX/ARPattern.h</text>
</a>
</g>
</g>
<!-- Node1&#45;&gt;Node20 -->
<g id="edge28" class="edge">
<title>Node1&#45;&gt;Node20</title>
<path fill="none" stroke="#191970" d="M476.2446,-220.4179C505.0873,-211.1949 549.9268,-196.8567 581.8202,-186.6582"/>
<polygon fill="#191970" stroke="#191970" points="583.2248,-189.8837 591.6837,-183.5042 581.0927,-183.2163 583.2248,-189.8837"/>
</g>
<!-- Node22 -->
<g id="node23" class="node">
<title>Node22</title>
<polygon fill="#ffffff" stroke="#bfbfbf" points="318.2266,-165.5 318.2266,-183.5 361.458,-183.5 361.458,-165.5 318.2266,-165.5"/>
<text text-anchor="middle" x="339.8423" y="-171.5" font-family="Helvetica,sans-Serif" font-size="10.00" fill="#000000">vector</text>
</g>
<!-- Node1&#45;&gt;Node22 -->
<g id="edge31" class="edge">
<title>Node1&#45;&gt;Node22</title>
<path fill="none" stroke="#191970" d="M430.0083,-220.4179C412.8116,-211.6603 386.5586,-198.2907 366.808,-188.2326"/>
<polygon fill="#191970" stroke="#191970" points="368.2021,-185.0148 357.7028,-183.5956 365.0255,-191.2526 368.2021,-185.0148"/>
</g>
<!-- Node3 -->
<g id="node4" class="node">
<title>Node3</title>
<polygon fill="#ffffff" stroke="#bfbfbf" points="406.1108,-.5 406.1108,-18.5 451.5737,-18.5 451.5737,-.5 406.1108,-.5"/>
<text text-anchor="middle" x="428.8423" y="-6.5" font-family="Helvetica,sans-Serif" font-size="10.00" fill="#000000">stdio.h</text>
</g>
<!-- Node2&#45;&gt;Node3 -->
<g id="edge3" class="edge">
<title>Node2&#45;&gt;Node3</title>
<path fill="none" stroke="#191970" d="M457.3232,-114.7989C412.8643,-108.2393 341.7262,-94.7581 325.8423,-74 320.7106,-67.2937 321.2328,-62.0754 325.8423,-55 334.0156,-42.4542 369.2884,-28.6308 396.302,-19.551"/>
<polygon fill="#191970" stroke="#191970" points="397.4035,-22.8733 405.8152,-16.4317 395.2224,-16.2217 397.4035,-22.8733"/>
</g>
<!-- Node4 -->
<g id="node5" class="node">
<title>Node4</title>
<polygon fill="#ffffff" stroke="#bfbfbf" points="0,-.5 0,-18.5 47.6846,-18.5 47.6846,-.5 0,-.5"/>
<text text-anchor="middle" x="23.8423" y="-6.5" font-family="Helvetica,sans-Serif" font-size="10.00" fill="#000000">stdlib.h</text>
</g>
<!-- Node2&#45;&gt;Node4 -->
<g id="edge4" class="edge">
<title>Node2&#45;&gt;Node4</title>
<path fill="none" stroke="#191970" d="M457.2719,-118.1869C371.3729,-114.6487 159.139,-103.1387 94.8423,-74 71.5115,-63.4267 50.5856,-42.2746 37.5971,-27.0728"/>
<polygon fill="#191970" stroke="#191970" points="39.9621,-24.438 30.9087,-18.9347 34.5542,-28.8826 39.9621,-24.438"/>
</g>
<!-- Node5 -->
<g id="node6" class="node">
<title>Node5</title>
<polygon fill="#ffffff" stroke="#bfbfbf" points="120.7217,-55.5 120.7217,-73.5 168.9629,-73.5 168.9629,-55.5 120.7217,-55.5"/>
<text text-anchor="middle" x="144.8423" y="-61.5" font-family="Helvetica,sans-Serif" font-size="10.00" fill="#000000">stdint.h</text>
</g>
<!-- Node2&#45;&gt;Node5 -->
<g id="edge5" class="edge">
<title>Node2&#45;&gt;Node5</title>
<path fill="none" stroke="#191970" d="M457.0588,-115.8621C399.6186,-109.822 285.033,-96.3324 179.1454,-74.0457"/>
<polygon fill="#191970" stroke="#191970" points="179.7665,-70.5995 169.2559,-71.9327 178.3038,-77.445 179.7665,-70.5995"/>
</g>
<!-- Node6 -->
<g id="node7" class="node">
<title>Node6</title>
<polygon fill="#ffffff" stroke="#bfbfbf" points="65.4458,-.5 65.4458,-18.5 114.2388,-18.5 114.2388,-.5 65.4458,-.5"/>
<text text-anchor="middle" x="89.8423" y="-6.5" font-family="Helvetica,sans-Serif" font-size="10.00" fill="#000000">string.h</text>
</g>
<!-- Node2&#45;&gt;Node6 -->
<g id="edge6" class="edge">
<title>Node2&#45;&gt;Node6</title>
<path fill="none" stroke="#191970" d="M457.238,-117.3451C366.8438,-111.7162 138.4185,-95.5052 111.8423,-74 98.3566,-63.0876 93.1019,-43.5164 91.0734,-28.7849"/>
<polygon fill="#191970" stroke="#191970" points="94.5416,-28.2907 90.0682,-18.6866 87.576,-28.9841 94.5416,-28.2907"/>
</g>
<!-- Node7 -->
<g id="node8" class="node">
<title>Node7</title>
<polygon fill="#ffffff" stroke="#bfbfbf" points="774.3252,-.5 774.3252,-18.5 865.3594,-18.5 865.3594,-.5 774.3252,-.5"/>
<text text-anchor="middle" x="819.8423" y="-6.5" font-family="Helvetica,sans-Serif" font-size="10.00" fill="#000000">ARX/AR/config.h</text>
</g>
<!-- Node2&#45;&gt;Node7 -->
<g id="edge7" class="edge">
<title>Node2&#45;&gt;Node7</title>
<path fill="none" stroke="#191970" d="M530.5192,-115.5602C630.2923,-104.8224 899.2981,-75.7265 900.8423,-74 919.254,-53.4152 886.3945,-34.3075 857.1713,-22.3177"/>
<polygon fill="#191970" stroke="#191970" points="858.0677,-18.9104 847.4796,-18.5327 855.5211,-25.4308 858.0677,-18.9104"/>
</g>
<!-- Node8 -->
<g id="node9" class="node">
<title>Node8</title>
<g id="a_node9"><a xlink:href="ar_config_8h.html" target="_top" xlink:title="ARX/AR/arConfig.h">
<polygon fill="#ffffff" stroke="#000000" points="334.7686,-55.5 334.7686,-73.5 436.916,-73.5 436.916,-55.5 334.7686,-55.5"/>
<text text-anchor="middle" x="385.8423" y="-61.5" font-family="Helvetica,sans-Serif" font-size="10.00" fill="#000000">ARX/AR/arConfig.h</text>
</a>
</g>
</g>
<!-- Node2&#45;&gt;Node8 -->
<g id="edge8" class="edge">
<title>Node2&#45;&gt;Node8</title>
<path fill="none" stroke="#191970" d="M476.0083,-110.4179C458.8116,-101.6603 432.5586,-88.2907 412.808,-78.2326"/>
<polygon fill="#191970" stroke="#191970" points="414.2021,-75.0148 403.7028,-73.5956 411.0255,-81.2526 414.2021,-75.0148"/>
</g>
<!-- Node9 -->
<g id="node10" class="node">
<title>Node9</title>
<g id="a_node10"><a xlink:href="log_8h.html" target="_top" xlink:title="Logging utilities. ">
<polygon fill="#ffffff" stroke="#000000" points="186.7734,-55.5 186.7734,-73.5 278.9111,-73.5 278.9111,-55.5 186.7734,-55.5"/>
<text text-anchor="middle" x="232.8423" y="-61.5" font-family="Helvetica,sans-Serif" font-size="10.00" fill="#000000">ARX/ARUtil/log.h</text>
</a>
</g>
</g>
<!-- Node2&#45;&gt;Node9 -->
<g id="edge9" class="edge">
<title>Node2&#45;&gt;Node9</title>
<path fill="none" stroke="#191970" d="M457.2765,-111.7946C412.5576,-102.371 336.5329,-86.3505 285.514,-75.5994"/>
<polygon fill="#191970" stroke="#191970" points="286.1671,-72.1602 275.6603,-73.5229 284.7236,-79.0098 286.1671,-72.1602"/>
</g>
<!-- Node13 -->
<g id="node14" class="node">
<title>Node13</title>
<g id="a_node14"><a xlink:href="matrix_8h.html" target="_top" xlink:title="ARX/AR/matrix.h">
<polygon fill="#ffffff" stroke="#000000" points="550.0566,-55.5 550.0566,-73.5 641.6279,-73.5 641.6279,-55.5 550.0566,-55.5"/>
<text text-anchor="middle" x="595.8423" y="-61.5" font-family="Helvetica,sans-Serif" font-size="10.00" fill="#000000">ARX/AR/matrix.h</text>
</a>
</g>
</g>
<!-- Node2&#45;&gt;Node13 -->
<g id="edge16" class="edge">
<title>Node2&#45;&gt;Node13</title>
<path fill="none" stroke="#191970" d="M510.6855,-110.4179C526.853,-101.7001 551.4961,-88.4122 570.1199,-78.3699"/>
<polygon fill="#191970" stroke="#191970" points="571.8333,-81.4225 578.974,-73.5956 568.5109,-75.2611 571.8333,-81.4225"/>
</g>
<!-- Node15 -->
<g id="node16" class="node">
<title>Node15</title>
<g id="a_node16"><a xlink:href="icp_8h.html" target="_top" xlink:title="ARX/AR/icp.h">
<polygon fill="#ffffff" stroke="#000000" points="455.2759,-55.5 455.2759,-73.5 532.4087,-73.5 532.4087,-55.5 455.2759,-55.5"/>
<text text-anchor="middle" x="493.8423" y="-61.5" font-family="Helvetica,sans-Serif" font-size="10.00" fill="#000000">ARX/AR/icp.h</text>
</a>
</g>
</g>
<!-- Node2&#45;&gt;Node15 -->
<g id="edge18" class="edge">
<title>Node2&#45;&gt;Node15</title>
<path fill="none" stroke="#191970" d="M493.8423,-110.4179C493.8423,-103.2164 493.8423,-92.8962 493.8423,-83.8632"/>
<polygon fill="#191970" stroke="#191970" points="497.3424,-83.7794 493.8423,-73.7795 490.3424,-83.7795 497.3424,-83.7794"/>
</g>
<!-- Node17 -->
<g id="node18" class="node">
<title>Node17</title>
<g id="a_node18"><a xlink:href="param_8h.html" target="_top" xlink:title="artoolkitX functions for handling calibrated camera parameters. ">
<polygon fill="#ffffff" stroke="#000000" points="799.4951,-55.5 799.4951,-73.5 892.1895,-73.5 892.1895,-55.5 799.4951,-55.5"/>
<text text-anchor="middle" x="845.8423" y="-61.5" font-family="Helvetica,sans-Serif" font-size="10.00" fill="#000000">ARX/AR/param.h</text>
</a>
</g>
</g>
<!-- Node2&#45;&gt;Node17 -->
<g id="edge21" class="edge">
<title>Node2&#45;&gt;Node17</title>
<path fill="none" stroke="#191970" d="M530.5718,-113.1998C585.4343,-104.6434 691.486,-88.7234 781.8423,-74 784.311,-73.5977 786.841,-73.18 789.4041,-72.754"/>
<polygon fill="#191970" stroke="#191970" points="790.1077,-76.1851 799.3944,-71.0853 788.9544,-69.2807 790.1077,-76.1851"/>
</g>
<!-- Node18 -->
<g id="node19" class="node">
<title>Node18</title>
<g id="a_node19"><a xlink:href="ar_image_proc_8h.html" target="_top" xlink:title="artoolkitX functions for 2D luminance image processing. ">
<polygon fill="#ffffff" stroke="#000000" points="660.0444,-55.5 660.0444,-73.5 781.6401,-73.5 781.6401,-55.5 660.0444,-55.5"/>
<text text-anchor="middle" x="720.8423" y="-61.5" font-family="Helvetica,sans-Serif" font-size="10.00" fill="#000000">ARX/AR/arImageProc.h</text>
</a>
</g>
</g>
<!-- Node2&#45;&gt;Node18 -->
<g id="edge23" class="edge">
<title>Node2&#45;&gt;Node18</title>
<path fill="none" stroke="#191970" d="M526.1604,-110.4179C563.3332,-100.9354 624.6496,-86.0457 668.5956,-75.8073"/>
<polygon fill="#191970" stroke="#191970" points="669.5783,-79.1724 678.5293,-73.5042 667.9972,-72.3533 669.5783,-79.1724"/>
</g>
<!-- Node9&#45;&gt;Node3 -->
<g id="edge10" class="edge">
<title>Node9&#45;&gt;Node3</title>
<path fill="none" stroke="#191970" d="M266.1864,-55.4376C297.3496,-46.9262 345.4197,-33.6914 395.9815,-19.2129"/>
<polygon fill="#191970" stroke="#191970" points="397.1385,-22.5222 405.7847,-16.399 395.2072,-15.7939 397.1385,-22.5222"/>
</g>
<!-- Node9&#45;&gt;Node4 -->
<g id="edge11" class="edge">
<title>Node9&#45;&gt;Node4</title>
<path fill="none" stroke="#191970" d="M196.6989,-55.4632C163.0843,-46.9904 111.3723,-33.7836 57.6638,-19.1745"/>
<polygon fill="#191970" stroke="#191970" points="58.5402,-15.7857 47.9715,-16.5286 56.6967,-22.5386 58.5402,-15.7857"/>
</g>
<!-- Node9&#45;&gt;Node6 -->
<g id="edge12" class="edge">
<title>Node9&#45;&gt;Node6</title>
<path fill="none" stroke="#191970" d="M209.2287,-55.4179C185.7346,-46.3817 149.474,-32.4353 123.0775,-22.2828"/>
<polygon fill="#191970" stroke="#191970" points="124.0808,-18.9188 113.4909,-18.5956 121.5679,-25.4522 124.0808,-18.9188"/>
</g>
<!-- Node10 -->
<g id="node11" class="node">
<title>Node10</title>
<polygon fill="#ffffff" stroke="#bfbfbf" points="131.7759,-.5 131.7759,-18.5 183.9087,-18.5 183.9087,-.5 131.7759,-.5"/>
<text text-anchor="middle" x="157.8423" y="-6.5" font-family="Helvetica,sans-Serif" font-size="10.00" fill="#000000">stdarg.h</text>
</g>
<!-- Node9&#45;&gt;Node10 -->
<g id="edge13" class="edge">
<title>Node9&#45;&gt;Node10</title>
<path fill="none" stroke="#191970" d="M220.4576,-55.4179C209.0583,-47.0584 191.9286,-34.4966 178.4658,-24.6239"/>
<polygon fill="#191970" stroke="#191970" points="180.3793,-21.6869 170.2454,-18.5956 176.2397,-27.3317 180.3793,-21.6869"/>
</g>
<!-- Node11 -->
<g id="node12" class="node">
<title>Node11</title>
<polygon fill="#ffffff" stroke="#bfbfbf" points="202.1108,-.5 202.1108,-18.5 267.5737,-18.5 267.5737,-.5 202.1108,-.5"/>
<text text-anchor="middle" x="234.8423" y="-6.5" font-family="Helvetica,sans-Serif" font-size="10.00" fill="#000000">sys/errno.h</text>
</g>
<!-- Node9&#45;&gt;Node11 -->
<g id="edge14" class="edge">
<title>Node9&#45;&gt;Node11</title>
<path fill="none" stroke="#191970" d="M233.1725,-55.4179C233.4344,-48.2164 233.8097,-37.8962 234.1382,-28.8632"/>
<polygon fill="#191970" stroke="#191970" points="237.639,-28.9001 234.5049,-18.7795 230.6437,-28.6456 237.639,-28.9001"/>
</g>
<!-- Node12 -->
<g id="node13" class="node">
<title>Node12</title>
<g id="a_node13"><a xlink:href="types_8h.html" target="_top" xlink:title="ARX/ARUtil/types.h">
<polygon fill="#ffffff" stroke="#000000" points="285.4951,-.5 285.4951,-18.5 388.1895,-18.5 388.1895,-.5 285.4951,-.5"/>
<text text-anchor="middle" x="336.8423" y="-6.5" font-family="Helvetica,sans-Serif" font-size="10.00" fill="#000000">ARX/ARUtil/types.h</text>
</a>
</g>
</g>
<!-- Node9&#45;&gt;Node12 -->
<g id="edge15" class="edge">
<title>Node9&#45;&gt;Node12</title>
<path fill="none" stroke="#191970" d="M250.0158,-55.4179C266.5002,-46.7001 291.6265,-33.4122 310.6155,-23.3699"/>
<polygon fill="#191970" stroke="#191970" points="312.4396,-26.3646 319.6433,-18.5956 309.1671,-20.1767 312.4396,-26.3646"/>
</g>
<!-- Node14 -->
<g id="node15" class="node">
<title>Node14</title>
<polygon fill="#ffffff" stroke="#bfbfbf" points="586.5566,-.5 586.5566,-18.5 633.1279,-18.5 633.1279,-.5 586.5566,-.5"/>
<text text-anchor="middle" x="609.8423" y="-6.5" font-family="Helvetica,sans-Serif" font-size="10.00" fill="#000000">math.h</text>
</g>
<!-- Node13&#45;&gt;Node14 -->
<g id="edge17" class="edge">
<title>Node13&#45;&gt;Node14</title>
<path fill="none" stroke="#191970" d="M598.1541,-55.4179C600.0074,-48.1372 602.672,-37.669 604.9892,-28.5659"/>
<polygon fill="#191970" stroke="#191970" points="608.4052,-29.3338 607.4802,-18.7795 601.6215,-27.607 608.4052,-29.3338"/>
</g>
<!-- Node15&#45;&gt;Node3 -->
<g id="edge19" class="edge">
<title>Node15&#45;&gt;Node3</title>
<path fill="none" stroke="#191970" d="M483.1089,-55.4179C473.4757,-47.2667 459.1206,-35.1201 447.5941,-25.3669"/>
<polygon fill="#191970" stroke="#191970" points="449.7036,-22.5671 439.8089,-18.7795 445.182,-27.9108 449.7036,-22.5671"/>
</g>
<!-- Node16 -->
<g id="node17" class="node">
<title>Node16</title>
<g id="a_node17"><a xlink:href="icp_core_8h.html" target="_top" xlink:title="ARX/AR/icpCore.h">
<polygon fill="#ffffff" stroke="#000000" points="469.4385,-.5 469.4385,-18.5 568.2461,-18.5 568.2461,-.5 469.4385,-.5"/>
<text text-anchor="middle" x="518.8423" y="-6.5" font-family="Helvetica,sans-Serif" font-size="10.00" fill="#000000">ARX/AR/icpCore.h</text>
</a>
</g>
</g>
<!-- Node15&#45;&gt;Node16 -->
<g id="edge20" class="edge">
<title>Node15&#45;&gt;Node16</title>
<path fill="none" stroke="#191970" d="M497.9705,-55.4179C501.3519,-47.9789 506.2458,-37.2123 510.4449,-27.9742"/>
<polygon fill="#191970" stroke="#191970" points="513.6725,-29.3315 514.6244,-18.7795 507.3,-26.4348 513.6725,-29.3315"/>
</g>
<!-- Node17&#45;&gt;Node2 -->
<g id="edge22" class="edge">
<title>Node17&#45;&gt;Node2</title>
<path fill="none" stroke="#191970" d="M802.7363,-73.5259C801.7643,-73.686 800.7987,-73.8442 799.8423,-74 708.3437,-88.9095 600.7502,-105.0462 540.4935,-113.5208"/>
<polygon fill="#191970" stroke="#191970" points="539.9432,-110.0636 530.5233,-114.913 540.9113,-116.9964 539.9432,-110.0636"/>
</g>
<!-- Node18&#45;&gt;Node2 -->
<g id="edge25" class="edge">
<title>Node18&#45;&gt;Node2</title>
<path fill="none" stroke="#191970" d="M688.6751,-73.5436C649.8246,-83.4562 584.4474,-99.3108 540.1867,-109.5639"/>
<polygon fill="#191970" stroke="#191970" points="539.2099,-106.1972 530.2506,-111.8525 540.7811,-113.0186 539.2099,-106.1972"/>
</g>
<!-- Node18&#45;&gt;Node7 -->
<g id="edge24" class="edge">
<title>Node18&#45;&gt;Node7</title>
<path fill="none" stroke="#191970" d="M737.1901,-55.4179C752.8104,-46.7399 776.5821,-33.5334 794.6285,-23.5077"/>
<polygon fill="#191970" stroke="#191970" points="796.4283,-26.5117 803.4702,-18.5956 793.0288,-20.3925 796.4283,-26.5117"/>
</g>
<!-- Node19&#45;&gt;Node2 -->
<g id="edge27" class="edge">
<title>Node19&#45;&gt;Node2</title>
<path fill="none" stroke="#191970" d="M455.4382,-165.4179C461.9908,-157.5833 471.6305,-146.0575 479.6127,-136.5137"/>
<polygon fill="#191970" stroke="#191970" points="482.3505,-138.6957 486.0813,-128.7795 476.9809,-134.2048 482.3505,-138.6957"/>
</g>
<!-- Node20&#45;&gt;Node2 -->
<g id="edge29" class="edge">
<title>Node20&#45;&gt;Node2</title>
<path fill="none" stroke="#191970" d="M599.0359,-165.4179C578.6084,-156.5011 547.2274,-142.803 524.0531,-132.6873"/>
<polygon fill="#191970" stroke="#191970" points="525.2447,-129.3885 514.6795,-128.5956 522.4442,-135.804 525.2447,-129.3885"/>
</g>
<!-- Node21 -->
<g id="node22" class="node">
<title>Node21</title>
<polygon fill="#ffffff" stroke="#bfbfbf" points="593.7856,-110.5 593.7856,-128.5 645.8989,-128.5 645.8989,-110.5 593.7856,-110.5"/>
<text text-anchor="middle" x="619.8423" y="-116.5" font-family="Helvetica,sans-Serif" font-size="10.00" fill="#000000">memory</text>
</g>
<!-- Node20&#45;&gt;Node21 -->
<g id="edge30" class="edge">
<title>Node20&#45;&gt;Node21</title>
<path fill="none" stroke="#191970" d="M619.8423,-165.4179C619.8423,-158.2164 619.8423,-147.8962 619.8423,-138.8632"/>
<polygon fill="#191970" stroke="#191970" points="623.3424,-138.7794 619.8423,-128.7795 616.3424,-138.7795 623.3424,-138.7794"/>
</g>
<!-- Node23&#45;&gt;Node2 -->
<g id="edge33" class="edge">
<title>Node23&#45;&gt;Node2</title>
<path fill="none" stroke="#191970" d="M306.4879,-220.4687C302.0781,-206.8745 296.2679,-181.0417 308.8423,-165 325.7488,-143.4315 398.2859,-130.721 447.3484,-124.4382"/>
<polygon fill="#191970" stroke="#191970" points="447.9367,-127.8922 457.433,-123.1942 447.0797,-120.9449 447.9367,-127.8922"/>
</g>
</g>
</svg>
        <g id="navigator" transform="translate(0 0)" fill="#404254">
                <rect fill="#f2f5e9" fill-opacity="0.5" stroke="#606060" stroke-width=".5" x="0" y="0" width="60" height="60"/>
                <use id="zoomplus" xlink:href="#zoomPlus" x="17" y="9" onmousedown="handleZoom(evt,'in')"/>
                <use id="zoomminus" xlink:href="#zoomMin" x="42" y="9" onmousedown="handleZoom(evt,'out')"/>
                <use id="reset" xlink:href="#resetDef" x="30" y="36" onmousedown="handleReset()"/>
                <g id="arrowUp" xlink:href="#dirArrow" transform="translate(30 24)" onmousedown="handlePan(0,-1)">
                  <use xlink:href="#rim" fill="#404040">
                        <set attributeName="fill" to="#808080" begin="arrowUp.mouseover" end="arrowUp.mouseout"/>
                  </use>
                  <path fill="none" stroke="white" stroke-width="1.5" d="M0,-3.0v7 M-2.5,-0.5L0,-3.0L2.5,-0.5"/>
                </g>
                <g id="arrowRight" xlink:href="#dirArrow" transform="rotate(90) translate(36 -43)" onmousedown="handlePan(1,0)">
                  <use xlink:href="#rim" fill="#404040">
                        <set attributeName="fill" to="#808080" begin="arrowRight.mouseover" end="arrowRight.mouseout"/>
                  </use>
                  <path fill="none" stroke="white" stroke-width="1.5" d="M0,-3.0v7 M-2.5,-0.5L0,-3.0L2.5,-0.5"/>
                </g>
                <g id="arrowDown" xlink:href="#dirArrow" transform="rotate(180) translate(-30 -48)" onmousedown="handlePan(0,1)">
                  <use xlink:href="#rim" fill="#404040">
                        <set attributeName="fill" to="#808080" begin="arrowDown.mouseover" end="arrowDown.mouseout"/>
                  </use>
                  <path fill="none" stroke="white" stroke-width="1.5" d="M0,-3.0v7 M-2.5,-0.5L0,-3.0L2.5,-0.5"/>
                </g>
                <g id="arrowLeft" xlink:href="#dirArrow" transform="rotate(270) translate(-36 17)" onmousedown="handlePan(-1,0)">
                  <use xlink:href="#rim" fill="#404040">
                        <set attributeName="fill" to="#808080" begin="arrowLeft.mouseover" end="arrowLeft.mouseout"/>
                  </use>
                  <path fill="none" stroke="white" stroke-width="1.5" d="M0,-3.0v7 M-2.5,-0.5L0,-3.0L2.5,-0.5"/>
                </g>
        </g>
        <svg viewBox="0 0 15 15" width="100%" height="30px" preserveAspectRatio="xMaxYMin meet">
         <g id="arrow_out" transform="scale(0.3 0.3)">
          <a xlink:href="_a_r_trackable_multi_square_8h__incl_org.svg" target="_base">
           <rect id="button" ry="5" rx="5" y="6" x="6" height="38" width="38"
                fill="#f2f5e9" fill-opacity="0.5" stroke="#606060" stroke-width="1.0"/>
           <path id="arrow"
             d="M 11.500037,31.436501 C 11.940474,20.09759 22.043105,11.32322 32.158766,21.979434 L 37.068811,17.246167 C 37.068811,17.246167 37.088388,32 37.088388,32 L 22.160133,31.978069 C 22.160133,31.978069 26.997745,27.140456 26.997745,27.140456 C 18.528582,18.264221 13.291696,25.230495 11.500037,31.436501 z"
             style="fill:#404040;"/>
          </a>
         </g>
        </svg>
</svg>
