<?xml version="1.0" encoding="UTF-8" standalone="no"?>
<!DOCTYPE svg PUBLIC "-//W3C//DTD SVG 1.1//EN"
 "http://www.w3.org/Graphics/SVG/1.1/DTD/svg11.dtd">
<!-- Generated by graphviz version 7.0.5 (20221223.1930)
 -->
<!-- Title: Source/ARX/include/ARX/ARTrackable.h Pages: 1 -->
<!--zoomable 379 -->
<svg id="main" version="1.1" xmlns="http://www.w3.org/2000/svg" xmlns:xlink="http://www.w3.org/1999/xlink" xml:space="preserve" onload="init(evt)">
<style type="text/css"><![CDATA[
.edge:hover path { stroke: red; }
.edge:hover polygon { stroke: red; fill: red; }
]]></style>
<script type="text/javascript"><![CDATA[
var edges = document.getElementsByTagName('g');
if (edges && edges.length) {
  for (var i=0;i<edges.length;i++) {
    if (edges[i].id.substr(0,4)=='edge') {
      edges[i].setAttribute('class','edge');
    }
  }
}
]]></script>
        <defs>
                <circle id="rim" cx="0" cy="0" r="7"/>
                <circle id="rim2" cx="0" cy="0" r="3.5"/>
                <g id="zoomPlus">
                        <use xlink:href="#rim" fill="#404040">
                                <set attributeName="fill" to="#808080" begin="zoomplus.mouseover" end="zoomplus.mouseout"/>
                        </use>
                        <path d="M-4,0h8M0,-4v8" fill="none" stroke="white" stroke-width="1.5" pointer-events="none"/>
                </g>
                <g id="zoomMin">
                        <use xlink:href="#rim" fill="#404040">
                                <set attributeName="fill" to="#808080" begin="zoomminus.mouseover" end="zoomminus.mouseout"/>
                        </use>
                        <path d="M-4,0h8" fill="none" stroke="white" stroke-width="1.5" pointer-events="none"/>
                </g>
                <g id="dirArrow">
                        <path fill="none" stroke="white" stroke-width="1.5" d="M0,-3.0v7 M-2.5,-0.5L0,-3.0L2.5,-0.5"/>
                </g>
               <g id="resetDef">
                       <use xlink:href="#rim2" fill="#404040">
                               <set attributeName="fill" to="#808080" begin="reset.mouseover" end="reset.mouseout"/>
                       </use>
               </g>
        </defs>

<script type="text/javascript">
var viewWidth = 1244;
var viewHeight = 379;
var sectionId = 'dynsection-1';
</script>
<script xlink:href="svgpan.js"/>
<svg id="graph" class="graph">
<g id="viewport">
<title>Source/ARX/include/ARX/ARTrackable.h</title>
<!-- Node1 -->
<g id="node1" class="node">
<title>Node1</title>
<g id="a_node1"><a xlink:title=" ">
<polygon fill="#999999" stroke="#666666" points="626.5,-371 517.5,-371 517.5,-341 626.5,-341 626.5,-371"/>
<text text-anchor="start" x="525.5" y="-359" font-family="Helvetica,sans-Serif" font-size="10.00">Source/ARX/include</text>
<text text-anchor="middle" x="572" y="-348" font-family="Helvetica,sans-Serif" font-size="10.00">/ARX/ARTrackable.h</text>
</a>
</g>
</g>
<!-- Node2 -->
<g id="node2" class="node">
<title>Node2</title>
<g id="a_node2"><a xlink:href="_a_r_trackable_8cpp.html" target="_top" xlink:title=" ">
<polygon fill="white" stroke="#666666" points="184,-24.5 34,-24.5 34,-5.5 184,-5.5 184,-24.5"/>
<text text-anchor="middle" x="109" y="-12.5" font-family="Helvetica,sans-Serif" font-size="10.00">Source/ARX/ARTrackable.cpp</text>
</a>
</g>
</g>
<!-- Node1&#45;&gt;Node2 -->
<g id="edge1" class="edge">
<title>Node1&#45;&gt;Node2</title>
<path fill="none" stroke="#63b8ff" d="M505.81,-352.59C355.24,-345.3 0,-317.17 0,-214 0,-214 0,-214 0,-146 0,-88.57 63.24,-43.2 93.38,-24.84"/>
<polygon fill="#63b8ff" stroke="#63b8ff" points="505.49,-356.08 515.64,-353.04 505.82,-349.08 505.49,-356.08"/>
</g>
<!-- Node3 -->
<g id="node3" class="node">
<title>Node3</title>
<g id="a_node3"><a xlink:href="_a_r_controller_8h.html" target="_top" xlink:title=" ">
<polygon fill="white" stroke="#666666" points="787.5,-96 680.5,-96 680.5,-66 787.5,-66 787.5,-96"/>
<text text-anchor="start" x="688.5" y="-84" font-family="Helvetica,sans-Serif" font-size="10.00">Source/ARX/include</text>
<text text-anchor="middle" x="734" y="-73" font-family="Helvetica,sans-Serif" font-size="10.00">/ARX/ARController.h</text>
</a>
</g>
</g>
<!-- Node1&#45;&gt;Node3 -->
<g id="edge2" class="edge">
<title>Node1&#45;&gt;Node3</title>
<path fill="none" stroke="#63b8ff" d="M637.88,-353.76C791.93,-349.19 1167.42,-327.84 1230,-228 1237.08,-216.7 1238.29,-208.45 1230,-198 1175.18,-128.89 904.58,-97.05 787.81,-86.36"/>
<polygon fill="#63b8ff" stroke="#63b8ff" points="638.15,-350.25 628.25,-354.03 638.34,-357.25 638.15,-350.25"/>
</g>
<!-- Node10 -->
<g id="node10" class="node">
<title>Node10</title>
<g id="a_node10"><a xlink:href="_a_r_trackable2d_8h.html" target="_top" xlink:title=" ">
<polygon fill="white" stroke="#666666" points="377.5,-299.5 258.5,-299.5 258.5,-269.5 377.5,-269.5 377.5,-299.5"/>
<text text-anchor="start" x="266.5" y="-287.5" font-family="Helvetica,sans-Serif" font-size="10.00">Source/ARX/include</text>
<text text-anchor="middle" x="318" y="-276.5" font-family="Helvetica,sans-Serif" font-size="10.00">/ARX/ARTrackable2d.h</text>
</a>
</g>
</g>
<!-- Node1&#45;&gt;Node10 -->
<g id="edge10" class="edge">
<title>Node1&#45;&gt;Node10</title>
<path fill="none" stroke="#63b8ff" d="M508.02,-337.49C465.66,-325.9 410.76,-310.88 370.87,-299.97"/>
<polygon fill="#63b8ff" stroke="#63b8ff" points="507.03,-340.85 517.6,-340.12 508.88,-334.1 507.03,-340.85"/>
</g>
<!-- Node12 -->
<g id="node12" class="node">
<title>Node12</title>
<g id="a_node12"><a xlink:href="_a_r_trackable_multi_square_8h.html" target="_top" xlink:title=" ">
<polygon fill="white" stroke="#666666" points="189.5,-228 28.5,-228 28.5,-198 189.5,-198 189.5,-228"/>
<text text-anchor="start" x="36.5" y="-216" font-family="Helvetica,sans-Serif" font-size="10.00">Source/ARX/include</text>
<text text-anchor="middle" x="109" y="-205" font-family="Helvetica,sans-Serif" font-size="10.00">/ARX/ARTrackableMultiSquare.h</text>
</a>
</g>
</g>
<!-- Node1&#45;&gt;Node12 -->
<g id="edge12" class="edge">
<title>Node1&#45;&gt;Node12</title>
<path fill="none" stroke="#63b8ff" d="M505.87,-352.87C439.08,-348.87 333.93,-337.45 249,-305 200.26,-286.38 150.84,-248.95 125.8,-228.37"/>
<polygon fill="#63b8ff" stroke="#63b8ff" points="505.37,-356.35 515.55,-353.41 505.76,-349.36 505.37,-356.35"/>
</g>
<!-- Node15 -->
<g id="node15" class="node">
<title>Node15</title>
<g id="a_node15"><a xlink:href="_a_r_trackable_multi_square_auto_8h.html" target="_top" xlink:title=" ">
<polygon fill="white" stroke="#666666" points="817,-305 665,-305 665,-264 817,-264 817,-305"/>
<text text-anchor="start" x="673" y="-293" font-family="Helvetica,sans-Serif" font-size="10.00">Source/ARX/include</text>
<text text-anchor="start" x="673" y="-282" font-family="Helvetica,sans-Serif" font-size="10.00">/ARX/ARTrackableMultiSquare</text>
<text text-anchor="middle" x="741" y="-271" font-family="Helvetica,sans-Serif" font-size="10.00">Auto.h</text>
</a>
</g>
</g>
<!-- Node1&#45;&gt;Node15 -->
<g id="edge19" class="edge">
<title>Node1&#45;&gt;Node15</title>
<path fill="none" stroke="#63b8ff" d="M617.62,-336.24C640.81,-326.7 669,-315.11 692.57,-305.42"/>
<polygon fill="#63b8ff" stroke="#63b8ff" points="616.33,-332.98 608.42,-340.02 619,-339.46 616.33,-332.98"/>
</g>
<!-- Node17 -->
<g id="node17" class="node">
<title>Node17</title>
<g id="a_node17"><a xlink:href="_a_r_trackable_n_f_t_8h.html" target="_top" xlink:title=" ">
<polygon fill="white" stroke="#666666" points="552.5,-299.5 425.5,-299.5 425.5,-269.5 552.5,-269.5 552.5,-299.5"/>
<text text-anchor="start" x="433.5" y="-287.5" font-family="Helvetica,sans-Serif" font-size="10.00">Source/ARX/include</text>
<text text-anchor="middle" x="489" y="-276.5" font-family="Helvetica,sans-Serif" font-size="10.00">/ARX/ARTrackableNFT.h</text>
</a>
</g>
</g>
<!-- Node1&#45;&gt;Node17 -->
<g id="edge22" class="edge">
<title>Node1&#45;&gt;Node17</title>
<path fill="none" stroke="#63b8ff" d="M546.25,-333.43C533.21,-322.52 517.74,-309.57 506.18,-299.88"/>
<polygon fill="#63b8ff" stroke="#63b8ff" points="543.73,-335.89 553.64,-339.63 548.22,-330.52 543.73,-335.89"/>
</g>
<!-- Node19 -->
<g id="node19" class="node">
<title>Node19</title>
<g id="a_node19"><a xlink:href="_a_r_trackable_square_8h.html" target="_top" xlink:title=" ">
<polygon fill="white" stroke="#666666" points="713,-228 573,-228 573,-198 713,-198 713,-228"/>
<text text-anchor="start" x="581" y="-216" font-family="Helvetica,sans-Serif" font-size="10.00">Source/ARX/include</text>
<text text-anchor="middle" x="643" y="-205" font-family="Helvetica,sans-Serif" font-size="10.00">/ARX/ARTrackableSquare.h</text>
</a>
</g>
</g>
<!-- Node1&#45;&gt;Node19 -->
<g id="edge24" class="edge">
<title>Node1&#45;&gt;Node19</title>
<path fill="none" stroke="#63b8ff" d="M584.19,-330.8C599.04,-301.3 623.65,-252.43 635.78,-228.33"/>
<polygon fill="#63b8ff" stroke="#63b8ff" points="581.25,-328.85 579.88,-339.35 587.5,-331.99 581.25,-328.85"/>
</g>
<!-- Node20 -->
<g id="node20" class="node">
<title>Node20</title>
<g id="a_node20"><a xlink:href="_a_r_tracker_8h.html" target="_top" xlink:title=" ">
<polygon fill="white" stroke="#666666" points="1061.5,-299.5 956.5,-299.5 956.5,-269.5 1061.5,-269.5 1061.5,-299.5"/>
<text text-anchor="start" x="964.5" y="-287.5" font-family="Helvetica,sans-Serif" font-size="10.00">Source/ARX/include</text>
<text text-anchor="middle" x="1009" y="-276.5" font-family="Helvetica,sans-Serif" font-size="10.00">/ARX/ARTracker.h</text>
</a>
</g>
</g>
<!-- Node1&#45;&gt;Node20 -->
<g id="edge29" class="edge">
<title>Node1&#45;&gt;Node20</title>
<path fill="none" stroke="#63b8ff" d="M638.22,-344.47C725.2,-330.64 876.2,-306.62 956.03,-293.92"/>
<polygon fill="#63b8ff" stroke="#63b8ff" points="637.72,-341 628.4,-346.03 638.82,-347.92 637.72,-341"/>
</g>
<!-- Node3&#45;&gt;Node2 -->
<g id="edge5" class="edge">
<title>Node3&#45;&gt;Node2</title>
<path fill="none" stroke="#63b8ff" d="M669.21,-65.73C458.91,-35.11 401.33,-55.14 193,-30 181.7,-28.64 169.6,-26.83 158.2,-24.96"/>
<polygon fill="#63b8ff" stroke="#63b8ff" points="668.42,-69.15 678.83,-67.15 669.45,-62.22 668.42,-69.15"/>
</g>
<!-- Node4 -->
<g id="node4" class="node">
<title>Node4</title>
<g id="a_node4"><a xlink:href="_a_r_controller_8cpp.html" target="_top" xlink:title=" ">
<polygon fill="white" stroke="#666666" points="1201.5,-24.5 1052.5,-24.5 1052.5,-5.5 1201.5,-5.5 1201.5,-24.5"/>
<text text-anchor="middle" x="1127" y="-12.5" font-family="Helvetica,sans-Serif" font-size="10.00">Source/ARX/ARController.cpp</text>
</a>
</g>
</g>
<!-- Node3&#45;&gt;Node4 -->
<g id="edge3" class="edge">
<title>Node3&#45;&gt;Node4</title>
<path fill="none" stroke="#63b8ff" d="M799.08,-69.64C861.82,-59.62 959.44,-43.95 1044,-30 1053.8,-28.38 1064.26,-26.64 1074.32,-24.94"/>
<polygon fill="#63b8ff" stroke="#63b8ff" points="798.6,-66.17 789.28,-71.21 799.7,-73.09 798.6,-66.17"/>
</g>
<!-- Node5 -->
<g id="node5" class="node">
<title>Node5</title>
<g id="a_node5"><a xlink:href="_a_r_pattern_8cpp.html" target="_top" xlink:title=" ">
<polygon fill="white" stroke="#666666" points="710.5,-24.5 571.5,-24.5 571.5,-5.5 710.5,-5.5 710.5,-24.5"/>
<text text-anchor="middle" x="641" y="-12.5" font-family="Helvetica,sans-Serif" font-size="10.00">Source/ARX/ARPattern.cpp</text>
</a>
</g>
</g>
<!-- Node3&#45;&gt;Node5 -->
<g id="edge4" class="edge">
<title>Node3&#45;&gt;Node5</title>
<path fill="none" stroke="#63b8ff" d="M704.33,-59.58C687.32,-47.87 666.82,-33.77 653.85,-24.84"/>
<polygon fill="#63b8ff" stroke="#63b8ff" points="701.89,-62.15 712.11,-64.94 705.86,-56.39 701.89,-62.15"/>
</g>
<!-- Node6 -->
<g id="node6" class="node">
<title>Node6</title>
<g id="a_node6"><a xlink:href="_a_r_trackable_multi_square_8cpp.html" target="_top" xlink:title=" ">
<polygon fill="white" stroke="#666666" points="354,-30 202,-30 202,0 354,0 354,-30"/>
<text text-anchor="start" x="210" y="-18" font-family="Helvetica,sans-Serif" font-size="10.00">Source/ARX/ARTrackableMulti</text>
<text text-anchor="middle" x="278" y="-7" font-family="Helvetica,sans-Serif" font-size="10.00">Square.cpp</text>
</a>
</g>
</g>
<!-- Node3&#45;&gt;Node6 -->
<g id="edge6" class="edge">
<title>Node3&#45;&gt;Node6</title>
<path fill="none" stroke="#63b8ff" d="M669.12,-65.62C534.2,-43.1 496.9,-48.57 364,-30 360.85,-29.56 357.65,-29.1 354.41,-28.62"/>
<polygon fill="#63b8ff" stroke="#63b8ff" points="668.36,-69.04 678.81,-67.26 669.53,-62.14 668.36,-69.04"/>
</g>
<!-- Node7 -->
<g id="node7" class="node">
<title>Node7</title>
<g id="a_node7"><a xlink:href="_a_r_trackable_square_8cpp.html" target="_top" xlink:title=" ">
<polygon fill="white" stroke="#666666" points="553.5,-24.5 372.5,-24.5 372.5,-5.5 553.5,-5.5 553.5,-24.5"/>
<text text-anchor="middle" x="463" y="-12.5" font-family="Helvetica,sans-Serif" font-size="10.00">Source/ARX/ARTrackableSquare.cpp</text>
</a>
</g>
</g>
<!-- Node3&#45;&gt;Node7 -->
<g id="edge7" class="edge">
<title>Node3&#45;&gt;Node7</title>
<path fill="none" stroke="#63b8ff" d="M669.25,-64.71C616.78,-52.32 544.63,-35.28 501.05,-24.99"/>
<polygon fill="#63b8ff" stroke="#63b8ff" points="668.13,-68.04 678.66,-66.93 669.73,-61.23 668.13,-68.04"/>
</g>
<!-- Node8 -->
<g id="node8" class="node">
<title>Node8</title>
<g id="a_node8"><a xlink:href="_a_r_video_source_8cpp.html" target="_top" xlink:title=" ">
<polygon fill="white" stroke="#666666" points="891.5,-24.5 728.5,-24.5 728.5,-5.5 891.5,-5.5 891.5,-24.5"/>
<text text-anchor="middle" x="810" y="-12.5" font-family="Helvetica,sans-Serif" font-size="10.00">Source/ARX/ARVideoSource.cpp</text>
</a>
</g>
</g>
<!-- Node3&#45;&gt;Node8 -->
<g id="edge8" class="edge">
<title>Node3&#45;&gt;Node8</title>
<path fill="none" stroke="#63b8ff" d="M759.41,-58.6C773.07,-47.1 789.19,-33.52 799.5,-24.84"/>
<polygon fill="#63b8ff" stroke="#63b8ff" points="757.42,-55.7 752.02,-64.82 761.93,-61.06 757.42,-55.7"/>
</g>
<!-- Node9 -->
<g id="node9" class="node">
<title>Node9</title>
<g id="a_node9"><a xlink:href="_a_r_x__c_8cpp.html" target="_top" xlink:title=" ">
<polygon fill="white" stroke="#666666" points="1034.5,-24.5 909.5,-24.5 909.5,-5.5 1034.5,-5.5 1034.5,-24.5"/>
<text text-anchor="middle" x="972" y="-12.5" font-family="Helvetica,sans-Serif" font-size="10.00">Source/ARX/ARX_c.cpp</text>
</a>
</g>
</g>
<!-- Node3&#45;&gt;Node9 -->
<g id="edge9" class="edge">
<title>Node3&#45;&gt;Node9</title>
<path fill="none" stroke="#63b8ff" d="M798.61,-62.63C843.87,-50.46 902.5,-34.69 938.67,-24.96"/>
<polygon fill="#63b8ff" stroke="#63b8ff" points="797.92,-59.19 789.17,-65.16 799.74,-65.95 797.92,-59.19"/>
</g>
<!-- Node11 -->
<g id="node11" class="node">
<title>Node11</title>
<g id="a_node11"><a xlink:href="_a_r_trackable2d_8cpp.html" target="_top" xlink:title=" ">
<polygon fill="white" stroke="#666666" points="368.5,-222.5 207.5,-222.5 207.5,-203.5 368.5,-203.5 368.5,-222.5"/>
<text text-anchor="middle" x="288" y="-210.5" font-family="Helvetica,sans-Serif" font-size="10.00">Source/ARX/ARTrackable2d.cpp</text>
</a>
</g>
</g>
<!-- Node10&#45;&gt;Node11 -->
<g id="edge11" class="edge">
<title>Node10&#45;&gt;Node11</title>
<path fill="none" stroke="#63b8ff" d="M307.31,-258.73C301.88,-246.15 295.63,-231.67 291.75,-222.68"/>
<polygon fill="#63b8ff" stroke="#63b8ff" points="304.01,-259.92 311.18,-267.71 310.43,-257.14 304.01,-259.92"/>
</g>
<!-- Node12&#45;&gt;Node2 -->
<g id="edge13" class="edge">
<title>Node12&#45;&gt;Node2</title>
<path fill="none" stroke="#63b8ff" d="M109,-186.33C109,-141.92 109,-52.78 109,-24.69"/>
<polygon fill="#63b8ff" stroke="#63b8ff" points="105.5,-186.07 109,-196.07 112.5,-186.07 105.5,-186.07"/>
</g>
<!-- Node12&#45;&gt;Node6 -->
<g id="edge14" class="edge">
<title>Node12&#45;&gt;Node6</title>
<path fill="none" stroke="#63b8ff" d="M128.73,-189.12C163.91,-148.32 236.48,-64.15 265.55,-30.43"/>
<polygon fill="#63b8ff" stroke="#63b8ff" points="126.29,-186.58 122.42,-196.44 131.6,-191.15 126.29,-186.58"/>
</g>
<!-- Node13 -->
<g id="node13" class="node">
<title>Node13</title>
<g id="a_node13"><a xlink:href="_a_r_tracker_square_8cpp.html" target="_top" xlink:title=" ">
<polygon fill="white" stroke="#666666" points="662.5,-90.5 491.5,-90.5 491.5,-71.5 662.5,-71.5 662.5,-90.5"/>
<text text-anchor="middle" x="577" y="-78.5" font-family="Helvetica,sans-Serif" font-size="10.00">Source/ARX/ARTrackerSquare.cpp</text>
</a>
</g>
</g>
<!-- Node12&#45;&gt;Node13 -->
<g id="edge15" class="edge">
<title>Node12&#45;&gt;Node13</title>
<path fill="none" stroke="#63b8ff" d="M171.83,-194.55C272.88,-166.48 467.95,-112.29 544.78,-90.95"/>
<polygon fill="#63b8ff" stroke="#63b8ff" points="171.03,-191.14 162.33,-197.19 172.9,-197.88 171.03,-191.14"/>
</g>
<!-- Node14 -->
<g id="node14" class="node">
<title>Node14</title>
<g id="a_node14"><a xlink:href="_a_r_tracker_square_8h.html" target="_top" xlink:title=" ">
<polygon fill="white" stroke="#666666" points="713,-162 583,-162 583,-132 713,-132 713,-162"/>
<text text-anchor="start" x="591" y="-150" font-family="Helvetica,sans-Serif" font-size="10.00">Source/ARX/include</text>
<text text-anchor="middle" x="648" y="-139" font-family="Helvetica,sans-Serif" font-size="10.00">/ARX/ARTrackerSquare.h</text>
</a>
</g>
</g>
<!-- Node12&#45;&gt;Node14 -->
<g id="edge16" class="edge">
<title>Node12&#45;&gt;Node14</title>
<path fill="none" stroke="#63b8ff" d="M201.02,-197.63C342.64,-178.84 497.25,-162.79 582.68,-154.32"/>
<polygon fill="#63b8ff" stroke="#63b8ff" points="200.93,-194.11 191.48,-198.9 201.86,-201.05 200.93,-194.11"/>
</g>
<!-- Node14&#45;&gt;Node3 -->
<g id="edge18" class="edge">
<title>Node14&#45;&gt;Node3</title>
<path fill="none" stroke="#63b8ff" d="M676.25,-124.97C688.84,-115.61 703.35,-104.81 714.67,-96.39"/>
<polygon fill="#63b8ff" stroke="#63b8ff" points="674.23,-122.11 668.3,-130.89 678.41,-127.73 674.23,-122.11"/>
</g>
<!-- Node14&#45;&gt;Node13 -->
<g id="edge17" class="edge">
<title>Node14&#45;&gt;Node13</title>
<path fill="none" stroke="#63b8ff" d="M623.9,-124.27C611.21,-112.84 596.35,-99.44 586.81,-90.84"/>
<polygon fill="#63b8ff" stroke="#63b8ff" points="621.35,-126.69 631.12,-130.78 626.03,-121.49 621.35,-126.69"/>
</g>
<!-- Node15&#45;&gt;Node13 -->
<g id="edge21" class="edge">
<title>Node15&#45;&gt;Node13</title>
<path fill="none" stroke="#63b8ff" d="M746,-252.14C749.49,-218.64 749.45,-165.82 722,-132 704.3,-110.19 676.56,-97.86 650.06,-90.91"/>
<polygon fill="#63b8ff" stroke="#63b8ff" points="742.53,-251.68 744.78,-262.03 749.47,-252.53 742.53,-251.68"/>
</g>
<!-- Node16 -->
<g id="node16" class="node">
<title>Node16</title>
<g id="a_node16"><a xlink:href="_a_r_trackable_multi_square_auto_8cpp.html" target="_top" xlink:title=" ">
<polygon fill="white" stroke="#666666" points="921,-228 769,-228 769,-198 921,-198 921,-228"/>
<text text-anchor="start" x="777" y="-216" font-family="Helvetica,sans-Serif" font-size="10.00">Source/ARX/ARTrackableMulti</text>
<text text-anchor="middle" x="845" y="-205" font-family="Helvetica,sans-Serif" font-size="10.00">SquareAuto.cpp</text>
</a>
</g>
</g>
<!-- Node15&#45;&gt;Node16 -->
<g id="edge20" class="edge">
<title>Node15&#45;&gt;Node16</title>
<path fill="none" stroke="#63b8ff" d="M780.18,-257.32C794.84,-247.52 810.96,-236.75 823.46,-228.4"/>
<polygon fill="#63b8ff" stroke="#63b8ff" points="778.43,-254.28 772.06,-262.74 782.32,-260.1 778.43,-254.28"/>
</g>
<!-- Node18 -->
<g id="node18" class="node">
<title>Node18</title>
<g id="a_node18"><a xlink:href="_a_r_trackable_n_f_t_8cpp.html" target="_top" xlink:title=" ">
<polygon fill="white" stroke="#666666" points="555,-222.5 387,-222.5 387,-203.5 555,-203.5 555,-222.5"/>
<text text-anchor="middle" x="471" y="-210.5" font-family="Helvetica,sans-Serif" font-size="10.00">Source/ARX/ARTrackableNFT.cpp</text>
</a>
</g>
</g>
<!-- Node17&#45;&gt;Node18 -->
<g id="edge23" class="edge">
<title>Node17&#45;&gt;Node18</title>
<path fill="none" stroke="#63b8ff" d="M482.39,-257.96C479.18,-245.57 475.53,-231.49 473.25,-222.68"/>
<polygon fill="#63b8ff" stroke="#63b8ff" points="479,-258.83 484.89,-267.63 485.77,-257.08 479,-258.83"/>
</g>
<!-- Node19&#45;&gt;Node2 -->
<g id="edge25" class="edge">
<title>Node19&#45;&gt;Node2</title>
<path fill="none" stroke="#63b8ff" d="M593.11,-193.69C481.49,-152.72 214.99,-54.9 133.25,-24.9"/>
<polygon fill="#63b8ff" stroke="#63b8ff" points="591.72,-196.91 602.31,-197.07 594.13,-190.33 591.72,-196.91"/>
</g>
<!-- Node19&#45;&gt;Node7 -->
<g id="edge26" class="edge">
<title>Node19&#45;&gt;Node7</title>
<path fill="none" stroke="#63b8ff" d="M600.15,-192.55C563.08,-173.4 511.12,-140.56 483,-96 468.48,-73 464.5,-40.07 463.41,-24.62"/>
<polygon fill="#63b8ff" stroke="#63b8ff" points="598.32,-195.54 608.83,-196.9 601.47,-189.29 598.32,-195.54"/>
</g>
<!-- Node19&#45;&gt;Node13 -->
<g id="edge27" class="edge">
<title>Node19&#45;&gt;Node13</title>
<path fill="none" stroke="#63b8ff" d="M601.68,-191.47C590.67,-183.83 580.14,-174.03 574,-162 562,-138.48 569.46,-105.8 574.11,-90.52"/>
<polygon fill="#63b8ff" stroke="#63b8ff" points="599.79,-194.42 610.1,-196.82 603.54,-188.51 599.79,-194.42"/>
</g>
<!-- Node19&#45;&gt;Node14 -->
<g id="edge28" class="edge">
<title>Node19&#45;&gt;Node14</title>
<path fill="none" stroke="#63b8ff" d="M645,-186.39C645.65,-178.13 646.34,-169.28 646.89,-162.16"/>
<polygon fill="#63b8ff" stroke="#63b8ff" points="641.52,-186.05 644.23,-196.29 648.5,-186.59 641.52,-186.05"/>
</g>
<!-- Node21 -->
<g id="node21" class="node">
<title>Node21</title>
<g id="a_node21"><a xlink:href="_a_r_tracker_8cpp.html" target="_top" xlink:title=" ">
<polygon fill="white" stroke="#666666" points="1079,-222.5 939,-222.5 939,-203.5 1079,-203.5 1079,-222.5"/>
<text text-anchor="middle" x="1009" y="-210.5" font-family="Helvetica,sans-Serif" font-size="10.00">Source/ARX/ARTracker.cpp</text>
</a>
</g>
</g>
<!-- Node20&#45;&gt;Node21 -->
<g id="edge30" class="edge">
<title>Node20&#45;&gt;Node21</title>
<path fill="none" stroke="#63b8ff" d="M1009,-257.96C1009,-245.57 1009,-231.49 1009,-222.68"/>
<polygon fill="#63b8ff" stroke="#63b8ff" points="1005.5,-257.59 1009,-267.59 1012.5,-257.59 1005.5,-257.59"/>
</g>
<!-- Node22 -->
<g id="node22" class="node">
<title>Node22</title>
<g id="a_node22"><a xlink:href="_a_r_tracker_video_8h.html" target="_top" xlink:title=" ">
<polygon fill="white" stroke="#666666" points="1221,-228 1097,-228 1097,-198 1221,-198 1221,-228"/>
<text text-anchor="start" x="1105" y="-216" font-family="Helvetica,sans-Serif" font-size="10.00">Source/ARX/include</text>
<text text-anchor="middle" x="1159" y="-205" font-family="Helvetica,sans-Serif" font-size="10.00">/ARX/ARTrackerVideo.h</text>
</a>
</g>
</g>
<!-- Node20&#45;&gt;Node22 -->
<g id="edge31" class="edge">
<title>Node20&#45;&gt;Node22</title>
<path fill="none" stroke="#63b8ff" d="M1050.52,-264.26C1075.03,-252.91 1105.54,-238.77 1127.96,-228.38"/>
<polygon fill="#63b8ff" stroke="#63b8ff" points="1049.06,-261.08 1041.45,-268.46 1052,-267.43 1049.06,-261.08"/>
</g>
<!-- Node22&#45;&gt;Node14 -->
<g id="edge32" class="edge">
<title>Node22&#45;&gt;Node14</title>
<path fill="none" stroke="#63b8ff" d="M1085.52,-197.7C947.44,-176.64 797.33,-161.51 713.45,-153.76"/>
<polygon fill="#63b8ff" stroke="#63b8ff" points="1084.8,-201.13 1095.22,-199.19 1085.87,-194.21 1084.8,-201.13"/>
</g>
</g>
</svg>
        <g id="navigator" transform="translate(0 0)" fill="#404254">
                <rect fill="#f2f5e9" fill-opacity="0.5" stroke="#606060" stroke-width=".5" x="0" y="0" width="60" height="60"/>
                <use id="zoomplus" xlink:href="#zoomPlus" x="17" y="9" onmousedown="handleZoom(evt,'in')"/>
                <use id="zoomminus" xlink:href="#zoomMin" x="42" y="9" onmousedown="handleZoom(evt,'out')"/>
                <use id="reset" xlink:href="#resetDef" x="30" y="36" onmousedown="handleReset()"/>
                <g id="arrowUp" xlink:href="#dirArrow" transform="translate(30 24)" onmousedown="handlePan(0,-1)">
                  <use xlink:href="#rim" fill="#404040">
                        <set attributeName="fill" to="#808080" begin="arrowUp.mouseover" end="arrowUp.mouseout"/>
                  </use>
                  <path fill="none" stroke="white" stroke-width="1.5" d="M0,-3.0v7 M-2.5,-0.5L0,-3.0L2.5,-0.5"/>
                </g>
                <g id="arrowRight" xlink:href="#dirArrow" transform="rotate(90) translate(36 -43)" onmousedown="handlePan(1,0)">
                  <use xlink:href="#rim" fill="#404040">
                        <set attributeName="fill" to="#808080" begin="arrowRight.mouseover" end="arrowRight.mouseout"/>
                  </use>
                  <path fill="none" stroke="white" stroke-width="1.5" d="M0,-3.0v7 M-2.5,-0.5L0,-3.0L2.5,-0.5"/>
                </g>
                <g id="arrowDown" xlink:href="#dirArrow" transform="rotate(180) translate(-30 -48)" onmousedown="handlePan(0,1)">
                  <use xlink:href="#rim" fill="#404040">
                        <set attributeName="fill" to="#808080" begin="arrowDown.mouseover" end="arrowDown.mouseout"/>
                  </use>
                  <path fill="none" stroke="white" stroke-width="1.5" d="M0,-3.0v7 M-2.5,-0.5L0,-3.0L2.5,-0.5"/>
                </g>
                <g id="arrowLeft" xlink:href="#dirArrow" transform="rotate(270) translate(-36 17)" onmousedown="handlePan(-1,0)">
                  <use xlink:href="#rim" fill="#404040">
                        <set attributeName="fill" to="#808080" begin="arrowLeft.mouseover" end="arrowLeft.mouseout"/>
                  </use>
                  <path fill="none" stroke="white" stroke-width="1.5" d="M0,-3.0v7 M-2.5,-0.5L0,-3.0L2.5,-0.5"/>
                </g>
        </g>
        <svg viewBox="0 0 15 15" width="100%" height="30px" preserveAspectRatio="xMaxYMin meet">
         <g id="arrow_out" transform="scale(0.3 0.3)">
          <a xlink:href="_a_r_trackable_8h__dep__incl_org.svg" target="_base">
           <rect id="button" ry="5" rx="5" y="6" x="6" height="38" width="38"
                fill="#f2f5e9" fill-opacity="0.5" stroke="#606060" stroke-width="1.0"/>
           <path id="arrow"
             d="M 11.500037,31.436501 C 11.940474,20.09759 22.043105,11.32322 32.158766,21.979434 L 37.068811,17.246167 C 37.068811,17.246167 37.088388,32 37.088388,32 L 22.160133,31.978069 C 22.160133,31.978069 26.997745,27.140456 26.997745,27.140456 C 18.528582,18.264221 13.291696,25.230495 11.500037,31.436501 z"
             style="fill:#404040;"/>
          </a>
         </g>
        </svg>
</svg>
