<?xml version="1.0" encoding="UTF-8" standalone="no"?>
<!DOCTYPE svg PUBLIC "-//W3C//DTD SVG 1.1//EN"
 "http://www.w3.org/Graphics/SVG/1.1/DTD/svg11.dtd">
<!-- Generated by graphviz version 7.0.5 (20221223.1930)
 -->
<!-- Title: arwStartRunningStereo Pages: 1 -->
<svg width="814pt" height="397pt"
 viewBox="0.00 0.00 814.00 397.00" xmlns="http://www.w3.org/2000/svg" xmlns:xlink="http://www.w3.org/1999/xlink">
<g id="graph0" class="graph" transform="scale(1 1) rotate(0) translate(4 393)">
<title>arwStartRunningStereo</title>
<!-- Node1 -->
<g id="node1" class="node">
<title>Node1</title>
<g id="a_node1"><a xlink:title=" ">
<polygon fill="#999999" stroke="#666666" points="118,-222 0,-222 0,-203 118,-203 118,-222"/>
<text text-anchor="middle" x="59" y="-210" font-family="Helvetica,sans-Serif" font-size="10.00">arwStartRunningStereo</text>
</a>
</g>
</g>
<!-- Node2 -->
<g id="node2" class="node">
<title>Node2</title>
<g id="a_node2"><a xlink:href="class_a_r_controller.html#abd0732b11285bc113134d1b891a361f2" target="_top" xlink:title="Start stereo video capture and tracking.">
<polygon fill="white" stroke="#666666" points="288,-227.5 154,-227.5 154,-197.5 288,-197.5 288,-227.5"/>
<text text-anchor="start" x="162" y="-215.5" font-family="Helvetica,sans-Serif" font-size="10.00">ARController::startRunning</text>
<text text-anchor="middle" x="221" y="-204.5" font-family="Helvetica,sans-Serif" font-size="10.00">Stereo</text>
</a>
</g>
</g>
<!-- Node1&#45;&gt;Node2 -->
<g id="edge1" class="edge">
<title>Node1&#45;&gt;Node2</title>
<path fill="none" stroke="#63b8ff" d="M118.22,-212.5C126.05,-212.5 134.19,-212.5 142.29,-212.5"/>
<polygon fill="#63b8ff" stroke="#63b8ff" points="142.18,-216 152.18,-212.5 142.18,-209 142.18,-216"/>
</g>
<!-- Node3 -->
<g id="node3" class="node">
<title>Node3</title>
<g id="a_node3"><a xlink:href="param_disp_8c.html#a93a7e99af111d6619c7a2693acdf2aa0" target="_top" xlink:title=" ">
<polygon fill="white" stroke="#666666" points="437.5,-315 348.5,-315 348.5,-296 437.5,-296 437.5,-315"/>
<text text-anchor="middle" x="393" y="-303" font-family="Helvetica,sans-Serif" font-size="10.00">arParamDispExt</text>
</a>
</g>
</g>
<!-- Node2&#45;&gt;Node3 -->
<g id="edge2" class="edge">
<title>Node2&#45;&gt;Node3</title>
<path fill="none" stroke="#63b8ff" d="M238.75,-227.95C257.97,-244.89 291.09,-271.75 324,-287.5 328.28,-289.55 332.82,-291.39 337.45,-293.03"/>
<polygon fill="#63b8ff" stroke="#63b8ff" points="336.29,-296.34 346.88,-296.08 338.44,-289.68 336.29,-296.34"/>
</g>
<!-- Node4 -->
<g id="node4" class="node">
<title>Node4</title>
<g id="a_node4"><a xlink:href="param_file_8c.html#a493e85cce36ae10cd5d536bdf918e284" target="_top" xlink:title=" ">
<polygon fill="white" stroke="#666666" points="437.5,-278 348.5,-278 348.5,-259 437.5,-259 437.5,-278"/>
<text text-anchor="middle" x="393" y="-266" font-family="Helvetica,sans-Serif" font-size="10.00">arParamLoadExt</text>
</a>
</g>
</g>
<!-- Node2&#45;&gt;Node4 -->
<g id="edge3" class="edge">
<title>Node2&#45;&gt;Node4</title>
<path fill="none" stroke="#63b8ff" d="M260.44,-227.83C279.42,-235.15 302.75,-243.75 324,-250.5 329.46,-252.24 335.2,-253.94 340.94,-255.57"/>
<polygon fill="#63b8ff" stroke="#63b8ff" points="339.87,-258.9 350.44,-258.18 341.73,-252.15 339.87,-258.9"/>
</g>
<!-- Node5 -->
<g id="node5" class="node">
<title>Node5</title>
<g id="a_node5"><a xlink:href="param_file_8c.html#ae71e9b1fea9d1aaa587da849ba367047" target="_top" xlink:title=" ">
<polygon fill="white" stroke="#666666" points="462,-241 324,-241 324,-222 462,-222 462,-241"/>
<text text-anchor="middle" x="393" y="-229" font-family="Helvetica,sans-Serif" font-size="10.00">arParamLoadExtFromBuffer</text>
</a>
</g>
</g>
<!-- Node2&#45;&gt;Node5 -->
<g id="edge4" class="edge">
<title>Node2&#45;&gt;Node5</title>
<path fill="none" stroke="#63b8ff" d="M288.21,-219.9C296.13,-220.79 304.28,-221.7 312.37,-222.6"/>
<polygon fill="#63b8ff" stroke="#63b8ff" points="311.89,-226.07 322.22,-223.7 312.67,-219.11 311.89,-226.07"/>
</g>
<!-- Node6 -->
<g id="node6" class="node">
<title>Node6</title>
<g id="a_node6"><a xlink:href="class_a_r_video_source.html#aa385c7136b3d45c6efaa6604bf0a6d9a" target="_top" xlink:title="Sets initial parameters which will be used when the video source is opened.">
<polygon fill="white" stroke="#666666" points="459,-204 327,-204 327,-185 459,-185 459,-204"/>
<text text-anchor="middle" x="393" y="-192" font-family="Helvetica,sans-Serif" font-size="10.00">ARVideoSource::configure</text>
</a>
</g>
</g>
<!-- Node2&#45;&gt;Node6 -->
<g id="edge5" class="edge">
<title>Node2&#45;&gt;Node6</title>
<path fill="none" stroke="#63b8ff" d="M288.21,-205.49C297.06,-204.55 306.2,-203.58 315.21,-202.63"/>
<polygon fill="#63b8ff" stroke="#63b8ff" points="315.45,-206.13 325.02,-201.59 314.71,-199.16 315.45,-206.13"/>
</g>
<!-- Node7 -->
<g id="node7" class="node">
<title>Node7</title>
<g id="a_node7"><a xlink:href="class_a_r_video_source.html#a1d4e4cebdf413918427c39aa99a197cc" target="_top" xlink:title=" ">
<polygon fill="white" stroke="#666666" points="456.5,-167 329.5,-167 329.5,-148 456.5,-148 456.5,-167"/>
<text text-anchor="middle" x="393" y="-155" font-family="Helvetica,sans-Serif" font-size="10.00">ARVideoSource::getError</text>
</a>
</g>
</g>
<!-- Node2&#45;&gt;Node7 -->
<g id="edge6" class="edge">
<title>Node2&#45;&gt;Node7</title>
<path fill="none" stroke="#63b8ff" d="M263.48,-197.15C281.91,-190.52 303.94,-182.83 324,-176.5 330.36,-174.49 337.1,-172.48 343.76,-170.55"/>
<polygon fill="#63b8ff" stroke="#63b8ff" points="344.69,-173.92 353.35,-167.82 342.78,-167.19 344.69,-173.92"/>
</g>
<!-- Node8 -->
<g id="node8" class="node">
<title>Node8</title>
<g id="a_node8"><a xlink:href="class_a_r_video_source.html#ad6e81f0a07ddf8e844dfb867bc94de4b" target="_top" xlink:title="Opens the video source.">
<polygon fill="white" stroke="#666666" points="449.5,-130 336.5,-130 336.5,-111 449.5,-111 449.5,-130"/>
<text text-anchor="middle" x="393" y="-118" font-family="Helvetica,sans-Serif" font-size="10.00">ARVideoSource::open</text>
</a>
</g>
</g>
<!-- Node2&#45;&gt;Node8 -->
<g id="edge7" class="edge">
<title>Node2&#45;&gt;Node8</title>
<path fill="none" stroke="#63b8ff" d="M239.22,-197.27C258.59,-180.86 291.6,-155.03 324,-139.5 328.17,-137.5 332.58,-135.68 337.08,-134.03"/>
<polygon fill="#63b8ff" stroke="#63b8ff" points="337.85,-137.46 346.21,-130.96 335.62,-130.83 337.85,-137.46"/>
</g>
<!-- Node9 -->
<g id="node9" class="node">
<title>Node9</title>
<g id="a_node9"><a xlink:href="video2_8c.html#aef591a0c1b52999872fa5a89f7b2e4e9" target="_top" xlink:title="Open a video input module and return control object.">
<polygon fill="white" stroke="#666666" points="590,-222 512,-222 512,-203 590,-203 590,-222"/>
<text text-anchor="middle" x="551" y="-210" font-family="Helvetica,sans-Serif" font-size="10.00">ar2VideoOpen</text>
</a>
</g>
</g>
<!-- Node8&#45;&gt;Node9 -->
<g id="edge8" class="edge">
<title>Node8&#45;&gt;Node9</title>
<path fill="none" stroke="#63b8ff" d="M439.65,-130.39C447.33,-132.85 455.05,-135.86 462,-139.5 489.85,-154.09 516.93,-178.57 533.52,-195.12"/>
<polygon fill="#63b8ff" stroke="#63b8ff" points="530.64,-197.18 540.14,-201.87 535.64,-192.28 530.64,-197.18"/>
</g>
<!-- Node19 -->
<g id="node19" class="node">
<title>Node19</title>
<g id="a_node19"><a xlink:href="video2_8c.html#a3827b2271419905797e3326a91255794" target="_top" xlink:title="Open a video input module, and return control object, invoking a callback once opening is complete.">
<polygon fill="white" stroke="#666666" points="604,-56 498,-56 498,-37 604,-37 604,-56"/>
<text text-anchor="middle" x="551" y="-44" font-family="Helvetica,sans-Serif" font-size="10.00">ar2VideoOpenAsync</text>
</a>
</g>
</g>
<!-- Node8&#45;&gt;Node19 -->
<g id="edge18" class="edge">
<title>Node8&#45;&gt;Node19</title>
<path fill="none" stroke="#63b8ff" d="M415.04,-110.52C441.75,-97.85 488.05,-75.89 518.85,-61.28"/>
<polygon fill="#63b8ff" stroke="#63b8ff" points="520.14,-64.54 527.68,-57.09 517.14,-58.21 520.14,-64.54"/>
</g>
<!-- Node10 -->
<g id="node10" class="node">
<title>Node10</title>
<g id="a_node10"><a xlink:href="video1394_8h.html#a5e135a088763d0bbeb2d95f8c92704b1" target="_top" xlink:title=" ">
<polygon fill="white" stroke="#666666" points="772.5,-389 673.5,-389 673.5,-370 772.5,-370 772.5,-389"/>
<text text-anchor="middle" x="723" y="-377" font-family="Helvetica,sans-Serif" font-size="10.00">ar2VideoOpen1394</text>
</a>
</g>
</g>
<!-- Node9&#45;&gt;Node10 -->
<g id="edge9" class="edge">
<title>Node9&#45;&gt;Node10</title>
<path fill="none" stroke="#63b8ff" d="M554.78,-222.39C562.93,-249.39 589.39,-324.85 640,-361.5 646.66,-366.32 654.36,-369.89 662.32,-372.52"/>
<polygon fill="#63b8ff" stroke="#63b8ff" points="661.24,-375.86 671.81,-375.17 663.11,-369.11 661.24,-375.86"/>
</g>
<!-- Node11 -->
<g id="node11" class="node">
<title>Node11</title>
<g id="a_node11"><a xlink:href="video_a_v_foundation_8h.html#aefeea555e04e4d04eb17b4adea17013d" target="_top" xlink:title=" ">
<polygon fill="white" stroke="#666666" points="792,-352 654,-352 654,-333 792,-333 792,-352"/>
<text text-anchor="middle" x="723" y="-340" font-family="Helvetica,sans-Serif" font-size="10.00">ar2VideoOpenAVFoundation</text>
</a>
</g>
</g>
<!-- Node9&#45;&gt;Node11 -->
<g id="edge10" class="edge">
<title>Node9&#45;&gt;Node11</title>
<path fill="none" stroke="#63b8ff" d="M556.78,-222.46C567.96,-244.64 598.11,-298.21 640,-324.5 642.03,-325.77 644.13,-326.95 646.29,-328.05"/>
<polygon fill="#63b8ff" stroke="#63b8ff" points="644.81,-331.23 655.38,-332.01 647.61,-324.81 644.81,-331.23"/>
</g>
<!-- Node12 -->
<g id="node12" class="node">
<title>Node12</title>
<g id="a_node12"><a xlink:href="video_dummy_8h.html#a72835c795b3b4f9ec13d7c3bfe482476" target="_top" xlink:title=" ">
<polygon fill="white" stroke="#666666" points="779.5,-315 666.5,-315 666.5,-296 779.5,-296 779.5,-315"/>
<text text-anchor="middle" x="723" y="-303" font-family="Helvetica,sans-Serif" font-size="10.00">ar2VideoOpenDummy</text>
</a>
</g>
</g>
<!-- Node9&#45;&gt;Node12 -->
<g id="edge11" class="edge">
<title>Node9&#45;&gt;Node12</title>
<path fill="none" stroke="#63b8ff" d="M560.41,-222.27C574.92,-238.48 606.38,-270.8 640,-287.5 644.81,-289.89 649.92,-291.96 655.17,-293.76"/>
<polygon fill="#63b8ff" stroke="#63b8ff" points="654.01,-297.06 664.6,-296.64 656.05,-290.37 654.01,-297.06"/>
</g>
<!-- Node13 -->
<g id="node13" class="node">
<title>Node13</title>
<g id="a_node13"><a xlink:href="video_emscripten_8h.html#a29074bdca28d3b80a8e89895087646b5" target="_top" xlink:title=" ">
<polygon fill="white" stroke="#666666" points="787,-278 659,-278 659,-259 787,-259 787,-278"/>
<text text-anchor="middle" x="723" y="-266" font-family="Helvetica,sans-Serif" font-size="10.00">ar2VideoOpenEmscripten</text>
</a>
</g>
</g>
<!-- Node9&#45;&gt;Node13 -->
<g id="edge12" class="edge">
<title>Node9&#45;&gt;Node13</title>
<path fill="none" stroke="#63b8ff" d="M571.85,-222.38C589.42,-230.8 615.93,-242.74 640,-250.5 646.04,-252.45 652.4,-254.25 658.8,-255.91"/>
<polygon fill="#63b8ff" stroke="#63b8ff" points="657.53,-259.2 668.08,-258.19 659.2,-252.41 657.53,-259.2"/>
</g>
<!-- Node14 -->
<g id="node14" class="node">
<title>Node14</title>
<g id="a_node14"><a xlink:href="video_g_streamer_8h.html#a39ad73e9efc5e41fb011b58ec8262958" target="_top" xlink:title=" ">
<polygon fill="white" stroke="#666666" points="785.5,-241 660.5,-241 660.5,-222 785.5,-222 785.5,-241"/>
<text text-anchor="middle" x="723" y="-229" font-family="Helvetica,sans-Serif" font-size="10.00">ar2VideoOpenGStreamer</text>
</a>
</g>
</g>
<!-- Node9&#45;&gt;Node14 -->
<g id="edge13" class="edge">
<title>Node9&#45;&gt;Node14</title>
<path fill="none" stroke="#63b8ff" d="M590.15,-216.76C607.5,-218.7 628.63,-221.06 648.85,-223.32"/>
<polygon fill="#63b8ff" stroke="#63b8ff" points="648.46,-226.8 658.78,-224.43 649.24,-219.85 648.46,-226.8"/>
</g>
<!-- Node15 -->
<g id="node15" class="node">
<title>Node15</title>
<g id="a_node15"><a xlink:href="video_image_8h.html#a73390fddad6f8e51c827515ba754986b" target="_top" xlink:title=" ">
<polygon fill="white" stroke="#666666" points="775.5,-204 670.5,-204 670.5,-185 775.5,-185 775.5,-204"/>
<text text-anchor="middle" x="723" y="-192" font-family="Helvetica,sans-Serif" font-size="10.00">ar2VideoOpenImage</text>
</a>
</g>
</g>
<!-- Node9&#45;&gt;Node15 -->
<g id="edge14" class="edge">
<title>Node9&#45;&gt;Node15</title>
<path fill="none" stroke="#63b8ff" d="M590.15,-208.46C610.33,-206.32 635.64,-203.64 658.67,-201.21"/>
<polygon fill="#63b8ff" stroke="#63b8ff" points="659.04,-204.69 668.61,-200.15 658.3,-197.73 659.04,-204.69"/>
</g>
<!-- Node16 -->
<g id="node16" class="node">
<title>Node16</title>
<g id="a_node16"><a xlink:href="video_v4_l2_8h.html#abfb2b883b0d8a1b97aece447925d9fbb" target="_top" xlink:title=" ">
<polygon fill="white" stroke="#666666" points="773.5,-167 672.5,-167 672.5,-148 773.5,-148 773.5,-167"/>
<text text-anchor="middle" x="723" y="-155" font-family="Helvetica,sans-Serif" font-size="10.00">ar2VideoOpenV4L2</text>
</a>
</g>
</g>
<!-- Node9&#45;&gt;Node16 -->
<g id="edge15" class="edge">
<title>Node9&#45;&gt;Node16</title>
<path fill="none" stroke="#63b8ff" d="M573.34,-202.64C590.95,-194.78 616.72,-183.91 640,-176.5 647.11,-174.24 654.65,-172.12 662.16,-170.18"/>
<polygon fill="#63b8ff" stroke="#63b8ff" points="662.75,-173.64 671.62,-167.84 661.07,-166.85 662.75,-173.64"/>
</g>
<!-- Node17 -->
<g id="node17" class="node">
<title>Node17</title>
<g id="a_node17"><a xlink:href="video_windows_media_capture_8h.html#a61863b436e12e617a68415854ef8873a" target="_top" xlink:title=" ">
<polygon fill="white" stroke="#666666" points="778.5,-130 667.5,-130 667.5,-111 778.5,-111 778.5,-130"/>
<text text-anchor="middle" x="723" y="-118" font-family="Helvetica,sans-Serif" font-size="10.00">ar2VideoOpenWinMC</text>
</a>
</g>
</g>
<!-- Node9&#45;&gt;Node17 -->
<g id="edge16" class="edge">
<title>Node9&#45;&gt;Node17</title>
<path fill="none" stroke="#63b8ff" d="M560.96,-202.53C575.79,-186.67 607.1,-155.81 640,-139.5 645.19,-136.93 650.73,-134.7 656.4,-132.77"/>
<polygon fill="#63b8ff" stroke="#63b8ff" points="657.4,-136.12 665.94,-129.85 655.35,-129.43 657.4,-136.12"/>
</g>
<!-- Node18 -->
<g id="node18" class="node">
<title>Node18</title>
<g id="a_node18"><a xlink:href="video_windows_media_foundation_8h.html#a0fd1e3b5895e22598a81e24f86820168" target="_top" xlink:title=" ">
<polygon fill="white" stroke="#666666" points="778,-93 668,-93 668,-74 778,-74 778,-93"/>
<text text-anchor="middle" x="723" y="-81" font-family="Helvetica,sans-Serif" font-size="10.00">ar2VideoOpenWinMF</text>
</a>
</g>
</g>
<!-- Node9&#45;&gt;Node18 -->
<g id="edge17" class="edge">
<title>Node9&#45;&gt;Node18</title>
<path fill="none" stroke="#63b8ff" d="M556.85,-202.75C568.18,-181.04 598.61,-128.56 640,-102.5 645.26,-99.19 651.03,-96.46 657,-94.2"/>
<polygon fill="#63b8ff" stroke="#63b8ff" points="658.04,-97.54 666.45,-91.1 655.86,-90.89 658.04,-97.54"/>
</g>
<!-- Node20 -->
<g id="node20" class="node">
<title>Node20</title>
<g id="a_node20"><a xlink:href="video_android_8h.html#a1d6e964f2d94fca2f61cd36f1bcaf8a5" target="_top" xlink:title=" ">
<polygon fill="white" stroke="#666666" points="792.5,-56 653.5,-56 653.5,-37 792.5,-37 792.5,-56"/>
<text text-anchor="middle" x="723" y="-44" font-family="Helvetica,sans-Serif" font-size="10.00">ar2VideoOpenAsyncAndroid</text>
</a>
</g>
</g>
<!-- Node19&#45;&gt;Node20 -->
<g id="edge19" class="edge">
<title>Node19&#45;&gt;Node20</title>
<path fill="none" stroke="#63b8ff" d="M604.39,-46.5C616.31,-46.5 629.25,-46.5 642.02,-46.5"/>
<polygon fill="#63b8ff" stroke="#63b8ff" points="641.67,-50 651.67,-46.5 641.67,-43 641.67,-50"/>
</g>
<!-- Node21 -->
<g id="node21" class="node">
<title>Node21</title>
<g id="a_node21"><a xlink:href="video_a_v_foundation_8h.html#adb1121aa31efbd7a52a0a09f1c287064" target="_top" xlink:title=" ">
<polygon fill="white" stroke="#666666" points="806,-19 640,-19 640,0 806,0 806,-19"/>
<text text-anchor="middle" x="723" y="-7" font-family="Helvetica,sans-Serif" font-size="10.00">ar2VideoOpenAsyncAVFoundation</text>
</a>
</g>
</g>
<!-- Node19&#45;&gt;Node21 -->
<g id="edge20" class="edge">
<title>Node19&#45;&gt;Node21</title>
<path fill="none" stroke="#63b8ff" d="M597.56,-36.58C618.33,-32.06 643.14,-26.66 665.12,-21.88"/>
<polygon fill="#63b8ff" stroke="#63b8ff" points="665.81,-25.31 674.84,-19.76 664.32,-18.47 665.81,-25.31"/>
</g>
</g>
</svg>
