<?xml version="1.0" encoding="UTF-8" standalone="no"?>
<!DOCTYPE svg PUBLIC "-//W3C//DTD SVG 1.1//EN"
 "http://www.w3.org/Graphics/SVG/1.1/DTD/svg11.dtd">
<!-- Generated by graphviz version 8.0.5 (20230430.1635)
 -->
<!-- Title: arwStartRunningStereo Pages: 1 -->
<!--zoomable 434 -->
<svg id="main" version="1.1" xmlns="http://www.w3.org/2000/svg" xmlns:xlink="http://www.w3.org/1999/xlink" xml:space="preserve" onload="init(evt)">
<style type="text/css"><![CDATA[
.edge:hover path { stroke: red; }
.edge:hover polygon { stroke: red; fill: red; }
]]></style>
<script type="text/javascript"><![CDATA[
var edges = document.getElementsByTagName('g');
if (edges && edges.length) {
  for (var i=0;i<edges.length;i++) {
    if (edges[i].id.substr(0,4)=='edge') {
      edges[i].setAttribute('class','edge');
    }
  }
}
]]></script>
        <defs>
                <circle id="rim" cx="0" cy="0" r="7"/>
                <circle id="rim2" cx="0" cy="0" r="3.5"/>
                <g id="zoomPlus">
                        <use xlink:href="#rim" fill="#404040">
                                <set attributeName="fill" to="#808080" begin="zoomplus.mouseover" end="zoomplus.mouseout"/>
                        </use>
                        <path d="M-4,0h8M0,-4v8" fill="none" stroke="white" stroke-width="1.5" pointer-events="none"/>
                </g>
                <g id="zoomMin">
                        <use xlink:href="#rim" fill="#404040">
                                <set attributeName="fill" to="#808080" begin="zoomminus.mouseover" end="zoomminus.mouseout"/>
                        </use>
                        <path d="M-4,0h8" fill="none" stroke="white" stroke-width="1.5" pointer-events="none"/>
                </g>
                <g id="dirArrow">
                        <path fill="none" stroke="white" stroke-width="1.5" d="M0,-3.0v7 M-2.5,-0.5L0,-3.0L2.5,-0.5"/>
                </g>
               <g id="resetDef">
                       <use xlink:href="#rim2" fill="#404040">
                               <set attributeName="fill" to="#808080" begin="reset.mouseover" end="reset.mouseout"/>
                       </use>
               </g>
        </defs>

<script type="text/javascript">
var viewWidth = 811;
var viewHeight = 434;
var sectionId = 'dynsection-48';
</script>
<script xlink:href="svgpan.js"/>
<svg id="graph" class="graph">
<g id="viewport">
<title>arwStartRunningStereo</title>
<!-- Node1 -->
<g id="node1" class="node">
<title>Node1</title>
<g id="a_node1"><a xlink:title=" ">
<polygon fill="#999999" stroke="#666666" points="117.25,-241.25 0,-241.25 0,-222 117.25,-222 117.25,-241.25"/>
<text text-anchor="middle" x="58.62" y="-227.75" font-family="Helvetica,sans-Serif" font-size="10.00">arwStartRunningStereo</text>
</a>
</g>
</g>
<!-- Node2 -->
<g id="node2" class="node">
<title>Node2</title>
<g id="a_node2"><a xlink:href="class_a_r_controller.html#abd0732b11285bc113134d1b891a361f2" target="_top" xlink:title="Start stereo video capture and tracking.">
<polygon fill="white" stroke="#666666" points="287,-246.88 153.25,-246.88 153.25,-216.38 287,-216.38 287,-246.88"/>
<text text-anchor="start" x="161.25" y="-233.38" font-family="Helvetica,sans-Serif" font-size="10.00">ARController::startRunning</text>
<text text-anchor="middle" x="220.12" y="-222.12" font-family="Helvetica,sans-Serif" font-size="10.00">Stereo</text>
</a>
</g>
</g>
<!-- Node1&#45;&gt;Node2 -->
<g id="edge1" class="edge">
<title>Node1&#45;&gt;Node2</title>
<path fill="none" stroke="#63b8ff" d="M117.66,-231.62C125.59,-231.62 133.82,-231.62 142.02,-231.62"/>
<polygon fill="#63b8ff" stroke="#63b8ff" points="141.75,-235.13 151.75,-231.62 141.75,-228.13 141.75,-235.13"/>
</g>
<!-- Node3 -->
<g id="node3" class="node">
<title>Node3</title>
<g id="a_node3"><a xlink:href="param_disp_8c.html#a93a7e99af111d6619c7a2693acdf2aa0" target="_top" xlink:title="Print camera extrinsic matrix to stdout.">
<polygon fill="white" stroke="#666666" points="435.75,-334.25 347.75,-334.25 347.75,-315 435.75,-315 435.75,-334.25"/>
<text text-anchor="middle" x="391.75" y="-320.75" font-family="Helvetica,sans-Serif" font-size="10.00">arParamDispExt</text>
</a>
</g>
</g>
<!-- Node2&#45;&gt;Node3 -->
<g id="edge2" class="edge">
<title>Node2&#45;&gt;Node3</title>
<path fill="none" stroke="#63b8ff" d="M237.86,-247.07C257.05,-264.01 290.13,-290.86 323,-306.62 327.56,-308.81 332.43,-310.76 337.38,-312.5"/>
<polygon fill="#63b8ff" stroke="#63b8ff" points="336,-316.05 346.59,-315.76 338.13,-309.38 336,-316.05"/>
</g>
<!-- Node4 -->
<g id="node4" class="node">
<title>Node4</title>
<g id="a_node4"><a xlink:href="param_file_8c.html#a493e85cce36ae10cd5d536bdf918e284" target="_top" xlink:title="Load camera extrinsic parameters into a matrix from a binary file.">
<polygon fill="white" stroke="#666666" points="436.12,-297.25 347.38,-297.25 347.38,-278 436.12,-278 436.12,-297.25"/>
<text text-anchor="middle" x="391.75" y="-283.75" font-family="Helvetica,sans-Serif" font-size="10.00">arParamLoadExt</text>
</a>
</g>
</g>
<!-- Node2&#45;&gt;Node4 -->
<g id="edge3" class="edge">
<title>Node2&#45;&gt;Node4</title>
<path fill="none" stroke="#63b8ff" d="M260.48,-247.33C279.26,-254.55 302.14,-262.98 323,-269.62 328.44,-271.36 334.15,-273.06 339.86,-274.68"/>
<polygon fill="#63b8ff" stroke="#63b8ff" points="338.51,-278.21 349.08,-277.51 340.38,-271.47 338.51,-278.21"/>
</g>
<!-- Node5 -->
<g id="node5" class="node">
<title>Node5</title>
<g id="a_node5"><a xlink:href="param_file_8c.html#ae71e9b1fea9d1aaa587da849ba367047" target="_top" xlink:title="Load camera extrinsic parameters into a matrix from a binary buffer.">
<polygon fill="white" stroke="#666666" points="460.5,-260.25 323,-260.25 323,-241 460.5,-241 460.5,-260.25"/>
<text text-anchor="middle" x="391.75" y="-246.75" font-family="Helvetica,sans-Serif" font-size="10.00">arParamLoadExtFromBuffer</text>
</a>
</g>
</g>
<!-- Node2&#45;&gt;Node5 -->
<g id="edge4" class="edge">
<title>Node2&#45;&gt;Node5</title>
<path fill="none" stroke="#63b8ff" d="M287.19,-239.03C295.28,-239.93 303.6,-240.86 311.85,-241.79"/>
<polygon fill="#63b8ff" stroke="#63b8ff" points="311.3,-245.36 321.63,-242.99 312.08,-238.4 311.3,-245.36"/>
</g>
<!-- Node6 -->
<g id="node6" class="node">
<title>Node6</title>
<g id="a_node6"><a xlink:href="class_a_r_video_source.html#aa385c7136b3d45c6efaa6604bf0a6d9a" target="_top" xlink:title="Sets initial parameters which will be used when the video source is opened.">
<polygon fill="white" stroke="#666666" points="457.5,-223.25 326,-223.25 326,-204 457.5,-204 457.5,-223.25"/>
<text text-anchor="middle" x="391.75" y="-209.75" font-family="Helvetica,sans-Serif" font-size="10.00">ARVideoSource::configure</text>
</a>
</g>
</g>
<!-- Node2&#45;&gt;Node6 -->
<g id="edge5" class="edge">
<title>Node2&#45;&gt;Node6</title>
<path fill="none" stroke="#63b8ff" d="M287.19,-224.61C296.29,-223.65 305.68,-222.65 314.93,-221.67"/>
<polygon fill="#63b8ff" stroke="#63b8ff" points="315.12,-225.06 324.7,-220.53 314.39,-218.1 315.12,-225.06"/>
</g>
<!-- Node7 -->
<g id="node7" class="node">
<title>Node7</title>
<g id="a_node7"><a xlink:href="class_a_r_video_source.html#a1d4e4cebdf413918427c39aa99a197cc" target="_top" xlink:title=" ">
<polygon fill="white" stroke="#666666" points="454.88,-186.25 328.62,-186.25 328.62,-167 454.88,-167 454.88,-186.25"/>
<text text-anchor="middle" x="391.75" y="-172.75" font-family="Helvetica,sans-Serif" font-size="10.00">ARVideoSource::getError</text>
</a>
</g>
</g>
<!-- Node2&#45;&gt;Node7 -->
<g id="edge6" class="edge">
<title>Node2&#45;&gt;Node7</title>
<path fill="none" stroke="#63b8ff" d="M261.49,-216.03C280.09,-209.09 302.53,-201.05 323,-194.62 328.52,-192.89 334.32,-191.19 340.11,-189.55"/>
<polygon fill="#63b8ff" stroke="#63b8ff" points="340.75,-192.73 349.46,-186.7 338.89,-185.98 340.75,-192.73"/>
</g>
<!-- Node8 -->
<g id="node8" class="node">
<title>Node8</title>
<g id="a_node8"><a xlink:href="class_a_r_video_source.html#ad6e81f0a07ddf8e844dfb867bc94de4b" target="_top" xlink:title="Opens the video source.">
<polygon fill="white" stroke="#666666" points="448.12,-149.25 335.38,-149.25 335.38,-130 448.12,-130 448.12,-149.25"/>
<text text-anchor="middle" x="391.75" y="-135.75" font-family="Helvetica,sans-Serif" font-size="10.00">ARVideoSource::open</text>
</a>
</g>
</g>
<!-- Node2&#45;&gt;Node8 -->
<g id="edge7" class="edge">
<title>Node2&#45;&gt;Node8</title>
<path fill="none" stroke="#63b8ff" d="M238.24,-216.09C257.52,-199.38 290.43,-173.12 323,-157.62 326.34,-156.03 329.85,-154.57 333.43,-153.22"/>
<polygon fill="#63b8ff" stroke="#63b8ff" points="334.33,-156.27 342.66,-149.72 332.06,-149.65 334.33,-156.27"/>
</g>
<!-- Node9 -->
<g id="node9" class="node">
<title>Node9</title>
<g id="a_node9"><a xlink:href="video2_8c.html#aef591a0c1b52999872fa5a89f7b2e4e9" target="_top" xlink:title="Open a video input module and return control object.">
<polygon fill="white" stroke="#666666" points="587.88,-259.25 510.38,-259.25 510.38,-240 587.88,-240 587.88,-259.25"/>
<text text-anchor="middle" x="549.12" y="-245.75" font-family="Helvetica,sans-Serif" font-size="10.00">ar2VideoOpen</text>
</a>
</g>
</g>
<!-- Node8&#45;&gt;Node9 -->
<g id="edge8" class="edge">
<title>Node8&#45;&gt;Node9</title>
<path fill="none" stroke="#63b8ff" d="M443.23,-149.68C449.26,-151.84 455.16,-154.46 460.5,-157.62 492.12,-176.35 519.7,-209.67 535.1,-230.66"/>
<polygon fill="#63b8ff" stroke="#63b8ff" points="532.82,-232.48 541.47,-238.59 538.52,-228.42 532.82,-232.48"/>
</g>
<!-- Node19 -->
<g id="node19" class="node">
<title>Node19</title>
<g id="a_node19"><a xlink:href="video2_8c.html#a3827b2271419905797e3326a91255794" target="_top" xlink:title="Open a video input module, and return control object, invoking a callback once opening is complete.">
<polygon fill="white" stroke="#666666" points="601.75,-75.25 496.5,-75.25 496.5,-56 601.75,-56 601.75,-75.25"/>
<text text-anchor="middle" x="549.12" y="-61.75" font-family="Helvetica,sans-Serif" font-size="10.00">ar2VideoOpenAsync</text>
</a>
</g>
</g>
<!-- Node8&#45;&gt;Node19 -->
<g id="edge18" class="edge">
<title>Node8&#45;&gt;Node19</title>
<path fill="none" stroke="#63b8ff" d="M413.7,-129.65C440.35,-116.96 486.56,-94.94 517.25,-80.33"/>
<polygon fill="#63b8ff" stroke="#63b8ff" points="518.48,-83.14 526.01,-75.68 515.47,-76.82 518.48,-83.14"/>
</g>
<!-- Node10 -->
<g id="node10" class="node">
<title>Node10</title>
<g id="a_node10"><a xlink:href="video1394_8h.html#a5e135a088763d0bbeb2d95f8c92704b1" target="_top" xlink:title=" ">
<polygon fill="white" stroke="#666666" points="769.62,-426.25 671.12,-426.25 671.12,-407 769.62,-407 769.62,-426.25"/>
<text text-anchor="middle" x="720.38" y="-412.75" font-family="Helvetica,sans-Serif" font-size="10.00">ar2VideoOpen1394</text>
</a>
</g>
</g>
<!-- Node9&#45;&gt;Node10 -->
<g id="edge9" class="edge">
<title>Node9&#45;&gt;Node10</title>
<path fill="none" stroke="#63b8ff" d="M552.88,-259.51C560.96,-286.51 587.24,-361.95 637.75,-398.62 644.52,-403.54 652.38,-407.16 660.5,-409.81"/>
<polygon fill="#63b8ff" stroke="#63b8ff" points="659.28,-413.38 669.85,-412.67 661.15,-406.63 659.28,-413.38"/>
</g>
<!-- Node11 -->
<g id="node11" class="node">
<title>Node11</title>
<g id="a_node11"><a xlink:href="video_a_v_foundation_8h.html#aefeea555e04e4d04eb17b4adea17013d" target="_top" xlink:title=" ">
<polygon fill="white" stroke="#666666" points="789.12,-389.25 651.62,-389.25 651.62,-370 789.12,-370 789.12,-389.25"/>
<text text-anchor="middle" x="720.38" y="-375.75" font-family="Helvetica,sans-Serif" font-size="10.00">ar2VideoOpenAVFoundation</text>
</a>
</g>
</g>
<!-- Node9&#45;&gt;Node11 -->
<g id="edge10" class="edge">
<title>Node9&#45;&gt;Node11</title>
<path fill="none" stroke="#63b8ff" d="M554.87,-259.58C565.99,-281.75 595.97,-335.31 637.75,-361.62 639.8,-362.91 641.92,-364.11 644.11,-365.22"/>
<polygon fill="#63b8ff" stroke="#63b8ff" points="642.45,-368.76 653.01,-369.57 645.26,-362.35 642.45,-368.76"/>
</g>
<!-- Node12 -->
<g id="node12" class="node">
<title>Node12</title>
<g id="a_node12"><a xlink:href="video_dummy_8h.html#a72835c795b3b4f9ec13d7c3bfe482476" target="_top" xlink:title=" ">
<polygon fill="white" stroke="#666666" points="776.38,-352.25 664.38,-352.25 664.38,-333 776.38,-333 776.38,-352.25"/>
<text text-anchor="middle" x="720.38" y="-338.75" font-family="Helvetica,sans-Serif" font-size="10.00">ar2VideoOpenDummy</text>
</a>
</g>
</g>
<!-- Node9&#45;&gt;Node12 -->
<g id="edge11" class="edge">
<title>Node9&#45;&gt;Node12</title>
<path fill="none" stroke="#63b8ff" d="M558.72,-259.65C573.26,-275.95 604.42,-308.01 637.75,-324.62 642.86,-327.17 648.34,-329.37 653.93,-331.25"/>
<polygon fill="#63b8ff" stroke="#63b8ff" points="652.51,-334.78 663.1,-334.31 654.54,-328.08 652.51,-334.78"/>
</g>
<!-- Node13 -->
<g id="node13" class="node">
<title>Node13</title>
<g id="a_node13"><a xlink:href="video_emscripten_8h.html#a29074bdca28d3b80a8e89895087646b5" target="_top" xlink:title=" ">
<polygon fill="white" stroke="#666666" points="783.88,-315.25 656.88,-315.25 656.88,-296 783.88,-296 783.88,-315.25"/>
<text text-anchor="middle" x="720.38" y="-301.75" font-family="Helvetica,sans-Serif" font-size="10.00">ar2VideoOpenEmscripten</text>
</a>
</g>
</g>
<!-- Node9&#45;&gt;Node13 -->
<g id="edge12" class="edge">
<title>Node9&#45;&gt;Node13</title>
<path fill="none" stroke="#63b8ff" d="M570.23,-259.67C587.72,-268.08 613.93,-279.91 637.75,-287.62 643.68,-289.54 649.91,-291.32 656.18,-292.96"/>
<polygon fill="#63b8ff" stroke="#63b8ff" points="655.17,-296.57 665.72,-295.58 656.86,-289.77 655.17,-296.57"/>
</g>
<!-- Node14 -->
<g id="node14" class="node">
<title>Node14</title>
<g id="a_node14"><a xlink:href="video_g_streamer_8h.html#a39ad73e9efc5e41fb011b58ec8262958" target="_top" xlink:title=" ">
<polygon fill="white" stroke="#666666" points="782.75,-278.25 658,-278.25 658,-259 782.75,-259 782.75,-278.25"/>
<text text-anchor="middle" x="720.38" y="-264.75" font-family="Helvetica,sans-Serif" font-size="10.00">ar2VideoOpenGStreamer</text>
</a>
</g>
</g>
<!-- Node9&#45;&gt;Node14 -->
<g id="edge13" class="edge">
<title>Node9&#45;&gt;Node14</title>
<path fill="none" stroke="#63b8ff" d="M588.11,-253.89C605.46,-255.84 626.61,-258.21 646.82,-260.48"/>
<polygon fill="#63b8ff" stroke="#63b8ff" points="646.28,-264.05 656.6,-261.69 647.06,-257.1 646.28,-264.05"/>
</g>
<!-- Node15 -->
<g id="node15" class="node">
<title>Node15</title>
<g id="a_node15"><a xlink:href="video_image_8h.html#a73390fddad6f8e51c827515ba754986b" target="_top" xlink:title=" ">
<polygon fill="white" stroke="#666666" points="772.62,-241.25 668.12,-241.25 668.12,-222 772.62,-222 772.62,-241.25"/>
<text text-anchor="middle" x="720.38" y="-227.75" font-family="Helvetica,sans-Serif" font-size="10.00">ar2VideoOpenImage</text>
</a>
</g>
</g>
<!-- Node9&#45;&gt;Node15 -->
<g id="edge14" class="edge">
<title>Node9&#45;&gt;Node15</title>
<path fill="none" stroke="#63b8ff" d="M588.11,-245.59C608.39,-243.43 633.86,-240.72 656.96,-238.26"/>
<polygon fill="#63b8ff" stroke="#63b8ff" points="657.15,-241.66 666.72,-237.12 656.41,-234.7 657.15,-241.66"/>
</g>
<!-- Node16 -->
<g id="node16" class="node">
<title>Node16</title>
<g id="a_node16"><a xlink:href="video_v4_l2_8h.html#abfb2b883b0d8a1b97aece447925d9fbb" target="_top" xlink:title=" ">
<polygon fill="white" stroke="#666666" points="770.38,-204.25 670.38,-204.25 670.38,-185 770.38,-185 770.38,-204.25"/>
<text text-anchor="middle" x="720.38" y="-190.75" font-family="Helvetica,sans-Serif" font-size="10.00">ar2VideoOpenV4L2</text>
</a>
</g>
</g>
<!-- Node9&#45;&gt;Node16 -->
<g id="edge15" class="edge">
<title>Node9&#45;&gt;Node16</title>
<path fill="none" stroke="#63b8ff" d="M570.97,-239.55C588.47,-231.4 614.31,-220.09 637.75,-212.62 644.8,-210.38 652.28,-208.32 659.73,-206.45"/>
<polygon fill="#63b8ff" stroke="#63b8ff" points="660.3,-209.67 669.22,-203.94 658.68,-202.86 660.3,-209.67"/>
</g>
<!-- Node17 -->
<g id="node17" class="node">
<title>Node17</title>
<g id="a_node17"><a xlink:href="video_windows_media_capture_8h.html#a61863b436e12e617a68415854ef8873a" target="_top" xlink:title=" ">
<polygon fill="white" stroke="#666666" points="775.62,-167.25 665.12,-167.25 665.12,-148 775.62,-148 775.62,-167.25"/>
<text text-anchor="middle" x="720.38" y="-153.75" font-family="Helvetica,sans-Serif" font-size="10.00">ar2VideoOpenWinMC</text>
</a>
</g>
</g>
<!-- Node9&#45;&gt;Node17 -->
<g id="edge16" class="edge">
<title>Node9&#45;&gt;Node17</title>
<path fill="none" stroke="#63b8ff" d="M558.75,-239.73C573.34,-223.67 604.55,-192.04 637.75,-175.62 643.03,-173.01 648.7,-170.78 654.49,-168.86"/>
<polygon fill="#63b8ff" stroke="#63b8ff" points="655.39,-171.95 663.98,-165.75 653.4,-165.24 655.39,-171.95"/>
</g>
<!-- Node18 -->
<g id="node18" class="node">
<title>Node18</title>
<g id="a_node18"><a xlink:href="video_windows_media_foundation_8h.html#a0fd1e3b5895e22598a81e24f86820168" target="_top" xlink:title=" ">
<polygon fill="white" stroke="#666666" points="774.88,-130.25 665.88,-130.25 665.88,-111 774.88,-111 774.88,-130.25"/>
<text text-anchor="middle" x="720.38" y="-116.75" font-family="Helvetica,sans-Serif" font-size="10.00">ar2VideoOpenWinMF</text>
</a>
</g>
</g>
<!-- Node9&#45;&gt;Node18 -->
<g id="edge17" class="edge">
<title>Node9&#45;&gt;Node18</title>
<path fill="none" stroke="#63b8ff" d="M554.9,-239.76C566.06,-217.78 596.14,-164.7 637.75,-138.62 643.11,-135.27 649,-132.53 655.1,-130.3"/>
<polygon fill="#63b8ff" stroke="#63b8ff" points="656.02,-133.37 664.5,-127.01 653.91,-126.69 656.02,-133.37"/>
</g>
<!-- Node20 -->
<g id="node20" class="node">
<title>Node20</title>
<g id="a_node20"><a xlink:href="video_android_8h.html#a1d6e964f2d94fca2f61cd36f1bcaf8a5" target="_top" xlink:title=" ">
<polygon fill="white" stroke="#666666" points="789.5,-93.25 651.25,-93.25 651.25,-74 789.5,-74 789.5,-93.25"/>
<text text-anchor="middle" x="720.38" y="-79.75" font-family="Helvetica,sans-Serif" font-size="10.00">ar2VideoOpenAsyncAndroid</text>
</a>
</g>
</g>
<!-- Node19&#45;&gt;Node20 -->
<g id="edge19" class="edge">
<title>Node19&#45;&gt;Node20</title>
<path fill="none" stroke="#63b8ff" d="M601.83,-71.12C613.9,-72.41 627.04,-73.8 640.01,-75.18"/>
<polygon fill="#63b8ff" stroke="#63b8ff" points="639.52,-78.76 649.84,-76.34 640.26,-71.8 639.52,-78.76"/>
</g>
<!-- Node21 -->
<g id="node21" class="node">
<title>Node21</title>
<g id="a_node21"><a xlink:href="video_a_v_foundation_8h.html#adb1121aa31efbd7a52a0a09f1c287064" target="_top" xlink:title=" ">
<polygon fill="white" stroke="#666666" points="803,-56.25 637.75,-56.25 637.75,-37 803,-37 803,-56.25"/>
<text text-anchor="middle" x="720.38" y="-42.75" font-family="Helvetica,sans-Serif" font-size="10.00">ar2VideoOpenAsyncAVFoundation</text>
</a>
</g>
</g>
<!-- Node19&#45;&gt;Node21 -->
<g id="edge20" class="edge">
<title>Node19&#45;&gt;Node21</title>
<path fill="none" stroke="#63b8ff" d="M601.83,-59.82C609.75,-58.93 618.14,-57.99 626.64,-57.04"/>
<polygon fill="#63b8ff" stroke="#63b8ff" points="626.88,-60.42 636.43,-55.82 626.1,-53.46 626.88,-60.42"/>
</g>
<!-- Node22 -->
<g id="node22" class="node">
<title>Node22</title>
<g id="a_node22"><a xlink:href="video_external_8h.html#a6688bc62f5be5535ce19a0fd80c23ab4" target="_top" xlink:title=" ">
<polygon fill="white" stroke="#666666" points="791,-19.25 649.75,-19.25 649.75,0 791,0 791,-19.25"/>
<text text-anchor="middle" x="720.38" y="-5.75" font-family="Helvetica,sans-Serif" font-size="10.00">ar2VideoOpenAsyncExternal</text>
</a>
</g>
</g>
<!-- Node19&#45;&gt;Node22 -->
<g id="edge21" class="edge">
<title>Node19&#45;&gt;Node22</title>
<path fill="none" stroke="#63b8ff" d="M570.23,-55.58C587.72,-47.17 613.93,-35.34 637.75,-27.62 643.68,-25.71 649.91,-23.93 656.18,-22.29"/>
<polygon fill="#63b8ff" stroke="#63b8ff" points="656.86,-25.48 665.72,-19.67 655.17,-18.68 656.86,-25.48"/>
</g>
</g>
</svg>
        <g id="navigator" transform="translate(0 0)" fill="#404254">
                <rect fill="#f2f5e9" fill-opacity="0.5" stroke="#606060" stroke-width=".5" x="0" y="0" width="60" height="60"/>
                <use id="zoomplus" xlink:href="#zoomPlus" x="17" y="9" onmousedown="handleZoom(evt,'in')"/>
                <use id="zoomminus" xlink:href="#zoomMin" x="42" y="9" onmousedown="handleZoom(evt,'out')"/>
                <use id="reset" xlink:href="#resetDef" x="30" y="36" onmousedown="handleReset()"/>
                <g id="arrowUp" xlink:href="#dirArrow" transform="translate(30 24)" onmousedown="handlePan(0,-1)">
                  <use xlink:href="#rim" fill="#404040">
                        <set attributeName="fill" to="#808080" begin="arrowUp.mouseover" end="arrowUp.mouseout"/>
                  </use>
                  <path fill="none" stroke="white" stroke-width="1.5" d="M0,-3.0v7 M-2.5,-0.5L0,-3.0L2.5,-0.5"/>
                </g>
                <g id="arrowRight" xlink:href="#dirArrow" transform="rotate(90) translate(36 -43)" onmousedown="handlePan(1,0)">
                  <use xlink:href="#rim" fill="#404040">
                        <set attributeName="fill" to="#808080" begin="arrowRight.mouseover" end="arrowRight.mouseout"/>
                  </use>
                  <path fill="none" stroke="white" stroke-width="1.5" d="M0,-3.0v7 M-2.5,-0.5L0,-3.0L2.5,-0.5"/>
                </g>
                <g id="arrowDown" xlink:href="#dirArrow" transform="rotate(180) translate(-30 -48)" onmousedown="handlePan(0,1)">
                  <use xlink:href="#rim" fill="#404040">
                        <set attributeName="fill" to="#808080" begin="arrowDown.mouseover" end="arrowDown.mouseout"/>
                  </use>
                  <path fill="none" stroke="white" stroke-width="1.5" d="M0,-3.0v7 M-2.5,-0.5L0,-3.0L2.5,-0.5"/>
                </g>
                <g id="arrowLeft" xlink:href="#dirArrow" transform="rotate(270) translate(-36 17)" onmousedown="handlePan(-1,0)">
                  <use xlink:href="#rim" fill="#404040">
                        <set attributeName="fill" to="#808080" begin="arrowLeft.mouseover" end="arrowLeft.mouseout"/>
                  </use>
                  <path fill="none" stroke="white" stroke-width="1.5" d="M0,-3.0v7 M-2.5,-0.5L0,-3.0L2.5,-0.5"/>
                </g>
        </g>
        <svg viewBox="0 0 15 15" width="100%" height="30px" preserveAspectRatio="xMaxYMin meet">
         <g id="arrow_out" transform="scale(0.3 0.3)">
          <a xlink:href="_a_r_x__c_8h_a65d241c6ef8389d5c42c462c3c8ae20e_cgraph_org.svg" target="_base">
           <rect id="button" ry="5" rx="5" y="6" x="6" height="38" width="38"
                fill="#f2f5e9" fill-opacity="0.5" stroke="#606060" stroke-width="1.0"/>
           <path id="arrow"
             d="M 11.500037,31.436501 C 11.940474,20.09759 22.043105,11.32322 32.158766,21.979434 L 37.068811,17.246167 C 37.068811,17.246167 37.088388,32 37.088388,32 L 22.160133,31.978069 C 22.160133,31.978069 26.997745,27.140456 26.997745,27.140456 C 18.528582,18.264221 13.291696,25.230495 11.500037,31.436501 z"
             style="fill:#404040;"/>
          </a>
         </g>
        </svg>
</svg>
