<?xml version="1.0" encoding="UTF-8" standalone="no"?>
<!DOCTYPE svg PUBLIC "-//W3C//DTD SVG 1.1//EN"
 "http://www.w3.org/Graphics/SVG/1.1/DTD/svg11.dtd">
<!-- Generated by graphviz version 2.40.1 (20161225.0304)
 -->
<!-- Title: Source/ARX/include/ARX/ARX_c.h Pages: 1 -->
<svg width="247pt" height="92pt"
 viewBox="0.00 0.00 246.58 92.00" xmlns="http://www.w3.org/2000/svg" xmlns:xlink="http://www.w3.org/1999/xlink">
<g id="graph0" class="graph" transform="scale(1 1) rotate(0) translate(4 88)">
<title>Source/ARX/include/ARX/ARX_c.h</title>
<polygon fill="#ffffff" stroke="transparent" points="-4,4 -4,-88 242.5762,-88 242.5762,4 -4,4"/>
<!-- Node0 -->
<g id="node1" class="node">
<title>Node0</title>
<polygon fill="#bfbfbf" stroke="#000000" points="84.7095,-55.5 84.7095,-83.5 190.2017,-83.5 190.2017,-55.5 84.7095,-55.5"/>
<text text-anchor="start" x="92.7095" y="-71.5" font-family="Helvetica,sans-Serif" font-size="10.00" fill="#000000">Source/ARX/include</text>
<text text-anchor="middle" x="137.4556" y="-61.5" font-family="Helvetica,sans-Serif" font-size="10.00" fill="#000000">/ARX/ARX_c.h</text>
</g>
<!-- Node1 -->
<g id="node2" class="node">
<title>Node1</title>
<g id="a_node2"><a xlink:href="_platform_8h.html" target="_top" xlink:title="ARX/Platform.h">
<polygon fill="#ffffff" stroke="#000000" points="0,-.5 0,-18.5 84.9111,-18.5 84.9111,-.5 0,-.5"/>
<text text-anchor="middle" x="42.4556" y="-6.5" font-family="Helvetica,sans-Serif" font-size="10.00" fill="#000000">ARX/Platform.h</text>
</a>
</g>
</g>
<!-- Node0&#45;&gt;Node1 -->
<g id="edge1" class="edge">
<title>Node0&#45;&gt;Node1</title>
<path fill="none" stroke="#191970" d="M114.9419,-55.2808C100.0382,-45.868 80.5466,-33.5575 65.5297,-24.0732"/>
<polygon fill="#191970" stroke="#191970" points="67.1628,-20.9649 56.8389,-18.5842 63.4248,-26.8834 67.1628,-20.9649"/>
</g>
<!-- Node2 -->
<g id="node3" class="node">
<title>Node2</title>
<g id="a_node3"><a xlink:href="_error_8h.html" target="_top" xlink:title="Defines error codes used in the ARX library. ">
<polygon fill="#ffffff" stroke="#000000" points="102.7783,-.5 102.7783,-18.5 172.1328,-18.5 172.1328,-.5 102.7783,-.5"/>
<text text-anchor="middle" x="137.4556" y="-6.5" font-family="Helvetica,sans-Serif" font-size="10.00" fill="#000000">ARX/Error.h</text>
</a>
</g>
</g>
<!-- Node0&#45;&gt;Node2 -->
<g id="edge2" class="edge">
<title>Node0&#45;&gt;Node2</title>
<path fill="none" stroke="#191970" d="M137.4556,-55.2808C137.4556,-47.3776 137.4556,-37.4316 137.4556,-28.8308"/>
<polygon fill="#191970" stroke="#191970" points="140.9557,-28.5842 137.4556,-18.5842 133.9557,-28.5842 140.9557,-28.5842"/>
</g>
<!-- Node3 -->
<g id="node4" class="node">
<title>Node3</title>
<polygon fill="#ffffff" stroke="#bfbfbf" points="190.335,-.5 190.335,-18.5 238.5762,-18.5 238.5762,-.5 190.335,-.5"/>
<text text-anchor="middle" x="214.4556" y="-6.5" font-family="Helvetica,sans-Serif" font-size="10.00" fill="#000000">stdint.h</text>
</g>
<!-- Node0&#45;&gt;Node3 -->
<g id="edge3" class="edge">
<title>Node0&#45;&gt;Node3</title>
<path fill="none" stroke="#191970" d="M155.7035,-55.2808C167.4415,-46.1344 182.6905,-34.252 194.7114,-24.8851"/>
<polygon fill="#191970" stroke="#191970" points="197.0608,-27.4915 202.7975,-18.5842 192.7582,-21.9699 197.0608,-27.4915"/>
</g>
</g>
</svg>
