<?xml version="1.0" encoding="UTF-8" standalone="no"?>
<!DOCTYPE svg PUBLIC "-//W3C//DTD SVG 1.1//EN"
 "http://www.w3.org/Graphics/SVG/1.1/DTD/svg11.dtd">
<!-- Generated by graphviz version 8.0.5 (20230430.1635)
 -->
<!-- Title: arwLoadOpticalParams Pages: 1 -->
<!--zoomable 249 -->
<svg id="main" version="1.1" xmlns="http://www.w3.org/2000/svg" xmlns:xlink="http://www.w3.org/1999/xlink" xml:space="preserve" onload="init(evt)">
<style type="text/css"><![CDATA[
.edge:hover path { stroke: red; }
.edge:hover polygon { stroke: red; fill: red; }
]]></style>
<script type="text/javascript"><![CDATA[
var edges = document.getElementsByTagName('g');
if (edges && edges.length) {
  for (var i=0;i<edges.length;i++) {
    if (edges[i].id.substr(0,4)=='edge') {
      edges[i].setAttribute('class','edge');
    }
  }
}
]]></script>
        <defs>
                <circle id="rim" cx="0" cy="0" r="7"/>
                <circle id="rim2" cx="0" cy="0" r="3.5"/>
                <g id="zoomPlus">
                        <use xlink:href="#rim" fill="#404040">
                                <set attributeName="fill" to="#808080" begin="zoomplus.mouseover" end="zoomplus.mouseout"/>
                        </use>
                        <path d="M-4,0h8M0,-4v8" fill="none" stroke="white" stroke-width="1.5" pointer-events="none"/>
                </g>
                <g id="zoomMin">
                        <use xlink:href="#rim" fill="#404040">
                                <set attributeName="fill" to="#808080" begin="zoomminus.mouseover" end="zoomminus.mouseout"/>
                        </use>
                        <path d="M-4,0h8" fill="none" stroke="white" stroke-width="1.5" pointer-events="none"/>
                </g>
                <g id="dirArrow">
                        <path fill="none" stroke="white" stroke-width="1.5" d="M0,-3.0v7 M-2.5,-0.5L0,-3.0L2.5,-0.5"/>
                </g>
               <g id="resetDef">
                       <use xlink:href="#rim2" fill="#404040">
                               <set attributeName="fill" to="#808080" begin="reset.mouseover" end="reset.mouseout"/>
                       </use>
               </g>
        </defs>

<script type="text/javascript">
var viewWidth = 597;
var viewHeight = 249;
var sectionId = 'dynsection-32';
</script>
<script xlink:href="svgpan.js"/>
<svg id="graph" class="graph">
<g id="viewport">
<title>arwLoadOpticalParams</title>
<!-- Node1 -->
<g id="node1" class="node">
<title>Node1</title>
<g id="a_node1"><a xlink:title="Loads an optical parameters structure from file or from buffer.">
<polygon fill="#999999" stroke="#666666" points="117.25,-130.25 0,-130.25 0,-111 117.25,-111 117.25,-130.25"/>
<text text-anchor="middle" x="58.62" y="-116.75" font-family="Helvetica,sans-Serif" font-size="10.00">arwLoadOpticalParams</text>
</a>
</g>
</g>
<!-- Node2 -->
<g id="node2" class="node">
<title>Node2</title>
<g id="a_node2"><a xlink:href="class_a_r_controller.html#a2c9712e9b049884e165d58671cab7ad2" target="_top" xlink:title="Loads an optical parameters structure from file or from buffer.">
<polygon fill="white" stroke="#666666" points="280.25,-135.88 153.25,-135.88 153.25,-105.38 280.25,-105.38 280.25,-135.88"/>
<text text-anchor="start" x="161.25" y="-122.38" font-family="Helvetica,sans-Serif" font-size="10.00">ARController::loadOptical</text>
<text text-anchor="middle" x="216.75" y="-111.12" font-family="Helvetica,sans-Serif" font-size="10.00">Params</text>
</a>
</g>
</g>
<!-- Node1&#45;&gt;Node2 -->
<g id="edge1" class="edge">
<title>Node1&#45;&gt;Node2</title>
<path fill="none" stroke="#63b8ff" d="M117.32,-120.62C125.35,-120.62 133.69,-120.62 141.97,-120.62"/>
<polygon fill="#63b8ff" stroke="#63b8ff" points="141.78,-124.13 151.78,-120.62 141.78,-117.13 141.78,-124.13"/>
</g>
<!-- Node3 -->
<g id="node3" class="node">
<title>Node3</title>
<g id="a_node3"><a xlink:href="param_disp_8c.html#a0604643c0501b3d470a916630a9e46c4" target="_top" xlink:title=" ">
<polygon fill="white" stroke="#666666" points="444.75,-241.25 341,-241.25 341,-222 444.75,-222 444.75,-241.25"/>
<text text-anchor="middle" x="392.88" y="-227.75" font-family="Helvetica,sans-Serif" font-size="10.00">arParamDispOptical</text>
</a>
</g>
</g>
<!-- Node2&#45;&gt;Node3 -->
<g id="edge2" class="edge">
<title>Node2&#45;&gt;Node3</title>
<path fill="none" stroke="#63b8ff" d="M229.64,-136.08C246.56,-156.96 279.62,-193.84 316.25,-213.62 320.76,-216.06 325.6,-218.17 330.57,-220"/>
<polygon fill="#63b8ff" stroke="#63b8ff" points="329.3,-223.59 339.89,-223.36 331.47,-216.94 329.3,-223.59"/>
</g>
<!-- Node4 -->
<g id="node4" class="node">
<title>Node4</title>
<g id="a_node4"><a xlink:href="param_file_8c.html#a5b862ef9ae735da35be433c83b7c11f5" target="_top" xlink:title=" ">
<polygon fill="white" stroke="#666666" points="445.12,-204.25 340.62,-204.25 340.62,-185 445.12,-185 445.12,-204.25"/>
<text text-anchor="middle" x="392.88" y="-190.75" font-family="Helvetica,sans-Serif" font-size="10.00">arParamLoadOptical</text>
</a>
</g>
</g>
<!-- Node2&#45;&gt;Node4 -->
<g id="edge3" class="edge">
<title>Node2&#45;&gt;Node4</title>
<path fill="none" stroke="#63b8ff" d="M240.7,-136.17C260.09,-148.67 288.98,-165.88 316.25,-176.62 320.75,-178.4 325.47,-180.03 330.27,-181.52"/>
<polygon fill="#63b8ff" stroke="#63b8ff" points="329.24,-185.15 339.82,-184.57 331.18,-178.43 329.24,-185.15"/>
</g>
<!-- Node5 -->
<g id="node5" class="node">
<title>Node5</title>
<g id="a_node5"><a xlink:href="param_file_8c.html#a24e7c85eaa5dc6d4a5cbe57d749f035f" target="_top" xlink:title=" ">
<polygon fill="white" stroke="#666666" points="469.5,-167.25 316.25,-167.25 316.25,-148 469.5,-148 469.5,-167.25"/>
<text text-anchor="middle" x="392.88" y="-153.75" font-family="Helvetica,sans-Serif" font-size="10.00">arParamLoadOpticalFromBuffer</text>
</a>
</g>
</g>
<!-- Node2&#45;&gt;Node5 -->
<g id="edge4" class="edge">
<title>Node2&#45;&gt;Node5</title>
<path fill="none" stroke="#63b8ff" d="M280.61,-133.98C298.04,-137.69 316.87,-141.69 333.99,-145.33"/>
<polygon fill="#63b8ff" stroke="#63b8ff" points="332.9,-148.88 343.41,-147.54 334.36,-142.04 332.9,-148.88"/>
</g>
<!-- Node6 -->
<g id="node6" class="node">
<title>Node6</title>
<g id="a_node6"><a xlink:href="mtx_8c.html#ac8b4aaa900bcedbfc9f492199c235015" target="_top" xlink:title=" ">
<polygon fill="white" stroke="#666666" points="438.38,-130.25 347.38,-130.25 347.38,-111 438.38,-111 438.38,-130.25"/>
<text text-anchor="middle" x="392.88" y="-116.75" font-family="Helvetica,sans-Serif" font-size="10.00">mtxLoadIdentityd</text>
</a>
</g>
</g>
<!-- Node2&#45;&gt;Node6 -->
<g id="edge5" class="edge">
<title>Node2&#45;&gt;Node6</title>
<path fill="none" stroke="#63b8ff" d="M280.61,-120.62C298.84,-120.62 318.61,-120.62 336.36,-120.62"/>
<polygon fill="#63b8ff" stroke="#63b8ff" points="336.12,-124.13 346.12,-120.62 336.12,-117.13 336.12,-124.13"/>
</g>
<!-- Node7 -->
<g id="node7" class="node">
<title>Node7</title>
<g id="a_node7"><a xlink:href="mtx_8c.html#afd59713c9486a0d4bb339eb0a1e398dc" target="_top" xlink:title=" ">
<polygon fill="white" stroke="#666666" points="437.25,-93.25 348.5,-93.25 348.5,-74 437.25,-74 437.25,-93.25"/>
<text text-anchor="middle" x="392.88" y="-79.75" font-family="Helvetica,sans-Serif" font-size="10.00">mtxLoadIdentityf</text>
</a>
</g>
</g>
<!-- Node2&#45;&gt;Node7 -->
<g id="edge6" class="edge">
<title>Node2&#45;&gt;Node7</title>
<path fill="none" stroke="#63b8ff" d="M280.61,-107.27C299.25,-103.31 319.5,-99 337.56,-95.17"/>
<polygon fill="#63b8ff" stroke="#63b8ff" points="338.13,-98.41 347.19,-92.91 336.68,-91.56 338.13,-98.41"/>
</g>
<!-- Node8 -->
<g id="node8" class="node">
<title>Node8</title>
<g id="a_node8"><a xlink:href="mtx_8c.html#a081977b51ec651b945f3b97e68196340" target="_top" xlink:title=" ">
<polygon fill="white" stroke="#666666" points="437.62,-56.25 348.12,-56.25 348.12,-37 437.62,-37 437.62,-56.25"/>
<text text-anchor="middle" x="392.88" y="-42.75" font-family="Helvetica,sans-Serif" font-size="10.00">mtxPerspectived</text>
</a>
</g>
</g>
<!-- Node2&#45;&gt;Node8 -->
<g id="edge7" class="edge">
<title>Node2&#45;&gt;Node8</title>
<path fill="none" stroke="#63b8ff" d="M240.7,-105.08C260.09,-92.58 288.98,-75.37 316.25,-64.62 322.91,-62 330.07,-59.69 337.22,-57.67"/>
<polygon fill="#63b8ff" stroke="#63b8ff" points="337.86,-60.86 346.64,-54.94 336.08,-54.09 337.86,-60.86"/>
</g>
<!-- Node10 -->
<g id="node10" class="node">
<title>Node10</title>
<g id="a_node10"><a xlink:href="mtx_8c.html#ae6825ad9d44cfedf48accca9d7d77208" target="_top" xlink:title=" ">
<polygon fill="white" stroke="#666666" points="436.5,-19.25 349.25,-19.25 349.25,0 436.5,0 436.5,-19.25"/>
<text text-anchor="middle" x="392.88" y="-5.75" font-family="Helvetica,sans-Serif" font-size="10.00">mtxPerspectivef</text>
</a>
</g>
</g>
<!-- Node2&#45;&gt;Node10 -->
<g id="edge9" class="edge">
<title>Node2&#45;&gt;Node10</title>
<path fill="none" stroke="#63b8ff" d="M229.64,-105.17C246.56,-84.29 279.62,-47.41 316.25,-27.62 323.11,-23.92 330.72,-20.97 338.4,-18.63"/>
<polygon fill="#63b8ff" stroke="#63b8ff" points="339.11,-21.79 347.84,-15.79 337.27,-15.03 339.11,-21.79"/>
</g>
<!-- Node9 -->
<g id="node9" class="node">
<title>Node9</title>
<g id="a_node9"><a xlink:href="mtx_8c.html#a46f08e4d7a5d5cc03290d3a166b723d0" target="_top" xlink:title=" ">
<polygon fill="white" stroke="#666666" points="589,-56.25 505.5,-56.25 505.5,-37 589,-37 589,-56.25"/>
<text text-anchor="middle" x="547.25" y="-42.75" font-family="Helvetica,sans-Serif" font-size="10.00">mtxMultMatrixd</text>
</a>
</g>
</g>
<!-- Node8&#45;&gt;Node9 -->
<g id="edge8" class="edge">
<title>Node8&#45;&gt;Node9</title>
<path fill="none" stroke="#63b8ff" d="M437.95,-46.62C455.57,-46.62 476,-46.62 494.34,-46.62"/>
<polygon fill="#63b8ff" stroke="#63b8ff" points="494.15,-50.13 504.15,-46.62 494.15,-43.13 494.15,-50.13"/>
</g>
<!-- Node11 -->
<g id="node11" class="node">
<title>Node11</title>
<g id="a_node11"><a xlink:href="mtx_8c.html#af377adb88126f1b018b6be776c49cf35" target="_top" xlink:title=" ">
<polygon fill="white" stroke="#666666" points="587.88,-19.25 506.62,-19.25 506.62,0 587.88,0 587.88,-19.25"/>
<text text-anchor="middle" x="547.25" y="-5.75" font-family="Helvetica,sans-Serif" font-size="10.00">mtxMultMatrixf</text>
</a>
</g>
</g>
<!-- Node10&#45;&gt;Node11 -->
<g id="edge10" class="edge">
<title>Node10&#45;&gt;Node11</title>
<path fill="none" stroke="#63b8ff" d="M436.73,-9.62C454.97,-9.62 476.4,-9.62 495.44,-9.62"/>
<polygon fill="#63b8ff" stroke="#63b8ff" points="495.33,-13.13 505.33,-9.62 495.33,-6.13 495.33,-13.13"/>
</g>
</g>
</svg>
        <g id="navigator" transform="translate(0 0)" fill="#404254">
                <rect fill="#f2f5e9" fill-opacity="0.5" stroke="#606060" stroke-width=".5" x="0" y="0" width="60" height="60"/>
                <use id="zoomplus" xlink:href="#zoomPlus" x="17" y="9" onmousedown="handleZoom(evt,'in')"/>
                <use id="zoomminus" xlink:href="#zoomMin" x="42" y="9" onmousedown="handleZoom(evt,'out')"/>
                <use id="reset" xlink:href="#resetDef" x="30" y="36" onmousedown="handleReset()"/>
                <g id="arrowUp" xlink:href="#dirArrow" transform="translate(30 24)" onmousedown="handlePan(0,-1)">
                  <use xlink:href="#rim" fill="#404040">
                        <set attributeName="fill" to="#808080" begin="arrowUp.mouseover" end="arrowUp.mouseout"/>
                  </use>
                  <path fill="none" stroke="white" stroke-width="1.5" d="M0,-3.0v7 M-2.5,-0.5L0,-3.0L2.5,-0.5"/>
                </g>
                <g id="arrowRight" xlink:href="#dirArrow" transform="rotate(90) translate(36 -43)" onmousedown="handlePan(1,0)">
                  <use xlink:href="#rim" fill="#404040">
                        <set attributeName="fill" to="#808080" begin="arrowRight.mouseover" end="arrowRight.mouseout"/>
                  </use>
                  <path fill="none" stroke="white" stroke-width="1.5" d="M0,-3.0v7 M-2.5,-0.5L0,-3.0L2.5,-0.5"/>
                </g>
                <g id="arrowDown" xlink:href="#dirArrow" transform="rotate(180) translate(-30 -48)" onmousedown="handlePan(0,1)">
                  <use xlink:href="#rim" fill="#404040">
                        <set attributeName="fill" to="#808080" begin="arrowDown.mouseover" end="arrowDown.mouseout"/>
                  </use>
                  <path fill="none" stroke="white" stroke-width="1.5" d="M0,-3.0v7 M-2.5,-0.5L0,-3.0L2.5,-0.5"/>
                </g>
                <g id="arrowLeft" xlink:href="#dirArrow" transform="rotate(270) translate(-36 17)" onmousedown="handlePan(-1,0)">
                  <use xlink:href="#rim" fill="#404040">
                        <set attributeName="fill" to="#808080" begin="arrowLeft.mouseover" end="arrowLeft.mouseout"/>
                  </use>
                  <path fill="none" stroke="white" stroke-width="1.5" d="M0,-3.0v7 M-2.5,-0.5L0,-3.0L2.5,-0.5"/>
                </g>
        </g>
        <svg viewBox="0 0 15 15" width="100%" height="30px" preserveAspectRatio="xMaxYMin meet">
         <g id="arrow_out" transform="scale(0.3 0.3)">
          <a xlink:href="_a_r_x__c_8cpp_ad6bd7fc8b47fa792e9381a4f97ac7794_cgraph_org.svg" target="_base">
           <rect id="button" ry="5" rx="5" y="6" x="6" height="38" width="38"
                fill="#f2f5e9" fill-opacity="0.5" stroke="#606060" stroke-width="1.0"/>
           <path id="arrow"
             d="M 11.500037,31.436501 C 11.940474,20.09759 22.043105,11.32322 32.158766,21.979434 L 37.068811,17.246167 C 37.068811,17.246167 37.088388,32 37.088388,32 L 22.160133,31.978069 C 22.160133,31.978069 26.997745,27.140456 26.997745,27.140456 C 18.528582,18.264221 13.291696,25.230495 11.500037,31.436501 z"
             style="fill:#404040;"/>
          </a>
         </g>
        </svg>
</svg>
