<?xml version="1.0" encoding="UTF-8" standalone="no"?>
<!DOCTYPE svg PUBLIC "-//W3C//DTD SVG 1.1//EN"
 "http://www.w3.org/Graphics/SVG/1.1/DTD/svg11.dtd">
<!-- Generated by graphviz version 2.40.1 (20161225.0304)
 -->
<!-- Title: Source/ARX/include/ARX/ARTrackerSquare.h Pages: 1 -->
<svg width="914pt" height="422pt"
 viewBox="0.00 0.00 914.37 422.00" xmlns="http://www.w3.org/2000/svg" xmlns:xlink="http://www.w3.org/1999/xlink">
<g id="graph0" class="graph" transform="scale(1 1) rotate(0) translate(4 418)">
<title>Source/ARX/include/ARX/ARTrackerSquare.h</title>
<polygon fill="#ffffff" stroke="transparent" points="-4,4 -4,-418 910.3697,-418 910.3697,4 -4,4"/>
<!-- Node0 -->
<g id="node1" class="node">
<title>Node0</title>
<polygon fill="#bfbfbf" stroke="#000000" points="451.8696,-385.5 451.8696,-413.5 581.8149,-413.5 581.8149,-385.5 451.8696,-385.5"/>
<text text-anchor="start" x="459.8696" y="-401.5" font-family="Helvetica,sans-Serif" font-size="10.00" fill="#000000">Source/ARX/include</text>
<text text-anchor="middle" x="516.8423" y="-391.5" font-family="Helvetica,sans-Serif" font-size="10.00" fill="#000000">/ARX/ARTrackerSquare.h</text>
</g>
<!-- Node1 -->
<g id="node2" class="node">
<title>Node1</title>
<g id="a_node2"><a xlink:href="_a_r_trackable_square_8h.html" target="_top" xlink:title="ARX/ARTrackableSquare.h">
<polygon fill="#ffffff" stroke="#000000" points="497.2515,-330.5 497.2515,-348.5 634.4331,-348.5 634.4331,-330.5 497.2515,-330.5"/>
<text text-anchor="middle" x="565.8423" y="-336.5" font-family="Helvetica,sans-Serif" font-size="10.00" fill="#000000">ARX/ARTrackableSquare.h</text>
</a>
</g>
</g>
<!-- Node0&#45;&gt;Node1 -->
<g id="edge1" class="edge">
<title>Node0&#45;&gt;Node1</title>
<path fill="none" stroke="#191970" d="M528.4546,-385.2808C535.4891,-376.6672 544.5052,-365.6271 551.9209,-356.5466"/>
<polygon fill="#191970" stroke="#191970" points="554.809,-358.5434 558.4235,-348.5842 549.3873,-354.1156 554.809,-358.5434"/>
</g>
<!-- Node3 -->
<g id="node4" class="node">
<title>Node3</title>
<g id="a_node4"><a xlink:href="ar_8h.html" target="_top" xlink:title="artoolkitX core routines. ">
<polygon fill="#ffffff" stroke="#000000" points="457.4951,-110.5 457.4951,-128.5 530.1895,-128.5 530.1895,-110.5 457.4951,-110.5"/>
<text text-anchor="middle" x="493.8423" y="-116.5" font-family="Helvetica,sans-Serif" font-size="10.00" fill="#000000">ARX/AR/ar.h</text>
</a>
</g>
</g>
<!-- Node0&#45;&gt;Node3 -->
<g id="edge43" class="edge">
<title>Node0&#45;&gt;Node3</title>
<path fill="none" stroke="#191970" d="M466.5017,-385.4666C398.2687,-364.9277 284.8423,-324.7343 284.8423,-284.5 284.8423,-284.5 284.8423,-284.5 284.8423,-229.5 284.8423,-199.6154 282.1744,-185.5813 303.8423,-165 324.2191,-145.645 397.8288,-132.2823 447.2162,-125.2642"/>
<polygon fill="#191970" stroke="#191970" points="447.9325,-128.6985 457.3594,-123.863 446.9745,-121.7644 447.9325,-128.6985"/>
</g>
<!-- Node24 -->
<g id="node25" class="node">
<title>Node24</title>
<g id="a_node25"><a xlink:href="_a_r_trackable_multi_square_8h.html" target="_top" xlink:title="ARX/ARTrackableMultiSquare.h">
<polygon fill="#ffffff" stroke="#000000" points="389.6948,-275.5 389.6948,-293.5 547.9897,-293.5 547.9897,-275.5 389.6948,-275.5"/>
<text text-anchor="middle" x="468.8423" y="-281.5" font-family="Helvetica,sans-Serif" font-size="10.00" fill="#000000">ARX/ARTrackableMultiSquare.h</text>
</a>
</g>
</g>
<!-- Node0&#45;&gt;Node24 -->
<g id="edge33" class="edge">
<title>Node0&#45;&gt;Node24</title>
<path fill="none" stroke="#191970" d="M507.5328,-385.3804C501.3239,-375.5019 493.3252,-361.8295 487.8423,-349 481.5344,-334.2401 476.5213,-316.7282 473.2319,-303.6786"/>
<polygon fill="#191970" stroke="#191970" points="476.6271,-302.8277 470.8836,-293.9248 469.8216,-304.4662 476.6271,-302.8277"/>
</g>
<!-- Node26 -->
<g id="node27" class="node">
<title>Node26</title>
<g id="a_node27"><a xlink:href="_a_r_tracker_video_8h.html" target="_top" xlink:title="ARX/ARTrackerVideo.h">
<polygon fill="#ffffff" stroke="#000000" points="652.6816,-330.5 652.6816,-348.5 773.0029,-348.5 773.0029,-330.5 652.6816,-330.5"/>
<text text-anchor="middle" x="712.8423" y="-336.5" font-family="Helvetica,sans-Serif" font-size="10.00" fill="#000000">ARX/ARTrackerVideo.h</text>
</a>
</g>
</g>
<!-- Node0&#45;&gt;Node26 -->
<g id="edge37" class="edge">
<title>Node0&#45;&gt;Node26</title>
<path fill="none" stroke="#191970" d="M562.7956,-385.4327C596.3859,-375.1499 641.4686,-361.3491 673.4235,-351.567"/>
<polygon fill="#191970" stroke="#191970" points="674.7685,-354.8156 683.306,-348.5417 672.7195,-348.1222 674.7685,-354.8156"/>
</g>
<!-- Node2 -->
<g id="node3" class="node">
<title>Node2</title>
<g id="a_node3"><a xlink:href="_a_r_trackable_8h.html" target="_top" xlink:title="ARX/ARTrackable.h">
<polygon fill="#ffffff" stroke="#000000" points="538.3745,-220.5 538.3745,-238.5 643.3101,-238.5 643.3101,-220.5 538.3745,-220.5"/>
<text text-anchor="middle" x="590.8423" y="-226.5" font-family="Helvetica,sans-Serif" font-size="10.00" fill="#000000">ARX/ARTrackable.h</text>
</a>
</g>
</g>
<!-- Node1&#45;&gt;Node2 -->
<g id="edge2" class="edge">
<title>Node1&#45;&gt;Node2</title>
<path fill="none" stroke="#191970" d="M567.8881,-330.4982C571.9352,-312.6913 581.0417,-272.6225 586.4897,-248.6515"/>
<polygon fill="#191970" stroke="#191970" points="589.9648,-249.1532 588.7682,-238.6261 583.1389,-247.6018 589.9648,-249.1532"/>
</g>
<!-- Node2&#45;&gt;Node3 -->
<g id="edge3" class="edge">
<title>Node2&#45;&gt;Node3</title>
<path fill="none" stroke="#191970" d="M590.2394,-220.1946C588.9302,-206.7087 584.8016,-181.5404 571.8423,-165 560.7126,-150.7948 543.8216,-140.165 528.6006,-132.7673"/>
<polygon fill="#191970" stroke="#191970" points="529.9566,-129.5389 519.4056,-128.5757 527.053,-135.9084 529.9566,-129.5389"/>
</g>
<!-- Node20 -->
<g id="node21" class="node">
<title>Node20</title>
<g id="a_node21"><a xlink:href="ar_filter_trans_mat_8h.html" target="_top" xlink:title="Provides filtering of transformation matrices (pose estimates). ">
<polygon fill="#ffffff" stroke="#000000" points="425.1782,-165.5 425.1782,-183.5 562.5063,-183.5 562.5063,-165.5 425.1782,-165.5"/>
<text text-anchor="middle" x="493.8423" y="-171.5" font-family="Helvetica,sans-Serif" font-size="10.00" fill="#000000">ARX/AR/arFilterTransMat.h</text>
</a>
</g>
</g>
<!-- Node2&#45;&gt;Node20 -->
<g id="edge27" class="edge">
<title>Node2&#45;&gt;Node20</title>
<path fill="none" stroke="#191970" d="M574.8247,-220.4179C559.6604,-211.8195 536.6552,-198.7754 519.0348,-188.7844"/>
<polygon fill="#191970" stroke="#191970" points="520.309,-185.4834 509.8837,-183.5956 516.8563,-191.5727 520.309,-185.4834"/>
</g>
<!-- Node21 -->
<g id="node22" class="node">
<title>Node21</title>
<g id="a_node22"><a xlink:href="_a_r_pattern_8h.html" target="_top" xlink:title="ARX/ARPattern.h">
<polygon fill="#ffffff" stroke="#000000" points="618.936,-165.5 618.936,-183.5 712.7485,-183.5 712.7485,-165.5 618.936,-165.5"/>
<text text-anchor="middle" x="665.8423" y="-171.5" font-family="Helvetica,sans-Serif" font-size="10.00" fill="#000000">ARX/ARPattern.h</text>
</a>
</g>
</g>
<!-- Node2&#45;&gt;Node21 -->
<g id="edge29" class="edge">
<title>Node2&#45;&gt;Node21</title>
<path fill="none" stroke="#191970" d="M603.227,-220.4179C614.6263,-212.0584 631.756,-199.4966 645.2188,-189.6239"/>
<polygon fill="#191970" stroke="#191970" points="647.4449,-192.3317 653.4392,-183.5956 643.3053,-186.6869 647.4449,-192.3317"/>
</g>
<!-- Node23 -->
<g id="node24" class="node">
<title>Node23</title>
<polygon fill="#ffffff" stroke="#bfbfbf" points="731.2266,-165.5 731.2266,-183.5 774.458,-183.5 774.458,-165.5 731.2266,-165.5"/>
<text text-anchor="middle" x="752.8423" y="-171.5" font-family="Helvetica,sans-Serif" font-size="10.00" fill="#000000">vector</text>
</g>
<!-- Node2&#45;&gt;Node23 -->
<g id="edge32" class="edge">
<title>Node2&#45;&gt;Node23</title>
<path fill="none" stroke="#191970" d="M617.5933,-220.4179C646.0141,-210.7688 690.9259,-195.521 721.1133,-185.2722"/>
<polygon fill="#191970" stroke="#191970" points="722.3972,-188.5326 730.7412,-182.0035 720.1468,-181.9042 722.3972,-188.5326"/>
</g>
<!-- Node4 -->
<g id="node5" class="node">
<title>Node4</title>
<polygon fill="#ffffff" stroke="#bfbfbf" points="406.1108,-.5 406.1108,-18.5 451.5737,-18.5 451.5737,-.5 406.1108,-.5"/>
<text text-anchor="middle" x="428.8423" y="-6.5" font-family="Helvetica,sans-Serif" font-size="10.00" fill="#000000">stdio.h</text>
</g>
<!-- Node3&#45;&gt;Node4 -->
<g id="edge4" class="edge">
<title>Node3&#45;&gt;Node4</title>
<path fill="none" stroke="#191970" d="M457.3232,-114.7989C412.8643,-108.2393 341.7262,-94.7581 325.8423,-74 320.7106,-67.2937 321.2328,-62.0754 325.8423,-55 334.0156,-42.4542 369.2884,-28.6308 396.302,-19.551"/>
<polygon fill="#191970" stroke="#191970" points="397.4035,-22.8733 405.8152,-16.4317 395.2224,-16.2217 397.4035,-22.8733"/>
</g>
<!-- Node5 -->
<g id="node6" class="node">
<title>Node5</title>
<polygon fill="#ffffff" stroke="#bfbfbf" points="0,-.5 0,-18.5 47.6846,-18.5 47.6846,-.5 0,-.5"/>
<text text-anchor="middle" x="23.8423" y="-6.5" font-family="Helvetica,sans-Serif" font-size="10.00" fill="#000000">stdlib.h</text>
</g>
<!-- Node3&#45;&gt;Node5 -->
<g id="edge5" class="edge">
<title>Node3&#45;&gt;Node5</title>
<path fill="none" stroke="#191970" d="M457.2719,-118.1869C371.3729,-114.6487 159.139,-103.1387 94.8423,-74 71.5115,-63.4267 50.5856,-42.2746 37.5971,-27.0728"/>
<polygon fill="#191970" stroke="#191970" points="39.9621,-24.438 30.9087,-18.9347 34.5542,-28.8826 39.9621,-24.438"/>
</g>
<!-- Node6 -->
<g id="node7" class="node">
<title>Node6</title>
<polygon fill="#ffffff" stroke="#bfbfbf" points="120.7217,-55.5 120.7217,-73.5 168.9629,-73.5 168.9629,-55.5 120.7217,-55.5"/>
<text text-anchor="middle" x="144.8423" y="-61.5" font-family="Helvetica,sans-Serif" font-size="10.00" fill="#000000">stdint.h</text>
</g>
<!-- Node3&#45;&gt;Node6 -->
<g id="edge6" class="edge">
<title>Node3&#45;&gt;Node6</title>
<path fill="none" stroke="#191970" d="M457.0588,-115.8621C399.6186,-109.822 285.033,-96.3324 179.1454,-74.0457"/>
<polygon fill="#191970" stroke="#191970" points="179.7665,-70.5995 169.2559,-71.9327 178.3038,-77.445 179.7665,-70.5995"/>
</g>
<!-- Node7 -->
<g id="node8" class="node">
<title>Node7</title>
<polygon fill="#ffffff" stroke="#bfbfbf" points="65.4458,-.5 65.4458,-18.5 114.2388,-18.5 114.2388,-.5 65.4458,-.5"/>
<text text-anchor="middle" x="89.8423" y="-6.5" font-family="Helvetica,sans-Serif" font-size="10.00" fill="#000000">string.h</text>
</g>
<!-- Node3&#45;&gt;Node7 -->
<g id="edge7" class="edge">
<title>Node3&#45;&gt;Node7</title>
<path fill="none" stroke="#191970" d="M457.238,-117.3451C366.8438,-111.7162 138.4185,-95.5052 111.8423,-74 98.3566,-63.0876 93.1019,-43.5164 91.0734,-28.7849"/>
<polygon fill="#191970" stroke="#191970" points="94.5416,-28.2907 90.0682,-18.6866 87.576,-28.9841 94.5416,-28.2907"/>
</g>
<!-- Node8 -->
<g id="node9" class="node">
<title>Node8</title>
<polygon fill="#ffffff" stroke="#bfbfbf" points="774.3252,-.5 774.3252,-18.5 865.3594,-18.5 865.3594,-.5 774.3252,-.5"/>
<text text-anchor="middle" x="819.8423" y="-6.5" font-family="Helvetica,sans-Serif" font-size="10.00" fill="#000000">ARX/AR/config.h</text>
</g>
<!-- Node3&#45;&gt;Node8 -->
<g id="edge8" class="edge">
<title>Node3&#45;&gt;Node8</title>
<path fill="none" stroke="#191970" d="M530.4546,-116.7269C628.1642,-109.1526 888.533,-87.762 900.8423,-74 919.254,-53.4152 886.3945,-34.3075 857.1713,-22.3177"/>
<polygon fill="#191970" stroke="#191970" points="858.0677,-18.9104 847.4796,-18.5327 855.5211,-25.4308 858.0677,-18.9104"/>
</g>
<!-- Node9 -->
<g id="node10" class="node">
<title>Node9</title>
<g id="a_node10"><a xlink:href="ar_config_8h.html" target="_top" xlink:title="ARX/AR/arConfig.h">
<polygon fill="#ffffff" stroke="#000000" points="334.7686,-55.5 334.7686,-73.5 436.916,-73.5 436.916,-55.5 334.7686,-55.5"/>
<text text-anchor="middle" x="385.8423" y="-61.5" font-family="Helvetica,sans-Serif" font-size="10.00" fill="#000000">ARX/AR/arConfig.h</text>
</a>
</g>
</g>
<!-- Node3&#45;&gt;Node9 -->
<g id="edge9" class="edge">
<title>Node3&#45;&gt;Node9</title>
<path fill="none" stroke="#191970" d="M476.0083,-110.4179C458.8116,-101.6603 432.5586,-88.2907 412.808,-78.2326"/>
<polygon fill="#191970" stroke="#191970" points="414.2021,-75.0148 403.7028,-73.5956 411.0255,-81.2526 414.2021,-75.0148"/>
</g>
<!-- Node10 -->
<g id="node11" class="node">
<title>Node10</title>
<g id="a_node11"><a xlink:href="log_8h.html" target="_top" xlink:title="Logging utilities. ">
<polygon fill="#ffffff" stroke="#000000" points="186.7734,-55.5 186.7734,-73.5 278.9111,-73.5 278.9111,-55.5 186.7734,-55.5"/>
<text text-anchor="middle" x="232.8423" y="-61.5" font-family="Helvetica,sans-Serif" font-size="10.00" fill="#000000">ARX/ARUtil/log.h</text>
</a>
</g>
</g>
<!-- Node3&#45;&gt;Node10 -->
<g id="edge10" class="edge">
<title>Node3&#45;&gt;Node10</title>
<path fill="none" stroke="#191970" d="M457.2765,-111.7946C412.5576,-102.371 336.5329,-86.3505 285.514,-75.5994"/>
<polygon fill="#191970" stroke="#191970" points="286.1671,-72.1602 275.6603,-73.5229 284.7236,-79.0098 286.1671,-72.1602"/>
</g>
<!-- Node14 -->
<g id="node15" class="node">
<title>Node14</title>
<g id="a_node15"><a xlink:href="matrix_8h.html" target="_top" xlink:title="ARX/AR/matrix.h">
<polygon fill="#ffffff" stroke="#000000" points="550.0566,-55.5 550.0566,-73.5 641.6279,-73.5 641.6279,-55.5 550.0566,-55.5"/>
<text text-anchor="middle" x="595.8423" y="-61.5" font-family="Helvetica,sans-Serif" font-size="10.00" fill="#000000">ARX/AR/matrix.h</text>
</a>
</g>
</g>
<!-- Node3&#45;&gt;Node14 -->
<g id="edge17" class="edge">
<title>Node3&#45;&gt;Node14</title>
<path fill="none" stroke="#191970" d="M510.6855,-110.4179C526.853,-101.7001 551.4961,-88.4122 570.1199,-78.3699"/>
<polygon fill="#191970" stroke="#191970" points="571.8333,-81.4225 578.974,-73.5956 568.5109,-75.2611 571.8333,-81.4225"/>
</g>
<!-- Node16 -->
<g id="node17" class="node">
<title>Node16</title>
<g id="a_node17"><a xlink:href="icp_8h.html" target="_top" xlink:title="ARX/AR/icp.h">
<polygon fill="#ffffff" stroke="#000000" points="455.2759,-55.5 455.2759,-73.5 532.4087,-73.5 532.4087,-55.5 455.2759,-55.5"/>
<text text-anchor="middle" x="493.8423" y="-61.5" font-family="Helvetica,sans-Serif" font-size="10.00" fill="#000000">ARX/AR/icp.h</text>
</a>
</g>
</g>
<!-- Node3&#45;&gt;Node16 -->
<g id="edge19" class="edge">
<title>Node3&#45;&gt;Node16</title>
<path fill="none" stroke="#191970" d="M493.8423,-110.4179C493.8423,-103.2164 493.8423,-92.8962 493.8423,-83.8632"/>
<polygon fill="#191970" stroke="#191970" points="497.3424,-83.7794 493.8423,-73.7795 490.3424,-83.7795 497.3424,-83.7794"/>
</g>
<!-- Node18 -->
<g id="node19" class="node">
<title>Node18</title>
<g id="a_node19"><a xlink:href="param_8h.html" target="_top" xlink:title="artoolkitX functions for handling calibrated camera parameters. ">
<polygon fill="#ffffff" stroke="#000000" points="799.4951,-55.5 799.4951,-73.5 892.1895,-73.5 892.1895,-55.5 799.4951,-55.5"/>
<text text-anchor="middle" x="845.8423" y="-61.5" font-family="Helvetica,sans-Serif" font-size="10.00" fill="#000000">ARX/AR/param.h</text>
</a>
</g>
</g>
<!-- Node3&#45;&gt;Node18 -->
<g id="edge22" class="edge">
<title>Node3&#45;&gt;Node18</title>
<path fill="none" stroke="#191970" d="M530.5718,-113.1998C585.4343,-104.6434 691.486,-88.7234 781.8423,-74 784.311,-73.5977 786.841,-73.18 789.4041,-72.754"/>
<polygon fill="#191970" stroke="#191970" points="790.1077,-76.1851 799.3944,-71.0853 788.9544,-69.2807 790.1077,-76.1851"/>
</g>
<!-- Node19 -->
<g id="node20" class="node">
<title>Node19</title>
<g id="a_node20"><a xlink:href="ar_image_proc_8h.html" target="_top" xlink:title="artoolkitX functions for 2D luminance image processing. ">
<polygon fill="#ffffff" stroke="#000000" points="660.0444,-55.5 660.0444,-73.5 781.6401,-73.5 781.6401,-55.5 660.0444,-55.5"/>
<text text-anchor="middle" x="720.8423" y="-61.5" font-family="Helvetica,sans-Serif" font-size="10.00" fill="#000000">ARX/AR/arImageProc.h</text>
</a>
</g>
</g>
<!-- Node3&#45;&gt;Node19 -->
<g id="edge24" class="edge">
<title>Node3&#45;&gt;Node19</title>
<path fill="none" stroke="#191970" d="M526.1604,-110.4179C563.3332,-100.9354 624.6496,-86.0457 668.5956,-75.8073"/>
<polygon fill="#191970" stroke="#191970" points="669.5783,-79.1724 678.5293,-73.5042 667.9972,-72.3533 669.5783,-79.1724"/>
</g>
<!-- Node10&#45;&gt;Node4 -->
<g id="edge11" class="edge">
<title>Node10&#45;&gt;Node4</title>
<path fill="none" stroke="#191970" d="M266.1864,-55.4376C297.3496,-46.9262 345.4197,-33.6914 395.9815,-19.2129"/>
<polygon fill="#191970" stroke="#191970" points="397.1385,-22.5222 405.7847,-16.399 395.2072,-15.7939 397.1385,-22.5222"/>
</g>
<!-- Node10&#45;&gt;Node5 -->
<g id="edge12" class="edge">
<title>Node10&#45;&gt;Node5</title>
<path fill="none" stroke="#191970" d="M196.6989,-55.4632C163.0843,-46.9904 111.3723,-33.7836 57.6638,-19.1745"/>
<polygon fill="#191970" stroke="#191970" points="58.5402,-15.7857 47.9715,-16.5286 56.6967,-22.5386 58.5402,-15.7857"/>
</g>
<!-- Node10&#45;&gt;Node7 -->
<g id="edge13" class="edge">
<title>Node10&#45;&gt;Node7</title>
<path fill="none" stroke="#191970" d="M209.2287,-55.4179C185.7346,-46.3817 149.474,-32.4353 123.0775,-22.2828"/>
<polygon fill="#191970" stroke="#191970" points="124.0808,-18.9188 113.4909,-18.5956 121.5679,-25.4522 124.0808,-18.9188"/>
</g>
<!-- Node11 -->
<g id="node12" class="node">
<title>Node11</title>
<polygon fill="#ffffff" stroke="#bfbfbf" points="131.7759,-.5 131.7759,-18.5 183.9087,-18.5 183.9087,-.5 131.7759,-.5"/>
<text text-anchor="middle" x="157.8423" y="-6.5" font-family="Helvetica,sans-Serif" font-size="10.00" fill="#000000">stdarg.h</text>
</g>
<!-- Node10&#45;&gt;Node11 -->
<g id="edge14" class="edge">
<title>Node10&#45;&gt;Node11</title>
<path fill="none" stroke="#191970" d="M220.4576,-55.4179C209.0583,-47.0584 191.9286,-34.4966 178.4658,-24.6239"/>
<polygon fill="#191970" stroke="#191970" points="180.3793,-21.6869 170.2454,-18.5956 176.2397,-27.3317 180.3793,-21.6869"/>
</g>
<!-- Node12 -->
<g id="node13" class="node">
<title>Node12</title>
<polygon fill="#ffffff" stroke="#bfbfbf" points="202.1108,-.5 202.1108,-18.5 267.5737,-18.5 267.5737,-.5 202.1108,-.5"/>
<text text-anchor="middle" x="234.8423" y="-6.5" font-family="Helvetica,sans-Serif" font-size="10.00" fill="#000000">sys/errno.h</text>
</g>
<!-- Node10&#45;&gt;Node12 -->
<g id="edge15" class="edge">
<title>Node10&#45;&gt;Node12</title>
<path fill="none" stroke="#191970" d="M233.1725,-55.4179C233.4344,-48.2164 233.8097,-37.8962 234.1382,-28.8632"/>
<polygon fill="#191970" stroke="#191970" points="237.639,-28.9001 234.5049,-18.7795 230.6437,-28.6456 237.639,-28.9001"/>
</g>
<!-- Node13 -->
<g id="node14" class="node">
<title>Node13</title>
<g id="a_node14"><a xlink:href="types_8h.html" target="_top" xlink:title="ARX/ARUtil/types.h">
<polygon fill="#ffffff" stroke="#000000" points="285.4951,-.5 285.4951,-18.5 388.1895,-18.5 388.1895,-.5 285.4951,-.5"/>
<text text-anchor="middle" x="336.8423" y="-6.5" font-family="Helvetica,sans-Serif" font-size="10.00" fill="#000000">ARX/ARUtil/types.h</text>
</a>
</g>
</g>
<!-- Node10&#45;&gt;Node13 -->
<g id="edge16" class="edge">
<title>Node10&#45;&gt;Node13</title>
<path fill="none" stroke="#191970" d="M250.0158,-55.4179C266.5002,-46.7001 291.6265,-33.4122 310.6155,-23.3699"/>
<polygon fill="#191970" stroke="#191970" points="312.4396,-26.3646 319.6433,-18.5956 309.1671,-20.1767 312.4396,-26.3646"/>
</g>
<!-- Node15 -->
<g id="node16" class="node">
<title>Node15</title>
<polygon fill="#ffffff" stroke="#bfbfbf" points="586.5566,-.5 586.5566,-18.5 633.1279,-18.5 633.1279,-.5 586.5566,-.5"/>
<text text-anchor="middle" x="609.8423" y="-6.5" font-family="Helvetica,sans-Serif" font-size="10.00" fill="#000000">math.h</text>
</g>
<!-- Node14&#45;&gt;Node15 -->
<g id="edge18" class="edge">
<title>Node14&#45;&gt;Node15</title>
<path fill="none" stroke="#191970" d="M598.1541,-55.4179C600.0074,-48.1372 602.672,-37.669 604.9892,-28.5659"/>
<polygon fill="#191970" stroke="#191970" points="608.4052,-29.3338 607.4802,-18.7795 601.6215,-27.607 608.4052,-29.3338"/>
</g>
<!-- Node16&#45;&gt;Node4 -->
<g id="edge20" class="edge">
<title>Node16&#45;&gt;Node4</title>
<path fill="none" stroke="#191970" d="M483.1089,-55.4179C473.4757,-47.2667 459.1206,-35.1201 447.5941,-25.3669"/>
<polygon fill="#191970" stroke="#191970" points="449.7036,-22.5671 439.8089,-18.7795 445.182,-27.9108 449.7036,-22.5671"/>
</g>
<!-- Node17 -->
<g id="node18" class="node">
<title>Node17</title>
<g id="a_node18"><a xlink:href="icp_core_8h.html" target="_top" xlink:title="ARX/AR/icpCore.h">
<polygon fill="#ffffff" stroke="#000000" points="469.4385,-.5 469.4385,-18.5 568.2461,-18.5 568.2461,-.5 469.4385,-.5"/>
<text text-anchor="middle" x="518.8423" y="-6.5" font-family="Helvetica,sans-Serif" font-size="10.00" fill="#000000">ARX/AR/icpCore.h</text>
</a>
</g>
</g>
<!-- Node16&#45;&gt;Node17 -->
<g id="edge21" class="edge">
<title>Node16&#45;&gt;Node17</title>
<path fill="none" stroke="#191970" d="M497.9705,-55.4179C501.3519,-47.9789 506.2458,-37.2123 510.4449,-27.9742"/>
<polygon fill="#191970" stroke="#191970" points="513.6725,-29.3315 514.6244,-18.7795 507.3,-26.4348 513.6725,-29.3315"/>
</g>
<!-- Node18&#45;&gt;Node3 -->
<g id="edge23" class="edge">
<title>Node18&#45;&gt;Node3</title>
<path fill="none" stroke="#191970" d="M802.7363,-73.5259C801.7643,-73.686 800.7987,-73.8442 799.8423,-74 708.3437,-88.9095 600.7502,-105.0462 540.4935,-113.5208"/>
<polygon fill="#191970" stroke="#191970" points="539.9432,-110.0636 530.5233,-114.913 540.9113,-116.9964 539.9432,-110.0636"/>
</g>
<!-- Node19&#45;&gt;Node3 -->
<g id="edge26" class="edge">
<title>Node19&#45;&gt;Node3</title>
<path fill="none" stroke="#191970" d="M688.6751,-73.5436C649.8246,-83.4562 584.4474,-99.3108 540.1867,-109.5639"/>
<polygon fill="#191970" stroke="#191970" points="539.2099,-106.1972 530.2506,-111.8525 540.7811,-113.0186 539.2099,-106.1972"/>
</g>
<!-- Node19&#45;&gt;Node8 -->
<g id="edge25" class="edge">
<title>Node19&#45;&gt;Node8</title>
<path fill="none" stroke="#191970" d="M737.1901,-55.4179C752.8104,-46.7399 776.5821,-33.5334 794.6285,-23.5077"/>
<polygon fill="#191970" stroke="#191970" points="796.4283,-26.5117 803.4702,-18.5956 793.0288,-20.3925 796.4283,-26.5117"/>
</g>
<!-- Node20&#45;&gt;Node3 -->
<g id="edge28" class="edge">
<title>Node20&#45;&gt;Node3</title>
<path fill="none" stroke="#191970" d="M493.8423,-165.4179C493.8423,-158.2164 493.8423,-147.8962 493.8423,-138.8632"/>
<polygon fill="#191970" stroke="#191970" points="497.3424,-138.7794 493.8423,-128.7795 490.3424,-138.7795 497.3424,-138.7794"/>
</g>
<!-- Node21&#45;&gt;Node3 -->
<g id="edge30" class="edge">
<title>Node21&#45;&gt;Node3</title>
<path fill="none" stroke="#191970" d="M637.44,-165.4179C608.5972,-156.1949 563.7578,-141.8567 531.8643,-131.6582"/>
<polygon fill="#191970" stroke="#191970" points="532.5918,-128.2163 522.0009,-128.5042 530.4598,-134.8837 532.5918,-128.2163"/>
</g>
<!-- Node22 -->
<g id="node23" class="node">
<title>Node22</title>
<polygon fill="#ffffff" stroke="#bfbfbf" points="639.7856,-110.5 639.7856,-128.5 691.8989,-128.5 691.8989,-110.5 639.7856,-110.5"/>
<text text-anchor="middle" x="665.8423" y="-116.5" font-family="Helvetica,sans-Serif" font-size="10.00" fill="#000000">memory</text>
</g>
<!-- Node21&#45;&gt;Node22 -->
<g id="edge31" class="edge">
<title>Node21&#45;&gt;Node22</title>
<path fill="none" stroke="#191970" d="M665.8423,-165.4179C665.8423,-158.2164 665.8423,-147.8962 665.8423,-138.8632"/>
<polygon fill="#191970" stroke="#191970" points="669.3424,-138.7794 665.8423,-128.7795 662.3424,-138.7795 669.3424,-138.7794"/>
</g>
<!-- Node24&#45;&gt;Node2 -->
<g id="edge34" class="edge">
<title>Node24&#45;&gt;Node2</title>
<path fill="none" stroke="#191970" d="M488.9881,-275.4179C508.6789,-266.5409 538.8808,-252.9253 561.2896,-242.823"/>
<polygon fill="#191970" stroke="#191970" points="562.9886,-245.8963 570.6665,-238.5956 560.1116,-239.5148 562.9886,-245.8963"/>
</g>
<!-- Node25 -->
<g id="node26" class="node">
<title>Node25</title>
<g id="a_node26"><a xlink:href="ar_multi_8h.html" target="_top" xlink:title="ARX/AR/arMulti.h">
<polygon fill="#ffffff" stroke="#000000" points="312.665,-165.5 312.665,-183.5 407.0195,-183.5 407.0195,-165.5 312.665,-165.5"/>
<text text-anchor="middle" x="359.8423" y="-171.5" font-family="Helvetica,sans-Serif" font-size="10.00" fill="#000000">ARX/AR/arMulti.h</text>
</a>
</g>
</g>
<!-- Node24&#45;&gt;Node25 -->
<g id="edge35" class="edge">
<title>Node24&#45;&gt;Node25</title>
<path fill="none" stroke="#191970" d="M459.9224,-275.4982C441.5588,-256.9662 399.3023,-214.3221 375.9996,-190.8056"/>
<polygon fill="#191970" stroke="#191970" points="378.4104,-188.2659 368.8855,-183.6261 373.438,-193.193 378.4104,-188.2659"/>
</g>
<!-- Node25&#45;&gt;Node3 -->
<g id="edge36" class="edge">
<title>Node25&#45;&gt;Node3</title>
<path fill="none" stroke="#191970" d="M381.9697,-165.4179C403.8882,-156.4215 437.6645,-142.5581 462.3714,-132.4172"/>
<polygon fill="#191970" stroke="#191970" points="463.76,-135.6306 471.682,-128.5956 461.102,-129.1549 463.76,-135.6306"/>
</g>
<!-- Node27 -->
<g id="node28" class="node">
<title>Node27</title>
<g id="a_node28"><a xlink:href="_a_r_tracker_8h.html" target="_top" xlink:title="ARX/ARTracker.h">
<polygon fill="#ffffff" stroke="#000000" points="665.6553,-275.5 665.6553,-293.5 760.0293,-293.5 760.0293,-275.5 665.6553,-275.5"/>
<text text-anchor="middle" x="712.8423" y="-281.5" font-family="Helvetica,sans-Serif" font-size="10.00" fill="#000000">ARX/ARTracker.h</text>
</a>
</g>
</g>
<!-- Node26&#45;&gt;Node27 -->
<g id="edge38" class="edge">
<title>Node26&#45;&gt;Node27</title>
<path fill="none" stroke="#191970" d="M712.8423,-330.4179C712.8423,-323.2164 712.8423,-312.8962 712.8423,-303.8632"/>
<polygon fill="#191970" stroke="#191970" points="716.3424,-303.7794 712.8423,-293.7795 709.3424,-303.7795 716.3424,-303.7794"/>
</g>
<!-- Node27&#45;&gt;Node2 -->
<g id="edge40" class="edge">
<title>Node27&#45;&gt;Node2</title>
<path fill="none" stroke="#191970" d="M692.6965,-275.4179C673.0057,-266.5409 642.8038,-252.9253 620.395,-242.823"/>
<polygon fill="#191970" stroke="#191970" points="621.5729,-239.5148 611.018,-238.5956 618.696,-245.8963 621.5729,-239.5148"/>
</g>
<!-- Node27&#45;&gt;Node23 -->
<g id="edge41" class="edge">
<title>Node27&#45;&gt;Node23</title>
<path fill="none" stroke="#191970" d="M708.6045,-275.3231C703.2913,-262.4247 695.7978,-238.4477 703.8423,-220 709.154,-207.8192 719.5124,-197.4343 729.3424,-189.6748"/>
<polygon fill="#191970" stroke="#191970" points="731.7036,-192.2839 737.7046,-183.5524 727.5684,-186.6358 731.7036,-192.2839"/>
</g>
<!-- Node28 -->
<g id="node29" class="node">
<title>Node28</title>
<g id="a_node29"><a xlink:href="_platform_8h.html" target="_top" xlink:title="ARX/Platform.h">
<polygon fill="#ffffff" stroke="#000000" points="712.3867,-220.5 712.3867,-238.5 797.2979,-238.5 797.2979,-220.5 712.3867,-220.5"/>
<text text-anchor="middle" x="754.8423" y="-226.5" font-family="Helvetica,sans-Serif" font-size="10.00" fill="#000000">ARX/Platform.h</text>
</a>
</g>
</g>
<!-- Node27&#45;&gt;Node28 -->
<g id="edge39" class="edge">
<title>Node27&#45;&gt;Node28</title>
<path fill="none" stroke="#191970" d="M719.7777,-275.4179C725.7001,-267.6624 734.3845,-256.29 741.6287,-246.8035"/>
<polygon fill="#191970" stroke="#191970" points="744.4687,-248.8514 747.7562,-238.7795 738.9053,-244.6029 744.4687,-248.8514"/>
</g>
<!-- Node29 -->
<g id="node30" class="node">
<title>Node29</title>
<polygon fill="#ffffff" stroke="#bfbfbf" points="815.6157,-220.5 815.6157,-238.5 856.0688,-238.5 856.0688,-220.5 815.6157,-220.5"/>
<text text-anchor="middle" x="835.8423" y="-226.5" font-family="Helvetica,sans-Serif" font-size="10.00" fill="#000000">string</text>
</g>
<!-- Node27&#45;&gt;Node29 -->
<g id="edge42" class="edge">
<title>Node27&#45;&gt;Node29</title>
<path fill="none" stroke="#191970" d="M733.1532,-275.4179C753.0944,-266.5011 783.7282,-252.803 806.3508,-242.6873"/>
<polygon fill="#191970" stroke="#191970" points="807.801,-245.8728 815.5012,-238.5956 804.9435,-239.4826 807.801,-245.8728"/>
</g>
</g>
</svg>
