<?xml version="1.0" encoding="UTF-8" standalone="no"?>
<!DOCTYPE svg PUBLIC "-//W3C//DTD SVG 1.1//EN"
 "http://www.w3.org/Graphics/SVG/1.1/DTD/svg11.dtd">
<!-- Generated by graphviz version 2.40.1 (20161225.0304)
 -->
<!-- Title: /Users/phil/r/artoolkitx/Source/ARX/include/ARX/ARPattern.h Pages: 1 -->
<svg width="1246pt" height="487pt"
 viewBox="0.00 0.00 1246.30 487.00" xmlns="http://www.w3.org/2000/svg" xmlns:xlink="http://www.w3.org/1999/xlink">
<g id="graph0" class="graph" transform="scale(1 1) rotate(0) translate(4 483)">
<title>/Users/phil/r/artoolkitx/Source/ARX/include/ARX/ARPattern.h</title>
<polygon fill="#ffffff" stroke="transparent" points="-4,4 -4,-483 1242.2998,-483 1242.2998,4 -4,4"/>
<!-- Node19 -->
<g id="node1" class="node">
<title>Node19</title>
<polygon fill="#bfbfbf" stroke="#000000" points="205.0024,-440.5 205.0024,-478.5 336.6128,-478.5 336.6128,-440.5 205.0024,-440.5"/>
<text text-anchor="start" x="213.0024" y="-466.5" font-family="Helvetica,sans-Serif" font-size="10.00" fill="#000000">/Users/phil/r/artoolkitx</text>
<text text-anchor="start" x="213.0024" y="-456.5" font-family="Helvetica,sans-Serif" font-size="10.00" fill="#000000">/Source/ARX/include/ARX</text>
<text text-anchor="middle" x="270.8076" y="-446.5" font-family="Helvetica,sans-Serif" font-size="10.00" fill="#000000">/ARPattern.h</text>
</g>
<!-- Node20 -->
<g id="node2" class="node">
<title>Node20</title>
<g id="a_node2"><a xlink:href="_a_r_pattern_8cpp.html" target="_top" xlink:title="/Users/phil/r/artoolkitx\l/Source/ARX/ARPattern.cpp">
<polygon fill="#ffffff" stroke="#000000" points="0,-.5 0,-28.5 141.6152,-28.5 141.6152,-.5 0,-.5"/>
<text text-anchor="start" x="8" y="-16.5" font-family="Helvetica,sans-Serif" font-size="10.00" fill="#000000">/Users/phil/r/artoolkitx</text>
<text text-anchor="middle" x="70.8076" y="-6.5" font-family="Helvetica,sans-Serif" font-size="10.00" fill="#000000">/Source/ARX/ARPattern.cpp</text>
</a>
</g>
</g>
<!-- Node19&#45;&gt;Node20 -->
<g id="edge1" class="edge">
<title>Node19&#45;&gt;Node20</title>
<path fill="none" stroke="#191970" d="M204.1404,-436.5179C151.1275,-413.5099 85.8076,-372.3987 85.8076,-309.5 85.8076,-309.5 85.8076,-309.5 85.8076,-159.5 85.8076,-111.4149 77.545,-54.834 73.2846,-28.8555"/>
<polygon fill="#191970" stroke="#191970" points="202.9643,-439.8201 213.5394,-440.4672 205.676,-433.3666 202.9643,-439.8201"/>
</g>
<!-- Node21 -->
<g id="node3" class="node">
<title>Node21</title>
<g id="a_node3"><a xlink:href="_a_r_trackable_8h.html" target="_top" xlink:title="/Users/phil/r/artoolkitx\l/Source/ARX/include/ARX\l/ARTrackable.h">
<polygon fill="#ffffff" stroke="#000000" points="475.0024,-365.5 475.0024,-403.5 606.6128,-403.5 606.6128,-365.5 475.0024,-365.5"/>
<text text-anchor="start" x="483.0024" y="-391.5" font-family="Helvetica,sans-Serif" font-size="10.00" fill="#000000">/Users/phil/r/artoolkitx</text>
<text text-anchor="start" x="483.0024" y="-381.5" font-family="Helvetica,sans-Serif" font-size="10.00" fill="#000000">/Source/ARX/include/ARX</text>
<text text-anchor="middle" x="540.8076" y="-371.5" font-family="Helvetica,sans-Serif" font-size="10.00" fill="#000000">/ARTrackable.h</text>
</a>
</g>
</g>
<!-- Node19&#45;&gt;Node21 -->
<g id="edge2" class="edge">
<title>Node19&#45;&gt;Node21</title>
<path fill="none" stroke="#191970" d="M346.6549,-438.4313C387.034,-427.2149 436.2139,-413.5538 474.9727,-402.7875"/>
<polygon fill="#191970" stroke="#191970" points="345.5555,-435.1041 336.857,-441.1529 347.429,-441.8487 345.5555,-435.1041"/>
</g>
<!-- Node22 -->
<g id="node4" class="node">
<title>Node22</title>
<g id="a_node4"><a xlink:href="_a_r_trackable_8cpp.html" target="_top" xlink:title="/Users/phil/r/artoolkitx\l/Source/ARX/ARTrackable.cpp">
<polygon fill="#ffffff" stroke="#000000" points="882.4385,-.5 882.4385,-28.5 1035.1768,-28.5 1035.1768,-.5 882.4385,-.5"/>
<text text-anchor="start" x="890.4385" y="-16.5" font-family="Helvetica,sans-Serif" font-size="10.00" fill="#000000">/Users/phil/r/artoolkitx</text>
<text text-anchor="middle" x="958.8076" y="-6.5" font-family="Helvetica,sans-Serif" font-size="10.00" fill="#000000">/Source/ARX/ARTrackable.cpp</text>
</a>
</g>
</g>
<!-- Node21&#45;&gt;Node22 -->
<g id="edge3" class="edge">
<title>Node21&#45;&gt;Node22</title>
<path fill="none" stroke="#191970" d="M617.1061,-377.7053C757.7846,-363.0563 1043.8076,-322.4573 1043.8076,-234.5 1043.8076,-234.5 1043.8076,-234.5 1043.8076,-159.5 1043.8076,-104.9332 998.4529,-52.7153 974.0039,-28.5307"/>
<polygon fill="#191970" stroke="#191970" points="616.4166,-374.2574 606.8245,-378.7566 617.1287,-381.2211 616.4166,-374.2574"/>
</g>
<!-- Node23 -->
<g id="node5" class="node">
<title>Node23</title>
<g id="a_node5"><a xlink:href="_a_r_controller_8h.html" target="_top" xlink:title="/Users/phil/r/artoolkitx\l/Source/ARX/include/ARX\l/ARController.h">
<polygon fill="#ffffff" stroke="#000000" points="571.0024,-65.5 571.0024,-103.5 702.6128,-103.5 702.6128,-65.5 571.0024,-65.5"/>
<text text-anchor="start" x="579.0024" y="-91.5" font-family="Helvetica,sans-Serif" font-size="10.00" fill="#000000">/Users/phil/r/artoolkitx</text>
<text text-anchor="start" x="579.0024" y="-81.5" font-family="Helvetica,sans-Serif" font-size="10.00" fill="#000000">/Source/ARX/include/ARX</text>
<text text-anchor="middle" x="636.8076" y="-71.5" font-family="Helvetica,sans-Serif" font-size="10.00" fill="#000000">/ARController.h</text>
</a>
</g>
</g>
<!-- Node21&#45;&gt;Node23 -->
<g id="edge4" class="edge">
<title>Node21&#45;&gt;Node23</title>
<path fill="none" stroke="#191970" d="M464.6814,-376.9481C388.6112,-368.2518 277.9229,-352.1269 241.8076,-329 194.7537,-298.8685 155.2752,-259.694 188.8076,-215 234.8118,-153.683 457.631,-111.7056 570.7001,-93.9838"/>
<polygon fill="#191970" stroke="#191970" points="464.3802,-380.4362 474.7084,-378.0745 465.1617,-373.4799 464.3802,-380.4362"/>
</g>
<!-- Node29 -->
<g id="node11" class="node">
<title>Node29</title>
<g id="a_node11"><a xlink:href="_a_r_trackable2d_8h.html" target="_top" xlink:title="/Users/phil/r/artoolkitx\l/Source/ARX/include/ARX\l/ARTrackable2d.h">
<polygon fill="#ffffff" stroke="#000000" points="251.0024,-290.5 251.0024,-328.5 382.6128,-328.5 382.6128,-290.5 251.0024,-290.5"/>
<text text-anchor="start" x="259.0024" y="-316.5" font-family="Helvetica,sans-Serif" font-size="10.00" fill="#000000">/Users/phil/r/artoolkitx</text>
<text text-anchor="start" x="259.0024" y="-306.5" font-family="Helvetica,sans-Serif" font-size="10.00" fill="#000000">/Source/ARX/include/ARX</text>
<text text-anchor="middle" x="316.8076" y="-296.5" font-family="Helvetica,sans-Serif" font-size="10.00" fill="#000000">/ARTrackable2d.h</text>
</a>
</g>
</g>
<!-- Node21&#45;&gt;Node29 -->
<g id="edge12" class="edge">
<title>Node21&#45;&gt;Node29</title>
<path fill="none" stroke="#191970" d="M474.2576,-362.2176C442.2209,-351.4911 404.2093,-338.764 373.5613,-328.5023"/>
<polygon fill="#191970" stroke="#191970" points="473.3995,-365.6212 483.9934,-365.4774 475.6221,-358.9834 473.3995,-365.6212"/>
</g>
<!-- Node31 -->
<g id="node13" class="node">
<title>Node31</title>
<g id="a_node13"><a xlink:href="_a_r_trackable_multi_square_8h.html" target="_top" xlink:title="/Users/phil/r/artoolkitx\l/Source/ARX/include/ARX\l/ARTrackableMultiSquare.h">
<polygon fill="#ffffff" stroke="#000000" points="567.9409,-215.5 567.9409,-253.5 705.6743,-253.5 705.6743,-215.5 567.9409,-215.5"/>
<text text-anchor="start" x="575.9409" y="-241.5" font-family="Helvetica,sans-Serif" font-size="10.00" fill="#000000">/Users/phil/r/artoolkitx</text>
<text text-anchor="start" x="575.9409" y="-231.5" font-family="Helvetica,sans-Serif" font-size="10.00" fill="#000000">/Source/ARX/include/ARX</text>
<text text-anchor="middle" x="636.8076" y="-221.5" font-family="Helvetica,sans-Serif" font-size="10.00" fill="#000000">/ARTrackableMultiSquare.h</text>
</a>
</g>
</g>
<!-- Node21&#45;&gt;Node31 -->
<g id="edge14" class="edge">
<title>Node21&#45;&gt;Node31</title>
<path fill="none" stroke="#191970" d="M558.7429,-356.4761C577.9221,-326.5086 607.8211,-279.7914 624.5012,-253.7287"/>
<polygon fill="#191970" stroke="#191970" points="555.604,-354.8878 553.1614,-365.1972 561.4999,-358.6612 555.604,-354.8878"/>
</g>
<!-- Node34 -->
<g id="node16" class="node">
<title>Node34</title>
<g id="a_node16"><a xlink:href="_a_r_trackable_n_f_t_8h.html" target="_top" xlink:title="/Users/phil/r/artoolkitx\l/Source/ARX/include/ARX\l/ARTrackableNFT.h">
<polygon fill="#ffffff" stroke="#000000" points="418.0024,-290.5 418.0024,-328.5 549.6128,-328.5 549.6128,-290.5 418.0024,-290.5"/>
<text text-anchor="start" x="426.0024" y="-316.5" font-family="Helvetica,sans-Serif" font-size="10.00" fill="#000000">/Users/phil/r/artoolkitx</text>
<text text-anchor="start" x="426.0024" y="-306.5" font-family="Helvetica,sans-Serif" font-size="10.00" fill="#000000">/Source/ARX/include/ARX</text>
<text text-anchor="middle" x="483.8076" y="-296.5" font-family="Helvetica,sans-Serif" font-size="10.00" fill="#000000">/ARTrackableNFT.h</text>
</a>
</g>
</g>
<!-- Node21&#45;&gt;Node34 -->
<g id="edge21" class="edge">
<title>Node21&#45;&gt;Node34</title>
<path fill="none" stroke="#191970" d="M520.0608,-357.2016C512.8909,-347.7675 505.0124,-337.4011 498.4368,-328.7489"/>
<polygon fill="#191970" stroke="#191970" points="517.2913,-359.3418 526.1287,-365.1856 522.8644,-355.1062 517.2913,-359.3418"/>
</g>
<!-- Node36 -->
<g id="node18" class="node">
<title>Node36</title>
<g id="a_node18"><a xlink:href="_a_r_trackable_square_8h.html" target="_top" xlink:title="/Users/phil/r/artoolkitx\l/Source/ARX/include/ARX\l/ARTrackableSquare.h">
<polygon fill="#ffffff" stroke="#000000" points="1072.0024,-215.5 1072.0024,-253.5 1203.6128,-253.5 1203.6128,-215.5 1072.0024,-215.5"/>
<text text-anchor="start" x="1080.0024" y="-241.5" font-family="Helvetica,sans-Serif" font-size="10.00" fill="#000000">/Users/phil/r/artoolkitx</text>
<text text-anchor="start" x="1080.0024" y="-231.5" font-family="Helvetica,sans-Serif" font-size="10.00" fill="#000000">/Source/ARX/include/ARX</text>
<text text-anchor="middle" x="1137.8076" y="-221.5" font-family="Helvetica,sans-Serif" font-size="10.00" fill="#000000">/ARTrackableSquare.h</text>
</a>
</g>
</g>
<!-- Node21&#45;&gt;Node36 -->
<g id="edge23" class="edge">
<title>Node21&#45;&gt;Node36</title>
<path fill="none" stroke="#191970" d="M616.9992,-383.196C741.7655,-379.9308 983.2428,-368.5444 1057.8076,-329 1090.0913,-311.8788 1114.7765,-275.8242 1127.7186,-253.5322"/>
<polygon fill="#191970" stroke="#191970" points="616.6689,-379.7031 606.7598,-383.4526 616.8443,-386.7009 616.6689,-379.7031"/>
</g>
<!-- Node37 -->
<g id="node19" class="node">
<title>Node37</title>
<g id="a_node19"><a xlink:href="_a_r_tracker_8h.html" target="_top" xlink:title="/Users/phil/r/artoolkitx\l/Source/ARX/include/ARX\l/ARTracker.h">
<polygon fill="#ffffff" stroke="#000000" points="729.0024,-290.5 729.0024,-328.5 860.6128,-328.5 860.6128,-290.5 729.0024,-290.5"/>
<text text-anchor="start" x="737.0024" y="-316.5" font-family="Helvetica,sans-Serif" font-size="10.00" fill="#000000">/Users/phil/r/artoolkitx</text>
<text text-anchor="start" x="737.0024" y="-306.5" font-family="Helvetica,sans-Serif" font-size="10.00" fill="#000000">/Source/ARX/include/ARX</text>
<text text-anchor="middle" x="794.8076" y="-296.5" font-family="Helvetica,sans-Serif" font-size="10.00" fill="#000000">/ARTracker.h</text>
</a>
</g>
</g>
<!-- Node21&#45;&gt;Node37 -->
<g id="edge28" class="edge">
<title>Node21&#45;&gt;Node37</title>
<path fill="none" stroke="#191970" d="M614.8648,-362.6327C651.4818,-351.8206 695.2509,-338.8967 730.453,-328.5023"/>
<polygon fill="#191970" stroke="#191970" points="613.8304,-359.2887 605.2309,-365.4774 615.8127,-366.0022 613.8304,-359.2887"/>
</g>
<!-- Node23&#45;&gt;Node20 -->
<g id="edge6" class="edge">
<title>Node23&#45;&gt;Node20</title>
<path fill="none" stroke="#191970" d="M560.8159,-77.3796C464.9934,-68.0435 295.2971,-50.3211 150.8076,-29 147.8752,-28.5673 144.8855,-28.108 141.8678,-27.6294"/>
<polygon fill="#191970" stroke="#191970" points="560.7002,-80.8848 570.9914,-78.3666 561.376,-73.9174 560.7002,-80.8848"/>
</g>
<!-- Node23&#45;&gt;Node22 -->
<g id="edge7" class="edge">
<title>Node23&#45;&gt;Node22</title>
<path fill="none" stroke="#191970" d="M712.7668,-66.5818C715.1402,-66.0451 717.4916,-65.5167 719.8076,-65 777.2386,-52.1878 842.6229,-38.4292 890.4685,-28.5137"/>
<polygon fill="#191970" stroke="#191970" points="711.8934,-63.1911 702.9212,-68.8258 713.4489,-70.016 711.8934,-63.1911"/>
</g>
<!-- Node24 -->
<g id="node6" class="node">
<title>Node24</title>
<g id="a_node6"><a xlink:href="_a_r_controller_8cpp.html" target="_top" xlink:title="/Users/phil/r/artoolkitx\l/Source/ARX/ARController.cpp">
<polygon fill="#ffffff" stroke="#000000" points="383.7192,-.5 383.7192,-28.5 535.896,-28.5 535.896,-.5 383.7192,-.5"/>
<text text-anchor="start" x="391.7192" y="-16.5" font-family="Helvetica,sans-Serif" font-size="10.00" fill="#000000">/Users/phil/r/artoolkitx</text>
<text text-anchor="middle" x="459.8076" y="-6.5" font-family="Helvetica,sans-Serif" font-size="10.00" fill="#000000">/Source/ARX/ARController.cpp</text>
</a>
</g>
</g>
<!-- Node23&#45;&gt;Node24 -->
<g id="edge5" class="edge">
<title>Node23&#45;&gt;Node24</title>
<path fill="none" stroke="#191970" d="M578.9177,-61.6057C551.4027,-50.724 519.3856,-38.0619 495.4798,-28.6076"/>
<polygon fill="#191970" stroke="#191970" points="577.8552,-64.9492 588.4416,-65.3722 580.4296,-58.4398 577.8552,-64.9492"/>
</g>
<!-- Node25 -->
<g id="node7" class="node">
<title>Node25</title>
<g id="a_node7"><a xlink:href="_a_r_trackable_multi_square_8cpp.html" target="_top" xlink:title="/Users/phil/r/artoolkitx\l/Source/ARX/ARTrackableMultiSquare.cpp">
<polygon fill="#ffffff" stroke="#000000" points="159.7588,-.5 159.7588,-28.5 365.8564,-28.5 365.8564,-.5 159.7588,-.5"/>
<text text-anchor="start" x="167.7588" y="-16.5" font-family="Helvetica,sans-Serif" font-size="10.00" fill="#000000">/Users/phil/r/artoolkitx</text>
<text text-anchor="middle" x="262.8076" y="-6.5" font-family="Helvetica,sans-Serif" font-size="10.00" fill="#000000">/Source/ARX/ARTrackableMultiSquare.cpp</text>
</a>
</g>
</g>
<!-- Node23&#45;&gt;Node25 -->
<g id="edge8" class="edge">
<title>Node23&#45;&gt;Node25</title>
<path fill="none" stroke="#191970" d="M560.6118,-70.2387C495.5499,-58.0614 402.4979,-40.6452 337.7878,-28.5337"/>
<polygon fill="#191970" stroke="#191970" points="560.3316,-73.747 570.8048,-72.1465 561.6194,-66.8665 560.3316,-73.747"/>
</g>
<!-- Node26 -->
<g id="node8" class="node">
<title>Node26</title>
<g id="a_node8"><a xlink:href="_a_r_trackable_square_8cpp.html" target="_top" xlink:title="/Users/phil/r/artoolkitx\l/Source/ARX/ARTrackableSquare.cpp">
<polygon fill="#ffffff" stroke="#000000" points="1053.3154,-.5 1053.3154,-28.5 1238.2998,-28.5 1238.2998,-.5 1053.3154,-.5"/>
<text text-anchor="start" x="1061.3154" y="-16.5" font-family="Helvetica,sans-Serif" font-size="10.00" fill="#000000">/Users/phil/r/artoolkitx</text>
<text text-anchor="middle" x="1145.8076" y="-6.5" font-family="Helvetica,sans-Serif" font-size="10.00" fill="#000000">/Source/ARX/ARTrackableSquare.cpp</text>
</a>
</g>
</g>
<!-- Node23&#45;&gt;Node26 -->
<g id="edge9" class="edge">
<title>Node23&#45;&gt;Node26</title>
<path fill="none" stroke="#191970" d="M712.6872,-74.2839C794.446,-63.2456 928.3713,-45.0756 1043.8076,-29 1046.9078,-28.5683 1050.0608,-28.1278 1053.2449,-27.6818"/>
<polygon fill="#191970" stroke="#191970" points="712.1763,-70.821 702.7344,-75.6272 713.1127,-77.7581 712.1763,-70.821"/>
</g>
<!-- Node27 -->
<g id="node9" class="node">
<title>Node27</title>
<g id="a_node9"><a xlink:href="_a_r_video_source_8cpp.html" target="_top" xlink:title="/Users/phil/r/artoolkitx\l/Source/ARX/ARVideoSource.cpp">
<polygon fill="#ffffff" stroke="#000000" points="553.666,-.5 553.666,-28.5 719.9492,-28.5 719.9492,-.5 553.666,-.5"/>
<text text-anchor="start" x="561.666" y="-16.5" font-family="Helvetica,sans-Serif" font-size="10.00" fill="#000000">/Users/phil/r/artoolkitx</text>
<text text-anchor="middle" x="636.8076" y="-6.5" font-family="Helvetica,sans-Serif" font-size="10.00" fill="#000000">/Source/ARX/ARVideoSource.cpp</text>
</a>
</g>
</g>
<!-- Node23&#45;&gt;Node27 -->
<g id="edge10" class="edge">
<title>Node23&#45;&gt;Node27</title>
<path fill="none" stroke="#191970" d="M636.8076,-55.1346C636.8076,-46.0837 636.8076,-36.5165 636.8076,-28.9404"/>
<polygon fill="#191970" stroke="#191970" points="633.3077,-55.3722 636.8076,-65.3722 640.3077,-55.3722 633.3077,-55.3722"/>
</g>
<!-- Node28 -->
<g id="node10" class="node">
<title>Node28</title>
<g id="a_node10"><a xlink:href="_a_r_x__c_8cpp.html" target="_top" xlink:title="/Users/phil/r/artoolkitx\l/Source/ARX/ARX_c.cpp">
<polygon fill="#ffffff" stroke="#000000" points="737.5049,-.5 737.5049,-28.5 864.1104,-28.5 864.1104,-.5 737.5049,-.5"/>
<text text-anchor="start" x="745.5049" y="-16.5" font-family="Helvetica,sans-Serif" font-size="10.00" fill="#000000">/Users/phil/r/artoolkitx</text>
<text text-anchor="middle" x="800.8076" y="-6.5" font-family="Helvetica,sans-Serif" font-size="10.00" fill="#000000">/Source/ARX/ARX_c.cpp</text>
</a>
</g>
</g>
<!-- Node23&#45;&gt;Node28 -->
<g id="edge11" class="edge">
<title>Node23&#45;&gt;Node28</title>
<path fill="none" stroke="#191970" d="M691.1147,-61.3202C716.4575,-50.5031 745.7989,-37.9793 767.7554,-28.6076"/>
<polygon fill="#191970" stroke="#191970" points="689.4446,-58.2274 681.6213,-65.3722 692.1926,-64.6655 689.4446,-58.2274"/>
</g>
<!-- Node30 -->
<g id="node12" class="node">
<title>Node30</title>
<g id="a_node12"><a xlink:href="_a_r_trackable2d_8cpp.html" target="_top" xlink:title="/Users/phil/r/artoolkitx\l/Source/ARX/ARTrackable2d.cpp">
<polygon fill="#ffffff" stroke="#000000" points="197.877,-220.5 197.877,-248.5 361.7383,-248.5 361.7383,-220.5 197.877,-220.5"/>
<text text-anchor="start" x="205.877" y="-236.5" font-family="Helvetica,sans-Serif" font-size="10.00" fill="#000000">/Users/phil/r/artoolkitx</text>
<text text-anchor="middle" x="279.8076" y="-226.5" font-family="Helvetica,sans-Serif" font-size="10.00" fill="#000000">/Source/ARX/ARTrackable2d.cpp</text>
</a>
</g>
</g>
<!-- Node29&#45;&gt;Node30 -->
<g id="edge13" class="edge">
<title>Node29&#45;&gt;Node30</title>
<path fill="none" stroke="#191970" d="M302.8369,-281.1809C297.3335,-270.0255 291.2604,-257.7152 286.7331,-248.5382"/>
<polygon fill="#191970" stroke="#191970" points="299.7161,-282.7661 307.2792,-290.1856 305.9937,-279.6691 299.7161,-282.7661"/>
</g>
<!-- Node31&#45;&gt;Node22 -->
<g id="edge15" class="edge">
<title>Node31&#45;&gt;Node22</title>
<path fill="none" stroke="#191970" d="M655.7931,-207.0783C683.0458,-169.7023 736.75,-103.0702 797.8076,-65 825.0271,-48.0283 858.4172,-36.3361 887.7192,-28.5119"/>
<polygon fill="#191970" stroke="#191970" points="652.7532,-205.3108 649.7585,-215.4736 658.4372,-209.3965 652.7532,-205.3108"/>
</g>
<!-- Node31&#45;&gt;Node25 -->
<g id="edge16" class="edge">
<title>Node31&#45;&gt;Node25</title>
<path fill="none" stroke="#191970" d="M595.6393,-210.2833C517.4247,-164.2748 349.5769,-65.5408 286.9902,-28.725"/>
<polygon fill="#191970" stroke="#191970" points="593.8779,-213.3078 604.2718,-215.3613 597.4271,-207.2743 593.8779,-213.3078"/>
</g>
<!-- Node32 -->
<g id="node14" class="node">
<title>Node32</title>
<g id="a_node14"><a xlink:href="_a_r_tracker_square_8cpp.html" target="_top" xlink:title="/Users/phil/r/artoolkitx\l/Source/ARX/ARTrackerSquare.cpp">
<polygon fill="#ffffff" stroke="#000000" points="806.3228,-70.5 806.3228,-98.5 981.2925,-98.5 981.2925,-70.5 806.3228,-70.5"/>
<text text-anchor="start" x="814.3228" y="-86.5" font-family="Helvetica,sans-Serif" font-size="10.00" fill="#000000">/Users/phil/r/artoolkitx</text>
<text text-anchor="middle" x="893.8076" y="-76.5" font-family="Helvetica,sans-Serif" font-size="10.00" fill="#000000">/Source/ARX/ARTrackerSquare.cpp</text>
</a>
</g>
</g>
<!-- Node31&#45;&gt;Node32 -->
<g id="edge17" class="edge">
<title>Node31&#45;&gt;Node32</title>
<path fill="none" stroke="#191970" d="M686.9275,-210.905C706.2093,-201.4485 728.2741,-190.1594 747.8076,-179 793.9491,-152.6395 845.6539,-117.8587 873.4633,-98.6949"/>
<polygon fill="#191970" stroke="#191970" points="685.1689,-207.8683 677.7088,-215.3914 688.2321,-214.1625 685.1689,-207.8683"/>
</g>
<!-- Node33 -->
<g id="node15" class="node">
<title>Node33</title>
<g id="a_node15"><a xlink:href="_a_r_tracker_square_8h.html" target="_top" xlink:title="/Users/phil/r/artoolkitx\l/Source/ARX/include/ARX\l/ARTrackerSquare.h">
<polygon fill="#ffffff" stroke="#000000" points="828.0024,-140.5 828.0024,-178.5 959.6128,-178.5 959.6128,-140.5 828.0024,-140.5"/>
<text text-anchor="start" x="836.0024" y="-166.5" font-family="Helvetica,sans-Serif" font-size="10.00" fill="#000000">/Users/phil/r/artoolkitx</text>
<text text-anchor="start" x="836.0024" y="-156.5" font-family="Helvetica,sans-Serif" font-size="10.00" fill="#000000">/Source/ARX/include/ARX</text>
<text text-anchor="middle" x="893.8076" y="-146.5" font-family="Helvetica,sans-Serif" font-size="10.00" fill="#000000">/ARTrackerSquare.h</text>
</a>
</g>
</g>
<!-- Node31&#45;&gt;Node33 -->
<g id="edge18" class="edge">
<title>Node31&#45;&gt;Node33</title>
<path fill="none" stroke="#191970" d="M711.7395,-212.6327C748.789,-201.8206 793.0751,-188.8967 828.6929,-178.5023"/>
<polygon fill="#191970" stroke="#191970" points="710.6109,-209.316 701.9918,-215.4774 712.5719,-216.0357 710.6109,-209.316"/>
</g>
<!-- Node33&#45;&gt;Node23 -->
<g id="edge20" class="edge">
<title>Node33&#45;&gt;Node23</title>
<path fill="none" stroke="#191970" d="M818.8757,-137.6327C781.8263,-126.8206 737.5402,-113.8967 701.9223,-103.5023"/>
<polygon fill="#191970" stroke="#191970" points="818.0433,-141.0357 828.6234,-140.4774 820.0044,-134.316 818.0433,-141.0357"/>
</g>
<!-- Node33&#45;&gt;Node32 -->
<g id="edge19" class="edge">
<title>Node33&#45;&gt;Node32</title>
<path fill="none" stroke="#191970" d="M893.8076,-130.1739C893.8076,-119.2897 893.8076,-107.4399 893.8076,-98.5382"/>
<polygon fill="#191970" stroke="#191970" points="890.3077,-130.1856 893.8076,-140.1856 897.3077,-130.1857 890.3077,-130.1856"/>
</g>
<!-- Node35 -->
<g id="node17" class="node">
<title>Node35</title>
<g id="a_node17"><a xlink:href="_a_r_trackable_n_f_t_8cpp.html" target="_top" xlink:title="/Users/phil/r/artoolkitx\l/Source/ARX/ARTrackableNFT.cpp">
<polygon fill="#ffffff" stroke="#000000" points="379.2734,-220.5 379.2734,-248.5 550.3418,-248.5 550.3418,-220.5 379.2734,-220.5"/>
<text text-anchor="start" x="387.2734" y="-236.5" font-family="Helvetica,sans-Serif" font-size="10.00" fill="#000000">/Users/phil/r/artoolkitx</text>
<text text-anchor="middle" x="464.8076" y="-226.5" font-family="Helvetica,sans-Serif" font-size="10.00" fill="#000000">/Source/ARX/ARTrackableNFT.cpp</text>
</a>
</g>
</g>
<!-- Node34&#45;&gt;Node35 -->
<g id="edge22" class="edge">
<title>Node34&#45;&gt;Node35</title>
<path fill="none" stroke="#191970" d="M476.3783,-280.1739C473.621,-269.2897 470.619,-257.4399 468.364,-248.5382"/>
<polygon fill="#191970" stroke="#191970" points="473.066,-281.3514 478.9146,-290.1856 479.8516,-279.6323 473.066,-281.3514"/>
</g>
<!-- Node36&#45;&gt;Node22 -->
<g id="edge24" class="edge">
<title>Node36&#45;&gt;Node22</title>
<path fill="none" stroke="#191970" d="M1130.3781,-205.3006C1119.7358,-168.5611 1096.9817,-105.3963 1057.8076,-65 1042.092,-48.7941 1020.0626,-36.8531 1000.7732,-28.6637"/>
<polygon fill="#191970" stroke="#191970" points="1127.1251,-206.6663 1133.1797,-215.3608 1133.8685,-204.7883 1127.1251,-206.6663"/>
</g>
<!-- Node36&#45;&gt;Node26 -->
<g id="edge25" class="edge">
<title>Node36&#45;&gt;Node26</title>
<path fill="none" stroke="#191970" d="M1138.868,-205.3405C1140.6062,-157.5392 1143.9978,-64.2713 1145.2903,-28.725"/>
<polygon fill="#191970" stroke="#191970" points="1135.3694,-205.2407 1138.5036,-215.3613 1142.3648,-205.4951 1135.3694,-205.2407"/>
</g>
<!-- Node36&#45;&gt;Node32 -->
<g id="edge26" class="edge">
<title>Node36&#45;&gt;Node32</title>
<path fill="none" stroke="#191970" d="M1097.8381,-209.9286C1046.2555,-178.2179 958.2221,-124.0991 916.7291,-98.5911"/>
<polygon fill="#191970" stroke="#191970" points="1096.0564,-212.9417 1106.4084,-215.1972 1099.7224,-206.9784 1096.0564,-212.9417"/>
</g>
<!-- Node36&#45;&gt;Node33 -->
<g id="edge27" class="edge">
<title>Node36&#45;&gt;Node33</title>
<path fill="none" stroke="#191970" d="M1066.2166,-212.4946C1031.133,-201.7107 989.3009,-188.8524 955.6286,-178.5023"/>
<polygon fill="#191970" stroke="#191970" points="1065.3337,-215.8847 1075.9207,-215.4774 1067.3904,-209.1937 1065.3337,-215.8847"/>
</g>
<!-- Node38 -->
<g id="node20" class="node">
<title>Node38</title>
<g id="a_node20"><a xlink:href="_a_r_tracker_8cpp.html" target="_top" xlink:title="/Users/phil/r/artoolkitx\l/Source/ARX/ARTracker.cpp">
<polygon fill="#ffffff" stroke="#000000" points="723.7192,-220.5 723.7192,-248.5 865.896,-248.5 865.896,-220.5 723.7192,-220.5"/>
<text text-anchor="start" x="731.7192" y="-236.5" font-family="Helvetica,sans-Serif" font-size="10.00" fill="#000000">/Users/phil/r/artoolkitx</text>
<text text-anchor="middle" x="794.8076" y="-226.5" font-family="Helvetica,sans-Serif" font-size="10.00" fill="#000000">/Source/ARX/ARTracker.cpp</text>
</a>
</g>
</g>
<!-- Node37&#45;&gt;Node38 -->
<g id="edge29" class="edge">
<title>Node37&#45;&gt;Node38</title>
<path fill="none" stroke="#191970" d="M794.8076,-280.1739C794.8076,-269.2897 794.8076,-257.4399 794.8076,-248.5382"/>
<polygon fill="#191970" stroke="#191970" points="791.3077,-280.1856 794.8076,-290.1856 798.3077,-280.1857 791.3077,-280.1856"/>
</g>
<!-- Node39 -->
<g id="node21" class="node">
<title>Node39</title>
<g id="a_node21"><a xlink:href="_a_r_tracker_video_8h.html" target="_top" xlink:title="/Users/phil/r/artoolkitx\l/Source/ARX/include/ARX\l/ARTrackerVideo.h">
<polygon fill="#ffffff" stroke="#000000" points="884.0024,-215.5 884.0024,-253.5 1015.6128,-253.5 1015.6128,-215.5 884.0024,-215.5"/>
<text text-anchor="start" x="892.0024" y="-241.5" font-family="Helvetica,sans-Serif" font-size="10.00" fill="#000000">/Users/phil/r/artoolkitx</text>
<text text-anchor="start" x="892.0024" y="-231.5" font-family="Helvetica,sans-Serif" font-size="10.00" fill="#000000">/Source/ARX/include/ARX</text>
<text text-anchor="middle" x="949.8076" y="-221.5" font-family="Helvetica,sans-Serif" font-size="10.00" fill="#000000">/ARTrackerVideo.h</text>
</a>
</g>
</g>
<!-- Node37&#45;&gt;Node39 -->
<g id="edge30" class="edge">
<title>Node37&#45;&gt;Node39</title>
<path fill="none" stroke="#191970" d="M843.3287,-286.0221C864.9004,-275.5841 889.9716,-263.4529 910.3657,-253.5848"/>
<polygon fill="#191970" stroke="#191970" points="841.7988,-282.874 834.3217,-290.3803 844.8478,-289.1752 841.7988,-282.874"/>
</g>
<!-- Node39&#45;&gt;Node33 -->
<g id="edge31" class="edge">
<title>Node39&#45;&gt;Node33</title>
<path fill="none" stroke="#191970" d="M929.2111,-206.9154C922.2244,-197.5582 914.5752,-187.3137 908.1801,-178.7489"/>
<polygon fill="#191970" stroke="#191970" points="926.5988,-209.2668 935.3862,-215.1856 932.2078,-205.0788 926.5988,-209.2668"/>
</g>
</g>
</svg>
