<?xml version="1.0" encoding="UTF-8" standalone="no"?>
<!DOCTYPE svg PUBLIC "-//W3C//DTD SVG 1.1//EN"
 "http://www.w3.org/Graphics/SVG/1.1/DTD/svg11.dtd">
<!-- Generated by graphviz version 7.0.5 (20221223.1930)
 -->
<!-- Title: arwDrawVideoSettings Pages: 1 -->
<svg width="665pt" height="273pt"
 viewBox="0.00 0.00 665.00 272.50" xmlns="http://www.w3.org/2000/svg" xmlns:xlink="http://www.w3.org/1999/xlink">
<g id="graph0" class="graph" transform="scale(1 1) rotate(0) translate(4 268.5)">
<title>arwDrawVideoSettings</title>
<!-- Node1 -->
<g id="node1" class="node">
<title>Node1</title>
<g id="a_node1"><a xlink:title="Specify the layout of the graphics context in which drawing of video frames will occur.">
<polygon fill="#999999" stroke="#666666" points="116,-147.5 0,-147.5 0,-128.5 116,-128.5 116,-147.5"/>
<text text-anchor="middle" x="58" y="-135.5" font-family="Helvetica,sans-Serif" font-size="10.00">arwDrawVideoSettings</text>
</a>
</g>
</g>
<!-- Node2 -->
<g id="node2" class="node">
<title>Node2</title>
<g id="a_node2"><a xlink:href="class_a_r_controller.html#a4a0ab4d03572ba210c79a6f1043dfcbc" target="_top" xlink:title=" ">
<polygon fill="white" stroke="#666666" points="313,-147.5 152,-147.5 152,-128.5 313,-128.5 313,-147.5"/>
<text text-anchor="middle" x="232.5" y="-135.5" font-family="Helvetica,sans-Serif" font-size="10.00">ARController::drawVideoSettings</text>
</a>
</g>
</g>
<!-- Node1&#45;&gt;Node2 -->
<g id="edge1" class="edge">
<title>Node1&#45;&gt;Node2</title>
<path fill="none" stroke="#63b8ff" d="M116.44,-138C124.1,-138 132.1,-138 140.17,-138"/>
<polygon fill="#63b8ff" stroke="#63b8ff" points="140.06,-141.5 150.06,-138 140.06,-134.5 140.06,-141.5"/>
</g>
<!-- Node3 -->
<g id="node3" class="node">
<title>Node3</title>
<g id="a_node3"><a xlink:href="class_a_r_video_view.html#adca8d189a9a553d88632db91b9469bfa" target="_top" xlink:title=" ">
<polygon fill="white" stroke="#666666" points="493,-264.5 358,-264.5 358,-245.5 493,-245.5 493,-264.5"/>
<text text-anchor="middle" x="425.5" y="-252.5" font-family="Helvetica,sans-Serif" font-size="10.00">ARVideoView::getViewport</text>
</a>
</g>
</g>
<!-- Node2&#45;&gt;Node3 -->
<g id="edge2" class="edge">
<title>Node2&#45;&gt;Node3</title>
<path fill="none" stroke="#63b8ff" d="M241.96,-147.89C259.68,-167.95 302.88,-213.5 349,-237 352.08,-238.57 355.31,-240.01 358.61,-241.32"/>
<polygon fill="#63b8ff" stroke="#63b8ff" points="357.35,-244.59 367.94,-244.61 359.68,-237.99 357.35,-244.59"/>
</g>
<!-- Node4 -->
<g id="node4" class="node">
<title>Node4</title>
<g id="a_node4"><a xlink:href="class_a_r_video_view.html#a128378e1e100251aa48159f50484dc79" target="_top" xlink:title=" ">
<polygon fill="white" stroke="#666666" points="485.5,-227.5 365.5,-227.5 365.5,-208.5 485.5,-208.5 485.5,-227.5"/>
<text text-anchor="middle" x="425.5" y="-215.5" font-family="Helvetica,sans-Serif" font-size="10.00">ARVideoView::setFlipH</text>
</a>
</g>
</g>
<!-- Node2&#45;&gt;Node4 -->
<g id="edge3" class="edge">
<title>Node2&#45;&gt;Node4</title>
<path fill="none" stroke="#63b8ff" d="M248.95,-147.98C270.55,-161.53 311.35,-185.68 349,-200 353.73,-201.8 358.7,-203.46 363.74,-204.98"/>
<polygon fill="#63b8ff" stroke="#63b8ff" points="362.77,-208.34 373.35,-207.68 364.67,-201.6 362.77,-208.34"/>
</g>
<!-- Node6 -->
<g id="node6" class="node">
<title>Node6</title>
<g id="a_node6"><a xlink:href="class_a_r_video_view.html#a4af1fe48c71a10461d23d71ced32ee12" target="_top" xlink:title=" ">
<polygon fill="white" stroke="#666666" points="485,-190.5 366,-190.5 366,-171.5 485,-171.5 485,-190.5"/>
<text text-anchor="middle" x="425.5" y="-178.5" font-family="Helvetica,sans-Serif" font-size="10.00">ARVideoView::setFlipV</text>
</a>
</g>
</g>
<!-- Node2&#45;&gt;Node6 -->
<g id="edge5" class="edge">
<title>Node2&#45;&gt;Node6</title>
<path fill="none" stroke="#63b8ff" d="M277.8,-147.97C304.94,-154.08 339.92,-161.96 368.91,-168.49"/>
<polygon fill="#63b8ff" stroke="#63b8ff" points="368.11,-171.89 378.63,-170.67 369.65,-165.06 368.11,-171.89"/>
</g>
<!-- Node8 -->
<g id="node8" class="node">
<title>Node8</title>
<g id="a_node8"><a xlink:href="class_a_r_video_view.html#a4ff9d2658138c241024c96e47e91ef99" target="_top" xlink:title=" ">
<polygon fill="white" stroke="#666666" points="496,-153 355,-153 355,-123 496,-123 496,-153"/>
<text text-anchor="start" x="363" y="-141" font-family="Helvetica,sans-Serif" font-size="10.00">ARVideoView::setHorizontal</text>
<text text-anchor="middle" x="425.5" y="-130" font-family="Helvetica,sans-Serif" font-size="10.00">Alignment</text>
</a>
</g>
</g>
<!-- Node2&#45;&gt;Node8 -->
<g id="edge7" class="edge">
<title>Node2&#45;&gt;Node8</title>
<path fill="none" stroke="#63b8ff" d="M313.39,-138C323.24,-138 333.31,-138 343.18,-138"/>
<polygon fill="#63b8ff" stroke="#63b8ff" points="343.13,-141.5 353.13,-138 343.13,-134.5 343.13,-141.5"/>
</g>
<!-- Node9 -->
<g id="node9" class="node">
<title>Node9</title>
<g id="a_node9"><a xlink:href="class_a_r_video_view.html#a25ffd610597c483020fd7e88e653fb78" target="_top" xlink:title=" ">
<polygon fill="white" stroke="#666666" points="494,-104.5 357,-104.5 357,-85.5 494,-85.5 494,-104.5"/>
<text text-anchor="middle" x="425.5" y="-92.5" font-family="Helvetica,sans-Serif" font-size="10.00">ARVideoView::setRotate90</text>
</a>
</g>
</g>
<!-- Node2&#45;&gt;Node9 -->
<g id="edge8" class="edge">
<title>Node2&#45;&gt;Node9</title>
<path fill="none" stroke="#63b8ff" d="M277.8,-128.03C304.94,-121.92 339.92,-114.04 368.91,-107.51"/>
<polygon fill="#63b8ff" stroke="#63b8ff" points="369.65,-110.94 378.63,-105.33 368.11,-104.11 369.65,-110.94"/>
</g>
<!-- Node11 -->
<g id="node11" class="node">
<title>Node11</title>
<g id="a_node11"><a xlink:href="class_a_r_video_view.html#ab405e4937e0a64be4845fa7ba3e68e05" target="_top" xlink:title=" ">
<polygon fill="white" stroke="#666666" points="502,-67.5 349,-67.5 349,-48.5 502,-48.5 502,-67.5"/>
<text text-anchor="middle" x="425.5" y="-55.5" font-family="Helvetica,sans-Serif" font-size="10.00">ARVideoView::setScalingMode</text>
</a>
</g>
</g>
<!-- Node2&#45;&gt;Node11 -->
<g id="edge10" class="edge">
<title>Node2&#45;&gt;Node11</title>
<path fill="none" stroke="#63b8ff" d="M248.95,-128.02C270.55,-114.47 311.35,-90.32 349,-76 353.73,-74.2 358.7,-72.54 363.74,-71.02"/>
<polygon fill="#63b8ff" stroke="#63b8ff" points="364.67,-74.4 373.35,-68.32 362.77,-67.66 364.67,-74.4"/>
</g>
<!-- Node12 -->
<g id="node12" class="node">
<title>Node12</title>
<g id="a_node12"><a xlink:href="class_a_r_video_view.html#a7f3b8d64e4ae7fe284a6b8894deb859e" target="_top" xlink:title=" ">
<polygon fill="white" stroke="#666666" points="490.5,-30 360.5,-30 360.5,0 490.5,0 490.5,-30"/>
<text text-anchor="start" x="368.5" y="-18" font-family="Helvetica,sans-Serif" font-size="10.00">ARVideoView::setVertical</text>
<text text-anchor="middle" x="425.5" y="-7" font-family="Helvetica,sans-Serif" font-size="10.00">Alignment</text>
</a>
</g>
</g>
<!-- Node2&#45;&gt;Node12 -->
<g id="edge11" class="edge">
<title>Node2&#45;&gt;Node12</title>
<path fill="none" stroke="#63b8ff" d="M242.38,-128.08C260.54,-108.38 304.01,-64.06 349,-39 351.61,-37.54 354.33,-36.16 357.11,-34.85"/>
<polygon fill="#63b8ff" stroke="#63b8ff" points="358.2,-38.19 366,-31.02 355.43,-31.76 358.2,-38.19"/>
</g>
<!-- Node5 -->
<g id="node5" class="node">
<title>Node5</title>
<g id="a_node5"><a xlink:href="class_a_r_video_view.html#a34d5b337ce0eec2744d73169b2e26211" target="_top" xlink:title="‍Defaults to false.">
<polygon fill="white" stroke="#666666" points="649.5,-227.5 545.5,-227.5 545.5,-208.5 649.5,-208.5 649.5,-227.5"/>
<text text-anchor="middle" x="597.5" y="-215.5" font-family="Helvetica,sans-Serif" font-size="10.00">ARVideoView::flipH</text>
</a>
</g>
</g>
<!-- Node4&#45;&gt;Node5 -->
<g id="edge4" class="edge">
<title>Node4&#45;&gt;Node5</title>
<path fill="none" stroke="#63b8ff" d="M485.96,-218C501.52,-218 518.34,-218 534.06,-218"/>
<polygon fill="#63b8ff" stroke="#63b8ff" points="533.76,-221.5 543.76,-218 533.76,-214.5 533.76,-221.5"/>
</g>
<!-- Node7 -->
<g id="node7" class="node">
<title>Node7</title>
<g id="a_node7"><a xlink:href="class_a_r_video_view.html#a92fd6ecb873b76246736c8dbc42c18d1" target="_top" xlink:title="‍Defaults to false.">
<polygon fill="white" stroke="#666666" points="649,-190.5 546,-190.5 546,-171.5 649,-171.5 649,-190.5"/>
<text text-anchor="middle" x="597.5" y="-178.5" font-family="Helvetica,sans-Serif" font-size="10.00">ARVideoView::flipV</text>
</a>
</g>
</g>
<!-- Node6&#45;&gt;Node7 -->
<g id="edge6" class="edge">
<title>Node6&#45;&gt;Node7</title>
<path fill="none" stroke="#63b8ff" d="M485.48,-181C501.22,-181 518.28,-181 534.2,-181"/>
<polygon fill="#63b8ff" stroke="#63b8ff" points="534.03,-184.5 544.03,-181 534.03,-177.5 534.03,-184.5"/>
</g>
<!-- Node10 -->
<g id="node10" class="node">
<title>Node10</title>
<g id="a_node10"><a xlink:href="class_a_r_video_view.html#a1fd2ef182b3414370cafb069885c92c7" target="_top" xlink:title="‍Defaults to true.">
<polygon fill="white" stroke="#666666" points="657,-104.5 538,-104.5 538,-85.5 657,-85.5 657,-104.5"/>
<text text-anchor="middle" x="597.5" y="-92.5" font-family="Helvetica,sans-Serif" font-size="10.00">ARVideoView::rotate90</text>
</a>
</g>
</g>
<!-- Node9&#45;&gt;Node10 -->
<g id="edge9" class="edge">
<title>Node9&#45;&gt;Node10</title>
<path fill="none" stroke="#63b8ff" d="M494.18,-95C504.72,-95 515.63,-95 526.22,-95"/>
<polygon fill="#63b8ff" stroke="#63b8ff" points="526.05,-98.5 536.05,-95 526.05,-91.5 526.05,-98.5"/>
</g>
</g>
</svg>
