<?xml version="1.0" encoding="UTF-8" standalone="no"?>
<!DOCTYPE svg PUBLIC "-//W3C//DTD SVG 1.1//EN"
 "http://www.w3.org/Graphics/SVG/1.1/DTD/svg11.dtd">
<!-- Generated by graphviz version 7.0.5 (20221223.1930)
 -->
<!-- Title: arwChangeToResourcesDir Pages: 1 -->
<svg width="751pt" height="64pt"
 viewBox="0.00 0.00 751.00 64.00" xmlns="http://www.w3.org/2000/svg" xmlns:xlink="http://www.w3.org/1999/xlink">
<g id="graph0" class="graph" transform="scale(1 1) rotate(0) translate(4 60)">
<title>arwChangeToResourcesDir</title>
<!-- Node1 -->
<g id="node1" class="node">
<title>Node1</title>
<g id="a_node1"><a xlink:title="Changes the working directory to the resources directory used by artoolkitX.">
<polygon fill="#999999" stroke="#666666" points="137,-37 0,-37 0,-18 137,-18 137,-37"/>
<text text-anchor="middle" x="68.5" y="-25" font-family="Helvetica,sans-Serif" font-size="10.00">arwChangeToResourcesDir</text>
</a>
</g>
</g>
<!-- Node2 -->
<g id="node2" class="node">
<title>Node2</title>
<g id="a_node2"><a xlink:href="ar_util_8c.html#acd9f679696c2c26b378e434f6d78ae7d" target="_top" xlink:title="Change to the resources directory using the specified behavior.">
<polygon fill="white" stroke="#666666" points="344,-37 173,-37 173,-18 344,-18 344,-37"/>
<text text-anchor="middle" x="258.5" y="-25" font-family="Helvetica,sans-Serif" font-size="10.00">arUtilChangeToResourcesDirectory</text>
</a>
</g>
</g>
<!-- Node1&#45;&gt;Node2 -->
<g id="edge1" class="edge">
<title>Node1&#45;&gt;Node2</title>
<path fill="none" stroke="#63b8ff" d="M137.37,-27.5C145.16,-27.5 153.22,-27.5 161.29,-27.5"/>
<polygon fill="#63b8ff" stroke="#63b8ff" points="161.18,-31 171.18,-27.5 161.18,-24 161.18,-31"/>
</g>
<!-- Node3 -->
<g id="node3" class="node">
<title>Node3</title>
<g id="a_node3"><a xlink:href="ar_util_8c.html#a69fc2402cb882ae30aedafabd1227ba9" target="_top" xlink:title="Get the path to the resources directory using the specified behavior.">
<polygon fill="white" stroke="#666666" points="543,-37 380,-37 380,-18 543,-18 543,-37"/>
<text text-anchor="middle" x="461.5" y="-25" font-family="Helvetica,sans-Serif" font-size="10.00">arUtilGetResourcesDirectoryPath</text>
</a>
</g>
</g>
<!-- Node2&#45;&gt;Node3 -->
<g id="edge2" class="edge">
<title>Node2&#45;&gt;Node3</title>
<path fill="none" stroke="#63b8ff" d="M344.45,-27.5C352.39,-27.5 360.46,-27.5 368.46,-27.5"/>
<polygon fill="#63b8ff" stroke="#63b8ff" points="368.18,-31 378.18,-27.5 368.18,-24 368.18,-31"/>
</g>
<!-- Node3&#45;&gt;Node3 -->
<g id="edge5" class="edge">
<title>Node3&#45;&gt;Node3</title>
<path fill="none" stroke="#63b8ff" d="M430.27,-37.37C416.02,-45.94 426.43,-55 461.5,-55 481.77,-55 493.81,-51.97 497.6,-47.76"/>
<polygon fill="#63b8ff" stroke="#63b8ff" points="500.78,-46.31 493.37,-38.74 494.45,-49.28 500.78,-46.31"/>
</g>
<!-- Node4 -->
<g id="node4" class="node">
<title>Node4</title>
<g id="a_node4"><a xlink:href="ar_util_8c.html#aadb50b241c9234d1a23317a1767a39be" target="_top" xlink:title=" ">
<polygon fill="white" stroke="#666666" points="743,-56 579,-56 579,-37 743,-37 743,-56"/>
<text text-anchor="middle" x="661" y="-44" font-family="Helvetica,sans-Serif" font-size="10.00">arUtilGetDirectoryNameFromPath</text>
</a>
</g>
</g>
<!-- Node3&#45;&gt;Node4 -->
<g id="edge3" class="edge">
<title>Node3&#45;&gt;Node4</title>
<path fill="none" stroke="#63b8ff" d="M543.4,-35.28C551.29,-36.04 559.34,-36.82 567.34,-37.59"/>
<polygon fill="#63b8ff" stroke="#63b8ff" points="566.79,-41.05 577.08,-38.52 567.46,-34.08 566.79,-41.05"/>
</g>
<!-- Node5 -->
<g id="node5" class="node">
<title>Node5</title>
<g id="a_node5"><a xlink:href="ar_util_8c.html#aa7a1c158a0f94ad212ef011fd7909815" target="_top" xlink:title=" ">
<polygon fill="white" stroke="#666666" points="731,-19 591,-19 591,0 731,0 731,-19"/>
<text text-anchor="middle" x="661" y="-7" font-family="Helvetica,sans-Serif" font-size="10.00">arUtilGetFileNameFromPath</text>
</a>
</g>
</g>
<!-- Node3&#45;&gt;Node5 -->
<g id="edge4" class="edge">
<title>Node3&#45;&gt;Node5</title>
<path fill="none" stroke="#63b8ff" d="M543.4,-20.13C555.27,-19.05 567.49,-17.93 579.35,-16.85"/>
<polygon fill="#63b8ff" stroke="#63b8ff" points="579.44,-20.36 589.08,-15.96 578.81,-13.39 579.44,-20.36"/>
</g>
</g>
</svg>
