<?xml version="1.0" encoding="UTF-8" standalone="no"?>
<!DOCTYPE svg PUBLIC "-//W3C//DTD SVG 1.1//EN"
 "http://www.w3.org/Graphics/SVG/1.1/DTD/svg11.dtd">
<!-- Generated by graphviz version 2.40.1 (20161225.0304)
 -->
<!-- Title: Source/ARX/include/ARX/ARVideoSource.h Pages: 1 -->
<svg width="1175pt" height="232pt"
 viewBox="0.00 0.00 1174.67 232.00" xmlns="http://www.w3.org/2000/svg" xmlns:xlink="http://www.w3.org/1999/xlink">
<g id="graph0" class="graph" transform="scale(1 1) rotate(0) translate(4 228)">
<title>Source/ARX/include/ARX/ARVideoSource.h</title>
<polygon fill="#ffffff" stroke="transparent" points="-4,4 -4,-228 1170.666,-228 1170.666,4 -4,4"/>
<!-- Node25 -->
<g id="node1" class="node">
<title>Node25</title>
<polygon fill="#bfbfbf" stroke="#000000" points="386.123,-195.5 386.123,-223.5 507.3818,-223.5 507.3818,-195.5 386.123,-195.5"/>
<text text-anchor="start" x="394.123" y="-211.5" font-family="Helvetica,sans-Serif" font-size="10.00" fill="#000000">Source/ARX/include</text>
<text text-anchor="middle" x="446.7524" y="-201.5" font-family="Helvetica,sans-Serif" font-size="10.00" fill="#000000">/ARX/ARVideoSource.h</text>
</g>
<!-- Node26 -->
<g id="node2" class="node">
<title>Node26</title>
<g id="a_node2"><a xlink:href="_a_r_video_source_8cpp.html" target="_top" xlink:title="Source/ARX/ARVideoSource.cpp">
<polygon fill="#ffffff" stroke="#000000" points="0,-5.5 0,-23.5 163.5049,-23.5 163.5049,-5.5 0,-5.5"/>
<text text-anchor="middle" x="81.7524" y="-11.5" font-family="Helvetica,sans-Serif" font-size="10.00" fill="#000000">Source/ARX/ARVideoSource.cpp</text>
</a>
</g>
</g>
<!-- Node25&#45;&gt;Node26 -->
<g id="edge1" class="edge">
<title>Node25&#45;&gt;Node26</title>
<path fill="none" stroke="#191970" d="M411.2156,-190.5146C334.3134,-149.4298 154.8765,-53.5663 98.8068,-23.6112"/>
<polygon fill="#191970" stroke="#191970" points="410.0331,-193.8509 420.5025,-195.4761 413.3316,-187.6768 410.0331,-193.8509"/>
</g>
<!-- Node27 -->
<g id="node3" class="node">
<title>Node27</title>
<g id="a_node3"><a xlink:href="_a_r_controller_8h.html" target="_top" xlink:title="Source/ARX/include\l/ARX/ARController.h">
<polygon fill="#ffffff" stroke="#000000" points="445.1763,-65.5 445.1763,-93.5 552.3286,-93.5 552.3286,-65.5 445.1763,-65.5"/>
<text text-anchor="start" x="453.1763" y="-81.5" font-family="Helvetica,sans-Serif" font-size="10.00" fill="#000000">Source/ARX/include</text>
<text text-anchor="middle" x="498.7524" y="-71.5" font-family="Helvetica,sans-Serif" font-size="10.00" fill="#000000">/ARX/ARController.h</text>
</a>
</g>
</g>
<!-- Node25&#45;&gt;Node27 -->
<g id="edge2" class="edge">
<title>Node25&#45;&gt;Node27</title>
<path fill="none" stroke="#191970" d="M450.3505,-185.0447C453.2553,-168.9564 458.1355,-147.6845 465.7524,-130 471.387,-116.9182 480.3483,-103.4833 487.5115,-93.7626"/>
<polygon fill="#191970" stroke="#191970" points="446.8418,-184.8068 448.6458,-195.2469 453.7461,-185.9605 446.8418,-184.8068"/>
</g>
<!-- Node34 -->
<g id="node10" class="node">
<title>Node34</title>
<g id="a_node10"><a xlink:href="_a_r_video_view_8h.html" target="_top" xlink:title="Source/ARX/include\l/ARX/ARVideoView.h">
<polygon fill="#ffffff" stroke="#000000" points="474.4893,-130.5 474.4893,-158.5 585.0156,-158.5 585.0156,-130.5 474.4893,-130.5"/>
<text text-anchor="start" x="482.4893" y="-146.5" font-family="Helvetica,sans-Serif" font-size="10.00" fill="#000000">Source/ARX/include</text>
<text text-anchor="middle" x="529.7524" y="-136.5" font-family="Helvetica,sans-Serif" font-size="10.00" fill="#000000">/ARX/ARVideoView.h</text>
</a>
</g>
</g>
<!-- Node25&#45;&gt;Node34 -->
<g id="edge10" class="edge">
<title>Node25&#45;&gt;Node34</title>
<path fill="none" stroke="#191970" d="M472.7153,-189.1677C485.4071,-179.2283 500.3648,-167.5144 511.7778,-158.5765"/>
<polygon fill="#191970" stroke="#191970" points="470.4773,-186.4747 464.7622,-195.396 474.7933,-191.9859 470.4773,-186.4747"/>
</g>
<!-- Node27&#45;&gt;Node26 -->
<g id="edge8" class="edge">
<title>Node27&#45;&gt;Node26</title>
<path fill="none" stroke="#191970" d="M434.6895,-69.7326C368.7496,-59.6494 263.0461,-43.4035 171.7524,-29 160.6529,-27.2488 148.7874,-25.3537 137.4346,-23.5291"/>
<polygon fill="#191970" stroke="#191970" points="434.5087,-73.2456 444.9228,-71.2968 435.5664,-66.3259 434.5087,-73.2456"/>
</g>
<!-- Node28 -->
<g id="node4" class="node">
<title>Node28</title>
<g id="a_node4"><a xlink:href="_a_r_controller_8cpp.html" target="_top" xlink:title="Source/ARX/ARController.cpp">
<polygon fill="#ffffff" stroke="#000000" points="181.0532,-5.5 181.0532,-23.5 330.4517,-23.5 330.4517,-5.5 181.0532,-5.5"/>
<text text-anchor="middle" x="255.7524" y="-11.5" font-family="Helvetica,sans-Serif" font-size="10.00" fill="#000000">Source/ARX/ARController.cpp</text>
</a>
</g>
</g>
<!-- Node27&#45;&gt;Node28 -->
<g id="edge3" class="edge">
<title>Node27&#45;&gt;Node28</title>
<path fill="none" stroke="#191970" d="M436.5805,-62.8696C389.7422,-50.3409 327.3145,-33.6421 289.4044,-23.5016"/>
<polygon fill="#191970" stroke="#191970" points="435.7594,-66.273 446.3242,-65.476 437.5683,-59.5107 435.7594,-66.273"/>
</g>
<!-- Node29 -->
<g id="node5" class="node">
<title>Node29</title>
<g id="a_node5"><a xlink:href="_a_r_pattern_8cpp.html" target="_top" xlink:title="Source/ARX/ARPattern.cpp">
<polygon fill="#ffffff" stroke="#000000" points="348.334,-5.5 348.334,-23.5 487.1709,-23.5 487.1709,-5.5 348.334,-5.5"/>
<text text-anchor="middle" x="417.7524" y="-11.5" font-family="Helvetica,sans-Serif" font-size="10.00" fill="#000000">Source/ARX/ARPattern.cpp</text>
</a>
</g>
</g>
<!-- Node27&#45;&gt;Node29 -->
<g id="edge4" class="edge">
<title>Node27&#45;&gt;Node29</title>
<path fill="none" stroke="#191970" d="M473.3134,-59.0859C458.4648,-47.1704 440.4667,-32.7275 429.0604,-23.5743"/>
<polygon fill="#191970" stroke="#191970" points="471.1868,-61.867 481.1766,-65.396 475.5679,-56.4075 471.1868,-61.867"/>
</g>
<!-- Node30 -->
<g id="node6" class="node">
<title>Node30</title>
<g id="a_node6"><a xlink:href="_a_r_trackable_8cpp.html" target="_top" xlink:title="Source/ARX/ARTrackable.cpp">
<polygon fill="#ffffff" stroke="#000000" points="504.7725,-5.5 504.7725,-23.5 654.7324,-23.5 654.7324,-5.5 504.7725,-5.5"/>
<text text-anchor="middle" x="579.7524" y="-11.5" font-family="Helvetica,sans-Serif" font-size="10.00" fill="#000000">Source/ARX/ARTrackable.cpp</text>
</a>
</g>
</g>
<!-- Node27&#45;&gt;Node30 -->
<g id="edge5" class="edge">
<title>Node27&#45;&gt;Node30</title>
<path fill="none" stroke="#191970" d="M524.1915,-59.0859C539.0401,-47.1704 557.0382,-32.7275 568.4445,-23.5743"/>
<polygon fill="#191970" stroke="#191970" points="521.937,-56.4075 516.3282,-65.396 526.3181,-61.867 521.937,-56.4075"/>
</g>
<!-- Node31 -->
<g id="node7" class="node">
<title>Node31</title>
<g id="a_node7"><a xlink:href="_a_r_trackable_multi_square_8cpp.html" target="_top" xlink:title="Source/ARX/ARTrackableMulti\lSquare.cpp">
<polygon fill="#ffffff" stroke="#000000" points="672.6665,-.5 672.6665,-28.5 824.8384,-28.5 824.8384,-.5 672.6665,-.5"/>
<text text-anchor="start" x="680.6665" y="-16.5" font-family="Helvetica,sans-Serif" font-size="10.00" fill="#000000">Source/ARX/ARTrackableMulti</text>
<text text-anchor="middle" x="748.7524" y="-6.5" font-family="Helvetica,sans-Serif" font-size="10.00" fill="#000000">Square.cpp</text>
</a>
</g>
</g>
<!-- Node27&#45;&gt;Node31 -->
<g id="edge6" class="edge">
<title>Node27&#45;&gt;Node31</title>
<path fill="none" stroke="#191970" d="M562.2576,-62.9887C603.1993,-52.3438 655.8627,-38.6513 694.7791,-28.5331"/>
<polygon fill="#191970" stroke="#191970" points="561.1812,-59.6521 552.3837,-65.5559 562.9427,-66.4268 561.1812,-59.6521"/>
</g>
<!-- Node32 -->
<g id="node8" class="node">
<title>Node32</title>
<g id="a_node8"><a xlink:href="_a_r_trackable_square_8cpp.html" target="_top" xlink:title="Source/ARX/ARTrackableSquare.cpp">
<polygon fill="#ffffff" stroke="#000000" points="842.6494,-5.5 842.6494,-23.5 1024.8555,-23.5 1024.8555,-5.5 842.6494,-5.5"/>
<text text-anchor="middle" x="933.7524" y="-11.5" font-family="Helvetica,sans-Serif" font-size="10.00" fill="#000000">Source/ARX/ARTrackableSquare.cpp</text>
</a>
</g>
</g>
<!-- Node27&#45;&gt;Node32 -->
<g id="edge7" class="edge">
<title>Node27&#45;&gt;Node32</title>
<path fill="none" stroke="#191970" d="M562.6515,-64.9431C683.4577,-43.416 716.15,-45.3081 833.7524,-29 846.2634,-27.2651 859.6472,-25.3591 872.4231,-23.5155"/>
<polygon fill="#191970" stroke="#191970" points="561.8617,-61.5289 552.6395,-66.7444 563.1013,-68.4183 561.8617,-61.5289"/>
</g>
<!-- Node33 -->
<g id="node9" class="node">
<title>Node33</title>
<g id="a_node9"><a xlink:href="_a_r_x__c_8cpp.html" target="_top" xlink:title="Source/ARX/ARX_c.cpp">
<polygon fill="#ffffff" stroke="#000000" points="1042.8389,-5.5 1042.8389,-23.5 1166.666,-23.5 1166.666,-5.5 1042.8389,-5.5"/>
<text text-anchor="middle" x="1104.7524" y="-11.5" font-family="Helvetica,sans-Serif" font-size="10.00" fill="#000000">Source/ARX/ARX_c.cpp</text>
</a>
</g>
</g>
<!-- Node27&#45;&gt;Node33 -->
<g id="edge9" class="edge">
<title>Node27&#45;&gt;Node33</title>
<path fill="none" stroke="#191970" d="M562.6674,-65.0298C771.5164,-34.078 828.6441,-57.6511 1033.7524,-29 1043.9695,-27.5728 1054.9259,-25.5722 1065.0997,-23.512"/>
<polygon fill="#191970" stroke="#191970" points="561.9734,-61.5948 552.6064,-66.5454 563.0162,-68.5167 561.9734,-61.5948"/>
</g>
<!-- Node34&#45;&gt;Node27 -->
<g id="edge12" class="edge">
<title>Node34&#45;&gt;Node27</title>
<path fill="none" stroke="#191970" d="M518.6799,-121.2835C514.2631,-112.0223 509.3226,-101.6632 505.4659,-93.5765"/>
<polygon fill="#191970" stroke="#191970" points="515.562,-122.8766 523.0259,-130.396 521.8802,-119.8632 515.562,-122.8766"/>
</g>
<!-- Node35 -->
<g id="node11" class="node">
<title>Node35</title>
<g id="a_node11"><a xlink:href="_a_r_video_view_8cpp.html" target="_top" xlink:title="Source/ARX/ARVideoView.cpp">
<polygon fill="#ffffff" stroke="#000000" points="570.3662,-70.5 570.3662,-88.5 723.1387,-88.5 723.1387,-70.5 570.3662,-70.5"/>
<text text-anchor="middle" x="646.7524" y="-76.5" font-family="Helvetica,sans-Serif" font-size="10.00" fill="#000000">Source/ARX/ARVideoView.cpp</text>
</a>
</g>
</g>
<!-- Node34&#45;&gt;Node35 -->
<g id="edge11" class="edge">
<title>Node34&#45;&gt;Node35</title>
<path fill="none" stroke="#191970" d="M564.1341,-125.3991C586.0069,-113.2475 613.3327,-98.0665 630.4187,-88.5743"/>
<polygon fill="#191970" stroke="#191970" points="562.1815,-122.4799 555.1397,-130.396 565.5811,-128.599 562.1815,-122.4799"/>
</g>
</g>
</svg>
