<?xml version="1.0" encoding="UTF-8" standalone="no"?>
<!DOCTYPE svg PUBLIC "-//W3C//DTD SVG 1.1//EN"
 "http://www.w3.org/Graphics/SVG/1.1/DTD/svg11.dtd">
<!-- Generated by graphviz version 7.0.5 (20221223.1930)
 -->
<!-- Title: Source/ARX/ARX_c.cpp Pages: 1 -->
<!--zoomable 522 -->
<svg id="main" version="1.1" xmlns="http://www.w3.org/2000/svg" xmlns:xlink="http://www.w3.org/1999/xlink" xml:space="preserve" onload="init(evt)">
<style type="text/css"><![CDATA[
.edge:hover path { stroke: red; }
.edge:hover polygon { stroke: red; fill: red; }
]]></style>
<script type="text/javascript"><![CDATA[
var edges = document.getElementsByTagName('g');
if (edges && edges.length) {
  for (var i=0;i<edges.length;i++) {
    if (edges[i].id.substr(0,4)=='edge') {
      edges[i].setAttribute('class','edge');
    }
  }
}
]]></script>
        <defs>
                <circle id="rim" cx="0" cy="0" r="7"/>
                <circle id="rim2" cx="0" cy="0" r="3.5"/>
                <g id="zoomPlus">
                        <use xlink:href="#rim" fill="#404040">
                                <set attributeName="fill" to="#808080" begin="zoomplus.mouseover" end="zoomplus.mouseout"/>
                        </use>
                        <path d="M-4,0h8M0,-4v8" fill="none" stroke="white" stroke-width="1.5" pointer-events="none"/>
                </g>
                <g id="zoomMin">
                        <use xlink:href="#rim" fill="#404040">
                                <set attributeName="fill" to="#808080" begin="zoomminus.mouseover" end="zoomminus.mouseout"/>
                        </use>
                        <path d="M-4,0h8" fill="none" stroke="white" stroke-width="1.5" pointer-events="none"/>
                </g>
                <g id="dirArrow">
                        <path fill="none" stroke="white" stroke-width="1.5" d="M0,-3.0v7 M-2.5,-0.5L0,-3.0L2.5,-0.5"/>
                </g>
               <g id="resetDef">
                       <use xlink:href="#rim2" fill="#404040">
                               <set attributeName="fill" to="#808080" begin="reset.mouseover" end="reset.mouseout"/>
                       </use>
               </g>
        </defs>

<script type="text/javascript">
var viewWidth = 1275;
var viewHeight = 522;
var sectionId = 'dynsection-0';
</script>
<script xlink:href="svgpan.js"/>
<svg id="graph" class="graph">
<g id="viewport">
<title>Source/ARX/ARX_c.cpp</title>
<!-- Node1 -->
<g id="node1" class="node">
<title>Node1</title>
<g id="a_node1"><a xlink:title=" ">
<polygon fill="#999999" stroke="#666666" points="1089,-514 964,-514 964,-495 1089,-495 1089,-514"/>
<text text-anchor="middle" x="1026.5" y="-502" font-family="Helvetica,sans-Serif" font-size="10.00">Source/ARX/ARX_c.cpp</text>
</a>
</g>
</g>
<!-- Node2 -->
<g id="node2" class="node">
<title>Node2</title>
<g id="a_node2"><a xlink:href="_a_r_x__c_8h.html" target="_top" xlink:title=" ">
<polygon fill="white" stroke="#666666" points="107.5,-294 27.5,-294 27.5,-275 107.5,-275 107.5,-294"/>
<text text-anchor="middle" x="67.5" y="-282" font-family="Helvetica,sans-Serif" font-size="10.00">ARX/ARX_c.h</text>
</a>
</g>
</g>
<!-- Node1&#45;&gt;Node2 -->
<g id="edge1" class="edge">
<title>Node1&#45;&gt;Node2</title>
<path fill="none" stroke="#63b8ff" d="M963.57,-500.16C769.55,-489.37 189.61,-453.28 121.5,-404 88.93,-380.43 75.55,-332.42 70.42,-305.3"/>
<polygon fill="#63b8ff" stroke="#63b8ff" points="73.91,-304.95 68.81,-295.66 67,-306.1 73.91,-304.95"/>
</g>
<!-- Node6 -->
<g id="node6" class="node">
<title>Node6</title>
<g id="a_node6"><a xlink:href="_a_r_controller_8h.html" target="_top" xlink:title=" ">
<polygon fill="white" stroke="#666666" points="873.5,-459 769.5,-459 769.5,-440 873.5,-440 873.5,-459"/>
<text text-anchor="middle" x="821.5" y="-447" font-family="Helvetica,sans-Serif" font-size="10.00">ARX/ARController.h</text>
</a>
</g>
</g>
<!-- Node1&#45;&gt;Node6 -->
<g id="edge5" class="edge">
<title>Node1&#45;&gt;Node6</title>
<path fill="none" stroke="#63b8ff" d="M991.72,-494.51C957.31,-485.61 904.46,-471.95 866.78,-462.21"/>
<polygon fill="#63b8ff" stroke="#63b8ff" points="868.13,-458.94 857.57,-459.83 866.37,-465.72 868.13,-458.94"/>
</g>
<!-- Node8 -->
<g id="node8" class="node">
<title>Node8</title>
<g id="a_node8"><a xlink:title=" ">
<polygon fill="#e0e0e0" stroke="#999999" points="1077.5,-19 1031.5,-19 1031.5,0 1077.5,0 1077.5,-19"/>
<text text-anchor="middle" x="1054.5" y="-7" font-family="Helvetica,sans-Serif" font-size="10.00">stdio.h</text>
</a>
</g>
</g>
<!-- Node1&#45;&gt;Node8 -->
<g id="edge79" class="edge">
<title>Node1&#45;&gt;Node8</title>
<path fill="none" stroke="#63b8ff" d="M1089.24,-501.45C1160.35,-495.38 1266.5,-473.29 1266.5,-395.5 1266.5,-395.5 1266.5,-395.5 1266.5,-173.5 1266.5,-111.17 1240.73,-93.23 1191.5,-55 1175.28,-42.4 1123.49,-27.66 1088.44,-18.7"/>
<polygon fill="#63b8ff" stroke="#63b8ff" points="1089.74,-15.42 1079.19,-16.38 1088.03,-22.21 1089.74,-15.42"/>
</g>
<!-- Node29 -->
<g id="node29" class="node">
<title>Node29</title>
<g id="a_node29"><a xlink:title=" ">
<polygon fill="#e0e0e0" stroke="#999999" points="1071,-239 1014,-239 1014,-220 1071,-220 1071,-239"/>
<text text-anchor="middle" x="1042.5" y="-227" font-family="Helvetica,sans-Serif" font-size="10.00">pthread.h</text>
</a>
</g>
</g>
<!-- Node1&#45;&gt;Node29 -->
<g id="edge80" class="edge">
<title>Node1&#45;&gt;Node29</title>
<path fill="none" stroke="#63b8ff" d="M1041.58,-494.52C1065.37,-479.35 1110.72,-446.17 1128.5,-404 1153.45,-344.82 1093.27,-277.35 1061.12,-246.91"/>
<polygon fill="#63b8ff" stroke="#63b8ff" points="1063.74,-244.56 1054.01,-240.37 1059,-249.72 1063.74,-244.56"/>
</g>
<!-- Node3 -->
<g id="node3" class="node">
<title>Node3</title>
<g id="a_node3"><a xlink:href="_platform_8h.html" target="_top" xlink:title=" ">
<polygon fill="white" stroke="#666666" points="652.5,-239 566.5,-239 566.5,-220 652.5,-220 652.5,-239"/>
<text text-anchor="middle" x="609.5" y="-227" font-family="Helvetica,sans-Serif" font-size="10.00">ARX/Platform.h</text>
</a>
</g>
</g>
<!-- Node2&#45;&gt;Node3 -->
<g id="edge2" class="edge">
<title>Node2&#45;&gt;Node3</title>
<path fill="none" stroke="#63b8ff" d="M107.8,-279.56C203.78,-270.17 446.03,-246.49 554.96,-235.83"/>
<polygon fill="#63b8ff" stroke="#63b8ff" points="555.2,-239.33 564.82,-234.87 554.52,-232.36 555.2,-239.33"/>
</g>
<!-- Node4 -->
<g id="node4" class="node">
<title>Node4</title>
<g id="a_node4"><a xlink:href="_error_8h.html" target="_top" xlink:title="Defines error codes used in the ARX library.">
<polygon fill="white" stroke="#666666" points="69,-239 0,-239 0,-220 69,-220 69,-239"/>
<text text-anchor="middle" x="34.5" y="-227" font-family="Helvetica,sans-Serif" font-size="10.00">ARX/Error.h</text>
</a>
</g>
</g>
<!-- Node2&#45;&gt;Node4 -->
<g id="edge3" class="edge">
<title>Node2&#45;&gt;Node4</title>
<path fill="none" stroke="#63b8ff" d="M62.05,-274.75C57.73,-267.81 51.54,-257.86 46.12,-249.16"/>
<polygon fill="#63b8ff" stroke="#63b8ff" points="49.12,-247.37 40.87,-240.73 43.18,-251.07 49.12,-247.37"/>
</g>
<!-- Node5 -->
<g id="node5" class="node">
<title>Node5</title>
<g id="a_node5"><a xlink:title=" ">
<polygon fill="#e0e0e0" stroke="#999999" points="145,-74 96,-74 96,-55 145,-55 145,-74"/>
<text text-anchor="middle" x="120.5" y="-62" font-family="Helvetica,sans-Serif" font-size="10.00">stdint.h</text>
</a>
</g>
</g>
<!-- Node2&#45;&gt;Node5 -->
<g id="edge4" class="edge">
<title>Node2&#45;&gt;Node5</title>
<path fill="none" stroke="#63b8ff" d="M69.64,-274.68C77.47,-242.5 104.61,-130.86 115.71,-85.2"/>
<polygon fill="#63b8ff" stroke="#63b8ff" points="119.07,-86.2 118.03,-75.66 112.27,-84.55 119.07,-86.2"/>
</g>
<!-- Node6&#45;&gt;Node3 -->
<g id="edge6" class="edge">
<title>Node6&#45;&gt;Node3</title>
<path fill="none" stroke="#63b8ff" d="M798.3,-439.65C777.29,-431.34 745.7,-418.1 719.5,-404 666.3,-375.38 659.81,-356.44 605.5,-330 561.14,-308.41 529.17,-334.14 500.5,-294 482.1,-268.24 519.23,-251.33 555.05,-241.48"/>
<polygon fill="#63b8ff" stroke="#63b8ff" points="555.78,-244.91 564.59,-239.03 554.03,-238.13 555.78,-244.91"/>
</g>
<!-- Node6&#45;&gt;Node5 -->
<g id="edge75" class="edge">
<title>Node6&#45;&gt;Node5</title>
<path fill="none" stroke="#63b8ff" d="M769.24,-448.19C621.44,-446.88 208.01,-439.99 159.5,-404 135.27,-386.02 135.5,-370.67 135.5,-340.5 135.5,-340.5 135.5,-340.5 135.5,-173.5 135.5,-142.63 129.41,-107.26 124.99,-85.66"/>
<polygon fill="#63b8ff" stroke="#63b8ff" points="128.42,-84.93 122.9,-75.88 121.57,-86.39 128.42,-84.93"/>
</g>
<!-- Node7 -->
<g id="node7" class="node">
<title>Node7</title>
<g id="a_node7"><a xlink:href="ar_8h.html" target="_top" xlink:title="artoolkitX core routines.">
<polygon fill="white" stroke="#666666" points="711.5,-129 637.5,-129 637.5,-110 711.5,-110 711.5,-129"/>
<text text-anchor="middle" x="674.5" y="-117" font-family="Helvetica,sans-Serif" font-size="10.00">ARX/AR/ar.h</text>
</a>
</g>
</g>
<!-- Node6&#45;&gt;Node7 -->
<g id="edge7" class="edge">
<title>Node6&#45;&gt;Node7</title>
<path fill="none" stroke="#63b8ff" d="M826.79,-439.56C844.64,-408.96 900.92,-308.42 890.5,-275 866.11,-196.8 771.55,-152.73 715.96,-133.08"/>
<polygon fill="#63b8ff" stroke="#63b8ff" points="717.41,-129.88 706.82,-129.96 715.15,-136.51 717.41,-129.88"/>
</g>
<!-- Node6&#45;&gt;Node8 -->
<g id="edge73" class="edge">
<title>Node6&#45;&gt;Node8</title>
<path fill="none" stroke="#63b8ff" d="M873.98,-442.04C975.85,-426.26 1190.5,-375.78 1190.5,-230.5 1190.5,-230.5 1190.5,-230.5 1190.5,-118.5 1190.5,-89.04 1191.56,-76.57 1171.5,-55 1159.95,-42.58 1119,-28.77 1088.79,-19.87"/>
<polygon fill="#63b8ff" stroke="#63b8ff" points="1089.85,-16.54 1079.28,-17.14 1087.92,-23.26 1089.85,-16.54"/>
</g>
<!-- Node9 -->
<g id="node9" class="node">
<title>Node9</title>
<g id="a_node9"><a xlink:title=" ">
<polygon fill="#e0e0e0" stroke="#999999" points="852.5,-19 804.5,-19 804.5,0 852.5,0 852.5,-19"/>
<text text-anchor="middle" x="828.5" y="-7" font-family="Helvetica,sans-Serif" font-size="10.00">stdlib.h</text>
</a>
</g>
</g>
<!-- Node6&#45;&gt;Node9 -->
<g id="edge74" class="edge">
<title>Node6&#45;&gt;Node9</title>
<path fill="none" stroke="#63b8ff" d="M873.5,-439.55C904.02,-432.8 942.56,-421.62 973.5,-404 1097.82,-333.22 1195.19,-220.63 1104.5,-110 1052.78,-46.91 999.93,-105.08 924.5,-74 895.68,-62.12 866.35,-41.15 847.82,-26.57"/>
<polygon fill="#63b8ff" stroke="#63b8ff" points="850.1,-23.92 840.12,-20.37 845.71,-29.37 850.1,-23.92"/>
</g>
<!-- Node10 -->
<g id="node10" class="node">
<title>Node10</title>
<g id="a_node10"><a xlink:title=" ">
<polygon fill="#e0e0e0" stroke="#999999" points="241,-19 192,-19 192,0 241,0 241,-19"/>
<text text-anchor="middle" x="216.5" y="-7" font-family="Helvetica,sans-Serif" font-size="10.00">string.h</text>
</a>
</g>
</g>
<!-- Node6&#45;&gt;Node10 -->
<g id="edge77" class="edge">
<title>Node6&#45;&gt;Node10</title>
<path fill="none" stroke="#63b8ff" d="M769.3,-446.73C634.19,-441.84 280.2,-426.97 232.5,-404 197.79,-387.29 173.5,-379.02 173.5,-340.5 173.5,-340.5 173.5,-340.5 173.5,-118.5 173.5,-84.99 191.59,-49.51 204.31,-28.72"/>
<polygon fill="#63b8ff" stroke="#63b8ff" points="207.09,-30.86 209.52,-20.55 201.19,-27.09 207.09,-30.86"/>
</g>
<!-- Node18 -->
<g id="node18" class="node">
<title>Node18</title>
<g id="a_node18"><a xlink:title=" ">
<polygon fill="#e0e0e0" stroke="#999999" points="1148,-19 1101,-19 1101,0 1148,0 1148,-19"/>
<text text-anchor="middle" x="1124.5" y="-7" font-family="Helvetica,sans-Serif" font-size="10.00">math.h</text>
</a>
</g>
</g>
<!-- Node6&#45;&gt;Node18 -->
<g id="edge76" class="edge">
<title>Node6&#45;&gt;Node18</title>
<path fill="none" stroke="#63b8ff" d="M873.87,-444.53C983.8,-433.04 1228.5,-389.61 1228.5,-230.5 1228.5,-230.5 1228.5,-230.5 1228.5,-173.5 1228.5,-118.33 1224.61,-99.14 1191.5,-55 1181.98,-42.31 1167.71,-32.12 1154.79,-24.7"/>
<polygon fill="#63b8ff" stroke="#63b8ff" points="1156.62,-21.72 1146.16,-20.08 1153.32,-27.89 1156.62,-21.72"/>
</g>
<!-- Node23 -->
<g id="node23" class="node">
<title>Node23</title>
<g id="a_node23"><a xlink:href="_a_r_video_source_8h.html" target="_top" xlink:title=" ">
<polygon fill="white" stroke="#666666" points="881,-294 762,-294 762,-275 881,-275 881,-294"/>
<text text-anchor="middle" x="821.5" y="-282" font-family="Helvetica,sans-Serif" font-size="10.00">ARX/ARVideoSource.h</text>
</a>
</g>
</g>
<!-- Node6&#45;&gt;Node23 -->
<g id="edge31" class="edge">
<title>Node6&#45;&gt;Node23</title>
<path fill="none" stroke="#63b8ff" d="M821.5,-439.74C821.5,-414.53 821.5,-341.36 821.5,-305.62"/>
<polygon fill="#63b8ff" stroke="#63b8ff" points="825,-305.82 821.5,-295.82 818,-305.82 825,-305.82"/>
</g>
<!-- Node6&#45;&gt;Node29 -->
<g id="edge78" class="edge">
<title>Node6&#45;&gt;Node29</title>
<path fill="none" stroke="#63b8ff" d="M857.82,-439.57C901.48,-426.91 973.82,-399.47 1013.5,-349 1036.13,-320.22 1041.42,-276.27 1042.47,-250.77"/>
<polygon fill="#63b8ff" stroke="#63b8ff" points="1045.97,-250.87 1042.67,-240.8 1038.97,-250.73 1045.97,-250.87"/>
</g>
<!-- Node30 -->
<g id="node30" class="node">
<title>Node30</title>
<g id="a_node30"><a xlink:href="_a_r_video_view_8h.html" target="_top" xlink:title=" ">
<polygon fill="white" stroke="#666666" points="1004.5,-349 896.5,-349 896.5,-330 1004.5,-330 1004.5,-349"/>
<text text-anchor="middle" x="950.5" y="-337" font-family="Helvetica,sans-Serif" font-size="10.00">ARX/ARVideoView.h</text>
</a>
</g>
</g>
<!-- Node6&#45;&gt;Node30 -->
<g id="edge43" class="edge">
<title>Node6&#45;&gt;Node30</title>
<path fill="none" stroke="#63b8ff" d="M834.46,-439.73C847.04,-431.05 866.54,-417.2 882.5,-404 900.68,-388.97 920.24,-370.43 933.7,-357.27"/>
<polygon fill="#63b8ff" stroke="#63b8ff" points="935.84,-360.07 940.5,-350.55 930.93,-355.09 935.84,-360.07"/>
</g>
<!-- Node32 -->
<g id="node32" class="node">
<title>Node32</title>
<g id="a_node32"><a xlink:href="_a_r_tracker_square_8h.html" target="_top" xlink:title=" ">
<polygon fill="white" stroke="#666666" points="596,-404 469,-404 469,-385 596,-385 596,-404"/>
<text text-anchor="middle" x="532.5" y="-392" font-family="Helvetica,sans-Serif" font-size="10.00">ARX/ARTrackerSquare.h</text>
</a>
</g>
</g>
<!-- Node6&#45;&gt;Node32 -->
<g id="edge49" class="edge">
<title>Node6&#45;&gt;Node32</title>
<path fill="none" stroke="#63b8ff" d="M772.48,-439.51C722.71,-430.38 645.6,-416.24 592.28,-406.46"/>
<polygon fill="#63b8ff" stroke="#63b8ff" points="593.24,-403.08 582.77,-404.72 591.98,-409.97 593.24,-403.08"/>
</g>
<!-- Node34 -->
<g id="node34" class="node">
<title>Node34</title>
<g id="a_node34"><a xlink:href="_a_r_trackable_8h.html" target="_top" xlink:title=" ">
<polygon fill="white" stroke="#666666" points="450.5,-239 344.5,-239 344.5,-220 450.5,-220 450.5,-239"/>
<text text-anchor="middle" x="397.5" y="-227" font-family="Helvetica,sans-Serif" font-size="10.00">ARX/ARTrackable.h</text>
</a>
</g>
</g>
<!-- Node6&#45;&gt;Node34 -->
<g id="edge70" class="edge">
<title>Node6&#45;&gt;Node34</title>
<path fill="none" stroke="#63b8ff" d="M769.42,-447.06C650,-442.48 362.71,-423.75 310.5,-349 284.03,-311.1 338.56,-267.51 372.73,-245.26"/>
<polygon fill="#63b8ff" stroke="#63b8ff" points="374.28,-248.42 380.88,-240.12 370.55,-242.49 374.28,-248.42"/>
</g>
<!-- Node37 -->
<g id="node37" class="node">
<title>Node37</title>
<g id="a_node37"><a xlink:title=" ">
<polygon fill="#e0e0e0" stroke="#999999" points="283.5,-129 231.5,-129 231.5,-110 283.5,-110 283.5,-129"/>
<text text-anchor="middle" x="257.5" y="-117" font-family="Helvetica,sans-Serif" font-size="10.00">memory</text>
</a>
</g>
</g>
<!-- Node6&#45;&gt;Node37 -->
<g id="edge72" class="edge">
<title>Node6&#45;&gt;Node37</title>
<path fill="none" stroke="#63b8ff" d="M769.23,-448.57C682.96,-447.54 505.96,-440.65 361.5,-404 291.33,-386.2 211.5,-412.89 211.5,-340.5 211.5,-340.5 211.5,-340.5 211.5,-228.5 211.5,-194.83 230.66,-159.64 244.25,-138.91"/>
<polygon fill="#63b8ff" stroke="#63b8ff" points="247.09,-140.95 249.86,-130.73 241.32,-137 247.09,-140.95"/>
</g>
<!-- Node38 -->
<g id="node38" class="node">
<title>Node38</title>
<g id="a_node38"><a xlink:title=" ">
<polygon fill="#e0e0e0" stroke="#999999" points="629.5,-184 585.5,-184 585.5,-165 629.5,-165 629.5,-184"/>
<text text-anchor="middle" x="607.5" y="-172" font-family="Helvetica,sans-Serif" font-size="10.00">vector</text>
</a>
</g>
</g>
<!-- Node6&#45;&gt;Node38 -->
<g id="edge71" class="edge">
<title>Node6&#45;&gt;Node38</title>
<path fill="none" stroke="#63b8ff" d="M816.46,-439.58C798.2,-407.69 732.84,-297.16 661.5,-220 651.65,-209.35 639.24,-198.95 628.8,-190.88"/>
<polygon fill="#63b8ff" stroke="#63b8ff" points="631.2,-188.31 621.1,-185.1 627,-193.91 631.2,-188.31"/>
</g>
<!-- Node7&#45;&gt;Node5 -->
<g id="edge10" class="edge">
<title>Node7&#45;&gt;Node5</title>
<path fill="none" stroke="#63b8ff" d="M637.29,-114.94C536.11,-105.26 256.88,-78.55 156.79,-68.97"/>
<polygon fill="#63b8ff" stroke="#63b8ff" points="157.29,-65.5 147,-68.04 156.62,-72.47 157.29,-65.5"/>
</g>
<!-- Node7&#45;&gt;Node8 -->
<g id="edge8" class="edge">
<title>Node7&#45;&gt;Node8</title>
<path fill="none" stroke="#63b8ff" d="M711.62,-111.43C714.62,-110.92 717.61,-110.44 720.5,-110 787.1,-99.87 966.1,-112.33 1021.5,-74 1036.35,-63.73 1044.97,-44.66 1049.65,-30.09"/>
<polygon fill="#63b8ff" stroke="#63b8ff" points="1052.97,-31.23 1052.3,-20.65 1046.23,-29.34 1052.97,-31.23"/>
</g>
<!-- Node7&#45;&gt;Node9 -->
<g id="edge9" class="edge">
<title>Node7&#45;&gt;Node9</title>
<path fill="none" stroke="#63b8ff" d="M711.74,-110.31C746.75,-101.91 795.78,-88.11 809.5,-74 820.8,-62.38 825.42,-44.32 827.29,-30.43"/>
<polygon fill="#63b8ff" stroke="#63b8ff" points="830.75,-30.93 828.2,-20.65 823.78,-30.28 830.75,-30.93"/>
</g>
<!-- Node7&#45;&gt;Node10 -->
<g id="edge11" class="edge">
<title>Node7&#45;&gt;Node10</title>
<path fill="none" stroke="#63b8ff" d="M637.27,-117.17C552.51,-113.67 347.7,-102.45 285.5,-74 262.91,-63.67 242.74,-43.1 230.12,-28.16"/>
<polygon fill="#63b8ff" stroke="#63b8ff" points="232.94,-26.07 223.93,-20.5 227.5,-30.48 232.94,-26.07"/>
</g>
<!-- Node11 -->
<g id="node11" class="node">
<title>Node11</title>
<g id="a_node11"><a xlink:title=" ">
<polygon fill="#e0e0e0" stroke="#999999" points="724.5,-19 632.5,-19 632.5,0 724.5,0 724.5,-19"/>
<text text-anchor="middle" x="678.5" y="-7" font-family="Helvetica,sans-Serif" font-size="10.00">ARX/AR/config.h</text>
</a>
</g>
</g>
<!-- Node7&#45;&gt;Node11 -->
<g id="edge12" class="edge">
<title>Node7&#45;&gt;Node11</title>
<path fill="none" stroke="#63b8ff" d="M674.83,-109.66C675.46,-92.57 676.87,-54.61 677.74,-30.92"/>
<polygon fill="#63b8ff" stroke="#63b8ff" points="681.24,-31.1 678.11,-20.97 674.24,-30.84 681.24,-31.1"/>
</g>
<!-- Node12 -->
<g id="node12" class="node">
<title>Node12</title>
<g id="a_node12"><a xlink:href="ar_config_8h.html" target="_top" xlink:title=" ">
<polygon fill="white" stroke="#666666" points="650,-74 547,-74 547,-55 650,-55 650,-74"/>
<text text-anchor="middle" x="598.5" y="-62" font-family="Helvetica,sans-Serif" font-size="10.00">ARX/AR/arConfig.h</text>
</a>
</g>
</g>
<!-- Node7&#45;&gt;Node12 -->
<g id="edge13" class="edge">
<title>Node7&#45;&gt;Node12</title>
<path fill="none" stroke="#63b8ff" d="M661.61,-109.51C650.4,-101.7 633.93,-90.21 620.62,-80.93"/>
<polygon fill="#63b8ff" stroke="#63b8ff" points="622.65,-78.07 612.44,-75.22 618.64,-83.81 622.65,-78.07"/>
</g>
<!-- Node13 -->
<g id="node13" class="node">
<title>Node13</title>
<g id="a_node13"><a xlink:href="log_8h.html" target="_top" xlink:title="Logging utilities.">
<polygon fill="white" stroke="#666666" points="388.5,-74 294.5,-74 294.5,-55 388.5,-55 388.5,-74"/>
<text text-anchor="middle" x="341.5" y="-62" font-family="Helvetica,sans-Serif" font-size="10.00">ARX/ARUtil/log.h</text>
</a>
</g>
</g>
<!-- Node7&#45;&gt;Node13 -->
<g id="edge14" class="edge">
<title>Node7&#45;&gt;Node13</title>
<path fill="none" stroke="#63b8ff" d="M637.27,-112.57C579.63,-103.4 468.34,-85.69 399.92,-74.8"/>
<polygon fill="#63b8ff" stroke="#63b8ff" points="400.83,-71.4 390.4,-73.28 399.73,-78.31 400.83,-71.4"/>
</g>
<!-- Node17 -->
<g id="node17" class="node">
<title>Node17</title>
<g id="a_node17"><a xlink:href="matrix_8h.html" target="_top" xlink:title=" ">
<polygon fill="white" stroke="#666666" points="1162,-74 1069,-74 1069,-55 1162,-55 1162,-74"/>
<text text-anchor="middle" x="1115.5" y="-62" font-family="Helvetica,sans-Serif" font-size="10.00">ARX/AR/matrix.h</text>
</a>
</g>
</g>
<!-- Node7&#45;&gt;Node17 -->
<g id="edge21" class="edge">
<title>Node7&#45;&gt;Node17</title>
<path fill="none" stroke="#63b8ff" d="M711.87,-111.35C714.78,-110.87 717.69,-110.41 720.5,-110 868.24,-88.42 906.32,-92.31 1054.5,-74 1055.5,-73.88 1056.51,-73.75 1057.52,-73.62"/>
<polygon fill="#63b8ff" stroke="#63b8ff" points="1057.59,-77.14 1067.06,-72.39 1056.69,-70.2 1057.59,-77.14"/>
</g>
<!-- Node19 -->
<g id="node19" class="node">
<title>Node19</title>
<g id="a_node19"><a xlink:href="icp_8h.html" target="_top" xlink:title=" ">
<polygon fill="white" stroke="#666666" points="1012,-74 933,-74 933,-55 1012,-55 1012,-74"/>
<text text-anchor="middle" x="972.5" y="-62" font-family="Helvetica,sans-Serif" font-size="10.00">ARX/AR/icp.h</text>
</a>
</g>
</g>
<!-- Node7&#45;&gt;Node19 -->
<g id="edge23" class="edge">
<title>Node7&#45;&gt;Node19</title>
<path fill="none" stroke="#63b8ff" d="M711.65,-111.61C714.65,-111.06 717.62,-110.52 720.5,-110 790.21,-97.41 870.84,-83.24 921.74,-74.34"/>
<polygon fill="#63b8ff" stroke="#63b8ff" points="922.02,-77.85 931.27,-72.68 920.82,-70.95 922.02,-77.85"/>
</g>
<!-- Node21 -->
<g id="node21" class="node">
<title>Node21</title>
<g id="a_node21"><a xlink:href="param_8h.html" target="_top" xlink:title="artoolkitX functions for handling calibrated camera parameters.">
<polygon fill="white" stroke="#666666" points="800,-74 707,-74 707,-55 800,-55 800,-74"/>
<text text-anchor="middle" x="753.5" y="-62" font-family="Helvetica,sans-Serif" font-size="10.00">ARX/AR/param.h</text>
</a>
</g>
</g>
<!-- Node7&#45;&gt;Node21 -->
<g id="edge26" class="edge">
<title>Node7&#45;&gt;Node21</title>
<path fill="none" stroke="#63b8ff" d="M682.68,-109.51C692.99,-101.47 710.49,-89.53 725.61,-80.11"/>
<polygon fill="#63b8ff" stroke="#63b8ff" points="727.08,-83.32 733.81,-75.14 723.45,-77.33 727.08,-83.32"/>
</g>
<!-- Node22 -->
<g id="node22" class="node">
<title>Node22</title>
<g id="a_node22"><a xlink:href="ar_image_proc_8h.html" target="_top" xlink:title="artoolkitX functions for 2D luminance image processing.">
<polygon fill="white" stroke="#666666" points="528.5,-74 406.5,-74 406.5,-55 528.5,-55 528.5,-74"/>
<text text-anchor="middle" x="467.5" y="-62" font-family="Helvetica,sans-Serif" font-size="10.00">ARX/AR/arImageProc.h</text>
</a>
</g>
</g>
<!-- Node7&#45;&gt;Node22 -->
<g id="edge28" class="edge">
<title>Node7&#45;&gt;Node22</title>
<path fill="none" stroke="#63b8ff" d="M637.09,-110.22C600.68,-101.41 545.69,-87.38 508.21,-77.39"/>
<polygon fill="#63b8ff" stroke="#63b8ff" points="509.2,-74.04 498.64,-74.82 507.39,-80.8 509.2,-74.04"/>
</g>
<!-- Node13&#45;&gt;Node8 -->
<g id="edge15" class="edge">
<title>Node13&#45;&gt;Node8</title>
<path fill="none" stroke="#63b8ff" d="M388.82,-56C391.75,-55.63 394.66,-55.3 397.5,-55 670.58,-26.47 745.78,-61.98 1020.1,-19.04"/>
<polygon fill="#63b8ff" stroke="#63b8ff" points="1020.38,-22.54 1029.7,-17.51 1019.28,-15.62 1020.38,-22.54"/>
</g>
<!-- Node13&#45;&gt;Node9 -->
<g id="edge16" class="edge">
<title>Node13&#45;&gt;Node9</title>
<path fill="none" stroke="#63b8ff" d="M388.83,-56.15C391.76,-55.75 394.67,-55.36 397.5,-55 473.92,-45.26 703.98,-22.62 792.89,-13.96"/>
<polygon fill="#63b8ff" stroke="#63b8ff" points="793.11,-17.45 802.72,-13 792.43,-10.48 793.11,-17.45"/>
</g>
<!-- Node13&#45;&gt;Node10 -->
<g id="edge17" class="edge">
<title>Node13&#45;&gt;Node10</title>
<path fill="none" stroke="#63b8ff" d="M320.3,-54.51C300.42,-46.08 270.47,-33.38 247.84,-23.79"/>
<polygon fill="#63b8ff" stroke="#63b8ff" points="249.36,-20.63 238.78,-19.95 246.63,-27.07 249.36,-20.63"/>
</g>
<!-- Node14 -->
<g id="node14" class="node">
<title>Node14</title>
<g id="a_node14"><a xlink:title=" ">
<polygon fill="#e0e0e0" stroke="#999999" points="311.5,-19 259.5,-19 259.5,0 311.5,0 311.5,-19"/>
<text text-anchor="middle" x="285.5" y="-7" font-family="Helvetica,sans-Serif" font-size="10.00">stdarg.h</text>
</a>
</g>
</g>
<!-- Node13&#45;&gt;Node14 -->
<g id="edge18" class="edge">
<title>Node13&#45;&gt;Node14</title>
<path fill="none" stroke="#63b8ff" d="M332,-54.51C324.07,-47 312.55,-36.1 302.96,-27.03"/>
<polygon fill="#63b8ff" stroke="#63b8ff" points="305.63,-24.73 295.96,-20.4 300.82,-29.81 305.63,-24.73"/>
</g>
<!-- Node15 -->
<g id="node15" class="node">
<title>Node15</title>
<g id="a_node15"><a xlink:title=" ">
<polygon fill="#e0e0e0" stroke="#999999" points="395,-19 330,-19 330,0 395,0 395,-19"/>
<text text-anchor="middle" x="362.5" y="-7" font-family="Helvetica,sans-Serif" font-size="10.00">sys/errno.h</text>
</a>
</g>
</g>
<!-- Node13&#45;&gt;Node15 -->
<g id="edge19" class="edge">
<title>Node13&#45;&gt;Node15</title>
<path fill="none" stroke="#63b8ff" d="M344.97,-54.75C347.63,-48.04 351.4,-38.52 354.76,-30.02"/>
<polygon fill="#63b8ff" stroke="#63b8ff" points="357.97,-31.44 358.4,-20.85 351.46,-28.86 357.97,-31.44"/>
</g>
<!-- Node16 -->
<g id="node16" class="node">
<title>Node16</title>
<g id="a_node16"><a xlink:href="types_8h.html" target="_top" xlink:title=" ">
<polygon fill="white" stroke="#666666" points="518,-19 413,-19 413,0 518,0 518,-19"/>
<text text-anchor="middle" x="465.5" y="-7" font-family="Helvetica,sans-Serif" font-size="10.00">ARX/ARUtil/types.h</text>
</a>
</g>
</g>
<!-- Node13&#45;&gt;Node16 -->
<g id="edge20" class="edge">
<title>Node13&#45;&gt;Node16</title>
<path fill="none" stroke="#63b8ff" d="M362.53,-54.51C382.25,-46.08 411.97,-33.38 434.41,-23.79"/>
<polygon fill="#63b8ff" stroke="#63b8ff" points="435.56,-27.1 443.38,-19.95 432.81,-20.66 435.56,-27.1"/>
</g>
<!-- Node17&#45;&gt;Node18 -->
<g id="edge22" class="edge">
<title>Node17&#45;&gt;Node18</title>
<path fill="none" stroke="#63b8ff" d="M1116.99,-54.75C1118.1,-48.19 1119.67,-38.95 1121.09,-30.6"/>
<polygon fill="#63b8ff" stroke="#63b8ff" points="1124.5,-31.38 1122.73,-20.93 1117.6,-30.21 1124.5,-31.38"/>
</g>
<!-- Node19&#45;&gt;Node8 -->
<g id="edge24" class="edge">
<title>Node19&#45;&gt;Node8</title>
<path fill="none" stroke="#63b8ff" d="M986.41,-54.51C998.74,-46.54 1016.97,-34.75 1031.47,-25.38"/>
<polygon fill="#63b8ff" stroke="#63b8ff" points="1033.03,-28.55 1039.52,-20.18 1029.23,-22.67 1033.03,-28.55"/>
</g>
<!-- Node20 -->
<g id="node20" class="node">
<title>Node20</title>
<g id="a_node20"><a xlink:href="icp_core_8h.html" target="_top" xlink:title=" ">
<polygon fill="white" stroke="#666666" points="1013.5,-19 913.5,-19 913.5,0 1013.5,0 1013.5,-19"/>
<text text-anchor="middle" x="963.5" y="-7" font-family="Helvetica,sans-Serif" font-size="10.00">ARX/AR/icpCore.h</text>
</a>
</g>
</g>
<!-- Node19&#45;&gt;Node20 -->
<g id="edge25" class="edge">
<title>Node19&#45;&gt;Node20</title>
<path fill="none" stroke="#63b8ff" d="M971.01,-54.75C969.9,-48.19 968.33,-38.95 966.91,-30.6"/>
<polygon fill="#63b8ff" stroke="#63b8ff" points="970.4,-30.21 965.27,-20.93 963.5,-31.38 970.4,-30.21"/>
</g>
<!-- Node21&#45;&gt;Node7 -->
<g id="edge27" class="edge">
<title>Node21&#45;&gt;Node7</title>
<path fill="none" stroke="#63b8ff" d="M745.49,-74.36C735.26,-82.36 717.79,-94.29 702.64,-103.73"/>
<polygon fill="#63b8ff" stroke="#63b8ff" points="701.14,-100.54 694.41,-108.72 704.78,-106.53 701.14,-100.54"/>
</g>
<!-- Node22&#45;&gt;Node7 -->
<g id="edge30" class="edge">
<title>Node22&#45;&gt;Node7</title>
<path fill="none" stroke="#63b8ff" d="M507.65,-74.45C544.05,-83.29 597.28,-96.87 633.83,-106.62"/>
<polygon fill="#63b8ff" stroke="#63b8ff" points="632.57,-109.9 643.14,-109.12 634.39,-103.14 632.57,-109.9"/>
</g>
<!-- Node22&#45;&gt;Node11 -->
<g id="edge29" class="edge">
<title>Node22&#45;&gt;Node11</title>
<path fill="none" stroke="#63b8ff" d="M503.29,-54.51C538.71,-45.61 593.11,-31.95 631.89,-22.21"/>
<polygon fill="#63b8ff" stroke="#63b8ff" points="632.57,-25.65 641.42,-19.81 630.86,-18.86 632.57,-25.65"/>
</g>
<!-- Node23&#45;&gt;Node3 -->
<g id="edge32" class="edge">
<title>Node23&#45;&gt;Node3</title>
<path fill="none" stroke="#63b8ff" d="M785.54,-274.51C749.95,-265.61 695.29,-251.95 656.33,-242.21"/>
<polygon fill="#63b8ff" stroke="#63b8ff" points="657.3,-238.84 646.75,-239.81 655.61,-245.63 657.3,-238.84"/>
</g>
<!-- Node23&#45;&gt;Node7 -->
<g id="edge33" class="edge">
<title>Node23&#45;&gt;Node7</title>
<path fill="none" stroke="#63b8ff" d="M814.72,-274.53C808.18,-265.71 798.17,-251.75 790.5,-239 771.45,-207.32 778.06,-191.71 752.5,-165 739.98,-151.91 722.75,-141.54 707.68,-134.11"/>
<polygon fill="#63b8ff" stroke="#63b8ff" points="709.58,-131.14 699.04,-130.08 706.62,-137.48 709.58,-131.14"/>
</g>
<!-- Node24 -->
<g id="node24" class="node">
<title>Node24</title>
<g id="a_node24"><a xlink:href="video_8h.html" target="_top" xlink:title=" ">
<polygon fill="white" stroke="#666666" points="1095.5,-184 981.5,-184 981.5,-165 1095.5,-165 1095.5,-184"/>
<text text-anchor="middle" x="1038.5" y="-172" font-family="Helvetica,sans-Serif" font-size="10.00">ARX/ARVideo/video.h</text>
</a>
</g>
</g>
<!-- Node23&#45;&gt;Node24 -->
<g id="edge34" class="edge">
<title>Node23&#45;&gt;Node24</title>
<path fill="none" stroke="#63b8ff" d="M839.26,-274.66C876.93,-255.91 965.11,-212.03 1010.46,-189.45"/>
<polygon fill="#63b8ff" stroke="#63b8ff" points="1011.75,-192.72 1019.14,-185.13 1008.63,-186.46 1011.75,-192.72"/>
</g>
<!-- Node28 -->
<g id="node28" class="node">
<title>Node28</title>
<g id="a_node28"><a xlink:title=" ">
<polygon fill="#e0e0e0" stroke="#999999" points="843.5,-239 799.5,-239 799.5,-220 843.5,-220 843.5,-239"/>
<text text-anchor="middle" x="821.5" y="-227" font-family="Helvetica,sans-Serif" font-size="10.00">mutex</text>
</a>
</g>
</g>
<!-- Node23&#45;&gt;Node28 -->
<g id="edge41" class="edge">
<title>Node23&#45;&gt;Node28</title>
<path fill="none" stroke="#63b8ff" d="M821.5,-274.75C821.5,-268.27 821.5,-259.16 821.5,-250.9"/>
<polygon fill="#63b8ff" stroke="#63b8ff" points="825,-250.96 821.5,-240.96 818,-250.96 825,-250.96"/>
</g>
<!-- Node23&#45;&gt;Node29 -->
<g id="edge42" class="edge">
<title>Node23&#45;&gt;Node29</title>
<path fill="none" stroke="#63b8ff" d="M858.99,-274.51C898.87,-264.95 961.7,-249.88 1002.51,-240.09"/>
<polygon fill="#63b8ff" stroke="#63b8ff" points="1003.27,-243.51 1012.18,-237.77 1001.64,-236.7 1003.27,-243.51"/>
</g>
<!-- Node24&#45;&gt;Node7 -->
<g id="edge35" class="edge">
<title>Node24&#45;&gt;Node7</title>
<path fill="none" stroke="#63b8ff" d="M981.24,-165.79C908.4,-155.94 785.46,-139.13 722.94,-129.31"/>
<polygon fill="#63b8ff" stroke="#63b8ff" points="723.55,-125.87 713.13,-127.74 722.45,-132.78 723.55,-125.87"/>
</g>
<!-- Node25 -->
<g id="node25" class="node">
<title>Node25</title>
<g id="a_node25"><a xlink:href="video_config_8h.html" target="_top" xlink:title=" ">
<polygon fill="white" stroke="#666666" points="1095,-129 952,-129 952,-110 1095,-110 1095,-129"/>
<text text-anchor="middle" x="1023.5" y="-117" font-family="Helvetica,sans-Serif" font-size="10.00">ARX/ARVideo/videoConfig.h</text>
</a>
</g>
</g>
<!-- Node24&#45;&gt;Node25 -->
<g id="edge36" class="edge">
<title>Node24&#45;&gt;Node25</title>
<path fill="none" stroke="#63b8ff" d="M1036.02,-164.75C1034.15,-158.11 1031.49,-148.73 1029.11,-140.31"/>
<polygon fill="#63b8ff" stroke="#63b8ff" points="1032.53,-139.57 1026.44,-130.9 1025.8,-141.47 1032.53,-139.57"/>
</g>
<!-- Node26 -->
<g id="node26" class="node">
<title>Node26</title>
<g id="a_node26"><a xlink:title=" ">
<polygon fill="#e0e0e0" stroke="#999999" points="777.5,-129 729.5,-129 729.5,-110 777.5,-110 777.5,-129"/>
<text text-anchor="middle" x="753.5" y="-117" font-family="Helvetica,sans-Serif" font-size="10.00">limits.h</text>
</a>
</g>
</g>
<!-- Node24&#45;&gt;Node26 -->
<g id="edge38" class="edge">
<title>Node24&#45;&gt;Node26</title>
<path fill="none" stroke="#63b8ff" d="M981.21,-164.68C932.47,-156.88 860.39,-144.66 788.95,-129.4"/>
<polygon fill="#63b8ff" stroke="#63b8ff" points="789.95,-126.03 779.44,-127.34 788.47,-132.88 789.95,-126.03"/>
</g>
<!-- Node27 -->
<g id="node27" class="node">
<title>Node27</title>
<g id="a_node27"><a xlink:href="video_luma_8h.html" target="_top" xlink:title=" ">
<polygon fill="white" stroke="#666666" points="933.5,-129 795.5,-129 795.5,-110 933.5,-110 933.5,-129"/>
<text text-anchor="middle" x="864.5" y="-117" font-family="Helvetica,sans-Serif" font-size="10.00">ARX/ARVideo/videoLuma.h</text>
</a>
</g>
</g>
<!-- Node24&#45;&gt;Node27 -->
<g id="edge39" class="edge">
<title>Node24&#45;&gt;Node27</title>
<path fill="none" stroke="#63b8ff" d="M1003.77,-164.51C973.49,-155.84 929.98,-142.65 899.61,-132.97"/>
<polygon fill="#63b8ff" stroke="#63b8ff" points="900.7,-129.64 890.1,-129.91 898.55,-136.31 900.7,-129.64"/>
</g>
<!-- Node25&#45;&gt;Node11 -->
<g id="edge37" class="edge">
<title>Node25&#45;&gt;Node11</title>
<path fill="none" stroke="#63b8ff" d="M994.97,-109.57C933.37,-90.29 787.81,-44.72 717.65,-22.75"/>
<polygon fill="#63b8ff" stroke="#63b8ff" points="719.09,-19.54 708.5,-19.89 717,-26.22 719.09,-19.54"/>
</g>
<!-- Node27&#45;&gt;Node24 -->
<g id="edge40" class="edge">
<title>Node27&#45;&gt;Node24</title>
<path fill="none" stroke="#63b8ff" d="M899.08,-129.45C929.44,-138.14 973.2,-151.41 1003.64,-161.11"/>
<polygon fill="#63b8ff" stroke="#63b8ff" points="1002.17,-164.31 1012.76,-164.05 1004.31,-157.65 1002.17,-164.31"/>
</g>
<!-- Node30&#45;&gt;Node3 -->
<g id="edge44" class="edge">
<title>Node30&#45;&gt;Node3</title>
<path fill="none" stroke="#63b8ff" d="M898.32,-329.56C858.18,-322.01 801.61,-309.88 753.5,-294 711.63,-280.18 665.32,-258.55 636.81,-244.45"/>
<polygon fill="#63b8ff" stroke="#63b8ff" points="638.67,-241.46 628.16,-240.12 635.54,-247.72 638.67,-241.46"/>
</g>
<!-- Node30&#45;&gt;Node7 -->
<g id="edge46" class="edge">
<title>Node30&#45;&gt;Node7</title>
<path fill="none" stroke="#63b8ff" d="M947.37,-329.61C942.82,-317.08 933.79,-293.68 923.5,-275 891.63,-217.12 881.23,-197.14 823.5,-165 805.97,-155.24 758.57,-141.82 721.9,-132.27"/>
<polygon fill="#63b8ff" stroke="#63b8ff" points="722.93,-128.92 712.37,-129.82 721.18,-135.7 722.93,-128.92"/>
</g>
<!-- Node30&#45;&gt;Node23 -->
<g id="edge45" class="edge">
<title>Node30&#45;&gt;Node23</title>
<path fill="none" stroke="#63b8ff" d="M928.62,-329.51C908.01,-321.04 876.91,-308.27 853.52,-298.66"/>
<polygon fill="#63b8ff" stroke="#63b8ff" points="855.04,-295.5 844.46,-294.93 852.38,-301.97 855.04,-295.5"/>
</g>
<!-- Node31 -->
<g id="node31" class="node">
<title>Node31</title>
<g id="a_node31"><a xlink:href="arg_8h.html" target="_top" xlink:title="A collection of useful graphics routines for artoolkitX.">
<polygon fill="white" stroke="#666666" points="963,-184 876,-184 876,-165 963,-165 963,-184"/>
<text text-anchor="middle" x="919.5" y="-172" font-family="Helvetica,sans-Serif" font-size="10.00">ARX/ARG/arg.h</text>
</a>
</g>
</g>
<!-- Node30&#45;&gt;Node31 -->
<g id="edge47" class="edge">
<title>Node30&#45;&gt;Node31</title>
<path fill="none" stroke="#63b8ff" d="M953.93,-329.79C961.31,-309.63 976.84,-258.59 961.5,-220 957.18,-209.12 948.8,-199.37 940.65,-191.78"/>
<polygon fill="#63b8ff" stroke="#63b8ff" points="943.13,-189.3 933.26,-185.44 938.57,-194.61 943.13,-189.3"/>
</g>
<!-- Node31&#45;&gt;Node7 -->
<g id="edge48" class="edge">
<title>Node31&#45;&gt;Node7</title>
<path fill="none" stroke="#63b8ff" d="M877.94,-164.51C835.02,-155.23 768.11,-140.75 722.85,-130.96"/>
<polygon fill="#63b8ff" stroke="#63b8ff" points="723.83,-127.59 713.32,-128.9 722.35,-134.43 723.83,-127.59"/>
</g>
<!-- Node32&#45;&gt;Node7 -->
<g id="edge69" class="edge">
<title>Node32&#45;&gt;Node7</title>
<path fill="none" stroke="#63b8ff" d="M468.74,-389.51C410.39,-384.38 330.21,-373.06 310.5,-349 291.35,-325.62 256.98,-374.38 335.5,-220 350.21,-191.08 355.07,-180.63 383.5,-165 424.23,-142.62 553.97,-129.58 625.68,-123.9"/>
<polygon fill="#63b8ff" stroke="#63b8ff" points="625.88,-127.4 635.58,-123.14 625.35,-120.42 625.88,-127.4"/>
</g>
<!-- Node33 -->
<g id="node33" class="node">
<title>Node33</title>
<g id="a_node33"><a xlink:href="_a_r_trackable_square_8h.html" target="_top" xlink:title=" ">
<polygon fill="white" stroke="#666666" points="457,-349 320,-349 320,-330 457,-330 457,-349"/>
<text text-anchor="middle" x="388.5" y="-337" font-family="Helvetica,sans-Serif" font-size="10.00">ARX/ARTrackableSquare.h</text>
</a>
</g>
</g>
<!-- Node32&#45;&gt;Node33 -->
<g id="edge50" class="edge">
<title>Node32&#45;&gt;Node33</title>
<path fill="none" stroke="#63b8ff" d="M508.07,-384.51C484.76,-375.93 449.41,-362.92 423.19,-353.27"/>
<polygon fill="#63b8ff" stroke="#63b8ff" points="424.58,-350.05 413.99,-349.88 422.16,-356.62 424.58,-350.05"/>
</g>
<!-- Node39 -->
<g id="node39" class="node">
<title>Node39</title>
<g id="a_node39"><a xlink:href="_a_r_trackable_multi_square_8h.html" target="_top" xlink:title=" ">
<polygon fill="white" stroke="#666666" points="667.5,-294 509.5,-294 509.5,-275 667.5,-275 667.5,-294"/>
<text text-anchor="middle" x="588.5" y="-282" font-family="Helvetica,sans-Serif" font-size="10.00">ARX/ARTrackableMultiSquare.h</text>
</a>
</g>
</g>
<!-- Node32&#45;&gt;Node39 -->
<g id="edge59" class="edge">
<title>Node32&#45;&gt;Node39</title>
<path fill="none" stroke="#63b8ff" d="M559.8,-384.63C576.22,-377.72 595.76,-366.34 605.5,-349 613.36,-335.01 607.45,-317.23 600.53,-304.04"/>
<polygon fill="#63b8ff" stroke="#63b8ff" points="603.62,-302.38 595.53,-295.54 597.59,-305.93 603.62,-302.38"/>
</g>
<!-- Node41 -->
<g id="node41" class="node">
<title>Node41</title>
<g id="a_node41"><a xlink:href="_a_r_tracker_video_8h.html" target="_top" xlink:title=" ">
<polygon fill="white" stroke="#666666" points="596,-349 475,-349 475,-330 596,-330 596,-349"/>
<text text-anchor="middle" x="535.5" y="-337" font-family="Helvetica,sans-Serif" font-size="10.00">ARX/ARTrackerVideo.h</text>
</a>
</g>
</g>
<!-- Node32&#45;&gt;Node41 -->
<g id="edge63" class="edge">
<title>Node32&#45;&gt;Node41</title>
<path fill="none" stroke="#63b8ff" d="M533,-384.75C533.36,-378.27 533.88,-369.16 534.35,-360.9"/>
<polygon fill="#63b8ff" stroke="#63b8ff" points="537.84,-361.13 534.91,-350.95 530.85,-360.74 537.84,-361.13"/>
</g>
<!-- Node33&#45;&gt;Node34 -->
<g id="edge51" class="edge">
<title>Node33&#45;&gt;Node34</title>
<path fill="none" stroke="#63b8ff" d="M376.54,-329.68C361.99,-317.8 340.44,-295.75 349.5,-275 354.55,-263.44 364.24,-253.54 373.6,-246.03"/>
<polygon fill="#63b8ff" stroke="#63b8ff" points="375.48,-249 381.45,-240.25 371.33,-243.36 375.48,-249"/>
</g>
<!-- Node34&#45;&gt;Node7 -->
<g id="edge52" class="edge">
<title>Node34&#45;&gt;Node7</title>
<path fill="none" stroke="#63b8ff" d="M431.07,-219.52C459.97,-211.41 502.57,-198.55 538.5,-184 556,-176.91 559.46,-173.13 576.5,-165 598.88,-154.33 624.39,-142.76 643.77,-134.1"/>
<polygon fill="#63b8ff" stroke="#63b8ff" points="645.03,-137.37 652.74,-130.1 642.19,-130.97 645.03,-137.37"/>
</g>
<!-- Node35 -->
<g id="node35" class="node">
<title>Node35</title>
<g id="a_node35"><a xlink:href="ar_filter_trans_mat_8h.html" target="_top" xlink:title="Provides filtering of transformation matrices (pose estimates).">
<polygon fill="white" stroke="#666666" points="529,-184 392,-184 392,-165 529,-165 529,-184"/>
<text text-anchor="middle" x="460.5" y="-172" font-family="Helvetica,sans-Serif" font-size="10.00">ARX/AR/arFilterTransMat.h</text>
</a>
</g>
</g>
<!-- Node34&#45;&gt;Node35 -->
<g id="edge53" class="edge">
<title>Node34&#45;&gt;Node35</title>
<path fill="none" stroke="#63b8ff" d="M408.19,-219.51C417.2,-211.93 430.33,-200.88 441.18,-191.75"/>
<polygon fill="#63b8ff" stroke="#63b8ff" points="443.41,-194.45 448.81,-185.33 438.91,-189.09 443.41,-194.45"/>
</g>
<!-- Node36 -->
<g id="node36" class="node">
<title>Node36</title>
<g id="a_node36"><a xlink:href="_a_r_pattern_8h.html" target="_top" xlink:title=" ">
<polygon fill="white" stroke="#666666" points="335,-184 240,-184 240,-165 335,-165 335,-184"/>
<text text-anchor="middle" x="287.5" y="-172" font-family="Helvetica,sans-Serif" font-size="10.00">ARX/ARPattern.h</text>
</a>
</g>
</g>
<!-- Node34&#45;&gt;Node36 -->
<g id="edge55" class="edge">
<title>Node34&#45;&gt;Node36</title>
<path fill="none" stroke="#63b8ff" d="M378.84,-219.51C361.67,-211.24 335.95,-198.84 316.17,-189.31"/>
<polygon fill="#63b8ff" stroke="#63b8ff" points="317.78,-186.2 307.25,-185.01 314.74,-192.51 317.78,-186.2"/>
</g>
<!-- Node34&#45;&gt;Node38 -->
<g id="edge58" class="edge">
<title>Node34&#45;&gt;Node38</title>
<path fill="none" stroke="#63b8ff" d="M433.12,-219.51C472.57,-209.55 535.67,-193.63 574.18,-183.91"/>
<polygon fill="#63b8ff" stroke="#63b8ff" points="574.97,-187.32 583.81,-181.48 573.26,-180.53 574.97,-187.32"/>
</g>
<!-- Node35&#45;&gt;Node7 -->
<g id="edge54" class="edge">
<title>Node35&#45;&gt;Node7</title>
<path fill="none" stroke="#63b8ff" d="M496.8,-164.51C532.73,-155.61 587.9,-141.95 627.23,-132.21"/>
<polygon fill="#63b8ff" stroke="#63b8ff" points="628.04,-135.61 636.91,-129.81 626.36,-128.82 628.04,-135.61"/>
</g>
<!-- Node36&#45;&gt;Node7 -->
<g id="edge56" class="edge">
<title>Node36&#45;&gt;Node7</title>
<path fill="none" stroke="#63b8ff" d="M335.23,-166.96C340.05,-166.3 344.87,-165.63 349.5,-165 447.77,-151.54 562.75,-135.8 626.22,-127.11"/>
<polygon fill="#63b8ff" stroke="#63b8ff" points="626.52,-130.6 635.96,-125.78 625.58,-123.66 626.52,-130.6"/>
</g>
<!-- Node36&#45;&gt;Node37 -->
<g id="edge57" class="edge">
<title>Node36&#45;&gt;Node37</title>
<path fill="none" stroke="#63b8ff" d="M282.55,-164.75C278.66,-157.88 273.11,-148.08 268.22,-139.45"/>
<polygon fill="#63b8ff" stroke="#63b8ff" points="271.28,-137.74 263.31,-130.76 265.19,-141.19 271.28,-137.74"/>
</g>
<!-- Node39&#45;&gt;Node34 -->
<g id="edge60" class="edge">
<title>Node39&#45;&gt;Node34</title>
<path fill="none" stroke="#63b8ff" d="M556.1,-274.51C524.31,-265.69 475.64,-252.18 440.6,-242.46"/>
<polygon fill="#63b8ff" stroke="#63b8ff" points="441.77,-239.15 431.2,-239.85 439.9,-245.9 441.77,-239.15"/>
</g>
<!-- Node40 -->
<g id="node40" class="node">
<title>Node40</title>
<g id="a_node40"><a xlink:href="ar_multi_8h.html" target="_top" xlink:title=" ">
<polygon fill="white" stroke="#666666" points="743,-184 648,-184 648,-165 743,-165 743,-184"/>
<text text-anchor="middle" x="695.5" y="-172" font-family="Helvetica,sans-Serif" font-size="10.00">ARX/AR/arMulti.h</text>
</a>
</g>
</g>
<!-- Node39&#45;&gt;Node40 -->
<g id="edge61" class="edge">
<title>Node39&#45;&gt;Node40</title>
<path fill="none" stroke="#63b8ff" d="M609.1,-274.63C624.96,-267 646.61,-254.75 661.5,-239 673.59,-226.21 682.67,-208.29 688.39,-194.74"/>
<polygon fill="#63b8ff" stroke="#63b8ff" points="691.57,-196.2 691.98,-185.61 685.06,-193.63 691.57,-196.2"/>
</g>
<!-- Node40&#45;&gt;Node7 -->
<g id="edge62" class="edge">
<title>Node40&#45;&gt;Node7</title>
<path fill="none" stroke="#63b8ff" d="M692.03,-164.75C689.37,-158.04 685.6,-148.52 682.24,-140.02"/>
<polygon fill="#63b8ff" stroke="#63b8ff" points="685.54,-138.86 678.6,-130.85 679.03,-141.44 685.54,-138.86"/>
</g>
<!-- Node42 -->
<g id="node42" class="node">
<title>Node42</title>
<g id="a_node42"><a xlink:href="_a_r_tracker_8h.html" target="_top" xlink:title=" ">
<polygon fill="white" stroke="#666666" points="453,-294 358,-294 358,-275 453,-275 453,-294"/>
<text text-anchor="middle" x="405.5" y="-282" font-family="Helvetica,sans-Serif" font-size="10.00">ARX/ARTracker.h</text>
</a>
</g>
</g>
<!-- Node41&#45;&gt;Node42 -->
<g id="edge64" class="edge">
<title>Node41&#45;&gt;Node42</title>
<path fill="none" stroke="#63b8ff" d="M513.45,-329.51C492.69,-321.04 461.34,-308.27 437.77,-298.66"/>
<polygon fill="#63b8ff" stroke="#63b8ff" points="439.21,-295.46 428.63,-294.93 436.57,-301.95 439.21,-295.46"/>
</g>
<!-- Node42&#45;&gt;Node3 -->
<g id="edge65" class="edge">
<title>Node42&#45;&gt;Node3</title>
<path fill="none" stroke="#63b8ff" d="M440.11,-274.51C474.21,-265.65 526.49,-252.07 563.95,-242.33"/>
<polygon fill="#63b8ff" stroke="#63b8ff" points="564.8,-245.73 573.6,-239.83 563.04,-238.95 564.8,-245.73"/>
</g>
<!-- Node42&#45;&gt;Node34 -->
<g id="edge66" class="edge">
<title>Node42&#45;&gt;Node34</title>
<path fill="none" stroke="#63b8ff" d="M404.18,-274.75C403.19,-268.19 401.79,-258.95 400.53,-250.6"/>
<polygon fill="#63b8ff" stroke="#63b8ff" points="404.03,-250.3 399.08,-240.94 397.11,-251.35 404.03,-250.3"/>
</g>
<!-- Node42&#45;&gt;Node38 -->
<g id="edge67" class="edge">
<title>Node42&#45;&gt;Node38</title>
<path fill="none" stroke="#63b8ff" d="M434.03,-274.61C457.64,-266.73 491.7,-254.14 519.5,-239 544.77,-225.24 571.21,-205.3 588.43,-191.45"/>
<polygon fill="#63b8ff" stroke="#63b8ff" points="590.28,-194.45 595.81,-185.42 585.85,-189.04 590.28,-194.45"/>
</g>
<!-- Node43 -->
<g id="node43" class="node">
<title>Node43</title>
<g id="a_node43"><a xlink:title=" ">
<polygon fill="#e0e0e0" stroke="#999999" points="510,-239 469,-239 469,-220 510,-220 510,-239"/>
<text text-anchor="middle" x="489.5" y="-227" font-family="Helvetica,sans-Serif" font-size="10.00">string</text>
</a>
</g>
</g>
<!-- Node42&#45;&gt;Node43 -->
<g id="edge68" class="edge">
<title>Node42&#45;&gt;Node43</title>
<path fill="none" stroke="#63b8ff" d="M419.75,-274.51C432.38,-266.54 451.06,-254.75 465.91,-245.38"/>
<polygon fill="#63b8ff" stroke="#63b8ff" points="467.59,-248.46 474.18,-240.17 463.86,-242.54 467.59,-248.46"/>
</g>
</g>
</svg>
        <g id="navigator" transform="translate(0 0)" fill="#404254">
                <rect fill="#f2f5e9" fill-opacity="0.5" stroke="#606060" stroke-width=".5" x="0" y="0" width="60" height="60"/>
                <use id="zoomplus" xlink:href="#zoomPlus" x="17" y="9" onmousedown="handleZoom(evt,'in')"/>
                <use id="zoomminus" xlink:href="#zoomMin" x="42" y="9" onmousedown="handleZoom(evt,'out')"/>
                <use id="reset" xlink:href="#resetDef" x="30" y="36" onmousedown="handleReset()"/>
                <g id="arrowUp" xlink:href="#dirArrow" transform="translate(30 24)" onmousedown="handlePan(0,-1)">
                  <use xlink:href="#rim" fill="#404040">
                        <set attributeName="fill" to="#808080" begin="arrowUp.mouseover" end="arrowUp.mouseout"/>
                  </use>
                  <path fill="none" stroke="white" stroke-width="1.5" d="M0,-3.0v7 M-2.5,-0.5L0,-3.0L2.5,-0.5"/>
                </g>
                <g id="arrowRight" xlink:href="#dirArrow" transform="rotate(90) translate(36 -43)" onmousedown="handlePan(1,0)">
                  <use xlink:href="#rim" fill="#404040">
                        <set attributeName="fill" to="#808080" begin="arrowRight.mouseover" end="arrowRight.mouseout"/>
                  </use>
                  <path fill="none" stroke="white" stroke-width="1.5" d="M0,-3.0v7 M-2.5,-0.5L0,-3.0L2.5,-0.5"/>
                </g>
                <g id="arrowDown" xlink:href="#dirArrow" transform="rotate(180) translate(-30 -48)" onmousedown="handlePan(0,1)">
                  <use xlink:href="#rim" fill="#404040">
                        <set attributeName="fill" to="#808080" begin="arrowDown.mouseover" end="arrowDown.mouseout"/>
                  </use>
                  <path fill="none" stroke="white" stroke-width="1.5" d="M0,-3.0v7 M-2.5,-0.5L0,-3.0L2.5,-0.5"/>
                </g>
                <g id="arrowLeft" xlink:href="#dirArrow" transform="rotate(270) translate(-36 17)" onmousedown="handlePan(-1,0)">
                  <use xlink:href="#rim" fill="#404040">
                        <set attributeName="fill" to="#808080" begin="arrowLeft.mouseover" end="arrowLeft.mouseout"/>
                  </use>
                  <path fill="none" stroke="white" stroke-width="1.5" d="M0,-3.0v7 M-2.5,-0.5L0,-3.0L2.5,-0.5"/>
                </g>
        </g>
        <svg viewBox="0 0 15 15" width="100%" height="30px" preserveAspectRatio="xMaxYMin meet">
         <g id="arrow_out" transform="scale(0.3 0.3)">
          <a xlink:href="_a_r_x__c_8cpp__incl_org.svg" target="_base">
           <rect id="button" ry="5" rx="5" y="6" x="6" height="38" width="38"
                fill="#f2f5e9" fill-opacity="0.5" stroke="#606060" stroke-width="1.0"/>
           <path id="arrow"
             d="M 11.500037,31.436501 C 11.940474,20.09759 22.043105,11.32322 32.158766,21.979434 L 37.068811,17.246167 C 37.068811,17.246167 37.088388,32 37.088388,32 L 22.160133,31.978069 C 22.160133,31.978069 26.997745,27.140456 26.997745,27.140456 C 18.528582,18.264221 13.291696,25.230495 11.500037,31.436501 z"
             style="fill:#404040;"/>
          </a>
         </g>
        </svg>
</svg>
