<?xml version="1.0" encoding="UTF-8" standalone="no"?>
<!DOCTYPE svg PUBLIC "-//W3C//DTD SVG 1.1//EN"
 "http://www.w3.org/Graphics/SVG/1.1/DTD/svg11.dtd">
<!-- Generated by graphviz version 8.0.5 (20230430.1635)
 -->
<!-- Title: Source/ARX/include/ARX/ARTracker.h Pages: 1 -->
<svg width="1014pt" height="305pt"
 viewBox="0.00 0.00 1014.00 304.50" xmlns="http://www.w3.org/2000/svg" xmlns:xlink="http://www.w3.org/1999/xlink">
<g id="graph0" class="graph" transform="scale(1 1) rotate(0) translate(4 300.5)">
<title>Source/ARX/include/ARX/ARTracker.h</title>
<!-- Node1 -->
<g id="node1" class="node">
<title>Node1</title>
<g id="a_node1"><a xlink:title=" ">
<polygon fill="#999999" stroke="#666666" points="400.25,-296.5 295.75,-296.5 295.75,-266 400.25,-266 400.25,-296.5"/>
<text text-anchor="start" x="303.75" y="-283" font-family="Helvetica,sans-Serif" font-size="10.00">Source/ARX/include</text>
<text text-anchor="middle" x="348" y="-271.75" font-family="Helvetica,sans-Serif" font-size="10.00">/ARX/ARTracker.h</text>
</a>
</g>
</g>
<!-- Node2 -->
<g id="node2" class="node">
<title>Node2</title>
<g id="a_node2"><a xlink:href="_a_r_tracker_8cpp.html" target="_top" xlink:title=" ">
<polygon fill="white" stroke="#666666" points="343.5,-224.38 204.5,-224.38 204.5,-205.12 343.5,-205.12 343.5,-224.38"/>
<text text-anchor="middle" x="274" y="-210.88" font-family="Helvetica,sans-Serif" font-size="10.00">Source/ARX/ARTracker.cpp</text>
</a>
</g>
</g>
<!-- Node1&#45;&gt;Node2 -->
<g id="edge1" class="edge">
<title>Node1&#45;&gt;Node2</title>
<path fill="none" stroke="#63b8ff" d="M323.28,-258.7C309.92,-247.06 294.16,-233.32 284.12,-224.57"/>
<polygon fill="#63b8ff" stroke="#63b8ff" points="320.37,-261.68 330.21,-265.61 324.97,-256.4 320.37,-261.68"/>
</g>
<!-- Node3 -->
<g id="node3" class="node">
<title>Node3</title>
<g id="a_node3"><a xlink:href="_a_r_tracker_video_8h.html" target="_top" xlink:title=" ">
<polygon fill="white" stroke="#666666" points="484.62,-230 361.38,-230 361.38,-199.5 484.62,-199.5 484.62,-230"/>
<text text-anchor="start" x="369.38" y="-216.5" font-family="Helvetica,sans-Serif" font-size="10.00">Source/ARX/include</text>
<text text-anchor="middle" x="423" y="-205.25" font-family="Helvetica,sans-Serif" font-size="10.00">/ARX/ARTrackerVideo.h</text>
</a>
</g>
</g>
<!-- Node1&#45;&gt;Node3 -->
<g id="edge2" class="edge">
<title>Node1&#45;&gt;Node3</title>
<path fill="none" stroke="#63b8ff" d="M373.27,-258.52C384.06,-249.23 396.38,-238.65 406.05,-230.33"/>
<polygon fill="#63b8ff" stroke="#63b8ff" points="371.32,-256.44 366.02,-265.61 375.88,-261.75 371.32,-256.44"/>
</g>
<!-- Node4 -->
<g id="node4" class="node">
<title>Node4</title>
<g id="a_node4"><a xlink:href="_a_r_tracker_square_8h.html" target="_top" xlink:title=" ">
<polygon fill="white" stroke="#666666" points="487.62,-163.5 358.38,-163.5 358.38,-133 487.62,-133 487.62,-163.5"/>
<text text-anchor="start" x="366.38" y="-150" font-family="Helvetica,sans-Serif" font-size="10.00">Source/ARX/include</text>
<text text-anchor="middle" x="423" y="-138.75" font-family="Helvetica,sans-Serif" font-size="10.00">/ARX/ARTrackerSquare.h</text>
</a>
</g>
</g>
<!-- Node3&#45;&gt;Node4 -->
<g id="edge3" class="edge">
<title>Node3&#45;&gt;Node4</title>
<path fill="none" stroke="#63b8ff" d="M423,-188.38C423,-180.05 423,-171.08 423,-163.83"/>
<polygon fill="#63b8ff" stroke="#63b8ff" points="419.5,-188.11 423,-198.11 426.5,-188.11 419.5,-188.11"/>
</g>
<!-- Node5 -->
<g id="node5" class="node">
<title>Node5</title>
<g id="a_node5"><a xlink:href="_a_r_tracker_square_8cpp.html" target="_top" xlink:title=" ">
<polygon fill="white" stroke="#666666" points="430.25,-91.38 259.75,-91.38 259.75,-72.12 430.25,-72.12 430.25,-91.38"/>
<text text-anchor="middle" x="345" y="-77.88" font-family="Helvetica,sans-Serif" font-size="10.00">Source/ARX/ARTrackerSquare.cpp</text>
</a>
</g>
</g>
<!-- Node4&#45;&gt;Node5 -->
<g id="edge4" class="edge">
<title>Node4&#45;&gt;Node5</title>
<path fill="none" stroke="#63b8ff" d="M396.94,-125.7C382.86,-114.06 366.25,-100.32 355.67,-91.57"/>
<polygon fill="#63b8ff" stroke="#63b8ff" points="394.36,-128.94 404.3,-132.61 398.82,-123.54 394.36,-128.94"/>
</g>
<!-- Node6 -->
<g id="node6" class="node">
<title>Node6</title>
<g id="a_node6"><a xlink:href="_a_r_controller_8h.html" target="_top" xlink:title=" ">
<polygon fill="white" stroke="#666666" points="555.38,-97 448.62,-97 448.62,-66.5 555.38,-66.5 555.38,-97"/>
<text text-anchor="start" x="456.62" y="-83.5" font-family="Helvetica,sans-Serif" font-size="10.00">Source/ARX/include</text>
<text text-anchor="middle" x="502" y="-72.25" font-family="Helvetica,sans-Serif" font-size="10.00">/ARX/ARController.h</text>
</a>
</g>
</g>
<!-- Node4&#45;&gt;Node6 -->
<g id="edge5" class="edge">
<title>Node4&#45;&gt;Node6</title>
<path fill="none" stroke="#63b8ff" d="M449.28,-125.79C460.73,-116.44 473.85,-105.73 484.14,-97.33"/>
<polygon fill="#63b8ff" stroke="#63b8ff" points="447.46,-123.58 441.93,-132.61 451.89,-129 447.46,-123.58"/>
</g>
<!-- Node7 -->
<g id="node7" class="node">
<title>Node7</title>
<g id="a_node7"><a xlink:href="_a_r_controller_8cpp.html" target="_top" xlink:title=" ">
<polygon fill="white" stroke="#666666" points="148,-24.88 0,-24.88 0,-5.63 148,-5.63 148,-24.88"/>
<text text-anchor="middle" x="74" y="-11.38" font-family="Helvetica,sans-Serif" font-size="10.00">Source/ARX/ARController.cpp</text>
</a>
</g>
</g>
<!-- Node6&#45;&gt;Node7 -->
<g id="edge6" class="edge">
<title>Node6&#45;&gt;Node7</title>
<path fill="none" stroke="#63b8ff" d="M437.69,-66.39C312.72,-44.77 278.54,-48.68 157,-30.5 146.59,-28.94 135.47,-27.13 124.86,-25.34"/>
<polygon fill="#63b8ff" stroke="#63b8ff" points="437,-70 447.45,-68.27 438.21,-63.1 437,-70"/>
</g>
<!-- Node8 -->
<g id="node8" class="node">
<title>Node8</title>
<g id="a_node8"><a xlink:href="_a_r_trackable_8cpp.html" target="_top" xlink:title=" ">
<polygon fill="white" stroke="#666666" points="315.75,-24.88 166.25,-24.88 166.25,-5.63 315.75,-5.63 315.75,-24.88"/>
<text text-anchor="middle" x="241" y="-11.38" font-family="Helvetica,sans-Serif" font-size="10.00">Source/ARX/ARTrackable.cpp</text>
</a>
</g>
</g>
<!-- Node6&#45;&gt;Node8 -->
<g id="edge7" class="edge">
<title>Node6&#45;&gt;Node8</title>
<path fill="none" stroke="#63b8ff" d="M437.8,-64.88C387.52,-52.46 319.37,-35.62 277.88,-25.36"/>
<polygon fill="#63b8ff" stroke="#63b8ff" points="436.69,-68.46 447.24,-67.46 438.37,-61.67 436.69,-68.46"/>
</g>
<!-- Node9 -->
<g id="node9" class="node">
<title>Node9</title>
<g id="a_node9"><a xlink:href="_a_r_trackable_multi_square_8cpp.html" target="_top" xlink:title=" ">
<polygon fill="white" stroke="#666666" points="485.88,-30.5 334.12,-30.5 334.12,0 485.88,0 485.88,-30.5"/>
<text text-anchor="start" x="342.12" y="-17" font-family="Helvetica,sans-Serif" font-size="10.00">Source/ARX/ARTrackableMulti</text>
<text text-anchor="middle" x="410" y="-5.75" font-family="Helvetica,sans-Serif" font-size="10.00">Square.cpp</text>
</a>
</g>
</g>
<!-- Node6&#45;&gt;Node9 -->
<g id="edge8" class="edge">
<title>Node6&#45;&gt;Node9</title>
<path fill="none" stroke="#63b8ff" d="M472.18,-59.84C458.66,-50.37 443.01,-39.39 430.79,-30.83"/>
<polygon fill="#63b8ff" stroke="#63b8ff" points="469.93,-63.24 480.12,-66.11 473.94,-57.51 469.93,-63.24"/>
</g>
<!-- Node10 -->
<g id="node10" class="node">
<title>Node10</title>
<g id="a_node10"><a xlink:href="_a_r_trackable_square_8cpp.html" target="_top" xlink:title=" ">
<polygon fill="white" stroke="#666666" points="684.12,-24.88 503.88,-24.88 503.88,-5.63 684.12,-5.63 684.12,-24.88"/>
<text text-anchor="middle" x="594" y="-11.38" font-family="Helvetica,sans-Serif" font-size="10.00">Source/ARX/ARTrackableSquare.cpp</text>
</a>
</g>
</g>
<!-- Node6&#45;&gt;Node10 -->
<g id="edge9" class="edge">
<title>Node6&#45;&gt;Node10</title>
<path fill="none" stroke="#63b8ff" d="M531.75,-59.9C548.44,-48.19 568.41,-34.19 581.15,-25.26"/>
<polygon fill="#63b8ff" stroke="#63b8ff" points="530.06,-57.51 523.88,-66.11 534.07,-63.24 530.06,-57.51"/>
</g>
<!-- Node11 -->
<g id="node11" class="node">
<title>Node11</title>
<g id="a_node11"><a xlink:href="_a_r_video_source_8cpp.html" target="_top" xlink:title=" ">
<polygon fill="white" stroke="#666666" points="864.12,-24.88 701.88,-24.88 701.88,-5.63 864.12,-5.63 864.12,-24.88"/>
<text text-anchor="middle" x="783" y="-11.38" font-family="Helvetica,sans-Serif" font-size="10.00">Source/ARX/ARVideoSource.cpp</text>
</a>
</g>
</g>
<!-- Node6&#45;&gt;Node11 -->
<g id="edge10" class="edge">
<title>Node6&#45;&gt;Node11</title>
<path fill="none" stroke="#63b8ff" d="M566.45,-65.96C620.99,-53.44 697.43,-35.89 743.39,-25.34"/>
<polygon fill="#63b8ff" stroke="#63b8ff" points="565.81,-62.74 556.85,-68.39 567.38,-69.56 565.81,-62.74"/>
</g>
<!-- Node12 -->
<g id="node12" class="node">
<title>Node12</title>
<g id="a_node12"><a xlink:href="_a_r_x__c_8cpp.html" target="_top" xlink:title=" ">
<polygon fill="white" stroke="#666666" points="1006,-24.88 882,-24.88 882,-5.63 1006,-5.63 1006,-24.88"/>
<text text-anchor="middle" x="944" y="-11.38" font-family="Helvetica,sans-Serif" font-size="10.00">Source/ARX/ARX_c.cpp</text>
</a>
</g>
</g>
<!-- Node6&#45;&gt;Node12 -->
<g id="edge11" class="edge">
<title>Node6&#45;&gt;Node12</title>
<path fill="none" stroke="#63b8ff" d="M566.17,-73.31C640.28,-64.43 765.78,-48.5 873,-30.5 882.05,-28.98 891.71,-27.17 900.9,-25.35"/>
<polygon fill="#63b8ff" stroke="#63b8ff" points="566.13,-69.91 556.61,-74.57 566.96,-76.86 566.13,-69.91"/>
</g>
</g>
</svg>
