<?xml version="1.0" encoding="UTF-8" standalone="no"?>
<!DOCTYPE svg PUBLIC "-//W3C//DTD SVG 1.1//EN"
 "http://www.w3.org/Graphics/SVG/1.1/DTD/svg11.dtd">
<!-- Generated by graphviz version 8.0.5 (20230430.1635)
 -->
<!-- Title: Source/ARX/include/ARX/ARTrackableSquare.h Pages: 1 -->
<svg width="1014pt" height="238pt"
 viewBox="0.00 0.00 1013.62 238.00" xmlns="http://www.w3.org/2000/svg" xmlns:xlink="http://www.w3.org/1999/xlink">
<g id="graph0" class="graph" transform="scale(1 1) rotate(0) translate(4 234)">
<title>Source/ARX/include/ARX/ARTrackableSquare.h</title>
<!-- Node1 -->
<g id="node1" class="node">
<title>Node1</title>
<g id="a_node1"><a xlink:title=" ">
<polygon fill="#999999" stroke="#666666" points="397.25,-230 258.25,-230 258.25,-199.5 397.25,-199.5 397.25,-230"/>
<text text-anchor="start" x="266.25" y="-216.5" font-family="Helvetica,sans-Serif" font-size="10.00">Source/ARX/include</text>
<text text-anchor="middle" x="327.75" y="-205.25" font-family="Helvetica,sans-Serif" font-size="10.00">/ARX/ARTrackableSquare.h</text>
</a>
</g>
</g>
<!-- Node2 -->
<g id="node2" class="node">
<title>Node2</title>
<g id="a_node2"><a xlink:href="_a_r_trackable_8cpp.html" target="_top" xlink:title=" ">
<polygon fill="white" stroke="#666666" points="149.5,-24.88 0,-24.88 0,-5.63 149.5,-5.63 149.5,-24.88"/>
<text text-anchor="middle" x="74.75" y="-11.38" font-family="Helvetica,sans-Serif" font-size="10.00">Source/ARX/ARTrackable.cpp</text>
</a>
</g>
</g>
<!-- Node1&#45;&gt;Node2 -->
<g id="edge1" class="edge">
<title>Node1&#45;&gt;Node2</title>
<path fill="none" stroke="#63b8ff" d="M300.65,-192.6C245.92,-149.87 124.14,-54.81 86.24,-25.22"/>
<polygon fill="#63b8ff" stroke="#63b8ff" points="298.11,-195.83 308.15,-199.23 302.42,-190.31 298.11,-195.83"/>
</g>
<!-- Node3 -->
<g id="node3" class="node">
<title>Node3</title>
<g id="a_node3"><a xlink:href="_a_r_trackable_square_8cpp.html" target="_top" xlink:title=" ">
<polygon fill="white" stroke="#666666" points="347.88,-24.88 167.62,-24.88 167.62,-5.63 347.88,-5.63 347.88,-24.88"/>
<text text-anchor="middle" x="257.75" y="-11.38" font-family="Helvetica,sans-Serif" font-size="10.00">Source/ARX/ARTrackableSquare.cpp</text>
</a>
</g>
</g>
<!-- Node1&#45;&gt;Node3 -->
<g id="edge2" class="edge">
<title>Node1&#45;&gt;Node3</title>
<path fill="none" stroke="#63b8ff" d="M318.99,-189.03C303.27,-144.67 270.97,-53.55 260.85,-25"/>
<polygon fill="#63b8ff" stroke="#63b8ff" points="315.96,-189.97 322.6,-198.23 322.56,-187.63 315.96,-189.97"/>
</g>
<!-- Node4 -->
<g id="node4" class="node">
<title>Node4</title>
<g id="a_node4"><a xlink:href="_a_r_tracker_square_8cpp.html" target="_top" xlink:title=" ">
<polygon fill="white" stroke="#666666" points="665,-91.38 494.5,-91.38 494.5,-72.12 665,-72.12 665,-91.38"/>
<text text-anchor="middle" x="579.75" y="-77.88" font-family="Helvetica,sans-Serif" font-size="10.00">Source/ARX/ARTrackerSquare.cpp</text>
</a>
</g>
</g>
<!-- Node1&#45;&gt;Node4 -->
<g id="edge3" class="edge">
<title>Node1&#45;&gt;Node4</title>
<path fill="none" stroke="#63b8ff" d="M408.04,-198.32C437.25,-190.57 469.71,-179.36 496.75,-163.5 530.05,-143.98 560.09,-108.32 573.02,-91.71"/>
<polygon fill="#63b8ff" stroke="#63b8ff" points="407.27,-195.16 398.44,-201.02 409,-201.94 407.27,-195.16"/>
</g>
<!-- Node5 -->
<g id="node5" class="node">
<title>Node5</title>
<g id="a_node5"><a xlink:href="_a_r_tracker_square_8h.html" target="_top" xlink:title=" ">
<polygon fill="white" stroke="#666666" points="487.38,-163.5 358.12,-163.5 358.12,-133 487.38,-133 487.38,-163.5"/>
<text text-anchor="start" x="366.12" y="-150" font-family="Helvetica,sans-Serif" font-size="10.00">Source/ARX/include</text>
<text text-anchor="middle" x="422.75" y="-138.75" font-family="Helvetica,sans-Serif" font-size="10.00">/ARX/ARTrackerSquare.h</text>
</a>
</g>
</g>
<!-- Node1&#45;&gt;Node5 -->
<g id="edge4" class="edge">
<title>Node1&#45;&gt;Node5</title>
<path fill="none" stroke="#63b8ff" d="M358.14,-193.11C372.19,-183.58 388.54,-172.48 401.28,-163.83"/>
<polygon fill="#63b8ff" stroke="#63b8ff" points="356.61,-190.6 350.31,-199.11 360.55,-196.39 356.61,-190.6"/>
</g>
<!-- Node5&#45;&gt;Node4 -->
<g id="edge5" class="edge">
<title>Node5&#45;&gt;Node4</title>
<path fill="none" stroke="#63b8ff" d="M468.43,-128.48C497.85,-116.4 534.77,-101.23 557.82,-91.76"/>
<polygon fill="#63b8ff" stroke="#63b8ff" points="467.3,-125.58 459.38,-132.61 469.96,-132.05 467.3,-125.58"/>
</g>
<!-- Node6 -->
<g id="node6" class="node">
<title>Node6</title>
<g id="a_node6"><a xlink:href="_a_r_controller_8h.html" target="_top" xlink:title=" ">
<polygon fill="white" stroke="#666666" points="476.12,-97 369.38,-97 369.38,-66.5 476.12,-66.5 476.12,-97"/>
<text text-anchor="start" x="377.38" y="-83.5" font-family="Helvetica,sans-Serif" font-size="10.00">Source/ARX/include</text>
<text text-anchor="middle" x="422.75" y="-72.25" font-family="Helvetica,sans-Serif" font-size="10.00">/ARX/ARController.h</text>
</a>
</g>
</g>
<!-- Node5&#45;&gt;Node6 -->
<g id="edge6" class="edge">
<title>Node5&#45;&gt;Node6</title>
<path fill="none" stroke="#63b8ff" d="M422.75,-121.88C422.75,-113.55 422.75,-104.58 422.75,-97.33"/>
<polygon fill="#63b8ff" stroke="#63b8ff" points="419.25,-121.61 422.75,-131.61 426.25,-121.61 419.25,-121.61"/>
</g>
<!-- Node6&#45;&gt;Node2 -->
<g id="edge8" class="edge">
<title>Node6&#45;&gt;Node2</title>
<path fill="none" stroke="#63b8ff" d="M358.59,-68.86C290.81,-56.3 185.41,-36.76 123.92,-25.36"/>
<polygon fill="#63b8ff" stroke="#63b8ff" points="357.67,-72.43 368.14,-70.81 358.94,-65.55 357.67,-72.43"/>
</g>
<!-- Node6&#45;&gt;Node3 -->
<g id="edge10" class="edge">
<title>Node6&#45;&gt;Node3</title>
<path fill="none" stroke="#63b8ff" d="M375.14,-62.14C344.16,-50.03 305.12,-34.77 280.8,-25.26"/>
<polygon fill="#63b8ff" stroke="#63b8ff" points="373.72,-65.73 384.31,-66.11 376.27,-59.21 373.72,-65.73"/>
</g>
<!-- Node7 -->
<g id="node7" class="node">
<title>Node7</title>
<g id="a_node7"><a xlink:href="_a_r_controller_8cpp.html" target="_top" xlink:title=" ">
<polygon fill="white" stroke="#666666" points="835.75,-24.88 687.75,-24.88 687.75,-5.63 835.75,-5.63 835.75,-24.88"/>
<text text-anchor="middle" x="761.75" y="-11.38" font-family="Helvetica,sans-Serif" font-size="10.00">Source/ARX/ARController.cpp</text>
</a>
</g>
</g>
<!-- Node6&#45;&gt;Node7 -->
<g id="edge7" class="edge">
<title>Node6&#45;&gt;Node7</title>
<path fill="none" stroke="#63b8ff" d="M487.05,-66.31C542.43,-55.3 647.13,-36.56 710.33,-25.34"/>
<polygon fill="#63b8ff" stroke="#63b8ff" points="486.44,-63.06 477.33,-68.47 487.83,-69.92 486.44,-63.06"/>
</g>
<!-- Node8 -->
<g id="node8" class="node">
<title>Node8</title>
<g id="a_node8"><a xlink:href="_a_r_trackable_multi_square_8cpp.html" target="_top" xlink:title=" ">
<polygon fill="white" stroke="#666666" points="1005.62,-30.5 853.88,-30.5 853.88,0 1005.62,0 1005.62,-30.5"/>
<text text-anchor="start" x="861.88" y="-17" font-family="Helvetica,sans-Serif" font-size="10.00">Source/ARX/ARTrackableMulti</text>
<text text-anchor="middle" x="929.75" y="-5.75" font-family="Helvetica,sans-Serif" font-size="10.00">Square.cpp</text>
</a>
</g>
</g>
<!-- Node6&#45;&gt;Node8 -->
<g id="edge9" class="edge">
<title>Node6&#45;&gt;Node8</title>
<path fill="none" stroke="#63b8ff" d="M487.24,-66.4C645.88,-41.22 689.23,-51.31 844.75,-30.5 847.72,-30.1 850.74,-29.68 853.79,-29.24"/>
<polygon fill="#63b8ff" stroke="#63b8ff" points="486.94,-63.06 477.62,-68.11 488.05,-69.97 486.94,-63.06"/>
</g>
<!-- Node9 -->
<g id="node9" class="node">
<title>Node9</title>
<g id="a_node9"><a xlink:href="_a_r_video_source_8cpp.html" target="_top" xlink:title=" ">
<polygon fill="white" stroke="#666666" points="527.88,-24.88 365.62,-24.88 365.62,-5.63 527.88,-5.63 527.88,-24.88"/>
<text text-anchor="middle" x="446.75" y="-11.38" font-family="Helvetica,sans-Serif" font-size="10.00">Source/ARX/ARVideoSource.cpp</text>
</a>
</g>
</g>
<!-- Node6&#45;&gt;Node9 -->
<g id="edge11" class="edge">
<title>Node6&#45;&gt;Node9</title>
<path fill="none" stroke="#63b8ff" d="M432.01,-55.86C436.05,-45.01 440.52,-32.99 443.47,-25.07"/>
<polygon fill="#63b8ff" stroke="#63b8ff" points="428.4,-54.52 428.2,-65.11 434.96,-56.96 428.4,-54.52"/>
</g>
<!-- Node10 -->
<g id="node10" class="node">
<title>Node10</title>
<g id="a_node10"><a xlink:href="_a_r_x__c_8cpp.html" target="_top" xlink:title=" ">
<polygon fill="white" stroke="#666666" points="669.75,-24.88 545.75,-24.88 545.75,-5.63 669.75,-5.63 669.75,-24.88"/>
<text text-anchor="middle" x="607.75" y="-11.38" font-family="Helvetica,sans-Serif" font-size="10.00">Source/ARX/ARX_c.cpp</text>
</a>
</g>
</g>
<!-- Node6&#45;&gt;Node10 -->
<g id="edge12" class="edge">
<title>Node6&#45;&gt;Node10</title>
<path fill="none" stroke="#63b8ff" d="M474.74,-62.62C509.58,-50.48 553.98,-35 581.64,-25.35"/>
<polygon fill="#63b8ff" stroke="#63b8ff" points="474.02,-59.52 465.73,-66.11 476.32,-66.13 474.02,-59.52"/>
</g>
</g>
</svg>
