<?xml version="1.0" encoding="UTF-8" standalone="no"?>
<!DOCTYPE svg PUBLIC "-//W3C//DTD SVG 1.1//EN"
 "http://www.w3.org/Graphics/SVG/1.1/DTD/svg11.dtd">
<!-- Generated by graphviz version 2.40.1 (20161225.0304)
 -->
<!-- Title: Source/ARX/ARX_c.cpp Pages: 1 -->
<svg width="1266pt" height="522pt"
 viewBox="0.00 0.00 1265.68 522.00" xmlns="http://www.w3.org/2000/svg" xmlns:xlink="http://www.w3.org/1999/xlink">
<g id="graph0" class="graph" transform="scale(1 1) rotate(0) translate(4 518)">
<title>Source/ARX/ARX_c.cpp</title>
<polygon fill="#ffffff" stroke="transparent" points="-4,4 -4,-518 1261.6772,-518 1261.6772,4 -4,4"/>
<!-- Node0 -->
<g id="node1" class="node">
<title>Node0</title>
<polygon fill="#bfbfbf" stroke="#000000" points="956.7637,-495.5 956.7637,-513.5 1080.5908,-513.5 1080.5908,-495.5 956.7637,-495.5"/>
<text text-anchor="middle" x="1018.6772" y="-501.5" font-family="Helvetica,sans-Serif" font-size="10.00" fill="#000000">Source/ARX/ARX_c.cpp</text>
</g>
<!-- Node1 -->
<g id="node2" class="node">
<title>Node1</title>
<g id="a_node2"><a xlink:href="_a_r_x__c_8h.html" target="_top" xlink:title="ARX/ARX_c.h">
<polygon fill="#ffffff" stroke="#000000" points="29.2759,-275.5 29.2759,-293.5 108.0786,-293.5 108.0786,-275.5 29.2759,-275.5"/>
<text text-anchor="middle" x="68.6772" y="-281.5" font-family="Helvetica,sans-Serif" font-size="10.00" fill="#000000">ARX/ARX_c.h</text>
</a>
</g>
</g>
<!-- Node0&#45;&gt;Node1 -->
<g id="edge1" class="edge">
<title>Node0&#45;&gt;Node1</title>
<path fill="none" stroke="#191970" d="M956.6152,-501.1019C764.5827,-490.1012 188.9421,-453.2979 121.6772,-404 88.8416,-379.935 76,-330.9245 71.2544,-303.7412"/>
<polygon fill="#191970" stroke="#191970" points="74.6678,-302.912 69.6815,-293.5639 67.75,-303.9812 74.6678,-302.912"/>
</g>
<!-- Node5 -->
<g id="node6" class="node">
<title>Node5</title>
<g id="a_node6"><a xlink:href="_a_r_controller_8h.html" target="_top" xlink:title="ARX/ARController.h">
<polygon fill="#ffffff" stroke="#000000" points="766.4902,-440.5 766.4902,-458.5 870.8643,-458.5 870.8643,-440.5 766.4902,-440.5"/>
<text text-anchor="middle" x="818.6772" y="-446.5" font-family="Helvetica,sans-Serif" font-size="10.00" fill="#000000">ARX/ARController.h</text>
</a>
</g>
</g>
<!-- Node0&#45;&gt;Node5 -->
<g id="edge5" class="edge">
<title>Node0&#45;&gt;Node5</title>
<path fill="none" stroke="#191970" d="M985.6513,-495.4179C951.6777,-486.0751 898.6169,-471.4834 861.4517,-461.263"/>
<polygon fill="#191970" stroke="#191970" points="861.99,-457.7811 851.4198,-458.5042 860.1338,-464.5306 861.99,-457.7811"/>
</g>
<!-- Node7 -->
<g id="node8" class="node">
<title>Node7</title>
<polygon fill="#ffffff" stroke="#bfbfbf" points="1024.9458,-.5 1024.9458,-18.5 1070.4087,-18.5 1070.4087,-.5 1024.9458,-.5"/>
<text text-anchor="middle" x="1047.6772" y="-6.5" font-family="Helvetica,sans-Serif" font-size="10.00" fill="#000000">stdio.h</text>
</g>
<!-- Node0&#45;&gt;Node7 -->
<g id="edge79" class="edge">
<title>Node0&#45;&gt;Node7</title>
<path fill="none" stroke="#191970" d="M1056.2839,-495.4669C1123.5896,-478.1959 1257.6772,-438.2927 1257.6772,-394.5 1257.6772,-394.5 1257.6772,-394.5 1257.6772,-174.5 1257.6772,-111.7951 1231.9161,-93.8257 1182.6772,-55 1174.4224,-48.4909 1117.5889,-30.5593 1080.3421,-19.2479"/>
<polygon fill="#191970" stroke="#191970" points="1080.9976,-15.7898 1070.4126,-16.2481 1078.9731,-22.4907 1080.9976,-15.7898"/>
</g>
<!-- Node28 -->
<g id="node29" class="node">
<title>Node28</title>
<polygon fill="#ffffff" stroke="#bfbfbf" points="1009.5493,-220.5 1009.5493,-238.5 1067.8052,-238.5 1067.8052,-220.5 1009.5493,-220.5"/>
<text text-anchor="middle" x="1038.6772" y="-226.5" font-family="Helvetica,sans-Serif" font-size="10.00" fill="#000000">pthread.h</text>
</g>
<!-- Node0&#45;&gt;Node28 -->
<g id="edge80" class="edge">
<title>Node0&#45;&gt;Node28</title>
<path fill="none" stroke="#191970" d="M1033.6213,-495.348C1057.1887,-479.924 1102.1122,-446.2574 1119.6772,-404 1144.1551,-345.1119 1087.0598,-276.9943 1056.457,-246.1737"/>
<polygon fill="#191970" stroke="#191970" points="1058.5587,-243.3331 1048.9647,-238.8379 1053.6614,-248.3348 1058.5587,-243.3331"/>
</g>
<!-- Node2 -->
<g id="node3" class="node">
<title>Node2</title>
<g id="a_node3"><a xlink:href="_platform_8h.html" target="_top" xlink:title="ARX/Platform.h">
<polygon fill="#ffffff" stroke="#000000" points="563.2217,-220.5 563.2217,-238.5 648.1328,-238.5 648.1328,-220.5 563.2217,-220.5"/>
<text text-anchor="middle" x="605.6772" y="-226.5" font-family="Helvetica,sans-Serif" font-size="10.00" fill="#000000">ARX/Platform.h</text>
</a>
</g>
</g>
<!-- Node1&#45;&gt;Node2 -->
<g id="edge2" class="edge">
<title>Node1&#45;&gt;Node2</title>
<path fill="none" stroke="#191970" d="M108.2371,-280.5509C186.3324,-272.7398 365.8281,-254.7111 516.6772,-239 528.3921,-237.7799 540.9719,-236.4495 552.8776,-235.181"/>
<polygon fill="#191970" stroke="#191970" points="553.5561,-238.6286 563.128,-234.0866 552.8129,-231.6681 553.5561,-238.6286"/>
</g>
<!-- Node3 -->
<g id="node4" class="node">
<title>Node3</title>
<g id="a_node4"><a xlink:href="_error_8h.html" target="_top" xlink:title="Defines error codes used in the ARX library. ">
<polygon fill="#ffffff" stroke="#000000" points="0,-220.5 0,-238.5 69.3545,-238.5 69.3545,-220.5 0,-220.5"/>
<text text-anchor="middle" x="34.6772" y="-226.5" font-family="Helvetica,sans-Serif" font-size="10.00" fill="#000000">ARX/Error.h</text>
</a>
</g>
</g>
<!-- Node1&#45;&gt;Node3 -->
<g id="edge3" class="edge">
<title>Node1&#45;&gt;Node3</title>
<path fill="none" stroke="#191970" d="M63.0628,-275.4179C58.3664,-267.8207 51.5244,-256.7527 45.7344,-247.3866"/>
<polygon fill="#191970" stroke="#191970" points="48.649,-245.445 40.4136,-238.7795 42.6948,-249.1258 48.649,-245.445"/>
</g>
<!-- Node4 -->
<g id="node5" class="node">
<title>Node4</title>
<polygon fill="#ffffff" stroke="#bfbfbf" points="97.5566,-55.5 97.5566,-73.5 145.7979,-73.5 145.7979,-55.5 97.5566,-55.5"/>
<text text-anchor="middle" x="121.6772" y="-61.5" font-family="Helvetica,sans-Serif" font-size="10.00" fill="#000000">stdint.h</text>
</g>
<!-- Node1&#45;&gt;Node4 -->
<g id="edge4" class="edge">
<title>Node1&#45;&gt;Node4</title>
<path fill="none" stroke="#191970" d="M70.8871,-275.327C78.8506,-242.271 106.1825,-128.8179 117.1097,-83.4598"/>
<polygon fill="#191970" stroke="#191970" points="120.5184,-84.2538 119.4579,-73.7122 113.7131,-82.6143 120.5184,-84.2538"/>
</g>
<!-- Node5&#45;&gt;Node2 -->
<g id="edge6" class="edge">
<title>Node5&#45;&gt;Node2</title>
<path fill="none" stroke="#191970" d="M795.7206,-440.3677C774.9215,-431.812 743.647,-418.2389 717.6772,-404 665.0374,-375.1383 658.6395,-356.3064 604.6772,-330 559.9545,-308.1978 527.6548,-334.4445 498.6772,-294 480.2594,-268.2938 517.5234,-250.9476 553.0208,-240.7767"/>
<polygon fill="#191970" stroke="#191970" points="554.1973,-244.0844 562.9383,-238.0972 552.3715,-237.3267 554.1973,-244.0844"/>
</g>
<!-- Node5&#45;&gt;Node4 -->
<g id="edge75" class="edge">
<title>Node5&#45;&gt;Node4</title>
<path fill="none" stroke="#191970" d="M766.3745,-449.1034C618.9869,-447.5427 207.8206,-439.9764 159.6772,-404 135.1758,-385.6906 135.6772,-370.0869 135.6772,-339.5 135.6772,-339.5 135.6772,-339.5 135.6772,-174.5 135.6772,-142.3684 129.7262,-105.3768 125.584,-83.5207"/>
<polygon fill="#191970" stroke="#191970" points="128.9919,-82.7112 123.6239,-73.5769 122.124,-84.065 128.9919,-82.7112"/>
</g>
<!-- Node6 -->
<g id="node7" class="node">
<title>Node6</title>
<g id="a_node7"><a xlink:href="ar_8h.html" target="_top" xlink:title="artoolkitX core routines. ">
<polygon fill="#ffffff" stroke="#000000" points="635.3301,-110.5 635.3301,-128.5 708.0244,-128.5 708.0244,-110.5 635.3301,-110.5"/>
<text text-anchor="middle" x="671.6772" y="-116.5" font-family="Helvetica,sans-Serif" font-size="10.00" fill="#000000">ARX/AR/ar.h</text>
</a>
</g>
</g>
<!-- Node5&#45;&gt;Node6 -->
<g id="edge7" class="edge">
<title>Node5&#45;&gt;Node6</title>
<path fill="none" stroke="#191970" d="M824.1519,-440.0736C842.0475,-408.7695 897.0832,-308.3677 886.6772,-275 862.0955,-196.1763 766.5405,-151.5018 711.4463,-131.7975"/>
<polygon fill="#191970" stroke="#191970" points="712.579,-128.4859 701.9842,-128.5164 710.2855,-135.0995 712.579,-128.4859"/>
</g>
<!-- Node5&#45;&gt;Node7 -->
<g id="edge73" class="edge">
<title>Node5&#45;&gt;Node7</title>
<path fill="none" stroke="#191970" d="M871.0729,-442.3912C971.5987,-425.4941 1181.6772,-373.0142 1181.6772,-229.5 1181.6772,-229.5 1181.6772,-229.5 1181.6772,-119.5 1181.6772,-89.6154 1182.8337,-77.0636 1162.6772,-55 1151.2275,-42.467 1110.0471,-28.0573 1080.2321,-18.871"/>
<polygon fill="#191970" stroke="#191970" points="1081.2009,-15.5075 1070.616,-15.9661 1079.1766,-22.2084 1081.2009,-15.5075"/>
</g>
<!-- Node8 -->
<g id="node9" class="node">
<title>Node8</title>
<polygon fill="#ffffff" stroke="#bfbfbf" points="799.835,-.5 799.835,-18.5 847.5195,-18.5 847.5195,-.5 799.835,-.5"/>
<text text-anchor="middle" x="823.6772" y="-6.5" font-family="Helvetica,sans-Serif" font-size="10.00" fill="#000000">stdlib.h</text>
</g>
<!-- Node5&#45;&gt;Node8 -->
<g id="edge74" class="edge">
<title>Node5&#45;&gt;Node8</title>
<path fill="none" stroke="#191970" d="M869.6699,-440.4827C900.3792,-433.5724 939.4494,-422.0817 970.6772,-404 1094.0081,-332.5883 1189.0293,-220.2118 1098.6772,-110 1046.9537,-46.9074 993.9187,-105.5393 918.6772,-74 889.6054,-61.8138 860.2028,-40.0736 841.9696,-25.2313"/>
<polygon fill="#191970" stroke="#191970" points="843.8918,-22.2775 833.9664,-18.5712 839.4142,-27.6581 843.8918,-22.2775"/>
</g>
<!-- Node9 -->
<g id="node10" class="node">
<title>Node9</title>
<polygon fill="#ffffff" stroke="#bfbfbf" points="194.2808,-.5 194.2808,-18.5 243.0737,-18.5 243.0737,-.5 194.2808,-.5"/>
<text text-anchor="middle" x="218.6772" y="-6.5" font-family="Helvetica,sans-Serif" font-size="10.00" fill="#000000">string.h</text>
</g>
<!-- Node5&#45;&gt;Node9 -->
<g id="edge77" class="edge">
<title>Node5&#45;&gt;Node9</title>
<path fill="none" stroke="#191970" d="M766.444,-447.5729C632.1399,-442.3164 281.9958,-426.5964 234.6772,-404 199.0725,-386.9974 173.6772,-378.9562 173.6772,-339.5 173.6772,-339.5 173.6772,-339.5 173.6772,-119.5 173.6772,-84.7875 193.1112,-48.1934 206.4365,-27.1819"/>
<polygon fill="#191970" stroke="#191970" points="209.4548,-28.9625 212.0373,-18.6872 203.6107,-25.1093 209.4548,-28.9625"/>
</g>
<!-- Node17 -->
<g id="node18" class="node">
<title>Node17</title>
<polygon fill="#ffffff" stroke="#bfbfbf" points="1093.3916,-.5 1093.3916,-18.5 1139.9629,-18.5 1139.9629,-.5 1093.3916,-.5"/>
<text text-anchor="middle" x="1116.6772" y="-6.5" font-family="Helvetica,sans-Serif" font-size="10.00" fill="#000000">math.h</text>
</g>
<!-- Node5&#45;&gt;Node17 -->
<g id="edge76" class="edge">
<title>Node5&#45;&gt;Node17</title>
<path fill="none" stroke="#191970" d="M871.101,-444.9504C979.7968,-432.3483 1219.6772,-386.7261 1219.6772,-229.5 1219.6772,-229.5 1219.6772,-229.5 1219.6772,-174.5 1219.6772,-118.9014 1215.6008,-99.8023 1182.6772,-55 1173.0612,-41.9146 1158.5003,-31.3053 1145.4995,-23.6334"/>
<polygon fill="#191970" stroke="#191970" points="1146.8422,-20.3752 1136.4018,-18.5728 1143.4394,-26.4925 1146.8422,-20.3752"/>
</g>
<!-- Node22 -->
<g id="node23" class="node">
<title>Node22</title>
<g id="a_node23"><a xlink:href="_a_r_video_source_8h.html" target="_top" xlink:title="ARX/ARVideoSource.h">
<polygon fill="#ffffff" stroke="#000000" points="759.437,-275.5 759.437,-293.5 877.9175,-293.5 877.9175,-275.5 759.437,-275.5"/>
<text text-anchor="middle" x="818.6772" y="-281.5" font-family="Helvetica,sans-Serif" font-size="10.00" fill="#000000">ARX/ARVideoSource.h</text>
</a>
</g>
</g>
<!-- Node5&#45;&gt;Node22 -->
<g id="edge31" class="edge">
<title>Node5&#45;&gt;Node22</title>
<path fill="none" stroke="#191970" d="M818.6772,-440.1561C818.6772,-413.9504 818.6772,-339.3557 818.6772,-303.8021"/>
<polygon fill="#191970" stroke="#191970" points="822.1773,-303.7414 818.6772,-293.7414 815.1773,-303.7414 822.1773,-303.7414"/>
</g>
<!-- Node5&#45;&gt;Node28 -->
<g id="edge78" class="edge">
<title>Node5&#45;&gt;Node28</title>
<path fill="none" stroke="#191970" d="M854.4536,-440.4435C897.8722,-427.5586 970.1636,-399.6768 1009.6772,-349 1032.6724,-319.5084 1037.7763,-274.4248 1038.707,-248.8959"/>
<polygon fill="#191970" stroke="#191970" points="1042.2104,-248.7297 1038.8902,-238.6686 1035.2115,-248.6043 1042.2104,-248.7297"/>
</g>
<!-- Node29 -->
<g id="node30" class="node">
<title>Node29</title>
<g id="a_node30"><a xlink:href="_a_r_video_view_8h.html" target="_top" xlink:title="ARX/ARVideoView.h">
<polygon fill="#ffffff" stroke="#000000" points="892.8032,-330.5 892.8032,-348.5 1000.5513,-348.5 1000.5513,-330.5 892.8032,-330.5"/>
<text text-anchor="middle" x="946.6772" y="-336.5" font-family="Helvetica,sans-Serif" font-size="10.00" fill="#000000">ARX/ARVideoView.h</text>
</a>
</g>
</g>
<!-- Node5&#45;&gt;Node29 -->
<g id="edge43" class="edge">
<title>Node5&#45;&gt;Node29</title>
<path fill="none" stroke="#191970" d="M831.4009,-440.4787C843.7664,-431.5669 862.9311,-417.3682 878.6772,-404 897.1343,-388.3303 917.1084,-369.0858 930.6006,-355.7158"/>
<polygon fill="#191970" stroke="#191970" points="933.1303,-358.136 937.7351,-348.5941 928.185,-353.1818 933.1303,-358.136"/>
</g>
<!-- Node31 -->
<g id="node32" class="node">
<title>Node31</title>
<g id="a_node32"><a xlink:href="_a_r_tracker_square_8h.html" target="_top" xlink:title="ARX/ARTrackerSquare.h">
<polygon fill="#ffffff" stroke="#000000" points="468.0938,-385.5 468.0938,-403.5 595.2607,-403.5 595.2607,-385.5 468.0938,-385.5"/>
<text text-anchor="middle" x="531.6772" y="-391.5" font-family="Helvetica,sans-Serif" font-size="10.00" fill="#000000">ARX/ARTrackerSquare.h</text>
</a>
</g>
</g>
<!-- Node5&#45;&gt;Node31 -->
<g id="edge49" class="edge">
<title>Node5&#45;&gt;Node31</title>
<path fill="none" stroke="#191970" d="M771.6064,-440.4795C721.5584,-430.8884 642.3844,-415.7156 588.8005,-405.447"/>
<polygon fill="#191970" stroke="#191970" points="589.2538,-401.9702 578.7738,-403.5255 587.9363,-408.8451 589.2538,-401.9702"/>
</g>
<!-- Node33 -->
<g id="node34" class="node">
<title>Node33</title>
<g id="a_node34"><a xlink:href="_a_r_trackable_8h.html" target="_top" xlink:title="ARX/ARTrackable.h">
<polygon fill="#ffffff" stroke="#000000" points="344.2095,-220.5 344.2095,-238.5 449.145,-238.5 449.145,-220.5 344.2095,-220.5"/>
<text text-anchor="middle" x="396.6772" y="-226.5" font-family="Helvetica,sans-Serif" font-size="10.00" fill="#000000">ARX/ARTrackable.h</text>
</a>
</g>
</g>
<!-- Node5&#45;&gt;Node33 -->
<g id="edge70" class="edge">
<title>Node5&#45;&gt;Node33</title>
<path fill="none" stroke="#191970" d="M766.4389,-447.8868C647.4184,-442.93 362.3804,-423.3719 310.6772,-349 284.1583,-310.8541 338.6474,-266.6362 372.4823,-244.1974"/>
<polygon fill="#191970" stroke="#191970" points="374.4717,-247.0793 380.9856,-238.7235 370.6827,-241.1934 374.4717,-247.0793"/>
</g>
<!-- Node36 -->
<g id="node37" class="node">
<title>Node36</title>
<polygon fill="#ffffff" stroke="#bfbfbf" points="231.6206,-110.5 231.6206,-128.5 283.7339,-128.5 283.7339,-110.5 231.6206,-110.5"/>
<text text-anchor="middle" x="257.6772" y="-116.5" font-family="Helvetica,sans-Serif" font-size="10.00" fill="#000000">memory</text>
</g>
<!-- Node5&#45;&gt;Node36 -->
<g id="edge72" class="edge">
<title>Node5&#45;&gt;Node36</title>
<path fill="none" stroke="#191970" d="M766.3,-446.3379C662.9351,-439.7626 436.1863,-423.5846 360.6772,-404 290.8278,-385.8833 211.6772,-411.6607 211.6772,-339.5 211.6772,-339.5 211.6772,-339.5 211.6772,-229.5 211.6772,-194.6758 231.5431,-158.1168 245.1645,-137.1425"/>
<polygon fill="#191970" stroke="#191970" points="248.1938,-138.9107 250.8898,-128.6646 242.3927,-134.9931 248.1938,-138.9107"/>
</g>
<!-- Node37 -->
<g id="node38" class="node">
<title>Node37</title>
<polygon fill="#ffffff" stroke="#bfbfbf" points="584.0615,-165.5 584.0615,-183.5 627.293,-183.5 627.293,-165.5 584.0615,-165.5"/>
<text text-anchor="middle" x="605.6772" y="-171.5" font-family="Helvetica,sans-Serif" font-size="10.00" fill="#000000">vector</text>
</g>
<!-- Node5&#45;&gt;Node37 -->
<g id="edge71" class="edge">
<title>Node5&#45;&gt;Node37</title>
<path fill="none" stroke="#191970" d="M813.1846,-440.1991C793.9237,-407.9483 726.8098,-298.605 656.6772,-220 647.0496,-209.2093 635.0299,-198.3805 625.0779,-189.9956"/>
<polygon fill="#191970" stroke="#191970" points="627.2437,-187.245 617.3023,-183.5815 622.7893,-192.6449 627.2437,-187.245"/>
</g>
<!-- Node6&#45;&gt;Node4 -->
<g id="edge10" class="edge">
<title>Node6&#45;&gt;Node4</title>
<path fill="none" stroke="#191970" d="M635.1643,-115.8487C534.4673,-105.779 253.811,-77.7134 155.901,-67.9224"/>
<polygon fill="#191970" stroke="#191970" points="156.2424,-64.4391 145.9437,-66.9266 155.5458,-71.4044 156.2424,-64.4391"/>
</g>
<!-- Node6&#45;&gt;Node7 -->
<g id="edge8" class="edge">
<title>Node6&#45;&gt;Node7</title>
<path fill="none" stroke="#191970" d="M708.4644,-111.459C711.2383,-110.937 713.9989,-110.4436 716.6772,-110 782.4844,-99.1004 959.9677,-112.1608 1014.6772,-74 1029.9524,-63.3454 1038.597,-43.4394 1043.1712,-28.5476"/>
<polygon fill="#191970" stroke="#191970" points="1046.5768,-29.3619 1045.8192,-18.7942 1039.8213,-27.5278 1046.5768,-29.3619"/>
</g>
<!-- Node6&#45;&gt;Node8 -->
<g id="edge9" class="edge">
<title>Node6&#45;&gt;Node8</title>
<path fill="none" stroke="#191970" d="M708.0623,-111.0518C742.5961,-102.3482 791.1733,-88.0997 804.6772,-74 816.273,-61.8927 820.8381,-43.0716 822.6114,-28.8792"/>
<polygon fill="#191970" stroke="#191970" points="826.1164,-28.977 823.5161,-18.7063 819.144,-28.3569 826.1164,-28.977"/>
</g>
<!-- Node6&#45;&gt;Node9 -->
<g id="edge11" class="edge">
<title>Node6&#45;&gt;Node9</title>
<path fill="none" stroke="#191970" d="M635.1078,-118.1046C551.3436,-114.4429 348.0773,-102.7795 286.6772,-74 264.0154,-63.3779 244.0376,-42.2357 231.6994,-27.0495"/>
<polygon fill="#191970" stroke="#191970" points="234.267,-24.6506 225.3551,-18.9209 228.7488,-28.9575 234.267,-24.6506"/>
</g>
<!-- Node10 -->
<g id="node11" class="node">
<title>Node10</title>
<polygon fill="#ffffff" stroke="#bfbfbf" points="630.1602,-.5 630.1602,-18.5 721.1943,-18.5 721.1943,-.5 630.1602,-.5"/>
<text text-anchor="middle" x="675.6772" y="-6.5" font-family="Helvetica,sans-Serif" font-size="10.00" fill="#000000">ARX/AR/config.h</text>
</g>
<!-- Node6&#45;&gt;Node10 -->
<g id="edge12" class="edge">
<title>Node6&#45;&gt;Node10</title>
<path fill="none" stroke="#191970" d="M672.0046,-110.4982C672.6521,-92.6913 674.1092,-52.6225 674.9808,-28.6515"/>
<polygon fill="#191970" stroke="#191970" points="678.4796,-28.7468 675.3454,-18.6261 671.4842,-28.4923 678.4796,-28.7468"/>
</g>
<!-- Node11 -->
<g id="node12" class="node">
<title>Node11</title>
<g id="a_node12"><a xlink:href="ar_config_8h.html" target="_top" xlink:title="ARX/AR/arConfig.h">
<polygon fill="#ffffff" stroke="#000000" points="545.6035,-55.5 545.6035,-73.5 647.751,-73.5 647.751,-55.5 545.6035,-55.5"/>
<text text-anchor="middle" x="596.6772" y="-61.5" font-family="Helvetica,sans-Serif" font-size="10.00" fill="#000000">ARX/AR/arConfig.h</text>
</a>
</g>
</g>
<!-- Node6&#45;&gt;Node11 -->
<g id="edge13" class="edge">
<title>Node6&#45;&gt;Node11</title>
<path fill="none" stroke="#191970" d="M659.2925,-110.4179C647.8932,-102.0584 630.7636,-89.4966 617.3008,-79.6239"/>
<polygon fill="#191970" stroke="#191970" points="619.2142,-76.6869 609.0804,-73.5956 615.0747,-82.3317 619.2142,-76.6869"/>
</g>
<!-- Node12 -->
<g id="node13" class="node">
<title>Node12</title>
<g id="a_node13"><a xlink:href="log_8h.html" target="_top" xlink:title="Logging utilities. ">
<polygon fill="#ffffff" stroke="#000000" points="295.6084,-55.5 295.6084,-73.5 387.7461,-73.5 387.7461,-55.5 295.6084,-55.5"/>
<text text-anchor="middle" x="341.6772" y="-61.5" font-family="Helvetica,sans-Serif" font-size="10.00" fill="#000000">ARX/ARUtil/log.h</text>
</a>
</g>
</g>
<!-- Node6&#45;&gt;Node12 -->
<g id="edge14" class="edge">
<title>Node6&#45;&gt;Node12</title>
<path fill="none" stroke="#191970" d="M635.1872,-113.5468C584.3579,-105.2357 489.0885,-89.5916 397.8426,-74.1884"/>
<polygon fill="#191970" stroke="#191970" points="398.3301,-70.7213 387.8867,-72.506 397.1637,-77.6234 398.3301,-70.7213"/>
</g>
<!-- Node16 -->
<g id="node17" class="node">
<title>Node16</title>
<g id="a_node17"><a xlink:href="matrix_8h.html" target="_top" xlink:title="ARX/AR/matrix.h">
<polygon fill="#ffffff" stroke="#000000" points="1061.8916,-55.5 1061.8916,-73.5 1153.4629,-73.5 1153.4629,-55.5 1061.8916,-55.5"/>
<text text-anchor="middle" x="1107.6772" y="-61.5" font-family="Helvetica,sans-Serif" font-size="10.00" fill="#000000">ARX/AR/matrix.h</text>
</a>
</g>
</g>
<!-- Node6&#45;&gt;Node16 -->
<g id="edge21" class="edge">
<title>Node6&#45;&gt;Node16</title>
<path fill="none" stroke="#191970" d="M708.4586,-111.4231C711.2338,-110.9093 713.9963,-110.4277 716.6772,-110 862.8081,-86.6879 900.9993,-93.5766 1047.6772,-74 1048.9709,-73.8273 1050.2797,-73.6492 1051.5991,-73.4664"/>
<polygon fill="#191970" stroke="#191970" points="1052.449,-76.8803 1061.8485,-71.9915 1051.4519,-69.9516 1052.449,-76.8803"/>
</g>
<!-- Node18 -->
<g id="node19" class="node">
<title>Node18</title>
<g id="a_node19"><a xlink:href="icp_8h.html" target="_top" xlink:title="ARX/AR/icp.h">
<polygon fill="#ffffff" stroke="#000000" points="928.1108,-55.5 928.1108,-73.5 1005.2437,-73.5 1005.2437,-55.5 928.1108,-55.5"/>
<text text-anchor="middle" x="966.6772" y="-61.5" font-family="Helvetica,sans-Serif" font-size="10.00" fill="#000000">ARX/AR/icp.h</text>
</a>
</g>
</g>
<!-- Node6&#45;&gt;Node18 -->
<g id="edge23" class="edge">
<title>Node6&#45;&gt;Node18</title>
<path fill="none" stroke="#191970" d="M708.4971,-111.6392C711.2634,-111.0755 714.0134,-110.5235 716.6772,-110 786.5359,-96.2717 867.6674,-81.7702 918.0971,-72.926"/>
<polygon fill="#191970" stroke="#191970" points="918.8222,-76.3524 928.0691,-71.1808 917.6154,-69.4572 918.8222,-76.3524"/>
</g>
<!-- Node20 -->
<g id="node21" class="node">
<title>Node20</title>
<g id="a_node21"><a xlink:href="param_8h.html" target="_top" xlink:title="artoolkitX functions for handling calibrated camera parameters. ">
<polygon fill="#ffffff" stroke="#000000" points="703.3301,-55.5 703.3301,-73.5 796.0244,-73.5 796.0244,-55.5 703.3301,-55.5"/>
<text text-anchor="middle" x="749.6772" y="-61.5" font-family="Helvetica,sans-Serif" font-size="10.00" fill="#000000">ARX/AR/param.h</text>
</a>
</g>
</g>
<!-- Node6&#45;&gt;Node20 -->
<g id="edge26" class="edge">
<title>Node6&#45;&gt;Node20</title>
<path fill="none" stroke="#191970" d="M679.391,-110.4179C689.7078,-101.8992 707.6875,-89.0166 722.988,-79.0627"/>
<polygon fill="#191970" stroke="#191970" points="725.0383,-81.907 731.6089,-73.5956 721.2894,-75.9955 725.0383,-81.907"/>
</g>
<!-- Node21 -->
<g id="node22" class="node">
<title>Node21</title>
<g id="a_node22"><a xlink:href="ar_image_proc_8h.html" target="_top" xlink:title="artoolkitX functions for 2D luminance image processing. ">
<polygon fill="#ffffff" stroke="#000000" points="405.8794,-55.5 405.8794,-73.5 527.4751,-73.5 527.4751,-55.5 405.8794,-55.5"/>
<text text-anchor="middle" x="466.6772" y="-61.5" font-family="Helvetica,sans-Serif" font-size="10.00" fill="#000000">ARX/AR/arImageProc.h</text>
</a>
</g>
</g>
<!-- Node6&#45;&gt;Node21 -->
<g id="edge28" class="edge">
<title>Node6&#45;&gt;Node21</title>
<path fill="none" stroke="#191970" d="M635.0592,-111.0268C598.4108,-101.7447 542.4618,-86.7903 505.1757,-76.3488"/>
<polygon fill="#191970" stroke="#191970" points="505.7601,-72.8771 495.1855,-73.5318 503.8603,-79.6144 505.7601,-72.8771"/>
</g>
<!-- Node12&#45;&gt;Node7 -->
<g id="edge15" class="edge">
<title>Node12&#45;&gt;Node7</title>
<path fill="none" stroke="#191970" d="M387.8361,-56.1378C390.8229,-55.7172 393.7893,-55.3323 396.6772,-55 667.1048,-23.8819 742.3998,-65.49 1014.5751,-18.7662"/>
<polygon fill="#191970" stroke="#191970" points="1015.5053,-22.157 1024.7566,-16.9932 1014.3044,-15.2607 1015.5053,-22.157"/>
</g>
<!-- Node12&#45;&gt;Node8 -->
<g id="edge16" class="edge">
<title>Node12&#45;&gt;Node8</title>
<path fill="none" stroke="#191970" d="M387.8567,-56.2998C390.8385,-55.8396 393.7981,-55.4016 396.6772,-55 435.2472,-49.6198 695.3156,-22.7109 789.6137,-13.001"/>
<polygon fill="#191970" stroke="#191970" points="790.1664,-16.4627 799.7554,-11.9572 789.4496,-9.4995 790.1664,-16.4627"/>
</g>
<!-- Node12&#45;&gt;Node9 -->
<g id="edge17" class="edge">
<title>Node12&#45;&gt;Node9</title>
<path fill="none" stroke="#191970" d="M321.3663,-55.4179C301.4251,-46.5011 270.7913,-32.803 248.1688,-22.6873"/>
<polygon fill="#191970" stroke="#191970" points="249.576,-19.4826 239.0184,-18.5956 246.7186,-25.8728 249.576,-19.4826"/>
</g>
<!-- Node13 -->
<g id="node14" class="node">
<title>Node13</title>
<polygon fill="#ffffff" stroke="#bfbfbf" points="260.6108,-.5 260.6108,-18.5 312.7437,-18.5 312.7437,-.5 260.6108,-.5"/>
<text text-anchor="middle" x="286.6772" y="-6.5" font-family="Helvetica,sans-Serif" font-size="10.00" fill="#000000">stdarg.h</text>
</g>
<!-- Node12&#45;&gt;Node13 -->
<g id="edge18" class="edge">
<title>Node12&#45;&gt;Node13</title>
<path fill="none" stroke="#191970" d="M332.5951,-55.4179C324.6022,-47.425 312.7676,-35.5903 303.115,-25.9377"/>
<polygon fill="#191970" stroke="#191970" points="305.5027,-23.3757 295.9567,-18.7795 300.5529,-28.3254 305.5027,-23.3757"/>
</g>
<!-- Node14 -->
<g id="node15" class="node">
<title>Node14</title>
<polygon fill="#ffffff" stroke="#bfbfbf" points="330.9458,-.5 330.9458,-18.5 396.4087,-18.5 396.4087,-.5 330.9458,-.5"/>
<text text-anchor="middle" x="363.6772" y="-6.5" font-family="Helvetica,sans-Serif" font-size="10.00" fill="#000000">sys/errno.h</text>
</g>
<!-- Node12&#45;&gt;Node14 -->
<g id="edge19" class="edge">
<title>Node12&#45;&gt;Node14</title>
<path fill="none" stroke="#191970" d="M345.3101,-55.4179C348.254,-48.0581 352.5008,-37.441 356.1694,-28.2695"/>
<polygon fill="#191970" stroke="#191970" points="359.5012,-29.3641 359.9655,-18.7795 353.0018,-26.7643 359.5012,-29.3641"/>
</g>
<!-- Node15 -->
<g id="node16" class="node">
<title>Node15</title>
<g id="a_node16"><a xlink:href="types_8h.html" target="_top" xlink:title="ARX/ARUtil/types.h">
<polygon fill="#ffffff" stroke="#000000" points="414.3301,-.5 414.3301,-18.5 517.0244,-18.5 517.0244,-.5 414.3301,-.5"/>
<text text-anchor="middle" x="465.6772" y="-6.5" font-family="Helvetica,sans-Serif" font-size="10.00" fill="#000000">ARX/ARUtil/types.h</text>
</a>
</g>
</g>
<!-- Node12&#45;&gt;Node15 -->
<g id="edge20" class="edge">
<title>Node12&#45;&gt;Node15</title>
<path fill="none" stroke="#191970" d="M362.1533,-55.4179C382.2566,-46.5011 413.1395,-32.803 435.946,-22.6873"/>
<polygon fill="#191970" stroke="#191970" points="437.4487,-25.8496 445.1707,-18.5956 434.6105,-19.4508 437.4487,-25.8496"/>
</g>
<!-- Node16&#45;&gt;Node17 -->
<g id="edge22" class="edge">
<title>Node16&#45;&gt;Node17</title>
<path fill="none" stroke="#191970" d="M1109.1634,-55.4179C1110.3418,-48.2164 1112.0306,-37.8962 1113.5087,-28.8632"/>
<polygon fill="#191970" stroke="#191970" points="1116.9979,-29.2134 1115.1588,-18.7795 1110.0898,-28.083 1116.9979,-29.2134"/>
</g>
<!-- Node18&#45;&gt;Node7 -->
<g id="edge24" class="edge">
<title>Node18&#45;&gt;Node7</title>
<path fill="none" stroke="#191970" d="M980.0527,-55.4179C992.4812,-46.9788 1011.217,-34.257 1025.8182,-24.3426"/>
<polygon fill="#191970" stroke="#191970" points="1027.9749,-27.1088 1034.2819,-18.5956 1024.0426,-21.3176 1027.9749,-27.1088"/>
</g>
<!-- Node19 -->
<g id="node20" class="node">
<title>Node19</title>
<g id="a_node20"><a xlink:href="icp_core_8h.html" target="_top" xlink:title="ARX/AR/icpCore.h">
<polygon fill="#ffffff" stroke="#000000" points="908.2734,-.5 908.2734,-18.5 1007.0811,-18.5 1007.0811,-.5 908.2734,-.5"/>
<text text-anchor="middle" x="957.6772" y="-6.5" font-family="Helvetica,sans-Serif" font-size="10.00" fill="#000000">ARX/AR/icpCore.h</text>
</a>
</g>
</g>
<!-- Node18&#45;&gt;Node19 -->
<g id="edge25" class="edge">
<title>Node18&#45;&gt;Node19</title>
<path fill="none" stroke="#191970" d="M965.1911,-55.4179C964.0127,-48.2164 962.3239,-37.8962 960.8458,-28.8632"/>
<polygon fill="#191970" stroke="#191970" points="964.2647,-28.083 959.1957,-18.7795 957.3566,-29.2134 964.2647,-28.083"/>
</g>
<!-- Node20&#45;&gt;Node6 -->
<g id="edge27" class="edge">
<title>Node20&#45;&gt;Node6</title>
<path fill="none" stroke="#191970" d="M741.7241,-73.7795C731.3525,-82.3135 713.4881,-95.1038 698.2884,-104.9881"/>
<polygon fill="#191970" stroke="#191970" points="696.2954,-102.1074 689.7237,-110.4179 700.0435,-108.0195 696.2954,-102.1074"/>
</g>
<!-- Node21&#45;&gt;Node6 -->
<g id="edge30" class="edge">
<title>Node21&#45;&gt;Node6</title>
<path fill="none" stroke="#191970" d="M505.3885,-73.5042C542.0472,-82.8177 596.5967,-97.4068 633.1799,-107.6515"/>
<polygon fill="#191970" stroke="#191970" points="632.4174,-111.073 642.992,-110.4179 634.3169,-104.3356 632.4174,-111.073"/>
</g>
<!-- Node21&#45;&gt;Node10 -->
<g id="edge29" class="edge">
<title>Node21&#45;&gt;Node10</title>
<path fill="none" stroke="#191970" d="M501.1893,-55.4179C536.8435,-46.0352 592.6146,-31.3586 631.4749,-21.1322"/>
<polygon fill="#191970" stroke="#191970" points="632.6813,-24.434 641.4612,-18.5042 630.8997,-17.6645 632.6813,-24.434"/>
</g>
<!-- Node22&#45;&gt;Node2 -->
<g id="edge32" class="edge">
<title>Node22&#45;&gt;Node2</title>
<path fill="none" stroke="#191970" d="M783.5046,-275.4179C747.0908,-266.0152 690.0877,-251.2961 650.473,-241.067"/>
<polygon fill="#191970" stroke="#191970" points="651.1056,-237.6156 640.5481,-238.5042 649.3554,-244.3933 651.1056,-237.6156"/>
</g>
<!-- Node22&#45;&gt;Node6 -->
<g id="edge33" class="edge">
<title>Node22&#45;&gt;Node6</title>
<path fill="none" stroke="#191970" d="M811.6693,-275.3426C804.9097,-266.3298 794.5701,-252.0585 786.6772,-239 767.5525,-207.3589 774.0336,-191.9066 748.6772,-165 735.8898,-151.4308 718.1574,-140.5804 702.9324,-132.8837"/>
<polygon fill="#191970" stroke="#191970" points="704.3712,-129.6919 693.8433,-128.5028 701.3319,-135.9977 704.3712,-129.6919"/>
</g>
<!-- Node23 -->
<g id="node24" class="node">
<title>Node23</title>
<g id="a_node24"><a xlink:href="video_8h.html" target="_top" xlink:title="ARX/ARVideo/video.h">
<polygon fill="#ffffff" stroke="#000000" points="975.937,-165.5 975.937,-183.5 1089.4175,-183.5 1089.4175,-165.5 975.937,-165.5"/>
<text text-anchor="middle" x="1032.6772" y="-171.5" font-family="Helvetica,sans-Serif" font-size="10.00" fill="#000000">ARX/ARVideo/video.h</text>
</a>
</g>
</g>
<!-- Node22&#45;&gt;Node23 -->
<g id="edge34" class="edge">
<title>Node22&#45;&gt;Node23</title>
<path fill="none" stroke="#191970" d="M836.1898,-275.4982C873.5755,-256.2813 961.4013,-211.1372 1005.8711,-188.2788"/>
<polygon fill="#191970" stroke="#191970" points="1007.629,-191.3106 1014.9227,-183.6261 1004.4288,-185.0849 1007.629,-191.3106"/>
</g>
<!-- Node27 -->
<g id="node28" class="node">
<title>Node27</title>
<polygon fill="#ffffff" stroke="#bfbfbf" points="796.0615,-220.5 796.0615,-238.5 839.293,-238.5 839.293,-220.5 796.0615,-220.5"/>
<text text-anchor="middle" x="817.6772" y="-226.5" font-family="Helvetica,sans-Serif" font-size="10.00" fill="#000000">mutex</text>
</g>
<!-- Node22&#45;&gt;Node27 -->
<g id="edge41" class="edge">
<title>Node22&#45;&gt;Node27</title>
<path fill="none" stroke="#191970" d="M818.5121,-275.4179C818.3812,-268.2164 818.1935,-257.8962 818.0293,-248.8632"/>
<polygon fill="#191970" stroke="#191970" points="821.5273,-248.7141 817.846,-238.7795 814.5284,-248.8415 821.5273,-248.7141"/>
</g>
<!-- Node22&#45;&gt;Node28 -->
<g id="edge42" class="edge">
<title>Node22&#45;&gt;Node28</title>
<path fill="none" stroke="#191970" d="M855.0058,-275.4179C894.8338,-265.4609 958.5094,-249.542 999.4513,-239.3065"/>
<polygon fill="#191970" stroke="#191970" points="1000.4896,-242.6547 1009.3421,-236.8338 998.7918,-235.8637 1000.4896,-242.6547"/>
</g>
<!-- Node23&#45;&gt;Node6 -->
<g id="edge35" class="edge">
<title>Node23&#45;&gt;Node6</title>
<path fill="none" stroke="#191970" d="M975.6279,-166.2915C895.9947,-154.8328 757.497,-134.9011 718.5521,-129.0441"/>
<polygon fill="#191970" stroke="#191970" points="718.8962,-125.5555 708.4762,-127.4722 717.8172,-132.4719 718.8962,-125.5555"/>
</g>
<!-- Node24 -->
<g id="node25" class="node">
<title>Node24</title>
<g id="a_node25"><a xlink:href="video_config_8h.html" target="_top" xlink:title="ARX/ARVideo/videoConfig.h">
<polygon fill="#ffffff" stroke="#000000" points="947.4839,-110.5 947.4839,-128.5 1089.8706,-128.5 1089.8706,-110.5 947.4839,-110.5"/>
<text text-anchor="middle" x="1018.6772" y="-116.5" font-family="Helvetica,sans-Serif" font-size="10.00" fill="#000000">ARX/ARVideo/videoConfig.h</text>
</a>
</g>
</g>
<!-- Node23&#45;&gt;Node24 -->
<g id="edge36" class="edge">
<title>Node23&#45;&gt;Node24</title>
<path fill="none" stroke="#191970" d="M1030.3654,-165.4179C1028.5122,-158.1372 1025.8475,-147.669 1023.5304,-138.5659"/>
<polygon fill="#191970" stroke="#191970" points="1026.898,-137.607 1021.0393,-128.7795 1020.1143,-139.3338 1026.898,-137.607"/>
</g>
<!-- Node25 -->
<g id="node26" class="node">
<title>Node25</title>
<polygon fill="#ffffff" stroke="#bfbfbf" points="726.1206,-110.5 726.1206,-128.5 773.2339,-128.5 773.2339,-110.5 726.1206,-110.5"/>
<text text-anchor="middle" x="749.6772" y="-116.5" font-family="Helvetica,sans-Serif" font-size="10.00" fill="#000000">limits.h</text>
</g>
<!-- Node23&#45;&gt;Node25 -->
<g id="edge38" class="edge">
<title>Node23&#45;&gt;Node25</title>
<path fill="none" stroke="#191970" d="M975.7476,-165.8085C927.1433,-158.0102 855.2125,-145.5783 783.5092,-129.0024"/>
<polygon fill="#191970" stroke="#191970" points="783.93,-125.5064 773.3955,-126.636 782.3351,-132.3223 783.93,-125.5064"/>
</g>
<!-- Node26 -->
<g id="node27" class="node">
<title>Node26</title>
<g id="a_node27"><a xlink:href="video_luma_8h.html" target="_top" xlink:title="ARX/ARVideo/videoLuma.h">
<polygon fill="#ffffff" stroke="#000000" points="791.4297,-110.5 791.4297,-128.5 929.9248,-128.5 929.9248,-110.5 791.4297,-110.5"/>
<text text-anchor="middle" x="860.6772" y="-116.5" font-family="Helvetica,sans-Serif" font-size="10.00" fill="#000000">ARX/ARVideo/videoLuma.h</text>
</a>
</g>
</g>
<!-- Node23&#45;&gt;Node26 -->
<g id="edge39" class="edge">
<title>Node23&#45;&gt;Node26</title>
<path fill="none" stroke="#191970" d="M999.1086,-165.4179C968.4888,-156.2348 923.7236,-141.9807 893.3815,-131.7909"/>
<polygon fill="#191970" stroke="#191970" points="894.2801,-128.3999 883.6858,-128.5042 892.0328,-135.0294 894.2801,-128.3999"/>
</g>
<!-- Node24&#45;&gt;Node10 -->
<g id="edge37" class="edge">
<title>Node24&#45;&gt;Node10</title>
<path fill="none" stroke="#191970" d="M990.6081,-110.4982C929.3043,-90.8381 783.3832,-44.0413 713.8238,-21.7336"/>
<polygon fill="#191970" stroke="#191970" points="714.7254,-18.3472 704.1342,-18.6261 712.5877,-25.0128 714.7254,-18.3472"/>
</g>
<!-- Node26&#45;&gt;Node23 -->
<g id="edge40" class="edge">
<title>Node26&#45;&gt;Node23</title>
<path fill="none" stroke="#191970" d="M893.986,-128.5042C924.5254,-137.6584 969.2912,-151.9096 999.7148,-162.1224"/>
<polygon fill="#191970" stroke="#191970" points="998.847,-165.5238 1009.4413,-165.4179 1001.0933,-158.8939 998.847,-165.5238"/>
</g>
<!-- Node29&#45;&gt;Node2 -->
<g id="edge44" class="edge">
<title>Node29&#45;&gt;Node2</title>
<path fill="none" stroke="#191970" d="M895.9986,-330.4926C855.986,-322.7247 799.0362,-310.2042 750.6772,-294 707.96,-279.6862 660.6555,-257.3431 632.0516,-243.0676"/>
<polygon fill="#191970" stroke="#191970" points="633.6072,-239.9322 623.1017,-238.5589 630.4578,-246.1838 633.6072,-239.9322"/>
</g>
<!-- Node29&#45;&gt;Node6 -->
<g id="edge46" class="edge">
<title>Node29&#45;&gt;Node6</title>
<path fill="none" stroke="#191970" d="M943.573,-330.4651C939.0495,-317.7354 930.0466,-293.9576 919.6772,-275 887.9708,-217.0334 877.2777,-197.367 819.6772,-165 802.005,-155.0696 753.7866,-141.0475 717.148,-131.2016"/>
<polygon fill="#191970" stroke="#191970" points="717.7199,-127.7321 707.1561,-128.5422 715.9194,-134.4966 717.7199,-127.7321"/>
</g>
<!-- Node29&#45;&gt;Node22 -->
<g id="edge45" class="edge">
<title>Node29&#45;&gt;Node22</title>
<path fill="none" stroke="#191970" d="M925.5406,-330.4179C904.6962,-321.4613 872.6249,-307.6806 849.0528,-297.552"/>
<polygon fill="#191970" stroke="#191970" points="850.4148,-294.3278 839.8452,-293.5956 847.6512,-300.7592 850.4148,-294.3278"/>
</g>
<!-- Node30 -->
<g id="node31" class="node">
<title>Node30</title>
<g id="a_node31"><a xlink:href="arg_8h.html" target="_top" xlink:title="A collection of useful graphics routines for artoolkitX. ">
<polygon fill="#ffffff" stroke="#000000" points="871.3867,-165.5 871.3867,-183.5 957.9678,-183.5 957.9678,-165.5 871.3867,-165.5"/>
<text text-anchor="middle" x="914.6772" y="-171.5" font-family="Helvetica,sans-Serif" font-size="10.00" fill="#000000">ARX/ARG/arg.h</text>
</a>
</g>
</g>
<!-- Node29&#45;&gt;Node30 -->
<g id="edge47" class="edge">
<title>Node29&#45;&gt;Node30</title>
<path fill="none" stroke="#191970" d="M950.2369,-330.4051C957.7012,-309.8761 973.0779,-258.718 957.6772,-220 953.0639,-208.4018 943.936,-198.0528 935.2725,-190.1664"/>
<polygon fill="#191970" stroke="#191970" points="937.4801,-187.4495 927.5896,-183.6509 932.9526,-192.7882 937.4801,-187.4495"/>
</g>
<!-- Node30&#45;&gt;Node6 -->
<g id="edge48" class="edge">
<title>Node30&#45;&gt;Node6</title>
<path fill="none" stroke="#191970" d="M874.8228,-165.4795C831.8867,-155.7614 763.6328,-140.313 718.2528,-130.0418"/>
<polygon fill="#191970" stroke="#191970" points="718.8958,-126.5989 708.3698,-127.8049 717.3505,-133.4262 718.8958,-126.5989"/>
</g>
<!-- Node31&#45;&gt;Node6 -->
<g id="edge69" class="edge">
<title>Node31&#45;&gt;Node6</title>
<path fill="none" stroke="#191970" d="M467.9094,-390.1474C409.8302,-384.6974 330.2293,-372.9876 310.6772,-349 291.8833,-325.9425 259.3002,-376.2717 335.6772,-220 349.5458,-191.6241 353.2696,-180.6956 380.6772,-165 421.4905,-141.6273 553.9041,-128.3509 625.2027,-122.7293"/>
<polygon fill="#191970" stroke="#191970" points="625.5586,-126.2123 635.2605,-121.9551 625.0214,-119.233 625.5586,-126.2123"/>
</g>
<!-- Node32 -->
<g id="node33" class="node">
<title>Node32</title>
<g id="a_node33"><a xlink:href="_a_r_trackable_square_8h.html" target="_top" xlink:title="ARX/ARTrackableSquare.h">
<polygon fill="#ffffff" stroke="#000000" points="320.0864,-330.5 320.0864,-348.5 457.2681,-348.5 457.2681,-330.5 320.0864,-330.5"/>
<text text-anchor="middle" x="388.6772" y="-336.5" font-family="Helvetica,sans-Serif" font-size="10.00" fill="#000000">ARX/ARTrackableSquare.h</text>
</a>
</g>
</g>
<!-- Node31&#45;&gt;Node32 -->
<g id="edge50" class="edge">
<title>Node31&#45;&gt;Node32</title>
<path fill="none" stroke="#191970" d="M508.0637,-385.4179C484.5696,-376.3817 448.309,-362.4353 421.9124,-352.2828"/>
<polygon fill="#191970" stroke="#191970" points="422.9158,-348.9188 412.3259,-348.5956 420.4029,-355.4522 422.9158,-348.9188"/>
</g>
<!-- Node38 -->
<g id="node39" class="node">
<title>Node38</title>
<g id="a_node39"><a xlink:href="_a_r_trackable_multi_square_8h.html" target="_top" xlink:title="ARX/ARTrackableMultiSquare.h">
<polygon fill="#ffffff" stroke="#000000" points="507.5298,-275.5 507.5298,-293.5 665.8247,-293.5 665.8247,-275.5 507.5298,-275.5"/>
<text text-anchor="middle" x="586.6772" y="-281.5" font-family="Helvetica,sans-Serif" font-size="10.00" fill="#000000">ARX/ARTrackableMultiSquare.h</text>
</a>
</g>
</g>
<!-- Node31&#45;&gt;Node38 -->
<g id="edge59" class="edge">
<title>Node31&#45;&gt;Node38</title>
<path fill="none" stroke="#191970" d="M558.6287,-385.4284C575.1275,-378.3165 594.8931,-366.6274 604.6772,-349 612.7586,-334.4403 606.1619,-315.9814 598.7822,-302.5445"/>
<polygon fill="#191970" stroke="#191970" points="601.6445,-300.5143 593.469,-293.7755 595.6577,-304.1418 601.6445,-300.5143"/>
</g>
<!-- Node40 -->
<g id="node41" class="node">
<title>Node40</title>
<g id="a_node41"><a xlink:href="_a_r_tracker_video_8h.html" target="_top" xlink:title="ARX/ARTrackerVideo.h">
<polygon fill="#ffffff" stroke="#000000" points="475.5166,-330.5 475.5166,-348.5 595.8379,-348.5 595.8379,-330.5 475.5166,-330.5"/>
<text text-anchor="middle" x="535.6772" y="-336.5" font-family="Helvetica,sans-Serif" font-size="10.00" fill="#000000">ARX/ARTrackerVideo.h</text>
</a>
</g>
</g>
<!-- Node31&#45;&gt;Node40 -->
<g id="edge63" class="edge">
<title>Node31&#45;&gt;Node40</title>
<path fill="none" stroke="#191970" d="M532.3378,-385.4179C532.8615,-378.2164 533.6121,-367.8962 534.269,-358.8632"/>
<polygon fill="#191970" stroke="#191970" points="537.7677,-359.007 535.0024,-348.7795 530.7861,-358.4992 537.7677,-359.007"/>
</g>
<!-- Node32&#45;&gt;Node33 -->
<g id="edge51" class="edge">
<title>Node32&#45;&gt;Node33</title>
<path fill="none" stroke="#191970" d="M376.2069,-330.3694C361.3547,-318.2906 339.6211,-296.0626 348.6772,-275 353.869,-262.9252 364.0148,-252.5515 373.6463,-244.772"/>
<polygon fill="#191970" stroke="#191970" points="375.941,-247.426 381.8405,-238.6256 371.7407,-241.8262 375.941,-247.426"/>
</g>
<!-- Node33&#45;&gt;Node6 -->
<g id="edge52" class="edge">
<title>Node33&#45;&gt;Node6</title>
<path fill="none" stroke="#191970" d="M429.1407,-220.4493C457.8359,-212.0967 500.6138,-198.7794 536.6772,-184 554.1493,-176.8397 557.6839,-173.2323 574.6772,-165 597.447,-153.9694 623.4042,-141.8155 642.7337,-132.846"/>
<polygon fill="#191970" stroke="#191970" points="644.3128,-135.9718 651.916,-128.5933 641.371,-129.62 644.3128,-135.9718"/>
</g>
<!-- Node34 -->
<g id="node35" class="node">
<title>Node34</title>
<g id="a_node35"><a xlink:href="ar_filter_trans_mat_8h.html" target="_top" xlink:title="Provides filtering of transformation matrices (pose estimates). ">
<polygon fill="#ffffff" stroke="#000000" points="390.0132,-165.5 390.0132,-183.5 527.3413,-183.5 527.3413,-165.5 390.0132,-165.5"/>
<text text-anchor="middle" x="458.6772" y="-171.5" font-family="Helvetica,sans-Serif" font-size="10.00" fill="#000000">ARX/AR/arFilterTransMat.h</text>
</a>
</g>
</g>
<!-- Node33&#45;&gt;Node34 -->
<g id="edge53" class="edge">
<title>Node33&#45;&gt;Node34</title>
<path fill="none" stroke="#191970" d="M406.9153,-220.4179C416.0147,-212.3458 429.5309,-200.3556 440.4699,-190.6517"/>
<polygon fill="#191970" stroke="#191970" points="443.0587,-193.0339 448.2168,-183.7795 438.4133,-187.7974 443.0587,-193.0339"/>
</g>
<!-- Node35 -->
<g id="node36" class="node">
<title>Node35</title>
<g id="a_node36"><a xlink:href="_a_r_pattern_8h.html" target="_top" xlink:title="ARX/ARPattern.h">
<polygon fill="#ffffff" stroke="#000000" points="239.771,-165.5 239.771,-183.5 333.5835,-183.5 333.5835,-165.5 239.771,-165.5"/>
<text text-anchor="middle" x="286.6772" y="-171.5" font-family="Helvetica,sans-Serif" font-size="10.00" fill="#000000">ARX/ARPattern.h</text>
</a>
</g>
</g>
<!-- Node33&#45;&gt;Node35 -->
<g id="edge55" class="edge">
<title>Node33&#45;&gt;Node35</title>
<path fill="none" stroke="#191970" d="M378.513,-220.4179C360.9182,-211.6205 334.0155,-198.1691 313.8685,-188.0956"/>
<polygon fill="#191970" stroke="#191970" points="315.378,-184.9373 304.8685,-183.5956 312.2475,-191.1983 315.378,-184.9373"/>
</g>
<!-- Node33&#45;&gt;Node37 -->
<g id="edge58" class="edge">
<title>Node33&#45;&gt;Node37</title>
<path fill="none" stroke="#191970" d="M431.1443,-220.4439C466.0614,-211.2675 521.6269,-196.6587 569.6772,-184 571.1227,-183.6192 572.6008,-183.2297 574.0938,-182.8361"/>
<polygon fill="#191970" stroke="#191970" points="575.1992,-186.1643 583.976,-180.2298 573.4141,-179.3958 575.1992,-186.1643"/>
</g>
<!-- Node34&#45;&gt;Node6 -->
<g id="edge54" class="edge">
<title>Node34&#45;&gt;Node6</title>
<path fill="none" stroke="#191970" d="M493.8499,-165.4179C530.2637,-156.0152 587.2668,-141.2961 626.8815,-131.067"/>
<polygon fill="#191970" stroke="#191970" points="627.9991,-134.3933 636.8064,-128.5042 626.2489,-127.6156 627.9991,-134.3933"/>
</g>
<!-- Node35&#45;&gt;Node6 -->
<g id="edge56" class="edge">
<title>Node35&#45;&gt;Node6</title>
<path fill="none" stroke="#191970" d="M333.6241,-167.1161C338.3698,-166.3914 343.1182,-165.6751 347.6772,-165 446.4118,-150.3797 562.2539,-134.3932 625.2005,-125.8041"/>
<polygon fill="#191970" stroke="#191970" points="625.7736,-129.2585 635.2093,-124.44 624.8282,-122.3226 625.7736,-129.2585"/>
</g>
<!-- Node35&#45;&gt;Node36 -->
<g id="edge57" class="edge">
<title>Node35&#45;&gt;Node36</title>
<path fill="none" stroke="#191970" d="M281.8885,-165.4179C277.9244,-157.8998 272.1682,-146.9829 267.263,-137.6799"/>
<polygon fill="#191970" stroke="#191970" points="270.3302,-135.9927 262.5701,-128.7795 264.1382,-139.2576 270.3302,-135.9927"/>
</g>
<!-- Node38&#45;&gt;Node33 -->
<g id="edge60" class="edge">
<title>Node38&#45;&gt;Node33</title>
<path fill="none" stroke="#191970" d="M555.3026,-275.4179C523.1656,-266.115 473.0504,-251.608 437.7665,-241.3943"/>
<polygon fill="#191970" stroke="#191970" points="438.3616,-237.9229 427.7827,-238.5042 436.4151,-244.6468 438.3616,-237.9229"/>
</g>
<!-- Node39 -->
<g id="node40" class="node">
<title>Node39</title>
<g id="a_node40"><a xlink:href="ar_multi_8h.html" target="_top" xlink:title="ARX/AR/arMulti.h">
<polygon fill="#ffffff" stroke="#000000" points="645.5,-165.5 645.5,-183.5 739.8545,-183.5 739.8545,-165.5 645.5,-165.5"/>
<text text-anchor="middle" x="692.6772" y="-171.5" font-family="Helvetica,sans-Serif" font-size="10.00" fill="#000000">ARX/AR/arMulti.h</text>
</a>
</g>
</g>
<!-- Node38&#45;&gt;Node39 -->
<g id="edge61" class="edge">
<title>Node38&#45;&gt;Node39</title>
<path fill="none" stroke="#191970" d="M605.7189,-275.4057C620.9205,-267.4294 642.0275,-254.6705 656.6772,-239 669.2391,-225.5629 679.0259,-206.9344 685.2037,-193.1505"/>
<polygon fill="#191970" stroke="#191970" points="688.5212,-194.2927 689.2106,-183.7203 682.0786,-191.5552 688.5212,-194.2927"/>
</g>
<!-- Node39&#45;&gt;Node6 -->
<g id="edge62" class="edge">
<title>Node39&#45;&gt;Node6</title>
<path fill="none" stroke="#191970" d="M689.2095,-165.4179C686.3994,-158.0581 682.3456,-147.441 678.8438,-138.2695"/>
<polygon fill="#191970" stroke="#191970" points="682.0572,-136.8732 675.2203,-128.7795 675.5176,-139.3701 682.0572,-136.8732"/>
</g>
<!-- Node41 -->
<g id="node42" class="node">
<title>Node41</title>
<g id="a_node42"><a xlink:href="_a_r_tracker_8h.html" target="_top" xlink:title="ARX/ARTracker.h">
<polygon fill="#ffffff" stroke="#000000" points="357.4902,-275.5 357.4902,-293.5 451.8643,-293.5 451.8643,-275.5 357.4902,-275.5"/>
<text text-anchor="middle" x="404.6772" y="-281.5" font-family="Helvetica,sans-Serif" font-size="10.00" fill="#000000">ARX/ARTracker.h</text>
</a>
</g>
</g>
<!-- Node40&#45;&gt;Node41 -->
<g id="edge64" class="edge">
<title>Node40&#45;&gt;Node41</title>
<path fill="none" stroke="#191970" d="M514.0453,-330.4179C492.7123,-321.4613 459.8893,-307.6806 435.7647,-297.552"/>
<polygon fill="#191970" stroke="#191970" points="436.9166,-294.2397 426.3414,-293.5956 434.2068,-300.6939 436.9166,-294.2397"/>
</g>
<!-- Node41&#45;&gt;Node2 -->
<g id="edge65" class="edge">
<title>Node41&#45;&gt;Node2</title>
<path fill="none" stroke="#191970" d="M437.8683,-275.4179C472.0118,-266.0751 525.3379,-251.4834 562.6889,-241.263"/>
<polygon fill="#191970" stroke="#191970" points="564.0493,-244.5195 572.771,-238.5042 562.2017,-237.7677 564.0493,-244.5195"/>
</g>
<!-- Node41&#45;&gt;Node33 -->
<g id="edge66" class="edge">
<title>Node41&#45;&gt;Node33</title>
<path fill="none" stroke="#191970" d="M403.3562,-275.4179C402.3087,-268.2164 400.8076,-257.8962 399.4937,-248.8632"/>
<polygon fill="#191970" stroke="#191970" points="402.93,-248.1715 398.027,-238.7795 396.0029,-249.1791 402.93,-248.1715"/>
</g>
<!-- Node41&#45;&gt;Node37 -->
<g id="edge67" class="edge">
<title>Node41&#45;&gt;Node37</title>
<path fill="none" stroke="#191970" d="M432.2226,-275.4128C455.4277,-267.2687 489.1483,-254.2724 516.6772,-239 542.3967,-224.7314 569.4084,-204.2632 586.8329,-190.233"/>
<polygon fill="#191970" stroke="#191970" points="589.4835,-192.5872 595.0133,-183.55 585.0547,-187.1662 589.4835,-192.5872"/>
</g>
<!-- Node42 -->
<g id="node43" class="node">
<title>Node42</title>
<polygon fill="#ffffff" stroke="#bfbfbf" points="467.4507,-220.5 467.4507,-238.5 507.9038,-238.5 507.9038,-220.5 467.4507,-220.5"/>
<text text-anchor="middle" x="487.6772" y="-226.5" font-family="Helvetica,sans-Serif" font-size="10.00" fill="#000000">string</text>
</g>
<!-- Node41&#45;&gt;Node42 -->
<g id="edge68" class="edge">
<title>Node41&#45;&gt;Node42</title>
<path fill="none" stroke="#191970" d="M418.383,-275.4179C431.1184,-266.9788 450.3167,-254.257 465.2785,-244.3426"/>
<polygon fill="#191970" stroke="#191970" points="467.5485,-247.037 473.9511,-238.5956 463.6818,-241.2019 467.5485,-247.037"/>
</g>
</g>
</svg>
