<?xml version="1.0" encoding="UTF-8" standalone="no"?>
<!DOCTYPE svg PUBLIC "-//W3C//DTD SVG 1.1//EN"
 "http://www.w3.org/Graphics/SVG/1.1/DTD/svg11.dtd">
<!-- Generated by graphviz version 7.0.5 (20221223.1930)
 -->
<!-- Title: Source/ARX/ARTracker.cpp Pages: 1 -->
<svg width="926pt" height="357pt"
 viewBox="0.00 0.00 925.57 357.00" xmlns="http://www.w3.org/2000/svg" xmlns:xlink="http://www.w3.org/1999/xlink">
<g id="graph0" class="graph" transform="scale(1 1) rotate(0) translate(4 353)">
<title>Source/ARX/ARTracker.cpp</title>
<!-- Node1 -->
<g id="node1" class="node">
<title>Node1</title>
<g id="a_node1"><a xlink:title=" ">
<polygon fill="#999999" stroke="#666666" points="689,-349 549,-349 549,-330 689,-330 689,-349"/>
<text text-anchor="middle" x="619" y="-337" font-family="Helvetica,sans-Serif" font-size="10.00">Source/ARX/ARTracker.cpp</text>
</a>
</g>
</g>
<!-- Node2 -->
<g id="node2" class="node">
<title>Node2</title>
<g id="a_node2"><a xlink:href="_a_r_tracker_8h.html" target="_top" xlink:title=" ">
<polygon fill="white" stroke="#666666" points="666.5,-294 571.5,-294 571.5,-275 666.5,-275 666.5,-294"/>
<text text-anchor="middle" x="619" y="-282" font-family="Helvetica,sans-Serif" font-size="10.00">ARX/ARTracker.h</text>
</a>
</g>
</g>
<!-- Node1&#45;&gt;Node2 -->
<g id="edge1" class="edge">
<title>Node1&#45;&gt;Node2</title>
<path fill="none" stroke="#63b8ff" d="M619,-329.75C619,-323.27 619,-314.16 619,-305.9"/>
<polygon fill="#63b8ff" stroke="#63b8ff" points="622.5,-305.96 619,-295.96 615.5,-305.96 622.5,-305.96"/>
</g>
<!-- Node3 -->
<g id="node3" class="node">
<title>Node3</title>
<g id="a_node3"><a xlink:href="_platform_8h.html" target="_top" xlink:title=" ">
<polygon fill="white" stroke="#666666" points="508,-239 422,-239 422,-220 508,-220 508,-239"/>
<text text-anchor="middle" x="465" y="-227" font-family="Helvetica,sans-Serif" font-size="10.00">ARX/Platform.h</text>
</a>
</g>
</g>
<!-- Node2&#45;&gt;Node3 -->
<g id="edge2" class="edge">
<title>Node2&#45;&gt;Node3</title>
<path fill="none" stroke="#63b8ff" d="M592.88,-274.51C567.8,-265.88 529.69,-252.76 501.6,-243.1"/>
<polygon fill="#63b8ff" stroke="#63b8ff" points="503.02,-239.88 492.43,-239.94 500.74,-246.5 503.02,-239.88"/>
</g>
<!-- Node4 -->
<g id="node4" class="node">
<title>Node4</title>
<g id="a_node4"><a xlink:href="_a_r_trackable_8h.html" target="_top" xlink:title=" ">
<polygon fill="white" stroke="#666666" points="632,-239 526,-239 526,-220 632,-220 632,-239"/>
<text text-anchor="middle" x="579" y="-227" font-family="Helvetica,sans-Serif" font-size="10.00">ARX/ARTrackable.h</text>
</a>
</g>
</g>
<!-- Node2&#45;&gt;Node4 -->
<g id="edge3" class="edge">
<title>Node2&#45;&gt;Node4</title>
<path fill="none" stroke="#63b8ff" d="M612.39,-274.75C607.04,-267.66 599.32,-257.42 592.65,-248.59"/>
<polygon fill="#63b8ff" stroke="#63b8ff" points="595.48,-246.52 586.66,-240.65 589.89,-250.74 595.48,-246.52"/>
</g>
<!-- Node25 -->
<g id="node25" class="node">
<title>Node25</title>
<g id="a_node25"><a xlink:title=" ">
<polygon fill="#e0e0e0" stroke="#999999" points="689,-184 645,-184 645,-165 689,-165 689,-184"/>
<text text-anchor="middle" x="667" y="-172" font-family="Helvetica,sans-Serif" font-size="10.00">vector</text>
</a>
</g>
</g>
<!-- Node2&#45;&gt;Node25 -->
<g id="edge34" class="edge">
<title>Node2&#45;&gt;Node25</title>
<path fill="none" stroke="#63b8ff" d="M623.57,-274.72C628.15,-265.81 635.33,-251.57 641,-239 647.61,-224.35 654.47,-207.51 659.49,-194.85"/>
<polygon fill="#63b8ff" stroke="#63b8ff" points="662.72,-196.21 663.11,-185.62 656.2,-193.65 662.72,-196.21"/>
</g>
<!-- Node26 -->
<g id="node26" class="node">
<title>Node26</title>
<g id="a_node26"><a xlink:title=" ">
<polygon fill="#e0e0e0" stroke="#999999" points="729.5,-239 688.5,-239 688.5,-220 729.5,-220 729.5,-239"/>
<text text-anchor="middle" x="709" y="-227" font-family="Helvetica,sans-Serif" font-size="10.00">string</text>
</a>
</g>
</g>
<!-- Node2&#45;&gt;Node26 -->
<g id="edge35" class="edge">
<title>Node2&#45;&gt;Node26</title>
<path fill="none" stroke="#63b8ff" d="M634.27,-274.51C647.93,-266.47 668.2,-254.53 684.18,-245.11"/>
<polygon fill="#63b8ff" stroke="#63b8ff" points="685.81,-248.22 692.65,-240.13 682.26,-242.18 685.81,-248.22"/>
</g>
<!-- Node5 -->
<g id="node5" class="node">
<title>Node5</title>
<g id="a_node5"><a xlink:href="ar_8h.html" target="_top" xlink:title="artoolkitX core routines.">
<polygon fill="white" stroke="#666666" points="537,-129 463,-129 463,-110 537,-110 537,-129"/>
<text text-anchor="middle" x="500" y="-117" font-family="Helvetica,sans-Serif" font-size="10.00">ARX/AR/ar.h</text>
</a>
</g>
</g>
<!-- Node4&#45;&gt;Node5 -->
<g id="edge4" class="edge">
<title>Node4&#45;&gt;Node5</title>
<path fill="none" stroke="#63b8ff" d="M563.49,-219.55C551,-211.63 533.8,-199.02 523,-184 513.66,-171.01 507.75,-153.84 504.26,-140.63"/>
<polygon fill="#63b8ff" stroke="#63b8ff" points="507.67,-139.84 501.97,-130.91 500.85,-141.45 507.67,-139.84"/>
</g>
<!-- Node22 -->
<g id="node22" class="node">
<title>Node22</title>
<g id="a_node22"><a xlink:href="ar_filter_trans_mat_8h.html" target="_top" xlink:title="Provides filtering of transformation matrices (pose estimates).">
<polygon fill="white" stroke="#666666" points="474.5,-184 337.5,-184 337.5,-165 474.5,-165 474.5,-184"/>
<text text-anchor="middle" x="406" y="-172" font-family="Helvetica,sans-Serif" font-size="10.00">ARX/AR/arFilterTransMat.h</text>
</a>
</g>
</g>
<!-- Node4&#45;&gt;Node22 -->
<g id="edge28" class="edge">
<title>Node4&#45;&gt;Node22</title>
<path fill="none" stroke="#63b8ff" d="M549.65,-219.51C521.11,-210.76 477.54,-197.42 445.86,-187.71"/>
<polygon fill="#63b8ff" stroke="#63b8ff" points="447.24,-184.47 436.65,-184.89 445.19,-191.17 447.24,-184.47"/>
</g>
<!-- Node23 -->
<g id="node23" class="node">
<title>Node23</title>
<g id="a_node23"><a xlink:href="_a_r_pattern_8h.html" target="_top" xlink:title=" ">
<polygon fill="white" stroke="#666666" points="626.5,-184 531.5,-184 531.5,-165 626.5,-165 626.5,-184"/>
<text text-anchor="middle" x="579" y="-172" font-family="Helvetica,sans-Serif" font-size="10.00">ARX/ARPattern.h</text>
</a>
</g>
</g>
<!-- Node4&#45;&gt;Node23 -->
<g id="edge30" class="edge">
<title>Node4&#45;&gt;Node23</title>
<path fill="none" stroke="#63b8ff" d="M579,-219.75C579,-213.27 579,-204.16 579,-195.9"/>
<polygon fill="#63b8ff" stroke="#63b8ff" points="582.5,-195.96 579,-185.96 575.5,-195.96 582.5,-195.96"/>
</g>
<!-- Node4&#45;&gt;Node25 -->
<g id="edge33" class="edge">
<title>Node4&#45;&gt;Node25</title>
<path fill="none" stroke="#63b8ff" d="M593.93,-219.51C607.28,-211.47 627.11,-199.53 642.74,-190.11"/>
<polygon fill="#63b8ff" stroke="#63b8ff" points="644.24,-193.3 651,-185.14 640.62,-187.3 644.24,-193.3"/>
</g>
<!-- Node6 -->
<g id="node6" class="node">
<title>Node6</title>
<g id="a_node6"><a xlink:title=" ">
<polygon fill="#e0e0e0" stroke="#999999" points="457,-19 411,-19 411,0 457,0 457,-19"/>
<text text-anchor="middle" x="434" y="-7" font-family="Helvetica,sans-Serif" font-size="10.00">stdio.h</text>
</a>
</g>
</g>
<!-- Node5&#45;&gt;Node6 -->
<g id="edge5" class="edge">
<title>Node5&#45;&gt;Node6</title>
<path fill="none" stroke="#63b8ff" d="M462.67,-114.03C417.68,-107.79 346.08,-94.83 330,-74 324.84,-67.32 325.35,-62.05 330,-55 338.18,-42.61 372.96,-29.34 400.08,-20.54"/>
<polygon fill="#63b8ff" stroke="#63b8ff" points="400.83,-23.97 409.32,-17.63 398.73,-17.3 400.83,-23.97"/>
</g>
<!-- Node7 -->
<g id="node7" class="node">
<title>Node7</title>
<g id="a_node7"><a xlink:title=" ">
<polygon fill="#e0e0e0" stroke="#999999" points="48,-19 0,-19 0,0 48,0 48,-19"/>
<text text-anchor="middle" x="24" y="-7" font-family="Helvetica,sans-Serif" font-size="10.00">stdlib.h</text>
</a>
</g>
</g>
<!-- Node5&#45;&gt;Node7 -->
<g id="edge6" class="edge">
<title>Node5&#45;&gt;Node7</title>
<path fill="none" stroke="#63b8ff" d="M462.58,-117.29C375.22,-114.01 160.33,-103.14 95,-74 71.74,-63.62 50.76,-42.75 37.75,-27.76"/>
<polygon fill="#63b8ff" stroke="#63b8ff" points="40.78,-25.94 31.69,-20.5 35.41,-30.42 40.78,-25.94"/>
</g>
<!-- Node8 -->
<g id="node8" class="node">
<title>Node8</title>
<g id="a_node8"><a xlink:title=" ">
<polygon fill="#e0e0e0" stroke="#999999" points="170.5,-74 121.5,-74 121.5,-55 170.5,-55 170.5,-74"/>
<text text-anchor="middle" x="146" y="-62" font-family="Helvetica,sans-Serif" font-size="10.00">stdint.h</text>
</a>
</g>
</g>
<!-- Node5&#45;&gt;Node8 -->
<g id="edge7" class="edge">
<title>Node5&#45;&gt;Node8</title>
<path fill="none" stroke="#63b8ff" d="M462.83,-114.64C404.95,-108.34 289.58,-94.65 181.88,-74.16"/>
<polygon fill="#63b8ff" stroke="#63b8ff" points="182.78,-70.77 172.3,-72.32 181.46,-77.65 182.78,-70.77"/>
</g>
<!-- Node9 -->
<g id="node9" class="node">
<title>Node9</title>
<g id="a_node9"><a xlink:title=" ">
<polygon fill="#e0e0e0" stroke="#999999" points="115.5,-19 66.5,-19 66.5,0 115.5,0 115.5,-19"/>
<text text-anchor="middle" x="91" y="-7" font-family="Helvetica,sans-Serif" font-size="10.00">string.h</text>
</a>
</g>
</g>
<!-- Node5&#45;&gt;Node9 -->
<g id="edge8" class="edge">
<title>Node5&#45;&gt;Node9</title>
<path fill="none" stroke="#63b8ff" d="M462.58,-119.16C375.99,-119.94 165.13,-117.21 112,-74 99.04,-63.46 94.01,-44.71 92.1,-30.31"/>
<polygon fill="#63b8ff" stroke="#63b8ff" points="95.61,-30.25 91.23,-20.6 88.63,-30.87 95.61,-30.25"/>
</g>
<!-- Node10 -->
<g id="node10" class="node">
<title>Node10</title>
<g id="a_node10"><a xlink:title=" ">
<polygon fill="#e0e0e0" stroke="#999999" points="876,-19 784,-19 784,0 876,0 876,-19"/>
<text text-anchor="middle" x="830" y="-7" font-family="Helvetica,sans-Serif" font-size="10.00">ARX/AR/config.h</text>
</a>
</g>
</g>
<!-- Node5&#45;&gt;Node10 -->
<g id="edge9" class="edge">
<title>Node5&#45;&gt;Node10</title>
<path fill="none" stroke="#63b8ff" d="M537.36,-111.32C540.28,-110.85 543.19,-110.4 546,-110 586.46,-104.28 884.56,-104.28 912,-74 930.36,-53.74 898.09,-35.17 868.79,-23.42"/>
<polygon fill="#63b8ff" stroke="#63b8ff" points="870.24,-20.22 859.64,-19.94 867.75,-26.77 870.24,-20.22"/>
</g>
<!-- Node11 -->
<g id="node11" class="node">
<title>Node11</title>
<g id="a_node11"><a xlink:href="ar_config_8h.html" target="_top" xlink:title=" ">
<polygon fill="white" stroke="#666666" points="442.5,-74 339.5,-74 339.5,-55 442.5,-55 442.5,-74"/>
<text text-anchor="middle" x="391" y="-62" font-family="Helvetica,sans-Serif" font-size="10.00">ARX/AR/arConfig.h</text>
</a>
</g>
</g>
<!-- Node5&#45;&gt;Node11 -->
<g id="edge10" class="edge">
<title>Node5&#45;&gt;Node11</title>
<path fill="none" stroke="#63b8ff" d="M481.51,-109.51C464.5,-101.24 439.01,-88.84 419.41,-79.31"/>
<polygon fill="#63b8ff" stroke="#63b8ff" points="421.1,-76.25 410.58,-75.02 418.04,-82.54 421.1,-76.25"/>
</g>
<!-- Node12 -->
<g id="node12" class="node">
<title>Node12</title>
<g id="a_node12"><a xlink:href="log_8h.html" target="_top" xlink:title="Logging utilities.">
<polygon fill="white" stroke="#666666" points="283,-74 189,-74 189,-55 283,-55 283,-74"/>
<text text-anchor="middle" x="236" y="-62" font-family="Helvetica,sans-Serif" font-size="10.00">ARX/ARUtil/log.h</text>
</a>
</g>
</g>
<!-- Node5&#45;&gt;Node12 -->
<g id="edge11" class="edge">
<title>Node5&#45;&gt;Node12</title>
<path fill="none" stroke="#63b8ff" d="M462.74,-111.02C418.2,-102.08 343.27,-87.04 291.82,-76.71"/>
<polygon fill="#63b8ff" stroke="#63b8ff" points="292.55,-73.28 282.05,-74.75 291.17,-80.15 292.55,-73.28"/>
</g>
<!-- Node16 -->
<g id="node16" class="node">
<title>Node16</title>
<g id="a_node16"><a xlink:href="matrix_8h.html" target="_top" xlink:title=" ">
<polygon fill="white" stroke="#666666" points="650.5,-74 557.5,-74 557.5,-55 650.5,-55 650.5,-74"/>
<text text-anchor="middle" x="604" y="-62" font-family="Helvetica,sans-Serif" font-size="10.00">ARX/AR/matrix.h</text>
</a>
</g>
</g>
<!-- Node5&#45;&gt;Node16 -->
<g id="edge18" class="edge">
<title>Node5&#45;&gt;Node16</title>
<path fill="none" stroke="#63b8ff" d="M517.64,-109.51C533.73,-101.31 557.75,-89.07 576.37,-79.58"/>
<polygon fill="#63b8ff" stroke="#63b8ff" points="577.95,-82.7 585.27,-75.05 574.77,-76.47 577.95,-82.7"/>
</g>
<!-- Node18 -->
<g id="node18" class="node">
<title>Node18</title>
<g id="a_node18"><a xlink:href="icp_8h.html" target="_top" xlink:title=" ">
<polygon fill="white" stroke="#666666" points="539.5,-74 460.5,-74 460.5,-55 539.5,-55 539.5,-74"/>
<text text-anchor="middle" x="500" y="-62" font-family="Helvetica,sans-Serif" font-size="10.00">ARX/AR/icp.h</text>
</a>
</g>
</g>
<!-- Node5&#45;&gt;Node18 -->
<g id="edge20" class="edge">
<title>Node5&#45;&gt;Node18</title>
<path fill="none" stroke="#63b8ff" d="M500,-109.75C500,-103.27 500,-94.16 500,-85.9"/>
<polygon fill="#63b8ff" stroke="#63b8ff" points="503.5,-85.96 500,-75.96 496.5,-85.96 503.5,-85.96"/>
</g>
<!-- Node20 -->
<g id="node20" class="node">
<title>Node20</title>
<g id="a_node20"><a xlink:href="param_8h.html" target="_top" xlink:title="artoolkitX functions for handling calibrated camera parameters.">
<polygon fill="white" stroke="#666666" points="902.5,-74 809.5,-74 809.5,-55 902.5,-55 902.5,-74"/>
<text text-anchor="middle" x="856" y="-62" font-family="Helvetica,sans-Serif" font-size="10.00">ARX/AR/param.h</text>
</a>
</g>
</g>
<!-- Node5&#45;&gt;Node20 -->
<g id="edge23" class="edge">
<title>Node5&#45;&gt;Node20</title>
<path fill="none" stroke="#63b8ff" d="M537.33,-109.95C649.58,-91.64 678.3,-90.54 791,-74 793.28,-73.67 795.61,-73.32 797.97,-72.97"/>
<polygon fill="#63b8ff" stroke="#63b8ff" points="798.29,-76.46 807.67,-71.53 797.27,-69.54 798.29,-76.46"/>
</g>
<!-- Node21 -->
<g id="node21" class="node">
<title>Node21</title>
<g id="a_node21"><a xlink:href="ar_image_proc_8h.html" target="_top" xlink:title="artoolkitX functions for 2D luminance image processing.">
<polygon fill="white" stroke="#666666" points="791,-74 669,-74 669,-55 791,-55 791,-74"/>
<text text-anchor="middle" x="730" y="-62" font-family="Helvetica,sans-Serif" font-size="10.00">ARX/AR/arImageProc.h</text>
</a>
</g>
</g>
<!-- Node5&#45;&gt;Node21 -->
<g id="edge25" class="edge">
<title>Node5&#45;&gt;Node21</title>
<path fill="none" stroke="#63b8ff" d="M533.8,-109.51C570.94,-100.52 630.95,-86.65 674.89,-76.9"/>
<polygon fill="#63b8ff" stroke="#63b8ff" points="675.48,-80.35 684.49,-74.77 673.97,-73.51 675.48,-80.35"/>
</g>
<!-- Node12&#45;&gt;Node6 -->
<g id="edge12" class="edge">
<title>Node12&#45;&gt;Node6</title>
<path fill="none" stroke="#63b8ff" d="M269.59,-54.51C305.73,-44.84 362.92,-29.53 399.43,-19.75"/>
<polygon fill="#63b8ff" stroke="#63b8ff" points="400.29,-23.15 409.05,-17.18 398.48,-16.38 400.29,-23.15"/>
</g>
<!-- Node12&#45;&gt;Node7 -->
<g id="edge13" class="edge">
<title>Node12&#45;&gt;Node7</title>
<path fill="none" stroke="#63b8ff" d="M199.64,-54.56C165.72,-46.19 113.41,-33.24 59.04,-19.5"/>
<polygon fill="#63b8ff" stroke="#63b8ff" points="60.16,-16.17 49.61,-17.12 58.45,-22.96 60.16,-16.17"/>
</g>
<!-- Node12&#45;&gt;Node9 -->
<g id="edge14" class="edge">
<title>Node12&#45;&gt;Node9</title>
<path fill="none" stroke="#63b8ff" d="M211.4,-54.51C187.93,-45.93 152.33,-32.92 125.93,-23.27"/>
<polygon fill="#63b8ff" stroke="#63b8ff" points="127.25,-20.02 116.66,-19.88 124.85,-26.6 127.25,-20.02"/>
</g>
<!-- Node13 -->
<g id="node13" class="node">
<title>Node13</title>
<g id="a_node13"><a xlink:title=" ">
<polygon fill="#e0e0e0" stroke="#999999" points="186,-19 134,-19 134,0 186,0 186,-19"/>
<text text-anchor="middle" x="160" y="-7" font-family="Helvetica,sans-Serif" font-size="10.00">stdarg.h</text>
</a>
</g>
</g>
<!-- Node12&#45;&gt;Node13 -->
<g id="edge15" class="edge">
<title>Node12&#45;&gt;Node13</title>
<path fill="none" stroke="#63b8ff" d="M223.11,-54.51C211.9,-46.7 195.43,-35.21 182.12,-25.93"/>
<polygon fill="#63b8ff" stroke="#63b8ff" points="184.15,-23.07 173.94,-20.22 180.14,-28.81 184.15,-23.07"/>
</g>
<!-- Node14 -->
<g id="node14" class="node">
<title>Node14</title>
<g id="a_node14"><a xlink:title=" ">
<polygon fill="#e0e0e0" stroke="#999999" points="269.5,-19 204.5,-19 204.5,0 269.5,0 269.5,-19"/>
<text text-anchor="middle" x="237" y="-7" font-family="Helvetica,sans-Serif" font-size="10.00">sys/errno.h</text>
</a>
</g>
</g>
<!-- Node12&#45;&gt;Node14 -->
<g id="edge16" class="edge">
<title>Node12&#45;&gt;Node14</title>
<path fill="none" stroke="#63b8ff" d="M236.17,-54.75C236.29,-48.27 236.46,-39.16 236.62,-30.9"/>
<polygon fill="#63b8ff" stroke="#63b8ff" points="240.11,-31.02 236.8,-20.96 233.11,-30.89 240.11,-31.02"/>
</g>
<!-- Node15 -->
<g id="node15" class="node">
<title>Node15</title>
<g id="a_node15"><a xlink:href="types_8h.html" target="_top" xlink:title=" ">
<polygon fill="white" stroke="#666666" points="392.5,-19 287.5,-19 287.5,0 392.5,0 392.5,-19"/>
<text text-anchor="middle" x="340" y="-7" font-family="Helvetica,sans-Serif" font-size="10.00">ARX/ARUtil/types.h</text>
</a>
</g>
</g>
<!-- Node12&#45;&gt;Node15 -->
<g id="edge17" class="edge">
<title>Node12&#45;&gt;Node15</title>
<path fill="none" stroke="#63b8ff" d="M253.64,-54.51C269.73,-46.31 293.75,-34.07 312.37,-24.58"/>
<polygon fill="#63b8ff" stroke="#63b8ff" points="313.95,-27.7 321.27,-20.05 310.77,-21.47 313.95,-27.7"/>
</g>
<!-- Node17 -->
<g id="node17" class="node">
<title>Node17</title>
<g id="a_node17"><a xlink:title=" ">
<polygon fill="#e0e0e0" stroke="#999999" points="640.5,-19 593.5,-19 593.5,0 640.5,0 640.5,-19"/>
<text text-anchor="middle" x="617" y="-7" font-family="Helvetica,sans-Serif" font-size="10.00">math.h</text>
</a>
</g>
</g>
<!-- Node16&#45;&gt;Node17 -->
<g id="edge19" class="edge">
<title>Node16&#45;&gt;Node17</title>
<path fill="none" stroke="#63b8ff" d="M606.15,-54.75C607.76,-48.19 610.02,-38.95 612.07,-30.6"/>
<polygon fill="#63b8ff" stroke="#63b8ff" points="615.46,-31.46 614.45,-20.91 608.66,-29.79 615.46,-31.46"/>
</g>
<!-- Node18&#45;&gt;Node6 -->
<g id="edge21" class="edge">
<title>Node18&#45;&gt;Node6</title>
<path fill="none" stroke="#63b8ff" d="M488.8,-54.51C479.26,-46.85 465.33,-35.66 453.89,-26.47"/>
<polygon fill="#63b8ff" stroke="#63b8ff" points="456.2,-23.84 446.21,-20.31 451.82,-29.3 456.2,-23.84"/>
</g>
<!-- Node19 -->
<g id="node19" class="node">
<title>Node19</title>
<g id="a_node19"><a xlink:href="icp_core_8h.html" target="_top" xlink:title=" ">
<polygon fill="white" stroke="#666666" points="575,-19 475,-19 475,0 575,0 575,-19"/>
<text text-anchor="middle" x="525" y="-7" font-family="Helvetica,sans-Serif" font-size="10.00">ARX/AR/icpCore.h</text>
</a>
</g>
</g>
<!-- Node18&#45;&gt;Node19 -->
<g id="edge22" class="edge">
<title>Node18&#45;&gt;Node19</title>
<path fill="none" stroke="#63b8ff" d="M504.13,-54.75C507.33,-47.96 511.89,-38.3 515.93,-29.73"/>
<polygon fill="#63b8ff" stroke="#63b8ff" points="519.04,-31.35 520.14,-20.81 512.7,-28.36 519.04,-31.35"/>
</g>
<!-- Node20&#45;&gt;Node5 -->
<g id="edge24" class="edge">
<title>Node20&#45;&gt;Node5</title>
<path fill="none" stroke="#63b8ff" d="M808.67,-74.05C696.14,-90.56 667.42,-91.66 555,-110 552.98,-110.33 550.92,-110.68 548.83,-111.03"/>
<polygon fill="#63b8ff" stroke="#63b8ff" points="548.23,-107.58 538.98,-112.75 549.44,-114.48 548.23,-107.58"/>
</g>
<!-- Node21&#45;&gt;Node5 -->
<g id="edge27" class="edge">
<title>Node21&#45;&gt;Node5</title>
<path fill="none" stroke="#63b8ff" d="M696.38,-74.45C657.34,-83.9 592.87,-98.77 548.45,-108.58"/>
<polygon fill="#63b8ff" stroke="#63b8ff" points="547.83,-105.13 538.82,-110.69 549.33,-111.97 547.83,-105.13"/>
</g>
<!-- Node21&#45;&gt;Node10 -->
<g id="edge26" class="edge">
<title>Node21&#45;&gt;Node10</title>
<path fill="none" stroke="#63b8ff" d="M746.96,-54.51C762.36,-46.35 785.31,-34.19 803.19,-24.71"/>
<polygon fill="#63b8ff" stroke="#63b8ff" points="804.75,-27.84 811.95,-20.07 801.47,-21.66 804.75,-27.84"/>
</g>
<!-- Node22&#45;&gt;Node5 -->
<g id="edge29" class="edge">
<title>Node22&#45;&gt;Node5</title>
<path fill="none" stroke="#63b8ff" d="M421.95,-164.51C436.35,-156.39 457.79,-144.3 474.56,-134.85"/>
<polygon fill="#63b8ff" stroke="#63b8ff" points="475.98,-138.06 482.97,-130.1 472.54,-131.96 475.98,-138.06"/>
</g>
<!-- Node23&#45;&gt;Node5 -->
<g id="edge31" class="edge">
<title>Node23&#45;&gt;Node5</title>
<path fill="none" stroke="#63b8ff" d="M565.6,-164.51C553.84,-156.62 536.49,-144.98 522.59,-135.65"/>
<polygon fill="#63b8ff" stroke="#63b8ff" points="524.71,-132.87 514.46,-130.2 520.81,-138.68 524.71,-132.87"/>
</g>
<!-- Node24 -->
<g id="node24" class="node">
<title>Node24</title>
<g id="a_node24"><a xlink:title=" ">
<polygon fill="#e0e0e0" stroke="#999999" points="607,-129 555,-129 555,-110 607,-110 607,-129"/>
<text text-anchor="middle" x="581" y="-117" font-family="Helvetica,sans-Serif" font-size="10.00">memory</text>
</a>
</g>
</g>
<!-- Node23&#45;&gt;Node24 -->
<g id="edge32" class="edge">
<title>Node23&#45;&gt;Node24</title>
<path fill="none" stroke="#63b8ff" d="M579.33,-164.75C579.57,-158.27 579.92,-149.16 580.23,-140.9"/>
<polygon fill="#63b8ff" stroke="#63b8ff" points="583.73,-141.08 580.61,-130.95 576.73,-140.82 583.73,-141.08"/>
</g>
</g>
</svg>
