<?xml version="1.0" encoding="UTF-8" standalone="no"?>
<!DOCTYPE svg PUBLIC "-//W3C//DTD SVG 1.1//EN"
 "http://www.w3.org/Graphics/SVG/1.1/DTD/svg11.dtd">
<!-- Generated by graphviz version 8.0.5 (20230430.1635)
 -->
<!-- Title: arwStartRunningStereoB Pages: 1 -->
<!--zoomable 434 -->
<svg id="main" version="1.1" xmlns="http://www.w3.org/2000/svg" xmlns:xlink="http://www.w3.org/1999/xlink" xml:space="preserve" onload="init(evt)">
<style type="text/css"><![CDATA[
.edge:hover path { stroke: red; }
.edge:hover polygon { stroke: red; fill: red; }
]]></style>
<script type="text/javascript"><![CDATA[
var edges = document.getElementsByTagName('g');
if (edges && edges.length) {
  for (var i=0;i<edges.length;i++) {
    if (edges[i].id.substr(0,4)=='edge') {
      edges[i].setAttribute('class','edge');
    }
  }
}
]]></script>
        <defs>
                <circle id="rim" cx="0" cy="0" r="7"/>
                <circle id="rim2" cx="0" cy="0" r="3.5"/>
                <g id="zoomPlus">
                        <use xlink:href="#rim" fill="#404040">
                                <set attributeName="fill" to="#808080" begin="zoomplus.mouseover" end="zoomplus.mouseout"/>
                        </use>
                        <path d="M-4,0h8M0,-4v8" fill="none" stroke="white" stroke-width="1.5" pointer-events="none"/>
                </g>
                <g id="zoomMin">
                        <use xlink:href="#rim" fill="#404040">
                                <set attributeName="fill" to="#808080" begin="zoomminus.mouseover" end="zoomminus.mouseout"/>
                        </use>
                        <path d="M-4,0h8" fill="none" stroke="white" stroke-width="1.5" pointer-events="none"/>
                </g>
                <g id="dirArrow">
                        <path fill="none" stroke="white" stroke-width="1.5" d="M0,-3.0v7 M-2.5,-0.5L0,-3.0L2.5,-0.5"/>
                </g>
               <g id="resetDef">
                       <use xlink:href="#rim2" fill="#404040">
                               <set attributeName="fill" to="#808080" begin="reset.mouseover" end="reset.mouseout"/>
                       </use>
               </g>
        </defs>

<script type="text/javascript">
var viewWidth = 818;
var viewHeight = 434;
var sectionId = 'dynsection-49';
</script>
<script xlink:href="svgpan.js"/>
<svg id="graph" class="graph">
<g id="viewport">
<title>arwStartRunningStereoB</title>
<!-- Node1 -->
<g id="node1" class="node">
<title>Node1</title>
<g id="a_node1"><a xlink:title=" ">
<polygon fill="#999999" stroke="#666666" points="124,-241.25 0,-241.25 0,-222 124,-222 124,-241.25"/>
<text text-anchor="middle" x="62" y="-227.75" font-family="Helvetica,sans-Serif" font-size="10.00">arwStartRunningStereoB</text>
</a>
</g>
</g>
<!-- Node2 -->
<g id="node2" class="node">
<title>Node2</title>
<g id="a_node2"><a xlink:href="class_a_r_controller.html#abd0732b11285bc113134d1b891a361f2" target="_top" xlink:title="Start stereo video capture and tracking.">
<polygon fill="white" stroke="#666666" points="293.75,-246.88 160,-246.88 160,-216.38 293.75,-216.38 293.75,-246.88"/>
<text text-anchor="start" x="168" y="-233.38" font-family="Helvetica,sans-Serif" font-size="10.00">ARController::startRunning</text>
<text text-anchor="middle" x="226.88" y="-222.12" font-family="Helvetica,sans-Serif" font-size="10.00">Stereo</text>
</a>
</g>
</g>
<!-- Node1&#45;&gt;Node2 -->
<g id="edge1" class="edge">
<title>Node1&#45;&gt;Node2</title>
<path fill="none" stroke="#63b8ff" d="M124.11,-231.62C132.15,-231.62 140.46,-231.62 148.72,-231.62"/>
<polygon fill="#63b8ff" stroke="#63b8ff" points="148.51,-235.13 158.51,-231.62 148.51,-228.13 148.51,-235.13"/>
</g>
<!-- Node3 -->
<g id="node3" class="node">
<title>Node3</title>
<g id="a_node3"><a xlink:href="param_disp_8c.html#a93a7e99af111d6619c7a2693acdf2aa0" target="_top" xlink:title="Print camera extrinsic matrix to stdout.">
<polygon fill="white" stroke="#666666" points="442.5,-334.25 354.5,-334.25 354.5,-315 442.5,-315 442.5,-334.25"/>
<text text-anchor="middle" x="398.5" y="-320.75" font-family="Helvetica,sans-Serif" font-size="10.00">arParamDispExt</text>
</a>
</g>
</g>
<!-- Node2&#45;&gt;Node3 -->
<g id="edge2" class="edge">
<title>Node2&#45;&gt;Node3</title>
<path fill="none" stroke="#63b8ff" d="M244.61,-247.07C263.8,-264.01 296.88,-290.86 329.75,-306.62 334.31,-308.81 339.18,-310.76 344.13,-312.5"/>
<polygon fill="#63b8ff" stroke="#63b8ff" points="342.75,-316.05 353.34,-315.76 344.88,-309.38 342.75,-316.05"/>
</g>
<!-- Node4 -->
<g id="node4" class="node">
<title>Node4</title>
<g id="a_node4"><a xlink:href="param_file_8c.html#a493e85cce36ae10cd5d536bdf918e284" target="_top" xlink:title="Load camera extrinsic parameters into a matrix from a binary file.">
<polygon fill="white" stroke="#666666" points="442.88,-297.25 354.12,-297.25 354.12,-278 442.88,-278 442.88,-297.25"/>
<text text-anchor="middle" x="398.5" y="-283.75" font-family="Helvetica,sans-Serif" font-size="10.00">arParamLoadExt</text>
</a>
</g>
</g>
<!-- Node2&#45;&gt;Node4 -->
<g id="edge3" class="edge">
<title>Node2&#45;&gt;Node4</title>
<path fill="none" stroke="#63b8ff" d="M267.23,-247.33C286.01,-254.55 308.89,-262.98 329.75,-269.62 335.19,-271.36 340.9,-273.06 346.61,-274.68"/>
<polygon fill="#63b8ff" stroke="#63b8ff" points="345.26,-278.21 355.83,-277.51 347.13,-271.47 345.26,-278.21"/>
</g>
<!-- Node5 -->
<g id="node5" class="node">
<title>Node5</title>
<g id="a_node5"><a xlink:href="param_file_8c.html#ae71e9b1fea9d1aaa587da849ba367047" target="_top" xlink:title="Load camera extrinsic parameters into a matrix from a binary buffer.">
<polygon fill="white" stroke="#666666" points="467.25,-260.25 329.75,-260.25 329.75,-241 467.25,-241 467.25,-260.25"/>
<text text-anchor="middle" x="398.5" y="-246.75" font-family="Helvetica,sans-Serif" font-size="10.00">arParamLoadExtFromBuffer</text>
</a>
</g>
</g>
<!-- Node2&#45;&gt;Node5 -->
<g id="edge4" class="edge">
<title>Node2&#45;&gt;Node5</title>
<path fill="none" stroke="#63b8ff" d="M293.94,-239.03C302.03,-239.93 310.35,-240.86 318.6,-241.79"/>
<polygon fill="#63b8ff" stroke="#63b8ff" points="318.05,-245.36 328.38,-242.99 318.83,-238.4 318.05,-245.36"/>
</g>
<!-- Node6 -->
<g id="node6" class="node">
<title>Node6</title>
<g id="a_node6"><a xlink:href="class_a_r_video_source.html#aa385c7136b3d45c6efaa6604bf0a6d9a" target="_top" xlink:title="Sets initial parameters which will be used when the video source is opened.">
<polygon fill="white" stroke="#666666" points="464.25,-223.25 332.75,-223.25 332.75,-204 464.25,-204 464.25,-223.25"/>
<text text-anchor="middle" x="398.5" y="-209.75" font-family="Helvetica,sans-Serif" font-size="10.00">ARVideoSource::configure</text>
</a>
</g>
</g>
<!-- Node2&#45;&gt;Node6 -->
<g id="edge5" class="edge">
<title>Node2&#45;&gt;Node6</title>
<path fill="none" stroke="#63b8ff" d="M293.94,-224.61C303.04,-223.65 312.43,-222.65 321.68,-221.67"/>
<polygon fill="#63b8ff" stroke="#63b8ff" points="321.87,-225.06 331.45,-220.53 321.14,-218.1 321.87,-225.06"/>
</g>
<!-- Node7 -->
<g id="node7" class="node">
<title>Node7</title>
<g id="a_node7"><a xlink:href="class_a_r_video_source.html#a1d4e4cebdf413918427c39aa99a197cc" target="_top" xlink:title=" ">
<polygon fill="white" stroke="#666666" points="461.62,-186.25 335.38,-186.25 335.38,-167 461.62,-167 461.62,-186.25"/>
<text text-anchor="middle" x="398.5" y="-172.75" font-family="Helvetica,sans-Serif" font-size="10.00">ARVideoSource::getError</text>
</a>
</g>
</g>
<!-- Node2&#45;&gt;Node7 -->
<g id="edge6" class="edge">
<title>Node2&#45;&gt;Node7</title>
<path fill="none" stroke="#63b8ff" d="M268.24,-216.03C286.84,-209.09 309.28,-201.05 329.75,-194.62 335.27,-192.89 341.07,-191.19 346.86,-189.55"/>
<polygon fill="#63b8ff" stroke="#63b8ff" points="347.5,-192.73 356.21,-186.7 345.64,-185.98 347.5,-192.73"/>
</g>
<!-- Node8 -->
<g id="node8" class="node">
<title>Node8</title>
<g id="a_node8"><a xlink:href="class_a_r_video_source.html#ad6e81f0a07ddf8e844dfb867bc94de4b" target="_top" xlink:title="Opens the video source.">
<polygon fill="white" stroke="#666666" points="454.88,-149.25 342.12,-149.25 342.12,-130 454.88,-130 454.88,-149.25"/>
<text text-anchor="middle" x="398.5" y="-135.75" font-family="Helvetica,sans-Serif" font-size="10.00">ARVideoSource::open</text>
</a>
</g>
</g>
<!-- Node2&#45;&gt;Node8 -->
<g id="edge7" class="edge">
<title>Node2&#45;&gt;Node8</title>
<path fill="none" stroke="#63b8ff" d="M244.99,-216.09C264.27,-199.38 297.18,-173.12 329.75,-157.62 333.09,-156.03 336.6,-154.57 340.18,-153.22"/>
<polygon fill="#63b8ff" stroke="#63b8ff" points="341.08,-156.27 349.41,-149.72 338.81,-149.65 341.08,-156.27"/>
</g>
<!-- Node9 -->
<g id="node9" class="node">
<title>Node9</title>
<g id="a_node9"><a xlink:href="video2_8c.html#aef591a0c1b52999872fa5a89f7b2e4e9" target="_top" xlink:title="Open a video input module and return control object.">
<polygon fill="white" stroke="#666666" points="594.62,-259.25 517.12,-259.25 517.12,-240 594.62,-240 594.62,-259.25"/>
<text text-anchor="middle" x="555.88" y="-245.75" font-family="Helvetica,sans-Serif" font-size="10.00">ar2VideoOpen</text>
</a>
</g>
</g>
<!-- Node8&#45;&gt;Node9 -->
<g id="edge8" class="edge">
<title>Node8&#45;&gt;Node9</title>
<path fill="none" stroke="#63b8ff" d="M449.98,-149.68C456.01,-151.84 461.91,-154.46 467.25,-157.62 498.87,-176.35 526.45,-209.67 541.85,-230.66"/>
<polygon fill="#63b8ff" stroke="#63b8ff" points="539.57,-232.48 548.22,-238.59 545.27,-228.42 539.57,-232.48"/>
</g>
<!-- Node19 -->
<g id="node19" class="node">
<title>Node19</title>
<g id="a_node19"><a xlink:href="video2_8c.html#a3827b2271419905797e3326a91255794" target="_top" xlink:title="Open a video input module, and return control object, invoking a callback once opening is complete.">
<polygon fill="white" stroke="#666666" points="608.5,-75.25 503.25,-75.25 503.25,-56 608.5,-56 608.5,-75.25"/>
<text text-anchor="middle" x="555.88" y="-61.75" font-family="Helvetica,sans-Serif" font-size="10.00">ar2VideoOpenAsync</text>
</a>
</g>
</g>
<!-- Node8&#45;&gt;Node19 -->
<g id="edge18" class="edge">
<title>Node8&#45;&gt;Node19</title>
<path fill="none" stroke="#63b8ff" d="M420.45,-129.65C447.1,-116.96 493.31,-94.94 524,-80.33"/>
<polygon fill="#63b8ff" stroke="#63b8ff" points="525.23,-83.14 532.76,-75.68 522.22,-76.82 525.23,-83.14"/>
</g>
<!-- Node10 -->
<g id="node10" class="node">
<title>Node10</title>
<g id="a_node10"><a xlink:href="video1394_8h.html#a5e135a088763d0bbeb2d95f8c92704b1" target="_top" xlink:title=" ">
<polygon fill="white" stroke="#666666" points="776.38,-426.25 677.88,-426.25 677.88,-407 776.38,-407 776.38,-426.25"/>
<text text-anchor="middle" x="727.12" y="-412.75" font-family="Helvetica,sans-Serif" font-size="10.00">ar2VideoOpen1394</text>
</a>
</g>
</g>
<!-- Node9&#45;&gt;Node10 -->
<g id="edge9" class="edge">
<title>Node9&#45;&gt;Node10</title>
<path fill="none" stroke="#63b8ff" d="M559.63,-259.51C567.71,-286.51 593.99,-361.95 644.5,-398.62 651.27,-403.54 659.13,-407.16 667.25,-409.81"/>
<polygon fill="#63b8ff" stroke="#63b8ff" points="666.03,-413.38 676.6,-412.67 667.9,-406.63 666.03,-413.38"/>
</g>
<!-- Node11 -->
<g id="node11" class="node">
<title>Node11</title>
<g id="a_node11"><a xlink:href="video_a_v_foundation_8h.html#aefeea555e04e4d04eb17b4adea17013d" target="_top" xlink:title=" ">
<polygon fill="white" stroke="#666666" points="795.88,-389.25 658.38,-389.25 658.38,-370 795.88,-370 795.88,-389.25"/>
<text text-anchor="middle" x="727.12" y="-375.75" font-family="Helvetica,sans-Serif" font-size="10.00">ar2VideoOpenAVFoundation</text>
</a>
</g>
</g>
<!-- Node9&#45;&gt;Node11 -->
<g id="edge10" class="edge">
<title>Node9&#45;&gt;Node11</title>
<path fill="none" stroke="#63b8ff" d="M561.62,-259.58C572.74,-281.75 602.72,-335.31 644.5,-361.62 646.55,-362.91 648.67,-364.11 650.86,-365.22"/>
<polygon fill="#63b8ff" stroke="#63b8ff" points="649.2,-368.76 659.76,-369.57 652.01,-362.35 649.2,-368.76"/>
</g>
<!-- Node12 -->
<g id="node12" class="node">
<title>Node12</title>
<g id="a_node12"><a xlink:href="video_dummy_8h.html#a72835c795b3b4f9ec13d7c3bfe482476" target="_top" xlink:title=" ">
<polygon fill="white" stroke="#666666" points="783.12,-352.25 671.12,-352.25 671.12,-333 783.12,-333 783.12,-352.25"/>
<text text-anchor="middle" x="727.12" y="-338.75" font-family="Helvetica,sans-Serif" font-size="10.00">ar2VideoOpenDummy</text>
</a>
</g>
</g>
<!-- Node9&#45;&gt;Node12 -->
<g id="edge11" class="edge">
<title>Node9&#45;&gt;Node12</title>
<path fill="none" stroke="#63b8ff" d="M565.47,-259.65C580.01,-275.95 611.17,-308.01 644.5,-324.62 649.61,-327.17 655.09,-329.37 660.68,-331.25"/>
<polygon fill="#63b8ff" stroke="#63b8ff" points="659.26,-334.78 669.85,-334.31 661.29,-328.08 659.26,-334.78"/>
</g>
<!-- Node13 -->
<g id="node13" class="node">
<title>Node13</title>
<g id="a_node13"><a xlink:href="video_emscripten_8h.html#a29074bdca28d3b80a8e89895087646b5" target="_top" xlink:title=" ">
<polygon fill="white" stroke="#666666" points="790.62,-315.25 663.62,-315.25 663.62,-296 790.62,-296 790.62,-315.25"/>
<text text-anchor="middle" x="727.12" y="-301.75" font-family="Helvetica,sans-Serif" font-size="10.00">ar2VideoOpenEmscripten</text>
</a>
</g>
</g>
<!-- Node9&#45;&gt;Node13 -->
<g id="edge12" class="edge">
<title>Node9&#45;&gt;Node13</title>
<path fill="none" stroke="#63b8ff" d="M576.98,-259.67C594.47,-268.08 620.68,-279.91 644.5,-287.62 650.43,-289.54 656.66,-291.32 662.93,-292.96"/>
<polygon fill="#63b8ff" stroke="#63b8ff" points="661.92,-296.57 672.47,-295.58 663.61,-289.77 661.92,-296.57"/>
</g>
<!-- Node14 -->
<g id="node14" class="node">
<title>Node14</title>
<g id="a_node14"><a xlink:href="video_g_streamer_8h.html#a39ad73e9efc5e41fb011b58ec8262958" target="_top" xlink:title=" ">
<polygon fill="white" stroke="#666666" points="789.5,-278.25 664.75,-278.25 664.75,-259 789.5,-259 789.5,-278.25"/>
<text text-anchor="middle" x="727.12" y="-264.75" font-family="Helvetica,sans-Serif" font-size="10.00">ar2VideoOpenGStreamer</text>
</a>
</g>
</g>
<!-- Node9&#45;&gt;Node14 -->
<g id="edge13" class="edge">
<title>Node9&#45;&gt;Node14</title>
<path fill="none" stroke="#63b8ff" d="M594.86,-253.89C612.21,-255.84 633.36,-258.21 653.57,-260.48"/>
<polygon fill="#63b8ff" stroke="#63b8ff" points="653.03,-264.05 663.35,-261.69 653.81,-257.1 653.03,-264.05"/>
</g>
<!-- Node15 -->
<g id="node15" class="node">
<title>Node15</title>
<g id="a_node15"><a xlink:href="video_image_8h.html#a73390fddad6f8e51c827515ba754986b" target="_top" xlink:title=" ">
<polygon fill="white" stroke="#666666" points="779.38,-241.25 674.88,-241.25 674.88,-222 779.38,-222 779.38,-241.25"/>
<text text-anchor="middle" x="727.12" y="-227.75" font-family="Helvetica,sans-Serif" font-size="10.00">ar2VideoOpenImage</text>
</a>
</g>
</g>
<!-- Node9&#45;&gt;Node15 -->
<g id="edge14" class="edge">
<title>Node9&#45;&gt;Node15</title>
<path fill="none" stroke="#63b8ff" d="M594.86,-245.59C615.14,-243.43 640.61,-240.72 663.71,-238.26"/>
<polygon fill="#63b8ff" stroke="#63b8ff" points="663.9,-241.66 673.47,-237.12 663.16,-234.7 663.9,-241.66"/>
</g>
<!-- Node16 -->
<g id="node16" class="node">
<title>Node16</title>
<g id="a_node16"><a xlink:href="video_v4_l2_8h.html#abfb2b883b0d8a1b97aece447925d9fbb" target="_top" xlink:title=" ">
<polygon fill="white" stroke="#666666" points="777.12,-204.25 677.12,-204.25 677.12,-185 777.12,-185 777.12,-204.25"/>
<text text-anchor="middle" x="727.12" y="-190.75" font-family="Helvetica,sans-Serif" font-size="10.00">ar2VideoOpenV4L2</text>
</a>
</g>
</g>
<!-- Node9&#45;&gt;Node16 -->
<g id="edge15" class="edge">
<title>Node9&#45;&gt;Node16</title>
<path fill="none" stroke="#63b8ff" d="M577.72,-239.55C595.22,-231.4 621.06,-220.09 644.5,-212.62 651.55,-210.38 659.03,-208.32 666.48,-206.45"/>
<polygon fill="#63b8ff" stroke="#63b8ff" points="667.05,-209.67 675.97,-203.94 665.43,-202.86 667.05,-209.67"/>
</g>
<!-- Node17 -->
<g id="node17" class="node">
<title>Node17</title>
<g id="a_node17"><a xlink:href="video_windows_media_capture_8h.html#a61863b436e12e617a68415854ef8873a" target="_top" xlink:title=" ">
<polygon fill="white" stroke="#666666" points="782.38,-167.25 671.88,-167.25 671.88,-148 782.38,-148 782.38,-167.25"/>
<text text-anchor="middle" x="727.12" y="-153.75" font-family="Helvetica,sans-Serif" font-size="10.00">ar2VideoOpenWinMC</text>
</a>
</g>
</g>
<!-- Node9&#45;&gt;Node17 -->
<g id="edge16" class="edge">
<title>Node9&#45;&gt;Node17</title>
<path fill="none" stroke="#63b8ff" d="M565.5,-239.73C580.09,-223.67 611.3,-192.04 644.5,-175.62 649.78,-173.01 655.45,-170.78 661.24,-168.86"/>
<polygon fill="#63b8ff" stroke="#63b8ff" points="662.14,-171.95 670.73,-165.75 660.15,-165.24 662.14,-171.95"/>
</g>
<!-- Node18 -->
<g id="node18" class="node">
<title>Node18</title>
<g id="a_node18"><a xlink:href="video_windows_media_foundation_8h.html#a0fd1e3b5895e22598a81e24f86820168" target="_top" xlink:title=" ">
<polygon fill="white" stroke="#666666" points="781.62,-130.25 672.62,-130.25 672.62,-111 781.62,-111 781.62,-130.25"/>
<text text-anchor="middle" x="727.12" y="-116.75" font-family="Helvetica,sans-Serif" font-size="10.00">ar2VideoOpenWinMF</text>
</a>
</g>
</g>
<!-- Node9&#45;&gt;Node18 -->
<g id="edge17" class="edge">
<title>Node9&#45;&gt;Node18</title>
<path fill="none" stroke="#63b8ff" d="M561.65,-239.76C572.81,-217.78 602.89,-164.7 644.5,-138.62 649.86,-135.27 655.75,-132.53 661.85,-130.3"/>
<polygon fill="#63b8ff" stroke="#63b8ff" points="662.77,-133.37 671.25,-127.01 660.66,-126.69 662.77,-133.37"/>
</g>
<!-- Node20 -->
<g id="node20" class="node">
<title>Node20</title>
<g id="a_node20"><a xlink:href="video_android_8h.html#a1d6e964f2d94fca2f61cd36f1bcaf8a5" target="_top" xlink:title=" ">
<polygon fill="white" stroke="#666666" points="796.25,-93.25 658,-93.25 658,-74 796.25,-74 796.25,-93.25"/>
<text text-anchor="middle" x="727.12" y="-79.75" font-family="Helvetica,sans-Serif" font-size="10.00">ar2VideoOpenAsyncAndroid</text>
</a>
</g>
</g>
<!-- Node19&#45;&gt;Node20 -->
<g id="edge19" class="edge">
<title>Node19&#45;&gt;Node20</title>
<path fill="none" stroke="#63b8ff" d="M608.58,-71.12C620.65,-72.41 633.79,-73.8 646.76,-75.18"/>
<polygon fill="#63b8ff" stroke="#63b8ff" points="646.27,-78.76 656.59,-76.34 647.01,-71.8 646.27,-78.76"/>
</g>
<!-- Node21 -->
<g id="node21" class="node">
<title>Node21</title>
<g id="a_node21"><a xlink:href="video_a_v_foundation_8h.html#adb1121aa31efbd7a52a0a09f1c287064" target="_top" xlink:title=" ">
<polygon fill="white" stroke="#666666" points="809.75,-56.25 644.5,-56.25 644.5,-37 809.75,-37 809.75,-56.25"/>
<text text-anchor="middle" x="727.12" y="-42.75" font-family="Helvetica,sans-Serif" font-size="10.00">ar2VideoOpenAsyncAVFoundation</text>
</a>
</g>
</g>
<!-- Node19&#45;&gt;Node21 -->
<g id="edge20" class="edge">
<title>Node19&#45;&gt;Node21</title>
<path fill="none" stroke="#63b8ff" d="M608.58,-59.82C616.5,-58.93 624.89,-57.99 633.39,-57.04"/>
<polygon fill="#63b8ff" stroke="#63b8ff" points="633.63,-60.42 643.18,-55.82 632.85,-53.46 633.63,-60.42"/>
</g>
<!-- Node22 -->
<g id="node22" class="node">
<title>Node22</title>
<g id="a_node22"><a xlink:href="video_external_8h.html#a6688bc62f5be5535ce19a0fd80c23ab4" target="_top" xlink:title=" ">
<polygon fill="white" stroke="#666666" points="797.75,-19.25 656.5,-19.25 656.5,0 797.75,0 797.75,-19.25"/>
<text text-anchor="middle" x="727.12" y="-5.75" font-family="Helvetica,sans-Serif" font-size="10.00">ar2VideoOpenAsyncExternal</text>
</a>
</g>
</g>
<!-- Node19&#45;&gt;Node22 -->
<g id="edge21" class="edge">
<title>Node19&#45;&gt;Node22</title>
<path fill="none" stroke="#63b8ff" d="M576.98,-55.58C594.47,-47.17 620.68,-35.34 644.5,-27.62 650.43,-25.71 656.66,-23.93 662.93,-22.29"/>
<polygon fill="#63b8ff" stroke="#63b8ff" points="663.61,-25.48 672.47,-19.67 661.92,-18.68 663.61,-25.48"/>
</g>
</g>
</svg>
        <g id="navigator" transform="translate(0 0)" fill="#404254">
                <rect fill="#f2f5e9" fill-opacity="0.5" stroke="#606060" stroke-width=".5" x="0" y="0" width="60" height="60"/>
                <use id="zoomplus" xlink:href="#zoomPlus" x="17" y="9" onmousedown="handleZoom(evt,'in')"/>
                <use id="zoomminus" xlink:href="#zoomMin" x="42" y="9" onmousedown="handleZoom(evt,'out')"/>
                <use id="reset" xlink:href="#resetDef" x="30" y="36" onmousedown="handleReset()"/>
                <g id="arrowUp" xlink:href="#dirArrow" transform="translate(30 24)" onmousedown="handlePan(0,-1)">
                  <use xlink:href="#rim" fill="#404040">
                        <set attributeName="fill" to="#808080" begin="arrowUp.mouseover" end="arrowUp.mouseout"/>
                  </use>
                  <path fill="none" stroke="white" stroke-width="1.5" d="M0,-3.0v7 M-2.5,-0.5L0,-3.0L2.5,-0.5"/>
                </g>
                <g id="arrowRight" xlink:href="#dirArrow" transform="rotate(90) translate(36 -43)" onmousedown="handlePan(1,0)">
                  <use xlink:href="#rim" fill="#404040">
                        <set attributeName="fill" to="#808080" begin="arrowRight.mouseover" end="arrowRight.mouseout"/>
                  </use>
                  <path fill="none" stroke="white" stroke-width="1.5" d="M0,-3.0v7 M-2.5,-0.5L0,-3.0L2.5,-0.5"/>
                </g>
                <g id="arrowDown" xlink:href="#dirArrow" transform="rotate(180) translate(-30 -48)" onmousedown="handlePan(0,1)">
                  <use xlink:href="#rim" fill="#404040">
                        <set attributeName="fill" to="#808080" begin="arrowDown.mouseover" end="arrowDown.mouseout"/>
                  </use>
                  <path fill="none" stroke="white" stroke-width="1.5" d="M0,-3.0v7 M-2.5,-0.5L0,-3.0L2.5,-0.5"/>
                </g>
                <g id="arrowLeft" xlink:href="#dirArrow" transform="rotate(270) translate(-36 17)" onmousedown="handlePan(-1,0)">
                  <use xlink:href="#rim" fill="#404040">
                        <set attributeName="fill" to="#808080" begin="arrowLeft.mouseover" end="arrowLeft.mouseout"/>
                  </use>
                  <path fill="none" stroke="white" stroke-width="1.5" d="M0,-3.0v7 M-2.5,-0.5L0,-3.0L2.5,-0.5"/>
                </g>
        </g>
        <svg viewBox="0 0 15 15" width="100%" height="30px" preserveAspectRatio="xMaxYMin meet">
         <g id="arrow_out" transform="scale(0.3 0.3)">
          <a xlink:href="_a_r_x__c_8h_a4f762753b15ed9b3852fa49bac22d818_cgraph_org.svg" target="_base">
           <rect id="button" ry="5" rx="5" y="6" x="6" height="38" width="38"
                fill="#f2f5e9" fill-opacity="0.5" stroke="#606060" stroke-width="1.0"/>
           <path id="arrow"
             d="M 11.500037,31.436501 C 11.940474,20.09759 22.043105,11.32322 32.158766,21.979434 L 37.068811,17.246167 C 37.068811,17.246167 37.088388,32 37.088388,32 L 22.160133,31.978069 C 22.160133,31.978069 26.997745,27.140456 26.997745,27.140456 C 18.528582,18.264221 13.291696,25.230495 11.500037,31.436501 z"
             style="fill:#404040;"/>
          </a>
         </g>
        </svg>
</svg>
