<?xml version="1.0" encoding="UTF-8" standalone="no"?>
<!DOCTYPE svg PUBLIC "-//W3C//DTD SVG 1.1//EN"
 "http://www.w3.org/Graphics/SVG/1.1/DTD/svg11.dtd">
<!-- Generated by graphviz version 8.0.5 (20230430.1635)
 -->
<!-- Title: Source/ARX/ARVideoSource.cpp Pages: 1 -->
<svg width="1461pt" height="525pt"
 viewBox="0.00 0.00 1461.25 524.50" xmlns="http://www.w3.org/2000/svg" xmlns:xlink="http://www.w3.org/1999/xlink">
<g id="graph0" class="graph" transform="scale(1 1) rotate(0) translate(4 520.5)">
<title>Source/ARX/ARVideoSource.cpp</title>
<!-- Node1 -->
<g id="node1" class="node">
<title>Node1</title>
<g id="a_node1"><a xlink:title=" ">
<polygon fill="#999999" stroke="#666666" points="1007.12,-516.5 844.88,-516.5 844.88,-497.25 1007.12,-497.25 1007.12,-516.5"/>
<text text-anchor="middle" x="926" y="-503" font-family="Helvetica,sans-Serif" font-size="10.00">Source/ARX/ARVideoSource.cpp</text>
</a>
</g>
</g>
<!-- Node2 -->
<g id="node2" class="node">
<title>Node2</title>
<g id="a_node2"><a xlink:title=" ">
<polygon fill="#e0e0e0" stroke="#999999" points="248.75,-19.25 201.25,-19.25 201.25,0 248.75,0 248.75,-19.25"/>
<text text-anchor="middle" x="225" y="-5.75" font-family="Helvetica,sans-Serif" font-size="10.00">stdlib.h</text>
</a>
</g>
</g>
<!-- Node1&#45;&gt;Node2 -->
<g id="edge1" class="edge">
<title>Node1&#45;&gt;Node2</title>
<path fill="none" stroke="#63b8ff" d="M844.64,-504.81C618.67,-500.79 0,-482.05 0,-397.38 0,-397.38 0,-397.38 0,-119.12 0,-35.67 127.15,-16.37 190.28,-11.93"/>
<polygon fill="#63b8ff" stroke="#63b8ff" points="190.15,-15.39 199.92,-11.29 189.73,-8.4 190.15,-15.39"/>
</g>
<!-- Node3 -->
<g id="node3" class="node">
<title>Node3</title>
<g id="a_node3"><a xlink:title=" ">
<polygon fill="#e0e0e0" stroke="#999999" points="1293.38,-461.25 1234.62,-461.25 1234.62,-442 1293.38,-442 1293.38,-461.25"/>
<text text-anchor="middle" x="1264" y="-447.75" font-family="Helvetica,sans-Serif" font-size="10.00">inttypes.h</text>
</a>
</g>
</g>
<!-- Node1&#45;&gt;Node3 -->
<g id="edge2" class="edge">
<title>Node1&#45;&gt;Node3</title>
<path fill="none" stroke="#63b8ff" d="M992.34,-496.76C1052.23,-488.32 1142.69,-475.02 1221,-461.25 1221.95,-461.08 1222.91,-460.91 1223.88,-460.74"/>
<polygon fill="#63b8ff" stroke="#63b8ff" points="1224.25,-464.04 1233.43,-458.75 1222.95,-457.16 1224.25,-464.04"/>
</g>
<!-- Node4 -->
<g id="node4" class="node">
<title>Node4</title>
<g id="a_node4"><a xlink:title=" ">
<polygon fill="#e0e0e0" stroke="#999999" points="1366.88,-461.25 1311.12,-461.25 1311.12,-442 1366.88,-442 1366.88,-461.25"/>
<text text-anchor="middle" x="1339" y="-447.75" font-family="Helvetica,sans-Serif" font-size="10.00">algorithm</text>
</a>
</g>
</g>
<!-- Node1&#45;&gt;Node4 -->
<g id="edge3" class="edge">
<title>Node1&#45;&gt;Node4</title>
<path fill="none" stroke="#63b8ff" d="M1007.43,-498.84C1081.38,-491.85 1193.64,-479.74 1300.16,-461.4"/>
<polygon fill="#63b8ff" stroke="#63b8ff" points="1300.54,-464.71 1309.78,-459.54 1299.33,-457.81 1300.54,-464.71"/>
</g>
<!-- Node5 -->
<g id="node5" class="node">
<title>Node5</title>
<g id="a_node5"><a xlink:title=" ">
<polygon fill="#e0e0e0" stroke="#999999" points="1384,-19.25 1338,-19.25 1338,0 1384,0 1384,-19.25"/>
<text text-anchor="middle" x="1361" y="-5.75" font-family="Helvetica,sans-Serif" font-size="10.00">math.h</text>
</a>
</g>
</g>
<!-- Node1&#45;&gt;Node5 -->
<g id="edge4" class="edge">
<title>Node1&#45;&gt;Node5</title>
<path fill="none" stroke="#63b8ff" d="M971.97,-496.81C1062.07,-478.63 1258.48,-436.8 1320,-406 1360.38,-385.79 1399,-387.28 1399,-342.12 1399,-342.12 1399,-342.12 1399,-119.12 1399,-85.98 1383.01,-50.18 1371.78,-29.12"/>
<polygon fill="#63b8ff" stroke="#63b8ff" points="1374.37,-27.58 1366.44,-20.54 1368.25,-30.98 1374.37,-27.58"/>
</g>
<!-- Node6 -->
<g id="node6" class="node">
<title>Node6</title>
<g id="a_node6"><a xlink:href="_a_r_video_source_8h.html" target="_top" xlink:title=" ">
<polygon fill="white" stroke="#666666" points="439,-295.5 321,-295.5 321,-276.25 439,-276.25 439,-295.5"/>
<text text-anchor="middle" x="380" y="-282" font-family="Helvetica,sans-Serif" font-size="10.00">ARX/ARVideoSource.h</text>
</a>
</g>
</g>
<!-- Node1&#45;&gt;Node6 -->
<g id="edge5" class="edge">
<title>Node1&#45;&gt;Node6</title>
<path fill="none" stroke="#63b8ff" d="M844.43,-497.39C720.92,-483.27 493.77,-451.86 427,-406 394.11,-383.41 384.24,-333.96 381.27,-306.4"/>
<polygon fill="#63b8ff" stroke="#63b8ff" points="384.7,-306.43 380.36,-296.77 377.73,-307.03 384.7,-306.43"/>
</g>
<!-- Node29 -->
<g id="node29" class="node">
<title>Node29</title>
<g id="a_node29"><a xlink:href="_error_8h.html" target="_top" xlink:title="Defines error codes used in the ARX library.">
<polygon fill="white" stroke="#666666" points="1453.25,-461.25 1384.75,-461.25 1384.75,-442 1453.25,-442 1453.25,-461.25"/>
<text text-anchor="middle" x="1419" y="-447.75" font-family="Helvetica,sans-Serif" font-size="10.00">ARX/Error.h</text>
</a>
</g>
</g>
<!-- Node1&#45;&gt;Node29 -->
<g id="edge40" class="edge">
<title>Node1&#45;&gt;Node29</title>
<path fill="none" stroke="#63b8ff" d="M1007.59,-500.23C1095.6,-493.58 1240.02,-481.08 1373.5,-461.5"/>
<polygon fill="#63b8ff" stroke="#63b8ff" points="1373.94,-464.82 1383.32,-459.89 1372.91,-457.9 1373.94,-464.82"/>
</g>
<!-- Node30 -->
<g id="node30" class="node">
<title>Node30</title>
<g id="a_node30"><a xlink:href="_a_r_controller_8h.html" target="_top" xlink:title=" ">
<polygon fill="white" stroke="#666666" points="937.88,-461.25 834.12,-461.25 834.12,-442 937.88,-442 937.88,-461.25"/>
<text text-anchor="middle" x="886" y="-447.75" font-family="Helvetica,sans-Serif" font-size="10.00">ARX/ARController.h</text>
</a>
</g>
</g>
<!-- Node1&#45;&gt;Node30 -->
<g id="edge41" class="edge">
<title>Node1&#45;&gt;Node30</title>
<path fill="none" stroke="#63b8ff" d="M919.39,-497.08C913.93,-489.8 905.99,-479.23 899.22,-470.23"/>
<polygon fill="#63b8ff" stroke="#63b8ff" points="901.55,-468.5 892.75,-462.61 895.96,-472.71 901.55,-468.5"/>
</g>
<!-- Node46 -->
<g id="node46" class="node">
<title>Node46</title>
<g id="a_node46"><a xlink:href="video_r_g_b_a_8h.html" target="_top" xlink:title=" ">
<polygon fill="white" stroke="#666666" points="170,-406 28,-406 28,-386.75 170,-386.75 170,-406"/>
<text text-anchor="middle" x="99" y="-392.5" font-family="Helvetica,sans-Serif" font-size="10.00">ARX/ARVideo/videoRGBA.h</text>
</a>
</g>
</g>
<!-- Node1&#45;&gt;Node46 -->
<g id="edge81" class="edge">
<title>Node1&#45;&gt;Node46</title>
<path fill="none" stroke="#63b8ff" d="M844.67,-504.2C688.72,-500.4 353.18,-489.16 241,-461.25 197.54,-450.44 150.87,-426.87 123.34,-411.59"/>
<polygon fill="#63b8ff" stroke="#63b8ff" points="125.53,-408.24 115.1,-406.37 122.09,-414.33 125.53,-408.24"/>
</g>
<!-- Node7 -->
<g id="node7" class="node">
<title>Node7</title>
<g id="a_node7"><a xlink:href="_platform_8h.html" target="_top" xlink:title=" ">
<polygon fill="white" stroke="#666666" points="599.5,-240.25 514.5,-240.25 514.5,-221 599.5,-221 599.5,-240.25"/>
<text text-anchor="middle" x="557" y="-226.75" font-family="Helvetica,sans-Serif" font-size="10.00">ARX/Platform.h</text>
</a>
</g>
</g>
<!-- Node6&#45;&gt;Node7 -->
<g id="edge6" class="edge">
<title>Node6&#45;&gt;Node7</title>
<path fill="none" stroke="#63b8ff" d="M410.03,-275.84C439.27,-267.04 483.93,-253.61 516.34,-243.86"/>
<polygon fill="#63b8ff" stroke="#63b8ff" points="517.26,-246.94 525.83,-240.7 515.24,-240.23 517.26,-246.94"/>
</g>
<!-- Node8 -->
<g id="node8" class="node">
<title>Node8</title>
<g id="a_node8"><a xlink:href="ar_8h.html" target="_top" xlink:title="artoolkitX core routines.">
<polygon fill="white" stroke="#666666" points="796.5,-129.75 723.5,-129.75 723.5,-110.5 796.5,-110.5 796.5,-129.75"/>
<text text-anchor="middle" x="760" y="-116.25" font-family="Helvetica,sans-Serif" font-size="10.00">ARX/AR/ar.h</text>
</a>
</g>
</g>
<!-- Node6&#45;&gt;Node8 -->
<g id="edge7" class="edge">
<title>Node6&#45;&gt;Node8</title>
<path fill="none" stroke="#63b8ff" d="M384.7,-276.04C392.5,-262.24 409.39,-235.65 431,-221 519.33,-161.1 644.76,-136.15 712.38,-126.55"/>
<polygon fill="#63b8ff" stroke="#63b8ff" points="712.69,-129.91 722.12,-125.09 711.74,-122.97 712.69,-129.91"/>
</g>
<!-- Node23 -->
<g id="node23" class="node">
<title>Node23</title>
<g id="a_node23"><a xlink:href="video_8h.html" target="_top" xlink:title=" ">
<polygon fill="white" stroke="#666666" points="283.75,-240.25 170.25,-240.25 170.25,-221 283.75,-221 283.75,-240.25"/>
<text text-anchor="middle" x="227" y="-226.75" font-family="Helvetica,sans-Serif" font-size="10.00">ARX/ARVideo/video.h</text>
</a>
</g>
</g>
<!-- Node6&#45;&gt;Node23 -->
<g id="edge31" class="edge">
<title>Node6&#45;&gt;Node23</title>
<path fill="none" stroke="#63b8ff" d="M354.05,-275.84C329.1,-267.16 291.17,-253.96 263.25,-244.24"/>
<polygon fill="#63b8ff" stroke="#63b8ff" points="264.68,-240.68 254.08,-240.7 262.38,-247.3 264.68,-240.68"/>
</g>
<!-- Node27 -->
<g id="node27" class="node">
<title>Node27</title>
<g id="a_node27"><a xlink:title=" ">
<polygon fill="#e0e0e0" stroke="#999999" points="383.5,-240.25 340.5,-240.25 340.5,-221 383.5,-221 383.5,-240.25"/>
<text text-anchor="middle" x="362" y="-226.75" font-family="Helvetica,sans-Serif" font-size="10.00">mutex</text>
</a>
</g>
</g>
<!-- Node6&#45;&gt;Node27 -->
<g id="edge38" class="edge">
<title>Node6&#45;&gt;Node27</title>
<path fill="none" stroke="#63b8ff" d="M377.03,-276.08C374.72,-269.26 371.44,-259.56 368.53,-250.95"/>
<polygon fill="#63b8ff" stroke="#63b8ff" points="371.55,-249.96 365.04,-241.61 364.92,-252.2 371.55,-249.96"/>
</g>
<!-- Node28 -->
<g id="node28" class="node">
<title>Node28</title>
<g id="a_node28"><a xlink:title=" ">
<polygon fill="#e0e0e0" stroke="#999999" points="496.25,-240.25 439.75,-240.25 439.75,-221 496.25,-221 496.25,-240.25"/>
<text text-anchor="middle" x="468" y="-226.75" font-family="Helvetica,sans-Serif" font-size="10.00">pthread.h</text>
</a>
</g>
</g>
<!-- Node6&#45;&gt;Node28 -->
<g id="edge39" class="edge">
<title>Node6&#45;&gt;Node28</title>
<path fill="none" stroke="#63b8ff" d="M394.93,-275.84C408.33,-267.73 428.24,-255.68 443.9,-246.21"/>
<polygon fill="#63b8ff" stroke="#63b8ff" points="445.26,-248.87 452,-240.7 441.63,-242.89 445.26,-248.87"/>
</g>
<!-- Node8&#45;&gt;Node2 -->
<g id="edge9" class="edge">
<title>Node8&#45;&gt;Node2</title>
<path fill="none" stroke="#63b8ff" d="M723.14,-116.14C661.92,-110.72 535.68,-97.66 431,-74.5 369.42,-60.87 299.69,-37.52 259.19,-23.15"/>
<polygon fill="#63b8ff" stroke="#63b8ff" points="260.66,-19.6 250.07,-19.52 258.3,-26.19 260.66,-19.6"/>
</g>
<!-- Node9 -->
<g id="node9" class="node">
<title>Node9</title>
<g id="a_node9"><a xlink:title=" ">
<polygon fill="#e0e0e0" stroke="#999999" points="1126.62,-19.25 1081.38,-19.25 1081.38,0 1126.62,0 1126.62,-19.25"/>
<text text-anchor="middle" x="1104" y="-5.75" font-family="Helvetica,sans-Serif" font-size="10.00">stdio.h</text>
</a>
</g>
</g>
<!-- Node8&#45;&gt;Node9 -->
<g id="edge8" class="edge">
<title>Node8&#45;&gt;Node9</title>
<path fill="none" stroke="#63b8ff" d="M796.76,-118.93C872.49,-117.78 1042.37,-111.07 1085,-74.5 1097.62,-63.67 1102.06,-44.86 1103.53,-30.45"/>
<polygon fill="#63b8ff" stroke="#63b8ff" points="1107.07,-30.84 1104.17,-20.65 1100.08,-30.42 1107.07,-30.84"/>
</g>
<!-- Node10 -->
<g id="node10" class="node">
<title>Node10</title>
<g id="a_node10"><a xlink:title=" ">
<polygon fill="#e0e0e0" stroke="#999999" points="1294.12,-74.5 1245.88,-74.5 1245.88,-55.25 1294.12,-55.25 1294.12,-74.5"/>
<text text-anchor="middle" x="1270" y="-61" font-family="Helvetica,sans-Serif" font-size="10.00">stdint.h</text>
</a>
</g>
</g>
<!-- Node8&#45;&gt;Node10 -->
<g id="edge10" class="edge">
<title>Node8&#45;&gt;Node10</title>
<path fill="none" stroke="#63b8ff" d="M796.8,-117.43C876.8,-113.37 1072.35,-101.34 1234,-74.5 1234.36,-74.44 1234.71,-74.38 1235.07,-74.32"/>
<polygon fill="#63b8ff" stroke="#63b8ff" points="1235.58,-77.59 1244.7,-72.19 1234.2,-70.72 1235.58,-77.59"/>
</g>
<!-- Node11 -->
<g id="node11" class="node">
<title>Node11</title>
<g id="a_node11"><a xlink:title=" ">
<polygon fill="#e0e0e0" stroke="#999999" points="633.12,-19.25 584.88,-19.25 584.88,0 633.12,0 633.12,-19.25"/>
<text text-anchor="middle" x="609" y="-5.75" font-family="Helvetica,sans-Serif" font-size="10.00">string.h</text>
</a>
</g>
</g>
<!-- Node8&#45;&gt;Node11 -->
<g id="edge11" class="edge">
<title>Node8&#45;&gt;Node11</title>
<path fill="none" stroke="#63b8ff" d="M723.19,-111.16C699.37,-104.52 668.85,-93.09 647,-74.5 632.89,-62.49 622.65,-43.85 616.38,-29.8"/>
<polygon fill="#63b8ff" stroke="#63b8ff" points="619.27,-28.63 612.21,-20.74 612.8,-31.31 619.27,-28.63"/>
</g>
<!-- Node12 -->
<g id="node12" class="node">
<title>Node12</title>
<g id="a_node12"><a xlink:title=" ">
<polygon fill="#e0e0e0" stroke="#999999" points="546.88,-19.25 455.12,-19.25 455.12,0 546.88,0 546.88,-19.25"/>
<text text-anchor="middle" x="501" y="-5.75" font-family="Helvetica,sans-Serif" font-size="10.00">ARX/AR/config.h</text>
</a>
</g>
</g>
<!-- Node8&#45;&gt;Node12 -->
<g id="edge12" class="edge">
<title>Node8&#45;&gt;Node12</title>
<path fill="none" stroke="#63b8ff" d="M729.14,-110.04C702.1,-101.76 661.92,-88.68 628,-74.5 591.98,-59.44 551.98,-38.6 526.67,-24.87"/>
<polygon fill="#63b8ff" stroke="#63b8ff" points="528.55,-21.37 518.1,-19.64 525.19,-27.51 528.55,-21.37"/>
</g>
<!-- Node13 -->
<g id="node13" class="node">
<title>Node13</title>
<g id="a_node13"><a xlink:href="ar_config_8h.html" target="_top" xlink:title=" ">
<polygon fill="white" stroke="#666666" points="870.12,-74.5 767.88,-74.5 767.88,-55.25 870.12,-55.25 870.12,-74.5"/>
<text text-anchor="middle" x="819" y="-61" font-family="Helvetica,sans-Serif" font-size="10.00">ARX/AR/arConfig.h</text>
</a>
</g>
</g>
<!-- Node8&#45;&gt;Node13 -->
<g id="edge13" class="edge">
<title>Node8&#45;&gt;Node13</title>
<path fill="none" stroke="#63b8ff" d="M770.01,-110.09C778.54,-102.4 791,-91.15 801.22,-81.93"/>
<polygon fill="#63b8ff" stroke="#63b8ff" points="803.06,-85.07 808.14,-75.77 798.37,-79.88 803.06,-85.07"/>
</g>
<!-- Node14 -->
<g id="node14" class="node">
<title>Node14</title>
<g id="a_node14"><a xlink:href="log_8h.html" target="_top" xlink:title="Logging utilities.">
<polygon fill="white" stroke="#666666" points="749.62,-74.5 656.38,-74.5 656.38,-55.25 749.62,-55.25 749.62,-74.5"/>
<text text-anchor="middle" x="703" y="-61" font-family="Helvetica,sans-Serif" font-size="10.00">ARX/ARUtil/log.h</text>
</a>
</g>
</g>
<!-- Node8&#45;&gt;Node14 -->
<g id="edge14" class="edge">
<title>Node8&#45;&gt;Node14</title>
<path fill="none" stroke="#63b8ff" d="M750.33,-110.09C742.17,-102.47 730.29,-91.37 720.48,-82.2"/>
<polygon fill="#63b8ff" stroke="#63b8ff" points="723.22,-80.04 713.53,-75.77 718.44,-85.16 723.22,-80.04"/>
</g>
<!-- Node18 -->
<g id="node18" class="node">
<title>Node18</title>
<g id="a_node18"><a xlink:href="matrix_8h.html" target="_top" xlink:title=" ">
<polygon fill="white" stroke="#666666" points="1225.25,-74.5 1132.75,-74.5 1132.75,-55.25 1225.25,-55.25 1225.25,-74.5"/>
<text text-anchor="middle" x="1179" y="-61" font-family="Helvetica,sans-Serif" font-size="10.00">ARX/AR/matrix.h</text>
</a>
</g>
</g>
<!-- Node8&#45;&gt;Node18 -->
<g id="edge21" class="edge">
<title>Node8&#45;&gt;Node18</title>
<path fill="none" stroke="#63b8ff" d="M796.87,-114.73C861.81,-106.95 1000.81,-90.09 1118,-74.5 1119.17,-74.34 1120.34,-74.19 1121.53,-74.03"/>
<polygon fill="#63b8ff" stroke="#63b8ff" points="1121.95,-77.37 1131.38,-72.55 1121,-70.43 1121.95,-77.37"/>
</g>
<!-- Node19 -->
<g id="node19" class="node">
<title>Node19</title>
<g id="a_node19"><a xlink:href="icp_8h.html" target="_top" xlink:title=" ">
<polygon fill="white" stroke="#666666" points="1076.12,-74.5 997.88,-74.5 997.88,-55.25 1076.12,-55.25 1076.12,-74.5"/>
<text text-anchor="middle" x="1037" y="-61" font-family="Helvetica,sans-Serif" font-size="10.00">ARX/AR/icp.h</text>
</a>
</g>
</g>
<!-- Node8&#45;&gt;Node19 -->
<g id="edge23" class="edge">
<title>Node8&#45;&gt;Node19</title>
<path fill="none" stroke="#63b8ff" d="M796.78,-112.05C845.76,-102.64 932.57,-85.95 987.32,-75.42"/>
<polygon fill="#63b8ff" stroke="#63b8ff" points="987.67,-78.73 996.83,-73.41 986.35,-71.86 987.67,-78.73"/>
</g>
<!-- Node21 -->
<g id="node21" class="node">
<title>Node21</title>
<g id="a_node21"><a xlink:href="param_8h.html" target="_top" xlink:title="artoolkitX functions for handling calibrated camera parameters.">
<polygon fill="white" stroke="#666666" points="980.25,-74.5 887.75,-74.5 887.75,-55.25 980.25,-55.25 980.25,-74.5"/>
<text text-anchor="middle" x="934" y="-61" font-family="Helvetica,sans-Serif" font-size="10.00">ARX/AR/param.h</text>
</a>
</g>
</g>
<!-- Node8&#45;&gt;Node21 -->
<g id="edge26" class="edge">
<title>Node8&#45;&gt;Node21</title>
<path fill="none" stroke="#63b8ff" d="M784.3,-110.09C811.33,-101.26 855.31,-87.74 888.68,-77.98"/>
<polygon fill="#63b8ff" stroke="#63b8ff" points="889.48,-81.1 898.11,-74.95 887.53,-74.38 889.48,-81.1"/>
</g>
<!-- Node22 -->
<g id="node22" class="node">
<title>Node22</title>
<g id="a_node22"><a xlink:href="ar_image_proc_8h.html" target="_top" xlink:title="artoolkitX functions for 2D luminance image processing.">
<polygon fill="white" stroke="#666666" points="561.5,-74.5 440.5,-74.5 440.5,-55.25 561.5,-55.25 561.5,-74.5"/>
<text text-anchor="middle" x="501" y="-61" font-family="Helvetica,sans-Serif" font-size="10.00">ARX/AR/arImageProc.h</text>
</a>
</g>
</g>
<!-- Node8&#45;&gt;Node22 -->
<g id="edge28" class="edge">
<title>Node8&#45;&gt;Node22</title>
<path fill="none" stroke="#63b8ff" d="M723.08,-112.49C677.7,-103.66 600.78,-87.91 550.38,-77.19"/>
<polygon fill="#63b8ff" stroke="#63b8ff" points="551.25,-73.58 540.74,-74.91 549.79,-80.43 551.25,-73.58"/>
</g>
<!-- Node14&#45;&gt;Node2 -->
<g id="edge16" class="edge">
<title>Node14&#45;&gt;Node2</title>
<path fill="none" stroke="#63b8ff" d="M656.3,-58.67C560.73,-48.03 344.76,-23.97 260.04,-14.53"/>
<polygon fill="#63b8ff" stroke="#63b8ff" points="260.54,-10.95 250.21,-13.32 259.76,-17.91 260.54,-10.95"/>
</g>
<!-- Node14&#45;&gt;Node9 -->
<g id="edge15" class="edge">
<title>Node14&#45;&gt;Node9</title>
<path fill="none" stroke="#63b8ff" d="M750.03,-56.5C753.07,-56.06 756.08,-55.64 759,-55.25 894.82,-37.01 933.27,-45.71 1070.58,-19.47"/>
<polygon fill="#63b8ff" stroke="#63b8ff" points="1070.92,-22.78 1080.07,-17.44 1069.59,-15.91 1070.92,-22.78"/>
</g>
<!-- Node14&#45;&gt;Node11 -->
<g id="edge17" class="edge">
<title>Node14&#45;&gt;Node11</title>
<path fill="none" stroke="#63b8ff" d="M687.05,-54.84C672.6,-46.66 651.07,-34.46 634.27,-24.94"/>
<polygon fill="#63b8ff" stroke="#63b8ff" points="636.45,-21.59 626.02,-19.7 633,-27.68 636.45,-21.59"/>
</g>
<!-- Node15 -->
<g id="node15" class="node">
<title>Node15</title>
<g id="a_node15"><a xlink:title=" ">
<polygon fill="#e0e0e0" stroke="#999999" points="908.62,-19.25 857.38,-19.25 857.38,0 908.62,0 908.62,-19.25"/>
<text text-anchor="middle" x="883" y="-5.75" font-family="Helvetica,sans-Serif" font-size="10.00">stdarg.h</text>
</a>
</g>
</g>
<!-- Node14&#45;&gt;Node15 -->
<g id="edge18" class="edge">
<title>Node14&#45;&gt;Node15</title>
<path fill="none" stroke="#63b8ff" d="M733.53,-54.84C764.85,-45.58 813.55,-31.17 846.79,-21.34"/>
<polygon fill="#63b8ff" stroke="#63b8ff" points="847.4,-24.51 856,-18.32 845.42,-17.8 847.4,-24.51"/>
</g>
<!-- Node16 -->
<g id="node16" class="node">
<title>Node16</title>
<g id="a_node16"><a xlink:title=" ">
<polygon fill="#e0e0e0" stroke="#999999" points="716.38,-19.25 651.62,-19.25 651.62,0 716.38,0 716.38,-19.25"/>
<text text-anchor="middle" x="684" y="-5.75" font-family="Helvetica,sans-Serif" font-size="10.00">sys/errno.h</text>
</a>
</g>
</g>
<!-- Node14&#45;&gt;Node16 -->
<g id="edge19" class="edge">
<title>Node14&#45;&gt;Node16</title>
<path fill="none" stroke="#63b8ff" d="M699.86,-55.08C697.43,-48.26 693.97,-38.56 690.9,-29.95"/>
<polygon fill="#63b8ff" stroke="#63b8ff" points="693.86,-28.85 687.21,-20.61 687.27,-31.2 693.86,-28.85"/>
</g>
<!-- Node17 -->
<g id="node17" class="node">
<title>Node17</title>
<g id="a_node17"><a xlink:href="types_8h.html" target="_top" xlink:title=" ">
<polygon fill="white" stroke="#666666" points="839.25,-19.25 734.75,-19.25 734.75,0 839.25,0 839.25,-19.25"/>
<text text-anchor="middle" x="787" y="-5.75" font-family="Helvetica,sans-Serif" font-size="10.00">ARX/ARUtil/types.h</text>
</a>
</g>
</g>
<!-- Node14&#45;&gt;Node17 -->
<g id="edge20" class="edge">
<title>Node14&#45;&gt;Node17</title>
<path fill="none" stroke="#63b8ff" d="M717.25,-54.84C729.92,-46.81 748.69,-34.91 763.57,-25.48"/>
<polygon fill="#63b8ff" stroke="#63b8ff" points="765.11,-28.01 771.68,-19.7 761.36,-22.1 765.11,-28.01"/>
</g>
<!-- Node18&#45;&gt;Node5 -->
<g id="edge22" class="edge">
<title>Node18&#45;&gt;Node5</title>
<path fill="none" stroke="#63b8ff" d="M1209.87,-54.84C1242.45,-45.31 1293.64,-30.33 1327.26,-20.5"/>
<polygon fill="#63b8ff" stroke="#63b8ff" points="1327.9,-23.66 1336.52,-17.5 1325.93,-16.95 1327.9,-23.66"/>
</g>
<!-- Node19&#45;&gt;Node9 -->
<g id="edge24" class="edge">
<title>Node19&#45;&gt;Node9</title>
<path fill="none" stroke="#63b8ff" d="M1048.37,-54.84C1058.24,-46.99 1072.77,-35.45 1084.5,-26.12"/>
<polygon fill="#63b8ff" stroke="#63b8ff" points="1086.15,-28.49 1091.8,-19.52 1081.8,-23.01 1086.15,-28.49"/>
</g>
<!-- Node20 -->
<g id="node20" class="node">
<title>Node20</title>
<g id="a_node20"><a xlink:href="icp_core_8h.html" target="_top" xlink:title=" ">
<polygon fill="white" stroke="#666666" points="1063.62,-19.25 964.38,-19.25 964.38,0 1063.62,0 1063.62,-19.25"/>
<text text-anchor="middle" x="1014" y="-5.75" font-family="Helvetica,sans-Serif" font-size="10.00">ARX/AR/icpCore.h</text>
</a>
</g>
</g>
<!-- Node19&#45;&gt;Node20 -->
<g id="edge25" class="edge">
<title>Node19&#45;&gt;Node20</title>
<path fill="none" stroke="#63b8ff" d="M1033.2,-55.08C1030.22,-48.19 1025.97,-38.34 1022.22,-29.66"/>
<polygon fill="#63b8ff" stroke="#63b8ff" points="1025.06,-28.4 1017.88,-20.61 1018.63,-31.18 1025.06,-28.4"/>
</g>
<!-- Node21&#45;&gt;Node8 -->
<g id="edge27" class="edge">
<title>Node21&#45;&gt;Node8</title>
<path fill="none" stroke="#63b8ff" d="M909.56,-74.95C882.48,-83.8 838.49,-97.32 805.15,-107.07"/>
<polygon fill="#63b8ff" stroke="#63b8ff" points="804.36,-103.94 795.73,-110.09 806.31,-110.67 804.36,-103.94"/>
</g>
<!-- Node22&#45;&gt;Node8 -->
<g id="edge30" class="edge">
<title>Node22&#45;&gt;Node8</title>
<path fill="none" stroke="#63b8ff" d="M550.23,-74.92C596.94,-84.13 666.52,-98.42 712.62,-108.24"/>
<polygon fill="#63b8ff" stroke="#63b8ff" points="711.72,-111.84 722.23,-110.51 713.18,-104.99 711.72,-111.84"/>
</g>
<!-- Node22&#45;&gt;Node12 -->
<g id="edge29" class="edge">
<title>Node22&#45;&gt;Node12</title>
<path fill="none" stroke="#63b8ff" d="M501,-55.08C501,-48.42 501,-38.99 501,-30.53"/>
<polygon fill="#63b8ff" stroke="#63b8ff" points="504.5,-30.61 501,-20.61 497.5,-30.61 504.5,-30.61"/>
</g>
<!-- Node23&#45;&gt;Node8 -->
<g id="edge32" class="edge">
<title>Node23&#45;&gt;Node8</title>
<path fill="none" stroke="#63b8ff" d="M246.53,-220.6C277.8,-206.55 341.36,-179.61 398,-165.75 508.64,-138.67 642.52,-127.61 712.36,-123.43"/>
<polygon fill="#63b8ff" stroke="#63b8ff" points="712.22,-126.89 722,-122.82 711.82,-119.9 712.22,-126.89"/>
</g>
<!-- Node24 -->
<g id="node24" class="node">
<title>Node24</title>
<g id="a_node24"><a xlink:href="video_config_8h.html" target="_top" xlink:title=" ">
<polygon fill="white" stroke="#666666" points="277,-129.75 135,-129.75 135,-110.5 277,-110.5 277,-129.75"/>
<text text-anchor="middle" x="206" y="-116.25" font-family="Helvetica,sans-Serif" font-size="10.00">ARX/ARVideo/videoConfig.h</text>
</a>
</g>
</g>
<!-- Node23&#45;&gt;Node24 -->
<g id="edge33" class="edge">
<title>Node23&#45;&gt;Node24</title>
<path fill="none" stroke="#63b8ff" d="M169.83,-225.32C142.49,-220.05 112.06,-208.78 95,-185 76.83,-159.68 111.83,-142.94 147.23,-132.97"/>
<polygon fill="#63b8ff" stroke="#63b8ff" points="147.89,-136.15 156.67,-130.22 146.11,-129.38 147.89,-136.15"/>
</g>
<!-- Node25 -->
<g id="node25" class="node">
<title>Node25</title>
<g id="a_node25"><a xlink:title=" ">
<polygon fill="#e0e0e0" stroke="#999999" points="151.75,-185 104.25,-185 104.25,-165.75 151.75,-165.75 151.75,-185"/>
<text text-anchor="middle" x="128" y="-171.5" font-family="Helvetica,sans-Serif" font-size="10.00">limits.h</text>
</a>
</g>
</g>
<!-- Node23&#45;&gt;Node25 -->
<g id="edge35" class="edge">
<title>Node23&#45;&gt;Node25</title>
<path fill="none" stroke="#63b8ff" d="M210.21,-220.59C194.85,-212.33 171.88,-199.98 154.12,-190.43"/>
<polygon fill="#63b8ff" stroke="#63b8ff" points="156.34,-187.11 145.88,-185.45 153.03,-193.27 156.34,-187.11"/>
</g>
<!-- Node26 -->
<g id="node26" class="node">
<title>Node26</title>
<g id="a_node26"><a xlink:href="video_luma_8h.html" target="_top" xlink:title=" ">
<polygon fill="white" stroke="#666666" points="307.75,-185 170.25,-185 170.25,-165.75 307.75,-165.75 307.75,-185"/>
<text text-anchor="middle" x="239" y="-171.5" font-family="Helvetica,sans-Serif" font-size="10.00">ARX/ARVideo/videoLuma.h</text>
</a>
</g>
</g>
<!-- Node23&#45;&gt;Node26 -->
<g id="edge36" class="edge">
<title>Node23&#45;&gt;Node26</title>
<path fill="none" stroke="#63b8ff" d="M223.82,-220.83C223.89,-214.01 225.63,-204.31 228.13,-195.7"/>
<polygon fill="#63b8ff" stroke="#63b8ff" points="231.75,-196.95 231.77,-186.36 225.14,-194.63 231.75,-196.95"/>
</g>
<!-- Node24&#45;&gt;Node12 -->
<g id="edge34" class="edge">
<title>Node24&#45;&gt;Node12</title>
<path fill="none" stroke="#63b8ff" d="M226.21,-110.08C255.43,-97.16 311.33,-73.01 360,-55.25 393.04,-43.19 431.1,-31.26 459.34,-22.77"/>
<polygon fill="#63b8ff" stroke="#63b8ff" points="460.07,-25.91 468.66,-19.7 458.07,-19.2 460.07,-25.91"/>
</g>
<!-- Node26&#45;&gt;Node23 -->
<g id="edge37" class="edge">
<title>Node26&#45;&gt;Node23</title>
<path fill="none" stroke="#63b8ff" d="M242.18,-185.36C242.07,-192.23 240.31,-201.96 237.8,-210.54"/>
<polygon fill="#63b8ff" stroke="#63b8ff" points="234.2,-209.24 234.15,-219.83 240.79,-211.58 234.2,-209.24"/>
</g>
<!-- Node30&#45;&gt;Node2 -->
<g id="edge76" class="edge">
<title>Node30&#45;&gt;Node2</title>
<path fill="none" stroke="#63b8ff" d="M833.79,-449.54C722.61,-446.65 466.02,-436.77 385,-406 230.85,-347.46 160.9,-332.4 87,-185 53.57,-118.33 149.19,-52.98 198.12,-24.92"/>
<polygon fill="#63b8ff" stroke="#63b8ff" points="199.49,-27.61 206.51,-19.67 196.07,-21.5 199.49,-27.61"/>
</g>
<!-- Node30&#45;&gt;Node5 -->
<g id="edge78" class="edge">
<title>Node30&#45;&gt;Node5</title>
<path fill="none" stroke="#63b8ff" d="M938.19,-449.65C1061.58,-445.94 1361,-428.09 1361,-342.12 1361,-342.12 1361,-342.12 1361,-119.12 1361,-88.12 1361,-52.13 1361,-30.38"/>
<polygon fill="#63b8ff" stroke="#63b8ff" points="1364.5,-30.63 1361,-20.63 1357.5,-30.63 1364.5,-30.63"/>
</g>
<!-- Node30&#45;&gt;Node6 -->
<g id="edge44" class="edge">
<title>Node30&#45;&gt;Node6</title>
<path fill="none" stroke="#63b8ff" d="M833.81,-450.92C732.83,-450.57 515.2,-445.15 453,-406 416,-382.71 394.91,-333.16 385.67,-305.87"/>
<polygon fill="#63b8ff" stroke="#63b8ff" points="388.8,-305.15 382.43,-296.69 382.13,-307.28 388.8,-305.15"/>
</g>
<!-- Node30&#45;&gt;Node7 -->
<g id="edge42" class="edge">
<title>Node30&#45;&gt;Node7</title>
<path fill="none" stroke="#63b8ff" d="M833.83,-443.33C747.61,-430.02 581.8,-398.68 551,-350.75 531.39,-320.23 541.42,-275.7 549.72,-250.63"/>
<polygon fill="#63b8ff" stroke="#63b8ff" points="553.23,-252.19 553.29,-241.59 546.64,-249.84 553.23,-252.19"/>
</g>
<!-- Node30&#45;&gt;Node8 -->
<g id="edge43" class="edge">
<title>Node30&#45;&gt;Node8</title>
<path fill="none" stroke="#63b8ff" d="M842.75,-441.57C794.46,-428.63 723,-399.75 723,-342.12 723,-342.12 723,-342.12 723,-229.62 723,-196.58 738.57,-160.75 749.51,-139.66"/>
<polygon fill="#63b8ff" stroke="#63b8ff" points="753.02,-141.52 754.7,-131.06 746.86,-138.19 753.02,-141.52"/>
</g>
<!-- Node30&#45;&gt;Node9 -->
<g id="edge75" class="edge">
<title>Node30&#45;&gt;Node9</title>
<path fill="none" stroke="#63b8ff" d="M938.2,-446.6C1013.96,-440.17 1150.23,-426.21 1195,-406 1282.63,-366.45 1323,-327.76 1323,-231.62 1323,-231.62 1323,-231.62 1323,-119.12 1323,-89.38 1324.89,-75.4 1303,-55.25 1279.2,-33.35 1188.03,-19.98 1137.76,-14.12"/>
<polygon fill="#63b8ff" stroke="#63b8ff" points="1138.43,-10.56 1128.1,-12.92 1137.65,-17.52 1138.43,-10.56"/>
</g>
<!-- Node30&#45;&gt;Node10 -->
<g id="edge77" class="edge">
<title>Node30&#45;&gt;Node10</title>
<path fill="none" stroke="#63b8ff" d="M938.2,-446.6C1013.96,-440.17 1150.23,-426.21 1195,-406 1274.49,-370.12 1285,-318.84 1285,-231.62 1285,-231.62 1285,-231.62 1285,-174.38 1285,-143.07 1278.8,-107.17 1274.37,-85.52"/>
<polygon fill="#63b8ff" stroke="#63b8ff" points="1277.6,-84.87 1272.09,-75.82 1270.75,-86.33 1277.6,-84.87"/>
</g>
<!-- Node30&#45;&gt;Node11 -->
<g id="edge79" class="edge">
<title>Node30&#45;&gt;Node11</title>
<path fill="none" stroke="#63b8ff" d="M833.92,-449.82C729.47,-447.53 498.28,-438.79 427,-406 362.61,-376.38 339.78,-360.71 312,-295.5 280.28,-221.02 392.35,-83.83 431,-55.25 453.43,-38.66 528.5,-23.88 573.67,-16.2"/>
<polygon fill="#63b8ff" stroke="#63b8ff" points="574.17,-19.5 583.46,-14.41 573.02,-12.59 574.17,-19.5"/>
</g>
<!-- Node30&#45;&gt;Node28 -->
<g id="edge80" class="edge">
<title>Node30&#45;&gt;Node28</title>
<path fill="none" stroke="#63b8ff" d="M833.7,-450.85C774.95,-449.22 678.02,-440.79 603,-406 534.72,-374.33 491.7,-288.47 475.4,-250.32"/>
<polygon fill="#63b8ff" stroke="#63b8ff" points="478.41,-249.43 471.36,-241.52 471.94,-252.1 478.41,-249.43"/>
</g>
<!-- Node31 -->
<g id="node31" class="node">
<title>Node31</title>
<g id="a_node31"><a xlink:href="_a_r_video_view_8h.html" target="_top" xlink:title=" ">
<polygon fill="white" stroke="#666666" points="667.75,-350.75 560.25,-350.75 560.25,-331.5 667.75,-331.5 667.75,-350.75"/>
<text text-anchor="middle" x="614" y="-337.25" font-family="Helvetica,sans-Serif" font-size="10.00">ARX/ARVideoView.h</text>
</a>
</g>
</g>
<!-- Node30&#45;&gt;Node31 -->
<g id="edge45" class="edge">
<title>Node30&#45;&gt;Node31</title>
<path fill="none" stroke="#63b8ff" d="M833.7,-442.35C797.61,-435.47 749.09,-423.88 709,-406 680.58,-393.33 651.4,-372.27 633.01,-357.82"/>
<polygon fill="#63b8ff" stroke="#63b8ff" points="635.66,-354.66 625.67,-351.13 631.28,-360.12 635.66,-354.66"/>
</g>
<!-- Node33 -->
<g id="node33" class="node">
<title>Node33</title>
<g id="a_node33"><a xlink:href="_a_r_tracker_square_8h.html" target="_top" xlink:title=" ">
<polygon fill="white" stroke="#666666" points="949.12,-406 822.88,-406 822.88,-386.75 949.12,-386.75 949.12,-406"/>
<text text-anchor="middle" x="886" y="-392.5" font-family="Helvetica,sans-Serif" font-size="10.00">ARX/ARTrackerSquare.h</text>
</a>
</g>
</g>
<!-- Node30&#45;&gt;Node33 -->
<g id="edge51" class="edge">
<title>Node30&#45;&gt;Node33</title>
<path fill="none" stroke="#63b8ff" d="M886,-441.83C886,-435.17 886,-425.74 886,-417.28"/>
<polygon fill="#63b8ff" stroke="#63b8ff" points="889.5,-417.36 886,-407.36 882.5,-417.36 889.5,-417.36"/>
</g>
<!-- Node35 -->
<g id="node35" class="node">
<title>Node35</title>
<g id="a_node35"><a xlink:href="_a_r_trackable_8h.html" target="_top" xlink:title=" ">
<polygon fill="white" stroke="#666666" points="1052.62,-240.25 947.38,-240.25 947.38,-221 1052.62,-221 1052.62,-240.25"/>
<text text-anchor="middle" x="1000" y="-226.75" font-family="Helvetica,sans-Serif" font-size="10.00">ARX/ARTrackable.h</text>
</a>
</g>
</g>
<!-- Node30&#45;&gt;Node35 -->
<g id="edge72" class="edge">
<title>Node30&#45;&gt;Node35</title>
<path fill="none" stroke="#63b8ff" d="M938.32,-447.61C1000.45,-440.9 1101.64,-419.39 1149,-350.75 1181.1,-304.22 1104.19,-315.96 1073,-295.5 1051.78,-281.58 1030.24,-261.91 1016.12,-248.08"/>
<polygon fill="#63b8ff" stroke="#63b8ff" points="1018.9,-245.92 1009.35,-241.34 1013.96,-250.88 1018.9,-245.92"/>
</g>
<!-- Node37 -->
<g id="node37" class="node">
<title>Node37</title>
<g id="a_node37"><a xlink:title=" ">
<polygon fill="#e0e0e0" stroke="#999999" points="1256.5,-185 1213.5,-185 1213.5,-165.75 1256.5,-165.75 1256.5,-185"/>
<text text-anchor="middle" x="1235" y="-171.5" font-family="Helvetica,sans-Serif" font-size="10.00">vector</text>
</a>
</g>
</g>
<!-- Node30&#45;&gt;Node37 -->
<g id="edge73" class="edge">
<title>Node30&#45;&gt;Node37</title>
<path fill="none" stroke="#63b8ff" d="M938.11,-445.91C1038.08,-435.41 1247,-405.85 1247,-342.12 1247,-342.12 1247,-342.12 1247,-284.88 1247,-253.68 1242.04,-217.74 1238.5,-196.06"/>
<polygon fill="#63b8ff" stroke="#63b8ff" points="1241.8,-195.61 1236.67,-186.34 1234.9,-196.79 1241.8,-195.61"/>
</g>
<!-- Node45 -->
<g id="node45" class="node">
<title>Node45</title>
<g id="a_node45"><a xlink:title=" ">
<polygon fill="#e0e0e0" stroke="#999999" points="1218.62,-240.25 1167.38,-240.25 1167.38,-221 1218.62,-221 1218.62,-240.25"/>
<text text-anchor="middle" x="1193" y="-226.75" font-family="Helvetica,sans-Serif" font-size="10.00">memory</text>
</a>
</g>
</g>
<!-- Node30&#45;&gt;Node45 -->
<g id="edge74" class="edge">
<title>Node30&#45;&gt;Node45</title>
<path fill="none" stroke="#63b8ff" d="M937.98,-449.44C986.3,-446.33 1058.92,-436.41 1114,-406 1165.1,-377.78 1171.81,-352.37 1185,-295.5 1188.41,-280.81 1190.44,-263.87 1191.61,-251.13"/>
<polygon fill="#63b8ff" stroke="#63b8ff" points="1195.16,-251.65 1192.48,-241.4 1188.18,-251.09 1195.16,-251.65"/>
</g>
<!-- Node31&#45;&gt;Node6 -->
<g id="edge47" class="edge">
<title>Node31&#45;&gt;Node6</title>
<path fill="none" stroke="#63b8ff" d="M574.04,-331.03C534.33,-321.99 473.3,-308.11 430.31,-298.32"/>
<polygon fill="#63b8ff" stroke="#63b8ff" points="431.32,-294.74 420.8,-295.93 429.77,-301.56 431.32,-294.74"/>
</g>
<!-- Node31&#45;&gt;Node7 -->
<g id="edge46" class="edge">
<title>Node31&#45;&gt;Node7</title>
<path fill="none" stroke="#63b8ff" d="M597.8,-331.07C585.67,-323.32 569.86,-310.99 562,-295.5 555.06,-281.83 554.14,-264.37 554.78,-251.16"/>
<polygon fill="#63b8ff" stroke="#63b8ff" points="558.32,-251.71 555.66,-241.45 551.35,-251.13 558.32,-251.71"/>
</g>
<!-- Node31&#45;&gt;Node8 -->
<g id="edge48" class="edge">
<title>Node31&#45;&gt;Node8</title>
<path fill="none" stroke="#63b8ff" d="M628.25,-331.13C639.92,-323.09 656.06,-310.32 666,-295.5 699.84,-245.05 675.4,-216.37 709,-165.75 716.47,-154.49 727.5,-144.35 737.4,-136.6"/>
<polygon fill="#63b8ff" stroke="#63b8ff" points="739.09,-138.95 745.03,-130.18 734.92,-133.34 739.09,-138.95"/>
</g>
<!-- Node32 -->
<g id="node32" class="node">
<title>Node32</title>
<g id="a_node32"><a xlink:href="arg_8h.html" target="_top" xlink:title="A collection of useful graphics routines for artoolkitX.">
<polygon fill="white" stroke="#666666" points="657.25,-295.5 570.75,-295.5 570.75,-276.25 657.25,-276.25 657.25,-295.5"/>
<text text-anchor="middle" x="614" y="-282" font-family="Helvetica,sans-Serif" font-size="10.00">ARX/ARG/arg.h</text>
</a>
</g>
</g>
<!-- Node31&#45;&gt;Node32 -->
<g id="edge49" class="edge">
<title>Node31&#45;&gt;Node32</title>
<path fill="none" stroke="#63b8ff" d="M614,-331.33C614,-324.67 614,-315.24 614,-306.78"/>
<polygon fill="#63b8ff" stroke="#63b8ff" points="617.5,-306.86 614,-296.86 610.5,-306.86 617.5,-306.86"/>
</g>
<!-- Node32&#45;&gt;Node8 -->
<g id="edge50" class="edge">
<title>Node32&#45;&gt;Node8</title>
<path fill="none" stroke="#63b8ff" d="M616.13,-275.94C621.66,-254.41 638.4,-198.96 671,-165.75 684.74,-151.76 703.78,-141.4 720.73,-134.21"/>
<polygon fill="#63b8ff" stroke="#63b8ff" points="721.95,-137.09 729.94,-130.13 719.35,-130.59 721.95,-137.09"/>
</g>
<!-- Node33&#45;&gt;Node8 -->
<g id="edge71" class="edge">
<title>Node33&#45;&gt;Node8</title>
<path fill="none" stroke="#63b8ff" d="M876.59,-386.45C864.51,-373.88 846.32,-350.36 857,-331.5 872.32,-304.44 901.68,-322.56 917,-295.5 921.22,-288.05 919.19,-284.52 917,-276.25 902.52,-221.6 895.44,-204.2 854,-165.75 838.83,-151.68 818.42,-141.27 800.5,-134.06"/>
<polygon fill="#63b8ff" stroke="#63b8ff" points="801.88,-130.46 791.29,-130.18 799.39,-137 801.88,-130.46"/>
</g>
<!-- Node34 -->
<g id="node34" class="node">
<title>Node34</title>
<g id="a_node34"><a xlink:href="_a_r_trackable_square_8h.html" target="_top" xlink:title=" ">
<polygon fill="white" stroke="#666666" points="1002,-350.75 866,-350.75 866,-331.5 1002,-331.5 1002,-350.75"/>
<text text-anchor="middle" x="934" y="-337.25" font-family="Helvetica,sans-Serif" font-size="10.00">ARX/ARTrackableSquare.h</text>
</a>
</g>
</g>
<!-- Node33&#45;&gt;Node34 -->
<g id="edge52" class="edge">
<title>Node33&#45;&gt;Node34</title>
<path fill="none" stroke="#63b8ff" d="M893.93,-386.58C900.63,-379.15 910.42,-368.29 918.64,-359.16"/>
<polygon fill="#63b8ff" stroke="#63b8ff" points="920.81,-361.88 924.9,-352.11 915.61,-357.19 920.81,-361.88"/>
</g>
<!-- Node40 -->
<g id="node40" class="node">
<title>Node40</title>
<g id="a_node40"><a xlink:href="_a_r_trackable_multi_square_8h.html" target="_top" xlink:title=" ">
<polygon fill="white" stroke="#666666" points="908.5,-295.5 751.5,-295.5 751.5,-276.25 908.5,-276.25 908.5,-295.5"/>
<text text-anchor="middle" x="830" y="-282" font-family="Helvetica,sans-Serif" font-size="10.00">ARX/ARTrackableMultiSquare.h</text>
</a>
</g>
</g>
<!-- Node33&#45;&gt;Node40 -->
<g id="edge60" class="edge">
<title>Node33&#45;&gt;Node40</title>
<path fill="none" stroke="#63b8ff" d="M864.56,-386.37C850.21,-379.07 832.47,-367.27 824,-350.75 816.93,-336.95 819.32,-319.27 822.98,-306.01"/>
<polygon fill="#63b8ff" stroke="#63b8ff" points="826.56,-307.3 826.31,-296.7 819.9,-305.14 826.56,-307.3"/>
</g>
<!-- Node42 -->
<g id="node42" class="node">
<title>Node42</title>
<g id="a_node42"><a xlink:href="_a_r_tracker_video_8h.html" target="_top" xlink:title=" ">
<polygon fill="white" stroke="#666666" points="1140.12,-350.75 1019.88,-350.75 1019.88,-331.5 1140.12,-331.5 1140.12,-350.75"/>
<text text-anchor="middle" x="1080" y="-337.25" font-family="Helvetica,sans-Serif" font-size="10.00">ARX/ARTrackerVideo.h</text>
</a>
</g>
</g>
<!-- Node33&#45;&gt;Node42 -->
<g id="edge64" class="edge">
<title>Node33&#45;&gt;Node42</title>
<path fill="none" stroke="#63b8ff" d="M918.91,-386.34C951.24,-377.47 1000.76,-363.87 1036.36,-354.1"/>
<polygon fill="#63b8ff" stroke="#63b8ff" points="1037.21,-357.22 1045.93,-351.2 1035.36,-350.47 1037.21,-357.22"/>
</g>
<!-- Node34&#45;&gt;Node35 -->
<g id="edge53" class="edge">
<title>Node34&#45;&gt;Node35</title>
<path fill="none" stroke="#63b8ff" d="M939.4,-331.25C950.18,-313.52 974.56,-273.44 988.9,-249.88"/>
<polygon fill="#63b8ff" stroke="#63b8ff" points="992.32,-251.99 994.52,-241.63 986.34,-248.35 992.32,-251.99"/>
</g>
<!-- Node35&#45;&gt;Node8 -->
<g id="edge54" class="edge">
<title>Node35&#45;&gt;Node8</title>
<path fill="none" stroke="#63b8ff" d="M1014.61,-220.6C1033.4,-207.89 1061.82,-184.23 1046,-165.75 1015.89,-130.57 880.92,-122.92 807.66,-121.39"/>
<polygon fill="#63b8ff" stroke="#63b8ff" points="807.95,-117.87 797.89,-121.2 807.83,-124.87 807.95,-117.87"/>
</g>
<!-- Node36 -->
<g id="node36" class="node">
<title>Node36</title>
<g id="a_node36"><a xlink:href="ar_filter_trans_mat_8h.html" target="_top" xlink:title="Provides filtering of transformation matrices (pose estimates).">
<polygon fill="white" stroke="#666666" points="1037.38,-185 900.62,-185 900.62,-165.75 1037.38,-165.75 1037.38,-185"/>
<text text-anchor="middle" x="969" y="-171.5" font-family="Helvetica,sans-Serif" font-size="10.00">ARX/AR/arFilterTransMat.h</text>
</a>
</g>
</g>
<!-- Node35&#45;&gt;Node36 -->
<g id="edge55" class="edge">
<title>Node35&#45;&gt;Node36</title>
<path fill="none" stroke="#63b8ff" d="M994.88,-220.83C990.78,-213.78 984.88,-203.65 979.75,-194.83"/>
<polygon fill="#63b8ff" stroke="#63b8ff" points="982.29,-193.24 974.23,-186.36 976.24,-196.76 982.29,-193.24"/>
</g>
<!-- Node35&#45;&gt;Node37 -->
<g id="edge57" class="edge">
<title>Node35&#45;&gt;Node37</title>
<path fill="none" stroke="#63b8ff" d="M1045.8,-220.55C1085.11,-212.56 1143.53,-200.22 1202.47,-185.53"/>
<polygon fill="#63b8ff" stroke="#63b8ff" points="1203.25,-188.69 1212.09,-182.85 1201.54,-181.9 1203.25,-188.69"/>
</g>
<!-- Node38 -->
<g id="node38" class="node">
<title>Node38</title>
<g id="a_node38"><a xlink:title=" ">
<polygon fill="#e0e0e0" stroke="#999999" points="1195.62,-185 1156.38,-185 1156.38,-165.75 1195.62,-165.75 1195.62,-185"/>
<text text-anchor="middle" x="1176" y="-171.5" font-family="Helvetica,sans-Serif" font-size="10.00">utility</text>
</a>
</g>
</g>
<!-- Node35&#45;&gt;Node38 -->
<g id="edge58" class="edge">
<title>Node35&#45;&gt;Node38</title>
<path fill="none" stroke="#63b8ff" d="M1030.35,-220.53C1058.17,-212.18 1100.78,-199.37 1145.86,-185.64"/>
<polygon fill="#63b8ff" stroke="#63b8ff" points="1146.57,-188.78 1155.12,-182.51 1144.53,-182.08 1146.57,-188.78"/>
</g>
<!-- Node39 -->
<g id="node39" class="node">
<title>Node39</title>
<g id="a_node39"><a xlink:title=" ">
<polygon fill="#e0e0e0" stroke="#999999" points="1138.62,-185 1093.38,-185 1093.38,-165.75 1138.62,-165.75 1138.62,-185"/>
<text text-anchor="middle" x="1116" y="-171.5" font-family="Helvetica,sans-Serif" font-size="10.00">atomic</text>
</a>
</g>
</g>
<!-- Node35&#45;&gt;Node39 -->
<g id="edge59" class="edge">
<title>Node35&#45;&gt;Node39</title>
<path fill="none" stroke="#63b8ff" d="M1019.68,-220.59C1037.93,-212.22 1065.33,-199.63 1086.25,-190.03"/>
<polygon fill="#63b8ff" stroke="#63b8ff" points="1087.6,-192.81 1095.23,-185.45 1084.68,-186.44 1087.6,-192.81"/>
</g>
<!-- Node36&#45;&gt;Node8 -->
<g id="edge56" class="edge">
<title>Node36&#45;&gt;Node8</title>
<path fill="none" stroke="#63b8ff" d="M933.55,-165.34C898.42,-156.39 844.44,-142.64 806.02,-132.85"/>
<polygon fill="#63b8ff" stroke="#63b8ff" points="807.18,-129.28 796.63,-130.2 805.45,-136.06 807.18,-129.28"/>
</g>
<!-- Node40&#45;&gt;Node35 -->
<g id="edge61" class="edge">
<title>Node40&#45;&gt;Node35</title>
<path fill="none" stroke="#63b8ff" d="M858.84,-275.84C886.8,-267.08 929.44,-253.73 960.54,-243.98"/>
<polygon fill="#63b8ff" stroke="#63b8ff" points="961.52,-247.03 970.02,-240.7 959.43,-240.35 961.52,-247.03"/>
</g>
<!-- Node41 -->
<g id="node41" class="node">
<title>Node41</title>
<g id="a_node41"><a xlink:href="ar_multi_8h.html" target="_top" xlink:title=" ">
<polygon fill="white" stroke="#666666" points="845.38,-185 750.62,-185 750.62,-165.75 845.38,-165.75 845.38,-185"/>
<text text-anchor="middle" x="798" y="-171.5" font-family="Helvetica,sans-Serif" font-size="10.00">ARX/AR/arMulti.h</text>
</a>
</g>
</g>
<!-- Node40&#45;&gt;Node41 -->
<g id="edge62" class="edge">
<title>Node40&#45;&gt;Node41</title>
<path fill="none" stroke="#63b8ff" d="M827.38,-276C822.25,-258.59 810.76,-219.62 803.76,-195.91"/>
<polygon fill="#63b8ff" stroke="#63b8ff" points="806.84,-194.98 800.65,-186.38 800.13,-196.96 806.84,-194.98"/>
</g>
<!-- Node41&#45;&gt;Node8 -->
<g id="edge63" class="edge">
<title>Node41&#45;&gt;Node8</title>
<path fill="none" stroke="#63b8ff" d="M791.73,-165.58C786.59,-158.38 779.15,-147.96 772.76,-139.01"/>
<polygon fill="#63b8ff" stroke="#63b8ff" points="775.07,-137.22 766.41,-131.11 769.37,-141.28 775.07,-137.22"/>
</g>
<!-- Node43 -->
<g id="node43" class="node">
<title>Node43</title>
<g id="a_node43"><a xlink:href="_a_r_tracker_8h.html" target="_top" xlink:title=" ">
<polygon fill="white" stroke="#666666" points="1176.38,-295.5 1081.62,-295.5 1081.62,-276.25 1176.38,-276.25 1176.38,-295.5"/>
<text text-anchor="middle" x="1129" y="-282" font-family="Helvetica,sans-Serif" font-size="10.00">ARX/ARTracker.h</text>
</a>
</g>
</g>
<!-- Node42&#45;&gt;Node43 -->
<g id="edge65" class="edge">
<title>Node42&#45;&gt;Node43</title>
<path fill="none" stroke="#63b8ff" d="M1088.09,-331.33C1094.93,-323.9 1104.93,-313.04 1113.32,-303.91"/>
<polygon fill="#63b8ff" stroke="#63b8ff" points="1115.54,-306.59 1119.73,-296.86 1110.39,-301.85 1115.54,-306.59"/>
</g>
<!-- Node43&#45;&gt;Node7 -->
<g id="edge66" class="edge">
<title>Node43&#45;&gt;Node7</title>
<path fill="none" stroke="#63b8ff" d="M1081.22,-280.43C975.43,-270.58 722.06,-246.99 610.87,-236.64"/>
<polygon fill="#63b8ff" stroke="#63b8ff" points="611.21,-233.06 600.92,-235.62 610.56,-240.03 611.21,-233.06"/>
</g>
<!-- Node43&#45;&gt;Node35 -->
<g id="edge67" class="edge">
<title>Node43&#45;&gt;Node35</title>
<path fill="none" stroke="#63b8ff" d="M1107.12,-275.84C1086.55,-267.35 1055.51,-254.54 1032.13,-244.89"/>
<polygon fill="#63b8ff" stroke="#63b8ff" points="1033.57,-241.28 1022.99,-240.7 1030.9,-247.75 1033.57,-241.28"/>
</g>
<!-- Node43&#45;&gt;Node37 -->
<g id="edge68" class="edge">
<title>Node43&#45;&gt;Node37</title>
<path fill="none" stroke="#63b8ff" d="M1119.45,-276.03C1106.71,-263.13 1087.16,-238.77 1100,-221 1103.13,-216.67 1163.83,-197.77 1202.76,-186"/>
<polygon fill="#63b8ff" stroke="#63b8ff" points="1203.53,-189.12 1212.1,-182.88 1201.51,-182.42 1203.53,-189.12"/>
</g>
<!-- Node44 -->
<g id="node44" class="node">
<title>Node44</title>
<g id="a_node44"><a xlink:title=" ">
<polygon fill="#e0e0e0" stroke="#999999" points="1149,-240.25 1109,-240.25 1109,-221 1149,-221 1149,-240.25"/>
<text text-anchor="middle" x="1129" y="-226.75" font-family="Helvetica,sans-Serif" font-size="10.00">string</text>
</a>
</g>
</g>
<!-- Node43&#45;&gt;Node44 -->
<g id="edge69" class="edge">
<title>Node43&#45;&gt;Node44</title>
<path fill="none" stroke="#63b8ff" d="M1129,-276.08C1129,-269.42 1129,-259.99 1129,-251.53"/>
<polygon fill="#63b8ff" stroke="#63b8ff" points="1132.5,-251.61 1129,-241.61 1125.5,-251.61 1132.5,-251.61"/>
</g>
<!-- Node43&#45;&gt;Node45 -->
<g id="edge70" class="edge">
<title>Node43&#45;&gt;Node45</title>
<path fill="none" stroke="#63b8ff" d="M1139.86,-275.84C1149.2,-268.07 1162.89,-256.67 1174.04,-247.4"/>
<polygon fill="#63b8ff" stroke="#63b8ff" points="1175.86,-249.61 1181.3,-240.52 1171.38,-244.23 1175.86,-249.61"/>
</g>
<!-- Node46&#45;&gt;Node23 -->
<g id="edge82" class="edge">
<title>Node46&#45;&gt;Node23</title>
<path fill="none" stroke="#63b8ff" d="M105.88,-386.57C126.2,-360.58 186.18,-283.84 213.35,-249.09"/>
<polygon fill="#63b8ff" stroke="#63b8ff" points="216.68,-251.51 220.08,-241.47 211.17,-247.2 216.68,-251.51"/>
</g>
</g>
</svg>
