<?xml version="1.0" encoding="UTF-8" standalone="no"?>
<!DOCTYPE svg PUBLIC "-//W3C//DTD SVG 1.1//EN"
 "http://www.w3.org/Graphics/SVG/1.1/DTD/svg11.dtd">
<!-- Generated by graphviz version 7.0.5 (20221223.1930)
 -->
<!-- Title: arwGetTrackablePatternConfig Pages: 1 -->
<svg width="332pt" height="64pt"
 viewBox="0.00 0.00 332.00 64.00" xmlns="http://www.w3.org/2000/svg" xmlns:xlink="http://www.w3.org/1999/xlink">
<g id="graph0" class="graph" transform="scale(1 1) rotate(0) translate(4 60)">
<title>arwGetTrackablePatternConfig</title>
<!-- Node1 -->
<g id="node1" class="node">
<title>Node1</title>
<g id="a_node1"><a xlink:title="Gets configuration of a pattern associated with a trackable.">
<polygon fill="#999999" stroke="#666666" points="151,-37 0,-37 0,-18 151,-18 151,-37"/>
<text text-anchor="middle" x="75.5" y="-25" font-family="Helvetica,sans-Serif" font-size="10.00">arwGetTrackablePatternConfig</text>
</a>
</g>
</g>
<!-- Node2 -->
<g id="node2" class="node">
<title>Node2</title>
<g id="a_node2"><a xlink:href="class_a_r_controller.html#a4eafe05e50bdb9e788ad836f4c2104f1" target="_top" xlink:title="Searches the collection of trackables for the given ID.">
<polygon fill="white" stroke="#666666" points="324,-56 187,-56 187,-37 324,-37 324,-56"/>
<text text-anchor="middle" x="255.5" y="-44" font-family="Helvetica,sans-Serif" font-size="10.00">ARController::findTrackable</text>
</a>
</g>
</g>
<!-- Node1&#45;&gt;Node2 -->
<g id="edge1" class="edge">
<title>Node1&#45;&gt;Node2</title>
<path fill="none" stroke="#63b8ff" d="M151.47,-35.5C159.42,-36.35 167.51,-37.21 175.5,-38.07"/>
<polygon fill="#63b8ff" stroke="#63b8ff" points="174.87,-41.52 185.19,-39.1 175.61,-34.56 174.87,-41.52"/>
</g>
<!-- Node3 -->
<g id="node3" class="node">
<title>Node3</title>
<g id="a_node3"><a xlink:href="class_a_r_trackable.html#a1218f9a7aa029689492cd1765fff7e10" target="_top" xlink:title="Returns the specified pattern within this trackable.">
<polygon fill="white" stroke="#666666" points="318,-19 193,-19 193,0 318,0 318,-19"/>
<text text-anchor="middle" x="255.5" y="-7" font-family="Helvetica,sans-Serif" font-size="10.00">ARTrackable::getPattern</text>
</a>
</g>
</g>
<!-- Node1&#45;&gt;Node3 -->
<g id="edge2" class="edge">
<title>Node1&#45;&gt;Node3</title>
<path fill="none" stroke="#63b8ff" d="M151.47,-19.92C161.31,-18.92 171.37,-17.91 181.18,-16.91"/>
<polygon fill="#63b8ff" stroke="#63b8ff" points="181.44,-20.41 191.04,-15.92 180.73,-13.44 181.44,-20.41"/>
</g>
</g>
</svg>
