<?xml version="1.0" encoding="UTF-8" standalone="no"?>
<!DOCTYPE svg PUBLIC "-//W3C//DTD SVG 1.1//EN"
 "http://www.w3.org/Graphics/SVG/1.1/DTD/svg11.dtd">
<!-- Generated by graphviz version 2.40.1 (20161225.0304)
 -->
<!-- Title: Source/ARX/include/ARX/ARVideoSource.h Pages: 1 -->
<!--zoomable 257 -->
<svg id="main" version="1.1" xmlns="http://www.w3.org/2000/svg" xmlns:xlink="http://www.w3.org/1999/xlink" xml:space="preserve" onload="init(evt)">
<style type="text/css"><![CDATA[
.edge:hover path { stroke: red; }
.edge:hover polygon { stroke: red; fill: red; }
]]></style>
<script type="text/javascript"><![CDATA[
var edges = document.getElementsByTagName('g');
if (edges && edges.length) {
  for (var i=0;i<edges.length;i++) {
    if (edges[i].id.substr(0,4)=='edge') {
      edges[i].setAttribute('class','edge');
    }
  }
}
]]></script>
        <defs>
                <circle id="rim" cx="0" cy="0" r="7"/>
                <circle id="rim2" cx="0" cy="0" r="3.5"/>
                <g id="zoomPlus">
                        <use xlink:href="#rim" fill="#404040">
                                <set attributeName="fill" to="#808080" begin="zoomplus.mouseover" end="zoomplus.mouseout"/>
                        </use>
                        <path d="M-4,0h8M0,-4v8" fill="none" stroke="white" stroke-width="1.5" pointer-events="none"/>
                </g>
                <g id="zoomMin">
                        <use xlink:href="#rim" fill="#404040">
                                <set attributeName="fill" to="#808080" begin="zoomminus.mouseover" end="zoomminus.mouseout"/>
                        </use>
                        <path d="M-4,0h8" fill="none" stroke="white" stroke-width="1.5" pointer-events="none"/>
                </g>
                <g id="dirArrow">
                        <path fill="none" stroke="white" stroke-width="1.5" d="M0,-3.0v7 M-2.5,-0.5L0,-3.0L2.5,-0.5"/>
                </g>
               <g id="resetDef">
                       <use xlink:href="#rim2" fill="#404040">
                               <set attributeName="fill" to="#808080" begin="reset.mouseover" end="reset.mouseout"/>
                       </use>
               </g>
        </defs>

<script type="text/javascript">
var viewWidth = 1013;
var viewHeight = 257;
var sectionId = 'dynsection-0';
</script>
<script xlink:href="svgpan.js"/>
<svg id="graph" class="graph">
<g id="viewport">
<title>Source/ARX/include/ARX/ARVideoSource.h</title>
<polygon fill="#ffffff" stroke="transparent" points="-4,4 -4,-253 1008.5898,-253 1008.5898,4 -4,4"/>
<!-- Node0 -->
<g id="node1" class="node">
<title>Node0</title>
<polygon fill="#bfbfbf" stroke="#000000" points="629.7671,-220.5 629.7671,-248.5 751.0259,-248.5 751.0259,-220.5 629.7671,-220.5"/>
<text text-anchor="start" x="637.7671" y="-236.5" font-family="Helvetica,sans-Serif" font-size="10.00" fill="#000000">Source/ARX/include</text>
<text text-anchor="middle" x="690.3965" y="-226.5" font-family="Helvetica,sans-Serif" font-size="10.00" fill="#000000">/ARX/ARVideoSource.h</text>
</g>
<!-- Node1 -->
<g id="node2" class="node">
<title>Node1</title>
<g id="a_node2"><a xlink:href="_platform_8h.html" target="_top" xlink:title="ARX/Platform.h">
<polygon fill="#ffffff" stroke="#000000" points="492.9409,-165.5 492.9409,-183.5 577.8521,-183.5 577.8521,-165.5 492.9409,-165.5"/>
<text text-anchor="middle" x="535.3965" y="-171.5" font-family="Helvetica,sans-Serif" font-size="10.00" fill="#000000">ARX/Platform.h</text>
</a>
</g>
</g>
<!-- Node0&#45;&gt;Node1 -->
<g id="edge1" class="edge">
<title>Node0&#45;&gt;Node1</title>
<path fill="none" stroke="#191970" d="M654.0559,-220.4327C628.1461,-210.4031 593.5899,-197.0265 568.4545,-187.2966"/>
<polygon fill="#191970" stroke="#191970" points="569.5742,-183.9771 558.9851,-183.6311 567.0472,-190.5051 569.5742,-183.9771"/>
</g>
<!-- Node2 -->
<g id="node3" class="node">
<title>Node2</title>
<g id="a_node3"><a xlink:href="ar_8h.html" target="_top" xlink:title="artoolkitX core routines. ">
<polygon fill="#ffffff" stroke="#000000" points="517.0493,-110.5 517.0493,-128.5 589.7437,-128.5 589.7437,-110.5 517.0493,-110.5"/>
<text text-anchor="middle" x="553.3965" y="-116.5" font-family="Helvetica,sans-Serif" font-size="10.00" fill="#000000">ARX/AR/ar.h</text>
</a>
</g>
</g>
<!-- Node0&#45;&gt;Node2 -->
<g id="edge2" class="edge">
<title>Node0&#45;&gt;Node2</title>
<path fill="none" stroke="#191970" d="M671.0005,-220.3327C657.6693,-210.433 639.6849,-196.7548 624.3965,-184 605.3691,-168.1259 584.4741,-148.9145 570.3108,-135.6082"/>
<polygon fill="#191970" stroke="#191970" points="572.4871,-132.8493 562.8145,-128.526 567.6798,-137.9376 572.4871,-132.8493"/>
</g>
<!-- Node19 -->
<g id="node20" class="node">
<title>Node19</title>
<g id="a_node20"><a xlink:href="video_8h.html" target="_top" xlink:title="ARX/ARVideo/video.h">
<polygon fill="#ffffff" stroke="#000000" points="633.6563,-165.5 633.6563,-183.5 747.1367,-183.5 747.1367,-165.5 633.6563,-165.5"/>
<text text-anchor="middle" x="690.3965" y="-171.5" font-family="Helvetica,sans-Serif" font-size="10.00" fill="#000000">ARX/ARVideo/video.h</text>
</a>
</g>
</g>
<!-- Node0&#45;&gt;Node19 -->
<g id="edge26" class="edge">
<title>Node0&#45;&gt;Node19</title>
<path fill="none" stroke="#191970" d="M690.3965,-220.2808C690.3965,-212.3776 690.3965,-202.4316 690.3965,-193.8308"/>
<polygon fill="#191970" stroke="#191970" points="693.8966,-193.5842 690.3965,-183.5842 686.8966,-193.5842 693.8966,-193.5842"/>
</g>
<!-- Node23 -->
<g id="node24" class="node">
<title>Node23</title>
<polygon fill="#ffffff" stroke="#bfbfbf" points="764.7808,-165.5 764.7808,-183.5 808.0122,-183.5 808.0122,-165.5 764.7808,-165.5"/>
<text text-anchor="middle" x="786.3965" y="-171.5" font-family="Helvetica,sans-Serif" font-size="10.00" fill="#000000">mutex</text>
</g>
<!-- Node0&#45;&gt;Node23 -->
<g id="edge33" class="edge">
<title>Node0&#45;&gt;Node23</title>
<path fill="none" stroke="#191970" d="M713.1471,-220.2808C728.2077,-210.868 747.9045,-198.5575 763.0794,-189.0732"/>
<polygon fill="#191970" stroke="#191970" points="765.2368,-191.8522 771.8618,-183.5842 761.5268,-185.9162 765.2368,-191.8522"/>
</g>
<!-- Node24 -->
<g id="node25" class="node">
<title>Node24</title>
<polygon fill="#ffffff" stroke="#bfbfbf" points="826.2686,-165.5 826.2686,-183.5 884.5244,-183.5 884.5244,-165.5 826.2686,-165.5"/>
<text text-anchor="middle" x="855.3965" y="-171.5" font-family="Helvetica,sans-Serif" font-size="10.00" fill="#000000">pthread.h</text>
</g>
<!-- Node0&#45;&gt;Node24 -->
<g id="edge34" class="edge">
<title>Node0&#45;&gt;Node24</title>
<path fill="none" stroke="#191970" d="M729.0817,-220.4327C756.7851,-210.3587 793.7744,-196.908 820.5603,-187.1677"/>
<polygon fill="#191970" stroke="#191970" points="822.0843,-190.3378 830.2861,-183.6311 819.692,-183.7593 822.0843,-190.3378"/>
</g>
<!-- Node3 -->
<g id="node4" class="node">
<title>Node3</title>
<polygon fill="#ffffff" stroke="#bfbfbf" points="406.665,-.5 406.665,-18.5 452.1279,-18.5 452.1279,-.5 406.665,-.5"/>
<text text-anchor="middle" x="429.3965" y="-6.5" font-family="Helvetica,sans-Serif" font-size="10.00" fill="#000000">stdio.h</text>
</g>
<!-- Node2&#45;&gt;Node3 -->
<g id="edge3" class="edge">
<title>Node2&#45;&gt;Node3</title>
<path fill="none" stroke="#191970" d="M517.7808,-110.4589C496.9014,-103.5399 471.3756,-92.0484 454.3965,-74 442.5788,-61.4381 436.1527,-42.6724 432.788,-28.6163"/>
<polygon fill="#191970" stroke="#191970" points="436.1604,-27.642 430.7013,-18.5618 429.3065,-29.0644 436.1604,-27.642"/>
</g>
<!-- Node4 -->
<g id="node5" class="node">
<title>Node4</title>
<polygon fill="#ffffff" stroke="#bfbfbf" points="340.5542,-.5 340.5542,-18.5 388.2388,-18.5 388.2388,-.5 340.5542,-.5"/>
<text text-anchor="middle" x="364.3965" y="-6.5" font-family="Helvetica,sans-Serif" font-size="10.00" fill="#000000">stdlib.h</text>
</g>
<!-- Node2&#45;&gt;Node4 -->
<g id="edge4" class="edge">
<title>Node2&#45;&gt;Node4</title>
<path fill="none" stroke="#191970" d="M516.9792,-118.5834C452.8995,-116.1189 324.1275,-107.0718 296.3965,-74 280.3585,-54.8732 307.9584,-35.5087 332.6569,-23.0594"/>
<polygon fill="#191970" stroke="#191970" points="334.3758,-26.1169 341.8837,-18.6416 331.3528,-19.8033 334.3758,-26.1169"/>
</g>
<!-- Node5 -->
<g id="node6" class="node">
<title>Node5</title>
<polygon fill="#ffffff" stroke="#bfbfbf" points="91.2759,-55.5 91.2759,-73.5 139.5171,-73.5 139.5171,-55.5 91.2759,-55.5"/>
<text text-anchor="middle" x="115.3965" y="-61.5" font-family="Helvetica,sans-Serif" font-size="10.00" fill="#000000">stdint.h</text>
</g>
<!-- Node2&#45;&gt;Node5 -->
<g id="edge5" class="edge">
<title>Node2&#45;&gt;Node5</title>
<path fill="none" stroke="#191970" d="M516.7763,-117.458C447.0262,-113.124 290.2583,-101.2492 149.8704,-74.0072"/>
<polygon fill="#191970" stroke="#191970" points="150.2805,-70.5207 139.7922,-72.0191 148.9257,-77.3883 150.2805,-70.5207"/>
</g>
<!-- Node6 -->
<g id="node7" class="node">
<title>Node6</title>
<polygon fill="#ffffff" stroke="#bfbfbf" points="0,-.5 0,-18.5 48.793,-18.5 48.793,-.5 0,-.5"/>
<text text-anchor="middle" x="24.3965" y="-6.5" font-family="Helvetica,sans-Serif" font-size="10.00" fill="#000000">string.h</text>
</g>
<!-- Node2&#45;&gt;Node6 -->
<g id="edge6" class="edge">
<title>Node2&#45;&gt;Node6</title>
<path fill="none" stroke="#191970" d="M516.9689,-117.5028C413.1758,-111.6006 120.9009,-93.4311 82.3965,-74 61.9104,-63.6618 45.2633,-42.7794 35.1429,-27.5675"/>
<polygon fill="#191970" stroke="#191970" points="38.0117,-25.5554 29.709,-18.9738 32.0952,-29.2964 38.0117,-25.5554"/>
</g>
<!-- Node7 -->
<g id="node8" class="node">
<title>Node7</title>
<polygon fill="#ffffff" stroke="#bfbfbf" points="831.8794,-.5 831.8794,-18.5 922.9136,-18.5 922.9136,-.5 831.8794,-.5"/>
<text text-anchor="middle" x="877.3965" y="-6.5" font-family="Helvetica,sans-Serif" font-size="10.00" fill="#000000">ARX/AR/config.h</text>
</g>
<!-- Node2&#45;&gt;Node7 -->
<g id="edge7" class="edge">
<title>Node2&#45;&gt;Node7</title>
<path fill="none" stroke="#191970" d="M589.7454,-111.8245C592.6723,-111.207 595.5838,-110.593 598.3965,-110 674.392,-93.9787 697.0691,-102.2976 769.3965,-74 786.6799,-67.238 828.6179,-41.0246 854.8555,-24.1683"/>
<polygon fill="#191970" stroke="#191970" points="856.9113,-27.0072 863.4152,-18.6435 853.1152,-21.1259 856.9113,-27.0072"/>
</g>
<!-- Node8 -->
<g id="node9" class="node">
<title>Node8</title>
<g id="a_node9"><a xlink:href="ar_config_8h.html" target="_top" xlink:title="ARX/AR/arConfig.h">
<polygon fill="#ffffff" stroke="#000000" points="305.3228,-55.5 305.3228,-73.5 407.4702,-73.5 407.4702,-55.5 305.3228,-55.5"/>
<text text-anchor="middle" x="356.3965" y="-61.5" font-family="Helvetica,sans-Serif" font-size="10.00" fill="#000000">ARX/AR/arConfig.h</text>
</a>
</g>
</g>
<!-- Node2&#45;&gt;Node8 -->
<g id="edge8" class="edge">
<title>Node2&#45;&gt;Node8</title>
<path fill="none" stroke="#191970" d="M520.8659,-110.4179C487.4019,-101.0751 435.1371,-86.4834 398.5294,-76.263"/>
<polygon fill="#191970" stroke="#191970" points="399.2208,-72.8222 388.6479,-73.5042 397.3384,-79.5644 399.2208,-72.8222"/>
</g>
<!-- Node9 -->
<g id="node10" class="node">
<title>Node9</title>
<g id="a_node10"><a xlink:href="log_8h.html" target="_top" xlink:title="Logging utilities. ">
<polygon fill="#ffffff" stroke="#000000" points="157.3276,-55.5 157.3276,-73.5 249.4653,-73.5 249.4653,-55.5 157.3276,-55.5"/>
<text text-anchor="middle" x="203.3965" y="-61.5" font-family="Helvetica,sans-Serif" font-size="10.00" fill="#000000">ARX/ARUtil/log.h</text>
</a>
</g>
</g>
<!-- Node2&#45;&gt;Node9 -->
<g id="edge9" class="edge">
<title>Node2&#45;&gt;Node9</title>
<path fill="none" stroke="#191970" d="M516.7706,-113.7704C461.7552,-105.1602 354.5149,-88.3616 263.3965,-74 262.1366,-73.8014 260.8618,-73.6004 259.5764,-73.3976"/>
<polygon fill="#191970" stroke="#191970" points="260.0068,-69.9223 249.5832,-71.8196 258.9149,-76.8366 260.0068,-69.9223"/>
</g>
<!-- Node13 -->
<g id="node14" class="node">
<title>Node13</title>
<g id="a_node14"><a xlink:href="matrix_8h.html" target="_top" xlink:title="ARX/AR/matrix.h">
<polygon fill="#ffffff" stroke="#000000" points="558.6108,-55.5 558.6108,-73.5 650.1821,-73.5 650.1821,-55.5 558.6108,-55.5"/>
<text text-anchor="middle" x="604.3965" y="-61.5" font-family="Helvetica,sans-Serif" font-size="10.00" fill="#000000">ARX/AR/matrix.h</text>
</a>
</g>
</g>
<!-- Node2&#45;&gt;Node13 -->
<g id="edge16" class="edge">
<title>Node2&#45;&gt;Node13</title>
<path fill="none" stroke="#191970" d="M561.8181,-110.4179C569.1563,-102.5041 579.9867,-90.8243 588.8878,-81.2251"/>
<polygon fill="#191970" stroke="#191970" points="591.5589,-83.492 595.7919,-73.7795 586.426,-78.7324 591.5589,-83.492"/>
</g>
<!-- Node15 -->
<g id="node16" class="node">
<title>Node15</title>
<g id="a_node16"><a xlink:href="icp_8h.html" target="_top" xlink:title="ARX/AR/icp.h">
<polygon fill="#ffffff" stroke="#000000" points="463.8301,-55.5 463.8301,-73.5 540.9629,-73.5 540.9629,-55.5 463.8301,-55.5"/>
<text text-anchor="middle" x="502.3965" y="-61.5" font-family="Helvetica,sans-Serif" font-size="10.00" fill="#000000">ARX/AR/icp.h</text>
</a>
</g>
</g>
<!-- Node2&#45;&gt;Node15 -->
<g id="edge18" class="edge">
<title>Node2&#45;&gt;Node15</title>
<path fill="none" stroke="#191970" d="M544.9749,-110.4179C537.6367,-102.5041 526.8063,-90.8243 517.9052,-81.2251"/>
<polygon fill="#191970" stroke="#191970" points="520.3669,-78.7324 511.0011,-73.7795 515.2341,-83.492 520.3669,-78.7324"/>
</g>
<!-- Node17 -->
<g id="node18" class="node">
<title>Node17</title>
<g id="a_node18"><a xlink:href="param_8h.html" target="_top" xlink:title="artoolkitX functions for handling calibrated camera parameters. ">
<polygon fill="#ffffff" stroke="#000000" points="668.0493,-55.5 668.0493,-73.5 760.7437,-73.5 760.7437,-55.5 668.0493,-55.5"/>
<text text-anchor="middle" x="714.3965" y="-61.5" font-family="Helvetica,sans-Serif" font-size="10.00" fill="#000000">ARX/AR/param.h</text>
</a>
</g>
</g>
<!-- Node2&#45;&gt;Node17 -->
<g id="edge21" class="edge">
<title>Node2&#45;&gt;Node17</title>
<path fill="none" stroke="#191970" d="M574.816,-110.4179C599.904,-101.1949 641.6936,-86.8567 673.0933,-76.6582"/>
<polygon fill="#191970" stroke="#191970" points="674.4426,-79.9008 682.8886,-73.5042 672.2971,-73.2377 674.4426,-79.9008"/>
</g>
<!-- Node18 -->
<g id="node19" class="node">
<title>Node18</title>
<g id="a_node19"><a xlink:href="ar_image_proc_8h.html" target="_top" xlink:title="artoolkitX functions for 2D luminance image processing. ">
<polygon fill="#ffffff" stroke="#000000" points="816.5986,-55.5 816.5986,-73.5 938.1943,-73.5 938.1943,-55.5 816.5986,-55.5"/>
<text text-anchor="middle" x="877.3965" y="-61.5" font-family="Helvetica,sans-Serif" font-size="10.00" fill="#000000">ARX/AR/arImageProc.h</text>
</a>
</g>
</g>
<!-- Node2&#45;&gt;Node18 -->
<g id="edge23" class="edge">
<title>Node2&#45;&gt;Node18</title>
<path fill="none" stroke="#191970" d="M587.0222,-110.4489C587.8194,-110.2966 588.6116,-110.1468 589.3965,-110 662.8932,-96.2567 747.7253,-82.7564 806.2671,-74.0774"/>
<polygon fill="#191970" stroke="#191970" points="807.1362,-77.4872 816.5194,-72.5672 806.1161,-70.562 807.1362,-77.4872"/>
</g>
<!-- Node9&#45;&gt;Node3 -->
<g id="edge10" class="edge">
<title>Node9&#45;&gt;Node3</title>
<path fill="none" stroke="#191970" d="M245.1987,-55.4344C282.4512,-47.1906 338.6678,-34.3481 396.3478,-19.168"/>
<polygon fill="#191970" stroke="#191970" points="397.6009,-22.4567 406.3697,-16.5104 395.8066,-15.6906 397.6009,-22.4567"/>
</g>
<!-- Node9&#45;&gt;Node4 -->
<g id="edge11" class="edge">
<title>Node9&#45;&gt;Node4</title>
<path fill="none" stroke="#191970" d="M229.9824,-55.4179C257.5858,-45.9881 300.8419,-31.2112 330.7955,-20.9786"/>
<polygon fill="#191970" stroke="#191970" points="332.0703,-24.2418 340.4019,-17.6969 329.8073,-17.6176 332.0703,-24.2418"/>
</g>
<!-- Node9&#45;&gt;Node6 -->
<g id="edge12" class="edge">
<title>Node9&#45;&gt;Node6</title>
<path fill="none" stroke="#191970" d="M173.8383,-55.4179C142.1619,-45.6849 91.9459,-30.2554 58.5887,-20.006"/>
<polygon fill="#191970" stroke="#191970" points="59.4038,-16.595 48.8169,-17.0035 57.3478,-23.2863 59.4038,-16.595"/>
</g>
<!-- Node10 -->
<g id="node11" class="node">
<title>Node10</title>
<polygon fill="#ffffff" stroke="#bfbfbf" points="66.3301,-.5 66.3301,-18.5 118.4629,-18.5 118.4629,-.5 66.3301,-.5"/>
<text text-anchor="middle" x="92.3965" y="-6.5" font-family="Helvetica,sans-Serif" font-size="10.00" fill="#000000">stdarg.h</text>
</g>
<!-- Node9&#45;&gt;Node10 -->
<g id="edge13" class="edge">
<title>Node9&#45;&gt;Node10</title>
<path fill="none" stroke="#191970" d="M185.0671,-55.4179C167.3124,-46.6205 140.165,-33.1691 119.8349,-23.0956"/>
<polygon fill="#191970" stroke="#191970" points="121.2674,-19.8994 110.7531,-18.5956 118.1595,-26.1716 121.2674,-19.8994"/>
</g>
<!-- Node11 -->
<g id="node12" class="node">
<title>Node11</title>
<polygon fill="#ffffff" stroke="#bfbfbf" points="136.665,-.5 136.665,-18.5 202.1279,-18.5 202.1279,-.5 136.665,-.5"/>
<text text-anchor="middle" x="169.3965" y="-6.5" font-family="Helvetica,sans-Serif" font-size="10.00" fill="#000000">sys/errno.h</text>
</g>
<!-- Node9&#45;&gt;Node11 -->
<g id="edge14" class="edge">
<title>Node9&#45;&gt;Node11</title>
<path fill="none" stroke="#191970" d="M197.7821,-55.4179C193.0856,-47.8207 186.2436,-36.7527 180.4537,-27.3866"/>
<polygon fill="#191970" stroke="#191970" points="183.3682,-25.445 175.1329,-18.7795 177.4141,-29.1258 183.3682,-25.445"/>
</g>
<!-- Node12 -->
<g id="node13" class="node">
<title>Node12</title>
<g id="a_node13"><a xlink:href="types_8h.html" target="_top" xlink:title="ARX/ARUtil/types.h">
<polygon fill="#ffffff" stroke="#000000" points="220.0493,-.5 220.0493,-18.5 322.7437,-18.5 322.7437,-.5 220.0493,-.5"/>
<text text-anchor="middle" x="271.3965" y="-6.5" font-family="Helvetica,sans-Serif" font-size="10.00" fill="#000000">ARX/ARUtil/types.h</text>
</a>
</g>
</g>
<!-- Node9&#45;&gt;Node12 -->
<g id="edge15" class="edge">
<title>Node9&#45;&gt;Node12</title>
<path fill="none" stroke="#191970" d="M214.6253,-55.4179C224.8009,-47.1876 240.0128,-34.8839 252.1295,-25.0836"/>
<polygon fill="#191970" stroke="#191970" points="254.3496,-27.7895 259.9237,-18.7795 249.9475,-22.3469 254.3496,-27.7895"/>
</g>
<!-- Node14 -->
<g id="node15" class="node">
<title>Node14</title>
<polygon fill="#ffffff" stroke="#bfbfbf" points="587.1108,-.5 587.1108,-18.5 633.6821,-18.5 633.6821,-.5 587.1108,-.5"/>
<text text-anchor="middle" x="610.3965" y="-6.5" font-family="Helvetica,sans-Serif" font-size="10.00" fill="#000000">math.h</text>
</g>
<!-- Node13&#45;&gt;Node14 -->
<g id="edge17" class="edge">
<title>Node13&#45;&gt;Node14</title>
<path fill="none" stroke="#191970" d="M605.3873,-55.4179C606.1729,-48.2164 607.2987,-37.8962 608.2841,-28.8632"/>
<polygon fill="#191970" stroke="#191970" points="611.779,-29.1001 609.3842,-18.7795 604.8203,-28.3409 611.779,-29.1001"/>
</g>
<!-- Node15&#45;&gt;Node3 -->
<g id="edge19" class="edge">
<title>Node15&#45;&gt;Node3</title>
<path fill="none" stroke="#191970" d="M490.342,-55.4179C479.3131,-47.1084 462.7733,-34.6469 449.7058,-24.8015"/>
<polygon fill="#191970" stroke="#191970" points="451.8059,-22.0016 441.7129,-18.7795 447.5936,-27.5924 451.8059,-22.0016"/>
</g>
<!-- Node16 -->
<g id="node17" class="node">
<title>Node16</title>
<g id="a_node17"><a xlink:href="icp_core_8h.html" target="_top" xlink:title="ARX/AR/icpCore.h">
<polygon fill="#ffffff" stroke="#000000" points="469.9927,-.5 469.9927,-18.5 568.8003,-18.5 568.8003,-.5 469.9927,-.5"/>
<text text-anchor="middle" x="519.3965" y="-6.5" font-family="Helvetica,sans-Serif" font-size="10.00" fill="#000000">ARX/AR/icpCore.h</text>
</a>
</g>
</g>
<!-- Node15&#45;&gt;Node16 -->
<g id="edge20" class="edge">
<title>Node15&#45;&gt;Node16</title>
<path fill="none" stroke="#191970" d="M505.2037,-55.4179C507.4541,-48.1372 510.6897,-37.669 513.5034,-28.5659"/>
<polygon fill="#191970" stroke="#191970" points="516.9191,-29.3671 516.5283,-18.7795 510.2312,-27.2999 516.9191,-29.3671"/>
</g>
<!-- Node17&#45;&gt;Node2 -->
<g id="edge22" class="edge">
<title>Node17&#45;&gt;Node2</title>
<path fill="none" stroke="#191970" d="M693.1888,-73.5042C668.1953,-82.6983 626.4237,-97.0336 594.9656,-107.2554"/>
<polygon fill="#191970" stroke="#191970" points="593.5938,-104.0201 585.1487,-110.4179 595.7402,-110.6829 593.5938,-104.0201"/>
</g>
<!-- Node18&#45;&gt;Node2 -->
<g id="edge25" class="edge">
<title>Node18&#45;&gt;Node2</title>
<path fill="none" stroke="#191970" d="M824.0903,-73.504C769.5145,-82.1544 682.5322,-95.9502 607.3965,-110 604.9242,-110.4623 602.3789,-110.9547 599.7994,-111.4627"/>
<polygon fill="#191970" stroke="#191970" points="598.8816,-108.0769 589.7618,-113.4694 600.2539,-114.941 598.8816,-108.0769"/>
</g>
<!-- Node18&#45;&gt;Node7 -->
<g id="edge24" class="edge">
<title>Node18&#45;&gt;Node7</title>
<path fill="none" stroke="#191970" d="M877.3965,-55.4179C877.3965,-48.2164 877.3965,-37.8962 877.3965,-28.8632"/>
<polygon fill="#191970" stroke="#191970" points="880.8966,-28.7794 877.3965,-18.7795 873.8966,-28.7795 880.8966,-28.7794"/>
</g>
<!-- Node19&#45;&gt;Node2 -->
<g id="edge27" class="edge">
<title>Node19&#45;&gt;Node2</title>
<path fill="none" stroke="#191970" d="M667.7737,-165.4179C645.3645,-156.4215 610.832,-142.5581 585.572,-132.4172"/>
<polygon fill="#191970" stroke="#191970" points="586.6369,-129.0732 576.0529,-128.5956 584.029,-135.5693 586.6369,-129.0732"/>
</g>
<!-- Node20 -->
<g id="node21" class="node">
<title>Node20</title>
<g id="a_node21"><a xlink:href="video_config_8h.html" target="_top" xlink:title="ARX/ARVideo/videoConfig.h">
<polygon fill="#ffffff" stroke="#000000" points="862.2031,-110.5 862.2031,-128.5 1004.5898,-128.5 1004.5898,-110.5 862.2031,-110.5"/>
<text text-anchor="middle" x="933.3965" y="-116.5" font-family="Helvetica,sans-Serif" font-size="10.00" fill="#000000">ARX/ARVideo/videoConfig.h</text>
</a>
</g>
</g>
<!-- Node19&#45;&gt;Node20 -->
<g id="edge28" class="edge">
<title>Node19&#45;&gt;Node20</title>
<path fill="none" stroke="#191970" d="M730.2509,-165.4795C772.1856,-155.9881 838.2709,-141.0305 883.609,-130.7688"/>
<polygon fill="#191970" stroke="#191970" points="884.5397,-134.1467 893.5203,-128.5255 882.9944,-127.3194 884.5397,-134.1467"/>
</g>
<!-- Node21 -->
<g id="node22" class="node">
<title>Node21</title>
<polygon fill="#ffffff" stroke="#bfbfbf" points="607.8398,-110.5 607.8398,-128.5 654.9531,-128.5 654.9531,-110.5 607.8398,-110.5"/>
<text text-anchor="middle" x="631.3965" y="-116.5" font-family="Helvetica,sans-Serif" font-size="10.00" fill="#000000">limits.h</text>
</g>
<!-- Node19&#45;&gt;Node21 -->
<g id="edge30" class="edge">
<title>Node19&#45;&gt;Node21</title>
<path fill="none" stroke="#191970" d="M680.6538,-165.4179C671.9948,-157.3458 659.1325,-145.3556 648.7228,-135.6517"/>
<polygon fill="#191970" stroke="#191970" points="651.0521,-133.0381 641.3508,-128.7795 646.2789,-138.1584 651.0521,-133.0381"/>
</g>
<!-- Node22 -->
<g id="node23" class="node">
<title>Node22</title>
<g id="a_node23"><a xlink:href="video_luma_8h.html" target="_top" xlink:title="ARX/ARVideo/videoLuma.h">
<polygon fill="#ffffff" stroke="#000000" points="673.1489,-110.5 673.1489,-128.5 811.644,-128.5 811.644,-110.5 673.1489,-110.5"/>
<text text-anchor="middle" x="742.3965" y="-116.5" font-family="Helvetica,sans-Serif" font-size="10.00" fill="#000000">ARX/ARVideo/videoLuma.h</text>
</a>
</g>
</g>
<!-- Node19&#45;&gt;Node22 -->
<g id="edge31" class="edge">
<title>Node19&#45;&gt;Node22</title>
<path fill="none" stroke="#191970" d="M693.8169,-165.4179C699.7768,-157.3458 710.7649,-145.3556 720.915,-135.6517"/>
<polygon fill="#191970" stroke="#191970" points="723.4072,-138.1153 728.4164,-128.7795 718.6786,-132.9538 723.4072,-138.1153"/>
</g>
<!-- Node20&#45;&gt;Node7 -->
<g id="edge29" class="edge">
<title>Node20&#45;&gt;Node7</title>
<path fill="none" stroke="#191970" d="M939.213,-110.178C946.5564,-97.1072 957.1251,-72.9267 947.3965,-55 939.7009,-40.8194 925.4632,-30.3683 911.8275,-23.0844"/>
<polygon fill="#191970" stroke="#191970" points="913.0905,-19.8055 902.5714,-18.5408 910.0059,-26.0893 913.0905,-19.8055"/>
</g>
<!-- Node22&#45;&gt;Node19 -->
<g id="edge32" class="edge">
<title>Node22&#45;&gt;Node19</title>
<path fill="none" stroke="#191970" d="M738.8299,-128.7795C732.7888,-136.9147 721.7671,-148.9177 711.631,-158.5841"/>
<polygon fill="#191970" stroke="#191970" points="709.1725,-156.0894 704.1495,-165.4179 713.8935,-161.2578 709.1725,-156.0894"/>
</g>
</g>
</svg>
        <g id="navigator" transform="translate(0 0)" fill="#404254">
                <rect fill="#f2f5e9" fill-opacity="0.5" stroke="#606060" stroke-width=".5" x="0" y="0" width="60" height="60"/>
                <use id="zoomplus" xlink:href="#zoomPlus" x="17" y="9" onmousedown="handleZoom(evt,'in')"/>
                <use id="zoomminus" xlink:href="#zoomMin" x="42" y="9" onmousedown="handleZoom(evt,'out')"/>
                <use id="reset" xlink:href="#resetDef" x="30" y="36" onmousedown="handleReset()"/>
                <g id="arrowUp" xlink:href="#dirArrow" transform="translate(30 24)" onmousedown="handlePan(0,-1)">
                  <use xlink:href="#rim" fill="#404040">
                        <set attributeName="fill" to="#808080" begin="arrowUp.mouseover" end="arrowUp.mouseout"/>
                  </use>
                  <path fill="none" stroke="white" stroke-width="1.5" d="M0,-3.0v7 M-2.5,-0.5L0,-3.0L2.5,-0.5"/>
                </g>
                <g id="arrowRight" xlink:href="#dirArrow" transform="rotate(90) translate(36 -43)" onmousedown="handlePan(1,0)">
                  <use xlink:href="#rim" fill="#404040">
                        <set attributeName="fill" to="#808080" begin="arrowRight.mouseover" end="arrowRight.mouseout"/>
                  </use>
                  <path fill="none" stroke="white" stroke-width="1.5" d="M0,-3.0v7 M-2.5,-0.5L0,-3.0L2.5,-0.5"/>
                </g>
                <g id="arrowDown" xlink:href="#dirArrow" transform="rotate(180) translate(-30 -48)" onmousedown="handlePan(0,1)">
                  <use xlink:href="#rim" fill="#404040">
                        <set attributeName="fill" to="#808080" begin="arrowDown.mouseover" end="arrowDown.mouseout"/>
                  </use>
                  <path fill="none" stroke="white" stroke-width="1.5" d="M0,-3.0v7 M-2.5,-0.5L0,-3.0L2.5,-0.5"/>
                </g>
                <g id="arrowLeft" xlink:href="#dirArrow" transform="rotate(270) translate(-36 17)" onmousedown="handlePan(-1,0)">
                  <use xlink:href="#rim" fill="#404040">
                        <set attributeName="fill" to="#808080" begin="arrowLeft.mouseover" end="arrowLeft.mouseout"/>
                  </use>
                  <path fill="none" stroke="white" stroke-width="1.5" d="M0,-3.0v7 M-2.5,-0.5L0,-3.0L2.5,-0.5"/>
                </g>
        </g>
        <svg viewBox="0 0 15 15" width="100%" height="30px" preserveAspectRatio="xMaxYMin meet">
         <g id="arrow_out" transform="scale(0.3 0.3)">
          <a xlink:href="_a_r_video_source_8h__incl_org.svg" target="_base">
           <rect id="button" ry="5" rx="5" y="6" x="6" height="38" width="38"
                fill="#f2f5e9" fill-opacity="0.5" stroke="#606060" stroke-width="1.0"/>
           <path id="arrow"
             d="M 11.500037,31.436501 C 11.940474,20.09759 22.043105,11.32322 32.158766,21.979434 L 37.068811,17.246167 C 37.068811,17.246167 37.088388,32 37.088388,32 L 22.160133,31.978069 C 22.160133,31.978069 26.997745,27.140456 26.997745,27.140456 C 18.528582,18.264221 13.291696,25.230495 11.500037,31.436501 z"
             style="fill:#404040;"/>
          </a>
         </g>
        </svg>
</svg>
