<?xml version="1.0" encoding="UTF-8" standalone="no"?>
<!DOCTYPE svg PUBLIC "-//W3C//DTD SVG 1.1//EN"
 "http://www.w3.org/Graphics/SVG/1.1/DTD/svg11.dtd">
<!-- Generated by graphviz version 2.40.1 (20161225.0304)
 -->
<!-- Title: Source/ARX/ARTrackerSquare.cpp Pages: 1 -->
<!--zoomable 467 -->
<svg id="main" version="1.1" xmlns="http://www.w3.org/2000/svg" xmlns:xlink="http://www.w3.org/1999/xlink" xml:space="preserve" onload="init(evt)">
<style type="text/css"><![CDATA[
.edge:hover path { stroke: red; }
.edge:hover polygon { stroke: red; fill: red; }
]]></style>
<script type="text/javascript"><![CDATA[
var edges = document.getElementsByTagName('g');
if (edges && edges.length) {
  for (var i=0;i<edges.length;i++) {
    if (edges[i].id.substr(0,4)=='edge') {
      edges[i].setAttribute('class','edge');
    }
  }
}
]]></script>
        <defs>
                <circle id="rim" cx="0" cy="0" r="7"/>
                <circle id="rim2" cx="0" cy="0" r="3.5"/>
                <g id="zoomPlus">
                        <use xlink:href="#rim" fill="#404040">
                                <set attributeName="fill" to="#808080" begin="zoomplus.mouseover" end="zoomplus.mouseout"/>
                        </use>
                        <path d="M-4,0h8M0,-4v8" fill="none" stroke="white" stroke-width="1.5" pointer-events="none"/>
                </g>
                <g id="zoomMin">
                        <use xlink:href="#rim" fill="#404040">
                                <set attributeName="fill" to="#808080" begin="zoomminus.mouseover" end="zoomminus.mouseout"/>
                        </use>
                        <path d="M-4,0h8" fill="none" stroke="white" stroke-width="1.5" pointer-events="none"/>
                </g>
                <g id="dirArrow">
                        <path fill="none" stroke="white" stroke-width="1.5" d="M0,-3.0v7 M-2.5,-0.5L0,-3.0L2.5,-0.5"/>
                </g>
               <g id="resetDef">
                       <use xlink:href="#rim2" fill="#404040">
                               <set attributeName="fill" to="#808080" begin="reset.mouseover" end="reset.mouseout"/>
                       </use>
               </g>
        </defs>

<script type="text/javascript">
var viewWidth = 1100;
var viewHeight = 467;
var sectionId = 'dynsection-0';
</script>
<script xlink:href="svgpan.js"/>
<svg id="graph" class="graph">
<g id="viewport">
<title>Source/ARX/ARTrackerSquare.cpp</title>
<polygon fill="#ffffff" stroke="transparent" points="-4,4 -4,-463 1096.4136,-463 1096.4136,4 -4,4"/>
<!-- Node0 -->
<g id="node1" class="node">
<title>Node0</title>
<polygon fill="#bfbfbf" stroke="#000000" points="541.9707,-440.5 541.9707,-458.5 714.1621,-458.5 714.1621,-440.5 541.9707,-440.5"/>
<text text-anchor="middle" x="628.0664" y="-446.5" font-family="Helvetica,sans-Serif" font-size="10.00" fill="#000000">Source/ARX/ARTrackerSquare.cpp</text>
</g>
<!-- Node1 -->
<g id="node2" class="node">
<title>Node1</title>
<g id="a_node2"><a xlink:href="_a_r_tracker_square_8h.html" target="_top" xlink:title="ARX/ARTrackerSquare.h">
<polygon fill="#ffffff" stroke="#000000" points="518.4829,-385.5 518.4829,-403.5 645.6499,-403.5 645.6499,-385.5 518.4829,-385.5"/>
<text text-anchor="middle" x="582.0664" y="-391.5" font-family="Helvetica,sans-Serif" font-size="10.00" fill="#000000">ARX/ARTrackerSquare.h</text>
</a>
</g>
</g>
<!-- Node0&#45;&gt;Node1 -->
<g id="edge1" class="edge">
<title>Node0&#45;&gt;Node1</title>
<path fill="none" stroke="#191970" d="M620.4704,-440.4179C613.9179,-432.5833 604.2782,-421.0575 596.296,-411.5137"/>
<polygon fill="#191970" stroke="#191970" points="598.9278,-409.2048 589.8274,-403.7795 593.5582,-413.6957 598.9278,-409.2048"/>
</g>
<!-- Node2 -->
<g id="node3" class="node">
<title>Node2</title>
<g id="a_node3"><a xlink:href="_a_r_trackable_square_8h.html" target="_top" xlink:title="ARX/ARTrackableSquare.h">
<polygon fill="#ffffff" stroke="#000000" points="605.4756,-330.5 605.4756,-348.5 742.6572,-348.5 742.6572,-330.5 605.4756,-330.5"/>
<text text-anchor="middle" x="674.0664" y="-336.5" font-family="Helvetica,sans-Serif" font-size="10.00" fill="#000000">ARX/ARTrackableSquare.h</text>
</a>
</g>
</g>
<!-- Node0&#45;&gt;Node2 -->
<g id="edge45" class="edge">
<title>Node0&#45;&gt;Node2</title>
<path fill="none" stroke="#191970" d="M634.358,-440.4506C640.3421,-431.5179 649.2679,-417.3042 655.0664,-404 661.5524,-389.1183 666.5984,-371.3718 669.8549,-358.2642"/>
<polygon fill="#191970" stroke="#191970" points="673.2663,-359.0467 672.1618,-348.5096 666.4542,-357.4356 673.2663,-359.0467"/>
</g>
<!-- Node4 -->
<g id="node5" class="node">
<title>Node4</title>
<g id="a_node5"><a xlink:href="ar_8h.html" target="_top" xlink:title="artoolkitX core routines. ">
<polygon fill="#ffffff" stroke="#000000" points="616.7192,-110.5 616.7192,-128.5 689.4136,-128.5 689.4136,-110.5 616.7192,-110.5"/>
<text text-anchor="middle" x="653.0664" y="-116.5" font-family="Helvetica,sans-Serif" font-size="10.00" fill="#000000">ARX/AR/ar.h</text>
</a>
</g>
</g>
<!-- Node0&#45;&gt;Node4 -->
<g id="edge47" class="edge">
<title>Node0&#45;&gt;Node4</title>
<path fill="none" stroke="#191970" d="M592.787,-440.3894C528.5507,-422.7578 399.0664,-381.9518 399.0664,-339.5 399.0664,-339.5 399.0664,-339.5 399.0664,-229.5 399.0664,-194.2899 415.6787,-184.3936 445.0664,-165 471.0981,-147.8211 553.1904,-133.5196 606.124,-125.7666"/>
<polygon fill="#191970" stroke="#191970" points="606.8964,-129.1916 616.2967,-124.3044 605.9005,-122.2628 606.8964,-129.1916"/>
</g>
<!-- Node25 -->
<g id="node26" class="node">
<title>Node25</title>
<g id="a_node26"><a xlink:href="_a_r_trackable_multi_square_8h.html" target="_top" xlink:title="ARX/ARTrackableMultiSquare.h">
<polygon fill="#ffffff" stroke="#000000" points="760.9189,-330.5 760.9189,-348.5 919.2139,-348.5 919.2139,-330.5 760.9189,-330.5"/>
<text text-anchor="middle" x="840.0664" y="-336.5" font-family="Helvetica,sans-Serif" font-size="10.00" fill="#000000">ARX/ARTrackableMultiSquare.h</text>
</a>
</g>
</g>
<!-- Node0&#45;&gt;Node25 -->
<g id="edge46" class="edge">
<title>Node0&#45;&gt;Node25</title>
<path fill="none" stroke="#191970" d="M645.4153,-440.4982C682.4516,-421.2813 769.4566,-376.1372 813.5108,-353.2788"/>
<polygon fill="#191970" stroke="#191970" points="815.2135,-356.3385 822.4778,-348.6261 811.9896,-350.1251 815.2135,-356.3385"/>
</g>
<!-- Node1&#45;&gt;Node2 -->
<g id="edge2" class="edge">
<title>Node1&#45;&gt;Node2</title>
<path fill="none" stroke="#191970" d="M597.2583,-385.4179C611.641,-376.8195 633.4603,-363.7754 650.1725,-353.7844"/>
<polygon fill="#191970" stroke="#191970" points="652.0647,-356.731 658.8519,-348.5956 648.4728,-350.7228 652.0647,-356.731"/>
</g>
<!-- Node1&#45;&gt;Node4 -->
<g id="edge44" class="edge">
<title>Node1&#45;&gt;Node4</title>
<path fill="none" stroke="#191970" d="M526.9938,-385.4921C503.0139,-379.0017 476.2865,-367.9056 458.0664,-349 437.1459,-327.2924 437.0664,-314.6478 437.0664,-284.5 437.0664,-284.5 437.0664,-284.5 437.0664,-229.5 437.0664,-197.6943 443.3745,-185.0478 468.0664,-165 489.0581,-147.9565 558.7002,-134.1236 606.2855,-126.3525"/>
<polygon fill="#191970" stroke="#191970" points="607.0532,-129.7743 616.3761,-124.7409 605.9492,-122.8619 607.0532,-129.7743"/>
</g>
<!-- Node1&#45;&gt;Node25 -->
<g id="edge34" class="edge">
<title>Node1&#45;&gt;Node25</title>
<path fill="none" stroke="#191970" d="M624.381,-385.4795C669.0913,-375.9482 739.6589,-360.9047 787.8112,-350.6397"/>
<polygon fill="#191970" stroke="#191970" points="788.6783,-354.0336 797.7287,-348.5255 787.2188,-347.1874 788.6783,-354.0336"/>
</g>
<!-- Node27 -->
<g id="node28" class="node">
<title>Node27</title>
<g id="a_node28"><a xlink:href="_a_r_tracker_video_8h.html" target="_top" xlink:title="ARX/ARTrackerVideo.h">
<polygon fill="#ffffff" stroke="#000000" points="466.9058,-330.5 466.9058,-348.5 587.2271,-348.5 587.2271,-330.5 466.9058,-330.5"/>
<text text-anchor="middle" x="527.0664" y="-336.5" font-family="Helvetica,sans-Serif" font-size="10.00" fill="#000000">ARX/ARTrackerVideo.h</text>
</a>
</g>
</g>
<!-- Node1&#45;&gt;Node27 -->
<g id="edge38" class="edge">
<title>Node1&#45;&gt;Node27</title>
<path fill="none" stroke="#191970" d="M572.9843,-385.4179C564.9914,-377.425 553.1567,-365.5903 543.5042,-355.9377"/>
<polygon fill="#191970" stroke="#191970" points="545.8918,-353.3757 536.3459,-348.7795 540.9421,-358.3254 545.8918,-353.3757"/>
</g>
<!-- Node3 -->
<g id="node4" class="node">
<title>Node3</title>
<g id="a_node4"><a xlink:href="_a_r_trackable_8h.html" target="_top" xlink:title="ARX/ARTrackable.h">
<polygon fill="#ffffff" stroke="#000000" points="663.5986,-220.5 663.5986,-238.5 768.5342,-238.5 768.5342,-220.5 663.5986,-220.5"/>
<text text-anchor="middle" x="716.0664" y="-226.5" font-family="Helvetica,sans-Serif" font-size="10.00" fill="#000000">ARX/ARTrackable.h</text>
</a>
</g>
</g>
<!-- Node2&#45;&gt;Node3 -->
<g id="edge3" class="edge">
<title>Node2&#45;&gt;Node3</title>
<path fill="none" stroke="#191970" d="M677.5034,-330.4982C684.364,-312.5302 699.8791,-271.8954 709.001,-248.0046"/>
<polygon fill="#191970" stroke="#191970" points="712.2846,-249.2168 712.5819,-238.6261 705.745,-246.7199 712.2846,-249.2168"/>
</g>
<!-- Node3&#45;&gt;Node4 -->
<g id="edge4" class="edge">
<title>Node3&#45;&gt;Node4</title>
<path fill="none" stroke="#191970" d="M712.3027,-220.498C706.8719,-207.8073 696.2554,-184.0756 685.0664,-165 679.397,-155.3346 672.2931,-145.0836 666.2196,-136.7635"/>
<polygon fill="#191970" stroke="#191970" points="668.9298,-134.5428 660.1504,-128.6121 663.3152,-138.7233 668.9298,-134.5428"/>
</g>
<!-- Node21 -->
<g id="node22" class="node">
<title>Node21</title>
<g id="a_node22"><a xlink:href="ar_filter_trans_mat_8h.html" target="_top" xlink:title="Provides filtering of transformation matrices (pose estimates). ">
<polygon fill="#ffffff" stroke="#000000" points="538.4023,-165.5 538.4023,-183.5 675.7305,-183.5 675.7305,-165.5 538.4023,-165.5"/>
<text text-anchor="middle" x="607.0664" y="-171.5" font-family="Helvetica,sans-Serif" font-size="10.00" fill="#000000">ARX/AR/arFilterTransMat.h</text>
</a>
</g>
</g>
<!-- Node3&#45;&gt;Node21 -->
<g id="edge28" class="edge">
<title>Node3&#45;&gt;Node21</title>
<path fill="none" stroke="#191970" d="M698.0673,-220.4179C680.7114,-211.6603 654.2153,-198.2907 634.2818,-188.2326"/>
<polygon fill="#191970" stroke="#191970" points="635.5968,-184.9758 625.0923,-183.5956 632.4434,-191.2253 635.5968,-184.9758"/>
</g>
<!-- Node22 -->
<g id="node23" class="node">
<title>Node22</title>
<g id="a_node23"><a xlink:href="_a_r_pattern_8h.html" target="_top" xlink:title="ARX/ARPattern.h">
<polygon fill="#ffffff" stroke="#000000" points="732.1602,-165.5 732.1602,-183.5 825.9727,-183.5 825.9727,-165.5 732.1602,-165.5"/>
<text text-anchor="middle" x="779.0664" y="-171.5" font-family="Helvetica,sans-Serif" font-size="10.00" fill="#000000">ARX/ARPattern.h</text>
</a>
</g>
</g>
<!-- Node3&#45;&gt;Node22 -->
<g id="edge30" class="edge">
<title>Node3&#45;&gt;Node22</title>
<path fill="none" stroke="#191970" d="M726.4696,-220.4179C735.8064,-212.2667 749.7197,-200.1201 760.8915,-190.3669"/>
<polygon fill="#191970" stroke="#191970" points="763.2058,-192.9927 768.4372,-183.7795 758.6022,-187.7194 763.2058,-192.9927"/>
</g>
<!-- Node24 -->
<g id="node25" class="node">
<title>Node24</title>
<polygon fill="#ffffff" stroke="#bfbfbf" points="477.4507,-165.5 477.4507,-183.5 520.6821,-183.5 520.6821,-165.5 477.4507,-165.5"/>
<text text-anchor="middle" x="499.0664" y="-171.5" font-family="Helvetica,sans-Serif" font-size="10.00" fill="#000000">vector</text>
</g>
<!-- Node3&#45;&gt;Node24 -->
<g id="edge33" class="edge">
<title>Node3&#45;&gt;Node24</title>
<path fill="none" stroke="#191970" d="M675.3693,-220.4382C639.5024,-212.2647 585.6364,-199.5372 530.8454,-184.3811"/>
<polygon fill="#191970" stroke="#191970" points="531.5427,-180.942 520.9699,-181.6253 529.6612,-187.6844 531.5427,-180.942"/>
</g>
<!-- Node5 -->
<g id="node6" class="node">
<title>Node5</title>
<polygon fill="#ffffff" stroke="#bfbfbf" points="406.335,-.5 406.335,-18.5 451.7979,-18.5 451.7979,-.5 406.335,-.5"/>
<text text-anchor="middle" x="429.0664" y="-6.5" font-family="Helvetica,sans-Serif" font-size="10.00" fill="#000000">stdio.h</text>
</g>
<!-- Node4&#45;&gt;Node5 -->
<g id="edge5" class="edge">
<title>Node4&#45;&gt;Node5</title>
<path fill="none" stroke="#191970" d="M616.4306,-117.795C557.4024,-114.1953 445.3872,-103.554 421.0664,-74 410.5657,-61.2398 414.6977,-41.9699 420.1569,-27.8147"/>
<polygon fill="#191970" stroke="#191970" points="423.3956,-29.1436 424.1764,-18.5776 416.977,-26.3505 423.3956,-29.1436"/>
</g>
<!-- Node6 -->
<g id="node7" class="node">
<title>Node6</title>
<polygon fill="#ffffff" stroke="#bfbfbf" points="274.2241,-.5 274.2241,-18.5 321.9087,-18.5 321.9087,-.5 274.2241,-.5"/>
<text text-anchor="middle" x="298.0664" y="-6.5" font-family="Helvetica,sans-Serif" font-size="10.00" fill="#000000">stdlib.h</text>
</g>
<!-- Node4&#45;&gt;Node6 -->
<g id="edge6" class="edge">
<title>Node4&#45;&gt;Node6</title>
<path fill="none" stroke="#191970" d="M616.329,-115.3099C553.4133,-107.788 427.8757,-91.1707 387.0664,-74 359.2539,-62.2978 331.8441,-40.4437 314.9505,-25.4435"/>
<polygon fill="#191970" stroke="#191970" points="317.2979,-22.8473 307.5465,-18.7048 312.5863,-28.0243 317.2979,-22.8473"/>
</g>
<!-- Node7 -->
<g id="node8" class="node">
<title>Node7</title>
<polygon fill="#ffffff" stroke="#bfbfbf" points="525.9458,-55.5 525.9458,-73.5 574.187,-73.5 574.187,-55.5 525.9458,-55.5"/>
<text text-anchor="middle" x="550.0664" y="-61.5" font-family="Helvetica,sans-Serif" font-size="10.00" fill="#000000">stdint.h</text>
</g>
<!-- Node4&#45;&gt;Node7 -->
<g id="edge7" class="edge">
<title>Node4&#45;&gt;Node7</title>
<path fill="none" stroke="#191970" d="M636.0581,-110.4179C619.7321,-101.7001 594.8474,-88.4122 576.041,-78.3699"/>
<polygon fill="#191970" stroke="#191970" points="577.5698,-75.2186 567.1,-73.5956 574.2726,-81.3934 577.5698,-75.2186"/>
</g>
<!-- Node8 -->
<g id="node9" class="node">
<title>Node8</title>
<polygon fill="#ffffff" stroke="#bfbfbf" points="339.6699,-.5 339.6699,-18.5 388.4629,-18.5 388.4629,-.5 339.6699,-.5"/>
<text text-anchor="middle" x="364.0664" y="-6.5" font-family="Helvetica,sans-Serif" font-size="10.00" fill="#000000">string.h</text>
</g>
<!-- Node4&#45;&gt;Node8 -->
<g id="edge8" class="edge">
<title>Node4&#45;&gt;Node8</title>
<path fill="none" stroke="#191970" d="M616.6939,-115.9683C557.8033,-109.7095 444.7682,-95.2923 411.0664,-74 393.5546,-62.9363 380.4673,-42.7977 372.6089,-27.9566"/>
<polygon fill="#191970" stroke="#191970" points="375.5969,-26.1041 368.0139,-18.7049 369.3276,-29.218 375.5969,-26.1041"/>
</g>
<!-- Node9 -->
<g id="node10" class="node">
<title>Node9</title>
<polygon fill="#ffffff" stroke="#bfbfbf" points="652.5493,-.5 652.5493,-18.5 743.5835,-18.5 743.5835,-.5 652.5493,-.5"/>
<text text-anchor="middle" x="698.0664" y="-6.5" font-family="Helvetica,sans-Serif" font-size="10.00" fill="#000000">ARX/AR/config.h</text>
</g>
<!-- Node4&#45;&gt;Node9 -->
<g id="edge9" class="edge">
<title>Node4&#45;&gt;Node9</title>
<path fill="none" stroke="#191970" d="M678.2413,-110.4592C694.2134,-103.2567 713.5949,-91.453 723.0664,-74 731.351,-58.7342 722.296,-40.1312 712.849,-26.8339"/>
<polygon fill="#191970" stroke="#191970" points="715.3463,-24.3426 706.4544,-18.5819 709.8132,-28.6303 715.3463,-24.3426"/>
</g>
<!-- Node10 -->
<g id="node11" class="node">
<title>Node10</title>
<g id="a_node11"><a xlink:href="ar_config_8h.html" target="_top" xlink:title="ARX/AR/arConfig.h">
<polygon fill="#ffffff" stroke="#000000" points="769.9927,-55.5 769.9927,-73.5 872.1401,-73.5 872.1401,-55.5 769.9927,-55.5"/>
<text text-anchor="middle" x="821.0664" y="-61.5" font-family="Helvetica,sans-Serif" font-size="10.00" fill="#000000">ARX/AR/arConfig.h</text>
</a>
</g>
</g>
<!-- Node4&#45;&gt;Node10 -->
<g id="edge10" class="edge">
<title>Node4&#45;&gt;Node10</title>
<path fill="none" stroke="#191970" d="M680.8082,-110.4179C708.9802,-101.1949 752.7769,-86.8567 783.9286,-76.6582"/>
<polygon fill="#191970" stroke="#191970" points="785.148,-79.9419 793.5626,-73.5042 782.97,-73.2893 785.148,-79.9419"/>
</g>
<!-- Node11 -->
<g id="node12" class="node">
<title>Node11</title>
<g id="a_node12"><a xlink:href="log_8h.html" target="_top" xlink:title="Logging utilities. ">
<polygon fill="#ffffff" stroke="#000000" points="205.9976,-55.5 205.9976,-73.5 298.1353,-73.5 298.1353,-55.5 205.9976,-55.5"/>
<text text-anchor="middle" x="252.0664" y="-61.5" font-family="Helvetica,sans-Serif" font-size="10.00" fill="#000000">ARX/ARUtil/log.h</text>
</a>
</g>
</g>
<!-- Node4&#45;&gt;Node11 -->
<g id="edge11" class="edge">
<title>Node4&#45;&gt;Node11</title>
<path fill="none" stroke="#191970" d="M616.6896,-114.942C554.2958,-107.058 422.8802,-90.1633 312.0664,-74 310.8043,-73.8159 309.5275,-73.628 308.2403,-73.4371"/>
<polygon fill="#191970" stroke="#191970" points="308.6474,-69.959 298.2369,-71.9266 307.6022,-76.8805 308.6474,-69.959"/>
</g>
<!-- Node15 -->
<g id="node16" class="node">
<title>Node15</title>
<g id="a_node16"><a xlink:href="matrix_8h.html" target="_top" xlink:title="ARX/AR/matrix.h">
<polygon fill="#ffffff" stroke="#000000" points="890.2808,-55.5 890.2808,-73.5 981.8521,-73.5 981.8521,-55.5 890.2808,-55.5"/>
<text text-anchor="middle" x="936.0664" y="-61.5" font-family="Helvetica,sans-Serif" font-size="10.00" fill="#000000">ARX/AR/matrix.h</text>
</a>
</g>
</g>
<!-- Node4&#45;&gt;Node15 -->
<g id="edge18" class="edge">
<title>Node4&#45;&gt;Node15</title>
<path fill="none" stroke="#191970" d="M689.4843,-112.4223C737.7888,-103.0345 823.5223,-86.3725 880.0836,-75.38"/>
<polygon fill="#191970" stroke="#191970" points="880.7932,-78.8077 889.9418,-73.4641 879.4577,-71.9363 880.7932,-78.8077"/>
</g>
<!-- Node17 -->
<g id="node18" class="node">
<title>Node17</title>
<g id="a_node18"><a xlink:href="icp_8h.html" target="_top" xlink:title="ARX/AR/icp.h">
<polygon fill="#ffffff" stroke="#000000" points="430.5,-55.5 430.5,-73.5 507.6328,-73.5 507.6328,-55.5 430.5,-55.5"/>
<text text-anchor="middle" x="469.0664" y="-61.5" font-family="Helvetica,sans-Serif" font-size="10.00" fill="#000000">ARX/AR/icp.h</text>
</a>
</g>
</g>
<!-- Node4&#45;&gt;Node17 -->
<g id="edge20" class="edge">
<title>Node4&#45;&gt;Node17</title>
<path fill="none" stroke="#191970" d="M622.6825,-110.4179C591.5604,-101.115 543.0278,-86.608 508.8581,-76.3943"/>
<polygon fill="#191970" stroke="#191970" points="509.7731,-73.0148 499.1896,-73.5042 507.7683,-79.7216 509.7731,-73.0148"/>
</g>
<!-- Node19 -->
<g id="node20" class="node">
<title>Node19</title>
<g id="a_node20"><a xlink:href="param_8h.html" target="_top" xlink:title="artoolkitX functions for handling calibrated camera parameters. ">
<polygon fill="#ffffff" stroke="#000000" points="999.7192,-55.5 999.7192,-73.5 1092.4136,-73.5 1092.4136,-55.5 999.7192,-55.5"/>
<text text-anchor="middle" x="1046.0664" y="-61.5" font-family="Helvetica,sans-Serif" font-size="10.00" fill="#000000">ARX/AR/param.h</text>
</a>
</g>
</g>
<!-- Node4&#45;&gt;Node19 -->
<g id="edge23" class="edge">
<title>Node4&#45;&gt;Node19</title>
<path fill="none" stroke="#191970" d="M689.5014,-114.3283C750.3444,-106.3681 875.8465,-90.3172 982.0664,-74 984.5386,-73.6202 987.0715,-73.2204 989.6368,-72.8086"/>
<polygon fill="#191970" stroke="#191970" points="990.3276,-76.2422 999.633,-71.1766 989.1997,-69.3337 990.3276,-76.2422"/>
</g>
<!-- Node20 -->
<g id="node21" class="node">
<title>Node20</title>
<g id="a_node21"><a xlink:href="ar_image_proc_8h.html" target="_top" xlink:title="artoolkitX functions for 2D luminance image processing. ">
<polygon fill="#ffffff" stroke="#000000" points="592.2686,-55.5 592.2686,-73.5 713.8643,-73.5 713.8643,-55.5 592.2686,-55.5"/>
<text text-anchor="middle" x="653.0664" y="-61.5" font-family="Helvetica,sans-Serif" font-size="10.00" fill="#000000">ARX/AR/arImageProc.h</text>
</a>
</g>
</g>
<!-- Node4&#45;&gt;Node20 -->
<g id="edge25" class="edge">
<title>Node4&#45;&gt;Node20</title>
<path fill="none" stroke="#191970" d="M647.9001,-110.4179C646.4085,-103.2164 645.9706,-92.8962 646.5862,-83.8632"/>
<polygon fill="#191970" stroke="#191970" points="650.079,-84.1392 647.8596,-73.7795 643.1342,-83.2621 650.079,-84.1392"/>
</g>
<!-- Node11&#45;&gt;Node5 -->
<g id="edge12" class="edge">
<title>Node11&#45;&gt;Node5</title>
<path fill="none" stroke="#191970" d="M281.2944,-55.4179C313.0617,-45.5467 363.6861,-29.8159 396.6517,-19.5724"/>
<polygon fill="#191970" stroke="#191970" points="397.764,-22.8919 406.275,-16.5821 395.6868,-16.2072 397.764,-22.8919"/>
</g>
<!-- Node11&#45;&gt;Node6 -->
<g id="edge13" class="edge">
<title>Node11&#45;&gt;Node6</title>
<path fill="none" stroke="#191970" d="M259.6624,-55.4179C266.215,-47.5833 275.8547,-36.0575 283.8368,-26.5137"/>
<polygon fill="#191970" stroke="#191970" points="286.5746,-28.6957 290.3054,-18.7795 281.205,-24.2048 286.5746,-28.6957"/>
</g>
<!-- Node11&#45;&gt;Node8 -->
<g id="edge14" class="edge">
<title>Node11&#45;&gt;Node8</title>
<path fill="none" stroke="#191970" d="M270.5609,-55.4179C288.4756,-46.6205 315.8675,-33.1691 336.3808,-23.0956"/>
<polygon fill="#191970" stroke="#191970" points="338.1111,-26.1452 345.5444,-18.5956 335.0255,-19.8619 338.1111,-26.1452"/>
</g>
<!-- Node12 -->
<g id="node13" class="node">
<title>Node12</title>
<polygon fill="#ffffff" stroke="#bfbfbf" points="0,-.5 0,-18.5 52.1328,-18.5 52.1328,-.5 0,-.5"/>
<text text-anchor="middle" x="26.0664" y="-6.5" font-family="Helvetica,sans-Serif" font-size="10.00" fill="#000000">stdarg.h</text>
</g>
<!-- Node11&#45;&gt;Node12 -->
<g id="edge15" class="edge">
<title>Node11&#45;&gt;Node12</title>
<path fill="none" stroke="#191970" d="M212.4711,-55.4471C175.8971,-47.0004 119.8123,-33.8352 62.3919,-19.2851"/>
<polygon fill="#191970" stroke="#191970" points="62.9708,-15.8209 52.4165,-16.7466 61.2444,-22.6047 62.9708,-15.8209"/>
</g>
<!-- Node13 -->
<g id="node14" class="node">
<title>Node13</title>
<polygon fill="#ffffff" stroke="#bfbfbf" points="70.335,-.5 70.335,-18.5 135.7979,-18.5 135.7979,-.5 70.335,-.5"/>
<text text-anchor="middle" x="103.0664" y="-6.5" font-family="Helvetica,sans-Serif" font-size="10.00" fill="#000000">sys/errno.h</text>
</g>
<!-- Node11&#45;&gt;Node13 -->
<g id="edge16" class="edge">
<title>Node11&#45;&gt;Node13</title>
<path fill="none" stroke="#191970" d="M227.4621,-55.4179C202.8743,-46.3419 164.867,-32.3123 137.3332,-22.1488"/>
<polygon fill="#191970" stroke="#191970" points="138.3006,-18.7751 127.7073,-18.5956 135.8765,-25.342 138.3006,-18.7751"/>
</g>
<!-- Node14 -->
<g id="node15" class="node">
<title>Node14</title>
<g id="a_node15"><a xlink:href="types_8h.html" target="_top" xlink:title="ARX/ARUtil/types.h">
<polygon fill="#ffffff" stroke="#000000" points="153.7192,-.5 153.7192,-18.5 256.4136,-18.5 256.4136,-.5 153.7192,-.5"/>
<text text-anchor="middle" x="205.0664" y="-6.5" font-family="Helvetica,sans-Serif" font-size="10.00" fill="#000000">ARX/ARUtil/types.h</text>
</a>
</g>
</g>
<!-- Node11&#45;&gt;Node14 -->
<g id="edge17" class="edge">
<title>Node11&#45;&gt;Node14</title>
<path fill="none" stroke="#191970" d="M244.3053,-55.4179C237.6103,-47.5833 227.761,-36.0575 219.6054,-26.5137"/>
<polygon fill="#191970" stroke="#191970" points="222.1535,-24.108 212.9961,-18.7795 216.8319,-28.6556 222.1535,-24.108"/>
</g>
<!-- Node16 -->
<g id="node17" class="node">
<title>Node16</title>
<polygon fill="#ffffff" stroke="#bfbfbf" points="912.7808,-.5 912.7808,-18.5 959.3521,-18.5 959.3521,-.5 912.7808,-.5"/>
<text text-anchor="middle" x="936.0664" y="-6.5" font-family="Helvetica,sans-Serif" font-size="10.00" fill="#000000">math.h</text>
</g>
<!-- Node15&#45;&gt;Node16 -->
<g id="edge19" class="edge">
<title>Node15&#45;&gt;Node16</title>
<path fill="none" stroke="#191970" d="M936.0664,-55.4179C936.0664,-48.2164 936.0664,-37.8962 936.0664,-28.8632"/>
<polygon fill="#191970" stroke="#191970" points="939.5665,-28.7794 936.0664,-18.7795 932.5665,-28.7795 939.5665,-28.7794"/>
</g>
<!-- Node17&#45;&gt;Node5 -->
<g id="edge21" class="edge">
<title>Node17&#45;&gt;Node5</title>
<path fill="none" stroke="#191970" d="M462.4612,-55.4179C456.8784,-47.7415 448.7186,-36.5217 441.8624,-27.0945"/>
<polygon fill="#191970" stroke="#191970" points="444.5274,-24.8082 435.8151,-18.7795 438.8663,-28.9255 444.5274,-24.8082"/>
</g>
<!-- Node18 -->
<g id="node19" class="node">
<title>Node18</title>
<g id="a_node19"><a xlink:href="icp_core_8h.html" target="_top" xlink:title="ARX/AR/icpCore.h">
<polygon fill="#ffffff" stroke="#000000" points="469.6626,-.5 469.6626,-18.5 568.4702,-18.5 568.4702,-.5 469.6626,-.5"/>
<text text-anchor="middle" x="519.0664" y="-6.5" font-family="Helvetica,sans-Serif" font-size="10.00" fill="#000000">ARX/AR/icpCore.h</text>
</a>
</g>
</g>
<!-- Node17&#45;&gt;Node18 -->
<g id="edge22" class="edge">
<title>Node17&#45;&gt;Node18</title>
<path fill="none" stroke="#191970" d="M477.3229,-55.4179C484.5172,-47.5041 495.1352,-35.8243 503.8618,-26.2251"/>
<polygon fill="#191970" stroke="#191970" points="506.4936,-28.5332 510.6305,-18.7795 501.314,-23.8245 506.4936,-28.5332"/>
</g>
<!-- Node19&#45;&gt;Node4 -->
<g id="edge24" class="edge">
<title>Node19&#45;&gt;Node4</title>
<path fill="none" stroke="#191970" d="M1003.2565,-73.5042C1002.1845,-73.6727 1001.1199,-73.8382 1000.0664,-74 893.1298,-90.4273 766.65,-106.5847 699.7332,-114.4883"/>
<polygon fill="#191970" stroke="#191970" points="699.042,-111.0453 689.517,-115.6847 699.8563,-117.9978 699.042,-111.0453"/>
</g>
<!-- Node20&#45;&gt;Node4 -->
<g id="edge27" class="edge">
<title>Node20&#45;&gt;Node4</title>
<path fill="none" stroke="#191970" d="M658.2732,-73.7795C659.7456,-81.0373 660.1643,-91.3738 659.5296,-100.383"/>
<polygon fill="#191970" stroke="#191970" points="656.0434,-100.0517 658.2327,-110.4179 662.9856,-100.949 656.0434,-100.0517"/>
</g>
<!-- Node20&#45;&gt;Node9 -->
<g id="edge26" class="edge">
<title>Node20&#45;&gt;Node9</title>
<path fill="none" stroke="#191970" d="M660.4972,-55.4179C666.8426,-47.6624 676.1473,-36.29 683.909,-26.8035"/>
<polygon fill="#191970" stroke="#191970" points="686.8506,-28.7354 690.4741,-18.7795 681.4329,-24.3027 686.8506,-28.7354"/>
</g>
<!-- Node21&#45;&gt;Node4 -->
<g id="edge29" class="edge">
<title>Node21&#45;&gt;Node4</title>
<path fill="none" stroke="#191970" d="M614.6624,-165.4179C621.215,-157.5833 630.8547,-146.0575 638.8368,-136.5137"/>
<polygon fill="#191970" stroke="#191970" points="641.5746,-138.6957 645.3054,-128.7795 636.205,-134.2048 641.5746,-138.6957"/>
</g>
<!-- Node22&#45;&gt;Node4 -->
<g id="edge31" class="edge">
<title>Node22&#45;&gt;Node4</title>
<path fill="none" stroke="#191970" d="M758.2601,-165.4179C737.8325,-156.5011 706.4516,-142.803 683.2772,-132.6873"/>
<polygon fill="#191970" stroke="#191970" points="684.4688,-129.3885 673.9037,-128.5956 681.6684,-135.804 684.4688,-129.3885"/>
</g>
<!-- Node23 -->
<g id="node24" class="node">
<title>Node23</title>
<polygon fill="#ffffff" stroke="#bfbfbf" points="753.0098,-110.5 753.0098,-128.5 805.123,-128.5 805.123,-110.5 753.0098,-110.5"/>
<text text-anchor="middle" x="779.0664" y="-116.5" font-family="Helvetica,sans-Serif" font-size="10.00" fill="#000000">memory</text>
</g>
<!-- Node22&#45;&gt;Node23 -->
<g id="edge32" class="edge">
<title>Node22&#45;&gt;Node23</title>
<path fill="none" stroke="#191970" d="M779.0664,-165.4179C779.0664,-158.2164 779.0664,-147.8962 779.0664,-138.8632"/>
<polygon fill="#191970" stroke="#191970" points="782.5665,-138.7794 779.0664,-128.7795 775.5665,-138.7795 782.5665,-138.7794"/>
</g>
<!-- Node25&#45;&gt;Node3 -->
<g id="edge35" class="edge">
<title>Node25&#45;&gt;Node3</title>
<path fill="none" stroke="#191970" d="M829.919,-330.4982C808.9374,-311.8856 760.5382,-268.9508 734.1027,-245.4999"/>
<polygon fill="#191970" stroke="#191970" points="736.1575,-242.6441 726.3541,-238.6261 731.5122,-247.8806 736.1575,-242.6441"/>
</g>
<!-- Node26 -->
<g id="node27" class="node">
<title>Node26</title>
<g id="a_node27"><a xlink:href="ar_multi_8h.html" target="_top" xlink:title="ARX/AR/arMulti.h">
<polygon fill="#ffffff" stroke="#000000" points="799.8892,-275.5 799.8892,-293.5 894.2437,-293.5 894.2437,-275.5 799.8892,-275.5"/>
<text text-anchor="middle" x="847.0664" y="-281.5" font-family="Helvetica,sans-Serif" font-size="10.00" fill="#000000">ARX/AR/arMulti.h</text>
</a>
</g>
</g>
<!-- Node25&#45;&gt;Node26 -->
<g id="edge36" class="edge">
<title>Node25&#45;&gt;Node26</title>
<path fill="none" stroke="#191970" d="M841.2223,-330.4179C842.1389,-323.2164 843.4523,-312.8962 844.602,-303.8632"/>
<polygon fill="#191970" stroke="#191970" points="848.0947,-304.1414 845.8854,-293.7795 841.1508,-303.2575 848.0947,-304.1414"/>
</g>
<!-- Node26&#45;&gt;Node4 -->
<g id="edge37" class="edge">
<title>Node26&#45;&gt;Node4</title>
<path fill="none" stroke="#191970" d="M849.2962,-275.3719C854.0753,-253.3989 862.7513,-197.0178 835.0664,-165 817.6014,-144.8016 747.8448,-131.8114 699.9473,-125.0819"/>
<polygon fill="#191970" stroke="#191970" points="700.1664,-121.5796 689.7862,-123.7013 699.2239,-128.5158 700.1664,-121.5796"/>
</g>
<!-- Node28 -->
<g id="node29" class="node">
<title>Node28</title>
<g id="a_node29"><a xlink:href="_a_r_tracker_8h.html" target="_top" xlink:title="ARX/ARTracker.h">
<polygon fill="#ffffff" stroke="#000000" points="540.8794,-275.5 540.8794,-293.5 635.2534,-293.5 635.2534,-275.5 540.8794,-275.5"/>
<text text-anchor="middle" x="588.0664" y="-281.5" font-family="Helvetica,sans-Serif" font-size="10.00" fill="#000000">ARX/ARTracker.h</text>
</a>
</g>
</g>
<!-- Node27&#45;&gt;Node28 -->
<g id="edge39" class="edge">
<title>Node27&#45;&gt;Node28</title>
<path fill="none" stroke="#191970" d="M537.1393,-330.4179C546.0919,-322.3458 559.3902,-310.3556 570.1527,-300.6517"/>
<polygon fill="#191970" stroke="#191970" points="572.6915,-303.0753 577.7746,-293.7795 568.004,-297.8764 572.6915,-303.0753"/>
</g>
<!-- Node28&#45;&gt;Node3 -->
<g id="edge41" class="edge">
<title>Node28&#45;&gt;Node3</title>
<path fill="none" stroke="#191970" d="M609.203,-275.4179C630.0474,-266.4613 662.1187,-252.6806 685.6909,-242.552"/>
<polygon fill="#191970" stroke="#191970" points="687.0924,-245.7592 694.8984,-238.5956 684.3289,-239.3278 687.0924,-245.7592"/>
</g>
<!-- Node28&#45;&gt;Node24 -->
<g id="edge42" class="edge">
<title>Node28&#45;&gt;Node24</title>
<path fill="none" stroke="#191970" d="M597.9461,-275.204C610.5809,-262.1641 629.4312,-238.02 617.0664,-220 611.9018,-212.4733 563.6538,-195.5253 530.4755,-184.5722"/>
<polygon fill="#191970" stroke="#191970" points="531.3195,-181.1659 520.7269,-181.3825 529.1426,-187.8188 531.3195,-181.1659"/>
</g>
<!-- Node29 -->
<g id="node30" class="node">
<title>Node29</title>
<g id="a_node30"><a xlink:href="_platform_8h.html" target="_top" xlink:title="ARX/Platform.h">
<polygon fill="#ffffff" stroke="#000000" points="464.6108,-220.5 464.6108,-238.5 549.522,-238.5 549.522,-220.5 464.6108,-220.5"/>
<text text-anchor="middle" x="507.0664" y="-226.5" font-family="Helvetica,sans-Serif" font-size="10.00" fill="#000000">ARX/Platform.h</text>
</a>
</g>
</g>
<!-- Node28&#45;&gt;Node29 -->
<g id="edge40" class="edge">
<title>Node28&#45;&gt;Node29</title>
<path fill="none" stroke="#191970" d="M574.6909,-275.4179C562.2624,-266.9788 543.5267,-254.257 528.9255,-244.3426"/>
<polygon fill="#191970" stroke="#191970" points="530.701,-241.3176 520.4618,-238.5956 526.7687,-247.1088 530.701,-241.3176"/>
</g>
<!-- Node30 -->
<g id="node31" class="node">
<title>Node30</title>
<polygon fill="#ffffff" stroke="#bfbfbf" points="567.8398,-220.5 567.8398,-238.5 608.293,-238.5 608.293,-220.5 567.8398,-220.5"/>
<text text-anchor="middle" x="588.0664" y="-226.5" font-family="Helvetica,sans-Serif" font-size="10.00" fill="#000000">string</text>
</g>
<!-- Node28&#45;&gt;Node30 -->
<g id="edge43" class="edge">
<title>Node28&#45;&gt;Node30</title>
<path fill="none" stroke="#191970" d="M588.0664,-275.4179C588.0664,-268.2164 588.0664,-257.8962 588.0664,-248.8632"/>
<polygon fill="#191970" stroke="#191970" points="591.5665,-248.7794 588.0664,-238.7795 584.5665,-248.7795 591.5665,-248.7794"/>
</g>
</g>
</svg>
        <g id="navigator" transform="translate(0 0)" fill="#404254">
                <rect fill="#f2f5e9" fill-opacity="0.5" stroke="#606060" stroke-width=".5" x="0" y="0" width="60" height="60"/>
                <use id="zoomplus" xlink:href="#zoomPlus" x="17" y="9" onmousedown="handleZoom(evt,'in')"/>
                <use id="zoomminus" xlink:href="#zoomMin" x="42" y="9" onmousedown="handleZoom(evt,'out')"/>
                <use id="reset" xlink:href="#resetDef" x="30" y="36" onmousedown="handleReset()"/>
                <g id="arrowUp" xlink:href="#dirArrow" transform="translate(30 24)" onmousedown="handlePan(0,-1)">
                  <use xlink:href="#rim" fill="#404040">
                        <set attributeName="fill" to="#808080" begin="arrowUp.mouseover" end="arrowUp.mouseout"/>
                  </use>
                  <path fill="none" stroke="white" stroke-width="1.5" d="M0,-3.0v7 M-2.5,-0.5L0,-3.0L2.5,-0.5"/>
                </g>
                <g id="arrowRight" xlink:href="#dirArrow" transform="rotate(90) translate(36 -43)" onmousedown="handlePan(1,0)">
                  <use xlink:href="#rim" fill="#404040">
                        <set attributeName="fill" to="#808080" begin="arrowRight.mouseover" end="arrowRight.mouseout"/>
                  </use>
                  <path fill="none" stroke="white" stroke-width="1.5" d="M0,-3.0v7 M-2.5,-0.5L0,-3.0L2.5,-0.5"/>
                </g>
                <g id="arrowDown" xlink:href="#dirArrow" transform="rotate(180) translate(-30 -48)" onmousedown="handlePan(0,1)">
                  <use xlink:href="#rim" fill="#404040">
                        <set attributeName="fill" to="#808080" begin="arrowDown.mouseover" end="arrowDown.mouseout"/>
                  </use>
                  <path fill="none" stroke="white" stroke-width="1.5" d="M0,-3.0v7 M-2.5,-0.5L0,-3.0L2.5,-0.5"/>
                </g>
                <g id="arrowLeft" xlink:href="#dirArrow" transform="rotate(270) translate(-36 17)" onmousedown="handlePan(-1,0)">
                  <use xlink:href="#rim" fill="#404040">
                        <set attributeName="fill" to="#808080" begin="arrowLeft.mouseover" end="arrowLeft.mouseout"/>
                  </use>
                  <path fill="none" stroke="white" stroke-width="1.5" d="M0,-3.0v7 M-2.5,-0.5L0,-3.0L2.5,-0.5"/>
                </g>
        </g>
        <svg viewBox="0 0 15 15" width="100%" height="30px" preserveAspectRatio="xMaxYMin meet">
         <g id="arrow_out" transform="scale(0.3 0.3)">
          <a xlink:href="_a_r_tracker_square_8cpp__incl_org.svg" target="_base">
           <rect id="button" ry="5" rx="5" y="6" x="6" height="38" width="38"
                fill="#f2f5e9" fill-opacity="0.5" stroke="#606060" stroke-width="1.0"/>
           <path id="arrow"
             d="M 11.500037,31.436501 C 11.940474,20.09759 22.043105,11.32322 32.158766,21.979434 L 37.068811,17.246167 C 37.068811,17.246167 37.088388,32 37.088388,32 L 22.160133,31.978069 C 22.160133,31.978069 26.997745,27.140456 26.997745,27.140456 C 18.528582,18.264221 13.291696,25.230495 11.500037,31.436501 z"
             style="fill:#404040;"/>
          </a>
         </g>
        </svg>
</svg>
