<?xml version="1.0" encoding="UTF-8" standalone="no"?>
<!DOCTYPE svg PUBLIC "-//W3C//DTD SVG 1.1//EN"
 "http://www.w3.org/Graphics/SVG/1.1/DTD/svg11.dtd">
<!-- Generated by graphviz version 2.40.1 (20161225.0304)
 -->
<!-- Title: /Users/phil/r/artoolkitx/Source/ARX/include/ARX/ARX_c.h Pages: 1 -->
<svg width="140pt" height="112pt"
 viewBox="0.00 0.00 139.61 112.00" xmlns="http://www.w3.org/2000/svg" xmlns:xlink="http://www.w3.org/1999/xlink">
<g id="graph0" class="graph" transform="scale(1 1) rotate(0) translate(4 108)">
<title>/Users/phil/r/artoolkitx/Source/ARX/include/ARX/ARX_c.h</title>
<polygon fill="#ffffff" stroke="transparent" points="-4,4 -4,-108 135.6104,-108 135.6104,4 -4,4"/>
<!-- Node4 -->
<g id="node1" class="node">
<title>Node4</title>
<polygon fill="#bfbfbf" stroke="#000000" points="0,-65.5 0,-103.5 131.6104,-103.5 131.6104,-65.5 0,-65.5"/>
<text text-anchor="start" x="8" y="-91.5" font-family="Helvetica,sans-Serif" font-size="10.00" fill="#000000">/Users/phil/r/artoolkitx</text>
<text text-anchor="start" x="8" y="-81.5" font-family="Helvetica,sans-Serif" font-size="10.00" fill="#000000">/Source/ARX/include/ARX</text>
<text text-anchor="middle" x="65.8052" y="-71.5" font-family="Helvetica,sans-Serif" font-size="10.00" fill="#000000">/ARX_c.h</text>
</g>
<!-- Node5 -->
<g id="node2" class="node">
<title>Node5</title>
<g id="a_node2"><a xlink:href="_a_r_x__c_8cpp.html" target="_top" xlink:title="/Users/phil/r/artoolkitx\l/Source/ARX/ARX_c.cpp">
<polygon fill="#ffffff" stroke="#000000" points="2.5024,-.5 2.5024,-28.5 129.1079,-28.5 129.1079,-.5 2.5024,-.5"/>
<text text-anchor="start" x="10.5024" y="-16.5" font-family="Helvetica,sans-Serif" font-size="10.00" fill="#000000">/Users/phil/r/artoolkitx</text>
<text text-anchor="middle" x="65.8052" y="-6.5" font-family="Helvetica,sans-Serif" font-size="10.00" fill="#000000">/Source/ARX/ARX_c.cpp</text>
</a>
</g>
</g>
<!-- Node4&#45;&gt;Node5 -->
<g id="edge1" class="edge">
<title>Node4&#45;&gt;Node5</title>
<path fill="none" stroke="#191970" d="M65.8052,-55.1346C65.8052,-46.0837 65.8052,-36.5165 65.8052,-28.9404"/>
<polygon fill="#191970" stroke="#191970" points="62.3053,-55.3722 65.8052,-65.3722 69.3053,-55.3722 62.3053,-55.3722"/>
</g>
</g>
</svg>
