<?xml version="1.0" encoding="UTF-8" standalone="no"?>
<!DOCTYPE svg PUBLIC "-//W3C//DTD SVG 1.1//EN"
 "http://www.w3.org/Graphics/SVG/1.1/DTD/svg11.dtd">
<!-- Generated by graphviz version 2.40.1 (20161225.0304)
 -->
<!-- Title: Source/ARX/include/ARX/ARTracker.h Pages: 1 -->
<svg width="1176pt" height="297pt"
 viewBox="0.00 0.00 1175.61 297.00" xmlns="http://www.w3.org/2000/svg" xmlns:xlink="http://www.w3.org/1999/xlink">
<g id="graph0" class="graph" transform="scale(1 1) rotate(0) translate(4 293)">
<title>Source/ARX/include/ARX/ARTracker.h</title>
<polygon fill="#ffffff" stroke="transparent" points="-4,4 -4,-293 1171.6128,-293 1171.6128,4 -4,4"/>
<!-- Node25 -->
<g id="node1" class="node">
<title>Node25</title>
<polygon fill="#bfbfbf" stroke="#000000" points="360.9531,-260.5 360.9531,-288.5 466.4453,-288.5 466.4453,-260.5 360.9531,-260.5"/>
<text text-anchor="start" x="368.9531" y="-276.5" font-family="Helvetica,sans-Serif" font-size="10.00" fill="#000000">Source/ARX/include</text>
<text text-anchor="middle" x="413.6992" y="-266.5" font-family="Helvetica,sans-Serif" font-size="10.00" fill="#000000">/ARX/ARTracker.h</text>
</g>
<!-- Node26 -->
<g id="node2" class="node">
<title>Node26</title>
<g id="a_node2"><a xlink:href="_a_r_tracker_8cpp.html" target="_top" xlink:title="Source/ARX/ARTracker.cpp">
<polygon fill="#ffffff" stroke="#000000" points="270,-200.5 270,-218.5 409.3984,-218.5 409.3984,-200.5 270,-200.5"/>
<text text-anchor="middle" x="339.6992" y="-206.5" font-family="Helvetica,sans-Serif" font-size="10.00" fill="#000000">Source/ARX/ARTracker.cpp</text>
</a>
</g>
</g>
<!-- Node25&#45;&gt;Node26 -->
<g id="edge1" class="edge">
<title>Node25&#45;&gt;Node26</title>
<path fill="none" stroke="#191970" d="M390.081,-253.7543C376.5893,-241.9034 360.354,-227.6427 350.03,-218.5743"/>
<polygon fill="#191970" stroke="#191970" points="387.8193,-256.4261 397.6423,-260.396 392.4389,-251.1669 387.8193,-256.4261"/>
</g>
<!-- Node27 -->
<g id="node3" class="node">
<title>Node27</title>
<g id="a_node3"><a xlink:href="_a_r_tracker_video_8h.html" target="_top" xlink:title="Source/ARX/include\l/ARX/ARTrackerVideo.h">
<polygon fill="#ffffff" stroke="#000000" points="427.1494,-195.5 427.1494,-223.5 550.249,-223.5 550.249,-195.5 427.1494,-195.5"/>
<text text-anchor="start" x="435.1494" y="-211.5" font-family="Helvetica,sans-Serif" font-size="10.00" fill="#000000">Source/ARX/include</text>
<text text-anchor="middle" x="488.6992" y="-201.5" font-family="Helvetica,sans-Serif" font-size="10.00" fill="#000000">/ARX/ARTrackerVideo.h</text>
</a>
</g>
</g>
<!-- Node25&#45;&gt;Node27 -->
<g id="edge2" class="edge">
<title>Node25&#45;&gt;Node27</title>
<path fill="none" stroke="#191970" d="M437.8172,-253.5978C449.1418,-243.7831 462.3406,-232.3442 472.4571,-223.5765"/>
<polygon fill="#191970" stroke="#191970" points="435.2377,-251.2017 429.9731,-260.396 439.8223,-256.4915 435.2377,-251.2017"/>
</g>
<!-- Node28 -->
<g id="node4" class="node">
<title>Node28</title>
<g id="a_node4"><a xlink:href="_a_r_tracker_square_8h.html" target="_top" xlink:title="Source/ARX/include\l/ARX/ARTrackerSquare.h">
<polygon fill="#ffffff" stroke="#000000" points="423.7266,-130.5 423.7266,-158.5 553.6719,-158.5 553.6719,-130.5 423.7266,-130.5"/>
<text text-anchor="start" x="431.7266" y="-146.5" font-family="Helvetica,sans-Serif" font-size="10.00" fill="#000000">Source/ARX/include</text>
<text text-anchor="middle" x="488.6992" y="-136.5" font-family="Helvetica,sans-Serif" font-size="10.00" fill="#000000">/ARX/ARTrackerSquare.h</text>
</a>
</g>
</g>
<!-- Node27&#45;&gt;Node28 -->
<g id="edge3" class="edge">
<title>Node27&#45;&gt;Node28</title>
<path fill="none" stroke="#191970" d="M488.6992,-185.1081C488.6992,-176.1539 488.6992,-166.3227 488.6992,-158.5765"/>
<polygon fill="#191970" stroke="#191970" points="485.1993,-185.3959 488.6992,-195.396 492.1993,-185.396 485.1993,-185.3959"/>
</g>
<!-- Node29 -->
<g id="node5" class="node">
<title>Node29</title>
<g id="a_node5"><a xlink:href="_a_r_tracker_square_8cpp.html" target="_top" xlink:title="Source/ARX/ARTrackerSquare.cpp">
<polygon fill="#ffffff" stroke="#000000" points="323.6035,-70.5 323.6035,-88.5 495.7949,-88.5 495.7949,-70.5 323.6035,-70.5"/>
<text text-anchor="middle" x="409.6992" y="-76.5" font-family="Helvetica,sans-Serif" font-size="10.00" fill="#000000">Source/ARX/ARTrackerSquare.cpp</text>
</a>
</g>
</g>
<!-- Node28&#45;&gt;Node29 -->
<g id="edge4" class="edge">
<title>Node28&#45;&gt;Node29</title>
<path fill="none" stroke="#191970" d="M463.4852,-123.7543C449.0818,-111.9034 431.7496,-97.6427 420.728,-88.5743"/>
<polygon fill="#191970" stroke="#191970" points="461.6115,-126.745 471.5574,-130.396 466.059,-121.3395 461.6115,-126.745"/>
</g>
<!-- Node30 -->
<g id="node6" class="node">
<title>Node30</title>
<g id="a_node6"><a xlink:href="_a_r_controller_8h.html" target="_top" xlink:title="Source/ARX/include\l/ARX/ARController.h">
<polygon fill="#ffffff" stroke="#000000" points="514.123,-65.5 514.123,-93.5 621.2754,-93.5 621.2754,-65.5 514.123,-65.5"/>
<text text-anchor="start" x="522.123" y="-81.5" font-family="Helvetica,sans-Serif" font-size="10.00" fill="#000000">Source/ARX/include</text>
<text text-anchor="middle" x="567.6992" y="-71.5" font-family="Helvetica,sans-Serif" font-size="10.00" fill="#000000">/ARX/ARController.h</text>
</a>
</g>
</g>
<!-- Node28&#45;&gt;Node30 -->
<g id="edge5" class="edge">
<title>Node28&#45;&gt;Node30</title>
<path fill="none" stroke="#191970" d="M513.7566,-123.8832C525.7619,-114.0054 539.8313,-102.4293 550.5908,-93.5765"/>
<polygon fill="#191970" stroke="#191970" points="511.3394,-121.3395 505.841,-130.396 515.787,-126.745 511.3394,-121.3395"/>
</g>
<!-- Node31 -->
<g id="node7" class="node">
<title>Node31</title>
<g id="a_node7"><a xlink:href="_a_r_controller_8cpp.html" target="_top" xlink:title="Source/ARX/ARController.cpp">
<polygon fill="#ffffff" stroke="#000000" points="0,-5.5 0,-23.5 149.3984,-23.5 149.3984,-5.5 0,-5.5"/>
<text text-anchor="middle" x="74.6992" y="-11.5" font-family="Helvetica,sans-Serif" font-size="10.00" fill="#000000">Source/ARX/ARController.cpp</text>
</a>
</g>
</g>
<!-- Node30&#45;&gt;Node31 -->
<g id="edge6" class="edge">
<title>Node30&#45;&gt;Node31</title>
<path fill="none" stroke="#191970" d="M503.577,-64.9535C350.4044,-40.0521 308.5617,-49.707 158.6992,-29 147.4112,-27.4403 135.3142,-25.5071 123.9161,-23.5661"/>
<polygon fill="#191970" stroke="#191970" points="503.3932,-68.4704 513.8295,-66.6443 504.5324,-61.5637 503.3932,-68.4704"/>
</g>
<!-- Node32 -->
<g id="node8" class="node">
<title>Node32</title>
<g id="a_node8"><a xlink:href="_a_r_pattern_8cpp.html" target="_top" xlink:title="Source/ARX/ARPattern.cpp">
<polygon fill="#ffffff" stroke="#000000" points="167.2808,-5.5 167.2808,-23.5 306.1177,-23.5 306.1177,-5.5 167.2808,-5.5"/>
<text text-anchor="middle" x="236.6992" y="-11.5" font-family="Helvetica,sans-Serif" font-size="10.00" fill="#000000">Source/ARX/ARPattern.cpp</text>
</a>
</g>
</g>
<!-- Node30&#45;&gt;Node32 -->
<g id="edge7" class="edge">
<title>Node30&#45;&gt;Node32</title>
<path fill="none" stroke="#191970" d="M504.192,-64.9876C462.1057,-56.5665 350.2297,-35.653 285.0601,-23.5041"/>
<polygon fill="#191970" stroke="#191970" points="503.617,-68.4423 514.115,-67.0138 505.0175,-61.5838 503.617,-68.4423"/>
</g>
<!-- Node33 -->
<g id="node9" class="node">
<title>Node33</title>
<g id="a_node9"><a xlink:href="_a_r_trackable_8cpp.html" target="_top" xlink:title="Source/ARX/ARTrackable.cpp">
<polygon fill="#ffffff" stroke="#000000" points="323.7192,-5.5 323.7192,-23.5 473.6792,-23.5 473.6792,-5.5 323.7192,-5.5"/>
<text text-anchor="middle" x="398.6992" y="-11.5" font-family="Helvetica,sans-Serif" font-size="10.00" fill="#000000">Source/ARX/ARTrackable.cpp</text>
</a>
</g>
</g>
<!-- Node30&#45;&gt;Node33 -->
<g id="edge8" class="edge">
<title>Node30&#45;&gt;Node33</title>
<path fill="none" stroke="#191970" d="M521.3907,-61.689C489.281,-49.3391 447.8535,-33.4055 422.2924,-23.5743"/>
<polygon fill="#191970" stroke="#191970" points="520.4388,-65.0728 531.0287,-65.396 522.9517,-58.5394 520.4388,-65.0728"/>
</g>
<!-- Node34 -->
<g id="node10" class="node">
<title>Node34</title>
<g id="a_node10"><a xlink:href="_a_r_trackable_multi_square_8cpp.html" target="_top" xlink:title="Source/ARX/ARTrackableMulti\lSquare.cpp">
<polygon fill="#ffffff" stroke="#000000" points="491.6133,-.5 491.6133,-28.5 643.7852,-28.5 643.7852,-.5 491.6133,-.5"/>
<text text-anchor="start" x="499.6133" y="-16.5" font-family="Helvetica,sans-Serif" font-size="10.00" fill="#000000">Source/ARX/ARTrackableMulti</text>
<text text-anchor="middle" x="567.6992" y="-6.5" font-family="Helvetica,sans-Serif" font-size="10.00" fill="#000000">Square.cpp</text>
</a>
</g>
</g>
<!-- Node30&#45;&gt;Node34 -->
<g id="edge9" class="edge">
<title>Node30&#45;&gt;Node34</title>
<path fill="none" stroke="#191970" d="M567.6992,-55.1081C567.6992,-46.1539 567.6992,-36.3227 567.6992,-28.5765"/>
<polygon fill="#191970" stroke="#191970" points="564.1993,-55.3959 567.6992,-65.396 571.1993,-55.396 564.1993,-55.3959"/>
</g>
<!-- Node35 -->
<g id="node11" class="node">
<title>Node35</title>
<g id="a_node11"><a xlink:href="_a_r_trackable_square_8cpp.html" target="_top" xlink:title="Source/ARX/ARTrackableSquare.cpp">
<polygon fill="#ffffff" stroke="#000000" points="661.5962,-5.5 661.5962,-23.5 843.8022,-23.5 843.8022,-5.5 661.5962,-5.5"/>
<text text-anchor="middle" x="752.6992" y="-11.5" font-family="Helvetica,sans-Serif" font-size="10.00" fill="#000000">Source/ARX/ARTrackableSquare.cpp</text>
</a>
</g>
</g>
<!-- Node30&#45;&gt;Node35 -->
<g id="edge10" class="edge">
<title>Node30&#45;&gt;Node35</title>
<path fill="none" stroke="#191970" d="M617.4852,-62.0076C652.7585,-49.6143 698.65,-33.4903 726.8723,-23.5743"/>
<polygon fill="#191970" stroke="#191970" points="616.1158,-58.7789 607.8415,-65.396 618.4363,-65.3832 616.1158,-58.7789"/>
</g>
<!-- Node36 -->
<g id="node12" class="node">
<title>Node36</title>
<g id="a_node12"><a xlink:href="_a_r_video_source_8cpp.html" target="_top" xlink:title="Source/ARX/ARVideoSource.cpp">
<polygon fill="#ffffff" stroke="#000000" points="861.9468,-5.5 861.9468,-23.5 1025.4517,-23.5 1025.4517,-5.5 861.9468,-5.5"/>
<text text-anchor="middle" x="943.6992" y="-11.5" font-family="Helvetica,sans-Serif" font-size="10.00" fill="#000000">Source/ARX/ARVideoSource.cpp</text>
</a>
</g>
</g>
<!-- Node30&#45;&gt;Node36 -->
<g id="edge11" class="edge">
<title>Node30&#45;&gt;Node36</title>
<path fill="none" stroke="#191970" d="M631.5934,-68.4545C704.8297,-55.7939 823.4815,-35.2823 891.4412,-23.534"/>
<polygon fill="#191970" stroke="#191970" points="630.8285,-65.0347 621.5709,-70.1871 632.0209,-71.9324 630.8285,-65.0347"/>
</g>
<!-- Node37 -->
<g id="node13" class="node">
<title>Node37</title>
<g id="a_node13"><a xlink:href="_a_r_x__c_8cpp.html" target="_top" xlink:title="Source/ARX/ARX_c.cpp">
<polygon fill="#ffffff" stroke="#000000" points="1043.7856,-5.5 1043.7856,-23.5 1167.6128,-23.5 1167.6128,-5.5 1043.7856,-5.5"/>
<text text-anchor="middle" x="1105.6992" y="-11.5" font-family="Helvetica,sans-Serif" font-size="10.00" fill="#000000">Source/ARX/ARX_c.cpp</text>
</a>
</g>
</g>
<!-- Node30&#45;&gt;Node37 -->
<g id="edge12" class="edge">
<title>Node30&#45;&gt;Node37</title>
<path fill="none" stroke="#191970" d="M631.558,-74.5036C721.7253,-67.0156 891.3583,-51.3368 1034.6992,-29 1044.5195,-27.4697 1055.0402,-25.503 1064.8938,-23.5151"/>
<polygon fill="#191970" stroke="#191970" points="631.1719,-71.0235 621.4931,-75.3328 631.7467,-77.9998 631.1719,-71.0235"/>
</g>
</g>
</svg>
