<?xml version="1.0" encoding="UTF-8" standalone="no"?>
<!DOCTYPE svg PUBLIC "-//W3C//DTD SVG 1.1//EN"
 "http://www.w3.org/Graphics/SVG/1.1/DTD/svg11.dtd">
<!-- Generated by graphviz version 8.0.5 (20230430.1635)
 -->
<!-- Title: arwChangeToResourcesDir Pages: 1 -->
<svg width="749pt" height="64pt"
 viewBox="0.00 0.00 748.50 64.25" xmlns="http://www.w3.org/2000/svg" xmlns:xlink="http://www.w3.org/1999/xlink">
<g id="graph0" class="graph" transform="scale(1 1) rotate(0) translate(4 60.25)">
<title>arwChangeToResourcesDir</title>
<!-- Node1 -->
<g id="node1" class="node">
<title>Node1</title>
<g id="a_node1"><a xlink:title="Changes the working directory to the resources directory used by artoolkitX.">
<polygon fill="#999999" stroke="#666666" points="136,-37.25 0,-37.25 0,-18 136,-18 136,-37.25"/>
<text text-anchor="middle" x="68" y="-23.75" font-family="Helvetica,sans-Serif" font-size="10.00">arwChangeToResourcesDir</text>
</a>
</g>
</g>
<!-- Node2 -->
<g id="node2" class="node">
<title>Node2</title>
<g id="a_node2"><a xlink:href="ar_util_8c.html#acd9f679696c2c26b378e434f6d78ae7d" target="_top" xlink:title="Change to the resources directory using the specified behavior.">
<polygon fill="white" stroke="#666666" points="342.5,-37.25 172,-37.25 172,-18 342.5,-18 342.5,-37.25"/>
<text text-anchor="middle" x="257.25" y="-23.75" font-family="Helvetica,sans-Serif" font-size="10.00">arUtilChangeToResourcesDirectory</text>
</a>
</g>
</g>
<!-- Node1&#45;&gt;Node2 -->
<g id="edge1" class="edge">
<title>Node1&#45;&gt;Node2</title>
<path fill="none" stroke="#63b8ff" d="M136.34,-27.62C144.28,-27.62 152.5,-27.62 160.75,-27.62"/>
<polygon fill="#63b8ff" stroke="#63b8ff" points="160.57,-31.13 170.57,-27.62 160.57,-24.13 160.57,-31.13"/>
</g>
<!-- Node3 -->
<g id="node3" class="node">
<title>Node3</title>
<g id="a_node3"><a xlink:href="ar_util_8c.html#a69fc2402cb882ae30aedafabd1227ba9" target="_top" xlink:title="Get the path to the resources directory using the specified behavior.">
<polygon fill="white" stroke="#666666" points="540.75,-37.25 378.5,-37.25 378.5,-18 540.75,-18 540.75,-37.25"/>
<text text-anchor="middle" x="459.62" y="-23.75" font-family="Helvetica,sans-Serif" font-size="10.00">arUtilGetResourcesDirectoryPath</text>
</a>
</g>
</g>
<!-- Node2&#45;&gt;Node3 -->
<g id="edge2" class="edge">
<title>Node2&#45;&gt;Node3</title>
<path fill="none" stroke="#63b8ff" d="M342.94,-27.62C350.94,-27.62 359.08,-27.62 367.14,-27.62"/>
<polygon fill="#63b8ff" stroke="#63b8ff" points="367.07,-31.13 377.07,-27.62 367.07,-24.13 367.07,-31.13"/>
</g>
<!-- Node3&#45;&gt;Node3 -->
<g id="edge5" class="edge">
<title>Node3&#45;&gt;Node3</title>
<path fill="none" stroke="#63b8ff" d="M428.47,-37.54C414.26,-46.15 424.64,-55.25 459.62,-55.25 481.49,-55.25 493.74,-51.69 496.39,-46.92"/>
<polygon fill="#63b8ff" stroke="#63b8ff" points="498.91,-45.33 490.78,-38.54 492.91,-48.92 498.91,-45.33"/>
</g>
<!-- Node4 -->
<g id="node4" class="node">
<title>Node4</title>
<g id="a_node4"><a xlink:href="ar_util_8c.html#aadb50b241c9234d1a23317a1767a39be" target="_top" xlink:title=" ">
<polygon fill="white" stroke="#666666" points="740.5,-56.25 576.75,-56.25 576.75,-37 740.5,-37 740.5,-56.25"/>
<text text-anchor="middle" x="658.62" y="-42.75" font-family="Helvetica,sans-Serif" font-size="10.00">arUtilGetDirectoryNameFromPath</text>
</a>
</g>
</g>
<!-- Node3&#45;&gt;Node4 -->
<g id="edge3" class="edge">
<title>Node3&#45;&gt;Node4</title>
<path fill="none" stroke="#63b8ff" d="M541.04,-35.38C549.17,-36.17 557.48,-36.97 565.73,-37.76"/>
<polygon fill="#63b8ff" stroke="#63b8ff" points="565.22,-41.33 575.51,-38.8 565.89,-34.36 565.22,-41.33"/>
</g>
<!-- Node5 -->
<g id="node5" class="node">
<title>Node5</title>
<g id="a_node5"><a xlink:href="ar_util_8c.html#aa7a1c158a0f94ad212ef011fd7909815" target="_top" xlink:title=" ">
<polygon fill="white" stroke="#666666" points="728.5,-19.25 588.75,-19.25 588.75,0 728.5,0 728.5,-19.25"/>
<text text-anchor="middle" x="658.62" y="-5.75" font-family="Helvetica,sans-Serif" font-size="10.00">arUtilGetFileNameFromPath</text>
</a>
</g>
</g>
<!-- Node3&#45;&gt;Node5 -->
<g id="edge4" class="edge">
<title>Node3&#45;&gt;Node5</title>
<path fill="none" stroke="#63b8ff" d="M541.04,-20.28C553.09,-19.18 565.52,-18.04 577.57,-16.94"/>
<polygon fill="#63b8ff" stroke="#63b8ff" points="577.87,-20.34 587.51,-15.94 577.23,-13.36 577.87,-20.34"/>
</g>
</g>
</svg>
