<?xml version="1.0" encoding="UTF-8" standalone="no"?>
<!DOCTYPE svg PUBLIC "-//W3C//DTD SVG 1.1//EN"
 "http://www.w3.org/Graphics/SVG/1.1/DTD/svg11.dtd">
<!-- Generated by graphviz version 7.0.5 (20221223.1930)
 -->
<!-- Title: arwSetTrackableOptionBool Pages: 1 -->
<svg width="637pt" height="82pt"
 viewBox="0.00 0.00 637.00 82.00" xmlns="http://www.w3.org/2000/svg" xmlns:xlink="http://www.w3.org/1999/xlink">
<g id="graph0" class="graph" transform="scale(1 1) rotate(0) translate(4 78)">
<title>arwSetTrackableOptionBool</title>
<!-- Node1 -->
<g id="node1" class="node">
<title>Node1</title>
<g id="a_node1"><a xlink:title="Set boolean options associated with a trackable.">
<polygon fill="#999999" stroke="#666666" points="138,-55 0,-55 0,-36 138,-36 138,-55"/>
<text text-anchor="middle" x="69" y="-43" font-family="Helvetica,sans-Serif" font-size="10.00">arwSetTrackableOptionBool</text>
</a>
</g>
</g>
<!-- Node2 -->
<g id="node2" class="node">
<title>Node2</title>
<g id="a_node2"><a xlink:href="class_a_r_controller.html#a4eafe05e50bdb9e788ad836f4c2104f1" target="_top" xlink:title="Searches the collection of trackables for the given ID.">
<polygon fill="white" stroke="#666666" points="311,-74 174,-74 174,-55 311,-55 311,-74"/>
<text text-anchor="middle" x="242.5" y="-62" font-family="Helvetica,sans-Serif" font-size="10.00">ARController::findTrackable</text>
</a>
</g>
</g>
<!-- Node1&#45;&gt;Node2 -->
<g id="edge1" class="edge">
<title>Node1&#45;&gt;Node2</title>
<path fill="none" stroke="#63b8ff" d="M138.27,-53.06C146.21,-53.94 154.36,-54.85 162.42,-55.74"/>
<polygon fill="#63b8ff" stroke="#63b8ff" points="161.91,-59.2 172.24,-56.83 162.68,-52.25 161.91,-59.2"/>
</g>
<!-- Node3 -->
<g id="node3" class="node">
<title>Node3</title>
<g id="a_node3"><a xlink:href="class_a_r_trackable.html#a28ba769c267933335c7000c2aac66a74" target="_top" xlink:title=" ">
<polygon fill="white" stroke="#666666" points="305,-37 180,-37 180,-18 305,-18 305,-37"/>
<text text-anchor="middle" x="242.5" y="-25" font-family="Helvetica,sans-Serif" font-size="10.00">ARTrackable::setFiltered</text>
</a>
</g>
</g>
<!-- Node1&#45;&gt;Node3 -->
<g id="edge2" class="edge">
<title>Node1&#45;&gt;Node3</title>
<path fill="none" stroke="#63b8ff" d="M138.27,-38.33C148.18,-37.29 158.42,-36.22 168.42,-35.17"/>
<polygon fill="#63b8ff" stroke="#63b8ff" points="168.49,-38.68 178.07,-34.16 167.76,-31.72 168.49,-38.68"/>
</g>
<!-- Node4 -->
<g id="node4" class="node">
<title>Node4</title>
<g id="a_node4"><a xlink:href="ar_filter_trans_mat_8c.html#a52813489717ce82b433e44adfd3bc3dd" target="_top" xlink:title="Finalise a filter.">
<polygon fill="white" stroke="#666666" points="456,-56 347,-56 347,-37 456,-37 456,-56"/>
<text text-anchor="middle" x="401.5" y="-44" font-family="Helvetica,sans-Serif" font-size="10.00">arFilterTransMatFinal</text>
</a>
</g>
</g>
<!-- Node3&#45;&gt;Node4 -->
<g id="edge3" class="edge">
<title>Node3&#45;&gt;Node4</title>
<path fill="none" stroke="#63b8ff" d="M305.1,-34.95C315.09,-36.16 325.46,-37.42 335.52,-38.64"/>
<polygon fill="#63b8ff" stroke="#63b8ff" points="334.87,-42.08 345.21,-39.81 335.71,-35.13 334.87,-42.08"/>
</g>
<!-- Node5 -->
<g id="node5" class="node">
<title>Node5</title>
<g id="a_node5"><a xlink:href="ar_filter_trans_mat_8c.html#a9c87432e371ffb1716e4ee6712a5c0ba" target="_top" xlink:title="Initialise a filter for a single transformation matrix (pose estimate).">
<polygon fill="white" stroke="#666666" points="452,-19 351,-19 351,0 452,0 452,-19"/>
<text text-anchor="middle" x="401.5" y="-7" font-family="Helvetica,sans-Serif" font-size="10.00">arFilterTransMatInit</text>
</a>
</g>
</g>
<!-- Node3&#45;&gt;Node5 -->
<g id="edge4" class="edge">
<title>Node3&#45;&gt;Node5</title>
<path fill="none" stroke="#63b8ff" d="M305.1,-20.44C316.44,-19.14 328.27,-17.78 339.59,-16.48"/>
<polygon fill="#63b8ff" stroke="#63b8ff" points="339.66,-20 349.2,-15.38 338.87,-13.04 339.66,-20"/>
</g>
<!-- Node6 -->
<g id="node6" class="node">
<title>Node6</title>
<g id="a_node6"><a xlink:href="ar_filter_trans_mat_8c.html#ae82377e0d7286e5808b319a38c13c02c" target="_top" xlink:title="Set the filter parameters.">
<polygon fill="white" stroke="#666666" points="629,-19 492,-19 492,0 629,0 629,-19"/>
<text text-anchor="middle" x="560.5" y="-7" font-family="Helvetica,sans-Serif" font-size="10.00">arFilterTransMatSetParams</text>
</a>
</g>
</g>
<!-- Node5&#45;&gt;Node6 -->
<g id="edge5" class="edge">
<title>Node5&#45;&gt;Node6</title>
<path fill="none" stroke="#63b8ff" d="M452.18,-9.5C461.22,-9.5 470.85,-9.5 480.49,-9.5"/>
<polygon fill="#63b8ff" stroke="#63b8ff" points="480.27,-13 490.27,-9.5 480.27,-6 480.27,-13"/>
</g>
</g>
</svg>
