<?xml version="1.0" encoding="UTF-8" standalone="no"?>
<!DOCTYPE svg PUBLIC "-//W3C//DTD SVG 1.1//EN"
 "http://www.w3.org/Graphics/SVG/1.1/DTD/svg11.dtd">
<!-- Generated by graphviz version 8.0.5 (20230430.1635)
 -->
<!-- Title: arwGetProjectionMatrix Pages: 1 -->
<svg width="783pt" height="150pt"
 viewBox="0.00 0.00 782.50 150.25" xmlns="http://www.w3.org/2000/svg" xmlns:xlink="http://www.w3.org/1999/xlink">
<g id="graph0" class="graph" transform="scale(1 1) rotate(0) translate(4 146.25)">
<title>arwGetProjectionMatrix</title>
<!-- Node1 -->
<g id="node1" class="node">
<title>Node1</title>
<g id="a_node1"><a xlink:title="Populates the given float array with the projection matrix computed from camera parameters for the vi...">
<polygon fill="#999999" stroke="#666666" points="118,-77.25 0,-77.25 0,-58 118,-58 118,-77.25"/>
<text text-anchor="middle" x="59" y="-63.75" font-family="Helvetica,sans-Serif" font-size="10.00">arwGetProjectionMatrix</text>
</a>
</g>
</g>
<!-- Node2 -->
<g id="node2" class="node">
<title>Node2</title>
<g id="a_node2"><a xlink:href="_a_r_x__c_8cpp.html#a39a39009ef474635d36a20680d675b04" target="_top" xlink:title="Populates the given float arrays with the projection matrices computed from camera parameters for eac...">
<polygon fill="white" stroke="#666666" points="300.5,-77.25 154,-77.25 154,-58 300.5,-58 300.5,-77.25"/>
<text text-anchor="middle" x="227.25" y="-63.75" font-family="Helvetica,sans-Serif" font-size="10.00">arwGetProjectionMatrixStereo</text>
</a>
</g>
</g>
<!-- Node1&#45;&gt;Node2 -->
<g id="edge1" class="edge">
<title>Node1&#45;&gt;Node2</title>
<path fill="none" stroke="#63b8ff" d="M118.15,-67.62C126.09,-67.62 134.37,-67.62 142.65,-67.62"/>
<polygon fill="#63b8ff" stroke="#63b8ff" points="142.52,-71.13 152.52,-67.62 142.52,-64.13 142.52,-71.13"/>
</g>
<!-- Node3 -->
<g id="node3" class="node">
<title>Node3</title>
<g id="a_node3"><a xlink:href="class_a_r_controller.html#abcb66342e96bdac04ea895cc85e03ac3" target="_top" xlink:title="Populates the provided array with the ARToolKit projection matrix.">
<polygon fill="white" stroke="#666666" points="456.75,-82.88 336.5,-82.88 336.5,-52.38 456.75,-52.38 456.75,-82.88"/>
<text text-anchor="start" x="344.5" y="-69.38" font-family="Helvetica,sans-Serif" font-size="10.00">ARController::projection</text>
<text text-anchor="middle" x="396.62" y="-58.12" font-family="Helvetica,sans-Serif" font-size="10.00">Matrix</text>
</a>
</g>
</g>
<!-- Node2&#45;&gt;Node3 -->
<g id="edge2" class="edge">
<title>Node2&#45;&gt;Node3</title>
<path fill="none" stroke="#63b8ff" d="M300.69,-67.62C308.83,-67.62 317.11,-67.62 325.23,-67.62"/>
<polygon fill="#63b8ff" stroke="#63b8ff" points="325.15,-71.13 335.15,-67.62 325.15,-64.13 325.15,-71.13"/>
</g>
<!-- Node4 -->
<g id="node4" class="node">
<title>Node4</title>
<g id="a_node4"><a xlink:href="param_g_l_8c.html#a47cc5a7056c5638682a07acee44df9f4" target="_top" xlink:title="Create an OpenGL perspective projection matrix.">
<polygon fill="white" stroke="#666666" points="621.25,-142.25 504,-142.25 504,-123 621.25,-123 621.25,-142.25"/>
<text text-anchor="middle" x="562.62" y="-128.75" font-family="Helvetica,sans-Serif" font-size="10.00">arglCameraFrustumRH</text>
</a>
</g>
</g>
<!-- Node3&#45;&gt;Node4 -->
<g id="edge3" class="edge">
<title>Node3&#45;&gt;Node4</title>
<path fill="none" stroke="#63b8ff" d="M426.59,-83.33C445.13,-92.95 469.91,-105.03 492.75,-113.62 498.26,-115.7 504.1,-117.66 509.96,-119.47"/>
<polygon fill="#63b8ff" stroke="#63b8ff" points="508.86,-123.09 519.44,-122.58 510.85,-116.38 508.86,-123.09"/>
</g>
<!-- Node6 -->
<g id="node6" class="node">
<title>Node6</title>
<g id="a_node6"><a xlink:href="class_a_r_video_source.html#a5feeb630d5706513ba1d48ba7dcd2c31" target="_top" xlink:title="Returns the camera parameters for the video source.">
<polygon fill="white" stroke="#666666" points="632.5,-104.88 492.75,-104.88 492.75,-74.38 632.5,-74.38 632.5,-104.88"/>
<text text-anchor="start" x="500.75" y="-91.38" font-family="Helvetica,sans-Serif" font-size="10.00">ARVideoSource::getCamera</text>
<text text-anchor="middle" x="562.62" y="-80.12" font-family="Helvetica,sans-Serif" font-size="10.00">Parameters</text>
</a>
</g>
</g>
<!-- Node3&#45;&gt;Node6 -->
<g id="edge5" class="edge">
<title>Node3&#45;&gt;Node6</title>
<path fill="none" stroke="#63b8ff" d="M456.83,-75.57C464.96,-76.66 473.41,-77.79 481.84,-78.92"/>
<polygon fill="#63b8ff" stroke="#63b8ff" points="481.08,-82.49 491.46,-80.35 482.01,-75.55 481.08,-82.49"/>
</g>
<!-- Node7 -->
<g id="node7" class="node">
<title>Node7</title>
<g id="a_node7"><a xlink:href="class_a_r_video_source.html#a1e884eb3148cf3f996be7e7a0e79b546" target="_top" xlink:title="Returns true if the video source is open.">
<polygon fill="white" stroke="#666666" points="623.88,-56.25 501.38,-56.25 501.38,-37 623.88,-37 623.88,-56.25"/>
<text text-anchor="middle" x="562.62" y="-42.75" font-family="Helvetica,sans-Serif" font-size="10.00">ARVideoSource::isOpen</text>
</a>
</g>
</g>
<!-- Node3&#45;&gt;Node7 -->
<g id="edge6" class="edge">
<title>Node3&#45;&gt;Node7</title>
<path fill="none" stroke="#63b8ff" d="M456.83,-60.04C467.75,-58.65 479.25,-57.17 490.48,-55.74"/>
<polygon fill="#63b8ff" stroke="#63b8ff" points="490.65,-59.11 500.13,-54.37 489.76,-52.17 490.65,-59.11"/>
</g>
<!-- Node8 -->
<g id="node8" class="node">
<title>Node8</title>
<g id="a_node8"><a xlink:href="class_a_r_video_source.html#adcdfb6d6fcf844c7578bec2b3f978108" target="_top" xlink:title="Returns true if the video source is open and ready to be queried.">
<polygon fill="white" stroke="#666666" points="630.25,-19.25 495,-19.25 495,0 630.25,0 630.25,-19.25"/>
<text text-anchor="middle" x="562.62" y="-5.75" font-family="Helvetica,sans-Serif" font-size="10.00">ARVideoSource::isRunning</text>
</a>
</g>
</g>
<!-- Node3&#45;&gt;Node8 -->
<g id="edge7" class="edge">
<title>Node3&#45;&gt;Node8</title>
<path fill="none" stroke="#63b8ff" d="M431.51,-51.99C449.48,-44.06 472.05,-34.64 492.75,-27.62 497.89,-25.88 503.28,-24.21 508.7,-22.63"/>
<polygon fill="#63b8ff" stroke="#63b8ff" points="509.4,-25.79 518.09,-19.73 507.52,-19.05 509.4,-25.79"/>
</g>
<!-- Node5 -->
<g id="node5" class="node">
<title>Node5</title>
<g id="a_node5"><a xlink:href="param_decomp_8c.html#af8d8284f4489d90d4408f7514866dca1" target="_top" xlink:title=" ">
<polygon fill="white" stroke="#666666" points="774.5,-142.25 668.5,-142.25 668.5,-123 774.5,-123 774.5,-142.25"/>
<text text-anchor="middle" x="721.5" y="-128.75" font-family="Helvetica,sans-Serif" font-size="10.00">arParamDecompMat</text>
</a>
</g>
</g>
<!-- Node4&#45;&gt;Node5 -->
<g id="edge4" class="edge">
<title>Node4&#45;&gt;Node5</title>
<path fill="none" stroke="#63b8ff" d="M621.59,-132.62C633.29,-132.62 645.63,-132.62 657.49,-132.62"/>
<polygon fill="#63b8ff" stroke="#63b8ff" points="657.21,-136.13 667.21,-132.62 657.21,-129.13 657.21,-136.13"/>
</g>
</g>
</svg>
