<?xml version="1.0" encoding="UTF-8" standalone="no"?>
<!DOCTYPE svg PUBLIC "-//W3C//DTD SVG 1.1//EN"
 "http://www.w3.org/Graphics/SVG/1.1/DTD/svg11.dtd">
<!-- Generated by graphviz version 7.0.5 (20221223.1930)
 -->
<!-- Title: arwStartRunningB Pages: 1 -->
<!--zoomable 397 -->
<svg id="main" version="1.1" xmlns="http://www.w3.org/2000/svg" xmlns:xlink="http://www.w3.org/1999/xlink" xml:space="preserve" onload="init(evt)">
<style type="text/css"><![CDATA[
.edge:hover path { stroke: red; }
.edge:hover polygon { stroke: red; fill: red; }
]]></style>
<script type="text/javascript"><![CDATA[
var edges = document.getElementsByTagName('g');
if (edges && edges.length) {
  for (var i=0;i<edges.length;i++) {
    if (edges[i].id.substr(0,4)=='edge') {
      edges[i].setAttribute('class','edge');
    }
  }
}
]]></script>
        <defs>
                <circle id="rim" cx="0" cy="0" r="7"/>
                <circle id="rim2" cx="0" cy="0" r="3.5"/>
                <g id="zoomPlus">
                        <use xlink:href="#rim" fill="#404040">
                                <set attributeName="fill" to="#808080" begin="zoomplus.mouseover" end="zoomplus.mouseout"/>
                        </use>
                        <path d="M-4,0h8M0,-4v8" fill="none" stroke="white" stroke-width="1.5" pointer-events="none"/>
                </g>
                <g id="zoomMin">
                        <use xlink:href="#rim" fill="#404040">
                                <set attributeName="fill" to="#808080" begin="zoomminus.mouseover" end="zoomminus.mouseout"/>
                        </use>
                        <path d="M-4,0h8" fill="none" stroke="white" stroke-width="1.5" pointer-events="none"/>
                </g>
                <g id="dirArrow">
                        <path fill="none" stroke="white" stroke-width="1.5" d="M0,-3.0v7 M-2.5,-0.5L0,-3.0L2.5,-0.5"/>
                </g>
               <g id="resetDef">
                       <use xlink:href="#rim2" fill="#404040">
                               <set attributeName="fill" to="#808080" begin="reset.mouseover" end="reset.mouseout"/>
                       </use>
               </g>
        </defs>

<script type="text/javascript">
var viewWidth = 786;
var viewHeight = 397;
var sectionId = 'dynsection-39';
</script>
<script xlink:href="svgpan.js"/>
<svg id="graph" class="graph">
<g id="viewport">
<title>arwStartRunningB</title>
<!-- Node1 -->
<g id="node1" class="node">
<title>Node1</title>
<g id="a_node1"><a xlink:title="Initialises and starts video capture.">
<polygon fill="#999999" stroke="#666666" points="96,-167 0,-167 0,-148 96,-148 96,-167"/>
<text text-anchor="middle" x="48" y="-155" font-family="Helvetica,sans-Serif" font-size="10.00">arwStartRunningB</text>
</a>
</g>
</g>
<!-- Node2 -->
<g id="node2" class="node">
<title>Node2</title>
<g id="a_node2"><a xlink:href="class_a_r_controller.html#a418d8aaf7e0561d1ccfffc7d35a840cf" target="_top" xlink:title="Start video capture and tracking.">
<polygon fill="white" stroke="#666666" points="266,-167 132,-167 132,-148 266,-148 266,-167"/>
<text text-anchor="middle" x="199" y="-155" font-family="Helvetica,sans-Serif" font-size="10.00">ARController::startRunning</text>
</a>
</g>
</g>
<!-- Node1&#45;&gt;Node2 -->
<g id="edge1" class="edge">
<title>Node1&#45;&gt;Node2</title>
<path fill="none" stroke="#63b8ff" d="M96.14,-157.5C103.88,-157.5 112.08,-157.5 120.32,-157.5"/>
<polygon fill="#63b8ff" stroke="#63b8ff" points="120.05,-161 130.05,-157.5 120.05,-154 120.05,-161"/>
</g>
<!-- Node3 -->
<g id="node3" class="node">
<title>Node3</title>
<g id="a_node3"><a xlink:href="class_a_r_video_source.html#aa385c7136b3d45c6efaa6604bf0a6d9a" target="_top" xlink:title="Sets initial parameters which will be used when the video source is opened.">
<polygon fill="white" stroke="#666666" points="434,-204 302,-204 302,-185 434,-185 434,-204"/>
<text text-anchor="middle" x="368" y="-192" font-family="Helvetica,sans-Serif" font-size="10.00">ARVideoSource::configure</text>
</a>
</g>
</g>
<!-- Node2&#45;&gt;Node3 -->
<g id="edge2" class="edge">
<title>Node2&#45;&gt;Node3</title>
<path fill="none" stroke="#63b8ff" d="M244.75,-167.42C265.16,-171.94 289.53,-177.34 311.12,-182.12"/>
<polygon fill="#63b8ff" stroke="#63b8ff" points="310.13,-185.48 320.65,-184.23 311.64,-178.65 310.13,-185.48"/>
</g>
<!-- Node4 -->
<g id="node4" class="node">
<title>Node4</title>
<g id="a_node4"><a xlink:href="class_a_r_video_source.html#a1d4e4cebdf413918427c39aa99a197cc" target="_top" xlink:title=" ">
<polygon fill="white" stroke="#666666" points="431.5,-167 304.5,-167 304.5,-148 431.5,-148 431.5,-167"/>
<text text-anchor="middle" x="368" y="-155" font-family="Helvetica,sans-Serif" font-size="10.00">ARVideoSource::getError</text>
</a>
</g>
</g>
<!-- Node2&#45;&gt;Node4 -->
<g id="edge3" class="edge">
<title>Node2&#45;&gt;Node4</title>
<path fill="none" stroke="#63b8ff" d="M266.48,-157.5C275.08,-157.5 283.94,-157.5 292.65,-157.5"/>
<polygon fill="#63b8ff" stroke="#63b8ff" points="292.49,-161 302.49,-157.5 292.49,-154 292.49,-161"/>
</g>
<!-- Node5 -->
<g id="node5" class="node">
<title>Node5</title>
<g id="a_node5"><a xlink:href="class_a_r_video_source.html#ad6e81f0a07ddf8e844dfb867bc94de4b" target="_top" xlink:title="Opens the video source.">
<polygon fill="white" stroke="#666666" points="424.5,-130 311.5,-130 311.5,-111 424.5,-111 424.5,-130"/>
<text text-anchor="middle" x="368" y="-118" font-family="Helvetica,sans-Serif" font-size="10.00">ARVideoSource::open</text>
</a>
</g>
</g>
<!-- Node2&#45;&gt;Node5 -->
<g id="edge4" class="edge">
<title>Node2&#45;&gt;Node5</title>
<path fill="none" stroke="#63b8ff" d="M244.75,-147.58C265.16,-143.06 289.53,-137.66 311.12,-132.88"/>
<polygon fill="#63b8ff" stroke="#63b8ff" points="311.64,-136.35 320.65,-130.77 310.13,-129.52 311.64,-136.35"/>
</g>
<!-- Node6 -->
<g id="node6" class="node">
<title>Node6</title>
<g id="a_node6"><a xlink:href="video2_8c.html#aef591a0c1b52999872fa5a89f7b2e4e9" target="_top" xlink:title="Open a video input module and return control object.">
<polygon fill="white" stroke="#666666" points="562,-222 484,-222 484,-203 562,-203 562,-222"/>
<text text-anchor="middle" x="523" y="-210" font-family="Helvetica,sans-Serif" font-size="10.00">ar2VideoOpen</text>
</a>
</g>
</g>
<!-- Node5&#45;&gt;Node6 -->
<g id="edge5" class="edge">
<title>Node5&#45;&gt;Node6</title>
<path fill="none" stroke="#63b8ff" d="M412.29,-130.46C419.74,-132.92 427.25,-135.91 434,-139.5 461.76,-154.25 488.86,-178.7 505.48,-195.19"/>
<polygon fill="#63b8ff" stroke="#63b8ff" points="502.6,-197.25 512.11,-201.92 507.59,-192.34 502.6,-197.25"/>
</g>
<!-- Node16 -->
<g id="node16" class="node">
<title>Node16</title>
<g id="a_node16"><a xlink:href="video2_8c.html#a3827b2271419905797e3326a91255794" target="_top" xlink:title="Open a video input module, and return control object, invoking a callback once opening is complete.">
<polygon fill="white" stroke="#666666" points="576,-56 470,-56 470,-37 576,-37 576,-56"/>
<text text-anchor="middle" x="523" y="-44" font-family="Helvetica,sans-Serif" font-size="10.00">ar2VideoOpenAsync</text>
</a>
</g>
</g>
<!-- Node5&#45;&gt;Node16 -->
<g id="edge15" class="edge">
<title>Node5&#45;&gt;Node16</title>
<path fill="none" stroke="#63b8ff" d="M389.63,-110.52C415.9,-97.82 461.49,-75.77 491.7,-61.15"/>
<polygon fill="#63b8ff" stroke="#63b8ff" points="492.85,-64.49 500.33,-56.98 489.8,-58.18 492.85,-64.49"/>
</g>
<!-- Node7 -->
<g id="node7" class="node">
<title>Node7</title>
<g id="a_node7"><a xlink:href="video1394_8h.html#a5e135a088763d0bbeb2d95f8c92704b1" target="_top" xlink:title=" ">
<polygon fill="white" stroke="#666666" points="744.5,-389 645.5,-389 645.5,-370 744.5,-370 744.5,-389"/>
<text text-anchor="middle" x="695" y="-377" font-family="Helvetica,sans-Serif" font-size="10.00">ar2VideoOpen1394</text>
</a>
</g>
</g>
<!-- Node6&#45;&gt;Node7 -->
<g id="edge6" class="edge">
<title>Node6&#45;&gt;Node7</title>
<path fill="none" stroke="#63b8ff" d="M526.78,-222.39C534.93,-249.39 561.39,-324.85 612,-361.5 618.66,-366.32 626.36,-369.89 634.32,-372.52"/>
<polygon fill="#63b8ff" stroke="#63b8ff" points="633.24,-375.86 643.81,-375.17 635.11,-369.11 633.24,-375.86"/>
</g>
<!-- Node8 -->
<g id="node8" class="node">
<title>Node8</title>
<g id="a_node8"><a xlink:href="video_a_v_foundation_8h.html#aefeea555e04e4d04eb17b4adea17013d" target="_top" xlink:title=" ">
<polygon fill="white" stroke="#666666" points="764,-352 626,-352 626,-333 764,-333 764,-352"/>
<text text-anchor="middle" x="695" y="-340" font-family="Helvetica,sans-Serif" font-size="10.00">ar2VideoOpenAVFoundation</text>
</a>
</g>
</g>
<!-- Node6&#45;&gt;Node8 -->
<g id="edge7" class="edge">
<title>Node6&#45;&gt;Node8</title>
<path fill="none" stroke="#63b8ff" d="M528.78,-222.46C539.96,-244.64 570.11,-298.21 612,-324.5 614.03,-325.77 616.13,-326.95 618.29,-328.05"/>
<polygon fill="#63b8ff" stroke="#63b8ff" points="616.81,-331.23 627.38,-332.01 619.61,-324.81 616.81,-331.23"/>
</g>
<!-- Node9 -->
<g id="node9" class="node">
<title>Node9</title>
<g id="a_node9"><a xlink:href="video_dummy_8h.html#a72835c795b3b4f9ec13d7c3bfe482476" target="_top" xlink:title=" ">
<polygon fill="white" stroke="#666666" points="751.5,-315 638.5,-315 638.5,-296 751.5,-296 751.5,-315"/>
<text text-anchor="middle" x="695" y="-303" font-family="Helvetica,sans-Serif" font-size="10.00">ar2VideoOpenDummy</text>
</a>
</g>
</g>
<!-- Node6&#45;&gt;Node9 -->
<g id="edge8" class="edge">
<title>Node6&#45;&gt;Node9</title>
<path fill="none" stroke="#63b8ff" d="M532.41,-222.27C546.92,-238.48 578.38,-270.8 612,-287.5 616.81,-289.89 621.92,-291.96 627.17,-293.76"/>
<polygon fill="#63b8ff" stroke="#63b8ff" points="626.01,-297.06 636.6,-296.64 628.05,-290.37 626.01,-297.06"/>
</g>
<!-- Node10 -->
<g id="node10" class="node">
<title>Node10</title>
<g id="a_node10"><a xlink:href="video_emscripten_8h.html#a29074bdca28d3b80a8e89895087646b5" target="_top" xlink:title=" ">
<polygon fill="white" stroke="#666666" points="759,-278 631,-278 631,-259 759,-259 759,-278"/>
<text text-anchor="middle" x="695" y="-266" font-family="Helvetica,sans-Serif" font-size="10.00">ar2VideoOpenEmscripten</text>
</a>
</g>
</g>
<!-- Node6&#45;&gt;Node10 -->
<g id="edge9" class="edge">
<title>Node6&#45;&gt;Node10</title>
<path fill="none" stroke="#63b8ff" d="M543.85,-222.38C561.42,-230.8 587.93,-242.74 612,-250.5 618.04,-252.45 624.4,-254.25 630.8,-255.91"/>
<polygon fill="#63b8ff" stroke="#63b8ff" points="629.53,-259.2 640.08,-258.19 631.2,-252.41 629.53,-259.2"/>
</g>
<!-- Node11 -->
<g id="node11" class="node">
<title>Node11</title>
<g id="a_node11"><a xlink:href="video_g_streamer_8h.html#a39ad73e9efc5e41fb011b58ec8262958" target="_top" xlink:title=" ">
<polygon fill="white" stroke="#666666" points="757.5,-241 632.5,-241 632.5,-222 757.5,-222 757.5,-241"/>
<text text-anchor="middle" x="695" y="-229" font-family="Helvetica,sans-Serif" font-size="10.00">ar2VideoOpenGStreamer</text>
</a>
</g>
</g>
<!-- Node6&#45;&gt;Node11 -->
<g id="edge10" class="edge">
<title>Node6&#45;&gt;Node11</title>
<path fill="none" stroke="#63b8ff" d="M562.15,-216.76C579.5,-218.7 600.63,-221.06 620.85,-223.32"/>
<polygon fill="#63b8ff" stroke="#63b8ff" points="620.46,-226.8 630.78,-224.43 621.24,-219.85 620.46,-226.8"/>
</g>
<!-- Node12 -->
<g id="node12" class="node">
<title>Node12</title>
<g id="a_node12"><a xlink:href="video_image_8h.html#a73390fddad6f8e51c827515ba754986b" target="_top" xlink:title=" ">
<polygon fill="white" stroke="#666666" points="747.5,-204 642.5,-204 642.5,-185 747.5,-185 747.5,-204"/>
<text text-anchor="middle" x="695" y="-192" font-family="Helvetica,sans-Serif" font-size="10.00">ar2VideoOpenImage</text>
</a>
</g>
</g>
<!-- Node6&#45;&gt;Node12 -->
<g id="edge11" class="edge">
<title>Node6&#45;&gt;Node12</title>
<path fill="none" stroke="#63b8ff" d="M562.15,-208.46C582.33,-206.32 607.64,-203.64 630.67,-201.21"/>
<polygon fill="#63b8ff" stroke="#63b8ff" points="631.04,-204.69 640.61,-200.15 630.3,-197.73 631.04,-204.69"/>
</g>
<!-- Node13 -->
<g id="node13" class="node">
<title>Node13</title>
<g id="a_node13"><a xlink:href="video_v4_l2_8h.html#abfb2b883b0d8a1b97aece447925d9fbb" target="_top" xlink:title=" ">
<polygon fill="white" stroke="#666666" points="745.5,-167 644.5,-167 644.5,-148 745.5,-148 745.5,-167"/>
<text text-anchor="middle" x="695" y="-155" font-family="Helvetica,sans-Serif" font-size="10.00">ar2VideoOpenV4L2</text>
</a>
</g>
</g>
<!-- Node6&#45;&gt;Node13 -->
<g id="edge12" class="edge">
<title>Node6&#45;&gt;Node13</title>
<path fill="none" stroke="#63b8ff" d="M545.34,-202.64C562.95,-194.78 588.72,-183.91 612,-176.5 619.11,-174.24 626.65,-172.12 634.16,-170.18"/>
<polygon fill="#63b8ff" stroke="#63b8ff" points="634.75,-173.64 643.62,-167.84 633.07,-166.85 634.75,-173.64"/>
</g>
<!-- Node14 -->
<g id="node14" class="node">
<title>Node14</title>
<g id="a_node14"><a xlink:href="video_windows_media_capture_8h.html#a61863b436e12e617a68415854ef8873a" target="_top" xlink:title=" ">
<polygon fill="white" stroke="#666666" points="750.5,-130 639.5,-130 639.5,-111 750.5,-111 750.5,-130"/>
<text text-anchor="middle" x="695" y="-118" font-family="Helvetica,sans-Serif" font-size="10.00">ar2VideoOpenWinMC</text>
</a>
</g>
</g>
<!-- Node6&#45;&gt;Node14 -->
<g id="edge13" class="edge">
<title>Node6&#45;&gt;Node14</title>
<path fill="none" stroke="#63b8ff" d="M532.96,-202.53C547.79,-186.67 579.1,-155.81 612,-139.5 617.19,-136.93 622.73,-134.7 628.4,-132.77"/>
<polygon fill="#63b8ff" stroke="#63b8ff" points="629.4,-136.12 637.94,-129.85 627.35,-129.43 629.4,-136.12"/>
</g>
<!-- Node15 -->
<g id="node15" class="node">
<title>Node15</title>
<g id="a_node15"><a xlink:href="video_windows_media_foundation_8h.html#a0fd1e3b5895e22598a81e24f86820168" target="_top" xlink:title=" ">
<polygon fill="white" stroke="#666666" points="750,-93 640,-93 640,-74 750,-74 750,-93"/>
<text text-anchor="middle" x="695" y="-81" font-family="Helvetica,sans-Serif" font-size="10.00">ar2VideoOpenWinMF</text>
</a>
</g>
</g>
<!-- Node6&#45;&gt;Node15 -->
<g id="edge14" class="edge">
<title>Node6&#45;&gt;Node15</title>
<path fill="none" stroke="#63b8ff" d="M528.85,-202.75C540.18,-181.04 570.61,-128.56 612,-102.5 617.26,-99.19 623.03,-96.46 629,-94.2"/>
<polygon fill="#63b8ff" stroke="#63b8ff" points="630.04,-97.54 638.45,-91.1 627.86,-90.89 630.04,-97.54"/>
</g>
<!-- Node17 -->
<g id="node17" class="node">
<title>Node17</title>
<g id="a_node17"><a xlink:href="video_android_8h.html#a1d6e964f2d94fca2f61cd36f1bcaf8a5" target="_top" xlink:title=" ">
<polygon fill="white" stroke="#666666" points="764.5,-56 625.5,-56 625.5,-37 764.5,-37 764.5,-56"/>
<text text-anchor="middle" x="695" y="-44" font-family="Helvetica,sans-Serif" font-size="10.00">ar2VideoOpenAsyncAndroid</text>
</a>
</g>
</g>
<!-- Node16&#45;&gt;Node17 -->
<g id="edge16" class="edge">
<title>Node16&#45;&gt;Node17</title>
<path fill="none" stroke="#63b8ff" d="M576.39,-46.5C588.31,-46.5 601.25,-46.5 614.02,-46.5"/>
<polygon fill="#63b8ff" stroke="#63b8ff" points="613.67,-50 623.67,-46.5 613.67,-43 613.67,-50"/>
</g>
<!-- Node18 -->
<g id="node18" class="node">
<title>Node18</title>
<g id="a_node18"><a xlink:href="video_a_v_foundation_8h.html#adb1121aa31efbd7a52a0a09f1c287064" target="_top" xlink:title=" ">
<polygon fill="white" stroke="#666666" points="778,-19 612,-19 612,0 778,0 778,-19"/>
<text text-anchor="middle" x="695" y="-7" font-family="Helvetica,sans-Serif" font-size="10.00">ar2VideoOpenAsyncAVFoundation</text>
</a>
</g>
</g>
<!-- Node16&#45;&gt;Node18 -->
<g id="edge17" class="edge">
<title>Node16&#45;&gt;Node18</title>
<path fill="none" stroke="#63b8ff" d="M569.56,-36.58C590.33,-32.06 615.14,-26.66 637.12,-21.88"/>
<polygon fill="#63b8ff" stroke="#63b8ff" points="637.81,-25.31 646.84,-19.76 636.32,-18.47 637.81,-25.31"/>
</g>
</g>
</svg>
        <g id="navigator" transform="translate(0 0)" fill="#404254">
                <rect fill="#f2f5e9" fill-opacity="0.5" stroke="#606060" stroke-width=".5" x="0" y="0" width="60" height="60"/>
                <use id="zoomplus" xlink:href="#zoomPlus" x="17" y="9" onmousedown="handleZoom(evt,'in')"/>
                <use id="zoomminus" xlink:href="#zoomMin" x="42" y="9" onmousedown="handleZoom(evt,'out')"/>
                <use id="reset" xlink:href="#resetDef" x="30" y="36" onmousedown="handleReset()"/>
                <g id="arrowUp" xlink:href="#dirArrow" transform="translate(30 24)" onmousedown="handlePan(0,-1)">
                  <use xlink:href="#rim" fill="#404040">
                        <set attributeName="fill" to="#808080" begin="arrowUp.mouseover" end="arrowUp.mouseout"/>
                  </use>
                  <path fill="none" stroke="white" stroke-width="1.5" d="M0,-3.0v7 M-2.5,-0.5L0,-3.0L2.5,-0.5"/>
                </g>
                <g id="arrowRight" xlink:href="#dirArrow" transform="rotate(90) translate(36 -43)" onmousedown="handlePan(1,0)">
                  <use xlink:href="#rim" fill="#404040">
                        <set attributeName="fill" to="#808080" begin="arrowRight.mouseover" end="arrowRight.mouseout"/>
                  </use>
                  <path fill="none" stroke="white" stroke-width="1.5" d="M0,-3.0v7 M-2.5,-0.5L0,-3.0L2.5,-0.5"/>
                </g>
                <g id="arrowDown" xlink:href="#dirArrow" transform="rotate(180) translate(-30 -48)" onmousedown="handlePan(0,1)">
                  <use xlink:href="#rim" fill="#404040">
                        <set attributeName="fill" to="#808080" begin="arrowDown.mouseover" end="arrowDown.mouseout"/>
                  </use>
                  <path fill="none" stroke="white" stroke-width="1.5" d="M0,-3.0v7 M-2.5,-0.5L0,-3.0L2.5,-0.5"/>
                </g>
                <g id="arrowLeft" xlink:href="#dirArrow" transform="rotate(270) translate(-36 17)" onmousedown="handlePan(-1,0)">
                  <use xlink:href="#rim" fill="#404040">
                        <set attributeName="fill" to="#808080" begin="arrowLeft.mouseover" end="arrowLeft.mouseout"/>
                  </use>
                  <path fill="none" stroke="white" stroke-width="1.5" d="M0,-3.0v7 M-2.5,-0.5L0,-3.0L2.5,-0.5"/>
                </g>
        </g>
        <svg viewBox="0 0 15 15" width="100%" height="30px" preserveAspectRatio="xMaxYMin meet">
         <g id="arrow_out" transform="scale(0.3 0.3)">
          <a xlink:href="_a_r_x__c_8h_ac5c3f237a3a91563c4c5e173e29472d6_cgraph_org.svg" target="_base">
           <rect id="button" ry="5" rx="5" y="6" x="6" height="38" width="38"
                fill="#f2f5e9" fill-opacity="0.5" stroke="#606060" stroke-width="1.0"/>
           <path id="arrow"
             d="M 11.500037,31.436501 C 11.940474,20.09759 22.043105,11.32322 32.158766,21.979434 L 37.068811,17.246167 C 37.068811,17.246167 37.088388,32 37.088388,32 L 22.160133,31.978069 C 22.160133,31.978069 26.997745,27.140456 26.997745,27.140456 C 18.528582,18.264221 13.291696,25.230495 11.500037,31.436501 z"
             style="fill:#404040;"/>
          </a>
         </g>
        </svg>
</svg>
