<?xml version="1.0" encoding="UTF-8" standalone="no"?>
<!DOCTYPE svg PUBLIC "-//W3C//DTD SVG 1.1//EN"
 "http://www.w3.org/Graphics/SVG/1.1/DTD/svg11.dtd">
<!-- Generated by graphviz version 8.0.5 (20230430.1635)
 -->
<!-- Title: arwGetProjectionMatrixForViewportSizeAndFittingMode Pages: 1 -->
<svg width="946pt" height="199pt"
 viewBox="0.00 0.00 946.00 199.25" xmlns="http://www.w3.org/2000/svg" xmlns:xlink="http://www.w3.org/1999/xlink">
<g id="graph0" class="graph" transform="scale(1 1) rotate(0) translate(4 195.25)">
<title>arwGetProjectionMatrixForViewportSizeAndFittingMode</title>
<!-- Node1 -->
<g id="node1" class="node">
<title>Node1</title>
<g id="a_node1"><a xlink:title=" ">
<polygon fill="#999999" stroke="#666666" points="142,-98.88 0,-98.88 0,-68.38 142,-68.38 142,-98.88"/>
<text text-anchor="start" x="8" y="-85.38" font-family="Helvetica,sans-Serif" font-size="10.00">arwGetProjectionMatrixFor</text>
<text text-anchor="middle" x="71" y="-74.12" font-family="Helvetica,sans-Serif" font-size="10.00">ViewportSizeAndFittingMode</text>
</a>
</g>
</g>
<!-- Node2 -->
<g id="node2" class="node">
<title>Node2</title>
<g id="a_node2"><a xlink:href="_a_r_x__c_8cpp.html#a4eb7de681c749e413dcf3c6aa9999974" target="_top" xlink:title=" ">
<polygon fill="white" stroke="#666666" points="348.5,-98.88 178,-98.88 178,-68.38 348.5,-68.38 348.5,-98.88"/>
<text text-anchor="start" x="186" y="-85.38" font-family="Helvetica,sans-Serif" font-size="10.00">arwGetProjectionMatrixFor</text>
<text text-anchor="middle" x="263.25" y="-74.12" font-family="Helvetica,sans-Serif" font-size="10.00">ViewportSizeAndFittingModeStereo</text>
</a>
</g>
</g>
<!-- Node1&#45;&gt;Node2 -->
<g id="edge1" class="edge">
<title>Node1&#45;&gt;Node2</title>
<path fill="none" stroke="#63b8ff" d="M142.3,-83.62C150.32,-83.62 158.6,-83.62 166.88,-83.62"/>
<polygon fill="#63b8ff" stroke="#63b8ff" points="166.74,-87.13 176.74,-83.62 166.74,-80.13 166.74,-87.13"/>
</g>
<!-- Node3 -->
<g id="node3" class="node">
<title>Node3</title>
<g id="a_node3"><a xlink:href="class_a_r_controller.html#a60a5bb0bf5a3b5865a426a8c751e8dfc" target="_top" xlink:title="Populates the provided array with the ARToolKit projection matrix, so that the projection maps to the...">
<polygon fill="white" stroke="#666666" points="540.75,-98.88 384.5,-98.88 384.5,-68.38 540.75,-68.38 540.75,-98.88"/>
<text text-anchor="start" x="392.5" y="-85.38" font-family="Helvetica,sans-Serif" font-size="10.00">ARController::projection</text>
<text text-anchor="middle" x="462.62" y="-74.12" font-family="Helvetica,sans-Serif" font-size="10.00">ForViewportSizeAndFittingMode</text>
</a>
</g>
</g>
<!-- Node2&#45;&gt;Node3 -->
<g id="edge2" class="edge">
<title>Node2&#45;&gt;Node3</title>
<path fill="none" stroke="#63b8ff" d="M348.81,-83.62C356.87,-83.62 365.06,-83.62 373.15,-83.62"/>
<polygon fill="#63b8ff" stroke="#63b8ff" points="373.1,-87.13 383.1,-83.62 373.1,-80.13 373.1,-87.13"/>
</g>
<!-- Node4 -->
<g id="node4" class="node">
<title>Node4</title>
<g id="a_node4"><a xlink:href="param_g_l_8c.html#a47cc5a7056c5638682a07acee44df9f4" target="_top" xlink:title="Create an OpenGL perspective projection matrix.">
<polygon fill="white" stroke="#666666" points="722.5,-191.25 605.25,-191.25 605.25,-172 722.5,-172 722.5,-191.25"/>
<text text-anchor="middle" x="663.88" y="-177.75" font-family="Helvetica,sans-Serif" font-size="10.00">arglCameraFrustumRH</text>
</a>
</g>
</g>
<!-- Node3&#45;&gt;Node4 -->
<g id="edge3" class="edge">
<title>Node3&#45;&gt;Node4</title>
<path fill="none" stroke="#63b8ff" d="M481.1,-99.16C502.25,-117.14 539.68,-146.36 576.75,-162.62 582.41,-165.11 588.42,-167.28 594.54,-169.18"/>
<polygon fill="#63b8ff" stroke="#63b8ff" points="593.32,-172.75 603.89,-172.12 595.23,-166.02 593.32,-172.75"/>
</g>
<!-- Node6 -->
<g id="node6" class="node">
<title>Node6</title>
<g id="a_node6"><a xlink:href="class_a_r_video_source.html#a7f1590c1740fcc1a15e5b3c3d5277353" target="_top" xlink:title="Adjust camera parameters to fit an output viewport of given size, using fitting and alignment.">
<polygon fill="white" stroke="#666666" points="741.62,-153.5 586.12,-153.5 586.12,-111.75 741.62,-111.75 741.62,-153.5"/>
<text text-anchor="start" x="594.12" y="-140" font-family="Helvetica,sans-Serif" font-size="10.00">ARVideoSource::getCamera</text>
<text text-anchor="start" x="594.12" y="-128.75" font-family="Helvetica,sans-Serif" font-size="10.00">ParametersForViewportSizeAnd</text>
<text text-anchor="middle" x="663.88" y="-117.5" font-family="Helvetica,sans-Serif" font-size="10.00">FittingMode</text>
</a>
</g>
</g>
<!-- Node3&#45;&gt;Node6 -->
<g id="edge5" class="edge">
<title>Node3&#45;&gt;Node6</title>
<path fill="none" stroke="#63b8ff" d="M527.49,-99.33C542.71,-103.07 559.21,-107.13 575.29,-111.09"/>
<polygon fill="#63b8ff" stroke="#63b8ff" points="574.23,-114.68 584.78,-113.67 575.91,-107.88 574.23,-114.68"/>
</g>
<!-- Node8 -->
<g id="node8" class="node">
<title>Node8</title>
<g id="a_node8"><a xlink:href="class_a_r_video_source.html#a1e884eb3148cf3f996be7e7a0e79b546" target="_top" xlink:title="Returns true if the video source is open.">
<polygon fill="white" stroke="#666666" points="725.12,-93.25 602.62,-93.25 602.62,-74 725.12,-74 725.12,-93.25"/>
<text text-anchor="middle" x="663.88" y="-79.75" font-family="Helvetica,sans-Serif" font-size="10.00">ARVideoSource::isOpen</text>
</a>
</g>
</g>
<!-- Node3&#45;&gt;Node8 -->
<g id="edge7" class="edge">
<title>Node3&#45;&gt;Node8</title>
<path fill="none" stroke="#63b8ff" d="M541.23,-83.62C557.81,-83.62 575.25,-83.62 591.58,-83.62"/>
<polygon fill="#63b8ff" stroke="#63b8ff" points="591.14,-87.13 601.14,-83.62 591.14,-80.13 591.14,-87.13"/>
</g>
<!-- Node9 -->
<g id="node9" class="node">
<title>Node9</title>
<g id="a_node9"><a xlink:href="class_a_r_video_source.html#adcdfb6d6fcf844c7578bec2b3f978108" target="_top" xlink:title="Returns true if the video source is open and ready to be queried.">
<polygon fill="white" stroke="#666666" points="731.5,-56.25 596.25,-56.25 596.25,-37 731.5,-37 731.5,-56.25"/>
<text text-anchor="middle" x="663.88" y="-42.75" font-family="Helvetica,sans-Serif" font-size="10.00">ARVideoSource::isRunning</text>
</a>
</g>
</g>
<!-- Node3&#45;&gt;Node9 -->
<g id="edge8" class="edge">
<title>Node3&#45;&gt;Node9</title>
<path fill="none" stroke="#63b8ff" d="M541.23,-69.21C559.96,-65.74 579.78,-62.06 597.86,-58.7"/>
<polygon fill="#63b8ff" stroke="#63b8ff" points="598.39,-61.97 607.58,-56.71 597.11,-55.09 598.39,-61.97"/>
</g>
<!-- Node10 -->
<g id="node10" class="node">
<title>Node10</title>
<g id="a_node10"><a xlink:href="class_a_r_video_source.html#a0cbb8805bc426c30af2311a9e225f34b" target="_top" xlink:title=" ">
<polygon fill="white" stroke="#666666" points="751,-19.25 576.75,-19.25 576.75,0 751,0 751,-19.25"/>
<text text-anchor="middle" x="663.88" y="-5.75" font-family="Helvetica,sans-Serif" font-size="10.00">ARVideoSource::ScalingModeName</text>
</a>
</g>
</g>
<!-- Node3&#45;&gt;Node10 -->
<g id="edge9" class="edge">
<title>Node3&#45;&gt;Node10</title>
<path fill="none" stroke="#63b8ff" d="M490.22,-68.05C512.63,-55.51 545.89,-38.29 576.75,-27.62 582.25,-25.72 588.03,-23.99 593.87,-22.41"/>
<polygon fill="#63b8ff" stroke="#63b8ff" points="594.58,-25.59 603.42,-19.75 592.87,-18.8 594.58,-25.59"/>
</g>
<!-- Node5 -->
<g id="node5" class="node">
<title>Node5</title>
<g id="a_node5"><a xlink:href="param_decomp_8c.html#af8d8284f4489d90d4408f7514866dca1" target="_top" xlink:title=" ">
<polygon fill="white" stroke="#666666" points="915.5,-191.25 809.5,-191.25 809.5,-172 915.5,-172 915.5,-191.25"/>
<text text-anchor="middle" x="862.5" y="-177.75" font-family="Helvetica,sans-Serif" font-size="10.00">arParamDecompMat</text>
</a>
</g>
</g>
<!-- Node4&#45;&gt;Node5 -->
<g id="edge4" class="edge">
<title>Node4&#45;&gt;Node5</title>
<path fill="none" stroke="#63b8ff" d="M722.81,-181.62C746.48,-181.62 773.94,-181.62 798.14,-181.62"/>
<polygon fill="#63b8ff" stroke="#63b8ff" points="798.01,-185.13 808.01,-181.62 798.01,-178.13 798.01,-185.13"/>
</g>
<!-- Node7 -->
<g id="node7" class="node">
<title>Node7</title>
<g id="a_node7"><a xlink:href="param_change_size_8c.html#a52ca3c9c652eee8efb9e968360cc4493" target="_top" xlink:title=" ">
<polygon fill="white" stroke="#666666" points="938,-142.25 787,-142.25 787,-123 938,-123 938,-142.25"/>
<text text-anchor="middle" x="862.5" y="-128.75" font-family="Helvetica,sans-Serif" font-size="10.00">arParamChangeSizeWithZoom</text>
</a>
</g>
</g>
<!-- Node6&#45;&gt;Node7 -->
<g id="edge6" class="edge">
<title>Node6&#45;&gt;Node7</title>
<path fill="none" stroke="#63b8ff" d="M742.02,-132.62C753.11,-132.62 764.58,-132.62 775.82,-132.62"/>
<polygon fill="#63b8ff" stroke="#63b8ff" points="775.51,-136.13 785.51,-132.62 775.51,-129.13 775.51,-136.13"/>
</g>
</g>
</svg>
