<?xml version="1.0" encoding="UTF-8" standalone="no"?>
<!DOCTYPE svg PUBLIC "-//W3C//DTD SVG 1.1//EN"
 "http://www.w3.org/Graphics/SVG/1.1/DTD/svg11.dtd">
<!-- Generated by graphviz version 8.0.5 (20230430.1635)
 -->
<!-- Title: arwRemoveTrackable Pages: 1 -->
<svg width="495pt" height="27pt"
 viewBox="0.00 0.00 494.75 27.25" xmlns="http://www.w3.org/2000/svg" xmlns:xlink="http://www.w3.org/1999/xlink">
<g id="graph0" class="graph" transform="scale(1 1) rotate(0) translate(4 23.25)">
<title>arwRemoveTrackable</title>
<!-- Node1 -->
<g id="node1" class="node">
<title>Node1</title>
<g id="a_node1"><a xlink:title="Removes the trackable with the given unique identifier (UID).">
<polygon fill="#999999" stroke="#666666" points="111.25,-19.25 0,-19.25 0,0 111.25,0 111.25,-19.25"/>
<text text-anchor="middle" x="55.62" y="-5.75" font-family="Helvetica,sans-Serif" font-size="10.00">arwRemoveTrackable</text>
</a>
</g>
</g>
<!-- Node2 -->
<g id="node2" class="node">
<title>Node2</title>
<g id="a_node2"><a xlink:href="class_a_r_controller.html#af875d8273cfc0ea38471299d60db414f" target="_top" xlink:title="Removes the trackable with the given ID.">
<polygon fill="white" stroke="#666666" points="300.5,-19.25 147.25,-19.25 147.25,0 300.5,0 300.5,-19.25"/>
<text text-anchor="middle" x="223.88" y="-5.75" font-family="Helvetica,sans-Serif" font-size="10.00">ARController::removeTrackable</text>
</a>
</g>
</g>
<!-- Node1&#45;&gt;Node2 -->
<g id="edge1" class="edge">
<title>Node1&#45;&gt;Node2</title>
<path fill="none" stroke="#63b8ff" d="M111.52,-9.62C119.41,-9.62 127.69,-9.62 136.02,-9.62"/>
<polygon fill="#63b8ff" stroke="#63b8ff" points="135.96,-13.13 145.96,-9.62 135.96,-6.13 135.96,-13.13"/>
</g>
<!-- Node3 -->
<g id="node3" class="node">
<title>Node3</title>
<g id="a_node3"><a xlink:href="class_a_r_controller.html#ac2961fa58ba3a2e10dbde637571efb91" target="_top" xlink:title="Returns the number of currently loaded trackables.">
<polygon fill="white" stroke="#666666" points="486.75,-19.25 336.5,-19.25 336.5,0 486.75,0 486.75,-19.25"/>
<text text-anchor="middle" x="411.62" y="-5.75" font-family="Helvetica,sans-Serif" font-size="10.00">ARController::countTrackables</text>
</a>
</g>
</g>
<!-- Node2&#45;&gt;Node3 -->
<g id="edge2" class="edge">
<title>Node2&#45;&gt;Node3</title>
<path fill="none" stroke="#63b8ff" d="M300.96,-9.62C308.95,-9.62 317.11,-9.62 325.2,-9.62"/>
<polygon fill="#63b8ff" stroke="#63b8ff" points="325.16,-13.13 335.16,-9.62 325.16,-6.13 325.16,-13.13"/>
</g>
</g>
</svg>
