<?xml version="1.0" encoding="UTF-8" standalone="no"?>
<!DOCTYPE svg PUBLIC "-//W3C//DTD SVG 1.1//EN"
 "http://www.w3.org/Graphics/SVG/1.1/DTD/svg11.dtd">
<!-- Generated by graphviz version 7.0.5 (20221223.1930)
 -->
<!-- Title: Source/ARX/include/ARX/ARVideoView.h Pages: 1 -->
<svg width="946pt" height="313pt"
 viewBox="0.00 0.00 945.50 313.00" xmlns="http://www.w3.org/2000/svg" xmlns:xlink="http://www.w3.org/1999/xlink">
<g id="graph0" class="graph" transform="scale(1 1) rotate(0) translate(4 309)">
<title>Source/ARX/include/ARX/ARVideoView.h</title>
<!-- Node1 -->
<g id="node1" class="node">
<title>Node1</title>
<g id="a_node1"><a xlink:title=" ">
<polygon fill="#999999" stroke="#666666" points="448.5,-305 337.5,-305 337.5,-275 448.5,-275 448.5,-305"/>
<text text-anchor="start" x="345.5" y="-293" font-family="Helvetica,sans-Serif" font-size="10.00">Source/ARX/include</text>
<text text-anchor="middle" x="393" y="-282" font-family="Helvetica,sans-Serif" font-size="10.00">/ARX/ARVideoView.h</text>
</a>
</g>
</g>
<!-- Node2 -->
<g id="node2" class="node">
<title>Node2</title>
<g id="a_node2"><a xlink:href="_platform_8h.html" target="_top" xlink:title=" ">
<polygon fill="white" stroke="#666666" points="102,-184 16,-184 16,-165 102,-165 102,-184"/>
<text text-anchor="middle" x="59" y="-172" font-family="Helvetica,sans-Serif" font-size="10.00">ARX/Platform.h</text>
</a>
</g>
</g>
<!-- Node1&#45;&gt;Node2 -->
<g id="edge1" class="edge">
<title>Node1&#45;&gt;Node2</title>
<path fill="none" stroke="#63b8ff" d="M350.36,-274.51C284.3,-252.06 158.35,-209.26 95.94,-188.05"/>
<polygon fill="#63b8ff" stroke="#63b8ff" points="97.09,-184.75 86.49,-184.84 94.83,-191.37 97.09,-184.75"/>
</g>
<!-- Node3 -->
<g id="node3" class="node">
<title>Node3</title>
<g id="a_node3"><a xlink:href="_a_r_video_source_8h.html" target="_top" xlink:title=" ">
<polygon fill="white" stroke="#666666" points="374.5,-239 255.5,-239 255.5,-220 374.5,-220 374.5,-239"/>
<text text-anchor="middle" x="315" y="-227" font-family="Helvetica,sans-Serif" font-size="10.00">ARX/ARVideoSource.h</text>
</a>
</g>
</g>
<!-- Node1&#45;&gt;Node3 -->
<g id="edge2" class="edge">
<title>Node1&#45;&gt;Node3</title>
<path fill="none" stroke="#63b8ff" d="M373.72,-274.54C362.16,-265.87 347.46,-254.85 335.66,-246"/>
<polygon fill="#63b8ff" stroke="#63b8ff" points="337.88,-243.28 327.78,-240.08 333.68,-248.88 337.88,-243.28"/>
</g>
<!-- Node4 -->
<g id="node4" class="node">
<title>Node4</title>
<g id="a_node4"><a xlink:href="ar_8h.html" target="_top" xlink:title="artoolkitX core routines.">
<polygon fill="white" stroke="#666666" points="488,-129 414,-129 414,-110 488,-110 488,-129"/>
<text text-anchor="middle" x="451" y="-117" font-family="Helvetica,sans-Serif" font-size="10.00">ARX/AR/ar.h</text>
</a>
</g>
</g>
<!-- Node1&#45;&gt;Node4 -->
<g id="edge37" class="edge">
<title>Node1&#45;&gt;Node4</title>
<path fill="none" stroke="#63b8ff" d="M397.95,-274.63C408.34,-244.44 432.46,-174.36 444.26,-140.08"/>
<polygon fill="#63b8ff" stroke="#63b8ff" points="447.56,-141.24 447.51,-130.65 440.94,-138.96 447.56,-141.24"/>
</g>
<!-- Node27 -->
<g id="node27" class="node">
<title>Node27</title>
<g id="a_node27"><a xlink:href="arg_8h.html" target="_top" xlink:title="A collection of useful graphics routines for artoolkitX.">
<polygon fill="white" stroke="#666666" points="553.5,-239 466.5,-239 466.5,-220 553.5,-220 553.5,-239"/>
<text text-anchor="middle" x="510" y="-227" font-family="Helvetica,sans-Serif" font-size="10.00">ARX/ARG/arg.h</text>
</a>
</g>
</g>
<!-- Node1&#45;&gt;Node27 -->
<g id="edge38" class="edge">
<title>Node1&#45;&gt;Node27</title>
<path fill="none" stroke="#63b8ff" d="M421.92,-274.54C440.28,-265.36 463.9,-253.55 482.06,-244.47"/>
<polygon fill="#63b8ff" stroke="#63b8ff" points="483.57,-247.63 490.95,-240.02 480.44,-241.36 483.57,-247.63"/>
</g>
<!-- Node3&#45;&gt;Node2 -->
<g id="edge3" class="edge">
<title>Node3&#45;&gt;Node2</title>
<path fill="none" stroke="#63b8ff" d="M271.57,-219.51C227.95,-210.48 160.61,-196.54 113.44,-186.77"/>
<polygon fill="#63b8ff" stroke="#63b8ff" points="114.2,-183.35 103.69,-184.75 112.78,-190.21 114.2,-183.35"/>
</g>
<!-- Node3&#45;&gt;Node4 -->
<g id="edge4" class="edge">
<title>Node3&#45;&gt;Node4</title>
<path fill="none" stroke="#63b8ff" d="M329.58,-219.52C343.24,-210.92 364.04,-197.3 381,-184 400.07,-169.05 420.42,-150.22 434.24,-136.96"/>
<polygon fill="#63b8ff" stroke="#63b8ff" points="436.47,-139.68 441.21,-130.2 431.6,-134.65 436.47,-139.68"/>
</g>
<!-- Node21 -->
<g id="node21" class="node">
<title>Node21</title>
<g id="a_node21"><a xlink:href="video_8h.html" target="_top" xlink:title=" ">
<polygon fill="white" stroke="#666666" points="234,-184 120,-184 120,-165 234,-165 234,-184"/>
<text text-anchor="middle" x="177" y="-172" font-family="Helvetica,sans-Serif" font-size="10.00">ARX/ARVideo/video.h</text>
</a>
</g>
</g>
<!-- Node3&#45;&gt;Node21 -->
<g id="edge28" class="edge">
<title>Node3&#45;&gt;Node21</title>
<path fill="none" stroke="#63b8ff" d="M291.59,-219.51C269.35,-210.97 235.67,-198.03 210.58,-188.4"/>
<polygon fill="#63b8ff" stroke="#63b8ff" points="212.07,-185.22 201.48,-184.9 209.56,-191.75 212.07,-185.22"/>
</g>
<!-- Node25 -->
<g id="node25" class="node">
<title>Node25</title>
<g id="a_node25"><a xlink:title=" ">
<polygon fill="#e0e0e0" stroke="#999999" points="372,-184 328,-184 328,-165 372,-165 372,-184"/>
<text text-anchor="middle" x="350" y="-172" font-family="Helvetica,sans-Serif" font-size="10.00">mutex</text>
</a>
</g>
</g>
<!-- Node3&#45;&gt;Node25 -->
<g id="edge35" class="edge">
<title>Node3&#45;&gt;Node25</title>
<path fill="none" stroke="#63b8ff" d="M320.78,-219.75C325.41,-212.73 332.07,-202.64 337.87,-193.87"/>
<polygon fill="#63b8ff" stroke="#63b8ff" points="340.67,-195.98 343.26,-185.71 334.83,-192.12 340.67,-195.98"/>
</g>
<!-- Node26 -->
<g id="node26" class="node">
<title>Node26</title>
<g id="a_node26"><a xlink:title=" ">
<polygon fill="#e0e0e0" stroke="#999999" points="309.5,-184 252.5,-184 252.5,-165 309.5,-165 309.5,-184"/>
<text text-anchor="middle" x="281" y="-172" font-family="Helvetica,sans-Serif" font-size="10.00">pthread.h</text>
</a>
</g>
</g>
<!-- Node3&#45;&gt;Node26 -->
<g id="edge36" class="edge">
<title>Node3&#45;&gt;Node26</title>
<path fill="none" stroke="#63b8ff" d="M309.39,-219.75C304.88,-212.73 298.41,-202.64 292.79,-193.87"/>
<polygon fill="#63b8ff" stroke="#63b8ff" points="295.9,-192.24 287.55,-185.72 290.01,-196.02 295.9,-192.24"/>
</g>
<!-- Node5 -->
<g id="node5" class="node">
<title>Node5</title>
<g id="a_node5"><a xlink:title=" ">
<polygon fill="#e0e0e0" stroke="#999999" points="734,-19 688,-19 688,0 734,0 734,-19"/>
<text text-anchor="middle" x="711" y="-7" font-family="Helvetica,sans-Serif" font-size="10.00">stdio.h</text>
</a>
</g>
</g>
<!-- Node4&#45;&gt;Node5 -->
<g id="edge5" class="edge">
<title>Node4&#45;&gt;Node5</title>
<path fill="none" stroke="#63b8ff" d="M488.22,-116.54C548.96,-112.57 665.6,-101.51 695,-74 706.69,-63.06 710.36,-44.93 711.3,-30.84"/>
<polygon fill="#63b8ff" stroke="#63b8ff" points="714.8,-30.94 711.51,-20.87 707.8,-30.79 714.8,-30.94"/>
</g>
<!-- Node6 -->
<g id="node6" class="node">
<title>Node6</title>
<g id="a_node6"><a xlink:title=" ">
<polygon fill="#e0e0e0" stroke="#999999" points="670,-19 622,-19 622,0 670,0 670,-19"/>
<text text-anchor="middle" x="646" y="-7" font-family="Helvetica,sans-Serif" font-size="10.00">stdlib.h</text>
</a>
</g>
</g>
<!-- Node4&#45;&gt;Node6 -->
<g id="edge6" class="edge">
<title>Node4&#45;&gt;Node6</title>
<path fill="none" stroke="#63b8ff" d="M471.52,-109.64C490.8,-101.11 520.3,-87.55 545,-74 572.68,-58.82 603.21,-39.2 623.37,-25.82"/>
<polygon fill="#63b8ff" stroke="#63b8ff" points="625.28,-28.75 631.65,-20.28 621.39,-22.93 625.28,-28.75"/>
</g>
<!-- Node7 -->
<g id="node7" class="node">
<title>Node7</title>
<g id="a_node7"><a xlink:title=" ">
<polygon fill="#e0e0e0" stroke="#999999" points="123.5,-74 74.5,-74 74.5,-55 123.5,-55 123.5,-74"/>
<text text-anchor="middle" x="99" y="-62" font-family="Helvetica,sans-Serif" font-size="10.00">stdint.h</text>
</a>
</g>
</g>
<!-- Node4&#45;&gt;Node7 -->
<g id="edge7" class="edge">
<title>Node4&#45;&gt;Node7</title>
<path fill="none" stroke="#63b8ff" d="M413.57,-111.57C410.34,-111.02 407.11,-110.49 404,-110 287.48,-91.73 254.28,-96.46 134.86,-74.14"/>
<polygon fill="#63b8ff" stroke="#63b8ff" points="135.77,-70.75 125.3,-72.33 134.47,-77.63 135.77,-70.75"/>
</g>
<!-- Node8 -->
<g id="node8" class="node">
<title>Node8</title>
<g id="a_node8"><a xlink:title=" ">
<polygon fill="#e0e0e0" stroke="#999999" points="326.5,-19 277.5,-19 277.5,0 326.5,0 326.5,-19"/>
<text text-anchor="middle" x="302" y="-7" font-family="Helvetica,sans-Serif" font-size="10.00">string.h</text>
</a>
</g>
</g>
<!-- Node4&#45;&gt;Node8 -->
<g id="edge8" class="edge">
<title>Node4&#45;&gt;Node8</title>
<path fill="none" stroke="#63b8ff" d="M444.87,-109.71C435.27,-96.46 415.55,-71.21 394,-55 376.86,-42.1 355.39,-31.46 337.5,-23.82"/>
<polygon fill="#63b8ff" stroke="#63b8ff" points="338.87,-20.61 328.29,-20.04 336.21,-27.08 338.87,-20.61"/>
</g>
<!-- Node9 -->
<g id="node9" class="node">
<title>Node9</title>
<g id="a_node9"><a xlink:title=" ">
<polygon fill="#e0e0e0" stroke="#999999" points="92,-19 0,-19 0,0 92,0 92,-19"/>
<text text-anchor="middle" x="46" y="-7" font-family="Helvetica,sans-Serif" font-size="10.00">ARX/AR/config.h</text>
</a>
</g>
</g>
<!-- Node4&#45;&gt;Node9 -->
<g id="edge9" class="edge">
<title>Node4&#45;&gt;Node9</title>
<path fill="none" stroke="#63b8ff" d="M413.58,-111.48C410.35,-110.95 407.12,-110.45 404,-110 329.01,-99.25 123.29,-122.39 65,-74 52.26,-63.43 47.84,-44.68 46.41,-30.29"/>
<polygon fill="#63b8ff" stroke="#63b8ff" points="49.92,-30.38 45.87,-20.59 42.93,-30.77 49.92,-30.38"/>
</g>
<!-- Node10 -->
<g id="node10" class="node">
<title>Node10</title>
<g id="a_node10"><a xlink:href="ar_config_8h.html" target="_top" xlink:title=" ">
<polygon fill="white" stroke="#666666" points="385.5,-74 282.5,-74 282.5,-55 385.5,-55 385.5,-74"/>
<text text-anchor="middle" x="334" y="-62" font-family="Helvetica,sans-Serif" font-size="10.00">ARX/AR/arConfig.h</text>
</a>
</g>
</g>
<!-- Node4&#45;&gt;Node10 -->
<g id="edge10" class="edge">
<title>Node4&#45;&gt;Node10</title>
<path fill="none" stroke="#63b8ff" d="M431.15,-109.51C412.72,-101.16 385.02,-88.61 363.91,-79.05"/>
<polygon fill="#63b8ff" stroke="#63b8ff" points="365.49,-75.92 354.93,-74.98 362.6,-82.3 365.49,-75.92"/>
</g>
<!-- Node11 -->
<g id="node11" class="node">
<title>Node11</title>
<g id="a_node11"><a xlink:href="log_8h.html" target="_top" xlink:title="Logging utilities.">
<polygon fill="white" stroke="#666666" points="536,-74 442,-74 442,-55 536,-55 536,-74"/>
<text text-anchor="middle" x="489" y="-62" font-family="Helvetica,sans-Serif" font-size="10.00">ARX/ARUtil/log.h</text>
</a>
</g>
</g>
<!-- Node4&#45;&gt;Node11 -->
<g id="edge11" class="edge">
<title>Node4&#45;&gt;Node11</title>
<path fill="none" stroke="#63b8ff" d="M457.27,-109.75C462.36,-102.66 469.7,-92.42 476.03,-83.59"/>
<polygon fill="#63b8ff" stroke="#63b8ff" points="478.72,-85.84 481.71,-75.67 473.04,-81.76 478.72,-85.84"/>
</g>
<!-- Node15 -->
<g id="node15" class="node">
<title>Node15</title>
<g id="a_node15"><a xlink:href="matrix_8h.html" target="_top" xlink:title=" ">
<polygon fill="white" stroke="#666666" points="937.5,-74 844.5,-74 844.5,-55 937.5,-55 937.5,-74"/>
<text text-anchor="middle" x="891" y="-62" font-family="Helvetica,sans-Serif" font-size="10.00">ARX/AR/matrix.h</text>
</a>
</g>
</g>
<!-- Node4&#45;&gt;Node15 -->
<g id="edge18" class="edge">
<title>Node4&#45;&gt;Node15</title>
<path fill="none" stroke="#63b8ff" d="M488.25,-114.44C556.36,-106.95 705.51,-90.23 831,-74 831.67,-73.91 832.34,-73.83 833.02,-73.74"/>
<polygon fill="#63b8ff" stroke="#63b8ff" points="833.23,-77.24 842.68,-72.45 832.3,-70.3 833.23,-77.24"/>
</g>
<!-- Node17 -->
<g id="node17" class="node">
<title>Node17</title>
<g id="a_node17"><a xlink:href="icp_8h.html" target="_top" xlink:title=" ">
<polygon fill="white" stroke="#666666" points="821.5,-74 742.5,-74 742.5,-55 821.5,-55 821.5,-74"/>
<text text-anchor="middle" x="782" y="-62" font-family="Helvetica,sans-Serif" font-size="10.00">ARX/AR/icp.h</text>
</a>
</g>
</g>
<!-- Node4&#45;&gt;Node17 -->
<g id="edge20" class="edge">
<title>Node4&#45;&gt;Node17</title>
<path fill="none" stroke="#63b8ff" d="M488.33,-112.52C547.78,-103 664.1,-84.38 731.13,-73.65"/>
<polygon fill="#63b8ff" stroke="#63b8ff" points="731.43,-77.14 740.75,-72.11 730.32,-70.23 731.43,-77.14"/>
</g>
<!-- Node19 -->
<g id="node19" class="node">
<title>Node19</title>
<g id="a_node19"><a xlink:href="param_8h.html" target="_top" xlink:title="artoolkitX functions for handling calibrated camera parameters.">
<polygon fill="white" stroke="#666666" points="685.5,-74 592.5,-74 592.5,-55 685.5,-55 685.5,-74"/>
<text text-anchor="middle" x="639" y="-62" font-family="Helvetica,sans-Serif" font-size="10.00">ARX/AR/param.h</text>
</a>
</g>
</g>
<!-- Node4&#45;&gt;Node19 -->
<g id="edge23" class="edge">
<title>Node4&#45;&gt;Node19</title>
<path fill="none" stroke="#63b8ff" d="M477.67,-109.51C507.24,-100.65 555.26,-87.07 591.29,-77.33"/>
<polygon fill="#63b8ff" stroke="#63b8ff" points="591.84,-80.81 600.6,-74.84 590.03,-74.05 591.84,-80.81"/>
</g>
<!-- Node20 -->
<g id="node20" class="node">
<title>Node20</title>
<g id="a_node20"><a xlink:href="ar_image_proc_8h.html" target="_top" xlink:title="artoolkitX functions for 2D luminance image processing.">
<polygon fill="white" stroke="#666666" points="264,-74 142,-74 142,-55 264,-55 264,-74"/>
<text text-anchor="middle" x="203" y="-62" font-family="Helvetica,sans-Serif" font-size="10.00">ARX/AR/arImageProc.h</text>
</a>
</g>
</g>
<!-- Node4&#45;&gt;Node20 -->
<g id="edge25" class="edge">
<title>Node4&#45;&gt;Node20</title>
<path fill="none" stroke="#63b8ff" d="M413.58,-111.52C370.07,-102.71 298.4,-87.46 250.89,-76.95"/>
<polygon fill="#63b8ff" stroke="#63b8ff" points="251.66,-73.53 241.14,-74.78 250.14,-80.36 251.66,-73.53"/>
</g>
<!-- Node11&#45;&gt;Node5 -->
<g id="edge12" class="edge">
<title>Node11&#45;&gt;Node5</title>
<path fill="none" stroke="#63b8ff" d="M528.75,-54.55C564.91,-46.33 620.05,-33.59 676.65,-19.53"/>
<polygon fill="#63b8ff" stroke="#63b8ff" points="677.28,-22.98 686.13,-17.17 675.58,-16.19 677.28,-22.98"/>
</g>
<!-- Node11&#45;&gt;Node6 -->
<g id="edge13" class="edge">
<title>Node11&#45;&gt;Node6</title>
<path fill="none" stroke="#63b8ff" d="M515.63,-54.51C541.82,-45.67 581.93,-32.13 610.75,-22.4"/>
<polygon fill="#63b8ff" stroke="#63b8ff" points="611.78,-25.75 620.13,-19.23 609.54,-19.12 611.78,-25.75"/>
</g>
<!-- Node11&#45;&gt;Node8 -->
<g id="edge14" class="edge">
<title>Node11&#45;&gt;Node8</title>
<path fill="none" stroke="#63b8ff" d="M457.28,-54.51C424.23,-45.14 372.54,-30.49 337.99,-20.7"/>
<polygon fill="#63b8ff" stroke="#63b8ff" points="339.01,-17.35 328.44,-17.99 337.1,-24.09 339.01,-17.35"/>
</g>
<!-- Node12 -->
<g id="node12" class="node">
<title>Node12</title>
<g id="a_node12"><a xlink:title=" ">
<polygon fill="#e0e0e0" stroke="#999999" points="397,-19 345,-19 345,0 397,0 397,-19"/>
<text text-anchor="middle" x="371" y="-7" font-family="Helvetica,sans-Serif" font-size="10.00">stdarg.h</text>
</a>
</g>
</g>
<!-- Node11&#45;&gt;Node12 -->
<g id="edge15" class="edge">
<title>Node11&#45;&gt;Node12</title>
<path fill="none" stroke="#63b8ff" d="M468.98,-54.51C450.39,-46.16 422.46,-33.61 401.17,-24.05"/>
<polygon fill="#63b8ff" stroke="#63b8ff" points="402.66,-20.88 392.1,-19.98 399.79,-27.27 402.66,-20.88"/>
</g>
<!-- Node13 -->
<g id="node13" class="node">
<title>Node13</title>
<g id="a_node13"><a xlink:title=" ">
<polygon fill="#e0e0e0" stroke="#999999" points="480.5,-19 415.5,-19 415.5,0 480.5,0 480.5,-19"/>
<text text-anchor="middle" x="448" y="-7" font-family="Helvetica,sans-Serif" font-size="10.00">sys/errno.h</text>
</a>
</g>
</g>
<!-- Node11&#45;&gt;Node13 -->
<g id="edge16" class="edge">
<title>Node11&#45;&gt;Node13</title>
<path fill="none" stroke="#63b8ff" d="M482.23,-54.75C476.68,-47.58 468.66,-37.2 461.77,-28.3"/>
<polygon fill="#63b8ff" stroke="#63b8ff" points="464.73,-26.41 455.84,-20.64 459.19,-30.69 464.73,-26.41"/>
</g>
<!-- Node14 -->
<g id="node14" class="node">
<title>Node14</title>
<g id="a_node14"><a xlink:href="types_8h.html" target="_top" xlink:title=" ">
<polygon fill="white" stroke="#666666" points="603.5,-19 498.5,-19 498.5,0 603.5,0 603.5,-19"/>
<text text-anchor="middle" x="551" y="-7" font-family="Helvetica,sans-Serif" font-size="10.00">ARX/ARUtil/types.h</text>
</a>
</g>
</g>
<!-- Node11&#45;&gt;Node14 -->
<g id="edge17" class="edge">
<title>Node11&#45;&gt;Node14</title>
<path fill="none" stroke="#63b8ff" d="M499.52,-54.51C508.39,-46.93 521.31,-35.88 531.99,-26.75"/>
<polygon fill="#63b8ff" stroke="#63b8ff" points="534.16,-29.5 539.49,-20.34 529.61,-24.18 534.16,-29.5"/>
</g>
<!-- Node16 -->
<g id="node16" class="node">
<title>Node16</title>
<g id="a_node16"><a xlink:title=" ">
<polygon fill="#e0e0e0" stroke="#999999" points="917.5,-19 870.5,-19 870.5,0 917.5,0 917.5,-19"/>
<text text-anchor="middle" x="894" y="-7" font-family="Helvetica,sans-Serif" font-size="10.00">math.h</text>
</a>
</g>
</g>
<!-- Node15&#45;&gt;Node16 -->
<g id="edge19" class="edge">
<title>Node15&#45;&gt;Node16</title>
<path fill="none" stroke="#63b8ff" d="M891.5,-54.75C891.86,-48.27 892.38,-39.16 892.85,-30.9"/>
<polygon fill="#63b8ff" stroke="#63b8ff" points="896.34,-31.13 893.41,-20.95 889.35,-30.74 896.34,-31.13"/>
</g>
<!-- Node17&#45;&gt;Node5 -->
<g id="edge21" class="edge">
<title>Node17&#45;&gt;Node5</title>
<path fill="none" stroke="#63b8ff" d="M769.96,-54.51C759.59,-46.77 744.4,-35.43 732.03,-26.2"/>
<polygon fill="#63b8ff" stroke="#63b8ff" points="734.19,-23.44 724.08,-20.26 730,-29.05 734.19,-23.44"/>
</g>
<!-- Node18 -->
<g id="node18" class="node">
<title>Node18</title>
<g id="a_node18"><a xlink:href="icp_core_8h.html" target="_top" xlink:title=" ">
<polygon fill="white" stroke="#666666" points="852,-19 752,-19 752,0 852,0 852,-19"/>
<text text-anchor="middle" x="802" y="-7" font-family="Helvetica,sans-Serif" font-size="10.00">ARX/AR/icpCore.h</text>
</a>
</g>
</g>
<!-- Node17&#45;&gt;Node18 -->
<g id="edge22" class="edge">
<title>Node17&#45;&gt;Node18</title>
<path fill="none" stroke="#63b8ff" d="M785.3,-54.75C787.83,-48.04 791.43,-38.52 794.63,-30.02"/>
<polygon fill="#63b8ff" stroke="#63b8ff" points="797.84,-31.45 798.09,-20.86 791.29,-28.98 797.84,-31.45"/>
</g>
<!-- Node19&#45;&gt;Node4 -->
<g id="edge24" class="edge">
<title>Node19&#45;&gt;Node4</title>
<path fill="none" stroke="#63b8ff" d="M612.47,-74.45C582.97,-83.29 534.96,-96.87 498.89,-106.62"/>
<polygon fill="#63b8ff" stroke="#63b8ff" points="498.32,-103.15 489.57,-109.12 500.14,-109.91 498.32,-103.15"/>
</g>
<!-- Node20&#45;&gt;Node4 -->
<g id="edge27" class="edge">
<title>Node20&#45;&gt;Node4</title>
<path fill="none" stroke="#63b8ff" d="M250.07,-74.45C293.96,-83.42 358.97,-97.28 403.12,-107.06"/>
<polygon fill="#63b8ff" stroke="#63b8ff" points="402.15,-110.43 412.67,-109.18 403.67,-103.59 402.15,-110.43"/>
</g>
<!-- Node20&#45;&gt;Node9 -->
<g id="edge26" class="edge">
<title>Node20&#45;&gt;Node9</title>
<path fill="none" stroke="#63b8ff" d="M176.37,-54.51C150.8,-45.88 111.95,-32.76 83.31,-23.1"/>
<polygon fill="#63b8ff" stroke="#63b8ff" points="84.53,-19.81 73.94,-19.93 82.29,-26.45 84.53,-19.81"/>
</g>
<!-- Node21&#45;&gt;Node4 -->
<g id="edge29" class="edge">
<title>Node21&#45;&gt;Node4</title>
<path fill="none" stroke="#63b8ff" d="M223.48,-164.51C273.2,-154.89 351.71,-139.71 402.27,-129.93"/>
<polygon fill="#63b8ff" stroke="#63b8ff" points="402.91,-133.37 412.07,-128.03 401.59,-126.49 402.91,-133.37"/>
</g>
<!-- Node22 -->
<g id="node22" class="node">
<title>Node22</title>
<g id="a_node22"><a xlink:href="video_config_8h.html" target="_top" xlink:title=" ">
<polygon fill="white" stroke="#666666" points="395.5,-129 252.5,-129 252.5,-110 395.5,-110 395.5,-129"/>
<text text-anchor="middle" x="324" y="-117" font-family="Helvetica,sans-Serif" font-size="10.00">ARX/ARVideo/videoConfig.h</text>
</a>
</g>
</g>
<!-- Node21&#45;&gt;Node22 -->
<g id="edge30" class="edge">
<title>Node21&#45;&gt;Node22</title>
<path fill="none" stroke="#63b8ff" d="M201.94,-164.51C225.84,-155.89 262.14,-142.8 288.95,-133.14"/>
<polygon fill="#63b8ff" stroke="#63b8ff" points="289.79,-136.56 298.01,-129.87 287.41,-129.97 289.79,-136.56"/>
</g>
<!-- Node23 -->
<g id="node23" class="node">
<title>Node23</title>
<g id="a_node23"><a xlink:title=" ">
<polygon fill="#e0e0e0" stroke="#999999" points="78,-129 30,-129 30,-110 78,-110 78,-129"/>
<text text-anchor="middle" x="54" y="-117" font-family="Helvetica,sans-Serif" font-size="10.00">limits.h</text>
</a>
</g>
</g>
<!-- Node21&#45;&gt;Node23 -->
<g id="edge32" class="edge">
<title>Node21&#45;&gt;Node23</title>
<path fill="none" stroke="#63b8ff" d="M156.13,-164.51C136.58,-156.08 107.1,-143.38 84.83,-133.79"/>
<polygon fill="#63b8ff" stroke="#63b8ff" points="86.52,-130.7 75.95,-129.96 83.75,-137.13 86.52,-130.7"/>
</g>
<!-- Node24 -->
<g id="node24" class="node">
<title>Node24</title>
<g id="a_node24"><a xlink:href="video_luma_8h.html" target="_top" xlink:title=" ">
<polygon fill="white" stroke="#666666" points="234,-129 96,-129 96,-110 234,-110 234,-129"/>
<text text-anchor="middle" x="165" y="-117" font-family="Helvetica,sans-Serif" font-size="10.00">ARX/ARVideo/videoLuma.h</text>
</a>
</g>
</g>
<!-- Node21&#45;&gt;Node24 -->
<g id="edge33" class="edge">
<title>Node21&#45;&gt;Node24</title>
<path fill="none" stroke="#63b8ff" d="M169.85,-164.75C166.96,-158.19 164.4,-148.95 162.98,-140.6"/>
<polygon fill="#63b8ff" stroke="#63b8ff" points="166.49,-140.53 161.97,-130.95 159.53,-141.26 166.49,-140.53"/>
</g>
<!-- Node22&#45;&gt;Node9 -->
<g id="edge31" class="edge">
<title>Node22&#45;&gt;Node9</title>
<path fill="none" stroke="#63b8ff" d="M252.27,-109.93C168.15,-99.53 39.17,-82.35 32,-74 21.44,-61.7 27.13,-43.22 34.17,-29.36"/>
<polygon fill="#63b8ff" stroke="#63b8ff" points="37.16,-31.18 39.06,-20.76 31.07,-27.72 37.16,-31.18"/>
</g>
<!-- Node24&#45;&gt;Node21 -->
<g id="edge34" class="edge">
<title>Node24&#45;&gt;Node21</title>
<path fill="none" stroke="#63b8ff" d="M172.23,-129.44C175.09,-135.97 177.61,-145.1 179.01,-153.35"/>
<polygon fill="#63b8ff" stroke="#63b8ff" points="175.52,-153.65 180.03,-163.24 182.49,-152.94 175.52,-153.65"/>
</g>
<!-- Node27&#45;&gt;Node4 -->
<g id="edge39" class="edge">
<title>Node27&#45;&gt;Node4</title>
<path fill="none" stroke="#63b8ff" d="M505.17,-219.66C495.62,-202.18 474.13,-162.84 461.27,-139.3"/>
<polygon fill="#63b8ff" stroke="#63b8ff" points="464.49,-137.89 456.62,-130.79 458.34,-141.24 464.49,-137.89"/>
</g>
</g>
</svg>
