<?xml version="1.0" encoding="UTF-8" standalone="no"?>
<!DOCTYPE svg PUBLIC "-//W3C//DTD SVG 1.1//EN"
 "http://www.w3.org/Graphics/SVG/1.1/DTD/svg11.dtd">
<!-- Generated by graphviz version 2.40.1 (20161225.0304)
 -->
<!-- Title: Source/ARX/ARVideoSource.cpp Pages: 1 -->
<svg width="1551pt" height="522pt"
 viewBox="0.00 0.00 1550.87 522.00" xmlns="http://www.w3.org/2000/svg" xmlns:xlink="http://www.w3.org/1999/xlink">
<g id="graph0" class="graph" transform="scale(1 1) rotate(0) translate(4 518)">
<title>Source/ARX/ARVideoSource.cpp</title>
<polygon fill="#ffffff" stroke="transparent" points="-4,4 -4,-518 1546.8706,-518 1546.8706,4 -4,4"/>
<!-- Node0 -->
<g id="node1" class="node">
<title>Node0</title>
<polygon fill="#bfbfbf" stroke="#000000" points="727.4409,-495.5 727.4409,-513.5 890.9458,-513.5 890.9458,-495.5 727.4409,-495.5"/>
<text text-anchor="middle" x="809.1934" y="-501.5" font-family="Helvetica,sans-Serif" font-size="10.00" fill="#000000">Source/ARX/ARVideoSource.cpp</text>
</g>
<!-- Node1 -->
<g id="node2" class="node">
<title>Node1</title>
<g id="a_node2"><a xlink:href="_platform_8h.html" target="_top" xlink:title="ARX/Platform.h">
<polygon fill="#ffffff" stroke="#000000" points="690.7378,-220.5 690.7378,-238.5 775.6489,-238.5 775.6489,-220.5 690.7378,-220.5"/>
<text text-anchor="middle" x="733.1934" y="-226.5" font-family="Helvetica,sans-Serif" font-size="10.00" fill="#000000">ARX/Platform.h</text>
</a>
</g>
</g>
<!-- Node0&#45;&gt;Node1 -->
<g id="edge1" class="edge">
<title>Node0&#45;&gt;Node1</title>
<path fill="none" stroke="#191970" d="M809.1934,-495.3733C809.1934,-476.5256 809.1934,-431.9306 809.1934,-394.5 809.1934,-394.5 809.1934,-394.5 809.1934,-339.5 809.1934,-300.0142 775.6358,-264.4341 753.118,-245.0039"/>
<polygon fill="#191970" stroke="#191970" points="755.3335,-242.2943 745.4041,-238.5988 750.8618,-247.6798 755.3335,-242.2943"/>
</g>
<!-- Node2 -->
<g id="node3" class="node">
<title>Node2</title>
<g id="a_node3"><a xlink:href="_a_r_video_source_8h.html" target="_top" xlink:title="ARX/ARVideoSource.h">
<polygon fill="#ffffff" stroke="#000000" points="510.9531,-275.5 510.9531,-293.5 629.4336,-293.5 629.4336,-275.5 510.9531,-275.5"/>
<text text-anchor="middle" x="570.1934" y="-281.5" font-family="Helvetica,sans-Serif" font-size="10.00" fill="#000000">ARX/ARVideoSource.h</text>
</a>
</g>
</g>
<!-- Node0&#45;&gt;Node2 -->
<g id="edge2" class="edge">
<title>Node0&#45;&gt;Node2</title>
<path fill="none" stroke="#191970" d="M758.8344,-495.4746C730.4673,-488.6915 695.386,-477.3336 668.1934,-459 617.6334,-424.9118 610.5757,-404.8911 586.1934,-349 579.8422,-334.4414 575.6948,-316.8876 573.2176,-303.7705"/>
<polygon fill="#191970" stroke="#191970" points="576.6074,-302.8312 571.4573,-293.5723 569.7094,-304.0219 576.6074,-302.8312"/>
</g>
<!-- Node5 -->
<g id="node6" class="node">
<title>Node5</title>
<polygon fill="#ffffff" stroke="#bfbfbf" points="873.3511,-.5 873.3511,-18.5 921.0356,-18.5 921.0356,-.5 873.3511,-.5"/>
<text text-anchor="middle" x="897.1934" y="-6.5" font-family="Helvetica,sans-Serif" font-size="10.00" fill="#000000">stdlib.h</text>
</g>
<!-- Node0&#45;&gt;Node5 -->
<g id="edge80" class="edge">
<title>Node0&#45;&gt;Node5</title>
<path fill="none" stroke="#191970" d="M891.0888,-497.8395C1054.866,-483.4148 1407.1934,-446.357 1407.1934,-394.5 1407.1934,-394.5 1407.1934,-394.5 1407.1934,-339.5 1407.1934,-237.2292 1339.5743,-225.6027 1257.1934,-165 1242.9008,-154.4859 1013.1005,-57.9545 928.3059,-22.4905"/>
<polygon fill="#191970" stroke="#191970" points="929.5145,-19.2022 918.9382,-18.5744 926.8145,-25.6606 929.5145,-19.2022"/>
</g>
<!-- Node15 -->
<g id="node16" class="node">
<title>Node15</title>
<polygon fill="#ffffff" stroke="#bfbfbf" points="1383.9077,-.5 1383.9077,-18.5 1430.479,-18.5 1430.479,-.5 1383.9077,-.5"/>
<text text-anchor="middle" x="1407.1934" y="-6.5" font-family="Helvetica,sans-Serif" font-size="10.00" fill="#000000">math.h</text>
</g>
<!-- Node0&#45;&gt;Node15 -->
<g id="edge81" class="edge">
<title>Node0&#45;&gt;Node15</title>
<path fill="none" stroke="#191970" d="M891.3799,-499.3836C1006.6257,-491.7313 1210.2106,-476.3371 1282.1934,-459 1357.9375,-440.757 1445.1934,-472.41 1445.1934,-394.5 1445.1934,-394.5 1445.1934,-394.5 1445.1934,-119.5 1445.1934,-85.4876 1428.7618,-48.6418 1417.5088,-27.3963"/>
<polygon fill="#191970" stroke="#191970" points="1420.527,-25.6213 1412.6378,-18.5493 1414.395,-28.9975 1420.527,-25.6213"/>
</g>
<!-- Node26 -->
<g id="node27" class="node">
<title>Node26</title>
<g id="a_node27"><a xlink:href="_error_8h.html" target="_top" xlink:title="Defines error codes used in the ARX library. ">
<polygon fill="#ffffff" stroke="#000000" points="1473.5161,-440.5 1473.5161,-458.5 1542.8706,-458.5 1542.8706,-440.5 1473.5161,-440.5"/>
<text text-anchor="middle" x="1508.1934" y="-446.5" font-family="Helvetica,sans-Serif" font-size="10.00" fill="#000000">ARX/Error.h</text>
</a>
</g>
</g>
<!-- Node0&#45;&gt;Node26 -->
<g id="edge37" class="edge">
<title>Node0&#45;&gt;Node26</title>
<path fill="none" stroke="#191970" d="M891.0891,-501.9621C1014.6479,-497.4125 1255.9059,-485.7207 1459.1934,-459 1460.6432,-458.8094 1462.1148,-458.6027 1463.5989,-458.3828"/>
<polygon fill="#191970" stroke="#191970" points="1464.1738,-461.8354 1473.48,-456.7712 1463.047,-454.9266 1464.1738,-461.8354"/>
</g>
<!-- Node27 -->
<g id="node28" class="node">
<title>Node27</title>
<g id="a_node28"><a xlink:href="_a_r_controller_8h.html" target="_top" xlink:title="ARX/ARController.h">
<polygon fill="#ffffff" stroke="#000000" points="677.0063,-440.5 677.0063,-458.5 781.3804,-458.5 781.3804,-440.5 677.0063,-440.5"/>
<text text-anchor="middle" x="729.1934" y="-446.5" font-family="Helvetica,sans-Serif" font-size="10.00" fill="#000000">ARX/ARController.h</text>
</a>
</g>
</g>
<!-- Node0&#45;&gt;Node27 -->
<g id="edge38" class="edge">
<title>Node0&#45;&gt;Node27</title>
<path fill="none" stroke="#191970" d="M795.983,-495.4179C783.7079,-486.9788 765.2035,-474.257 750.7825,-464.3426"/>
<polygon fill="#191970" stroke="#191970" points="752.6467,-461.3768 742.4234,-458.5956 748.6809,-467.1451 752.6467,-461.3768"/>
</g>
<!-- Node42 -->
<g id="node43" class="node">
<title>Node42</title>
<g id="a_node43"><a xlink:href="video_r_g_b_a_8h.html" target="_top" xlink:title="ARX/ARVideo/videoRGBA.h">
<polygon fill="#ffffff" stroke="#000000" points="56.2832,-385.5 56.2832,-403.5 198.1035,-403.5 198.1035,-385.5 56.2832,-385.5"/>
<text text-anchor="middle" x="127.1934" y="-391.5" font-family="Helvetica,sans-Serif" font-size="10.00" fill="#000000">ARX/ARVideo/videoRGBA.h</text>
</a>
</g>
</g>
<!-- Node0&#45;&gt;Node42 -->
<g id="edge78" class="edge">
<title>Node0&#45;&gt;Node42</title>
<path fill="none" stroke="#191970" d="M727.3377,-500.8357C575.002,-493.6388 259.1168,-476.8013 212.1934,-459 184.7599,-448.5926 158.7348,-426.3726 142.877,-410.9412"/>
<polygon fill="#191970" stroke="#191970" points="145.0933,-408.2065 135.5576,-403.589 140.1324,-413.1452 145.0933,-408.2065"/>
</g>
<!-- Node2&#45;&gt;Node1 -->
<g id="edge3" class="edge">
<title>Node2&#45;&gt;Node1</title>
<path fill="none" stroke="#191970" d="M597.1095,-275.4179C624.3247,-266.2348 666.5686,-251.9807 696.7676,-241.7909"/>
<polygon fill="#191970" stroke="#191970" points="698.152,-245.0177 706.5082,-238.5042 695.914,-238.3851 698.152,-245.0177"/>
</g>
<!-- Node3 -->
<g id="node4" class="node">
<title>Node3</title>
<g id="a_node4"><a xlink:href="ar_8h.html" target="_top" xlink:title="artoolkitX core routines. ">
<polygon fill="#ffffff" stroke="#000000" points="666.8462,-110.5 666.8462,-128.5 739.5405,-128.5 739.5405,-110.5 666.8462,-110.5"/>
<text text-anchor="middle" x="703.1934" y="-116.5" font-family="Helvetica,sans-Serif" font-size="10.00" fill="#000000">ARX/AR/ar.h</text>
</a>
</g>
</g>
<!-- Node2&#45;&gt;Node3 -->
<g id="edge4" class="edge">
<title>Node2&#45;&gt;Node3</title>
<path fill="none" stroke="#191970" d="M574.2674,-275.2205C583.9738,-253.8668 610.2135,-200.3713 644.1934,-165 655.1905,-153.5526 669.2022,-142.6245 680.8111,-134.3485"/>
<polygon fill="#191970" stroke="#191970" points="682.9126,-137.1504 689.1305,-128.5721 678.9202,-131.4005 682.9126,-137.1504"/>
</g>
<!-- Node20 -->
<g id="node21" class="node">
<title>Node20</title>
<g id="a_node21"><a xlink:href="video_8h.html" target="_top" xlink:title="ARX/ARVideo/video.h">
<polygon fill="#ffffff" stroke="#000000" points="268.4531,-220.5 268.4531,-238.5 381.9336,-238.5 381.9336,-220.5 268.4531,-220.5"/>
<text text-anchor="middle" x="325.1934" y="-226.5" font-family="Helvetica,sans-Serif" font-size="10.00" fill="#000000">ARX/ARVideo/video.h</text>
</a>
</g>
</g>
<!-- Node2&#45;&gt;Node20 -->
<g id="edge28" class="edge">
<title>Node2&#45;&gt;Node20</title>
<path fill="none" stroke="#191970" d="M530.0109,-275.4795C487.7311,-265.9881 421.1019,-251.0305 375.3907,-240.7688"/>
<polygon fill="#191970" stroke="#191970" points="375.9216,-237.3009 365.3977,-238.5255 374.3882,-244.1309 375.9216,-237.3009"/>
</g>
<!-- Node24 -->
<g id="node25" class="node">
<title>Node24</title>
<polygon fill="#ffffff" stroke="#bfbfbf" points="514.5776,-220.5 514.5776,-238.5 557.8091,-238.5 557.8091,-220.5 514.5776,-220.5"/>
<text text-anchor="middle" x="536.1934" y="-226.5" font-family="Helvetica,sans-Serif" font-size="10.00" fill="#000000">mutex</text>
</g>
<!-- Node2&#45;&gt;Node24 -->
<g id="edge35" class="edge">
<title>Node2&#45;&gt;Node24</title>
<path fill="none" stroke="#191970" d="M564.579,-275.4179C559.8825,-267.8207 553.0405,-256.7527 547.2505,-247.3866"/>
<polygon fill="#191970" stroke="#191970" points="550.1651,-245.445 541.9298,-238.7795 544.2109,-249.1258 550.1651,-245.445"/>
</g>
<!-- Node25 -->
<g id="node26" class="node">
<title>Node25</title>
<polygon fill="#ffffff" stroke="#bfbfbf" points="614.0654,-220.5 614.0654,-238.5 672.3213,-238.5 672.3213,-220.5 614.0654,-220.5"/>
<text text-anchor="middle" x="643.1934" y="-226.5" font-family="Helvetica,sans-Serif" font-size="10.00" fill="#000000">pthread.h</text>
</g>
<!-- Node2&#45;&gt;Node25 -->
<g id="edge36" class="edge">
<title>Node2&#45;&gt;Node25</title>
<path fill="none" stroke="#191970" d="M582.2478,-275.4179C593.2767,-267.1084 609.8165,-254.6469 622.884,-244.8015"/>
<polygon fill="#191970" stroke="#191970" points="624.9963,-247.5924 630.877,-238.7795 620.784,-242.0016 624.9963,-247.5924"/>
</g>
<!-- Node4 -->
<g id="node5" class="node">
<title>Node4</title>
<polygon fill="#ffffff" stroke="#bfbfbf" points="563.4619,-.5 563.4619,-18.5 608.9248,-18.5 608.9248,-.5 563.4619,-.5"/>
<text text-anchor="middle" x="586.1934" y="-6.5" font-family="Helvetica,sans-Serif" font-size="10.00" fill="#000000">stdio.h</text>
</g>
<!-- Node3&#45;&gt;Node4 -->
<g id="edge5" class="edge">
<title>Node3&#45;&gt;Node4</title>
<path fill="none" stroke="#191970" d="M689.724,-110.4452C677.154,-101.7322 658.1442,-87.8705 643.1934,-74 627.1968,-59.1594 610.9047,-40.2646 599.8583,-26.7685"/>
<polygon fill="#191970" stroke="#191970" points="602.4147,-24.363 593.4125,-18.7761 596.9658,-28.7574 602.4147,-24.363"/>
</g>
<!-- Node3&#45;&gt;Node5 -->
<g id="edge6" class="edge">
<title>Node3&#45;&gt;Node5</title>
<path fill="none" stroke="#191970" d="M739.8131,-113.7288C783.6964,-106.1414 853.7553,-91.6792 873.1934,-74 886.0126,-62.3407 892.0098,-43.1905 894.8003,-28.7791"/>
<polygon fill="#191970" stroke="#191970" points="898.2599,-29.3097 896.3691,-18.8849 891.3462,-28.2134 898.2599,-29.3097"/>
</g>
<!-- Node6 -->
<g id="node7" class="node">
<title>Node6</title>
<polygon fill="#ffffff" stroke="#bfbfbf" points="236.0728,-55.5 236.0728,-73.5 284.314,-73.5 284.314,-55.5 236.0728,-55.5"/>
<text text-anchor="middle" x="260.1934" y="-61.5" font-family="Helvetica,sans-Serif" font-size="10.00" fill="#000000">stdint.h</text>
</g>
<!-- Node3&#45;&gt;Node6 -->
<g id="edge7" class="edge">
<title>Node3&#45;&gt;Node6</title>
<path fill="none" stroke="#191970" d="M666.6793,-117.5334C596.3532,-113.2987 437.1786,-101.5461 294.8085,-74.0313"/>
<polygon fill="#191970" stroke="#191970" points="295.0756,-70.5169 284.5883,-72.0228 293.7257,-77.3855 295.0756,-70.5169"/>
</g>
<!-- Node7 -->
<g id="node8" class="node">
<title>Node7</title>
<polygon fill="#ffffff" stroke="#bfbfbf" points="1233.7969,-.5 1233.7969,-18.5 1282.5898,-18.5 1282.5898,-.5 1233.7969,-.5"/>
<text text-anchor="middle" x="1258.1934" y="-6.5" font-family="Helvetica,sans-Serif" font-size="10.00" fill="#000000">string.h</text>
</g>
<!-- Node3&#45;&gt;Node7 -->
<g id="edge8" class="edge">
<title>Node3&#45;&gt;Node7</title>
<path fill="none" stroke="#191970" d="M739.8301,-118.2338C834.6786,-114.5836 1086.2814,-102.4297 1164.1934,-74 1193.7529,-63.2139 1222.8516,-40.9484 1240.6613,-25.6216"/>
<polygon fill="#191970" stroke="#191970" points="1243.2763,-27.9814 1248.45,-18.7357 1238.6398,-22.7371 1243.2763,-27.9814"/>
</g>
<!-- Node8 -->
<g id="node9" class="node">
<title>Node8</title>
<polygon fill="#ffffff" stroke="#bfbfbf" points="317.6763,-.5 317.6763,-18.5 408.7104,-18.5 408.7104,-.5 317.6763,-.5"/>
<text text-anchor="middle" x="363.1934" y="-6.5" font-family="Helvetica,sans-Serif" font-size="10.00" fill="#000000">ARX/AR/config.h</text>
</g>
<!-- Node3&#45;&gt;Node8 -->
<g id="edge9" class="edge">
<title>Node3&#45;&gt;Node8</title>
<path fill="none" stroke="#191970" d="M666.7543,-116.2671C620.1374,-111.2582 537.4978,-99.4138 471.1934,-74 453.8636,-67.3577 411.9408,-41.1051 385.7186,-24.2089"/>
<polygon fill="#191970" stroke="#191970" points="387.4607,-21.1673 377.1643,-18.6702 383.6562,-27.0432 387.4607,-21.1673"/>
</g>
<!-- Node9 -->
<g id="node10" class="node">
<title>Node9</title>
<g id="a_node10"><a xlink:href="ar_config_8h.html" target="_top" xlink:title="ARX/AR/arConfig.h">
<polygon fill="#ffffff" stroke="#000000" points="652.1196,-55.5 652.1196,-73.5 754.2671,-73.5 754.2671,-55.5 652.1196,-55.5"/>
<text text-anchor="middle" x="703.1934" y="-61.5" font-family="Helvetica,sans-Serif" font-size="10.00" fill="#000000">ARX/AR/arConfig.h</text>
</a>
</g>
</g>
<!-- Node3&#45;&gt;Node9 -->
<g id="edge10" class="edge">
<title>Node3&#45;&gt;Node9</title>
<path fill="none" stroke="#191970" d="M703.1934,-110.4179C703.1934,-103.2164 703.1934,-92.8962 703.1934,-83.8632"/>
<polygon fill="#191970" stroke="#191970" points="706.6935,-83.7794 703.1934,-73.7795 699.6935,-83.7795 706.6935,-83.7794"/>
</g>
<!-- Node10 -->
<g id="node11" class="node">
<title>Node10</title>
<g id="a_node11"><a xlink:href="log_8h.html" target="_top" xlink:title="Logging utilities. ">
<polygon fill="#ffffff" stroke="#000000" points="1063.1245,-55.5 1063.1245,-73.5 1155.2622,-73.5 1155.2622,-55.5 1063.1245,-55.5"/>
<text text-anchor="middle" x="1109.1934" y="-61.5" font-family="Helvetica,sans-Serif" font-size="10.00" fill="#000000">ARX/ARUtil/log.h</text>
</a>
</g>
</g>
<!-- Node3&#45;&gt;Node10 -->
<g id="edge11" class="edge">
<title>Node3&#45;&gt;Node10</title>
<path fill="none" stroke="#191970" d="M739.5805,-114.5707C810.6526,-104.9427 968.351,-83.5796 1052.962,-72.1176"/>
<polygon fill="#191970" stroke="#191970" points="1053.4677,-75.5811 1062.9073,-70.7703 1052.528,-68.6445 1053.4677,-75.5811"/>
</g>
<!-- Node14 -->
<g id="node15" class="node">
<title>Node14</title>
<g id="a_node15"><a xlink:href="matrix_8h.html" target="_top" xlink:title="ARX/AR/matrix.h">
<polygon fill="#ffffff" stroke="#000000" points="1287.4077,-55.5 1287.4077,-73.5 1378.979,-73.5 1378.979,-55.5 1287.4077,-55.5"/>
<text text-anchor="middle" x="1333.1934" y="-61.5" font-family="Helvetica,sans-Serif" font-size="10.00" fill="#000000">ARX/AR/matrix.h</text>
</a>
</g>
</g>
<!-- Node3&#45;&gt;Node14 -->
<g id="edge18" class="edge">
<title>Node3&#45;&gt;Node14</title>
<path fill="none" stroke="#191970" d="M739.7879,-116.3052C845.2811,-107.0955 1150.5216,-80.4475 1277.1336,-69.3941"/>
<polygon fill="#191970" stroke="#191970" points="1277.7221,-72.8561 1287.3798,-68.4996 1277.1133,-65.8827 1277.7221,-72.8561"/>
</g>
<!-- Node16 -->
<g id="node17" class="node">
<title>Node16</title>
<g id="a_node17"><a xlink:href="icp_8h.html" target="_top" xlink:title="ARX/AR/icp.h">
<polygon fill="#ffffff" stroke="#000000" points="480.627,-55.5 480.627,-73.5 557.7598,-73.5 557.7598,-55.5 480.627,-55.5"/>
<text text-anchor="middle" x="519.1934" y="-61.5" font-family="Helvetica,sans-Serif" font-size="10.00" fill="#000000">ARX/AR/icp.h</text>
</a>
</g>
</g>
<!-- Node3&#45;&gt;Node16 -->
<g id="edge20" class="edge">
<title>Node3&#45;&gt;Node16</title>
<path fill="none" stroke="#191970" d="M672.8095,-110.4179C641.6873,-101.115 593.1548,-86.608 558.985,-76.3943"/>
<polygon fill="#191970" stroke="#191970" points="559.9001,-73.0148 549.3165,-73.5042 557.8953,-79.7216 559.9001,-73.0148"/>
</g>
<!-- Node18 -->
<g id="node19" class="node">
<title>Node18</title>
<g id="a_node19"><a xlink:href="param_8h.html" target="_top" xlink:title="artoolkitX functions for handling calibrated camera parameters. ">
<polygon fill="#ffffff" stroke="#000000" points="771.8462,-55.5 771.8462,-73.5 864.5405,-73.5 864.5405,-55.5 771.8462,-55.5"/>
<text text-anchor="middle" x="818.1934" y="-61.5" font-family="Helvetica,sans-Serif" font-size="10.00" fill="#000000">ARX/AR/param.h</text>
</a>
</g>
</g>
<!-- Node3&#45;&gt;Node18 -->
<g id="edge23" class="edge">
<title>Node3&#45;&gt;Node18</title>
<path fill="none" stroke="#191970" d="M717.0169,-110.4179C733.8143,-101.5011 762.2241,-87.803 784.759,-77.6873"/>
<polygon fill="#191970" stroke="#191970" points="786.2776,-80.8427 794.0061,-73.5956 783.4451,-74.4414 786.2776,-80.8427"/>
</g>
<!-- Node19 -->
<g id="node20" class="node">
<title>Node19</title>
<g id="a_node20"><a xlink:href="ar_image_proc_8h.html" target="_top" xlink:title="artoolkitX functions for 2D luminance image processing. ">
<polygon fill="#ffffff" stroke="#000000" points="302.3955,-55.5 302.3955,-73.5 423.9912,-73.5 423.9912,-55.5 302.3955,-55.5"/>
<text text-anchor="middle" x="363.1934" y="-61.5" font-family="Helvetica,sans-Serif" font-size="10.00" fill="#000000">ARX/AR/arImageProc.h</text>
</a>
</g>
</g>
<!-- Node3&#45;&gt;Node19 -->
<g id="edge25" class="edge">
<title>Node3&#45;&gt;Node19</title>
<path fill="none" stroke="#191970" d="M666.738,-114.2761C608.585,-105.3438 494.5265,-86.9641 423.9321,-75.2113"/>
<polygon fill="#191970" stroke="#191970" points="424.2836,-71.7217 413.8437,-73.5273 423.131,-78.6261 424.2836,-71.7217"/>
</g>
<!-- Node10&#45;&gt;Node4 -->
<g id="edge12" class="edge">
<title>Node10&#45;&gt;Node4</title>
<path fill="none" stroke="#191970" d="M1062.7806,-59.6191C958.761,-48.6802 709.0561,-22.4206 619.151,-12.9659"/>
<polygon fill="#191970" stroke="#191970" points="619.3109,-9.4635 608.9997,-11.8984 618.5788,-16.4251 619.3109,-9.4635"/>
</g>
<!-- Node10&#45;&gt;Node5 -->
<g id="edge13" class="edge">
<title>Node10&#45;&gt;Node5</title>
<path fill="none" stroke="#191970" d="M1074.1859,-55.4179C1034.4573,-45.1109 970.1049,-28.4157 930.9165,-18.2489"/>
<polygon fill="#191970" stroke="#191970" points="931.6075,-14.8124 921.049,-15.689 929.8497,-21.5881 931.6075,-14.8124"/>
</g>
<!-- Node10&#45;&gt;Node7 -->
<g id="edge14" class="edge">
<title>Node10&#45;&gt;Node7</title>
<path fill="none" stroke="#191970" d="M1133.7977,-55.4179C1158.3854,-46.3419 1196.3927,-32.3123 1223.9266,-22.1488"/>
<polygon fill="#191970" stroke="#191970" points="1225.3832,-25.342 1233.5525,-18.5956 1222.9592,-18.7751 1225.3832,-25.342"/>
</g>
<!-- Node11 -->
<g id="node12" class="node">
<title>Node11</title>
<polygon fill="#ffffff" stroke="#bfbfbf" points="1164.127,-.5 1164.127,-18.5 1216.2598,-18.5 1216.2598,-.5 1164.127,-.5"/>
<text text-anchor="middle" x="1190.1934" y="-6.5" font-family="Helvetica,sans-Serif" font-size="10.00" fill="#000000">stdarg.h</text>
</g>
<!-- Node10&#45;&gt;Node11 -->
<g id="edge15" class="edge">
<title>Node10&#45;&gt;Node11</title>
<path fill="none" stroke="#191970" d="M1122.5689,-55.4179C1134.9974,-46.9788 1153.7331,-34.257 1168.3343,-24.3426"/>
<polygon fill="#191970" stroke="#191970" points="1170.4911,-27.1088 1176.798,-18.5956 1166.5588,-21.3176 1170.4911,-27.1088"/>
</g>
<!-- Node12 -->
<g id="node13" class="node">
<title>Node12</title>
<polygon fill="#ffffff" stroke="#bfbfbf" points="960.4619,-.5 960.4619,-18.5 1025.9248,-18.5 1025.9248,-.5 960.4619,-.5"/>
<text text-anchor="middle" x="993.1934" y="-6.5" font-family="Helvetica,sans-Serif" font-size="10.00" fill="#000000">sys/errno.h</text>
</g>
<!-- Node10&#45;&gt;Node12 -->
<g id="edge16" class="edge">
<title>Node10&#45;&gt;Node12</title>
<path fill="none" stroke="#191970" d="M1090.0383,-55.4179C1071.3999,-46.5807 1042.8567,-33.0473 1021.5798,-22.9591"/>
<polygon fill="#191970" stroke="#191970" points="1022.9122,-19.7174 1012.3769,-18.5956 1019.9132,-26.0424 1022.9122,-19.7174"/>
</g>
<!-- Node13 -->
<g id="node14" class="node">
<title>Node13</title>
<g id="a_node14"><a xlink:href="types_8h.html" target="_top" xlink:title="ARX/ARUtil/types.h">
<polygon fill="#ffffff" stroke="#000000" points="1043.8462,-.5 1043.8462,-18.5 1146.5405,-18.5 1146.5405,-.5 1043.8462,-.5"/>
<text text-anchor="middle" x="1095.1934" y="-6.5" font-family="Helvetica,sans-Serif" font-size="10.00" fill="#000000">ARX/ARUtil/types.h</text>
</a>
</g>
</g>
<!-- Node10&#45;&gt;Node13 -->
<g id="edge17" class="edge">
<title>Node10&#45;&gt;Node13</title>
<path fill="none" stroke="#191970" d="M1106.8815,-55.4179C1105.0283,-48.1372 1102.3636,-37.669 1100.0465,-28.5659"/>
<polygon fill="#191970" stroke="#191970" points="1103.4141,-27.607 1097.5554,-18.7795 1096.6304,-29.3338 1103.4141,-27.607"/>
</g>
<!-- Node14&#45;&gt;Node15 -->
<g id="edge19" class="edge">
<title>Node14&#45;&gt;Node15</title>
<path fill="none" stroke="#191970" d="M1345.413,-55.4179C1356.6603,-47.0584 1373.5615,-34.4966 1386.8448,-24.6239"/>
<polygon fill="#191970" stroke="#191970" points="1389.0175,-27.37 1394.9556,-18.5956 1384.8418,-21.7518 1389.0175,-27.37"/>
</g>
<!-- Node16&#45;&gt;Node4 -->
<g id="edge21" class="edge">
<title>Node16&#45;&gt;Node4</title>
<path fill="none" stroke="#191970" d="M530.257,-55.4179C540.1866,-47.2667 554.9834,-35.1201 566.8645,-25.3669"/>
<polygon fill="#191970" stroke="#191970" points="569.3807,-27.8297 574.8893,-18.7795 564.9393,-22.4192 569.3807,-27.8297"/>
</g>
<!-- Node17 -->
<g id="node18" class="node">
<title>Node17</title>
<g id="a_node18"><a xlink:href="icp_core_8h.html" target="_top" xlink:title="ARX/AR/icpCore.h">
<polygon fill="#ffffff" stroke="#000000" points="446.7896,-.5 446.7896,-18.5 545.5972,-18.5 545.5972,-.5 446.7896,-.5"/>
<text text-anchor="middle" x="496.1934" y="-6.5" font-family="Helvetica,sans-Serif" font-size="10.00" fill="#000000">ARX/AR/icpCore.h</text>
</a>
</g>
</g>
<!-- Node16&#45;&gt;Node17 -->
<g id="edge22" class="edge">
<title>Node16&#45;&gt;Node17</title>
<path fill="none" stroke="#191970" d="M515.3954,-55.4179C512.3176,-48.0581 507.8778,-37.441 504.0424,-28.2695"/>
<polygon fill="#191970" stroke="#191970" points="507.161,-26.6549 500.0739,-18.7795 500.7029,-29.3556 507.161,-26.6549"/>
</g>
<!-- Node18&#45;&gt;Node3 -->
<g id="edge24" class="edge">
<title>Node18&#45;&gt;Node3</title>
<path fill="none" stroke="#191970" d="M804.3443,-73.5956C787.5353,-82.5172 759.1226,-96.2159 736.5936,-106.328"/>
<polygon fill="#191970" stroke="#191970" points="735.0784,-103.1711 727.3496,-110.4179 737.9107,-109.5726 735.0784,-103.1711"/>
</g>
<!-- Node19&#45;&gt;Node3 -->
<g id="edge27" class="edge">
<title>Node19&#45;&gt;Node3</title>
<path fill="none" stroke="#191970" d="M424.1717,-73.5302C490.9363,-83.9783 596.3634,-101.041 656.7534,-111.1785"/>
<polygon fill="#191970" stroke="#191970" points="656.3233,-114.6553 666.7659,-112.8657 657.4866,-107.7526 656.3233,-114.6553"/>
</g>
<!-- Node19&#45;&gt;Node8 -->
<g id="edge26" class="edge">
<title>Node19&#45;&gt;Node8</title>
<path fill="none" stroke="#191970" d="M363.1934,-55.4179C363.1934,-48.2164 363.1934,-37.8962 363.1934,-28.8632"/>
<polygon fill="#191970" stroke="#191970" points="366.6935,-28.7794 363.1934,-18.7795 359.6935,-28.7795 366.6935,-28.7794"/>
</g>
<!-- Node20&#45;&gt;Node3 -->
<g id="edge29" class="edge">
<title>Node20&#45;&gt;Node3</title>
<path fill="none" stroke="#191970" d="M352.5887,-220.4232C391.7846,-207.5411 466.2066,-183.4693 530.1934,-165 572.8303,-152.6932 621.77,-139.949 656.692,-131.09"/>
<polygon fill="#191970" stroke="#191970" points="657.7671,-134.4284 666.6044,-128.5843 656.0516,-127.6419 657.7671,-134.4284"/>
</g>
<!-- Node21 -->
<g id="node22" class="node">
<title>Node21</title>
<g id="a_node22"><a xlink:href="video_config_8h.html" target="_top" xlink:title="ARX/ARVideo/videoConfig.h">
<polygon fill="#ffffff" stroke="#000000" points="0,-110.5 0,-128.5 142.3867,-128.5 142.3867,-110.5 0,-110.5"/>
<text text-anchor="middle" x="71.1934" y="-116.5" font-family="Helvetica,sans-Serif" font-size="10.00" fill="#000000">ARX/ARVideo/videoConfig.h</text>
</a>
</g>
</g>
<!-- Node20&#45;&gt;Node21 -->
<g id="edge30" class="edge">
<title>Node20&#45;&gt;Node21</title>
<path fill="none" stroke="#191970" d="M304.4075,-220.4982C259.6617,-201.1201 154.0394,-155.3782 101.693,-132.7085"/>
<polygon fill="#191970" stroke="#191970" points="102.8338,-129.3885 92.2665,-128.6261 100.052,-135.812 102.8338,-129.3885"/>
</g>
<!-- Node22 -->
<g id="node23" class="node">
<title>Node22</title>
<polygon fill="#ffffff" stroke="#bfbfbf" points="236.6367,-165.5 236.6367,-183.5 283.75,-183.5 283.75,-165.5 236.6367,-165.5"/>
<text text-anchor="middle" x="260.1934" y="-171.5" font-family="Helvetica,sans-Serif" font-size="10.00" fill="#000000">limits.h</text>
</g>
<!-- Node20&#45;&gt;Node22 -->
<g id="edge32" class="edge">
<title>Node20&#45;&gt;Node22</title>
<path fill="none" stroke="#191970" d="M314.4599,-220.4179C304.8267,-212.2667 290.4717,-200.1201 278.9452,-190.3669"/>
<polygon fill="#191970" stroke="#191970" points="281.0547,-187.5671 271.16,-183.7795 276.5331,-192.9108 281.0547,-187.5671"/>
</g>
<!-- Node23 -->
<g id="node24" class="node">
<title>Node23</title>
<g id="a_node24"><a xlink:href="video_luma_8h.html" target="_top" xlink:title="ARX/ARVideo/videoLuma.h">
<polygon fill="#ffffff" stroke="#000000" points="301.9458,-165.5 301.9458,-183.5 440.4409,-183.5 440.4409,-165.5 301.9458,-165.5"/>
<text text-anchor="middle" x="371.1934" y="-171.5" font-family="Helvetica,sans-Serif" font-size="10.00" fill="#000000">ARX/ARVideo/videoLuma.h</text>
</a>
</g>
</g>
<!-- Node20&#45;&gt;Node23 -->
<g id="edge33" class="edge">
<title>Node20&#45;&gt;Node23</title>
<path fill="none" stroke="#191970" d="M327.623,-220.4179C332.6525,-212.425 342.193,-200.5903 351.2063,-190.9377"/>
<polygon fill="#191970" stroke="#191970" points="353.7232,-193.37 358.2256,-183.7795 348.7251,-188.4691 353.7232,-193.37"/>
</g>
<!-- Node21&#45;&gt;Node8 -->
<g id="edge31" class="edge">
<title>Node21&#45;&gt;Node8</title>
<path fill="none" stroke="#191970" d="M85.8401,-110.456C108.3991,-96.8452 153.3266,-70.9911 194.1934,-55 231.6324,-40.3502 275.5159,-28.6894 309.1812,-20.8413"/>
<polygon fill="#191970" stroke="#191970" points="310.3157,-24.1722 319.2826,-18.5289 308.7537,-17.3487 310.3157,-24.1722"/>
</g>
<!-- Node23&#45;&gt;Node20 -->
<g id="edge34" class="edge">
<title>Node23&#45;&gt;Node20</title>
<path fill="none" stroke="#191970" d="M368.6391,-183.7795C363.5865,-191.7552 354.1523,-203.4485 345.2265,-213.0129"/>
<polygon fill="#191970" stroke="#191970" points="342.4644,-210.8303 337.9556,-220.4179 347.4592,-215.7346 342.4644,-210.8303"/>
</g>
<!-- Node27&#45;&gt;Node1 -->
<g id="edge39" class="edge">
<title>Node27&#45;&gt;Node1</title>
<path fill="none" stroke="#191970" d="M729.3601,-440.327C729.9599,-407.3409 732.0152,-294.2972 732.8434,-248.7484"/>
<polygon fill="#191970" stroke="#191970" points="736.3434,-248.7742 733.0259,-238.7122 729.3446,-248.6469 736.3434,-248.7742"/>
</g>
<!-- Node27&#45;&gt;Node2 -->
<g id="edge41" class="edge">
<title>Node27&#45;&gt;Node2</title>
<path fill="none" stroke="#191970" d="M704.0043,-440.4013C685.5644,-432.803 660.7925,-420.5446 643.1934,-404 611.7456,-374.4365 588.8066,-328.4037 577.6996,-302.9637"/>
<polygon fill="#191970" stroke="#191970" points="580.9088,-301.5662 573.7913,-293.7182 574.4612,-304.2919 580.9088,-301.5662"/>
</g>
<!-- Node27&#45;&gt;Node3 -->
<g id="edge40" class="edge">
<title>Node27&#45;&gt;Node3</title>
<path fill="none" stroke="#191970" d="M736.2464,-440.1707C760.4834,-406.8989 836.0784,-292.1996 784.1934,-220 754.9126,-179.2549 706.4742,-224.7451 677.1934,-184 666.6908,-169.3853 677.2342,-149.9218 687.8752,-136.2112"/>
<polygon fill="#191970" stroke="#191970" points="690.5862,-138.4254 694.3262,-128.5126 685.2208,-133.9295 690.5862,-138.4254"/>
</g>
<!-- Node27&#45;&gt;Node4 -->
<g id="edge72" class="edge">
<title>Node27&#45;&gt;Node4</title>
<path fill="none" stroke="#191970" d="M676.9665,-446.4753C574.362,-440.1205 353.9961,-424.2793 326.1934,-404 239.5669,-340.8149 249.6944,-288.8341 227.1934,-184 215.1617,-127.9433 188.935,-97.7014 227.1934,-55 274.071,-2.6783 466.6357,-31.023 553.2276,-18.5761"/>
<polygon fill="#191970" stroke="#191970" points="553.986,-21.997 563.2453,-16.8478 552.7958,-15.0989 553.986,-21.997"/>
</g>
<!-- Node27&#45;&gt;Node5 -->
<g id="edge73" class="edge">
<title>Node27&#45;&gt;Node5</title>
<path fill="none" stroke="#191970" d="M686.1757,-440.4987C595.5254,-421.0929 391.6565,-374.9768 373.1934,-349 368.3012,-342.117 371.9324,-338.3498 373.1934,-330 381.3854,-275.7555 391.1857,-259.5601 429.1934,-220 512.4003,-133.3945 533.3873,-103.6469 643.1934,-55 682.1227,-37.7533 803.2818,-21.0326 863.0915,-13.5657"/>
<polygon fill="#191970" stroke="#191970" points="863.6738,-17.0205 873.1701,-12.3227 862.8169,-10.0731 863.6738,-17.0205"/>
</g>
<!-- Node27&#45;&gt;Node6 -->
<g id="edge74" class="edge">
<title>Node27&#45;&gt;Node6</title>
<path fill="none" stroke="#191970" d="M676.8485,-446.8133C567.0197,-440.7883 320.0018,-425.0588 288.1934,-404 212.1217,-353.6367 179.7424,-309.5479 197.1934,-220 207.3659,-167.8006 235.0733,-110.9632 250.1297,-82.6545"/>
<polygon fill="#191970" stroke="#191970" points="253.3614,-84.0369 255.0485,-73.5772 247.2069,-80.7018 253.3614,-84.0369"/>
</g>
<!-- Node27&#45;&gt;Node7 -->
<g id="edge76" class="edge">
<title>Node27&#45;&gt;Node7</title>
<path fill="none" stroke="#191970" d="M781.6191,-447.3185C890.0204,-442.364 1135.3576,-428.7317 1215.1934,-404 1271.541,-386.5445 1331.1934,-398.4894 1331.1934,-339.5 1331.1934,-339.5 1331.1934,-339.5 1331.1934,-229.5 1331.1934,-156.4849 1300.7856,-143.432 1278.1934,-74 1273.2054,-58.6707 1267.8059,-41.2011 1263.8759,-28.3126"/>
<polygon fill="#191970" stroke="#191970" points="1267.2152,-27.2636 1260.9616,-18.7112 1260.517,-29.2967 1267.2152,-27.2636"/>
</g>
<!-- Node27&#45;&gt;Node15 -->
<g id="edge75" class="edge">
<title>Node27&#45;&gt;Node15</title>
<path fill="none" stroke="#191970" d="M781.6596,-448.781C899.6762,-446.5725 1182.6455,-437.8077 1271.1934,-404 1381.9591,-361.7094 1407.1934,-293.0645 1407.1934,-174.5 1407.1934,-174.5 1407.1934,-174.5 1407.1934,-119.5 1407.1934,-87.7718 1407.1934,-50.8957 1407.1934,-28.917"/>
<polygon fill="#191970" stroke="#191970" points="1410.6935,-28.6266 1407.1934,-18.6267 1403.6935,-28.6267 1410.6935,-28.6266"/>
</g>
<!-- Node27&#45;&gt;Node25 -->
<g id="edge77" class="edge">
<title>Node27&#45;&gt;Node25</title>
<path fill="none" stroke="#191970" d="M725.6075,-440.327C712.6583,-407.2011 668.1481,-293.3378 650.4928,-248.173"/>
<polygon fill="#191970" stroke="#191970" points="653.6951,-246.7516 646.7945,-238.7122 647.1756,-249.3002 653.6951,-246.7516"/>
</g>
<!-- Node28 -->
<g id="node29" class="node">
<title>Node28</title>
<g id="a_node29"><a xlink:href="_a_r_video_view_8h.html" target="_top" xlink:title="ARX/ARVideoView.h">
<polygon fill="#ffffff" stroke="#000000" points="382.3193,-330.5 382.3193,-348.5 490.0674,-348.5 490.0674,-330.5 382.3193,-330.5"/>
<text text-anchor="middle" x="436.1934" y="-336.5" font-family="Helvetica,sans-Serif" font-size="10.00" fill="#000000">ARX/ARVideoView.h</text>
</a>
</g>
</g>
<!-- Node27&#45;&gt;Node28 -->
<g id="edge42" class="edge">
<title>Node27&#45;&gt;Node28</title>
<path fill="none" stroke="#191970" d="M695.3577,-440.469C664.8935,-432.0316 619.0678,-418.5769 580.1934,-404 538.7135,-388.4461 492.1755,-366.8039 463.5229,-352.9725"/>
<polygon fill="#191970" stroke="#191970" points="465.049,-349.8228 454.5248,-348.6014 461.9903,-356.1192 465.049,-349.8228"/>
</g>
<!-- Node30 -->
<g id="node31" class="node">
<title>Node30</title>
<g id="a_node31"><a xlink:href="_a_r_tracker_square_8h.html" target="_top" xlink:title="ARX/ARTrackerSquare.h">
<polygon fill="#ffffff" stroke="#000000" points="918.6099,-385.5 918.6099,-403.5 1045.7769,-403.5 1045.7769,-385.5 918.6099,-385.5"/>
<text text-anchor="middle" x="982.1934" y="-391.5" font-family="Helvetica,sans-Serif" font-size="10.00" fill="#000000">ARX/ARTrackerSquare.h</text>
</a>
</g>
</g>
<!-- Node27&#45;&gt;Node30 -->
<g id="edge48" class="edge">
<title>Node27&#45;&gt;Node30</title>
<path fill="none" stroke="#191970" d="M770.6879,-440.4795C814.44,-430.9681 883.4423,-415.9676 930.6542,-405.7042"/>
<polygon fill="#191970" stroke="#191970" points="931.648,-409.07 940.6762,-403.5255 930.1609,-402.2297 931.648,-409.07"/>
</g>
<!-- Node32 -->
<g id="node33" class="node">
<title>Node32</title>
<g id="a_node33"><a xlink:href="_a_r_trackable_8h.html" target="_top" xlink:title="ARX/ARTrackable.h">
<polygon fill="#ffffff" stroke="#000000" points="936.7256,-220.5 936.7256,-238.5 1041.6611,-238.5 1041.6611,-220.5 936.7256,-220.5"/>
<text text-anchor="middle" x="989.1934" y="-226.5" font-family="Helvetica,sans-Serif" font-size="10.00" fill="#000000">ARX/ARTrackable.h</text>
</a>
</g>
</g>
<!-- Node27&#45;&gt;Node32 -->
<g id="edge69" class="edge">
<title>Node27&#45;&gt;Node32</title>
<path fill="none" stroke="#191970" d="M742.6897,-440.4658C754.7388,-431.9761 772.4067,-418.4448 785.1934,-404 830.0656,-353.3089 813.6469,-317.6846 866.1934,-275 885.9091,-258.9845 911.8004,-248.2867 934.7404,-241.3134"/>
<polygon fill="#191970" stroke="#191970" points="935.7199,-244.6737 944.3645,-238.5482 933.7868,-237.9458 935.7199,-244.6737"/>
</g>
<!-- Node35 -->
<g id="node36" class="node">
<title>Node35</title>
<polygon fill="#ffffff" stroke="#bfbfbf" points="1062.1367,-110.5 1062.1367,-128.5 1114.25,-128.5 1114.25,-110.5 1062.1367,-110.5"/>
<text text-anchor="middle" x="1088.1934" y="-116.5" font-family="Helvetica,sans-Serif" font-size="10.00" fill="#000000">memory</text>
</g>
<!-- Node27&#45;&gt;Node35 -->
<g id="edge71" class="edge">
<title>Node27&#45;&gt;Node35</title>
<path fill="none" stroke="#191970" d="M781.6558,-448.1114C859.4971,-445.0419 1009.6799,-435.2324 1133.1934,-404 1207.5256,-385.2039 1293.1934,-416.1718 1293.1934,-339.5 1293.1934,-339.5 1293.1934,-339.5 1293.1934,-284.5 1293.1934,-225.0702 1278.4647,-203.5021 1233.1934,-165 1202.4062,-138.8163 1156.5461,-127.6765 1124.6749,-122.952"/>
<polygon fill="#191970" stroke="#191970" points="1124.8206,-119.4404 1114.4447,-121.5833 1123.8922,-126.3786 1124.8206,-119.4404"/>
</g>
<!-- Node36 -->
<g id="node37" class="node">
<title>Node36</title>
<polygon fill="#ffffff" stroke="#bfbfbf" points="1180.5776,-165.5 1180.5776,-183.5 1223.8091,-183.5 1223.8091,-165.5 1180.5776,-165.5"/>
<text text-anchor="middle" x="1202.1934" y="-171.5" font-family="Helvetica,sans-Serif" font-size="10.00" fill="#000000">vector</text>
</g>
<!-- Node27&#45;&gt;Node36 -->
<g id="edge70" class="edge">
<title>Node27&#45;&gt;Node36</title>
<path fill="none" stroke="#191970" d="M781.5513,-444.0492C914.5968,-429.4957 1255.1934,-387.5469 1255.1934,-339.5 1255.1934,-339.5 1255.1934,-339.5 1255.1934,-284.5 1255.1934,-248.8611 1232.3352,-212.5906 1216.6419,-191.8886"/>
<polygon fill="#191970" stroke="#191970" points="1219.1831,-189.4587 1210.2429,-183.7733 1213.6864,-193.793 1219.1831,-189.4587"/>
</g>
<!-- Node28&#45;&gt;Node1 -->
<g id="edge43" class="edge">
<title>Node28&#45;&gt;Node1</title>
<path fill="none" stroke="#191970" d="M490.2166,-332.9474C531.915,-326.5737 590.368,-314.7297 638.1934,-294 666.9587,-281.5317 696.2337,-260.041 714.5365,-245.3184"/>
<polygon fill="#191970" stroke="#191970" points="717.0836,-247.7556 722.5898,-238.7039 712.6407,-242.3463 717.0836,-247.7556"/>
</g>
<!-- Node28&#45;&gt;Node2 -->
<g id="edge44" class="edge">
<title>Node28&#45;&gt;Node2</title>
<path fill="none" stroke="#191970" d="M458.3207,-330.4179C480.2392,-321.4215 514.0155,-307.5581 538.7225,-297.4172"/>
<polygon fill="#191970" stroke="#191970" points="540.111,-300.6306 548.0331,-293.5956 537.453,-294.1549 540.111,-300.6306"/>
</g>
<!-- Node28&#45;&gt;Node3 -->
<g id="edge45" class="edge">
<title>Node28&#45;&gt;Node3</title>
<path fill="none" stroke="#191970" d="M423.7314,-330.2921C408.6345,-317.9466 386.4737,-295.2362 397.1934,-275 417.5629,-236.5473 520.0348,-183.9773 559.1934,-165 590.4291,-149.8623 627.8698,-138.2128 656.7437,-130.4922"/>
<polygon fill="#191970" stroke="#191970" points="657.7835,-133.8381 666.5753,-127.9259 656.0155,-127.065 657.7835,-133.8381"/>
</g>
<!-- Node29 -->
<g id="node30" class="node">
<title>Node29</title>
<g id="a_node30"><a xlink:href="arg_8h.html" target="_top" xlink:title="A collection of useful graphics routines for artoolkitX. ">
<polygon fill="#ffffff" stroke="#000000" points="405.9028,-275.5 405.9028,-293.5 492.4839,-293.5 492.4839,-275.5 405.9028,-275.5"/>
<text text-anchor="middle" x="449.1934" y="-281.5" font-family="Helvetica,sans-Serif" font-size="10.00" fill="#000000">ARX/ARG/arg.h</text>
</a>
</g>
</g>
<!-- Node28&#45;&gt;Node29 -->
<g id="edge46" class="edge">
<title>Node28&#45;&gt;Node29</title>
<path fill="none" stroke="#191970" d="M438.34,-330.4179C440.0609,-323.1372 442.5352,-312.669 444.6869,-303.5659"/>
<polygon fill="#191970" stroke="#191970" points="448.1058,-304.3164 447,-293.7795 441.2936,-302.7062 448.1058,-304.3164"/>
</g>
<!-- Node29&#45;&gt;Node3 -->
<g id="edge47" class="edge">
<title>Node29&#45;&gt;Node3</title>
<path fill="none" stroke="#191970" d="M455.5059,-275.1638C465.014,-261.6396 484.1512,-236.4241 505.1934,-220 556.9585,-179.5958 627.5013,-148.4641 668.9126,-132.1545"/>
<polygon fill="#191970" stroke="#191970" points="670.2272,-135.3988 678.2859,-128.5206 667.6969,-128.8721 670.2272,-135.3988"/>
</g>
<!-- Node30&#45;&gt;Node3 -->
<g id="edge68" class="edge">
<title>Node30&#45;&gt;Node3</title>
<path fill="none" stroke="#191970" d="M1008.9308,-385.4292C1026.1576,-378.2137 1047.6116,-366.4067 1060.1934,-349 1108.9581,-281.5346 1150.5586,-227.1633 1095.1934,-165 1072.5558,-139.5829 848.8634,-126.2094 749.8901,-121.4971"/>
<polygon fill="#191970" stroke="#191970" points="750.0177,-117.9993 739.8654,-121.0292 749.6913,-124.9917 750.0177,-117.9993"/>
</g>
<!-- Node31 -->
<g id="node32" class="node">
<title>Node31</title>
<g id="a_node32"><a xlink:href="_a_r_trackable_square_8h.html" target="_top" xlink:title="ARX/ARTrackableSquare.h">
<polygon fill="#ffffff" stroke="#000000" points="913.6025,-330.5 913.6025,-348.5 1050.7842,-348.5 1050.7842,-330.5 913.6025,-330.5"/>
<text text-anchor="middle" x="982.1934" y="-336.5" font-family="Helvetica,sans-Serif" font-size="10.00" fill="#000000">ARX/ARTrackableSquare.h</text>
</a>
</g>
</g>
<!-- Node30&#45;&gt;Node31 -->
<g id="edge49" class="edge">
<title>Node30&#45;&gt;Node31</title>
<path fill="none" stroke="#191970" d="M982.1934,-385.4179C982.1934,-378.2164 982.1934,-367.8962 982.1934,-358.8632"/>
<polygon fill="#191970" stroke="#191970" points="985.6935,-358.7794 982.1934,-348.7795 978.6935,-358.7795 985.6935,-358.7794"/>
</g>
<!-- Node37 -->
<g id="node38" class="node">
<title>Node37</title>
<g id="a_node38"><a xlink:href="_a_r_trackable_multi_square_8h.html" target="_top" xlink:title="ARX/ARTrackableMultiSquare.h">
<polygon fill="#ffffff" stroke="#000000" points="875.0459,-275.5 875.0459,-293.5 1033.3408,-293.5 1033.3408,-275.5 875.0459,-275.5"/>
<text text-anchor="middle" x="954.1934" y="-281.5" font-family="Helvetica,sans-Serif" font-size="10.00" fill="#000000">ARX/ARTrackableMultiSquare.h</text>
</a>
</g>
</g>
<!-- Node30&#45;&gt;Node37 -->
<g id="edge58" class="edge">
<title>Node30&#45;&gt;Node37</title>
<path fill="none" stroke="#191970" d="M952.2754,-385.4465C934.9159,-378.4809 914.5002,-366.9446 904.1934,-349 893.6413,-330.6285 912.4753,-311.7127 929.9664,-299.1564"/>
<polygon fill="#191970" stroke="#191970" points="931.9735,-302.0244 938.3103,-293.5336 928.0616,-296.2195 931.9735,-302.0244"/>
</g>
<!-- Node39 -->
<g id="node40" class="node">
<title>Node39</title>
<g id="a_node40"><a xlink:href="_a_r_tracker_video_8h.html" target="_top" xlink:title="ARX/ARTrackerVideo.h">
<polygon fill="#ffffff" stroke="#000000" points="1107.0327,-330.5 1107.0327,-348.5 1227.354,-348.5 1227.354,-330.5 1107.0327,-330.5"/>
<text text-anchor="middle" x="1167.1934" y="-336.5" font-family="Helvetica,sans-Serif" font-size="10.00" fill="#000000">ARX/ARTrackerVideo.h</text>
</a>
</g>
</g>
<!-- Node30&#45;&gt;Node39 -->
<g id="edge62" class="edge">
<title>Node30&#45;&gt;Node39</title>
<path fill="none" stroke="#191970" d="M1012.7423,-385.4179C1044.0337,-376.115 1092.83,-361.608 1127.1854,-351.3943"/>
<polygon fill="#191970" stroke="#191970" points="1128.3185,-354.7089 1136.9065,-348.5042 1126.3237,-347.9991 1128.3185,-354.7089"/>
</g>
<!-- Node31&#45;&gt;Node32 -->
<g id="edge50" class="edge">
<title>Node31&#45;&gt;Node32</title>
<path fill="none" stroke="#191970" d="M1002.3784,-330.3585C1016.378,-322.8069 1033.9355,-310.626 1042.1934,-294 1051.7231,-274.8132 1032.5788,-256.2799 1014.6957,-244.042"/>
<polygon fill="#191970" stroke="#191970" points="1016.4572,-241.0138 1006.1493,-238.5647 1012.6801,-246.9073 1016.4572,-241.0138"/>
</g>
<!-- Node32&#45;&gt;Node3 -->
<g id="edge51" class="edge">
<title>Node32&#45;&gt;Node3</title>
<path fill="none" stroke="#191970" d="M948.1521,-220.4509C914.9369,-212.5417 867.2612,-199.8518 827.1934,-184 822.1789,-182.0161 764.3249,-151.6799 729.4411,-133.3279"/>
<polygon fill="#191970" stroke="#191970" points="730.7535,-130.0635 720.2742,-128.5031 727.4931,-136.2579 730.7535,-130.0635"/>
</g>
<!-- Node33 -->
<g id="node34" class="node">
<title>Node33</title>
<g id="a_node34"><a xlink:href="ar_filter_trans_mat_8h.html" target="_top" xlink:title="Provides filtering of transformation matrices (pose estimates). ">
<polygon fill="#ffffff" stroke="#000000" points="836.5293,-165.5 836.5293,-183.5 973.8574,-183.5 973.8574,-165.5 836.5293,-165.5"/>
<text text-anchor="middle" x="905.1934" y="-171.5" font-family="Helvetica,sans-Serif" font-size="10.00" fill="#000000">ARX/AR/arFilterTransMat.h</text>
</a>
</g>
</g>
<!-- Node32&#45;&gt;Node33 -->
<g id="edge52" class="edge">
<title>Node32&#45;&gt;Node33</title>
<path fill="none" stroke="#191970" d="M975.3225,-220.4179C962.4337,-211.9788 943.004,-199.257 927.862,-189.3426"/>
<polygon fill="#191970" stroke="#191970" points="929.3683,-186.1454 919.0849,-183.5956 925.5338,-192.0017 929.3683,-186.1454"/>
</g>
<!-- Node34 -->
<g id="node35" class="node">
<title>Node34</title>
<g id="a_node35"><a xlink:href="_a_r_pattern_8h.html" target="_top" xlink:title="ARX/ARPattern.h">
<polygon fill="#ffffff" stroke="#000000" points="992.2871,-165.5 992.2871,-183.5 1086.0996,-183.5 1086.0996,-165.5 992.2871,-165.5"/>
<text text-anchor="middle" x="1039.1934" y="-171.5" font-family="Helvetica,sans-Serif" font-size="10.00" fill="#000000">ARX/ARPattern.h</text>
</a>
</g>
</g>
<!-- Node32&#45;&gt;Node34 -->
<g id="edge54" class="edge">
<title>Node32&#45;&gt;Node34</title>
<path fill="none" stroke="#191970" d="M997.4498,-220.4179C1004.6442,-212.5041 1015.2622,-200.8243 1023.9887,-191.2251"/>
<polygon fill="#191970" stroke="#191970" points="1026.6205,-193.5332 1030.7575,-183.7795 1021.4409,-188.8245 1026.6205,-193.5332"/>
</g>
<!-- Node32&#45;&gt;Node36 -->
<g id="edge57" class="edge">
<title>Node32&#45;&gt;Node36</title>
<path fill="none" stroke="#191970" d="M1024.366,-220.4179C1065.0412,-209.9149 1131.4066,-192.7783 1170.5302,-182.6759"/>
<polygon fill="#191970" stroke="#191970" points="1171.5209,-186.035 1180.3283,-180.1459 1169.7708,-179.2573 1171.5209,-186.035"/>
</g>
<!-- Node33&#45;&gt;Node3 -->
<g id="edge53" class="edge">
<title>Node33&#45;&gt;Node3</title>
<path fill="none" stroke="#191970" d="M871.8372,-165.4179C837.3772,-156.0352 783.474,-141.3586 745.9152,-131.1322"/>
<polygon fill="#191970" stroke="#191970" points="746.8316,-127.7544 736.2634,-128.5042 744.9926,-134.5085 746.8316,-127.7544"/>
</g>
<!-- Node34&#45;&gt;Node3 -->
<g id="edge55" class="edge">
<title>Node34&#45;&gt;Node3</title>
<path fill="none" stroke="#191970" d="M992.1436,-166.494C989.1151,-165.9862 986.1117,-165.4847 983.1934,-165 901.096,-151.3661 805.3812,-135.9063 749.7974,-126.9716"/>
<polygon fill="#191970" stroke="#191970" points="750.3267,-123.5118 739.8981,-125.3811 749.2162,-130.4232 750.3267,-123.5118"/>
</g>
<!-- Node34&#45;&gt;Node35 -->
<g id="edge56" class="edge">
<title>Node34&#45;&gt;Node35</title>
<path fill="none" stroke="#191970" d="M1047.2847,-165.4179C1054.2646,-157.5833 1064.533,-146.0575 1073.0357,-136.5137"/>
<polygon fill="#191970" stroke="#191970" points="1075.8874,-138.5743 1079.9262,-128.7795 1070.6608,-133.9178 1075.8874,-138.5743"/>
</g>
<!-- Node37&#45;&gt;Node32 -->
<g id="edge59" class="edge">
<title>Node37&#45;&gt;Node32</title>
<path fill="none" stroke="#191970" d="M959.9729,-275.4179C964.8075,-267.8207 971.8508,-256.7527 977.811,-247.3866"/>
<polygon fill="#191970" stroke="#191970" points="980.8723,-249.0952 983.2883,-238.7795 974.9666,-245.337 980.8723,-249.0952"/>
</g>
<!-- Node38 -->
<g id="node39" class="node">
<title>Node38</title>
<g id="a_node39"><a xlink:href="ar_multi_8h.html" target="_top" xlink:title="ARX/AR/arMulti.h">
<polygon fill="#ffffff" stroke="#000000" points="686.0161,-165.5 686.0161,-183.5 780.3706,-183.5 780.3706,-165.5 686.0161,-165.5"/>
<text text-anchor="middle" x="733.1934" y="-171.5" font-family="Helvetica,sans-Serif" font-size="10.00" fill="#000000">ARX/AR/arMulti.h</text>
</a>
</g>
</g>
<!-- Node37&#45;&gt;Node38 -->
<g id="edge60" class="edge">
<title>Node37&#45;&gt;Node38</title>
<path fill="none" stroke="#191970" d="M936.108,-275.4982C897.4184,-256.241 806.4202,-210.9478 760.5881,-188.1354"/>
<polygon fill="#191970" stroke="#191970" points="762.0406,-184.9488 751.5286,-183.6261 758.9214,-191.2155 762.0406,-184.9488"/>
</g>
<!-- Node38&#45;&gt;Node3 -->
<g id="edge61" class="edge">
<title>Node38&#45;&gt;Node3</title>
<path fill="none" stroke="#191970" d="M728.2395,-165.4179C724.1387,-157.8998 718.184,-146.9829 713.1096,-137.6799"/>
<polygon fill="#191970" stroke="#191970" points="716.1161,-135.8824 708.2549,-128.7795 709.9708,-139.2344 716.1161,-135.8824"/>
</g>
<!-- Node40 -->
<g id="node41" class="node">
<title>Node40</title>
<g id="a_node41"><a xlink:href="_a_r_tracker_8h.html" target="_top" xlink:title="ARX/ARTracker.h">
<polygon fill="#ffffff" stroke="#000000" points="1127.0063,-275.5 1127.0063,-293.5 1221.3804,-293.5 1221.3804,-275.5 1127.0063,-275.5"/>
<text text-anchor="middle" x="1174.1934" y="-281.5" font-family="Helvetica,sans-Serif" font-size="10.00" fill="#000000">ARX/ARTracker.h</text>
</a>
</g>
</g>
<!-- Node39&#45;&gt;Node40 -->
<g id="edge63" class="edge">
<title>Node39&#45;&gt;Node40</title>
<path fill="none" stroke="#191970" d="M1168.3493,-330.4179C1169.2658,-323.2164 1170.5793,-312.8962 1171.729,-303.8632"/>
<polygon fill="#191970" stroke="#191970" points="1175.2217,-304.1414 1173.0123,-293.7795 1168.2777,-303.2575 1175.2217,-304.1414"/>
</g>
<!-- Node40&#45;&gt;Node1 -->
<g id="edge64" class="edge">
<title>Node40&#45;&gt;Node1</title>
<path fill="none" stroke="#191970" d="M1126.9986,-278.614C1044.0463,-268.2685 872.6934,-246.898 785.9566,-236.0804"/>
<polygon fill="#191970" stroke="#191970" points="786.1663,-232.5796 775.81,-234.815 785.3,-239.5258 786.1663,-232.5796"/>
</g>
<!-- Node40&#45;&gt;Node32 -->
<g id="edge65" class="edge">
<title>Node40&#45;&gt;Node32</title>
<path fill="none" stroke="#191970" d="M1143.6444,-275.4179C1112.3531,-266.115 1063.5567,-251.608 1029.2013,-241.3943"/>
<polygon fill="#191970" stroke="#191970" points="1030.063,-237.9991 1019.4802,-238.5042 1028.0682,-244.7089 1030.063,-237.9991"/>
</g>
<!-- Node40&#45;&gt;Node36 -->
<g id="edge66" class="edge">
<title>Node40&#45;&gt;Node36</title>
<path fill="none" stroke="#191970" d="M1176.4847,-275.4982C1181.0379,-257.6108 1191.3091,-217.2594 1197.401,-193.3271"/>
<polygon fill="#191970" stroke="#191970" points="1200.7953,-194.1805 1199.8703,-183.6261 1194.0116,-192.4537 1200.7953,-194.1805"/>
</g>
<!-- Node41 -->
<g id="node42" class="node">
<title>Node41</title>
<polygon fill="#ffffff" stroke="#bfbfbf" points="1133.9668,-220.5 1133.9668,-238.5 1174.4199,-238.5 1174.4199,-220.5 1133.9668,-220.5"/>
<text text-anchor="middle" x="1154.1934" y="-226.5" font-family="Helvetica,sans-Serif" font-size="10.00" fill="#000000">string</text>
</g>
<!-- Node40&#45;&gt;Node41 -->
<g id="edge67" class="edge">
<title>Node40&#45;&gt;Node41</title>
<path fill="none" stroke="#191970" d="M1170.8908,-275.4179C1168.2145,-268.0581 1164.3537,-257.441 1161.0186,-248.2695"/>
<polygon fill="#191970" stroke="#191970" points="1164.2745,-246.9813 1157.5677,-238.7795 1157.6959,-249.3735 1164.2745,-246.9813"/>
</g>
<!-- Node42&#45;&gt;Node20 -->
<g id="edge79" class="edge">
<title>Node42&#45;&gt;Node20</title>
<path fill="none" stroke="#191970" d="M138.1207,-385.3939C170.3637,-358.5247 265.3923,-279.3342 306.2105,-245.3191"/>
<polygon fill="#191970" stroke="#191970" points="308.6141,-247.8721 314.0557,-238.7814 304.1328,-242.4945 308.6141,-247.8721"/>
</g>
</g>
</svg>
