<?xml version="1.0" encoding="UTF-8" standalone="no"?>
<!DOCTYPE svg PUBLIC "-//W3C//DTD SVG 1.1//EN"
 "http://www.w3.org/Graphics/SVG/1.1/DTD/svg11.dtd">
<!-- Generated by graphviz version 7.0.5 (20221223.1930)
 -->
<!-- Title: arwLoadOpticalParams Pages: 1 -->
<!--zoomable 249 -->
<svg id="main" version="1.1" xmlns="http://www.w3.org/2000/svg" xmlns:xlink="http://www.w3.org/1999/xlink" xml:space="preserve" onload="init(evt)">
<style type="text/css"><![CDATA[
.edge:hover path { stroke: red; }
.edge:hover polygon { stroke: red; fill: red; }
]]></style>
<script type="text/javascript"><![CDATA[
var edges = document.getElementsByTagName('g');
if (edges && edges.length) {
  for (var i=0;i<edges.length;i++) {
    if (edges[i].id.substr(0,4)=='edge') {
      edges[i].setAttribute('class','edge');
    }
  }
}
]]></script>
        <defs>
                <circle id="rim" cx="0" cy="0" r="7"/>
                <circle id="rim2" cx="0" cy="0" r="3.5"/>
                <g id="zoomPlus">
                        <use xlink:href="#rim" fill="#404040">
                                <set attributeName="fill" to="#808080" begin="zoomplus.mouseover" end="zoomplus.mouseout"/>
                        </use>
                        <path d="M-4,0h8M0,-4v8" fill="none" stroke="white" stroke-width="1.5" pointer-events="none"/>
                </g>
                <g id="zoomMin">
                        <use xlink:href="#rim" fill="#404040">
                                <set attributeName="fill" to="#808080" begin="zoomminus.mouseover" end="zoomminus.mouseout"/>
                        </use>
                        <path d="M-4,0h8" fill="none" stroke="white" stroke-width="1.5" pointer-events="none"/>
                </g>
                <g id="dirArrow">
                        <path fill="none" stroke="white" stroke-width="1.5" d="M0,-3.0v7 M-2.5,-0.5L0,-3.0L2.5,-0.5"/>
                </g>
               <g id="resetDef">
                       <use xlink:href="#rim2" fill="#404040">
                               <set attributeName="fill" to="#808080" begin="reset.mouseover" end="reset.mouseout"/>
                       </use>
               </g>
        </defs>

<script type="text/javascript">
var viewWidth = 600;
var viewHeight = 249;
var sectionId = 'dynsection-27';
</script>
<script xlink:href="svgpan.js"/>
<svg id="graph" class="graph">
<g id="viewport">
<title>arwLoadOpticalParams</title>
<!-- Node1 -->
<g id="node1" class="node">
<title>Node1</title>
<g id="a_node1"><a xlink:title="Loads an optical parameters structure from file or from buffer.">
<polygon fill="#999999" stroke="#666666" points="118,-130 0,-130 0,-111 118,-111 118,-130"/>
<text text-anchor="middle" x="59" y="-118" font-family="Helvetica,sans-Serif" font-size="10.00">arwLoadOpticalParams</text>
</a>
</g>
</g>
<!-- Node2 -->
<g id="node2" class="node">
<title>Node2</title>
<g id="a_node2"><a xlink:href="class_a_r_controller.html#a2c9712e9b049884e165d58671cab7ad2" target="_top" xlink:title="Loads an optical parameters structure from file or from buffer.">
<polygon fill="white" stroke="#666666" points="282,-135.5 154,-135.5 154,-105.5 282,-105.5 282,-135.5"/>
<text text-anchor="start" x="162" y="-123.5" font-family="Helvetica,sans-Serif" font-size="10.00">ARController::loadOptical</text>
<text text-anchor="middle" x="218" y="-112.5" font-family="Helvetica,sans-Serif" font-size="10.00">Params</text>
</a>
</g>
</g>
<!-- Node1&#45;&gt;Node2 -->
<g id="edge1" class="edge">
<title>Node1&#45;&gt;Node2</title>
<path fill="none" stroke="#63b8ff" d="M118.46,-120.5C126.28,-120.5 134.39,-120.5 142.44,-120.5"/>
<polygon fill="#63b8ff" stroke="#63b8ff" points="142.24,-124 152.24,-120.5 142.24,-117 142.24,-124"/>
</g>
<!-- Node3 -->
<g id="node3" class="node">
<title>Node3</title>
<g id="a_node3"><a xlink:href="param_disp_8c.html#a0604643c0501b3d470a916630a9e46c4" target="_top" xlink:title=" ">
<polygon fill="white" stroke="#666666" points="447,-241 343,-241 343,-222 447,-222 447,-241"/>
<text text-anchor="middle" x="395" y="-229" font-family="Helvetica,sans-Serif" font-size="10.00">arParamDispOptical</text>
</a>
</g>
</g>
<!-- Node2&#45;&gt;Node3 -->
<g id="edge2" class="edge">
<title>Node2&#45;&gt;Node3</title>
<path fill="none" stroke="#63b8ff" d="M230.96,-135.96C247.98,-156.84 281.24,-193.73 318,-213.5 322.42,-215.88 327.15,-217.94 332.01,-219.74"/>
<polygon fill="#63b8ff" stroke="#63b8ff" points="330.74,-223.01 341.33,-222.78 332.91,-216.35 330.74,-223.01"/>
</g>
<!-- Node4 -->
<g id="node4" class="node">
<title>Node4</title>
<g id="a_node4"><a xlink:href="param_file_8c.html#a5b862ef9ae735da35be433c83b7c11f5" target="_top" xlink:title=" ">
<polygon fill="white" stroke="#666666" points="447.5,-204 342.5,-204 342.5,-185 447.5,-185 447.5,-204"/>
<text text-anchor="middle" x="395" y="-192" font-family="Helvetica,sans-Serif" font-size="10.00">arParamLoadOptical</text>
</a>
</g>
</g>
<!-- Node2&#45;&gt;Node4 -->
<g id="edge3" class="edge">
<title>Node2&#45;&gt;Node4</title>
<path fill="none" stroke="#63b8ff" d="M241.68,-135.79C261.17,-148.32 290.42,-165.69 318,-176.5 322.6,-178.3 327.43,-179.96 332.33,-181.47"/>
<polygon fill="#63b8ff" stroke="#63b8ff" points="331.07,-184.75 341.65,-184.13 333,-178.02 331.07,-184.75"/>
</g>
<!-- Node5 -->
<g id="node5" class="node">
<title>Node5</title>
<g id="a_node5"><a xlink:href="param_file_8c.html#a24e7c85eaa5dc6d4a5cbe57d749f035f" target="_top" xlink:title=" ">
<polygon fill="white" stroke="#666666" points="472,-167 318,-167 318,-148 472,-148 472,-167"/>
<text text-anchor="middle" x="395" y="-155" font-family="Helvetica,sans-Serif" font-size="10.00">arParamLoadOpticalFromBuffer</text>
</a>
</g>
</g>
<!-- Node2&#45;&gt;Node5 -->
<g id="edge4" class="edge">
<title>Node2&#45;&gt;Node5</title>
<path fill="none" stroke="#63b8ff" d="M282.18,-133.86C299.69,-137.56 318.61,-141.56 335.81,-145.2"/>
<polygon fill="#63b8ff" stroke="#63b8ff" points="334.86,-148.57 345.36,-147.22 336.3,-141.72 334.86,-148.57"/>
</g>
<!-- Node6 -->
<g id="node6" class="node">
<title>Node6</title>
<g id="a_node6"><a xlink:href="mtx_8c.html#ac8b4aaa900bcedbfc9f492199c235015" target="_top" xlink:title=" ">
<polygon fill="white" stroke="#666666" points="441,-130 349,-130 349,-111 441,-111 441,-130"/>
<text text-anchor="middle" x="395" y="-118" font-family="Helvetica,sans-Serif" font-size="10.00">mtxLoadIdentityd</text>
</a>
</g>
</g>
<!-- Node2&#45;&gt;Node6 -->
<g id="edge5" class="edge">
<title>Node2&#45;&gt;Node6</title>
<path fill="none" stroke="#63b8ff" d="M282.18,-120.5C300.25,-120.5 319.82,-120.5 337.47,-120.5"/>
<polygon fill="#63b8ff" stroke="#63b8ff" points="337.23,-124 347.23,-120.5 337.23,-117 337.23,-124"/>
</g>
<!-- Node7 -->
<g id="node7" class="node">
<title>Node7</title>
<g id="a_node7"><a xlink:href="mtx_8c.html#afd59713c9486a0d4bb339eb0a1e398dc" target="_top" xlink:title=" ">
<polygon fill="white" stroke="#666666" points="439.5,-93 350.5,-93 350.5,-74 439.5,-74 439.5,-93"/>
<text text-anchor="middle" x="395" y="-81" font-family="Helvetica,sans-Serif" font-size="10.00">mtxLoadIdentityf</text>
</a>
</g>
</g>
<!-- Node2&#45;&gt;Node7 -->
<g id="edge6" class="edge">
<title>Node2&#45;&gt;Node7</title>
<path fill="none" stroke="#63b8ff" d="M282.18,-107.14C300.74,-103.22 320.88,-98.96 338.9,-95.15"/>
<polygon fill="#63b8ff" stroke="#63b8ff" points="339.55,-98.59 348.61,-93.1 338.11,-91.74 339.55,-98.59"/>
</g>
<!-- Node8 -->
<g id="node8" class="node">
<title>Node8</title>
<g id="a_node8"><a xlink:href="mtx_8c.html#a081977b51ec651b945f3b97e68196340" target="_top" xlink:title=" ">
<polygon fill="white" stroke="#666666" points="440,-56 350,-56 350,-37 440,-37 440,-56"/>
<text text-anchor="middle" x="395" y="-44" font-family="Helvetica,sans-Serif" font-size="10.00">mtxPerspectived</text>
</a>
</g>
</g>
<!-- Node2&#45;&gt;Node8 -->
<g id="edge7" class="edge">
<title>Node2&#45;&gt;Node8</title>
<path fill="none" stroke="#63b8ff" d="M242.54,-105.1C262.07,-92.9 290.93,-76.19 318,-65.5 324.56,-62.91 331.58,-60.59 338.6,-58.54"/>
<polygon fill="#63b8ff" stroke="#63b8ff" points="339.4,-61.95 348.12,-55.93 337.55,-55.2 339.4,-61.95"/>
</g>
<!-- Node10 -->
<g id="node10" class="node">
<title>Node10</title>
<g id="a_node10"><a xlink:href="mtx_8c.html#ae6825ad9d44cfedf48accca9d7d77208" target="_top" xlink:title=" ">
<polygon fill="white" stroke="#666666" points="439,-19 351,-19 351,0 439,0 439,-19"/>
<text text-anchor="middle" x="395" y="-7" font-family="Helvetica,sans-Serif" font-size="10.00">mtxPerspectivef</text>
</a>
</g>
</g>
<!-- Node2&#45;&gt;Node10 -->
<g id="edge9" class="edge">
<title>Node2&#45;&gt;Node10</title>
<path fill="none" stroke="#63b8ff" d="M231.03,-105.28C248.14,-84.7 281.49,-48.3 318,-28.5 324.75,-24.84 332.21,-21.87 339.75,-19.47"/>
<polygon fill="#63b8ff" stroke="#63b8ff" points="340.66,-22.85 349.32,-16.74 338.75,-16.11 340.66,-22.85"/>
</g>
<!-- Node9 -->
<g id="node9" class="node">
<title>Node9</title>
<g id="a_node9"><a xlink:href="mtx_8c.html#a46f08e4d7a5d5cc03290d3a166b723d0" target="_top" xlink:title=" ">
<polygon fill="white" stroke="#666666" points="592,-56 508,-56 508,-37 592,-37 592,-56"/>
<text text-anchor="middle" x="550" y="-44" font-family="Helvetica,sans-Serif" font-size="10.00">mtxMultMatrixd</text>
</a>
</g>
</g>
<!-- Node8&#45;&gt;Node9 -->
<g id="edge8" class="edge">
<title>Node8&#45;&gt;Node9</title>
<path fill="none" stroke="#63b8ff" d="M440.25,-46.5C457.78,-46.5 478.08,-46.5 496.36,-46.5"/>
<polygon fill="#63b8ff" stroke="#63b8ff" points="496.22,-50 506.22,-46.5 496.22,-43 496.22,-50"/>
</g>
<!-- Node11 -->
<g id="node11" class="node">
<title>Node11</title>
<g id="a_node11"><a xlink:href="mtx_8c.html#af377adb88126f1b018b6be776c49cf35" target="_top" xlink:title=" ">
<polygon fill="white" stroke="#666666" points="591,-19 509,-19 509,0 591,0 591,-19"/>
<text text-anchor="middle" x="550" y="-7" font-family="Helvetica,sans-Serif" font-size="10.00">mtxMultMatrixf</text>
</a>
</g>
</g>
<!-- Node10&#45;&gt;Node11 -->
<g id="edge10" class="edge">
<title>Node10&#45;&gt;Node11</title>
<path fill="none" stroke="#63b8ff" d="M439.43,-9.5C457.43,-9.5 478.45,-9.5 497.24,-9.5"/>
<polygon fill="#63b8ff" stroke="#63b8ff" points="497.09,-13 507.09,-9.5 497.09,-6 497.09,-13"/>
</g>
</g>
</svg>
        <g id="navigator" transform="translate(0 0)" fill="#404254">
                <rect fill="#f2f5e9" fill-opacity="0.5" stroke="#606060" stroke-width=".5" x="0" y="0" width="60" height="60"/>
                <use id="zoomplus" xlink:href="#zoomPlus" x="17" y="9" onmousedown="handleZoom(evt,'in')"/>
                <use id="zoomminus" xlink:href="#zoomMin" x="42" y="9" onmousedown="handleZoom(evt,'out')"/>
                <use id="reset" xlink:href="#resetDef" x="30" y="36" onmousedown="handleReset()"/>
                <g id="arrowUp" xlink:href="#dirArrow" transform="translate(30 24)" onmousedown="handlePan(0,-1)">
                  <use xlink:href="#rim" fill="#404040">
                        <set attributeName="fill" to="#808080" begin="arrowUp.mouseover" end="arrowUp.mouseout"/>
                  </use>
                  <path fill="none" stroke="white" stroke-width="1.5" d="M0,-3.0v7 M-2.5,-0.5L0,-3.0L2.5,-0.5"/>
                </g>
                <g id="arrowRight" xlink:href="#dirArrow" transform="rotate(90) translate(36 -43)" onmousedown="handlePan(1,0)">
                  <use xlink:href="#rim" fill="#404040">
                        <set attributeName="fill" to="#808080" begin="arrowRight.mouseover" end="arrowRight.mouseout"/>
                  </use>
                  <path fill="none" stroke="white" stroke-width="1.5" d="M0,-3.0v7 M-2.5,-0.5L0,-3.0L2.5,-0.5"/>
                </g>
                <g id="arrowDown" xlink:href="#dirArrow" transform="rotate(180) translate(-30 -48)" onmousedown="handlePan(0,1)">
                  <use xlink:href="#rim" fill="#404040">
                        <set attributeName="fill" to="#808080" begin="arrowDown.mouseover" end="arrowDown.mouseout"/>
                  </use>
                  <path fill="none" stroke="white" stroke-width="1.5" d="M0,-3.0v7 M-2.5,-0.5L0,-3.0L2.5,-0.5"/>
                </g>
                <g id="arrowLeft" xlink:href="#dirArrow" transform="rotate(270) translate(-36 17)" onmousedown="handlePan(-1,0)">
                  <use xlink:href="#rim" fill="#404040">
                        <set attributeName="fill" to="#808080" begin="arrowLeft.mouseover" end="arrowLeft.mouseout"/>
                  </use>
                  <path fill="none" stroke="white" stroke-width="1.5" d="M0,-3.0v7 M-2.5,-0.5L0,-3.0L2.5,-0.5"/>
                </g>
        </g>
        <svg viewBox="0 0 15 15" width="100%" height="30px" preserveAspectRatio="xMaxYMin meet">
         <g id="arrow_out" transform="scale(0.3 0.3)">
          <a xlink:href="_a_r_x__c_8h_a8c6fb32c77e80a68b3b0887c8bf572a2_cgraph_org.svg" target="_base">
           <rect id="button" ry="5" rx="5" y="6" x="6" height="38" width="38"
                fill="#f2f5e9" fill-opacity="0.5" stroke="#606060" stroke-width="1.0"/>
           <path id="arrow"
             d="M 11.500037,31.436501 C 11.940474,20.09759 22.043105,11.32322 32.158766,21.979434 L 37.068811,17.246167 C 37.068811,17.246167 37.088388,32 37.088388,32 L 22.160133,31.978069 C 22.160133,31.978069 26.997745,27.140456 26.997745,27.140456 C 18.528582,18.264221 13.291696,25.230495 11.500037,31.436501 z"
             style="fill:#404040;"/>
          </a>
         </g>
        </svg>
</svg>
