<?xml version="1.0" encoding="UTF-8" standalone="no"?>
<!DOCTYPE svg PUBLIC "-//W3C//DTD SVG 1.1//EN"
 "http://www.w3.org/Graphics/SVG/1.1/DTD/svg11.dtd">
<!-- Generated by graphviz version 7.0.5 (20221223.1930)
 -->
<!-- Title: Source/ARX/include/ARX/ARVideoSource.h Pages: 1 -->
<svg width="1020pt" height="258pt"
 viewBox="0.00 0.00 1020.00 258.00" xmlns="http://www.w3.org/2000/svg" xmlns:xlink="http://www.w3.org/1999/xlink">
<g id="graph0" class="graph" transform="scale(1 1) rotate(0) translate(4 254)">
<title>Source/ARX/include/ARX/ARVideoSource.h</title>
<!-- Node1 -->
<g id="node1" class="node">
<title>Node1</title>
<g id="a_node1"><a xlink:title=" ">
<polygon fill="#999999" stroke="#666666" points="756.5,-250 634.5,-250 634.5,-220 756.5,-220 756.5,-250"/>
<text text-anchor="start" x="642.5" y="-238" font-family="Helvetica,sans-Serif" font-size="10.00">Source/ARX/include</text>
<text text-anchor="middle" x="695.5" y="-227" font-family="Helvetica,sans-Serif" font-size="10.00">/ARX/ARVideoSource.h</text>
</a>
</g>
</g>
<!-- Node2 -->
<g id="node2" class="node">
<title>Node2</title>
<g id="a_node2"><a xlink:href="_platform_8h.html" target="_top" xlink:title=" ">
<polygon fill="white" stroke="#666666" points="582.5,-184 496.5,-184 496.5,-165 582.5,-165 582.5,-184"/>
<text text-anchor="middle" x="539.5" y="-172" font-family="Helvetica,sans-Serif" font-size="10.00">ARX/Platform.h</text>
</a>
</g>
</g>
<!-- Node1&#45;&gt;Node2 -->
<g id="edge1" class="edge">
<title>Node1&#45;&gt;Node2</title>
<path fill="none" stroke="#63b8ff" d="M656.94,-219.54C631.43,-209.97 598.29,-197.55 573.72,-188.33"/>
<polygon fill="#63b8ff" stroke="#63b8ff" points="575.1,-185.11 564.51,-184.88 572.64,-191.67 575.1,-185.11"/>
</g>
<!-- Node3 -->
<g id="node3" class="node">
<title>Node3</title>
<g id="a_node3"><a xlink:href="ar_8h.html" target="_top" xlink:title="artoolkitX core routines.">
<polygon fill="white" stroke="#666666" points="595.5,-129 521.5,-129 521.5,-110 595.5,-110 595.5,-129"/>
<text text-anchor="middle" x="558.5" y="-117" font-family="Helvetica,sans-Serif" font-size="10.00">ARX/AR/ar.h</text>
</a>
</g>
</g>
<!-- Node1&#45;&gt;Node3 -->
<g id="edge2" class="edge">
<title>Node1&#45;&gt;Node3</title>
<path fill="none" stroke="#63b8ff" d="M675.54,-219.53C662.27,-209.76 644.59,-196.43 629.5,-184 610.86,-168.65 590.39,-150.15 576.23,-137.09"/>
<polygon fill="#63b8ff" stroke="#63b8ff" points="578.75,-134.65 569.04,-130.41 573.99,-139.78 578.75,-134.65"/>
</g>
<!-- Node20 -->
<g id="node20" class="node">
<title>Node20</title>
<g id="a_node20"><a xlink:href="video_8h.html" target="_top" xlink:title=" ">
<polygon fill="white" stroke="#666666" points="752.5,-184 638.5,-184 638.5,-165 752.5,-165 752.5,-184"/>
<text text-anchor="middle" x="695.5" y="-172" font-family="Helvetica,sans-Serif" font-size="10.00">ARX/ARVideo/video.h</text>
</a>
</g>
</g>
<!-- Node1&#45;&gt;Node20 -->
<g id="edge26" class="edge">
<title>Node1&#45;&gt;Node20</title>
<path fill="none" stroke="#63b8ff" d="M695.5,-219.54C695.5,-212.34 695.5,-203.53 695.5,-195.68"/>
<polygon fill="#63b8ff" stroke="#63b8ff" points="699,-195.69 695.5,-185.69 692,-195.69 699,-195.69"/>
</g>
<!-- Node24 -->
<g id="node24" class="node">
<title>Node24</title>
<g id="a_node24"><a xlink:title=" ">
<polygon fill="#e0e0e0" stroke="#999999" points="814.5,-184 770.5,-184 770.5,-165 814.5,-165 814.5,-184"/>
<text text-anchor="middle" x="792.5" y="-172" font-family="Helvetica,sans-Serif" font-size="10.00">mutex</text>
</a>
</g>
</g>
<!-- Node1&#45;&gt;Node24 -->
<g id="edge33" class="edge">
<title>Node1&#45;&gt;Node24</title>
<path fill="none" stroke="#63b8ff" d="M719.48,-219.54C734.34,-210.58 753.37,-199.1 768.27,-190.11"/>
<polygon fill="#63b8ff" stroke="#63b8ff" points="769.78,-193.29 776.54,-185.13 766.17,-187.3 769.78,-193.29"/>
</g>
<!-- Node25 -->
<g id="node25" class="node">
<title>Node25</title>
<g id="a_node25"><a xlink:title=" ">
<polygon fill="#e0e0e0" stroke="#999999" points="890,-184 833,-184 833,-165 890,-165 890,-184"/>
<text text-anchor="middle" x="861.5" y="-172" font-family="Helvetica,sans-Serif" font-size="10.00">pthread.h</text>
</a>
</g>
</g>
<!-- Node1&#45;&gt;Node25 -->
<g id="edge34" class="edge">
<title>Node1&#45;&gt;Node25</title>
<path fill="none" stroke="#63b8ff" d="M736.53,-219.54C763.92,-209.89 799.58,-197.32 825.79,-188.08"/>
<polygon fill="#63b8ff" stroke="#63b8ff" points="826.7,-191.47 834.97,-184.85 824.38,-184.87 826.7,-191.47"/>
</g>
<!-- Node4 -->
<g id="node4" class="node">
<title>Node4</title>
<g id="a_node4"><a xlink:title=" ">
<polygon fill="#e0e0e0" stroke="#999999" points="456.5,-19 410.5,-19 410.5,0 456.5,0 456.5,-19"/>
<text text-anchor="middle" x="433.5" y="-7" font-family="Helvetica,sans-Serif" font-size="10.00">stdio.h</text>
</a>
</g>
</g>
<!-- Node3&#45;&gt;Node4 -->
<g id="edge3" class="edge">
<title>Node3&#45;&gt;Node4</title>
<path fill="none" stroke="#63b8ff" d="M521.6,-109.58C500.71,-102.87 475.45,-91.71 458.5,-74 447.08,-62.07 440.69,-44.32 437.23,-30.61"/>
<polygon fill="#63b8ff" stroke="#63b8ff" points="440.67,-29.96 435.14,-20.93 433.83,-31.44 440.67,-29.96"/>
</g>
<!-- Node5 -->
<g id="node5" class="node">
<title>Node5</title>
<g id="a_node5"><a xlink:title=" ">
<polygon fill="#e0e0e0" stroke="#999999" points="392.5,-19 344.5,-19 344.5,0 392.5,0 392.5,-19"/>
<text text-anchor="middle" x="368.5" y="-7" font-family="Helvetica,sans-Serif" font-size="10.00">stdlib.h</text>
</a>
</g>
</g>
<!-- Node3&#45;&gt;Node5 -->
<g id="edge4" class="edge">
<title>Node3&#45;&gt;Node5</title>
<path fill="none" stroke="#63b8ff" d="M521.16,-117.78C456.18,-115.66 326.55,-107.26 298.5,-74 282.49,-55.01 309.89,-36.28 334.96,-24.14"/>
<polygon fill="#63b8ff" stroke="#63b8ff" points="336.41,-27.32 344.05,-19.98 333.5,-20.95 336.41,-27.32"/>
</g>
<!-- Node6 -->
<g id="node6" class="node">
<title>Node6</title>
<g id="a_node6"><a xlink:title=" ">
<polygon fill="#e0e0e0" stroke="#999999" points="138,-74 89,-74 89,-55 138,-55 138,-74"/>
<text text-anchor="middle" x="113.5" y="-62" font-family="Helvetica,sans-Serif" font-size="10.00">stdint.h</text>
</a>
</g>
</g>
<!-- Node3&#45;&gt;Node6 -->
<g id="edge5" class="edge">
<title>Node3&#45;&gt;Node6</title>
<path fill="none" stroke="#63b8ff" d="M521.14,-116.18C450.49,-111.42 292.34,-98.99 149.43,-74.09"/>
<polygon fill="#63b8ff" stroke="#63b8ff" points="150.25,-70.68 139.79,-72.38 149.02,-77.57 150.25,-70.68"/>
</g>
<!-- Node7 -->
<g id="node7" class="node">
<title>Node7</title>
<g id="a_node7"><a xlink:title=" ">
<polygon fill="#e0e0e0" stroke="#999999" points="49,-19 0,-19 0,0 49,0 49,-19"/>
<text text-anchor="middle" x="24.5" y="-7" font-family="Helvetica,sans-Serif" font-size="10.00">string.h</text>
</a>
</g>
</g>
<!-- Node3&#45;&gt;Node7 -->
<g id="edge6" class="edge">
<title>Node3&#45;&gt;Node7</title>
<path fill="none" stroke="#63b8ff" d="M521.02,-118.58C422.11,-118.22 156.38,-113.52 79.5,-74 60.09,-64.02 44.57,-44 35.04,-29.1"/>
<polygon fill="#63b8ff" stroke="#63b8ff" points="38.11,-27.42 29.96,-20.66 32.12,-31.03 38.11,-27.42"/>
</g>
<!-- Node8 -->
<g id="node8" class="node">
<title>Node8</title>
<g id="a_node8"><a xlink:title=" ">
<polygon fill="#e0e0e0" stroke="#999999" points="931.5,-19 839.5,-19 839.5,0 931.5,0 931.5,-19"/>
<text text-anchor="middle" x="885.5" y="-7" font-family="Helvetica,sans-Serif" font-size="10.00">ARX/AR/config.h</text>
</a>
</g>
</g>
<!-- Node3&#45;&gt;Node8 -->
<g id="edge7" class="edge">
<title>Node3&#45;&gt;Node8</title>
<path fill="none" stroke="#63b8ff" d="M595.83,-111.61C653.84,-100.8 760.74,-80.42 777.5,-74 794.62,-67.44 836.04,-41.97 862.33,-25.35"/>
<polygon fill="#63b8ff" stroke="#63b8ff" points="864.06,-28.4 870.62,-20.08 860.31,-22.49 864.06,-28.4"/>
</g>
<!-- Node9 -->
<g id="node9" class="node">
<title>Node9</title>
<g id="a_node9"><a xlink:href="ar_config_8h.html" target="_top" xlink:title=" ">
<polygon fill="white" stroke="#666666" points="410,-74 307,-74 307,-55 410,-55 410,-74"/>
<text text-anchor="middle" x="358.5" y="-62" font-family="Helvetica,sans-Serif" font-size="10.00">ARX/AR/arConfig.h</text>
</a>
</g>
</g>
<!-- Node3&#45;&gt;Node9 -->
<g id="edge8" class="edge">
<title>Node3&#45;&gt;Node9</title>
<path fill="none" stroke="#63b8ff" d="M524.57,-109.51C491.14,-100.65 439.88,-87.07 403.15,-77.33"/>
<polygon fill="#63b8ff" stroke="#63b8ff" points="404.29,-74.01 393.72,-74.83 402.49,-80.78 404.29,-74.01"/>
</g>
<!-- Node10 -->
<g id="node10" class="node">
<title>Node10</title>
<g id="a_node10"><a xlink:href="log_8h.html" target="_top" xlink:title="Logging utilities.">
<polygon fill="white" stroke="#666666" points="250.5,-74 156.5,-74 156.5,-55 250.5,-55 250.5,-74"/>
<text text-anchor="middle" x="203.5" y="-62" font-family="Helvetica,sans-Serif" font-size="10.00">ARX/ARUtil/log.h</text>
</a>
</g>
</g>
<!-- Node3&#45;&gt;Node10 -->
<g id="edge9" class="edge">
<title>Node3&#45;&gt;Node10</title>
<path fill="none" stroke="#63b8ff" d="M521.18,-112.93C459.5,-103.72 335.83,-85.26 262.31,-74.28"/>
<polygon fill="#63b8ff" stroke="#63b8ff" points="262.86,-70.82 252.45,-72.81 261.83,-77.75 262.86,-70.82"/>
</g>
<!-- Node14 -->
<g id="node14" class="node">
<title>Node14</title>
<g id="a_node14"><a xlink:href="matrix_8h.html" target="_top" xlink:title=" ">
<polygon fill="white" stroke="#666666" points="657,-74 564,-74 564,-55 657,-55 657,-74"/>
<text text-anchor="middle" x="610.5" y="-62" font-family="Helvetica,sans-Serif" font-size="10.00">ARX/AR/matrix.h</text>
</a>
</g>
</g>
<!-- Node3&#45;&gt;Node14 -->
<g id="edge16" class="edge">
<title>Node3&#45;&gt;Node14</title>
<path fill="none" stroke="#63b8ff" d="M567.09,-109.75C574.34,-102.35 584.95,-91.54 593.87,-82.45"/>
<polygon fill="#63b8ff" stroke="#63b8ff" points="596.16,-85.11 600.67,-75.52 591.16,-80.21 596.16,-85.11"/>
</g>
<!-- Node16 -->
<g id="node16" class="node">
<title>Node16</title>
<g id="a_node16"><a xlink:href="icp_8h.html" target="_top" xlink:title=" ">
<polygon fill="white" stroke="#666666" points="546,-74 467,-74 467,-55 546,-55 546,-74"/>
<text text-anchor="middle" x="506.5" y="-62" font-family="Helvetica,sans-Serif" font-size="10.00">ARX/AR/icp.h</text>
</a>
</g>
</g>
<!-- Node3&#45;&gt;Node16 -->
<g id="edge18" class="edge">
<title>Node3&#45;&gt;Node16</title>
<path fill="none" stroke="#63b8ff" d="M549.91,-109.75C542.66,-102.35 532.05,-91.54 523.13,-82.45"/>
<polygon fill="#63b8ff" stroke="#63b8ff" points="525.84,-80.21 516.33,-75.52 520.84,-85.11 525.84,-80.21"/>
</g>
<!-- Node18 -->
<g id="node18" class="node">
<title>Node18</title>
<g id="a_node18"><a xlink:href="param_8h.html" target="_top" xlink:title="artoolkitX functions for handling calibrated camera parameters.">
<polygon fill="white" stroke="#666666" points="768,-74 675,-74 675,-55 768,-55 768,-74"/>
<text text-anchor="middle" x="721.5" y="-62" font-family="Helvetica,sans-Serif" font-size="10.00">ARX/AR/param.h</text>
</a>
</g>
</g>
<!-- Node3&#45;&gt;Node18 -->
<g id="edge21" class="edge">
<title>Node3&#45;&gt;Node18</title>
<path fill="none" stroke="#63b8ff" d="M580.93,-109.51C606,-100.76 646.86,-87.42 678.15,-77.71"/>
<polygon fill="#63b8ff" stroke="#63b8ff" points="678.8,-81.17 687.33,-74.89 676.74,-74.48 678.8,-81.17"/>
</g>
<!-- Node19 -->
<g id="node19" class="node">
<title>Node19</title>
<g id="a_node19"><a xlink:href="ar_image_proc_8h.html" target="_top" xlink:title="artoolkitX functions for 2D luminance image processing.">
<polygon fill="white" stroke="#666666" points="946.5,-74 824.5,-74 824.5,-55 946.5,-55 946.5,-74"/>
<text text-anchor="middle" x="885.5" y="-62" font-family="Helvetica,sans-Serif" font-size="10.00">ARX/AR/arImageProc.h</text>
</a>
</g>
</g>
<!-- Node3&#45;&gt;Node19 -->
<g id="edge23" class="edge">
<title>Node3&#45;&gt;Node19</title>
<path fill="none" stroke="#63b8ff" d="M595.87,-109.94C669.58,-97.3 754.32,-84.06 813.09,-75.35"/>
<polygon fill="#63b8ff" stroke="#63b8ff" points="813.24,-78.87 822.63,-73.95 812.22,-71.94 813.24,-78.87"/>
</g>
<!-- Node10&#45;&gt;Node4 -->
<g id="edge10" class="edge">
<title>Node10&#45;&gt;Node4</title>
<path fill="none" stroke="#63b8ff" d="M245.71,-54.51C283.52,-46.34 340.75,-33.71 399.19,-19.5"/>
<polygon fill="#63b8ff" stroke="#63b8ff" points="399.76,-22.96 408.64,-17.18 398.09,-16.16 399.76,-22.96"/>
</g>
<!-- Node10&#45;&gt;Node5 -->
<g id="edge11" class="edge">
<title>Node10&#45;&gt;Node5</title>
<path fill="none" stroke="#63b8ff" d="M231.49,-54.51C259.54,-45.5 302.79,-31.61 333.18,-21.84"/>
<polygon fill="#63b8ff" stroke="#63b8ff" points="334.25,-25.18 342.7,-18.79 332.11,-18.51 334.25,-25.18"/>
</g>
<!-- Node10&#45;&gt;Node7 -->
<g id="edge12" class="edge">
<title>Node10&#45;&gt;Node7</title>
<path fill="none" stroke="#63b8ff" d="M173.14,-54.51C141.91,-45.26 93.29,-30.87 60.23,-21.08"/>
<polygon fill="#63b8ff" stroke="#63b8ff" points="61.27,-17.74 50.69,-18.25 59.29,-24.45 61.27,-17.74"/>
</g>
<!-- Node11 -->
<g id="node11" class="node">
<title>Node11</title>
<g id="a_node11"><a xlink:title=" ">
<polygon fill="#e0e0e0" stroke="#999999" points="119.5,-19 67.5,-19 67.5,0 119.5,0 119.5,-19"/>
<text text-anchor="middle" x="93.5" y="-7" font-family="Helvetica,sans-Serif" font-size="10.00">stdarg.h</text>
</a>
</g>
</g>
<!-- Node10&#45;&gt;Node11 -->
<g id="edge13" class="edge">
<title>Node10&#45;&gt;Node11</title>
<path fill="none" stroke="#63b8ff" d="M184.84,-54.51C167.67,-46.24 141.95,-33.84 122.17,-24.31"/>
<polygon fill="#63b8ff" stroke="#63b8ff" points="123.78,-21.2 113.25,-20.01 120.74,-27.51 123.78,-21.2"/>
</g>
<!-- Node12 -->
<g id="node12" class="node">
<title>Node12</title>
<g id="a_node12"><a xlink:title=" ">
<polygon fill="#e0e0e0" stroke="#999999" points="203,-19 138,-19 138,0 203,0 203,-19"/>
<text text-anchor="middle" x="170.5" y="-7" font-family="Helvetica,sans-Serif" font-size="10.00">sys/errno.h</text>
</a>
</g>
</g>
<!-- Node10&#45;&gt;Node12 -->
<g id="edge14" class="edge">
<title>Node10&#45;&gt;Node12</title>
<path fill="none" stroke="#63b8ff" d="M198.05,-54.75C193.73,-47.81 187.54,-37.86 182.12,-29.16"/>
<polygon fill="#63b8ff" stroke="#63b8ff" points="185.12,-27.37 176.87,-20.73 179.18,-31.07 185.12,-27.37"/>
</g>
<!-- Node13 -->
<g id="node13" class="node">
<title>Node13</title>
<g id="a_node13"><a xlink:href="types_8h.html" target="_top" xlink:title=" ">
<polygon fill="white" stroke="#666666" points="326,-19 221,-19 221,0 326,0 326,-19"/>
<text text-anchor="middle" x="273.5" y="-7" font-family="Helvetica,sans-Serif" font-size="10.00">ARX/ARUtil/types.h</text>
</a>
</g>
</g>
<!-- Node10&#45;&gt;Node13 -->
<g id="edge15" class="edge">
<title>Node10&#45;&gt;Node13</title>
<path fill="none" stroke="#63b8ff" d="M215.37,-54.51C225.59,-46.77 240.57,-35.43 252.76,-26.2"/>
<polygon fill="#63b8ff" stroke="#63b8ff" points="254.73,-29.1 260.59,-20.27 250.51,-23.52 254.73,-29.1"/>
</g>
<!-- Node15 -->
<g id="node15" class="node">
<title>Node15</title>
<g id="a_node15"><a xlink:title=" ">
<polygon fill="#e0e0e0" stroke="#999999" points="640,-19 593,-19 593,0 640,0 640,-19"/>
<text text-anchor="middle" x="616.5" y="-7" font-family="Helvetica,sans-Serif" font-size="10.00">math.h</text>
</a>
</g>
</g>
<!-- Node14&#45;&gt;Node15 -->
<g id="edge17" class="edge">
<title>Node14&#45;&gt;Node15</title>
<path fill="none" stroke="#63b8ff" d="M611.49,-54.75C612.23,-48.19 613.28,-38.95 614.22,-30.6"/>
<polygon fill="#63b8ff" stroke="#63b8ff" points="617.67,-31.28 615.32,-20.95 610.71,-30.49 617.67,-31.28"/>
</g>
<!-- Node16&#45;&gt;Node4 -->
<g id="edge19" class="edge">
<title>Node16&#45;&gt;Node4</title>
<path fill="none" stroke="#63b8ff" d="M494.12,-54.51C483.35,-46.7 467.53,-35.21 454.75,-25.93"/>
<polygon fill="#63b8ff" stroke="#63b8ff" points="457.07,-23.29 446.93,-20.25 452.96,-28.95 457.07,-23.29"/>
</g>
<!-- Node17 -->
<g id="node17" class="node">
<title>Node17</title>
<g id="a_node17"><a xlink:href="icp_core_8h.html" target="_top" xlink:title=" ">
<polygon fill="white" stroke="#666666" points="574.5,-19 474.5,-19 474.5,0 574.5,0 574.5,-19"/>
<text text-anchor="middle" x="524.5" y="-7" font-family="Helvetica,sans-Serif" font-size="10.00">ARX/AR/icpCore.h</text>
</a>
</g>
</g>
<!-- Node16&#45;&gt;Node17 -->
<g id="edge20" class="edge">
<title>Node16&#45;&gt;Node17</title>
<path fill="none" stroke="#63b8ff" d="M509.47,-54.75C511.73,-48.11 514.91,-38.73 517.77,-30.31"/>
<polygon fill="#63b8ff" stroke="#63b8ff" points="521.07,-31.47 520.98,-20.88 514.45,-29.22 521.07,-31.47"/>
</g>
<!-- Node18&#45;&gt;Node3 -->
<g id="edge22" class="edge">
<title>Node18&#45;&gt;Node3</title>
<path fill="none" stroke="#63b8ff" d="M699.19,-74.45C674.19,-83.18 633.33,-96.52 602.01,-106.24"/>
<polygon fill="#63b8ff" stroke="#63b8ff" points="601.34,-102.78 592.81,-109.06 603.4,-109.47 601.34,-102.78"/>
</g>
<!-- Node19&#45;&gt;Node3 -->
<g id="edge25" class="edge">
<title>Node19&#45;&gt;Node3</title>
<path fill="none" stroke="#63b8ff" d="M832.88,-74.48C778.02,-83.17 689.81,-96.91 613.5,-110 611.37,-110.37 609.18,-110.75 606.97,-111.14"/>
<polygon fill="#63b8ff" stroke="#63b8ff" points="606.48,-107.67 597.24,-112.86 607.7,-114.56 606.48,-107.67"/>
</g>
<!-- Node19&#45;&gt;Node8 -->
<g id="edge24" class="edge">
<title>Node19&#45;&gt;Node8</title>
<path fill="none" stroke="#63b8ff" d="M885.5,-54.75C885.5,-48.27 885.5,-39.16 885.5,-30.9"/>
<polygon fill="#63b8ff" stroke="#63b8ff" points="889,-30.96 885.5,-20.96 882,-30.96 889,-30.96"/>
</g>
<!-- Node20&#45;&gt;Node3 -->
<g id="edge27" class="edge">
<title>Node20&#45;&gt;Node3</title>
<path fill="none" stroke="#63b8ff" d="M672.26,-164.51C650.18,-155.97 616.75,-143.03 591.83,-133.4"/>
<polygon fill="#63b8ff" stroke="#63b8ff" points="593.4,-130.25 582.81,-129.9 590.87,-136.78 593.4,-130.25"/>
</g>
<!-- Node21 -->
<g id="node21" class="node">
<title>Node21</title>
<g id="a_node21"><a xlink:href="video_config_8h.html" target="_top" xlink:title=" ">
<polygon fill="white" stroke="#666666" points="1012,-129 869,-129 869,-110 1012,-110 1012,-129"/>
<text text-anchor="middle" x="940.5" y="-117" font-family="Helvetica,sans-Serif" font-size="10.00">ARX/ARVideo/videoConfig.h</text>
</a>
</g>
</g>
<!-- Node20&#45;&gt;Node21 -->
<g id="edge28" class="edge">
<title>Node20&#45;&gt;Node21</title>
<path fill="none" stroke="#63b8ff" d="M737.06,-164.51C778.72,-155.5 842.98,-141.6 888.11,-131.83"/>
<polygon fill="#63b8ff" stroke="#63b8ff" points="888.63,-135.3 897.67,-129.77 887.15,-128.46 888.63,-135.3"/>
</g>
<!-- Node22 -->
<g id="node22" class="node">
<title>Node22</title>
<g id="a_node22"><a xlink:title=" ">
<polygon fill="#e0e0e0" stroke="#999999" points="661.5,-129 613.5,-129 613.5,-110 661.5,-110 661.5,-129"/>
<text text-anchor="middle" x="637.5" y="-117" font-family="Helvetica,sans-Serif" font-size="10.00">limits.h</text>
</a>
</g>
</g>
<!-- Node20&#45;&gt;Node22 -->
<g id="edge30" class="edge">
<title>Node20&#45;&gt;Node22</title>
<path fill="none" stroke="#63b8ff" d="M685.66,-164.51C677.45,-157 665.52,-146.1 655.59,-137.03"/>
<polygon fill="#63b8ff" stroke="#63b8ff" points="658.05,-134.54 648.31,-130.38 653.33,-139.71 658.05,-134.54"/>
</g>
<!-- Node23 -->
<g id="node23" class="node">
<title>Node23</title>
<g id="a_node23"><a xlink:href="video_luma_8h.html" target="_top" xlink:title=" ">
<polygon fill="white" stroke="#666666" points="817.5,-129 679.5,-129 679.5,-110 817.5,-110 817.5,-129"/>
<text text-anchor="middle" x="748.5" y="-117" font-family="Helvetica,sans-Serif" font-size="10.00">ARX/ARVideo/videoLuma.h</text>
</a>
</g>
</g>
<!-- Node20&#45;&gt;Node23 -->
<g id="edge31" class="edge">
<title>Node20&#45;&gt;Node23</title>
<path fill="none" stroke="#63b8ff" d="M699.09,-164.75C705.01,-157.2 715.74,-146.09 725.81,-136.9"/>
<polygon fill="#63b8ff" stroke="#63b8ff" points="727.98,-139.65 733.21,-130.44 723.38,-134.38 727.98,-139.65"/>
</g>
<!-- Node21&#45;&gt;Node8 -->
<g id="edge29" class="edge">
<title>Node21&#45;&gt;Node8</title>
<path fill="none" stroke="#63b8ff" d="M946.28,-109.76C953.91,-97 965.32,-72.87 955.5,-55 947.99,-41.32 934.29,-31.25 920.99,-24.18"/>
<polygon fill="#63b8ff" stroke="#63b8ff" points="922.9,-21.21 912.37,-20.01 919.85,-27.52 922.9,-21.21"/>
</g>
<!-- Node23&#45;&gt;Node20 -->
<g id="edge32" class="edge">
<title>Node23&#45;&gt;Node20</title>
<path fill="none" stroke="#63b8ff" d="M744.83,-129.36C738.89,-136.9 728.22,-147.94 718.21,-157.09"/>
<polygon fill="#63b8ff" stroke="#63b8ff" points="716.08,-154.3 710.85,-163.51 720.68,-159.57 716.08,-154.3"/>
</g>
</g>
</svg>
