<?xml version="1.0" encoding="UTF-8" standalone="no"?>
<!DOCTYPE svg PUBLIC "-//W3C//DTD SVG 1.1//EN"
 "http://www.w3.org/Graphics/SVG/1.1/DTD/svg11.dtd">
<!-- Generated by graphviz version 7.0.5 (20221223.1930)
 -->
<!-- Title: Source/ARX/include/ARX/ARTrackerSquare.h Pages: 1 -->
<!--zoomable 170 -->
<svg id="main" version="1.1" xmlns="http://www.w3.org/2000/svg" xmlns:xlink="http://www.w3.org/1999/xlink" xml:space="preserve" onload="init(evt)">
<style type="text/css"><![CDATA[
.edge:hover path { stroke: red; }
.edge:hover polygon { stroke: red; fill: red; }
]]></style>
<script type="text/javascript"><![CDATA[
var edges = document.getElementsByTagName('g');
if (edges && edges.length) {
  for (var i=0;i<edges.length;i++) {
    if (edges[i].id.substr(0,4)=='edge') {
      edges[i].setAttribute('class','edge');
    }
  }
}
]]></script>
        <defs>
                <circle id="rim" cx="0" cy="0" r="7"/>
                <circle id="rim2" cx="0" cy="0" r="3.5"/>
                <g id="zoomPlus">
                        <use xlink:href="#rim" fill="#404040">
                                <set attributeName="fill" to="#808080" begin="zoomplus.mouseover" end="zoomplus.mouseout"/>
                        </use>
                        <path d="M-4,0h8M0,-4v8" fill="none" stroke="white" stroke-width="1.5" pointer-events="none"/>
                </g>
                <g id="zoomMin">
                        <use xlink:href="#rim" fill="#404040">
                                <set attributeName="fill" to="#808080" begin="zoomminus.mouseover" end="zoomminus.mouseout"/>
                        </use>
                        <path d="M-4,0h8" fill="none" stroke="white" stroke-width="1.5" pointer-events="none"/>
                </g>
                <g id="dirArrow">
                        <path fill="none" stroke="white" stroke-width="1.5" d="M0,-3.0v7 M-2.5,-0.5L0,-3.0L2.5,-0.5"/>
                </g>
               <g id="resetDef">
                       <use xlink:href="#rim2" fill="#404040">
                               <set attributeName="fill" to="#808080" begin="reset.mouseover" end="reset.mouseout"/>
                       </use>
               </g>
        </defs>

<script type="text/javascript">
var viewWidth = 1176;
var viewHeight = 170;
var sectionId = 'dynsection-1';
</script>
<script xlink:href="svgpan.js"/>
<svg id="graph" class="graph">
<g id="viewport">
<title>Source/ARX/include/ARX/ARTrackerSquare.h</title>
<!-- Node1 -->
<g id="node1" class="node">
<title>Node1</title>
<g id="a_node1"><a xlink:title=" ">
<polygon fill="#999999" stroke="#666666" points="554.5,-162 424.5,-162 424.5,-132 554.5,-132 554.5,-162"/>
<text text-anchor="start" x="432.5" y="-150" font-family="Helvetica,sans-Serif" font-size="10.00">Source/ARX/include</text>
<text text-anchor="middle" x="489.5" y="-139" font-family="Helvetica,sans-Serif" font-size="10.00">/ARX/ARTrackerSquare.h</text>
</a>
</g>
</g>
<!-- Node2 -->
<g id="node2" class="node">
<title>Node2</title>
<g id="a_node2"><a xlink:href="_a_r_tracker_square_8cpp.html" target="_top" xlink:title=" ">
<polygon fill="white" stroke="#666666" points="497,-90.5 326,-90.5 326,-71.5 497,-71.5 497,-90.5"/>
<text text-anchor="middle" x="411.5" y="-78.5" font-family="Helvetica,sans-Serif" font-size="10.00">Source/ARX/ARTrackerSquare.cpp</text>
</a>
</g>
</g>
<!-- Node1&#45;&gt;Node2 -->
<g id="edge1" class="edge">
<title>Node1&#45;&gt;Node2</title>
<path fill="none" stroke="#63b8ff" d="M463.42,-124.6C449.4,-113.1 432.86,-99.52 422.28,-90.84"/>
<polygon fill="#63b8ff" stroke="#63b8ff" points="461.07,-127.2 471.02,-130.84 465.51,-121.79 461.07,-127.2"/>
</g>
<!-- Node3 -->
<g id="node3" class="node">
<title>Node3</title>
<g id="a_node3"><a xlink:href="_a_r_controller_8h.html" target="_top" xlink:title=" ">
<polygon fill="white" stroke="#666666" points="622,-96 515,-96 515,-66 622,-66 622,-96"/>
<text text-anchor="start" x="523" y="-84" font-family="Helvetica,sans-Serif" font-size="10.00">Source/ARX/include</text>
<text text-anchor="middle" x="568.5" y="-73" font-family="Helvetica,sans-Serif" font-size="10.00">/ARX/ARController.h</text>
</a>
</g>
</g>
<!-- Node1&#45;&gt;Node3 -->
<g id="edge2" class="edge">
<title>Node1&#45;&gt;Node3</title>
<path fill="none" stroke="#63b8ff" d="M515.79,-124.7C527.28,-115.4 540.44,-104.73 550.74,-96.39"/>
<polygon fill="#63b8ff" stroke="#63b8ff" points="513.78,-121.83 508.21,-130.84 518.18,-127.27 513.78,-121.83"/>
</g>
<!-- Node4 -->
<g id="node4" class="node">
<title>Node4</title>
<g id="a_node4"><a xlink:href="_a_r_controller_8cpp.html" target="_top" xlink:title=" ">
<polygon fill="white" stroke="#666666" points="149,-24.5 0,-24.5 0,-5.5 149,-5.5 149,-24.5"/>
<text text-anchor="middle" x="74.5" y="-12.5" font-family="Helvetica,sans-Serif" font-size="10.00">Source/ARX/ARController.cpp</text>
</a>
</g>
</g>
<!-- Node3&#45;&gt;Node4 -->
<g id="edge3" class="edge">
<title>Node3&#45;&gt;Node4</title>
<path fill="none" stroke="#63b8ff" d="M503.39,-65.79C350.06,-41.54 307.96,-50.45 157.5,-30 146.78,-28.54 135.33,-26.76 124.46,-24.96"/>
<polygon fill="#63b8ff" stroke="#63b8ff" points="502.7,-69.23 513.13,-67.36 503.81,-62.32 502.7,-69.23"/>
</g>
<!-- Node5 -->
<g id="node5" class="node">
<title>Node5</title>
<g id="a_node5"><a xlink:href="_a_r_pattern_8cpp.html" target="_top" xlink:title=" ">
<polygon fill="white" stroke="#666666" points="306,-24.5 167,-24.5 167,-5.5 306,-5.5 306,-24.5"/>
<text text-anchor="middle" x="236.5" y="-12.5" font-family="Helvetica,sans-Serif" font-size="10.00">Source/ARX/ARPattern.cpp</text>
</a>
</g>
</g>
<!-- Node3&#45;&gt;Node5 -->
<g id="edge4" class="edge">
<title>Node3&#45;&gt;Node5</title>
<path fill="none" stroke="#63b8ff" d="M503.44,-65.64C449.2,-54.83 347.31,-36.15 286.05,-25"/>
<polygon fill="#63b8ff" stroke="#63b8ff" points="502.59,-69.04 513.09,-67.59 503.98,-62.18 502.59,-69.04"/>
</g>
<!-- Node6 -->
<g id="node6" class="node">
<title>Node6</title>
<g id="a_node6"><a xlink:href="_a_r_trackable_8cpp.html" target="_top" xlink:title=" ">
<polygon fill="white" stroke="#666666" points="474.5,-24.5 324.5,-24.5 324.5,-5.5 474.5,-5.5 474.5,-24.5"/>
<text text-anchor="middle" x="399.5" y="-12.5" font-family="Helvetica,sans-Serif" font-size="10.00">Source/ARX/ARTrackable.cpp</text>
</a>
</g>
</g>
<!-- Node3&#45;&gt;Node6 -->
<g id="edge5" class="edge">
<title>Node3&#45;&gt;Node6</title>
<path fill="none" stroke="#63b8ff" d="M520.16,-61.69C488.41,-49.67 448.26,-34.47 423.23,-24.99"/>
<polygon fill="#63b8ff" stroke="#63b8ff" points="518.57,-64.83 529.16,-65.1 521.05,-58.29 518.57,-64.83"/>
</g>
<!-- Node7 -->
<g id="node7" class="node">
<title>Node7</title>
<g id="a_node7"><a xlink:href="_a_r_trackable_multi_square_8cpp.html" target="_top" xlink:title=" ">
<polygon fill="white" stroke="#666666" points="644.5,-30 492.5,-30 492.5,0 644.5,0 644.5,-30"/>
<text text-anchor="start" x="500.5" y="-18" font-family="Helvetica,sans-Serif" font-size="10.00">Source/ARX/ARTrackableMulti</text>
<text text-anchor="middle" x="568.5" y="-7" font-family="Helvetica,sans-Serif" font-size="10.00">Square.cpp</text>
</a>
</g>
</g>
<!-- Node3&#45;&gt;Node7 -->
<g id="edge6" class="edge">
<title>Node3&#45;&gt;Node7</title>
<path fill="none" stroke="#63b8ff" d="M568.5,-54.39C568.5,-46.13 568.5,-37.28 568.5,-30.16"/>
<polygon fill="#63b8ff" stroke="#63b8ff" points="565,-54.28 568.5,-64.28 572,-54.28 565,-54.28"/>
</g>
<!-- Node8 -->
<g id="node8" class="node">
<title>Node8</title>
<g id="a_node8"><a xlink:href="_a_r_trackable_square_8cpp.html" target="_top" xlink:title=" ">
<polygon fill="white" stroke="#666666" points="844,-24.5 663,-24.5 663,-5.5 844,-5.5 844,-24.5"/>
<text text-anchor="middle" x="753.5" y="-12.5" font-family="Helvetica,sans-Serif" font-size="10.00">Source/ARX/ARTrackableSquare.cpp</text>
</a>
</g>
</g>
<!-- Node3&#45;&gt;Node8 -->
<g id="edge7" class="edge">
<title>Node3&#45;&gt;Node8</title>
<path fill="none" stroke="#63b8ff" d="M620.51,-62.01C655.41,-49.93 699.88,-34.55 727.53,-24.99"/>
<polygon fill="#63b8ff" stroke="#63b8ff" points="619.75,-58.57 611.45,-65.14 622.04,-65.18 619.75,-58.57"/>
</g>
<!-- Node9 -->
<g id="node9" class="node">
<title>Node9</title>
<g id="a_node9"><a xlink:href="_a_r_video_source_8cpp.html" target="_top" xlink:title=" ">
<polygon fill="white" stroke="#666666" points="1025,-24.5 862,-24.5 862,-5.5 1025,-5.5 1025,-24.5"/>
<text text-anchor="middle" x="943.5" y="-12.5" font-family="Helvetica,sans-Serif" font-size="10.00">Source/ARX/ARVideoSource.cpp</text>
</a>
</g>
</g>
<!-- Node3&#45;&gt;Node9 -->
<g id="edge8" class="edge">
<title>Node3&#45;&gt;Node9</title>
<path fill="none" stroke="#63b8ff" d="M633.54,-68.9C706.46,-56.45 823.31,-36.51 890.78,-25"/>
<polygon fill="#63b8ff" stroke="#63b8ff" points="632.99,-65.44 623.72,-70.58 634.17,-72.34 632.99,-65.44"/>
</g>
<!-- Node10 -->
<g id="node10" class="node">
<title>Node10</title>
<g id="a_node10"><a xlink:href="_a_r_x__c_8cpp.html" target="_top" xlink:title=" ">
<polygon fill="white" stroke="#666666" points="1168,-24.5 1043,-24.5 1043,-5.5 1168,-5.5 1168,-24.5"/>
<text text-anchor="middle" x="1105.5" y="-12.5" font-family="Helvetica,sans-Serif" font-size="10.00">Source/ARX/ARX_c.cpp</text>
</a>
</g>
</g>
<!-- Node3&#45;&gt;Node10 -->
<g id="edge9" class="edge">
<title>Node3&#45;&gt;Node10</title>
<path fill="none" stroke="#63b8ff" d="M633.58,-74.83C723.87,-67.25 892.12,-51.63 1034.5,-30 1043.82,-28.58 1053.77,-26.8 1063.18,-24.98"/>
<polygon fill="#63b8ff" stroke="#63b8ff" points="633.34,-71.34 623.67,-75.66 633.93,-78.32 633.34,-71.34"/>
</g>
</g>
</svg>
        <g id="navigator" transform="translate(0 0)" fill="#404254">
                <rect fill="#f2f5e9" fill-opacity="0.5" stroke="#606060" stroke-width=".5" x="0" y="0" width="60" height="60"/>
                <use id="zoomplus" xlink:href="#zoomPlus" x="17" y="9" onmousedown="handleZoom(evt,'in')"/>
                <use id="zoomminus" xlink:href="#zoomMin" x="42" y="9" onmousedown="handleZoom(evt,'out')"/>
                <use id="reset" xlink:href="#resetDef" x="30" y="36" onmousedown="handleReset()"/>
                <g id="arrowUp" xlink:href="#dirArrow" transform="translate(30 24)" onmousedown="handlePan(0,-1)">
                  <use xlink:href="#rim" fill="#404040">
                        <set attributeName="fill" to="#808080" begin="arrowUp.mouseover" end="arrowUp.mouseout"/>
                  </use>
                  <path fill="none" stroke="white" stroke-width="1.5" d="M0,-3.0v7 M-2.5,-0.5L0,-3.0L2.5,-0.5"/>
                </g>
                <g id="arrowRight" xlink:href="#dirArrow" transform="rotate(90) translate(36 -43)" onmousedown="handlePan(1,0)">
                  <use xlink:href="#rim" fill="#404040">
                        <set attributeName="fill" to="#808080" begin="arrowRight.mouseover" end="arrowRight.mouseout"/>
                  </use>
                  <path fill="none" stroke="white" stroke-width="1.5" d="M0,-3.0v7 M-2.5,-0.5L0,-3.0L2.5,-0.5"/>
                </g>
                <g id="arrowDown" xlink:href="#dirArrow" transform="rotate(180) translate(-30 -48)" onmousedown="handlePan(0,1)">
                  <use xlink:href="#rim" fill="#404040">
                        <set attributeName="fill" to="#808080" begin="arrowDown.mouseover" end="arrowDown.mouseout"/>
                  </use>
                  <path fill="none" stroke="white" stroke-width="1.5" d="M0,-3.0v7 M-2.5,-0.5L0,-3.0L2.5,-0.5"/>
                </g>
                <g id="arrowLeft" xlink:href="#dirArrow" transform="rotate(270) translate(-36 17)" onmousedown="handlePan(-1,0)">
                  <use xlink:href="#rim" fill="#404040">
                        <set attributeName="fill" to="#808080" begin="arrowLeft.mouseover" end="arrowLeft.mouseout"/>
                  </use>
                  <path fill="none" stroke="white" stroke-width="1.5" d="M0,-3.0v7 M-2.5,-0.5L0,-3.0L2.5,-0.5"/>
                </g>
        </g>
        <svg viewBox="0 0 15 15" width="100%" height="30px" preserveAspectRatio="xMaxYMin meet">
         <g id="arrow_out" transform="scale(0.3 0.3)">
          <a xlink:href="_a_r_tracker_square_8h__dep__incl_org.svg" target="_base">
           <rect id="button" ry="5" rx="5" y="6" x="6" height="38" width="38"
                fill="#f2f5e9" fill-opacity="0.5" stroke="#606060" stroke-width="1.0"/>
           <path id="arrow"
             d="M 11.500037,31.436501 C 11.940474,20.09759 22.043105,11.32322 32.158766,21.979434 L 37.068811,17.246167 C 37.068811,17.246167 37.088388,32 37.088388,32 L 22.160133,31.978069 C 22.160133,31.978069 26.997745,27.140456 26.997745,27.140456 C 18.528582,18.264221 13.291696,25.230495 11.500037,31.436501 z"
             style="fill:#404040;"/>
          </a>
         </g>
        </svg>
</svg>
