<?xml version="1.0" encoding="UTF-8" standalone="no"?>
<!DOCTYPE svg PUBLIC "-//W3C//DTD SVG 1.1//EN"
 "http://www.w3.org/Graphics/SVG/1.1/DTD/svg11.dtd">
<!-- Generated by graphviz version 7.0.5 (20221223.1930)
 -->
<!-- Title: Source/ARX/ARTrackerSquare.cpp Pages: 1 -->
<svg width="949pt" height="478pt"
 viewBox="0.00 0.00 949.00 478.00" xmlns="http://www.w3.org/2000/svg" xmlns:xlink="http://www.w3.org/1999/xlink">
<g id="graph0" class="graph" transform="scale(1 1) rotate(0) translate(4 474)">
<title>Source/ARX/ARTrackerSquare.cpp</title>
<!-- Node1 -->
<g id="node1" class="node">
<title>Node1</title>
<g id="a_node1"><a xlink:title=" ">
<polygon fill="#999999" stroke="#666666" points="684.5,-470 513.5,-470 513.5,-451 684.5,-451 684.5,-470"/>
<text text-anchor="middle" x="599" y="-458" font-family="Helvetica,sans-Serif" font-size="10.00">Source/ARX/ARTrackerSquare.cpp</text>
</a>
</g>
</g>
<!-- Node2 -->
<g id="node2" class="node">
<title>Node2</title>
<g id="a_node2"><a xlink:href="_a_r_tracker_square_8h.html" target="_top" xlink:title=" ">
<polygon fill="white" stroke="#666666" points="559.5,-415 432.5,-415 432.5,-396 559.5,-396 559.5,-415"/>
<text text-anchor="middle" x="496" y="-403" font-family="Helvetica,sans-Serif" font-size="10.00">ARX/ARTrackerSquare.h</text>
</a>
</g>
</g>
<!-- Node1&#45;&gt;Node2 -->
<g id="edge1" class="edge">
<title>Node1&#45;&gt;Node2</title>
<path fill="none" stroke="#63b8ff" d="M581.53,-450.51C565.6,-442.31 541.81,-430.07 523.36,-420.58"/>
<polygon fill="#63b8ff" stroke="#63b8ff" points="525.05,-417.51 514.56,-416.05 521.85,-423.74 525.05,-417.51"/>
</g>
<!-- Node3 -->
<g id="node3" class="node">
<title>Node3</title>
<g id="a_node3"><a xlink:href="_a_r_trackable_square_8h.html" target="_top" xlink:title=" ">
<polygon fill="white" stroke="#666666" points="328.5,-354.5 191.5,-354.5 191.5,-335.5 328.5,-335.5 328.5,-354.5"/>
<text text-anchor="middle" x="260" y="-342.5" font-family="Helvetica,sans-Serif" font-size="10.00">ARX/ARTrackableSquare.h</text>
</a>
</g>
</g>
<!-- Node1&#45;&gt;Node3 -->
<g id="edge45" class="edge">
<title>Node1&#45;&gt;Node3</title>
<path fill="none" stroke="#63b8ff" d="M556.41,-450.54C520.65,-442.58 468.43,-429.9 424,-415 375.32,-398.67 320.72,-374.46 288.41,-359.48"/>
<polygon fill="#63b8ff" stroke="#63b8ff" points="290.26,-356.49 279.72,-355.43 287.3,-362.83 290.26,-356.49"/>
</g>
<!-- Node5 -->
<g id="node5" class="node">
<title>Node5</title>
<g id="a_node5"><a xlink:href="ar_8h.html" target="_top" xlink:title="artoolkitX core routines.">
<polygon fill="white" stroke="#666666" points="537,-129 463,-129 463,-110 537,-110 537,-129"/>
<text text-anchor="middle" x="500" y="-117" font-family="Helvetica,sans-Serif" font-size="10.00">ARX/AR/ar.h</text>
</a>
</g>
</g>
<!-- Node1&#45;&gt;Node5 -->
<g id="edge50" class="edge">
<title>Node1&#45;&gt;Node5</title>
<path fill="none" stroke="#63b8ff" d="M645.7,-450.53C725.12,-433.93 878,-395.55 878,-346 878,-346 878,-346 878,-228.5 878,-160.73 650.51,-133.11 548.49,-124.13"/>
<polygon fill="#63b8ff" stroke="#63b8ff" points="549.05,-120.67 538.79,-123.31 548.45,-127.64 549.05,-120.67"/>
</g>
<!-- Node26 -->
<g id="node26" class="node">
<title>Node26</title>
<g id="a_node26"><a xlink:href="_a_r_trackable_multi_square_8h.html" target="_top" xlink:title=" ">
<polygon fill="white" stroke="#666666" points="850,-354.5 692,-354.5 692,-335.5 850,-335.5 850,-354.5"/>
<text text-anchor="middle" x="771" y="-342.5" font-family="Helvetica,sans-Serif" font-size="10.00">ARX/ARTrackableMultiSquare.h</text>
</a>
</g>
</g>
<!-- Node1&#45;&gt;Node26 -->
<g id="edge46" class="edge">
<title>Node1&#45;&gt;Node26</title>
<path fill="none" stroke="#63b8ff" d="M612.5,-450.59C641.89,-431.2 711.94,-384.97 748.28,-361"/>
<polygon fill="#63b8ff" stroke="#63b8ff" points="749.88,-364.13 756.3,-355.7 746.03,-358.28 749.88,-364.13"/>
</g>
<!-- Node32 -->
<g id="node32" class="node">
<title>Node32</title>
<g id="a_node32"><a xlink:href="_a_r_trackable_multi_square_auto_8h.html" target="_top" xlink:title=" ">
<polygon fill="white" stroke="#666666" points="673.5,-360 524.5,-360 524.5,-330 673.5,-330 673.5,-360"/>
<text text-anchor="start" x="532.5" y="-348" font-family="Helvetica,sans-Serif" font-size="10.00">ARX/ARTrackableMultiSquare</text>
<text text-anchor="middle" x="599" y="-337" font-family="Helvetica,sans-Serif" font-size="10.00">Auto.h</text>
</a>
</g>
</g>
<!-- Node1&#45;&gt;Node32 -->
<g id="edge47" class="edge">
<title>Node1&#45;&gt;Node32</title>
<path fill="none" stroke="#63b8ff" d="M599,-450.59C599,-433.8 599,-396.87 599,-371.71"/>
<polygon fill="#63b8ff" stroke="#63b8ff" points="602.5,-371.95 599,-361.95 595.5,-371.95 602.5,-371.95"/>
</g>
<!-- Node2&#45;&gt;Node3 -->
<g id="edge2" class="edge">
<title>Node2&#45;&gt;Node3</title>
<path fill="none" stroke="#63b8ff" d="M459.9,-395.55C418.95,-385.4 352.04,-368.81 307.04,-357.66"/>
<polygon fill="#63b8ff" stroke="#63b8ff" points="308.11,-354.32 297.57,-355.31 306.43,-361.11 308.11,-354.32"/>
</g>
<!-- Node2&#45;&gt;Node5 -->
<g id="edge44" class="edge">
<title>Node2&#45;&gt;Node5</title>
<path fill="none" stroke="#63b8ff" d="M497.85,-395.73C503.98,-366.12 523.64,-267.03 530,-184 530.65,-175.58 532.47,-173.08 530,-165 527.01,-155.23 521.08,-145.66 515.27,-137.91"/>
<polygon fill="#63b8ff" stroke="#63b8ff" points="518.18,-135.95 509.16,-130.38 512.74,-140.35 518.18,-135.95"/>
</g>
<!-- Node2&#45;&gt;Node26 -->
<g id="edge34" class="edge">
<title>Node2&#45;&gt;Node26</title>
<path fill="none" stroke="#63b8ff" d="M538.07,-395.55C586.29,-385.29 665.41,-368.46 717.85,-357.31"/>
<polygon fill="#63b8ff" stroke="#63b8ff" points="718.41,-360.77 727.46,-355.26 716.95,-353.92 718.41,-360.77"/>
</g>
<!-- Node28 -->
<g id="node28" class="node">
<title>Node28</title>
<g id="a_node28"><a xlink:href="_a_r_tracker_video_8h.html" target="_top" xlink:title=" ">
<polygon fill="white" stroke="#666666" points="467.5,-354.5 346.5,-354.5 346.5,-335.5 467.5,-335.5 467.5,-354.5"/>
<text text-anchor="middle" x="407" y="-342.5" font-family="Helvetica,sans-Serif" font-size="10.00">ARX/ARTrackerVideo.h</text>
</a>
</g>
</g>
<!-- Node2&#45;&gt;Node28 -->
<g id="edge38" class="edge">
<title>Node2&#45;&gt;Node28</title>
<path fill="none" stroke="#63b8ff" d="M482.48,-395.62C468.63,-386.51 446.82,-372.18 430.2,-361.25"/>
<polygon fill="#63b8ff" stroke="#63b8ff" points="432.19,-358.37 421.91,-355.8 428.34,-364.22 432.19,-358.37"/>
</g>
<!-- Node4 -->
<g id="node4" class="node">
<title>Node4</title>
<g id="a_node4"><a xlink:href="_a_r_trackable_8h.html" target="_top" xlink:title=" ">
<polygon fill="white" stroke="#666666" points="489,-239 383,-239 383,-220 489,-220 489,-239"/>
<text text-anchor="middle" x="436" y="-227" font-family="Helvetica,sans-Serif" font-size="10.00">ARX/ARTrackable.h</text>
</a>
</g>
</g>
<!-- Node3&#45;&gt;Node4 -->
<g id="edge3" class="edge">
<title>Node3&#45;&gt;Node4</title>
<path fill="none" stroke="#63b8ff" d="M291.24,-335.08C316.43,-326.94 351.98,-313.23 379,-294 396.68,-281.42 412.78,-262.45 423.33,-248.52"/>
<polygon fill="#63b8ff" stroke="#63b8ff" points="426.01,-250.79 429.08,-240.65 420.35,-246.66 426.01,-250.79"/>
</g>
<!-- Node4&#45;&gt;Node5 -->
<g id="edge4" class="edge">
<title>Node4&#45;&gt;Node5</title>
<path fill="none" stroke="#63b8ff" d="M416.11,-219.62C392.97,-208.01 359.75,-186.61 375,-165 392.2,-140.62 423.98,-129.52 451.2,-124.5"/>
<polygon fill="#63b8ff" stroke="#63b8ff" points="451.7,-127.97 461.03,-122.94 450.6,-121.05 451.7,-127.97"/>
</g>
<!-- Node22 -->
<g id="node22" class="node">
<title>Node22</title>
<g id="a_node22"><a xlink:href="ar_filter_trans_mat_8h.html" target="_top" xlink:title="Provides filtering of transformation matrices (pose estimates).">
<polygon fill="white" stroke="#666666" points="520.5,-184 383.5,-184 383.5,-165 520.5,-165 520.5,-184"/>
<text text-anchor="middle" x="452" y="-172" font-family="Helvetica,sans-Serif" font-size="10.00">ARX/AR/arFilterTransMat.h</text>
</a>
</g>
</g>
<!-- Node4&#45;&gt;Node22 -->
<g id="edge28" class="edge">
<title>Node4&#45;&gt;Node22</title>
<path fill="none" stroke="#63b8ff" d="M438.64,-219.75C440.64,-213.11 443.48,-203.73 446.02,-195.31"/>
<polygon fill="#63b8ff" stroke="#63b8ff" points="449.32,-196.48 448.86,-185.89 442.62,-194.45 449.32,-196.48"/>
</g>
<!-- Node23 -->
<g id="node23" class="node">
<title>Node23</title>
<g id="a_node23"><a xlink:href="_a_r_pattern_8h.html" target="_top" xlink:title=" ">
<polygon fill="white" stroke="#666666" points="326.5,-184 231.5,-184 231.5,-165 326.5,-165 326.5,-184"/>
<text text-anchor="middle" x="279" y="-172" font-family="Helvetica,sans-Serif" font-size="10.00">ARX/ARPattern.h</text>
</a>
</g>
</g>
<!-- Node4&#45;&gt;Node23 -->
<g id="edge30" class="edge">
<title>Node4&#45;&gt;Node23</title>
<path fill="none" stroke="#63b8ff" d="M409.37,-219.51C383.8,-210.88 344.95,-197.76 316.31,-188.1"/>
<polygon fill="#63b8ff" stroke="#63b8ff" points="317.53,-184.81 306.94,-184.93 315.29,-191.45 317.53,-184.81"/>
</g>
<!-- Node25 -->
<g id="node25" class="node">
<title>Node25</title>
<g id="a_node25"><a xlink:title=" ">
<polygon fill="#e0e0e0" stroke="#999999" points="213,-184 169,-184 169,-165 213,-165 213,-184"/>
<text text-anchor="middle" x="191" y="-172" font-family="Helvetica,sans-Serif" font-size="10.00">vector</text>
</a>
</g>
</g>
<!-- Node4&#45;&gt;Node25 -->
<g id="edge33" class="edge">
<title>Node4&#45;&gt;Node25</title>
<path fill="none" stroke="#63b8ff" d="M389.72,-219.58C348.83,-211.53 287.34,-199.01 224.3,-184.19"/>
<polygon fill="#63b8ff" stroke="#63b8ff" points="225.35,-180.85 214.81,-181.95 223.74,-187.66 225.35,-180.85"/>
</g>
<!-- Node6 -->
<g id="node6" class="node">
<title>Node6</title>
<g id="a_node6"><a xlink:title=" ">
<polygon fill="#e0e0e0" stroke="#999999" points="457,-19 411,-19 411,0 457,0 457,-19"/>
<text text-anchor="middle" x="434" y="-7" font-family="Helvetica,sans-Serif" font-size="10.00">stdio.h</text>
</a>
</g>
</g>
<!-- Node5&#45;&gt;Node6 -->
<g id="edge5" class="edge">
<title>Node5&#45;&gt;Node6</title>
<path fill="none" stroke="#63b8ff" d="M462.89,-114C418.15,-107.73 346.98,-94.73 331,-74 325.84,-67.31 326.36,-62.06 331,-55 339,-42.82 372.84,-29.68 399.57,-20.86"/>
<polygon fill="#63b8ff" stroke="#63b8ff" points="400.6,-24.2 409.06,-17.82 398.47,-17.54 400.6,-24.2"/>
</g>
<!-- Node7 -->
<g id="node7" class="node">
<title>Node7</title>
<g id="a_node7"><a xlink:title=" ">
<polygon fill="#e0e0e0" stroke="#999999" points="48,-19 0,-19 0,0 48,0 48,-19"/>
<text text-anchor="middle" x="24" y="-7" font-family="Helvetica,sans-Serif" font-size="10.00">stdlib.h</text>
</a>
</g>
</g>
<!-- Node5&#45;&gt;Node7 -->
<g id="edge6" class="edge">
<title>Node5&#45;&gt;Node7</title>
<path fill="none" stroke="#63b8ff" d="M462.58,-117.29C375.22,-114.01 160.33,-103.14 95,-74 71.74,-63.62 50.76,-42.75 37.75,-27.76"/>
<polygon fill="#63b8ff" stroke="#63b8ff" points="40.78,-25.94 31.69,-20.5 35.41,-30.42 40.78,-25.94"/>
</g>
<!-- Node8 -->
<g id="node8" class="node">
<title>Node8</title>
<g id="a_node8"><a xlink:title=" ">
<polygon fill="#e0e0e0" stroke="#999999" points="170.5,-74 121.5,-74 121.5,-55 170.5,-55 170.5,-74"/>
<text text-anchor="middle" x="146" y="-62" font-family="Helvetica,sans-Serif" font-size="10.00">stdint.h</text>
</a>
</g>
</g>
<!-- Node5&#45;&gt;Node8 -->
<g id="edge7" class="edge">
<title>Node5&#45;&gt;Node8</title>
<path fill="none" stroke="#63b8ff" d="M462.83,-114.64C404.95,-108.34 289.58,-94.65 181.88,-74.16"/>
<polygon fill="#63b8ff" stroke="#63b8ff" points="182.78,-70.77 172.3,-72.32 181.46,-77.65 182.78,-70.77"/>
</g>
<!-- Node9 -->
<g id="node9" class="node">
<title>Node9</title>
<g id="a_node9"><a xlink:title=" ">
<polygon fill="#e0e0e0" stroke="#999999" points="115.5,-19 66.5,-19 66.5,0 115.5,0 115.5,-19"/>
<text text-anchor="middle" x="91" y="-7" font-family="Helvetica,sans-Serif" font-size="10.00">string.h</text>
</a>
</g>
</g>
<!-- Node5&#45;&gt;Node9 -->
<g id="edge8" class="edge">
<title>Node5&#45;&gt;Node9</title>
<path fill="none" stroke="#63b8ff" d="M462.81,-116.5C370.98,-111.23 138.93,-95.9 112,-74 99.04,-63.46 94.01,-44.71 92.1,-30.31"/>
<polygon fill="#63b8ff" stroke="#63b8ff" points="95.61,-30.25 91.23,-20.6 88.63,-30.87 95.61,-30.25"/>
</g>
<!-- Node10 -->
<g id="node10" class="node">
<title>Node10</title>
<g id="a_node10"><a xlink:title=" ">
<polygon fill="#e0e0e0" stroke="#999999" points="838,-19 746,-19 746,0 838,0 838,-19"/>
<text text-anchor="middle" x="792" y="-7" font-family="Helvetica,sans-Serif" font-size="10.00">ARX/AR/config.h</text>
</a>
</g>
</g>
<!-- Node5&#45;&gt;Node10 -->
<g id="edge9" class="edge">
<title>Node5&#45;&gt;Node10</title>
<path fill="none" stroke="#63b8ff" d="M537.47,-110.13C570.3,-102.31 619.02,-89.53 660,-74 678.03,-67.17 681.64,-63.38 699,-55 720.32,-44.7 744.44,-33.17 762.78,-24.42"/>
<polygon fill="#63b8ff" stroke="#63b8ff" points="764.21,-27.61 771.73,-20.15 761.2,-21.29 764.21,-27.61"/>
</g>
<!-- Node11 -->
<g id="node11" class="node">
<title>Node11</title>
<g id="a_node11"><a xlink:href="ar_config_8h.html" target="_top" xlink:title=" ">
<polygon fill="white" stroke="#666666" points="442.5,-74 339.5,-74 339.5,-55 442.5,-55 442.5,-74"/>
<text text-anchor="middle" x="391" y="-62" font-family="Helvetica,sans-Serif" font-size="10.00">ARX/AR/arConfig.h</text>
</a>
</g>
</g>
<!-- Node5&#45;&gt;Node11 -->
<g id="edge10" class="edge">
<title>Node5&#45;&gt;Node11</title>
<path fill="none" stroke="#63b8ff" d="M481.51,-109.51C464.5,-101.24 439.01,-88.84 419.41,-79.31"/>
<polygon fill="#63b8ff" stroke="#63b8ff" points="421.1,-76.25 410.58,-75.02 418.04,-82.54 421.1,-76.25"/>
</g>
<!-- Node12 -->
<g id="node12" class="node">
<title>Node12</title>
<g id="a_node12"><a xlink:href="log_8h.html" target="_top" xlink:title="Logging utilities.">
<polygon fill="white" stroke="#666666" points="283,-74 189,-74 189,-55 283,-55 283,-74"/>
<text text-anchor="middle" x="236" y="-62" font-family="Helvetica,sans-Serif" font-size="10.00">ARX/ARUtil/log.h</text>
</a>
</g>
</g>
<!-- Node5&#45;&gt;Node12 -->
<g id="edge11" class="edge">
<title>Node5&#45;&gt;Node12</title>
<path fill="none" stroke="#63b8ff" d="M462.74,-111.02C418.2,-102.08 343.27,-87.04 291.82,-76.71"/>
<polygon fill="#63b8ff" stroke="#63b8ff" points="292.55,-73.28 282.05,-74.75 291.17,-80.15 292.55,-73.28"/>
</g>
<!-- Node16 -->
<g id="node16" class="node">
<title>Node16</title>
<g id="a_node16"><a xlink:href="matrix_8h.html" target="_top" xlink:title=" ">
<polygon fill="white" stroke="#666666" points="650.5,-74 557.5,-74 557.5,-55 650.5,-55 650.5,-74"/>
<text text-anchor="middle" x="604" y="-62" font-family="Helvetica,sans-Serif" font-size="10.00">ARX/AR/matrix.h</text>
</a>
</g>
</g>
<!-- Node5&#45;&gt;Node16 -->
<g id="edge18" class="edge">
<title>Node5&#45;&gt;Node16</title>
<path fill="none" stroke="#63b8ff" d="M517.64,-109.51C533.73,-101.31 557.75,-89.07 576.37,-79.58"/>
<polygon fill="#63b8ff" stroke="#63b8ff" points="577.95,-82.7 585.27,-75.05 574.77,-76.47 577.95,-82.7"/>
</g>
<!-- Node18 -->
<g id="node18" class="node">
<title>Node18</title>
<g id="a_node18"><a xlink:href="icp_8h.html" target="_top" xlink:title=" ">
<polygon fill="white" stroke="#666666" points="539.5,-74 460.5,-74 460.5,-55 539.5,-55 539.5,-74"/>
<text text-anchor="middle" x="500" y="-62" font-family="Helvetica,sans-Serif" font-size="10.00">ARX/AR/icp.h</text>
</a>
</g>
</g>
<!-- Node5&#45;&gt;Node18 -->
<g id="edge20" class="edge">
<title>Node5&#45;&gt;Node18</title>
<path fill="none" stroke="#63b8ff" d="M500,-109.75C500,-103.27 500,-94.16 500,-85.9"/>
<polygon fill="#63b8ff" stroke="#63b8ff" points="503.5,-85.96 500,-75.96 496.5,-85.96 503.5,-85.96"/>
</g>
<!-- Node20 -->
<g id="node20" class="node">
<title>Node20</title>
<g id="a_node20"><a xlink:href="param_8h.html" target="_top" xlink:title="artoolkitX functions for handling calibrated camera parameters.">
<polygon fill="white" stroke="#666666" points="800.5,-74 707.5,-74 707.5,-55 800.5,-55 800.5,-74"/>
<text text-anchor="middle" x="754" y="-62" font-family="Helvetica,sans-Serif" font-size="10.00">ARX/AR/param.h</text>
</a>
</g>
</g>
<!-- Node5&#45;&gt;Node20 -->
<g id="edge23" class="edge">
<title>Node5&#45;&gt;Node20</title>
<path fill="none" stroke="#63b8ff" d="M537.32,-109.63C579.15,-100.5 647.27,-86.26 696.02,-76.43"/>
<polygon fill="#63b8ff" stroke="#63b8ff" points="696.43,-79.92 705.55,-74.52 695.06,-73.06 696.43,-79.92"/>
</g>
<!-- Node21 -->
<g id="node21" class="node">
<title>Node21</title>
<g id="a_node21"><a xlink:href="ar_image_proc_8h.html" target="_top" xlink:title="artoolkitX functions for 2D luminance image processing.">
<polygon fill="white" stroke="#666666" points="941,-74 819,-74 819,-55 941,-55 941,-74"/>
<text text-anchor="middle" x="880" y="-62" font-family="Helvetica,sans-Serif" font-size="10.00">ARX/AR/arImageProc.h</text>
</a>
</g>
</g>
<!-- Node5&#45;&gt;Node21 -->
<g id="edge25" class="edge">
<title>Node5&#45;&gt;Node21</title>
<path fill="none" stroke="#63b8ff" d="M537.34,-112.68C600.01,-103.55 727.11,-85.78 807.71,-74.85"/>
<polygon fill="#63b8ff" stroke="#63b8ff" points="807.82,-78.36 817.26,-73.55 806.88,-71.43 807.82,-78.36"/>
</g>
<!-- Node12&#45;&gt;Node6 -->
<g id="edge12" class="edge">
<title>Node12&#45;&gt;Node6</title>
<path fill="none" stroke="#63b8ff" d="M269.59,-54.51C305.73,-44.84 362.92,-29.53 399.43,-19.75"/>
<polygon fill="#63b8ff" stroke="#63b8ff" points="400.29,-23.15 409.05,-17.18 398.48,-16.38 400.29,-23.15"/>
</g>
<!-- Node12&#45;&gt;Node7 -->
<g id="edge13" class="edge">
<title>Node12&#45;&gt;Node7</title>
<path fill="none" stroke="#63b8ff" d="M199.64,-54.56C165.72,-46.19 113.41,-33.24 59.04,-19.5"/>
<polygon fill="#63b8ff" stroke="#63b8ff" points="60.16,-16.17 49.61,-17.12 58.45,-22.96 60.16,-16.17"/>
</g>
<!-- Node12&#45;&gt;Node9 -->
<g id="edge14" class="edge">
<title>Node12&#45;&gt;Node9</title>
<path fill="none" stroke="#63b8ff" d="M211.4,-54.51C187.93,-45.93 152.33,-32.92 125.93,-23.27"/>
<polygon fill="#63b8ff" stroke="#63b8ff" points="127.25,-20.02 116.66,-19.88 124.85,-26.6 127.25,-20.02"/>
</g>
<!-- Node13 -->
<g id="node13" class="node">
<title>Node13</title>
<g id="a_node13"><a xlink:title=" ">
<polygon fill="#e0e0e0" stroke="#999999" points="186,-19 134,-19 134,0 186,0 186,-19"/>
<text text-anchor="middle" x="160" y="-7" font-family="Helvetica,sans-Serif" font-size="10.00">stdarg.h</text>
</a>
</g>
</g>
<!-- Node12&#45;&gt;Node13 -->
<g id="edge15" class="edge">
<title>Node12&#45;&gt;Node13</title>
<path fill="none" stroke="#63b8ff" d="M223.11,-54.51C211.9,-46.7 195.43,-35.21 182.12,-25.93"/>
<polygon fill="#63b8ff" stroke="#63b8ff" points="184.15,-23.07 173.94,-20.22 180.14,-28.81 184.15,-23.07"/>
</g>
<!-- Node14 -->
<g id="node14" class="node">
<title>Node14</title>
<g id="a_node14"><a xlink:title=" ">
<polygon fill="#e0e0e0" stroke="#999999" points="269.5,-19 204.5,-19 204.5,0 269.5,0 269.5,-19"/>
<text text-anchor="middle" x="237" y="-7" font-family="Helvetica,sans-Serif" font-size="10.00">sys/errno.h</text>
</a>
</g>
</g>
<!-- Node12&#45;&gt;Node14 -->
<g id="edge16" class="edge">
<title>Node12&#45;&gt;Node14</title>
<path fill="none" stroke="#63b8ff" d="M236.17,-54.75C236.29,-48.27 236.46,-39.16 236.62,-30.9"/>
<polygon fill="#63b8ff" stroke="#63b8ff" points="240.11,-31.02 236.8,-20.96 233.11,-30.89 240.11,-31.02"/>
</g>
<!-- Node15 -->
<g id="node15" class="node">
<title>Node15</title>
<g id="a_node15"><a xlink:href="types_8h.html" target="_top" xlink:title=" ">
<polygon fill="white" stroke="#666666" points="392.5,-19 287.5,-19 287.5,0 392.5,0 392.5,-19"/>
<text text-anchor="middle" x="340" y="-7" font-family="Helvetica,sans-Serif" font-size="10.00">ARX/ARUtil/types.h</text>
</a>
</g>
</g>
<!-- Node12&#45;&gt;Node15 -->
<g id="edge17" class="edge">
<title>Node12&#45;&gt;Node15</title>
<path fill="none" stroke="#63b8ff" d="M253.64,-54.51C269.73,-46.31 293.75,-34.07 312.37,-24.58"/>
<polygon fill="#63b8ff" stroke="#63b8ff" points="313.95,-27.7 321.27,-20.05 310.77,-21.47 313.95,-27.7"/>
</g>
<!-- Node17 -->
<g id="node17" class="node">
<title>Node17</title>
<g id="a_node17"><a xlink:title=" ">
<polygon fill="#e0e0e0" stroke="#999999" points="640.5,-19 593.5,-19 593.5,0 640.5,0 640.5,-19"/>
<text text-anchor="middle" x="617" y="-7" font-family="Helvetica,sans-Serif" font-size="10.00">math.h</text>
</a>
</g>
</g>
<!-- Node16&#45;&gt;Node17 -->
<g id="edge19" class="edge">
<title>Node16&#45;&gt;Node17</title>
<path fill="none" stroke="#63b8ff" d="M606.15,-54.75C607.76,-48.19 610.02,-38.95 612.07,-30.6"/>
<polygon fill="#63b8ff" stroke="#63b8ff" points="615.46,-31.46 614.45,-20.91 608.66,-29.79 615.46,-31.46"/>
</g>
<!-- Node18&#45;&gt;Node6 -->
<g id="edge21" class="edge">
<title>Node18&#45;&gt;Node6</title>
<path fill="none" stroke="#63b8ff" d="M488.8,-54.51C479.26,-46.85 465.33,-35.66 453.89,-26.47"/>
<polygon fill="#63b8ff" stroke="#63b8ff" points="456.2,-23.84 446.21,-20.31 451.82,-29.3 456.2,-23.84"/>
</g>
<!-- Node19 -->
<g id="node19" class="node">
<title>Node19</title>
<g id="a_node19"><a xlink:href="icp_core_8h.html" target="_top" xlink:title=" ">
<polygon fill="white" stroke="#666666" points="575,-19 475,-19 475,0 575,0 575,-19"/>
<text text-anchor="middle" x="525" y="-7" font-family="Helvetica,sans-Serif" font-size="10.00">ARX/AR/icpCore.h</text>
</a>
</g>
</g>
<!-- Node18&#45;&gt;Node19 -->
<g id="edge22" class="edge">
<title>Node18&#45;&gt;Node19</title>
<path fill="none" stroke="#63b8ff" d="M504.13,-54.75C507.33,-47.96 511.89,-38.3 515.93,-29.73"/>
<polygon fill="#63b8ff" stroke="#63b8ff" points="519.04,-31.35 520.14,-20.81 512.7,-28.36 519.04,-31.35"/>
</g>
<!-- Node20&#45;&gt;Node5 -->
<g id="edge24" class="edge">
<title>Node20&#45;&gt;Node5</title>
<path fill="none" stroke="#63b8ff" d="M716.48,-74.41C671.88,-84.15 597.6,-99.65 548.65,-109.44"/>
<polygon fill="#63b8ff" stroke="#63b8ff" points="548,-106 538.87,-111.38 549.36,-112.87 548,-106"/>
</g>
<!-- Node21&#45;&gt;Node5 -->
<g id="edge27" class="edge">
<title>Node21&#45;&gt;Node5</title>
<path fill="none" stroke="#63b8ff" d="M820.71,-74.5C745.67,-85.28 618,-103.05 548.47,-112.37"/>
<polygon fill="#63b8ff" stroke="#63b8ff" points="548.37,-108.85 538.92,-113.64 549.29,-115.79 548.37,-108.85"/>
</g>
<!-- Node21&#45;&gt;Node10 -->
<g id="edge26" class="edge">
<title>Node21&#45;&gt;Node10</title>
<path fill="none" stroke="#63b8ff" d="M865.07,-54.51C851.72,-46.47 831.89,-34.53 816.26,-25.11"/>
<polygon fill="#63b8ff" stroke="#63b8ff" points="818.38,-22.3 808,-20.14 814.76,-28.3 818.38,-22.3"/>
</g>
<!-- Node22&#45;&gt;Node5 -->
<g id="edge29" class="edge">
<title>Node22&#45;&gt;Node5</title>
<path fill="none" stroke="#63b8ff" d="M459.93,-164.75C466.56,-157.43 476.22,-146.76 484.39,-137.74"/>
<polygon fill="#63b8ff" stroke="#63b8ff" points="486.77,-140.33 490.89,-130.56 481.58,-135.63 486.77,-140.33"/>
</g>
<!-- Node23&#45;&gt;Node5 -->
<g id="edge31" class="edge">
<title>Node23&#45;&gt;Node5</title>
<path fill="none" stroke="#63b8ff" d="M316.49,-164.51C353.75,-155.57 411.05,-141.83 451.7,-132.08"/>
<polygon fill="#63b8ff" stroke="#63b8ff" points="452.32,-135.53 461.22,-129.8 450.68,-128.73 452.32,-135.53"/>
</g>
<!-- Node24 -->
<g id="node24" class="node">
<title>Node24</title>
<g id="a_node24"><a xlink:title=" ">
<polygon fill="#e0e0e0" stroke="#999999" points="305,-129 253,-129 253,-110 305,-110 305,-129"/>
<text text-anchor="middle" x="279" y="-117" font-family="Helvetica,sans-Serif" font-size="10.00">memory</text>
</a>
</g>
</g>
<!-- Node23&#45;&gt;Node24 -->
<g id="edge32" class="edge">
<title>Node23&#45;&gt;Node24</title>
<path fill="none" stroke="#63b8ff" d="M279,-164.75C279,-158.27 279,-149.16 279,-140.9"/>
<polygon fill="#63b8ff" stroke="#63b8ff" points="282.5,-140.96 279,-130.96 275.5,-140.96 282.5,-140.96"/>
</g>
<!-- Node26&#45;&gt;Node4 -->
<g id="edge35" class="edge">
<title>Node26&#45;&gt;Node4</title>
<path fill="none" stroke="#63b8ff" d="M711.64,-335C667.25,-327.16 605.58,-313.89 554,-294 537.85,-287.77 535.2,-283.27 520,-275 501.09,-264.71 479.65,-253.35 463.16,-244.69"/>
<polygon fill="#63b8ff" stroke="#63b8ff" points="464.94,-241.67 454.45,-240.13 461.68,-247.87 464.94,-241.67"/>
</g>
<!-- Node27 -->
<g id="node27" class="node">
<title>Node27</title>
<g id="a_node27"><a xlink:href="ar_multi_8h.html" target="_top" xlink:title=" ">
<polygon fill="white" stroke="#666666" points="657.5,-294 562.5,-294 562.5,-275 657.5,-275 657.5,-294"/>
<text text-anchor="middle" x="610" y="-282" font-family="Helvetica,sans-Serif" font-size="10.00">ARX/AR/arMulti.h</text>
</a>
</g>
</g>
<!-- Node26&#45;&gt;Node27 -->
<g id="edge36" class="edge">
<title>Node26&#45;&gt;Node27</title>
<path fill="none" stroke="#63b8ff" d="M746.55,-335.12C719.6,-325.32 676.01,-309.48 645.34,-298.34"/>
<polygon fill="#63b8ff" stroke="#63b8ff" points="646.7,-295.11 636.11,-294.99 644.31,-301.69 646.7,-295.11"/>
</g>
<!-- Node27&#45;&gt;Node5 -->
<g id="edge37" class="edge">
<title>Node27&#45;&gt;Node5</title>
<path fill="none" stroke="#63b8ff" d="M608.3,-274.6C603.93,-253.6 590.65,-200.13 563,-165 553.49,-152.91 539.83,-142.72 527.67,-135.15"/>
<polygon fill="#63b8ff" stroke="#63b8ff" points="529.62,-132.23 519.22,-130.19 526.07,-138.27 529.62,-132.23"/>
</g>
<!-- Node29 -->
<g id="node29" class="node">
<title>Node29</title>
<g id="a_node29"><a xlink:href="_a_r_tracker_8h.html" target="_top" xlink:title=" ">
<polygon fill="white" stroke="#666666" points="369.5,-294 274.5,-294 274.5,-275 369.5,-275 369.5,-294"/>
<text text-anchor="middle" x="322" y="-282" font-family="Helvetica,sans-Serif" font-size="10.00">ARX/ARTracker.h</text>
</a>
</g>
</g>
<!-- Node28&#45;&gt;Node29 -->
<g id="edge39" class="edge">
<title>Node28&#45;&gt;Node29</title>
<path fill="none" stroke="#63b8ff" d="M394.09,-335.12C380.86,-326.01 360.03,-311.68 344.16,-300.75"/>
<polygon fill="#63b8ff" stroke="#63b8ff" points="346.5,-298.11 336.28,-295.33 342.53,-303.88 346.5,-298.11"/>
</g>
<!-- Node29&#45;&gt;Node4 -->
<g id="edge41" class="edge">
<title>Node29&#45;&gt;Node4</title>
<path fill="none" stroke="#63b8ff" d="M341.34,-274.51C359.22,-266.2 386.04,-253.73 406.57,-244.18"/>
<polygon fill="#63b8ff" stroke="#63b8ff" points="407.98,-247.39 415.57,-240 405.03,-241.04 407.98,-247.39"/>
</g>
<!-- Node29&#45;&gt;Node25 -->
<g id="edge42" class="edge">
<title>Node29&#45;&gt;Node25</title>
<path fill="none" stroke="#63b8ff" d="M275.36,-274.56C253.17,-268.1 227.86,-257.2 211,-239 200.05,-227.19 195.1,-209.42 192.85,-195.68"/>
<polygon fill="#63b8ff" stroke="#63b8ff" points="196.36,-195.48 191.65,-185.98 189.41,-196.34 196.36,-195.48"/>
</g>
<!-- Node30 -->
<g id="node30" class="node">
<title>Node30</title>
<g id="a_node30"><a xlink:href="_platform_8h.html" target="_top" xlink:title=" ">
<polygon fill="white" stroke="#666666" points="365,-239 279,-239 279,-220 365,-220 365,-239"/>
<text text-anchor="middle" x="322" y="-227" font-family="Helvetica,sans-Serif" font-size="10.00">ARX/Platform.h</text>
</a>
</g>
</g>
<!-- Node29&#45;&gt;Node30 -->
<g id="edge40" class="edge">
<title>Node29&#45;&gt;Node30</title>
<path fill="none" stroke="#63b8ff" d="M322,-274.75C322,-268.27 322,-259.16 322,-250.9"/>
<polygon fill="#63b8ff" stroke="#63b8ff" points="325.5,-250.96 322,-240.96 318.5,-250.96 325.5,-250.96"/>
</g>
<!-- Node31 -->
<g id="node31" class="node">
<title>Node31</title>
<g id="a_node31"><a xlink:title=" ">
<polygon fill="#e0e0e0" stroke="#999999" points="260.5,-239 219.5,-239 219.5,-220 260.5,-220 260.5,-239"/>
<text text-anchor="middle" x="240" y="-227" font-family="Helvetica,sans-Serif" font-size="10.00">string</text>
</a>
</g>
</g>
<!-- Node29&#45;&gt;Node31 -->
<g id="edge43" class="edge">
<title>Node29&#45;&gt;Node31</title>
<path fill="none" stroke="#63b8ff" d="M308.09,-274.51C295.76,-266.54 277.53,-254.75 263.03,-245.38"/>
<polygon fill="#63b8ff" stroke="#63b8ff" points="265.27,-242.67 254.98,-240.18 261.47,-248.55 265.27,-242.67"/>
</g>
<!-- Node32&#45;&gt;Node4 -->
<g id="edge48" class="edge">
<title>Node32&#45;&gt;Node4</title>
<path fill="none" stroke="#63b8ff" d="M575.16,-329.63C559.31,-319.9 538.15,-306.57 520,-294 497.64,-278.51 472.89,-259.57 456.09,-246.43"/>
<polygon fill="#63b8ff" stroke="#63b8ff" points="458.41,-243.8 448.38,-240.37 454.08,-249.3 458.41,-243.8"/>
</g>
<!-- Node32&#45;&gt;Node27 -->
<g id="edge49" class="edge">
<title>Node32&#45;&gt;Node27</title>
<path fill="none" stroke="#63b8ff" d="M601.72,-329.54C603.09,-322.26 604.77,-313.31 606.26,-305.39"/>
<polygon fill="#63b8ff" stroke="#63b8ff" points="609.68,-306.14 608.09,-295.66 602.8,-304.84 609.68,-306.14"/>
</g>
</g>
</svg>
