<?xml version="1.0" encoding="UTF-8" standalone="no"?>
<!DOCTYPE svg PUBLIC "-//W3C//DTD SVG 1.1//EN"
 "http://www.w3.org/Graphics/SVG/1.1/DTD/svg11.dtd">
<!-- Generated by graphviz version 7.0.5 (20221223.1930)
 -->
<!-- Title: arwSetTrackableOptionFloat Pages: 1 -->
<svg width="526pt" height="113pt"
 viewBox="0.00 0.00 526.00 113.00" xmlns="http://www.w3.org/2000/svg" xmlns:xlink="http://www.w3.org/1999/xlink">
<g id="graph0" class="graph" transform="scale(1 1) rotate(0) translate(4 109)">
<title>arwSetTrackableOptionFloat</title>
<!-- Node1 -->
<g id="node1" class="node">
<title>Node1</title>
<g id="a_node1"><a xlink:title="Set floating&#45;point options associated with a trackable.">
<polygon fill="#999999" stroke="#666666" points="140,-62 0,-62 0,-43 140,-43 140,-62"/>
<text text-anchor="middle" x="70" y="-50" font-family="Helvetica,sans-Serif" font-size="10.00">arwSetTrackableOptionFloat</text>
</a>
</g>
</g>
<!-- Node2 -->
<g id="node2" class="node">
<title>Node2</title>
<g id="a_node2"><a xlink:href="class_a_r_controller.html#a4eafe05e50bdb9e788ad836f4c2104f1" target="_top" xlink:title="Searches the collection of trackables for the given ID.">
<polygon fill="white" stroke="#666666" points="329,-105 192,-105 192,-86 329,-86 329,-105"/>
<text text-anchor="middle" x="260.5" y="-93" font-family="Helvetica,sans-Serif" font-size="10.00">ARController::findTrackable</text>
</a>
</g>
</g>
<!-- Node1&#45;&gt;Node2 -->
<g id="edge1" class="edge">
<title>Node1&#45;&gt;Node2</title>
<path fill="none" stroke="#63b8ff" d="M114.68,-62.49C133.54,-66.81 155.85,-71.91 176,-76.5 185.27,-78.61 195.12,-80.86 204.69,-83.04"/>
<polygon fill="#63b8ff" stroke="#63b8ff" points="203.73,-86.41 214.25,-85.21 205.28,-79.58 203.73,-86.41"/>
</g>
<!-- Node3 -->
<g id="node3" class="node">
<title>Node3</title>
<g id="a_node3"><a xlink:href="class_a_r_trackable.html#ad395b7942a14c6862bcbe80891dfcd39" target="_top" xlink:title=" ">
<polygon fill="white" stroke="#666666" points="331.5,-67.5 189.5,-67.5 189.5,-37.5 331.5,-37.5 331.5,-67.5"/>
<text text-anchor="start" x="197.5" y="-55.5" font-family="Helvetica,sans-Serif" font-size="10.00">ARTrackable::setFilterCutoff</text>
<text text-anchor="middle" x="260.5" y="-44.5" font-family="Helvetica,sans-Serif" font-size="10.00">Frequency</text>
</a>
</g>
</g>
<!-- Node1&#45;&gt;Node3 -->
<g id="edge2" class="edge">
<title>Node1&#45;&gt;Node3</title>
<path fill="none" stroke="#63b8ff" d="M140.39,-52.5C152.6,-52.5 165.42,-52.5 177.93,-52.5"/>
<polygon fill="#63b8ff" stroke="#63b8ff" points="177.8,-56 187.8,-52.5 177.8,-49 177.8,-56"/>
</g>
<!-- Node5 -->
<g id="node5" class="node">
<title>Node5</title>
<g id="a_node5"><a xlink:href="class_a_r_trackable.html#a003593728264b87959a7494f3415e585" target="_top" xlink:title=" ">
<polygon fill="white" stroke="#666666" points="345,-19 176,-19 176,0 345,0 345,-19"/>
<text text-anchor="middle" x="260.5" y="-7" font-family="Helvetica,sans-Serif" font-size="10.00">ARTrackable::setFilterSampleRate</text>
</a>
</g>
</g>
<!-- Node1&#45;&gt;Node5 -->
<g id="edge4" class="edge">
<title>Node1&#45;&gt;Node5</title>
<path fill="none" stroke="#63b8ff" d="M114.68,-42.51C133.54,-38.19 155.85,-33.09 176,-28.5 185.27,-26.39 195.12,-24.14 204.69,-21.96"/>
<polygon fill="#63b8ff" stroke="#63b8ff" points="205.28,-25.42 214.25,-19.79 203.73,-18.59 205.28,-25.42"/>
</g>
<!-- Node4 -->
<g id="node4" class="node">
<title>Node4</title>
<g id="a_node4"><a xlink:href="ar_filter_trans_mat_8c.html#ae82377e0d7286e5808b319a38c13c02c" target="_top" xlink:title="Set the filter parameters.">
<polygon fill="white" stroke="#666666" points="518,-40 381,-40 381,-21 518,-21 518,-40"/>
<text text-anchor="middle" x="449.5" y="-28" font-family="Helvetica,sans-Serif" font-size="10.00">arFilterTransMatSetParams</text>
</a>
</g>
</g>
<!-- Node3&#45;&gt;Node4 -->
<g id="edge3" class="edge">
<title>Node3&#45;&gt;Node4</title>
<path fill="none" stroke="#63b8ff" d="M331.93,-44.21C344.14,-42.78 356.9,-41.28 369.33,-39.81"/>
<polygon fill="#63b8ff" stroke="#63b8ff" points="369.58,-43.31 379.11,-38.66 368.77,-36.36 369.58,-43.31"/>
</g>
<!-- Node5&#45;&gt;Node4 -->
<g id="edge5" class="edge">
<title>Node5&#45;&gt;Node4</title>
<path fill="none" stroke="#63b8ff" d="M345.43,-18.93C353.32,-19.81 361.31,-20.71 369.16,-21.59"/>
<polygon fill="#63b8ff" stroke="#63b8ff" points="368.7,-25.06 379.03,-22.7 369.48,-18.1 368.7,-25.06"/>
</g>
</g>
</svg>
