<?xml version="1.0" encoding="UTF-8" standalone="no"?>
<!DOCTYPE svg PUBLIC "-//W3C//DTD SVG 1.1//EN"
 "http://www.w3.org/Graphics/SVG/1.1/DTD/svg11.dtd">
<!-- Generated by graphviz version 8.0.5 (20230430.1635)
 -->
<!-- Title: Source/ARX/OCVT/HomographyInfo.h Pages: 1 -->
<svg width="351pt" height="149pt"
 viewBox="0.00 0.00 351.25 149.00" xmlns="http://www.w3.org/2000/svg" xmlns:xlink="http://www.w3.org/1999/xlink">
<g id="graph0" class="graph" transform="scale(1 1) rotate(0) translate(4 145)">
<title>Source/ARX/OCVT/HomographyInfo.h</title>
<!-- Node1 -->
<g id="node1" class="node">
<title>Node1</title>
<g id="a_node1"><a xlink:title=" ">
<polygon fill="#999999" stroke="#666666" points="245.62,-141 85.62,-141 85.62,-110.5 245.62,-110.5 245.62,-141"/>
<text text-anchor="start" x="93.62" y="-127.5" font-family="Helvetica,sans-Serif" font-size="10.00">Source/ARX/OCVT/Homography</text>
<text text-anchor="middle" x="165.62" y="-116.25" font-family="Helvetica,sans-Serif" font-size="10.00">Info.h</text>
</a>
</g>
</g>
<!-- Node2 -->
<g id="node2" class="node">
<title>Node2</title>
<g id="a_node2"><a xlink:href="_o_c_v_config_8h.html" target="_top" xlink:title=" ">
<polygon fill="white" stroke="#666666" points="202.88,-74.5 128.38,-74.5 128.38,-55.25 202.88,-55.25 202.88,-74.5"/>
<text text-anchor="middle" x="165.62" y="-61" font-family="Helvetica,sans-Serif" font-size="10.00">OCVConfig.h</text>
</a>
</g>
</g>
<!-- Node1&#45;&gt;Node2 -->
<g id="edge1" class="edge">
<title>Node1&#45;&gt;Node2</title>
<path fill="none" stroke="#63b8ff" d="M165.62,-110.2C165.62,-102.87 165.62,-93.87 165.62,-85.91"/>
<polygon fill="#63b8ff" stroke="#63b8ff" points="169.13,-85.95 165.62,-75.95 162.13,-85.95 169.13,-85.95"/>
</g>
<!-- Node3 -->
<g id="node3" class="node">
<title>Node3</title>
<g id="a_node3"><a xlink:title=" ">
<polygon fill="#e0e0e0" stroke="#999999" points="93.25,-19.25 0,-19.25 0,0 93.25,0 93.25,-19.25"/>
<text text-anchor="middle" x="46.62" y="-5.75" font-family="Helvetica,sans-Serif" font-size="10.00">opencv2/core.hpp</text>
</a>
</g>
</g>
<!-- Node2&#45;&gt;Node3 -->
<g id="edge2" class="edge">
<title>Node2&#45;&gt;Node3</title>
<path fill="none" stroke="#63b8ff" d="M145.44,-54.84C126.63,-46.43 98.34,-33.77 76.85,-24.15"/>
<polygon fill="#63b8ff" stroke="#63b8ff" points="78.47,-20.59 67.91,-19.7 75.61,-26.98 78.47,-20.59"/>
</g>
<!-- Node4 -->
<g id="node4" class="node">
<title>Node4</title>
<g id="a_node4"><a xlink:title=" ">
<polygon fill="#e0e0e0" stroke="#999999" points="220.12,-19.25 111.12,-19.25 111.12,0 220.12,0 220.12,-19.25"/>
<text text-anchor="middle" x="165.62" y="-5.75" font-family="Helvetica,sans-Serif" font-size="10.00">opencv2/imgproc.hpp</text>
</a>
</g>
</g>
<!-- Node2&#45;&gt;Node4 -->
<g id="edge3" class="edge">
<title>Node2&#45;&gt;Node4</title>
<path fill="none" stroke="#63b8ff" d="M165.62,-55.08C165.62,-48.42 165.62,-38.99 165.62,-30.53"/>
<polygon fill="#63b8ff" stroke="#63b8ff" points="169.13,-30.61 165.62,-20.61 162.13,-30.61 169.13,-30.61"/>
</g>
<!-- Node5 -->
<g id="node5" class="node">
<title>Node5</title>
<g id="a_node5"><a xlink:title=" ">
<polygon fill="#e0e0e0" stroke="#999999" points="343.25,-19.25 238,-19.25 238,0 343.25,0 343.25,-19.25"/>
<text text-anchor="middle" x="290.62" y="-5.75" font-family="Helvetica,sans-Serif" font-size="10.00">opencv2/calib3d.hpp</text>
</a>
</g>
</g>
<!-- Node2&#45;&gt;Node5 -->
<g id="edge4" class="edge">
<title>Node2&#45;&gt;Node5</title>
<path fill="none" stroke="#63b8ff" d="M186.83,-54.84C206.76,-46.35 236.84,-33.54 259.49,-23.89"/>
<polygon fill="#63b8ff" stroke="#63b8ff" points="260.49,-26.84 268.32,-19.7 257.74,-20.4 260.49,-26.84"/>
</g>
</g>
</svg>
