<?xml version="1.0" encoding="UTF-8" standalone="no"?>
<!DOCTYPE svg PUBLIC "-//W3C//DTD SVG 1.1//EN"
 "http://www.w3.org/Graphics/SVG/1.1/DTD/svg11.dtd">
<!-- Generated by graphviz version 2.40.1 (20161225.0304)
 -->
<!-- Title: /Users/phil/r/artoolkitx/Source/ARX/ARVideo/WindowsMediaCapture/CaptureFrameGrabber/MFIncludes.h Pages: 1 -->
<svg width="602pt" height="227pt"
 viewBox="0.00 0.00 602.28 227.00" xmlns="http://www.w3.org/2000/svg" xmlns:xlink="http://www.w3.org/1999/xlink">
<g id="graph0" class="graph" transform="scale(1 1) rotate(0) translate(4 223)">
<title>/Users/phil/r/artoolkitx/Source/ARX/ARVideo/WindowsMediaCapture/CaptureFrameGrabber/MFIncludes.h</title>
<polygon fill="#ffffff" stroke="transparent" points="-4,4 -4,-223 598.2783,-223 598.2783,4 -4,4"/>
<!-- Node14 -->
<g id="node1" class="node">
<title>Node14</title>
<polygon fill="#bfbfbf" stroke="#000000" points="121,-170.5 121,-218.5 307.2783,-218.5 307.2783,-170.5 121,-170.5"/>
<text text-anchor="start" x="129" y="-206.5" font-family="Helvetica,sans-Serif" font-size="10.00" fill="#000000">/Users/phil/r/artoolkitx</text>
<text text-anchor="start" x="129" y="-196.5" font-family="Helvetica,sans-Serif" font-size="10.00" fill="#000000">/Source/ARX/ARVideo/WindowsMedia</text>
<text text-anchor="start" x="129" y="-186.5" font-family="Helvetica,sans-Serif" font-size="10.00" fill="#000000">Capture/CaptureFrameGrabber</text>
<text text-anchor="middle" x="214.1392" y="-176.5" font-family="Helvetica,sans-Serif" font-size="10.00" fill="#000000">/MFIncludes.h</text>
</g>
<!-- Node15 -->
<g id="node2" class="node">
<title>Node15</title>
<g id="a_node2"><a xlink:href="_media_stream_sink_8h.html" target="_top" xlink:title="/Users/phil/r/artoolkitx\l/Source/ARX/ARVideo/WindowsMedia\lCapture/CaptureFrameGrabber\l/MediaStreamSink.h">
<polygon fill="#ffffff" stroke="#000000" points="121,-85.5 121,-133.5 307.2783,-133.5 307.2783,-85.5 121,-85.5"/>
<text text-anchor="start" x="129" y="-121.5" font-family="Helvetica,sans-Serif" font-size="10.00" fill="#000000">/Users/phil/r/artoolkitx</text>
<text text-anchor="start" x="129" y="-111.5" font-family="Helvetica,sans-Serif" font-size="10.00" fill="#000000">/Source/ARX/ARVideo/WindowsMedia</text>
<text text-anchor="start" x="129" y="-101.5" font-family="Helvetica,sans-Serif" font-size="10.00" fill="#000000">Capture/CaptureFrameGrabber</text>
<text text-anchor="middle" x="214.1392" y="-91.5" font-family="Helvetica,sans-Serif" font-size="10.00" fill="#000000">/MediaStreamSink.h</text>
</a>
</g>
</g>
<!-- Node14&#45;&gt;Node15 -->
<g id="edge1" class="edge">
<title>Node14&#45;&gt;Node15</title>
<path fill="none" stroke="#191970" d="M214.1392,-160.2518C214.1392,-151.3524 214.1392,-141.951 214.1392,-133.6906"/>
<polygon fill="#191970" stroke="#191970" points="210.6393,-160.3697 214.1392,-170.3698 217.6393,-160.3698 210.6393,-160.3697"/>
</g>
<!-- Node17 -->
<g id="node4" class="node">
<title>Node17</title>
<g id="a_node4"><a xlink:href="_media_stream_sink_8cpp.html" target="_top" xlink:title="/Users/phil/r/artoolkitx\l/Source/ARX/ARVideo/WindowsMedia\lCapture/CaptureFrameGrabber\l/MediaStreamSink.cpp">
<polygon fill="#ffffff" stroke="#000000" points="0,-.5 0,-48.5 186.2783,-48.5 186.2783,-.5 0,-.5"/>
<text text-anchor="start" x="8" y="-36.5" font-family="Helvetica,sans-Serif" font-size="10.00" fill="#000000">/Users/phil/r/artoolkitx</text>
<text text-anchor="start" x="8" y="-26.5" font-family="Helvetica,sans-Serif" font-size="10.00" fill="#000000">/Source/ARX/ARVideo/WindowsMedia</text>
<text text-anchor="start" x="8" y="-16.5" font-family="Helvetica,sans-Serif" font-size="10.00" fill="#000000">Capture/CaptureFrameGrabber</text>
<text text-anchor="middle" x="93.1392" y="-6.5" font-family="Helvetica,sans-Serif" font-size="10.00" fill="#000000">/MediaStreamSink.cpp</text>
</a>
</g>
</g>
<!-- Node14&#45;&gt;Node17 -->
<g id="edge7" class="edge">
<title>Node14&#45;&gt;Node17</title>
<path fill="none" stroke="#191970" d="M145.8037,-165.2043C132.9023,-156.8424 120.7674,-146.5143 112.1392,-134 94.7253,-108.7431 91.6134,-72.6195 91.7552,-48.8708"/>
<polygon fill="#191970" stroke="#191970" points="144.0022,-168.2052 154.3633,-170.4186 147.644,-162.2271 144.0022,-168.2052"/>
</g>
<!-- Node18 -->
<g id="node5" class="node">
<title>Node18</title>
<g id="a_node5"><a xlink:href="_capture_frame_grabber_8h.html" target="_top" xlink:title="/Users/phil/r/artoolkitx\l/Source/ARX/ARVideo/WindowsMedia\lCapture/CaptureFrameGrabber\l/CaptureFrameGrabber.h">
<polygon fill="#ffffff" stroke="#000000" points="325,-85.5 325,-133.5 511.2783,-133.5 511.2783,-85.5 325,-85.5"/>
<text text-anchor="start" x="333" y="-121.5" font-family="Helvetica,sans-Serif" font-size="10.00" fill="#000000">/Users/phil/r/artoolkitx</text>
<text text-anchor="start" x="333" y="-111.5" font-family="Helvetica,sans-Serif" font-size="10.00" fill="#000000">/Source/ARX/ARVideo/WindowsMedia</text>
<text text-anchor="start" x="333" y="-101.5" font-family="Helvetica,sans-Serif" font-size="10.00" fill="#000000">Capture/CaptureFrameGrabber</text>
<text text-anchor="middle" x="418.1392" y="-91.5" font-family="Helvetica,sans-Serif" font-size="10.00" fill="#000000">/CaptureFrameGrabber.h</text>
</a>
</g>
</g>
<!-- Node14&#45;&gt;Node18 -->
<g id="edge4" class="edge">
<title>Node14&#45;&gt;Node18</title>
<path fill="none" stroke="#191970" d="M281.0448,-166.6226C306.6448,-155.956 335.6035,-143.8899 360.2878,-133.6047"/>
<polygon fill="#191970" stroke="#191970" points="279.664,-163.4063 271.7794,-170.4832 282.3563,-169.8678 279.664,-163.4063"/>
</g>
<!-- Node16 -->
<g id="node3" class="node">
<title>Node16</title>
<g id="a_node3"><a xlink:href="_capture_frame_grabber_8cpp.html" target="_top" xlink:title="/Users/phil/r/artoolkitx\l/Source/ARX/ARVideo/WindowsMedia\lCapture/CaptureFrameGrabber\l/CaptureFrameGrabber.cpp">
<polygon fill="#ffffff" stroke="#000000" points="204,-.5 204,-48.5 390.2783,-48.5 390.2783,-.5 204,-.5"/>
<text text-anchor="start" x="212" y="-36.5" font-family="Helvetica,sans-Serif" font-size="10.00" fill="#000000">/Users/phil/r/artoolkitx</text>
<text text-anchor="start" x="212" y="-26.5" font-family="Helvetica,sans-Serif" font-size="10.00" fill="#000000">/Source/ARX/ARVideo/WindowsMedia</text>
<text text-anchor="start" x="212" y="-16.5" font-family="Helvetica,sans-Serif" font-size="10.00" fill="#000000">Capture/CaptureFrameGrabber</text>
<text text-anchor="middle" x="297.1392" y="-6.5" font-family="Helvetica,sans-Serif" font-size="10.00" fill="#000000">/CaptureFrameGrabber.cpp</text>
</a>
</g>
</g>
<!-- Node15&#45;&gt;Node16 -->
<g id="edge2" class="edge">
<title>Node15&#45;&gt;Node16</title>
<path fill="none" stroke="#191970" d="M244.7673,-78.1338C254.2627,-68.4097 264.5749,-57.8489 273.5178,-48.6906"/>
<polygon fill="#191970" stroke="#191970" points="242.1839,-75.7698 237.7016,-85.3698 247.1922,-80.6603 242.1839,-75.7698"/>
</g>
<!-- Node15&#45;&gt;Node17 -->
<g id="edge3" class="edge">
<title>Node15&#45;&gt;Node17</title>
<path fill="none" stroke="#191970" d="M171.5152,-79.5575C157.1245,-69.4484 141.2514,-58.2978 127.5751,-48.6906"/>
<polygon fill="#191970" stroke="#191970" points="169.5944,-82.4855 179.7891,-85.3698 173.6182,-76.7575 169.5944,-82.4855"/>
</g>
<!-- Node18&#45;&gt;Node16 -->
<g id="edge5" class="edge">
<title>Node18&#45;&gt;Node16</title>
<path fill="none" stroke="#191970" d="M375.5152,-79.5575C361.1245,-69.4484 345.2514,-58.2978 331.5751,-48.6906"/>
<polygon fill="#191970" stroke="#191970" points="373.5944,-82.4855 383.7891,-85.3698 377.6182,-76.7575 373.5944,-82.4855"/>
</g>
<!-- Node19 -->
<g id="node6" class="node">
<title>Node19</title>
<g id="a_node6"><a xlink:href="_windows_media_capture_8h.html" target="_top" xlink:title="/Users/phil/r/artoolkitx\l/Source/ARX/ARVideo/WindowsMedia\lCapture/WindowsMediaCapture.h">
<polygon fill="#ffffff" stroke="#000000" points="408,-5.5 408,-43.5 594.2783,-43.5 594.2783,-5.5 408,-5.5"/>
<text text-anchor="start" x="416" y="-31.5" font-family="Helvetica,sans-Serif" font-size="10.00" fill="#000000">/Users/phil/r/artoolkitx</text>
<text text-anchor="start" x="416" y="-21.5" font-family="Helvetica,sans-Serif" font-size="10.00" fill="#000000">/Source/ARX/ARVideo/WindowsMedia</text>
<text text-anchor="middle" x="501.1392" y="-11.5" font-family="Helvetica,sans-Serif" font-size="10.00" fill="#000000">Capture/WindowsMediaCapture.h</text>
</a>
</g>
</g>
<!-- Node18&#45;&gt;Node19 -->
<g id="edge6" class="edge">
<title>Node18&#45;&gt;Node19</title>
<path fill="none" stroke="#191970" d="M448.9178,-77.9797C460.2063,-66.4191 472.6312,-53.6949 482.5285,-43.5591"/>
<polygon fill="#191970" stroke="#191970" points="446.1839,-75.7698 441.7016,-85.3698 451.1922,-80.6603 446.1839,-75.7698"/>
</g>
</g>
</svg>
