<?xml version="1.0" encoding="UTF-8" standalone="no"?>
<!DOCTYPE svg PUBLIC "-//W3C//DTD SVG 1.1//EN"
 "http://www.w3.org/Graphics/SVG/1.1/DTD/svg11.dtd">
<!-- Generated by graphviz version 2.40.1 (20161225.0304)
 -->
<!-- Title: /Users/phil/r/artoolkitx/Source/ARX/ARVideo/WindowsMediaCapture/CaptureFrameGrabber/MFIncludes.h Pages: 1 -->
<!--zoomable 112 -->
<svg id="main" version="1.1" xmlns="http://www.w3.org/2000/svg" xmlns:xlink="http://www.w3.org/1999/xlink" xml:space="preserve" onload="init(evt)">
<style type="text/css"><![CDATA[
.edge:hover path { stroke: red; }
.edge:hover polygon { stroke: red; fill: red; }
]]></style>
<script type="text/javascript"><![CDATA[
var edges = document.getElementsByTagName('g');
if (edges && edges.length) {
  for (var i=0;i<edges.length;i++) {
    if (edges[i].id.substr(0,4)=='edge') {
      edges[i].setAttribute('class','edge');
    }
  }
}
]]></script>
        <defs>
                <circle id="rim" cx="0" cy="0" r="7"/>
                <circle id="rim2" cx="0" cy="0" r="3.5"/>
                <g id="zoomPlus">
                        <use xlink:href="#rim" fill="#404040">
                                <set attributeName="fill" to="#808080" begin="zoomplus.mouseover" end="zoomplus.mouseout"/>
                        </use>
                        <path d="M-4,0h8M0,-4v8" fill="none" stroke="white" stroke-width="1.5" pointer-events="none"/>
                </g>
                <g id="zoomMin">
                        <use xlink:href="#rim" fill="#404040">
                                <set attributeName="fill" to="#808080" begin="zoomminus.mouseover" end="zoomminus.mouseout"/>
                        </use>
                        <path d="M-4,0h8" fill="none" stroke="white" stroke-width="1.5" pointer-events="none"/>
                </g>
                <g id="dirArrow">
                        <path fill="none" stroke="white" stroke-width="1.5" d="M0,-3.0v7 M-2.5,-0.5L0,-3.0L2.5,-0.5"/>
                </g>
               <g id="resetDef">
                       <use xlink:href="#rim2" fill="#404040">
                               <set attributeName="fill" to="#808080" begin="reset.mouseover" end="reset.mouseout"/>
                       </use>
               </g>
        </defs>

<script type="text/javascript">
var viewWidth = 1223;
var viewHeight = 112;
var sectionId = 'dynsection-0';
</script>
<script xlink:href="svgpan.js"/>
<svg id="graph" class="graph">
<g id="viewport">
<title>/Users/phil/r/artoolkitx/Source/ARX/ARVideo/WindowsMediaCapture/CaptureFrameGrabber/MFIncludes.h</title>
<polygon fill="#ffffff" stroke="transparent" points="-4,4 -4,-108 1218.6079,-108 1218.6079,4 -4,4"/>
<!-- Node0 -->
<g id="node1" class="node">
<title>Node0</title>
<polygon fill="#bfbfbf" stroke="#000000" points="519.8755,-55.5 519.8755,-103.5 706.1538,-103.5 706.1538,-55.5 519.8755,-55.5"/>
<text text-anchor="start" x="527.8755" y="-91.5" font-family="Helvetica,sans-Serif" font-size="10.00" fill="#000000">/Users/phil/r/artoolkitx</text>
<text text-anchor="start" x="527.8755" y="-81.5" font-family="Helvetica,sans-Serif" font-size="10.00" fill="#000000">/Source/ARX/ARVideo/WindowsMedia</text>
<text text-anchor="start" x="527.8755" y="-71.5" font-family="Helvetica,sans-Serif" font-size="10.00" fill="#000000">Capture/CaptureFrameGrabber</text>
<text text-anchor="middle" x="613.0146" y="-61.5" font-family="Helvetica,sans-Serif" font-size="10.00" fill="#000000">/MFIncludes.h</text>
</g>
<!-- Node1 -->
<g id="node2" class="node">
<title>Node1</title>
<polygon fill="#ffffff" stroke="#bfbfbf" points="0,-.5 0,-18.5 66.0293,-18.5 66.0293,-.5 0,-.5"/>
<text text-anchor="middle" x="33.0146" y="-6.5" font-family="Helvetica,sans-Serif" font-size="10.00" fill="#000000">collection.h</text>
</g>
<!-- Node0&#45;&gt;Node1 -->
<g id="edge1" class="edge">
<title>Node0&#45;&gt;Node1</title>
<path fill="none" stroke="#191970" d="M519.7559,-72.1614C414.3315,-63.1528 237.4605,-45.8905 76.5072,-19.1008"/>
<polygon fill="#191970" stroke="#191970" points="76.861,-15.6113 66.4192,-17.4056 75.7008,-22.5145 76.861,-15.6113"/>
</g>
<!-- Node2 -->
<g id="node3" class="node">
<title>Node2</title>
<polygon fill="#ffffff" stroke="#bfbfbf" points="84.5024,-.5 84.5024,-18.5 145.5269,-18.5 145.5269,-.5 84.5024,-.5"/>
<text text-anchor="middle" x="115.0146" y="-6.5" font-family="Helvetica,sans-Serif" font-size="10.00" fill="#000000">ppltasks.h</text>
</g>
<!-- Node0&#45;&gt;Node2 -->
<g id="edge2" class="edge">
<title>Node0&#45;&gt;Node2</title>
<path fill="none" stroke="#191970" d="M519.8014,-70.1964C429.0059,-60.4519 286.9715,-43.4024 155.4566,-19.1183"/>
<polygon fill="#191970" stroke="#191970" points="156.076,-15.6735 145.6039,-17.2816 154.7931,-22.555 156.076,-15.6735"/>
</g>
<!-- Node3 -->
<g id="node4" class="node">
<title>Node3</title>
<polygon fill="#ffffff" stroke="#bfbfbf" points="163.5049,-.5 163.5049,-18.5 254.5244,-18.5 254.5244,-.5 163.5049,-.5"/>
<text text-anchor="middle" x="209.0146" y="-6.5" font-family="Helvetica,sans-Serif" font-size="10.00" fill="#000000">wrl\implements.h</text>
</g>
<!-- Node0&#45;&gt;Node3 -->
<g id="edge3" class="edge">
<title>Node0&#45;&gt;Node3</title>
<path fill="none" stroke="#191970" d="M519.8216,-63.3527C440.9653,-49.6895 330.5765,-30.5627 264.7836,-19.1629"/>
<polygon fill="#191970" stroke="#191970" points="265.0695,-15.6604 254.6187,-17.4017 263.8744,-22.5576 265.0695,-15.6604"/>
</g>
<!-- Node4 -->
<g id="node5" class="node">
<title>Node4</title>
<polygon fill="#ffffff" stroke="#bfbfbf" points="272.8252,-.5 272.8252,-18.5 417.2041,-18.5 417.2041,-.5 272.8252,-.5"/>
<text text-anchor="middle" x="345.0146" y="-6.5" font-family="Helvetica,sans-Serif" font-size="10.00" fill="#000000">wrl\wrappers\corewrappers.h</text>
</g>
<!-- Node0&#45;&gt;Node4 -->
<g id="edge4" class="edge">
<title>Node0&#45;&gt;Node4</title>
<path fill="none" stroke="#191970" d="M520.7843,-55.41C476.41,-43.8197 425.2456,-30.4558 389.6034,-21.1463"/>
<polygon fill="#191970" stroke="#191970" points="390.0836,-17.6544 379.5237,-18.5136 388.3146,-24.4272 390.0836,-17.6544"/>
</g>
<!-- Node5 -->
<g id="node6" class="node">
<title>Node5</title>
<polygon fill="#ffffff" stroke="#bfbfbf" points="435.2241,-.5 435.2241,-18.5 506.8052,-18.5 506.8052,-.5 435.2241,-.5"/>
<text text-anchor="middle" x="471.0146" y="-6.5" font-family="Helvetica,sans-Serif" font-size="10.00" fill="#000000">Roerrorapi.h</text>
</g>
<!-- Node0&#45;&gt;Node5 -->
<g id="edge5" class="edge">
<title>Node0&#45;&gt;Node5</title>
<path fill="none" stroke="#191970" d="M564.1463,-55.41C542.1482,-44.5658 517.0006,-32.1691 498.3865,-22.9932"/>
<polygon fill="#191970" stroke="#191970" points="499.8162,-19.7958 489.2993,-18.5136 496.7211,-26.0744 499.8162,-19.7958"/>
</g>
<!-- Node6 -->
<g id="node7" class="node">
<title>Node6</title>
<polygon fill="#ffffff" stroke="#bfbfbf" points="525.1108,-.5 525.1108,-18.5 568.9185,-18.5 568.9185,-.5 525.1108,-.5"/>
<text text-anchor="middle" x="547.0146" y="-6.5" font-family="Helvetica,sans-Serif" font-size="10.00" fill="#000000">queue</text>
</g>
<!-- Node0&#45;&gt;Node6 -->
<g id="edge6" class="edge">
<title>Node0&#45;&gt;Node6</title>
<path fill="none" stroke="#191970" d="M590.3012,-55.41C581.1656,-45.7207 570.8615,-34.7921 562.5989,-26.0288"/>
<polygon fill="#191970" stroke="#191970" points="565.0836,-23.5621 555.6769,-18.6872 559.9905,-28.3642 565.0836,-23.5621"/>
</g>
<!-- Node7 -->
<g id="node8" class="node">
<title>Node7</title>
<polygon fill="#ffffff" stroke="#bfbfbf" points="587.2339,-.5 587.2339,-18.5 638.7954,-18.5 638.7954,-.5 587.2339,-.5"/>
<text text-anchor="middle" x="613.0146" y="-6.5" font-family="Helvetica,sans-Serif" font-size="10.00" fill="#000000">sstream</text>
</g>
<!-- Node0&#45;&gt;Node7 -->
<g id="edge7" class="edge">
<title>Node0&#45;&gt;Node7</title>
<path fill="none" stroke="#191970" d="M613.0146,-55.41C613.0146,-46.7094 613.0146,-37.0095 613.0146,-28.7754"/>
<polygon fill="#191970" stroke="#191970" points="616.5147,-28.6872 613.0146,-18.6872 609.5147,-28.6873 616.5147,-28.6872"/>
</g>
<!-- Node8 -->
<g id="node9" class="node">
<title>Node8</title>
<polygon fill="#ffffff" stroke="#bfbfbf" points="656.9746,-.5 656.9746,-18.5 715.0547,-18.5 715.0547,-.5 656.9746,-.5"/>
<text text-anchor="middle" x="686.0146" y="-6.5" font-family="Helvetica,sans-Serif" font-size="10.00" fill="#000000">robuffer.h</text>
</g>
<!-- Node0&#45;&gt;Node8 -->
<g id="edge8" class="edge">
<title>Node0&#45;&gt;Node8</title>
<path fill="none" stroke="#191970" d="M638.1371,-55.41C648.3447,-45.6219 659.8714,-34.5689 669.0566,-25.7612"/>
<polygon fill="#191970" stroke="#191970" points="671.6382,-28.1347 676.4337,-18.6872 666.7934,-23.0822 671.6382,-28.1347"/>
</g>
<!-- Node9 -->
<g id="node10" class="node">
<title>Node9</title>
<polygon fill="#ffffff" stroke="#bfbfbf" points="732.6182,-.5 732.6182,-18.5 781.4111,-18.5 781.4111,-.5 732.6182,-.5"/>
<text text-anchor="middle" x="757.0146" y="-6.5" font-family="Helvetica,sans-Serif" font-size="10.00" fill="#000000">mfapi.h</text>
</g>
<!-- Node0&#45;&gt;Node9 -->
<g id="edge9" class="edge">
<title>Node0&#45;&gt;Node9</title>
<path fill="none" stroke="#191970" d="M662.5713,-55.41C684.8792,-44.5658 710.381,-32.1691 729.2573,-22.9932"/>
<polygon fill="#191970" stroke="#191970" points="731.009,-26.0333 738.4725,-18.5136 727.9486,-19.7377 731.009,-26.0333"/>
</g>
<!-- Node10 -->
<g id="node11" class="node">
<title>Node10</title>
<polygon fill="#ffffff" stroke="#bfbfbf" points="799.2881,-.5 799.2881,-18.5 844.7412,-18.5 844.7412,-.5 799.2881,-.5"/>
<text text-anchor="middle" x="822.0146" y="-6.5" font-family="Helvetica,sans-Serif" font-size="10.00" fill="#000000">mfidl.h</text>
</g>
<!-- Node0&#45;&gt;Node10 -->
<g id="edge10" class="edge">
<title>Node0&#45;&gt;Node10</title>
<path fill="none" stroke="#191970" d="M684.9406,-55.41C720.4859,-43.5048 761.6181,-29.7285 789.48,-20.3968"/>
<polygon fill="#191970" stroke="#191970" points="790.7389,-23.6663 799.1096,-17.1716 788.5157,-17.0287 790.7389,-23.6663"/>
</g>
<!-- Node11 -->
<g id="node12" class="node">
<title>Node11</title>
<polygon fill="#ffffff" stroke="#bfbfbf" points="863.0073,-.5 863.0073,-18.5 919.022,-18.5 919.022,-.5 863.0073,-.5"/>
<text text-anchor="middle" x="891.0146" y="-6.5" font-family="Helvetica,sans-Serif" font-size="10.00" fill="#000000">Mferror.h</text>
</g>
<!-- Node0&#45;&gt;Node11 -->
<g id="edge11" class="edge">
<title>Node0&#45;&gt;Node11</title>
<path fill="none" stroke="#191970" d="M706.3176,-56.2015C748.4854,-45.6419 799.1849,-32.9048 853.0092,-19.247"/>
<polygon fill="#191970" stroke="#191970" points="853.9057,-22.6305 862.7369,-16.7772 852.1831,-15.8457 853.9057,-22.6305"/>
</g>
<!-- Node12 -->
<g id="node13" class="node">
<title>Node12</title>
<polygon fill="#ffffff" stroke="#bfbfbf" points="936.6626,-.5 936.6626,-18.5 1029.3667,-18.5 1029.3667,-.5 936.6626,-.5"/>
<text text-anchor="middle" x="983.0146" y="-6.5" font-family="Helvetica,sans-Serif" font-size="10.00" fill="#000000">windows.media.h</text>
</g>
<!-- Node0&#45;&gt;Node12 -->
<g id="edge12" class="edge">
<title>Node0&#45;&gt;Node12</title>
<path fill="none" stroke="#191970" d="M706.3813,-61.836C775.6519,-48.7308 867.8536,-31.2872 926.3363,-20.2229"/>
<polygon fill="#191970" stroke="#191970" points="927.3184,-23.5993 936.4935,-18.3013 926.0171,-16.7213 927.3184,-23.5993"/>
</g>
<!-- Node13 -->
<g id="node14" class="node">
<title>Node13</title>
<polygon fill="#ffffff" stroke="#bfbfbf" points="1047.4214,-.5 1047.4214,-18.5 1214.6079,-18.5 1214.6079,-.5 1047.4214,-.5"/>
<text text-anchor="middle" x="1131.0146" y="-6.5" font-family="Helvetica,sans-Serif" font-size="10.00" fill="#000000">windows.media.mediaproperties.h</text>
</g>
<!-- Node0&#45;&gt;Node13 -->
<g id="edge13" class="edge">
<title>Node0&#45;&gt;Node13</title>
<path fill="none" stroke="#191970" d="M706.2209,-66.9046C805.6083,-53.4738 961.1871,-32.4497 1053.9228,-19.9178"/>
<polygon fill="#191970" stroke="#191970" points="1054.6396,-23.3529 1064.0808,-18.5451 1053.7021,-16.4159 1054.6396,-23.3529"/>
</g>
</g>
</svg>
        <g id="navigator" transform="translate(0 0)" fill="#404254">
                <rect fill="#f2f5e9" fill-opacity="0.5" stroke="#606060" stroke-width=".5" x="0" y="0" width="60" height="60"/>
                <use id="zoomplus" xlink:href="#zoomPlus" x="17" y="9" onmousedown="handleZoom(evt,'in')"/>
                <use id="zoomminus" xlink:href="#zoomMin" x="42" y="9" onmousedown="handleZoom(evt,'out')"/>
                <use id="reset" xlink:href="#resetDef" x="30" y="36" onmousedown="handleReset()"/>
                <g id="arrowUp" xlink:href="#dirArrow" transform="translate(30 24)" onmousedown="handlePan(0,-1)">
                  <use xlink:href="#rim" fill="#404040">
                        <set attributeName="fill" to="#808080" begin="arrowUp.mouseover" end="arrowUp.mouseout"/>
                  </use>
                  <path fill="none" stroke="white" stroke-width="1.5" d="M0,-3.0v7 M-2.5,-0.5L0,-3.0L2.5,-0.5"/>
                </g>
                <g id="arrowRight" xlink:href="#dirArrow" transform="rotate(90) translate(36 -43)" onmousedown="handlePan(1,0)">
                  <use xlink:href="#rim" fill="#404040">
                        <set attributeName="fill" to="#808080" begin="arrowRight.mouseover" end="arrowRight.mouseout"/>
                  </use>
                  <path fill="none" stroke="white" stroke-width="1.5" d="M0,-3.0v7 M-2.5,-0.5L0,-3.0L2.5,-0.5"/>
                </g>
                <g id="arrowDown" xlink:href="#dirArrow" transform="rotate(180) translate(-30 -48)" onmousedown="handlePan(0,1)">
                  <use xlink:href="#rim" fill="#404040">
                        <set attributeName="fill" to="#808080" begin="arrowDown.mouseover" end="arrowDown.mouseout"/>
                  </use>
                  <path fill="none" stroke="white" stroke-width="1.5" d="M0,-3.0v7 M-2.5,-0.5L0,-3.0L2.5,-0.5"/>
                </g>
                <g id="arrowLeft" xlink:href="#dirArrow" transform="rotate(270) translate(-36 17)" onmousedown="handlePan(-1,0)">
                  <use xlink:href="#rim" fill="#404040">
                        <set attributeName="fill" to="#808080" begin="arrowLeft.mouseover" end="arrowLeft.mouseout"/>
                  </use>
                  <path fill="none" stroke="white" stroke-width="1.5" d="M0,-3.0v7 M-2.5,-0.5L0,-3.0L2.5,-0.5"/>
                </g>
        </g>
        <svg viewBox="0 0 15 15" width="100%" height="30px" preserveAspectRatio="xMaxYMin meet">
         <g id="arrow_out" transform="scale(0.3 0.3)">
          <a xlink:href="_m_f_includes_8h__incl_org.svg" target="_base">
           <rect id="button" ry="5" rx="5" y="6" x="6" height="38" width="38"
                fill="#f2f5e9" fill-opacity="0.5" stroke="#606060" stroke-width="1.0"/>
           <path id="arrow"
             d="M 11.500037,31.436501 C 11.940474,20.09759 22.043105,11.32322 32.158766,21.979434 L 37.068811,17.246167 C 37.068811,17.246167 37.088388,32 37.088388,32 L 22.160133,31.978069 C 22.160133,31.978069 26.997745,27.140456 26.997745,27.140456 C 18.528582,18.264221 13.291696,25.230495 11.500037,31.436501 z"
             style="fill:#404040;"/>
          </a>
         </g>
        </svg>
</svg>
