<?xml version="1.0" encoding="UTF-8" standalone="no"?>
<!DOCTYPE svg PUBLIC "-//W3C//DTD SVG 1.1//EN"
 "http://www.w3.org/Graphics/SVG/1.1/DTD/svg11.dtd">
<!-- Generated by graphviz version 7.0.5 (20221223.1930)
 -->
<!-- Title: Source/ARX/ARVideo/WindowsMediaCapture/CaptureFrameGrabber/MediaStreamSink.h Pages: 1 -->
<svg width="282pt" height="148pt"
 viewBox="0.00 0.00 281.50 148.00" xmlns="http://www.w3.org/2000/svg" xmlns:xlink="http://www.w3.org/1999/xlink">
<g id="graph0" class="graph" transform="scale(1 1) rotate(0) translate(4 144)">
<title>Source/ARX/ARVideo/WindowsMediaCapture/CaptureFrameGrabber/MediaStreamSink.h</title>
<!-- Node1 -->
<g id="node1" class="node">
<title>Node1</title>
<g id="a_node1"><a xlink:title=" ">
<polygon fill="#999999" stroke="#666666" points="200.5,-140 79.5,-140 79.5,-88 200.5,-88 200.5,-140"/>
<text text-anchor="start" x="87.5" y="-128" font-family="Helvetica,sans-Serif" font-size="10.00">Source/ARX/ARVideo</text>
<text text-anchor="start" x="87.5" y="-117" font-family="Helvetica,sans-Serif" font-size="10.00">/WindowsMediaCapture</text>
<text text-anchor="start" x="87.5" y="-106" font-family="Helvetica,sans-Serif" font-size="10.00">/CaptureFrameGrabber</text>
<text text-anchor="middle" x="140" y="-95" font-family="Helvetica,sans-Serif" font-size="10.00">/MediaStreamSink.h</text>
</a>
</g>
</g>
<!-- Node2 -->
<g id="node2" class="node">
<title>Node2</title>
<g id="a_node2"><a xlink:href="_capture_frame_grabber_8cpp.html" target="_top" xlink:title=" ">
<polygon fill="white" stroke="#666666" points="134,-52 0,-52 0,0 134,0 134,-52"/>
<text text-anchor="start" x="8" y="-40" font-family="Helvetica,sans-Serif" font-size="10.00">Source/ARX/ARVideo</text>
<text text-anchor="start" x="8" y="-29" font-family="Helvetica,sans-Serif" font-size="10.00">/WindowsMediaCapture</text>
<text text-anchor="start" x="8" y="-18" font-family="Helvetica,sans-Serif" font-size="10.00">/CaptureFrameGrabber</text>
<text text-anchor="middle" x="67" y="-7" font-family="Helvetica,sans-Serif" font-size="10.00">/CaptureFrameGrabber.cpp</text>
</a>
</g>
</g>
<!-- Node1&#45;&gt;Node2 -->
<g id="edge1" class="edge">
<title>Node1&#45;&gt;Node2</title>
<path fill="none" stroke="#63b8ff" d="M111.17,-79.04C103.65,-70.18 95.68,-60.79 88.61,-52.45"/>
<polygon fill="#63b8ff" stroke="#63b8ff" points="108.37,-81.15 117.51,-86.51 113.71,-76.62 108.37,-81.15"/>
</g>
<!-- Node3 -->
<g id="node3" class="node">
<title>Node3</title>
<g id="a_node3"><a xlink:href="_media_stream_sink_8cpp.html" target="_top" xlink:title=" ">
<polygon fill="white" stroke="#666666" points="273.5,-52 152.5,-52 152.5,0 273.5,0 273.5,-52"/>
<text text-anchor="start" x="160.5" y="-40" font-family="Helvetica,sans-Serif" font-size="10.00">Source/ARX/ARVideo</text>
<text text-anchor="start" x="160.5" y="-29" font-family="Helvetica,sans-Serif" font-size="10.00">/WindowsMediaCapture</text>
<text text-anchor="start" x="160.5" y="-18" font-family="Helvetica,sans-Serif" font-size="10.00">/CaptureFrameGrabber</text>
<text text-anchor="middle" x="213" y="-7" font-family="Helvetica,sans-Serif" font-size="10.00">/MediaStreamSink.cpp</text>
</a>
</g>
</g>
<!-- Node1&#45;&gt;Node3 -->
<g id="edge2" class="edge">
<title>Node1&#45;&gt;Node3</title>
<path fill="none" stroke="#63b8ff" d="M168.83,-79.04C176.35,-70.18 184.32,-60.79 191.39,-52.45"/>
<polygon fill="#63b8ff" stroke="#63b8ff" points="166.29,-76.62 162.49,-86.51 171.63,-81.15 166.29,-76.62"/>
</g>
</g>
</svg>
