<?xml version="1.0" encoding="UTF-8" standalone="no"?>
<!DOCTYPE svg PUBLIC "-//W3C//DTD SVG 1.1//EN"
 "http://www.w3.org/Graphics/SVG/1.1/DTD/svg11.dtd">
<!-- Generated by graphviz version 7.0.5 (20221223.1930)
 -->
<!-- Title: Source/ARX/ARVideo/WindowsMediaCapture/CaptureFrameGrabber/MediaStreamSink.cpp Pages: 1 -->
<svg width="1217pt" height="225pt"
 viewBox="0.00 0.00 1217.00 225.00" xmlns="http://www.w3.org/2000/svg" xmlns:xlink="http://www.w3.org/1999/xlink">
<g id="graph0" class="graph" transform="scale(1 1) rotate(0) translate(4 221)">
<title>Source/ARX/ARVideo/WindowsMediaCapture/CaptureFrameGrabber/MediaStreamSink.cpp</title>
<!-- Node1 -->
<g id="node1" class="node">
<title>Node1</title>
<g id="a_node1"><a xlink:title=" ">
<polygon fill="#999999" stroke="#666666" points="670.5,-217 549.5,-217 549.5,-165 670.5,-165 670.5,-217"/>
<text text-anchor="start" x="557.5" y="-205" font-family="Helvetica,sans-Serif" font-size="10.00">Source/ARX/ARVideo</text>
<text text-anchor="start" x="557.5" y="-194" font-family="Helvetica,sans-Serif" font-size="10.00">/WindowsMediaCapture</text>
<text text-anchor="start" x="557.5" y="-183" font-family="Helvetica,sans-Serif" font-size="10.00">/CaptureFrameGrabber</text>
<text text-anchor="middle" x="610" y="-172" font-family="Helvetica,sans-Serif" font-size="10.00">/MediaStreamSink.cpp</text>
</a>
</g>
</g>
<!-- Node2 -->
<g id="node2" class="node">
<title>Node2</title>
<g id="a_node2"><a xlink:href="_m_f_includes_8h.html" target="_top" xlink:title=" ">
<polygon fill="white" stroke="#666666" points="648,-74 572,-74 572,-55 648,-55 648,-74"/>
<text text-anchor="middle" x="610" y="-62" font-family="Helvetica,sans-Serif" font-size="10.00">MFIncludes.h</text>
</a>
</g>
</g>
<!-- Node1&#45;&gt;Node2 -->
<g id="edge1" class="edge">
<title>Node1&#45;&gt;Node2</title>
<path fill="none" stroke="#63b8ff" d="M597.54,-164.52C591.4,-148.86 586.07,-128.34 590,-110 591.88,-101.21 595.65,-92.06 599.4,-84.35"/>
<polygon fill="#63b8ff" stroke="#63b8ff" points="602.42,-86.14 603.98,-75.66 596.22,-82.88 602.42,-86.14"/>
</g>
<!-- Node16 -->
<g id="node16" class="node">
<title>Node16</title>
<g id="a_node16"><a xlink:href="_media_stream_sink_8h.html" target="_top" xlink:title=" ">
<polygon fill="white" stroke="#666666" points="701,-129 599,-129 599,-110 701,-110 701,-129"/>
<text text-anchor="middle" x="650" y="-117" font-family="Helvetica,sans-Serif" font-size="10.00">MediaStreamSink.h</text>
</a>
</g>
</g>
<!-- Node1&#45;&gt;Node16 -->
<g id="edge15" class="edge">
<title>Node1&#45;&gt;Node16</title>
<path fill="none" stroke="#63b8ff" d="M624.67,-164.52C629.52,-156.09 634.82,-146.88 639.31,-139.07"/>
<polygon fill="#63b8ff" stroke="#63b8ff" points="642.28,-140.92 644.24,-130.51 636.22,-137.43 642.28,-140.92"/>
</g>
<!-- Node3 -->
<g id="node3" class="node">
<title>Node3</title>
<g id="a_node3"><a xlink:title=" ">
<polygon fill="#e0e0e0" stroke="#999999" points="66,-19 0,-19 0,0 66,0 66,-19"/>
<text text-anchor="middle" x="33" y="-7" font-family="Helvetica,sans-Serif" font-size="10.00">collection.h</text>
</a>
</g>
</g>
<!-- Node2&#45;&gt;Node3 -->
<g id="edge2" class="edge">
<title>Node2&#45;&gt;Node3</title>
<path fill="none" stroke="#63b8ff" d="M571.55,-61.84C485.11,-57.79 268.68,-45.8 77.79,-19.23"/>
<polygon fill="#63b8ff" stroke="#63b8ff" points="78.3,-15.77 67.91,-17.84 77.32,-22.7 78.3,-15.77"/>
</g>
<!-- Node4 -->
<g id="node4" class="node">
<title>Node4</title>
<g id="a_node4"><a xlink:title=" ">
<polygon fill="#e0e0e0" stroke="#999999" points="146,-19 84,-19 84,0 146,0 146,-19"/>
<text text-anchor="middle" x="115" y="-7" font-family="Helvetica,sans-Serif" font-size="10.00">ppltasks.h</text>
</a>
</g>
</g>
<!-- Node2&#45;&gt;Node4 -->
<g id="edge3" class="edge">
<title>Node2&#45;&gt;Node4</title>
<path fill="none" stroke="#63b8ff" d="M571.77,-61.21C495.07,-56.31 316.79,-43.35 157.34,-19.2"/>
<polygon fill="#63b8ff" stroke="#63b8ff" points="158.29,-15.8 147.88,-17.74 157.23,-22.72 158.29,-15.8"/>
</g>
<!-- Node5 -->
<g id="node5" class="node">
<title>Node5</title>
<g id="a_node5"><a xlink:title=" ">
<polygon fill="#e0e0e0" stroke="#999999" points="255.5,-19 164.5,-19 164.5,0 255.5,0 255.5,-19"/>
<text text-anchor="middle" x="210" y="-7" font-family="Helvetica,sans-Serif" font-size="10.00">wrl\implements.h</text>
</a>
</g>
</g>
<!-- Node2&#45;&gt;Node5 -->
<g id="edge4" class="edge">
<title>Node2&#45;&gt;Node5</title>
<path fill="none" stroke="#63b8ff" d="M571.67,-58.87C509.94,-51.35 384.38,-35.78 267.21,-19.28"/>
<polygon fill="#63b8ff" stroke="#63b8ff" points="267.79,-15.83 257.4,-17.89 266.81,-22.76 267.79,-15.83"/>
</g>
<!-- Node6 -->
<g id="node6" class="node">
<title>Node6</title>
<g id="a_node6"><a xlink:title=" ">
<polygon fill="#e0e0e0" stroke="#999999" points="416,-19 274,-19 274,0 416,0 416,-19"/>
<text text-anchor="middle" x="345" y="-7" font-family="Helvetica,sans-Serif" font-size="10.00">wrl\wrappers\corewrappers.h</text>
</a>
</g>
</g>
<!-- Node2&#45;&gt;Node6 -->
<g id="edge5" class="edge">
<title>Node2&#45;&gt;Node6</title>
<path fill="none" stroke="#63b8ff" d="M571.75,-55.85C526.98,-46.9 452.43,-31.99 401.11,-21.72"/>
<polygon fill="#63b8ff" stroke="#63b8ff" points="401.86,-18.3 391.37,-19.77 400.49,-25.17 401.86,-18.3"/>
</g>
<!-- Node7 -->
<g id="node7" class="node">
<title>Node7</title>
<g id="a_node7"><a xlink:title=" ">
<polygon fill="#e0e0e0" stroke="#999999" points="504,-19 434,-19 434,0 504,0 504,-19"/>
<text text-anchor="middle" x="469" y="-7" font-family="Helvetica,sans-Serif" font-size="10.00">Roerrorapi.h</text>
</a>
</g>
</g>
<!-- Node2&#45;&gt;Node7 -->
<g id="edge6" class="edge">
<title>Node2&#45;&gt;Node7</title>
<path fill="none" stroke="#63b8ff" d="M586.08,-54.51C563.36,-45.97 528.95,-33.03 503.31,-23.4"/>
<polygon fill="#63b8ff" stroke="#63b8ff" points="504.57,-20.13 493.98,-19.89 502.11,-26.69 504.57,-20.13"/>
</g>
<!-- Node8 -->
<g id="node8" class="node">
<title>Node8</title>
<g id="a_node8"><a xlink:title=" ">
<polygon fill="#e0e0e0" stroke="#999999" points="565.5,-19 522.5,-19 522.5,0 565.5,0 565.5,-19"/>
<text text-anchor="middle" x="544" y="-7" font-family="Helvetica,sans-Serif" font-size="10.00">queue</text>
</a>
</g>
</g>
<!-- Node2&#45;&gt;Node8 -->
<g id="edge7" class="edge">
<title>Node2&#45;&gt;Node8</title>
<path fill="none" stroke="#63b8ff" d="M598.8,-54.51C589.26,-46.85 575.33,-35.66 563.89,-26.47"/>
<polygon fill="#63b8ff" stroke="#63b8ff" points="566.2,-23.84 556.21,-20.31 561.82,-29.3 566.2,-23.84"/>
</g>
<!-- Node9 -->
<g id="node9" class="node">
<title>Node9</title>
<g id="a_node9"><a xlink:title=" ">
<polygon fill="#e0e0e0" stroke="#999999" points="636,-19 584,-19 584,0 636,0 636,-19"/>
<text text-anchor="middle" x="610" y="-7" font-family="Helvetica,sans-Serif" font-size="10.00">sstream</text>
</a>
</g>
</g>
<!-- Node2&#45;&gt;Node9 -->
<g id="edge8" class="edge">
<title>Node2&#45;&gt;Node9</title>
<path fill="none" stroke="#63b8ff" d="M610,-54.75C610,-48.27 610,-39.16 610,-30.9"/>
<polygon fill="#63b8ff" stroke="#63b8ff" points="613.5,-30.96 610,-20.96 606.5,-30.96 613.5,-30.96"/>
</g>
<!-- Node10 -->
<g id="node10" class="node">
<title>Node10</title>
<g id="a_node10"><a xlink:title=" ">
<polygon fill="#e0e0e0" stroke="#999999" points="711.5,-19 654.5,-19 654.5,0 711.5,0 711.5,-19"/>
<text text-anchor="middle" x="683" y="-7" font-family="Helvetica,sans-Serif" font-size="10.00">robuffer.h</text>
</a>
</g>
</g>
<!-- Node2&#45;&gt;Node10 -->
<g id="edge9" class="edge">
<title>Node2&#45;&gt;Node10</title>
<path fill="none" stroke="#63b8ff" d="M622.38,-54.51C633.15,-46.7 648.97,-35.21 661.75,-25.93"/>
<polygon fill="#63b8ff" stroke="#63b8ff" points="663.54,-28.95 669.57,-20.25 659.43,-23.29 663.54,-28.95"/>
</g>
<!-- Node11 -->
<g id="node11" class="node">
<title>Node11</title>
<g id="a_node11"><a xlink:title=" ">
<polygon fill="#e0e0e0" stroke="#999999" points="778.5,-19 729.5,-19 729.5,0 778.5,0 778.5,-19"/>
<text text-anchor="middle" x="754" y="-7" font-family="Helvetica,sans-Serif" font-size="10.00">mfapi.h</text>
</a>
</g>
</g>
<!-- Node2&#45;&gt;Node11 -->
<g id="edge10" class="edge">
<title>Node2&#45;&gt;Node11</title>
<path fill="none" stroke="#63b8ff" d="M634.43,-54.51C657.74,-45.93 693.09,-32.92 719.31,-23.27"/>
<polygon fill="#63b8ff" stroke="#63b8ff" points="720.34,-26.62 728.51,-19.88 717.92,-20.05 720.34,-26.62"/>
</g>
<!-- Node12 -->
<g id="node12" class="node">
<title>Node12</title>
<g id="a_node12"><a xlink:title=" ">
<polygon fill="#e0e0e0" stroke="#999999" points="843,-19 797,-19 797,0 843,0 843,-19"/>
<text text-anchor="middle" x="820" y="-7" font-family="Helvetica,sans-Serif" font-size="10.00">mfidl.h</text>
</a>
</g>
</g>
<!-- Node2&#45;&gt;Node12 -->
<g id="edge11" class="edge">
<title>Node2&#45;&gt;Node12</title>
<path fill="none" stroke="#63b8ff" d="M646.52,-54.54C680.21,-46.23 731.9,-33.39 785.49,-19.62"/>
<polygon fill="#63b8ff" stroke="#63b8ff" points="786.32,-23.02 795.13,-17.14 784.57,-16.24 786.32,-23.02"/>
</g>
<!-- Node13 -->
<g id="node13" class="node">
<title>Node13</title>
<g id="a_node13"><a xlink:title=" ">
<polygon fill="#e0e0e0" stroke="#999999" points="916.5,-19 861.5,-19 861.5,0 916.5,0 916.5,-19"/>
<text text-anchor="middle" x="889" y="-7" font-family="Helvetica,sans-Serif" font-size="10.00">Mferror.h</text>
</a>
</g>
</g>
<!-- Node2&#45;&gt;Node13 -->
<g id="edge12" class="edge">
<title>Node2&#45;&gt;Node13</title>
<path fill="none" stroke="#63b8ff" d="M648.24,-57C693.88,-49.13 772.76,-35.16 850.23,-19.29"/>
<polygon fill="#63b8ff" stroke="#63b8ff" points="850.58,-22.79 859.67,-17.34 849.17,-15.93 850.58,-22.79"/>
</g>
<!-- Node14 -->
<g id="node14" class="node">
<title>Node14</title>
<g id="a_node14"><a xlink:title=" ">
<polygon fill="#e0e0e0" stroke="#999999" points="1027,-19 935,-19 935,0 1027,0 1027,-19"/>
<text text-anchor="middle" x="981" y="-7" font-family="Helvetica,sans-Serif" font-size="10.00">windows.media.h</text>
</a>
</g>
</g>
<!-- Node2&#45;&gt;Node14 -->
<g id="edge13" class="edge">
<title>Node2&#45;&gt;Node14</title>
<path fill="none" stroke="#63b8ff" d="M648.45,-58.25C705.93,-50.38 817.98,-34.88 923.61,-19.34"/>
<polygon fill="#63b8ff" stroke="#63b8ff" points="923.91,-22.83 933.3,-17.91 922.89,-15.9 923.91,-22.83"/>
</g>
<!-- Node15 -->
<g id="node15" class="node">
<title>Node15</title>
<g id="a_node15"><a xlink:title=" ">
<polygon fill="#e0e0e0" stroke="#999999" points="1209,-19 1045,-19 1045,0 1209,0 1209,-19"/>
<text text-anchor="middle" x="1127" y="-7" font-family="Helvetica,sans-Serif" font-size="10.00">windows.media.mediaproperties.h</text>
</a>
</g>
</g>
<!-- Node2&#45;&gt;Node15 -->
<g id="edge14" class="edge">
<title>Node2&#45;&gt;Node15</title>
<path fill="none" stroke="#63b8ff" d="M648.44,-59.56C729.29,-51.27 918.94,-31.83 1033.73,-20.06"/>
<polygon fill="#63b8ff" stroke="#63b8ff" points="1033.85,-23.57 1043.44,-19.07 1033.14,-16.6 1033.85,-23.57"/>
</g>
<!-- Node16&#45;&gt;Node2 -->
<g id="edge16" class="edge">
<title>Node16&#45;&gt;Node2</title>
<path fill="none" stroke="#63b8ff" d="M643.39,-109.75C638.04,-102.66 630.32,-92.42 623.65,-83.59"/>
<polygon fill="#63b8ff" stroke="#63b8ff" points="626.48,-81.52 617.66,-75.65 620.89,-85.74 626.48,-81.52"/>
</g>
</g>
</svg>
