<?xml version="1.0" encoding="UTF-8" standalone="no"?>
<!DOCTYPE svg PUBLIC "-//W3C//DTD SVG 1.1//EN"
 "http://www.w3.org/Graphics/SVG/1.1/DTD/svg11.dtd">
<!-- Generated by graphviz version 2.40.1 (20161225.0304)
 -->
<!-- Title: /Users/phil/r/artoolkitx/Source/ARX/ARVideo/AVFoundation/MovieVideo.h Pages: 1 -->
<svg width="270pt" height="102pt"
 viewBox="0.00 0.00 269.72 102.00" xmlns="http://www.w3.org/2000/svg" xmlns:xlink="http://www.w3.org/1999/xlink">
<g id="graph0" class="graph" transform="scale(1 1) rotate(0) translate(4 98)">
<title>/Users/phil/r/artoolkitx/Source/ARX/ARVideo/AVFoundation/MovieVideo.h</title>
<polygon fill="#ffffff" stroke="transparent" points="-4,4 -4,-98 265.7178,-98 265.7178,4 -4,4"/>
<!-- Node0 -->
<g id="node1" class="node">
<title>Node0</title>
<polygon fill="#bfbfbf" stroke="#000000" points="55.6421,-55.5 55.6421,-93.5 236.7593,-93.5 236.7593,-55.5 55.6421,-55.5"/>
<text text-anchor="start" x="63.6421" y="-81.5" font-family="Helvetica,sans-Serif" font-size="10.00" fill="#000000">/Users/phil/r/artoolkitx</text>
<text text-anchor="start" x="63.6421" y="-71.5" font-family="Helvetica,sans-Serif" font-size="10.00" fill="#000000">/Source/ARX/ARVideo/AVFoundation</text>
<text text-anchor="middle" x="146.2007" y="-61.5" font-family="Helvetica,sans-Serif" font-size="10.00" fill="#000000">/MovieVideo.h</text>
</g>
<!-- Node1 -->
<g id="node2" class="node">
<title>Node1</title>
<polygon fill="#ffffff" stroke="#bfbfbf" points="0,-.5 0,-18.5 152.4014,-18.5 152.4014,-.5 0,-.5"/>
<text text-anchor="middle" x="76.2007" y="-6.5" font-family="Helvetica,sans-Serif" font-size="10.00" fill="#000000">AVFoundation/AVFoundation.h</text>
</g>
<!-- Node0&#45;&gt;Node1 -->
<g id="edge1" class="edge">
<title>Node0&#45;&gt;Node1</title>
<path fill="none" stroke="#191970" d="M125.577,-55.3494C115.3688,-45.8704 103.1858,-34.5576 93.4756,-25.541"/>
<polygon fill="#191970" stroke="#191970" points="95.7079,-22.8376 85.9984,-18.5978 90.9447,-27.9672 95.7079,-22.8376"/>
</g>
<!-- Node2 -->
<g id="node3" class="node">
<title>Node2</title>
<polygon fill="#ffffff" stroke="#bfbfbf" points="170.6836,-.5 170.6836,-18.5 261.7178,-18.5 261.7178,-.5 170.6836,-.5"/>
<text text-anchor="middle" x="216.2007" y="-6.5" font-family="Helvetica,sans-Serif" font-size="10.00" fill="#000000">ARX/AR/config.h</text>
</g>
<!-- Node0&#45;&gt;Node2 -->
<g id="edge2" class="edge">
<title>Node0&#45;&gt;Node2</title>
<path fill="none" stroke="#191970" d="M166.8244,-55.3494C177.0326,-45.8704 189.2156,-34.5576 198.9257,-25.541"/>
<polygon fill="#191970" stroke="#191970" points="201.4566,-27.9672 206.403,-18.5978 196.6935,-22.8376 201.4566,-27.9672"/>
</g>
</g>
</svg>
