<?xml version="1.0" encoding="UTF-8" standalone="no"?>
<!DOCTYPE svg PUBLIC "-//W3C//DTD SVG 1.1//EN"
 "http://www.w3.org/Graphics/SVG/1.1/DTD/svg11.dtd">
<!-- Generated by graphviz version 8.0.5 (20230430.1635)
 -->
<!-- Title: Source/ARX/ARVideo/AVFoundation/MovieVideo.h Pages: 1 -->
<svg width="266pt" height="94pt"
 viewBox="0.00 0.00 265.50 93.75" xmlns="http://www.w3.org/2000/svg" xmlns:xlink="http://www.w3.org/1999/xlink">
<g id="graph0" class="graph" transform="scale(1 1) rotate(0) translate(4 89.75)">
<title>Source/ARX/ARVideo/AVFoundation/MovieVideo.h</title>
<!-- Node1 -->
<g id="node1" class="node">
<title>Node1</title>
<g id="a_node1"><a xlink:title=" ">
<polygon fill="#999999" stroke="#666666" points="213.25,-85.75 72,-85.75 72,-55.25 213.25,-55.25 213.25,-85.75"/>
<text text-anchor="start" x="80" y="-72.25" font-family="Helvetica,sans-Serif" font-size="10.00">Source/ARX/ARVideo</text>
<text text-anchor="middle" x="142.62" y="-61" font-family="Helvetica,sans-Serif" font-size="10.00">/AVFoundation/MovieVideo.h</text>
</a>
</g>
</g>
<!-- Node2 -->
<g id="node2" class="node">
<title>Node2</title>
<g id="a_node2"><a xlink:title=" ">
<polygon fill="#e0e0e0" stroke="#999999" points="147.25,-19.25 0,-19.25 0,0 147.25,0 147.25,-19.25"/>
<text text-anchor="middle" x="73.62" y="-5.75" font-family="Helvetica,sans-Serif" font-size="10.00">AVFoundation/AVFoundation.h</text>
</a>
</g>
</g>
<!-- Node1&#45;&gt;Node2 -->
<g id="edge1" class="edge">
<title>Node1&#45;&gt;Node2</title>
<path fill="none" stroke="#63b8ff" d="M125.57,-54.95C115.57,-46.41 102.91,-35.62 92.6,-26.81"/>
<polygon fill="#63b8ff" stroke="#63b8ff" points="95.14,-23.53 85.26,-19.7 90.6,-28.85 95.14,-23.53"/>
</g>
<!-- Node3 -->
<g id="node3" class="node">
<title>Node3</title>
<g id="a_node3"><a xlink:title=" ">
<polygon fill="#e0e0e0" stroke="#999999" points="257.5,-19.25 165.75,-19.25 165.75,0 257.5,0 257.5,-19.25"/>
<text text-anchor="middle" x="211.62" y="-5.75" font-family="Helvetica,sans-Serif" font-size="10.00">ARX/AR/config.h</text>
</a>
</g>
</g>
<!-- Node1&#45;&gt;Node3 -->
<g id="edge2" class="edge">
<title>Node1&#45;&gt;Node3</title>
<path fill="none" stroke="#63b8ff" d="M159.68,-54.95C169.68,-46.41 182.34,-35.62 192.65,-26.81"/>
<polygon fill="#63b8ff" stroke="#63b8ff" points="194.65,-28.85 199.99,-19.7 190.11,-23.53 194.65,-28.85"/>
</g>
</g>
</svg>
