<?xml version="1.0" encoding="UTF-8" standalone="no"?>
<!DOCTYPE svg PUBLIC "-//W3C//DTD SVG 1.1//EN"
 "http://www.w3.org/Graphics/SVG/1.1/DTD/svg11.dtd">
<!-- Generated by graphviz version 2.40.1 (20161225.0304)
 -->
<!-- Title: /Users/phil/r/artoolkitx/Source/ARX/OCVT/OCVConfig.h Pages: 1 -->
<svg width="486pt" height="92pt"
 viewBox="0.00 0.00 485.62 92.00" xmlns="http://www.w3.org/2000/svg" xmlns:xlink="http://www.w3.org/1999/xlink">
<g id="graph0" class="graph" transform="scale(1 1) rotate(0) translate(4 88)">
<title>/Users/phil/r/artoolkitx/Source/ARX/OCVT/OCVConfig.h</title>
<polygon fill="#ffffff" stroke="transparent" points="-4,4 -4,-88 481.6201,-88 481.6201,4 -4,4"/>
<!-- Node0 -->
<g id="node1" class="node">
<title>Node0</title>
<polygon fill="#bfbfbf" stroke="#000000" points="148.7241,-55.5 148.7241,-83.5 314.7778,-83.5 314.7778,-55.5 148.7241,-55.5"/>
<text text-anchor="start" x="156.7241" y="-71.5" font-family="Helvetica,sans-Serif" font-size="10.00" fill="#000000">/Users/phil/r/artoolkitx</text>
<text text-anchor="middle" x="231.751" y="-61.5" font-family="Helvetica,sans-Serif" font-size="10.00" fill="#000000">/Source/ARX/OCVT/OCVConfig.h</text>
</g>
<!-- Node1 -->
<g id="node2" class="node">
<title>Node1</title>
<polygon fill="#ffffff" stroke="#bfbfbf" points="0,-.5 0,-18.5 95.502,-18.5 95.502,-.5 0,-.5"/>
<text text-anchor="middle" x="47.751" y="-6.5" font-family="Helvetica,sans-Serif" font-size="10.00" fill="#000000">opencv2/core.hpp</text>
</g>
<!-- Node0&#45;&gt;Node1 -->
<g id="edge1" class="edge">
<title>Node0&#45;&gt;Node1</title>
<path fill="none" stroke="#191970" d="M188.6112,-55.4327C157.2139,-45.1944 115.1211,-31.4685 85.1466,-21.6942"/>
<polygon fill="#191970" stroke="#191970" points="86.0713,-18.3144 75.4789,-18.5417 83.9011,-24.9696 86.0713,-18.3144"/>
</g>
<!-- Node2 -->
<g id="node3" class="node">
<title>Node2</title>
<polygon fill="#ffffff" stroke="#bfbfbf" points="113.6011,-.5 113.6011,-18.5 221.9009,-18.5 221.9009,-.5 113.6011,-.5"/>
<text text-anchor="middle" x="167.751" y="-6.5" font-family="Helvetica,sans-Serif" font-size="10.00" fill="#000000">opencv2/highgui.hpp</text>
</g>
<!-- Node0&#45;&gt;Node2 -->
<g id="edge2" class="edge">
<title>Node0&#45;&gt;Node2</title>
<path fill="none" stroke="#191970" d="M216.5839,-55.2808C207.0171,-46.312 194.6442,-34.7124 184.7468,-25.4335"/>
<polygon fill="#191970" stroke="#191970" points="187.13,-22.8702 177.4408,-18.5842 182.3424,-27.977 187.13,-22.8702"/>
</g>
<!-- Node3 -->
<g id="node4" class="node">
<title>Node3</title>
<polygon fill="#ffffff" stroke="#bfbfbf" points="239.9434,-.5 239.9434,-18.5 351.5586,-18.5 351.5586,-.5 239.9434,-.5"/>
<text text-anchor="middle" x="295.751" y="-6.5" font-family="Helvetica,sans-Serif" font-size="10.00" fill="#000000">opencv2/imgproc.hpp</text>
</g>
<!-- Node0&#45;&gt;Node3 -->
<g id="edge3" class="edge">
<title>Node0&#45;&gt;Node3</title>
<path fill="none" stroke="#191970" d="M246.9181,-55.2808C256.4849,-46.312 268.8577,-34.7124 278.7552,-25.4335"/>
<polygon fill="#191970" stroke="#191970" points="281.1596,-27.977 286.0612,-18.5842 276.372,-22.8702 281.1596,-27.977"/>
</g>
<!-- Node4 -->
<g id="node5" class="node">
<title>Node4</title>
<polygon fill="#ffffff" stroke="#bfbfbf" points="369.8818,-.5 369.8818,-18.5 477.6201,-18.5 477.6201,-.5 369.8818,-.5"/>
<text text-anchor="middle" x="423.751" y="-6.5" font-family="Helvetica,sans-Serif" font-size="10.00" fill="#000000">opencv2/calib3d.hpp</text>
</g>
<!-- Node0&#45;&gt;Node4 -->
<g id="edge4" class="edge">
<title>Node0&#45;&gt;Node4</title>
<path fill="none" stroke="#191970" d="M276.7664,-55.4327C309.6713,-45.1499 353.8339,-31.3491 385.1367,-21.567"/>
<polygon fill="#191970" stroke="#191970" points="386.3166,-24.8652 394.8175,-18.5417 384.2287,-18.1839 386.3166,-24.8652"/>
</g>
</g>
</svg>
