<?xml version="1.0" encoding="UTF-8" standalone="no"?>
<!DOCTYPE svg PUBLIC "-//W3C//DTD SVG 1.1//EN"
 "http://www.w3.org/Graphics/SVG/1.1/DTD/svg11.dtd">
<!-- Generated by graphviz version 7.0.5 (20221223.1930)
 -->
<!-- Title: Source/ARX/OCVT/OCVFeatureDetector.cpp Pages: 1 -->
<svg width="250pt" height="148pt"
 viewBox="0.00 0.00 249.50 148.00" xmlns="http://www.w3.org/2000/svg" xmlns:xlink="http://www.w3.org/1999/xlink">
<g id="graph0" class="graph" transform="scale(1 1) rotate(0) translate(4 144)">
<title>Source/ARX/OCVT/OCVFeatureDetector.cpp</title>
<!-- Node1 -->
<g id="node1" class="node">
<title>Node1</title>
<g id="a_node1"><a xlink:title=" ">
<polygon fill="#999999" stroke="#666666" points="241.5,-140 81.5,-140 81.5,-110 241.5,-110 241.5,-140"/>
<text text-anchor="start" x="89.5" y="-128" font-family="Helvetica,sans-Serif" font-size="10.00">Source/ARX/OCVT/OCVFeature</text>
<text text-anchor="middle" x="161.5" y="-117" font-family="Helvetica,sans-Serif" font-size="10.00">Detector.cpp</text>
</a>
</g>
</g>
<!-- Node2 -->
<g id="node2" class="node">
<title>Node2</title>
<g id="a_node2"><a xlink:href="_o_c_v_feature_detector_8h.html" target="_top" xlink:title=" ">
<polygon fill="white" stroke="#666666" points="219.5,-74 103.5,-74 103.5,-55 219.5,-55 219.5,-74"/>
<text text-anchor="middle" x="161.5" y="-62" font-family="Helvetica,sans-Serif" font-size="10.00">OCVFeatureDetector.h</text>
</a>
</g>
</g>
<!-- Node1&#45;&gt;Node2 -->
<g id="edge1" class="edge">
<title>Node1&#45;&gt;Node2</title>
<path fill="none" stroke="#63b8ff" d="M161.5,-109.54C161.5,-102.34 161.5,-93.53 161.5,-85.68"/>
<polygon fill="#63b8ff" stroke="#63b8ff" points="165,-85.69 161.5,-75.69 158,-85.69 165,-85.69"/>
</g>
<!-- Node3 -->
<g id="node3" class="node">
<title>Node3</title>
<g id="a_node3"><a xlink:title=" ">
<polygon fill="#e0e0e0" stroke="#999999" points="121,-19 0,-19 0,0 121,0 121,-19"/>
<text text-anchor="middle" x="60.5" y="-7" font-family="Helvetica,sans-Serif" font-size="10.00">opencv2/features2d.hpp</text>
</a>
</g>
</g>
<!-- Node2&#45;&gt;Node3 -->
<g id="edge2" class="edge">
<title>Node2&#45;&gt;Node3</title>
<path fill="none" stroke="#63b8ff" d="M144.37,-54.51C128.75,-46.31 105.42,-34.07 87.33,-24.58"/>
<polygon fill="#63b8ff" stroke="#63b8ff" points="89.2,-21.61 78.72,-20.06 85.95,-27.81 89.2,-21.61"/>
</g>
<!-- Node4 -->
<g id="node4" class="node">
<title>Node4</title>
<g id="a_node4"><a xlink:title=" ">
<polygon fill="#e0e0e0" stroke="#999999" points="183.5,-19 139.5,-19 139.5,0 183.5,0 183.5,-19"/>
<text text-anchor="middle" x="161.5" y="-7" font-family="Helvetica,sans-Serif" font-size="10.00">vector</text>
</a>
</g>
</g>
<!-- Node2&#45;&gt;Node4 -->
<g id="edge3" class="edge">
<title>Node2&#45;&gt;Node4</title>
<path fill="none" stroke="#63b8ff" d="M161.5,-54.75C161.5,-48.27 161.5,-39.16 161.5,-30.9"/>
<polygon fill="#63b8ff" stroke="#63b8ff" points="165,-30.96 161.5,-20.96 158,-30.96 165,-30.96"/>
</g>
<!-- Node5 -->
<g id="node5" class="node">
<title>Node5</title>
<g id="a_node5"><a xlink:title=" ">
<polygon fill="#e0e0e0" stroke="#999999" points="237,-19 202,-19 202,0 237,0 237,-19"/>
<text text-anchor="middle" x="219.5" y="-7" font-family="Helvetica,sans-Serif" font-size="10.00">map</text>
</a>
</g>
</g>
<!-- Node2&#45;&gt;Node5 -->
<g id="edge4" class="edge">
<title>Node2&#45;&gt;Node5</title>
<path fill="none" stroke="#63b8ff" d="M171.34,-54.51C179.55,-47 191.48,-36.1 201.41,-27.03"/>
<polygon fill="#63b8ff" stroke="#63b8ff" points="203.67,-29.71 208.69,-20.38 198.95,-24.54 203.67,-29.71"/>
</g>
</g>
</svg>
