<?xml version="1.0" encoding="UTF-8" standalone="no"?>
<!DOCTYPE svg PUBLIC "-//W3C//DTD SVG 1.1//EN"
 "http://www.w3.org/Graphics/SVG/1.1/DTD/svg11.dtd">
<!-- Generated by graphviz version 7.0.5 (20221223.1930)
 -->
<!-- Title: Source/ARX/OCVT/OCVConfig.h Pages: 1 -->
<svg width="990pt" height="214pt"
 viewBox="0.00 0.00 990.00 214.00" xmlns="http://www.w3.org/2000/svg" xmlns:xlink="http://www.w3.org/1999/xlink">
<g id="graph0" class="graph" transform="scale(1 1) rotate(0) translate(4 210)">
<title>Source/ARX/OCVT/OCVConfig.h</title>
<!-- Node1 -->
<g id="node1" class="node">
<title>Node1</title>
<g id="a_node1"><a xlink:title=" ">
<polygon fill="#999999" stroke="#666666" points="537.5,-206 373.5,-206 373.5,-187 537.5,-187 537.5,-206"/>
<text text-anchor="middle" x="455.5" y="-194" font-family="Helvetica,sans-Serif" font-size="10.00">Source/ARX/OCVT/OCVConfig.h</text>
</a>
</g>
</g>
<!-- Node2 -->
<g id="node2" class="node">
<title>Node2</title>
<g id="a_node2"><a xlink:href="_harris_detector_8h.html" target="_top" xlink:title=" ">
<polygon fill="white" stroke="#666666" points="225.5,-145.5 49.5,-145.5 49.5,-126.5 225.5,-126.5 225.5,-145.5"/>
<text text-anchor="middle" x="137.5" y="-133.5" font-family="Helvetica,sans-Serif" font-size="10.00">Source/ARX/OCVT/HarrisDetector.h</text>
</a>
</g>
</g>
<!-- Node1&#45;&gt;Node2 -->
<g id="edge1" class="edge">
<title>Node1&#45;&gt;Node2</title>
<path fill="none" stroke="#63b8ff" d="M395.57,-184.47C335.03,-173.34 242.66,-156.34 186.4,-146"/>
<polygon fill="#63b8ff" stroke="#63b8ff" points="394.9,-187.91 405.37,-186.28 396.17,-181.03 394.9,-187.91"/>
</g>
<!-- Node4 -->
<g id="node4" class="node">
<title>Node4</title>
<g id="a_node4"><a xlink:href="_planar_tracker_8cpp.html" target="_top" xlink:title=" ">
<polygon fill="white" stroke="#666666" points="383.5,-19 199.5,-19 199.5,0 383.5,0 383.5,-19"/>
<text text-anchor="middle" x="291.5" y="-7" font-family="Helvetica,sans-Serif" font-size="10.00">Source/ARX/OCVT/PlanarTracker.cpp</text>
</a>
</g>
</g>
<!-- Node1&#45;&gt;Node4 -->
<g id="edge10" class="edge">
<title>Node1&#45;&gt;Node4</title>
<path fill="none" stroke="#63b8ff" d="M368.45,-184.7C327.48,-177.66 284.9,-166.78 272.5,-151 240.86,-110.75 273.18,-43.15 286.41,-19.22"/>
<polygon fill="#63b8ff" stroke="#63b8ff" points="367.72,-188.13 378.16,-186.3 368.86,-181.23 367.72,-188.13"/>
</g>
<!-- Node5 -->
<g id="node5" class="node">
<title>Node5</title>
<g id="a_node5"><a xlink:href="_homography_info_8h.html" target="_top" xlink:title=" ">
<polygon fill="white" stroke="#666666" points="443,-151 282,-151 282,-121 443,-121 443,-151"/>
<text text-anchor="start" x="290" y="-139" font-family="Helvetica,sans-Serif" font-size="10.00">Source/ARX/OCVT/Homography</text>
<text text-anchor="middle" x="362.5" y="-128" font-family="Helvetica,sans-Serif" font-size="10.00">Info.h</text>
</a>
</g>
</g>
<!-- Node1&#45;&gt;Node5 -->
<g id="edge4" class="edge">
<title>Node1&#45;&gt;Node5</title>
<path fill="none" stroke="#63b8ff" d="M431.79,-180.59C417.56,-171.64 399.55,-160.3 385.46,-151.44"/>
<polygon fill="#63b8ff" stroke="#63b8ff" points="429.77,-183.45 440.09,-185.81 433.49,-177.52 429.77,-183.45"/>
</g>
<!-- Node7 -->
<g id="node7" class="node">
<title>Node7</title>
<g id="a_node7"><a xlink:href="_o_c_v_config_8cpp.html" target="_top" xlink:title=" ">
<polygon fill="white" stroke="#666666" points="635.5,-145.5 461.5,-145.5 461.5,-126.5 635.5,-126.5 635.5,-145.5"/>
<text text-anchor="middle" x="548.5" y="-133.5" font-family="Helvetica,sans-Serif" font-size="10.00">Source/ARX/OCVT/OCVConfig.cpp</text>
</a>
</g>
</g>
<!-- Node1&#45;&gt;Node7 -->
<g id="edge7" class="edge">
<title>Node1&#45;&gt;Node7</title>
<path fill="none" stroke="#63b8ff" d="M479.1,-180.66C496.49,-169.72 519.58,-155.19 534.24,-145.97"/>
<polygon fill="#63b8ff" stroke="#63b8ff" points="477.51,-177.52 470.91,-185.81 481.23,-183.45 477.51,-177.52"/>
</g>
<!-- Node8 -->
<g id="node8" class="node">
<title>Node8</title>
<g id="a_node8"><a xlink:href="_o_c_v_utils_8h.html" target="_top" xlink:title=" ">
<polygon fill="white" stroke="#666666" points="654,-79.5 499,-79.5 499,-60.5 654,-60.5 654,-79.5"/>
<text text-anchor="middle" x="576.5" y="-67.5" font-family="Helvetica,sans-Serif" font-size="10.00">Source/ARX/OCVT/OCVUtils.h</text>
</a>
</g>
</g>
<!-- Node1&#45;&gt;Node8 -->
<g id="edge8" class="edge">
<title>Node1&#45;&gt;Node8</title>
<path fill="none" stroke="#63b8ff" d="M547.24,-184.76C588.96,-177.79 631.84,-166.98 644.5,-151 665.44,-124.56 620.6,-94.56 594.12,-79.95"/>
<polygon fill="#63b8ff" stroke="#63b8ff" points="546.92,-181.26 537.6,-186.29 548.03,-188.17 546.92,-181.26"/>
</g>
<!-- Node9 -->
<g id="node9" class="node">
<title>Node9</title>
<g id="a_node9"><a xlink:href="_tracking_point_selector_8h.html" target="_top" xlink:title=" ">
<polygon fill="white" stroke="#666666" points="835,-151 692,-151 692,-121 835,-121 835,-151"/>
<text text-anchor="start" x="700" y="-139" font-family="Helvetica,sans-Serif" font-size="10.00">Source/ARX/OCVT/Tracking</text>
<text text-anchor="middle" x="763.5" y="-128" font-family="Helvetica,sans-Serif" font-size="10.00">PointSelector.h</text>
</a>
</g>
</g>
<!-- Node1&#45;&gt;Node9 -->
<g id="edge11" class="edge">
<title>Node1&#45;&gt;Node9</title>
<path fill="none" stroke="#63b8ff" d="M513.67,-184.45C564.21,-174.85 637.61,-160.91 691.77,-150.62"/>
<polygon fill="#63b8ff" stroke="#63b8ff" points="513.27,-180.96 504.1,-186.27 514.58,-187.84 513.27,-180.96"/>
</g>
<!-- Node3 -->
<g id="node3" class="node">
<title>Node3</title>
<g id="a_node3"><a xlink:href="_harris_detector_8cpp.html" target="_top" xlink:title=" ">
<polygon fill="white" stroke="#666666" points="187,-79.5 0,-79.5 0,-60.5 187,-60.5 187,-79.5"/>
<text text-anchor="middle" x="93.5" y="-67.5" font-family="Helvetica,sans-Serif" font-size="10.00">Source/ARX/OCVT/HarrisDetector.cpp</text>
</a>
</g>
</g>
<!-- Node2&#45;&gt;Node3 -->
<g id="edge2" class="edge">
<title>Node2&#45;&gt;Node3</title>
<path fill="none" stroke="#63b8ff" d="M125.05,-116.9C116.72,-104.77 106.11,-89.34 99.57,-79.82"/>
<polygon fill="#63b8ff" stroke="#63b8ff" points="121.98,-118.6 130.52,-124.85 127.74,-114.63 121.98,-118.6"/>
</g>
<!-- Node2&#45;&gt;Node4 -->
<g id="edge3" class="edge">
<title>Node2&#45;&gt;Node4</title>
<path fill="none" stroke="#63b8ff" d="M157.3,-118.99C190.13,-92.45 254.76,-40.2 280.53,-19.37"/>
<polygon fill="#63b8ff" stroke="#63b8ff" points="155.33,-116.09 149.75,-125.09 159.73,-121.53 155.33,-116.09"/>
</g>
<!-- Node5&#45;&gt;Node4 -->
<g id="edge6" class="edge">
<title>Node5&#45;&gt;Node4</title>
<path fill="none" stroke="#63b8ff" d="M334.25,-113.18C325.51,-105.17 316.6,-95.47 310.5,-85 298.01,-63.55 293.64,-33.94 292.18,-19.35"/>
<polygon fill="#63b8ff" stroke="#63b8ff" points="331.81,-115.71 341.66,-119.61 336.4,-110.42 331.81,-115.71"/>
</g>
<!-- Node6 -->
<g id="node6" class="node">
<title>Node6</title>
<g id="a_node6"><a xlink:href="_homography_info_8cpp.html" target="_top" xlink:title=" ">
<polygon fill="white" stroke="#666666" points="481,-85 320,-85 320,-55 481,-55 481,-85"/>
<text text-anchor="start" x="328" y="-73" font-family="Helvetica,sans-Serif" font-size="10.00">Source/ARX/OCVT/Homography</text>
<text text-anchor="middle" x="400.5" y="-62" font-family="Helvetica,sans-Serif" font-size="10.00">Info.cpp</text>
</a>
</g>
</g>
<!-- Node5&#45;&gt;Node6 -->
<g id="edge5" class="edge">
<title>Node5&#45;&gt;Node6</title>
<path fill="none" stroke="#63b8ff" d="M376.68,-111.11C381.87,-102.38 387.57,-92.78 392.09,-85.16"/>
<polygon fill="#63b8ff" stroke="#63b8ff" points="373.8,-109.11 371.71,-119.49 379.82,-112.68 373.8,-109.11"/>
</g>
<!-- Node8&#45;&gt;Node4 -->
<g id="edge9" class="edge">
<title>Node8&#45;&gt;Node4</title>
<path fill="none" stroke="#63b8ff" d="M521.75,-57.76C467.4,-46.61 385.17,-29.73 335.09,-19.45"/>
<polygon fill="#63b8ff" stroke="#63b8ff" points="520.92,-61.16 531.42,-59.75 522.33,-54.31 520.92,-61.16"/>
</g>
<!-- Node10 -->
<g id="node10" class="node">
<title>Node10</title>
<g id="a_node10"><a xlink:href="_trackable_info_8h.html" target="_top" xlink:title=" ">
<polygon fill="white" stroke="#666666" points="820.5,-85 672.5,-85 672.5,-55 820.5,-55 820.5,-85"/>
<text text-anchor="start" x="680.5" y="-73" font-family="Helvetica,sans-Serif" font-size="10.00">Source/ARX/OCVT/Trackable</text>
<text text-anchor="middle" x="746.5" y="-62" font-family="Helvetica,sans-Serif" font-size="10.00">Info.h</text>
</a>
</g>
</g>
<!-- Node9&#45;&gt;Node10 -->
<g id="edge12" class="edge">
<title>Node9&#45;&gt;Node10</title>
<path fill="none" stroke="#63b8ff" d="M756.77,-109.68C754.56,-101.34 752.18,-92.37 750.26,-85.16"/>
<polygon fill="#63b8ff" stroke="#63b8ff" points="753.39,-110.57 759.34,-119.33 760.15,-108.77 753.39,-110.57"/>
</g>
<!-- Node11 -->
<g id="node11" class="node">
<title>Node11</title>
<g id="a_node11"><a xlink:href="_tracking_point_selector_8cpp.html" target="_top" xlink:title=" ">
<polygon fill="white" stroke="#666666" points="982,-85 839,-85 839,-55 982,-55 982,-85"/>
<text text-anchor="start" x="847" y="-73" font-family="Helvetica,sans-Serif" font-size="10.00">Source/ARX/OCVT/Tracking</text>
<text text-anchor="middle" x="910.5" y="-62" font-family="Helvetica,sans-Serif" font-size="10.00">PointSelector.cpp</text>
</a>
</g>
</g>
<!-- Node9&#45;&gt;Node11 -->
<g id="edge14" class="edge">
<title>Node9&#45;&gt;Node11</title>
<path fill="none" stroke="#63b8ff" d="M806.82,-116.14C829.37,-106.32 856.51,-94.51 877.37,-85.43"/>
<polygon fill="#63b8ff" stroke="#63b8ff" points="805.65,-112.83 797.88,-120.03 808.44,-119.25 805.65,-112.83"/>
</g>
<!-- Node10&#45;&gt;Node4 -->
<g id="edge13" class="edge">
<title>Node10&#45;&gt;Node4</title>
<path fill="none" stroke="#63b8ff" d="M661.23,-54.87C556.55,-40.03 448.35,-27.5 375.63,-19.48"/>
<polygon fill="#63b8ff" stroke="#63b8ff" points="660.43,-58.29 670.83,-56.23 661.42,-51.36 660.43,-58.29"/>
</g>
</g>
</svg>
