<?xml version="1.0" encoding="UTF-8" standalone="no"?>
<!DOCTYPE svg PUBLIC "-//W3C//DTD SVG 1.1//EN"
 "http://www.w3.org/Graphics/SVG/1.1/DTD/svg11.dtd">
<!-- Generated by graphviz version 7.0.5 (20221223.1930)
 -->
<!-- Title: Source/ARX/OCVT/OCVFeatureDetector.h Pages: 1 -->
<svg width="250pt" height="93pt"
 viewBox="0.00 0.00 249.50 93.00" xmlns="http://www.w3.org/2000/svg" xmlns:xlink="http://www.w3.org/1999/xlink">
<g id="graph0" class="graph" transform="scale(1 1) rotate(0) translate(4 89)">
<title>Source/ARX/OCVT/OCVFeatureDetector.h</title>
<!-- Node1 -->
<g id="node1" class="node">
<title>Node1</title>
<g id="a_node1"><a xlink:title=" ">
<polygon fill="#999999" stroke="#666666" points="241.5,-85 81.5,-85 81.5,-55 241.5,-55 241.5,-85"/>
<text text-anchor="start" x="89.5" y="-73" font-family="Helvetica,sans-Serif" font-size="10.00">Source/ARX/OCVT/OCVFeature</text>
<text text-anchor="middle" x="161.5" y="-62" font-family="Helvetica,sans-Serif" font-size="10.00">Detector.h</text>
</a>
</g>
</g>
<!-- Node2 -->
<g id="node2" class="node">
<title>Node2</title>
<g id="a_node2"><a xlink:title=" ">
<polygon fill="#e0e0e0" stroke="#999999" points="121,-19 0,-19 0,0 121,0 121,-19"/>
<text text-anchor="middle" x="60.5" y="-7" font-family="Helvetica,sans-Serif" font-size="10.00">opencv2/features2d.hpp</text>
</a>
</g>
</g>
<!-- Node1&#45;&gt;Node2 -->
<g id="edge1" class="edge">
<title>Node1&#45;&gt;Node2</title>
<path fill="none" stroke="#63b8ff" d="M136.53,-54.54C121.06,-45.58 101.25,-34.1 85.73,-25.11"/>
<polygon fill="#63b8ff" stroke="#63b8ff" points="87.49,-22.09 77.08,-20.1 83.98,-28.15 87.49,-22.09"/>
</g>
<!-- Node3 -->
<g id="node3" class="node">
<title>Node3</title>
<g id="a_node3"><a xlink:title=" ">
<polygon fill="#e0e0e0" stroke="#999999" points="183.5,-19 139.5,-19 139.5,0 183.5,0 183.5,-19"/>
<text text-anchor="middle" x="161.5" y="-7" font-family="Helvetica,sans-Serif" font-size="10.00">vector</text>
</a>
</g>
</g>
<!-- Node1&#45;&gt;Node3 -->
<g id="edge2" class="edge">
<title>Node1&#45;&gt;Node3</title>
<path fill="none" stroke="#63b8ff" d="M161.5,-54.54C161.5,-47.34 161.5,-38.53 161.5,-30.68"/>
<polygon fill="#63b8ff" stroke="#63b8ff" points="165,-30.69 161.5,-20.69 158,-30.69 165,-30.69"/>
</g>
<!-- Node4 -->
<g id="node4" class="node">
<title>Node4</title>
<g id="a_node4"><a xlink:title=" ">
<polygon fill="#e0e0e0" stroke="#999999" points="237,-19 202,-19 202,0 237,0 237,-19"/>
<text text-anchor="middle" x="219.5" y="-7" font-family="Helvetica,sans-Serif" font-size="10.00">map</text>
</a>
</g>
</g>
<!-- Node1&#45;&gt;Node4 -->
<g id="edge3" class="edge">
<title>Node1&#45;&gt;Node4</title>
<path fill="none" stroke="#63b8ff" d="M175.84,-54.54C184,-46.3 194.27,-35.94 202.8,-27.34"/>
<polygon fill="#63b8ff" stroke="#63b8ff" points="205.28,-29.82 209.83,-20.25 200.31,-24.89 205.28,-29.82"/>
</g>
</g>
</svg>
