<?xml version="1.0" encoding="UTF-8" standalone="no"?>
<!DOCTYPE svg PUBLIC "-//W3C//DTD SVG 1.1//EN"
 "http://www.w3.org/Graphics/SVG/1.1/DTD/svg11.dtd">
<!-- Generated by graphviz version 8.0.5 (20230430.1635)
 -->
<!-- Title: Source/ARX/OCVT/OCVFeatureDetector.h Pages: 1 -->
<svg width="368pt" height="105pt"
 viewBox="0.00 0.00 368.25 105.00" xmlns="http://www.w3.org/2000/svg" xmlns:xlink="http://www.w3.org/1999/xlink">
<g id="graph0" class="graph" transform="scale(1 1) rotate(0) translate(4 101)">
<title>Source/ARX/OCVT/OCVFeatureDetector.h</title>
<!-- Node1 -->
<g id="node1" class="node">
<title>Node1</title>
<g id="a_node1"><a xlink:title=" ">
<polygon fill="#999999" stroke="#666666" points="253.25,-97 94,-97 94,-66.5 253.25,-66.5 253.25,-97"/>
<text text-anchor="start" x="102" y="-83.5" font-family="Helvetica,sans-Serif" font-size="10.00">Source/ARX/OCVT/OCVFeature</text>
<text text-anchor="middle" x="173.62" y="-72.25" font-family="Helvetica,sans-Serif" font-size="10.00">Detector.h</text>
</a>
</g>
</g>
<!-- Node2 -->
<g id="node2" class="node">
<title>Node2</title>
<g id="a_node2"><a xlink:href="_o_c_v_feature_detector_8cpp.html" target="_top" xlink:title=" ">
<polygon fill="white" stroke="#666666" points="159.25,-30.5 0,-30.5 0,0 159.25,0 159.25,-30.5"/>
<text text-anchor="start" x="8" y="-17" font-family="Helvetica,sans-Serif" font-size="10.00">Source/ARX/OCVT/OCVFeature</text>
<text text-anchor="middle" x="79.62" y="-5.75" font-family="Helvetica,sans-Serif" font-size="10.00">Detector.cpp</text>
</a>
</g>
</g>
<!-- Node1&#45;&gt;Node2 -->
<g id="edge1" class="edge">
<title>Node1&#45;&gt;Node2</title>
<path fill="none" stroke="#63b8ff" d="M143.55,-60.11C129.65,-50.58 113.47,-39.48 100.87,-30.83"/>
<polygon fill="#63b8ff" stroke="#63b8ff" points="141.07,-63.34 151.29,-66.11 145.03,-57.57 141.07,-63.34"/>
</g>
<!-- Node3 -->
<g id="node3" class="node">
<title>Node3</title>
<g id="a_node3"><a xlink:href="_planar_tracker_8cpp.html" target="_top" xlink:title=" ">
<polygon fill="white" stroke="#666666" points="360.25,-24.88 177,-24.88 177,-5.63 360.25,-5.63 360.25,-24.88"/>
<text text-anchor="middle" x="268.62" y="-11.38" font-family="Helvetica,sans-Serif" font-size="10.00">Source/ARX/OCVT/PlanarTracker.cpp</text>
</a>
</g>
</g>
<!-- Node1&#45;&gt;Node3 -->
<g id="edge2" class="edge">
<title>Node1&#45;&gt;Node3</title>
<path fill="none" stroke="#63b8ff" d="M203.86,-60.22C221.2,-48.45 242.08,-34.27 255.35,-25.26"/>
<polygon fill="#63b8ff" stroke="#63b8ff" points="202.49,-57.6 196.18,-66.11 206.42,-63.39 202.49,-57.6"/>
</g>
</g>
</svg>
