<?xml version="1.0" encoding="UTF-8" standalone="no"?>
<!DOCTYPE svg PUBLIC "-//W3C//DTD SVG 1.1//EN"
 "http://www.w3.org/Graphics/SVG/1.1/DTD/svg11.dtd">
<!-- Generated by graphviz version 2.40.1 (20161225.0304)
 -->
<!-- Title: Source/ARX/OCVT/OCVConfig.h Pages: 1 -->
<!--zoomable 212 -->
<svg id="main" version="1.1" xmlns="http://www.w3.org/2000/svg" xmlns:xlink="http://www.w3.org/1999/xlink" xml:space="preserve" onload="init(evt)">
<style type="text/css"><![CDATA[
.edge:hover path { stroke: red; }
.edge:hover polygon { stroke: red; fill: red; }
]]></style>
<script type="text/javascript"><![CDATA[
var edges = document.getElementsByTagName('g');
if (edges && edges.length) {
  for (var i=0;i<edges.length;i++) {
    if (edges[i].id.substr(0,4)=='edge') {
      edges[i].setAttribute('class','edge');
    }
  }
}
]]></script>
        <defs>
                <circle id="rim" cx="0" cy="0" r="7"/>
                <circle id="rim2" cx="0" cy="0" r="3.5"/>
                <g id="zoomPlus">
                        <use xlink:href="#rim" fill="#404040">
                                <set attributeName="fill" to="#808080" begin="zoomplus.mouseover" end="zoomplus.mouseout"/>
                        </use>
                        <path d="M-4,0h8M0,-4v8" fill="none" stroke="white" stroke-width="1.5" pointer-events="none"/>
                </g>
                <g id="zoomMin">
                        <use xlink:href="#rim" fill="#404040">
                                <set attributeName="fill" to="#808080" begin="zoomminus.mouseover" end="zoomminus.mouseout"/>
                        </use>
                        <path d="M-4,0h8" fill="none" stroke="white" stroke-width="1.5" pointer-events="none"/>
                </g>
                <g id="dirArrow">
                        <path fill="none" stroke="white" stroke-width="1.5" d="M0,-3.0v7 M-2.5,-0.5L0,-3.0L2.5,-0.5"/>
                </g>
               <g id="resetDef">
                       <use xlink:href="#rim2" fill="#404040">
                               <set attributeName="fill" to="#808080" begin="reset.mouseover" end="reset.mouseout"/>
                       </use>
               </g>
        </defs>

<script type="text/javascript">
var viewWidth = 988;
var viewHeight = 212;
var sectionId = 'dynsection-1';
</script>
<script xlink:href="svgpan.js"/>
<svg id="graph" class="graph">
<g id="viewport">
<title>Source/ARX/OCVT/OCVConfig.h</title>
<polygon fill="#ffffff" stroke="transparent" points="-4,4 -4,-208 983.7549,-208 983.7549,4 -4,4"/>
<!-- Node5 -->
<g id="node1" class="node">
<title>Node5</title>
<polygon fill="#bfbfbf" stroke="#000000" points="373.9482,-185.5 373.9482,-203.5 537.2236,-203.5 537.2236,-185.5 373.9482,-185.5"/>
<text text-anchor="middle" x="455.5859" y="-191.5" font-family="Helvetica,sans-Serif" font-size="10.00" fill="#000000">Source/ARX/OCVT/OCVConfig.h</text>
</g>
<!-- Node6 -->
<g id="node2" class="node">
<title>Node6</title>
<g id="a_node2"><a xlink:href="_harris_detector_8h.html" target="_top" xlink:title="Source/ARX/OCVT/HarrisDetector.h">
<polygon fill="#ffffff" stroke="#000000" points="49.2808,-125.5 49.2808,-143.5 225.8911,-143.5 225.8911,-125.5 49.2808,-125.5"/>
<text text-anchor="middle" x="137.5859" y="-131.5" font-family="Helvetica,sans-Serif" font-size="10.00" fill="#000000">Source/ARX/OCVT/HarrisDetector.h</text>
</a>
</g>
</g>
<!-- Node5&#45;&gt;Node6 -->
<g id="edge1" class="edge">
<title>Node5&#45;&gt;Node6</title>
<path fill="none" stroke="#191970" d="M397.7967,-183.5964C336.9365,-172.1133 242.2175,-154.2418 185.4075,-143.5229"/>
<polygon fill="#191970" stroke="#191970" points="397.1582,-187.0376 407.6338,-185.4524 398.4562,-180.159 397.1582,-187.0376"/>
</g>
<!-- Node8 -->
<g id="node4" class="node">
<title>Node8</title>
<g id="a_node4"><a xlink:href="_planar_tracker_8cpp.html" target="_top" xlink:title="Source/ARX/OCVT/PlanarTracker.cpp">
<polygon fill="#ffffff" stroke="#000000" points="199.0132,-.5 199.0132,-18.5 384.1587,-18.5 384.1587,-.5 199.0132,-.5"/>
<text text-anchor="middle" x="291.5859" y="-6.5" font-family="Helvetica,sans-Serif" font-size="10.00" fill="#000000">Source/ARX/OCVT/PlanarTracker.cpp</text>
</a>
</g>
</g>
<!-- Node5&#45;&gt;Node8 -->
<g id="edge10" class="edge">
<title>Node5&#45;&gt;Node8</title>
<path fill="none" stroke="#191970" d="M371.6755,-183.7709C329.753,-176.508 285.2798,-165.2365 272.5859,-149 241.5736,-109.3328 272.7747,-43.1757 286.1456,-18.8462"/>
<polygon fill="#191970" stroke="#191970" points="371.2518,-187.2485 381.6913,-185.4408 372.4031,-180.3438 371.2518,-187.2485"/>
</g>
<!-- Node9 -->
<g id="node5" class="node">
<title>Node9</title>
<g id="a_node5"><a xlink:href="_homography_info_8h.html" target="_top" xlink:title="Source/ARX/OCVT/Homography\lInfo.h">
<polygon fill="#ffffff" stroke="#000000" points="281.7808,-120.5 281.7808,-148.5 443.3911,-148.5 443.3911,-120.5 281.7808,-120.5"/>
<text text-anchor="start" x="289.7808" y="-136.5" font-family="Helvetica,sans-Serif" font-size="10.00" fill="#000000">Source/ARX/OCVT/Homography</text>
<text text-anchor="middle" x="362.5859" y="-126.5" font-family="Helvetica,sans-Serif" font-size="10.00" fill="#000000">Info.h</text>
</a>
</g>
</g>
<!-- Node5&#45;&gt;Node9 -->
<g id="edge4" class="edge">
<title>Node5&#45;&gt;Node9</title>
<path fill="none" stroke="#191970" d="M432.9274,-179.8816C418.1835,-170.3694 399.0559,-158.029 384.4693,-148.6183"/>
<polygon fill="#191970" stroke="#191970" points="431.1608,-182.907 441.4612,-185.3873 434.9557,-177.0249 431.1608,-182.907"/>
</g>
<!-- Node11 -->
<g id="node7" class="node">
<title>Node11</title>
<g id="a_node7"><a xlink:href="_o_c_v_config_8cpp.html" target="_top" xlink:title="Source/ARX/OCVT/OCVConfig.cpp">
<polygon fill="#ffffff" stroke="#000000" points="461.6675,-125.5 461.6675,-143.5 635.5044,-143.5 635.5044,-125.5 461.6675,-125.5"/>
<text text-anchor="middle" x="548.5859" y="-131.5" font-family="Helvetica,sans-Serif" font-size="10.00" fill="#000000">Source/ARX/OCVT/OCVConfig.cpp</text>
</a>
</g>
</g>
<!-- Node5&#45;&gt;Node11 -->
<g id="edge7" class="edge">
<title>Node5&#45;&gt;Node11</title>
<path fill="none" stroke="#191970" d="M478.2697,-179.8653C495.8789,-168.5045 519.7297,-153.1169 534.633,-143.5019"/>
<polygon fill="#191970" stroke="#191970" points="476.2162,-177.0249 469.7106,-185.3873 480.0111,-182.907 476.2162,-177.0249"/>
</g>
<!-- Node12 -->
<g id="node8" class="node">
<title>Node12</title>
<g id="a_node8"><a xlink:href="_o_c_v_utils_8h.html" target="_top" xlink:title="Source/ARX/OCVT/OCVUtils.h">
<polygon fill="#ffffff" stroke="#000000" points="499.6797,-60.5 499.6797,-78.5 653.4922,-78.5 653.4922,-60.5 499.6797,-60.5"/>
<text text-anchor="middle" x="576.5859" y="-66.5" font-family="Helvetica,sans-Serif" font-size="10.00" fill="#000000">Source/ARX/OCVT/OCVUtils.h</text>
</a>
</g>
</g>
<!-- Node5&#45;&gt;Node12 -->
<g id="edge8" class="edge">
<title>Node5&#45;&gt;Node12</title>
<path fill="none" stroke="#191970" d="M543.6193,-183.8889C586.4925,-176.7245 631.5793,-165.5095 644.5859,-149 665.267,-122.7493 621.0901,-93.1642 594.6047,-78.599"/>
<polygon fill="#191970" stroke="#191970" points="542.9749,-180.4475 533.657,-185.49 544.0857,-187.3588 542.9749,-180.4475"/>
</g>
<!-- Node13 -->
<g id="node9" class="node">
<title>Node13</title>
<g id="a_node9"><a xlink:href="_tracking_point_selector_8h.html" target="_top" xlink:title="Source/ARX/OCVT/Tracking\lPointSelector.h">
<polygon fill="#ffffff" stroke="#000000" points="691.417,-120.5 691.417,-148.5 833.7549,-148.5 833.7549,-120.5 691.417,-120.5"/>
<text text-anchor="start" x="699.417" y="-136.5" font-family="Helvetica,sans-Serif" font-size="10.00" fill="#000000">Source/ARX/OCVT/Tracking</text>
<text text-anchor="middle" x="762.5859" y="-126.5" font-family="Helvetica,sans-Serif" font-size="10.00" fill="#000000">PointSelector.h</text>
</a>
</g>
</g>
<!-- Node5&#45;&gt;Node13 -->
<g id="edge11" class="edge">
<title>Node5&#45;&gt;Node13</title>
<path fill="none" stroke="#191970" d="M511.9634,-183.4816C562.4623,-173.6121 636.7618,-159.091 691.3551,-148.4213"/>
<polygon fill="#191970" stroke="#191970" points="511.0223,-180.0992 501.8793,-185.4524 512.365,-186.9693 511.0223,-180.0992"/>
</g>
<!-- Node7 -->
<g id="node3" class="node">
<title>Node7</title>
<g id="a_node3"><a xlink:href="_harris_detector_8cpp.html" target="_top" xlink:title="Source/ARX/OCVT/HarrisDetector.cpp">
<polygon fill="#ffffff" stroke="#000000" points="0,-60.5 0,-78.5 187.1719,-78.5 187.1719,-60.5 0,-60.5"/>
<text text-anchor="middle" x="93.5859" y="-66.5" font-family="Helvetica,sans-Serif" font-size="10.00" fill="#000000">Source/ARX/OCVT/HarrisDetector.cpp</text>
</a>
</g>
</g>
<!-- Node6&#45;&gt;Node7 -->
<g id="edge2" class="edge">
<title>Node6&#45;&gt;Node7</title>
<path fill="none" stroke="#191970" d="M125.7088,-116.9542C117.4106,-104.6956 106.6553,-88.807 99.9369,-78.8821"/>
<polygon fill="#191970" stroke="#191970" points="122.9638,-119.1429 131.4679,-125.462 128.7606,-115.2189 122.9638,-119.1429"/>
</g>
<!-- Node6&#45;&gt;Node8 -->
<g id="edge3" class="edge">
<title>Node6&#45;&gt;Node8</title>
<path fill="none" stroke="#191970" d="M157.085,-118.6728C189.6863,-92.2107 254.2459,-39.8085 280.2951,-18.6646"/>
<polygon fill="#191970" stroke="#191970" points="154.7195,-116.085 149.161,-125.1047 159.131,-121.52 154.7195,-116.085"/>
</g>
<!-- Node9&#45;&gt;Node8 -->
<g id="edge6" class="edge">
<title>Node9&#45;&gt;Node8</title>
<path fill="none" stroke="#191970" d="M335.5725,-113.5549C326.4525,-105.2446 316.9753,-95.0342 310.5859,-84 298.2787,-62.7457 293.8477,-33.5577 292.3288,-18.8206"/>
<polygon fill="#191970" stroke="#191970" points="333.5581,-116.4404 343.4085,-120.3417 338.1409,-111.1491 333.5581,-116.4404"/>
</g>
<!-- Node10 -->
<g id="node6" class="node">
<title>Node10</title>
<g id="a_node6"><a xlink:href="_homography_info_8cpp.html" target="_top" xlink:title="Source/ARX/OCVT/Homography\lInfo.cpp">
<polygon fill="#ffffff" stroke="#000000" points="319.7808,-55.5 319.7808,-83.5 481.3911,-83.5 481.3911,-55.5 319.7808,-55.5"/>
<text text-anchor="start" x="327.7808" y="-71.5" font-family="Helvetica,sans-Serif" font-size="10.00" fill="#000000">Source/ARX/OCVT/Homography</text>
<text text-anchor="middle" x="400.5859" y="-61.5" font-family="Helvetica,sans-Serif" font-size="10.00" fill="#000000">Info.cpp</text>
</a>
</g>
</g>
<!-- Node9&#45;&gt;Node10 -->
<g id="edge5" class="edge">
<title>Node9&#45;&gt;Node10</title>
<path fill="none" stroke="#191970" d="M375.9879,-111.5756C381.4453,-102.2406 387.5792,-91.7483 392.3566,-83.5765"/>
<polygon fill="#191970" stroke="#191970" points="372.8568,-109.9965 370.8314,-120.396 378.8999,-113.5294 372.8568,-109.9965"/>
</g>
<!-- Node12&#45;&gt;Node8 -->
<g id="edge9" class="edge">
<title>Node12&#45;&gt;Node8</title>
<path fill="none" stroke="#191970" d="M523.7781,-58.3826C469.2003,-46.8925 385.0445,-29.1755 334.4449,-18.5229"/>
<polygon fill="#191970" stroke="#191970" points="523.1034,-61.8172 533.61,-60.4524 524.5455,-54.9673 523.1034,-61.8172"/>
</g>
<!-- Node14 -->
<g id="node10" class="node">
<title>Node14</title>
<g id="a_node10"><a xlink:href="_trackable_info_8h.html" target="_top" xlink:title="Source/ARX/OCVT/Trackable\lInfo.h">
<polygon fill="#ffffff" stroke="#000000" points="671.6362,-55.5 671.6362,-83.5 819.5356,-83.5 819.5356,-55.5 671.6362,-55.5"/>
<text text-anchor="start" x="679.6362" y="-71.5" font-family="Helvetica,sans-Serif" font-size="10.00" fill="#000000">Source/ARX/OCVT/Trackable</text>
<text text-anchor="middle" x="745.5859" y="-61.5" font-family="Helvetica,sans-Serif" font-size="10.00" fill="#000000">Info.h</text>
</a>
</g>
</g>
<!-- Node13&#45;&gt;Node14 -->
<g id="edge12" class="edge">
<title>Node13&#45;&gt;Node14</title>
<path fill="none" stroke="#191970" d="M756.3606,-110.6971C753.9779,-101.5871 751.3379,-91.4929 749.2675,-83.5765"/>
<polygon fill="#191970" stroke="#191970" points="752.9807,-111.607 758.8972,-120.396 759.7529,-109.8358 752.9807,-111.607"/>
</g>
<!-- Node15 -->
<g id="node11" class="node">
<title>Node15</title>
<g id="a_node11"><a xlink:href="_tracking_point_selector_8cpp.html" target="_top" xlink:title="Source/ARX/OCVT/Tracking\lPointSelector.cpp">
<polygon fill="#ffffff" stroke="#000000" points="837.417,-55.5 837.417,-83.5 979.7549,-83.5 979.7549,-55.5 837.417,-55.5"/>
<text text-anchor="start" x="845.417" y="-71.5" font-family="Helvetica,sans-Serif" font-size="10.00" fill="#000000">Source/ARX/OCVT/Tracking</text>
<text text-anchor="middle" x="908.5859" y="-61.5" font-family="Helvetica,sans-Serif" font-size="10.00" fill="#000000">PointSelector.cpp</text>
</a>
</g>
</g>
<!-- Node13&#45;&gt;Node15 -->
<g id="edge14" class="edge">
<title>Node13&#45;&gt;Node15</title>
<path fill="none" stroke="#191970" d="M803.5362,-116.2687C826.7903,-105.9159 855.458,-93.1528 876.9679,-83.5765"/>
<polygon fill="#191970" stroke="#191970" points="801.9778,-113.1313 794.2658,-120.396 804.8248,-119.5262 801.9778,-113.1313"/>
</g>
<!-- Node14&#45;&gt;Node8 -->
<g id="edge13" class="edge">
<title>Node14&#45;&gt;Node8</title>
<path fill="none" stroke="#191970" d="M661.3234,-54.8566C556.9855,-39.5263 447.9471,-26.656 375.0007,-18.5014"/>
<polygon fill="#191970" stroke="#191970" points="661,-58.3468 671.4045,-56.3478 662.0244,-51.4222 661,-58.3468"/>
</g>
</g>
</svg>
        <g id="navigator" transform="translate(0 0)" fill="#404254">
                <rect fill="#f2f5e9" fill-opacity="0.5" stroke="#606060" stroke-width=".5" x="0" y="0" width="60" height="60"/>
                <use id="zoomplus" xlink:href="#zoomPlus" x="17" y="9" onmousedown="handleZoom(evt,'in')"/>
                <use id="zoomminus" xlink:href="#zoomMin" x="42" y="9" onmousedown="handleZoom(evt,'out')"/>
                <use id="reset" xlink:href="#resetDef" x="30" y="36" onmousedown="handleReset()"/>
                <g id="arrowUp" xlink:href="#dirArrow" transform="translate(30 24)" onmousedown="handlePan(0,-1)">
                  <use xlink:href="#rim" fill="#404040">
                        <set attributeName="fill" to="#808080" begin="arrowUp.mouseover" end="arrowUp.mouseout"/>
                  </use>
                  <path fill="none" stroke="white" stroke-width="1.5" d="M0,-3.0v7 M-2.5,-0.5L0,-3.0L2.5,-0.5"/>
                </g>
                <g id="arrowRight" xlink:href="#dirArrow" transform="rotate(90) translate(36 -43)" onmousedown="handlePan(1,0)">
                  <use xlink:href="#rim" fill="#404040">
                        <set attributeName="fill" to="#808080" begin="arrowRight.mouseover" end="arrowRight.mouseout"/>
                  </use>
                  <path fill="none" stroke="white" stroke-width="1.5" d="M0,-3.0v7 M-2.5,-0.5L0,-3.0L2.5,-0.5"/>
                </g>
                <g id="arrowDown" xlink:href="#dirArrow" transform="rotate(180) translate(-30 -48)" onmousedown="handlePan(0,1)">
                  <use xlink:href="#rim" fill="#404040">
                        <set attributeName="fill" to="#808080" begin="arrowDown.mouseover" end="arrowDown.mouseout"/>
                  </use>
                  <path fill="none" stroke="white" stroke-width="1.5" d="M0,-3.0v7 M-2.5,-0.5L0,-3.0L2.5,-0.5"/>
                </g>
                <g id="arrowLeft" xlink:href="#dirArrow" transform="rotate(270) translate(-36 17)" onmousedown="handlePan(-1,0)">
                  <use xlink:href="#rim" fill="#404040">
                        <set attributeName="fill" to="#808080" begin="arrowLeft.mouseover" end="arrowLeft.mouseout"/>
                  </use>
                  <path fill="none" stroke="white" stroke-width="1.5" d="M0,-3.0v7 M-2.5,-0.5L0,-3.0L2.5,-0.5"/>
                </g>
        </g>
        <svg viewBox="0 0 15 15" width="100%" height="30px" preserveAspectRatio="xMaxYMin meet">
         <g id="arrow_out" transform="scale(0.3 0.3)">
          <a xlink:href="_o_c_v_config_8h__dep__incl_org.svg" target="_base">
           <rect id="button" ry="5" rx="5" y="6" x="6" height="38" width="38"
                fill="#f2f5e9" fill-opacity="0.5" stroke="#606060" stroke-width="1.0"/>
           <path id="arrow"
             d="M 11.500037,31.436501 C 11.940474,20.09759 22.043105,11.32322 32.158766,21.979434 L 37.068811,17.246167 C 37.068811,17.246167 37.088388,32 37.088388,32 L 22.160133,31.978069 C 22.160133,31.978069 26.997745,27.140456 26.997745,27.140456 C 18.528582,18.264221 13.291696,25.230495 11.500037,31.436501 z"
             style="fill:#404040;"/>
          </a>
         </g>
        </svg>
</svg>
