<?xml version="1.0" encoding="UTF-8" standalone="no"?>
<!DOCTYPE svg PUBLIC "-//W3C//DTD SVG 1.1//EN"
 "http://www.w3.org/Graphics/SVG/1.1/DTD/svg11.dtd">
<!-- Generated by graphviz version 2.40.1 (20161225.0304)
 -->
<!-- Title: /Users/phil/r/artoolkitx/Source/ARX/OCVT/OCVFeatureDetector.h Pages: 1 -->
<svg width="434pt" height="102pt"
 viewBox="0.00 0.00 433.67 102.00" xmlns="http://www.w3.org/2000/svg" xmlns:xlink="http://www.w3.org/1999/xlink">
<g id="graph0" class="graph" transform="scale(1 1) rotate(0) translate(4 98)">
<title>/Users/phil/r/artoolkitx/Source/ARX/OCVT/OCVFeatureDetector.h</title>
<polygon fill="#ffffff" stroke="transparent" points="-4,4 -4,-98 429.6709,-98 429.6709,4 -4,4"/>
<!-- Node4 -->
<g id="node1" class="node">
<title>Node4</title>
<polygon fill="#bfbfbf" stroke="#000000" points="116.2808,-65.5 116.2808,-93.5 325.1372,-93.5 325.1372,-65.5 116.2808,-65.5"/>
<text text-anchor="start" x="124.2808" y="-81.5" font-family="Helvetica,sans-Serif" font-size="10.00" fill="#000000">/Users/phil/r/artoolkitx</text>
<text text-anchor="middle" x="220.709" y="-71.5" font-family="Helvetica,sans-Serif" font-size="10.00" fill="#000000">/Source/ARX/OCVT/OCVFeatureDetector.h</text>
</g>
<!-- Node5 -->
<g id="node2" class="node">
<title>Node5</title>
<g id="a_node2"><a xlink:href="_o_c_v_feature_detector_8cpp.html" target="_top" xlink:title="/Users/phil/r/artoolkitx\l/Source/ARX/OCVT/OCVFeatureDetector.cpp">
<polygon fill="#ffffff" stroke="#000000" points="0,-.5 0,-28.5 219.418,-28.5 219.418,-.5 0,-.5"/>
<text text-anchor="start" x="8" y="-16.5" font-family="Helvetica,sans-Serif" font-size="10.00" fill="#000000">/Users/phil/r/artoolkitx</text>
<text text-anchor="middle" x="109.709" y="-6.5" font-family="Helvetica,sans-Serif" font-size="10.00" fill="#000000">/Source/ARX/OCVT/OCVFeatureDetector.cpp</text>
</a>
</g>
</g>
<!-- Node4&#45;&gt;Node5 -->
<g id="edge1" class="edge">
<title>Node4&#45;&gt;Node5</title>
<path fill="none" stroke="#191970" d="M187.9138,-60.2956C170.5452,-50.1248 149.592,-37.8549 133.7473,-28.5765"/>
<polygon fill="#191970" stroke="#191970" points="186.2257,-63.363 196.6236,-65.396 189.7629,-57.3224 186.2257,-63.363"/>
</g>
<!-- Node6 -->
<g id="node3" class="node">
<title>Node6</title>
<g id="a_node3"><a xlink:href="_planar_tracker_8cpp.html" target="_top" xlink:title="/Users/phil/r/artoolkitx\l/Source/ARX/OCVT/PlanarTracker.cpp">
<polygon fill="#ffffff" stroke="#000000" points="237.7471,-.5 237.7471,-28.5 425.6709,-28.5 425.6709,-.5 237.7471,-.5"/>
<text text-anchor="start" x="245.7471" y="-16.5" font-family="Helvetica,sans-Serif" font-size="10.00" fill="#000000">/Users/phil/r/artoolkitx</text>
<text text-anchor="middle" x="331.709" y="-6.5" font-family="Helvetica,sans-Serif" font-size="10.00" fill="#000000">/Source/ARX/OCVT/PlanarTracker.cpp</text>
</a>
</g>
</g>
<!-- Node4&#45;&gt;Node6 -->
<g id="edge2" class="edge">
<title>Node4&#45;&gt;Node6</title>
<path fill="none" stroke="#191970" d="M253.5042,-60.2956C270.8728,-50.1248 291.826,-37.8549 307.6706,-28.5765"/>
<polygon fill="#191970" stroke="#191970" points="251.655,-57.3224 244.7943,-65.396 255.1923,-63.363 251.655,-57.3224"/>
</g>
</g>
</svg>
