<?xml version="1.0" encoding="UTF-8" standalone="no"?>
<!DOCTYPE svg PUBLIC "-//W3C//DTD SVG 1.1//EN"
 "http://www.w3.org/Graphics/SVG/1.1/DTD/svg11.dtd">
<!-- Generated by graphviz version 2.40.1 (20161225.0304)
 -->
<!-- Title: Source/ARX/OCVT/include/ARX/OCVT/PlanarTracker.h Pages: 1 -->
<svg width="914pt" height="202pt"
 viewBox="0.00 0.00 914.37 202.00" xmlns="http://www.w3.org/2000/svg" xmlns:xlink="http://www.w3.org/1999/xlink">
<g id="graph0" class="graph" transform="scale(1 1) rotate(0) translate(4 198)">
<title>Source/ARX/OCVT/include/ARX/OCVT/PlanarTracker.h</title>
<polygon fill="#ffffff" stroke="transparent" points="-4,4 -4,-198 910.3697,-198 910.3697,4 -4,4"/>
<!-- Node0 -->
<g id="node1" class="node">
<title>Node0</title>
<polygon fill="#bfbfbf" stroke="#000000" points="243.3926,-165.5 243.3926,-193.5 386.292,-193.5 386.292,-165.5 243.3926,-165.5"/>
<text text-anchor="start" x="251.3926" y="-181.5" font-family="Helvetica,sans-Serif" font-size="10.00" fill="#000000">Source/ARX/OCVT/include</text>
<text text-anchor="middle" x="314.8423" y="-171.5" font-family="Helvetica,sans-Serif" font-size="10.00" fill="#000000">/ARX/OCVT/PlanarTracker.h</text>
</g>
<!-- Node1 -->
<g id="node2" class="node">
<title>Node1</title>
<polygon fill="#ffffff" stroke="#bfbfbf" points="125.7856,-110.5 125.7856,-128.5 177.8989,-128.5 177.8989,-110.5 125.7856,-110.5"/>
<text text-anchor="middle" x="151.8423" y="-116.5" font-family="Helvetica,sans-Serif" font-size="10.00" fill="#000000">memory</text>
</g>
<!-- Node0&#45;&gt;Node1 -->
<g id="edge1" class="edge">
<title>Node0&#45;&gt;Node1</title>
<path fill="none" stroke="#191970" d="M276.626,-165.4327C249.2584,-155.3587 212.7174,-141.908 186.2562,-132.1677"/>
<polygon fill="#191970" stroke="#191970" points="187.2418,-128.801 176.6483,-128.6311 184.8237,-135.3701 187.2418,-128.801"/>
</g>
<!-- Node2 -->
<g id="node3" class="node">
<title>Node2</title>
<polygon fill="#ffffff" stroke="#bfbfbf" points="195.6157,-110.5 195.6157,-128.5 236.0688,-128.5 236.0688,-110.5 195.6157,-110.5"/>
<text text-anchor="middle" x="215.8423" y="-116.5" font-family="Helvetica,sans-Serif" font-size="10.00" fill="#000000">string</text>
</g>
<!-- Node0&#45;&gt;Node2 -->
<g id="edge2" class="edge">
<title>Node0&#45;&gt;Node2</title>
<path fill="none" stroke="#191970" d="M291.6312,-165.4327C275.961,-155.9356 255.3393,-143.4376 239.5632,-133.8763"/>
<polygon fill="#191970" stroke="#191970" points="241.2746,-130.8209 230.9085,-128.6311 237.6465,-136.8073 241.2746,-130.8209"/>
</g>
<!-- Node3 -->
<g id="node4" class="node">
<title>Node3</title>
<polygon fill="#ffffff" stroke="#bfbfbf" points="254.0615,-110.5 254.0615,-128.5 305.623,-128.5 305.623,-110.5 254.0615,-110.5"/>
<text text-anchor="middle" x="279.8423" y="-116.5" font-family="Helvetica,sans-Serif" font-size="10.00" fill="#000000">sstream</text>
</g>
<!-- Node0&#45;&gt;Node3 -->
<g id="edge3" class="edge">
<title>Node0&#45;&gt;Node3</title>
<path fill="none" stroke="#191970" d="M306.5478,-165.2808C301.6785,-156.9336 295.4801,-146.3076 290.2808,-137.3946"/>
<polygon fill="#191970" stroke="#191970" points="293.2034,-135.4584 285.1414,-128.5842 287.1569,-138.9856 293.2034,-135.4584"/>
</g>
<!-- Node4 -->
<g id="node5" class="node">
<title>Node4</title>
<polygon fill="#ffffff" stroke="#bfbfbf" points="323.6699,-110.5 323.6699,-128.5 378.0146,-128.5 378.0146,-110.5 323.6699,-110.5"/>
<text text-anchor="middle" x="350.8423" y="-116.5" font-family="Helvetica,sans-Serif" font-size="10.00" fill="#000000">iostream</text>
</g>
<!-- Node0&#45;&gt;Node4 -->
<g id="edge4" class="edge">
<title>Node0&#45;&gt;Node4</title>
<path fill="none" stroke="#191970" d="M323.3738,-165.2808C328.3821,-156.9336 334.7577,-146.3076 340.1055,-137.3946"/>
<polygon fill="#191970" stroke="#191970" points="343.248,-138.9599 345.3918,-128.5842 337.2455,-135.3584 343.248,-138.9599"/>
</g>
<!-- Node5 -->
<g id="node6" class="node">
<title>Node5</title>
<polygon fill="#ffffff" stroke="#bfbfbf" points="396.2266,-110.5 396.2266,-128.5 439.458,-128.5 439.458,-110.5 396.2266,-110.5"/>
<text text-anchor="middle" x="417.8423" y="-116.5" font-family="Helvetica,sans-Serif" font-size="10.00" fill="#000000">vector</text>
</g>
<!-- Node0&#45;&gt;Node5 -->
<g id="edge5" class="edge">
<title>Node0&#45;&gt;Node5</title>
<path fill="none" stroke="#191970" d="M338.9912,-165.4327C355.2945,-155.9356 376.7495,-143.4376 393.1629,-133.8763"/>
<polygon fill="#191970" stroke="#191970" points="395.2882,-136.6889 402.1673,-128.6311 391.7647,-130.6403 395.2882,-136.6889"/>
</g>
<!-- Node6 -->
<g id="node7" class="node">
<title>Node6</title>
<g id="a_node7"><a xlink:href="ar_8h.html" target="_top" xlink:title="artoolkitX core routines. ">
<polygon fill="#ffffff" stroke="#000000" points="457.4951,-110.5 457.4951,-128.5 530.1895,-128.5 530.1895,-110.5 457.4951,-110.5"/>
<text text-anchor="middle" x="493.8423" y="-116.5" font-family="Helvetica,sans-Serif" font-size="10.00" fill="#000000">ARX/AR/ar.h</text>
</a>
</g>
</g>
<!-- Node0&#45;&gt;Node6 -->
<g id="edge6" class="edge">
<title>Node0&#45;&gt;Node6</title>
<path fill="none" stroke="#191970" d="M356.8098,-165.4327C387.2211,-155.2389 427.947,-141.5878 457.0818,-131.822"/>
<polygon fill="#191970" stroke="#191970" points="458.4987,-135.0385 466.8678,-128.5417 456.2739,-128.4014 458.4987,-135.0385"/>
</g>
<!-- Node7 -->
<g id="node8" class="node">
<title>Node7</title>
<polygon fill="#ffffff" stroke="#bfbfbf" points="406.1108,-.5 406.1108,-18.5 451.5737,-18.5 451.5737,-.5 406.1108,-.5"/>
<text text-anchor="middle" x="428.8423" y="-6.5" font-family="Helvetica,sans-Serif" font-size="10.00" fill="#000000">stdio.h</text>
</g>
<!-- Node6&#45;&gt;Node7 -->
<g id="edge7" class="edge">
<title>Node6&#45;&gt;Node7</title>
<path fill="none" stroke="#191970" d="M457.2891,-110.7909C409.1065,-99.1394 329.9166,-79.3245 325.8423,-74 320.7106,-67.2937 321.2328,-62.0754 325.8423,-55 334.0156,-42.4542 369.2884,-28.6308 396.302,-19.551"/>
<polygon fill="#191970" stroke="#191970" points="397.4035,-22.8733 405.8152,-16.4317 395.2224,-16.2217 397.4035,-22.8733"/>
</g>
<!-- Node8 -->
<g id="node9" class="node">
<title>Node8</title>
<polygon fill="#ffffff" stroke="#bfbfbf" points="0,-.5 0,-18.5 47.6846,-18.5 47.6846,-.5 0,-.5"/>
<text text-anchor="middle" x="23.8423" y="-6.5" font-family="Helvetica,sans-Serif" font-size="10.00" fill="#000000">stdlib.h</text>
</g>
<!-- Node6&#45;&gt;Node8 -->
<g id="edge8" class="edge">
<title>Node6&#45;&gt;Node8</title>
<path fill="none" stroke="#191970" d="M457.0643,-111.4019C454.2883,-110.8931 451.5247,-110.4183 448.8423,-110 292.5861,-85.6323 239.2809,-138.3993 94.8423,-74 71.1931,-63.4558 50.0801,-41.9266 37.1464,-26.6458"/>
<polygon fill="#191970" stroke="#191970" points="39.5454,-24.0486 30.5191,-18.501 34.1158,-28.4667 39.5454,-24.0486"/>
</g>
<!-- Node9 -->
<g id="node10" class="node">
<title>Node9</title>
<polygon fill="#ffffff" stroke="#bfbfbf" points="120.7217,-55.5 120.7217,-73.5 168.9629,-73.5 168.9629,-55.5 120.7217,-55.5"/>
<text text-anchor="middle" x="144.8423" y="-61.5" font-family="Helvetica,sans-Serif" font-size="10.00" fill="#000000">stdint.h</text>
</g>
<!-- Node6&#45;&gt;Node9 -->
<g id="edge9" class="edge">
<title>Node6&#45;&gt;Node9</title>
<path fill="none" stroke="#191970" d="M457.0491,-111.4948C454.2766,-110.9645 451.5179,-110.4595 448.8423,-110 332.25,-89.9787 298.5365,-98.3979 179.1414,-74.0172"/>
<polygon fill="#191970" stroke="#191970" points="179.7522,-70.5694 169.2494,-71.963 178.3289,-77.4232 179.7522,-70.5694"/>
</g>
<!-- Node10 -->
<g id="node11" class="node">
<title>Node10</title>
<polygon fill="#ffffff" stroke="#bfbfbf" points="65.4458,-.5 65.4458,-18.5 114.2388,-18.5 114.2388,-.5 65.4458,-.5"/>
<text text-anchor="middle" x="89.8423" y="-6.5" font-family="Helvetica,sans-Serif" font-size="10.00" fill="#000000">string.h</text>
</g>
<!-- Node6&#45;&gt;Node10 -->
<g id="edge10" class="edge">
<title>Node6&#45;&gt;Node10</title>
<path fill="none" stroke="#191970" d="M457.0619,-111.4173C454.2864,-110.9049 451.5236,-110.4251 448.8423,-110 374.4564,-98.2063 170.6763,-121.0202 111.8423,-74 98.2907,-63.1695 93.0455,-43.5864 91.0373,-28.8298"/>
<polygon fill="#191970" stroke="#191970" points="94.5045,-28.3232 90.0485,-18.711 87.5377,-29.004 94.5045,-28.3232"/>
</g>
<!-- Node11 -->
<g id="node12" class="node">
<title>Node11</title>
<polygon fill="#ffffff" stroke="#bfbfbf" points="774.3252,-.5 774.3252,-18.5 865.3594,-18.5 865.3594,-.5 774.3252,-.5"/>
<text text-anchor="middle" x="819.8423" y="-6.5" font-family="Helvetica,sans-Serif" font-size="10.00" fill="#000000">ARX/AR/config.h</text>
</g>
<!-- Node6&#45;&gt;Node11 -->
<g id="edge11" class="edge">
<title>Node6&#45;&gt;Node11</title>
<path fill="none" stroke="#191970" d="M530.5166,-118.1373C625.9516,-114.2165 876.3423,-101.3915 900.8423,-74 919.254,-53.4152 886.3945,-34.3075 857.1713,-22.3177"/>
<polygon fill="#191970" stroke="#191970" points="858.0677,-18.9104 847.4796,-18.5327 855.5211,-25.4308 858.0677,-18.9104"/>
</g>
<!-- Node12 -->
<g id="node13" class="node">
<title>Node12</title>
<g id="a_node13"><a xlink:href="ar_config_8h.html" target="_top" xlink:title="ARX/AR/arConfig.h">
<polygon fill="#ffffff" stroke="#000000" points="334.7686,-55.5 334.7686,-73.5 436.916,-73.5 436.916,-55.5 334.7686,-55.5"/>
<text text-anchor="middle" x="385.8423" y="-61.5" font-family="Helvetica,sans-Serif" font-size="10.00" fill="#000000">ARX/AR/arConfig.h</text>
</a>
</g>
</g>
<!-- Node6&#45;&gt;Node12 -->
<g id="edge12" class="edge">
<title>Node6&#45;&gt;Node12</title>
<path fill="none" stroke="#191970" d="M476.0083,-110.4179C458.8116,-101.6603 432.5586,-88.2907 412.808,-78.2326"/>
<polygon fill="#191970" stroke="#191970" points="414.2021,-75.0148 403.7028,-73.5956 411.0255,-81.2526 414.2021,-75.0148"/>
</g>
<!-- Node13 -->
<g id="node14" class="node">
<title>Node13</title>
<g id="a_node14"><a xlink:href="log_8h.html" target="_top" xlink:title="Logging utilities. ">
<polygon fill="#ffffff" stroke="#000000" points="186.7734,-55.5 186.7734,-73.5 278.9111,-73.5 278.9111,-55.5 186.7734,-55.5"/>
<text text-anchor="middle" x="232.8423" y="-61.5" font-family="Helvetica,sans-Serif" font-size="10.00" fill="#000000">ARX/ARUtil/log.h</text>
</a>
</g>
</g>
<!-- Node6&#45;&gt;Node13 -->
<g id="edge13" class="edge">
<title>Node6&#45;&gt;Node13</title>
<path fill="none" stroke="#191970" d="M457.4933,-111.8249C454.5664,-111.2073 451.6549,-110.5931 448.8423,-110 393.1808,-98.2621 329.4474,-84.8389 285.7165,-75.631"/>
<polygon fill="#191970" stroke="#191970" points="286.3813,-72.1943 275.8747,-73.5588 284.939,-79.0442 286.3813,-72.1943"/>
</g>
<!-- Node17 -->
<g id="node18" class="node">
<title>Node17</title>
<g id="a_node18"><a xlink:href="matrix_8h.html" target="_top" xlink:title="ARX/AR/matrix.h">
<polygon fill="#ffffff" stroke="#000000" points="550.0566,-55.5 550.0566,-73.5 641.6279,-73.5 641.6279,-55.5 550.0566,-55.5"/>
<text text-anchor="middle" x="595.8423" y="-61.5" font-family="Helvetica,sans-Serif" font-size="10.00" fill="#000000">ARX/AR/matrix.h</text>
</a>
</g>
</g>
<!-- Node6&#45;&gt;Node17 -->
<g id="edge20" class="edge">
<title>Node6&#45;&gt;Node17</title>
<path fill="none" stroke="#191970" d="M510.6855,-110.4179C526.853,-101.7001 551.4961,-88.4122 570.1199,-78.3699"/>
<polygon fill="#191970" stroke="#191970" points="571.8333,-81.4225 578.974,-73.5956 568.5109,-75.2611 571.8333,-81.4225"/>
</g>
<!-- Node19 -->
<g id="node20" class="node">
<title>Node19</title>
<g id="a_node20"><a xlink:href="icp_8h.html" target="_top" xlink:title="ARX/AR/icp.h">
<polygon fill="#ffffff" stroke="#000000" points="455.2759,-55.5 455.2759,-73.5 532.4087,-73.5 532.4087,-55.5 455.2759,-55.5"/>
<text text-anchor="middle" x="493.8423" y="-61.5" font-family="Helvetica,sans-Serif" font-size="10.00" fill="#000000">ARX/AR/icp.h</text>
</a>
</g>
</g>
<!-- Node6&#45;&gt;Node19 -->
<g id="edge22" class="edge">
<title>Node6&#45;&gt;Node19</title>
<path fill="none" stroke="#191970" d="M493.8423,-110.4179C493.8423,-103.2164 493.8423,-92.8962 493.8423,-83.8632"/>
<polygon fill="#191970" stroke="#191970" points="497.3424,-83.7794 493.8423,-73.7795 490.3424,-83.7795 497.3424,-83.7794"/>
</g>
<!-- Node21 -->
<g id="node22" class="node">
<title>Node21</title>
<g id="a_node22"><a xlink:href="param_8h.html" target="_top" xlink:title="artoolkitX functions for handling calibrated camera parameters. ">
<polygon fill="#ffffff" stroke="#000000" points="799.4951,-55.5 799.4951,-73.5 892.1895,-73.5 892.1895,-55.5 799.4951,-55.5"/>
<text text-anchor="middle" x="845.8423" y="-61.5" font-family="Helvetica,sans-Serif" font-size="10.00" fill="#000000">ARX/AR/param.h</text>
</a>
</g>
</g>
<!-- Node6&#45;&gt;Node21 -->
<g id="edge25" class="edge">
<title>Node6&#45;&gt;Node21</title>
<path fill="none" stroke="#191970" d="M530.5718,-113.1998C585.4343,-104.6434 691.486,-88.7234 781.8423,-74 784.311,-73.5977 786.841,-73.18 789.4041,-72.754"/>
<polygon fill="#191970" stroke="#191970" points="790.1077,-76.1851 799.3944,-71.0853 788.9544,-69.2807 790.1077,-76.1851"/>
</g>
<!-- Node22 -->
<g id="node23" class="node">
<title>Node22</title>
<g id="a_node23"><a xlink:href="ar_image_proc_8h.html" target="_top" xlink:title="artoolkitX functions for 2D luminance image processing. ">
<polygon fill="#ffffff" stroke="#000000" points="660.0444,-55.5 660.0444,-73.5 781.6401,-73.5 781.6401,-55.5 660.0444,-55.5"/>
<text text-anchor="middle" x="720.8423" y="-61.5" font-family="Helvetica,sans-Serif" font-size="10.00" fill="#000000">ARX/AR/arImageProc.h</text>
</a>
</g>
</g>
<!-- Node6&#45;&gt;Node22 -->
<g id="edge27" class="edge">
<title>Node6&#45;&gt;Node22</title>
<path fill="none" stroke="#191970" d="M526.1604,-110.4179C563.3332,-100.9354 624.6496,-86.0457 668.5956,-75.8073"/>
<polygon fill="#191970" stroke="#191970" points="669.5783,-79.1724 678.5293,-73.5042 667.9972,-72.3533 669.5783,-79.1724"/>
</g>
<!-- Node13&#45;&gt;Node7 -->
<g id="edge14" class="edge">
<title>Node13&#45;&gt;Node7</title>
<path fill="none" stroke="#191970" d="M266.1864,-55.4376C297.3496,-46.9262 345.4197,-33.6914 395.9815,-19.2129"/>
<polygon fill="#191970" stroke="#191970" points="397.1385,-22.5222 405.7847,-16.399 395.2072,-15.7939 397.1385,-22.5222"/>
</g>
<!-- Node13&#45;&gt;Node8 -->
<g id="edge15" class="edge">
<title>Node13&#45;&gt;Node8</title>
<path fill="none" stroke="#191970" d="M196.6989,-55.4632C163.0843,-46.9904 111.3723,-33.7836 57.6638,-19.1745"/>
<polygon fill="#191970" stroke="#191970" points="58.5402,-15.7857 47.9715,-16.5286 56.6967,-22.5386 58.5402,-15.7857"/>
</g>
<!-- Node13&#45;&gt;Node10 -->
<g id="edge16" class="edge">
<title>Node13&#45;&gt;Node10</title>
<path fill="none" stroke="#191970" d="M209.2287,-55.4179C185.7346,-46.3817 149.474,-32.4353 123.0775,-22.2828"/>
<polygon fill="#191970" stroke="#191970" points="124.0808,-18.9188 113.4909,-18.5956 121.5679,-25.4522 124.0808,-18.9188"/>
</g>
<!-- Node14 -->
<g id="node15" class="node">
<title>Node14</title>
<polygon fill="#ffffff" stroke="#bfbfbf" points="131.7759,-.5 131.7759,-18.5 183.9087,-18.5 183.9087,-.5 131.7759,-.5"/>
<text text-anchor="middle" x="157.8423" y="-6.5" font-family="Helvetica,sans-Serif" font-size="10.00" fill="#000000">stdarg.h</text>
</g>
<!-- Node13&#45;&gt;Node14 -->
<g id="edge17" class="edge">
<title>Node13&#45;&gt;Node14</title>
<path fill="none" stroke="#191970" d="M220.4576,-55.4179C209.0583,-47.0584 191.9286,-34.4966 178.4658,-24.6239"/>
<polygon fill="#191970" stroke="#191970" points="180.3793,-21.6869 170.2454,-18.5956 176.2397,-27.3317 180.3793,-21.6869"/>
</g>
<!-- Node15 -->
<g id="node16" class="node">
<title>Node15</title>
<polygon fill="#ffffff" stroke="#bfbfbf" points="202.1108,-.5 202.1108,-18.5 267.5737,-18.5 267.5737,-.5 202.1108,-.5"/>
<text text-anchor="middle" x="234.8423" y="-6.5" font-family="Helvetica,sans-Serif" font-size="10.00" fill="#000000">sys/errno.h</text>
</g>
<!-- Node13&#45;&gt;Node15 -->
<g id="edge18" class="edge">
<title>Node13&#45;&gt;Node15</title>
<path fill="none" stroke="#191970" d="M233.1725,-55.4179C233.4344,-48.2164 233.8097,-37.8962 234.1382,-28.8632"/>
<polygon fill="#191970" stroke="#191970" points="237.639,-28.9001 234.5049,-18.7795 230.6437,-28.6456 237.639,-28.9001"/>
</g>
<!-- Node16 -->
<g id="node17" class="node">
<title>Node16</title>
<g id="a_node17"><a xlink:href="types_8h.html" target="_top" xlink:title="ARX/ARUtil/types.h">
<polygon fill="#ffffff" stroke="#000000" points="285.4951,-.5 285.4951,-18.5 388.1895,-18.5 388.1895,-.5 285.4951,-.5"/>
<text text-anchor="middle" x="336.8423" y="-6.5" font-family="Helvetica,sans-Serif" font-size="10.00" fill="#000000">ARX/ARUtil/types.h</text>
</a>
</g>
</g>
<!-- Node13&#45;&gt;Node16 -->
<g id="edge19" class="edge">
<title>Node13&#45;&gt;Node16</title>
<path fill="none" stroke="#191970" d="M250.0158,-55.4179C266.5002,-46.7001 291.6265,-33.4122 310.6155,-23.3699"/>
<polygon fill="#191970" stroke="#191970" points="312.4396,-26.3646 319.6433,-18.5956 309.1671,-20.1767 312.4396,-26.3646"/>
</g>
<!-- Node18 -->
<g id="node19" class="node">
<title>Node18</title>
<polygon fill="#ffffff" stroke="#bfbfbf" points="586.5566,-.5 586.5566,-18.5 633.1279,-18.5 633.1279,-.5 586.5566,-.5"/>
<text text-anchor="middle" x="609.8423" y="-6.5" font-family="Helvetica,sans-Serif" font-size="10.00" fill="#000000">math.h</text>
</g>
<!-- Node17&#45;&gt;Node18 -->
<g id="edge21" class="edge">
<title>Node17&#45;&gt;Node18</title>
<path fill="none" stroke="#191970" d="M598.1541,-55.4179C600.0074,-48.1372 602.672,-37.669 604.9892,-28.5659"/>
<polygon fill="#191970" stroke="#191970" points="608.4052,-29.3338 607.4802,-18.7795 601.6215,-27.607 608.4052,-29.3338"/>
</g>
<!-- Node19&#45;&gt;Node7 -->
<g id="edge23" class="edge">
<title>Node19&#45;&gt;Node7</title>
<path fill="none" stroke="#191970" d="M483.1089,-55.4179C473.4757,-47.2667 459.1206,-35.1201 447.5941,-25.3669"/>
<polygon fill="#191970" stroke="#191970" points="449.7036,-22.5671 439.8089,-18.7795 445.182,-27.9108 449.7036,-22.5671"/>
</g>
<!-- Node20 -->
<g id="node21" class="node">
<title>Node20</title>
<g id="a_node21"><a xlink:href="icp_core_8h.html" target="_top" xlink:title="ARX/AR/icpCore.h">
<polygon fill="#ffffff" stroke="#000000" points="469.4385,-.5 469.4385,-18.5 568.2461,-18.5 568.2461,-.5 469.4385,-.5"/>
<text text-anchor="middle" x="518.8423" y="-6.5" font-family="Helvetica,sans-Serif" font-size="10.00" fill="#000000">ARX/AR/icpCore.h</text>
</a>
</g>
</g>
<!-- Node19&#45;&gt;Node20 -->
<g id="edge24" class="edge">
<title>Node19&#45;&gt;Node20</title>
<path fill="none" stroke="#191970" d="M497.9705,-55.4179C501.3519,-47.9789 506.2458,-37.2123 510.4449,-27.9742"/>
<polygon fill="#191970" stroke="#191970" points="513.6725,-29.3315 514.6244,-18.7795 507.3,-26.4348 513.6725,-29.3315"/>
</g>
<!-- Node21&#45;&gt;Node6 -->
<g id="edge26" class="edge">
<title>Node21&#45;&gt;Node6</title>
<path fill="none" stroke="#191970" d="M802.7363,-73.5259C801.7643,-73.686 800.7987,-73.8442 799.8423,-74 708.3437,-88.9095 600.7502,-105.0462 540.4935,-113.5208"/>
<polygon fill="#191970" stroke="#191970" points="539.9432,-110.0636 530.5233,-114.913 540.9113,-116.9964 539.9432,-110.0636"/>
</g>
<!-- Node22&#45;&gt;Node6 -->
<g id="edge29" class="edge">
<title>Node22&#45;&gt;Node6</title>
<path fill="none" stroke="#191970" d="M688.6751,-73.5436C649.8246,-83.4562 584.4474,-99.3108 540.1867,-109.5639"/>
<polygon fill="#191970" stroke="#191970" points="539.2099,-106.1972 530.2506,-111.8525 540.7811,-113.0186 539.2099,-106.1972"/>
</g>
<!-- Node22&#45;&gt;Node11 -->
<g id="edge28" class="edge">
<title>Node22&#45;&gt;Node11</title>
<path fill="none" stroke="#191970" d="M737.1901,-55.4179C752.8104,-46.7399 776.5821,-33.5334 794.6285,-23.5077"/>
<polygon fill="#191970" stroke="#191970" points="796.4283,-26.5117 803.4702,-18.5956 793.0288,-20.3925 796.4283,-26.5117"/>
</g>
</g>
</svg>
