<?xml version="1.0" encoding="UTF-8" standalone="no"?>
<!DOCTYPE svg PUBLIC "-//W3C//DTD SVG 1.1//EN"
 "http://www.w3.org/Graphics/SVG/1.1/DTD/svg11.dtd">
<!-- Generated by graphviz version 8.0.5 (20230430.1635)
 -->
<!-- Title: Source/ARX/OCVT/TrackingPointSelector.h Pages: 1 -->
<svg width="453pt" height="149pt"
 viewBox="0.00 0.00 453.12 149.00" xmlns="http://www.w3.org/2000/svg" xmlns:xlink="http://www.w3.org/1999/xlink">
<g id="graph0" class="graph" transform="scale(1 1) rotate(0) translate(4 145)">
<title>Source/ARX/OCVT/TrackingPointSelector.h</title>
<!-- Node1 -->
<g id="node1" class="node">
<title>Node1</title>
<g id="a_node1"><a xlink:title=" ">
<polygon fill="#999999" stroke="#666666" points="187.5,-141 45.5,-141 45.5,-110.5 187.5,-110.5 187.5,-141"/>
<text text-anchor="start" x="53.5" y="-127.5" font-family="Helvetica,sans-Serif" font-size="10.00">Source/ARX/OCVT/Tracking</text>
<text text-anchor="middle" x="116.5" y="-116.25" font-family="Helvetica,sans-Serif" font-size="10.00">PointSelector.h</text>
</a>
</g>
</g>
<!-- Node2 -->
<g id="node2" class="node">
<title>Node2</title>
<g id="a_node2"><a xlink:title=" ">
<polygon fill="#e0e0e0" stroke="#999999" points="43,-74.5 0,-74.5 0,-55.25 43,-55.25 43,-74.5"/>
<text text-anchor="middle" x="21.5" y="-61" font-family="Helvetica,sans-Serif" font-size="10.00">vector</text>
</a>
</g>
</g>
<!-- Node1&#45;&gt;Node2 -->
<g id="edge1" class="edge">
<title>Node1&#45;&gt;Node2</title>
<path fill="none" stroke="#63b8ff" d="M93.02,-110.2C78.41,-101.15 59.7,-89.55 45.08,-80.49"/>
<polygon fill="#63b8ff" stroke="#63b8ff" points="47.49,-77.24 37.15,-74.95 43.8,-83.19 47.49,-77.24"/>
</g>
<!-- Node3 -->
<g id="node3" class="node">
<title>Node3</title>
<g id="a_node3"><a xlink:title=" ">
<polygon fill="#e0e0e0" stroke="#999999" points="95.88,-74.5 61.12,-74.5 61.12,-55.25 95.88,-55.25 95.88,-74.5"/>
<text text-anchor="middle" x="78.5" y="-61" font-family="Helvetica,sans-Serif" font-size="10.00">map</text>
</a>
</g>
</g>
<!-- Node1&#45;&gt;Node3 -->
<g id="edge2" class="edge">
<title>Node1&#45;&gt;Node3</title>
<path fill="none" stroke="#63b8ff" d="M107.11,-110.2C101.99,-102.27 95.61,-92.38 90.17,-83.96"/>
<polygon fill="#63b8ff" stroke="#63b8ff" points="92.72,-82.46 84.36,-75.95 86.84,-86.25 92.72,-82.46"/>
</g>
<!-- Node4 -->
<g id="node4" class="node">
<title>Node4</title>
<g id="a_node4"><a xlink:href="_o_c_v_config_8h.html" target="_top" xlink:title=" ">
<polygon fill="white" stroke="#666666" points="298.75,-74.5 224.25,-74.5 224.25,-55.25 298.75,-55.25 298.75,-74.5"/>
<text text-anchor="middle" x="261.5" y="-61" font-family="Helvetica,sans-Serif" font-size="10.00">OCVConfig.h</text>
</a>
</g>
</g>
<!-- Node1&#45;&gt;Node4 -->
<g id="edge3" class="edge">
<title>Node1&#45;&gt;Node4</title>
<path fill="none" stroke="#63b8ff" d="M152.72,-110.05C176.18,-100.52 206.47,-88.22 229.13,-79.02"/>
<polygon fill="#63b8ff" stroke="#63b8ff" points="230.31,-81.91 238.26,-74.9 227.68,-75.42 230.31,-81.91"/>
</g>
<!-- Node8 -->
<g id="node8" class="node">
<title>Node8</title>
<g id="a_node8"><a xlink:href="_tracked_point_8h.html" target="_top" xlink:title=" ">
<polygon fill="white" stroke="#666666" points="195.5,-74.5 113.5,-74.5 113.5,-55.25 195.5,-55.25 195.5,-74.5"/>
<text text-anchor="middle" x="154.5" y="-61" font-family="Helvetica,sans-Serif" font-size="10.00">TrackedPoint.h</text>
</a>
</g>
</g>
<!-- Node1&#45;&gt;Node8 -->
<g id="edge7" class="edge">
<title>Node1&#45;&gt;Node8</title>
<path fill="none" stroke="#63b8ff" d="M125.89,-110.2C131.01,-102.27 137.39,-92.38 142.83,-83.96"/>
<polygon fill="#63b8ff" stroke="#63b8ff" points="146.16,-86.25 148.64,-75.95 140.28,-82.46 146.16,-86.25"/>
</g>
<!-- Node5 -->
<g id="node5" class="node">
<title>Node5</title>
<g id="a_node5"><a xlink:title=" ">
<polygon fill="#e0e0e0" stroke="#999999" points="195.12,-19.25 101.88,-19.25 101.88,0 195.12,0 195.12,-19.25"/>
<text text-anchor="middle" x="148.5" y="-5.75" font-family="Helvetica,sans-Serif" font-size="10.00">opencv2/core.hpp</text>
</a>
</g>
</g>
<!-- Node4&#45;&gt;Node5 -->
<g id="edge4" class="edge">
<title>Node4&#45;&gt;Node5</title>
<path fill="none" stroke="#63b8ff" d="M242.33,-54.84C224.56,-46.47 197.86,-33.88 177.48,-24.28"/>
<polygon fill="#63b8ff" stroke="#63b8ff" points="179.3,-20.8 168.76,-19.7 176.32,-27.13 179.3,-20.8"/>
</g>
<!-- Node6 -->
<g id="node6" class="node">
<title>Node6</title>
<g id="a_node6"><a xlink:title=" ">
<polygon fill="#e0e0e0" stroke="#999999" points="322,-19.25 213,-19.25 213,0 322,0 322,-19.25"/>
<text text-anchor="middle" x="267.5" y="-5.75" font-family="Helvetica,sans-Serif" font-size="10.00">opencv2/imgproc.hpp</text>
</a>
</g>
</g>
<!-- Node4&#45;&gt;Node6 -->
<g id="edge5" class="edge">
<title>Node4&#45;&gt;Node6</title>
<path fill="none" stroke="#63b8ff" d="M262.49,-55.08C263.24,-48.42 264.3,-38.99 265.26,-30.53"/>
<polygon fill="#63b8ff" stroke="#63b8ff" points="268.85,-30.94 266.49,-20.61 261.89,-30.15 268.85,-30.94"/>
</g>
<!-- Node7 -->
<g id="node7" class="node">
<title>Node7</title>
<g id="a_node7"><a xlink:title=" ">
<polygon fill="#e0e0e0" stroke="#999999" points="445.12,-19.25 339.88,-19.25 339.88,0 445.12,0 445.12,-19.25"/>
<text text-anchor="middle" x="392.5" y="-5.75" font-family="Helvetica,sans-Serif" font-size="10.00">opencv2/calib3d.hpp</text>
</a>
</g>
</g>
<!-- Node4&#45;&gt;Node7 -->
<g id="edge6" class="edge">
<title>Node4&#45;&gt;Node7</title>
<path fill="none" stroke="#63b8ff" d="M283.72,-54.84C304.71,-46.31 336.42,-33.42 360.19,-23.76"/>
<polygon fill="#63b8ff" stroke="#63b8ff" points="361.22,-26.71 369.17,-19.7 358.59,-20.23 361.22,-26.71"/>
</g>
<!-- Node8&#45;&gt;Node5 -->
<g id="edge8" class="edge">
<title>Node8&#45;&gt;Node5</title>
<path fill="none" stroke="#63b8ff" d="M153.51,-55.08C152.76,-48.42 151.7,-38.99 150.74,-30.53"/>
<polygon fill="#63b8ff" stroke="#63b8ff" points="154.11,-30.15 149.51,-20.61 147.15,-30.94 154.11,-30.15"/>
</g>
</g>
</svg>
