<?xml version="1.0" encoding="UTF-8" standalone="no"?>
<!DOCTYPE svg PUBLIC "-//W3C//DTD SVG 1.1//EN"
 "http://www.w3.org/Graphics/SVG/1.1/DTD/svg11.dtd">
<!-- Generated by graphviz version 7.0.5 (20221223.1930)
 -->
<!-- Title: Source/ARX/OCVT/TrackingPointSelector.h Pages: 1 -->
<svg width="458pt" height="148pt"
 viewBox="0.00 0.00 458.00 148.00" xmlns="http://www.w3.org/2000/svg" xmlns:xlink="http://www.w3.org/1999/xlink">
<g id="graph0" class="graph" transform="scale(1 1) rotate(0) translate(4 144)">
<title>Source/ARX/OCVT/TrackingPointSelector.h</title>
<!-- Node1 -->
<g id="node1" class="node">
<title>Node1</title>
<g id="a_node1"><a xlink:title=" ">
<polygon fill="#999999" stroke="#666666" points="189.5,-140 46.5,-140 46.5,-110 189.5,-110 189.5,-140"/>
<text text-anchor="start" x="54.5" y="-128" font-family="Helvetica,sans-Serif" font-size="10.00">Source/ARX/OCVT/Tracking</text>
<text text-anchor="middle" x="118" y="-117" font-family="Helvetica,sans-Serif" font-size="10.00">PointSelector.h</text>
</a>
</g>
</g>
<!-- Node2 -->
<g id="node2" class="node">
<title>Node2</title>
<g id="a_node2"><a xlink:title=" ">
<polygon fill="#e0e0e0" stroke="#999999" points="44,-74 0,-74 0,-55 44,-55 44,-74"/>
<text text-anchor="middle" x="22" y="-62" font-family="Helvetica,sans-Serif" font-size="10.00">vector</text>
</a>
</g>
</g>
<!-- Node1&#45;&gt;Node2 -->
<g id="edge1" class="edge">
<title>Node1&#45;&gt;Node2</title>
<path fill="none" stroke="#63b8ff" d="M94.27,-109.54C79.56,-100.58 60.73,-89.1 45.98,-80.11"/>
<polygon fill="#63b8ff" stroke="#63b8ff" points="48.17,-77.35 37.81,-75.13 44.53,-83.33 48.17,-77.35"/>
</g>
<!-- Node3 -->
<g id="node3" class="node">
<title>Node3</title>
<g id="a_node3"><a xlink:title=" ">
<polygon fill="#e0e0e0" stroke="#999999" points="97.5,-74 62.5,-74 62.5,-55 97.5,-55 97.5,-74"/>
<text text-anchor="middle" x="80" y="-62" font-family="Helvetica,sans-Serif" font-size="10.00">map</text>
</a>
</g>
</g>
<!-- Node1&#45;&gt;Node3 -->
<g id="edge2" class="edge">
<title>Node1&#45;&gt;Node3</title>
<path fill="none" stroke="#63b8ff" d="M108.61,-109.54C103.54,-101.74 97.23,-92.03 91.83,-83.71"/>
<polygon fill="#63b8ff" stroke="#63b8ff" points="94.84,-81.92 86.46,-75.44 88.97,-85.74 94.84,-81.92"/>
</g>
<!-- Node4 -->
<g id="node4" class="node">
<title>Node4</title>
<g id="a_node4"><a xlink:href="_o_c_v_config_8h.html" target="_top" xlink:title=" ">
<polygon fill="white" stroke="#666666" points="302.5,-74 227.5,-74 227.5,-55 302.5,-55 302.5,-74"/>
<text text-anchor="middle" x="265" y="-62" font-family="Helvetica,sans-Serif" font-size="10.00">OCVConfig.h</text>
</a>
</g>
</g>
<!-- Node1&#45;&gt;Node4 -->
<g id="edge3" class="edge">
<title>Node1&#45;&gt;Node4</title>
<path fill="none" stroke="#63b8ff" d="M154.34,-109.54C178.16,-100.06 209.04,-87.77 232.13,-78.58"/>
<polygon fill="#63b8ff" stroke="#63b8ff" points="233.37,-81.86 241.36,-74.91 230.78,-75.35 233.37,-81.86"/>
</g>
<!-- Node8 -->
<g id="node8" class="node">
<title>Node8</title>
<g id="a_node8"><a xlink:href="_tracked_point_8h.html" target="_top" xlink:title=" ">
<polygon fill="white" stroke="#666666" points="198.5,-74 115.5,-74 115.5,-55 198.5,-55 198.5,-74"/>
<text text-anchor="middle" x="157" y="-62" font-family="Helvetica,sans-Serif" font-size="10.00">TrackedPoint.h</text>
</a>
</g>
</g>
<!-- Node1&#45;&gt;Node8 -->
<g id="edge7" class="edge">
<title>Node1&#45;&gt;Node8</title>
<path fill="none" stroke="#63b8ff" d="M127.64,-109.54C132.84,-101.74 139.32,-92.03 144.86,-83.71"/>
<polygon fill="#63b8ff" stroke="#63b8ff" points="147.74,-85.7 150.38,-75.43 141.92,-81.81 147.74,-85.7"/>
</g>
<!-- Node5 -->
<g id="node5" class="node">
<title>Node5</title>
<g id="a_node5"><a xlink:title=" ">
<polygon fill="#e0e0e0" stroke="#999999" points="198,-19 104,-19 104,0 198,0 198,-19"/>
<text text-anchor="middle" x="151" y="-7" font-family="Helvetica,sans-Serif" font-size="10.00">opencv2/core.hpp</text>
</a>
</g>
</g>
<!-- Node4&#45;&gt;Node5 -->
<g id="edge4" class="edge">
<title>Node4&#45;&gt;Node5</title>
<path fill="none" stroke="#63b8ff" d="M245.66,-54.51C227.78,-46.2 200.96,-33.73 180.43,-24.18"/>
<polygon fill="#63b8ff" stroke="#63b8ff" points="181.97,-21.04 171.43,-20 179.02,-27.39 181.97,-21.04"/>
</g>
<!-- Node6 -->
<g id="node6" class="node">
<title>Node6</title>
<g id="a_node6"><a xlink:title=" ">
<polygon fill="#e0e0e0" stroke="#999999" points="326,-19 216,-19 216,0 326,0 326,-19"/>
<text text-anchor="middle" x="271" y="-7" font-family="Helvetica,sans-Serif" font-size="10.00">opencv2/imgproc.hpp</text>
</a>
</g>
</g>
<!-- Node4&#45;&gt;Node6 -->
<g id="edge5" class="edge">
<title>Node4&#45;&gt;Node6</title>
<path fill="none" stroke="#63b8ff" d="M265.99,-54.75C266.73,-48.19 267.78,-38.95 268.72,-30.6"/>
<polygon fill="#63b8ff" stroke="#63b8ff" points="272.17,-31.28 269.82,-20.95 265.21,-30.49 272.17,-31.28"/>
</g>
<!-- Node7 -->
<g id="node7" class="node">
<title>Node7</title>
<g id="a_node7"><a xlink:title=" ">
<polygon fill="#e0e0e0" stroke="#999999" points="450,-19 344,-19 344,0 450,0 450,-19"/>
<text text-anchor="middle" x="397" y="-7" font-family="Helvetica,sans-Serif" font-size="10.00">opencv2/calib3d.hpp</text>
</a>
</g>
</g>
<!-- Node4&#45;&gt;Node7 -->
<g id="edge6" class="edge">
<title>Node4&#45;&gt;Node7</title>
<path fill="none" stroke="#63b8ff" d="M287.39,-54.51C308.57,-46.01 340.59,-33.15 364.56,-23.53"/>
<polygon fill="#63b8ff" stroke="#63b8ff" points="365.56,-26.9 373.53,-19.92 362.95,-20.4 365.56,-26.9"/>
</g>
<!-- Node8&#45;&gt;Node5 -->
<g id="edge8" class="edge">
<title>Node8&#45;&gt;Node5</title>
<path fill="none" stroke="#63b8ff" d="M156.01,-54.75C155.27,-48.19 154.22,-38.95 153.28,-30.6"/>
<polygon fill="#63b8ff" stroke="#63b8ff" points="156.79,-30.49 152.18,-20.95 149.83,-31.28 156.79,-30.49"/>
</g>
</g>
</svg>
