<?xml version="1.0" encoding="UTF-8" standalone="no"?>
<!DOCTYPE svg PUBLIC "-//W3C//DTD SVG 1.1//EN"
 "http://www.w3.org/Graphics/SVG/1.1/DTD/svg11.dtd">
<!-- Generated by graphviz version 2.40.1 (20161225.0304)
 -->
<!-- Title: /Users/phil/r/artoolkitx/Source/ARX/OCVT/TrackingPointSelector.h Pages: 1 -->
<!--zoomable 157 -->
<svg id="main" version="1.1" xmlns="http://www.w3.org/2000/svg" xmlns:xlink="http://www.w3.org/1999/xlink" xml:space="preserve" onload="init(evt)">
<style type="text/css"><![CDATA[
.edge:hover path { stroke: red; }
.edge:hover polygon { stroke: red; fill: red; }
]]></style>
<script type="text/javascript"><![CDATA[
var edges = document.getElementsByTagName('g');
if (edges && edges.length) {
  for (var i=0;i<edges.length;i++) {
    if (edges[i].id.substr(0,4)=='edge') {
      edges[i].setAttribute('class','edge');
    }
  }
}
]]></script>
        <defs>
                <circle id="rim" cx="0" cy="0" r="7"/>
                <circle id="rim2" cx="0" cy="0" r="3.5"/>
                <g id="zoomPlus">
                        <use xlink:href="#rim" fill="#404040">
                                <set attributeName="fill" to="#808080" begin="zoomplus.mouseover" end="zoomplus.mouseout"/>
                        </use>
                        <path d="M-4,0h8M0,-4v8" fill="none" stroke="white" stroke-width="1.5" pointer-events="none"/>
                </g>
                <g id="zoomMin">
                        <use xlink:href="#rim" fill="#404040">
                                <set attributeName="fill" to="#808080" begin="zoomminus.mouseover" end="zoomminus.mouseout"/>
                        </use>
                        <path d="M-4,0h8" fill="none" stroke="white" stroke-width="1.5" pointer-events="none"/>
                </g>
                <g id="dirArrow">
                        <path fill="none" stroke="white" stroke-width="1.5" d="M0,-3.0v7 M-2.5,-0.5L0,-3.0L2.5,-0.5"/>
                </g>
               <g id="resetDef">
                       <use xlink:href="#rim2" fill="#404040">
                               <set attributeName="fill" to="#808080" begin="reset.mouseover" end="reset.mouseout"/>
                       </use>
               </g>
        </defs>

<script type="text/javascript">
var viewWidth = 581;
var viewHeight = 157;
var sectionId = 'dynsection-0';
</script>
<script xlink:href="svgpan.js"/>
<svg id="graph" class="graph">
<g id="viewport">
<title>/Users/phil/r/artoolkitx/Source/ARX/OCVT/TrackingPointSelector.h</title>
<polygon fill="#ffffff" stroke="transparent" points="-4,4 -4,-153 577.4849,-153 577.4849,4 -4,4"/>
<!-- Node0 -->
<g id="node1" class="node">
<title>Node0</title>
<polygon fill="#bfbfbf" stroke="#000000" points="32.6611,-110.5 32.6611,-148.5 200.5703,-148.5 200.5703,-110.5 32.6611,-110.5"/>
<text text-anchor="start" x="40.6611" y="-136.5" font-family="Helvetica,sans-Serif" font-size="10.00" fill="#000000">/Users/phil/r/artoolkitx</text>
<text text-anchor="start" x="40.6611" y="-126.5" font-family="Helvetica,sans-Serif" font-size="10.00" fill="#000000">/Source/ARX/OCVT/TrackingPoint</text>
<text text-anchor="middle" x="116.6157" y="-116.5" font-family="Helvetica,sans-Serif" font-size="10.00" fill="#000000">Selector.h</text>
</g>
<!-- Node1 -->
<g id="node2" class="node">
<title>Node1</title>
<polygon fill="#ffffff" stroke="#bfbfbf" points="0,-55.5 0,-73.5 43.2314,-73.5 43.2314,-55.5 0,-55.5"/>
<text text-anchor="middle" x="21.6157" y="-61.5" font-family="Helvetica,sans-Serif" font-size="10.00" fill="#000000">vector</text>
</g>
<!-- Node0&#45;&gt;Node1 -->
<g id="edge1" class="edge">
<title>Node0&#45;&gt;Node1</title>
<path fill="none" stroke="#191970" d="M88.6264,-110.3494C74.2183,-100.4912 56.9113,-88.6496 43.4954,-79.4703"/>
<polygon fill="#191970" stroke="#191970" points="45.1421,-76.3561 34.9126,-73.5978 41.1893,-82.1333 45.1421,-76.3561"/>
</g>
<!-- Node2 -->
<g id="node3" class="node">
<title>Node2</title>
<polygon fill="#ffffff" stroke="#bfbfbf" points="60.8892,-55.5 60.8892,-73.5 96.3423,-73.5 96.3423,-55.5 60.8892,-55.5"/>
<text text-anchor="middle" x="78.6157" y="-61.5" font-family="Helvetica,sans-Serif" font-size="10.00" fill="#000000">map</text>
</g>
<!-- Node0&#45;&gt;Node2 -->
<g id="edge2" class="edge">
<title>Node0&#45;&gt;Node2</title>
<path fill="none" stroke="#191970" d="M105.42,-110.3494C100.2663,-101.5339 94.1854,-91.1324 89.1194,-82.4668"/>
<polygon fill="#191970" stroke="#191970" points="92.003,-80.4644 83.9345,-73.5978 85.9599,-83.9973 92.003,-80.4644"/>
</g>
<!-- Node3 -->
<g id="node4" class="node">
<title>Node3</title>
<g id="a_node4"><a xlink:href="_o_c_v_config_8h.html" target="_top" xlink:title="OCVConfig.h">
<polygon fill="#ffffff" stroke="#000000" points="226.1577,-55.5 226.1577,-73.5 301.0737,-73.5 301.0737,-55.5 226.1577,-55.5"/>
<text text-anchor="middle" x="263.6157" y="-61.5" font-family="Helvetica,sans-Serif" font-size="10.00" fill="#000000">OCVConfig.h</text>
</a>
</g>
</g>
<!-- Node0&#45;&gt;Node3 -->
<g id="edge3" class="edge">
<title>Node0&#45;&gt;Node3</title>
<path fill="none" stroke="#191970" d="M159.9255,-110.3494C183.7208,-99.8277 212.6258,-87.0466 233.8665,-77.6544"/>
<polygon fill="#191970" stroke="#191970" points="235.3102,-80.843 243.0406,-73.5978 232.4793,-74.4409 235.3102,-80.843"/>
</g>
<!-- Node8 -->
<g id="node9" class="node">
<title>Node8</title>
<g id="a_node9"><a xlink:href="_tracked_point_8h.html" target="_top" xlink:title="TrackedPoint.h">
<polygon fill="#ffffff" stroke="#000000" points="114.1709,-55.5 114.1709,-73.5 197.0605,-73.5 197.0605,-55.5 114.1709,-55.5"/>
<text text-anchor="middle" x="155.6157" y="-61.5" font-family="Helvetica,sans-Serif" font-size="10.00" fill="#000000">TrackedPoint.h</text>
</a>
</g>
</g>
<!-- Node0&#45;&gt;Node8 -->
<g id="edge8" class="edge">
<title>Node0&#45;&gt;Node8</title>
<path fill="none" stroke="#191970" d="M128.1061,-110.3494C133.4522,-101.4391 139.7706,-90.9085 145.003,-82.1879"/>
<polygon fill="#191970" stroke="#191970" points="148.0132,-83.9735 150.157,-73.5978 142.0108,-80.372 148.0132,-83.9735"/>
</g>
<!-- Node4 -->
<g id="node5" class="node">
<title>Node4</title>
<polygon fill="#ffffff" stroke="#bfbfbf" points="95.8647,-.5 95.8647,-18.5 191.3667,-18.5 191.3667,-.5 95.8647,-.5"/>
<text text-anchor="middle" x="143.6157" y="-6.5" font-family="Helvetica,sans-Serif" font-size="10.00" fill="#000000">opencv2/core.hpp</text>
</g>
<!-- Node3&#45;&gt;Node4 -->
<g id="edge4" class="edge">
<title>Node3&#45;&gt;Node4</title>
<path fill="none" stroke="#191970" d="M243.8002,-55.4179C224.4322,-46.5409 194.7254,-32.9253 172.684,-22.823"/>
<polygon fill="#191970" stroke="#191970" points="174.0097,-19.5805 163.4607,-18.5956 171.0931,-25.944 174.0097,-19.5805"/>
</g>
<!-- Node5 -->
<g id="node6" class="node">
<title>Node5</title>
<polygon fill="#ffffff" stroke="#bfbfbf" points="209.4658,-.5 209.4658,-18.5 317.7656,-18.5 317.7656,-.5 209.4658,-.5"/>
<text text-anchor="middle" x="263.6157" y="-6.5" font-family="Helvetica,sans-Serif" font-size="10.00" fill="#000000">opencv2/highgui.hpp</text>
</g>
<!-- Node3&#45;&gt;Node5 -->
<g id="edge5" class="edge">
<title>Node3&#45;&gt;Node5</title>
<path fill="none" stroke="#191970" d="M263.6157,-55.4179C263.6157,-48.2164 263.6157,-37.8962 263.6157,-28.8632"/>
<polygon fill="#191970" stroke="#191970" points="267.1158,-28.7794 263.6157,-18.7795 260.1158,-28.7795 267.1158,-28.7794"/>
</g>
<!-- Node6 -->
<g id="node7" class="node">
<title>Node6</title>
<polygon fill="#ffffff" stroke="#bfbfbf" points="335.8081,-.5 335.8081,-18.5 447.4233,-18.5 447.4233,-.5 335.8081,-.5"/>
<text text-anchor="middle" x="391.6157" y="-6.5" font-family="Helvetica,sans-Serif" font-size="10.00" fill="#000000">opencv2/imgproc.hpp</text>
</g>
<!-- Node3&#45;&gt;Node6 -->
<g id="edge6" class="edge">
<title>Node3&#45;&gt;Node6</title>
<path fill="none" stroke="#191970" d="M284.7523,-55.4179C305.5968,-46.4613 337.668,-32.6806 361.2402,-22.552"/>
<polygon fill="#191970" stroke="#191970" points="362.6418,-25.7592 370.4477,-18.5956 359.8782,-19.3278 362.6418,-25.7592"/>
</g>
<!-- Node7 -->
<g id="node8" class="node">
<title>Node7</title>
<polygon fill="#ffffff" stroke="#bfbfbf" points="465.7466,-.5 465.7466,-18.5 573.4849,-18.5 573.4849,-.5 465.7466,-.5"/>
<text text-anchor="middle" x="519.6157" y="-6.5" font-family="Helvetica,sans-Serif" font-size="10.00" fill="#000000">opencv2/calib3d.hpp</text>
</g>
<!-- Node3&#45;&gt;Node7 -->
<g id="edge7" class="edge">
<title>Node3&#45;&gt;Node7</title>
<path fill="none" stroke="#191970" d="M301.1145,-56.4436C345.0303,-47.0086 418.0455,-31.3217 467.4649,-20.7043"/>
<polygon fill="#191970" stroke="#191970" points="468.284,-24.1082 477.3257,-18.5857 466.8136,-17.2644 468.284,-24.1082"/>
</g>
<!-- Node8&#45;&gt;Node4 -->
<g id="edge9" class="edge">
<title>Node8&#45;&gt;Node4</title>
<path fill="none" stroke="#191970" d="M153.6342,-55.4179C152.0457,-48.1372 149.7617,-37.669 147.7755,-28.5659"/>
<polygon fill="#191970" stroke="#191970" points="151.1916,-27.8035 145.6403,-18.7795 144.3525,-29.2957 151.1916,-27.8035"/>
</g>
</g>
</svg>
        <g id="navigator" transform="translate(0 0)" fill="#404254">
                <rect fill="#f2f5e9" fill-opacity="0.5" stroke="#606060" stroke-width=".5" x="0" y="0" width="60" height="60"/>
                <use id="zoomplus" xlink:href="#zoomPlus" x="17" y="9" onmousedown="handleZoom(evt,'in')"/>
                <use id="zoomminus" xlink:href="#zoomMin" x="42" y="9" onmousedown="handleZoom(evt,'out')"/>
                <use id="reset" xlink:href="#resetDef" x="30" y="36" onmousedown="handleReset()"/>
                <g id="arrowUp" xlink:href="#dirArrow" transform="translate(30 24)" onmousedown="handlePan(0,-1)">
                  <use xlink:href="#rim" fill="#404040">
                        <set attributeName="fill" to="#808080" begin="arrowUp.mouseover" end="arrowUp.mouseout"/>
                  </use>
                  <path fill="none" stroke="white" stroke-width="1.5" d="M0,-3.0v7 M-2.5,-0.5L0,-3.0L2.5,-0.5"/>
                </g>
                <g id="arrowRight" xlink:href="#dirArrow" transform="rotate(90) translate(36 -43)" onmousedown="handlePan(1,0)">
                  <use xlink:href="#rim" fill="#404040">
                        <set attributeName="fill" to="#808080" begin="arrowRight.mouseover" end="arrowRight.mouseout"/>
                  </use>
                  <path fill="none" stroke="white" stroke-width="1.5" d="M0,-3.0v7 M-2.5,-0.5L0,-3.0L2.5,-0.5"/>
                </g>
                <g id="arrowDown" xlink:href="#dirArrow" transform="rotate(180) translate(-30 -48)" onmousedown="handlePan(0,1)">
                  <use xlink:href="#rim" fill="#404040">
                        <set attributeName="fill" to="#808080" begin="arrowDown.mouseover" end="arrowDown.mouseout"/>
                  </use>
                  <path fill="none" stroke="white" stroke-width="1.5" d="M0,-3.0v7 M-2.5,-0.5L0,-3.0L2.5,-0.5"/>
                </g>
                <g id="arrowLeft" xlink:href="#dirArrow" transform="rotate(270) translate(-36 17)" onmousedown="handlePan(-1,0)">
                  <use xlink:href="#rim" fill="#404040">
                        <set attributeName="fill" to="#808080" begin="arrowLeft.mouseover" end="arrowLeft.mouseout"/>
                  </use>
                  <path fill="none" stroke="white" stroke-width="1.5" d="M0,-3.0v7 M-2.5,-0.5L0,-3.0L2.5,-0.5"/>
                </g>
        </g>
        <svg viewBox="0 0 15 15" width="100%" height="30px" preserveAspectRatio="xMaxYMin meet">
         <g id="arrow_out" transform="scale(0.3 0.3)">
          <a xlink:href="_tracking_point_selector_8h__incl_org.svg" target="_base">
           <rect id="button" ry="5" rx="5" y="6" x="6" height="38" width="38"
                fill="#f2f5e9" fill-opacity="0.5" stroke="#606060" stroke-width="1.0"/>
           <path id="arrow"
             d="M 11.500037,31.436501 C 11.940474,20.09759 22.043105,11.32322 32.158766,21.979434 L 37.068811,17.246167 C 37.068811,17.246167 37.088388,32 37.088388,32 L 22.160133,31.978069 C 22.160133,31.978069 26.997745,27.140456 26.997745,27.140456 C 18.528582,18.264221 13.291696,25.230495 11.500037,31.436501 z"
             style="fill:#404040;"/>
          </a>
         </g>
        </svg>
</svg>
