<?xml version="1.0" encoding="UTF-8" standalone="no"?>
<!DOCTYPE svg PUBLIC "-//W3C//DTD SVG 1.1//EN"
 "http://www.w3.org/Graphics/SVG/1.1/DTD/svg11.dtd">
<!-- Generated by graphviz version 7.0.5 (20221223.1930)
 -->
<!-- Title: Source/ARX/ARVideo/WindowsMediaCapture/WindowsMediaCapture.h Pages: 1 -->
<!--zoomable 225 -->
<svg id="main" version="1.1" xmlns="http://www.w3.org/2000/svg" xmlns:xlink="http://www.w3.org/1999/xlink" xml:space="preserve" onload="init(evt)">
<style type="text/css"><![CDATA[
.edge:hover path { stroke: red; }
.edge:hover polygon { stroke: red; fill: red; }
]]></style>
<script type="text/javascript"><![CDATA[
var edges = document.getElementsByTagName('g');
if (edges && edges.length) {
  for (var i=0;i<edges.length;i++) {
    if (edges[i].id.substr(0,4)=='edge') {
      edges[i].setAttribute('class','edge');
    }
  }
}
]]></script>
        <defs>
                <circle id="rim" cx="0" cy="0" r="7"/>
                <circle id="rim2" cx="0" cy="0" r="3.5"/>
                <g id="zoomPlus">
                        <use xlink:href="#rim" fill="#404040">
                                <set attributeName="fill" to="#808080" begin="zoomplus.mouseover" end="zoomplus.mouseout"/>
                        </use>
                        <path d="M-4,0h8M0,-4v8" fill="none" stroke="white" stroke-width="1.5" pointer-events="none"/>
                </g>
                <g id="zoomMin">
                        <use xlink:href="#rim" fill="#404040">
                                <set attributeName="fill" to="#808080" begin="zoomminus.mouseover" end="zoomminus.mouseout"/>
                        </use>
                        <path d="M-4,0h8" fill="none" stroke="white" stroke-width="1.5" pointer-events="none"/>
                </g>
                <g id="dirArrow">
                        <path fill="none" stroke="white" stroke-width="1.5" d="M0,-3.0v7 M-2.5,-0.5L0,-3.0L2.5,-0.5"/>
                </g>
               <g id="resetDef">
                       <use xlink:href="#rim2" fill="#404040">
                               <set attributeName="fill" to="#808080" begin="reset.mouseover" end="reset.mouseout"/>
                       </use>
               </g>
        </defs>

<script type="text/javascript">
var viewWidth = 1227;
var viewHeight = 225;
var sectionId = 'dynsection-0';
</script>
<script xlink:href="svgpan.js"/>
<svg id="graph" class="graph">
<g id="viewport">
<title>Source/ARX/ARVideo/WindowsMediaCapture/WindowsMediaCapture.h</title>
<!-- Node1 -->
<g id="node1" class="node">
<title>Node1</title>
<g id="a_node1"><a xlink:title=" ">
<polygon fill="#999999" stroke="#666666" points="370.5,-217 241.5,-217 241.5,-176 370.5,-176 370.5,-217"/>
<text text-anchor="start" x="249.5" y="-205" font-family="Helvetica,sans-Serif" font-size="10.00">Source/ARX/ARVideo</text>
<text text-anchor="start" x="249.5" y="-194" font-family="Helvetica,sans-Serif" font-size="10.00">/WindowsMediaCapture</text>
<text text-anchor="middle" x="306" y="-183" font-family="Helvetica,sans-Serif" font-size="10.00">/WindowsMediaCapture.h</text>
</a>
</g>
</g>
<!-- Node2 -->
<g id="node2" class="node">
<title>Node2</title>
<g id="a_node2"><a xlink:title=" ">
<polygon fill="#e0e0e0" stroke="#999999" points="92,-134.5 0,-134.5 0,-115.5 92,-115.5 92,-134.5"/>
<text text-anchor="middle" x="46" y="-122.5" font-family="Helvetica,sans-Serif" font-size="10.00">ARX/AR/config.h</text>
</a>
</g>
</g>
<!-- Node1&#45;&gt;Node2 -->
<g id="edge1" class="edge">
<title>Node1&#45;&gt;Node2</title>
<path fill="none" stroke="#63b8ff" d="M241.06,-178.14C194.18,-165.61 132.09,-149.01 90.68,-137.94"/>
<polygon fill="#63b8ff" stroke="#63b8ff" points="91.6,-134.57 81.04,-135.37 89.8,-141.33 91.6,-134.57"/>
</g>
<!-- Node3 -->
<g id="node3" class="node">
<title>Node3</title>
<g id="a_node3"><a xlink:title=" ">
<polygon fill="#e0e0e0" stroke="#999999" points="174,-134.5 110,-134.5 110,-115.5 174,-115.5 174,-134.5"/>
<text text-anchor="middle" x="142" y="-122.5" font-family="Helvetica,sans-Serif" font-size="10.00">wrl/client.h</text>
</a>
</g>
</g>
<!-- Node1&#45;&gt;Node3 -->
<g id="edge2" class="edge">
<title>Node1&#45;&gt;Node3</title>
<path fill="none" stroke="#63b8ff" d="M259,-175.58C231.59,-163.97 197.75,-149.62 173.52,-139.36"/>
<polygon fill="#63b8ff" stroke="#63b8ff" points="175.1,-136.22 164.52,-135.54 172.36,-142.67 175.1,-136.22"/>
</g>
<!-- Node4 -->
<g id="node4" class="node">
<title>Node4</title>
<g id="a_node4"><a xlink:title=" ">
<polygon fill="#e0e0e0" stroke="#999999" points="237.5,-134.5 192.5,-134.5 192.5,-115.5 237.5,-115.5 237.5,-134.5"/>
<text text-anchor="middle" x="215" y="-122.5" font-family="Helvetica,sans-Serif" font-size="10.00">agile.h</text>
</a>
</g>
</g>
<!-- Node1&#45;&gt;Node4 -->
<g id="edge3" class="edge">
<title>Node1&#45;&gt;Node4</title>
<path fill="none" stroke="#63b8ff" d="M280.17,-175.77C265.96,-164.92 248.58,-151.65 235.35,-141.54"/>
<polygon fill="#63b8ff" stroke="#63b8ff" points="237.82,-139.03 227.75,-135.74 233.57,-144.59 237.82,-139.03"/>
</g>
<!-- Node5 -->
<g id="node5" class="node">
<title>Node5</title>
<g id="a_node5"><a xlink:title=" ">
<polygon fill="#e0e0e0" stroke="#999999" points="296.5,-134.5 255.5,-134.5 255.5,-115.5 296.5,-115.5 296.5,-134.5"/>
<text text-anchor="middle" x="276" y="-122.5" font-family="Helvetica,sans-Serif" font-size="10.00">string</text>
</a>
</g>
</g>
<!-- Node1&#45;&gt;Node5 -->
<g id="edge4" class="edge">
<title>Node1&#45;&gt;Node5</title>
<path fill="none" stroke="#63b8ff" d="M297.48,-175.77C293.35,-166.18 288.39,-154.71 284.29,-145.19"/>
<polygon fill="#63b8ff" stroke="#63b8ff" points="287.58,-144 280.41,-136.21 281.16,-146.78 287.58,-144"/>
</g>
<!-- Node6 -->
<g id="node6" class="node">
<title>Node6</title>
<g id="a_node6"><a xlink:title=" ">
<polygon fill="#e0e0e0" stroke="#999999" points="359,-134.5 315,-134.5 315,-115.5 359,-115.5 359,-134.5"/>
<text text-anchor="middle" x="337" y="-122.5" font-family="Helvetica,sans-Serif" font-size="10.00">mutex</text>
</a>
</g>
</g>
<!-- Node1&#45;&gt;Node6 -->
<g id="edge5" class="edge">
<title>Node1&#45;&gt;Node6</title>
<path fill="none" stroke="#63b8ff" d="M314.8,-175.77C319.08,-166.18 324.19,-154.71 328.44,-145.19"/>
<polygon fill="#63b8ff" stroke="#63b8ff" points="331.57,-146.76 332.45,-136.2 325.18,-143.91 331.57,-146.76"/>
</g>
<!-- Node7 -->
<g id="node7" class="node">
<title>Node7</title>
<g id="a_node7"><a xlink:title=" ">
<polygon fill="#e0e0e0" stroke="#999999" points="472.5,-134.5 377.5,-134.5 377.5,-115.5 472.5,-115.5 472.5,-134.5"/>
<text text-anchor="middle" x="425" y="-122.5" font-family="Helvetica,sans-Serif" font-size="10.00">condition_variable</text>
</a>
</g>
</g>
<!-- Node1&#45;&gt;Node7 -->
<g id="edge6" class="edge">
<title>Node1&#45;&gt;Node7</title>
<path fill="none" stroke="#63b8ff" d="M340.1,-175.58C359.28,-164.38 382.79,-150.65 400.2,-140.48"/>
<polygon fill="#63b8ff" stroke="#63b8ff" points="401.49,-143.78 408.36,-135.72 397.96,-137.74 401.49,-143.78"/>
</g>
<!-- Node8 -->
<g id="node8" class="node">
<title>Node8</title>
<g id="a_node8"><a xlink:title=" ">
<polygon fill="#e0e0e0" stroke="#999999" points="539.5,-134.5 490.5,-134.5 490.5,-115.5 539.5,-115.5 539.5,-134.5"/>
<text text-anchor="middle" x="515" y="-122.5" font-family="Helvetica,sans-Serif" font-size="10.00">stdint.h</text>
</a>
</g>
</g>
<!-- Node1&#45;&gt;Node8 -->
<g id="edge7" class="edge">
<title>Node1&#45;&gt;Node8</title>
<path fill="none" stroke="#63b8ff" d="M370.87,-176.67C404.32,-166.55 445.63,-153.42 482,-140 482.79,-139.71 483.59,-139.41 484.39,-139.1"/>
<polygon fill="#63b8ff" stroke="#63b8ff" points="485.49,-142.43 493.47,-135.46 482.89,-135.93 485.49,-142.43"/>
</g>
<!-- Node9 -->
<g id="node9" class="node">
<title>Node9</title>
<g id="a_node9"><a xlink:href="_capture_frame_grabber_8h.html" target="_top" xlink:title=" ">
<polygon fill="white" stroke="#666666" points="682,-140 558,-140 558,-110 682,-110 682,-140"/>
<text text-anchor="start" x="566" y="-128" font-family="Helvetica,sans-Serif" font-size="10.00">CaptureFrameGrabber</text>
<text text-anchor="middle" x="620" y="-117" font-family="Helvetica,sans-Serif" font-size="10.00">/CaptureFrameGrabber.h</text>
</a>
</g>
</g>
<!-- Node1&#45;&gt;Node9 -->
<g id="edge8" class="edge">
<title>Node1&#45;&gt;Node9</title>
<path fill="none" stroke="#63b8ff" d="M370.68,-181.18C421.8,-169.87 493.17,-154.07 546.46,-142.28"/>
<polygon fill="#63b8ff" stroke="#63b8ff" points="547.06,-145.73 556.07,-140.15 545.55,-138.89 547.06,-145.73"/>
</g>
<!-- Node10 -->
<g id="node10" class="node">
<title>Node10</title>
<g id="a_node10"><a xlink:href="_m_f_includes_8h.html" target="_top" xlink:title=" ">
<polygon fill="white" stroke="#666666" points="658,-74 582,-74 582,-55 658,-55 658,-74"/>
<text text-anchor="middle" x="620" y="-62" font-family="Helvetica,sans-Serif" font-size="10.00">MFIncludes.h</text>
</a>
</g>
</g>
<!-- Node9&#45;&gt;Node10 -->
<g id="edge9" class="edge">
<title>Node9&#45;&gt;Node10</title>
<path fill="none" stroke="#63b8ff" d="M620,-109.54C620,-102.34 620,-93.53 620,-85.68"/>
<polygon fill="#63b8ff" stroke="#63b8ff" points="623.5,-85.69 620,-75.69 616.5,-85.69 623.5,-85.69"/>
</g>
<!-- Node11 -->
<g id="node11" class="node">
<title>Node11</title>
<g id="a_node11"><a xlink:title=" ">
<polygon fill="#e0e0e0" stroke="#999999" points="76,-19 10,-19 10,0 76,0 76,-19"/>
<text text-anchor="middle" x="43" y="-7" font-family="Helvetica,sans-Serif" font-size="10.00">collection.h</text>
</a>
</g>
</g>
<!-- Node10&#45;&gt;Node11 -->
<g id="edge10" class="edge">
<title>Node10&#45;&gt;Node11</title>
<path fill="none" stroke="#63b8ff" d="M581.55,-61.84C495.11,-57.79 278.68,-45.8 87.79,-19.23"/>
<polygon fill="#63b8ff" stroke="#63b8ff" points="88.3,-15.77 77.91,-17.84 87.32,-22.7 88.3,-15.77"/>
</g>
<!-- Node12 -->
<g id="node12" class="node">
<title>Node12</title>
<g id="a_node12"><a xlink:title=" ">
<polygon fill="#e0e0e0" stroke="#999999" points="156,-19 94,-19 94,0 156,0 156,-19"/>
<text text-anchor="middle" x="125" y="-7" font-family="Helvetica,sans-Serif" font-size="10.00">ppltasks.h</text>
</a>
</g>
</g>
<!-- Node10&#45;&gt;Node12 -->
<g id="edge11" class="edge">
<title>Node10&#45;&gt;Node12</title>
<path fill="none" stroke="#63b8ff" d="M581.56,-61.12C504.88,-56.08 327.28,-42.91 167.28,-19.01"/>
<polygon fill="#63b8ff" stroke="#63b8ff" points="168.18,-15.6 157.77,-17.57 167.14,-22.53 168.18,-15.6"/>
</g>
<!-- Node13 -->
<g id="node13" class="node">
<title>Node13</title>
<g id="a_node13"><a xlink:title=" ">
<polygon fill="#e0e0e0" stroke="#999999" points="265.5,-19 174.5,-19 174.5,0 265.5,0 265.5,-19"/>
<text text-anchor="middle" x="220" y="-7" font-family="Helvetica,sans-Serif" font-size="10.00">wrl\implements.h</text>
</a>
</g>
</g>
<!-- Node10&#45;&gt;Node13 -->
<g id="edge12" class="edge">
<title>Node10&#45;&gt;Node13</title>
<path fill="none" stroke="#63b8ff" d="M581.67,-58.87C519.94,-51.35 394.38,-35.78 277.21,-19.28"/>
<polygon fill="#63b8ff" stroke="#63b8ff" points="277.79,-15.83 267.4,-17.89 276.81,-22.76 277.79,-15.83"/>
</g>
<!-- Node14 -->
<g id="node14" class="node">
<title>Node14</title>
<g id="a_node14"><a xlink:title=" ">
<polygon fill="#e0e0e0" stroke="#999999" points="426,-19 284,-19 284,0 426,0 426,-19"/>
<text text-anchor="middle" x="355" y="-7" font-family="Helvetica,sans-Serif" font-size="10.00">wrl\wrappers\corewrappers.h</text>
</a>
</g>
</g>
<!-- Node10&#45;&gt;Node14 -->
<g id="edge13" class="edge">
<title>Node10&#45;&gt;Node14</title>
<path fill="none" stroke="#63b8ff" d="M581.75,-55.85C536.98,-46.9 462.43,-31.99 411.11,-21.72"/>
<polygon fill="#63b8ff" stroke="#63b8ff" points="411.86,-18.3 401.37,-19.77 410.49,-25.17 411.86,-18.3"/>
</g>
<!-- Node15 -->
<g id="node15" class="node">
<title>Node15</title>
<g id="a_node15"><a xlink:title=" ">
<polygon fill="#e0e0e0" stroke="#999999" points="514,-19 444,-19 444,0 514,0 514,-19"/>
<text text-anchor="middle" x="479" y="-7" font-family="Helvetica,sans-Serif" font-size="10.00">Roerrorapi.h</text>
</a>
</g>
</g>
<!-- Node10&#45;&gt;Node15 -->
<g id="edge14" class="edge">
<title>Node10&#45;&gt;Node15</title>
<path fill="none" stroke="#63b8ff" d="M596.08,-54.51C573.36,-45.97 538.95,-33.03 513.31,-23.4"/>
<polygon fill="#63b8ff" stroke="#63b8ff" points="514.57,-20.13 503.98,-19.89 512.11,-26.69 514.57,-20.13"/>
</g>
<!-- Node16 -->
<g id="node16" class="node">
<title>Node16</title>
<g id="a_node16"><a xlink:title=" ">
<polygon fill="#e0e0e0" stroke="#999999" points="575.5,-19 532.5,-19 532.5,0 575.5,0 575.5,-19"/>
<text text-anchor="middle" x="554" y="-7" font-family="Helvetica,sans-Serif" font-size="10.00">queue</text>
</a>
</g>
</g>
<!-- Node10&#45;&gt;Node16 -->
<g id="edge15" class="edge">
<title>Node10&#45;&gt;Node16</title>
<path fill="none" stroke="#63b8ff" d="M608.8,-54.51C599.26,-46.85 585.33,-35.66 573.89,-26.47"/>
<polygon fill="#63b8ff" stroke="#63b8ff" points="576.2,-23.84 566.21,-20.31 571.82,-29.3 576.2,-23.84"/>
</g>
<!-- Node17 -->
<g id="node17" class="node">
<title>Node17</title>
<g id="a_node17"><a xlink:title=" ">
<polygon fill="#e0e0e0" stroke="#999999" points="646,-19 594,-19 594,0 646,0 646,-19"/>
<text text-anchor="middle" x="620" y="-7" font-family="Helvetica,sans-Serif" font-size="10.00">sstream</text>
</a>
</g>
</g>
<!-- Node10&#45;&gt;Node17 -->
<g id="edge16" class="edge">
<title>Node10&#45;&gt;Node17</title>
<path fill="none" stroke="#63b8ff" d="M620,-54.75C620,-48.27 620,-39.16 620,-30.9"/>
<polygon fill="#63b8ff" stroke="#63b8ff" points="623.5,-30.96 620,-20.96 616.5,-30.96 623.5,-30.96"/>
</g>
<!-- Node18 -->
<g id="node18" class="node">
<title>Node18</title>
<g id="a_node18"><a xlink:title=" ">
<polygon fill="#e0e0e0" stroke="#999999" points="721.5,-19 664.5,-19 664.5,0 721.5,0 721.5,-19"/>
<text text-anchor="middle" x="693" y="-7" font-family="Helvetica,sans-Serif" font-size="10.00">robuffer.h</text>
</a>
</g>
</g>
<!-- Node10&#45;&gt;Node18 -->
<g id="edge17" class="edge">
<title>Node10&#45;&gt;Node18</title>
<path fill="none" stroke="#63b8ff" d="M632.38,-54.51C643.15,-46.7 658.97,-35.21 671.75,-25.93"/>
<polygon fill="#63b8ff" stroke="#63b8ff" points="673.54,-28.95 679.57,-20.25 669.43,-23.29 673.54,-28.95"/>
</g>
<!-- Node19 -->
<g id="node19" class="node">
<title>Node19</title>
<g id="a_node19"><a xlink:title=" ">
<polygon fill="#e0e0e0" stroke="#999999" points="788.5,-19 739.5,-19 739.5,0 788.5,0 788.5,-19"/>
<text text-anchor="middle" x="764" y="-7" font-family="Helvetica,sans-Serif" font-size="10.00">mfapi.h</text>
</a>
</g>
</g>
<!-- Node10&#45;&gt;Node19 -->
<g id="edge18" class="edge">
<title>Node10&#45;&gt;Node19</title>
<path fill="none" stroke="#63b8ff" d="M644.43,-54.51C667.74,-45.93 703.09,-32.92 729.31,-23.27"/>
<polygon fill="#63b8ff" stroke="#63b8ff" points="730.34,-26.62 738.51,-19.88 727.92,-20.05 730.34,-26.62"/>
</g>
<!-- Node20 -->
<g id="node20" class="node">
<title>Node20</title>
<g id="a_node20"><a xlink:title=" ">
<polygon fill="#e0e0e0" stroke="#999999" points="853,-19 807,-19 807,0 853,0 853,-19"/>
<text text-anchor="middle" x="830" y="-7" font-family="Helvetica,sans-Serif" font-size="10.00">mfidl.h</text>
</a>
</g>
</g>
<!-- Node10&#45;&gt;Node20 -->
<g id="edge19" class="edge">
<title>Node10&#45;&gt;Node20</title>
<path fill="none" stroke="#63b8ff" d="M656.52,-54.54C690.21,-46.23 741.9,-33.39 795.49,-19.62"/>
<polygon fill="#63b8ff" stroke="#63b8ff" points="796.32,-23.02 805.13,-17.14 794.57,-16.24 796.32,-23.02"/>
</g>
<!-- Node21 -->
<g id="node21" class="node">
<title>Node21</title>
<g id="a_node21"><a xlink:title=" ">
<polygon fill="#e0e0e0" stroke="#999999" points="926.5,-19 871.5,-19 871.5,0 926.5,0 926.5,-19"/>
<text text-anchor="middle" x="899" y="-7" font-family="Helvetica,sans-Serif" font-size="10.00">Mferror.h</text>
</a>
</g>
</g>
<!-- Node10&#45;&gt;Node21 -->
<g id="edge20" class="edge">
<title>Node10&#45;&gt;Node21</title>
<path fill="none" stroke="#63b8ff" d="M658.24,-57C703.88,-49.13 782.76,-35.16 860.23,-19.29"/>
<polygon fill="#63b8ff" stroke="#63b8ff" points="860.58,-22.79 869.67,-17.34 859.17,-15.93 860.58,-22.79"/>
</g>
<!-- Node22 -->
<g id="node22" class="node">
<title>Node22</title>
<g id="a_node22"><a xlink:title=" ">
<polygon fill="#e0e0e0" stroke="#999999" points="1037,-19 945,-19 945,0 1037,0 1037,-19"/>
<text text-anchor="middle" x="991" y="-7" font-family="Helvetica,sans-Serif" font-size="10.00">windows.media.h</text>
</a>
</g>
</g>
<!-- Node10&#45;&gt;Node22 -->
<g id="edge21" class="edge">
<title>Node10&#45;&gt;Node22</title>
<path fill="none" stroke="#63b8ff" d="M658.45,-58.25C715.93,-50.38 827.98,-34.88 933.61,-19.34"/>
<polygon fill="#63b8ff" stroke="#63b8ff" points="933.91,-22.83 943.3,-17.91 932.89,-15.9 933.91,-22.83"/>
</g>
<!-- Node23 -->
<g id="node23" class="node">
<title>Node23</title>
<g id="a_node23"><a xlink:title=" ">
<polygon fill="#e0e0e0" stroke="#999999" points="1219,-19 1055,-19 1055,0 1219,0 1219,-19"/>
<text text-anchor="middle" x="1137" y="-7" font-family="Helvetica,sans-Serif" font-size="10.00">windows.media.mediaproperties.h</text>
</a>
</g>
</g>
<!-- Node10&#45;&gt;Node23 -->
<g id="edge22" class="edge">
<title>Node10&#45;&gt;Node23</title>
<path fill="none" stroke="#63b8ff" d="M658.44,-59.56C739.29,-51.27 928.94,-31.83 1043.73,-20.06"/>
<polygon fill="#63b8ff" stroke="#63b8ff" points="1043.85,-23.57 1053.44,-19.07 1043.14,-16.6 1043.85,-23.57"/>
</g>
</g>
</svg>
        <g id="navigator" transform="translate(0 0)" fill="#404254">
                <rect fill="#f2f5e9" fill-opacity="0.5" stroke="#606060" stroke-width=".5" x="0" y="0" width="60" height="60"/>
                <use id="zoomplus" xlink:href="#zoomPlus" x="17" y="9" onmousedown="handleZoom(evt,'in')"/>
                <use id="zoomminus" xlink:href="#zoomMin" x="42" y="9" onmousedown="handleZoom(evt,'out')"/>
                <use id="reset" xlink:href="#resetDef" x="30" y="36" onmousedown="handleReset()"/>
                <g id="arrowUp" xlink:href="#dirArrow" transform="translate(30 24)" onmousedown="handlePan(0,-1)">
                  <use xlink:href="#rim" fill="#404040">
                        <set attributeName="fill" to="#808080" begin="arrowUp.mouseover" end="arrowUp.mouseout"/>
                  </use>
                  <path fill="none" stroke="white" stroke-width="1.5" d="M0,-3.0v7 M-2.5,-0.5L0,-3.0L2.5,-0.5"/>
                </g>
                <g id="arrowRight" xlink:href="#dirArrow" transform="rotate(90) translate(36 -43)" onmousedown="handlePan(1,0)">
                  <use xlink:href="#rim" fill="#404040">
                        <set attributeName="fill" to="#808080" begin="arrowRight.mouseover" end="arrowRight.mouseout"/>
                  </use>
                  <path fill="none" stroke="white" stroke-width="1.5" d="M0,-3.0v7 M-2.5,-0.5L0,-3.0L2.5,-0.5"/>
                </g>
                <g id="arrowDown" xlink:href="#dirArrow" transform="rotate(180) translate(-30 -48)" onmousedown="handlePan(0,1)">
                  <use xlink:href="#rim" fill="#404040">
                        <set attributeName="fill" to="#808080" begin="arrowDown.mouseover" end="arrowDown.mouseout"/>
                  </use>
                  <path fill="none" stroke="white" stroke-width="1.5" d="M0,-3.0v7 M-2.5,-0.5L0,-3.0L2.5,-0.5"/>
                </g>
                <g id="arrowLeft" xlink:href="#dirArrow" transform="rotate(270) translate(-36 17)" onmousedown="handlePan(-1,0)">
                  <use xlink:href="#rim" fill="#404040">
                        <set attributeName="fill" to="#808080" begin="arrowLeft.mouseover" end="arrowLeft.mouseout"/>
                  </use>
                  <path fill="none" stroke="white" stroke-width="1.5" d="M0,-3.0v7 M-2.5,-0.5L0,-3.0L2.5,-0.5"/>
                </g>
        </g>
        <svg viewBox="0 0 15 15" width="100%" height="30px" preserveAspectRatio="xMaxYMin meet">
         <g id="arrow_out" transform="scale(0.3 0.3)">
          <a xlink:href="_windows_media_capture_8h__incl_org.svg" target="_base">
           <rect id="button" ry="5" rx="5" y="6" x="6" height="38" width="38"
                fill="#f2f5e9" fill-opacity="0.5" stroke="#606060" stroke-width="1.0"/>
           <path id="arrow"
             d="M 11.500037,31.436501 C 11.940474,20.09759 22.043105,11.32322 32.158766,21.979434 L 37.068811,17.246167 C 37.068811,17.246167 37.088388,32 37.088388,32 L 22.160133,31.978069 C 22.160133,31.978069 26.997745,27.140456 26.997745,27.140456 C 18.528582,18.264221 13.291696,25.230495 11.500037,31.436501 z"
             style="fill:#404040;"/>
          </a>
         </g>
        </svg>
</svg>
