<?xml version="1.0" encoding="UTF-8" standalone="no"?>
<!DOCTYPE svg PUBLIC "-//W3C//DTD SVG 1.1//EN"
 "http://www.w3.org/Graphics/SVG/1.1/DTD/svg11.dtd">
<!-- Generated by graphviz version 2.40.1 (20161225.0304)
 -->
<!-- Title: /Users/phil/r/artoolkitx/Source/ARX/ARUtil/include/ARX/ARUtil/android.h Pages: 1 -->
<svg width="147pt" height="102pt"
 viewBox="0.00 0.00 147.38 102.00" xmlns="http://www.w3.org/2000/svg" xmlns:xlink="http://www.w3.org/1999/xlink">
<g id="graph0" class="graph" transform="scale(1 1) rotate(0) translate(4 98)">
<title>/Users/phil/r/artoolkitx/Source/ARX/ARUtil/include/ARX/ARUtil/android.h</title>
<polygon fill="#ffffff" stroke="transparent" points="-4,4 -4,-98 143.3838,-98 143.3838,4 -4,4"/>
<!-- Node0 -->
<g id="node1" class="node">
<title>Node0</title>
<polygon fill="#bfbfbf" stroke="#000000" points="0,-55.5 0,-93.5 139.3838,-93.5 139.3838,-55.5 0,-55.5"/>
<text text-anchor="start" x="8" y="-81.5" font-family="Helvetica,sans-Serif" font-size="10.00" fill="#000000">/Users/phil/r/artoolkitx</text>
<text text-anchor="start" x="8" y="-71.5" font-family="Helvetica,sans-Serif" font-size="10.00" fill="#000000">/Source/ARX/ARUtil/include</text>
<text text-anchor="middle" x="69.6919" y="-61.5" font-family="Helvetica,sans-Serif" font-size="10.00" fill="#000000">/ARX/ARUtil/android.h</text>
</g>
<!-- Node1 -->
<g id="node2" class="node">
<title>Node1</title>
<g id="a_node2"><a xlink:href="types_8h.html" target="_top" xlink:title="ARX/ARUtil/types.h">
<polygon fill="#ffffff" stroke="#000000" points="18.3447,-.5 18.3447,-18.5 121.0391,-18.5 121.0391,-.5 18.3447,-.5"/>
<text text-anchor="middle" x="69.6919" y="-6.5" font-family="Helvetica,sans-Serif" font-size="10.00" fill="#000000">ARX/ARUtil/types.h</text>
</a>
</g>
</g>
<!-- Node0&#45;&gt;Node1 -->
<g id="edge1" class="edge">
<title>Node0&#45;&gt;Node1</title>
<path fill="none" stroke="#191970" d="M69.6919,-55.3494C69.6919,-47.0079 69.6919,-37.2463 69.6919,-28.879"/>
<polygon fill="#191970" stroke="#191970" points="73.192,-28.5978 69.6919,-18.5978 66.192,-28.5979 73.192,-28.5978"/>
</g>
</g>
</svg>
