<?xml version="1.0" encoding="UTF-8" standalone="no"?>
<!DOCTYPE svg PUBLIC "-//W3C//DTD SVG 1.1//EN"
 "http://www.w3.org/Graphics/SVG/1.1/DTD/svg11.dtd">
<!-- Generated by graphviz version 2.40.1 (20161225.0304)
 -->
<!-- Title: Source/ARX/ARUtil/include/ARX/ARUtil/android.h Pages: 1 -->
<svg width="146pt" height="102pt"
 viewBox="0.00 0.00 146.28 102.00" xmlns="http://www.w3.org/2000/svg" xmlns:xlink="http://www.w3.org/1999/xlink">
<g id="graph0" class="graph" transform="scale(1 1) rotate(0) translate(4 98)">
<title>Source/ARX/ARUtil/include/ARX/ARUtil/android.h</title>
<polygon fill="#ffffff" stroke="transparent" points="-4,4 -4,-98 142.2754,-98 142.2754,4 -4,4"/>
<!-- Node2 -->
<g id="node1" class="node">
<title>Node2</title>
<polygon fill="#bfbfbf" stroke="#000000" points=".835,-65.5 .835,-93.5 137.4404,-93.5 137.4404,-65.5 .835,-65.5"/>
<text text-anchor="start" x="8.835" y="-81.5" font-family="Helvetica,sans-Serif" font-size="10.00" fill="#000000">Source/ARX/ARUtil/include</text>
<text text-anchor="middle" x="69.1377" y="-71.5" font-family="Helvetica,sans-Serif" font-size="10.00" fill="#000000">/ARX/ARUtil/android.h</text>
</g>
<!-- Node3 -->
<g id="node2" class="node">
<title>Node3</title>
<g id="a_node2"><a xlink:href="android__system__property__get_8c.html" target="_top" xlink:title="Source/ARX/ARUtil/android\l_system_property_get.c">
<polygon fill="#ffffff" stroke="#000000" points="0,-.5 0,-28.5 138.2754,-28.5 138.2754,-.5 0,-.5"/>
<text text-anchor="start" x="8" y="-16.5" font-family="Helvetica,sans-Serif" font-size="10.00" fill="#000000">Source/ARX/ARUtil/android</text>
<text text-anchor="middle" x="69.1377" y="-6.5" font-family="Helvetica,sans-Serif" font-size="10.00" fill="#000000">_system_property_get.c</text>
</a>
</g>
</g>
<!-- Node2&#45;&gt;Node3 -->
<g id="edge1" class="edge">
<title>Node2&#45;&gt;Node3</title>
<path fill="none" stroke="#191970" d="M69.1377,-55.1081C69.1377,-46.1539 69.1377,-36.3227 69.1377,-28.5765"/>
<polygon fill="#191970" stroke="#191970" points="65.6378,-55.3959 69.1377,-65.396 72.6378,-55.396 65.6378,-55.3959"/>
</g>
</g>
</svg>
