<?xml version="1.0" encoding="UTF-8" standalone="no"?>
<!DOCTYPE svg PUBLIC "-//W3C//DTD SVG 1.1//EN"
 "http://www.w3.org/Graphics/SVG/1.1/DTD/svg11.dtd">
<!-- Generated by graphviz version 8.0.5 (20230430.1635)
 -->
<!-- Title: Source/ARX/AR/ar3DUtil.c Pages: 1 -->
<svg width="1005pt" height="193pt"
 viewBox="0.00 0.00 1004.62 193.00" xmlns="http://www.w3.org/2000/svg" xmlns:xlink="http://www.w3.org/1999/xlink">
<g id="graph0" class="graph" transform="scale(1 1) rotate(0) translate(4 189)">
<title>Source/ARX/AR/ar3DUtil.c</title>
<!-- Node1 -->
<g id="node1" class="node">
<title>Node1</title>
<g id="a_node1"><a xlink:title=" ">
<polygon fill="#999999" stroke="#666666" points="383.62,-185 248.38,-185 248.38,-165.75 383.62,-165.75 383.62,-185"/>
<text text-anchor="middle" x="316" y="-171.5" font-family="Helvetica,sans-Serif" font-size="10.00">Source/ARX/AR/ar3DUtil.c</text>
</a>
</g>
</g>
<!-- Node2 -->
<g id="node2" class="node">
<title>Node2</title>
<g id="a_node2"><a xlink:title=" ">
<polygon fill="#e0e0e0" stroke="#999999" points="474.75,-19.25 427.25,-19.25 427.25,0 474.75,0 474.75,-19.25"/>
<text text-anchor="middle" x="451" y="-5.75" font-family="Helvetica,sans-Serif" font-size="10.00">stdlib.h</text>
</a>
</g>
</g>
<!-- Node1&#45;&gt;Node2 -->
<g id="edge1" class="edge">
<title>Node1&#45;&gt;Node2</title>
<path fill="none" stroke="#63b8ff" d="M282.3,-165.32C222.73,-147.75 109.08,-106.24 153,-55.25 157.29,-50.27 338.75,-25.57 416.37,-15.21"/>
<polygon fill="#63b8ff" stroke="#63b8ff" points="416.58,-18.58 426.03,-13.79 415.66,-11.64 416.58,-18.58"/>
</g>
<!-- Node3 -->
<g id="node3" class="node">
<title>Node3</title>
<g id="a_node3"><a xlink:title=" ">
<polygon fill="#e0e0e0" stroke="#999999" points="46,-19.25 0,-19.25 0,0 46,0 46,-19.25"/>
<text text-anchor="middle" x="23" y="-5.75" font-family="Helvetica,sans-Serif" font-size="10.00">math.h</text>
</a>
</g>
</g>
<!-- Node1&#45;&gt;Node3 -->
<g id="edge2" class="edge">
<title>Node1&#45;&gt;Node3</title>
<path fill="none" stroke="#63b8ff" d="M263.15,-165.25C182.53,-150.11 34.98,-117.2 5,-74.5 -4.59,-60.84 2.44,-42.19 10.34,-28.57"/>
<polygon fill="#63b8ff" stroke="#63b8ff" points="13.59,-30.99 16.03,-20.68 7.69,-27.22 13.59,-30.99"/>
</g>
<!-- Node4 -->
<g id="node4" class="node">
<title>Node4</title>
<g id="a_node4"><a xlink:href="ar_8h.html" target="_top" xlink:title="artoolkitX core routines.">
<polygon fill="white" stroke="#666666" points="571.5,-129.75 498.5,-129.75 498.5,-110.5 571.5,-110.5 571.5,-129.75"/>
<text text-anchor="middle" x="535" y="-116.25" font-family="Helvetica,sans-Serif" font-size="10.00">ARX/AR/ar.h</text>
</a>
</g>
</g>
<!-- Node1&#45;&gt;Node4 -->
<g id="edge3" class="edge">
<title>Node1&#45;&gt;Node4</title>
<path fill="none" stroke="#63b8ff" d="M353.15,-165.34C390.15,-156.35 447.1,-142.5 487.4,-132.7"/>
<polygon fill="#63b8ff" stroke="#63b8ff" points="488.14,-135.88 497.03,-130.11 486.49,-129.08 488.14,-135.88"/>
</g>
<!-- Node15 -->
<g id="node15" class="node">
<title>Node15</title>
<g id="a_node15"><a xlink:href="icp_8h.html" target="_top" xlink:title=" ">
<polygon fill="white" stroke="#666666" points="940.12,-74.5 861.88,-74.5 861.88,-55.25 940.12,-55.25 940.12,-74.5"/>
<text text-anchor="middle" x="901" y="-61" font-family="Helvetica,sans-Serif" font-size="10.00">ARX/AR/icp.h</text>
</a>
</g>
</g>
<!-- Node1&#45;&gt;Node15 -->
<g id="edge27" class="edge">
<title>Node1&#45;&gt;Node15</title>
<path fill="none" stroke="#63b8ff" d="M373.21,-165.25C426.94,-156.56 509.53,-142.9 581,-129.75 676.73,-112.14 788.1,-89.4 851,-76.34"/>
<polygon fill="#63b8ff" stroke="#63b8ff" points="851.34,-79.64 860.41,-74.18 849.91,-72.79 851.34,-79.64"/>
</g>
<!-- Node4&#45;&gt;Node2 -->
<g id="edge5" class="edge">
<title>Node4&#45;&gt;Node2</title>
<path fill="none" stroke="#63b8ff" d="M569.7,-110.05C603.33,-99.54 646.6,-80.4 627,-55.25 588.68,-6.08 551.32,-32.61 485.51,-19.34"/>
<polygon fill="#63b8ff" stroke="#63b8ff" points="486.67,-15.78 476.14,-16.96 485.11,-22.61 486.67,-15.78"/>
</g>
<!-- Node5 -->
<g id="node5" class="node">
<title>Node5</title>
<g id="a_node5"><a xlink:title=" ">
<polygon fill="#e0e0e0" stroke="#999999" points="879.62,-19.25 834.38,-19.25 834.38,0 879.62,0 879.62,-19.25"/>
<text text-anchor="middle" x="857" y="-5.75" font-family="Helvetica,sans-Serif" font-size="10.00">stdio.h</text>
</a>
</g>
</g>
<!-- Node4&#45;&gt;Node5 -->
<g id="edge4" class="edge">
<title>Node4&#45;&gt;Node5</title>
<path fill="none" stroke="#63b8ff" d="M571.92,-119.93C624.69,-119.56 723.35,-113.14 796,-74.5 816.66,-63.51 834.36,-42.93 845.29,-28.1"/>
<polygon fill="#63b8ff" stroke="#63b8ff" points="848.56,-30.53 851.46,-20.34 842.84,-26.5 848.56,-30.53"/>
</g>
<!-- Node6 -->
<g id="node6" class="node">
<title>Node6</title>
<g id="a_node6"><a xlink:title=" ">
<polygon fill="#e0e0e0" stroke="#999999" points="210.12,-74.5 161.88,-74.5 161.88,-55.25 210.12,-55.25 210.12,-74.5"/>
<text text-anchor="middle" x="186" y="-61" font-family="Helvetica,sans-Serif" font-size="10.00">stdint.h</text>
</a>
</g>
</g>
<!-- Node4&#45;&gt;Node6 -->
<g id="edge6" class="edge">
<title>Node4&#45;&gt;Node6</title>
<path fill="none" stroke="#63b8ff" d="M498.41,-115.24C441.36,-108.9 327.62,-95.13 221.06,-74.49"/>
<polygon fill="#63b8ff" stroke="#63b8ff" points="221.93,-70.9 211.44,-72.41 220.58,-77.77 221.93,-70.9"/>
</g>
<!-- Node7 -->
<g id="node7" class="node">
<title>Node7</title>
<g id="a_node7"><a xlink:title=" ">
<polygon fill="#e0e0e0" stroke="#999999" points="816.12,-19.25 767.88,-19.25 767.88,0 816.12,0 816.12,-19.25"/>
<text text-anchor="middle" x="792" y="-5.75" font-family="Helvetica,sans-Serif" font-size="10.00">string.h</text>
</a>
</g>
</g>
<!-- Node4&#45;&gt;Node7 -->
<g id="edge7" class="edge">
<title>Node4&#45;&gt;Node7</title>
<path fill="none" stroke="#63b8ff" d="M571.96,-117.15C632.28,-113.17 748.08,-102.06 777,-74.5 788.85,-63.2 792.13,-44.45 792.72,-30.18"/>
<polygon fill="#63b8ff" stroke="#63b8ff" points="796.21,-30.51 792.71,-20.51 789.21,-30.51 796.21,-30.51"/>
</g>
<!-- Node8 -->
<g id="node8" class="node">
<title>Node8</title>
<g id="a_node8"><a xlink:title=" ">
<polygon fill="#e0e0e0" stroke="#999999" points="371.88,-19.25 280.12,-19.25 280.12,0 371.88,0 371.88,-19.25"/>
<text text-anchor="middle" x="326" y="-5.75" font-family="Helvetica,sans-Serif" font-size="10.00">ARX/AR/config.h</text>
</a>
</g>
</g>
<!-- Node4&#45;&gt;Node8 -->
<g id="edge8" class="edge">
<title>Node4&#45;&gt;Node8</title>
<path fill="none" stroke="#63b8ff" d="M529.63,-110.27C520.8,-96.45 501.88,-69.83 479,-55.25 449.99,-36.76 413.06,-25.7 382.76,-19.22"/>
<polygon fill="#63b8ff" stroke="#63b8ff" points="383.83,-15.67 373.34,-17.12 382.45,-22.53 383.83,-15.67"/>
</g>
<!-- Node9 -->
<g id="node9" class="node">
<title>Node9</title>
<g id="a_node9"><a xlink:href="ar_config_8h.html" target="_top" xlink:title=" ">
<polygon fill="white" stroke="#666666" points="470.12,-74.5 367.88,-74.5 367.88,-55.25 470.12,-55.25 470.12,-74.5"/>
<text text-anchor="middle" x="419" y="-61" font-family="Helvetica,sans-Serif" font-size="10.00">ARX/AR/arConfig.h</text>
</a>
</g>
</g>
<!-- Node4&#45;&gt;Node9 -->
<g id="edge9" class="edge">
<title>Node4&#45;&gt;Node9</title>
<path fill="none" stroke="#63b8ff" d="M515.32,-110.09C497.07,-101.72 469.67,-89.13 448.75,-79.53"/>
<polygon fill="#63b8ff" stroke="#63b8ff" points="450.32,-75.94 439.77,-74.95 447.4,-82.31 450.32,-75.94"/>
</g>
<!-- Node10 -->
<g id="node10" class="node">
<title>Node10</title>
<g id="a_node10"><a xlink:href="log_8h.html" target="_top" xlink:title="Logging utilities.">
<polygon fill="white" stroke="#666666" points="767.62,-74.5 674.38,-74.5 674.38,-55.25 767.62,-55.25 767.62,-74.5"/>
<text text-anchor="middle" x="721" y="-61" font-family="Helvetica,sans-Serif" font-size="10.00">ARX/ARUtil/log.h</text>
</a>
</g>
</g>
<!-- Node4&#45;&gt;Node10 -->
<g id="edge10" class="edge">
<title>Node4&#45;&gt;Node10</title>
<path fill="none" stroke="#63b8ff" d="M566.55,-110.09C597.42,-101.26 644.62,-87.74 678.72,-77.98"/>
<polygon fill="#63b8ff" stroke="#63b8ff" points="679.64,-81.07 688.29,-74.95 677.72,-74.34 679.64,-81.07"/>
</g>
<!-- Node14 -->
<g id="node14" class="node">
<title>Node14</title>
<g id="a_node14"><a xlink:href="matrix_8h.html" target="_top" xlink:title=" ">
<polygon fill="white" stroke="#666666" points="106.25,-74.5 13.75,-74.5 13.75,-55.25 106.25,-55.25 106.25,-74.5"/>
<text text-anchor="middle" x="60" y="-61" font-family="Helvetica,sans-Serif" font-size="10.00">ARX/AR/matrix.h</text>
</a>
</g>
</g>
<!-- Node4&#45;&gt;Node14 -->
<g id="edge17" class="edge">
<title>Node4&#45;&gt;Node14</title>
<path fill="none" stroke="#63b8ff" d="M498.12,-114.99C415.66,-105.75 215.86,-83.35 117.14,-72.28"/>
<polygon fill="#63b8ff" stroke="#63b8ff" points="117.8,-68.72 107.48,-71.09 117.03,-75.68 117.8,-68.72"/>
</g>
<!-- Node4&#45;&gt;Node15 -->
<g id="edge19" class="edge">
<title>Node4&#45;&gt;Node15</title>
<path fill="none" stroke="#63b8ff" d="M571.66,-114.14C630.14,-106.13 748.16,-89.74 848,-74.5 848.97,-74.35 849.95,-74.2 850.93,-74.05"/>
<polygon fill="#63b8ff" stroke="#63b8ff" points="851.32,-77.38 860.65,-72.37 850.23,-70.46 851.32,-77.38"/>
</g>
<!-- Node17 -->
<g id="node17" class="node">
<title>Node17</title>
<g id="a_node17"><a xlink:href="param_8h.html" target="_top" xlink:title="artoolkitX functions for handling calibrated camera parameters.">
<polygon fill="white" stroke="#666666" points="618.25,-74.5 525.75,-74.5 525.75,-55.25 618.25,-55.25 618.25,-74.5"/>
<text text-anchor="middle" x="572" y="-61" font-family="Helvetica,sans-Serif" font-size="10.00">ARX/AR/param.h</text>
</a>
</g>
</g>
<!-- Node4&#45;&gt;Node17 -->
<g id="edge22" class="edge">
<title>Node4&#45;&gt;Node17</title>
<path fill="none" stroke="#63b8ff" d="M535.94,-110.33C539.48,-102.98 546.53,-92.26 553.6,-83.19"/>
<polygon fill="#63b8ff" stroke="#63b8ff" points="556.83,-85.78 560.55,-75.86 551.46,-81.3 556.83,-85.78"/>
</g>
<!-- Node18 -->
<g id="node18" class="node">
<title>Node18</title>
<g id="a_node18"><a xlink:href="ar_image_proc_8h.html" target="_top" xlink:title="artoolkitX functions for 2D luminance image processing.">
<polygon fill="white" stroke="#666666" points="349.5,-74.5 228.5,-74.5 228.5,-55.25 349.5,-55.25 349.5,-74.5"/>
<text text-anchor="middle" x="289" y="-61" font-family="Helvetica,sans-Serif" font-size="10.00">ARX/AR/arImageProc.h</text>
</a>
</g>
</g>
<!-- Node4&#45;&gt;Node18 -->
<g id="edge24" class="edge">
<title>Node4&#45;&gt;Node18</title>
<path fill="none" stroke="#63b8ff" d="M498.11,-112.16C454.94,-103.32 383.6,-87.95 336.39,-77.36"/>
<polygon fill="#63b8ff" stroke="#63b8ff" points="337.35,-73.76 326.82,-74.98 335.81,-80.59 337.35,-73.76"/>
</g>
<!-- Node10&#45;&gt;Node2 -->
<g id="edge12" class="edge">
<title>Node10&#45;&gt;Node2</title>
<path fill="none" stroke="#63b8ff" d="M674.04,-56.02C628.32,-48.16 556.68,-35.25 485.59,-19.48"/>
<polygon fill="#63b8ff" stroke="#63b8ff" points="486.63,-15.9 476.1,-17.13 485.1,-22.73 486.63,-15.9"/>
</g>
<!-- Node10&#45;&gt;Node5 -->
<g id="edge11" class="edge">
<title>Node10&#45;&gt;Node5</title>
<path fill="none" stroke="#63b8ff" d="M744.07,-54.84C766.09,-46.22 799.47,-33.15 824.24,-23.45"/>
<polygon fill="#63b8ff" stroke="#63b8ff" points="825.23,-26.43 833.27,-19.52 822.68,-19.91 825.23,-26.43"/>
</g>
<!-- Node10&#45;&gt;Node7 -->
<g id="edge13" class="edge">
<title>Node10&#45;&gt;Node7</title>
<path fill="none" stroke="#63b8ff" d="M733.04,-54.84C743.51,-46.99 758.9,-35.45 771.33,-26.12"/>
<polygon fill="#63b8ff" stroke="#63b8ff" points="773.23,-28.32 779.13,-19.52 769.03,-22.72 773.23,-28.32"/>
</g>
<!-- Node11 -->
<g id="node11" class="node">
<title>Node11</title>
<g id="a_node11"><a xlink:title=" ">
<polygon fill="#e0e0e0" stroke="#999999" points="749.62,-19.25 698.38,-19.25 698.38,0 749.62,0 749.62,-19.25"/>
<text text-anchor="middle" x="724" y="-5.75" font-family="Helvetica,sans-Serif" font-size="10.00">stdarg.h</text>
</a>
</g>
</g>
<!-- Node10&#45;&gt;Node11 -->
<g id="edge14" class="edge">
<title>Node10&#45;&gt;Node11</title>
<path fill="none" stroke="#63b8ff" d="M721.5,-55.08C721.87,-48.42 722.4,-38.99 722.88,-30.53"/>
<polygon fill="#63b8ff" stroke="#63b8ff" points="726.43,-30.79 723.49,-20.61 719.44,-30.4 726.43,-30.79"/>
</g>
<!-- Node12 -->
<g id="node12" class="node">
<title>Node12</title>
<g id="a_node12"><a xlink:title=" ">
<polygon fill="#e0e0e0" stroke="#999999" points="557.38,-19.25 492.62,-19.25 492.62,0 557.38,0 557.38,-19.25"/>
<text text-anchor="middle" x="525" y="-5.75" font-family="Helvetica,sans-Serif" font-size="10.00">sys/errno.h</text>
</a>
</g>
</g>
<!-- Node10&#45;&gt;Node12 -->
<g id="edge15" class="edge">
<title>Node10&#45;&gt;Node12</title>
<path fill="none" stroke="#63b8ff" d="M687.75,-54.84C654.75,-45.88 604.01,-32.09 567.97,-22.3"/>
<polygon fill="#63b8ff" stroke="#63b8ff" points="569.33,-18.77 558.76,-19.52 567.49,-25.52 569.33,-18.77"/>
</g>
<!-- Node13 -->
<g id="node13" class="node">
<title>Node13</title>
<g id="a_node13"><a xlink:href="types_8h.html" target="_top" xlink:title=" ">
<polygon fill="white" stroke="#666666" points="680.25,-19.25 575.75,-19.25 575.75,0 680.25,0 680.25,-19.25"/>
<text text-anchor="middle" x="628" y="-5.75" font-family="Helvetica,sans-Serif" font-size="10.00">ARX/ARUtil/types.h</text>
</a>
</g>
</g>
<!-- Node10&#45;&gt;Node13 -->
<g id="edge16" class="edge">
<title>Node10&#45;&gt;Node13</title>
<path fill="none" stroke="#63b8ff" d="M705.22,-54.84C690.93,-46.66 669.62,-34.46 653.01,-24.94"/>
<polygon fill="#63b8ff" stroke="#63b8ff" points="655.27,-21.63 644.85,-19.7 651.79,-27.71 655.27,-21.63"/>
</g>
<!-- Node14&#45;&gt;Node3 -->
<g id="edge18" class="edge">
<title>Node14&#45;&gt;Node3</title>
<path fill="none" stroke="#63b8ff" d="M53.89,-55.08C48.89,-47.88 41.64,-37.46 35.43,-28.51"/>
<polygon fill="#63b8ff" stroke="#63b8ff" points="37.82,-26.82 29.24,-20.61 32.07,-30.82 37.82,-26.82"/>
</g>
<!-- Node15&#45;&gt;Node5 -->
<g id="edge20" class="edge">
<title>Node15&#45;&gt;Node5</title>
<path fill="none" stroke="#63b8ff" d="M893.73,-55.08C887.66,-47.73 878.8,-37.01 871.31,-27.94"/>
<polygon fill="#63b8ff" stroke="#63b8ff" points="873.49,-26.09 864.42,-20.61 868.1,-30.55 873.49,-26.09"/>
</g>
<!-- Node16 -->
<g id="node16" class="node">
<title>Node16</title>
<g id="a_node16"><a xlink:href="icp_core_8h.html" target="_top" xlink:title=" ">
<polygon fill="white" stroke="#666666" points="996.62,-19.25 897.38,-19.25 897.38,0 996.62,0 996.62,-19.25"/>
<text text-anchor="middle" x="947" y="-5.75" font-family="Helvetica,sans-Serif" font-size="10.00">ARX/AR/icpCore.h</text>
</a>
</g>
</g>
<!-- Node15&#45;&gt;Node16 -->
<g id="edge21" class="edge">
<title>Node15&#45;&gt;Node16</title>
<path fill="none" stroke="#63b8ff" d="M908.6,-55.08C915.02,-47.65 924.4,-36.79 932.28,-27.66"/>
<polygon fill="#63b8ff" stroke="#63b8ff" points="935.35,-30.46 939.24,-20.61 930.05,-25.89 935.35,-30.46"/>
</g>
<!-- Node17&#45;&gt;Node4 -->
<g id="edge23" class="edge">
<title>Node17&#45;&gt;Node4</title>
<path fill="none" stroke="#63b8ff" d="M570.96,-74.86C567.37,-82.27 560.29,-93 553.22,-102.04"/>
<polygon fill="#63b8ff" stroke="#63b8ff" points="550.01,-99.42 546.28,-109.33 555.38,-103.91 550.01,-99.42"/>
</g>
<!-- Node18&#45;&gt;Node4 -->
<g id="edge26" class="edge">
<title>Node18&#45;&gt;Node4</title>
<path fill="none" stroke="#63b8ff" d="M336.06,-74.93C379.62,-83.95 443.92,-97.84 487.59,-107.63"/>
<polygon fill="#63b8ff" stroke="#63b8ff" points="486.7,-111.25 497.22,-110.03 488.23,-104.42 486.7,-111.25"/>
</g>
<!-- Node18&#45;&gt;Node8 -->
<g id="edge25" class="edge">
<title>Node18&#45;&gt;Node8</title>
<path fill="none" stroke="#63b8ff" d="M295.11,-55.08C300.11,-47.88 307.36,-37.46 313.57,-28.51"/>
<polygon fill="#63b8ff" stroke="#63b8ff" points="316.93,-30.82 319.76,-20.61 311.18,-26.82 316.93,-30.82"/>
</g>
</g>
</svg>
