<?xml version="1.0" encoding="UTF-8" standalone="no"?>
<!DOCTYPE svg PUBLIC "-//W3C//DTD SVG 1.1//EN"
 "http://www.w3.org/Graphics/SVG/1.1/DTD/svg11.dtd">
<!-- Generated by graphviz version 8.0.5 (20230430.1635)
 -->
<!-- Title: arGetStereoMatching Pages: 1 -->
<svg width="234pt" height="175pt"
 viewBox="0.00 0.00 234.25 175.25" xmlns="http://www.w3.org/2000/svg" xmlns:xlink="http://www.w3.org/1999/xlink">
<g id="graph0" class="graph" transform="scale(1 1) rotate(0) translate(4 171.25)">
<title>arGetStereoMatching</title>
<!-- Node1 -->
<g id="node1" class="node">
<title>Node1</title>
<g id="a_node1"><a xlink:title=" ">
<polygon fill="#999999" stroke="#666666" points="108.25,-93.25 0,-93.25 0,-74 108.25,-74 108.25,-93.25"/>
<text text-anchor="middle" x="54.12" y="-79.75" font-family="Helvetica,sans-Serif" font-size="10.00">arGetStereoMatching</text>
</a>
</g>
</g>
<!-- Node2 -->
<g id="node2" class="node">
<title>Node2</title>
<g id="a_node2"><a xlink:href="m_alloc_8c.html#a69c9a974dc5a3963148ebb2c4a80f969" target="_top" xlink:title=" ">
<polygon fill="white" stroke="#666666" points="221.75,-167.25 148.75,-167.25 148.75,-148 221.75,-148 221.75,-167.25"/>
<text text-anchor="middle" x="185.25" y="-153.75" font-family="Helvetica,sans-Serif" font-size="10.00">arMatrixAlloc</text>
</a>
</g>
</g>
<!-- Node1&#45;&gt;Node2 -->
<g id="edge1" class="edge">
<title>Node1&#45;&gt;Node2</title>
<path fill="none" stroke="#63b8ff" d="M69.58,-93.58C86.91,-105.31 117.03,-125.04 144.25,-139.62 146.38,-140.76 148.59,-141.9 150.84,-143.01"/>
<polygon fill="#63b8ff" stroke="#63b8ff" points="149.18,-146.57 159.72,-147.69 152.18,-140.25 149.18,-146.57"/>
</g>
<!-- Node3 -->
<g id="node3" class="node">
<title>Node3</title>
<g id="a_node3"><a xlink:href="m_free_8c.html#ac4b7a714cce9fffda773d86363380454" target="_top" xlink:title=" ">
<polygon fill="white" stroke="#666666" points="220.62,-130.25 149.88,-130.25 149.88,-111 220.62,-111 220.62,-130.25"/>
<text text-anchor="middle" x="185.25" y="-116.75" font-family="Helvetica,sans-Serif" font-size="10.00">arMatrixFree</text>
</a>
</g>
</g>
<!-- Node1&#45;&gt;Node3 -->
<g id="edge2" class="edge">
<title>Node1&#45;&gt;Node3</title>
<path fill="none" stroke="#63b8ff" d="M90.41,-93.74C105.48,-98.05 123.25,-103.14 139.24,-107.73"/>
<polygon fill="#63b8ff" stroke="#63b8ff" points="137.88,-111.26 148.46,-110.65 139.81,-104.54 137.88,-111.26"/>
</g>
<!-- Node4 -->
<g id="node4" class="node">
<title>Node4</title>
<g id="a_node4"><a xlink:href="m_mul_8c.html#a202bc2db43d563792c99e852ea0b7ba4" target="_top" xlink:title=" ">
<polygon fill="white" stroke="#666666" points="218.75,-93.25 151.75,-93.25 151.75,-74 218.75,-74 218.75,-93.25"/>
<text text-anchor="middle" x="185.25" y="-79.75" font-family="Helvetica,sans-Serif" font-size="10.00">arMatrixMul</text>
</a>
</g>
</g>
<!-- Node1&#45;&gt;Node4 -->
<g id="edge3" class="edge">
<title>Node1&#45;&gt;Node4</title>
<path fill="none" stroke="#63b8ff" d="M108.39,-83.62C119.1,-83.62 130.25,-83.62 140.59,-83.62"/>
<polygon fill="#63b8ff" stroke="#63b8ff" points="140.43,-87.13 150.43,-83.62 140.43,-80.13 140.43,-87.13"/>
</g>
<!-- Node5 -->
<g id="node5" class="node">
<title>Node5</title>
<g id="a_node5"><a xlink:href="m_self_inv_8c.html#a929738025b539a0c1bbd2f395ad4d981" target="_top" xlink:title=" ">
<polygon fill="white" stroke="#666666" points="226.25,-56.25 144.25,-56.25 144.25,-37 226.25,-37 226.25,-56.25"/>
<text text-anchor="middle" x="185.25" y="-42.75" font-family="Helvetica,sans-Serif" font-size="10.00">arMatrixSelfInv</text>
</a>
</g>
</g>
<!-- Node1&#45;&gt;Node5 -->
<g id="edge4" class="edge">
<title>Node1&#45;&gt;Node5</title>
<path fill="none" stroke="#63b8ff" d="M90.41,-73.51C105.35,-69.23 122.96,-64.19 138.85,-59.63"/>
<polygon fill="#63b8ff" stroke="#63b8ff" points="139.36,-62.84 148.01,-56.72 137.43,-56.11 139.36,-62.84"/>
</g>
<!-- Node6 -->
<g id="node6" class="node">
<title>Node6</title>
<g id="a_node6"><a xlink:href="ar_util_8c.html#ae28eeba3e16224a7d77b46bd34b8f4fe" target="_top" xlink:title=" ">
<polygon fill="white" stroke="#666666" points="221,-19.25 149.5,-19.25 149.5,0 221,0 221,-19.25"/>
<text text-anchor="middle" x="185.25" y="-5.75" font-family="Helvetica,sans-Serif" font-size="10.00">arUtilMatMul</text>
</a>
</g>
</g>
<!-- Node1&#45;&gt;Node6 -->
<g id="edge5" class="edge">
<title>Node1&#45;&gt;Node6</title>
<path fill="none" stroke="#63b8ff" d="M69.58,-73.67C86.91,-61.94 117.03,-42.21 144.25,-27.62 146.38,-26.49 148.59,-25.35 150.84,-24.24"/>
<polygon fill="#63b8ff" stroke="#63b8ff" points="152.18,-27 159.72,-19.56 149.18,-20.68 152.18,-27"/>
</g>
</g>
</svg>
