<?xml version="1.0" encoding="UTF-8" standalone="no"?>
<!DOCTYPE svg PUBLIC "-//W3C//DTD SVG 1.1//EN"
 "http://www.w3.org/Graphics/SVG/1.1/DTD/svg11.dtd">
<!-- Generated by graphviz version 7.0.5 (20221223.1930)
 -->
<!-- Title: arGetStereoMatching Pages: 1 -->
<svg width="236pt" height="175pt"
 viewBox="0.00 0.00 236.00 175.00" xmlns="http://www.w3.org/2000/svg" xmlns:xlink="http://www.w3.org/1999/xlink">
<g id="graph0" class="graph" transform="scale(1 1) rotate(0) translate(4 171)">
<title>arGetStereoMatching</title>
<!-- Node1 -->
<g id="node1" class="node">
<title>Node1</title>
<g id="a_node1"><a xlink:title=" ">
<polygon fill="#999999" stroke="#666666" points="109,-93 0,-93 0,-74 109,-74 109,-93"/>
<text text-anchor="middle" x="54.5" y="-81" font-family="Helvetica,sans-Serif" font-size="10.00">arGetStereoMatching</text>
</a>
</g>
</g>
<!-- Node2 -->
<g id="node2" class="node">
<title>Node2</title>
<g id="a_node2"><a xlink:href="m_alloc_8c.html#a69c9a974dc5a3963148ebb2c4a80f969" target="_top" xlink:title=" ">
<polygon fill="white" stroke="#666666" points="223.5,-167 149.5,-167 149.5,-148 223.5,-148 223.5,-167"/>
<text text-anchor="middle" x="186.5" y="-155" font-family="Helvetica,sans-Serif" font-size="10.00">arMatrixAlloc</text>
</a>
</g>
</g>
<!-- Node1&#45;&gt;Node2 -->
<g id="edge1" class="edge">
<title>Node1&#45;&gt;Node2</title>
<path fill="none" stroke="#63b8ff" d="M70.01,-93.47C87.41,-105.21 117.65,-124.96 145,-139.5 147.07,-140.6 149.22,-141.69 151.4,-142.77"/>
<polygon fill="#63b8ff" stroke="#63b8ff" points="149.76,-145.86 160.3,-146.94 152.73,-139.52 149.76,-145.86"/>
</g>
<!-- Node3 -->
<g id="node3" class="node">
<title>Node3</title>
<g id="a_node3"><a xlink:href="m_free_8c.html#ac4b7a714cce9fffda773d86363380454" target="_top" xlink:title=" ">
<polygon fill="white" stroke="#666666" points="222,-130 151,-130 151,-111 222,-111 222,-130"/>
<text text-anchor="middle" x="186.5" y="-118" font-family="Helvetica,sans-Serif" font-size="10.00">arMatrixFree</text>
</a>
</g>
</g>
<!-- Node1&#45;&gt;Node3 -->
<g id="edge2" class="edge">
<title>Node1&#45;&gt;Node3</title>
<path fill="none" stroke="#63b8ff" d="M90.34,-93.42C105.49,-97.73 123.46,-102.84 139.67,-107.46"/>
<polygon fill="#63b8ff" stroke="#63b8ff" points="138.53,-110.77 149.11,-110.14 140.45,-104.04 138.53,-110.77"/>
</g>
<!-- Node4 -->
<g id="node4" class="node">
<title>Node4</title>
<g id="a_node4"><a xlink:href="m_mul_8c.html#a202bc2db43d563792c99e852ea0b7ba4" target="_top" xlink:title=" ">
<polygon fill="white" stroke="#666666" points="220.5,-93 152.5,-93 152.5,-74 220.5,-74 220.5,-93"/>
<text text-anchor="middle" x="186.5" y="-81" font-family="Helvetica,sans-Serif" font-size="10.00">arMatrixMul</text>
</a>
</g>
</g>
<!-- Node1&#45;&gt;Node4 -->
<g id="edge3" class="edge">
<title>Node1&#45;&gt;Node4</title>
<path fill="none" stroke="#63b8ff" d="M109.13,-83.5C119.58,-83.5 130.44,-83.5 140.58,-83.5"/>
<polygon fill="#63b8ff" stroke="#63b8ff" points="140.57,-87 150.57,-83.5 140.57,-80 140.57,-87"/>
</g>
<!-- Node5 -->
<g id="node5" class="node">
<title>Node5</title>
<g id="a_node5"><a xlink:href="m_self_inv_8c.html#a929738025b539a0c1bbd2f395ad4d981" target="_top" xlink:title=" ">
<polygon fill="white" stroke="#666666" points="228,-56 145,-56 145,-37 228,-37 228,-56"/>
<text text-anchor="middle" x="186.5" y="-44" font-family="Helvetica,sans-Serif" font-size="10.00">arMatrixSelfInv</text>
</a>
</g>
</g>
<!-- Node1&#45;&gt;Node5 -->
<g id="edge4" class="edge">
<title>Node1&#45;&gt;Node5</title>
<path fill="none" stroke="#63b8ff" d="M90.34,-73.58C105.49,-69.27 123.46,-64.16 139.67,-59.54"/>
<polygon fill="#63b8ff" stroke="#63b8ff" points="140.45,-62.96 149.11,-56.86 138.53,-56.23 140.45,-62.96"/>
</g>
<!-- Node6 -->
<g id="node6" class="node">
<title>Node6</title>
<g id="a_node6"><a xlink:href="ar_util_8c.html#ae28eeba3e16224a7d77b46bd34b8f4fe" target="_top" xlink:title=" ">
<polygon fill="white" stroke="#666666" points="222.5,-19 150.5,-19 150.5,0 222.5,0 222.5,-19"/>
<text text-anchor="middle" x="186.5" y="-7" font-family="Helvetica,sans-Serif" font-size="10.00">arUtilMatMul</text>
</a>
</g>
</g>
<!-- Node1&#45;&gt;Node6 -->
<g id="edge5" class="edge">
<title>Node1&#45;&gt;Node6</title>
<path fill="none" stroke="#63b8ff" d="M70.4,-73.63C87.92,-62.19 118.04,-43.05 145,-28.5 147.66,-27.06 150.45,-25.62 153.27,-24.21"/>
<polygon fill="#63b8ff" stroke="#63b8ff" points="154.57,-27.47 162.05,-19.97 151.53,-21.17 154.57,-27.47"/>
</g>
</g>
</svg>
