<?xml version="1.0" encoding="UTF-8" standalone="no"?>
<!DOCTYPE svg PUBLIC "-//W3C//DTD SVG 1.1//EN"
 "http://www.w3.org/Graphics/SVG/1.1/DTD/svg11.dtd">
<!-- Generated by graphviz version 2.40.1 (20161225.0304)
 -->
<!-- Title: arDetectMarker Pages: 1 -->
<!--zoomable 735 -->
<svg id="main" version="1.1" xmlns="http://www.w3.org/2000/svg" xmlns:xlink="http://www.w3.org/1999/xlink" xml:space="preserve" onload="init(evt)">
<style type="text/css"><![CDATA[
.edge:hover path { stroke: red; }
.edge:hover polygon { stroke: red; fill: red; }
]]></style>
<script type="text/javascript"><![CDATA[
var edges = document.getElementsByTagName('g');
if (edges && edges.length) {
  for (var i=0;i<edges.length;i++) {
    if (edges[i].id.substr(0,4)=='edge') {
      edges[i].setAttribute('class','edge');
    }
  }
}
]]></script>
        <defs>
                <circle id="rim" cx="0" cy="0" r="7"/>
                <circle id="rim2" cx="0" cy="0" r="3.5"/>
                <g id="zoomPlus">
                        <use xlink:href="#rim" fill="#404040">
                                <set attributeName="fill" to="#808080" begin="zoomplus.mouseover" end="zoomplus.mouseout"/>
                        </use>
                        <path d="M-4,0h8M0,-4v8" fill="none" stroke="white" stroke-width="1.5" pointer-events="none"/>
                </g>
                <g id="zoomMin">
                        <use xlink:href="#rim" fill="#404040">
                                <set attributeName="fill" to="#808080" begin="zoomminus.mouseover" end="zoomminus.mouseout"/>
                        </use>
                        <path d="M-4,0h8" fill="none" stroke="white" stroke-width="1.5" pointer-events="none"/>
                </g>
                <g id="dirArrow">
                        <path fill="none" stroke="white" stroke-width="1.5" d="M0,-3.0v7 M-2.5,-0.5L0,-3.0L2.5,-0.5"/>
                </g>
               <g id="resetDef">
                       <use xlink:href="#rim2" fill="#404040">
                               <set attributeName="fill" to="#808080" begin="reset.mouseover" end="reset.mouseout"/>
                       </use>
               </g>
        </defs>

<script type="text/javascript">
var viewWidth = 958;
var viewHeight = 735;
var sectionId = 'dynsection-18';
</script>
<script xlink:href="svgpan.js"/>
<svg id="graph" class="graph">
<g id="viewport">
<title>arDetectMarker</title>
<polygon fill="#ffffff" stroke="transparent" points="-4,4 -4,-731 954.1504,-731 954.1504,4 -4,4"/>
<!-- Node42 -->
<g id="node1" class="node">
<title>Node42</title>
<polygon fill="#bfbfbf" stroke="#000000" points="0,-167.5 0,-185.5 84.9063,-185.5 84.9063,-167.5 0,-167.5"/>
<text text-anchor="middle" x="42.4531" y="-173.5" font-family="Helvetica,sans-Serif" font-size="10.00" fill="#000000">arDetectMarker</text>
</g>
<!-- Node43 -->
<g id="node2" class="node">
<title>Node43</title>
<g id="a_node2"><a xlink:href="ar_labeling_8c.html#afff1a4731c179bd43f92e4c3d3b5e1fe" target="_top" xlink:title="arLabeling">
<polygon fill="#ffffff" stroke="#000000" points="175.0908,-486.5 175.0908,-504.5 237.7949,-504.5 237.7949,-486.5 175.0908,-486.5"/>
<text text-anchor="middle" x="206.4429" y="-492.5" font-family="Helvetica,sans-Serif" font-size="10.00" fill="#000000">arLabeling</text>
</a>
</g>
</g>
<!-- Node42&#45;&gt;Node43 -->
<g id="edge1" class="edge">
<title>Node42&#45;&gt;Node43</title>
<path fill="none" stroke="#191970" d="M47.1842,-185.703C69.7223,-229.5451 166.3752,-417.5586 197.0572,-477.2425"/>
<polygon fill="#191970" stroke="#191970" points="194.0078,-478.9662 201.6926,-486.2596 200.2334,-475.7658 194.0078,-478.9662"/>
</g>
<!-- Node56 -->
<g id="node15" class="node">
<title>Node56</title>
<g id="a_node15"><a xlink:href="ar_detect_marker2_8c.html#a8885f3a9c2ae28575db17bc235752ea4" target="_top" xlink:title="arDetectMarker2">
<polygon fill="#ffffff" stroke="#000000" points="161.209,-238.5 161.209,-256.5 251.6768,-256.5 251.6768,-238.5 161.209,-238.5"/>
<text text-anchor="middle" x="206.4429" y="-244.5" font-family="Helvetica,sans-Serif" font-size="10.00" fill="#000000">arDetectMarker2</text>
</a>
</g>
</g>
<!-- Node42&#45;&gt;Node56 -->
<g id="edge14" class="edge">
<title>Node42&#45;&gt;Node56</title>
<path fill="none" stroke="#191970" d="M63.5562,-185.6367C92.0923,-197.9915 143.1706,-220.106 175.8983,-234.2756"/>
<polygon fill="#191970" stroke="#191970" points="174.8533,-237.6371 185.4208,-238.3984 177.6346,-231.2133 174.8533,-237.6371"/>
</g>
<!-- Node58 -->
<g id="node17" class="node">
<title>Node58</title>
<g id="a_node17"><a xlink:href="ar_get_marker_info_8c.html#a9147cb6fc8ecd03a0ff580dc91f792c2" target="_top" xlink:title="Examine a set of detected squares for match with known markers. ">
<polygon fill="#ffffff" stroke="#000000" points="162.0415,-175.5 162.0415,-193.5 250.8442,-193.5 250.8442,-175.5 162.0415,-175.5"/>
<text text-anchor="middle" x="206.4429" y="-181.5" font-family="Helvetica,sans-Serif" font-size="10.00" fill="#000000">arGetMarkerInfo</text>
</a>
</g>
</g>
<!-- Node42&#45;&gt;Node58 -->
<g id="edge16" class="edge">
<title>Node42&#45;&gt;Node58</title>
<path fill="none" stroke="#191970" d="M85.1114,-178.581C105.5111,-179.5762 130.168,-180.779 151.9117,-181.8398"/>
<polygon fill="#191970" stroke="#191970" points="151.8361,-185.3402 161.9948,-182.3317 152.1772,-178.3485 151.8361,-185.3402"/>
</g>
<!-- Node70 -->
<g id="node29" class="node">
<title>Node70</title>
<g id="a_node29"><a xlink:href="ar_image_proc_8c.html#ad9cec305d9c18fa63cd9db8ff50dc0a8" target="_top" xlink:title="Calculate image histogram, and box filter image. ">
<polygon fill="#ffffff" stroke="#000000" points="131.1895,-110.5 131.1895,-138.5 281.6963,-138.5 281.6963,-110.5 131.1895,-110.5"/>
<text text-anchor="start" x="139.1895" y="-126.5" font-family="Helvetica,sans-Serif" font-size="10.00" fill="#000000">arImageProcLumaHistAndBox</text>
<text text-anchor="middle" x="206.4429" y="-116.5" font-family="Helvetica,sans-Serif" font-size="10.00" fill="#000000">FilterWithBias</text>
</a>
</g>
</g>
<!-- Node42&#45;&gt;Node70 -->
<g id="edge31" class="edge">
<title>Node42&#45;&gt;Node70</title>
<path fill="none" stroke="#191970" d="M71.018,-167.4423C93.4117,-160.3414 125.2232,-150.2542 152.3877,-141.6405"/>
<polygon fill="#191970" stroke="#191970" points="153.6851,-144.9009 162.1594,-138.542 151.5692,-138.2284 153.6851,-144.9009"/>
</g>
<!-- Node72 -->
<g id="node31" class="node">
<title>Node72</title>
<g id="a_node31"><a xlink:href="ar_image_proc_8c.html#a6e24e17a37a606c5eac24258b961c1e3" target="_top" xlink:title="Calculate image histogram, cumulative density function, and median luminance value. ">
<polygon fill="#ffffff" stroke="#000000" points="120.9063,-37.5 120.9063,-65.5 291.9795,-65.5 291.9795,-37.5 120.9063,-37.5"/>
<text text-anchor="start" x="128.9063" y="-53.5" font-family="Helvetica,sans-Serif" font-size="10.00" fill="#000000">arImageProcLumaHistAndCDFAnd</text>
<text text-anchor="middle" x="206.4429" y="-43.5" font-family="Helvetica,sans-Serif" font-size="10.00" fill="#000000">Median</text>
</a>
</g>
</g>
<!-- Node42&#45;&gt;Node72 -->
<g id="edge33" class="edge">
<title>Node42&#45;&gt;Node72</title>
<path fill="none" stroke="#191970" d="M50.5651,-167.476C64.186,-152.6294 92.9193,-122.597 120.9063,-101.5 136.0627,-90.0748 154.045,-79.2095 169.6012,-70.544"/>
<polygon fill="#191970" stroke="#191970" points="171.3471,-73.5785 178.4404,-65.7085 167.9875,-67.4373 171.3471,-73.5785"/>
</g>
<!-- Node75 -->
<g id="node34" class="node">
<title>Node75</title>
<g id="a_node34"><a xlink:href="ar_image_proc_8c.html#a943eb762bf7444095b99a1c8d9320dcf" target="_top" xlink:title="Calculate image histogram, and binarize image using Otsu&#39;s method for foreground/background separatio...">
<polygon fill="#ffffff" stroke="#000000" points="129.2461,-.5 129.2461,-18.5 283.6396,-18.5 283.6396,-.5 129.2461,-.5"/>
<text text-anchor="middle" x="206.4429" y="-6.5" font-family="Helvetica,sans-Serif" font-size="10.00" fill="#000000">arImageProcLumaHistAndOtsu</text>
</a>
</g>
</g>
<!-- Node42&#45;&gt;Node75 -->
<g id="edge37" class="edge">
<title>Node42&#45;&gt;Node75</title>
<path fill="none" stroke="#191970" d="M44.3964,-167.3799C50.5072,-141.0596 71.9129,-64.4966 120.9063,-27.5 123.0256,-25.8996 125.2548,-24.4339 127.5691,-23.092"/>
<polygon fill="#191970" stroke="#191970" points="129.4448,-26.0695 136.8644,-18.5065 126.3478,-19.7918 129.4448,-26.0695"/>
</g>
<!-- Node44 -->
<g id="node3" class="node">
<title>Node44</title>
<g id="a_node3"><a xlink:href="ar_labeling_private_8h.html#adfbd9da264905210ca8baa760ba4a215" target="_top" xlink:title="arLabelingSubDBZ">
<polygon fill="#ffffff" stroke="#000000" points="363.2676,-708.5 363.2676,-726.5 463.7646,-726.5 463.7646,-708.5 363.2676,-708.5"/>
<text text-anchor="middle" x="413.5161" y="-714.5" font-family="Helvetica,sans-Serif" font-size="10.00" fill="#000000">arLabelingSubDBZ</text>
</a>
</g>
</g>
<!-- Node43&#45;&gt;Node44 -->
<g id="edge2" class="edge">
<title>Node43&#45;&gt;Node44</title>
<path fill="none" stroke="#191970" d="M208.9778,-504.6397C218.4759,-537.0742 255.1937,-647.4879 327.9795,-699.5 335.5053,-704.8779 344.2965,-708.7153 353.3238,-711.4409"/>
<polygon fill="#191970" stroke="#191970" points="352.6059,-714.8702 363.1635,-713.9824 354.3565,-708.0927 352.6059,-714.8702"/>
</g>
<!-- Node45 -->
<g id="node4" class="node">
<title>Node45</title>
<g id="a_node4"><a xlink:href="ar_labeling_private_8h.html#a9c53562c077c1c65ddd84bb0e228c23f" target="_top" xlink:title="arLabelingSubDBRC">
<polygon fill="#ffffff" stroke="#000000" points="359.1001,-671.5 359.1001,-689.5 467.9321,-689.5 467.9321,-671.5 359.1001,-671.5"/>
<text text-anchor="middle" x="413.5161" y="-677.5" font-family="Helvetica,sans-Serif" font-size="10.00" fill="#000000">arLabelingSubDBRC</text>
</a>
</g>
</g>
<!-- Node43&#45;&gt;Node45 -->
<g id="edge3" class="edge">
<title>Node43&#45;&gt;Node45</title>
<path fill="none" stroke="#191970" d="M210.1512,-504.5389C222.3041,-532.9459 263.8647,-620.9922 327.9795,-662.5 334.2852,-666.5823 341.3504,-669.7589 348.6456,-672.2274"/>
<polygon fill="#191970" stroke="#191970" points="348.1056,-675.7164 358.6865,-675.1732 350.0763,-668.9995 348.1056,-675.7164"/>
</g>
<!-- Node46 -->
<g id="node5" class="node">
<title>Node46</title>
<g id="a_node5"><a xlink:href="ar_labeling_private_8h.html#a01ab2f426dfa5d7495b51718cd2a437b" target="_top" xlink:title="arLabelingSubDBIC">
<polygon fill="#ffffff" stroke="#000000" points="361.3218,-634.5 361.3218,-652.5 465.7104,-652.5 465.7104,-634.5 361.3218,-634.5"/>
<text text-anchor="middle" x="413.5161" y="-640.5" font-family="Helvetica,sans-Serif" font-size="10.00" fill="#000000">arLabelingSubDBIC</text>
</a>
</g>
</g>
<!-- Node43&#45;&gt;Node46 -->
<g id="edge4" class="edge">
<title>Node43&#45;&gt;Node46</title>
<path fill="none" stroke="#191970" d="M211.9726,-504.5137C227.1871,-528.4821 272.2633,-594.0986 327.9795,-625.5 335.1226,-629.5258 343.0607,-632.6541 351.1402,-635.0843"/>
<polygon fill="#191970" stroke="#191970" points="350.4575,-638.5245 361.0215,-637.716 352.2591,-631.7602 350.4575,-638.5245"/>
</g>
<!-- Node47 -->
<g id="node6" class="node">
<title>Node47</title>
<g id="a_node6"><a xlink:href="ar_labeling_private_8h.html#a70cda24a726bd6376e860587b5d02c80" target="_top" xlink:title="arLabelingSubDWZ">
<polygon fill="#ffffff" stroke="#000000" points="361.8833,-597.5 361.8833,-615.5 465.1489,-615.5 465.1489,-597.5 361.8833,-597.5"/>
<text text-anchor="middle" x="413.5161" y="-603.5" font-family="Helvetica,sans-Serif" font-size="10.00" fill="#000000">arLabelingSubDWZ</text>
</a>
</g>
</g>
<!-- Node43&#45;&gt;Node47 -->
<g id="edge5" class="edge">
<title>Node43&#45;&gt;Node47</title>
<path fill="none" stroke="#191970" d="M215.2537,-504.5634C234.0815,-523.3639 280.4099,-566.6672 327.9795,-588.5 335.4315,-591.9202 343.5482,-594.6985 351.7171,-596.9535"/>
<polygon fill="#191970" stroke="#191970" points="351.1146,-600.4109 361.666,-599.4526 352.82,-593.6218 351.1146,-600.4109"/>
</g>
<!-- Node48 -->
<g id="node7" class="node">
<title>Node48</title>
<g id="a_node7"><a xlink:href="ar_labeling_private_8h.html#ae8605e2e0a0f4ca9234abd9705bcc12d" target="_top" xlink:title="arLabelingSubDWRC">
<polygon fill="#ffffff" stroke="#000000" points="357.7158,-560.5 357.7158,-578.5 469.3164,-578.5 469.3164,-560.5 357.7158,-560.5"/>
<text text-anchor="middle" x="413.5161" y="-566.5" font-family="Helvetica,sans-Serif" font-size="10.00" fill="#000000">arLabelingSubDWRC</text>
</a>
</g>
</g>
<!-- Node43&#45;&gt;Node48 -->
<g id="edge6" class="edge">
<title>Node43&#45;&gt;Node48</title>
<path fill="none" stroke="#191970" d="M222.8684,-504.5163C245.7855,-516.756 288.9407,-538.5807 327.9795,-551.5 335.5589,-554.0083 343.6355,-556.2458 351.6849,-558.218"/>
<polygon fill="#191970" stroke="#191970" points="350.9214,-561.6338 361.4545,-560.4923 352.5085,-554.816 350.9214,-561.6338"/>
</g>
<!-- Node49 -->
<g id="node8" class="node">
<title>Node49</title>
<g id="a_node8"><a xlink:href="ar_labeling_private_8h.html#a0d5560b509fa46e721d16608e6e81a80" target="_top" xlink:title="arLabelingSubDWIC">
<polygon fill="#ffffff" stroke="#000000" points="359.9375,-523.5 359.9375,-541.5 467.0947,-541.5 467.0947,-523.5 359.9375,-523.5"/>
<text text-anchor="middle" x="413.5161" y="-529.5" font-family="Helvetica,sans-Serif" font-size="10.00" fill="#000000">arLabelingSubDWIC</text>
</a>
</g>
</g>
<!-- Node43&#45;&gt;Node49 -->
<g id="edge7" class="edge">
<title>Node43&#45;&gt;Node49</title>
<path fill="none" stroke="#191970" d="M237.8928,-501.1195C268.3237,-506.5569 315.2482,-514.9414 352.9395,-521.6761"/>
<polygon fill="#191970" stroke="#191970" points="352.3446,-525.1252 362.8044,-523.4388 353.576,-518.2343 352.3446,-525.1252"/>
</g>
<!-- Node50 -->
<g id="node9" class="node">
<title>Node50</title>
<g id="a_node9"><a xlink:href="ar_labeling_private_8h.html#a77d10e682cefa55c9bb7101ce0c87252" target="_top" xlink:title="arLabelingSubEBZ">
<polygon fill="#ffffff" stroke="#000000" points="363.5435,-486.5 363.5435,-504.5 463.4888,-504.5 463.4888,-486.5 363.5435,-486.5"/>
<text text-anchor="middle" x="413.5161" y="-492.5" font-family="Helvetica,sans-Serif" font-size="10.00" fill="#000000">arLabelingSubEBZ</text>
</a>
</g>
</g>
<!-- Node43&#45;&gt;Node50 -->
<g id="edge8" class="edge">
<title>Node43&#45;&gt;Node50</title>
<path fill="none" stroke="#191970" d="M237.8928,-495.5C268.2977,-495.5 315.1677,-495.5 352.8426,-495.5"/>
<polygon fill="#191970" stroke="#191970" points="353.2037,-499.0001 363.2036,-495.5 353.2036,-492.0001 353.2037,-499.0001"/>
</g>
<!-- Node51 -->
<g id="node10" class="node">
<title>Node51</title>
<g id="a_node10"><a xlink:href="ar_labeling_private_8h.html#a4eb04acfccf00cff5f83d11caec59b57" target="_top" xlink:title="arLabelingSubEBRC">
<polygon fill="#ffffff" stroke="#000000" points="359.376,-449.5 359.376,-467.5 467.6563,-467.5 467.6563,-449.5 359.376,-449.5"/>
<text text-anchor="middle" x="413.5161" y="-455.5" font-family="Helvetica,sans-Serif" font-size="10.00" fill="#000000">arLabelingSubEBRC</text>
</a>
</g>
</g>
<!-- Node43&#45;&gt;Node51 -->
<g id="edge9" class="edge">
<title>Node43&#45;&gt;Node51</title>
<path fill="none" stroke="#191970" d="M237.8928,-489.8805C268.3237,-484.4431 315.2482,-476.0586 352.9395,-469.3239"/>
<polygon fill="#191970" stroke="#191970" points="353.576,-472.7657 362.8044,-467.5612 352.3446,-465.8748 353.576,-472.7657"/>
</g>
<!-- Node52 -->
<g id="node11" class="node">
<title>Node52</title>
<g id="a_node11"><a xlink:href="ar_labeling_private_8h.html#a30603a3b7b928fb832e93d0524cd88e4" target="_top" xlink:title="arLabelingSubEBIC">
<polygon fill="#ffffff" stroke="#000000" points="361.5977,-412.5 361.5977,-430.5 465.4346,-430.5 465.4346,-412.5 361.5977,-412.5"/>
<text text-anchor="middle" x="413.5161" y="-418.5" font-family="Helvetica,sans-Serif" font-size="10.00" fill="#000000">arLabelingSubEBIC</text>
</a>
</g>
</g>
<!-- Node43&#45;&gt;Node52 -->
<g id="edge10" class="edge">
<title>Node43&#45;&gt;Node52</title>
<path fill="none" stroke="#191970" d="M223.6973,-486.3154C246.8537,-474.3126 289.5294,-453.3175 327.9795,-440.5 336.5639,-437.6383 345.7772,-435.0807 354.8636,-432.8404"/>
<polygon fill="#191970" stroke="#191970" points="355.7087,-436.2372 364.6378,-430.5345 354.1013,-429.4242 355.7087,-436.2372"/>
</g>
<!-- Node53 -->
<g id="node12" class="node">
<title>Node53</title>
<g id="a_node12"><a xlink:href="ar_labeling_private_8h.html#a55acba595c2539135641d14631167a55" target="_top" xlink:title="arLabelingSubEWZ">
<polygon fill="#ffffff" stroke="#000000" points="362.1592,-375.5 362.1592,-393.5 464.873,-393.5 464.873,-375.5 362.1592,-375.5"/>
<text text-anchor="middle" x="413.5161" y="-381.5" font-family="Helvetica,sans-Serif" font-size="10.00" fill="#000000">arLabelingSubEWZ</text>
</a>
</g>
</g>
<!-- Node43&#45;&gt;Node53 -->
<g id="edge11" class="edge">
<title>Node43&#45;&gt;Node53</title>
<path fill="none" stroke="#191970" d="M215.5841,-486.2964C234.67,-467.6364 280.9033,-425.2764 327.9795,-403.5 335.6205,-399.9654 343.9554,-397.0711 352.3272,-394.7054"/>
<polygon fill="#191970" stroke="#191970" points="353.3301,-398.0612 362.1323,-392.1645 351.5741,-391.2851 353.3301,-398.0612"/>
</g>
<!-- Node54 -->
<g id="node13" class="node">
<title>Node54</title>
<g id="a_node13"><a xlink:href="ar_labeling_private_8h.html#ad90a588db535feaba241624116cb1fdb" target="_top" xlink:title="arLabelingSubEWRC">
<polygon fill="#ffffff" stroke="#000000" points="357.9917,-338.5 357.9917,-356.5 469.0405,-356.5 469.0405,-338.5 357.9917,-338.5"/>
<text text-anchor="middle" x="413.5161" y="-344.5" font-family="Helvetica,sans-Serif" font-size="10.00" fill="#000000">arLabelingSubEWRC</text>
</a>
</g>
</g>
<!-- Node43&#45;&gt;Node54 -->
<g id="edge12" class="edge">
<title>Node43&#45;&gt;Node54</title>
<path fill="none" stroke="#191970" d="M212.2343,-486.2441C227.7562,-462.266 272.8738,-397.8234 327.9795,-366.5 334.253,-362.934 341.1386,-360.0371 348.1941,-357.6839"/>
<polygon fill="#191970" stroke="#191970" points="349.2935,-361.0085 357.8788,-354.8001 347.2958,-354.2996 349.2935,-361.0085"/>
</g>
<!-- Node55 -->
<g id="node14" class="node">
<title>Node55</title>
<g id="a_node14"><a xlink:href="ar_labeling_private_8h.html#afd2ba7ccd8dd8e4d17a184c9a37215c8" target="_top" xlink:title="arLabelingSubEWIC">
<polygon fill="#ffffff" stroke="#000000" points="360.2134,-301.5 360.2134,-319.5 466.8188,-319.5 466.8188,-301.5 360.2134,-301.5"/>
<text text-anchor="middle" x="413.5161" y="-307.5" font-family="Helvetica,sans-Serif" font-size="10.00" fill="#000000">arLabelingSubEWIC</text>
</a>
</g>
</g>
<!-- Node43&#45;&gt;Node55 -->
<g id="edge13" class="edge">
<title>Node43&#45;&gt;Node55</title>
<path fill="none" stroke="#191970" d="M210.3616,-486.1446C222.8395,-457.5777 264.5868,-370.9151 327.9795,-329.5 334.7699,-325.0638 342.4424,-321.6512 350.3349,-319.0285"/>
<polygon fill="#191970" stroke="#191970" points="351.4047,-322.3624 360.0267,-316.2052 349.4469,-315.6417 351.4047,-322.3624"/>
</g>
<!-- Node57 -->
<g id="node16" class="node">
<title>Node57</title>
<g id="a_node16"><a xlink:href="ar_detect_marker2_8c.html#a274e403d1435733b05081af10ad416d3" target="_top" xlink:title="arGetContour">
<polygon fill="#ffffff" stroke="#000000" points="375.2231,-264.5 375.2231,-282.5 451.8091,-282.5 451.8091,-264.5 375.2231,-264.5"/>
<text text-anchor="middle" x="413.5161" y="-270.5" font-family="Helvetica,sans-Serif" font-size="10.00" fill="#000000">arGetContour</text>
</a>
</g>
</g>
<!-- Node56&#45;&gt;Node57 -->
<g id="edge15" class="edge">
<title>Node56&#45;&gt;Node57</title>
<path fill="none" stroke="#191970" d="M251.886,-253.2058C285.3326,-257.4053 330.7378,-263.1064 364.9081,-267.3968"/>
<polygon fill="#191970" stroke="#191970" points="364.7681,-270.9066 375.1263,-268.6798 365.6402,-263.9612 364.7681,-270.9066"/>
</g>
<!-- Node59 -->
<g id="node18" class="node">
<title>Node59</title>
<g id="a_node18"><a xlink:href="param_8h.html#a7145069f057810d3b0a5a944060bdace" target="_top" xlink:title="Use a lookup&#45;table camera parameter to convert observed (distorted) window coordinates to idealised (...">
<polygon fill="#ffffff" stroke="#000000" points="548.1997,-339.5 548.1997,-357.5 675.7329,-357.5 675.7329,-339.5 548.1997,-339.5"/>
<text text-anchor="middle" x="611.9663" y="-345.5" font-family="Helvetica,sans-Serif" font-size="10.00" fill="#000000">arParamObserv2IdealLTf</text>
</a>
</g>
</g>
<!-- Node58&#45;&gt;Node59 -->
<g id="edge17" class="edge">
<title>Node58&#45;&gt;Node59</title>
<path fill="none" stroke="#191970" d="M239.6388,-193.5594C264.0271,-200.1373 297.9961,-209.1372 327.9795,-216.5 403.7128,-235.0972 438.1078,-206.8471 499.0527,-255.5 527.9488,-278.568 506.2231,-307.3491 535.0527,-330.5 536.8772,-331.9651 538.8002,-333.3149 540.8003,-334.5582"/>
<polygon fill="#191970" stroke="#191970" points="539.5138,-337.8346 549.999,-339.3549 542.7505,-331.6277 539.5138,-337.8346"/>
</g>
<!-- Node60 -->
<g id="node19" class="node">
<title>Node60</title>
<g id="a_node19"><a xlink:href="ar_get_line_8c.html#a4edefe6026de468f8892a6359db67fbc" target="_top" xlink:title="arGetLine">
<polygon fill="#ffffff" stroke="#000000" points="383.5581,-188.5 383.5581,-206.5 443.4741,-206.5 443.4741,-188.5 383.5581,-188.5"/>
<text text-anchor="middle" x="413.5161" y="-194.5" font-family="Helvetica,sans-Serif" font-size="10.00" fill="#000000">arGetLine</text>
</a>
</g>
</g>
<!-- Node58&#45;&gt;Node60 -->
<g id="edge18" class="edge">
<title>Node58&#45;&gt;Node60</title>
<path fill="none" stroke="#191970" d="M250.8653,-187.2888C287.1591,-189.5673 338.0271,-192.7608 373.1688,-194.967"/>
<polygon fill="#191970" stroke="#191970" points="373.3367,-198.4844 383.5364,-195.6179 373.7754,-191.4981 373.3367,-198.4844"/>
</g>
<!-- Node68 -->
<g id="node27" class="node">
<title>Node68</title>
<g id="a_node27"><a xlink:href="ar_patt_get_i_d_8c.html#acce963b8d7e85cedfcb4d33ece5f20db" target="_top" xlink:title="Match the interior of a detected square against known patterns with variable border width...">
<polygon fill="#ffffff" stroke="#000000" points="364.6641,-134.5 364.6641,-152.5 462.3682,-152.5 462.3682,-134.5 364.6641,-134.5"/>
<text text-anchor="middle" x="413.5161" y="-140.5" font-family="Helvetica,sans-Serif" font-size="10.00" fill="#000000">arPattGetIDGlobal</text>
</a>
</g>
</g>
<!-- Node58&#45;&gt;Node68 -->
<g id="edge29" class="edge">
<title>Node58&#45;&gt;Node68</title>
<path fill="none" stroke="#191970" d="M250.8653,-175.7045C282.0973,-169.5206 324.1219,-161.1998 357.6301,-154.5653"/>
<polygon fill="#191970" stroke="#191970" points="358.6047,-157.9404 367.7345,-152.5647 357.2451,-151.0737 358.6047,-157.9404"/>
</g>
<!-- Node60&#45;&gt;Node59 -->
<g id="edge21" class="edge">
<title>Node60&#45;&gt;Node59</title>
<path fill="none" stroke="#191970" d="M443.5085,-198.9825C461.7137,-201.4039 484.2218,-207.3282 499.0527,-221.5 535.9385,-256.7464 497.4065,-296.0671 535.0527,-330.5 536.5327,-331.8536 538.0946,-333.1114 539.7242,-334.2797"/>
<polygon fill="#191970" stroke="#191970" points="537.9844,-337.3171 548.3711,-339.4069 541.5547,-331.296 537.9844,-337.3171"/>
</g>
<!-- Node61 -->
<g id="node20" class="node">
<title>Node61</title>
<g id="a_node20"><a xlink:href="matrix_8h.html#ac94c691cd85259643eaef4162768e18a" target="_top" xlink:title="arVecAlloc">
<polygon fill="#ffffff" stroke="#000000" points="580.3408,-302.5 580.3408,-320.5 643.5918,-320.5 643.5918,-302.5 580.3408,-302.5"/>
<text text-anchor="middle" x="611.9663" y="-308.5" font-family="Helvetica,sans-Serif" font-size="10.00" fill="#000000">arVecAlloc</text>
</a>
</g>
</g>
<!-- Node60&#45;&gt;Node61 -->
<g id="edge19" class="edge">
<title>Node60&#45;&gt;Node61</title>
<path fill="none" stroke="#191970" d="M443.4761,-200.0756C461.2193,-202.924 483.2471,-208.9135 499.0527,-221.5 525.1908,-242.3145 509.2183,-266.3097 535.0527,-287.5 545.1228,-295.7598 558.0421,-301.186 570.406,-304.7473"/>
<polygon fill="#191970" stroke="#191970" points="569.5833,-308.1495 580.1375,-307.2221 571.3086,-301.3654 569.5833,-308.1495"/>
</g>
<!-- Node62 -->
<g id="node21" class="node">
<title>Node62</title>
<g id="a_node21"><a xlink:href="matrix_8h.html#a4ab6ed1bcea1368a2040e9779ab28b9b" target="_top" xlink:title="arMatrixAlloc">
<polygon fill="#ffffff" stroke="#000000" points="876.3623,-263.5 876.3623,-281.5 950.1504,-281.5 950.1504,-263.5 876.3623,-263.5"/>
<text text-anchor="middle" x="913.2563" y="-269.5" font-family="Helvetica,sans-Serif" font-size="10.00" fill="#000000">arMatrixAlloc</text>
</a>
</g>
</g>
<!-- Node60&#45;&gt;Node62 -->
<g id="edge20" class="edge">
<title>Node60&#45;&gt;Node62</title>
<path fill="none" stroke="#191970" d="M443.7087,-197.8349C460.901,-199.1966 482.2851,-202.9466 499.0527,-212.5 520.4143,-224.6709 512.9671,-243.6986 535.0527,-254.5 643.7602,-307.6653 791.6977,-293.6756 866.2298,-281.6216"/>
<polygon fill="#191970" stroke="#191970" points="866.9648,-285.0473 876.2477,-279.9408 865.8064,-278.1438 866.9648,-285.0473"/>
</g>
<!-- Node63 -->
<g id="node22" class="node">
<title>Node63</title>
<g id="a_node22"><a xlink:href="matrix_8h.html#a4551918179e71b9e67d8f44322e09dba" target="_top" xlink:title="arMatrixPCA">
<polygon fill="#ffffff" stroke="#000000" points="575.6289,-226.5 575.6289,-244.5 648.3037,-244.5 648.3037,-226.5 575.6289,-226.5"/>
<text text-anchor="middle" x="611.9663" y="-232.5" font-family="Helvetica,sans-Serif" font-size="10.00" fill="#000000">arMatrixPCA</text>
</a>
</g>
</g>
<!-- Node60&#45;&gt;Node63 -->
<g id="edge22" class="edge">
<title>Node60&#45;&gt;Node63</title>
<path fill="none" stroke="#191970" d="M443.6564,-203.2714C475.9667,-209.4583 527.6785,-219.3602 565.2641,-226.5573"/>
<polygon fill="#191970" stroke="#191970" points="564.9829,-230.067 575.4628,-228.5102 566.2995,-223.1919 564.9829,-230.067"/>
</g>
<!-- Node66 -->
<g id="node25" class="node">
<title>Node66</title>
<g id="a_node25"><a xlink:href="matrix_8h.html#a7b6cca2930147818bd060cddd5c5a28a" target="_top" xlink:title="arMatrixFree">
<polygon fill="#ffffff" stroke="#000000" points="876.9189,-189.5 876.9189,-207.5 949.5938,-207.5 949.5938,-189.5 876.9189,-189.5"/>
<text text-anchor="middle" x="913.2563" y="-195.5" font-family="Helvetica,sans-Serif" font-size="10.00" fill="#000000">arMatrixFree</text>
</a>
</g>
</g>
<!-- Node60&#45;&gt;Node66 -->
<g id="edge27" class="edge">
<title>Node60&#45;&gt;Node66</title>
<path fill="none" stroke="#191970" d="M443.6517,-197.5603C527.7239,-197.7285 765.2952,-198.2039 866.578,-198.4066"/>
<polygon fill="#191970" stroke="#191970" points="866.7991,-201.9069 876.8061,-198.4271 866.8131,-194.907 866.7991,-201.9069"/>
</g>
<!-- Node67 -->
<g id="node26" class="node">
<title>Node67</title>
<g id="a_node26"><a xlink:href="matrix_8h.html#a08c0d02dd8ddfb8a05d07f3fb80db2c4" target="_top" xlink:title="arVecFree">
<polygon fill="#ffffff" stroke="#000000" points="580.8975,-150.5 580.8975,-168.5 643.0352,-168.5 643.0352,-150.5 580.8975,-150.5"/>
<text text-anchor="middle" x="611.9663" y="-156.5" font-family="Helvetica,sans-Serif" font-size="10.00" fill="#000000">arVecFree</text>
</a>
</g>
</g>
<!-- Node60&#45;&gt;Node67 -->
<g id="edge28" class="edge">
<title>Node60&#45;&gt;Node67</title>
<path fill="none" stroke="#191970" d="M443.6564,-191.7286C477.5525,-185.2381 532.8012,-174.6588 570.6922,-167.4033"/>
<polygon fill="#191970" stroke="#191970" points="571.7236,-170.7695 580.8869,-165.4512 570.4071,-163.8944 571.7236,-170.7695"/>
</g>
<!-- Node64 -->
<g id="node23" class="node">
<title>Node64</title>
<g id="a_node23"><a xlink:href="matrix_8h.html#a312a4e43097686beff3b8b13f248da13" target="_top" xlink:title="arMatrixAllocDup">
<polygon fill="#ffffff" stroke="#000000" points="736.5547,-226.5 736.5547,-244.5 828.6875,-244.5 828.6875,-226.5 736.5547,-226.5"/>
<text text-anchor="middle" x="782.6211" y="-232.5" font-family="Helvetica,sans-Serif" font-size="10.00" fill="#000000">arMatrixAllocDup</text>
</a>
</g>
</g>
<!-- Node63&#45;&gt;Node64 -->
<g id="edge23" class="edge">
<title>Node63&#45;&gt;Node64</title>
<path fill="none" stroke="#191970" d="M648.576,-235.5C671.1284,-235.5 700.5091,-235.5 726.0142,-235.5"/>
<polygon fill="#191970" stroke="#191970" points="726.3076,-239.0001 736.3076,-235.5 726.3076,-232.0001 726.3076,-239.0001"/>
</g>
<!-- Node64&#45;&gt;Node62 -->
<g id="edge24" class="edge">
<title>Node64&#45;&gt;Node62</title>
<path fill="none" stroke="#191970" d="M814.5781,-244.5512C831.7377,-249.4114 853.0964,-255.4608 871.5498,-260.6874"/>
<polygon fill="#191970" stroke="#191970" points="870.6012,-264.0563 881.1765,-263.414 872.5088,-257.3213 870.6012,-264.0563"/>
</g>
<!-- Node65 -->
<g id="node24" class="node">
<title>Node65</title>
<g id="a_node24"><a xlink:href="matrix_8h.html#ab4713153a247e78332e6ce6dde31d2f4" target="_top" xlink:title="arMatrixDup">
<polygon fill="#ffffff" stroke="#000000" points="878.0273,-226.5 878.0273,-244.5 948.4854,-244.5 948.4854,-226.5 878.0273,-226.5"/>
<text text-anchor="middle" x="913.2563" y="-232.5" font-family="Helvetica,sans-Serif" font-size="10.00" fill="#000000">arMatrixDup</text>
</a>
</g>
</g>
<!-- Node64&#45;&gt;Node65 -->
<g id="edge25" class="edge">
<title>Node64&#45;&gt;Node65</title>
<path fill="none" stroke="#191970" d="M829.046,-235.5C841.5362,-235.5 855.0347,-235.5 867.4888,-235.5"/>
<polygon fill="#191970" stroke="#191970" points="867.6595,-239.0001 877.6595,-235.5 867.6594,-232.0001 867.6595,-239.0001"/>
</g>
<!-- Node64&#45;&gt;Node66 -->
<g id="edge26" class="edge">
<title>Node64&#45;&gt;Node66</title>
<path fill="none" stroke="#191970" d="M814.5781,-226.4488C831.7377,-221.5886 853.0964,-215.5392 871.5498,-210.3126"/>
<polygon fill="#191970" stroke="#191970" points="872.5088,-213.6787 881.1765,-207.586 870.6012,-206.9437 872.5088,-213.6787"/>
</g>
<!-- Node69 -->
<g id="node28" class="node">
<title>Node69</title>
<g id="a_node28"><a xlink:href="ar_patt_get_i_d_8c.html#a85629f26a05cd8cb8644c5e95e581d4d" target="_top" xlink:title="Extract the image (i.e. locate and unwarp) of the pattern&#45;space portion of a detected square...">
<polygon fill="#ffffff" stroke="#000000" points="565.8901,-113.5 565.8901,-131.5 658.0425,-131.5 658.0425,-113.5 565.8901,-113.5"/>
<text text-anchor="middle" x="611.9663" y="-119.5" font-family="Helvetica,sans-Serif" font-size="10.00" fill="#000000">arPattGetImage2</text>
</a>
</g>
</g>
<!-- Node68&#45;&gt;Node69 -->
<g id="edge30" class="edge">
<title>Node68&#45;&gt;Node69</title>
<path fill="none" stroke="#191970" d="M462.5712,-138.309C490.8064,-135.3211 526.3965,-131.555 555.7562,-128.4482"/>
<polygon fill="#191970" stroke="#191970" points="556.2829,-131.9121 565.859,-127.3791 555.5462,-124.9509 556.2829,-131.9121"/>
</g>
<!-- Node71 -->
<g id="node30" class="node">
<title>Node71</title>
<g id="a_node30"><a xlink:href="ar_image_proc_8c.html#a9bddf2e229ba8ea9a61ea1f2d5a61b2a" target="_top" xlink:title="Calculate luminance histogram. ">
<polygon fill="#ffffff" stroke="#000000" points="724.8799,-35.5 724.8799,-53.5 840.3623,-53.5 840.3623,-35.5 724.8799,-35.5"/>
<text text-anchor="middle" x="782.6211" y="-41.5" font-family="Helvetica,sans-Serif" font-size="10.00" fill="#000000">arImageProcLumaHist</text>
</a>
</g>
</g>
<!-- Node70&#45;&gt;Node71 -->
<g id="edge32" class="edge">
<title>Node70&#45;&gt;Node71</title>
<path fill="none" stroke="#191970" d="M281.9009,-116.7126C377.0685,-106.4887 545.5936,-87.0464 688.8799,-63.5 702.7245,-61.2249 717.6417,-58.3819 731.4154,-55.5937"/>
<polygon fill="#191970" stroke="#191970" points="732.1195,-59.0222 741.211,-53.582 730.7113,-52.1653 732.1195,-59.0222"/>
</g>
<!-- Node73 -->
<g id="node32" class="node">
<title>Node73</title>
<g id="a_node32"><a xlink:href="ar_image_proc_8c.html#a4de5049bd51eed6d973d8242cba2ee00" target="_top" xlink:title="Calculate image histogram, cumulative density function, and luminance value at a given histogram perc...">
<polygon fill="#ffffff" stroke="#000000" points="327.9795,-30.5 327.9795,-58.5 499.0527,-58.5 499.0527,-30.5 327.9795,-30.5"/>
<text text-anchor="start" x="335.9795" y="-46.5" font-family="Helvetica,sans-Serif" font-size="10.00" fill="#000000">arImageProcLumaHistAndCDFAnd</text>
<text text-anchor="middle" x="413.5161" y="-36.5" font-family="Helvetica,sans-Serif" font-size="10.00" fill="#000000">Percentile</text>
</a>
</g>
</g>
<!-- Node72&#45;&gt;Node73 -->
<g id="edge34" class="edge">
<title>Node72&#45;&gt;Node73</title>
<path fill="none" stroke="#191970" d="M292.1622,-48.6023C300.6392,-48.3157 309.2804,-48.0236 317.8493,-47.734"/>
<polygon fill="#191970" stroke="#191970" points="317.985,-51.2315 327.861,-47.3955 317.7485,-44.2355 317.985,-51.2315"/>
</g>
<!-- Node74 -->
<g id="node33" class="node">
<title>Node74</title>
<g id="a_node33"><a xlink:href="ar_image_proc_8c.html#afb1e9977532aec222fb1895c3d66b5f3" target="_top" xlink:title="Calculate image histogram and cumulative density function. ">
<polygon fill="#ffffff" stroke="#000000" points="535.0527,-35.5 535.0527,-53.5 688.8799,-53.5 688.8799,-35.5 535.0527,-35.5"/>
<text text-anchor="middle" x="611.9663" y="-41.5" font-family="Helvetica,sans-Serif" font-size="10.00" fill="#000000">arImageProcLumaHistAndCDF</text>
</a>
</g>
</g>
<!-- Node73&#45;&gt;Node74 -->
<g id="edge35" class="edge">
<title>Node73&#45;&gt;Node74</title>
<path fill="none" stroke="#191970" d="M499.1168,-44.5C507.5442,-44.5 516.1054,-44.5 524.5508,-44.5"/>
<polygon fill="#191970" stroke="#191970" points="524.7781,-48.0001 534.7781,-44.5 524.778,-41.0001 524.7781,-48.0001"/>
</g>
<!-- Node74&#45;&gt;Node71 -->
<g id="edge36" class="edge">
<title>Node74&#45;&gt;Node71</title>
<path fill="none" stroke="#191970" d="M689.3047,-44.5C697.7688,-44.5 706.3387,-44.5 714.6773,-44.5"/>
<polygon fill="#191970" stroke="#191970" points="714.7113,-48.0001 724.7112,-44.5 714.7112,-41.0001 714.7113,-48.0001"/>
</g>
<!-- Node75&#45;&gt;Node71 -->
<g id="edge38" class="edge">
<title>Node75&#45;&gt;Node71</title>
<path fill="none" stroke="#191970" d="M284.0284,-8.1048C379.5987,-7.2982 546.7582,-8.8582 688.8799,-25.5 704.1563,-27.2888 720.65,-30.2705 735.4802,-33.3477"/>
<polygon fill="#191970" stroke="#191970" points="734.9351,-36.8102 745.4461,-35.4798 736.3996,-29.9651 734.9351,-36.8102"/>
</g>
</g>
</svg>
        <g id="navigator" transform="translate(0 0)" fill="#404254">
                <rect fill="#f2f5e9" fill-opacity="0.5" stroke="#606060" stroke-width=".5" x="0" y="0" width="60" height="60"/>
                <use id="zoomplus" xlink:href="#zoomPlus" x="17" y="9" onmousedown="handleZoom(evt,'in')"/>
                <use id="zoomminus" xlink:href="#zoomMin" x="42" y="9" onmousedown="handleZoom(evt,'out')"/>
                <use id="reset" xlink:href="#resetDef" x="30" y="36" onmousedown="handleReset()"/>
                <g id="arrowUp" xlink:href="#dirArrow" transform="translate(30 24)" onmousedown="handlePan(0,-1)">
                  <use xlink:href="#rim" fill="#404040">
                        <set attributeName="fill" to="#808080" begin="arrowUp.mouseover" end="arrowUp.mouseout"/>
                  </use>
                  <path fill="none" stroke="white" stroke-width="1.5" d="M0,-3.0v7 M-2.5,-0.5L0,-3.0L2.5,-0.5"/>
                </g>
                <g id="arrowRight" xlink:href="#dirArrow" transform="rotate(90) translate(36 -43)" onmousedown="handlePan(1,0)">
                  <use xlink:href="#rim" fill="#404040">
                        <set attributeName="fill" to="#808080" begin="arrowRight.mouseover" end="arrowRight.mouseout"/>
                  </use>
                  <path fill="none" stroke="white" stroke-width="1.5" d="M0,-3.0v7 M-2.5,-0.5L0,-3.0L2.5,-0.5"/>
                </g>
                <g id="arrowDown" xlink:href="#dirArrow" transform="rotate(180) translate(-30 -48)" onmousedown="handlePan(0,1)">
                  <use xlink:href="#rim" fill="#404040">
                        <set attributeName="fill" to="#808080" begin="arrowDown.mouseover" end="arrowDown.mouseout"/>
                  </use>
                  <path fill="none" stroke="white" stroke-width="1.5" d="M0,-3.0v7 M-2.5,-0.5L0,-3.0L2.5,-0.5"/>
                </g>
                <g id="arrowLeft" xlink:href="#dirArrow" transform="rotate(270) translate(-36 17)" onmousedown="handlePan(-1,0)">
                  <use xlink:href="#rim" fill="#404040">
                        <set attributeName="fill" to="#808080" begin="arrowLeft.mouseover" end="arrowLeft.mouseout"/>
                  </use>
                  <path fill="none" stroke="white" stroke-width="1.5" d="M0,-3.0v7 M-2.5,-0.5L0,-3.0L2.5,-0.5"/>
                </g>
        </g>
        <svg viewBox="0 0 15 15" width="100%" height="30px" preserveAspectRatio="xMaxYMin meet">
         <g id="arrow_out" transform="scale(0.3 0.3)">
          <a xlink:href="ar_8h_ac7906b23bc4f2548abf1bb9209c45093_cgraph_org.svg" target="_base">
           <rect id="button" ry="5" rx="5" y="6" x="6" height="38" width="38"
                fill="#f2f5e9" fill-opacity="0.5" stroke="#606060" stroke-width="1.0"/>
           <path id="arrow"
             d="M 11.500037,31.436501 C 11.940474,20.09759 22.043105,11.32322 32.158766,21.979434 L 37.068811,17.246167 C 37.068811,17.246167 37.088388,32 37.088388,32 L 22.160133,31.978069 C 22.160133,31.978069 26.997745,27.140456 26.997745,27.140456 C 18.528582,18.264221 13.291696,25.230495 11.500037,31.436501 z"
             style="fill:#404040;"/>
          </a>
         </g>
        </svg>
</svg>
