<?xml version="1.0" encoding="UTF-8" standalone="no"?>
<!DOCTYPE svg PUBLIC "-//W3C//DTD SVG 1.1//EN"
 "http://www.w3.org/Graphics/SVG/1.1/DTD/svg11.dtd">
<!-- Generated by graphviz version 2.40.1 (20161225.0304)
 -->
<!-- Title: ar3DChangeLoopBreakThreshRatio Pages: 1 -->
<svg width="334pt" height="37pt"
 viewBox="0.00 0.00 333.92 37.00" xmlns="http://www.w3.org/2000/svg" xmlns:xlink="http://www.w3.org/1999/xlink">
<g id="graph0" class="graph" transform="scale(1 1) rotate(0) translate(4 33)">
<title>ar3DChangeLoopBreakThreshRatio</title>
<polygon fill="#ffffff" stroke="transparent" points="-4,4 -4,-33 329.9248,-33 329.9248,4 -4,4"/>
<!-- Node4 -->
<g id="node1" class="node">
<title>Node4</title>
<polygon fill="#bfbfbf" stroke="#000000" points="0,-.5 0,-28.5 152.1963,-28.5 152.1963,-.5 0,-.5"/>
<text text-anchor="start" x="8" y="-16.5" font-family="Helvetica,sans-Serif" font-size="10.00" fill="#000000">ar3DChangeLoopBreakThresh</text>
<text text-anchor="middle" x="76.0981" y="-6.5" font-family="Helvetica,sans-Serif" font-size="10.00" fill="#000000">Ratio</text>
</g>
<!-- Node5 -->
<g id="node2" class="node">
<title>Node5</title>
<g id="a_node2"><a xlink:href="icp_handle_8c.html#ab19a98950bfaa5b413e8e34c9b7b0ad4" target="_top" xlink:title="icpSetBreakLoopErrorRatio\lThresh">
<polygon fill="#ffffff" stroke="#000000" points="188.1963,-.5 188.1963,-28.5 325.9248,-28.5 325.9248,-.5 188.1963,-.5"/>
<text text-anchor="start" x="196.1963" y="-16.5" font-family="Helvetica,sans-Serif" font-size="10.00" fill="#000000">icpSetBreakLoopErrorRatio</text>
<text text-anchor="middle" x="257.0605" y="-6.5" font-family="Helvetica,sans-Serif" font-size="10.00" fill="#000000">Thresh</text>
</a>
</g>
</g>
<!-- Node4&#45;&gt;Node5 -->
<g id="edge1" class="edge">
<title>Node4&#45;&gt;Node5</title>
<path fill="none" stroke="#191970" d="M152.318,-14.5C160.7646,-14.5 169.3814,-14.5 177.8637,-14.5"/>
<polygon fill="#191970" stroke="#191970" points="178.1232,-18.0001 188.1231,-14.5 178.1231,-11.0001 178.1232,-18.0001"/>
</g>
</g>
</svg>
