<?xml version="1.0" encoding="UTF-8" standalone="no"?>
<!DOCTYPE svg PUBLIC "-//W3C//DTD SVG 1.1//EN"
 "http://www.w3.org/Graphics/SVG/1.1/DTD/svg11.dtd">
<!-- Generated by graphviz version 2.40.1 (20161225.0304)
 -->
<!-- Title: arUtilGetResourcesDirectoryPath Pages: 1 -->
<!--zoomable 79 -->
<svg id="main" version="1.1" xmlns="http://www.w3.org/2000/svg" xmlns:xlink="http://www.w3.org/1999/xlink" xml:space="preserve" onload="init(evt)">
<style type="text/css"><![CDATA[
.edge:hover path { stroke: red; }
.edge:hover polygon { stroke: red; fill: red; }
]]></style>
<script type="text/javascript"><![CDATA[
var edges = document.getElementsByTagName('g');
if (edges && edges.length) {
  for (var i=0;i<edges.length;i++) {
    if (edges[i].id.substr(0,4)=='edge') {
      edges[i].setAttribute('class','edge');
    }
  }
}
]]></script>
        <defs>
                <circle id="rim" cx="0" cy="0" r="7"/>
                <circle id="rim2" cx="0" cy="0" r="3.5"/>
                <g id="zoomPlus">
                        <use xlink:href="#rim" fill="#404040">
                                <set attributeName="fill" to="#808080" begin="zoomplus.mouseover" end="zoomplus.mouseout"/>
                        </use>
                        <path d="M-4,0h8M0,-4v8" fill="none" stroke="white" stroke-width="1.5" pointer-events="none"/>
                </g>
                <g id="zoomMin">
                        <use xlink:href="#rim" fill="#404040">
                                <set attributeName="fill" to="#808080" begin="zoomminus.mouseover" end="zoomminus.mouseout"/>
                        </use>
                        <path d="M-4,0h8" fill="none" stroke="white" stroke-width="1.5" pointer-events="none"/>
                </g>
                <g id="dirArrow">
                        <path fill="none" stroke="white" stroke-width="1.5" d="M0,-3.0v7 M-2.5,-0.5L0,-3.0L2.5,-0.5"/>
                </g>
               <g id="resetDef">
                       <use xlink:href="#rim2" fill="#404040">
                               <set attributeName="fill" to="#808080" begin="reset.mouseover" end="reset.mouseout"/>
                       </use>
               </g>
        </defs>

<script type="text/javascript">
var viewWidth = 574;
var viewHeight = 79;
var sectionId = 'dynsection-45';
</script>
<script xlink:href="svgpan.js"/>
<svg id="graph" class="graph">
<g id="viewport">
<title>arUtilGetResourcesDirectoryPath</title>
<polygon fill="#ffffff" stroke="transparent" points="-4,4 -4,-75.1755 569.6885,-75.1755 569.6885,4 -4,4"/>
<!-- Node243 -->
<g id="node1" class="node">
<title>Node243</title>
<polygon fill="#bfbfbf" stroke="#000000" points="0,-19.5 0,-37.5 163.8271,-37.5 163.8271,-19.5 0,-19.5"/>
<text text-anchor="middle" x="81.9136" y="-25.5" font-family="Helvetica,sans-Serif" font-size="10.00" fill="#000000">arUtilGetResourcesDirectoryPath</text>
</g>
<!-- Node244 -->
<g id="node2" class="node">
<title>Node244</title>
<g id="a_node2"><a xlink:href="ar_util_8c.html#ae4f3e60c7edce9acfdddb9b454d13c1d" target="_top" xlink:title="arUtilGetDirectoryNameFromPath">
<polygon fill="#ffffff" stroke="#000000" points="399.6543,-37.5 399.6543,-55.5 565.6885,-55.5 565.6885,-37.5 399.6543,-37.5"/>
<text text-anchor="middle" x="482.6714" y="-43.5" font-family="Helvetica,sans-Serif" font-size="10.00" fill="#000000">arUtilGetDirectoryNameFromPath</text>
</a>
</g>
</g>
<!-- Node243&#45;&gt;Node244 -->
<g id="edge1" class="edge">
<title>Node243&#45;&gt;Node244</title>
<path fill="none" stroke="#191970" d="M103.6051,-37.5043C126.9074,-46.6517 165.2584,-60.2037 199.8271,-65.5 278.5327,-77.5586 370.7246,-66.7872 427.9222,-57.2257"/>
<polygon fill="#191970" stroke="#191970" points="428.5733,-60.6652 437.8359,-55.5217 427.3875,-53.7663 428.5733,-60.6652"/>
</g>
<!-- Node245 -->
<g id="node3" class="node">
<title>Node245</title>
<g id="a_node3"><a xlink:href="ar_util_8c.html#ac0d48e09db3feb8db34b2911ca70f8d0" target="_top" xlink:title="arUtilGetFileNameFromPath">
<polygon fill="#ffffff" stroke="#000000" points="411.6001,-.5 411.6001,-18.5 553.7427,-18.5 553.7427,-.5 411.6001,-.5"/>
<text text-anchor="middle" x="482.6714" y="-6.5" font-family="Helvetica,sans-Serif" font-size="10.00" fill="#000000">arUtilGetFileNameFromPath</text>
</a>
</g>
</g>
<!-- Node243&#45;&gt;Node245 -->
<g id="edge2" class="edge">
<title>Node243&#45;&gt;Node245</title>
<path fill="none" stroke="#191970" d="M127.0632,-19.4906C148.9367,-15.5709 175.6444,-11.4359 199.8271,-9.5 267.4499,-4.0867 344.4586,-4.516 401.0293,-6.0585"/>
<polygon fill="#191970" stroke="#191970" points="401.2502,-9.5663 411.3476,-6.3583 401.4535,-2.5692 401.2502,-9.5663"/>
</g>
<!-- Node246 -->
<g id="node4" class="node">
<title>Node246</title>
<g id="a_node4"><a xlink:href="ar_util_8c.html#ad5271b5188c065012893079f667e2eac" target="_top" xlink:title="Get the path to the resources directory using the specified behavior. ">
<polygon fill="#ffffff" stroke="#000000" points="199.8271,-19.5 199.8271,-37.5 363.6543,-37.5 363.6543,-19.5 199.8271,-19.5"/>
<text text-anchor="middle" x="281.7407" y="-25.5" font-family="Helvetica,sans-Serif" font-size="10.00" fill="#000000">arUtilGetResourcesDirectoryPath</text>
</a>
</g>
</g>
<!-- Node243&#45;&gt;Node246 -->
<g id="edge3" class="edge">
<title>Node243&#45;&gt;Node246</title>
<path fill="none" stroke="#191970" d="M164.056,-28.5C172.3978,-28.5 180.9103,-28.5 189.3508,-28.5"/>
<polygon fill="#191970" stroke="#191970" points="189.5944,-32.0001 199.5944,-28.5 189.5943,-25.0001 189.5944,-32.0001"/>
</g>
<!-- Node246&#45;&gt;Node244 -->
<g id="edge4" class="edge">
<title>Node246&#45;&gt;Node244</title>
<path fill="none" stroke="#191970" d="M363.7567,-35.8473C372.2582,-36.6088 380.9421,-37.3868 389.5537,-38.1582"/>
<polygon fill="#191970" stroke="#191970" points="389.342,-41.6532 399.6145,-39.0595 389.9667,-34.6811 389.342,-41.6532"/>
</g>
<!-- Node246&#45;&gt;Node245 -->
<g id="edge5" class="edge">
<title>Node246&#45;&gt;Node245</title>
<path fill="none" stroke="#191970" d="M363.7567,-20.7446C376.1342,-19.5742 388.8985,-18.3672 401.2631,-17.198"/>
<polygon fill="#191970" stroke="#191970" points="401.912,-20.6523 411.538,-16.2264 401.2529,-13.6834 401.912,-20.6523"/>
</g>
<!-- Node246&#45;&gt;Node246 -->
<g id="edge6" class="edge">
<title>Node246&#45;&gt;Node246</title>
<path fill="none" stroke="#191970" d="M252.2383,-37.5134C235.9417,-46.322 245.7759,-56 281.7407,-56 308.1524,-56 320.4716,-50.7806 318.6984,-44.5191"/>
<polygon fill="#191970" stroke="#191970" points="320.9273,-41.8108 311.2431,-37.5134 316.1338,-46.912 320.9273,-41.8108"/>
</g>
</g>
</svg>
        <g id="navigator" transform="translate(0 0)" fill="#404254">
                <rect fill="#f2f5e9" fill-opacity="0.5" stroke="#606060" stroke-width=".5" x="0" y="0" width="60" height="60"/>
                <use id="zoomplus" xlink:href="#zoomPlus" x="17" y="9" onmousedown="handleZoom(evt,'in')"/>
                <use id="zoomminus" xlink:href="#zoomMin" x="42" y="9" onmousedown="handleZoom(evt,'out')"/>
                <use id="reset" xlink:href="#resetDef" x="30" y="36" onmousedown="handleReset()"/>
                <g id="arrowUp" xlink:href="#dirArrow" transform="translate(30 24)" onmousedown="handlePan(0,-1)">
                  <use xlink:href="#rim" fill="#404040">
                        <set attributeName="fill" to="#808080" begin="arrowUp.mouseover" end="arrowUp.mouseout"/>
                  </use>
                  <path fill="none" stroke="white" stroke-width="1.5" d="M0,-3.0v7 M-2.5,-0.5L0,-3.0L2.5,-0.5"/>
                </g>
                <g id="arrowRight" xlink:href="#dirArrow" transform="rotate(90) translate(36 -43)" onmousedown="handlePan(1,0)">
                  <use xlink:href="#rim" fill="#404040">
                        <set attributeName="fill" to="#808080" begin="arrowRight.mouseover" end="arrowRight.mouseout"/>
                  </use>
                  <path fill="none" stroke="white" stroke-width="1.5" d="M0,-3.0v7 M-2.5,-0.5L0,-3.0L2.5,-0.5"/>
                </g>
                <g id="arrowDown" xlink:href="#dirArrow" transform="rotate(180) translate(-30 -48)" onmousedown="handlePan(0,1)">
                  <use xlink:href="#rim" fill="#404040">
                        <set attributeName="fill" to="#808080" begin="arrowDown.mouseover" end="arrowDown.mouseout"/>
                  </use>
                  <path fill="none" stroke="white" stroke-width="1.5" d="M0,-3.0v7 M-2.5,-0.5L0,-3.0L2.5,-0.5"/>
                </g>
                <g id="arrowLeft" xlink:href="#dirArrow" transform="rotate(270) translate(-36 17)" onmousedown="handlePan(-1,0)">
                  <use xlink:href="#rim" fill="#404040">
                        <set attributeName="fill" to="#808080" begin="arrowLeft.mouseover" end="arrowLeft.mouseout"/>
                  </use>
                  <path fill="none" stroke="white" stroke-width="1.5" d="M0,-3.0v7 M-2.5,-0.5L0,-3.0L2.5,-0.5"/>
                </g>
        </g>
        <svg viewBox="0 0 15 15" width="100%" height="30px" preserveAspectRatio="xMaxYMin meet">
         <g id="arrow_out" transform="scale(0.3 0.3)">
          <a xlink:href="ar_8h_aa6538db7ff47daa4559c5b1c6fb7b8b1_cgraph_org.svg" target="_base">
           <rect id="button" ry="5" rx="5" y="6" x="6" height="38" width="38"
                fill="#f2f5e9" fill-opacity="0.5" stroke="#606060" stroke-width="1.0"/>
           <path id="arrow"
             d="M 11.500037,31.436501 C 11.940474,20.09759 22.043105,11.32322 32.158766,21.979434 L 37.068811,17.246167 C 37.068811,17.246167 37.088388,32 37.088388,32 L 22.160133,31.978069 C 22.160133,31.978069 26.997745,27.140456 26.997745,27.140456 C 18.528582,18.264221 13.291696,25.230495 11.500037,31.436501 z"
             style="fill:#404040;"/>
          </a>
         </g>
        </svg>
</svg>
