<?xml version="1.0" encoding="UTF-8" standalone="no"?>
<!DOCTYPE svg PUBLIC "-//W3C//DTD SVG 1.1//EN"
 "http://www.w3.org/Graphics/SVG/1.1/DTD/svg11.dtd">
<!-- Generated by graphviz version 2.40.1 (20161225.0304)
 -->
<!-- Title: arLabeling Pages: 1 -->
<svg width="218pt" height="434pt"
 viewBox="0.00 0.00 218.30 434.00" xmlns="http://www.w3.org/2000/svg" xmlns:xlink="http://www.w3.org/1999/xlink">
<g id="graph0" class="graph" transform="scale(1 1) rotate(0) translate(4 430)">
<title>arLabeling</title>
<polygon fill="#ffffff" stroke="transparent" points="-4,4 -4,-430 214.3047,-430 214.3047,4 -4,4"/>
<!-- Node169 -->
<g id="node1" class="node">
<title>Node169</title>
<polygon fill="#bfbfbf" stroke="#000000" points="0,-203.5 0,-221.5 62.7041,-221.5 62.7041,-203.5 0,-203.5"/>
<text text-anchor="middle" x="31.3521" y="-209.5" font-family="Helvetica,sans-Serif" font-size="10.00" fill="#000000">arLabeling</text>
</g>
<!-- Node170 -->
<g id="node2" class="node">
<title>Node170</title>
<g id="a_node2"><a xlink:href="ar_labeling_private_8h.html#adfbd9da264905210ca8baa760ba4a215" target="_top" xlink:title="arLabelingSubDBZ">
<polygon fill="#ffffff" stroke="#000000" points="104.2559,-407.5 104.2559,-425.5 204.7529,-425.5 204.7529,-407.5 104.2559,-407.5"/>
<text text-anchor="middle" x="154.5044" y="-413.5" font-family="Helvetica,sans-Serif" font-size="10.00" fill="#000000">arLabelingSubDBZ</text>
</a>
</g>
</g>
<!-- Node169&#45;&gt;Node170 -->
<g id="edge1" class="edge">
<title>Node169&#45;&gt;Node170</title>
<path fill="none" stroke="#191970" d="M31.9258,-221.7551C34.2878,-251.7768 45.824,-347.4585 98.7041,-398.5 100.1323,-399.8785 101.6666,-401.1514 103.2827,-402.3269"/>
<polygon fill="#191970" stroke="#191970" points="101.5396,-405.3622 111.9309,-407.4292 105.0967,-399.3333 101.5396,-405.3622"/>
</g>
<!-- Node171 -->
<g id="node3" class="node">
<title>Node171</title>
<g id="a_node3"><a xlink:href="ar_labeling_private_8h.html#a9c53562c077c1c65ddd84bb0e228c23f" target="_top" xlink:title="arLabelingSubDBRC">
<polygon fill="#ffffff" stroke="#000000" points="100.0884,-370.5 100.0884,-388.5 208.9204,-388.5 208.9204,-370.5 100.0884,-370.5"/>
<text text-anchor="middle" x="154.5044" y="-376.5" font-family="Helvetica,sans-Serif" font-size="10.00" fill="#000000">arLabelingSubDBRC</text>
</a>
</g>
</g>
<!-- Node169&#45;&gt;Node171 -->
<g id="edge2" class="edge">
<title>Node169&#45;&gt;Node171</title>
<path fill="none" stroke="#191970" d="M32.855,-221.7256C37.5662,-247.6743 54.4584,-321.9715 98.7041,-361.5 100.2413,-362.8733 101.8844,-364.1419 103.6071,-365.3139"/>
<polygon fill="#191970" stroke="#191970" points="102.3211,-368.6036 112.7617,-370.4051 105.7234,-362.486 102.3211,-368.6036"/>
</g>
<!-- Node172 -->
<g id="node4" class="node">
<title>Node172</title>
<g id="a_node4"><a xlink:href="ar_labeling_private_8h.html#a01ab2f426dfa5d7495b51718cd2a437b" target="_top" xlink:title="arLabelingSubDBIC">
<polygon fill="#ffffff" stroke="#000000" points="102.3101,-333.5 102.3101,-351.5 206.6987,-351.5 206.6987,-333.5 102.3101,-333.5"/>
<text text-anchor="middle" x="154.5044" y="-339.5" font-family="Helvetica,sans-Serif" font-size="10.00" fill="#000000">arLabelingSubDBIC</text>
</a>
</g>
</g>
<!-- Node169&#45;&gt;Node172 -->
<g id="edge3" class="edge">
<title>Node169&#45;&gt;Node172</title>
<path fill="none" stroke="#191970" d="M34.2855,-221.5453C41.6222,-242.7486 62.7996,-296.013 98.7041,-324.5 100.7275,-326.1054 102.8981,-327.5694 105.1667,-328.9043"/>
<polygon fill="#191970" stroke="#191970" points="103.7858,-332.1263 114.2991,-333.4386 106.8988,-325.8566 103.7858,-332.1263"/>
</g>
<!-- Node173 -->
<g id="node5" class="node">
<title>Node173</title>
<g id="a_node5"><a xlink:href="ar_labeling_private_8h.html#a70cda24a726bd6376e860587b5d02c80" target="_top" xlink:title="arLabelingSubDWZ">
<polygon fill="#ffffff" stroke="#000000" points="102.8716,-296.5 102.8716,-314.5 206.1372,-314.5 206.1372,-296.5 102.8716,-296.5"/>
<text text-anchor="middle" x="154.5044" y="-302.5" font-family="Helvetica,sans-Serif" font-size="10.00" fill="#000000">arLabelingSubDWZ</text>
</a>
</g>
</g>
<!-- Node169&#45;&gt;Node173 -->
<g id="edge4" class="edge">
<title>Node169&#45;&gt;Node173</title>
<path fill="none" stroke="#191970" d="M37.2417,-221.7734C47.718,-237.5383 71.1037,-269.5919 98.7041,-287.5 101.4793,-289.3007 104.4492,-290.9342 107.5197,-292.4141"/>
<polygon fill="#191970" stroke="#191970" points="106.3654,-295.7263 116.9385,-296.4061 109.0971,-289.2812 106.3654,-295.7263"/>
</g>
<!-- Node174 -->
<g id="node6" class="node">
<title>Node174</title>
<g id="a_node6"><a xlink:href="ar_labeling_private_8h.html#ae8605e2e0a0f4ca9234abd9705bcc12d" target="_top" xlink:title="arLabelingSubDWRC">
<polygon fill="#ffffff" stroke="#000000" points="98.7041,-259.5 98.7041,-277.5 210.3047,-277.5 210.3047,-259.5 98.7041,-259.5"/>
<text text-anchor="middle" x="154.5044" y="-265.5" font-family="Helvetica,sans-Serif" font-size="10.00" fill="#000000">arLabelingSubDWRC</text>
</a>
</g>
</g>
<!-- Node169&#45;&gt;Node174 -->
<g id="edge5" class="edge">
<title>Node169&#45;&gt;Node174</title>
<path fill="none" stroke="#191970" d="M45.3725,-221.5183C58.7059,-229.824 79.5197,-242.0965 98.7041,-250.5 103.3631,-252.5408 108.3293,-254.4707 113.3052,-256.2553"/>
<polygon fill="#191970" stroke="#191970" points="112.2134,-259.5808 122.8079,-259.4988 114.4747,-252.9561 112.2134,-259.5808"/>
</g>
<!-- Node175 -->
<g id="node7" class="node">
<title>Node175</title>
<g id="a_node7"><a xlink:href="ar_labeling_private_8h.html#a0d5560b509fa46e721d16608e6e81a80" target="_top" xlink:title="arLabelingSubDWIC">
<polygon fill="#ffffff" stroke="#000000" points="100.9258,-222.5 100.9258,-240.5 208.083,-240.5 208.083,-222.5 100.9258,-222.5"/>
<text text-anchor="middle" x="154.5044" y="-228.5" font-family="Helvetica,sans-Serif" font-size="10.00" fill="#000000">arLabelingSubDWIC</text>
</a>
</g>
</g>
<!-- Node169&#45;&gt;Node175 -->
<g id="edge6" class="edge">
<title>Node169&#45;&gt;Node175</title>
<path fill="none" stroke="#191970" d="M62.7472,-217.3437C71.3156,-218.6656 80.9197,-220.1473 90.6007,-221.6409"/>
<polygon fill="#191970" stroke="#191970" points="90.2602,-225.1297 100.6769,-223.1955 91.3276,-218.2116 90.2602,-225.1297"/>
</g>
<!-- Node176 -->
<g id="node8" class="node">
<title>Node176</title>
<g id="a_node8"><a xlink:href="ar_labeling_private_8h.html#a77d10e682cefa55c9bb7101ce0c87252" target="_top" xlink:title="arLabelingSubEBZ">
<polygon fill="#ffffff" stroke="#000000" points="104.5317,-185.5 104.5317,-203.5 204.4771,-203.5 204.4771,-185.5 104.5317,-185.5"/>
<text text-anchor="middle" x="154.5044" y="-191.5" font-family="Helvetica,sans-Serif" font-size="10.00" fill="#000000">arLabelingSubEBZ</text>
</a>
</g>
</g>
<!-- Node169&#45;&gt;Node176 -->
<g id="edge7" class="edge">
<title>Node169&#45;&gt;Node176</title>
<path fill="none" stroke="#191970" d="M62.7472,-207.9113C72.4591,-206.4918 83.5018,-204.8778 94.4787,-203.2734"/>
<polygon fill="#191970" stroke="#191970" points="95.1124,-206.718 104.501,-201.8085 94.0999,-199.7916 95.1124,-206.718"/>
</g>
<!-- Node177 -->
<g id="node9" class="node">
<title>Node177</title>
<g id="a_node9"><a xlink:href="ar_labeling_private_8h.html#a4eb04acfccf00cff5f83d11caec59b57" target="_top" xlink:title="arLabelingSubEBRC">
<polygon fill="#ffffff" stroke="#000000" points="100.3643,-148.5 100.3643,-166.5 208.6445,-166.5 208.6445,-148.5 100.3643,-148.5"/>
<text text-anchor="middle" x="154.5044" y="-154.5" font-family="Helvetica,sans-Serif" font-size="10.00" fill="#000000">arLabelingSubEBRC</text>
</a>
</g>
</g>
<!-- Node169&#45;&gt;Node177 -->
<g id="edge8" class="edge">
<title>Node169&#45;&gt;Node177</title>
<path fill="none" stroke="#191970" d="M46.5147,-203.4762C59.9395,-195.7113 80.2175,-184.5245 98.7041,-176.5 103.9259,-174.2334 109.513,-172.0547 115.06,-170.0328"/>
<polygon fill="#191970" stroke="#191970" points="116.6354,-173.1894 124.9139,-166.5775 114.3191,-166.5837 116.6354,-173.1894"/>
</g>
<!-- Node178 -->
<g id="node10" class="node">
<title>Node178</title>
<g id="a_node10"><a xlink:href="ar_labeling_private_8h.html#a30603a3b7b928fb832e93d0524cd88e4" target="_top" xlink:title="arLabelingSubEBIC">
<polygon fill="#ffffff" stroke="#000000" points="102.5859,-111.5 102.5859,-129.5 206.4229,-129.5 206.4229,-111.5 102.5859,-111.5"/>
<text text-anchor="middle" x="154.5044" y="-117.5" font-family="Helvetica,sans-Serif" font-size="10.00" fill="#000000">arLabelingSubEBIC</text>
</a>
</g>
</g>
<!-- Node169&#45;&gt;Node178 -->
<g id="edge9" class="edge">
<title>Node169&#45;&gt;Node178</title>
<path fill="none" stroke="#191970" d="M37.6756,-203.0346C48.448,-187.6031 71.8215,-156.9938 98.7041,-139.5 102.0815,-137.3022 105.74,-135.3309 109.5133,-133.5686"/>
<polygon fill="#191970" stroke="#191970" points="111.1455,-136.6805 119.0342,-129.6081 108.4569,-130.2173 111.1455,-136.6805"/>
</g>
<!-- Node179 -->
<g id="node11" class="node">
<title>Node179</title>
<g id="a_node11"><a xlink:href="ar_labeling_private_8h.html#a55acba595c2539135641d14631167a55" target="_top" xlink:title="arLabelingSubEWZ">
<polygon fill="#ffffff" stroke="#000000" points="103.1475,-74.5 103.1475,-92.5 205.8613,-92.5 205.8613,-74.5 103.1475,-74.5"/>
<text text-anchor="middle" x="154.5044" y="-80.5" font-family="Helvetica,sans-Serif" font-size="10.00" fill="#000000">arLabelingSubEWZ</text>
</a>
</g>
</g>
<!-- Node169&#45;&gt;Node179 -->
<g id="edge10" class="edge">
<title>Node169&#45;&gt;Node179</title>
<path fill="none" stroke="#191970" d="M34.476,-203.3433C42.0822,-182.394 63.5591,-130.6187 98.7041,-102.5 101.3011,-100.4222 104.1381,-98.5657 107.1123,-96.9078"/>
<polygon fill="#191970" stroke="#191970" points="108.8225,-99.9699 116.3434,-92.5075 105.8104,-93.6511 108.8225,-99.9699"/>
</g>
<!-- Node180 -->
<g id="node12" class="node">
<title>Node180</title>
<g id="a_node12"><a xlink:href="ar_labeling_private_8h.html#ad90a588db535feaba241624116cb1fdb" target="_top" xlink:title="arLabelingSubEWRC">
<polygon fill="#ffffff" stroke="#000000" points="98.98,-37.5 98.98,-55.5 210.0288,-55.5 210.0288,-37.5 98.98,-37.5"/>
<text text-anchor="middle" x="154.5044" y="-43.5" font-family="Helvetica,sans-Serif" font-size="10.00" fill="#000000">arLabelingSubEWRC</text>
</a>
</g>
</g>
<!-- Node169&#45;&gt;Node180 -->
<g id="edge11" class="edge">
<title>Node169&#45;&gt;Node180</title>
<path fill="none" stroke="#191970" d="M32.9267,-203.4317C37.8266,-177.9197 55.1676,-104.8296 98.7041,-65.5 100.6975,-63.6992 102.8688,-62.068 105.1606,-60.5904"/>
<polygon fill="#191970" stroke="#191970" points="107.3007,-63.4156 114.4755,-55.6198 104.0052,-57.2398 107.3007,-63.4156"/>
</g>
<!-- Node181 -->
<g id="node13" class="node">
<title>Node181</title>
<g id="a_node13"><a xlink:href="ar_labeling_private_8h.html#afd2ba7ccd8dd8e4d17a184c9a37215c8" target="_top" xlink:title="arLabelingSubEWIC">
<polygon fill="#ffffff" stroke="#000000" points="101.2017,-.5 101.2017,-18.5 207.8071,-18.5 207.8071,-.5 101.2017,-.5"/>
<text text-anchor="middle" x="154.5044" y="-6.5" font-family="Helvetica,sans-Serif" font-size="10.00" fill="#000000">arLabelingSubEWIC</text>
</a>
</g>
</g>
<!-- Node169&#45;&gt;Node181 -->
<g id="edge12" class="edge">
<title>Node169&#45;&gt;Node181</title>
<path fill="none" stroke="#191970" d="M31.9923,-203.3763C34.5581,-173.7751 46.6477,-79.3875 98.7041,-28.5 100.5611,-26.6847 102.5981,-25.0427 104.7613,-23.5573"/>
<polygon fill="#191970" stroke="#191970" points="106.6208,-26.527 113.6162,-18.5699 103.1855,-20.4279 106.6208,-26.527"/>
</g>
</g>
</svg>
