<?xml version="1.0" encoding="UTF-8" standalone="no"?>
<!DOCTYPE svg PUBLIC "-//W3C//DTD SVG 1.1//EN"
 "http://www.w3.org/Graphics/SVG/1.1/DTD/svg11.dtd">
<!-- Generated by graphviz version 8.0.5 (20230430.1635)
 -->
<!-- Title: arPattSave Pages: 1 -->
<svg width="360pt" height="27pt"
 viewBox="0.00 0.00 359.75 27.25" xmlns="http://www.w3.org/2000/svg" xmlns:xlink="http://www.w3.org/1999/xlink">
<g id="graph0" class="graph" transform="scale(1 1) rotate(0) translate(4 23.25)">
<title>arPattSave</title>
<!-- Node1 -->
<g id="node1" class="node">
<title>Node1</title>
<g id="a_node1"><a xlink:title="Save a pattern to a pattern file.">
<polygon fill="#999999" stroke="#666666" points="64.75,-19.25 0,-19.25 0,0 64.75,0 64.75,-19.25"/>
<text text-anchor="middle" x="32.38" y="-5.75" font-family="Helvetica,sans-Serif" font-size="10.00">arPattSave</text>
</a>
</g>
</g>
<!-- Node2 -->
<g id="node2" class="node">
<title>Node2</title>
<g id="a_node2"><a xlink:href="ar_patt_get_i_d_8c.html#a85629f26a05cd8cb8644c5e95e581d4d" target="_top" xlink:title="Extract the image (i.e. locate and unwarp) of the pattern&#45;space portion of a detected square.">
<polygon fill="white" stroke="#666666" points="191,-19.25 100.75,-19.25 100.75,0 191,0 191,-19.25"/>
<text text-anchor="middle" x="145.88" y="-5.75" font-family="Helvetica,sans-Serif" font-size="10.00">arPattGetImage2</text>
</a>
</g>
</g>
<!-- Node1&#45;&gt;Node2 -->
<g id="edge1" class="edge">
<title>Node1&#45;&gt;Node2</title>
<path fill="none" stroke="#63b8ff" d="M65.03,-9.62C72.81,-9.62 81.38,-9.62 89.92,-9.62"/>
<polygon fill="#63b8ff" stroke="#63b8ff" points="89.66,-13.13 99.66,-9.62 89.66,-6.13 89.66,-13.13"/>
</g>
<!-- Node3 -->
<g id="node3" class="node">
<title>Node3</title>
<g id="a_node3"><a xlink:href="param_l_t_8c.html#af28ec15693678c1e60242cf44e1c1a3f" target="_top" xlink:title="Use a lookup&#45;table camera parameter to convert idealised (zero&#45;distortion) window coordinates to obse...">
<polygon fill="white" stroke="#666666" points="351.75,-19.25 227,-19.25 227,0 351.75,0 351.75,-19.25"/>
<text text-anchor="middle" x="289.38" y="-5.75" font-family="Helvetica,sans-Serif" font-size="10.00">arParamIdeal2ObservLTf</text>
</a>
</g>
</g>
<!-- Node2&#45;&gt;Node3 -->
<g id="edge2" class="edge">
<title>Node2&#45;&gt;Node3</title>
<path fill="none" stroke="#63b8ff" d="M191.26,-9.62C199.04,-9.62 207.31,-9.62 215.62,-9.62"/>
<polygon fill="#63b8ff" stroke="#63b8ff" points="215.52,-13.13 225.52,-9.62 215.52,-6.13 215.52,-13.13"/>
</g>
</g>
</svg>
