<?xml version="1.0" encoding="UTF-8" standalone="no"?>
<!DOCTYPE svg PUBLIC "-//W3C//DTD SVG 1.1//EN"
 "http://www.w3.org/Graphics/SVG/1.1/DTD/svg11.dtd">
<!-- Generated by graphviz version 8.0.5 (20230430.1635)
 -->
<!-- Title: arUtilMatInv Pages: 1 -->
<svg width="195pt" height="101pt"
 viewBox="0.00 0.00 195.25 101.25" xmlns="http://www.w3.org/2000/svg" xmlns:xlink="http://www.w3.org/1999/xlink">
<g id="graph0" class="graph" transform="scale(1 1) rotate(0) translate(4 97.25)">
<title>arUtilMatInv</title>
<!-- Node1 -->
<g id="node1" class="node">
<title>Node1</title>
<g id="a_node1"><a xlink:title=" ">
<polygon fill="#999999" stroke="#666666" points="69.25,-56.25 0,-56.25 0,-37 69.25,-37 69.25,-56.25"/>
<text text-anchor="middle" x="34.62" y="-42.75" font-family="Helvetica,sans-Serif" font-size="10.00">arUtilMatInv</text>
</a>
</g>
</g>
<!-- Node2 -->
<g id="node2" class="node">
<title>Node2</title>
<g id="a_node2"><a xlink:href="m_alloc_8c.html#a69c9a974dc5a3963148ebb2c4a80f969" target="_top" xlink:title=" ">
<polygon fill="white" stroke="#666666" points="182.75,-93.25 109.75,-93.25 109.75,-74 182.75,-74 182.75,-93.25"/>
<text text-anchor="middle" x="146.25" y="-79.75" font-family="Helvetica,sans-Serif" font-size="10.00">arMatrixAlloc</text>
</a>
</g>
</g>
<!-- Node1&#45;&gt;Node2 -->
<g id="edge1" class="edge">
<title>Node1&#45;&gt;Node2</title>
<path fill="none" stroke="#63b8ff" d="M65.58,-56.74C77.79,-60.85 92.08,-65.68 105.16,-70.09"/>
<polygon fill="#63b8ff" stroke="#63b8ff" points="103.74,-73.65 114.33,-73.53 105.98,-67.01 103.74,-73.65"/>
</g>
<!-- Node3 -->
<g id="node3" class="node">
<title>Node3</title>
<g id="a_node3"><a xlink:href="m_free_8c.html#ac4b7a714cce9fffda773d86363380454" target="_top" xlink:title=" ">
<polygon fill="white" stroke="#666666" points="181.62,-56.25 110.88,-56.25 110.88,-37 181.62,-37 181.62,-56.25"/>
<text text-anchor="middle" x="146.25" y="-42.75" font-family="Helvetica,sans-Serif" font-size="10.00">arMatrixFree</text>
</a>
</g>
</g>
<!-- Node1&#45;&gt;Node3 -->
<g id="edge2" class="edge">
<title>Node1&#45;&gt;Node3</title>
<path fill="none" stroke="#63b8ff" d="M69.71,-46.62C79.12,-46.62 89.48,-46.62 99.44,-46.62"/>
<polygon fill="#63b8ff" stroke="#63b8ff" points="99.43,-50.13 109.43,-46.62 99.43,-43.13 99.43,-50.13"/>
</g>
<!-- Node4 -->
<g id="node4" class="node">
<title>Node4</title>
<g id="a_node4"><a xlink:href="m_self_inv_8c.html#a929738025b539a0c1bbd2f395ad4d981" target="_top" xlink:title=" ">
<polygon fill="white" stroke="#666666" points="187.25,-19.25 105.25,-19.25 105.25,0 187.25,0 187.25,-19.25"/>
<text text-anchor="middle" x="146.25" y="-5.75" font-family="Helvetica,sans-Serif" font-size="10.00">arMatrixSelfInv</text>
</a>
</g>
</g>
<!-- Node1&#45;&gt;Node4 -->
<g id="edge3" class="edge">
<title>Node1&#45;&gt;Node4</title>
<path fill="none" stroke="#63b8ff" d="M65.58,-36.51C77.79,-32.4 92.08,-27.57 105.16,-23.16"/>
<polygon fill="#63b8ff" stroke="#63b8ff" points="105.98,-26.24 114.33,-19.72 103.74,-19.6 105.98,-26.24"/>
</g>
</g>
</svg>
