<?xml version="1.0" encoding="UTF-8" standalone="no"?>
<!DOCTYPE svg PUBLIC "-//W3C//DTD SVG 1.1//EN"
 "http://www.w3.org/Graphics/SVG/1.1/DTD/svg11.dtd">
<!-- Generated by graphviz version 8.0.5 (20230430.1635)
 -->
<!-- Title: arGetTransMatStereoRobust Pages: 1 -->
<!--zoomable 233 -->
<svg id="main" version="1.1" xmlns="http://www.w3.org/2000/svg" xmlns:xlink="http://www.w3.org/1999/xlink" xml:space="preserve" onload="init(evt)">
<style type="text/css"><![CDATA[
.edge:hover path { stroke: red; }
.edge:hover polygon { stroke: red; fill: red; }
]]></style>
<script type="text/javascript"><![CDATA[
var edges = document.getElementsByTagName('g');
if (edges && edges.length) {
  for (var i=0;i<edges.length;i++) {
    if (edges[i].id.substr(0,4)=='edge') {
      edges[i].setAttribute('class','edge');
    }
  }
}
]]></script>
        <defs>
                <circle id="rim" cx="0" cy="0" r="7"/>
                <circle id="rim2" cx="0" cy="0" r="3.5"/>
                <g id="zoomPlus">
                        <use xlink:href="#rim" fill="#404040">
                                <set attributeName="fill" to="#808080" begin="zoomplus.mouseover" end="zoomplus.mouseout"/>
                        </use>
                        <path d="M-4,0h8M0,-4v8" fill="none" stroke="white" stroke-width="1.5" pointer-events="none"/>
                </g>
                <g id="zoomMin">
                        <use xlink:href="#rim" fill="#404040">
                                <set attributeName="fill" to="#808080" begin="zoomminus.mouseover" end="zoomminus.mouseout"/>
                        </use>
                        <path d="M-4,0h8" fill="none" stroke="white" stroke-width="1.5" pointer-events="none"/>
                </g>
                <g id="dirArrow">
                        <path fill="none" stroke="white" stroke-width="1.5" d="M0,-3.0v7 M-2.5,-0.5L0,-3.0L2.5,-0.5"/>
                </g>
               <g id="resetDef">
                       <use xlink:href="#rim2" fill="#404040">
                               <set attributeName="fill" to="#808080" begin="reset.mouseover" end="reset.mouseout"/>
                       </use>
               </g>
        </defs>

<script type="text/javascript">
var viewWidth = 724;
var viewHeight = 233;
var sectionId = 'dynsection-32';
</script>
<script xlink:href="svgpan.js"/>
<svg id="graph" class="graph">
<g id="viewport">
<title>arGetTransMatStereoRobust</title>
<!-- Node1 -->
<g id="node1" class="node">
<title>Node1</title>
<g id="a_node1"><a xlink:title=" ">
<polygon fill="#999999" stroke="#666666" points="141.25,-93.25 0,-93.25 0,-74 141.25,-74 141.25,-93.25"/>
<text text-anchor="middle" x="70.62" y="-79.75" font-family="Helvetica,sans-Serif" font-size="10.00">arGetTransMatStereoRobust</text>
</a>
</g>
</g>
<!-- Node2 -->
<g id="node2" class="node">
<title>Node2</title>
<g id="a_node2"><a xlink:href="icp_stereo_point_robust_8c.html#a4b6d126a648aed158a8cc1a495b83405" target="_top" xlink:title=" ">
<polygon fill="white" stroke="#666666" points="288.5,-93.25 177.25,-93.25 177.25,-74 288.5,-74 288.5,-93.25"/>
<text text-anchor="middle" x="232.88" y="-79.75" font-family="Helvetica,sans-Serif" font-size="10.00">icpStereoPointRobust</text>
</a>
</g>
</g>
<!-- Node1&#45;&gt;Node2 -->
<g id="edge1" class="edge">
<title>Node1&#45;&gt;Node2</title>
<path fill="none" stroke="#63b8ff" d="M141.45,-83.62C149.68,-83.62 158.06,-83.62 166.24,-83.62"/>
<polygon fill="#63b8ff" stroke="#63b8ff" points="166.22,-87.13 176.22,-83.62 166.22,-80.13 166.22,-87.13"/>
</g>
<!-- Node3 -->
<g id="node3" class="node">
<title>Node3</title>
<g id="a_node3"><a xlink:href="ar_util_8c.html#ae28eeba3e16224a7d77b46bd34b8f4fe" target="_top" xlink:title=" ">
<polygon fill="white" stroke="#666666" points="433.12,-167.25 361.62,-167.25 361.62,-148 433.12,-148 433.12,-167.25"/>
<text text-anchor="middle" x="397.38" y="-153.75" font-family="Helvetica,sans-Serif" font-size="10.00">arUtilMatMul</text>
</a>
</g>
</g>
<!-- Node2&#45;&gt;Node3 -->
<g id="edge2" class="edge">
<title>Node2&#45;&gt;Node3</title>
<path fill="none" stroke="#63b8ff" d="M246.98,-93.54C264,-105.98 295.02,-127.18 324.5,-139.62 332.76,-143.11 341.84,-146.03 350.7,-148.44"/>
<polygon fill="#63b8ff" stroke="#63b8ff" points="349.75,-152.06 360.31,-151.12 351.47,-145.28 349.75,-152.06"/>
</g>
<!-- Node4 -->
<g id="node4" class="node">
<title>Node4</title>
<g id="a_node4"><a xlink:href="icp_core_8c.html#a4906398b4594d29ab8035b4016a7e9de" target="_top" xlink:title=" ">
<polygon fill="white" stroke="#666666" points="434.62,-130.25 360.12,-130.25 360.12,-111 434.62,-111 434.62,-130.25"/>
<text text-anchor="middle" x="397.38" y="-116.75" font-family="Helvetica,sans-Serif" font-size="10.00">icpGetDeltaS</text>
</a>
</g>
</g>
<!-- Node2&#45;&gt;Node4 -->
<g id="edge3" class="edge">
<title>Node2&#45;&gt;Node4</title>
<path fill="none" stroke="#63b8ff" d="M278.28,-93.74C300.24,-98.74 326.77,-104.78 349.11,-109.86"/>
<polygon fill="#63b8ff" stroke="#63b8ff" points="348.18,-113.47 358.7,-112.28 349.73,-106.64 348.18,-113.47"/>
</g>
<!-- Node13 -->
<g id="node13" class="node">
<title>Node13</title>
<g id="a_node13"><a xlink:href="icp_core_8c.html#ac384ca6737fdee325d58740d665eda0a" target="_top" xlink:title=" ">
<polygon fill="white" stroke="#666666" points="434.62,-93.25 360.12,-93.25 360.12,-74 434.62,-74 434.62,-93.25"/>
<text text-anchor="middle" x="397.38" y="-79.75" font-family="Helvetica,sans-Serif" font-size="10.00">icpGetJ_U_S</text>
</a>
</g>
</g>
<!-- Node2&#45;&gt;Node13 -->
<g id="edge16" class="edge">
<title>Node2&#45;&gt;Node13</title>
<path fill="none" stroke="#63b8ff" d="M288.89,-83.62C308.35,-83.62 330.06,-83.62 348.84,-83.62"/>
<polygon fill="#63b8ff" stroke="#63b8ff" points="348.82,-87.13 358.82,-83.62 348.82,-80.13 348.82,-87.13"/>
</g>
<!-- Node14 -->
<g id="node14" class="node">
<title>Node14</title>
<g id="a_node14"><a xlink:href="icp_core_8c.html#aceeb3fd72a762c2078d8fb88ec03ccfb" target="_top" xlink:title=" ">
<polygon fill="white" stroke="#666666" points="470.25,-56.25 324.5,-56.25 324.5,-37 470.25,-37 470.25,-56.25"/>
<text text-anchor="middle" x="397.38" y="-42.75" font-family="Helvetica,sans-Serif" font-size="10.00">icpGetU_from_X_by_MatX2U</text>
</a>
</g>
</g>
<!-- Node2&#45;&gt;Node14 -->
<g id="edge17" class="edge">
<title>Node2&#45;&gt;Node14</title>
<path fill="none" stroke="#63b8ff" d="M278.28,-73.51C297.8,-69.07 320.93,-63.8 341.52,-59.11"/>
<polygon fill="#63b8ff" stroke="#63b8ff" points="342.05,-62.36 351.02,-56.72 340.5,-55.53 342.05,-62.36"/>
</g>
<!-- Node15 -->
<g id="node15" class="node">
<title>Node15</title>
<g id="a_node15"><a xlink:href="icp_core_8c.html#a94201124387610a46b975cdb9d8a1db6" target="_top" xlink:title=" ">
<polygon fill="white" stroke="#666666" points="435.75,-19.25 359,-19.25 359,0 435.75,0 435.75,-19.25"/>
<text text-anchor="middle" x="397.38" y="-5.75" font-family="Helvetica,sans-Serif" font-size="10.00">icpUpdateMat</text>
</a>
</g>
</g>
<!-- Node2&#45;&gt;Node15 -->
<g id="edge18" class="edge">
<title>Node2&#45;&gt;Node15</title>
<path fill="none" stroke="#63b8ff" d="M246.98,-73.71C264,-61.27 295.02,-40.07 324.5,-27.62 332,-24.46 340.18,-21.76 348.25,-19.49"/>
<polygon fill="#63b8ff" stroke="#63b8ff" points="348.94,-22.66 357.73,-16.75 347.17,-15.89 348.94,-22.66"/>
</g>
<!-- Node5 -->
<g id="node5" class="node">
<title>Node5</title>
<g id="a_node5"><a xlink:href="m_alloc_mul_8c.html#a8e99293b68c38ce8a8d1920884d69f73" target="_top" xlink:title=" ">
<polygon fill="white" stroke="#666666" points="599.5,-149.25 510.75,-149.25 510.75,-130 599.5,-130 599.5,-149.25"/>
<text text-anchor="middle" x="555.12" y="-135.75" font-family="Helvetica,sans-Serif" font-size="10.00">arMatrixAllocMul</text>
</a>
</g>
</g>
<!-- Node4&#45;&gt;Node5 -->
<g id="edge4" class="edge">
<title>Node4&#45;&gt;Node5</title>
<path fill="none" stroke="#63b8ff" d="M434.89,-125.08C454.11,-127.42 478.06,-130.35 499.45,-132.95"/>
<polygon fill="#63b8ff" stroke="#63b8ff" points="499.01,-136.55 509.36,-134.29 499.85,-129.6 499.01,-136.55"/>
</g>
<!-- Node7 -->
<g id="node7" class="node">
<title>Node7</title>
<g id="a_node7"><a xlink:href="m_free_8c.html#ac4b7a714cce9fffda773d86363380454" target="_top" xlink:title=" ">
<polygon fill="white" stroke="#666666" points="713.38,-187.25 642.62,-187.25 642.62,-168 713.38,-168 713.38,-187.25"/>
<text text-anchor="middle" x="678" y="-173.75" font-family="Helvetica,sans-Serif" font-size="10.00">arMatrixFree</text>
</a>
</g>
</g>
<!-- Node4&#45;&gt;Node7 -->
<g id="edge13" class="edge">
<title>Node4&#45;&gt;Node7</title>
<path fill="none" stroke="#63b8ff" d="M434.78,-127.79C446.33,-130.58 459,-134.18 470.25,-138.62 487.27,-145.35 488.81,-153.06 506.25,-158.62 547.27,-171.72 596.33,-176.09 631.32,-177.41"/>
<polygon fill="#63b8ff" stroke="#63b8ff" points="631.05,-180.93 641.15,-177.74 631.26,-173.93 631.05,-180.93"/>
</g>
<!-- Node8 -->
<g id="node8" class="node">
<title>Node8</title>
<g id="a_node8"><a xlink:href="m_mul_8c.html#a202bc2db43d563792c99e852ea0b7ba4" target="_top" xlink:title=" ">
<polygon fill="white" stroke="#666666" points="711.5,-112.25 644.5,-112.25 644.5,-93 711.5,-93 711.5,-112.25"/>
<text text-anchor="middle" x="678" y="-98.75" font-family="Helvetica,sans-Serif" font-size="10.00">arMatrixMul</text>
</a>
</g>
</g>
<!-- Node4&#45;&gt;Node8 -->
<g id="edge14" class="edge">
<title>Node4&#45;&gt;Node8</title>
<path fill="none" stroke="#63b8ff" d="M435.09,-118.25C486.24,-114.95 578.8,-108.97 633.4,-105.44"/>
<polygon fill="#63b8ff" stroke="#63b8ff" points="633.36,-108.89 643.11,-104.75 632.91,-101.9 633.36,-108.89"/>
</g>
<!-- Node9 -->
<g id="node9" class="node">
<title>Node9</title>
<g id="a_node9"><a xlink:href="m_alloc_trans_8c.html#a4e2bf8cd529487fb1ff4d0bbc52eee1e" target="_top" xlink:title=" ">
<polygon fill="white" stroke="#666666" points="604,-225.25 506.25,-225.25 506.25,-206 604,-206 604,-225.25"/>
<text text-anchor="middle" x="555.12" y="-211.75" font-family="Helvetica,sans-Serif" font-size="10.00">arMatrixAllocTrans</text>
</a>
</g>
</g>
<!-- Node4&#45;&gt;Node9 -->
<g id="edge8" class="edge">
<title>Node4&#45;&gt;Node9</title>
<path fill="none" stroke="#63b8ff" d="M434.91,-124.48C446.96,-127.08 459.92,-131.41 470.25,-138.62 493.59,-154.93 484.83,-172.86 506.25,-191.62 509.97,-194.88 514.21,-197.82 518.59,-200.44"/>
<polygon fill="#63b8ff" stroke="#63b8ff" points="516.81,-203.99 527.28,-205.64 520.12,-197.82 516.81,-203.99"/>
</g>
<!-- Node11 -->
<g id="node11" class="node">
<title>Node11</title>
<g id="a_node11"><a xlink:href="m_disp_8c.html#a60f36997579d355f6030f872faad84a2" target="_top" xlink:title=" ">
<polygon fill="white" stroke="#666666" points="590.88,-73.25 519.38,-73.25 519.38,-54 590.88,-54 590.88,-73.25"/>
<text text-anchor="middle" x="555.12" y="-59.75" font-family="Helvetica,sans-Serif" font-size="10.00">arMatrixDisp</text>
</a>
</g>
</g>
<!-- Node4&#45;&gt;Node11 -->
<g id="edge12" class="edge">
<title>Node4&#45;&gt;Node11</title>
<path fill="none" stroke="#63b8ff" d="M434.97,-112.88C446.4,-110.09 458.97,-106.62 470.25,-102.62 480.76,-98.9 504.53,-87.75 524.09,-78.32"/>
<polygon fill="#63b8ff" stroke="#63b8ff" points="525.37,-81.11 532.84,-73.6 522.32,-74.81 525.37,-81.11"/>
</g>
<!-- Node12 -->
<g id="node12" class="node">
<title>Node12</title>
<g id="a_node12"><a xlink:href="m_self_inv_8c.html#a929738025b539a0c1bbd2f395ad4d981" target="_top" xlink:title=" ">
<polygon fill="white" stroke="#666666" points="596.12,-36.25 514.12,-36.25 514.12,-17 596.12,-17 596.12,-36.25"/>
<text text-anchor="middle" x="555.12" y="-22.75" font-family="Helvetica,sans-Serif" font-size="10.00">arMatrixSelfInv</text>
</a>
</g>
</g>
<!-- Node4&#45;&gt;Node12 -->
<g id="edge15" class="edge">
<title>Node4&#45;&gt;Node12</title>
<path fill="none" stroke="#63b8ff" d="M435.08,-117.01C447.15,-114.43 460.07,-110.06 470.25,-102.62 494.76,-84.74 482.8,-63.88 506.25,-44.62 507.33,-43.74 508.46,-42.89 509.63,-42.08"/>
<polygon fill="#63b8ff" stroke="#63b8ff" points="511.21,-44.64 518.16,-36.64 507.74,-38.56 511.21,-44.64"/>
</g>
<!-- Node6 -->
<g id="node6" class="node">
<title>Node6</title>
<g id="a_node6"><a xlink:href="m_alloc_8c.html#a69c9a974dc5a3963148ebb2c4a80f969" target="_top" xlink:title=" ">
<polygon fill="white" stroke="#666666" points="714.5,-149.25 641.5,-149.25 641.5,-130 714.5,-130 714.5,-149.25"/>
<text text-anchor="middle" x="678" y="-135.75" font-family="Helvetica,sans-Serif" font-size="10.00">arMatrixAlloc</text>
</a>
</g>
</g>
<!-- Node5&#45;&gt;Node6 -->
<g id="edge5" class="edge">
<title>Node5&#45;&gt;Node6</title>
<path fill="none" stroke="#63b8ff" d="M599.76,-139.62C609.8,-139.62 620.5,-139.62 630.64,-139.62"/>
<polygon fill="#63b8ff" stroke="#63b8ff" points="630.37,-143.13 640.37,-139.62 630.37,-136.13 630.37,-143.13"/>
</g>
<!-- Node5&#45;&gt;Node7 -->
<g id="edge6" class="edge">
<title>Node5&#45;&gt;Node7</title>
<path fill="none" stroke="#63b8ff" d="M588.2,-149.71C602.52,-154.21 619.59,-159.58 634.92,-164.39"/>
<polygon fill="#63b8ff" stroke="#63b8ff" points="633.61,-167.97 644.19,-167.63 635.7,-161.29 633.61,-167.97"/>
</g>
<!-- Node5&#45;&gt;Node8 -->
<g id="edge7" class="edge">
<title>Node5&#45;&gt;Node8</title>
<path fill="none" stroke="#63b8ff" d="M589.15,-129.51C602.88,-125.31 619,-120.38 633.65,-115.89"/>
<polygon fill="#63b8ff" stroke="#63b8ff" points="634.47,-119 643.01,-112.72 632.42,-112.3 634.47,-119"/>
</g>
<!-- Node9&#45;&gt;Node6 -->
<g id="edge9" class="edge">
<title>Node9&#45;&gt;Node6</title>
<path fill="none" stroke="#63b8ff" d="M569.74,-205.61C586.06,-193.79 614.41,-173.81 640,-158.62 642.2,-157.32 644.5,-156.01 646.83,-154.73"/>
<polygon fill="#63b8ff" stroke="#63b8ff" points="648.21,-157.42 655.4,-149.64 644.93,-151.24 648.21,-157.42"/>
</g>
<!-- Node9&#45;&gt;Node7 -->
<g id="edge10" class="edge">
<title>Node9&#45;&gt;Node7</title>
<path fill="none" stroke="#63b8ff" d="M588.2,-205.54C602.52,-201.04 619.59,-195.67 634.92,-190.86"/>
<polygon fill="#63b8ff" stroke="#63b8ff" points="635.7,-193.96 644.19,-187.62 633.61,-187.28 635.7,-193.96"/>
</g>
<!-- Node10 -->
<g id="node10" class="node">
<title>Node10</title>
<g id="a_node10"><a xlink:href="m_trans_8c.html#ad3d9712dd27f655902a8a3315e623d85" target="_top" xlink:title=" ">
<polygon fill="white" stroke="#666666" points="716,-225.25 640,-225.25 640,-206 716,-206 716,-225.25"/>
<text text-anchor="middle" x="678" y="-211.75" font-family="Helvetica,sans-Serif" font-size="10.00">arMatrixTrans</text>
</a>
</g>
</g>
<!-- Node9&#45;&gt;Node10 -->
<g id="edge11" class="edge">
<title>Node9&#45;&gt;Node10</title>
<path fill="none" stroke="#63b8ff" d="M604.25,-215.62C612.39,-215.62 620.85,-215.62 629,-215.62"/>
<polygon fill="#63b8ff" stroke="#63b8ff" points="628.85,-219.13 638.85,-215.62 628.85,-212.13 628.85,-219.13"/>
</g>
</g>
</svg>
        <g id="navigator" transform="translate(0 0)" fill="#404254">
                <rect fill="#f2f5e9" fill-opacity="0.5" stroke="#606060" stroke-width=".5" x="0" y="0" width="60" height="60"/>
                <use id="zoomplus" xlink:href="#zoomPlus" x="17" y="9" onmousedown="handleZoom(evt,'in')"/>
                <use id="zoomminus" xlink:href="#zoomMin" x="42" y="9" onmousedown="handleZoom(evt,'out')"/>
                <use id="reset" xlink:href="#resetDef" x="30" y="36" onmousedown="handleReset()"/>
                <g id="arrowUp" xlink:href="#dirArrow" transform="translate(30 24)" onmousedown="handlePan(0,-1)">
                  <use xlink:href="#rim" fill="#404040">
                        <set attributeName="fill" to="#808080" begin="arrowUp.mouseover" end="arrowUp.mouseout"/>
                  </use>
                  <path fill="none" stroke="white" stroke-width="1.5" d="M0,-3.0v7 M-2.5,-0.5L0,-3.0L2.5,-0.5"/>
                </g>
                <g id="arrowRight" xlink:href="#dirArrow" transform="rotate(90) translate(36 -43)" onmousedown="handlePan(1,0)">
                  <use xlink:href="#rim" fill="#404040">
                        <set attributeName="fill" to="#808080" begin="arrowRight.mouseover" end="arrowRight.mouseout"/>
                  </use>
                  <path fill="none" stroke="white" stroke-width="1.5" d="M0,-3.0v7 M-2.5,-0.5L0,-3.0L2.5,-0.5"/>
                </g>
                <g id="arrowDown" xlink:href="#dirArrow" transform="rotate(180) translate(-30 -48)" onmousedown="handlePan(0,1)">
                  <use xlink:href="#rim" fill="#404040">
                        <set attributeName="fill" to="#808080" begin="arrowDown.mouseover" end="arrowDown.mouseout"/>
                  </use>
                  <path fill="none" stroke="white" stroke-width="1.5" d="M0,-3.0v7 M-2.5,-0.5L0,-3.0L2.5,-0.5"/>
                </g>
                <g id="arrowLeft" xlink:href="#dirArrow" transform="rotate(270) translate(-36 17)" onmousedown="handlePan(-1,0)">
                  <use xlink:href="#rim" fill="#404040">
                        <set attributeName="fill" to="#808080" begin="arrowLeft.mouseover" end="arrowLeft.mouseout"/>
                  </use>
                  <path fill="none" stroke="white" stroke-width="1.5" d="M0,-3.0v7 M-2.5,-0.5L0,-3.0L2.5,-0.5"/>
                </g>
        </g>
        <svg viewBox="0 0 15 15" width="100%" height="30px" preserveAspectRatio="xMaxYMin meet">
         <g id="arrow_out" transform="scale(0.3 0.3)">
          <a xlink:href="ar_8h_a7b09615ed0768d373c6e6a39c4631892_cgraph_org.svg" target="_base">
           <rect id="button" ry="5" rx="5" y="6" x="6" height="38" width="38"
                fill="#f2f5e9" fill-opacity="0.5" stroke="#606060" stroke-width="1.0"/>
           <path id="arrow"
             d="M 11.500037,31.436501 C 11.940474,20.09759 22.043105,11.32322 32.158766,21.979434 L 37.068811,17.246167 C 37.068811,17.246167 37.088388,32 37.088388,32 L 22.160133,31.978069 C 22.160133,31.978069 26.997745,27.140456 26.997745,27.140456 C 18.528582,18.264221 13.291696,25.230495 11.500037,31.436501 z"
             style="fill:#404040;"/>
          </a>
         </g>
        </svg>
</svg>
