<?xml version="1.0" encoding="UTF-8" standalone="no"?>
<!DOCTYPE svg PUBLIC "-//W3C//DTD SVG 1.1//EN"
 "http://www.w3.org/Graphics/SVG/1.1/DTD/svg11.dtd">
<!-- Generated by graphviz version 2.40.1 (20161225.0304)
 -->
<!-- Title: /Users/phil/r/artoolkitx/Source/ARX/AR/include/ARX/AR/ar.h Pages: 1 -->
<svg width="914pt" height="157pt"
 viewBox="0.00 0.00 914.25 157.00" xmlns="http://www.w3.org/2000/svg" xmlns:xlink="http://www.w3.org/1999/xlink">
<g id="graph0" class="graph" transform="scale(1 1) rotate(0) translate(4 153)">
<title>/Users/phil/r/artoolkitx/Source/ARX/AR/include/ARX/AR/ar.h</title>
<polygon fill="#ffffff" stroke="transparent" points="-4,4 -4,-153 910.2489,-153 910.2489,4 -4,4"/>
<!-- Node0 -->
<g id="node1" class="node">
<title>Node0</title>
<polygon fill="#bfbfbf" stroke="#000000" points="431.3721,-110.5 431.3721,-148.5 556.3125,-148.5 556.3125,-110.5 431.3721,-110.5"/>
<text text-anchor="start" x="439.3721" y="-136.5" font-family="Helvetica,sans-Serif" font-size="10.00" fill="#000000">/Users/phil/r/artoolkitx</text>
<text text-anchor="start" x="439.3721" y="-126.5" font-family="Helvetica,sans-Serif" font-size="10.00" fill="#000000">/Source/ARX/AR/include</text>
<text text-anchor="middle" x="493.8423" y="-116.5" font-family="Helvetica,sans-Serif" font-size="10.00" fill="#000000">/ARX/AR/ar.h</text>
</g>
<!-- Node1 -->
<g id="node2" class="node">
<title>Node1</title>
<polygon fill="#ffffff" stroke="#bfbfbf" points="406.1108,-.5 406.1108,-18.5 451.5737,-18.5 451.5737,-.5 406.1108,-.5"/>
<text text-anchor="middle" x="428.8423" y="-6.5" font-family="Helvetica,sans-Serif" font-size="10.00" fill="#000000">stdio.h</text>
</g>
<!-- Node0&#45;&gt;Node1 -->
<g id="edge1" class="edge">
<title>Node0&#45;&gt;Node1</title>
<path fill="none" stroke="#191970" d="M431.169,-116.7998C388.9106,-106.8182 338.618,-91.6753 325.8423,-74 320.8956,-67.1561 321.2328,-62.0754 325.8423,-55 334.0156,-42.4542 369.2884,-28.6308 396.302,-19.551"/>
<polygon fill="#191970" stroke="#191970" points="397.4035,-22.8733 405.8152,-16.4317 395.2224,-16.2217 397.4035,-22.8733"/>
</g>
<!-- Node2 -->
<g id="node3" class="node">
<title>Node2</title>
<polygon fill="#ffffff" stroke="#bfbfbf" points="0,-.5 0,-18.5 47.6846,-18.5 47.6846,-.5 0,-.5"/>
<text text-anchor="middle" x="23.8423" y="-6.5" font-family="Helvetica,sans-Serif" font-size="10.00" fill="#000000">stdlib.h</text>
</g>
<!-- Node0&#45;&gt;Node2 -->
<g id="edge2" class="edge">
<title>Node0&#45;&gt;Node2</title>
<path fill="none" stroke="#191970" d="M431.3135,-125.2411C334.688,-117.9163 154.1411,-101.0574 95.8423,-74 72.2092,-63.0315 50.7606,-41.645 37.5386,-26.5104"/>
<polygon fill="#191970" stroke="#191970" points="40.2009,-24.2383 31.0778,-18.8514 34.8504,-28.7518 40.2009,-24.2383"/>
</g>
<!-- Node3 -->
<g id="node4" class="node">
<title>Node3</title>
<polygon fill="#ffffff" stroke="#bfbfbf" points="120.7217,-55.5 120.7217,-73.5 168.9629,-73.5 168.9629,-55.5 120.7217,-55.5"/>
<text text-anchor="middle" x="144.8423" y="-61.5" font-family="Helvetica,sans-Serif" font-size="10.00" fill="#000000">stdint.h</text>
</g>
<!-- Node0&#45;&gt;Node3 -->
<g id="edge3" class="edge">
<title>Node0&#45;&gt;Node3</title>
<path fill="none" stroke="#191970" d="M431.0905,-120.4945C369.23,-111.1622 271.8817,-95.2606 179.1058,-74.1123"/>
<polygon fill="#191970" stroke="#191970" points="179.8054,-70.6819 169.2749,-71.8474 178.2338,-77.5032 179.8054,-70.6819"/>
</g>
<!-- Node4 -->
<g id="node5" class="node">
<title>Node4</title>
<polygon fill="#ffffff" stroke="#bfbfbf" points="65.4458,-.5 65.4458,-18.5 114.2388,-18.5 114.2388,-.5 65.4458,-.5"/>
<text text-anchor="middle" x="89.8423" y="-6.5" font-family="Helvetica,sans-Serif" font-size="10.00" fill="#000000">string.h</text>
</g>
<!-- Node0&#45;&gt;Node4 -->
<g id="edge4" class="edge">
<title>Node0&#45;&gt;Node4</title>
<path fill="none" stroke="#191970" d="M431.0531,-128.1344C335.3814,-124.8008 159.2035,-113.3429 111.8423,-74 98.4981,-62.915 93.2227,-43.3689 91.1508,-28.6904"/>
<polygon fill="#191970" stroke="#191970" points="94.6211,-28.2218 90.1103,-18.6352 87.6583,-28.9424 94.6211,-28.2218"/>
</g>
<!-- Node5 -->
<g id="node6" class="node">
<title>Node5</title>
<polygon fill="#ffffff" stroke="#bfbfbf" points="774.3252,-.5 774.3252,-18.5 865.3594,-18.5 865.3594,-.5 774.3252,-.5"/>
<text text-anchor="middle" x="819.8423" y="-6.5" font-family="Helvetica,sans-Serif" font-size="10.00" fill="#000000">ARX/AR/config.h</text>
</g>
<!-- Node0&#45;&gt;Node5 -->
<g id="edge5" class="edge">
<title>Node0&#45;&gt;Node5</title>
<path fill="none" stroke="#191970" d="M556.6082,-125.4239C665.1636,-117.7302 878.5666,-99.5194 900.8423,-74 918.9506,-53.2548 886.3857,-34.2421 857.3069,-22.3163"/>
<polygon fill="#191970" stroke="#191970" points="858.2456,-18.9256 847.6573,-18.5514 855.7012,-25.4469 858.2456,-18.9256"/>
</g>
<!-- Node6 -->
<g id="node7" class="node">
<title>Node6</title>
<g id="a_node7"><a xlink:href="ar_config_8h.html" target="_top" xlink:title="ARX/AR/arConfig.h">
<polygon fill="#ffffff" stroke="#000000" points="334.7686,-55.5 334.7686,-73.5 436.916,-73.5 436.916,-55.5 334.7686,-55.5"/>
<text text-anchor="middle" x="385.8423" y="-61.5" font-family="Helvetica,sans-Serif" font-size="10.00" fill="#000000">ARX/AR/arConfig.h</text>
</a>
</g>
</g>
<!-- Node0&#45;&gt;Node6 -->
<g id="edge6" class="edge">
<title>Node0&#45;&gt;Node6</title>
<path fill="none" stroke="#191970" d="M462.0229,-110.3494C445.3281,-100.3016 425.2099,-88.1934 409.8411,-78.9437"/>
<polygon fill="#191970" stroke="#191970" points="411.3315,-75.7557 400.9587,-73.5978 407.7218,-81.7533 411.3315,-75.7557"/>
</g>
<!-- Node7 -->
<g id="node8" class="node">
<title>Node7</title>
<g id="a_node8"><a xlink:href="log_8h.html" target="_top" xlink:title="Logging utilities. ">
<polygon fill="#ffffff" stroke="#000000" points="186.7734,-55.5 186.7734,-73.5 278.9111,-73.5 278.9111,-55.5 186.7734,-55.5"/>
<text text-anchor="middle" x="232.8423" y="-61.5" font-family="Helvetica,sans-Serif" font-size="10.00" fill="#000000">ARX/ARUtil/log.h</text>
</a>
</g>
</g>
<!-- Node0&#45;&gt;Node7 -->
<g id="edge7" class="edge">
<title>Node0&#45;&gt;Node7</title>
<path fill="none" stroke="#191970" d="M431.3263,-113.9309C384.4151,-102.248 321.2427,-86.5154 278.8834,-75.9662"/>
<polygon fill="#191970" stroke="#191970" points="279.6655,-72.5541 269.1161,-73.5337 277.9738,-79.3466 279.6655,-72.5541"/>
</g>
<!-- Node11 -->
<g id="node12" class="node">
<title>Node11</title>
<g id="a_node12"><a xlink:href="matrix_8h.html" target="_top" xlink:title="ARX/AR/matrix.h">
<polygon fill="#ffffff" stroke="#000000" points="550.0566,-55.5 550.0566,-73.5 641.6279,-73.5 641.6279,-55.5 550.0566,-55.5"/>
<text text-anchor="middle" x="595.8423" y="-61.5" font-family="Helvetica,sans-Serif" font-size="10.00" fill="#000000">ARX/AR/matrix.h</text>
</a>
</g>
</g>
<!-- Node0&#45;&gt;Node11 -->
<g id="edge14" class="edge">
<title>Node0&#45;&gt;Node11</title>
<path fill="none" stroke="#191970" d="M523.894,-110.3494C539.5125,-100.3964 558.3036,-88.4217 572.7647,-79.2063"/>
<polygon fill="#191970" stroke="#191970" points="575.0134,-81.9236 581.5657,-73.5978 571.2515,-76.0204 575.0134,-81.9236"/>
</g>
<!-- Node13 -->
<g id="node14" class="node">
<title>Node13</title>
<g id="a_node14"><a xlink:href="icp_8h.html" target="_top" xlink:title="ARX/AR/icp.h">
<polygon fill="#ffffff" stroke="#000000" points="455.2759,-55.5 455.2759,-73.5 532.4087,-73.5 532.4087,-55.5 455.2759,-55.5"/>
<text text-anchor="middle" x="493.8423" y="-61.5" font-family="Helvetica,sans-Serif" font-size="10.00" fill="#000000">ARX/AR/icp.h</text>
</a>
</g>
</g>
<!-- Node0&#45;&gt;Node13 -->
<g id="edge16" class="edge">
<title>Node0&#45;&gt;Node13</title>
<path fill="none" stroke="#191970" d="M493.8423,-110.3494C493.8423,-102.0079 493.8423,-92.2463 493.8423,-83.879"/>
<polygon fill="#191970" stroke="#191970" points="497.3424,-83.5978 493.8423,-73.5978 490.3424,-83.5979 497.3424,-83.5978"/>
</g>
<!-- Node15 -->
<g id="node16" class="node">
<title>Node15</title>
<g id="a_node16"><a xlink:href="param_8h.html" target="_top" xlink:title="artoolkitX functions for handling calibrated camera parameters. ">
<polygon fill="#ffffff" stroke="#000000" points="799.4951,-55.5 799.4951,-73.5 892.1895,-73.5 892.1895,-55.5 799.4951,-55.5"/>
<text text-anchor="middle" x="845.8423" y="-61.5" font-family="Helvetica,sans-Serif" font-size="10.00" fill="#000000">ARX/AR/param.h</text>
</a>
</g>
</g>
<!-- Node0&#45;&gt;Node15 -->
<g id="edge19" class="edge">
<title>Node0&#45;&gt;Node15</title>
<path fill="none" stroke="#191970" d="M556.6593,-116.8903C622.824,-104.327 725.9288,-85.3207 789.5388,-73.9857"/>
<polygon fill="#191970" stroke="#191970" points="790.1633,-77.4296 799.397,-72.2345 788.939,-70.5375 790.1633,-77.4296"/>
</g>
<!-- Node16 -->
<g id="node17" class="node">
<title>Node16</title>
<g id="a_node17"><a xlink:href="ar_image_proc_8h.html" target="_top" xlink:title="artoolkitX functions for 2D luminance image processing. ">
<polygon fill="#ffffff" stroke="#000000" points="660.0444,-55.5 660.0444,-73.5 781.6401,-73.5 781.6401,-55.5 660.0444,-55.5"/>
<text text-anchor="middle" x="720.8423" y="-61.5" font-family="Helvetica,sans-Serif" font-size="10.00" fill="#000000">ARX/AR/arImageProc.h</text>
</a>
</g>
</g>
<!-- Node0&#45;&gt;Node16 -->
<g id="edge21" class="edge">
<title>Node0&#45;&gt;Node16</title>
<path fill="none" stroke="#191970" d="M554.2074,-110.437C591.96,-99.3563 639.7823,-85.7462 674.5516,-76.2279"/>
<polygon fill="#191970" stroke="#191970" points="675.7146,-79.5388 684.4443,-73.5352 673.8761,-72.7845 675.7146,-79.5388"/>
</g>
<!-- Node7&#45;&gt;Node1 -->
<g id="edge8" class="edge">
<title>Node7&#45;&gt;Node1</title>
<path fill="none" stroke="#191970" d="M266.1864,-55.4376C297.3496,-46.9262 345.4197,-33.6914 395.9815,-19.2129"/>
<polygon fill="#191970" stroke="#191970" points="397.1385,-22.5222 405.7847,-16.399 395.2072,-15.7939 397.1385,-22.5222"/>
</g>
<!-- Node7&#45;&gt;Node2 -->
<g id="edge9" class="edge">
<title>Node7&#45;&gt;Node2</title>
<path fill="none" stroke="#191970" d="M196.6989,-55.4632C163.0843,-46.9904 111.3723,-33.7836 57.6638,-19.1745"/>
<polygon fill="#191970" stroke="#191970" points="58.5402,-15.7857 47.9715,-16.5286 56.6967,-22.5386 58.5402,-15.7857"/>
</g>
<!-- Node7&#45;&gt;Node4 -->
<g id="edge10" class="edge">
<title>Node7&#45;&gt;Node4</title>
<path fill="none" stroke="#191970" d="M209.2287,-55.4179C185.7346,-46.3817 149.474,-32.4353 123.0775,-22.2828"/>
<polygon fill="#191970" stroke="#191970" points="124.0808,-18.9188 113.4909,-18.5956 121.5679,-25.4522 124.0808,-18.9188"/>
</g>
<!-- Node8 -->
<g id="node9" class="node">
<title>Node8</title>
<polygon fill="#ffffff" stroke="#bfbfbf" points="131.7759,-.5 131.7759,-18.5 183.9087,-18.5 183.9087,-.5 131.7759,-.5"/>
<text text-anchor="middle" x="157.8423" y="-6.5" font-family="Helvetica,sans-Serif" font-size="10.00" fill="#000000">stdarg.h</text>
</g>
<!-- Node7&#45;&gt;Node8 -->
<g id="edge11" class="edge">
<title>Node7&#45;&gt;Node8</title>
<path fill="none" stroke="#191970" d="M220.4576,-55.4179C209.0583,-47.0584 191.9286,-34.4966 178.4658,-24.6239"/>
<polygon fill="#191970" stroke="#191970" points="180.3793,-21.6869 170.2454,-18.5956 176.2397,-27.3317 180.3793,-21.6869"/>
</g>
<!-- Node9 -->
<g id="node10" class="node">
<title>Node9</title>
<polygon fill="#ffffff" stroke="#bfbfbf" points="202.1108,-.5 202.1108,-18.5 267.5737,-18.5 267.5737,-.5 202.1108,-.5"/>
<text text-anchor="middle" x="234.8423" y="-6.5" font-family="Helvetica,sans-Serif" font-size="10.00" fill="#000000">sys/errno.h</text>
</g>
<!-- Node7&#45;&gt;Node9 -->
<g id="edge12" class="edge">
<title>Node7&#45;&gt;Node9</title>
<path fill="none" stroke="#191970" d="M233.1725,-55.4179C233.4344,-48.2164 233.8097,-37.8962 234.1382,-28.8632"/>
<polygon fill="#191970" stroke="#191970" points="237.639,-28.9001 234.5049,-18.7795 230.6437,-28.6456 237.639,-28.9001"/>
</g>
<!-- Node10 -->
<g id="node11" class="node">
<title>Node10</title>
<g id="a_node11"><a xlink:href="types_8h.html" target="_top" xlink:title="ARX/ARUtil/types.h">
<polygon fill="#ffffff" stroke="#000000" points="285.4951,-.5 285.4951,-18.5 388.1895,-18.5 388.1895,-.5 285.4951,-.5"/>
<text text-anchor="middle" x="336.8423" y="-6.5" font-family="Helvetica,sans-Serif" font-size="10.00" fill="#000000">ARX/ARUtil/types.h</text>
</a>
</g>
</g>
<!-- Node7&#45;&gt;Node10 -->
<g id="edge13" class="edge">
<title>Node7&#45;&gt;Node10</title>
<path fill="none" stroke="#191970" d="M250.0158,-55.4179C266.5002,-46.7001 291.6265,-33.4122 310.6155,-23.3699"/>
<polygon fill="#191970" stroke="#191970" points="312.4396,-26.3646 319.6433,-18.5956 309.1671,-20.1767 312.4396,-26.3646"/>
</g>
<!-- Node12 -->
<g id="node13" class="node">
<title>Node12</title>
<polygon fill="#ffffff" stroke="#bfbfbf" points="586.5566,-.5 586.5566,-18.5 633.1279,-18.5 633.1279,-.5 586.5566,-.5"/>
<text text-anchor="middle" x="609.8423" y="-6.5" font-family="Helvetica,sans-Serif" font-size="10.00" fill="#000000">math.h</text>
</g>
<!-- Node11&#45;&gt;Node12 -->
<g id="edge15" class="edge">
<title>Node11&#45;&gt;Node12</title>
<path fill="none" stroke="#191970" d="M598.1541,-55.4179C600.0074,-48.1372 602.672,-37.669 604.9892,-28.5659"/>
<polygon fill="#191970" stroke="#191970" points="608.4052,-29.3338 607.4802,-18.7795 601.6215,-27.607 608.4052,-29.3338"/>
</g>
<!-- Node13&#45;&gt;Node1 -->
<g id="edge17" class="edge">
<title>Node13&#45;&gt;Node1</title>
<path fill="none" stroke="#191970" d="M483.1089,-55.4179C473.4757,-47.2667 459.1206,-35.1201 447.5941,-25.3669"/>
<polygon fill="#191970" stroke="#191970" points="449.7036,-22.5671 439.8089,-18.7795 445.182,-27.9108 449.7036,-22.5671"/>
</g>
<!-- Node14 -->
<g id="node15" class="node">
<title>Node14</title>
<g id="a_node15"><a xlink:href="icp_core_8h.html" target="_top" xlink:title="ARX/AR/icpCore.h">
<polygon fill="#ffffff" stroke="#000000" points="469.4385,-.5 469.4385,-18.5 568.2461,-18.5 568.2461,-.5 469.4385,-.5"/>
<text text-anchor="middle" x="518.8423" y="-6.5" font-family="Helvetica,sans-Serif" font-size="10.00" fill="#000000">ARX/AR/icpCore.h</text>
</a>
</g>
</g>
<!-- Node13&#45;&gt;Node14 -->
<g id="edge18" class="edge">
<title>Node13&#45;&gt;Node14</title>
<path fill="none" stroke="#191970" d="M497.9705,-55.4179C501.3519,-47.9789 506.2458,-37.2123 510.4449,-27.9742"/>
<polygon fill="#191970" stroke="#191970" points="513.6725,-29.3315 514.6244,-18.7795 507.3,-26.4348 513.6725,-29.3315"/>
</g>
<!-- Node15&#45;&gt;Node0 -->
<g id="edge20" class="edge">
<title>Node15&#45;&gt;Node0</title>
<path fill="none" stroke="#191970" d="M801.8808,-73.5116C742.853,-84.8415 637.4241,-104.3469 566.5221,-117.0837"/>
<polygon fill="#191970" stroke="#191970" points="565.5469,-113.7026 556.3213,-118.912 566.7819,-120.5928 565.5469,-113.7026"/>
</g>
<!-- Node16&#45;&gt;Node0 -->
<g id="edge23" class="edge">
<title>Node16&#45;&gt;Node0</title>
<path fill="none" stroke="#191970" d="M694.1502,-73.53C662.8238,-83.0598 609.8461,-98.359 566.2016,-110.5553"/>
<polygon fill="#191970" stroke="#191970" points="565.1666,-107.2103 556.4726,-113.2654 567.045,-113.9535 565.1666,-107.2103"/>
</g>
<!-- Node16&#45;&gt;Node5 -->
<g id="edge22" class="edge">
<title>Node16&#45;&gt;Node5</title>
<path fill="none" stroke="#191970" d="M737.1901,-55.4179C752.8104,-46.7399 776.5821,-33.5334 794.6285,-23.5077"/>
<polygon fill="#191970" stroke="#191970" points="796.4283,-26.5117 803.4702,-18.5956 793.0288,-20.3925 796.4283,-26.5117"/>
</g>
</g>
</svg>
