<?xml version="1.0" encoding="UTF-8" standalone="no"?>
<!DOCTYPE svg PUBLIC "-//W3C//DTD SVG 1.1//EN"
 "http://www.w3.org/Graphics/SVG/1.1/DTD/svg11.dtd">
<!-- Generated by graphviz version 2.40.1 (20161225.0304)
 -->
<!-- Title: Source/ARX/AR/include/ARX/AR/ar.h Pages: 1 -->
<svg width="914pt" height="147pt"
 viewBox="0.00 0.00 914.31 147.00" xmlns="http://www.w3.org/2000/svg" xmlns:xlink="http://www.w3.org/1999/xlink">
<g id="graph0" class="graph" transform="scale(1 1) rotate(0) translate(4 143)">
<title>Source/ARX/AR/include/ARX/AR/ar.h</title>
<polygon fill="#ffffff" stroke="transparent" points="-4,4 -4,-143 910.3094,-143 910.3094,4 -4,4"/>
<!-- Node0 -->
<g id="node1" class="node">
<title>Node0</title>
<polygon fill="#bfbfbf" stroke="#000000" points="432.7612,-110.5 432.7612,-138.5 554.9233,-138.5 554.9233,-110.5 432.7612,-110.5"/>
<text text-anchor="start" x="440.7612" y="-126.5" font-family="Helvetica,sans-Serif" font-size="10.00" fill="#000000">Source/ARX/AR/include</text>
<text text-anchor="middle" x="493.8423" y="-116.5" font-family="Helvetica,sans-Serif" font-size="10.00" fill="#000000">/ARX/AR/ar.h</text>
</g>
<!-- Node1 -->
<g id="node2" class="node">
<title>Node1</title>
<polygon fill="#ffffff" stroke="#bfbfbf" points="406.1108,-.5 406.1108,-18.5 451.5737,-18.5 451.5737,-.5 406.1108,-.5"/>
<text text-anchor="middle" x="428.8423" y="-6.5" font-family="Helvetica,sans-Serif" font-size="10.00" fill="#000000">stdio.h</text>
</g>
<!-- Node0&#45;&gt;Node1 -->
<g id="edge1" class="edge">
<title>Node0&#45;&gt;Node1</title>
<path fill="none" stroke="#191970" d="M432.58,-113.9732C390.0904,-105.2797 338.8817,-91.5353 325.8423,-74 320.8034,-67.2237 321.2328,-62.0754 325.8423,-55 334.0156,-42.4542 369.2884,-28.6308 396.302,-19.551"/>
<polygon fill="#191970" stroke="#191970" points="397.4035,-22.8733 405.8152,-16.4317 395.2224,-16.2217 397.4035,-22.8733"/>
</g>
<!-- Node2 -->
<g id="node3" class="node">
<title>Node2</title>
<polygon fill="#ffffff" stroke="#bfbfbf" points="0,-.5 0,-18.5 47.6846,-18.5 47.6846,-.5 0,-.5"/>
<text text-anchor="middle" x="23.8423" y="-6.5" font-family="Helvetica,sans-Serif" font-size="10.00" fill="#000000">stdlib.h</text>
</g>
<!-- Node0&#45;&gt;Node2 -->
<g id="edge2" class="edge">
<title>Node0&#45;&gt;Node2</title>
<path fill="none" stroke="#191970" d="M432.5054,-121.1768C336.1988,-115.2171 154.4486,-100.7618 95.8423,-74 72.1419,-63.1775 50.7076,-41.76 37.5074,-26.5783"/>
<polygon fill="#191970" stroke="#191970" points="40.1677,-24.3036 31.0589,-18.8924 34.8051,-28.8029 40.1677,-24.3036"/>
</g>
<!-- Node3 -->
<g id="node4" class="node">
<title>Node3</title>
<polygon fill="#ffffff" stroke="#bfbfbf" points="120.7217,-55.5 120.7217,-73.5 168.9629,-73.5 168.9629,-55.5 120.7217,-55.5"/>
<text text-anchor="middle" x="144.8423" y="-61.5" font-family="Helvetica,sans-Serif" font-size="10.00" fill="#000000">stdint.h</text>
</g>
<!-- Node0&#45;&gt;Node3 -->
<g id="edge3" class="edge">
<title>Node0&#45;&gt;Node3</title>
<path fill="none" stroke="#191970" d="M432.5502,-116.9577C370.7646,-108.8478 272.5494,-94.5749 179.1602,-74.0883"/>
<polygon fill="#191970" stroke="#191970" points="179.7863,-70.6421 169.2652,-71.8899 178.2681,-77.4755 179.7863,-70.6421"/>
</g>
<!-- Node4 -->
<g id="node5" class="node">
<title>Node4</title>
<polygon fill="#ffffff" stroke="#bfbfbf" points="65.4458,-.5 65.4458,-18.5 114.2388,-18.5 114.2388,-.5 65.4458,-.5"/>
<text text-anchor="middle" x="89.8423" y="-6.5" font-family="Helvetica,sans-Serif" font-size="10.00" fill="#000000">string.h</text>
</g>
<!-- Node0&#45;&gt;Node4 -->
<g id="edge4" class="edge">
<title>Node0&#45;&gt;Node4</title>
<path fill="none" stroke="#191970" d="M432.4494,-119.9232C330.7741,-111.8254 136.156,-93.9349 111.8423,-74 98.4272,-63.0009 93.1622,-43.4423 91.112,-28.7374"/>
<polygon fill="#191970" stroke="#191970" points="94.5812,-28.2562 90.0892,-18.6608 87.617,-28.9631 94.5812,-28.2562"/>
</g>
<!-- Node5 -->
<g id="node6" class="node">
<title>Node5</title>
<polygon fill="#ffffff" stroke="#bfbfbf" points="774.3252,-.5 774.3252,-18.5 865.3594,-18.5 865.3594,-.5 774.3252,-.5"/>
<text text-anchor="middle" x="819.8423" y="-6.5" font-family="Helvetica,sans-Serif" font-size="10.00" fill="#000000">ARX/AR/config.h</text>
</g>
<!-- Node0&#45;&gt;Node5 -->
<g id="edge5" class="edge">
<title>Node0&#45;&gt;Node5</title>
<path fill="none" stroke="#191970" d="M555.3045,-121.2892C663.4152,-115.0083 878.3597,-99.4446 900.8423,-74 919.0755,-53.3646 886.4861,-34.3303 857.3674,-22.3695"/>
<polygon fill="#191970" stroke="#191970" points="858.2919,-18.973 847.7039,-18.5923 855.7435,-25.4926 858.2919,-18.973"/>
</g>
<!-- Node6 -->
<g id="node7" class="node">
<title>Node6</title>
<g id="a_node7"><a xlink:href="ar_config_8h.html" target="_top" xlink:title="ARX/AR/arConfig.h">
<polygon fill="#ffffff" stroke="#000000" points="334.7686,-55.5 334.7686,-73.5 436.916,-73.5 436.916,-55.5 334.7686,-55.5"/>
<text text-anchor="middle" x="385.8423" y="-61.5" font-family="Helvetica,sans-Serif" font-size="10.00" fill="#000000">ARX/AR/arConfig.h</text>
</a>
</g>
</g>
<!-- Node0&#45;&gt;Node6 -->
<g id="edge6" class="edge">
<title>Node0&#45;&gt;Node6</title>
<path fill="none" stroke="#191970" d="M468.5211,-110.4327C451.2666,-100.8468 428.5089,-88.2037 411.2385,-78.609"/>
<polygon fill="#191970" stroke="#191970" points="412.7195,-75.428 402.2782,-73.6311 409.32,-81.5471 412.7195,-75.428"/>
</g>
<!-- Node7 -->
<g id="node8" class="node">
<title>Node7</title>
<g id="a_node8"><a xlink:href="log_8h.html" target="_top" xlink:title="Logging utilities. ">
<polygon fill="#ffffff" stroke="#000000" points="186.7734,-55.5 186.7734,-73.5 278.9111,-73.5 278.9111,-55.5 186.7734,-55.5"/>
<text text-anchor="middle" x="232.8423" y="-61.5" font-family="Helvetica,sans-Serif" font-size="10.00" fill="#000000">ARX/ARUtil/log.h</text>
</a>
</g>
</g>
<!-- Node0&#45;&gt;Node7 -->
<g id="edge7" class="edge">
<title>Node0&#45;&gt;Node7</title>
<path fill="none" stroke="#191970" d="M432.6494,-110.4327C386.7576,-99.8828 324.7568,-85.6298 282.0538,-75.813"/>
<polygon fill="#191970" stroke="#191970" points="282.7038,-72.3712 272.1738,-73.5417 281.1354,-79.1932 282.7038,-72.3712"/>
</g>
<!-- Node11 -->
<g id="node12" class="node">
<title>Node11</title>
<g id="a_node12"><a xlink:href="matrix_8h.html" target="_top" xlink:title="ARX/AR/matrix.h">
<polygon fill="#ffffff" stroke="#000000" points="550.0566,-55.5 550.0566,-73.5 641.6279,-73.5 641.6279,-55.5 550.0566,-55.5"/>
<text text-anchor="middle" x="595.8423" y="-61.5" font-family="Helvetica,sans-Serif" font-size="10.00" fill="#000000">ARX/AR/matrix.h</text>
</a>
</g>
</g>
<!-- Node0&#45;&gt;Node11 -->
<g id="edge14" class="edge">
<title>Node0&#45;&gt;Node11</title>
<path fill="none" stroke="#191970" d="M517.7568,-110.4327C533.9018,-100.9356 555.1484,-88.4376 571.4025,-78.8763"/>
<polygon fill="#191970" stroke="#191970" points="573.4747,-81.7181 580.3195,-73.6311 569.9255,-75.6845 573.4747,-81.7181"/>
</g>
<!-- Node13 -->
<g id="node14" class="node">
<title>Node13</title>
<g id="a_node14"><a xlink:href="icp_8h.html" target="_top" xlink:title="ARX/AR/icp.h">
<polygon fill="#ffffff" stroke="#000000" points="455.2759,-55.5 455.2759,-73.5 532.4087,-73.5 532.4087,-55.5 455.2759,-55.5"/>
<text text-anchor="middle" x="493.8423" y="-61.5" font-family="Helvetica,sans-Serif" font-size="10.00" fill="#000000">ARX/AR/icp.h</text>
</a>
</g>
</g>
<!-- Node0&#45;&gt;Node13 -->
<g id="edge16" class="edge">
<title>Node0&#45;&gt;Node13</title>
<path fill="none" stroke="#191970" d="M493.8423,-110.2808C493.8423,-102.3776 493.8423,-92.4316 493.8423,-83.8308"/>
<polygon fill="#191970" stroke="#191970" points="497.3424,-83.5842 493.8423,-73.5842 490.3424,-83.5842 497.3424,-83.5842"/>
</g>
<!-- Node15 -->
<g id="node16" class="node">
<title>Node15</title>
<g id="a_node16"><a xlink:href="param_8h.html" target="_top" xlink:title="artoolkitX functions for handling calibrated camera parameters. ">
<polygon fill="#ffffff" stroke="#000000" points="799.4951,-55.5 799.4951,-73.5 892.1895,-73.5 892.1895,-55.5 799.4951,-55.5"/>
<text text-anchor="middle" x="845.8423" y="-61.5" font-family="Helvetica,sans-Serif" font-size="10.00" fill="#000000">ARX/AR/param.h</text>
</a>
</g>
</g>
<!-- Node0&#45;&gt;Node15 -->
<g id="edge19" class="edge">
<title>Node0&#45;&gt;Node15</title>
<path fill="none" stroke="#191970" d="M555.1538,-112.9172C613.4727,-102.7142 703.4848,-87.4289 781.8423,-74 784.3076,-73.5775 786.8349,-73.1436 789.3959,-72.7049"/>
<polygon fill="#191970" stroke="#191970" points="790.1109,-76.1336 799.3807,-71.0032 788.9348,-69.2331 790.1109,-76.1336"/>
</g>
<!-- Node16 -->
<g id="node17" class="node">
<title>Node16</title>
<g id="a_node17"><a xlink:href="ar_image_proc_8h.html" target="_top" xlink:title="artoolkitX functions for 2D luminance image processing. ">
<polygon fill="#ffffff" stroke="#000000" points="660.0444,-55.5 660.0444,-73.5 781.6401,-73.5 781.6401,-55.5 660.0444,-55.5"/>
<text text-anchor="middle" x="720.8423" y="-61.5" font-family="Helvetica,sans-Serif" font-size="10.00" fill="#000000">ARX/AR/arImageProc.h</text>
</a>
</g>
</g>
<!-- Node0&#45;&gt;Node16 -->
<g id="edge21" class="edge">
<title>Node0&#45;&gt;Node16</title>
<path fill="none" stroke="#191970" d="M541.2432,-110.4327C579.4694,-99.9719 632.9423,-85.8701 671.6406,-76.0625"/>
<polygon fill="#191970" stroke="#191970" points="672.7987,-79.3801 681.6397,-73.5417 671.0875,-72.5925 672.7987,-79.3801"/>
</g>
<!-- Node7&#45;&gt;Node1 -->
<g id="edge8" class="edge">
<title>Node7&#45;&gt;Node1</title>
<path fill="none" stroke="#191970" d="M266.1864,-55.4376C297.3496,-46.9262 345.4197,-33.6914 395.9815,-19.2129"/>
<polygon fill="#191970" stroke="#191970" points="397.1385,-22.5222 405.7847,-16.399 395.2072,-15.7939 397.1385,-22.5222"/>
</g>
<!-- Node7&#45;&gt;Node2 -->
<g id="edge9" class="edge">
<title>Node7&#45;&gt;Node2</title>
<path fill="none" stroke="#191970" d="M196.6989,-55.4632C163.0843,-46.9904 111.3723,-33.7836 57.6638,-19.1745"/>
<polygon fill="#191970" stroke="#191970" points="58.5402,-15.7857 47.9715,-16.5286 56.6967,-22.5386 58.5402,-15.7857"/>
</g>
<!-- Node7&#45;&gt;Node4 -->
<g id="edge10" class="edge">
<title>Node7&#45;&gt;Node4</title>
<path fill="none" stroke="#191970" d="M209.2287,-55.4179C185.7346,-46.3817 149.474,-32.4353 123.0775,-22.2828"/>
<polygon fill="#191970" stroke="#191970" points="124.0808,-18.9188 113.4909,-18.5956 121.5679,-25.4522 124.0808,-18.9188"/>
</g>
<!-- Node8 -->
<g id="node9" class="node">
<title>Node8</title>
<polygon fill="#ffffff" stroke="#bfbfbf" points="131.7759,-.5 131.7759,-18.5 183.9087,-18.5 183.9087,-.5 131.7759,-.5"/>
<text text-anchor="middle" x="157.8423" y="-6.5" font-family="Helvetica,sans-Serif" font-size="10.00" fill="#000000">stdarg.h</text>
</g>
<!-- Node7&#45;&gt;Node8 -->
<g id="edge11" class="edge">
<title>Node7&#45;&gt;Node8</title>
<path fill="none" stroke="#191970" d="M220.4576,-55.4179C209.0583,-47.0584 191.9286,-34.4966 178.4658,-24.6239"/>
<polygon fill="#191970" stroke="#191970" points="180.3793,-21.6869 170.2454,-18.5956 176.2397,-27.3317 180.3793,-21.6869"/>
</g>
<!-- Node9 -->
<g id="node10" class="node">
<title>Node9</title>
<polygon fill="#ffffff" stroke="#bfbfbf" points="202.1108,-.5 202.1108,-18.5 267.5737,-18.5 267.5737,-.5 202.1108,-.5"/>
<text text-anchor="middle" x="234.8423" y="-6.5" font-family="Helvetica,sans-Serif" font-size="10.00" fill="#000000">sys/errno.h</text>
</g>
<!-- Node7&#45;&gt;Node9 -->
<g id="edge12" class="edge">
<title>Node7&#45;&gt;Node9</title>
<path fill="none" stroke="#191970" d="M233.1725,-55.4179C233.4344,-48.2164 233.8097,-37.8962 234.1382,-28.8632"/>
<polygon fill="#191970" stroke="#191970" points="237.639,-28.9001 234.5049,-18.7795 230.6437,-28.6456 237.639,-28.9001"/>
</g>
<!-- Node10 -->
<g id="node11" class="node">
<title>Node10</title>
<g id="a_node11"><a xlink:href="types_8h.html" target="_top" xlink:title="ARX/ARUtil/types.h">
<polygon fill="#ffffff" stroke="#000000" points="285.4951,-.5 285.4951,-18.5 388.1895,-18.5 388.1895,-.5 285.4951,-.5"/>
<text text-anchor="middle" x="336.8423" y="-6.5" font-family="Helvetica,sans-Serif" font-size="10.00" fill="#000000">ARX/ARUtil/types.h</text>
</a>
</g>
</g>
<!-- Node7&#45;&gt;Node10 -->
<g id="edge13" class="edge">
<title>Node7&#45;&gt;Node10</title>
<path fill="none" stroke="#191970" d="M250.0158,-55.4179C266.5002,-46.7001 291.6265,-33.4122 310.6155,-23.3699"/>
<polygon fill="#191970" stroke="#191970" points="312.4396,-26.3646 319.6433,-18.5956 309.1671,-20.1767 312.4396,-26.3646"/>
</g>
<!-- Node12 -->
<g id="node13" class="node">
<title>Node12</title>
<polygon fill="#ffffff" stroke="#bfbfbf" points="586.5566,-.5 586.5566,-18.5 633.1279,-18.5 633.1279,-.5 586.5566,-.5"/>
<text text-anchor="middle" x="609.8423" y="-6.5" font-family="Helvetica,sans-Serif" font-size="10.00" fill="#000000">math.h</text>
</g>
<!-- Node11&#45;&gt;Node12 -->
<g id="edge15" class="edge">
<title>Node11&#45;&gt;Node12</title>
<path fill="none" stroke="#191970" d="M598.1541,-55.4179C600.0074,-48.1372 602.672,-37.669 604.9892,-28.5659"/>
<polygon fill="#191970" stroke="#191970" points="608.4052,-29.3338 607.4802,-18.7795 601.6215,-27.607 608.4052,-29.3338"/>
</g>
<!-- Node13&#45;&gt;Node1 -->
<g id="edge17" class="edge">
<title>Node13&#45;&gt;Node1</title>
<path fill="none" stroke="#191970" d="M483.1089,-55.4179C473.4757,-47.2667 459.1206,-35.1201 447.5941,-25.3669"/>
<polygon fill="#191970" stroke="#191970" points="449.7036,-22.5671 439.8089,-18.7795 445.182,-27.9108 449.7036,-22.5671"/>
</g>
<!-- Node14 -->
<g id="node15" class="node">
<title>Node14</title>
<g id="a_node15"><a xlink:href="icp_core_8h.html" target="_top" xlink:title="ARX/AR/icpCore.h">
<polygon fill="#ffffff" stroke="#000000" points="469.4385,-.5 469.4385,-18.5 568.2461,-18.5 568.2461,-.5 469.4385,-.5"/>
<text text-anchor="middle" x="518.8423" y="-6.5" font-family="Helvetica,sans-Serif" font-size="10.00" fill="#000000">ARX/AR/icpCore.h</text>
</a>
</g>
</g>
<!-- Node13&#45;&gt;Node14 -->
<g id="edge18" class="edge">
<title>Node13&#45;&gt;Node14</title>
<path fill="none" stroke="#191970" d="M497.9705,-55.4179C501.3519,-47.9789 506.2458,-37.2123 510.4449,-27.9742"/>
<polygon fill="#191970" stroke="#191970" points="513.6725,-29.3315 514.6244,-18.7795 507.3,-26.4348 513.6725,-29.3315"/>
</g>
<!-- Node15&#45;&gt;Node0 -->
<g id="edge20" class="edge">
<title>Node15&#45;&gt;Node0</title>
<path fill="none" stroke="#191970" d="M802.7327,-73.5042C801.7617,-73.6709 800.7974,-73.8363 799.8423,-74 719.6349,-87.7459 627.2163,-103.437 565.0361,-113.6313"/>
<polygon fill="#191970" stroke="#191970" points="564.2443,-110.2141 554.9399,-115.2814 565.3735,-117.1225 564.2443,-110.2141"/>
</g>
<!-- Node16&#45;&gt;Node0 -->
<g id="edge23" class="edge">
<title>Node16&#45;&gt;Node0</title>
<path fill="none" stroke="#191970" d="M691.6292,-73.5417C659.1813,-82.614 605.8964,-96.7966 562.7641,-107.8983"/>
<polygon fill="#191970" stroke="#191970" points="561.7009,-104.5576 552.8842,-110.4327 563.4402,-111.3381 561.7009,-104.5576"/>
</g>
<!-- Node16&#45;&gt;Node5 -->
<g id="edge22" class="edge">
<title>Node16&#45;&gt;Node5</title>
<path fill="none" stroke="#191970" d="M737.1901,-55.4179C752.8104,-46.7399 776.5821,-33.5334 794.6285,-23.5077"/>
<polygon fill="#191970" stroke="#191970" points="796.4283,-26.5117 803.4702,-18.5956 793.0288,-20.3925 796.4283,-26.5117"/>
</g>
</g>
</svg>
