<?xml version="1.0" encoding="UTF-8" standalone="no"?>
<!DOCTYPE svg PUBLIC "-//W3C//DTD SVG 1.1//EN"
 "http://www.w3.org/Graphics/SVG/1.1/DTD/svg11.dtd">
<!-- Generated by graphviz version 8.0.5 (20230430.1635)
 -->
<!-- Title: arGetTransMat Pages: 1 -->
<svg width="604pt" height="233pt"
 viewBox="0.00 0.00 604.00 233.25" xmlns="http://www.w3.org/2000/svg" xmlns:xlink="http://www.w3.org/1999/xlink">
<g id="graph0" class="graph" transform="scale(1 1) rotate(0) translate(4 229.25)">
<title>arGetTransMat</title>
<!-- Node1 -->
<g id="node1" class="node">
<title>Node1</title>
<g id="a_node1"><a xlink:title="(description)">
<polygon fill="#999999" stroke="#666666" points="81.25,-93.25 0,-93.25 0,-74 81.25,-74 81.25,-93.25"/>
<text text-anchor="middle" x="40.62" y="-79.75" font-family="Helvetica,sans-Serif" font-size="10.00">arGetTransMat</text>
</a>
</g>
</g>
<!-- Node2 -->
<g id="node2" class="node">
<title>Node2</title>
<g id="a_node2"><a xlink:href="icp_point_8c.html#a466204966df0b17ea76bd05a3d396307" target="_top" xlink:title=" ">
<polygon fill="white" stroke="#666666" points="168.5,-93.25 117.25,-93.25 117.25,-74 168.5,-74 168.5,-93.25"/>
<text text-anchor="middle" x="142.88" y="-79.75" font-family="Helvetica,sans-Serif" font-size="10.00">icpPoint</text>
</a>
</g>
</g>
<!-- Node1&#45;&gt;Node2 -->
<g id="edge1" class="edge">
<title>Node1&#45;&gt;Node2</title>
<path fill="none" stroke="#63b8ff" d="M81.53,-83.62C89.63,-83.62 98.09,-83.62 106.03,-83.62"/>
<polygon fill="#63b8ff" stroke="#63b8ff" points="105.81,-87.13 115.81,-83.62 105.81,-80.13 105.81,-87.13"/>
</g>
<!-- Node3 -->
<g id="node3" class="node">
<title>Node3</title>
<g id="a_node3"><a xlink:href="ar_util_8c.html#ae28eeba3e16224a7d77b46bd34b8f4fe" target="_top" xlink:title=" ">
<polygon fill="white" stroke="#666666" points="313.12,-167.25 241.62,-167.25 241.62,-148 313.12,-148 313.12,-167.25"/>
<text text-anchor="middle" x="277.38" y="-153.75" font-family="Helvetica,sans-Serif" font-size="10.00">arUtilMatMul</text>
</a>
</g>
</g>
<!-- Node2&#45;&gt;Node3 -->
<g id="edge2" class="edge">
<title>Node2&#45;&gt;Node3</title>
<path fill="none" stroke="#63b8ff" d="M151.8,-93.53C162.44,-106.16 182.57,-127.77 204.5,-139.62 212.63,-144.02 221.87,-147.37 230.94,-149.91"/>
<polygon fill="#63b8ff" stroke="#63b8ff" points="229.89,-153.5 240.44,-152.53 231.59,-146.71 229.89,-153.5"/>
</g>
<!-- Node4 -->
<g id="node4" class="node">
<title>Node4</title>
<g id="a_node4"><a xlink:href="icp_core_8c.html#a4906398b4594d29ab8035b4016a7e9de" target="_top" xlink:title=" ">
<polygon fill="white" stroke="#666666" points="314.62,-130.25 240.12,-130.25 240.12,-111 314.62,-111 314.62,-130.25"/>
<text text-anchor="middle" x="277.38" y="-116.75" font-family="Helvetica,sans-Serif" font-size="10.00">icpGetDeltaS</text>
</a>
</g>
</g>
<!-- Node2&#45;&gt;Node4 -->
<g id="edge3" class="edge">
<title>Node2&#45;&gt;Node4</title>
<path fill="none" stroke="#63b8ff" d="M168.85,-91.81C179.75,-95.29 192.72,-99.31 204.5,-102.62 212.42,-104.86 220.87,-107.1 229.09,-109.2"/>
<polygon fill="#63b8ff" stroke="#63b8ff" points="228.15,-112.83 238.7,-111.88 229.86,-106.04 228.15,-112.83"/>
</g>
<!-- Node13 -->
<g id="node13" class="node">
<title>Node13</title>
<g id="a_node13"><a xlink:href="icp_core_8c.html#ac384ca6737fdee325d58740d665eda0a" target="_top" xlink:title=" ">
<polygon fill="white" stroke="#666666" points="314.62,-93.25 240.12,-93.25 240.12,-74 314.62,-74 314.62,-93.25"/>
<text text-anchor="middle" x="277.38" y="-79.75" font-family="Helvetica,sans-Serif" font-size="10.00">icpGetJ_U_S</text>
</a>
</g>
</g>
<!-- Node2&#45;&gt;Node13 -->
<g id="edge16" class="edge">
<title>Node2&#45;&gt;Node13</title>
<path fill="none" stroke="#63b8ff" d="M168.8,-83.62C185.69,-83.62 208.54,-83.62 228.84,-83.62"/>
<polygon fill="#63b8ff" stroke="#63b8ff" points="228.8,-87.13 238.8,-83.62 228.8,-80.13 228.8,-87.13"/>
</g>
<!-- Node14 -->
<g id="node14" class="node">
<title>Node14</title>
<g id="a_node14"><a xlink:href="icp_core_8c.html#aceeb3fd72a762c2078d8fb88ec03ccfb" target="_top" xlink:title=" ">
<polygon fill="white" stroke="#666666" points="350.25,-56.25 204.5,-56.25 204.5,-37 350.25,-37 350.25,-56.25"/>
<text text-anchor="middle" x="277.38" y="-42.75" font-family="Helvetica,sans-Serif" font-size="10.00">icpGetU_from_X_by_MatX2U</text>
</a>
</g>
</g>
<!-- Node2&#45;&gt;Node14 -->
<g id="edge17" class="edge">
<title>Node2&#45;&gt;Node14</title>
<path fill="none" stroke="#63b8ff" d="M168.85,-75.44C179.75,-71.96 192.72,-67.94 204.5,-64.62 210.84,-62.84 217.51,-61.05 224.14,-59.33"/>
<polygon fill="#63b8ff" stroke="#63b8ff" points="224.64,-62.56 233.46,-56.68 222.9,-55.77 224.64,-62.56"/>
</g>
<!-- Node15 -->
<g id="node15" class="node">
<title>Node15</title>
<g id="a_node15"><a xlink:href="icp_core_8c.html#a94201124387610a46b975cdb9d8a1db6" target="_top" xlink:title=" ">
<polygon fill="white" stroke="#666666" points="315.75,-19.25 239,-19.25 239,0 315.75,0 315.75,-19.25"/>
<text text-anchor="middle" x="277.38" y="-5.75" font-family="Helvetica,sans-Serif" font-size="10.00">icpUpdateMat</text>
</a>
</g>
</g>
<!-- Node2&#45;&gt;Node15 -->
<g id="edge18" class="edge">
<title>Node2&#45;&gt;Node15</title>
<path fill="none" stroke="#63b8ff" d="M151.8,-73.72C162.44,-61.09 182.57,-39.48 204.5,-27.62 211.9,-23.62 220.21,-20.49 228.48,-18.05"/>
<polygon fill="#63b8ff" stroke="#63b8ff" points="229.09,-21.24 237.86,-15.31 227.3,-14.48 229.09,-21.24"/>
</g>
<!-- Node5 -->
<g id="node5" class="node">
<title>Node5</title>
<g id="a_node5"><a xlink:href="m_alloc_mul_8c.html#a8e99293b68c38ce8a8d1920884d69f73" target="_top" xlink:title=" ">
<polygon fill="white" stroke="#666666" points="479.5,-149.25 390.75,-149.25 390.75,-130 479.5,-130 479.5,-149.25"/>
<text text-anchor="middle" x="435.12" y="-135.75" font-family="Helvetica,sans-Serif" font-size="10.00">arMatrixAllocMul</text>
</a>
</g>
</g>
<!-- Node4&#45;&gt;Node5 -->
<g id="edge4" class="edge">
<title>Node4&#45;&gt;Node5</title>
<path fill="none" stroke="#63b8ff" d="M314.89,-125.08C334.11,-127.42 358.06,-130.35 379.45,-132.95"/>
<polygon fill="#63b8ff" stroke="#63b8ff" points="379.01,-136.55 389.36,-134.29 379.85,-129.6 379.01,-136.55"/>
</g>
<!-- Node7 -->
<g id="node7" class="node">
<title>Node7</title>
<g id="a_node7"><a xlink:href="m_free_8c.html#ac4b7a714cce9fffda773d86363380454" target="_top" xlink:title=" ">
<polygon fill="white" stroke="#666666" points="593.38,-187.25 522.62,-187.25 522.62,-168 593.38,-168 593.38,-187.25"/>
<text text-anchor="middle" x="558" y="-173.75" font-family="Helvetica,sans-Serif" font-size="10.00">arMatrixFree</text>
</a>
</g>
</g>
<!-- Node4&#45;&gt;Node7 -->
<g id="edge13" class="edge">
<title>Node4&#45;&gt;Node7</title>
<path fill="none" stroke="#63b8ff" d="M314.78,-127.79C326.33,-130.58 339,-134.18 350.25,-138.62 367.27,-145.35 368.81,-153.06 386.25,-158.62 427.27,-171.72 476.33,-176.09 511.32,-177.41"/>
<polygon fill="#63b8ff" stroke="#63b8ff" points="511.05,-180.93 521.15,-177.74 511.26,-173.93 511.05,-180.93"/>
</g>
<!-- Node8 -->
<g id="node8" class="node">
<title>Node8</title>
<g id="a_node8"><a xlink:href="m_mul_8c.html#a202bc2db43d563792c99e852ea0b7ba4" target="_top" xlink:title=" ">
<polygon fill="white" stroke="#666666" points="591.5,-112.25 524.5,-112.25 524.5,-93 591.5,-93 591.5,-112.25"/>
<text text-anchor="middle" x="558" y="-98.75" font-family="Helvetica,sans-Serif" font-size="10.00">arMatrixMul</text>
</a>
</g>
</g>
<!-- Node4&#45;&gt;Node8 -->
<g id="edge14" class="edge">
<title>Node4&#45;&gt;Node8</title>
<path fill="none" stroke="#63b8ff" d="M315.09,-118.25C366.24,-114.95 458.8,-108.97 513.4,-105.44"/>
<polygon fill="#63b8ff" stroke="#63b8ff" points="513.36,-108.89 523.11,-104.75 512.91,-101.9 513.36,-108.89"/>
</g>
<!-- Node9 -->
<g id="node9" class="node">
<title>Node9</title>
<g id="a_node9"><a xlink:href="m_alloc_trans_8c.html#a4e2bf8cd529487fb1ff4d0bbc52eee1e" target="_top" xlink:title=" ">
<polygon fill="white" stroke="#666666" points="484,-225.25 386.25,-225.25 386.25,-206 484,-206 484,-225.25"/>
<text text-anchor="middle" x="435.12" y="-211.75" font-family="Helvetica,sans-Serif" font-size="10.00">arMatrixAllocTrans</text>
</a>
</g>
</g>
<!-- Node4&#45;&gt;Node9 -->
<g id="edge8" class="edge">
<title>Node4&#45;&gt;Node9</title>
<path fill="none" stroke="#63b8ff" d="M314.91,-124.48C326.96,-127.08 339.92,-131.41 350.25,-138.62 373.59,-154.93 364.83,-172.86 386.25,-191.62 389.97,-194.88 394.21,-197.82 398.59,-200.44"/>
<polygon fill="#63b8ff" stroke="#63b8ff" points="396.81,-203.99 407.28,-205.64 400.12,-197.82 396.81,-203.99"/>
</g>
<!-- Node11 -->
<g id="node11" class="node">
<title>Node11</title>
<g id="a_node11"><a xlink:href="m_disp_8c.html#a60f36997579d355f6030f872faad84a2" target="_top" xlink:title=" ">
<polygon fill="white" stroke="#666666" points="470.88,-73.25 399.38,-73.25 399.38,-54 470.88,-54 470.88,-73.25"/>
<text text-anchor="middle" x="435.12" y="-59.75" font-family="Helvetica,sans-Serif" font-size="10.00">arMatrixDisp</text>
</a>
</g>
</g>
<!-- Node4&#45;&gt;Node11 -->
<g id="edge12" class="edge">
<title>Node4&#45;&gt;Node11</title>
<path fill="none" stroke="#63b8ff" d="M314.97,-112.88C326.4,-110.09 338.97,-106.62 350.25,-102.62 360.76,-98.9 384.53,-87.75 404.09,-78.32"/>
<polygon fill="#63b8ff" stroke="#63b8ff" points="405.37,-81.11 412.84,-73.6 402.32,-74.81 405.37,-81.11"/>
</g>
<!-- Node12 -->
<g id="node12" class="node">
<title>Node12</title>
<g id="a_node12"><a xlink:href="m_self_inv_8c.html#a929738025b539a0c1bbd2f395ad4d981" target="_top" xlink:title=" ">
<polygon fill="white" stroke="#666666" points="476.12,-36.25 394.12,-36.25 394.12,-17 476.12,-17 476.12,-36.25"/>
<text text-anchor="middle" x="435.12" y="-22.75" font-family="Helvetica,sans-Serif" font-size="10.00">arMatrixSelfInv</text>
</a>
</g>
</g>
<!-- Node4&#45;&gt;Node12 -->
<g id="edge15" class="edge">
<title>Node4&#45;&gt;Node12</title>
<path fill="none" stroke="#63b8ff" d="M315.08,-117.01C327.15,-114.43 340.07,-110.06 350.25,-102.62 374.76,-84.74 362.8,-63.88 386.25,-44.62 387.33,-43.74 388.46,-42.89 389.63,-42.08"/>
<polygon fill="#63b8ff" stroke="#63b8ff" points="391.21,-44.64 398.16,-36.64 387.74,-38.56 391.21,-44.64"/>
</g>
<!-- Node6 -->
<g id="node6" class="node">
<title>Node6</title>
<g id="a_node6"><a xlink:href="m_alloc_8c.html#a69c9a974dc5a3963148ebb2c4a80f969" target="_top" xlink:title=" ">
<polygon fill="white" stroke="#666666" points="594.5,-149.25 521.5,-149.25 521.5,-130 594.5,-130 594.5,-149.25"/>
<text text-anchor="middle" x="558" y="-135.75" font-family="Helvetica,sans-Serif" font-size="10.00">arMatrixAlloc</text>
</a>
</g>
</g>
<!-- Node5&#45;&gt;Node6 -->
<g id="edge5" class="edge">
<title>Node5&#45;&gt;Node6</title>
<path fill="none" stroke="#63b8ff" d="M479.76,-139.62C489.8,-139.62 500.5,-139.62 510.64,-139.62"/>
<polygon fill="#63b8ff" stroke="#63b8ff" points="510.37,-143.13 520.37,-139.62 510.37,-136.13 510.37,-143.13"/>
</g>
<!-- Node5&#45;&gt;Node7 -->
<g id="edge6" class="edge">
<title>Node5&#45;&gt;Node7</title>
<path fill="none" stroke="#63b8ff" d="M468.2,-149.71C482.52,-154.21 499.59,-159.58 514.92,-164.39"/>
<polygon fill="#63b8ff" stroke="#63b8ff" points="513.61,-167.97 524.19,-167.63 515.7,-161.29 513.61,-167.97"/>
</g>
<!-- Node5&#45;&gt;Node8 -->
<g id="edge7" class="edge">
<title>Node5&#45;&gt;Node8</title>
<path fill="none" stroke="#63b8ff" d="M469.15,-129.51C482.88,-125.31 499,-120.38 513.65,-115.89"/>
<polygon fill="#63b8ff" stroke="#63b8ff" points="514.47,-119 523.01,-112.72 512.42,-112.3 514.47,-119"/>
</g>
<!-- Node9&#45;&gt;Node6 -->
<g id="edge9" class="edge">
<title>Node9&#45;&gt;Node6</title>
<path fill="none" stroke="#63b8ff" d="M449.74,-205.61C466.06,-193.79 494.41,-173.81 520,-158.62 522.2,-157.32 524.5,-156.01 526.83,-154.73"/>
<polygon fill="#63b8ff" stroke="#63b8ff" points="528.21,-157.42 535.4,-149.64 524.93,-151.24 528.21,-157.42"/>
</g>
<!-- Node9&#45;&gt;Node7 -->
<g id="edge10" class="edge">
<title>Node9&#45;&gt;Node7</title>
<path fill="none" stroke="#63b8ff" d="M468.2,-205.54C482.52,-201.04 499.59,-195.67 514.92,-190.86"/>
<polygon fill="#63b8ff" stroke="#63b8ff" points="515.7,-193.96 524.19,-187.62 513.61,-187.28 515.7,-193.96"/>
</g>
<!-- Node10 -->
<g id="node10" class="node">
<title>Node10</title>
<g id="a_node10"><a xlink:href="m_trans_8c.html#ad3d9712dd27f655902a8a3315e623d85" target="_top" xlink:title=" ">
<polygon fill="white" stroke="#666666" points="596,-225.25 520,-225.25 520,-206 596,-206 596,-225.25"/>
<text text-anchor="middle" x="558" y="-211.75" font-family="Helvetica,sans-Serif" font-size="10.00">arMatrixTrans</text>
</a>
</g>
</g>
<!-- Node9&#45;&gt;Node10 -->
<g id="edge11" class="edge">
<title>Node9&#45;&gt;Node10</title>
<path fill="none" stroke="#63b8ff" d="M484.25,-215.62C492.39,-215.62 500.85,-215.62 509,-215.62"/>
<polygon fill="#63b8ff" stroke="#63b8ff" points="508.85,-219.13 518.85,-215.62 508.85,-212.13 508.85,-219.13"/>
</g>
</g>
</svg>
