<?xml version="1.0" encoding="UTF-8" standalone="no"?>
<!DOCTYPE svg PUBLIC "-//W3C//DTD SVG 1.1//EN"
 "http://www.w3.org/Graphics/SVG/1.1/DTD/svg11.dtd">
<!-- Generated by graphviz version 8.0.5 (20230430.1635)
 -->
<!-- Title: arSetLabelingThreshMode Pages: 1 -->
<svg width="266pt" height="64pt"
 viewBox="0.00 0.00 265.75 64.25" xmlns="http://www.w3.org/2000/svg" xmlns:xlink="http://www.w3.org/1999/xlink">
<g id="graph0" class="graph" transform="scale(1 1) rotate(0) translate(4 60.25)">
<title>arSetLabelingThreshMode</title>
<!-- Node1 -->
<g id="node1" class="node">
<title>Node1</title>
<g id="a_node1"><a xlink:title="Set the labeling threshold mode (auto/manual).">
<polygon fill="#999999" stroke="#666666" points="129.25,-37.25 0,-37.25 0,-18 129.25,-18 129.25,-37.25"/>
<text text-anchor="middle" x="64.62" y="-23.75" font-family="Helvetica,sans-Serif" font-size="10.00">arSetLabelingThreshMode</text>
</a>
</g>
</g>
<!-- Node2 -->
<g id="node2" class="node">
<title>Node2</title>
<g id="a_node2"><a xlink:href="ar_image_proc_8c.html#a99a7b2bbb653be2ecc772ceed7159ce1" target="_top" xlink:title="Finish image processing and free memory.">
<polygon fill="white" stroke="#666666" points="257.75,-56.25 165.25,-56.25 165.25,-37 257.75,-37 257.75,-56.25"/>
<text text-anchor="middle" x="211.5" y="-42.75" font-family="Helvetica,sans-Serif" font-size="10.00">arImageProcFinal</text>
</a>
</g>
</g>
<!-- Node1&#45;&gt;Node2 -->
<g id="edge1" class="edge">
<title>Node1&#45;&gt;Node2</title>
<path fill="none" stroke="#63b8ff" d="M129.59,-36.01C137.82,-37.09 146.21,-38.19 154.3,-39.25"/>
<polygon fill="#63b8ff" stroke="#63b8ff" points="153.76,-42.84 164.13,-40.67 154.67,-35.9 153.76,-42.84"/>
</g>
<!-- Node3 -->
<g id="node3" class="node">
<title>Node3</title>
<g id="a_node3"><a xlink:href="ar_image_proc_8c.html#ab17100ae9f8d3a2b881830f135bfffa8" target="_top" xlink:title="Initialise image processing.">
<polygon fill="white" stroke="#666666" points="254,-19.25 169,-19.25 169,0 254,0 254,-19.25"/>
<text text-anchor="middle" x="211.5" y="-5.75" font-family="Helvetica,sans-Serif" font-size="10.00">arImageProcInit</text>
</a>
</g>
</g>
<!-- Node1&#45;&gt;Node3 -->
<g id="edge2" class="edge">
<title>Node1&#45;&gt;Node3</title>
<path fill="none" stroke="#63b8ff" d="M129.59,-19.68C138.97,-18.51 148.54,-17.32 157.66,-16.19"/>
<polygon fill="#63b8ff" stroke="#63b8ff" points="158.02,-19.55 167.52,-14.84 157.16,-12.6 158.02,-19.55"/>
</g>
</g>
</svg>
