<?xml version="1.0" encoding="UTF-8" standalone="no"?>
<!DOCTYPE svg PUBLIC "-//W3C//DTD SVG 1.1//EN"
 "http://www.w3.org/Graphics/SVG/1.1/DTD/svg11.dtd">
<!-- Generated by graphviz version 2.40.1 (20161225.0304)
 -->
<!-- Title: arUtilChangeToResourcesDirectory Pages: 1 -->
<svg width="583pt" height="64pt"
 viewBox="0.00 0.00 582.59 64.00" xmlns="http://www.w3.org/2000/svg" xmlns:xlink="http://www.w3.org/1999/xlink">
<g id="graph0" class="graph" transform="scale(1 1) rotate(0) translate(4 60)">
<title>arUtilChangeToResourcesDirectory</title>
<polygon fill="#ffffff" stroke="transparent" points="-4,4 -4,-60 578.5898,-60 578.5898,4 -4,4"/>
<!-- Node223 -->
<g id="node1" class="node">
<title>Node223</title>
<polygon fill="#bfbfbf" stroke="#000000" points="0,-18.5 0,-36.5 172.7285,-36.5 172.7285,-18.5 0,-18.5"/>
<text text-anchor="middle" x="86.3643" y="-24.5" font-family="Helvetica,sans-Serif" font-size="10.00" fill="#000000">arUtilChangeToResourcesDirectory</text>
</g>
<!-- Node224 -->
<g id="node2" class="node">
<title>Node224</title>
<g id="a_node2"><a xlink:href="ar_util_8c.html#ad5271b5188c065012893079f667e2eac" target="_top" xlink:title="Get the path to the resources directory using the specified behavior. ">
<polygon fill="#ffffff" stroke="#000000" points="208.7285,-18.5 208.7285,-36.5 372.5557,-36.5 372.5557,-18.5 208.7285,-18.5"/>
<text text-anchor="middle" x="290.6421" y="-24.5" font-family="Helvetica,sans-Serif" font-size="10.00" fill="#000000">arUtilGetResourcesDirectoryPath</text>
</a>
</g>
</g>
<!-- Node223&#45;&gt;Node224 -->
<g id="edge1" class="edge">
<title>Node223&#45;&gt;Node224</title>
<path fill="none" stroke="#191970" d="M172.9964,-27.5C181.3458,-27.5 189.8367,-27.5 198.2389,-27.5"/>
<polygon fill="#191970" stroke="#191970" points="198.4283,-31.0001 208.4283,-27.5 198.4283,-24.0001 198.4283,-31.0001"/>
</g>
<!-- Node224&#45;&gt;Node224 -->
<g id="edge4" class="edge">
<title>Node224&#45;&gt;Node224</title>
<path fill="none" stroke="#191970" d="M260.8417,-36.5134C244.3805,-45.322 254.314,-55 290.6421,-55 317.3206,-55 329.7642,-49.7806 327.9731,-43.5191"/>
<polygon fill="#191970" stroke="#191970" points="330.1481,-40.7622 320.4425,-36.5134 325.3802,-45.8873 330.1481,-40.7622"/>
</g>
<!-- Node225 -->
<g id="node3" class="node">
<title>Node225</title>
<g id="a_node3"><a xlink:href="ar_util_8c.html#ae4f3e60c7edce9acfdddb9b454d13c1d" target="_top" xlink:title="arUtilGetDirectoryNameFromPath">
<polygon fill="#ffffff" stroke="#000000" points="408.5557,-37.5 408.5557,-55.5 574.5898,-55.5 574.5898,-37.5 408.5557,-37.5"/>
<text text-anchor="middle" x="491.5728" y="-43.5" font-family="Helvetica,sans-Serif" font-size="10.00" fill="#000000">arUtilGetDirectoryNameFromPath</text>
</a>
</g>
</g>
<!-- Node224&#45;&gt;Node225 -->
<g id="edge2" class="edge">
<title>Node224&#45;&gt;Node225</title>
<path fill="none" stroke="#191970" d="M372.6581,-35.2554C381.1595,-36.0593 389.8435,-36.8805 398.4551,-37.6948"/>
<polygon fill="#191970" stroke="#191970" points="398.2307,-41.1891 408.5158,-38.6461 398.8898,-34.2202 398.2307,-41.1891"/>
</g>
<!-- Node226 -->
<g id="node4" class="node">
<title>Node226</title>
<g id="a_node4"><a xlink:href="ar_util_8c.html#ac0d48e09db3feb8db34b2911ca70f8d0" target="_top" xlink:title="arUtilGetFileNameFromPath">
<polygon fill="#ffffff" stroke="#000000" points="420.5015,-.5 420.5015,-18.5 562.644,-18.5 562.644,-.5 420.5015,-.5"/>
<text text-anchor="middle" x="491.5728" y="-6.5" font-family="Helvetica,sans-Serif" font-size="10.00" fill="#000000">arUtilGetFileNameFromPath</text>
</a>
</g>
</g>
<!-- Node224&#45;&gt;Node226 -->
<g id="edge3" class="edge">
<title>Node224&#45;&gt;Node226</title>
<path fill="none" stroke="#191970" d="M372.6581,-20.1527C385.0355,-19.0439 397.7999,-17.9005 410.1645,-16.7928"/>
<polygon fill="#191970" stroke="#191970" points="410.7916,-20.2507 420.4394,-15.8723 410.167,-13.2787 410.7916,-20.2507"/>
</g>
</g>
</svg>
