<?xml version="1.0" encoding="UTF-8" standalone="no"?>
<!DOCTYPE svg PUBLIC "-//W3C//DTD SVG 1.1//EN"
 "http://www.w3.org/Graphics/SVG/1.1/DTD/svg11.dtd">
<!-- Generated by graphviz version 2.40.1 (20161225.0304)
 -->
<!-- Title: ar3DStereoChangeCpara Pages: 1 -->
<svg width="294pt" height="64pt"
 viewBox="0.00 0.00 294.44 64.00" xmlns="http://www.w3.org/2000/svg" xmlns:xlink="http://www.w3.org/1999/xlink">
<g id="graph0" class="graph" transform="scale(1 1) rotate(0) translate(4 60)">
<title>ar3DStereoChangeCpara</title>
<polygon fill="#ffffff" stroke="transparent" points="-4,4 -4,-60 290.4424,-60 290.4424,4 -4,4"/>
<!-- Node15 -->
<g id="node1" class="node">
<title>Node15</title>
<polygon fill="#bfbfbf" stroke="#000000" points="0,-18.5 0,-36.5 129.4033,-36.5 129.4033,-18.5 0,-18.5"/>
<text text-anchor="middle" x="64.7017" y="-24.5" font-family="Helvetica,sans-Serif" font-size="10.00" fill="#000000">ar3DStereoChangeCpara</text>
</g>
<!-- Node16 -->
<g id="node2" class="node">
<title>Node16</title>
<g id="a_node2"><a xlink:href="icp_stereo_handle_8c.html#a6331c34f6b8932ef60ca4ea035162cea" target="_top" xlink:title="icpStereoSetMatXcl2Ul">
<polygon fill="#ffffff" stroke="#000000" points="166.5117,-37.5 166.5117,-55.5 285.334,-55.5 285.334,-37.5 166.5117,-37.5"/>
<text text-anchor="middle" x="225.9229" y="-43.5" font-family="Helvetica,sans-Serif" font-size="10.00" fill="#000000">icpStereoSetMatXcl2Ul</text>
</a>
</g>
</g>
<!-- Node15&#45;&gt;Node16 -->
<g id="edge1" class="edge">
<title>Node15&#45;&gt;Node16</title>
<path fill="none" stroke="#191970" d="M129.8118,-35.1733C138.48,-36.1948 147.3967,-37.2457 156.1403,-38.2761"/>
<polygon fill="#191970" stroke="#191970" points="155.9589,-41.7788 166.2998,-39.4734 156.7782,-34.827 155.9589,-41.7788"/>
</g>
<!-- Node17 -->
<g id="node3" class="node">
<title>Node17</title>
<g id="a_node3"><a xlink:href="icp_stereo_handle_8c.html#a1b60d6abb879efe77da01a0da62c8f8e" target="_top" xlink:title="icpStereoSetMatXcr2Ur">
<polygon fill="#ffffff" stroke="#000000" points="165.4033,-.5 165.4033,-18.5 286.4424,-18.5 286.4424,-.5 165.4033,-.5"/>
<text text-anchor="middle" x="225.9229" y="-6.5" font-family="Helvetica,sans-Serif" font-size="10.00" fill="#000000">icpStereoSetMatXcr2Ur</text>
</a>
</g>
</g>
<!-- Node15&#45;&gt;Node17 -->
<g id="edge2" class="edge">
<title>Node15&#45;&gt;Node17</title>
<path fill="none" stroke="#191970" d="M129.8118,-20.2306C138.1373,-19.3011 146.692,-18.346 155.1024,-17.407"/>
<polygon fill="#191970" stroke="#191970" points="155.7147,-20.8604 165.2646,-16.2724 154.9379,-13.9037 155.7147,-20.8604"/>
</g>
</g>
</svg>
