<?xml version="1.0" encoding="UTF-8" standalone="no"?>
<!DOCTYPE svg PUBLIC "-//W3C//DTD SVG 1.1//EN"
 "http://www.w3.org/Graphics/SVG/1.1/DTD/svg11.dtd">
<!-- Generated by graphviz version 7.0.5 (20221223.1930)
 -->
<!-- Title: Source/ARX/AR/include/ARX/AR/arConfig.h Pages: 1 -->
<!--zoomable 236 -->
<svg id="main" version="1.1" xmlns="http://www.w3.org/2000/svg" xmlns:xlink="http://www.w3.org/1999/xlink" xml:space="preserve" onload="init(evt)">
<style type="text/css"><![CDATA[
.edge:hover path { stroke: red; }
.edge:hover polygon { stroke: red; fill: red; }
]]></style>
<script type="text/javascript"><![CDATA[
var edges = document.getElementsByTagName('g');
if (edges && edges.length) {
  for (var i=0;i<edges.length;i++) {
    if (edges[i].id.substr(0,4)=='edge') {
      edges[i].setAttribute('class','edge');
    }
  }
}
]]></script>
        <defs>
                <circle id="rim" cx="0" cy="0" r="7"/>
                <circle id="rim2" cx="0" cy="0" r="3.5"/>
                <g id="zoomPlus">
                        <use xlink:href="#rim" fill="#404040">
                                <set attributeName="fill" to="#808080" begin="zoomplus.mouseover" end="zoomplus.mouseout"/>
                        </use>
                        <path d="M-4,0h8M0,-4v8" fill="none" stroke="white" stroke-width="1.5" pointer-events="none"/>
                </g>
                <g id="zoomMin">
                        <use xlink:href="#rim" fill="#404040">
                                <set attributeName="fill" to="#808080" begin="zoomminus.mouseover" end="zoomminus.mouseout"/>
                        </use>
                        <path d="M-4,0h8" fill="none" stroke="white" stroke-width="1.5" pointer-events="none"/>
                </g>
                <g id="dirArrow">
                        <path fill="none" stroke="white" stroke-width="1.5" d="M0,-3.0v7 M-2.5,-0.5L0,-3.0L2.5,-0.5"/>
                </g>
               <g id="resetDef">
                       <use xlink:href="#rim2" fill="#404040">
                               <set attributeName="fill" to="#808080" begin="reset.mouseover" end="reset.mouseout"/>
                       </use>
               </g>
        </defs>

<script type="text/javascript">
var viewWidth = 6877;
var viewHeight = 236;
var sectionId = 'dynsection-0';
</script>
<script xlink:href="svgpan.js"/>
<svg id="graph" class="graph">
<g id="viewport">
<title>Source/ARX/AR/include/ARX/AR/arConfig.h</title>
<!-- Node1 -->
<g id="node1" class="node">
<title>Node1</title>
<g id="a_node1"><a xlink:title=" ">
<polygon fill="#999999" stroke="#666666" points="3235,-228 3113,-228 3113,-198 3235,-198 3235,-228"/>
<text text-anchor="start" x="3121" y="-216" font-family="Helvetica,sans-Serif" font-size="10.00">Source/ARX/AR/include</text>
<text text-anchor="middle" x="3174" y="-205" font-family="Helvetica,sans-Serif" font-size="10.00">/ARX/AR/arConfig.h</text>
</a>
</g>
</g>
<!-- Node2 -->
<g id="node2" class="node">
<title>Node2</title>
<g id="a_node2"><a xlink:href="ar_8h.html" target="_top" xlink:title="artoolkitX core routines.">
<polygon fill="#fff0f0" stroke="red" points="3235,-162 3113,-162 3113,-132 3235,-132 3235,-162"/>
<text text-anchor="start" x="3121" y="-150" font-family="Helvetica,sans-Serif" font-size="10.00">Source/ARX/AR/include</text>
<text text-anchor="middle" x="3174" y="-139" font-family="Helvetica,sans-Serif" font-size="10.00">/ARX/AR/ar.h</text>
</a>
</g>
</g>
<!-- Node1&#45;&gt;Node2 -->
<g id="edge1" class="edge">
<title>Node1&#45;&gt;Node2</title>
<path fill="none" stroke="#63b8ff" d="M3174,-186.39C3174,-178.13 3174,-169.28 3174,-162.16"/>
<polygon fill="#63b8ff" stroke="#63b8ff" points="3170.5,-186.28 3174,-196.28 3177.5,-186.28 3170.5,-186.28"/>
</g>
<!-- Node3 -->
<g id="node3" class="node">
<title>Node3</title>
<g id="a_node3"><a xlink:href="ar3_d_create_handle_8c.html" target="_top" xlink:title=" ">
<polygon fill="white" stroke="#666666" points="142,-96 0,-96 0,-66 142,-66 142,-96"/>
<text text-anchor="start" x="8" y="-84" font-family="Helvetica,sans-Serif" font-size="10.00">Source/ARX/AR/ar3DCreate</text>
<text text-anchor="middle" x="71" y="-73" font-family="Helvetica,sans-Serif" font-size="10.00">Handle.c</text>
</a>
</g>
</g>
<!-- Node2&#45;&gt;Node3 -->
<g id="edge2" class="edge">
<title>Node2&#45;&gt;Node3</title>
<path fill="none" stroke="#63b8ff" d="M3101.19,-145.48C2669.33,-142.3 452.63,-124.71 151,-96 148.19,-95.73 145.34,-95.42 142.45,-95.08"/>
<polygon fill="#63b8ff" stroke="#63b8ff" points="3101.01,-148.98 3111.04,-145.55 3101.06,-141.98 3101.01,-148.98"/>
</g>
<!-- Node4 -->
<g id="node4" class="node">
<title>Node4</title>
<g id="a_node4"><a xlink:href="ar3_d_util_8c.html" target="_top" xlink:title=" ">
<polygon fill="white" stroke="#666666" points="296,-90.5 160,-90.5 160,-71.5 296,-71.5 296,-90.5"/>
<text text-anchor="middle" x="228" y="-78.5" font-family="Helvetica,sans-Serif" font-size="10.00">Source/ARX/AR/ar3DUtil.c</text>
</a>
</g>
</g>
<!-- Node2&#45;&gt;Node4 -->
<g id="edge3" class="edge">
<title>Node2&#45;&gt;Node4</title>
<path fill="none" stroke="#63b8ff" d="M3101.25,-145.44C2682.71,-142.12 590.32,-124.24 305,-96 293.64,-94.88 281.45,-92.98 270.19,-90.95"/>
<polygon fill="#63b8ff" stroke="#63b8ff" points="3101.03,-148.94 3111.05,-145.52 3101.08,-141.94 3101.03,-148.94"/>
</g>
<!-- Node5 -->
<g id="node5" class="node">
<title>Node5</title>
<g id="a_node5"><a xlink:href="ar_create_handle_8c.html" target="_top" xlink:title=" ">
<polygon fill="white" stroke="#666666" points="482,-90.5 314,-90.5 314,-71.5 482,-71.5 482,-90.5"/>
<text text-anchor="middle" x="398" y="-78.5" font-family="Helvetica,sans-Serif" font-size="10.00">Source/ARX/AR/arCreateHandle.c</text>
</a>
</g>
</g>
<!-- Node2&#45;&gt;Node5 -->
<g id="edge4" class="edge">
<title>Node2&#45;&gt;Node5</title>
<path fill="none" stroke="#63b8ff" d="M3101.23,-145.86C2727.74,-144.93 1023.16,-138.41 496,-96 481.78,-94.86 466.48,-92.98 452.29,-90.97"/>
<polygon fill="#63b8ff" stroke="#63b8ff" points="3101.15,-149.36 3111.15,-145.88 3101.16,-142.36 3101.15,-149.36"/>
</g>
<!-- Node6 -->
<g id="node6" class="node">
<title>Node6</title>
<g id="a_node6"><a xlink:href="ar_detect_marker_8c.html" target="_top" xlink:title=" ">
<polygon fill="white" stroke="#666666" points="707.5,-24.5 540.5,-24.5 540.5,-5.5 707.5,-5.5 707.5,-24.5"/>
<text text-anchor="middle" x="624" y="-12.5" font-family="Helvetica,sans-Serif" font-size="10.00">Source/ARX/AR/arDetectMarker.c</text>
</a>
</g>
</g>
<!-- Node2&#45;&gt;Node6 -->
<g id="edge5" class="edge">
<title>Node2&#45;&gt;Node6</title>
<path fill="none" stroke="#63b8ff" d="M3101.36,-146.02C2680.8,-145.94 575.32,-143.21 529,-96 501.36,-67.84 561.78,-39.06 598.49,-24.94"/>
<polygon fill="#63b8ff" stroke="#63b8ff" points="3101.21,-149.52 3111.21,-146.02 3101.21,-142.52 3101.21,-149.52"/>
</g>
<!-- Node7 -->
<g id="node7" class="node">
<title>Node7</title>
<g id="a_node7"><a xlink:href="ar_detect_marker2_8c.html" target="_top" xlink:title=" ">
<polygon fill="white" stroke="#666666" points="1043.5,-90.5 870.5,-90.5 870.5,-71.5 1043.5,-71.5 1043.5,-90.5"/>
<text text-anchor="middle" x="957" y="-78.5" font-family="Helvetica,sans-Serif" font-size="10.00">Source/ARX/AR/arDetectMarker2.c</text>
</a>
</g>
</g>
<!-- Node2&#45;&gt;Node7 -->
<g id="edge6" class="edge">
<title>Node2&#45;&gt;Node7</title>
<path fill="none" stroke="#63b8ff" d="M3101.46,-145.47C2777.85,-142.94 1463.79,-130.67 1053,-96 1039.15,-94.83 1024.26,-92.96 1010.44,-90.97"/>
<polygon fill="#63b8ff" stroke="#63b8ff" points="3101.02,-148.97 3111.04,-145.55 3101.07,-141.97 3101.02,-148.97"/>
</g>
<!-- Node8 -->
<g id="node8" class="node">
<title>Node8</title>
<g id="a_node8"><a xlink:href="ar_get_line_8c.html" target="_top" xlink:title=" ">
<polygon fill="white" stroke="#666666" points="1204,-90.5 1062,-90.5 1062,-71.5 1204,-71.5 1204,-90.5"/>
<text text-anchor="middle" x="1133" y="-78.5" font-family="Helvetica,sans-Serif" font-size="10.00">Source/ARX/AR/arGetLine.c</text>
</a>
</g>
</g>
<!-- Node2&#45;&gt;Node8 -->
<g id="edge7" class="edge">
<title>Node2&#45;&gt;Node8</title>
<path fill="none" stroke="#63b8ff" d="M3101.47,-145.59C2793.17,-143.61 1590.03,-133.59 1213,-96 1201.35,-94.84 1188.85,-92.96 1177.27,-90.95"/>
<polygon fill="#63b8ff" stroke="#63b8ff" points="3101.38,-149.09 3111.4,-145.65 3101.43,-142.09 3101.38,-149.09"/>
</g>
<!-- Node9 -->
<g id="node9" class="node">
<title>Node9</title>
<g id="a_node9"><a xlink:href="ar_get_marker_info_8c.html" target="_top" xlink:title=" ">
<polygon fill="white" stroke="#666666" points="1368,-96 1222,-96 1222,-66 1368,-66 1368,-96"/>
<text text-anchor="start" x="1230" y="-84" font-family="Helvetica,sans-Serif" font-size="10.00">Source/ARX/AR/arGetMarker</text>
<text text-anchor="middle" x="1295" y="-73" font-family="Helvetica,sans-Serif" font-size="10.00">Info.c</text>
</a>
</g>
</g>
<!-- Node2&#45;&gt;Node9 -->
<g id="edge8" class="edge">
<title>Node2&#45;&gt;Node9</title>
<path fill="none" stroke="#63b8ff" d="M3101.36,-145.35C2809.31,-142.52 1720.08,-129.89 1377,-96 1374.13,-95.72 1371.2,-95.39 1368.25,-95.03"/>
<polygon fill="#63b8ff" stroke="#63b8ff" points="3101.09,-148.85 3111.12,-145.44 3101.15,-141.85 3101.09,-148.85"/>
</g>
<!-- Node10 -->
<g id="node10" class="node">
<title>Node10</title>
<g id="a_node10"><a xlink:href="ar_get_trans_mat_8c.html" target="_top" xlink:title=" ">
<polygon fill="white" stroke="#666666" points="1526,-96 1386,-96 1386,-66 1526,-66 1526,-96"/>
<text text-anchor="start" x="1394" y="-84" font-family="Helvetica,sans-Serif" font-size="10.00">Source/ARX/AR/arGetTrans</text>
<text text-anchor="middle" x="1456" y="-73" font-family="Helvetica,sans-Serif" font-size="10.00">Mat.c</text>
</a>
</g>
</g>
<!-- Node2&#45;&gt;Node10 -->
<g id="edge9" class="edge">
<title>Node2&#45;&gt;Node10</title>
<path fill="none" stroke="#63b8ff" d="M3101.47,-145.19C2826.12,-141.88 1845.4,-128.07 1535,-96 1532.09,-95.7 1529.13,-95.35 1526.14,-94.97"/>
<polygon fill="#63b8ff" stroke="#63b8ff" points="3101.34,-148.68 3111.38,-145.3 3101.42,-141.69 3101.34,-148.68"/>
</g>
<!-- Node11 -->
<g id="node11" class="node">
<title>Node11</title>
<g id="a_node11"><a xlink:href="ar_get_trans_mat_stereo_8c.html" target="_top" xlink:title=" ">
<polygon fill="white" stroke="#666666" points="1684,-96 1544,-96 1544,-66 1684,-66 1684,-96"/>
<text text-anchor="start" x="1552" y="-84" font-family="Helvetica,sans-Serif" font-size="10.00">Source/ARX/AR/arGetTrans</text>
<text text-anchor="middle" x="1614" y="-73" font-family="Helvetica,sans-Serif" font-size="10.00">MatStereo.c</text>
</a>
</g>
</g>
<!-- Node2&#45;&gt;Node11 -->
<g id="edge10" class="edge">
<title>Node2&#45;&gt;Node11</title>
<path fill="none" stroke="#63b8ff" d="M3101.27,-144.91C2843.02,-140.83 1970.81,-125.16 1693,-96 1690.09,-95.69 1687.13,-95.35 1684.14,-94.96"/>
<polygon fill="#63b8ff" stroke="#63b8ff" points="3101.17,-148.41 3111.22,-145.07 3101.28,-141.41 3101.17,-148.41"/>
</g>
<!-- Node12 -->
<g id="node12" class="node">
<title>Node12</title>
<g id="a_node12"><a xlink:href="ar_labeling_8c.html" target="_top" xlink:title=" ">
<polygon fill="white" stroke="#666666" points="1846,-90.5 1702,-90.5 1702,-71.5 1846,-71.5 1846,-90.5"/>
<text text-anchor="middle" x="1774" y="-78.5" font-family="Helvetica,sans-Serif" font-size="10.00">Source/ARX/AR/arLabeling.c</text>
</a>
</g>
</g>
<!-- Node2&#45;&gt;Node12 -->
<g id="edge11" class="edge">
<title>Node2&#45;&gt;Node12</title>
<path fill="none" stroke="#63b8ff" d="M3101.16,-146.64C2901.38,-147.65 2328.17,-145.64 1855,-96 1843.5,-94.79 1831.17,-92.95 1819.69,-90.99"/>
<polygon fill="#63b8ff" stroke="#63b8ff" points="3101.16,-150.14 3111.14,-146.58 3101.12,-143.14 3101.16,-150.14"/>
</g>
<!-- Node13 -->
<g id="node13" class="node">
<title>Node13</title>
<g id="a_node13"><a xlink:href="ar_labeling_sub_8h.html" target="_top" xlink:title=" ">
<polygon fill="#fff0f0" stroke="red" points="2000,-96 1864,-96 1864,-66 2000,-66 2000,-96"/>
<text text-anchor="start" x="1872" y="-84" font-family="Helvetica,sans-Serif" font-size="10.00">Source/ARX/AR/arLabeling</text>
<text text-anchor="middle" x="1932" y="-73" font-family="Helvetica,sans-Serif" font-size="10.00">Sub/arLabelingSub.h</text>
</a>
</g>
</g>
<!-- Node2&#45;&gt;Node13 -->
<g id="edge12" class="edge">
<title>Node2&#45;&gt;Node13</title>
<path fill="none" stroke="#63b8ff" d="M3101.46,-146.04C2918.51,-145.46 2423.64,-139.62 2014,-96 2009.55,-95.53 2004.97,-94.96 2000.37,-94.34"/>
<polygon fill="#63b8ff" stroke="#63b8ff" points="3101.28,-149.54 3111.29,-146.07 3101.3,-142.54 3101.28,-149.54"/>
</g>
<!-- Node26 -->
<g id="node14" class="node">
<title>Node26</title>
<g id="a_node14"><a xlink:href="ar_multi_edit_config_8c.html" target="_top" xlink:title=" ">
<polygon fill="white" stroke="#666666" points="1944,-30 1806,-30 1806,0 1944,0 1944,-30"/>
<text text-anchor="start" x="1814" y="-18" font-family="Helvetica,sans-Serif" font-size="10.00">Source/ARX/AR/arMultiEdit</text>
<text text-anchor="middle" x="1875" y="-7" font-family="Helvetica,sans-Serif" font-size="10.00">Config.c</text>
</a>
</g>
</g>
<!-- Node2&#45;&gt;Node26 -->
<g id="edge13" class="edge">
<title>Node2&#45;&gt;Node26</title>
<path fill="none" stroke="#63b8ff" d="M3101.33,-145.11C2868.54,-141.93 2150.8,-129.49 2052,-96 2029.93,-88.52 2029.64,-76.83 2009,-66 1981.4,-51.52 1948.66,-39.22 1922.45,-30.45"/>
<polygon fill="#63b8ff" stroke="#63b8ff" points="3101.14,-148.61 3111.18,-145.24 3101.23,-141.61 3101.14,-148.61"/>
</g>
<!-- Node27 -->
<g id="node15" class="node">
<title>Node27</title>
<g id="a_node15"><a xlink:href="ar_multi_free_config_8c.html" target="_top" xlink:title=" ">
<polygon fill="white" stroke="#666666" points="2102,-30 1962,-30 1962,0 2102,0 2102,-30"/>
<text text-anchor="start" x="1970" y="-18" font-family="Helvetica,sans-Serif" font-size="10.00">Source/ARX/AR/arMultiFree</text>
<text text-anchor="middle" x="2032" y="-7" font-family="Helvetica,sans-Serif" font-size="10.00">Config.c</text>
</a>
</g>
</g>
<!-- Node2&#45;&gt;Node27 -->
<g id="edge14" class="edge">
<title>Node2&#45;&gt;Node27</title>
<path fill="none" stroke="#63b8ff" d="M3101.65,-146.44C2872.55,-147.32 2172.94,-145.86 2085,-96 2059.49,-81.54 2044.01,-49.15 2036.82,-30.32"/>
<polygon fill="#63b8ff" stroke="#63b8ff" points="3101.35,-149.94 3111.33,-146.4 3101.32,-142.94 3101.35,-149.94"/>
</g>
<!-- Node28 -->
<g id="node16" class="node">
<title>Node28</title>
<g id="a_node16"><a xlink:href="ar_multi_get_trans_mat_8c.html" target="_top" xlink:title=" ">
<polygon fill="white" stroke="#666666" points="2257.5,-30 2120.5,-30 2120.5,0 2257.5,0 2257.5,-30"/>
<text text-anchor="start" x="2128.5" y="-18" font-family="Helvetica,sans-Serif" font-size="10.00">Source/ARX/AR/arMultiGet</text>
<text text-anchor="middle" x="2189" y="-7" font-family="Helvetica,sans-Serif" font-size="10.00">TransMat.c</text>
</a>
</g>
</g>
<!-- Node2&#45;&gt;Node28 -->
<g id="edge15" class="edge">
<title>Node2&#45;&gt;Node28</title>
<path fill="none" stroke="#63b8ff" d="M3101.24,-146.36C2921.79,-146.51 2462.12,-142.24 2317,-96 2273.05,-82 2229.03,-49.44 2205.81,-30.45"/>
<polygon fill="#63b8ff" stroke="#63b8ff" points="3101.14,-149.86 3111.13,-146.35 3101.13,-142.86 3101.14,-149.86"/>
</g>
<!-- Node29 -->
<g id="node17" class="node">
<title>Node29</title>
<g id="a_node17"><a xlink:href="ar_multi_get_trans_mat_stereo_8c.html" target="_top" xlink:title=" ">
<polygon fill="white" stroke="#666666" points="2412.5,-30 2275.5,-30 2275.5,0 2412.5,0 2412.5,-30"/>
<text text-anchor="start" x="2283.5" y="-18" font-family="Helvetica,sans-Serif" font-size="10.00">Source/ARX/AR/arMultiGet</text>
<text text-anchor="middle" x="2344" y="-7" font-family="Helvetica,sans-Serif" font-size="10.00">TransMatStereo.c</text>
</a>
</g>
</g>
<!-- Node2&#45;&gt;Node29 -->
<g id="edge16" class="edge">
<title>Node2&#45;&gt;Node29</title>
<path fill="none" stroke="#63b8ff" d="M3101.51,-144.38C2901.58,-139.58 2355.33,-123.93 2329,-96 2312.33,-78.31 2324.83,-48.28 2334.83,-30.47"/>
<polygon fill="#63b8ff" stroke="#63b8ff" points="3101.17,-147.88 3111.25,-144.62 3101.33,-140.88 3101.17,-147.88"/>
</g>
<!-- Node30 -->
<g id="node18" class="node">
<title>Node30</title>
<g id="a_node18"><a xlink:href="ar_multi_read_config_file_8c.html" target="_top" xlink:title=" ">
<polygon fill="white" stroke="#666666" points="2575,-30 2431,-30 2431,0 2575,0 2575,-30"/>
<text text-anchor="start" x="2439" y="-18" font-family="Helvetica,sans-Serif" font-size="10.00">Source/ARX/AR/arMultiRead</text>
<text text-anchor="middle" x="2503" y="-7" font-family="Helvetica,sans-Serif" font-size="10.00">ConfigFile.c</text>
</a>
</g>
</g>
<!-- Node2&#45;&gt;Node30 -->
<g id="edge17" class="edge">
<title>Node2&#45;&gt;Node30</title>
<path fill="none" stroke="#63b8ff" d="M3101.38,-144.33C2903,-139.41 2364.96,-123.56 2339,-96 2329.86,-86.29 2331.06,-76.71 2339,-66 2350.47,-50.51 2392.3,-37.9 2430.84,-29.21"/>
<polygon fill="#63b8ff" stroke="#63b8ff" points="3101.23,-147.82 3111.31,-144.57 3101.4,-140.83 3101.23,-147.82"/>
</g>
<!-- Node31 -->
<g id="node19" class="node">
<title>Node31</title>
<g id="a_node19"><a xlink:href="ar_patt_attach_8c.html" target="_top" xlink:title=" ">
<polygon fill="white" stroke="#666666" points="2503.5,-90.5 2348.5,-90.5 2348.5,-71.5 2503.5,-71.5 2503.5,-90.5"/>
<text text-anchor="middle" x="2426" y="-78.5" font-family="Helvetica,sans-Serif" font-size="10.00">Source/ARX/AR/arPattAttach.c</text>
</a>
</g>
</g>
<!-- Node2&#45;&gt;Node31 -->
<g id="edge18" class="edge">
<title>Node2&#45;&gt;Node31</title>
<path fill="none" stroke="#63b8ff" d="M3101.28,-142.56C2979.2,-136.32 2725.43,-121.39 2512,-96 2500.43,-94.62 2488.04,-92.81 2476.37,-90.94"/>
<polygon fill="#63b8ff" stroke="#63b8ff" points="3101,-146.05 3111.17,-143.06 3101.36,-139.06 3101,-146.05"/>
</g>
<!-- Node32 -->
<g id="node20" class="node">
<title>Node32</title>
<g id="a_node20"><a xlink:href="ar_patt_create_handle_8c.html" target="_top" xlink:title=" ">
<polygon fill="white" stroke="#666666" points="2668.5,-96 2521.5,-96 2521.5,-66 2668.5,-66 2668.5,-96"/>
<text text-anchor="start" x="2529.5" y="-84" font-family="Helvetica,sans-Serif" font-size="10.00">Source/ARX/AR/arPattCreate</text>
<text text-anchor="middle" x="2595" y="-73" font-family="Helvetica,sans-Serif" font-size="10.00">Handle.c</text>
</a>
</g>
</g>
<!-- Node2&#45;&gt;Node32 -->
<g id="edge19" class="edge">
<title>Node2&#45;&gt;Node32</title>
<path fill="none" stroke="#63b8ff" d="M3101.36,-140.2C3004.55,-132.13 2828.01,-116.19 2678,-96 2674.96,-95.59 2671.86,-95.15 2668.73,-94.7"/>
<polygon fill="#63b8ff" stroke="#63b8ff" points="3101,-143.69 3111.25,-141.02 3101.57,-136.71 3101,-143.69"/>
</g>
<!-- Node33 -->
<g id="node21" class="node">
<title>Node33</title>
<g id="a_node21"><a xlink:href="ar_patt_get_i_d_8c.html" target="_top" xlink:title=" ">
<polygon fill="white" stroke="#666666" points="2839,-90.5 2687,-90.5 2687,-71.5 2839,-71.5 2839,-90.5"/>
<text text-anchor="middle" x="2763" y="-78.5" font-family="Helvetica,sans-Serif" font-size="10.00">Source/ARX/AR/arPattGetID.c</text>
</a>
</g>
</g>
<!-- Node2&#45;&gt;Node33 -->
<g id="edge20" class="edge">
<title>Node2&#45;&gt;Node33</title>
<path fill="none" stroke="#63b8ff" d="M3101.57,-135.13C3035.48,-125.15 2935.13,-109.86 2848,-96 2837.96,-94.4 2827.25,-92.67 2816.94,-90.98"/>
<polygon fill="#63b8ff" stroke="#63b8ff" points="3100.78,-138.55 3111.19,-136.58 3101.82,-131.62 3100.78,-138.55"/>
</g>
<!-- Node34 -->
<g id="node22" class="node">
<title>Node34</title>
<g id="a_node22"><a xlink:href="ar_patt_load_8c.html" target="_top" xlink:title=" ">
<polygon fill="white" stroke="#666666" points="3004.5,-90.5 2857.5,-90.5 2857.5,-71.5 3004.5,-71.5 3004.5,-90.5"/>
<text text-anchor="middle" x="2931" y="-78.5" font-family="Helvetica,sans-Serif" font-size="10.00">Source/ARX/AR/arPattLoad.c</text>
</a>
</g>
</g>
<!-- Node2&#45;&gt;Node34 -->
<g id="edge21" class="edge">
<title>Node2&#45;&gt;Node34</title>
<path fill="none" stroke="#63b8ff" d="M3108.03,-128.63C3061.82,-116.46 3001.96,-100.69 2965.03,-90.96"/>
<polygon fill="#63b8ff" stroke="#63b8ff" points="3107.14,-132.01 3117.7,-131.17 3108.92,-125.24 3107.14,-132.01"/>
</g>
<!-- Node35 -->
<g id="node23" class="node">
<title>Node35</title>
<g id="a_node23"><a xlink:href="ar_patt_save_8c.html" target="_top" xlink:title=" ">
<polygon fill="white" stroke="#666666" points="3171.5,-90.5 3022.5,-90.5 3022.5,-71.5 3171.5,-71.5 3171.5,-90.5"/>
<text text-anchor="middle" x="3097" y="-78.5" font-family="Helvetica,sans-Serif" font-size="10.00">Source/ARX/AR/arPattSave.c</text>
</a>
</g>
</g>
<!-- Node2&#45;&gt;Node35 -->
<g id="edge22" class="edge">
<title>Node2&#45;&gt;Node35</title>
<path fill="none" stroke="#63b8ff" d="M3148.26,-124.6C3134.41,-113.1 3118.08,-99.52 3107.64,-90.84"/>
<polygon fill="#63b8ff" stroke="#63b8ff" points="3145.82,-127.13 3155.75,-130.83 3150.29,-121.75 3145.82,-127.13"/>
</g>
<!-- Node36 -->
<g id="node24" class="node">
<title>Node36</title>
<g id="a_node24"><a xlink:href="ar_refine_corners_8h.html" target="_top" xlink:title=" ">
<polygon fill="#fff0f0" stroke="red" points="709.5,-90.5 538.5,-90.5 538.5,-71.5 709.5,-71.5 709.5,-90.5"/>
<text text-anchor="middle" x="624" y="-78.5" font-family="Helvetica,sans-Serif" font-size="10.00">Source/ARX/AR/arRefineCorners.h</text>
</a>
</g>
</g>
<!-- Node2&#45;&gt;Node36 -->
<g id="edge23" class="edge">
<title>Node2&#45;&gt;Node36</title>
<path fill="none" stroke="#63b8ff" d="M3101.33,-145.77C2747.05,-144.47 1198.59,-136.51 718,-96 704.35,-94.85 689.68,-92.97 676.07,-90.96"/>
<polygon fill="#63b8ff" stroke="#63b8ff" points="3101.17,-149.27 3111.18,-145.81 3101.19,-142.27 3101.17,-149.27"/>
</g>
<!-- Node38 -->
<g id="node25" class="node">
<title>Node38</title>
<g id="a_node25"><a xlink:href="ar_util_8c.html" target="_top" xlink:title=" ">
<polygon fill="white" stroke="#666666" points="3312.5,-90.5 3189.5,-90.5 3189.5,-71.5 3312.5,-71.5 3312.5,-90.5"/>
<text text-anchor="middle" x="3251" y="-78.5" font-family="Helvetica,sans-Serif" font-size="10.00">Source/ARX/AR/arUtil.c</text>
</a>
</g>
</g>
<!-- Node2&#45;&gt;Node38 -->
<g id="edge25" class="edge">
<title>Node2&#45;&gt;Node38</title>
<path fill="none" stroke="#63b8ff" d="M3199.74,-124.6C3213.59,-113.1 3229.92,-99.52 3240.36,-90.84"/>
<polygon fill="#63b8ff" stroke="#63b8ff" points="3197.71,-121.75 3192.25,-130.83 3202.18,-127.13 3197.71,-121.75"/>
</g>
<!-- Node39 -->
<g id="node26" class="node">
<title>Node39</title>
<g id="a_node26"><a xlink:href="icp_calib_stereo_8c.html" target="_top" xlink:title=" ">
<polygon fill="white" stroke="#666666" points="3495,-90.5 3331,-90.5 3331,-71.5 3495,-71.5 3495,-90.5"/>
<text text-anchor="middle" x="3413" y="-78.5" font-family="Helvetica,sans-Serif" font-size="10.00">Source/ARX/AR/icpCalibStereo.c</text>
</a>
</g>
</g>
<!-- Node2&#45;&gt;Node39 -->
<g id="edge26" class="edge">
<title>Node2&#45;&gt;Node39</title>
<path fill="none" stroke="#63b8ff" d="M3238.88,-128.63C3284.33,-116.46 3343.21,-100.69 3379.53,-90.96"/>
<polygon fill="#63b8ff" stroke="#63b8ff" points="3238.15,-125.2 3229.4,-131.17 3239.96,-131.96 3238.15,-125.2"/>
</g>
<!-- Node40 -->
<g id="node27" class="node">
<title>Node40</title>
<g id="a_node27"><a xlink:href="icp_core_8c.html" target="_top" xlink:title=" ">
<polygon fill="white" stroke="#666666" points="3647,-90.5 3513,-90.5 3513,-71.5 3647,-71.5 3647,-90.5"/>
<text text-anchor="middle" x="3580" y="-78.5" font-family="Helvetica,sans-Serif" font-size="10.00">Source/ARX/AR/icpCore.c</text>
</a>
</g>
</g>
<!-- Node2&#45;&gt;Node40 -->
<g id="edge27" class="edge">
<title>Node2&#45;&gt;Node40</title>
<path fill="none" stroke="#63b8ff" d="M3246.47,-135.7C3313.4,-126.02 3415.54,-110.85 3504,-96 3513.26,-94.45 3523.14,-92.69 3532.61,-90.97"/>
<polygon fill="#63b8ff" stroke="#63b8ff" points="3246.11,-132.21 3236.72,-137.1 3247.11,-139.14 3246.11,-132.21"/>
</g>
<!-- Node41 -->
<g id="node28" class="node">
<title>Node41</title>
<g id="a_node28"><a xlink:href="icp_handle_8c.html" target="_top" xlink:title=" ">
<polygon fill="white" stroke="#666666" points="3808.5,-90.5 3665.5,-90.5 3665.5,-71.5 3808.5,-71.5 3808.5,-90.5"/>
<text text-anchor="middle" x="3737" y="-78.5" font-family="Helvetica,sans-Serif" font-size="10.00">Source/ARX/AR/icpHandle.c</text>
</a>
</g>
</g>
<!-- Node2&#45;&gt;Node41 -->
<g id="edge28" class="edge">
<title>Node2&#45;&gt;Node41</title>
<path fill="none" stroke="#63b8ff" d="M3246.84,-139.99C3341.39,-131.84 3511.4,-115.97 3656,-96 3666.46,-94.56 3677.64,-92.78 3688.25,-90.98"/>
<polygon fill="#63b8ff" stroke="#63b8ff" points="3246.58,-136.5 3236.92,-140.84 3247.18,-143.48 3246.58,-136.5"/>
</g>
<!-- Node42 -->
<g id="node29" class="node">
<title>Node42</title>
<g id="a_node29"><a xlink:href="icp_point_8c.html" target="_top" xlink:title=" ">
<polygon fill="white" stroke="#666666" points="3961.5,-90.5 3826.5,-90.5 3826.5,-71.5 3961.5,-71.5 3961.5,-90.5"/>
<text text-anchor="middle" x="3894" y="-78.5" font-family="Helvetica,sans-Serif" font-size="10.00">Source/ARX/AR/icpPoint.c</text>
</a>
</g>
</g>
<!-- Node2&#45;&gt;Node42 -->
<g id="edge29" class="edge">
<title>Node2&#45;&gt;Node42</title>
<path fill="none" stroke="#63b8ff" d="M3246.54,-142.78C3365.89,-136.94 3611,-122.67 3817,-96 3827.38,-94.66 3838.48,-92.86 3848.93,-90.99"/>
<polygon fill="#63b8ff" stroke="#63b8ff" points="3246.72,-139.27 3236.9,-143.25 3247.06,-146.26 3246.72,-139.27"/>
</g>
<!-- Node43 -->
<g id="node30" class="node">
<title>Node43</title>
<g id="a_node30"><a xlink:href="icp_point_robust_8c.html" target="_top" xlink:title=" ">
<polygon fill="white" stroke="#666666" points="4146.5,-90.5 3979.5,-90.5 3979.5,-71.5 4146.5,-71.5 4146.5,-90.5"/>
<text text-anchor="middle" x="4063" y="-78.5" font-family="Helvetica,sans-Serif" font-size="10.00">Source/ARX/AR/icpPointRobust.c</text>
</a>
</g>
</g>
<!-- Node2&#45;&gt;Node43 -->
<g id="edge30" class="edge">
<title>Node2&#45;&gt;Node43</title>
<path fill="none" stroke="#63b8ff" d="M3246.72,-143.54C3386.94,-138.34 3704.33,-124.29 3970,-96 3982.66,-94.65 3996.24,-92.83 4009.01,-90.94"/>
<polygon fill="#63b8ff" stroke="#63b8ff" points="3246.7,-140.04 3236.83,-143.91 3246.95,-147.04 3246.7,-140.04"/>
</g>
<!-- Node44 -->
<g id="node31" class="node">
<title>Node44</title>
<g id="a_node31"><a xlink:href="icp_stereo_handle_8c.html" target="_top" xlink:title=" ">
<polygon fill="white" stroke="#666666" points="4337,-90.5 4165,-90.5 4165,-71.5 4337,-71.5 4337,-90.5"/>
<text text-anchor="middle" x="4251" y="-78.5" font-family="Helvetica,sans-Serif" font-size="10.00">Source/ARX/AR/icpStereoHandle.c</text>
</a>
</g>
</g>
<!-- Node2&#45;&gt;Node44 -->
<g id="edge31" class="edge">
<title>Node2&#45;&gt;Node44</title>
<path fill="none" stroke="#63b8ff" d="M3246.58,-144.63C3409.43,-141.05 3816.27,-129.26 4155,-96 4168.16,-94.71 4182.27,-92.89 4195.52,-90.99"/>
<polygon fill="#63b8ff" stroke="#63b8ff" points="3246.71,-141.13 3236.79,-144.84 3246.86,-148.13 3246.71,-141.13"/>
</g>
<!-- Node45 -->
<g id="node32" class="node">
<title>Node45</title>
<g id="a_node32"><a xlink:href="icp_stereo_point_8c.html" target="_top" xlink:title=" ">
<polygon fill="white" stroke="#666666" points="4519,-90.5 4355,-90.5 4355,-71.5 4519,-71.5 4519,-90.5"/>
<text text-anchor="middle" x="4437" y="-78.5" font-family="Helvetica,sans-Serif" font-size="10.00">Source/ARX/AR/icpStereoPoint.c</text>
</a>
</g>
</g>
<!-- Node2&#45;&gt;Node45 -->
<g id="edge32" class="edge">
<title>Node2&#45;&gt;Node45</title>
<path fill="none" stroke="#63b8ff" d="M3246.91,-145.67C3431.4,-144.24 3931.53,-136.6 4346,-96 4358.73,-94.75 4372.39,-92.92 4385.15,-90.99"/>
<polygon fill="#63b8ff" stroke="#63b8ff" points="3246.97,-142.17 3237,-145.75 3247.02,-149.17 3246.97,-142.17"/>
</g>
<!-- Node46 -->
<g id="node33" class="node">
<title>Node46</title>
<g id="a_node33"><a xlink:href="icp_stereo_point_robust_8c.html" target="_top" xlink:title=" ">
<polygon fill="white" stroke="#666666" points="4692.5,-96 4537.5,-96 4537.5,-66 4692.5,-66 4692.5,-96"/>
<text text-anchor="start" x="4545.5" y="-84" font-family="Helvetica,sans-Serif" font-size="10.00">Source/ARX/AR/icpStereoPoint</text>
<text text-anchor="middle" x="4615" y="-73" font-family="Helvetica,sans-Serif" font-size="10.00">Robust.c</text>
</a>
</g>
</g>
<!-- Node2&#45;&gt;Node46 -->
<g id="edge33" class="edge">
<title>Node2&#45;&gt;Node46</title>
<path fill="none" stroke="#63b8ff" d="M3246.63,-146.44C3449.68,-147.01 4040.31,-144.06 4528,-96 4531.04,-95.7 4534.15,-95.36 4537.27,-94.99"/>
<polygon fill="#63b8ff" stroke="#63b8ff" points="3246.77,-142.94 3236.76,-146.41 3246.75,-149.94 3246.77,-142.94"/>
</g>
<!-- Node47 -->
<g id="node34" class="node">
<title>Node47</title>
<g id="a_node34"><a xlink:href="icp_util_8c.html" target="_top" xlink:title=" ">
<polygon fill="white" stroke="#666666" points="4839,-90.5 4711,-90.5 4711,-71.5 4839,-71.5 4839,-90.5"/>
<text text-anchor="middle" x="4775" y="-78.5" font-family="Helvetica,sans-Serif" font-size="10.00">Source/ARX/AR/icpUtil.c</text>
</a>
</g>
</g>
<!-- Node2&#45;&gt;Node47 -->
<g id="edge34" class="edge">
<title>Node2&#45;&gt;Node47</title>
<path fill="none" stroke="#63b8ff" d="M3246.81,-145.11C3510.34,-141.64 4413.94,-127.66 4701,-96 4711.66,-94.82 4723.08,-92.97 4733.68,-90.98"/>
<polygon fill="#63b8ff" stroke="#63b8ff" points="3246.95,-141.6 3237,-145.23 3247.05,-148.6 3246.95,-141.6"/>
</g>
<!-- Node48 -->
<g id="node35" class="node">
<title>Node48</title>
<g id="a_node35"><a xlink:href="ar_filter_trans_mat_8h.html" target="_top" xlink:title="Provides filtering of transformation matrices (pose estimates).">
<polygon fill="#fff0f0" stroke="red" points="4997,-96 4857,-96 4857,-66 4997,-66 4997,-96"/>
<text text-anchor="start" x="4865" y="-84" font-family="Helvetica,sans-Serif" font-size="10.00">Source/ARX/AR/include</text>
<text text-anchor="middle" x="4927" y="-73" font-family="Helvetica,sans-Serif" font-size="10.00">/ARX/AR/arFilterTransMat.h</text>
</a>
</g>
</g>
<!-- Node2&#45;&gt;Node48 -->
<g id="edge35" class="edge">
<title>Node2&#45;&gt;Node48</title>
<path fill="none" stroke="#63b8ff" d="M3246.25,-145.24C3524.93,-142.11 4530.28,-128.72 4848,-96 4850.91,-95.7 4853.87,-95.36 4856.86,-94.98"/>
<polygon fill="#63b8ff" stroke="#63b8ff" points="3246.55,-141.74 3236.59,-145.35 3246.63,-148.74 3246.55,-141.74"/>
</g>
<!-- Node72 -->
<g id="node36" class="node">
<title>Node72</title>
<g id="a_node36"><a xlink:href="ar_image_proc_8h.html" target="_top" xlink:title="artoolkitX functions for 2D luminance image processing.">
<polygon fill="#fff0f0" stroke="red" points="852.5,-96 727.5,-96 727.5,-66 852.5,-66 852.5,-96"/>
<text text-anchor="start" x="735.5" y="-84" font-family="Helvetica,sans-Serif" font-size="10.00">Source/ARX/AR/include</text>
<text text-anchor="middle" x="790" y="-73" font-family="Helvetica,sans-Serif" font-size="10.00">/ARX/AR/arImageProc.h</text>
</a>
</g>
</g>
<!-- Node2&#45;&gt;Node72 -->
<g id="edge36" class="edge">
<title>Node2&#45;&gt;Node72</title>
<path fill="none" stroke="#63b8ff" d="M3101.1,-146.12C2758.23,-146.45 1304.29,-144.95 852.67,-96.07"/>
<polygon fill="#63b8ff" stroke="#63b8ff" points="3101.08,-149.62 3111.08,-146.11 3101.08,-142.62 3101.08,-149.62"/>
</g>
<!-- Node74 -->
<g id="node37" class="node">
<title>Node74</title>
<g id="a_node37"><a xlink:href="ar_multi_8h.html" target="_top" xlink:title=" ">
<polygon fill="#fff0f0" stroke="red" points="2216,-96 2094,-96 2094,-66 2216,-66 2216,-96"/>
<text text-anchor="start" x="2102" y="-84" font-family="Helvetica,sans-Serif" font-size="10.00">Source/ARX/AR/include</text>
<text text-anchor="middle" x="2155" y="-73" font-family="Helvetica,sans-Serif" font-size="10.00">/ARX/AR/arMulti.h</text>
</a>
</g>
</g>
<!-- Node2&#45;&gt;Node74 -->
<g id="edge39" class="edge">
<title>Node2&#45;&gt;Node74</title>
<path fill="none" stroke="#63b8ff" d="M3101.26,-145.4C2942.52,-143.39 2553.33,-134.57 2230,-96 2225.53,-95.47 2220.92,-94.83 2216.29,-94.12"/>
<polygon fill="#63b8ff" stroke="#63b8ff" points="3101.19,-148.9 3111.23,-145.52 3101.27,-141.9 3101.19,-148.9"/>
</g>
<!-- Node76 -->
<g id="node38" class="node">
<title>Node76</title>
<g id="a_node38"><a xlink:href="param_8h.html" target="_top" xlink:title="artoolkitX functions for handling calibrated camera parameters.">
<polygon fill="#fff0f0" stroke="red" points="5175,-96 5053,-96 5053,-66 5175,-66 5175,-96"/>
<text text-anchor="start" x="5061" y="-84" font-family="Helvetica,sans-Serif" font-size="10.00">Source/ARX/AR/include</text>
<text text-anchor="middle" x="5114" y="-73" font-family="Helvetica,sans-Serif" font-size="10.00">/ARX/AR/param.h</text>
</a>
</g>
</g>
<!-- Node2&#45;&gt;Node76 -->
<g id="edge45" class="edge">
<title>Node2&#45;&gt;Node76</title>
<path fill="none" stroke="#63b8ff" d="M3246.69,-145.56C3544.83,-143.57 4674.41,-133.72 5030,-96 5037.38,-95.22 5045.11,-94.11 5052.8,-92.85"/>
<polygon fill="#63b8ff" stroke="#63b8ff" points="3246.68,-142.06 3236.7,-145.63 3246.73,-149.06 3246.68,-142.06"/>
</g>
<!-- Node77 -->
<g id="node39" class="node">
<title>Node77</title>
<g id="a_node39"><a xlink:href="param_g_l_8h.html" target="_top" xlink:title="Routines for converting ARParam and matrix types to OpenGL.">
<polygon fill="#fff0f0" stroke="red" points="5130,-30 5008,-30 5008,0 5130,0 5130,-30"/>
<text text-anchor="start" x="5016" y="-18" font-family="Helvetica,sans-Serif" font-size="10.00">Source/ARX/AR/include</text>
<text text-anchor="middle" x="5069" y="-7" font-family="Helvetica,sans-Serif" font-size="10.00">/ARX/AR/paramGL.h</text>
</a>
</g>
</g>
<!-- Node2&#45;&gt;Node77 -->
<g id="edge48" class="edge">
<title>Node2&#45;&gt;Node77</title>
<path fill="none" stroke="#63b8ff" d="M3246.65,-145.74C3577.17,-144.32 4926.2,-136.08 5006,-96 5033.8,-82.03 5053.15,-49.46 5062.53,-30.46"/>
<polygon fill="#63b8ff" stroke="#63b8ff" points="3246.83,-142.24 3236.84,-145.78 3246.86,-149.24 3246.83,-142.24"/>
</g>
<!-- Node80 -->
<g id="node40" class="node">
<title>Node80</title>
<g id="a_node40"><a xlink:href="m_alloc_8c.html" target="_top" xlink:title=" ">
<polygon fill="white" stroke="#666666" points="5323,-90.5 5193,-90.5 5193,-71.5 5323,-71.5 5323,-90.5"/>
<text text-anchor="middle" x="5258" y="-78.5" font-family="Helvetica,sans-Serif" font-size="10.00">Source/ARX/AR/mAlloc.c</text>
</a>
</g>
</g>
<!-- Node2&#45;&gt;Node80 -->
<g id="edge49" class="edge">
<title>Node2&#45;&gt;Node80</title>
<path fill="none" stroke="#63b8ff" d="M3246.32,-145.77C3559.09,-144.55 4796.98,-137.15 5184,-96 5194.79,-94.85 5206.36,-92.98 5217.08,-90.97"/>
<polygon fill="#63b8ff" stroke="#63b8ff" points="3246.65,-142.27 3236.66,-145.81 3246.68,-149.27 3246.65,-142.27"/>
</g>
<!-- Node81 -->
<g id="node41" class="node">
<title>Node81</title>
<g id="a_node41"><a xlink:href="m_alloc_dup_8c.html" target="_top" xlink:title=" ">
<polygon fill="white" stroke="#666666" points="5489,-90.5 5341,-90.5 5341,-71.5 5489,-71.5 5489,-90.5"/>
<text text-anchor="middle" x="5415" y="-78.5" font-family="Helvetica,sans-Serif" font-size="10.00">Source/ARX/AR/mAllocDup.c</text>
</a>
</g>
</g>
<!-- Node2&#45;&gt;Node81 -->
<g id="edge50" class="edge">
<title>Node2&#45;&gt;Node81</title>
<path fill="none" stroke="#63b8ff" d="M3246.46,-145.72C3573.48,-144.26 4913.89,-135.9 5332,-96 5344.07,-94.85 5357.04,-92.97 5369.06,-90.96"/>
<polygon fill="#63b8ff" stroke="#63b8ff" points="3246.76,-142.22 3236.77,-145.77 3246.79,-149.22 3246.76,-142.22"/>
</g>
<!-- Node82 -->
<g id="node42" class="node">
<title>Node82</title>
<g id="a_node42"><a xlink:href="m_alloc_inv_8c.html" target="_top" xlink:title=" ">
<polygon fill="white" stroke="#666666" points="5649,-90.5 5507,-90.5 5507,-71.5 5649,-71.5 5649,-90.5"/>
<text text-anchor="middle" x="5578" y="-78.5" font-family="Helvetica,sans-Serif" font-size="10.00">Source/ARX/AR/mAllocInv.c</text>
</a>
</g>
</g>
<!-- Node2&#45;&gt;Node82 -->
<g id="edge51" class="edge">
<title>Node2&#45;&gt;Node82</title>
<path fill="none" stroke="#63b8ff" d="M3246.91,-145.92C3589.97,-145.33 5045.62,-140.19 5498,-96 5509.65,-94.86 5522.15,-92.99 5533.73,-90.98"/>
<polygon fill="#63b8ff" stroke="#63b8ff" points="3246.93,-142.42 3236.93,-145.94 3246.94,-149.42 3246.93,-142.42"/>
</g>
<!-- Node83 -->
<g id="node43" class="node">
<title>Node83</title>
<g id="a_node43"><a xlink:href="m_alloc_mul_8c.html" target="_top" xlink:title=" ">
<polygon fill="white" stroke="#666666" points="5813,-90.5 5667,-90.5 5667,-71.5 5813,-71.5 5813,-90.5"/>
<text text-anchor="middle" x="5740" y="-78.5" font-family="Helvetica,sans-Serif" font-size="10.00">Source/ARX/AR/mAllocMul.c</text>
</a>
</g>
</g>
<!-- Node2&#45;&gt;Node83 -->
<g id="edge52" class="edge">
<title>Node2&#45;&gt;Node83</title>
<path fill="none" stroke="#63b8ff" d="M3246.93,-146C3604.21,-145.77 5172.13,-142.11 5658,-96 5669.93,-94.87 5682.75,-93 5694.62,-90.99"/>
<polygon fill="#63b8ff" stroke="#63b8ff" points="3246.99,-142.5 3236.99,-146 3246.99,-149.5 3246.99,-142.5"/>
</g>
<!-- Node84 -->
<g id="node44" class="node">
<title>Node84</title>
<g id="a_node44"><a xlink:href="m_alloc_trans_8c.html" target="_top" xlink:title=" ">
<polygon fill="white" stroke="#666666" points="5986.5,-90.5 5831.5,-90.5 5831.5,-71.5 5986.5,-71.5 5986.5,-90.5"/>
<text text-anchor="middle" x="5909" y="-78.5" font-family="Helvetica,sans-Serif" font-size="10.00">Source/ARX/AR/mAllocTrans.c</text>
</a>
</g>
</g>
<!-- Node2&#45;&gt;Node84 -->
<g id="edge53" class="edge">
<title>Node2&#45;&gt;Node84</title>
<path fill="none" stroke="#63b8ff" d="M3246.57,-146.01C3617.18,-145.86 5301.42,-142.57 5822,-96 5834.65,-94.87 5848.24,-93 5860.83,-90.99"/>
<polygon fill="#63b8ff" stroke="#63b8ff" points="3246.73,-142.51 3236.73,-146.01 3246.74,-149.51 3246.73,-142.51"/>
</g>
<!-- Node85 -->
<g id="node45" class="node">
<title>Node85</title>
<g id="a_node45"><a xlink:href="m_alloc_unit_8c.html" target="_top" xlink:title=" ">
<polygon fill="white" stroke="#666666" points="6153,-90.5 6005,-90.5 6005,-71.5 6153,-71.5 6153,-90.5"/>
<text text-anchor="middle" x="6079" y="-78.5" font-family="Helvetica,sans-Serif" font-size="10.00">Source/ARX/AR/mAllocUnit.c</text>
</a>
</g>
</g>
<!-- Node2&#45;&gt;Node85 -->
<g id="edge54" class="edge">
<title>Node2&#45;&gt;Node85</title>
<path fill="none" stroke="#63b8ff" d="M3246.64,-146.18C3631.85,-146.94 5439.15,-147.6 5996,-96 6008.22,-94.87 6021.36,-92.97 6033.5,-90.93"/>
<polygon fill="#63b8ff" stroke="#63b8ff" points="3246.91,-142.68 3236.9,-146.16 3246.9,-149.68 3246.91,-142.68"/>
</g>
<!-- Node86 -->
<g id="node46" class="node">
<title>Node86</title>
<g id="a_node46"><a xlink:href="m_det_8c.html" target="_top" xlink:title=" ">
<polygon fill="white" stroke="#666666" points="6295,-90.5 6171,-90.5 6171,-71.5 6295,-71.5 6295,-90.5"/>
<text text-anchor="middle" x="6233" y="-78.5" font-family="Helvetica,sans-Serif" font-size="10.00">Source/ARX/AR/mDet.c</text>
</a>
</g>
</g>
<!-- Node2&#45;&gt;Node86 -->
<g id="edge55" class="edge">
<title>Node2&#45;&gt;Node86</title>
<path fill="none" stroke="#63b8ff" d="M3246.67,-145.56C3675.24,-142.86 5864.35,-127.58 6162,-96 6172.49,-94.89 6183.75,-93 6194.13,-90.96"/>
<polygon fill="#63b8ff" stroke="#63b8ff" points="3246.88,-142.06 3236.9,-145.62 3246.92,-149.06 3246.88,-142.06"/>
</g>
<!-- Node87 -->
<g id="node47" class="node">
<title>Node87</title>
<g id="a_node47"><a xlink:href="m_disp_8c.html" target="_top" xlink:title=" ">
<polygon fill="white" stroke="#666666" points="6441,-90.5 6313,-90.5 6313,-71.5 6441,-71.5 6441,-90.5"/>
<text text-anchor="middle" x="6377" y="-78.5" font-family="Helvetica,sans-Serif" font-size="10.00">Source/ARX/AR/mDisp.c</text>
</a>
</g>
</g>
<!-- Node2&#45;&gt;Node87 -->
<g id="edge56" class="edge">
<title>Node2&#45;&gt;Node87</title>
<path fill="none" stroke="#63b8ff" d="M3246.57,-145.6C3686.82,-143.05 5991.28,-128.24 6304,-96 6314.78,-94.89 6326.35,-93 6337.02,-90.96"/>
<polygon fill="#63b8ff" stroke="#63b8ff" points="3246.79,-142.09 3236.81,-145.65 3246.83,-149.09 3246.79,-142.09"/>
</g>
<!-- Node88 -->
<g id="node48" class="node">
<title>Node88</title>
<g id="a_node48"><a xlink:href="m_dup_8c.html" target="_top" xlink:title=" ">
<polygon fill="white" stroke="#666666" points="6585,-90.5 6459,-90.5 6459,-71.5 6585,-71.5 6585,-90.5"/>
<text text-anchor="middle" x="6522" y="-78.5" font-family="Helvetica,sans-Serif" font-size="10.00">Source/ARX/AR/mDup.c</text>
</a>
</g>
</g>
<!-- Node2&#45;&gt;Node88 -->
<g id="edge57" class="edge">
<title>Node2&#45;&gt;Node88</title>
<path fill="none" stroke="#63b8ff" d="M3246.69,-145.66C3699.21,-143.46 6121.94,-130.13 6450,-96 6460.64,-94.89 6472.05,-93.01 6482.58,-90.97"/>
<polygon fill="#63b8ff" stroke="#63b8ff" points="3246.93,-142.16 3236.94,-145.71 3246.96,-149.16 3246.93,-142.16"/>
</g>
<!-- Node89 -->
<g id="node49" class="node">
<title>Node89</title>
<g id="a_node49"><a xlink:href="m_free_8c.html" target="_top" xlink:title=" ">
<polygon fill="white" stroke="#666666" points="6731,-90.5 6603,-90.5 6603,-71.5 6731,-71.5 6731,-90.5"/>
<text text-anchor="middle" x="6667" y="-78.5" font-family="Helvetica,sans-Serif" font-size="10.00">Source/ARX/AR/mFree.c</text>
</a>
</g>
</g>
<!-- Node2&#45;&gt;Node89 -->
<g id="edge58" class="edge">
<title>Node2&#45;&gt;Node89</title>
<path fill="none" stroke="#63b8ff" d="M3246.54,-145.7C3710.22,-143.7 6250.65,-131.16 6594,-96 6604.78,-94.9 6616.35,-93.01 6627.02,-90.97"/>
<polygon fill="#63b8ff" stroke="#63b8ff" points="3246.83,-142.2 3236.85,-145.74 3246.86,-149.2 3246.83,-142.2"/>
</g>
<!-- Node90 -->
<g id="node50" class="node">
<title>Node90</title>
<g id="a_node50"><a xlink:href="m_inv_8c.html" target="_top" xlink:title=" ">
<polygon fill="white" stroke="#666666" points="6869,-90.5 6749,-90.5 6749,-71.5 6869,-71.5 6869,-90.5"/>
<text text-anchor="middle" x="6809" y="-78.5" font-family="Helvetica,sans-Serif" font-size="10.00">Source/ARX/AR/mInv.c</text>
</a>
</g>
</g>
<!-- Node2&#45;&gt;Node90 -->
<g id="edge59" class="edge">
<title>Node2&#45;&gt;Node90</title>
<path fill="none" stroke="#63b8ff" d="M3246.95,-145.79C3723.25,-144.34 6381.52,-134.54 6740,-96 6750.21,-94.9 6761.15,-93.02 6771.24,-90.98"/>
<polygon fill="#63b8ff" stroke="#63b8ff" points="3246.96,-142.29 3236.97,-145.82 3246.98,-149.29 3246.96,-142.29"/>
</g>
<!-- Node36&#45;&gt;Node6 -->
<g id="edge24" class="edge">
<title>Node36&#45;&gt;Node6</title>
<path fill="none" stroke="#63b8ff" d="M624,-59.68C624,-47.94 624,-33.77 624,-24.82"/>
<polygon fill="#63b8ff" stroke="#63b8ff" points="620.5,-59.59 624,-69.59 627.5,-59.59 620.5,-59.59"/>
</g>
<!-- Node72&#45;&gt;Node2 -->
<g id="edge38" class="edge">
<title>Node72&#45;&gt;Node2</title>
<path fill="none" stroke="#63b8ff" d="M863.87,-95.26C865.93,-95.53 867.98,-95.78 870,-96 1323.59,-145.25 2793.75,-146.46 3112.64,-146.11"/>
<polygon fill="#63b8ff" stroke="#63b8ff" points="864.59,-91.83 854.18,-93.83 863.56,-98.76 864.59,-91.83"/>
</g>
<!-- Node72&#45;&gt;Node6 -->
<g id="edge37" class="edge">
<title>Node72&#45;&gt;Node6</title>
<path fill="none" stroke="#63b8ff" d="M742.11,-61.54C710.99,-49.54 671.79,-34.43 647.31,-24.99"/>
<polygon fill="#63b8ff" stroke="#63b8ff" points="740.74,-64.76 751.33,-65.09 743.26,-58.23 740.74,-64.76"/>
</g>
<!-- Node74&#45;&gt;Node26 -->
<g id="edge40" class="edge">
<title>Node74&#45;&gt;Node26</title>
<path fill="none" stroke="#63b8ff" d="M2082.47,-63.42C2037.8,-53.21 1981.08,-40.25 1938.24,-30.46"/>
<polygon fill="#63b8ff" stroke="#63b8ff" points="2081.55,-66.8 2092.08,-65.62 2083.11,-59.98 2081.55,-66.8"/>
</g>
<!-- Node74&#45;&gt;Node27 -->
<g id="edge41" class="edge">
<title>Node74&#45;&gt;Node27</title>
<path fill="none" stroke="#63b8ff" d="M2117.43,-60.45C2098.75,-50.73 2076.59,-39.2 2059.51,-30.31"/>
<polygon fill="#63b8ff" stroke="#63b8ff" points="2115.57,-63.43 2126.05,-64.94 2118.8,-57.22 2115.57,-63.43"/>
</g>
<!-- Node74&#45;&gt;Node28 -->
<g id="edge42" class="edge">
<title>Node74&#45;&gt;Node28</title>
<path fill="none" stroke="#63b8ff" d="M2167.84,-55.83C2172.44,-47.17 2177.47,-37.7 2181.48,-30.16"/>
<polygon fill="#63b8ff" stroke="#63b8ff" points="2164.86,-53.99 2163.26,-64.46 2171.04,-57.27 2164.86,-53.99"/>
</g>
<!-- Node74&#45;&gt;Node29 -->
<g id="edge43" class="edge">
<title>Node74&#45;&gt;Node29</title>
<path fill="none" stroke="#63b8ff" d="M2207.96,-62.07C2237.47,-52.07 2273.74,-39.79 2301.4,-30.43"/>
<polygon fill="#63b8ff" stroke="#63b8ff" points="2207.2,-58.63 2198.85,-65.15 2209.44,-65.26 2207.2,-58.63"/>
</g>
<!-- Node74&#45;&gt;Node30 -->
<g id="edge44" class="edge">
<title>Node74&#45;&gt;Node30</title>
<path fill="none" stroke="#63b8ff" d="M2227.63,-66.64C2287.25,-55.68 2371.26,-40.23 2430.77,-29.28"/>
<polygon fill="#63b8ff" stroke="#63b8ff" points="2227.1,-63.18 2217.9,-68.43 2228.37,-70.07 2227.1,-63.18"/>
</g>
<!-- Node76&#45;&gt;Node2 -->
<g id="edge46" class="edge">
<title>Node76&#45;&gt;Node2</title>
<path fill="none" stroke="#63b8ff" d="M5041.51,-96.62C4661.94,-134.67 3514.16,-143.97 3235.43,-145.67"/>
<polygon fill="#63b8ff" stroke="#63b8ff" points="5041.69,-100.12 5051.28,-95.61 5040.97,-93.15 5041.69,-100.12"/>
</g>
<!-- Node76&#45;&gt;Node77 -->
<g id="edge47" class="edge">
<title>Node76&#45;&gt;Node77</title>
<path fill="none" stroke="#63b8ff" d="M5097.4,-56.39C5091.21,-47.59 5084.37,-37.86 5078.96,-30.16"/>
<polygon fill="#63b8ff" stroke="#63b8ff" points="5094.53,-58.39 5103.14,-64.56 5100.25,-54.36 5094.53,-58.39"/>
</g>
</g>
</svg>
        <g id="navigator" transform="translate(0 0)" fill="#404254">
                <rect fill="#f2f5e9" fill-opacity="0.5" stroke="#606060" stroke-width=".5" x="0" y="0" width="60" height="60"/>
                <use id="zoomplus" xlink:href="#zoomPlus" x="17" y="9" onmousedown="handleZoom(evt,'in')"/>
                <use id="zoomminus" xlink:href="#zoomMin" x="42" y="9" onmousedown="handleZoom(evt,'out')"/>
                <use id="reset" xlink:href="#resetDef" x="30" y="36" onmousedown="handleReset()"/>
                <g id="arrowUp" xlink:href="#dirArrow" transform="translate(30 24)" onmousedown="handlePan(0,-1)">
                  <use xlink:href="#rim" fill="#404040">
                        <set attributeName="fill" to="#808080" begin="arrowUp.mouseover" end="arrowUp.mouseout"/>
                  </use>
                  <path fill="none" stroke="white" stroke-width="1.5" d="M0,-3.0v7 M-2.5,-0.5L0,-3.0L2.5,-0.5"/>
                </g>
                <g id="arrowRight" xlink:href="#dirArrow" transform="rotate(90) translate(36 -43)" onmousedown="handlePan(1,0)">
                  <use xlink:href="#rim" fill="#404040">
                        <set attributeName="fill" to="#808080" begin="arrowRight.mouseover" end="arrowRight.mouseout"/>
                  </use>
                  <path fill="none" stroke="white" stroke-width="1.5" d="M0,-3.0v7 M-2.5,-0.5L0,-3.0L2.5,-0.5"/>
                </g>
                <g id="arrowDown" xlink:href="#dirArrow" transform="rotate(180) translate(-30 -48)" onmousedown="handlePan(0,1)">
                  <use xlink:href="#rim" fill="#404040">
                        <set attributeName="fill" to="#808080" begin="arrowDown.mouseover" end="arrowDown.mouseout"/>
                  </use>
                  <path fill="none" stroke="white" stroke-width="1.5" d="M0,-3.0v7 M-2.5,-0.5L0,-3.0L2.5,-0.5"/>
                </g>
                <g id="arrowLeft" xlink:href="#dirArrow" transform="rotate(270) translate(-36 17)" onmousedown="handlePan(-1,0)">
                  <use xlink:href="#rim" fill="#404040">
                        <set attributeName="fill" to="#808080" begin="arrowLeft.mouseover" end="arrowLeft.mouseout"/>
                  </use>
                  <path fill="none" stroke="white" stroke-width="1.5" d="M0,-3.0v7 M-2.5,-0.5L0,-3.0L2.5,-0.5"/>
                </g>
        </g>
        <svg viewBox="0 0 15 15" width="100%" height="30px" preserveAspectRatio="xMaxYMin meet">
         <g id="arrow_out" transform="scale(0.3 0.3)">
          <a xlink:href="ar_config_8h__dep__incl_org.svg" target="_base">
           <rect id="button" ry="5" rx="5" y="6" x="6" height="38" width="38"
                fill="#f2f5e9" fill-opacity="0.5" stroke="#606060" stroke-width="1.0"/>
           <path id="arrow"
             d="M 11.500037,31.436501 C 11.940474,20.09759 22.043105,11.32322 32.158766,21.979434 L 37.068811,17.246167 C 37.068811,17.246167 37.088388,32 37.088388,32 L 22.160133,31.978069 C 22.160133,31.978069 26.997745,27.140456 26.997745,27.140456 C 18.528582,18.264221 13.291696,25.230495 11.500037,31.436501 z"
             style="fill:#404040;"/>
          </a>
         </g>
        </svg>
</svg>
