<?xml version="1.0" encoding="UTF-8" standalone="no"?>
<!DOCTYPE svg PUBLIC "-//W3C//DTD SVG 1.1//EN"
 "http://www.w3.org/Graphics/SVG/1.1/DTD/svg11.dtd">
<!-- Generated by graphviz version 7.0.5 (20221223.1930)
 -->
<!-- Title: arSetLabelingThreshMode Pages: 1 -->
<svg width="267pt" height="64pt"
 viewBox="0.00 0.00 267.00 64.00" xmlns="http://www.w3.org/2000/svg" xmlns:xlink="http://www.w3.org/1999/xlink">
<g id="graph0" class="graph" transform="scale(1 1) rotate(0) translate(4 60)">
<title>arSetLabelingThreshMode</title>
<!-- Node1 -->
<g id="node1" class="node">
<title>Node1</title>
<g id="a_node1"><a xlink:title="Set the labeling threshold mode (auto/manual).">
<polygon fill="#999999" stroke="#666666" points="130,-37 0,-37 0,-18 130,-18 130,-37"/>
<text text-anchor="middle" x="65" y="-25" font-family="Helvetica,sans-Serif" font-size="10.00">arSetLabelingThreshMode</text>
</a>
</g>
</g>
<!-- Node2 -->
<g id="node2" class="node">
<title>Node2</title>
<g id="a_node2"><a xlink:href="ar_image_proc_8c.html#a99a7b2bbb653be2ecc772ceed7159ce1" target="_top" xlink:title="Finish image processing and free memory.">
<polygon fill="white" stroke="#666666" points="259,-56 166,-56 166,-37 259,-37 259,-56"/>
<text text-anchor="middle" x="212.5" y="-44" font-family="Helvetica,sans-Serif" font-size="10.00">arImageProcFinal</text>
</a>
</g>
</g>
<!-- Node1&#45;&gt;Node2 -->
<g id="edge1" class="edge">
<title>Node1&#45;&gt;Node2</title>
<path fill="none" stroke="#63b8ff" d="M130.24,-35.89C138.22,-36.93 146.34,-37.99 154.2,-39.02"/>
<polygon fill="#63b8ff" stroke="#63b8ff" points="153.63,-42.47 164,-40.3 154.54,-35.53 153.63,-42.47"/>
</g>
<!-- Node3 -->
<g id="node3" class="node">
<title>Node3</title>
<g id="a_node3"><a xlink:href="ar_image_proc_8c.html#ab17100ae9f8d3a2b881830f135bfffa8" target="_top" xlink:title="Initialise image processing.">
<polygon fill="white" stroke="#666666" points="255.5,-19 169.5,-19 169.5,0 255.5,0 255.5,-19"/>
<text text-anchor="middle" x="212.5" y="-7" font-family="Helvetica,sans-Serif" font-size="10.00">arImageProcInit</text>
</a>
</g>
</g>
<!-- Node1&#45;&gt;Node3 -->
<g id="edge2" class="edge">
<title>Node1&#45;&gt;Node3</title>
<path fill="none" stroke="#63b8ff" d="M130.24,-19.55C139.56,-18.4 149.06,-17.22 158.13,-16.1"/>
<polygon fill="#63b8ff" stroke="#63b8ff" points="158.34,-19.6 167.83,-14.9 157.48,-12.66 158.34,-19.6"/>
</g>
</g>
</svg>
