<?xml version="1.0" encoding="UTF-8" standalone="no"?>
<!DOCTYPE svg PUBLIC "-//W3C//DTD SVG 1.1//EN"
 "http://www.w3.org/Graphics/SVG/1.1/DTD/svg11.dtd">
<!-- Generated by graphviz version 7.0.5 (20221223.1930)
 -->
<!-- Title: Source/ARX/AR/arCreateHandle.c Pages: 1 -->
<svg width="1035pt" height="192pt"
 viewBox="0.00 0.00 1034.50 192.00" xmlns="http://www.w3.org/2000/svg" xmlns:xlink="http://www.w3.org/1999/xlink">
<g id="graph0" class="graph" transform="scale(1 1) rotate(0) translate(4 188)">
<title>Source/ARX/AR/arCreateHandle.c</title>
<!-- Node1 -->
<g id="node1" class="node">
<title>Node1</title>
<g id="a_node1"><a xlink:title=" ">
<polygon fill="#999999" stroke="#666666" points="1026.5,-184 858.5,-184 858.5,-165 1026.5,-165 1026.5,-184"/>
<text text-anchor="middle" x="942.5" y="-172" font-family="Helvetica,sans-Serif" font-size="10.00">Source/ARX/AR/arCreateHandle.c</text>
</a>
</g>
</g>
<!-- Node2 -->
<g id="node2" class="node">
<title>Node2</title>
<g id="a_node2"><a xlink:href="ar_8h.html" target="_top" xlink:title="artoolkitX core routines.">
<polygon fill="white" stroke="#666666" points="538.5,-129 464.5,-129 464.5,-110 538.5,-110 538.5,-129"/>
<text text-anchor="middle" x="501.5" y="-117" font-family="Helvetica,sans-Serif" font-size="10.00">ARX/AR/ar.h</text>
</a>
</g>
</g>
<!-- Node1&#45;&gt;Node2 -->
<g id="edge1" class="edge">
<title>Node1&#45;&gt;Node2</title>
<path fill="none" stroke="#63b8ff" d="M867.69,-164.51C777,-153.61 626.79,-135.56 549.98,-126.33"/>
<polygon fill="#63b8ff" stroke="#63b8ff" points="550.6,-122.88 540.26,-125.16 549.77,-129.83 550.6,-122.88"/>
</g>
<!-- Node3 -->
<g id="node3" class="node">
<title>Node3</title>
<g id="a_node3"><a xlink:title=" ">
<polygon fill="#e0e0e0" stroke="#999999" points="815.5,-19 769.5,-19 769.5,0 815.5,0 815.5,-19"/>
<text text-anchor="middle" x="792.5" y="-7" font-family="Helvetica,sans-Serif" font-size="10.00">stdio.h</text>
</a>
</g>
</g>
<!-- Node1&#45;&gt;Node3 -->
<g id="edge25" class="edge">
<title>Node1&#45;&gt;Node3</title>
<path fill="none" stroke="#63b8ff" d="M943.81,-164.52C946.43,-142.88 949.92,-87.28 922.5,-55 898.85,-27.15 856.96,-16.7 827.13,-12.79"/>
<polygon fill="#63b8ff" stroke="#63b8ff" points="827.78,-9.34 817.46,-11.72 827.01,-16.3 827.78,-9.34"/>
</g>
<!-- Node14 -->
<g id="node14" class="node">
<title>Node14</title>
<g id="a_node14"><a xlink:title=" ">
<polygon fill="#e0e0e0" stroke="#999999" points="947,-19 900,-19 900,0 947,0 947,-19"/>
<text text-anchor="middle" x="923.5" y="-7" font-family="Helvetica,sans-Serif" font-size="10.00">math.h</text>
</a>
</g>
</g>
<!-- Node1&#45;&gt;Node14 -->
<g id="edge26" class="edge">
<title>Node1&#45;&gt;Node14</title>
<path fill="none" stroke="#63b8ff" d="M946.08,-164.62C953.64,-144.54 969.5,-94.34 956.5,-55 953.2,-45 946.68,-35.42 940.31,-27.72"/>
<polygon fill="#63b8ff" stroke="#63b8ff" points="943.12,-25.61 933.84,-20.49 937.9,-30.28 943.12,-25.61"/>
</g>
<!-- Node2&#45;&gt;Node3 -->
<g id="edge2" class="edge">
<title>Node2&#45;&gt;Node3</title>
<path fill="none" stroke="#63b8ff" d="M538.9,-117.09C604.88,-113.86 738.18,-103.75 772.5,-74 784.93,-63.23 789.72,-44.81 791.52,-30.57"/>
<polygon fill="#63b8ff" stroke="#63b8ff" points="794.98,-31.2 792.33,-20.95 788.01,-30.62 794.98,-31.2"/>
</g>
<!-- Node4 -->
<g id="node4" class="node">
<title>Node4</title>
<g id="a_node4"><a xlink:title=" ">
<polygon fill="#e0e0e0" stroke="#999999" points="392.5,-19 344.5,-19 344.5,0 392.5,0 392.5,-19"/>
<text text-anchor="middle" x="368.5" y="-7" font-family="Helvetica,sans-Serif" font-size="10.00">stdlib.h</text>
</a>
</g>
</g>
<!-- Node2&#45;&gt;Node4 -->
<g id="edge3" class="edge">
<title>Node2&#45;&gt;Node4</title>
<path fill="none" stroke="#63b8ff" d="M464.22,-112.96C438.95,-107.31 406.61,-96.08 386.5,-74 375.75,-62.2 371.37,-44.43 369.61,-30.69"/>
<polygon fill="#63b8ff" stroke="#63b8ff" points="373.12,-30.65 368.75,-20.99 366.14,-31.26 373.12,-30.65"/>
</g>
<!-- Node5 -->
<g id="node5" class="node">
<title>Node5</title>
<g id="a_node5"><a xlink:title=" ">
<polygon fill="#e0e0e0" stroke="#999999" points="67,-74 18,-74 18,-55 67,-55 67,-74"/>
<text text-anchor="middle" x="42.5" y="-62" font-family="Helvetica,sans-Serif" font-size="10.00">stdint.h</text>
</a>
</g>
</g>
<!-- Node2&#45;&gt;Node5 -->
<g id="edge4" class="edge">
<title>Node2&#45;&gt;Node5</title>
<path fill="none" stroke="#63b8ff" d="M464.24,-115.92C390.72,-110.54 221.93,-96.67 81.5,-74 80.48,-73.84 79.45,-73.66 78.41,-73.48"/>
<polygon fill="#63b8ff" stroke="#63b8ff" points="79.15,-70.06 68.67,-71.59 77.82,-76.93 79.15,-70.06"/>
</g>
<!-- Node6 -->
<g id="node6" class="node">
<title>Node6</title>
<g id="a_node6"><a xlink:title=" ">
<polygon fill="#e0e0e0" stroke="#999999" points="49,-19 0,-19 0,0 49,0 49,-19"/>
<text text-anchor="middle" x="24.5" y="-7" font-family="Helvetica,sans-Serif" font-size="10.00">string.h</text>
</a>
</g>
</g>
<!-- Node2&#45;&gt;Node6 -->
<g id="edge5" class="edge">
<title>Node2&#45;&gt;Node6</title>
<path fill="none" stroke="#63b8ff" d="M464.07,-116.56C379.86,-111.81 177.92,-98.2 114.5,-74 86.46,-63.3 58.98,-41.86 41.9,-26.86"/>
<polygon fill="#63b8ff" stroke="#63b8ff" points="44.44,-24.43 34.68,-20.32 39.74,-29.62 44.44,-24.43"/>
</g>
<!-- Node7 -->
<g id="node7" class="node">
<title>Node7</title>
<g id="a_node7"><a xlink:title=" ">
<polygon fill="#e0e0e0" stroke="#999999" points="547.5,-19 455.5,-19 455.5,0 547.5,0 547.5,-19"/>
<text text-anchor="middle" x="501.5" y="-7" font-family="Helvetica,sans-Serif" font-size="10.00">ARX/AR/config.h</text>
</a>
</g>
</g>
<!-- Node2&#45;&gt;Node7 -->
<g id="edge6" class="edge">
<title>Node2&#45;&gt;Node7</title>
<path fill="none" stroke="#63b8ff" d="M508.36,-109.56C514.48,-100.97 523,-87.37 526.5,-74 530.62,-58.24 523.11,-41.09 515.26,-28.59"/>
<polygon fill="#63b8ff" stroke="#63b8ff" points="518.27,-26.79 509.71,-20.56 512.52,-30.78 518.27,-26.79"/>
</g>
<!-- Node8 -->
<g id="node8" class="node">
<title>Node8</title>
<g id="a_node8"><a xlink:href="ar_config_8h.html" target="_top" xlink:title=" ">
<polygon fill="white" stroke="#666666" points="339,-74 236,-74 236,-55 339,-55 339,-74"/>
<text text-anchor="middle" x="287.5" y="-62" font-family="Helvetica,sans-Serif" font-size="10.00">ARX/AR/arConfig.h</text>
</a>
</g>
</g>
<!-- Node2&#45;&gt;Node8 -->
<g id="edge7" class="edge">
<title>Node2&#45;&gt;Node8</title>
<path fill="none" stroke="#63b8ff" d="M465.2,-109.51C429.27,-100.61 374.1,-86.95 334.77,-77.21"/>
<polygon fill="#63b8ff" stroke="#63b8ff" points="335.64,-73.82 325.09,-74.81 333.96,-80.61 335.64,-73.82"/>
</g>
<!-- Node9 -->
<g id="node9" class="node">
<title>Node9</title>
<g id="a_node9"><a xlink:href="log_8h.html" target="_top" xlink:title="Logging utilities.">
<polygon fill="white" stroke="#666666" points="217.5,-74 123.5,-74 123.5,-55 217.5,-55 217.5,-74"/>
<text text-anchor="middle" x="170.5" y="-62" font-family="Helvetica,sans-Serif" font-size="10.00">ARX/ARUtil/log.h</text>
</a>
</g>
</g>
<!-- Node2&#45;&gt;Node9 -->
<g id="edge8" class="edge">
<title>Node2&#45;&gt;Node9</title>
<path fill="none" stroke="#63b8ff" d="M464.17,-112.52C406.96,-103.36 297.07,-85.77 229.14,-74.89"/>
<polygon fill="#63b8ff" stroke="#63b8ff" points="229.72,-71.44 219.29,-73.31 228.61,-78.35 229.72,-71.44"/>
</g>
<!-- Node13 -->
<g id="node13" class="node">
<title>Node13</title>
<g id="a_node13"><a xlink:href="matrix_8h.html" target="_top" xlink:title=" ">
<polygon fill="white" stroke="#666666" points="914,-74 821,-74 821,-55 914,-55 914,-74"/>
<text text-anchor="middle" x="867.5" y="-62" font-family="Helvetica,sans-Serif" font-size="10.00">ARX/AR/matrix.h</text>
</a>
</g>
</g>
<!-- Node2&#45;&gt;Node13 -->
<g id="edge15" class="edge">
<title>Node2&#45;&gt;Node13</title>
<path fill="none" stroke="#63b8ff" d="M538.95,-113.08C602.89,-103.82 733.56,-84.9 809.43,-73.91"/>
<polygon fill="#63b8ff" stroke="#63b8ff" points="809.77,-77.4 819.16,-72.5 808.77,-70.47 809.77,-77.4"/>
</g>
<!-- Node15 -->
<g id="node15" class="node">
<title>Node15</title>
<g id="a_node15"><a xlink:href="icp_8h.html" target="_top" xlink:title=" ">
<polygon fill="white" stroke="#666666" points="764,-74 685,-74 685,-55 764,-55 764,-74"/>
<text text-anchor="middle" x="724.5" y="-62" font-family="Helvetica,sans-Serif" font-size="10.00">ARX/AR/icp.h</text>
</a>
</g>
</g>
<!-- Node2&#45;&gt;Node15 -->
<g id="edge17" class="edge">
<title>Node2&#45;&gt;Node15</title>
<path fill="none" stroke="#63b8ff" d="M538.83,-109.63C576.34,-100.71 634.35,-86.92 675.54,-77.14"/>
<polygon fill="#63b8ff" stroke="#63b8ff" points="676.29,-80.56 685.21,-74.84 674.67,-73.75 676.29,-80.56"/>
</g>
<!-- Node17 -->
<g id="node17" class="node">
<title>Node17</title>
<g id="a_node17"><a xlink:href="param_8h.html" target="_top" xlink:title="artoolkitX functions for handling calibrated camera parameters.">
<polygon fill="white" stroke="#666666" points="667,-74 574,-74 574,-55 667,-55 667,-74"/>
<text text-anchor="middle" x="620.5" y="-62" font-family="Helvetica,sans-Serif" font-size="10.00">ARX/AR/param.h</text>
</a>
</g>
</g>
<!-- Node2&#45;&gt;Node17 -->
<g id="edge20" class="edge">
<title>Node2&#45;&gt;Node17</title>
<path fill="none" stroke="#63b8ff" d="M516.47,-109.51C533.7,-101.04 562.16,-88.27 585.04,-78.66"/>
<polygon fill="#63b8ff" stroke="#63b8ff" points="586.12,-82 594.02,-74.94 583.45,-75.53 586.12,-82"/>
</g>
<!-- Node18 -->
<g id="node18" class="node">
<title>Node18</title>
<g id="a_node18"><a xlink:href="ar_image_proc_8h.html" target="_top" xlink:title="artoolkitX functions for 2D luminance image processing.">
<polygon fill="white" stroke="#666666" points="517.5,-74 395.5,-74 395.5,-55 517.5,-55 517.5,-74"/>
<text text-anchor="middle" x="456.5" y="-62" font-family="Helvetica,sans-Serif" font-size="10.00">ARX/AR/arImageProc.h</text>
</a>
</g>
</g>
<!-- Node2&#45;&gt;Node18 -->
<g id="edge22" class="edge">
<title>Node2&#45;&gt;Node18</title>
<path fill="none" stroke="#63b8ff" d="M488.65,-109.51C481.19,-102.46 472.26,-92.42 465.52,-83.71"/>
<polygon fill="#63b8ff" stroke="#63b8ff" points="468.37,-81.69 459.71,-75.59 462.68,-85.76 468.37,-81.69"/>
</g>
<!-- Node9&#45;&gt;Node3 -->
<g id="edge9" class="edge">
<title>Node9&#45;&gt;Node3</title>
<path fill="none" stroke="#63b8ff" d="M217.82,-56.03C220.75,-55.66 223.67,-55.31 226.5,-55 459.27,-29.53 523.79,-56.83 757.92,-19.09"/>
<polygon fill="#63b8ff" stroke="#63b8ff" points="758.4,-22.56 767.7,-17.49 757.27,-15.65 758.4,-22.56"/>
</g>
<!-- Node9&#45;&gt;Node4 -->
<g id="edge10" class="edge">
<title>Node9&#45;&gt;Node4</title>
<path fill="none" stroke="#63b8ff" d="M204.09,-54.51C239.93,-44.92 296.47,-29.78 333.02,-20"/>
<polygon fill="#63b8ff" stroke="#63b8ff" points="333.92,-23.38 342.67,-17.41 332.11,-16.62 333.92,-23.38"/>
</g>
<!-- Node9&#45;&gt;Node6 -->
<g id="edge11" class="edge">
<title>Node9&#45;&gt;Node6</title>
<path fill="none" stroke="#63b8ff" d="M145.73,-54.51C122.1,-45.93 86.26,-32.92 59.67,-23.27"/>
<polygon fill="#63b8ff" stroke="#63b8ff" points="60.92,-20 50.32,-19.87 58.53,-26.58 60.92,-20"/>
</g>
<!-- Node10 -->
<g id="node10" class="node">
<title>Node10</title>
<g id="a_node10"><a xlink:title=" ">
<polygon fill="#e0e0e0" stroke="#999999" points="119.5,-19 67.5,-19 67.5,0 119.5,0 119.5,-19"/>
<text text-anchor="middle" x="93.5" y="-7" font-family="Helvetica,sans-Serif" font-size="10.00">stdarg.h</text>
</a>
</g>
</g>
<!-- Node9&#45;&gt;Node10 -->
<g id="edge12" class="edge">
<title>Node9&#45;&gt;Node10</title>
<path fill="none" stroke="#63b8ff" d="M157.44,-54.51C145.98,-46.62 129.07,-34.98 115.52,-25.65"/>
<polygon fill="#63b8ff" stroke="#63b8ff" points="117.84,-23 107.62,-20.22 113.87,-28.77 117.84,-23"/>
</g>
<!-- Node11 -->
<g id="node11" class="node">
<title>Node11</title>
<g id="a_node11"><a xlink:title=" ">
<polygon fill="#e0e0e0" stroke="#999999" points="203,-19 138,-19 138,0 203,0 203,-19"/>
<text text-anchor="middle" x="170.5" y="-7" font-family="Helvetica,sans-Serif" font-size="10.00">sys/errno.h</text>
</a>
</g>
</g>
<!-- Node9&#45;&gt;Node11 -->
<g id="edge13" class="edge">
<title>Node9&#45;&gt;Node11</title>
<path fill="none" stroke="#63b8ff" d="M170.5,-54.75C170.5,-48.27 170.5,-39.16 170.5,-30.9"/>
<polygon fill="#63b8ff" stroke="#63b8ff" points="174,-30.96 170.5,-20.96 167,-30.96 174,-30.96"/>
</g>
<!-- Node12 -->
<g id="node12" class="node">
<title>Node12</title>
<g id="a_node12"><a xlink:href="types_8h.html" target="_top" xlink:title=" ">
<polygon fill="white" stroke="#666666" points="326,-19 221,-19 221,0 326,0 326,-19"/>
<text text-anchor="middle" x="273.5" y="-7" font-family="Helvetica,sans-Serif" font-size="10.00">ARX/ARUtil/types.h</text>
</a>
</g>
</g>
<!-- Node9&#45;&gt;Node12 -->
<g id="edge14" class="edge">
<title>Node9&#45;&gt;Node12</title>
<path fill="none" stroke="#63b8ff" d="M187.97,-54.51C203.9,-46.31 227.69,-34.07 246.14,-24.58"/>
<polygon fill="#63b8ff" stroke="#63b8ff" points="247.65,-27.74 254.94,-20.05 244.45,-21.51 247.65,-27.74"/>
</g>
<!-- Node13&#45;&gt;Node14 -->
<g id="edge16" class="edge">
<title>Node13&#45;&gt;Node14</title>
<path fill="none" stroke="#63b8ff" d="M877,-54.51C884.93,-47 896.45,-36.1 906.04,-27.03"/>
<polygon fill="#63b8ff" stroke="#63b8ff" points="908.18,-29.81 913.04,-20.4 903.37,-24.73 908.18,-29.81"/>
</g>
<!-- Node15&#45;&gt;Node3 -->
<g id="edge18" class="edge">
<title>Node15&#45;&gt;Node3</title>
<path fill="none" stroke="#63b8ff" d="M736.04,-54.51C745.96,-46.77 760.51,-35.43 772.36,-26.2"/>
<polygon fill="#63b8ff" stroke="#63b8ff" points="774.21,-29.2 779.94,-20.29 769.9,-23.68 774.21,-29.2"/>
</g>
<!-- Node16 -->
<g id="node16" class="node">
<title>Node16</title>
<g id="a_node16"><a xlink:href="icp_core_8h.html" target="_top" xlink:title=" ">
<polygon fill="white" stroke="#666666" points="751.5,-19 651.5,-19 651.5,0 751.5,0 751.5,-19"/>
<text text-anchor="middle" x="701.5" y="-7" font-family="Helvetica,sans-Serif" font-size="10.00">ARX/AR/icpCore.h</text>
</a>
</g>
</g>
<!-- Node15&#45;&gt;Node16 -->
<g id="edge19" class="edge">
<title>Node15&#45;&gt;Node16</title>
<path fill="none" stroke="#63b8ff" d="M720.7,-54.75C717.76,-47.96 713.56,-38.3 709.85,-29.73"/>
<polygon fill="#63b8ff" stroke="#63b8ff" points="713.17,-28.61 705.98,-20.83 706.75,-31.4 713.17,-28.61"/>
</g>
<!-- Node17&#45;&gt;Node2 -->
<g id="edge21" class="edge">
<title>Node17&#45;&gt;Node2</title>
<path fill="none" stroke="#63b8ff" d="M605.8,-74.36C588.69,-82.78 560.26,-95.55 537.32,-105.19"/>
<polygon fill="#63b8ff" stroke="#63b8ff" points="536.2,-101.87 528.3,-108.93 538.88,-108.34 536.2,-101.87"/>
</g>
<!-- Node18&#45;&gt;Node2 -->
<g id="edge24" class="edge">
<title>Node18&#45;&gt;Node2</title>
<path fill="none" stroke="#63b8ff" d="M469.3,-74.44C476.87,-81.59 485.98,-91.84 492.76,-100.65"/>
<polygon fill="#63b8ff" stroke="#63b8ff" points="489.71,-102.39 498.36,-108.51 495.41,-98.34 489.71,-102.39"/>
</g>
<!-- Node18&#45;&gt;Node7 -->
<g id="edge23" class="edge">
<title>Node18&#45;&gt;Node7</title>
<path fill="none" stroke="#63b8ff" d="M463.93,-54.75C470.08,-47.5 479.01,-36.98 486.63,-28.02"/>
<polygon fill="#63b8ff" stroke="#63b8ff" points="489.12,-30.48 492.93,-20.6 483.79,-25.95 489.12,-30.48"/>
</g>
</g>
</svg>
