<?xml version="1.0" encoding="UTF-8" standalone="no"?>
<!DOCTYPE svg PUBLIC "-//W3C//DTD SVG 1.1//EN"
 "http://www.w3.org/Graphics/SVG/1.1/DTD/svg11.dtd">
<!-- Generated by graphviz version 8.0.5 (20230430.1635)
 -->
<!-- Title: arCreateHandle Pages: 1 -->
<svg width="406pt" height="113pt"
 viewBox="0.00 0.00 406.25 112.88" xmlns="http://www.w3.org/2000/svg" xmlns:xlink="http://www.w3.org/1999/xlink">
<g id="graph0" class="graph" transform="scale(1 1) rotate(0) translate(4 108.88)">
<title>arCreateHandle</title>
<!-- Node1 -->
<g id="node1" class="node">
<title>Node1</title>
<g id="a_node1"><a xlink:title="Create a handle to hold settings for an artoolkitX tracker instance.">
<polygon fill="#999999" stroke="#666666" points="84.25,-67.88 0,-67.88 0,-48.62 84.25,-48.62 84.25,-67.88"/>
<text text-anchor="middle" x="42.12" y="-54.38" font-family="Helvetica,sans-Serif" font-size="10.00">arCreateHandle</text>
</a>
</g>
</g>
<!-- Node2 -->
<g id="node2" class="node">
<title>Node2</title>
<g id="a_node2"><a xlink:href="ar_create_handle_8c.html#a01258051f513f5c2760136479c9a2052" target="_top" xlink:title="Enable or disable artoolkitX&#39;s debug mode.">
<polygon fill="white" stroke="#666666" points="240.88,-104.88 149.12,-104.88 149.12,-85.62 240.88,-85.62 240.88,-104.88"/>
<text text-anchor="middle" x="195" y="-91.38" font-family="Helvetica,sans-Serif" font-size="10.00">arSetDebugMode</text>
</a>
</g>
</g>
<!-- Node1&#45;&gt;Node2 -->
<g id="edge1" class="edge">
<title>Node1&#45;&gt;Node2</title>
<path fill="none" stroke="#63b8ff" d="M83.95,-68.32C95.67,-71.21 108.46,-74.36 120.25,-77.25 127.3,-78.98 134.73,-80.8 142.06,-82.59"/>
<polygon fill="#63b8ff" stroke="#63b8ff" points="141.11,-86.2 151.65,-85.17 142.77,-79.4 141.11,-86.2"/>
</g>
<!-- Node3 -->
<g id="node3" class="node">
<title>Node3</title>
<g id="a_node3"><a xlink:href="ar_create_handle_8c.html#aec6c548f3619e700e40764cd1c685fc6" target="_top" xlink:title="Set the labeling threshold mode (auto/manual).">
<polygon fill="white" stroke="#666666" points="259.62,-67.88 130.38,-67.88 130.38,-48.62 259.62,-48.62 259.62,-67.88"/>
<text text-anchor="middle" x="195" y="-54.38" font-family="Helvetica,sans-Serif" font-size="10.00">arSetLabelingThreshMode</text>
</a>
</g>
</g>
<!-- Node1&#45;&gt;Node3 -->
<g id="edge2" class="edge">
<title>Node1&#45;&gt;Node3</title>
<path fill="none" stroke="#63b8ff" d="M84.35,-58.25C95.17,-58.25 107.19,-58.25 119.18,-58.25"/>
<polygon fill="#63b8ff" stroke="#63b8ff" points="119.15,-61.75 129.15,-58.25 119.15,-54.75 119.15,-61.75"/>
</g>
<!-- Node6 -->
<g id="node6" class="node">
<title>Node6</title>
<g id="a_node6"><a xlink:href="ar_create_handle_8c.html#a86e2d00dfb41243650b1e18c55dcf031" target="_top" xlink:title="Set the number of frames between auto&#45;threshold calculations.">
<polygon fill="white" stroke="#666666" points="269.75,-30.5 120.25,-30.5 120.25,0 269.75,0 269.75,-30.5"/>
<text text-anchor="start" x="128.25" y="-17" font-family="Helvetica,sans-Serif" font-size="10.00">arSetLabelingThreshModeAuto</text>
<text text-anchor="middle" x="195" y="-5.75" font-family="Helvetica,sans-Serif" font-size="10.00">Interval</text>
</a>
</g>
</g>
<!-- Node1&#45;&gt;Node6 -->
<g id="edge5" class="edge">
<title>Node1&#45;&gt;Node6</title>
<path fill="none" stroke="#63b8ff" d="M78.5,-48.17C93.36,-43.93 111.14,-38.87 128.24,-33.99"/>
<polygon fill="#63b8ff" stroke="#63b8ff" points="129.11,-37.1 137.77,-30.99 127.2,-30.37 129.11,-37.1"/>
</g>
<!-- Node4 -->
<g id="node4" class="node">
<title>Node4</title>
<g id="a_node4"><a xlink:href="ar_image_proc_8c.html#a99a7b2bbb653be2ecc772ceed7159ce1" target="_top" xlink:title="Finish image processing and free memory.">
<polygon fill="white" stroke="#666666" points="398.25,-85.88 305.75,-85.88 305.75,-66.62 398.25,-66.62 398.25,-85.88"/>
<text text-anchor="middle" x="352" y="-72.38" font-family="Helvetica,sans-Serif" font-size="10.00">arImageProcFinal</text>
</a>
</g>
</g>
<!-- Node3&#45;&gt;Node4 -->
<g id="edge3" class="edge">
<title>Node3&#45;&gt;Node4</title>
<path fill="none" stroke="#63b8ff" d="M259.94,-65.68C271.57,-67.03 283.62,-68.42 294.99,-69.75"/>
<polygon fill="#63b8ff" stroke="#63b8ff" points="294.32,-73.31 304.66,-70.98 295.13,-66.35 294.32,-73.31"/>
</g>
<!-- Node5 -->
<g id="node5" class="node">
<title>Node5</title>
<g id="a_node5"><a xlink:href="ar_image_proc_8c.html#ab17100ae9f8d3a2b881830f135bfffa8" target="_top" xlink:title="Initialise image processing.">
<polygon fill="white" stroke="#666666" points="394.5,-48.88 309.5,-48.88 309.5,-29.62 394.5,-29.62 394.5,-48.88"/>
<text text-anchor="middle" x="352" y="-35.38" font-family="Helvetica,sans-Serif" font-size="10.00">arImageProcInit</text>
</a>
</g>
</g>
<!-- Node3&#45;&gt;Node5 -->
<g id="edge4" class="edge">
<title>Node3&#45;&gt;Node5</title>
<path fill="none" stroke="#63b8ff" d="M259.94,-50.41C272.84,-48.83 286.26,-47.19 298.7,-45.66"/>
<polygon fill="#63b8ff" stroke="#63b8ff" points="298.85,-49.05 308.35,-44.36 298,-42.1 298.85,-49.05"/>
</g>
</g>
</svg>
