<?xml version="1.0" encoding="UTF-8" standalone="no"?>
<!DOCTYPE svg PUBLIC "-//W3C//DTD SVG 1.1//EN"
 "http://www.w3.org/Graphics/SVG/1.1/DTD/svg11.dtd">
<!-- Generated by graphviz version 2.40.1 (20161225.0304)
 -->
<!-- Title: arSetLabelingThreshMode Pages: 1 -->
<svg width="273pt" height="64pt"
 viewBox="0.00 0.00 272.77 64.00" xmlns="http://www.w3.org/2000/svg" xmlns:xlink="http://www.w3.org/1999/xlink">
<g id="graph0" class="graph" transform="scale(1 1) rotate(0) translate(4 60)">
<title>arSetLabelingThreshMode</title>
<polygon fill="#ffffff" stroke="transparent" points="-4,4 -4,-60 268.7725,-60 268.7725,4 -4,4"/>
<!-- Node27 -->
<g id="node1" class="node">
<title>Node27</title>
<polygon fill="#bfbfbf" stroke="#000000" points="0,-18.5 0,-36.5 133.8516,-36.5 133.8516,-18.5 0,-18.5"/>
<text text-anchor="middle" x="66.9258" y="-24.5" font-family="Helvetica,sans-Serif" font-size="10.00" fill="#000000">arSetLabelingThreshMode</text>
</g>
<!-- Node28 -->
<g id="node2" class="node">
<title>Node28</title>
<g id="a_node2"><a xlink:href="ar_image_proc_8c.html#a99a7b2bbb653be2ecc772ceed7159ce1" target="_top" xlink:title="Finish image processing and free memory. ">
<polygon fill="#ffffff" stroke="#000000" points="169.8516,-37.5 169.8516,-55.5 264.7725,-55.5 264.7725,-37.5 169.8516,-37.5"/>
<text text-anchor="middle" x="217.312" y="-43.5" font-family="Helvetica,sans-Serif" font-size="10.00" fill="#000000">arImageProcFinal</text>
</a>
</g>
</g>
<!-- Node27&#45;&gt;Node28 -->
<g id="edge1" class="edge">
<title>Node27&#45;&gt;Node28</title>
<path fill="none" stroke="#191970" d="M134.2014,-35.9997C142.6525,-37.0674 151.2385,-38.1522 159.5259,-39.1992"/>
<polygon fill="#191970" stroke="#191970" points="159.0978,-42.6729 169.4576,-40.454 159.9752,-35.7281 159.0978,-42.6729"/>
</g>
<!-- Node29 -->
<g id="node3" class="node">
<title>Node29</title>
<g id="a_node3"><a xlink:href="ar_image_proc_8c.html#a40df944801ad1069f667b366eba16855" target="_top" xlink:title="Initialise image processing. ">
<polygon fill="#ffffff" stroke="#000000" points="174.019,-.5 174.019,-18.5 260.605,-18.5 260.605,-.5 174.019,-.5"/>
<text text-anchor="middle" x="217.312" y="-6.5" font-family="Helvetica,sans-Serif" font-size="10.00" fill="#000000">arImageProcInit</text>
</a>
</g>
</g>
<!-- Node27&#45;&gt;Node29 -->
<g id="edge2" class="edge">
<title>Node27&#45;&gt;Node29</title>
<path fill="none" stroke="#191970" d="M134.2014,-19.4477C144.0798,-18.2653 154.1424,-17.0609 163.6971,-15.9173"/>
<polygon fill="#191970" stroke="#191970" points="164.3199,-19.3678 173.833,-14.7041 163.4879,-12.4174 164.3199,-19.3678"/>
</g>
</g>
</svg>
