<?xml version="1.0" encoding="UTF-8" standalone="no"?>
<!DOCTYPE svg PUBLIC "-//W3C//DTD SVG 1.1//EN"
 "http://www.w3.org/Graphics/SVG/1.1/DTD/svg11.dtd">
<!-- Generated by graphviz version 8.0.5 (20230430.1635)
 -->
<!-- Title: arFilterTransMat Pages: 1 -->
<svg width="231pt" height="101pt"
 viewBox="0.00 0.00 230.50 101.25" xmlns="http://www.w3.org/2000/svg" xmlns:xlink="http://www.w3.org/1999/xlink">
<g id="graph0" class="graph" transform="scale(1 1) rotate(0) translate(4 97.25)">
<title>arFilterTransMat</title>
<!-- Node1 -->
<g id="node1" class="node">
<title>Node1</title>
<g id="a_node1"><a xlink:title="Filters the supplied pose estimate transformation matrix in&#45;place.">
<polygon fill="#999999" stroke="#666666" points="87.25,-56.25 0,-56.25 0,-37 87.25,-37 87.25,-56.25"/>
<text text-anchor="middle" x="43.62" y="-42.75" font-family="Helvetica,sans-Serif" font-size="10.00">arFilterTransMat</text>
</a>
</g>
</g>
<!-- Node2 -->
<g id="node2" class="node">
<title>Node2</title>
<g id="a_node2"><a xlink:href="ar_util_8c.html#adb4a9f8d233d3b954fd85bbb3deda173" target="_top" xlink:title=" ">
<polygon fill="white" stroke="#666666" points="222.5,-93.25 123.25,-93.25 123.25,-74 222.5,-74 222.5,-93.25"/>
<text text-anchor="middle" x="172.88" y="-79.75" font-family="Helvetica,sans-Serif" font-size="10.00">arUtilMat2QuatPos</text>
</a>
</g>
</g>
<!-- Node1&#45;&gt;Node2 -->
<g id="edge1" class="edge">
<title>Node1&#45;&gt;Node2</title>
<path fill="none" stroke="#63b8ff" d="M79.4,-56.74C93.99,-60.98 111.14,-65.97 126.69,-70.49"/>
<polygon fill="#63b8ff" stroke="#63b8ff" points="125.57,-74.1 136.15,-73.53 127.52,-67.37 125.57,-74.1"/>
</g>
<!-- Node3 -->
<g id="node3" class="node">
<title>Node3</title>
<g id="a_node3"><a xlink:href="ar_util_8c.html#aa543b10d8b401ccf5626aba7dfa12e09" target="_top" xlink:title=" ">
<polygon fill="white" stroke="#666666" points="215,-56.25 130.75,-56.25 130.75,-37 215,-37 215,-56.25"/>
<text text-anchor="middle" x="172.88" y="-42.75" font-family="Helvetica,sans-Serif" font-size="10.00">arUtilQuatNorm</text>
</a>
</g>
</g>
<!-- Node1&#45;&gt;Node3 -->
<g id="edge2" class="edge">
<title>Node1&#45;&gt;Node3</title>
<path fill="none" stroke="#63b8ff" d="M87.71,-46.62C97.98,-46.62 109.06,-46.62 119.69,-46.62"/>
<polygon fill="#63b8ff" stroke="#63b8ff" points="119.56,-50.13 129.56,-46.62 119.56,-43.13 119.56,-50.13"/>
</g>
<!-- Node4 -->
<g id="node4" class="node">
<title>Node4</title>
<g id="a_node4"><a xlink:href="ar_util_8c.html#a016bf9cc45eee7cd9eae471cecc68e9a" target="_top" xlink:title=" ">
<polygon fill="white" stroke="#666666" points="222.5,-19.25 123.25,-19.25 123.25,0 222.5,0 222.5,-19.25"/>
<text text-anchor="middle" x="172.88" y="-5.75" font-family="Helvetica,sans-Serif" font-size="10.00">arUtilQuatPos2Mat</text>
</a>
</g>
</g>
<!-- Node1&#45;&gt;Node4 -->
<g id="edge3" class="edge">
<title>Node1&#45;&gt;Node4</title>
<path fill="none" stroke="#63b8ff" d="M79.4,-36.51C93.99,-32.27 111.14,-27.28 126.69,-22.76"/>
<polygon fill="#63b8ff" stroke="#63b8ff" points="127.52,-25.88 136.15,-19.72 125.57,-19.15 127.52,-25.88"/>
</g>
</g>
</svg>
