<?xml version="1.0" encoding="UTF-8" standalone="no"?>
<!DOCTYPE svg PUBLIC "-//W3C//DTD SVG 1.1//EN"
 "http://www.w3.org/Graphics/SVG/1.1/DTD/svg11.dtd">
<!-- Generated by graphviz version 8.0.5 (20230430.1635)
 -->
<!-- Title: Source/ARX/AR/include/ARX/AR/arFilterTransMat.h Pages: 1 -->
<svg width="1238pt" height="449pt"
 viewBox="0.00 0.00 1238.01 448.75" xmlns="http://www.w3.org/2000/svg" xmlns:xlink="http://www.w3.org/1999/xlink">
<g id="graph0" class="graph" transform="scale(1 1) rotate(0) translate(4 444.75)">
<title>Source/ARX/AR/include/ARX/AR/arFilterTransMat.h</title>
<!-- Node1 -->
<g id="node1" class="node">
<title>Node1</title>
<g id="a_node1"><a xlink:title="Provides filtering of transformation matrices (pose estimates).">
<polygon fill="#999999" stroke="#666666" points="537.88,-440.75 398.12,-440.75 398.12,-410.25 537.88,-410.25 537.88,-440.75"/>
<text text-anchor="start" x="406.12" y="-427.25" font-family="Helvetica,sans-Serif" font-size="10.00">Source/ARX/AR/include</text>
<text text-anchor="middle" x="468" y="-416" font-family="Helvetica,sans-Serif" font-size="10.00">/ARX/AR/arFilterTransMat.h</text>
</a>
</g>
</g>
<!-- Node2 -->
<g id="node2" class="node">
<title>Node2</title>
<g id="a_node2"><a xlink:href="ar_filter_trans_mat_8c.html" target="_top" xlink:title=" ">
<polygon fill="white" stroke="#666666" points="468.88,-374.25 323.12,-374.25 323.12,-343.75 468.88,-343.75 468.88,-374.25"/>
<text text-anchor="start" x="331.12" y="-360.75" font-family="Helvetica,sans-Serif" font-size="10.00">Source/ARX/AR/arFilterTrans</text>
<text text-anchor="middle" x="396" y="-349.5" font-family="Helvetica,sans-Serif" font-size="10.00">Mat.c</text>
</a>
</g>
</g>
<!-- Node1&#45;&gt;Node2 -->
<g id="edge1" class="edge">
<title>Node1&#45;&gt;Node2</title>
<path fill="none" stroke="#63b8ff" d="M443.74,-402.77C433.38,-393.48 421.56,-382.9 412.27,-374.58"/>
<polygon fill="#63b8ff" stroke="#63b8ff" points="440.88,-404.8 450.66,-408.86 445.55,-399.58 440.88,-404.8"/>
</g>
<!-- Node3 -->
<g id="node3" class="node">
<title>Node3</title>
<g id="a_node3"><a xlink:href="_a_r_trackable_8h.html" target="_top" xlink:title=" ">
<polygon fill="white" stroke="#666666" points="595.12,-374.25 486.88,-374.25 486.88,-343.75 595.12,-343.75 595.12,-374.25"/>
<text text-anchor="start" x="494.88" y="-360.75" font-family="Helvetica,sans-Serif" font-size="10.00">Source/ARX/include</text>
<text text-anchor="middle" x="541" y="-349.5" font-family="Helvetica,sans-Serif" font-size="10.00">/ARX/ARTrackable.h</text>
</a>
</g>
</g>
<!-- Node1&#45;&gt;Node3 -->
<g id="edge2" class="edge">
<title>Node1&#45;&gt;Node3</title>
<path fill="none" stroke="#63b8ff" d="M492.6,-402.77C503.1,-393.48 515.09,-382.9 524.5,-374.58"/>
<polygon fill="#63b8ff" stroke="#63b8ff" points="490.74,-399.62 485.56,-408.86 495.38,-404.87 490.74,-399.62"/>
</g>
<!-- Node4 -->
<g id="node4" class="node">
<title>Node4</title>
<g id="a_node4"><a xlink:href="_a_r_trackable_8cpp.html" target="_top" xlink:title=" ">
<polygon fill="white" stroke="#666666" points="182.75,-24.88 33.25,-24.88 33.25,-5.63 182.75,-5.63 182.75,-24.88"/>
<text text-anchor="middle" x="108" y="-11.38" font-family="Helvetica,sans-Serif" font-size="10.00">Source/ARX/ARTrackable.cpp</text>
</a>
</g>
</g>
<!-- Node3&#45;&gt;Node4 -->
<g id="edge3" class="edge">
<title>Node3&#45;&gt;Node4</title>
<path fill="none" stroke="#63b8ff" d="M475.92,-343.63C348.96,-325.19 0,-322.6 0,-215.75 0,-215.75 0,-215.75 0,-147.25 0,-89.77 62.66,-43.85 92.53,-25.23"/>
<polygon fill="#63b8ff" stroke="#63b8ff" points="475.01,-347.19 485.44,-345.28 476.1,-340.27 475.01,-347.19"/>
</g>
<!-- Node5 -->
<g id="node5" class="node">
<title>Node5</title>
<g id="a_node5"><a xlink:href="_a_r_controller_8h.html" target="_top" xlink:title=" ">
<polygon fill="white" stroke="#666666" points="772.38,-97 665.62,-97 665.62,-66.5 772.38,-66.5 772.38,-97"/>
<text text-anchor="start" x="673.62" y="-83.5" font-family="Helvetica,sans-Serif" font-size="10.00">Source/ARX/include</text>
<text text-anchor="middle" x="719" y="-72.25" font-family="Helvetica,sans-Serif" font-size="10.00">/ARX/ARController.h</text>
</a>
</g>
</g>
<!-- Node3&#45;&gt;Node5 -->
<g id="edge4" class="edge">
<title>Node3&#45;&gt;Node5</title>
<path fill="none" stroke="#63b8ff" d="M606.36,-357.22C764.37,-353.66 1158.89,-334.32 1224,-230 1231.18,-218.5 1232.44,-210.11 1224,-199.5 1167.92,-128.98 890.58,-97.35 772.44,-86.92"/>
<polygon fill="#63b8ff" stroke="#63b8ff" points="606.32,-353.74 596.4,-357.44 606.47,-360.73 606.32,-353.74"/>
</g>
<!-- Node11 -->
<g id="node11" class="node">
<title>Node11</title>
<g id="a_node11"><a xlink:href="_a_r_trackable2d_8h.html" target="_top" xlink:title=" ">
<polygon fill="white" stroke="#666666" points="374.38,-302.12 255.62,-302.12 255.62,-271.62 374.38,-271.62 374.38,-302.12"/>
<text text-anchor="start" x="263.62" y="-288.62" font-family="Helvetica,sans-Serif" font-size="10.00">Source/ARX/include</text>
<text text-anchor="middle" x="315" y="-277.38" font-family="Helvetica,sans-Serif" font-size="10.00">/ARX/ARTrackable2d.h</text>
</a>
</g>
</g>
<!-- Node3&#45;&gt;Node11 -->
<g id="edge11" class="edge">
<title>Node3&#45;&gt;Node11</title>
<path fill="none" stroke="#63b8ff" d="M483.35,-340.11C445.85,-328.48 397.56,-313.49 362.31,-302.56"/>
<polygon fill="#63b8ff" stroke="#63b8ff" points="482.03,-343.68 492.62,-343.3 484.11,-336.99 482.03,-343.68"/>
</g>
<!-- Node13 -->
<g id="node13" class="node">
<title>Node13</title>
<g id="a_node13"><a xlink:href="_a_r_trackable_multi_square_8h.html" target="_top" xlink:title=" ">
<polygon fill="white" stroke="#666666" points="188,-230 28,-230 28,-199.5 188,-199.5 188,-230"/>
<text text-anchor="start" x="36" y="-216.5" font-family="Helvetica,sans-Serif" font-size="10.00">Source/ARX/include</text>
<text text-anchor="middle" x="108" y="-205.25" font-family="Helvetica,sans-Serif" font-size="10.00">/ARX/ARTrackableMultiSquare.h</text>
</a>
</g>
</g>
<!-- Node3&#45;&gt;Node13 -->
<g id="edge13" class="edge">
<title>Node3&#45;&gt;Node13</title>
<path fill="none" stroke="#63b8ff" d="M475.66,-343.44C373.74,-325.61 340.67,-344.04 247,-307.75 198.43,-288.93 149.44,-251.09 124.64,-230.29"/>
<polygon fill="#63b8ff" stroke="#63b8ff" points="474.94,-347.05 485.41,-345.41 476.21,-340.17 474.94,-347.05"/>
</g>
<!-- Node16 -->
<g id="node16" class="node">
<title>Node16</title>
<g id="a_node16"><a xlink:href="_a_r_trackable_multi_square_auto_8h.html" target="_top" xlink:title=" ">
<polygon fill="white" stroke="#666666" points="812.88,-307.75 661.12,-307.75 661.12,-266 812.88,-266 812.88,-307.75"/>
<text text-anchor="start" x="669.12" y="-294.25" font-family="Helvetica,sans-Serif" font-size="10.00">Source/ARX/include</text>
<text text-anchor="start" x="669.12" y="-283" font-family="Helvetica,sans-Serif" font-size="10.00">/ARX/ARTrackableMultiSquare</text>
<text text-anchor="middle" x="737" y="-271.75" font-family="Helvetica,sans-Serif" font-size="10.00">Auto.h</text>
</a>
</g>
</g>
<!-- Node3&#45;&gt;Node16 -->
<g id="edge20" class="edge">
<title>Node3&#45;&gt;Node16</title>
<path fill="none" stroke="#63b8ff" d="M592.13,-339.71C619.2,-330.02 652.51,-318.11 680.36,-308.14"/>
<polygon fill="#63b8ff" stroke="#63b8ff" points="591.32,-336.64 583.09,-343.3 593.68,-343.23 591.32,-336.64"/>
</g>
<!-- Node18 -->
<g id="node18" class="node">
<title>Node18</title>
<g id="a_node18"><a xlink:href="_a_r_trackable_n_f_t_8h.html" target="_top" xlink:title=" ">
<polygon fill="white" stroke="#666666" points="549.12,-302.12 422.88,-302.12 422.88,-271.62 549.12,-271.62 549.12,-302.12"/>
<text text-anchor="start" x="430.88" y="-288.62" font-family="Helvetica,sans-Serif" font-size="10.00">Source/ARX/include</text>
<text text-anchor="middle" x="486" y="-277.38" font-family="Helvetica,sans-Serif" font-size="10.00">/ARX/ARTrackableNFT.h</text>
</a>
</g>
</g>
<!-- Node3&#45;&gt;Node18 -->
<g id="edge23" class="edge">
<title>Node3&#45;&gt;Node18</title>
<path fill="none" stroke="#63b8ff" d="M522.93,-334.96C514.51,-324.23 504.75,-311.78 497.38,-302.39"/>
<polygon fill="#63b8ff" stroke="#63b8ff" points="520.68,-336.76 529.6,-342.47 526.19,-332.44 520.68,-336.76"/>
</g>
<!-- Node20 -->
<g id="node20" class="node">
<title>Node20</title>
<g id="a_node20"><a xlink:href="_a_r_trackable_square_8h.html" target="_top" xlink:title=" ">
<polygon fill="white" stroke="#666666" points="708.5,-230 569.5,-230 569.5,-199.5 708.5,-199.5 708.5,-230"/>
<text text-anchor="start" x="577.5" y="-216.5" font-family="Helvetica,sans-Serif" font-size="10.00">Source/ARX/include</text>
<text text-anchor="middle" x="639" y="-205.25" font-family="Helvetica,sans-Serif" font-size="10.00">/ARX/ARTrackableSquare.h</text>
</a>
</g>
</g>
<!-- Node3&#45;&gt;Node20 -->
<g id="edge25" class="edge">
<title>Node3&#45;&gt;Node20</title>
<path fill="none" stroke="#63b8ff" d="M557.22,-334.45C577.67,-304.77 612.19,-254.67 629.08,-230.15"/>
<polygon fill="#63b8ff" stroke="#63b8ff" points="553.91,-332.09 551.12,-342.31 559.67,-336.06 553.91,-332.09"/>
</g>
<!-- Node21 -->
<g id="node21" class="node">
<title>Node21</title>
<g id="a_node21"><a xlink:href="_a_r_tracker_8h.html" target="_top" xlink:title=" ">
<polygon fill="white" stroke="#666666" points="1056.25,-302.12 951.75,-302.12 951.75,-271.62 1056.25,-271.62 1056.25,-302.12"/>
<text text-anchor="start" x="959.75" y="-288.62" font-family="Helvetica,sans-Serif" font-size="10.00">Source/ARX/include</text>
<text text-anchor="middle" x="1004" y="-277.38" font-family="Helvetica,sans-Serif" font-size="10.00">/ARX/ARTracker.h</text>
</a>
</g>
</g>
<!-- Node3&#45;&gt;Node21 -->
<g id="edge30" class="edge">
<title>Node3&#45;&gt;Node21</title>
<path fill="none" stroke="#63b8ff" d="M606.1,-348.14C698.65,-334.12 866.44,-308.71 951.51,-295.82"/>
<polygon fill="#63b8ff" stroke="#63b8ff" points="605.84,-344.79 596.47,-349.75 606.88,-351.71 605.84,-344.79"/>
</g>
<!-- Node5&#45;&gt;Node4 -->
<g id="edge6" class="edge">
<title>Node5&#45;&gt;Node4</title>
<path fill="none" stroke="#63b8ff" d="M654.33,-66.41C449.58,-36.28 393.78,-55.39 192,-30.5 180.7,-29.11 168.59,-27.26 157.19,-25.36"/>
<polygon fill="#63b8ff" stroke="#63b8ff" points="653.73,-70.01 664.14,-68.03 654.77,-63.09 653.73,-70.01"/>
</g>
<!-- Node6 -->
<g id="node6" class="node">
<title>Node6</title>
<g id="a_node6"><a xlink:href="_a_r_controller_8cpp.html" target="_top" xlink:title=" ">
<polygon fill="white" stroke="#666666" points="717,-24.88 569,-24.88 569,-5.63 717,-5.63 717,-24.88"/>
<text text-anchor="middle" x="643" y="-11.38" font-family="Helvetica,sans-Serif" font-size="10.00">Source/ARX/ARController.cpp</text>
</a>
</g>
</g>
<!-- Node5&#45;&gt;Node6 -->
<g id="edge5" class="edge">
<title>Node5&#45;&gt;Node6</title>
<path fill="none" stroke="#63b8ff" d="M693.61,-59.2C679.89,-47.56 663.7,-33.82 653.4,-25.07"/>
<polygon fill="#63b8ff" stroke="#63b8ff" points="690.87,-62.31 700.75,-66.11 695.39,-56.97 690.87,-62.31"/>
</g>
<!-- Node7 -->
<g id="node7" class="node">
<title>Node7</title>
<g id="a_node7"><a xlink:href="_a_r_trackable_multi_square_8cpp.html" target="_top" xlink:title=" ">
<polygon fill="white" stroke="#666666" points="352.88,-30.5 201.12,-30.5 201.12,0 352.88,0 352.88,-30.5"/>
<text text-anchor="start" x="209.12" y="-17" font-family="Helvetica,sans-Serif" font-size="10.00">Source/ARX/ARTrackableMulti</text>
<text text-anchor="middle" x="277" y="-5.75" font-family="Helvetica,sans-Serif" font-size="10.00">Square.cpp</text>
</a>
</g>
</g>
<!-- Node5&#45;&gt;Node7 -->
<g id="edge7" class="edge">
<title>Node5&#45;&gt;Node7</title>
<path fill="none" stroke="#63b8ff" d="M654.67,-66.39C524.44,-44.22 488.85,-48.89 362,-30.5 359.04,-30.07 356.02,-29.62 352.97,-29.16"/>
<polygon fill="#63b8ff" stroke="#63b8ff" points="654.01,-70 664.46,-68.25 655.2,-63.11 654.01,-70"/>
</g>
<!-- Node8 -->
<g id="node8" class="node">
<title>Node8</title>
<g id="a_node8"><a xlink:href="_a_r_trackable_square_8cpp.html" target="_top" xlink:title=" ">
<polygon fill="white" stroke="#666666" points="551.12,-24.88 370.88,-24.88 370.88,-5.63 551.12,-5.63 551.12,-24.88"/>
<text text-anchor="middle" x="461" y="-11.38" font-family="Helvetica,sans-Serif" font-size="10.00">Source/ARX/ARTrackableSquare.cpp</text>
</a>
</g>
</g>
<!-- Node5&#45;&gt;Node8 -->
<g id="edge8" class="edge">
<title>Node5&#45;&gt;Node8</title>
<path fill="none" stroke="#63b8ff" d="M654.59,-64.65C604.91,-52.23 538.01,-35.5 497.27,-25.32"/>
<polygon fill="#63b8ff" stroke="#63b8ff" points="653.68,-68.28 664.23,-67.31 655.38,-61.49 653.68,-68.28"/>
</g>
<!-- Node9 -->
<g id="node9" class="node">
<title>Node9</title>
<g id="a_node9"><a xlink:href="_a_r_video_source_8cpp.html" target="_top" xlink:title=" ">
<polygon fill="white" stroke="#666666" points="897.12,-24.88 734.88,-24.88 734.88,-5.63 897.12,-5.63 897.12,-24.88"/>
<text text-anchor="middle" x="816" y="-11.38" font-family="Helvetica,sans-Serif" font-size="10.00">Source/ARX/ARVideoSource.cpp</text>
</a>
</g>
</g>
<!-- Node5&#45;&gt;Node9 -->
<g id="edge9" class="edge">
<title>Node5&#45;&gt;Node9</title>
<path fill="none" stroke="#63b8ff" d="M749.88,-60.22C767.57,-48.45 788.9,-34.27 802.45,-25.26"/>
<polygon fill="#63b8ff" stroke="#63b8ff" points="748.4,-57.66 742.01,-66.11 752.28,-63.49 748.4,-57.66"/>
</g>
<!-- Node10 -->
<g id="node10" class="node">
<title>Node10</title>
<g id="a_node10"><a xlink:href="_a_r_x__c_8cpp.html" target="_top" xlink:title=" ">
<polygon fill="white" stroke="#666666" points="1039,-24.88 915,-24.88 915,-5.63 1039,-5.63 1039,-24.88"/>
<text text-anchor="middle" x="977" y="-11.38" font-family="Helvetica,sans-Serif" font-size="10.00">Source/ARX/ARX_c.cpp</text>
</a>
</g>
</g>
<!-- Node5&#45;&gt;Node10 -->
<g id="edge10" class="edge">
<title>Node5&#45;&gt;Node10</title>
<path fill="none" stroke="#63b8ff" d="M783.41,-64.65C833.09,-52.23 899.99,-35.5 940.73,-25.32"/>
<polygon fill="#63b8ff" stroke="#63b8ff" points="782.62,-61.49 773.77,-67.31 784.32,-68.28 782.62,-61.49"/>
</g>
<!-- Node12 -->
<g id="node12" class="node">
<title>Node12</title>
<g id="a_node12"><a xlink:href="_a_r_trackable2d_8cpp.html" target="_top" xlink:title=" ">
<polygon fill="white" stroke="#666666" points="366,-224.38 206,-224.38 206,-205.12 366,-205.12 366,-224.38"/>
<text text-anchor="middle" x="286" y="-210.88" font-family="Helvetica,sans-Serif" font-size="10.00">Source/ARX/ARTrackable2d.cpp</text>
</a>
</g>
</g>
<!-- Node11&#45;&gt;Node12 -->
<g id="edge12" class="edge">
<title>Node11&#45;&gt;Node12</title>
<path fill="none" stroke="#63b8ff" d="M304.82,-261.26C299.54,-248.49 293.41,-233.67 289.62,-224.51"/>
<polygon fill="#63b8ff" stroke="#63b8ff" points="301.94,-262.44 308.99,-270.35 308.4,-259.77 301.94,-262.44"/>
</g>
<!-- Node13&#45;&gt;Node4 -->
<g id="edge14" class="edge">
<title>Node13&#45;&gt;Node4</title>
<path fill="none" stroke="#63b8ff" d="M108,-188.46C108,-143.9 108,-53.43 108,-25"/>
<polygon fill="#63b8ff" stroke="#63b8ff" points="104.5,-188.23 108,-198.23 111.5,-188.23 104.5,-188.23"/>
</g>
<!-- Node13&#45;&gt;Node7 -->
<g id="edge15" class="edge">
<title>Node13&#45;&gt;Node7</title>
<path fill="none" stroke="#63b8ff" d="M127.51,-190.95C162.6,-149.94 235.42,-64.84 264.55,-30.79"/>
<polygon fill="#63b8ff" stroke="#63b8ff" points="124.27,-188.35 120.43,-198.23 129.59,-192.9 124.27,-188.35"/>
</g>
<!-- Node14 -->
<g id="node14" class="node">
<title>Node14</title>
<g id="a_node14"><a xlink:href="_a_r_tracker_square_8cpp.html" target="_top" xlink:title=" ">
<polygon fill="white" stroke="#666666" points="647.25,-91.38 476.75,-91.38 476.75,-72.12 647.25,-72.12 647.25,-91.38"/>
<text text-anchor="middle" x="562" y="-77.88" font-family="Helvetica,sans-Serif" font-size="10.00">Source/ARX/ARTrackerSquare.cpp</text>
</a>
</g>
</g>
<!-- Node13&#45;&gt;Node14 -->
<g id="edge16" class="edge">
<title>Node13&#45;&gt;Node14</title>
<path fill="none" stroke="#63b8ff" d="M169.1,-196.12C267.08,-167.85 455.89,-113.37 530.53,-91.83"/>
<polygon fill="#63b8ff" stroke="#63b8ff" points="168.4,-192.97 159.76,-199.1 170.34,-199.69 168.4,-192.97"/>
</g>
<!-- Node15 -->
<g id="node15" class="node">
<title>Node15</title>
<g id="a_node15"><a xlink:href="_a_r_tracker_square_8h.html" target="_top" xlink:title=" ">
<polygon fill="white" stroke="#666666" points="708.62,-163.5 579.38,-163.5 579.38,-133 708.62,-133 708.62,-163.5"/>
<text text-anchor="start" x="587.38" y="-150" font-family="Helvetica,sans-Serif" font-size="10.00">Source/ARX/include</text>
<text text-anchor="middle" x="644" y="-138.75" font-family="Helvetica,sans-Serif" font-size="10.00">/ARX/ARTrackerSquare.h</text>
</a>
</g>
</g>
<!-- Node13&#45;&gt;Node15 -->
<g id="edge17" class="edge">
<title>Node13&#45;&gt;Node15</title>
<path fill="none" stroke="#63b8ff" d="M198.64,-199.32C340.35,-180.22 494.15,-164.09 579.11,-155.58"/>
<polygon fill="#63b8ff" stroke="#63b8ff" points="198.47,-195.94 189.03,-200.76 199.41,-202.88 198.47,-195.94"/>
</g>
<!-- Node15&#45;&gt;Node5 -->
<g id="edge19" class="edge">
<title>Node15&#45;&gt;Node5</title>
<path fill="none" stroke="#63b8ff" d="M669.27,-125.52C680.06,-116.23 692.38,-105.65 702.05,-97.33"/>
<polygon fill="#63b8ff" stroke="#63b8ff" points="667.32,-123.44 662.02,-132.61 671.88,-128.75 667.32,-123.44"/>
</g>
<!-- Node15&#45;&gt;Node14 -->
<g id="edge18" class="edge">
<title>Node15&#45;&gt;Node14</title>
<path fill="none" stroke="#63b8ff" d="M617.02,-126.03C602.13,-114.32 584.44,-100.4 573.22,-91.57"/>
<polygon fill="#63b8ff" stroke="#63b8ff" points="614.37,-129.18 624.39,-132.61 618.7,-123.68 614.37,-129.18"/>
</g>
<!-- Node16&#45;&gt;Node14 -->
<g id="edge22" class="edge">
<title>Node16&#45;&gt;Node14</title>
<path fill="none" stroke="#63b8ff" d="M742.12,-255.01C745.89,-221.17 746.27,-167.15 718,-133 703.8,-115.85 648.66,-100.89 607.95,-91.85"/>
<polygon fill="#63b8ff" stroke="#63b8ff" points="738.55,-254.29 740.74,-264.66 745.5,-255.19 738.55,-254.29"/>
</g>
<!-- Node17 -->
<g id="node17" class="node">
<title>Node17</title>
<g id="a_node17"><a xlink:href="_a_r_trackable_multi_square_auto_8cpp.html" target="_top" xlink:title=" ">
<polygon fill="white" stroke="#666666" points="916.88,-230 765.12,-230 765.12,-199.5 916.88,-199.5 916.88,-230"/>
<text text-anchor="start" x="773.12" y="-216.5" font-family="Helvetica,sans-Serif" font-size="10.00">Source/ARX/ARTrackableMulti</text>
<text text-anchor="middle" x="841" y="-205.25" font-family="Helvetica,sans-Serif" font-size="10.00">SquareAuto.cpp</text>
</a>
</g>
</g>
<!-- Node16&#45;&gt;Node17 -->
<g id="edge21" class="edge">
<title>Node16&#45;&gt;Node17</title>
<path fill="none" stroke="#63b8ff" d="M775.96,-259.6C790.6,-249.73 806.72,-238.87 819.24,-230.42"/>
<polygon fill="#63b8ff" stroke="#63b8ff" points="774.42,-257.1 768.08,-265.59 778.33,-262.9 774.42,-257.1"/>
</g>
<!-- Node19 -->
<g id="node19" class="node">
<title>Node19</title>
<g id="a_node19"><a xlink:href="_a_r_trackable_n_f_t_8cpp.html" target="_top" xlink:title=" ">
<polygon fill="white" stroke="#666666" points="551.75,-224.38 384.25,-224.38 384.25,-205.12 551.75,-205.12 551.75,-224.38"/>
<text text-anchor="middle" x="468" y="-210.88" font-family="Helvetica,sans-Serif" font-size="10.00">Source/ARX/ARTrackableNFT.cpp</text>
</a>
</g>
</g>
<!-- Node18&#45;&gt;Node19 -->
<g id="edge24" class="edge">
<title>Node18&#45;&gt;Node19</title>
<path fill="none" stroke="#63b8ff" d="M479.58,-260.88C476.33,-248.19 472.58,-233.58 470.25,-224.51"/>
<polygon fill="#63b8ff" stroke="#63b8ff" points="476.39,-261.53 482.27,-270.35 483.17,-259.79 476.39,-261.53"/>
</g>
<!-- Node20&#45;&gt;Node4 -->
<g id="edge26" class="edge">
<title>Node20&#45;&gt;Node4</title>
<path fill="none" stroke="#63b8ff" d="M584.87,-195.61C557.29,-186.24 523.27,-174.5 493,-163.5 354.77,-113.3 190.38,-48.81 130.9,-25.32"/>
<polygon fill="#63b8ff" stroke="#63b8ff" points="583.51,-199.18 594.1,-199.07 585.75,-192.55 583.51,-199.18"/>
</g>
<!-- Node20&#45;&gt;Node8 -->
<g id="edge27" class="edge">
<title>Node20&#45;&gt;Node8</title>
<path fill="none" stroke="#63b8ff" d="M588.96,-194.64C548.51,-176.27 494.14,-144.27 468,-97 455.06,-73.6 457.47,-40.45 459.58,-24.92"/>
<polygon fill="#63b8ff" stroke="#63b8ff" points="587.36,-198.2 597.92,-199.02 590.17,-191.79 587.36,-198.2"/>
</g>
<!-- Node20&#45;&gt;Node14 -->
<g id="edge28" class="edge">
<title>Node20&#45;&gt;Node14</title>
<path fill="none" stroke="#63b8ff" d="M599.36,-193.35C588.04,-185.55 576.91,-175.58 570,-163.5 556.7,-140.27 558.73,-107.04 560.67,-91.45"/>
<polygon fill="#63b8ff" stroke="#63b8ff" points="597.09,-196.69 607.4,-199.13 600.86,-190.79 597.09,-196.69"/>
</g>
<!-- Node20&#45;&gt;Node15 -->
<g id="edge29" class="edge">
<title>Node20&#45;&gt;Node15</title>
<path fill="none" stroke="#63b8ff" d="M640.97,-188.38C641.61,-180.05 642.31,-171.08 642.87,-163.83"/>
<polygon fill="#63b8ff" stroke="#63b8ff" points="637.42,-187.87 640.13,-198.11 644.4,-188.41 637.42,-187.87"/>
</g>
<!-- Node22 -->
<g id="node22" class="node">
<title>Node22</title>
<g id="a_node22"><a xlink:href="_a_r_tracker_8cpp.html" target="_top" xlink:title=" ">
<polygon fill="white" stroke="#666666" points="1073.5,-224.38 934.5,-224.38 934.5,-205.12 1073.5,-205.12 1073.5,-224.38"/>
<text text-anchor="middle" x="1004" y="-210.88" font-family="Helvetica,sans-Serif" font-size="10.00">Source/ARX/ARTracker.cpp</text>
</a>
</g>
</g>
<!-- Node21&#45;&gt;Node22 -->
<g id="edge31" class="edge">
<title>Node21&#45;&gt;Node22</title>
<path fill="none" stroke="#63b8ff" d="M1004,-260.49C1004,-247.9 1004,-233.49 1004,-224.51"/>
<polygon fill="#63b8ff" stroke="#63b8ff" points="1000.5,-260.35 1004,-270.35 1007.5,-260.35 1000.5,-260.35"/>
</g>
<!-- Node23 -->
<g id="node23" class="node">
<title>Node23</title>
<g id="a_node23"><a xlink:href="_a_r_tracker_video_8h.html" target="_top" xlink:title=" ">
<polygon fill="white" stroke="#666666" points="1214.62,-230 1091.38,-230 1091.38,-199.5 1214.62,-199.5 1214.62,-230"/>
<text text-anchor="start" x="1099.38" y="-216.5" font-family="Helvetica,sans-Serif" font-size="10.00">Source/ARX/include</text>
<text text-anchor="middle" x="1153" y="-205.25" font-family="Helvetica,sans-Serif" font-size="10.00">/ARX/ARTrackerVideo.h</text>
</a>
</g>
</g>
<!-- Node21&#45;&gt;Node23 -->
<g id="edge32" class="edge">
<title>Node21&#45;&gt;Node23</title>
<path fill="none" stroke="#63b8ff" d="M1044.89,-266.63C1069.17,-255.21 1099.47,-240.95 1121.81,-230.43"/>
<polygon fill="#63b8ff" stroke="#63b8ff" points="1043.79,-263.75 1036.24,-271.17 1046.77,-270.08 1043.79,-263.75"/>
</g>
<!-- Node23&#45;&gt;Node15 -->
<g id="edge33" class="edge">
<title>Node23&#45;&gt;Node15</title>
<path fill="none" stroke="#63b8ff" d="M1080.49,-199.18C942.92,-177.72 792.66,-162.59 708.95,-154.91"/>
<polygon fill="#63b8ff" stroke="#63b8ff" points="1079.79,-202.77 1090.22,-200.87 1080.88,-195.86 1079.79,-202.77"/>
</g>
</g>
</svg>
