<?xml version="1.0" encoding="UTF-8" standalone="no"?>
<!DOCTYPE svg PUBLIC "-//W3C//DTD SVG 1.1//EN"
 "http://www.w3.org/Graphics/SVG/1.1/DTD/svg11.dtd">
<!-- Generated by graphviz version 2.40.1 (20161225.0304)
 -->
<!-- Title: Source/ARX/AR/arGetTransMat.c Pages: 1 -->
<svg width="960pt" height="202pt"
 viewBox="0.00 0.00 960.19 202.00" xmlns="http://www.w3.org/2000/svg" xmlns:xlink="http://www.w3.org/1999/xlink">
<g id="graph0" class="graph" transform="scale(1 1) rotate(0) translate(4 198)">
<title>Source/ARX/AR/arGetTransMat.c</title>
<polygon fill="#ffffff" stroke="transparent" points="-4,4 -4,-198 956.1895,-198 956.1895,4 -4,4"/>
<!-- Node0 -->
<g id="node1" class="node">
<title>Node0</title>
<polygon fill="#bfbfbf" stroke="#000000" points="254.0649,-165.5 254.0649,-193.5 394.7427,-193.5 394.7427,-165.5 254.0649,-165.5"/>
<text text-anchor="start" x="262.0649" y="-181.5" font-family="Helvetica,sans-Serif" font-size="10.00" fill="#000000">Source/ARX/AR/arGetTrans</text>
<text text-anchor="middle" x="324.4038" y="-171.5" font-family="Helvetica,sans-Serif" font-size="10.00" fill="#000000">Mat.c</text>
</g>
<!-- Node1 -->
<g id="node2" class="node">
<title>Node1</title>
<g id="a_node2"><a xlink:href="ar_8h.html" target="_top" xlink:title="artoolkitX core routines. ">
<polygon fill="#ffffff" stroke="#000000" points="468.0566,-110.5 468.0566,-128.5 540.751,-128.5 540.751,-110.5 468.0566,-110.5"/>
<text text-anchor="middle" x="504.4038" y="-116.5" font-family="Helvetica,sans-Serif" font-size="10.00" fill="#000000">ARX/AR/ar.h</text>
</a>
</g>
</g>
<!-- Node0&#45;&gt;Node1 -->
<g id="edge1" class="edge">
<title>Node0&#45;&gt;Node1</title>
<path fill="none" stroke="#191970" d="M366.6058,-165.4327C397.187,-155.2389 438.1404,-141.5878 467.438,-131.822"/>
<polygon fill="#191970" stroke="#191970" points="468.8986,-135.0245 477.2786,-128.5417 466.685,-128.3837 468.8986,-135.0245"/>
</g>
<!-- Node14 -->
<g id="node15" class="node">
<title>Node14</title>
<g id="a_node15"><a xlink:href="icp_8h.html" target="_top" xlink:title="ARX/AR/icp.h">
<polygon fill="#ffffff" stroke="#000000" points="66.8374,-55.5 66.8374,-73.5 143.9702,-73.5 143.9702,-55.5 66.8374,-55.5"/>
<text text-anchor="middle" x="105.4038" y="-61.5" font-family="Helvetica,sans-Serif" font-size="10.00" fill="#000000">ARX/AR/icp.h</text>
</a>
</g>
</g>
<!-- Node0&#45;&gt;Node14 -->
<g id="edge25" class="edge">
<title>Node0&#45;&gt;Node14</title>
<path fill="none" stroke="#191970" d="M297.5501,-165.3987C255.2707,-143.1972 173.6906,-100.3584 131.7366,-78.3277"/>
<polygon fill="#191970" stroke="#191970" points="133.172,-75.1283 122.6912,-73.5779 129.9176,-81.3258 133.172,-75.1283"/>
</g>
<!-- Node2 -->
<g id="node3" class="node">
<title>Node2</title>
<polygon fill="#ffffff" stroke="#bfbfbf" points="116.6724,-.5 116.6724,-18.5 162.1353,-18.5 162.1353,-.5 116.6724,-.5"/>
<text text-anchor="middle" x="139.4038" y="-6.5" font-family="Helvetica,sans-Serif" font-size="10.00" fill="#000000">stdio.h</text>
</g>
<!-- Node1&#45;&gt;Node2 -->
<g id="edge2" class="edge">
<title>Node1&#45;&gt;Node2</title>
<path fill="none" stroke="#191970" d="M468.0347,-117.5331C395.9817,-113.1044 238.0295,-100.5922 191.4038,-74 172.5449,-63.2441 157.8477,-42.7496 148.9607,-27.7392"/>
<polygon fill="#191970" stroke="#191970" points="151.9107,-25.8436 143.9743,-18.8247 145.8015,-29.2608 151.9107,-25.8436"/>
</g>
<!-- Node3 -->
<g id="node4" class="node">
<title>Node3</title>
<polygon fill="#ffffff" stroke="#bfbfbf" points="454.5615,-.5 454.5615,-18.5 502.2461,-18.5 502.2461,-.5 454.5615,-.5"/>
<text text-anchor="middle" x="478.4038" y="-6.5" font-family="Helvetica,sans-Serif" font-size="10.00" fill="#000000">stdlib.h</text>
</g>
<!-- Node1&#45;&gt;Node3 -->
<g id="edge3" class="edge">
<title>Node1&#45;&gt;Node3</title>
<path fill="none" stroke="#191970" d="M467.7011,-112.8881C445.5654,-106.806 419.0819,-95.3399 405.4038,-74 391.5659,-52.4107 419.7302,-33.7683 444.9955,-22.1557"/>
<polygon fill="#191970" stroke="#191970" points="446.6617,-25.2482 454.4431,-18.0578 443.8762,-18.8262 446.6617,-25.2482"/>
</g>
<!-- Node4 -->
<g id="node5" class="node">
<title>Node4</title>
<polygon fill="#ffffff" stroke="#bfbfbf" points="200.2832,-55.5 200.2832,-73.5 248.5244,-73.5 248.5244,-55.5 200.2832,-55.5"/>
<text text-anchor="middle" x="224.4038" y="-61.5" font-family="Helvetica,sans-Serif" font-size="10.00" fill="#000000">stdint.h</text>
</g>
<!-- Node1&#45;&gt;Node4 -->
<g id="edge4" class="edge">
<title>Node1&#45;&gt;Node4</title>
<path fill="none" stroke="#191970" d="M467.7606,-113.9037C421.3122,-106.558 338.6075,-92.6403 259.0318,-74.2134"/>
<polygon fill="#191970" stroke="#191970" points="259.3767,-70.6994 248.8418,-71.8244 257.7789,-77.5146 259.3767,-70.6994"/>
</g>
<!-- Node5 -->
<g id="node6" class="node">
<title>Node5</title>
<polygon fill="#ffffff" stroke="#bfbfbf" points="520.0073,-.5 520.0073,-18.5 568.8003,-18.5 568.8003,-.5 520.0073,-.5"/>
<text text-anchor="middle" x="544.4038" y="-6.5" font-family="Helvetica,sans-Serif" font-size="10.00" fill="#000000">string.h</text>
</g>
<!-- Node1&#45;&gt;Node5 -->
<g id="edge5" class="edge">
<title>Node1&#45;&gt;Node5</title>
<path fill="none" stroke="#191970" d="M509.1543,-110.2587C513.7025,-101.1837 520.5686,-86.8676 525.4038,-74 531.0498,-58.9745 536.112,-41.4823 539.5888,-28.5078"/>
<polygon fill="#191970" stroke="#191970" points="542.9771,-29.3848 542.1143,-18.8252 536.2037,-27.618 542.9771,-29.3848"/>
</g>
<!-- Node6 -->
<g id="node7" class="node">
<title>Node6</title>
<polygon fill="#ffffff" stroke="#bfbfbf" points="735.8867,-.5 735.8867,-18.5 826.9209,-18.5 826.9209,-.5 735.8867,-.5"/>
<text text-anchor="middle" x="781.4038" y="-6.5" font-family="Helvetica,sans-Serif" font-size="10.00" fill="#000000">ARX/AR/config.h</text>
</g>
<!-- Node1&#45;&gt;Node6 -->
<g id="edge6" class="edge">
<title>Node1&#45;&gt;Node6</title>
<path fill="none" stroke="#191970" d="M540.9166,-116.774C618.835,-110.5862 795.7726,-94.4175 813.4038,-74 825.6969,-59.7642 812.4839,-39.9801 799.5013,-26.0881"/>
<polygon fill="#191970" stroke="#191970" points="801.6278,-23.2653 792.0785,-18.676 796.6816,-28.2187 801.6278,-23.2653"/>
</g>
<!-- Node7 -->
<g id="node8" class="node">
<title>Node7</title>
<g id="a_node8"><a xlink:href="ar_config_8h.html" target="_top" xlink:title="ARX/AR/arConfig.h">
<polygon fill="#ffffff" stroke="#000000" points="414.3301,-55.5 414.3301,-73.5 516.4775,-73.5 516.4775,-55.5 414.3301,-55.5"/>
<text text-anchor="middle" x="465.4038" y="-61.5" font-family="Helvetica,sans-Serif" font-size="10.00" fill="#000000">ARX/AR/arConfig.h</text>
</a>
</g>
</g>
<!-- Node1&#45;&gt;Node7 -->
<g id="edge7" class="edge">
<title>Node1&#45;&gt;Node7</title>
<path fill="none" stroke="#191970" d="M497.9638,-110.4179C492.5205,-102.7415 484.5647,-91.5217 477.8799,-82.0945"/>
<polygon fill="#191970" stroke="#191970" points="480.6232,-79.9123 471.9838,-73.7795 474.913,-83.9613 480.6232,-79.9123"/>
</g>
<!-- Node8 -->
<g id="node9" class="node">
<title>Node8</title>
<g id="a_node9"><a xlink:href="log_8h.html" target="_top" xlink:title="Logging utilities. ">
<polygon fill="#ffffff" stroke="#000000" points="266.335,-55.5 266.335,-73.5 358.4727,-73.5 358.4727,-55.5 266.335,-55.5"/>
<text text-anchor="middle" x="312.4038" y="-61.5" font-family="Helvetica,sans-Serif" font-size="10.00" fill="#000000">ARX/ARUtil/log.h</text>
</a>
</g>
</g>
<!-- Node1&#45;&gt;Node8 -->
<g id="edge8" class="edge">
<title>Node1&#45;&gt;Node8</title>
<path fill="none" stroke="#191970" d="M472.6989,-110.4179C440.0842,-101.0751 389.1459,-86.4834 353.4673,-76.263"/>
<polygon fill="#191970" stroke="#191970" points="354.4139,-72.8934 343.8367,-73.5042 352.4862,-79.6228 354.4139,-72.8934"/>
</g>
<!-- Node12 -->
<g id="node13" class="node">
<title>Node12</title>
<g id="a_node13"><a xlink:href="matrix_8h.html" target="_top" xlink:title="ARX/AR/matrix.h">
<polygon fill="#ffffff" stroke="#000000" points="860.6182,-55.5 860.6182,-73.5 952.1895,-73.5 952.1895,-55.5 860.6182,-55.5"/>
<text text-anchor="middle" x="906.4038" y="-61.5" font-family="Helvetica,sans-Serif" font-size="10.00" fill="#000000">ARX/AR/matrix.h</text>
</a>
</g>
</g>
<!-- Node1&#45;&gt;Node12 -->
<g id="edge15" class="edge">
<title>Node1&#45;&gt;Node12</title>
<path fill="none" stroke="#191970" d="M540.8879,-114.9475C603.4655,-107.0715 735.2676,-90.1886 846.4038,-74 847.6953,-73.8119 849.0021,-73.6197 850.3198,-73.4244"/>
<polygon fill="#191970" stroke="#191970" points="851.1939,-76.8322 860.5593,-71.8784 850.1488,-69.9106 851.1939,-76.8322"/>
</g>
<!-- Node1&#45;&gt;Node14 -->
<g id="edge17" class="edge">
<title>Node1&#45;&gt;Node14</title>
<path fill="none" stroke="#191970" d="M467.9595,-115.2741C404.7981,-107.8238 270.9576,-91.4782 158.4038,-74 157.1048,-73.7983 155.7886,-73.5901 154.461,-73.3767"/>
<polygon fill="#191970" stroke="#191970" points="154.5952,-69.8509 144.1561,-71.6611 153.4456,-76.7559 154.5952,-69.8509"/>
</g>
<!-- Node16 -->
<g id="node17" class="node">
<title>Node16</title>
<g id="a_node17"><a xlink:href="param_8h.html" target="_top" xlink:title="artoolkitX functions for handling calibrated camera parameters. ">
<polygon fill="#ffffff" stroke="#000000" points="572.0566,-55.5 572.0566,-73.5 664.751,-73.5 664.751,-55.5 572.0566,-55.5"/>
<text text-anchor="middle" x="618.4038" y="-61.5" font-family="Helvetica,sans-Serif" font-size="10.00" fill="#000000">ARX/AR/param.h</text>
</a>
</g>
</g>
<!-- Node1&#45;&gt;Node16 -->
<g id="edge20" class="edge">
<title>Node1&#45;&gt;Node16</title>
<path fill="none" stroke="#191970" d="M518.0623,-110.4179C534.6975,-101.5011 562.8582,-87.803 585.2092,-77.6873"/>
<polygon fill="#191970" stroke="#191970" points="586.6752,-80.8658 594.3819,-73.5956 583.8235,-74.473 586.6752,-80.8658"/>
</g>
<!-- Node17 -->
<g id="node18" class="node">
<title>Node17</title>
<g id="a_node18"><a xlink:href="ar_image_proc_8h.html" target="_top" xlink:title="artoolkitX functions for 2D luminance image processing. ">
<polygon fill="#ffffff" stroke="#000000" points="682.606,-55.5 682.606,-73.5 804.2017,-73.5 804.2017,-55.5 682.606,-55.5"/>
<text text-anchor="middle" x="743.4038" y="-61.5" font-family="Helvetica,sans-Serif" font-size="10.00" fill="#000000">ARX/AR/arImageProc.h</text>
</a>
</g>
</g>
<!-- Node1&#45;&gt;Node17 -->
<g id="edge22" class="edge">
<title>Node1&#45;&gt;Node17</title>
<path fill="none" stroke="#191970" d="M538.4486,-110.4795C577.7969,-100.9681 642.8451,-85.9676 689.1556,-75.7042"/>
<polygon fill="#191970" stroke="#191970" points="690.0185,-79.098 699.0295,-73.5255 688.5102,-72.2624 690.0185,-79.098"/>
</g>
<!-- Node8&#45;&gt;Node2 -->
<g id="edge9" class="edge">
<title>Node8&#45;&gt;Node2</title>
<path fill="none" stroke="#191970" d="M283.8364,-55.4179C253.094,-45.6443 204.2833,-30.1264 172.0469,-19.8779"/>
<polygon fill="#191970" stroke="#191970" points="172.7972,-16.4438 162.2068,-16.7495 170.6763,-23.1148 172.7972,-16.4438"/>
</g>
<!-- Node8&#45;&gt;Node3 -->
<g id="edge10" class="edge">
<title>Node8&#45;&gt;Node3</title>
<path fill="none" stroke="#191970" d="M339.8153,-55.4179C368.5242,-45.9059 413.6546,-30.953 444.5642,-20.7119"/>
<polygon fill="#191970" stroke="#191970" points="446.0654,-23.9017 454.4571,-17.4342 443.8637,-17.2569 446.0654,-23.9017"/>
</g>
<!-- Node8&#45;&gt;Node5 -->
<g id="edge11" class="edge">
<title>Node8&#45;&gt;Node5</title>
<path fill="none" stroke="#191970" d="M355.2707,-55.4194C393.5537,-47.1486 451.3727,-34.2631 510.1201,-19.2363"/>
<polygon fill="#191970" stroke="#191970" points="511.1264,-22.5914 519.9369,-16.7072 509.3799,-15.8128 511.1264,-22.5914"/>
</g>
<!-- Node9 -->
<g id="node10" class="node">
<title>Node9</title>
<polygon fill="#ffffff" stroke="#bfbfbf" points="180.3374,-.5 180.3374,-18.5 232.4702,-18.5 232.4702,-.5 180.3374,-.5"/>
<text text-anchor="middle" x="206.4038" y="-6.5" font-family="Helvetica,sans-Serif" font-size="10.00" fill="#000000">stdarg.h</text>
</g>
<!-- Node8&#45;&gt;Node9 -->
<g id="edge12" class="edge">
<title>Node8&#45;&gt;Node9</title>
<path fill="none" stroke="#191970" d="M294.9001,-55.4179C278.0219,-46.6603 252.2551,-33.2907 232.8702,-23.2326"/>
<polygon fill="#191970" stroke="#191970" points="234.4218,-20.0946 223.9336,-18.5956 231.1979,-26.308 234.4218,-20.0946"/>
</g>
<!-- Node10 -->
<g id="node11" class="node">
<title>Node10</title>
<polygon fill="#ffffff" stroke="#bfbfbf" points="250.6724,-.5 250.6724,-18.5 316.1353,-18.5 316.1353,-.5 250.6724,-.5"/>
<text text-anchor="middle" x="283.4038" y="-6.5" font-family="Helvetica,sans-Serif" font-size="10.00" fill="#000000">sys/errno.h</text>
</g>
<!-- Node8&#45;&gt;Node10 -->
<g id="edge13" class="edge">
<title>Node8&#45;&gt;Node10</title>
<path fill="none" stroke="#191970" d="M307.615,-55.4179C303.651,-47.8998 297.8948,-36.9829 292.9895,-27.6799"/>
<polygon fill="#191970" stroke="#191970" points="296.0568,-25.9927 288.2966,-18.7795 289.8648,-29.2576 296.0568,-25.9927"/>
</g>
<!-- Node11 -->
<g id="node12" class="node">
<title>Node11</title>
<g id="a_node12"><a xlink:href="types_8h.html" target="_top" xlink:title="ARX/ARUtil/types.h">
<polygon fill="#ffffff" stroke="#000000" points="334.0566,-.5 334.0566,-18.5 436.751,-18.5 436.751,-.5 334.0566,-.5"/>
<text text-anchor="middle" x="385.4038" y="-6.5" font-family="Helvetica,sans-Serif" font-size="10.00" fill="#000000">ARX/ARUtil/types.h</text>
</a>
</g>
</g>
<!-- Node8&#45;&gt;Node11 -->
<g id="edge14" class="edge">
<title>Node8&#45;&gt;Node11</title>
<path fill="none" stroke="#191970" d="M324.4583,-55.4179C335.4872,-47.1084 352.027,-34.6469 365.0945,-24.8015"/>
<polygon fill="#191970" stroke="#191970" points="367.2067,-27.5924 373.0874,-18.7795 362.9944,-22.0016 367.2067,-27.5924"/>
</g>
<!-- Node13 -->
<g id="node14" class="node">
<title>Node13</title>
<polygon fill="#ffffff" stroke="#bfbfbf" points="883.1182,-.5 883.1182,-18.5 929.6895,-18.5 929.6895,-.5 883.1182,-.5"/>
<text text-anchor="middle" x="906.4038" y="-6.5" font-family="Helvetica,sans-Serif" font-size="10.00" fill="#000000">math.h</text>
</g>
<!-- Node12&#45;&gt;Node13 -->
<g id="edge16" class="edge">
<title>Node12&#45;&gt;Node13</title>
<path fill="none" stroke="#191970" d="M906.4038,-55.4179C906.4038,-48.2164 906.4038,-37.8962 906.4038,-28.8632"/>
<polygon fill="#191970" stroke="#191970" points="909.9039,-28.7794 906.4038,-18.7795 902.9039,-28.7795 909.9039,-28.7794"/>
</g>
<!-- Node14&#45;&gt;Node2 -->
<g id="edge18" class="edge">
<title>Node14&#45;&gt;Node2</title>
<path fill="none" stroke="#191970" d="M111.0182,-55.4179C115.7147,-47.8207 122.5567,-36.7527 128.3466,-27.3866"/>
<polygon fill="#191970" stroke="#191970" points="131.3862,-29.1258 133.6674,-18.7795 125.4321,-25.445 131.3862,-29.1258"/>
</g>
<!-- Node15 -->
<g id="node16" class="node">
<title>Node15</title>
<g id="a_node16"><a xlink:href="icp_core_8h.html" target="_top" xlink:title="ARX/AR/icpCore.h">
<polygon fill="#ffffff" stroke="#000000" points="0,-.5 0,-18.5 98.8076,-18.5 98.8076,-.5 0,-.5"/>
<text text-anchor="middle" x="49.4038" y="-6.5" font-family="Helvetica,sans-Serif" font-size="10.00" fill="#000000">ARX/AR/icpCore.h</text>
</a>
</g>
</g>
<!-- Node14&#45;&gt;Node15 -->
<g id="edge19" class="edge">
<title>Node14&#45;&gt;Node15</title>
<path fill="none" stroke="#191970" d="M96.1565,-55.4179C88.0183,-47.425 75.9685,-35.5903 66.1404,-25.9377"/>
<polygon fill="#191970" stroke="#191970" points="68.439,-23.2895 58.852,-18.7795 63.534,-28.2836 68.439,-23.2895"/>
</g>
<!-- Node16&#45;&gt;Node1 -->
<g id="edge21" class="edge">
<title>Node16&#45;&gt;Node1</title>
<path fill="none" stroke="#191970" d="M604.7202,-73.5956C588.0733,-82.5172 559.9097,-96.2159 537.5646,-106.328"/>
<polygon fill="#191970" stroke="#191970" points="536.102,-103.148 528.3949,-110.4179 538.9534,-109.5409 536.102,-103.148"/>
</g>
<!-- Node17&#45;&gt;Node1 -->
<g id="edge24" class="edge">
<title>Node17&#45;&gt;Node1</title>
<path fill="none" stroke="#191970" d="M709.143,-73.5727C667.4646,-83.6445 597.1799,-99.8248 550.7221,-110.0472"/>
<polygon fill="#191970" stroke="#191970" points="549.9217,-106.6395 540.9012,-112.1964 551.4182,-113.4776 549.9217,-106.6395"/>
</g>
<!-- Node17&#45;&gt;Node6 -->
<g id="edge23" class="edge">
<title>Node17&#45;&gt;Node6</title>
<path fill="none" stroke="#191970" d="M749.6787,-55.4179C754.9824,-47.7415 762.7343,-36.5217 769.2476,-27.0945"/>
<polygon fill="#191970" stroke="#191970" points="772.1877,-28.9963 774.9925,-18.7795 766.4286,-25.0173 772.1877,-28.9963"/>
</g>
</g>
</svg>
