<?xml version="1.0" encoding="UTF-8" standalone="no"?>
<!DOCTYPE svg PUBLIC "-//W3C//DTD SVG 1.1//EN"
 "http://www.w3.org/Graphics/SVG/1.1/DTD/svg11.dtd">
<!-- Generated by graphviz version 7.0.5 (20221223.1930)
 -->
<!-- Title: arGetTransMatSquareStereo Pages: 1 -->
<!--zoomable 345 -->
<svg id="main" version="1.1" xmlns="http://www.w3.org/2000/svg" xmlns:xlink="http://www.w3.org/1999/xlink" xml:space="preserve" onload="init(evt)">
<style type="text/css"><![CDATA[
.edge:hover path { stroke: red; }
.edge:hover polygon { stroke: red; fill: red; }
]]></style>
<script type="text/javascript"><![CDATA[
var edges = document.getElementsByTagName('g');
if (edges && edges.length) {
  for (var i=0;i<edges.length;i++) {
    if (edges[i].id.substr(0,4)=='edge') {
      edges[i].setAttribute('class','edge');
    }
  }
}
]]></script>
        <defs>
                <circle id="rim" cx="0" cy="0" r="7"/>
                <circle id="rim2" cx="0" cy="0" r="3.5"/>
                <g id="zoomPlus">
                        <use xlink:href="#rim" fill="#404040">
                                <set attributeName="fill" to="#808080" begin="zoomplus.mouseover" end="zoomplus.mouseout"/>
                        </use>
                        <path d="M-4,0h8M0,-4v8" fill="none" stroke="white" stroke-width="1.5" pointer-events="none"/>
                </g>
                <g id="zoomMin">
                        <use xlink:href="#rim" fill="#404040">
                                <set attributeName="fill" to="#808080" begin="zoomminus.mouseover" end="zoomminus.mouseout"/>
                        </use>
                        <path d="M-4,0h8" fill="none" stroke="white" stroke-width="1.5" pointer-events="none"/>
                </g>
                <g id="dirArrow">
                        <path fill="none" stroke="white" stroke-width="1.5" d="M0,-3.0v7 M-2.5,-0.5L0,-3.0L2.5,-0.5"/>
                </g>
               <g id="resetDef">
                       <use xlink:href="#rim2" fill="#404040">
                               <set attributeName="fill" to="#808080" begin="reset.mouseover" end="reset.mouseout"/>
                       </use>
               </g>
        </defs>

<script type="text/javascript">
var viewWidth = 694;
var viewHeight = 345;
var sectionId = 'dynsection-2';
</script>
<script xlink:href="svgpan.js"/>
<svg id="graph" class="graph">
<g id="viewport">
<title>arGetTransMatSquareStereo</title>
<!-- Node1 -->
<g id="node1" class="node">
<title>Node1</title>
<g id="a_node1"><a xlink:title=" ">
<polygon fill="#999999" stroke="#666666" points="141,-247 0,-247 0,-228 141,-228 141,-247"/>
<text text-anchor="middle" x="70.5" y="-235" font-family="Helvetica,sans-Serif" font-size="10.00">arGetTransMatSquareStereo</text>
</a>
</g>
</g>
<!-- Node2 -->
<g id="node2" class="node">
<title>Node2</title>
<g id="a_node2"><a xlink:href="ar_util_8c.html#a97c94e6c703a2e449272302c925944d1" target="_top" xlink:title=" ">
<polygon fill="white" stroke="#666666" points="401,-306 331,-306 331,-287 401,-287 401,-306"/>
<text text-anchor="middle" x="366" y="-294" font-family="Helvetica,sans-Serif" font-size="10.00">arUtilMatInv</text>
</a>
</g>
</g>
<!-- Node1&#45;&gt;Node2 -->
<g id="edge1" class="edge">
<title>Node1&#45;&gt;Node2</title>
<path fill="none" stroke="#63b8ff" d="M120.96,-247.44C176.36,-258.58 265.43,-276.48 319.27,-287.31"/>
<polygon fill="#63b8ff" stroke="#63b8ff" points="318.54,-290.73 329.04,-289.27 319.92,-283.87 318.54,-290.73"/>
</g>
<!-- Node6 -->
<g id="node6" class="node">
<title>Node6</title>
<g id="a_node6"><a xlink:href="icp_util_8c.html#a9a0da1f41013b11363f39d99a5c937e9" target="_top" xlink:title=" ">
<polygon fill="white" stroke="#666666" points="423.5,-252.5 308.5,-252.5 308.5,-222.5 423.5,-222.5 423.5,-252.5"/>
<text text-anchor="start" x="316.5" y="-240.5" font-family="Helvetica,sans-Serif" font-size="10.00">icpGetInitXw2Xc_from</text>
<text text-anchor="middle" x="366" y="-229.5" font-family="Helvetica,sans-Serif" font-size="10.00">_PlanarData</text>
</a>
</g>
</g>
<!-- Node1&#45;&gt;Node6 -->
<g id="edge5" class="edge">
<title>Node1&#45;&gt;Node6</title>
<path fill="none" stroke="#63b8ff" d="M141.43,-237.5C188.58,-237.5 250.46,-237.5 297.16,-237.5"/>
<polygon fill="#63b8ff" stroke="#63b8ff" points="296.87,-241 306.87,-237.5 296.87,-234 296.87,-241"/>
</g>
<!-- Node11 -->
<g id="node11" class="node">
<title>Node11</title>
<g id="a_node11"><a xlink:href="icp_stereo_point_8c.html#afa05ec4cb1c2537d535521e4ee42c5ac" target="_top" xlink:title=" ">
<polygon fill="white" stroke="#666666" points="257,-149 177,-149 177,-130 257,-130 257,-149"/>
<text text-anchor="middle" x="217" y="-137" font-family="Helvetica,sans-Serif" font-size="10.00">icpStereoPoint</text>
</a>
</g>
</g>
<!-- Node1&#45;&gt;Node11 -->
<g id="edge17" class="edge">
<title>Node1&#45;&gt;Node11</title>
<path fill="none" stroke="#63b8ff" d="M86.15,-227.56C111.03,-210.69 161.78,-176.27 191.94,-155.82"/>
<polygon fill="#63b8ff" stroke="#63b8ff" points="193.75,-158.82 200.06,-150.31 189.82,-153.03 193.75,-158.82"/>
</g>
<!-- Node3 -->
<g id="node3" class="node">
<title>Node3</title>
<g id="a_node3"><a xlink:href="m_alloc_8c.html#a69c9a974dc5a3963148ebb2c4a80f969" target="_top" xlink:title=" ">
<polygon fill="white" stroke="#666666" points="684.5,-265 610.5,-265 610.5,-246 684.5,-246 684.5,-265"/>
<text text-anchor="middle" x="647.5" y="-253" font-family="Helvetica,sans-Serif" font-size="10.00">arMatrixAlloc</text>
</a>
</g>
</g>
<!-- Node2&#45;&gt;Node3 -->
<g id="edge2" class="edge">
<title>Node2&#45;&gt;Node3</title>
<path fill="none" stroke="#63b8ff" d="M388.02,-306.45C426.26,-323.09 509.17,-352.3 573,-326.5 598.71,-316.11 620.43,-291.93 633.44,-274.68"/>
<polygon fill="#63b8ff" stroke="#63b8ff" points="636.18,-276.87 639.18,-266.71 630.5,-272.79 636.18,-276.87"/>
</g>
<!-- Node4 -->
<g id="node4" class="node">
<title>Node4</title>
<g id="a_node4"><a xlink:href="m_free_8c.html#ac4b7a714cce9fffda773d86363380454" target="_top" xlink:title=" ">
<polygon fill="white" stroke="#666666" points="683,-171 612,-171 612,-152 683,-152 683,-171"/>
<text text-anchor="middle" x="647.5" y="-159" font-family="Helvetica,sans-Serif" font-size="10.00">arMatrixFree</text>
</a>
</g>
</g>
<!-- Node2&#45;&gt;Node4 -->
<g id="edge3" class="edge">
<title>Node2&#45;&gt;Node4</title>
<path fill="none" stroke="#63b8ff" d="M401.44,-298.55C445.72,-299.36 522.87,-294.4 573,-255.5 602.21,-232.83 583.14,-206.92 609,-180.5 609.87,-179.61 610.79,-178.76 611.74,-177.94"/>
<polygon fill="#63b8ff" stroke="#63b8ff" points="613.66,-180.87 619.9,-172.31 609.68,-175.11 613.66,-180.87"/>
</g>
<!-- Node5 -->
<g id="node5" class="node">
<title>Node5</title>
<g id="a_node5"><a xlink:href="m_self_inv_8c.html#a929738025b539a0c1bbd2f395ad4d981" target="_top" xlink:title=" ">
<polygon fill="white" stroke="#666666" points="565.5,-246 482.5,-246 482.5,-227 565.5,-227 565.5,-246"/>
<text text-anchor="middle" x="524" y="-234" font-family="Helvetica,sans-Serif" font-size="10.00">arMatrixSelfInv</text>
</a>
</g>
</g>
<!-- Node2&#45;&gt;Node5 -->
<g id="edge4" class="edge">
<title>Node2&#45;&gt;Node5</title>
<path fill="none" stroke="#63b8ff" d="M392.76,-286.59C418.39,-276.73 457.95,-261.52 486.74,-250.44"/>
<polygon fill="#63b8ff" stroke="#63b8ff" points="487.71,-253.82 495.79,-246.97 485.2,-247.29 487.71,-253.82"/>
</g>
<!-- Node6&#45;&gt;Node3 -->
<g id="edge6" class="edge">
<title>Node6&#45;&gt;Node3</title>
<path fill="none" stroke="#63b8ff" d="M423.95,-248.8C440.36,-251.56 458.33,-254.12 475,-255.5 516.85,-258.96 564.65,-258.61 599.14,-257.6"/>
<polygon fill="#63b8ff" stroke="#63b8ff" points="598.9,-261.1 608.78,-257.28 598.67,-254.11 598.9,-261.1"/>
</g>
<!-- Node6&#45;&gt;Node4 -->
<g id="edge15" class="edge">
<title>Node6&#45;&gt;Node4</title>
<path fill="none" stroke="#63b8ff" d="M421.56,-222.07C427.61,-219.56 433.55,-216.71 439,-213.5 457.71,-202.49 455.24,-189.47 475,-180.5 514.75,-162.45 564.82,-158.8 600.58,-158.99"/>
<polygon fill="#63b8ff" stroke="#63b8ff" points="600.08,-162.49 610.14,-159.16 600.2,-155.49 600.08,-162.49"/>
</g>
<!-- Node6&#45;&gt;Node5 -->
<g id="edge16" class="edge">
<title>Node6&#45;&gt;Node5</title>
<path fill="none" stroke="#63b8ff" d="M423.76,-237.14C439.17,-237.04 455.78,-236.93 470.92,-236.83"/>
<polygon fill="#63b8ff" stroke="#63b8ff" points="470.68,-240.34 480.65,-236.77 470.63,-233.34 470.68,-240.34"/>
</g>
<!-- Node7 -->
<g id="node7" class="node">
<title>Node7</title>
<g id="a_node7"><a xlink:href="m_alloc_mul_8c.html#a8e99293b68c38ce8a8d1920884d69f73" target="_top" xlink:title=" ">
<polygon fill="white" stroke="#666666" points="568.5,-133 479.5,-133 479.5,-114 568.5,-114 568.5,-133"/>
<text text-anchor="middle" x="524" y="-121" font-family="Helvetica,sans-Serif" font-size="10.00">arMatrixAllocMul</text>
</a>
</g>
</g>
<!-- Node6&#45;&gt;Node7 -->
<g id="edge7" class="edge">
<title>Node6&#45;&gt;Node7</title>
<path fill="none" stroke="#63b8ff" d="M423.84,-223.22C429.28,-220.51 434.45,-217.3 439,-213.5 464.63,-192.06 450.96,-170.7 475,-147.5 478.39,-144.22 482.32,-141.31 486.44,-138.73"/>
<polygon fill="#63b8ff" stroke="#63b8ff" points="487.84,-141.96 494.91,-134.07 484.46,-135.83 487.84,-141.96"/>
</g>
<!-- Node9 -->
<g id="node9" class="node">
<title>Node9</title>
<g id="a_node9"><a xlink:href="m_alloc_trans_8c.html#a4e2bf8cd529487fb1ff4d0bbc52eee1e" target="_top" xlink:title=" ">
<polygon fill="white" stroke="#666666" points="573,-209 475,-209 475,-190 573,-190 573,-209"/>
<text text-anchor="middle" x="524" y="-197" font-family="Helvetica,sans-Serif" font-size="10.00">arMatrixAllocTrans</text>
</a>
</g>
</g>
<!-- Node6&#45;&gt;Node9 -->
<g id="edge11" class="edge">
<title>Node6&#45;&gt;Node9</title>
<path fill="none" stroke="#63b8ff" d="M423.76,-223.67C439.32,-219.88 456.11,-215.79 471.37,-212.08"/>
<polygon fill="#63b8ff" stroke="#63b8ff" points="471.81,-215.57 480.7,-209.8 470.15,-208.77 471.81,-215.57"/>
</g>
<!-- Node7&#45;&gt;Node3 -->
<g id="edge8" class="edge">
<title>Node7&#45;&gt;Node3</title>
<path fill="none" stroke="#63b8ff" d="M533.37,-133.41C548.24,-150.9 580.39,-188.28 609,-218.5 615.14,-224.98 622.05,-231.9 628.25,-237.98"/>
<polygon fill="#63b8ff" stroke="#63b8ff" points="625.43,-240.12 635.04,-244.58 630.31,-235.1 625.43,-240.12"/>
</g>
<!-- Node7&#45;&gt;Node4 -->
<g id="edge9" class="edge">
<title>Node7&#45;&gt;Node4</title>
<path fill="none" stroke="#63b8ff" d="M556.92,-133.48C571.29,-137.98 588.47,-143.35 603.91,-148.18"/>
<polygon fill="#63b8ff" stroke="#63b8ff" points="602.76,-151.49 613.35,-151.13 604.85,-144.81 602.76,-151.49"/>
</g>
<!-- Node8 -->
<g id="node8" class="node">
<title>Node8</title>
<g id="a_node8"><a xlink:href="m_mul_8c.html#a202bc2db43d563792c99e852ea0b7ba4" target="_top" xlink:title=" ">
<polygon fill="white" stroke="#666666" points="681.5,-95 613.5,-95 613.5,-76 681.5,-76 681.5,-95"/>
<text text-anchor="middle" x="647.5" y="-83" font-family="Helvetica,sans-Serif" font-size="10.00">arMatrixMul</text>
</a>
</g>
</g>
<!-- Node7&#45;&gt;Node8 -->
<g id="edge10" class="edge">
<title>Node7&#45;&gt;Node8</title>
<path fill="none" stroke="#63b8ff" d="M556.92,-113.52C571.29,-109.02 588.47,-103.65 603.91,-98.82"/>
<polygon fill="#63b8ff" stroke="#63b8ff" points="604.85,-102.19 613.35,-95.87 602.76,-95.51 604.85,-102.19"/>
</g>
<!-- Node9&#45;&gt;Node3 -->
<g id="edge12" class="edge">
<title>Node9&#45;&gt;Node3</title>
<path fill="none" stroke="#63b8ff" d="M551.33,-209.43C558.42,-212.24 566.05,-215.38 573,-218.5 588.02,-225.24 604.4,-233.4 617.88,-240.35"/>
<polygon fill="#63b8ff" stroke="#63b8ff" points="616.16,-243.4 626.65,-244.91 619.39,-237.19 616.16,-243.4"/>
</g>
<!-- Node9&#45;&gt;Node4 -->
<g id="edge13" class="edge">
<title>Node9&#45;&gt;Node4</title>
<path fill="none" stroke="#63b8ff" d="M556.92,-189.52C571.29,-185.02 588.47,-179.65 603.91,-174.82"/>
<polygon fill="#63b8ff" stroke="#63b8ff" points="604.85,-178.19 613.35,-171.87 602.76,-171.51 604.85,-178.19"/>
</g>
<!-- Node10 -->
<g id="node10" class="node">
<title>Node10</title>
<g id="a_node10"><a xlink:href="m_trans_8c.html#ad3d9712dd27f655902a8a3315e623d85" target="_top" xlink:title=" ">
<polygon fill="white" stroke="#666666" points="686,-209 609,-209 609,-190 686,-190 686,-209"/>
<text text-anchor="middle" x="647.5" y="-197" font-family="Helvetica,sans-Serif" font-size="10.00">arMatrixTrans</text>
</a>
</g>
</g>
<!-- Node9&#45;&gt;Node10 -->
<g id="edge14" class="edge">
<title>Node9&#45;&gt;Node10</title>
<path fill="none" stroke="#63b8ff" d="M573.37,-199.5C581.28,-199.5 589.49,-199.5 597.42,-199.5"/>
<polygon fill="#63b8ff" stroke="#63b8ff" points="597.26,-203 607.26,-199.5 597.26,-196 597.26,-203"/>
</g>
<!-- Node12 -->
<g id="node12" class="node">
<title>Node12</title>
<g id="a_node12"><a xlink:href="ar_util_8c.html#ae28eeba3e16224a7d77b46bd34b8f4fe" target="_top" xlink:title=" ">
<polygon fill="white" stroke="#666666" points="402,-56 330,-56 330,-37 402,-37 402,-56"/>
<text text-anchor="middle" x="366" y="-44" font-family="Helvetica,sans-Serif" font-size="10.00">arUtilMatMul</text>
</a>
</g>
</g>
<!-- Node11&#45;&gt;Node12 -->
<g id="edge18" class="edge">
<title>Node11&#45;&gt;Node12</title>
<path fill="none" stroke="#63b8ff" d="M225.07,-129.53C237.11,-113.32 263.2,-81.38 293,-64.5 300.88,-60.04 309.87,-56.67 318.75,-54.13"/>
<polygon fill="#63b8ff" stroke="#63b8ff" points="319.55,-57.54 328.4,-51.7 317.85,-50.75 319.55,-57.54"/>
</g>
<!-- Node13 -->
<g id="node13" class="node">
<title>Node13</title>
<g id="a_node13"><a xlink:href="icp_core_8c.html#a4906398b4594d29ab8035b4016a7e9de" target="_top" xlink:title=" ">
<polygon fill="white" stroke="#666666" points="403.5,-93 328.5,-93 328.5,-74 403.5,-74 403.5,-93"/>
<text text-anchor="middle" x="366" y="-81" font-family="Helvetica,sans-Serif" font-size="10.00">icpGetDeltaS</text>
</a>
</g>
</g>
<!-- Node11&#45;&gt;Node13 -->
<g id="edge19" class="edge">
<title>Node11&#45;&gt;Node13</title>
<path fill="none" stroke="#63b8ff" d="M234.78,-129.62C249.67,-121.2 272.21,-109.25 293,-101.5 300.72,-98.62 309.07,-96.06 317.26,-93.83"/>
<polygon fill="#63b8ff" stroke="#63b8ff" points="317.98,-97.26 326.79,-91.38 316.24,-90.48 317.98,-97.26"/>
</g>
<!-- Node15 -->
<g id="node15" class="node">
<title>Node15</title>
<g id="a_node15"><a xlink:href="icp_core_8c.html#ac384ca6737fdee325d58740d665eda0a" target="_top" xlink:title=" ">
<polygon fill="white" stroke="#666666" points="403.5,-204 328.5,-204 328.5,-185 403.5,-185 403.5,-204"/>
<text text-anchor="middle" x="366" y="-192" font-family="Helvetica,sans-Serif" font-size="10.00">icpGetJ_U_S</text>
</a>
</g>
</g>
<!-- Node11&#45;&gt;Node15 -->
<g id="edge26" class="edge">
<title>Node11&#45;&gt;Node15</title>
<path fill="none" stroke="#63b8ff" d="M236.07,-149.37C251.01,-157.24 272.94,-168.11 293,-175.5 300.76,-178.36 309.13,-180.97 317.33,-183.29"/>
<polygon fill="#63b8ff" stroke="#63b8ff" points="316.3,-186.63 326.86,-185.86 318.12,-179.87 316.3,-186.63"/>
</g>
<!-- Node16 -->
<g id="node16" class="node">
<title>Node16</title>
<g id="a_node16"><a xlink:href="icp_core_8c.html#aceeb3fd72a762c2078d8fb88ec03ccfb" target="_top" xlink:title=" ">
<polygon fill="white" stroke="#666666" points="439,-167 293,-167 293,-148 439,-148 439,-167"/>
<text text-anchor="middle" x="366" y="-155" font-family="Helvetica,sans-Serif" font-size="10.00">icpGetU_from_X_by_MatX2U</text>
</a>
</g>
</g>
<!-- Node11&#45;&gt;Node16 -->
<g id="edge27" class="edge">
<title>Node11&#45;&gt;Node16</title>
<path fill="none" stroke="#63b8ff" d="M257.39,-144.32C264.88,-145.24 272.97,-146.23 281.23,-147.24"/>
<polygon fill="#63b8ff" stroke="#63b8ff" points="280.72,-150.71 291.07,-148.45 281.57,-143.76 280.72,-150.71"/>
</g>
<!-- Node17 -->
<g id="node17" class="node">
<title>Node17</title>
<g id="a_node17"><a xlink:href="icp_core_8c.html#a94201124387610a46b975cdb9d8a1db6" target="_top" xlink:title=" ">
<polygon fill="white" stroke="#666666" points="404.5,-130 327.5,-130 327.5,-111 404.5,-111 404.5,-130"/>
<text text-anchor="middle" x="366" y="-118" font-family="Helvetica,sans-Serif" font-size="10.00">icpUpdateMat</text>
</a>
</g>
</g>
<!-- Node11&#45;&gt;Node17 -->
<g id="edge28" class="edge">
<title>Node11&#45;&gt;Node17</title>
<path fill="none" stroke="#63b8ff" d="M257.39,-134.41C275.37,-132.09 296.84,-129.31 315.85,-126.85"/>
<polygon fill="#63b8ff" stroke="#63b8ff" points="316.05,-130.36 325.52,-125.6 315.15,-123.41 316.05,-130.36"/>
</g>
<!-- Node13&#45;&gt;Node4 -->
<g id="edge23" class="edge">
<title>Node13&#45;&gt;Node4</title>
<path fill="none" stroke="#63b8ff" d="M403.79,-81.27C446.16,-80.04 517.09,-82.13 573,-104.5 594.89,-113.26 615.72,-130.57 629.58,-143.83"/>
<polygon fill="#63b8ff" stroke="#63b8ff" points="626.99,-146.19 636.55,-150.76 631.92,-141.22 626.99,-146.19"/>
</g>
<!-- Node13&#45;&gt;Node5 -->
<g id="edge25" class="edge">
<title>Node13&#45;&gt;Node5</title>
<path fill="none" stroke="#63b8ff" d="M403.83,-85.46C416.36,-87.86 429.56,-92.55 439,-101.5 478.49,-138.93 437.71,-178.89 475,-218.5 475.48,-219.01 475.97,-219.5 476.48,-219.98"/>
<polygon fill="#63b8ff" stroke="#63b8ff" points="474.3,-222.73 484.47,-225.7 478.38,-217.04 474.3,-222.73"/>
</g>
<!-- Node13&#45;&gt;Node7 -->
<g id="edge20" class="edge">
<title>Node13&#45;&gt;Node7</title>
<path fill="none" stroke="#63b8ff" d="M403.65,-92.58C414.99,-95.41 427.52,-98.56 439,-101.5 450.51,-104.45 462.89,-107.66 474.52,-110.71"/>
<polygon fill="#63b8ff" stroke="#63b8ff" points="473.36,-114.02 483.93,-113.17 475.14,-107.25 473.36,-114.02"/>
</g>
<!-- Node13&#45;&gt;Node8 -->
<g id="edge24" class="edge">
<title>Node13&#45;&gt;Node8</title>
<path fill="none" stroke="#63b8ff" d="M403.9,-77.97C445.17,-72.58 513.97,-65.93 573,-71.5 582.38,-72.39 592.34,-73.89 601.8,-75.6"/>
<polygon fill="#63b8ff" stroke="#63b8ff" points="601.06,-79.02 611.54,-77.46 602.38,-72.14 601.06,-79.02"/>
</g>
<!-- Node13&#45;&gt;Node9 -->
<g id="edge21" class="edge">
<title>Node13&#45;&gt;Node9</title>
<path fill="none" stroke="#63b8ff" d="M403.89,-88.18C415.72,-90.84 428.48,-95 439,-101.5 443.37,-104.2 484.58,-153.32 507.61,-180.97"/>
<polygon fill="#63b8ff" stroke="#63b8ff" points="504.85,-183.13 513.94,-188.58 510.24,-178.65 504.85,-183.13"/>
</g>
<!-- Node14 -->
<g id="node14" class="node">
<title>Node14</title>
<g id="a_node14"><a xlink:href="m_disp_8c.html#a60f36997579d355f6030f872faad84a2" target="_top" xlink:title=" ">
<polygon fill="white" stroke="#666666" points="560,-19 488,-19 488,0 560,0 560,-19"/>
<text text-anchor="middle" x="524" y="-7" font-family="Helvetica,sans-Serif" font-size="10.00">arMatrixDisp</text>
</a>
</g>
</g>
<!-- Node13&#45;&gt;Node14 -->
<g id="edge22" class="edge">
<title>Node13&#45;&gt;Node14</title>
<path fill="none" stroke="#63b8ff" d="M403.72,-77.19C415.41,-74.31 428.13,-70.22 439,-64.5 457.68,-54.67 457.42,-45.2 475,-33.5 479.82,-30.29 485.13,-27.23 490.41,-24.42"/>
<polygon fill="#63b8ff" stroke="#63b8ff" points="491.68,-27.7 499.03,-20.07 488.52,-21.45 491.68,-27.7"/>
</g>
</g>
</svg>
        <g id="navigator" transform="translate(0 0)" fill="#404254">
                <rect fill="#f2f5e9" fill-opacity="0.5" stroke="#606060" stroke-width=".5" x="0" y="0" width="60" height="60"/>
                <use id="zoomplus" xlink:href="#zoomPlus" x="17" y="9" onmousedown="handleZoom(evt,'in')"/>
                <use id="zoomminus" xlink:href="#zoomMin" x="42" y="9" onmousedown="handleZoom(evt,'out')"/>
                <use id="reset" xlink:href="#resetDef" x="30" y="36" onmousedown="handleReset()"/>
                <g id="arrowUp" xlink:href="#dirArrow" transform="translate(30 24)" onmousedown="handlePan(0,-1)">
                  <use xlink:href="#rim" fill="#404040">
                        <set attributeName="fill" to="#808080" begin="arrowUp.mouseover" end="arrowUp.mouseout"/>
                  </use>
                  <path fill="none" stroke="white" stroke-width="1.5" d="M0,-3.0v7 M-2.5,-0.5L0,-3.0L2.5,-0.5"/>
                </g>
                <g id="arrowRight" xlink:href="#dirArrow" transform="rotate(90) translate(36 -43)" onmousedown="handlePan(1,0)">
                  <use xlink:href="#rim" fill="#404040">
                        <set attributeName="fill" to="#808080" begin="arrowRight.mouseover" end="arrowRight.mouseout"/>
                  </use>
                  <path fill="none" stroke="white" stroke-width="1.5" d="M0,-3.0v7 M-2.5,-0.5L0,-3.0L2.5,-0.5"/>
                </g>
                <g id="arrowDown" xlink:href="#dirArrow" transform="rotate(180) translate(-30 -48)" onmousedown="handlePan(0,1)">
                  <use xlink:href="#rim" fill="#404040">
                        <set attributeName="fill" to="#808080" begin="arrowDown.mouseover" end="arrowDown.mouseout"/>
                  </use>
                  <path fill="none" stroke="white" stroke-width="1.5" d="M0,-3.0v7 M-2.5,-0.5L0,-3.0L2.5,-0.5"/>
                </g>
                <g id="arrowLeft" xlink:href="#dirArrow" transform="rotate(270) translate(-36 17)" onmousedown="handlePan(-1,0)">
                  <use xlink:href="#rim" fill="#404040">
                        <set attributeName="fill" to="#808080" begin="arrowLeft.mouseover" end="arrowLeft.mouseout"/>
                  </use>
                  <path fill="none" stroke="white" stroke-width="1.5" d="M0,-3.0v7 M-2.5,-0.5L0,-3.0L2.5,-0.5"/>
                </g>
        </g>
        <svg viewBox="0 0 15 15" width="100%" height="30px" preserveAspectRatio="xMaxYMin meet">
         <g id="arrow_out" transform="scale(0.3 0.3)">
          <a xlink:href="ar_get_trans_mat_stereo_8c_a8062d2388e1450a896468287f6ba793c_cgraph_org.svg" target="_base">
           <rect id="button" ry="5" rx="5" y="6" x="6" height="38" width="38"
                fill="#f2f5e9" fill-opacity="0.5" stroke="#606060" stroke-width="1.0"/>
           <path id="arrow"
             d="M 11.500037,31.436501 C 11.940474,20.09759 22.043105,11.32322 32.158766,21.979434 L 37.068811,17.246167 C 37.068811,17.246167 37.088388,32 37.088388,32 L 22.160133,31.978069 C 22.160133,31.978069 26.997745,27.140456 26.997745,27.140456 C 18.528582,18.264221 13.291696,25.230495 11.500037,31.436501 z"
             style="fill:#404040;"/>
          </a>
         </g>
        </svg>
</svg>
