<?xml version="1.0" encoding="UTF-8" standalone="no"?>
<!DOCTYPE svg PUBLIC "-//W3C//DTD SVG 1.1//EN"
 "http://www.w3.org/Graphics/SVG/1.1/DTD/svg11.dtd">
<!-- Generated by graphviz version 7.0.5 (20221223.1930)
 -->
<!-- Title: Source/ARX/AR/arGetTransMatStereo.c Pages: 1 -->
<svg width="1052pt" height="203pt"
 viewBox="0.00 0.00 1051.50 203.00" xmlns="http://www.w3.org/2000/svg" xmlns:xlink="http://www.w3.org/1999/xlink">
<g id="graph0" class="graph" transform="scale(1 1) rotate(0) translate(4 199)">
<title>Source/ARX/AR/arGetTransMatStereo.c</title>
<!-- Node1 -->
<g id="node1" class="node">
<title>Node1</title>
<g id="a_node1"><a xlink:title=" ">
<polygon fill="#999999" stroke="#666666" points="646,-195 506,-195 506,-165 646,-165 646,-195"/>
<text text-anchor="start" x="514" y="-183" font-family="Helvetica,sans-Serif" font-size="10.00">Source/ARX/AR/arGetTrans</text>
<text text-anchor="middle" x="576" y="-172" font-family="Helvetica,sans-Serif" font-size="10.00">MatStereo.c</text>
</a>
</g>
</g>
<!-- Node2 -->
<g id="node2" class="node">
<title>Node2</title>
<g id="a_node2"><a xlink:title=" ">
<polygon fill="#e0e0e0" stroke="#999999" points="48,-19 0,-19 0,0 48,0 48,-19"/>
<text text-anchor="middle" x="24" y="-7" font-family="Helvetica,sans-Serif" font-size="10.00">stdlib.h</text>
</a>
</g>
</g>
<!-- Node1&#45;&gt;Node2 -->
<g id="edge1" class="edge">
<title>Node1&#45;&gt;Node2</title>
<path fill="none" stroke="#63b8ff" d="M505.61,-172.61C411.33,-161.99 240.59,-135.45 108,-74 82.49,-62.18 57.31,-41.64 41.27,-27.12"/>
<polygon fill="#63b8ff" stroke="#63b8ff" points="43.77,-24.67 34.06,-20.42 39,-29.79 43.77,-24.67"/>
</g>
<!-- Node3 -->
<g id="node3" class="node">
<title>Node3</title>
<g id="a_node3"><a xlink:title=" ">
<polygon fill="#e0e0e0" stroke="#999999" points="1043.5,-19 996.5,-19 996.5,0 1043.5,0 1043.5,-19"/>
<text text-anchor="middle" x="1020" y="-7" font-family="Helvetica,sans-Serif" font-size="10.00">math.h</text>
</a>
</g>
</g>
<!-- Node1&#45;&gt;Node3 -->
<g id="edge2" class="edge">
<title>Node1&#45;&gt;Node3</title>
<path fill="none" stroke="#63b8ff" d="M646.26,-173.5C763.22,-162.73 989.76,-134.43 1038,-74 1048.37,-61.01 1041.21,-42.36 1033.06,-28.63"/>
<polygon fill="#63b8ff" stroke="#63b8ff" points="1036.15,-26.96 1027.74,-20.53 1030.3,-30.81 1036.15,-26.96"/>
</g>
<!-- Node4 -->
<g id="node4" class="node">
<title>Node4</title>
<g id="a_node4"><a xlink:href="ar_8h.html" target="_top" xlink:title="artoolkitX core routines.">
<polygon fill="white" stroke="#666666" points="613,-129 539,-129 539,-110 613,-110 613,-129"/>
<text text-anchor="middle" x="576" y="-117" font-family="Helvetica,sans-Serif" font-size="10.00">ARX/AR/ar.h</text>
</a>
</g>
</g>
<!-- Node1&#45;&gt;Node4 -->
<g id="edge3" class="edge">
<title>Node1&#45;&gt;Node4</title>
<path fill="none" stroke="#63b8ff" d="M576,-164.54C576,-157.34 576,-148.53 576,-140.68"/>
<polygon fill="#63b8ff" stroke="#63b8ff" points="579.5,-140.69 576,-130.69 572.5,-140.69 579.5,-140.69"/>
</g>
<!-- Node4&#45;&gt;Node2 -->
<g id="edge5" class="edge">
<title>Node4&#45;&gt;Node2</title>
<path fill="none" stroke="#63b8ff" d="M538.7,-118.5C465.23,-117.62 297.19,-111.29 162,-74 120.48,-62.55 75.77,-39.86 48.84,-24.94"/>
<polygon fill="#63b8ff" stroke="#63b8ff" points="50.85,-22.06 40.42,-20.19 47.41,-28.15 50.85,-22.06"/>
</g>
<!-- Node5 -->
<g id="node5" class="node">
<title>Node5</title>
<g id="a_node5"><a xlink:title=" ">
<polygon fill="#e0e0e0" stroke="#999999" points="456,-19 410,-19 410,0 456,0 456,-19"/>
<text text-anchor="middle" x="433" y="-7" font-family="Helvetica,sans-Serif" font-size="10.00">stdio.h</text>
</a>
</g>
</g>
<!-- Node4&#45;&gt;Node5 -->
<g id="edge4" class="edge">
<title>Node4&#45;&gt;Node5</title>
<path fill="none" stroke="#63b8ff" d="M538.7,-113.23C496.74,-106.44 432.54,-93.2 418,-74 408.18,-61.03 414.1,-42.63 421.19,-28.97"/>
<polygon fill="#63b8ff" stroke="#63b8ff" points="424.09,-30.94 426.08,-20.54 418.04,-27.43 424.09,-30.94"/>
</g>
<!-- Node6 -->
<g id="node6" class="node">
<title>Node6</title>
<g id="a_node6"><a xlink:title=" ">
<polygon fill="#e0e0e0" stroke="#999999" points="370.5,-74 321.5,-74 321.5,-55 370.5,-55 370.5,-74"/>
<text text-anchor="middle" x="346" y="-62" font-family="Helvetica,sans-Serif" font-size="10.00">stdint.h</text>
</a>
</g>
</g>
<!-- Node4&#45;&gt;Node6 -->
<g id="edge6" class="edge">
<title>Node4&#45;&gt;Node6</title>
<path fill="none" stroke="#63b8ff" d="M538.53,-109.87C495.16,-99.87 424.24,-83.53 381.65,-73.71"/>
<polygon fill="#63b8ff" stroke="#63b8ff" points="382.7,-70.36 372.17,-71.53 381.13,-77.19 382.7,-70.36"/>
</g>
<!-- Node7 -->
<g id="node7" class="node">
<title>Node7</title>
<g id="a_node7"><a xlink:title=" ">
<polygon fill="#e0e0e0" stroke="#999999" points="391.5,-19 342.5,-19 342.5,0 391.5,0 391.5,-19"/>
<text text-anchor="middle" x="367" y="-7" font-family="Helvetica,sans-Serif" font-size="10.00">string.h</text>
</a>
</g>
</g>
<!-- Node4&#45;&gt;Node7 -->
<g id="edge7" class="edge">
<title>Node4&#45;&gt;Node7</title>
<path fill="none" stroke="#63b8ff" d="M538.61,-117.89C472.82,-115.94 340.59,-107.81 312,-74 297.76,-57.16 319.54,-38.05 339.76,-25.23"/>
<polygon fill="#63b8ff" stroke="#63b8ff" points="341.3,-28.39 348.09,-20.26 337.71,-22.38 341.3,-28.39"/>
</g>
<!-- Node8 -->
<g id="node8" class="node">
<title>Node8</title>
<g id="a_node8"><a xlink:title=" ">
<polygon fill="#e0e0e0" stroke="#999999" points="884,-19 792,-19 792,0 884,0 884,-19"/>
<text text-anchor="middle" x="838" y="-7" font-family="Helvetica,sans-Serif" font-size="10.00">ARX/AR/config.h</text>
</a>
</g>
</g>
<!-- Node4&#45;&gt;Node8 -->
<g id="edge8" class="edge">
<title>Node4&#45;&gt;Node8</title>
<path fill="none" stroke="#63b8ff" d="M613.31,-118.99C688.22,-119.08 852.82,-114.56 888,-74 901.94,-57.93 881.84,-38.63 863.13,-25.56"/>
<polygon fill="#63b8ff" stroke="#63b8ff" points="865.2,-22.73 854.92,-20.17 861.36,-28.58 865.2,-22.73"/>
</g>
<!-- Node9 -->
<g id="node9" class="node">
<title>Node9</title>
<g id="a_node9"><a xlink:href="ar_config_8h.html" target="_top" xlink:title=" ">
<polygon fill="white" stroke="#666666" points="627.5,-74 524.5,-74 524.5,-55 627.5,-55 627.5,-74"/>
<text text-anchor="middle" x="576" y="-62" font-family="Helvetica,sans-Serif" font-size="10.00">ARX/AR/arConfig.h</text>
</a>
</g>
</g>
<!-- Node4&#45;&gt;Node9 -->
<g id="edge9" class="edge">
<title>Node4&#45;&gt;Node9</title>
<path fill="none" stroke="#63b8ff" d="M576,-109.75C576,-103.27 576,-94.16 576,-85.9"/>
<polygon fill="#63b8ff" stroke="#63b8ff" points="579.5,-85.96 576,-75.96 572.5,-85.96 579.5,-85.96"/>
</g>
<!-- Node10 -->
<g id="node10" class="node">
<title>Node10</title>
<g id="a_node10"><a xlink:href="log_8h.html" target="_top" xlink:title="Logging utilities.">
<polygon fill="white" stroke="#666666" points="265,-74 171,-74 171,-55 265,-55 265,-74"/>
<text text-anchor="middle" x="218" y="-62" font-family="Helvetica,sans-Serif" font-size="10.00">ARX/ARUtil/log.h</text>
</a>
</g>
</g>
<!-- Node4&#45;&gt;Node10 -->
<g id="edge10" class="edge">
<title>Node4&#45;&gt;Node10</title>
<path fill="none" stroke="#63b8ff" d="M538.7,-112.98C476.36,-103.75 350.53,-85.12 276.37,-74.14"/>
<polygon fill="#63b8ff" stroke="#63b8ff" points="277.27,-70.74 266.87,-72.73 276.25,-77.66 277.27,-70.74"/>
</g>
<!-- Node14 -->
<g id="node14" class="node">
<title>Node14</title>
<g id="a_node14"><a xlink:href="matrix_8h.html" target="_top" xlink:title=" ">
<polygon fill="white" stroke="#666666" points="1029.5,-74 936.5,-74 936.5,-55 1029.5,-55 1029.5,-74"/>
<text text-anchor="middle" x="983" y="-62" font-family="Helvetica,sans-Serif" font-size="10.00">ARX/AR/matrix.h</text>
</a>
</g>
</g>
<!-- Node4&#45;&gt;Node14 -->
<g id="edge17" class="edge">
<title>Node4&#45;&gt;Node14</title>
<path fill="none" stroke="#63b8ff" d="M613.39,-113.82C676.87,-105.85 809.75,-89.04 922,-74 923,-73.87 924,-73.73 925.02,-73.59"/>
<polygon fill="#63b8ff" stroke="#63b8ff" points="925.11,-77.11 934.55,-72.3 924.17,-70.18 925.11,-77.11"/>
</g>
<!-- Node15 -->
<g id="node15" class="node">
<title>Node15</title>
<g id="a_node15"><a xlink:href="icp_8h.html" target="_top" xlink:title=" ">
<polygon fill="white" stroke="#666666" points="506.5,-74 427.5,-74 427.5,-55 506.5,-55 506.5,-74"/>
<text text-anchor="middle" x="467" y="-62" font-family="Helvetica,sans-Serif" font-size="10.00">ARX/AR/icp.h</text>
</a>
</g>
</g>
<!-- Node4&#45;&gt;Node15 -->
<g id="edge19" class="edge">
<title>Node4&#45;&gt;Node15</title>
<path fill="none" stroke="#63b8ff" d="M557.51,-109.51C540.5,-101.24 515.01,-88.84 495.41,-79.31"/>
<polygon fill="#63b8ff" stroke="#63b8ff" points="497.1,-76.25 486.58,-75.02 494.04,-82.54 497.1,-76.25"/>
</g>
<!-- Node17 -->
<g id="node17" class="node">
<title>Node17</title>
<g id="a_node17"><a xlink:href="param_8h.html" target="_top" xlink:title="artoolkitX functions for handling calibrated camera parameters.">
<polygon fill="white" stroke="#666666" points="879.5,-74 786.5,-74 786.5,-55 879.5,-55 879.5,-74"/>
<text text-anchor="middle" x="833" y="-62" font-family="Helvetica,sans-Serif" font-size="10.00">ARX/AR/param.h</text>
</a>
</g>
</g>
<!-- Node4&#45;&gt;Node17 -->
<g id="edge22" class="edge">
<title>Node4&#45;&gt;Node17</title>
<path fill="none" stroke="#63b8ff" d="M613.27,-109.75C655.74,-100.58 725.47,-86.18 775.03,-76.31"/>
<polygon fill="#63b8ff" stroke="#63b8ff" points="775.61,-79.76 784.74,-74.38 774.25,-72.9 775.61,-79.76"/>
</g>
<!-- Node18 -->
<g id="node18" class="node">
<title>Node18</title>
<g id="a_node18"><a xlink:href="ar_image_proc_8h.html" target="_top" xlink:title="artoolkitX functions for 2D luminance image processing.">
<polygon fill="white" stroke="#666666" points="768,-74 646,-74 646,-55 768,-55 768,-74"/>
<text text-anchor="middle" x="707" y="-62" font-family="Helvetica,sans-Serif" font-size="10.00">ARX/AR/arImageProc.h</text>
</a>
</g>
</g>
<!-- Node4&#45;&gt;Node18 -->
<g id="edge24" class="edge">
<title>Node4&#45;&gt;Node18</title>
<path fill="none" stroke="#63b8ff" d="M593.01,-109.51C612.33,-100.97 644.07,-88.03 669.24,-78.4"/>
<polygon fill="#63b8ff" stroke="#63b8ff" points="670.39,-81.7 678.5,-74.89 667.91,-75.16 670.39,-81.7"/>
</g>
<!-- Node10&#45;&gt;Node2 -->
<g id="edge12" class="edge">
<title>Node10&#45;&gt;Node2</title>
<path fill="none" stroke="#63b8ff" d="M185.09,-54.51C150.17,-44.97 95.19,-29.95 59.36,-20.16"/>
<polygon fill="#63b8ff" stroke="#63b8ff" points="60.48,-16.84 49.91,-17.58 58.63,-23.59 60.48,-16.84"/>
</g>
<!-- Node10&#45;&gt;Node5 -->
<g id="edge11" class="edge">
<title>Node10&#45;&gt;Node5</title>
<path fill="none" stroke="#63b8ff" d="M255.33,-54.51C289.84,-46.18 342.85,-33.29 398.43,-19.37"/>
<polygon fill="#63b8ff" stroke="#63b8ff" points="399.26,-22.77 408.11,-16.94 397.55,-15.98 399.26,-22.77"/>
</g>
<!-- Node10&#45;&gt;Node7 -->
<g id="edge13" class="edge">
<title>Node10&#45;&gt;Node7</title>
<path fill="none" stroke="#63b8ff" d="M243.28,-54.51C267.5,-45.89 304.3,-32.8 331.47,-23.14"/>
<polygon fill="#63b8ff" stroke="#63b8ff" points="332.42,-26.51 340.67,-19.87 330.08,-19.92 332.42,-26.51"/>
</g>
<!-- Node11 -->
<g id="node11" class="node">
<title>Node11</title>
<g id="a_node11"><a xlink:title=" ">
<polygon fill="#e0e0e0" stroke="#999999" points="118,-19 66,-19 66,0 118,0 118,-19"/>
<text text-anchor="middle" x="92" y="-7" font-family="Helvetica,sans-Serif" font-size="10.00">stdarg.h</text>
</a>
</g>
</g>
<!-- Node10&#45;&gt;Node11 -->
<g id="edge14" class="edge">
<title>Node10&#45;&gt;Node11</title>
<path fill="none" stroke="#63b8ff" d="M196.63,-54.51C176.59,-46.08 146.4,-33.38 123.59,-23.79"/>
<polygon fill="#63b8ff" stroke="#63b8ff" points="125.03,-20.6 114.45,-19.94 122.31,-27.05 125.03,-20.6"/>
</g>
<!-- Node12 -->
<g id="node12" class="node">
<title>Node12</title>
<g id="a_node12"><a xlink:title=" ">
<polygon fill="#e0e0e0" stroke="#999999" points="201.5,-19 136.5,-19 136.5,0 201.5,0 201.5,-19"/>
<text text-anchor="middle" x="169" y="-7" font-family="Helvetica,sans-Serif" font-size="10.00">sys/errno.h</text>
</a>
</g>
</g>
<!-- Node10&#45;&gt;Node12 -->
<g id="edge15" class="edge">
<title>Node10&#45;&gt;Node12</title>
<path fill="none" stroke="#63b8ff" d="M209.91,-54.75C203.14,-47.43 193.28,-36.76 184.94,-27.74"/>
<polygon fill="#63b8ff" stroke="#63b8ff" points="187.65,-25.52 178.29,-20.55 182.51,-30.27 187.65,-25.52"/>
</g>
<!-- Node13 -->
<g id="node13" class="node">
<title>Node13</title>
<g id="a_node13"><a xlink:href="types_8h.html" target="_top" xlink:title=" ">
<polygon fill="white" stroke="#666666" points="324.5,-19 219.5,-19 219.5,0 324.5,0 324.5,-19"/>
<text text-anchor="middle" x="272" y="-7" font-family="Helvetica,sans-Serif" font-size="10.00">ARX/ARUtil/types.h</text>
</a>
</g>
</g>
<!-- Node10&#45;&gt;Node13 -->
<g id="edge16" class="edge">
<title>Node10&#45;&gt;Node13</title>
<path fill="none" stroke="#63b8ff" d="M226.92,-54.75C234.45,-47.35 245.47,-36.54 254.73,-27.45"/>
<polygon fill="#63b8ff" stroke="#63b8ff" points="257.12,-30 261.81,-20.5 252.22,-25.01 257.12,-30"/>
</g>
<!-- Node14&#45;&gt;Node3 -->
<g id="edge18" class="edge">
<title>Node14&#45;&gt;Node3</title>
<path fill="none" stroke="#63b8ff" d="M989.11,-54.75C994.01,-47.73 1001.05,-37.64 1007.17,-28.87"/>
<polygon fill="#63b8ff" stroke="#63b8ff" points="1010.04,-30.89 1012.89,-20.68 1004.3,-26.88 1010.04,-30.89"/>
</g>
<!-- Node15&#45;&gt;Node5 -->
<g id="edge20" class="edge">
<title>Node15&#45;&gt;Node5</title>
<path fill="none" stroke="#63b8ff" d="M461.39,-54.75C456.88,-47.73 450.41,-37.64 444.79,-28.87"/>
<polygon fill="#63b8ff" stroke="#63b8ff" points="447.9,-27.24 439.55,-20.72 442.01,-31.02 447.9,-27.24"/>
</g>
<!-- Node16 -->
<g id="node16" class="node">
<title>Node16</title>
<g id="a_node16"><a xlink:href="icp_core_8h.html" target="_top" xlink:title=" ">
<polygon fill="white" stroke="#666666" points="574,-19 474,-19 474,0 574,0 574,-19"/>
<text text-anchor="middle" x="524" y="-7" font-family="Helvetica,sans-Serif" font-size="10.00">ARX/AR/icpCore.h</text>
</a>
</g>
</g>
<!-- Node15&#45;&gt;Node16 -->
<g id="edge21" class="edge">
<title>Node15&#45;&gt;Node16</title>
<path fill="none" stroke="#63b8ff" d="M476.67,-54.51C484.74,-47 496.47,-36.1 506.22,-27.03"/>
<polygon fill="#63b8ff" stroke="#63b8ff" points="508.43,-29.76 513.37,-20.39 503.66,-24.63 508.43,-29.76"/>
</g>
<!-- Node17&#45;&gt;Node4 -->
<g id="edge23" class="edge">
<title>Node17&#45;&gt;Node4</title>
<path fill="none" stroke="#63b8ff" d="M794.88,-74.44C749.54,-84.21 674.02,-99.78 624.56,-109.56"/>
<polygon fill="#63b8ff" stroke="#63b8ff" points="624.12,-106.08 614.98,-111.44 625.47,-112.95 624.12,-106.08"/>
</g>
<!-- Node18&#45;&gt;Node4 -->
<g id="edge26" class="edge">
<title>Node18&#45;&gt;Node4</title>
<path fill="none" stroke="#63b8ff" d="M690.29,-74.36C671.1,-82.85 639.39,-95.78 614.15,-105.45"/>
<polygon fill="#63b8ff" stroke="#63b8ff" points="612.97,-102.16 604.85,-108.97 615.45,-108.71 612.97,-102.16"/>
</g>
<!-- Node18&#45;&gt;Node8 -->
<g id="edge25" class="edge">
<title>Node18&#45;&gt;Node8</title>
<path fill="none" stroke="#63b8ff" d="M729.22,-54.51C750.14,-46.04 781.73,-33.27 805.48,-23.66"/>
<polygon fill="#63b8ff" stroke="#63b8ff" points="806.75,-26.92 814.7,-19.93 804.12,-20.43 806.75,-26.92"/>
</g>
</g>
</svg>
