<?xml version="1.0" encoding="UTF-8" standalone="no"?>
<!DOCTYPE svg PUBLIC "-//W3C//DTD SVG 1.1//EN"
 "http://www.w3.org/Graphics/SVG/1.1/DTD/svg11.dtd">
<!-- Generated by graphviz version 7.0.5 (20221223.1930)
 -->
<!-- Title: arGetTransMat Pages: 1 -->
<!--zoomable 233 -->
<svg id="main" version="1.1" xmlns="http://www.w3.org/2000/svg" xmlns:xlink="http://www.w3.org/1999/xlink" xml:space="preserve" onload="init(evt)">
<style type="text/css"><![CDATA[
.edge:hover path { stroke: red; }
.edge:hover polygon { stroke: red; fill: red; }
]]></style>
<script type="text/javascript"><![CDATA[
var edges = document.getElementsByTagName('g');
if (edges && edges.length) {
  for (var i=0;i<edges.length;i++) {
    if (edges[i].id.substr(0,4)=='edge') {
      edges[i].setAttribute('class','edge');
    }
  }
}
]]></script>
        <defs>
                <circle id="rim" cx="0" cy="0" r="7"/>
                <circle id="rim2" cx="0" cy="0" r="3.5"/>
                <g id="zoomPlus">
                        <use xlink:href="#rim" fill="#404040">
                                <set attributeName="fill" to="#808080" begin="zoomplus.mouseover" end="zoomplus.mouseout"/>
                        </use>
                        <path d="M-4,0h8M0,-4v8" fill="none" stroke="white" stroke-width="1.5" pointer-events="none"/>
                </g>
                <g id="zoomMin">
                        <use xlink:href="#rim" fill="#404040">
                                <set attributeName="fill" to="#808080" begin="zoomminus.mouseover" end="zoomminus.mouseout"/>
                        </use>
                        <path d="M-4,0h8" fill="none" stroke="white" stroke-width="1.5" pointer-events="none"/>
                </g>
                <g id="dirArrow">
                        <path fill="none" stroke="white" stroke-width="1.5" d="M0,-3.0v7 M-2.5,-0.5L0,-3.0L2.5,-0.5"/>
                </g>
               <g id="resetDef">
                       <use xlink:href="#rim2" fill="#404040">
                               <set attributeName="fill" to="#808080" begin="reset.mouseover" end="reset.mouseout"/>
                       </use>
               </g>
        </defs>

<script type="text/javascript">
var viewWidth = 607;
var viewHeight = 233;
var sectionId = 'dynsection-1';
</script>
<script xlink:href="svgpan.js"/>
<svg id="graph" class="graph">
<g id="viewport">
<title>arGetTransMat</title>
<!-- Node1 -->
<g id="node1" class="node">
<title>Node1</title>
<g id="a_node1"><a xlink:title="(description)">
<polygon fill="#999999" stroke="#666666" points="82,-93 0,-93 0,-74 82,-74 82,-93"/>
<text text-anchor="middle" x="41" y="-81" font-family="Helvetica,sans-Serif" font-size="10.00">arGetTransMat</text>
</a>
</g>
</g>
<!-- Node2 -->
<g id="node2" class="node">
<title>Node2</title>
<g id="a_node2"><a xlink:href="icp_point_8c.html#a466204966df0b17ea76bd05a3d396307" target="_top" xlink:title=" ">
<polygon fill="white" stroke="#666666" points="170,-93 118,-93 118,-74 170,-74 170,-93"/>
<text text-anchor="middle" x="144" y="-81" font-family="Helvetica,sans-Serif" font-size="10.00">icpPoint</text>
</a>
</g>
</g>
<!-- Node1&#45;&gt;Node2 -->
<g id="edge1" class="edge">
<title>Node1&#45;&gt;Node2</title>
<path fill="none" stroke="#63b8ff" d="M82.5,-83.5C90.37,-83.5 98.58,-83.5 106.32,-83.5"/>
<polygon fill="#63b8ff" stroke="#63b8ff" points="106.09,-87 116.09,-83.5 106.09,-80 106.09,-87"/>
</g>
<!-- Node3 -->
<g id="node3" class="node">
<title>Node3</title>
<g id="a_node3"><a xlink:href="ar_util_8c.html#ae28eeba3e16224a7d77b46bd34b8f4fe" target="_top" xlink:title=" ">
<polygon fill="white" stroke="#666666" points="315,-167 243,-167 243,-148 315,-148 315,-167"/>
<text text-anchor="middle" x="279" y="-155" font-family="Helvetica,sans-Serif" font-size="10.00">arUtilMatMul</text>
</a>
</g>
</g>
<!-- Node2&#45;&gt;Node3 -->
<g id="edge2" class="edge">
<title>Node2&#45;&gt;Node3</title>
<path fill="none" stroke="#63b8ff" d="M153.05,-93.18C163.84,-105.53 184.18,-126.69 206,-138.5 213.92,-142.78 222.85,-146.14 231.66,-148.76"/>
<polygon fill="#63b8ff" stroke="#63b8ff" points="230.65,-152.11 241.21,-151.31 232.45,-145.35 230.65,-152.11"/>
</g>
<!-- Node4 -->
<g id="node4" class="node">
<title>Node4</title>
<g id="a_node4"><a xlink:href="icp_core_8c.html#a4906398b4594d29ab8035b4016a7e9de" target="_top" xlink:title=" ">
<polygon fill="white" stroke="#666666" points="316.5,-130 241.5,-130 241.5,-111 316.5,-111 316.5,-130"/>
<text text-anchor="middle" x="279" y="-118" font-family="Helvetica,sans-Serif" font-size="10.00">icpGetDeltaS</text>
</a>
</g>
</g>
<!-- Node2&#45;&gt;Node4 -->
<g id="edge3" class="edge">
<title>Node2&#45;&gt;Node4</title>
<path fill="none" stroke="#63b8ff" d="M170.48,-91.2C181.39,-94.45 194.3,-98.23 206,-101.5 213.88,-103.7 222.25,-105.97 230.41,-108.15"/>
<polygon fill="#63b8ff" stroke="#63b8ff" points="229.29,-111.47 239.85,-110.65 231.08,-104.71 229.29,-111.47"/>
</g>
<!-- Node13 -->
<g id="node13" class="node">
<title>Node13</title>
<g id="a_node13"><a xlink:href="icp_core_8c.html#ac384ca6737fdee325d58740d665eda0a" target="_top" xlink:title=" ">
<polygon fill="white" stroke="#666666" points="316.5,-93 241.5,-93 241.5,-74 316.5,-74 316.5,-93"/>
<text text-anchor="middle" x="279" y="-81" font-family="Helvetica,sans-Serif" font-size="10.00">icpGetJ_U_S</text>
</a>
</g>
</g>
<!-- Node2&#45;&gt;Node13 -->
<g id="edge16" class="edge">
<title>Node2&#45;&gt;Node13</title>
<path fill="none" stroke="#63b8ff" d="M170.33,-83.5C187.09,-83.5 209.6,-83.5 229.7,-83.5"/>
<polygon fill="#63b8ff" stroke="#63b8ff" points="229.69,-87 239.69,-83.5 229.69,-80 229.69,-87"/>
</g>
<!-- Node14 -->
<g id="node14" class="node">
<title>Node14</title>
<g id="a_node14"><a xlink:href="icp_core_8c.html#aceeb3fd72a762c2078d8fb88ec03ccfb" target="_top" xlink:title=" ">
<polygon fill="white" stroke="#666666" points="352,-56 206,-56 206,-37 352,-37 352,-56"/>
<text text-anchor="middle" x="279" y="-44" font-family="Helvetica,sans-Serif" font-size="10.00">icpGetU_from_X_by_MatX2U</text>
</a>
</g>
</g>
<!-- Node2&#45;&gt;Node14 -->
<g id="edge17" class="edge">
<title>Node2&#45;&gt;Node14</title>
<path fill="none" stroke="#63b8ff" d="M170.43,-75.22C181.34,-71.77 194.25,-67.8 206,-64.5 212.28,-62.74 218.89,-60.97 225.45,-59.27"/>
<polygon fill="#63b8ff" stroke="#63b8ff" points="226.1,-62.71 234.93,-56.85 224.37,-55.93 226.1,-62.71"/>
</g>
<!-- Node15 -->
<g id="node15" class="node">
<title>Node15</title>
<g id="a_node15"><a xlink:href="icp_core_8c.html#a94201124387610a46b975cdb9d8a1db6" target="_top" xlink:title=" ">
<polygon fill="white" stroke="#666666" points="317.5,-19 240.5,-19 240.5,0 317.5,0 317.5,-19"/>
<text text-anchor="middle" x="279" y="-7" font-family="Helvetica,sans-Serif" font-size="10.00">icpUpdateMat</text>
</a>
</g>
</g>
<!-- Node2&#45;&gt;Node15 -->
<g id="edge18" class="edge">
<title>Node2&#45;&gt;Node15</title>
<path fill="none" stroke="#63b8ff" d="M152.99,-73.59C163.71,-60.97 183.97,-39.36 206,-27.5 213.09,-23.68 221.02,-20.65 228.94,-18.26"/>
<polygon fill="#63b8ff" stroke="#63b8ff" points="229.85,-21.64 238.6,-15.67 228.04,-14.88 229.85,-21.64"/>
</g>
<!-- Node5 -->
<g id="node5" class="node">
<title>Node5</title>
<g id="a_node5"><a xlink:href="m_alloc_mul_8c.html#a8e99293b68c38ce8a8d1920884d69f73" target="_top" xlink:title=" ">
<polygon fill="white" stroke="#666666" points="481.5,-149 392.5,-149 392.5,-130 481.5,-130 481.5,-149"/>
<text text-anchor="middle" x="437" y="-137" font-family="Helvetica,sans-Serif" font-size="10.00">arMatrixAllocMul</text>
</a>
</g>
</g>
<!-- Node4&#45;&gt;Node5 -->
<g id="edge4" class="edge">
<title>Node4&#45;&gt;Node5</title>
<path fill="none" stroke="#63b8ff" d="M316.97,-125C336.06,-127.33 359.74,-130.21 380.94,-132.79"/>
<polygon fill="#63b8ff" stroke="#63b8ff" points="380.24,-136.23 390.59,-133.97 381.08,-129.29 380.24,-136.23"/>
</g>
<!-- Node7 -->
<g id="node7" class="node">
<title>Node7</title>
<g id="a_node7"><a xlink:href="m_free_8c.html#ac4b7a714cce9fffda773d86363380454" target="_top" xlink:title=" ">
<polygon fill="white" stroke="#666666" points="596,-187 525,-187 525,-168 596,-168 596,-187"/>
<text text-anchor="middle" x="560.5" y="-175" font-family="Helvetica,sans-Serif" font-size="10.00">arMatrixFree</text>
</a>
</g>
</g>
<!-- Node4&#45;&gt;Node7 -->
<g id="edge13" class="edge">
<title>Node4&#45;&gt;Node7</title>
<path fill="none" stroke="#63b8ff" d="M316.79,-127.89C328.25,-130.67 340.81,-134.22 352,-138.5 368.9,-144.96 370.72,-152.14 388,-157.5 429.16,-170.27 478.17,-175 513.23,-176.7"/>
<polygon fill="#63b8ff" stroke="#63b8ff" points="512.91,-180.19 523.05,-177.11 513.2,-173.2 512.91,-180.19"/>
</g>
<!-- Node8 -->
<g id="node8" class="node">
<title>Node8</title>
<g id="a_node8"><a xlink:href="m_mul_8c.html#a202bc2db43d563792c99e852ea0b7ba4" target="_top" xlink:title=" ">
<polygon fill="white" stroke="#666666" points="594.5,-112 526.5,-112 526.5,-93 594.5,-93 594.5,-112"/>
<text text-anchor="middle" x="560.5" y="-100" font-family="Helvetica,sans-Serif" font-size="10.00">arMatrixMul</text>
</a>
</g>
</g>
<!-- Node4&#45;&gt;Node8 -->
<g id="edge14" class="edge">
<title>Node4&#45;&gt;Node8</title>
<path fill="none" stroke="#63b8ff" d="M316.83,-118.13C367.79,-114.85 459.72,-108.93 514.63,-105.39"/>
<polygon fill="#63b8ff" stroke="#63b8ff" points="514.82,-108.88 524.57,-104.75 514.37,-101.9 514.82,-108.88"/>
</g>
<!-- Node9 -->
<g id="node9" class="node">
<title>Node9</title>
<g id="a_node9"><a xlink:href="m_alloc_trans_8c.html#a4e2bf8cd529487fb1ff4d0bbc52eee1e" target="_top" xlink:title=" ">
<polygon fill="white" stroke="#666666" points="486,-225 388,-225 388,-206 486,-206 486,-225"/>
<text text-anchor="middle" x="437" y="-213" font-family="Helvetica,sans-Serif" font-size="10.00">arMatrixAllocTrans</text>
</a>
</g>
</g>
<!-- Node4&#45;&gt;Node9 -->
<g id="edge8" class="edge">
<title>Node4&#45;&gt;Node9</title>
<path fill="none" stroke="#63b8ff" d="M316.96,-124.43C328.93,-127.03 341.75,-131.34 352,-138.5 375.35,-154.8 366.57,-172.75 388,-191.5 391.63,-194.68 395.75,-197.55 400.02,-200.11"/>
<polygon fill="#63b8ff" stroke="#63b8ff" points="398.29,-203.15 408.75,-204.8 401.6,-196.99 398.29,-203.15"/>
</g>
<!-- Node11 -->
<g id="node11" class="node">
<title>Node11</title>
<g id="a_node11"><a xlink:href="m_disp_8c.html#a60f36997579d355f6030f872faad84a2" target="_top" xlink:title=" ">
<polygon fill="white" stroke="#666666" points="473,-73 401,-73 401,-54 473,-54 473,-73"/>
<text text-anchor="middle" x="437" y="-61" font-family="Helvetica,sans-Serif" font-size="10.00">arMatrixDisp</text>
</a>
</g>
</g>
<!-- Node4&#45;&gt;Node11 -->
<g id="edge12" class="edge">
<title>Node4&#45;&gt;Node11</title>
<path fill="none" stroke="#63b8ff" d="M316.99,-112C328.34,-109.06 340.79,-105.48 352,-101.5 370.5,-94.92 390.57,-85.92 406.44,-78.33"/>
<polygon fill="#63b8ff" stroke="#63b8ff" points="407.87,-81.53 415.33,-74.01 404.81,-75.24 407.87,-81.53"/>
</g>
<!-- Node12 -->
<g id="node12" class="node">
<title>Node12</title>
<g id="a_node12"><a xlink:href="m_self_inv_8c.html#a929738025b539a0c1bbd2f395ad4d981" target="_top" xlink:title=" ">
<polygon fill="white" stroke="#666666" points="478.5,-36 395.5,-36 395.5,-17 478.5,-17 478.5,-36"/>
<text text-anchor="middle" x="437" y="-24" font-family="Helvetica,sans-Serif" font-size="10.00">arMatrixSelfInv</text>
</a>
</g>
</g>
<!-- Node4&#45;&gt;Node12 -->
<g id="edge15" class="edge">
<title>Node4&#45;&gt;Node12</title>
<path fill="none" stroke="#63b8ff" d="M316.75,-116.28C328.84,-113.53 341.78,-108.99 352,-101.5 376.16,-83.78 364.76,-63.41 388,-44.5 389.13,-43.58 390.3,-42.71 391.52,-41.88"/>
<polygon fill="#63b8ff" stroke="#63b8ff" points="393.13,-44.99 400.14,-37.04 389.71,-38.88 393.13,-44.99"/>
</g>
<!-- Node6 -->
<g id="node6" class="node">
<title>Node6</title>
<g id="a_node6"><a xlink:href="m_alloc_8c.html#a69c9a974dc5a3963148ebb2c4a80f969" target="_top" xlink:title=" ">
<polygon fill="white" stroke="#666666" points="597.5,-149 523.5,-149 523.5,-130 597.5,-130 597.5,-149"/>
<text text-anchor="middle" x="560.5" y="-137" font-family="Helvetica,sans-Serif" font-size="10.00">arMatrixAlloc</text>
</a>
</g>
</g>
<!-- Node5&#45;&gt;Node6 -->
<g id="edge5" class="edge">
<title>Node5&#45;&gt;Node6</title>
<path fill="none" stroke="#63b8ff" d="M481.86,-139.5C491.64,-139.5 502.04,-139.5 511.95,-139.5"/>
<polygon fill="#63b8ff" stroke="#63b8ff" points="511.78,-143 521.78,-139.5 511.78,-136 511.78,-143"/>
</g>
<!-- Node5&#45;&gt;Node7 -->
<g id="edge6" class="edge">
<title>Node5&#45;&gt;Node7</title>
<path fill="none" stroke="#63b8ff" d="M469.92,-149.48C484.29,-153.98 501.47,-159.35 516.91,-164.18"/>
<polygon fill="#63b8ff" stroke="#63b8ff" points="515.76,-167.49 526.35,-167.13 517.85,-160.81 515.76,-167.49"/>
</g>
<!-- Node5&#45;&gt;Node8 -->
<g id="edge7" class="edge">
<title>Node5&#45;&gt;Node8</title>
<path fill="none" stroke="#63b8ff" d="M470.56,-129.58C484.59,-125.31 501.19,-120.26 516.23,-115.68"/>
<polygon fill="#63b8ff" stroke="#63b8ff" points="516.86,-119.15 525.4,-112.88 514.82,-112.45 516.86,-119.15"/>
</g>
<!-- Node9&#45;&gt;Node6 -->
<g id="edge9" class="edge">
<title>Node9&#45;&gt;Node6</title>
<path fill="none" stroke="#63b8ff" d="M451.33,-205.67C467.62,-193.86 496.19,-173.71 522,-158.5 524.15,-157.24 526.39,-155.97 528.66,-154.73"/>
<polygon fill="#63b8ff" stroke="#63b8ff" points="530.05,-157.95 537.28,-150.19 526.8,-151.75 530.05,-157.95"/>
</g>
<!-- Node9&#45;&gt;Node7 -->
<g id="edge10" class="edge">
<title>Node9&#45;&gt;Node7</title>
<path fill="none" stroke="#63b8ff" d="M469.92,-205.52C484.29,-201.02 501.47,-195.65 516.91,-190.82"/>
<polygon fill="#63b8ff" stroke="#63b8ff" points="517.85,-194.19 526.35,-187.87 515.76,-187.51 517.85,-194.19"/>
</g>
<!-- Node10 -->
<g id="node10" class="node">
<title>Node10</title>
<g id="a_node10"><a xlink:href="m_trans_8c.html#ad3d9712dd27f655902a8a3315e623d85" target="_top" xlink:title=" ">
<polygon fill="white" stroke="#666666" points="599,-225 522,-225 522,-206 599,-206 599,-225"/>
<text text-anchor="middle" x="560.5" y="-213" font-family="Helvetica,sans-Serif" font-size="10.00">arMatrixTrans</text>
</a>
</g>
</g>
<!-- Node9&#45;&gt;Node10 -->
<g id="edge11" class="edge">
<title>Node9&#45;&gt;Node10</title>
<path fill="none" stroke="#63b8ff" d="M486.37,-215.5C494.28,-215.5 502.49,-215.5 510.42,-215.5"/>
<polygon fill="#63b8ff" stroke="#63b8ff" points="510.26,-219 520.26,-215.5 510.26,-212 510.26,-219"/>
</g>
</g>
</svg>
        <g id="navigator" transform="translate(0 0)" fill="#404254">
                <rect fill="#f2f5e9" fill-opacity="0.5" stroke="#606060" stroke-width=".5" x="0" y="0" width="60" height="60"/>
                <use id="zoomplus" xlink:href="#zoomPlus" x="17" y="9" onmousedown="handleZoom(evt,'in')"/>
                <use id="zoomminus" xlink:href="#zoomMin" x="42" y="9" onmousedown="handleZoom(evt,'out')"/>
                <use id="reset" xlink:href="#resetDef" x="30" y="36" onmousedown="handleReset()"/>
                <g id="arrowUp" xlink:href="#dirArrow" transform="translate(30 24)" onmousedown="handlePan(0,-1)">
                  <use xlink:href="#rim" fill="#404040">
                        <set attributeName="fill" to="#808080" begin="arrowUp.mouseover" end="arrowUp.mouseout"/>
                  </use>
                  <path fill="none" stroke="white" stroke-width="1.5" d="M0,-3.0v7 M-2.5,-0.5L0,-3.0L2.5,-0.5"/>
                </g>
                <g id="arrowRight" xlink:href="#dirArrow" transform="rotate(90) translate(36 -43)" onmousedown="handlePan(1,0)">
                  <use xlink:href="#rim" fill="#404040">
                        <set attributeName="fill" to="#808080" begin="arrowRight.mouseover" end="arrowRight.mouseout"/>
                  </use>
                  <path fill="none" stroke="white" stroke-width="1.5" d="M0,-3.0v7 M-2.5,-0.5L0,-3.0L2.5,-0.5"/>
                </g>
                <g id="arrowDown" xlink:href="#dirArrow" transform="rotate(180) translate(-30 -48)" onmousedown="handlePan(0,1)">
                  <use xlink:href="#rim" fill="#404040">
                        <set attributeName="fill" to="#808080" begin="arrowDown.mouseover" end="arrowDown.mouseout"/>
                  </use>
                  <path fill="none" stroke="white" stroke-width="1.5" d="M0,-3.0v7 M-2.5,-0.5L0,-3.0L2.5,-0.5"/>
                </g>
                <g id="arrowLeft" xlink:href="#dirArrow" transform="rotate(270) translate(-36 17)" onmousedown="handlePan(-1,0)">
                  <use xlink:href="#rim" fill="#404040">
                        <set attributeName="fill" to="#808080" begin="arrowLeft.mouseover" end="arrowLeft.mouseout"/>
                  </use>
                  <path fill="none" stroke="white" stroke-width="1.5" d="M0,-3.0v7 M-2.5,-0.5L0,-3.0L2.5,-0.5"/>
                </g>
        </g>
        <svg viewBox="0 0 15 15" width="100%" height="30px" preserveAspectRatio="xMaxYMin meet">
         <g id="arrow_out" transform="scale(0.3 0.3)">
          <a xlink:href="ar_get_trans_mat_8c_aa2cf850d015cfd553e78ca8fe82b71d2_cgraph_org.svg" target="_base">
           <rect id="button" ry="5" rx="5" y="6" x="6" height="38" width="38"
                fill="#f2f5e9" fill-opacity="0.5" stroke="#606060" stroke-width="1.0"/>
           <path id="arrow"
             d="M 11.500037,31.436501 C 11.940474,20.09759 22.043105,11.32322 32.158766,21.979434 L 37.068811,17.246167 C 37.068811,17.246167 37.088388,32 37.088388,32 L 22.160133,31.978069 C 22.160133,31.978069 26.997745,27.140456 26.997745,27.140456 C 18.528582,18.264221 13.291696,25.230495 11.500037,31.436501 z"
             style="fill:#404040;"/>
          </a>
         </g>
        </svg>
</svg>
