<?xml version="1.0" encoding="UTF-8" standalone="no"?>
<!DOCTYPE svg PUBLIC "-//W3C//DTD SVG 1.1//EN"
 "http://www.w3.org/Graphics/SVG/1.1/DTD/svg11.dtd">
<!-- Generated by graphviz version 7.0.5 (20221223.1930)
 -->
<!-- Title: arGetMarkerInfo Pages: 1 -->
<!--zoomable 291 -->
<svg id="main" version="1.1" xmlns="http://www.w3.org/2000/svg" xmlns:xlink="http://www.w3.org/1999/xlink" xml:space="preserve" onload="init(evt)">
<style type="text/css"><![CDATA[
.edge:hover path { stroke: red; }
.edge:hover polygon { stroke: red; fill: red; }
]]></style>
<script type="text/javascript"><![CDATA[
var edges = document.getElementsByTagName('g');
if (edges && edges.length) {
  for (var i=0;i<edges.length;i++) {
    if (edges[i].id.substr(0,4)=='edge') {
      edges[i].setAttribute('class','edge');
    }
  }
}
]]></script>
        <defs>
                <circle id="rim" cx="0" cy="0" r="7"/>
                <circle id="rim2" cx="0" cy="0" r="3.5"/>
                <g id="zoomPlus">
                        <use xlink:href="#rim" fill="#404040">
                                <set attributeName="fill" to="#808080" begin="zoomplus.mouseover" end="zoomplus.mouseout"/>
                        </use>
                        <path d="M-4,0h8M0,-4v8" fill="none" stroke="white" stroke-width="1.5" pointer-events="none"/>
                </g>
                <g id="zoomMin">
                        <use xlink:href="#rim" fill="#404040">
                                <set attributeName="fill" to="#808080" begin="zoomminus.mouseover" end="zoomminus.mouseout"/>
                        </use>
                        <path d="M-4,0h8" fill="none" stroke="white" stroke-width="1.5" pointer-events="none"/>
                </g>
                <g id="dirArrow">
                        <path fill="none" stroke="white" stroke-width="1.5" d="M0,-3.0v7 M-2.5,-0.5L0,-3.0L2.5,-0.5"/>
                </g>
               <g id="resetDef">
                       <use xlink:href="#rim2" fill="#404040">
                               <set attributeName="fill" to="#808080" begin="reset.mouseover" end="reset.mouseout"/>
                       </use>
               </g>
        </defs>

<script type="text/javascript">
var viewWidth = 660;
var viewHeight = 291;
var sectionId = 'dynsection-1';
</script>
<script xlink:href="svgpan.js"/>
<svg id="graph" class="graph">
<g id="viewport">
<title>arGetMarkerInfo</title>
<!-- Node1 -->
<g id="node1" class="node">
<title>Node1</title>
<g id="a_node1"><a xlink:title="Examine a set of detected squares for match with known markers.">
<polygon fill="#999999" stroke="#666666" points="87,-57 0,-57 0,-38 87,-38 87,-57"/>
<text text-anchor="middle" x="43.5" y="-45" font-family="Helvetica,sans-Serif" font-size="10.00">arGetMarkerInfo</text>
</a>
</g>
</g>
<!-- Node2 -->
<g id="node2" class="node">
<title>Node2</title>
<g id="a_node2"><a xlink:href="ar_get_line_8c.html#a4edefe6026de468f8892a6359db67fbc" target="_top" xlink:title=" ">
<polygon fill="white" stroke="#666666" points="201,-151 142,-151 142,-132 201,-132 201,-151"/>
<text text-anchor="middle" x="171.5" y="-139" font-family="Helvetica,sans-Serif" font-size="10.00">arGetLine</text>
</a>
</g>
</g>
<!-- Node1&#45;&gt;Node2 -->
<g id="edge1" class="edge">
<title>Node1&#45;&gt;Node2</title>
<path fill="none" stroke="#63b8ff" d="M57.51,-57.21C78.92,-73.18 121.83,-105.19 148.17,-124.84"/>
<polygon fill="#63b8ff" stroke="#63b8ff" points="146.05,-127.63 156.16,-130.8 150.24,-122.02 146.05,-127.63"/>
</g>
<!-- Node8 -->
<g id="node8" class="node">
<title>Node8</title>
<g id="a_node8"><a xlink:href="param_l_t_8c.html#a7929844b3a3b321f49d5aca138bd3d0c" target="_top" xlink:title="Use a lookup&#45;table camera parameter to convert observed (distorted) window coordinates to idealised (...">
<polygon fill="white" stroke="#666666" points="381,-56 256,-56 256,-37 381,-37 381,-56"/>
<text text-anchor="middle" x="318.5" y="-44" font-family="Helvetica,sans-Serif" font-size="10.00">arParamObserv2IdealLTf</text>
</a>
</g>
</g>
<!-- Node1&#45;&gt;Node8 -->
<g id="edge13" class="edge">
<title>Node1&#45;&gt;Node8</title>
<path fill="none" stroke="#63b8ff" d="M87.46,-47.34C129.39,-47.19 194.01,-46.95 244.1,-46.77"/>
<polygon fill="#63b8ff" stroke="#63b8ff" points="244.02,-50.27 254.01,-46.73 244,-43.27 244.02,-50.27"/>
</g>
<!-- Node11 -->
<g id="node11" class="node">
<title>Node11</title>
<g id="a_node11"><a xlink:href="ar_patt_get_i_d_8c.html#acce963b8d7e85cedfcb4d33ece5f20db" target="_top" xlink:title="Match the interior of a detected square against known patterns with variable border width.">
<polygon fill="white" stroke="#666666" points="220,-19 123,-19 123,0 220,0 220,-19"/>
<text text-anchor="middle" x="171.5" y="-7" font-family="Helvetica,sans-Serif" font-size="10.00">arPattGetIDGlobal</text>
</a>
</g>
</g>
<!-- Node1&#45;&gt;Node11 -->
<g id="edge14" class="edge">
<title>Node1&#45;&gt;Node11</title>
<path fill="none" stroke="#63b8ff" d="M77.61,-37.52C92.65,-32.98 110.66,-27.55 126.8,-22.68"/>
<polygon fill="#63b8ff" stroke="#63b8ff" points="127.6,-26.09 136.17,-19.85 125.58,-19.39 127.6,-26.09"/>
</g>
<!-- Node3 -->
<g id="node3" class="node">
<title>Node3</title>
<g id="a_node3"><a xlink:href="m_alloc_8c.html#a69c9a974dc5a3963148ebb2c4a80f969" target="_top" xlink:title=" ">
<polygon fill="white" stroke="#666666" points="652,-207 578,-207 578,-188 652,-188 652,-207"/>
<text text-anchor="middle" x="615" y="-195" font-family="Helvetica,sans-Serif" font-size="10.00">arMatrixAlloc</text>
</a>
</g>
</g>
<!-- Node2&#45;&gt;Node3 -->
<g id="edge2" class="edge">
<title>Node2&#45;&gt;Node3</title>
<path fill="none" stroke="#63b8ff" d="M201.33,-148.86C217.35,-152.74 237.69,-157.34 256,-160.5 366.31,-179.5 497.53,-190.03 566.39,-194.64"/>
<polygon fill="#63b8ff" stroke="#63b8ff" points="565.98,-198.12 576.19,-195.28 566.44,-191.13 565.98,-198.12"/>
</g>
<!-- Node4 -->
<g id="node4" class="node">
<title>Node4</title>
<g id="a_node4"><a xlink:href="m_free_8c.html#ac4b7a714cce9fffda773d86363380454" target="_top" xlink:title=" ">
<polygon fill="white" stroke="#666666" points="650.5,-132 579.5,-132 579.5,-113 650.5,-113 650.5,-132"/>
<text text-anchor="middle" x="615" y="-120" font-family="Helvetica,sans-Serif" font-size="10.00">arMatrixFree</text>
</a>
</g>
</g>
<!-- Node2&#45;&gt;Node4 -->
<g id="edge3" class="edge">
<title>Node2&#45;&gt;Node4</title>
<path fill="none" stroke="#63b8ff" d="M201.24,-133.75C217.23,-129.83 237.57,-125.49 256,-123.5 367.43,-111.47 499.5,-115.89 567.85,-119.56"/>
<polygon fill="#63b8ff" stroke="#63b8ff" points="567.37,-123.03 577.54,-120.1 567.76,-116.05 567.37,-123.03"/>
</g>
<!-- Node5 -->
<g id="node5" class="node">
<title>Node5</title>
<g id="a_node5"><a xlink:href="m_p_c_a_8c.html#a04d062f49b83d57ac0dec5e906dfcd32" target="_top" xlink:title=" ">
<polygon fill="white" stroke="#666666" points="355,-151 282,-151 282,-132 355,-132 355,-151"/>
<text text-anchor="middle" x="318.5" y="-139" font-family="Helvetica,sans-Serif" font-size="10.00">arMatrixPCA</text>
</a>
</g>
</g>
<!-- Node2&#45;&gt;Node5 -->
<g id="edge4" class="edge">
<title>Node2&#45;&gt;Node5</title>
<path fill="none" stroke="#63b8ff" d="M201.49,-141.5C221.13,-141.5 247.52,-141.5 270.17,-141.5"/>
<polygon fill="#63b8ff" stroke="#63b8ff" points="270.11,-145 280.11,-141.5 270.11,-138 270.11,-145"/>
</g>
<!-- Node2&#45;&gt;Node8 -->
<g id="edge10" class="edge">
<title>Node2&#45;&gt;Node8</title>
<path fill="none" stroke="#63b8ff" d="M181.94,-131.58C196.61,-116.65 226.27,-88.26 256,-70.5 262.13,-66.84 268.93,-63.53 275.7,-60.63"/>
<polygon fill="#63b8ff" stroke="#63b8ff" points="276.83,-63.95 284.81,-56.98 274.23,-57.45 276.83,-63.95"/>
</g>
<!-- Node9 -->
<g id="node9" class="node">
<title>Node9</title>
<g id="a_node9"><a xlink:href="v_alloc_8c.html#a24a15cbbf606806e8a494f4943fb12fe" target="_top" xlink:title=" ">
<polygon fill="white" stroke="#666666" points="350.5,-283 286.5,-283 286.5,-264 350.5,-264 350.5,-283"/>
<text text-anchor="middle" x="318.5" y="-271" font-family="Helvetica,sans-Serif" font-size="10.00">arVecAlloc</text>
</a>
</g>
</g>
<!-- Node2&#45;&gt;Node9 -->
<g id="edge11" class="edge">
<title>Node2&#45;&gt;Node9</title>
<path fill="none" stroke="#63b8ff" d="M176.97,-151.43C187.46,-173.59 215.83,-227.32 256,-255.5 261.8,-259.57 268.51,-262.72 275.34,-265.17"/>
<polygon fill="#63b8ff" stroke="#63b8ff" points="273.99,-268.42 284.58,-268.02 276.05,-261.73 273.99,-268.42"/>
</g>
<!-- Node10 -->
<g id="node10" class="node">
<title>Node10</title>
<g id="a_node10"><a xlink:href="v_free_8c.html#a08c0d02dd8ddfb8a05d07f3fb80db2c4" target="_top" xlink:title=" ">
<polygon fill="white" stroke="#666666" points="349.5,-246 287.5,-246 287.5,-227 349.5,-227 349.5,-246"/>
<text text-anchor="middle" x="318.5" y="-234" font-family="Helvetica,sans-Serif" font-size="10.00">arVecFree</text>
</a>
</g>
</g>
<!-- Node2&#45;&gt;Node10 -->
<g id="edge12" class="edge">
<title>Node2&#45;&gt;Node10</title>
<path fill="none" stroke="#63b8ff" d="M181.94,-151.42C196.61,-166.35 226.27,-194.74 256,-212.5 262.48,-216.37 269.69,-219.84 276.84,-222.85"/>
<polygon fill="#63b8ff" stroke="#63b8ff" points="275.16,-225.95 285.75,-226.38 277.74,-219.45 275.16,-225.95"/>
</g>
<!-- Node5&#45;&gt;Node4 -->
<g id="edge9" class="edge">
<title>Node5&#45;&gt;Node4</title>
<path fill="none" stroke="#63b8ff" d="M355.32,-139.19C408.78,-135.74 509.43,-129.25 568.18,-125.46"/>
<polygon fill="#63b8ff" stroke="#63b8ff" points="568.08,-128.97 577.83,-124.83 567.63,-121.98 568.08,-128.97"/>
</g>
<!-- Node6 -->
<g id="node6" class="node">
<title>Node6</title>
<g id="a_node6"><a xlink:href="m_alloc_dup_8c.html#ace5d8c6eb6524469fbc3770081658081" target="_top" xlink:title=" ">
<polygon fill="white" stroke="#666666" points="525.5,-170 433.5,-170 433.5,-151 525.5,-151 525.5,-170"/>
<text text-anchor="middle" x="479.5" y="-158" font-family="Helvetica,sans-Serif" font-size="10.00">arMatrixAllocDup</text>
</a>
</g>
</g>
<!-- Node5&#45;&gt;Node6 -->
<g id="edge5" class="edge">
<title>Node5&#45;&gt;Node6</title>
<path fill="none" stroke="#63b8ff" d="M355.18,-145.76C374.83,-148.11 399.67,-151.08 421.9,-153.74"/>
<polygon fill="#63b8ff" stroke="#63b8ff" points="421.4,-157.2 431.74,-154.91 422.23,-150.25 421.4,-157.2"/>
</g>
<!-- Node6&#45;&gt;Node3 -->
<g id="edge6" class="edge">
<title>Node6&#45;&gt;Node3</title>
<path fill="none" stroke="#63b8ff" d="M516.28,-170.42C531.99,-174.77 550.64,-179.94 567.42,-184.59"/>
<polygon fill="#63b8ff" stroke="#63b8ff" points="566.1,-187.85 576.67,-187.15 567.97,-181.11 566.1,-187.85"/>
</g>
<!-- Node6&#45;&gt;Node4 -->
<g id="edge8" class="edge">
<title>Node6&#45;&gt;Node4</title>
<path fill="none" stroke="#63b8ff" d="M515.58,-150.52C531.67,-145.93 550.97,-140.44 568.19,-135.54"/>
<polygon fill="#63b8ff" stroke="#63b8ff" points="569.04,-138.94 577.7,-132.83 567.13,-132.2 569.04,-138.94"/>
</g>
<!-- Node7 -->
<g id="node7" class="node">
<title>Node7</title>
<g id="a_node7"><a xlink:href="m_dup_8c.html#a988e4c76394edccbf1e86005b97f725a" target="_top" xlink:title=" ">
<polygon fill="white" stroke="#666666" points="650,-170 580,-170 580,-151 650,-151 650,-170"/>
<text text-anchor="middle" x="615" y="-158" font-family="Helvetica,sans-Serif" font-size="10.00">arMatrixDup</text>
</a>
</g>
</g>
<!-- Node6&#45;&gt;Node7 -->
<g id="edge7" class="edge">
<title>Node6&#45;&gt;Node7</title>
<path fill="none" stroke="#63b8ff" d="M525.7,-160.5C539.53,-160.5 554.74,-160.5 568.58,-160.5"/>
<polygon fill="#63b8ff" stroke="#63b8ff" points="568.31,-164 578.31,-160.5 568.31,-157 568.31,-164"/>
</g>
<!-- Node12 -->
<g id="node12" class="node">
<title>Node12</title>
<g id="a_node12"><a xlink:href="ar_patt_get_i_d_8c.html#a85629f26a05cd8cb8644c5e95e581d4d" target="_top" xlink:title="Extract the image (i.e. locate and unwarp) of the pattern&#45;space portion of a detected square.">
<polygon fill="white" stroke="#666666" points="364,-19 273,-19 273,0 364,0 364,-19"/>
<text text-anchor="middle" x="318.5" y="-7" font-family="Helvetica,sans-Serif" font-size="10.00">arPattGetImage2</text>
</a>
</g>
</g>
<!-- Node11&#45;&gt;Node12 -->
<g id="edge15" class="edge">
<title>Node11&#45;&gt;Node12</title>
<path fill="none" stroke="#63b8ff" d="M220.38,-9.5C233.53,-9.5 247.9,-9.5 261.46,-9.5"/>
<polygon fill="#63b8ff" stroke="#63b8ff" points="261.1,-13 271.1,-9.5 261.1,-6 261.1,-13"/>
</g>
<!-- Node13 -->
<g id="node13" class="node">
<title>Node13</title>
<g id="a_node13"><a xlink:href="param_l_t_8c.html#af28ec15693678c1e60242cf44e1c1a3f" target="_top" xlink:title="Use a lookup&#45;table camera parameter to convert idealised (zero&#45;distortion) window coordinates to obse...">
<polygon fill="white" stroke="#666666" points="542,-19 417,-19 417,0 542,0 542,-19"/>
<text text-anchor="middle" x="479.5" y="-7" font-family="Helvetica,sans-Serif" font-size="10.00">arParamIdeal2ObservLTf</text>
</a>
</g>
</g>
<!-- Node12&#45;&gt;Node13 -->
<g id="edge16" class="edge">
<title>Node12&#45;&gt;Node13</title>
<path fill="none" stroke="#63b8ff" d="M364.21,-9.5C377.04,-9.5 391.38,-9.5 405.44,-9.5"/>
<polygon fill="#63b8ff" stroke="#63b8ff" points="405.11,-13 415.11,-9.5 405.11,-6 405.11,-13"/>
</g>
</g>
</svg>
        <g id="navigator" transform="translate(0 0)" fill="#404254">
                <rect fill="#f2f5e9" fill-opacity="0.5" stroke="#606060" stroke-width=".5" x="0" y="0" width="60" height="60"/>
                <use id="zoomplus" xlink:href="#zoomPlus" x="17" y="9" onmousedown="handleZoom(evt,'in')"/>
                <use id="zoomminus" xlink:href="#zoomMin" x="42" y="9" onmousedown="handleZoom(evt,'out')"/>
                <use id="reset" xlink:href="#resetDef" x="30" y="36" onmousedown="handleReset()"/>
                <g id="arrowUp" xlink:href="#dirArrow" transform="translate(30 24)" onmousedown="handlePan(0,-1)">
                  <use xlink:href="#rim" fill="#404040">
                        <set attributeName="fill" to="#808080" begin="arrowUp.mouseover" end="arrowUp.mouseout"/>
                  </use>
                  <path fill="none" stroke="white" stroke-width="1.5" d="M0,-3.0v7 M-2.5,-0.5L0,-3.0L2.5,-0.5"/>
                </g>
                <g id="arrowRight" xlink:href="#dirArrow" transform="rotate(90) translate(36 -43)" onmousedown="handlePan(1,0)">
                  <use xlink:href="#rim" fill="#404040">
                        <set attributeName="fill" to="#808080" begin="arrowRight.mouseover" end="arrowRight.mouseout"/>
                  </use>
                  <path fill="none" stroke="white" stroke-width="1.5" d="M0,-3.0v7 M-2.5,-0.5L0,-3.0L2.5,-0.5"/>
                </g>
                <g id="arrowDown" xlink:href="#dirArrow" transform="rotate(180) translate(-30 -48)" onmousedown="handlePan(0,1)">
                  <use xlink:href="#rim" fill="#404040">
                        <set attributeName="fill" to="#808080" begin="arrowDown.mouseover" end="arrowDown.mouseout"/>
                  </use>
                  <path fill="none" stroke="white" stroke-width="1.5" d="M0,-3.0v7 M-2.5,-0.5L0,-3.0L2.5,-0.5"/>
                </g>
                <g id="arrowLeft" xlink:href="#dirArrow" transform="rotate(270) translate(-36 17)" onmousedown="handlePan(-1,0)">
                  <use xlink:href="#rim" fill="#404040">
                        <set attributeName="fill" to="#808080" begin="arrowLeft.mouseover" end="arrowLeft.mouseout"/>
                  </use>
                  <path fill="none" stroke="white" stroke-width="1.5" d="M0,-3.0v7 M-2.5,-0.5L0,-3.0L2.5,-0.5"/>
                </g>
        </g>
        <svg viewBox="0 0 15 15" width="100%" height="30px" preserveAspectRatio="xMaxYMin meet">
         <g id="arrow_out" transform="scale(0.3 0.3)">
          <a xlink:href="ar_get_marker_info_8c_a9147cb6fc8ecd03a0ff580dc91f792c2_cgraph_org.svg" target="_base">
           <rect id="button" ry="5" rx="5" y="6" x="6" height="38" width="38"
                fill="#f2f5e9" fill-opacity="0.5" stroke="#606060" stroke-width="1.0"/>
           <path id="arrow"
             d="M 11.500037,31.436501 C 11.940474,20.09759 22.043105,11.32322 32.158766,21.979434 L 37.068811,17.246167 C 37.068811,17.246167 37.088388,32 37.088388,32 L 22.160133,31.978069 C 22.160133,31.978069 26.997745,27.140456 26.997745,27.140456 C 18.528582,18.264221 13.291696,25.230495 11.500037,31.436501 z"
             style="fill:#404040;"/>
          </a>
         </g>
        </svg>
</svg>
