<?xml version="1.0" encoding="UTF-8" standalone="no"?>
<!DOCTYPE svg PUBLIC "-//W3C//DTD SVG 1.1//EN"
 "http://www.w3.org/Graphics/SVG/1.1/DTD/svg11.dtd">
<!-- Generated by graphviz version 8.0.5 (20230430.1635)
 -->
<!-- Title: arGetTransMatSquareStereo Pages: 1 -->
<!--zoomable 345 -->
<svg id="main" version="1.1" xmlns="http://www.w3.org/2000/svg" xmlns:xlink="http://www.w3.org/1999/xlink" xml:space="preserve" onload="init(evt)">
<style type="text/css"><![CDATA[
.edge:hover path { stroke: red; }
.edge:hover polygon { stroke: red; fill: red; }
]]></style>
<script type="text/javascript"><![CDATA[
var edges = document.getElementsByTagName('g');
if (edges && edges.length) {
  for (var i=0;i<edges.length;i++) {
    if (edges[i].id.substr(0,4)=='edge') {
      edges[i].setAttribute('class','edge');
    }
  }
}
]]></script>
        <defs>
                <circle id="rim" cx="0" cy="0" r="7"/>
                <circle id="rim2" cx="0" cy="0" r="3.5"/>
                <g id="zoomPlus">
                        <use xlink:href="#rim" fill="#404040">
                                <set attributeName="fill" to="#808080" begin="zoomplus.mouseover" end="zoomplus.mouseout"/>
                        </use>
                        <path d="M-4,0h8M0,-4v8" fill="none" stroke="white" stroke-width="1.5" pointer-events="none"/>
                </g>
                <g id="zoomMin">
                        <use xlink:href="#rim" fill="#404040">
                                <set attributeName="fill" to="#808080" begin="zoomminus.mouseover" end="zoomminus.mouseout"/>
                        </use>
                        <path d="M-4,0h8" fill="none" stroke="white" stroke-width="1.5" pointer-events="none"/>
                </g>
                <g id="dirArrow">
                        <path fill="none" stroke="white" stroke-width="1.5" d="M0,-3.0v7 M-2.5,-0.5L0,-3.0L2.5,-0.5"/>
                </g>
               <g id="resetDef">
                       <use xlink:href="#rim2" fill="#404040">
                               <set attributeName="fill" to="#808080" begin="reset.mouseover" end="reset.mouseout"/>
                       </use>
               </g>
        </defs>

<script type="text/javascript">
var viewWidth = 692;
var viewHeight = 345;
var sectionId = 'dynsection-2';
</script>
<script xlink:href="svgpan.js"/>
<svg id="graph" class="graph">
<g id="viewport">
<title>arGetTransMatSquareStereo</title>
<!-- Node1 -->
<g id="node1" class="node">
<title>Node1</title>
<g id="a_node1"><a xlink:title=" ">
<polygon fill="#999999" stroke="#666666" points="140.5,-247.25 0,-247.25 0,-228 140.5,-228 140.5,-247.25"/>
<text text-anchor="middle" x="70.25" y="-233.75" font-family="Helvetica,sans-Serif" font-size="10.00">arGetTransMatSquareStereo</text>
</a>
</g>
</g>
<!-- Node2 -->
<g id="node2" class="node">
<title>Node2</title>
<g id="a_node2"><a xlink:href="ar_util_8c.html#a97c94e6c703a2e449272302c925944d1" target="_top" xlink:title=" ">
<polygon fill="white" stroke="#666666" points="399.75,-306.25 330.5,-306.25 330.5,-287 399.75,-287 399.75,-306.25"/>
<text text-anchor="middle" x="365.12" y="-292.75" font-family="Helvetica,sans-Serif" font-size="10.00">arUtilMatInv</text>
</a>
</g>
</g>
<!-- Node1&#45;&gt;Node2 -->
<g id="edge1" class="edge">
<title>Node1&#45;&gt;Node2</title>
<path fill="none" stroke="#63b8ff" d="M121.26,-247.7C177.05,-258.94 266.45,-276.95 319.82,-287.7"/>
<polygon fill="#63b8ff" stroke="#63b8ff" points="318.81,-291.27 329.31,-289.81 320.2,-284.41 318.81,-291.27"/>
</g>
<!-- Node6 -->
<g id="node6" class="node">
<title>Node6</title>
<g id="a_node6"><a xlink:href="icp_util_8c.html#a9a0da1f41013b11363f39d99a5c937e9" target="_top" xlink:title=" ">
<polygon fill="white" stroke="#666666" points="422.25,-252.88 308,-252.88 308,-222.38 422.25,-222.38 422.25,-252.88"/>
<text text-anchor="start" x="316" y="-239.38" font-family="Helvetica,sans-Serif" font-size="10.00">icpGetInitXw2Xc_from</text>
<text text-anchor="middle" x="365.12" y="-228.12" font-family="Helvetica,sans-Serif" font-size="10.00">_PlanarData</text>
</a>
</g>
</g>
<!-- Node1&#45;&gt;Node6 -->
<g id="edge5" class="edge">
<title>Node1&#45;&gt;Node6</title>
<path fill="none" stroke="#63b8ff" d="M140.66,-237.62C187.95,-237.62 250.23,-237.62 297.02,-237.62"/>
<polygon fill="#63b8ff" stroke="#63b8ff" points="296.96,-241.13 306.96,-237.62 296.96,-234.13 296.96,-241.13"/>
</g>
<!-- Node11 -->
<g id="node11" class="node">
<title>Node11</title>
<g id="a_node11"><a xlink:href="icp_stereo_point_8c.html#afa05ec4cb1c2537d535521e4ee42c5ac" target="_top" xlink:title=" ">
<polygon fill="white" stroke="#666666" points="256.25,-149.25 176.5,-149.25 176.5,-130 256.25,-130 256.25,-149.25"/>
<text text-anchor="middle" x="216.38" y="-135.75" font-family="Helvetica,sans-Serif" font-size="10.00">icpStereoPoint</text>
</a>
</g>
</g>
<!-- Node1&#45;&gt;Node11 -->
<g id="edge17" class="edge">
<title>Node1&#45;&gt;Node11</title>
<path fill="none" stroke="#63b8ff" d="M86.13,-227.51C111.18,-210.47 161.96,-175.94 191.87,-155.61"/>
<polygon fill="#63b8ff" stroke="#63b8ff" points="193.49,-158.06 199.79,-149.54 189.55,-152.27 193.49,-158.06"/>
</g>
<!-- Node3 -->
<g id="node3" class="node">
<title>Node3</title>
<g id="a_node3"><a xlink:href="m_alloc_8c.html#a69c9a974dc5a3963148ebb2c4a80f969" target="_top" xlink:title=" ">
<polygon fill="white" stroke="#666666" points="682.25,-265.25 609.25,-265.25 609.25,-246 682.25,-246 682.25,-265.25"/>
<text text-anchor="middle" x="645.75" y="-251.75" font-family="Helvetica,sans-Serif" font-size="10.00">arMatrixAlloc</text>
</a>
</g>
</g>
<!-- Node2&#45;&gt;Node3 -->
<g id="edge2" class="edge">
<title>Node2&#45;&gt;Node3</title>
<path fill="none" stroke="#63b8ff" d="M387.42,-306.72C425.74,-323.4 508.24,-352.42 571.75,-326.62 597.59,-316.13 619.31,-291.6 632.17,-274.32"/>
<polygon fill="#63b8ff" stroke="#63b8ff" points="635.43,-276.78 638.37,-266.61 629.73,-272.73 635.43,-276.78"/>
</g>
<!-- Node4 -->
<g id="node4" class="node">
<title>Node4</title>
<g id="a_node4"><a xlink:href="m_free_8c.html#ac4b7a714cce9fffda773d86363380454" target="_top" xlink:title=" ">
<polygon fill="white" stroke="#666666" points="681.12,-171.25 610.38,-171.25 610.38,-152 681.12,-152 681.12,-171.25"/>
<text text-anchor="middle" x="645.75" y="-157.75" font-family="Helvetica,sans-Serif" font-size="10.00">arMatrixFree</text>
</a>
</g>
</g>
<!-- Node2&#45;&gt;Node4 -->
<g id="edge3" class="edge">
<title>Node2&#45;&gt;Node4</title>
<path fill="none" stroke="#63b8ff" d="M400.12,-298.65C444.26,-299.47 521.57,-294.57 571.75,-255.62 600.96,-232.95 581.96,-207.12 607.75,-180.62 608.71,-179.64 609.74,-178.69 610.81,-177.78"/>
<polygon fill="#63b8ff" stroke="#63b8ff" points="612.49,-180.18 618.74,-171.62 608.52,-174.42 612.49,-180.18"/>
</g>
<!-- Node5 -->
<g id="node5" class="node">
<title>Node5</title>
<g id="a_node5"><a xlink:href="m_self_inv_8c.html#a929738025b539a0c1bbd2f395ad4d981" target="_top" xlink:title=" ">
<polygon fill="white" stroke="#666666" points="563.88,-246.25 481.88,-246.25 481.88,-227 563.88,-227 563.88,-246.25"/>
<text text-anchor="middle" x="522.88" y="-232.75" font-family="Helvetica,sans-Serif" font-size="10.00">arMatrixSelfInv</text>
</a>
</g>
</g>
<!-- Node2&#45;&gt;Node5 -->
<g id="edge4" class="edge">
<title>Node2&#45;&gt;Node5</title>
<path fill="none" stroke="#63b8ff" d="M392.19,-286.58C417.8,-276.72 457.08,-261.59 485.7,-250.56"/>
<polygon fill="#63b8ff" stroke="#63b8ff" points="486.65,-253.56 494.72,-246.7 484.13,-247.03 486.65,-253.56"/>
</g>
<!-- Node6&#45;&gt;Node3 -->
<g id="edge6" class="edge">
<title>Node6&#45;&gt;Node3</title>
<path fill="none" stroke="#63b8ff" d="M422.73,-248.88C439.19,-251.66 457.25,-254.24 474,-255.62 515.99,-259.1 563.98,-258.72 598.37,-257.69"/>
<polygon fill="#63b8ff" stroke="#63b8ff" points="598.15,-261.17 608.03,-257.34 597.92,-254.17 598.15,-261.17"/>
</g>
<!-- Node6&#45;&gt;Node4 -->
<g id="edge15" class="edge">
<title>Node6&#45;&gt;Node4</title>
<path fill="none" stroke="#63b8ff" d="M420.97,-222.03C426.88,-219.56 432.67,-216.76 438,-213.62 456.7,-202.61 454.24,-189.6 474,-180.62 513.75,-162.57 563.86,-158.95 599.49,-159.16"/>
<polygon fill="#63b8ff" stroke="#63b8ff" points="599,-162.67 609.05,-159.34 599.11,-155.67 599,-162.67"/>
</g>
<!-- Node6&#45;&gt;Node5 -->
<g id="edge16" class="edge">
<title>Node6&#45;&gt;Node5</title>
<path fill="none" stroke="#63b8ff" d="M422.35,-237.26C438.2,-237.16 455.35,-237.05 470.87,-236.95"/>
<polygon fill="#63b8ff" stroke="#63b8ff" points="470.86,-240.45 480.84,-236.88 470.82,-233.45 470.86,-240.45"/>
</g>
<!-- Node7 -->
<g id="node7" class="node">
<title>Node7</title>
<g id="a_node7"><a xlink:href="m_alloc_mul_8c.html#a8e99293b68c38ce8a8d1920884d69f73" target="_top" xlink:title=" ">
<polygon fill="white" stroke="#666666" points="567.25,-133.25 478.5,-133.25 478.5,-114 567.25,-114 567.25,-133.25"/>
<text text-anchor="middle" x="522.88" y="-119.75" font-family="Helvetica,sans-Serif" font-size="10.00">arMatrixAllocMul</text>
</a>
</g>
</g>
<!-- Node6&#45;&gt;Node7 -->
<g id="edge7" class="edge">
<title>Node6&#45;&gt;Node7</title>
<path fill="none" stroke="#63b8ff" d="M422.5,-223.51C428.07,-220.77 433.36,-217.51 438,-213.62 463.62,-192.18 449.97,-170.84 474,-147.62 477.31,-144.43 481.13,-141.57 485.14,-139.04"/>
<polygon fill="#63b8ff" stroke="#63b8ff" points="486.65,-141.65 493.69,-133.72 483.25,-135.53 486.65,-141.65"/>
</g>
<!-- Node9 -->
<g id="node9" class="node">
<title>Node9</title>
<g id="a_node9"><a xlink:href="m_alloc_trans_8c.html#a4e2bf8cd529487fb1ff4d0bbc52eee1e" target="_top" xlink:title=" ">
<polygon fill="white" stroke="#666666" points="571.75,-209.25 474,-209.25 474,-190 571.75,-190 571.75,-209.25"/>
<text text-anchor="middle" x="522.88" y="-195.75" font-family="Helvetica,sans-Serif" font-size="10.00">arMatrixAllocTrans</text>
</a>
</g>
</g>
<!-- Node6&#45;&gt;Node9 -->
<g id="edge11" class="edge">
<title>Node6&#45;&gt;Node9</title>
<path fill="none" stroke="#63b8ff" d="M422.35,-223.91C437.93,-220.11 454.76,-216 470.07,-212.26"/>
<polygon fill="#63b8ff" stroke="#63b8ff" points="470.51,-215.52 479.39,-209.75 468.85,-208.72 470.51,-215.52"/>
</g>
<!-- Node7&#45;&gt;Node3 -->
<g id="edge8" class="edge">
<title>Node7&#45;&gt;Node3</title>
<path fill="none" stroke="#63b8ff" d="M532.25,-133.51C547.13,-150.98 579.27,-188.32 607.75,-218.62 613.82,-225.09 620.65,-232 626.76,-238.08"/>
<polygon fill="#63b8ff" stroke="#63b8ff" points="623.95,-240.21 633.53,-244.74 628.86,-235.23 623.95,-240.21"/>
</g>
<!-- Node7&#45;&gt;Node4 -->
<g id="edge9" class="edge">
<title>Node7&#45;&gt;Node4</title>
<path fill="none" stroke="#63b8ff" d="M555.95,-133.71C570.27,-138.21 587.34,-143.58 602.67,-148.39"/>
<polygon fill="#63b8ff" stroke="#63b8ff" points="601.36,-151.97 611.94,-151.63 603.45,-145.29 601.36,-151.97"/>
</g>
<!-- Node8 -->
<g id="node8" class="node">
<title>Node8</title>
<g id="a_node8"><a xlink:href="m_mul_8c.html#a202bc2db43d563792c99e852ea0b7ba4" target="_top" xlink:title=" ">
<polygon fill="white" stroke="#666666" points="679.25,-95.25 612.25,-95.25 612.25,-76 679.25,-76 679.25,-95.25"/>
<text text-anchor="middle" x="645.75" y="-81.75" font-family="Helvetica,sans-Serif" font-size="10.00">arMatrixMul</text>
</a>
</g>
</g>
<!-- Node7&#45;&gt;Node8 -->
<g id="edge10" class="edge">
<title>Node7&#45;&gt;Node8</title>
<path fill="none" stroke="#63b8ff" d="M555.95,-113.54C570.27,-109.04 587.34,-103.67 602.67,-98.86"/>
<polygon fill="#63b8ff" stroke="#63b8ff" points="603.45,-101.96 611.94,-95.62 601.36,-95.28 603.45,-101.96"/>
</g>
<!-- Node9&#45;&gt;Node3 -->
<g id="edge12" class="edge">
<title>Node9&#45;&gt;Node3</title>
<path fill="none" stroke="#63b8ff" d="M552.46,-209.73C558.86,-212.17 565.59,-214.87 571.75,-217.62 587.29,-224.56 604.17,-233.27 617.78,-240.6"/>
<polygon fill="#63b8ff" stroke="#63b8ff" points="615.59,-243.93 626.05,-245.64 618.94,-237.79 615.59,-243.93"/>
</g>
<!-- Node9&#45;&gt;Node4 -->
<g id="edge13" class="edge">
<title>Node9&#45;&gt;Node4</title>
<path fill="none" stroke="#63b8ff" d="M555.95,-189.54C570.27,-185.04 587.34,-179.67 602.67,-174.86"/>
<polygon fill="#63b8ff" stroke="#63b8ff" points="603.45,-177.96 611.94,-171.62 601.36,-171.28 603.45,-177.96"/>
</g>
<!-- Node10 -->
<g id="node10" class="node">
<title>Node10</title>
<g id="a_node10"><a xlink:href="m_trans_8c.html#ad3d9712dd27f655902a8a3315e623d85" target="_top" xlink:title=" ">
<polygon fill="white" stroke="#666666" points="683.75,-209.25 607.75,-209.25 607.75,-190 683.75,-190 683.75,-209.25"/>
<text text-anchor="middle" x="645.75" y="-195.75" font-family="Helvetica,sans-Serif" font-size="10.00">arMatrixTrans</text>
</a>
</g>
</g>
<!-- Node9&#45;&gt;Node10 -->
<g id="edge14" class="edge">
<title>Node9&#45;&gt;Node10</title>
<path fill="none" stroke="#63b8ff" d="M572,-199.62C580.14,-199.62 588.6,-199.62 596.75,-199.62"/>
<polygon fill="#63b8ff" stroke="#63b8ff" points="596.6,-203.13 606.6,-199.62 596.6,-196.13 596.6,-203.13"/>
</g>
<!-- Node12 -->
<g id="node12" class="node">
<title>Node12</title>
<g id="a_node12"><a xlink:href="ar_util_8c.html#ae28eeba3e16224a7d77b46bd34b8f4fe" target="_top" xlink:title=" ">
<polygon fill="white" stroke="#666666" points="400.88,-56.25 329.38,-56.25 329.38,-37 400.88,-37 400.88,-56.25"/>
<text text-anchor="middle" x="365.12" y="-42.75" font-family="Helvetica,sans-Serif" font-size="10.00">arUtilMatMul</text>
</a>
</g>
</g>
<!-- Node11&#45;&gt;Node12 -->
<g id="edge18" class="edge">
<title>Node11&#45;&gt;Node12</title>
<path fill="none" stroke="#63b8ff" d="M224.43,-129.66C236.44,-113.45 262.48,-81.5 292.25,-64.62 300.29,-60.06 309.49,-56.65 318.55,-54.09"/>
<polygon fill="#63b8ff" stroke="#63b8ff" points="319.2,-57.28 328.05,-51.46 317.5,-50.49 319.2,-57.28"/>
</g>
<!-- Node13 -->
<g id="node13" class="node">
<title>Node13</title>
<g id="a_node13"><a xlink:href="icp_core_8c.html#a4906398b4594d29ab8035b4016a7e9de" target="_top" xlink:title=" ">
<polygon fill="white" stroke="#666666" points="402.38,-93.25 327.88,-93.25 327.88,-74 402.38,-74 402.38,-93.25"/>
<text text-anchor="middle" x="365.12" y="-79.75" font-family="Helvetica,sans-Serif" font-size="10.00">icpGetDeltaS</text>
</a>
</g>
</g>
<!-- Node11&#45;&gt;Node13 -->
<g id="edge19" class="edge">
<title>Node11&#45;&gt;Node13</title>
<path fill="none" stroke="#63b8ff" d="M234.42,-129.58C249.28,-121.16 271.63,-109.33 292.25,-101.62 300.13,-98.68 308.67,-96.07 317.03,-93.81"/>
<polygon fill="#63b8ff" stroke="#63b8ff" points="317.63,-97.01 326.44,-91.13 315.89,-90.23 317.63,-97.01"/>
</g>
<!-- Node15 -->
<g id="node15" class="node">
<title>Node15</title>
<g id="a_node15"><a xlink:href="icp_core_8c.html#ac384ca6737fdee325d58740d665eda0a" target="_top" xlink:title=" ">
<polygon fill="white" stroke="#666666" points="402.38,-204.25 327.88,-204.25 327.88,-185 402.38,-185 402.38,-204.25"/>
<text text-anchor="middle" x="365.12" y="-190.75" font-family="Helvetica,sans-Serif" font-size="10.00">icpGetJ_U_S</text>
</a>
</g>
</g>
<!-- Node11&#45;&gt;Node15 -->
<g id="edge26" class="edge">
<title>Node11&#45;&gt;Node15</title>
<path fill="none" stroke="#63b8ff" d="M235.05,-149.71C249.93,-157.86 271.97,-169.17 292.25,-176.62 300.15,-179.53 308.7,-182.12 317.05,-184.37"/>
<polygon fill="#63b8ff" stroke="#63b8ff" points="315.92,-187.95 326.47,-187.04 317.65,-181.17 315.92,-187.95"/>
</g>
<!-- Node16 -->
<g id="node16" class="node">
<title>Node16</title>
<g id="a_node16"><a xlink:href="icp_core_8c.html#aceeb3fd72a762c2078d8fb88ec03ccfb" target="_top" xlink:title=" ">
<polygon fill="white" stroke="#666666" points="438,-167.25 292.25,-167.25 292.25,-148 438,-148 438,-167.25"/>
<text text-anchor="middle" x="365.12" y="-153.75" font-family="Helvetica,sans-Serif" font-size="10.00">icpGetU_from_X_by_MatX2U</text>
</a>
</g>
</g>
<!-- Node11&#45;&gt;Node16 -->
<g id="edge27" class="edge">
<title>Node11&#45;&gt;Node16</title>
<path fill="none" stroke="#63b8ff" d="M256.7,-144.45C264.34,-145.39 272.62,-146.4 281.06,-147.44"/>
<polygon fill="#63b8ff" stroke="#63b8ff" points="280.47,-151.01 290.82,-148.76 281.33,-144.07 280.47,-151.01"/>
</g>
<!-- Node17 -->
<g id="node17" class="node">
<title>Node17</title>
<g id="a_node17"><a xlink:href="icp_core_8c.html#a94201124387610a46b975cdb9d8a1db6" target="_top" xlink:title=" ">
<polygon fill="white" stroke="#666666" points="403.5,-130.25 326.75,-130.25 326.75,-111 403.5,-111 403.5,-130.25"/>
<text text-anchor="middle" x="365.12" y="-116.75" font-family="Helvetica,sans-Serif" font-size="10.00">icpUpdateMat</text>
</a>
</g>
</g>
<!-- Node11&#45;&gt;Node17 -->
<g id="edge28" class="edge">
<title>Node11&#45;&gt;Node17</title>
<path fill="none" stroke="#63b8ff" d="M256.7,-134.53C274.88,-132.18 296.65,-129.36 315.82,-126.88"/>
<polygon fill="#63b8ff" stroke="#63b8ff" points="315.99,-130.26 325.46,-125.5 315.1,-123.31 315.99,-130.26"/>
</g>
<!-- Node13&#45;&gt;Node4 -->
<g id="edge23" class="edge">
<title>Node13&#45;&gt;Node4</title>
<path fill="none" stroke="#63b8ff" d="M402.86,-81.38C445.16,-80.13 515.98,-82.2 571.75,-104.62 593.74,-113.47 614.61,-131.03 628.36,-144.33"/>
<polygon fill="#63b8ff" stroke="#63b8ff" points="625.41,-146.33 634.94,-150.95 630.37,-141.39 625.41,-146.33"/>
</g>
<!-- Node13&#45;&gt;Node5 -->
<g id="edge25" class="edge">
<title>Node13&#45;&gt;Node5</title>
<path fill="none" stroke="#63b8ff" d="M402.53,-85.53C415.13,-87.91 428.48,-92.6 438,-101.62 477.48,-139.06 436.72,-179 474,-218.62 474.57,-219.23 475.16,-219.82 475.78,-220.38"/>
<polygon fill="#63b8ff" stroke="#63b8ff" points="473.49,-223.77 483.67,-226.7 477.55,-218.06 473.49,-223.77"/>
</g>
<!-- Node13&#45;&gt;Node7 -->
<g id="edge20" class="edge">
<title>Node13&#45;&gt;Node7</title>
<path fill="none" stroke="#63b8ff" d="M402.71,-92.7C414.03,-95.53 426.54,-98.69 438,-101.62 449.5,-104.57 461.87,-107.79 473.49,-110.84"/>
<polygon fill="#63b8ff" stroke="#63b8ff" points="472.34,-114.42 482.9,-113.57 474.12,-107.64 472.34,-114.42"/>
</g>
<!-- Node13&#45;&gt;Node8 -->
<g id="edge24" class="edge">
<title>Node13&#45;&gt;Node8</title>
<path fill="none" stroke="#63b8ff" d="M402.59,-78.14C443.74,-72.72 512.66,-66.01 571.75,-71.62 581.36,-72.54 591.6,-74.11 601.26,-75.89"/>
<polygon fill="#63b8ff" stroke="#63b8ff" points="600.39,-79.48 610.87,-77.95 601.72,-72.61 600.39,-79.48"/>
</g>
<!-- Node13&#45;&gt;Node9 -->
<g id="edge21" class="edge">
<title>Node13&#45;&gt;Node9</title>
<path fill="none" stroke="#63b8ff" d="M402.58,-88.23C414.5,-90.88 427.39,-95.06 438,-101.62 440.2,-102.99 483.01,-153.55 506.6,-181.5"/>
<polygon fill="#63b8ff" stroke="#63b8ff" points="504.38,-183.3 513.51,-188.69 509.73,-178.79 504.38,-183.3"/>
</g>
<!-- Node14 -->
<g id="node14" class="node">
<title>Node14</title>
<g id="a_node14"><a xlink:href="m_disp_8c.html#a60f36997579d355f6030f872faad84a2" target="_top" xlink:title=" ">
<polygon fill="white" stroke="#666666" points="558.62,-19.25 487.12,-19.25 487.12,0 558.62,0 558.62,-19.25"/>
<text text-anchor="middle" x="522.88" y="-5.75" font-family="Helvetica,sans-Serif" font-size="10.00">arMatrixDisp</text>
</a>
</g>
</g>
<!-- Node13&#45;&gt;Node14 -->
<g id="edge22" class="edge">
<title>Node13&#45;&gt;Node14</title>
<path fill="none" stroke="#63b8ff" d="M402.83,-77.99C414.51,-75.28 427.19,-71.33 438,-65.62 456.93,-55.63 456.28,-45.64 474,-33.62 478.69,-30.45 483.86,-27.42 489.02,-24.66"/>
<polygon fill="#63b8ff" stroke="#63b8ff" points="490.46,-27.34 497.78,-19.69 487.28,-21.1 490.46,-27.34"/>
</g>
</g>
</svg>
        <g id="navigator" transform="translate(0 0)" fill="#404254">
                <rect fill="#f2f5e9" fill-opacity="0.5" stroke="#606060" stroke-width=".5" x="0" y="0" width="60" height="60"/>
                <use id="zoomplus" xlink:href="#zoomPlus" x="17" y="9" onmousedown="handleZoom(evt,'in')"/>
                <use id="zoomminus" xlink:href="#zoomMin" x="42" y="9" onmousedown="handleZoom(evt,'out')"/>
                <use id="reset" xlink:href="#resetDef" x="30" y="36" onmousedown="handleReset()"/>
                <g id="arrowUp" xlink:href="#dirArrow" transform="translate(30 24)" onmousedown="handlePan(0,-1)">
                  <use xlink:href="#rim" fill="#404040">
                        <set attributeName="fill" to="#808080" begin="arrowUp.mouseover" end="arrowUp.mouseout"/>
                  </use>
                  <path fill="none" stroke="white" stroke-width="1.5" d="M0,-3.0v7 M-2.5,-0.5L0,-3.0L2.5,-0.5"/>
                </g>
                <g id="arrowRight" xlink:href="#dirArrow" transform="rotate(90) translate(36 -43)" onmousedown="handlePan(1,0)">
                  <use xlink:href="#rim" fill="#404040">
                        <set attributeName="fill" to="#808080" begin="arrowRight.mouseover" end="arrowRight.mouseout"/>
                  </use>
                  <path fill="none" stroke="white" stroke-width="1.5" d="M0,-3.0v7 M-2.5,-0.5L0,-3.0L2.5,-0.5"/>
                </g>
                <g id="arrowDown" xlink:href="#dirArrow" transform="rotate(180) translate(-30 -48)" onmousedown="handlePan(0,1)">
                  <use xlink:href="#rim" fill="#404040">
                        <set attributeName="fill" to="#808080" begin="arrowDown.mouseover" end="arrowDown.mouseout"/>
                  </use>
                  <path fill="none" stroke="white" stroke-width="1.5" d="M0,-3.0v7 M-2.5,-0.5L0,-3.0L2.5,-0.5"/>
                </g>
                <g id="arrowLeft" xlink:href="#dirArrow" transform="rotate(270) translate(-36 17)" onmousedown="handlePan(-1,0)">
                  <use xlink:href="#rim" fill="#404040">
                        <set attributeName="fill" to="#808080" begin="arrowLeft.mouseover" end="arrowLeft.mouseout"/>
                  </use>
                  <path fill="none" stroke="white" stroke-width="1.5" d="M0,-3.0v7 M-2.5,-0.5L0,-3.0L2.5,-0.5"/>
                </g>
        </g>
        <svg viewBox="0 0 15 15" width="100%" height="30px" preserveAspectRatio="xMaxYMin meet">
         <g id="arrow_out" transform="scale(0.3 0.3)">
          <a xlink:href="ar_get_trans_mat_stereo_8c_a8062d2388e1450a896468287f6ba793c_cgraph_org.svg" target="_base">
           <rect id="button" ry="5" rx="5" y="6" x="6" height="38" width="38"
                fill="#f2f5e9" fill-opacity="0.5" stroke="#606060" stroke-width="1.0"/>
           <path id="arrow"
             d="M 11.500037,31.436501 C 11.940474,20.09759 22.043105,11.32322 32.158766,21.979434 L 37.068811,17.246167 C 37.068811,17.246167 37.088388,32 37.088388,32 L 22.160133,31.978069 C 22.160133,31.978069 26.997745,27.140456 26.997745,27.140456 C 18.528582,18.264221 13.291696,25.230495 11.500037,31.436501 z"
             style="fill:#404040;"/>
          </a>
         </g>
        </svg>
</svg>
