<?xml version="1.0" encoding="UTF-8" standalone="no"?>
<!DOCTYPE svg PUBLIC "-//W3C//DTD SVG 1.1//EN"
 "http://www.w3.org/Graphics/SVG/1.1/DTD/svg11.dtd">
<!-- Generated by graphviz version 8.0.5 (20230430.1635)
 -->
<!-- Title: Source/ARX/AR/arGetTransMatStereo.c Pages: 1 -->
<!--zoomable 204 -->
<svg id="main" version="1.1" xmlns="http://www.w3.org/2000/svg" xmlns:xlink="http://www.w3.org/1999/xlink" xml:space="preserve" onload="init(evt)">
<style type="text/css"><![CDATA[
.edge:hover path { stroke: red; }
.edge:hover polygon { stroke: red; fill: red; }
]]></style>
<script type="text/javascript"><![CDATA[
var edges = document.getElementsByTagName('g');
if (edges && edges.length) {
  for (var i=0;i<edges.length;i++) {
    if (edges[i].id.substr(0,4)=='edge') {
      edges[i].setAttribute('class','edge');
    }
  }
}
]]></script>
        <defs>
                <circle id="rim" cx="0" cy="0" r="7"/>
                <circle id="rim2" cx="0" cy="0" r="3.5"/>
                <g id="zoomPlus">
                        <use xlink:href="#rim" fill="#404040">
                                <set attributeName="fill" to="#808080" begin="zoomplus.mouseover" end="zoomplus.mouseout"/>
                        </use>
                        <path d="M-4,0h8M0,-4v8" fill="none" stroke="white" stroke-width="1.5" pointer-events="none"/>
                </g>
                <g id="zoomMin">
                        <use xlink:href="#rim" fill="#404040">
                                <set attributeName="fill" to="#808080" begin="zoomminus.mouseover" end="zoomminus.mouseout"/>
                        </use>
                        <path d="M-4,0h8" fill="none" stroke="white" stroke-width="1.5" pointer-events="none"/>
                </g>
                <g id="dirArrow">
                        <path fill="none" stroke="white" stroke-width="1.5" d="M0,-3.0v7 M-2.5,-0.5L0,-3.0L2.5,-0.5"/>
                </g>
               <g id="resetDef">
                       <use xlink:href="#rim2" fill="#404040">
                               <set attributeName="fill" to="#808080" begin="reset.mouseover" end="reset.mouseout"/>
                       </use>
               </g>
        </defs>

<script type="text/javascript">
var viewWidth = 1041;
var viewHeight = 204;
var sectionId = 'dynsection-0';
</script>
<script xlink:href="svgpan.js"/>
<svg id="graph" class="graph">
<g id="viewport">
<title>Source/ARX/AR/arGetTransMatStereo.c</title>
<!-- Node1 -->
<g id="node1" class="node">
<title>Node1</title>
<g id="a_node1"><a xlink:title=" ">
<polygon fill="#999999" stroke="#666666" points="639.62,-196.25 499.88,-196.25 499.88,-165.75 639.62,-165.75 639.62,-196.25"/>
<text text-anchor="start" x="507.88" y="-182.75" font-family="Helvetica,sans-Serif" font-size="10.00">Source/ARX/AR/arGetTrans</text>
<text text-anchor="middle" x="569.75" y="-171.5" font-family="Helvetica,sans-Serif" font-size="10.00">MatStereo.c</text>
</a>
</g>
</g>
<!-- Node2 -->
<g id="node2" class="node">
<title>Node2</title>
<g id="a_node2"><a xlink:title=" ">
<polygon fill="#e0e0e0" stroke="#999999" points="47.5,-19.25 0,-19.25 0,0 47.5,0 47.5,-19.25"/>
<text text-anchor="middle" x="23.75" y="-5.75" font-family="Helvetica,sans-Serif" font-size="10.00">stdlib.h</text>
</a>
</g>
</g>
<!-- Node1&#45;&gt;Node2 -->
<g id="edge1" class="edge">
<title>Node1&#45;&gt;Node2</title>
<path fill="none" stroke="#63b8ff" d="M499.42,-173.64C405.73,-163.06 236.57,-136.52 105.75,-74.5 80.43,-62.5 55.67,-41.56 40.09,-26.94"/>
<polygon fill="#63b8ff" stroke="#63b8ff" points="43.07,-24.99 33.44,-20.57 38.21,-30.03 43.07,-24.99"/>
</g>
<!-- Node3 -->
<g id="node3" class="node">
<title>Node3</title>
<g id="a_node3"><a xlink:title=" ">
<polygon fill="#e0e0e0" stroke="#999999" points="1032.75,-19.25 986.75,-19.25 986.75,0 1032.75,0 1032.75,-19.25"/>
<text text-anchor="middle" x="1009.75" y="-5.75" font-family="Helvetica,sans-Serif" font-size="10.00">math.h</text>
</a>
</g>
</g>
<!-- Node1&#45;&gt;Node3 -->
<g id="edge2" class="edge">
<title>Node1&#45;&gt;Node3</title>
<path fill="none" stroke="#63b8ff" d="M639.88,-174.28C755.97,-163.2 980.05,-134.43 1027.75,-74.5 1038.26,-61.3 1030.85,-42.3 1022.59,-28.45"/>
<polygon fill="#63b8ff" stroke="#63b8ff" points="1025.08,-26.87 1016.67,-20.44 1019.23,-30.72 1025.08,-26.87"/>
</g>
<!-- Node4 -->
<g id="node4" class="node">
<title>Node4</title>
<g id="a_node4"><a xlink:href="ar_8h.html" target="_top" xlink:title="artoolkitX core routines.">
<polygon fill="white" stroke="#666666" points="606.25,-129.75 533.25,-129.75 533.25,-110.5 606.25,-110.5 606.25,-129.75"/>
<text text-anchor="middle" x="569.75" y="-116.25" font-family="Helvetica,sans-Serif" font-size="10.00">ARX/AR/ar.h</text>
</a>
</g>
</g>
<!-- Node1&#45;&gt;Node4 -->
<g id="edge3" class="edge">
<title>Node1&#45;&gt;Node4</title>
<path fill="none" stroke="#63b8ff" d="M569.75,-165.45C569.75,-158.12 569.75,-149.12 569.75,-141.16"/>
<polygon fill="#63b8ff" stroke="#63b8ff" points="573.25,-141.2 569.75,-131.2 566.25,-141.2 573.25,-141.2"/>
</g>
<!-- Node4&#45;&gt;Node2 -->
<g id="edge5" class="edge">
<title>Node4&#45;&gt;Node2</title>
<path fill="none" stroke="#63b8ff" d="M532.79,-119.15C459.98,-118.32 293.48,-112.05 159.75,-74.5 118.55,-62.93 74.31,-39.96 47.84,-24.95"/>
<polygon fill="#63b8ff" stroke="#63b8ff" points="50.02,-21.59 39.61,-19.63 46.52,-27.66 50.02,-21.59"/>
</g>
<!-- Node5 -->
<g id="node5" class="node">
<title>Node5</title>
<g id="a_node5"><a xlink:title=" ">
<polygon fill="#e0e0e0" stroke="#999999" points="451.38,-19.25 406.12,-19.25 406.12,0 451.38,0 451.38,-19.25"/>
<text text-anchor="middle" x="428.75" y="-5.75" font-family="Helvetica,sans-Serif" font-size="10.00">stdio.h</text>
</a>
</g>
</g>
<!-- Node4&#45;&gt;Node5 -->
<g id="edge4" class="edge">
<title>Node4&#45;&gt;Node5</title>
<path fill="none" stroke="#63b8ff" d="M532.91,-113.75C491.48,-106.87 428.08,-93.51 413.75,-74.5 403.8,-61.31 409.94,-42.56 417.13,-28.79"/>
<polygon fill="#63b8ff" stroke="#63b8ff" points="420.59,-30.81 422.59,-20.4 414.54,-27.29 420.59,-30.81"/>
</g>
<!-- Node6 -->
<g id="node6" class="node">
<title>Node6</title>
<g id="a_node6"><a xlink:title=" ">
<polygon fill="#e0e0e0" stroke="#999999" points="366.88,-74.5 318.62,-74.5 318.62,-55.25 366.88,-55.25 366.88,-74.5"/>
<text text-anchor="middle" x="342.75" y="-61" font-family="Helvetica,sans-Serif" font-size="10.00">stdint.h</text>
</a>
</g>
</g>
<!-- Node4&#45;&gt;Node6 -->
<g id="edge6" class="edge">
<title>Node4&#45;&gt;Node6</title>
<path fill="none" stroke="#63b8ff" d="M532.77,-110.45C489.87,-100.39 419.67,-83.92 377.67,-74.07"/>
<polygon fill="#63b8ff" stroke="#63b8ff" points="378.66,-70.47 368.12,-71.59 377.06,-77.28 378.66,-70.47"/>
</g>
<!-- Node7 -->
<g id="node7" class="node">
<title>Node7</title>
<g id="a_node7"><a xlink:title=" ">
<polygon fill="#e0e0e0" stroke="#999999" points="387.88,-19.25 339.62,-19.25 339.62,0 387.88,0 387.88,-19.25"/>
<text text-anchor="middle" x="363.75" y="-5.75" font-family="Helvetica,sans-Serif" font-size="10.00">string.h</text>
</a>
</g>
</g>
<!-- Node4&#45;&gt;Node7 -->
<g id="edge7" class="edge">
<title>Node4&#45;&gt;Node7</title>
<path fill="none" stroke="#63b8ff" d="M532.92,-118.41C468.11,-116.28 337.87,-107.85 309.75,-74.5 295.53,-57.63 317.21,-38.29 337.19,-25.35"/>
<polygon fill="#63b8ff" stroke="#63b8ff" points="338.69,-27.92 345.4,-19.71 335.04,-21.94 338.69,-27.92"/>
</g>
<!-- Node8 -->
<g id="node8" class="node">
<title>Node8</title>
<g id="a_node8"><a xlink:title=" ">
<polygon fill="#e0e0e0" stroke="#999999" points="875.62,-19.25 783.88,-19.25 783.88,0 875.62,0 875.62,-19.25"/>
<text text-anchor="middle" x="829.75" y="-5.75" font-family="Helvetica,sans-Serif" font-size="10.00">ARX/AR/config.h</text>
</a>
</g>
</g>
<!-- Node4&#45;&gt;Node8 -->
<g id="edge8" class="edge">
<title>Node4&#45;&gt;Node8</title>
<path fill="none" stroke="#63b8ff" d="M606.54,-119.56C680.84,-119.56 844.77,-114.88 879.75,-74.5 893.78,-58.31 873.48,-38.81 854.7,-25.65"/>
<polygon fill="#63b8ff" stroke="#63b8ff" points="857.03,-22.33 846.76,-19.74 853.17,-28.17 857.03,-22.33"/>
</g>
<!-- Node9 -->
<g id="node9" class="node">
<title>Node9</title>
<g id="a_node9"><a xlink:href="ar_config_8h.html" target="_top" xlink:title=" ">
<polygon fill="white" stroke="#666666" points="620.88,-74.5 518.62,-74.5 518.62,-55.25 620.88,-55.25 620.88,-74.5"/>
<text text-anchor="middle" x="569.75" y="-61" font-family="Helvetica,sans-Serif" font-size="10.00">ARX/AR/arConfig.h</text>
</a>
</g>
</g>
<!-- Node4&#45;&gt;Node9 -->
<g id="edge9" class="edge">
<title>Node4&#45;&gt;Node9</title>
<path fill="none" stroke="#63b8ff" d="M569.75,-110.33C569.75,-103.67 569.75,-94.24 569.75,-85.78"/>
<polygon fill="#63b8ff" stroke="#63b8ff" points="573.25,-85.86 569.75,-75.86 566.25,-85.86 573.25,-85.86"/>
</g>
<!-- Node10 -->
<g id="node10" class="node">
<title>Node10</title>
<g id="a_node10"><a xlink:href="log_8h.html" target="_top" xlink:title="Logging utilities.">
<polygon fill="white" stroke="#666666" points="262.38,-74.5 169.12,-74.5 169.12,-55.25 262.38,-55.25 262.38,-74.5"/>
<text text-anchor="middle" x="215.75" y="-61" font-family="Helvetica,sans-Serif" font-size="10.00">ARX/ARUtil/log.h</text>
</a>
</g>
</g>
<!-- Node4&#45;&gt;Node10 -->
<g id="edge10" class="edge">
<title>Node4&#45;&gt;Node10</title>
<path fill="none" stroke="#63b8ff" d="M532.87,-113.58C471.22,-104.3 346.8,-85.59 273.47,-74.56"/>
<polygon fill="#63b8ff" stroke="#63b8ff" points="274,-70.95 263.59,-72.92 272.96,-77.87 274,-70.95"/>
</g>
<!-- Node14 -->
<g id="node14" class="node">
<title>Node14</title>
<g id="a_node14"><a xlink:href="matrix_8h.html" target="_top" xlink:title=" ">
<polygon fill="white" stroke="#666666" points="1019,-74.5 926.5,-74.5 926.5,-55.25 1019,-55.25 1019,-74.5"/>
<text text-anchor="middle" x="972.75" y="-61" font-family="Helvetica,sans-Serif" font-size="10.00">ARX/AR/matrix.h</text>
</a>
</g>
</g>
<!-- Node4&#45;&gt;Node14 -->
<g id="edge17" class="edge">
<title>Node4&#45;&gt;Node14</title>
<path fill="none" stroke="#63b8ff" d="M606.57,-114.5C669.4,-106.57 801.34,-89.75 912.75,-74.5 913.71,-74.37 914.67,-74.24 915.65,-74.1"/>
<polygon fill="#63b8ff" stroke="#63b8ff" points="915.83,-77.47 925.25,-72.62 914.86,-70.54 915.83,-77.47"/>
</g>
<!-- Node15 -->
<g id="node15" class="node">
<title>Node15</title>
<g id="a_node15"><a xlink:href="icp_8h.html" target="_top" xlink:title=" ">
<polygon fill="white" stroke="#666666" points="500.88,-74.5 422.62,-74.5 422.62,-55.25 500.88,-55.25 500.88,-74.5"/>
<text text-anchor="middle" x="461.75" y="-61" font-family="Helvetica,sans-Serif" font-size="10.00">ARX/AR/icp.h</text>
</a>
</g>
</g>
<!-- Node4&#45;&gt;Node15 -->
<g id="edge19" class="edge">
<title>Node4&#45;&gt;Node15</title>
<path fill="none" stroke="#63b8ff" d="M551.43,-110.09C534.59,-101.79 509.39,-89.36 489.98,-79.79"/>
<polygon fill="#63b8ff" stroke="#63b8ff" points="491.68,-76.24 481.16,-74.95 488.58,-82.51 491.68,-76.24"/>
</g>
<!-- Node17 -->
<g id="node17" class="node">
<title>Node17</title>
<g id="a_node17"><a xlink:href="param_8h.html" target="_top" xlink:title="artoolkitX functions for handling calibrated camera parameters.">
<polygon fill="white" stroke="#666666" points="871,-74.5 778.5,-74.5 778.5,-55.25 871,-55.25 871,-74.5"/>
<text text-anchor="middle" x="824.75" y="-61" font-family="Helvetica,sans-Serif" font-size="10.00">ARX/AR/param.h</text>
</a>
</g>
</g>
<!-- Node4&#45;&gt;Node17 -->
<g id="edge22" class="edge">
<title>Node4&#45;&gt;Node17</title>
<path fill="none" stroke="#63b8ff" d="M606.69,-110.33C648.99,-101.08 718.58,-86.53 767.81,-76.61"/>
<polygon fill="#63b8ff" stroke="#63b8ff" points="768.18,-79.9 777.29,-74.5 766.8,-73.04 768.18,-79.9"/>
</g>
<!-- Node18 -->
<g id="node18" class="node">
<title>Node18</title>
<g id="a_node18"><a xlink:href="ar_image_proc_8h.html" target="_top" xlink:title="artoolkitX functions for 2D luminance image processing.">
<polygon fill="white" stroke="#666666" points="760.25,-74.5 639.25,-74.5 639.25,-55.25 760.25,-55.25 760.25,-74.5"/>
<text text-anchor="middle" x="699.75" y="-61" font-family="Helvetica,sans-Serif" font-size="10.00">ARX/AR/arImageProc.h</text>
</a>
</g>
</g>
<!-- Node4&#45;&gt;Node18 -->
<g id="edge24" class="edge">
<title>Node4&#45;&gt;Node18</title>
<path fill="none" stroke="#63b8ff" d="M586.59,-110.09C605.72,-101.52 637.15,-88.56 662.11,-78.88"/>
<polygon fill="#63b8ff" stroke="#63b8ff" points="663.28,-81.8 671.36,-74.95 660.77,-75.26 663.28,-81.8"/>
</g>
<!-- Node10&#45;&gt;Node2 -->
<g id="edge12" class="edge">
<title>Node10&#45;&gt;Node2</title>
<path fill="none" stroke="#63b8ff" d="M183.18,-54.84C148.47,-45.21 93.73,-30.03 58.29,-20.2"/>
<polygon fill="#63b8ff" stroke="#63b8ff" points="59.52,-16.64 48.95,-17.34 57.65,-23.38 59.52,-16.64"/>
</g>
<!-- Node10&#45;&gt;Node5 -->
<g id="edge11" class="edge">
<title>Node10&#45;&gt;Node5</title>
<path fill="none" stroke="#63b8ff" d="M253.6,-54.8C288.04,-46.48 340.55,-33.66 395.12,-19.63"/>
<polygon fill="#63b8ff" stroke="#63b8ff" points="395.88,-22.79 404.69,-16.9 394.14,-16.01 395.88,-22.79"/>
</g>
<!-- Node10&#45;&gt;Node7 -->
<g id="edge13" class="edge">
<title>Node10&#45;&gt;Node7</title>
<path fill="none" stroke="#63b8ff" d="M240.86,-54.84C265.17,-46.09 302.24,-32.76 329.31,-23.02"/>
<polygon fill="#63b8ff" stroke="#63b8ff" points="330.28,-26.03 338.5,-19.35 327.91,-19.44 330.28,-26.03"/>
</g>
<!-- Node11 -->
<g id="node11" class="node">
<title>Node11</title>
<g id="a_node11"><a xlink:title=" ">
<polygon fill="#e0e0e0" stroke="#999999" points="116.38,-19.25 65.12,-19.25 65.12,0 116.38,0 116.38,-19.25"/>
<text text-anchor="middle" x="90.75" y="-5.75" font-family="Helvetica,sans-Serif" font-size="10.00">stdarg.h</text>
</a>
</g>
</g>
<!-- Node10&#45;&gt;Node11 -->
<g id="edge14" class="edge">
<title>Node10&#45;&gt;Node11</title>
<path fill="none" stroke="#63b8ff" d="M194.55,-54.84C174.61,-46.35 144.54,-33.54 121.88,-23.89"/>
<polygon fill="#63b8ff" stroke="#63b8ff" points="123.63,-20.4 113.06,-19.7 120.89,-26.84 123.63,-20.4"/>
</g>
<!-- Node12 -->
<g id="node12" class="node">
<title>Node12</title>
<g id="a_node12"><a xlink:title=" ">
<polygon fill="#e0e0e0" stroke="#999999" points="199.12,-19.25 134.38,-19.25 134.38,0 199.12,0 199.12,-19.25"/>
<text text-anchor="middle" x="166.75" y="-5.75" font-family="Helvetica,sans-Serif" font-size="10.00">sys/errno.h</text>
</a>
</g>
</g>
<!-- Node10&#45;&gt;Node12 -->
<g id="edge15" class="edge">
<title>Node10&#45;&gt;Node12</title>
<path fill="none" stroke="#63b8ff" d="M207.66,-55.08C200.82,-47.65 190.82,-36.79 182.43,-27.66"/>
<polygon fill="#63b8ff" stroke="#63b8ff" points="185.36,-25.6 176.02,-20.61 180.21,-30.34 185.36,-25.6"/>
</g>
<!-- Node13 -->
<g id="node13" class="node">
<title>Node13</title>
<g id="a_node13"><a xlink:href="types_8h.html" target="_top" xlink:title=" ">
<polygon fill="white" stroke="#666666" points="322,-19.25 217.5,-19.25 217.5,0 322,0 322,-19.25"/>
<text text-anchor="middle" x="269.75" y="-5.75" font-family="Helvetica,sans-Serif" font-size="10.00">ARX/ARUtil/types.h</text>
</a>
</g>
</g>
<!-- Node10&#45;&gt;Node13 -->
<g id="edge16" class="edge">
<title>Node10&#45;&gt;Node13</title>
<path fill="none" stroke="#63b8ff" d="M224.67,-55.08C232.36,-47.5 243.68,-36.34 253.05,-27.1"/>
<polygon fill="#63b8ff" stroke="#63b8ff" points="254.98,-30.12 259.64,-20.61 250.06,-25.14 254.98,-30.12"/>
</g>
<!-- Node14&#45;&gt;Node3 -->
<g id="edge18" class="edge">
<title>Node14&#45;&gt;Node3</title>
<path fill="none" stroke="#63b8ff" d="M978.86,-55.08C983.86,-47.88 991.11,-37.46 997.32,-28.51"/>
<polygon fill="#63b8ff" stroke="#63b8ff" points="1000.68,-30.82 1003.51,-20.61 994.93,-26.82 1000.68,-30.82"/>
</g>
<!-- Node15&#45;&gt;Node5 -->
<g id="edge20" class="edge">
<title>Node15&#45;&gt;Node5</title>
<path fill="none" stroke="#63b8ff" d="M456.3,-55.08C451.88,-47.96 445.51,-37.68 440.01,-28.8"/>
<polygon fill="#63b8ff" stroke="#63b8ff" points="442.56,-27.27 434.32,-20.61 436.61,-30.95 442.56,-27.27"/>
</g>
<!-- Node16 -->
<g id="node16" class="node">
<title>Node16</title>
<g id="a_node16"><a xlink:href="icp_core_8h.html" target="_top" xlink:title=" ">
<polygon fill="white" stroke="#666666" points="568.38,-19.25 469.12,-19.25 469.12,0 568.38,0 568.38,-19.25"/>
<text text-anchor="middle" x="518.75" y="-5.75" font-family="Helvetica,sans-Serif" font-size="10.00">ARX/AR/icpCore.h</text>
</a>
</g>
</g>
<!-- Node15&#45;&gt;Node16 -->
<g id="edge21" class="edge">
<title>Node15&#45;&gt;Node16</title>
<path fill="none" stroke="#63b8ff" d="M471.42,-54.84C479.58,-47.22 491.46,-36.12 501.27,-26.95"/>
<polygon fill="#63b8ff" stroke="#63b8ff" points="503.31,-29.91 508.22,-20.52 498.53,-24.79 503.31,-29.91"/>
</g>
<!-- Node17&#45;&gt;Node4 -->
<g id="edge23" class="edge">
<title>Node17&#45;&gt;Node4</title>
<path fill="none" stroke="#63b8ff" d="M786.44,-74.97C741.23,-84.84 666.23,-100.49 617.34,-110.27"/>
<polygon fill="#63b8ff" stroke="#63b8ff" points="616.84,-107 607.72,-112.38 618.21,-113.86 616.84,-107"/>
</g>
<!-- Node18&#45;&gt;Node4 -->
<g id="edge26" class="edge">
<title>Node18&#45;&gt;Node4</title>
<path fill="none" stroke="#63b8ff" d="M682.82,-74.95C663.64,-83.54 632.2,-96.5 607.26,-106.17"/>
<polygon fill="#63b8ff" stroke="#63b8ff" points="606.11,-103.25 598.02,-110.09 608.61,-109.79 606.11,-103.25"/>
</g>
<!-- Node18&#45;&gt;Node8 -->
<g id="edge25" class="edge">
<title>Node18&#45;&gt;Node8</title>
<path fill="none" stroke="#63b8ff" d="M721.8,-54.84C742.63,-46.31 774.09,-33.42 797.69,-23.76"/>
<polygon fill="#63b8ff" stroke="#63b8ff" points="798.66,-26.73 806.59,-19.7 796.01,-20.25 798.66,-26.73"/>
</g>
</g>
</svg>
        <g id="navigator" transform="translate(0 0)" fill="#404254">
                <rect fill="#f2f5e9" fill-opacity="0.5" stroke="#606060" stroke-width=".5" x="0" y="0" width="60" height="60"/>
                <use id="zoomplus" xlink:href="#zoomPlus" x="17" y="9" onmousedown="handleZoom(evt,'in')"/>
                <use id="zoomminus" xlink:href="#zoomMin" x="42" y="9" onmousedown="handleZoom(evt,'out')"/>
                <use id="reset" xlink:href="#resetDef" x="30" y="36" onmousedown="handleReset()"/>
                <g id="arrowUp" xlink:href="#dirArrow" transform="translate(30 24)" onmousedown="handlePan(0,-1)">
                  <use xlink:href="#rim" fill="#404040">
                        <set attributeName="fill" to="#808080" begin="arrowUp.mouseover" end="arrowUp.mouseout"/>
                  </use>
                  <path fill="none" stroke="white" stroke-width="1.5" d="M0,-3.0v7 M-2.5,-0.5L0,-3.0L2.5,-0.5"/>
                </g>
                <g id="arrowRight" xlink:href="#dirArrow" transform="rotate(90) translate(36 -43)" onmousedown="handlePan(1,0)">
                  <use xlink:href="#rim" fill="#404040">
                        <set attributeName="fill" to="#808080" begin="arrowRight.mouseover" end="arrowRight.mouseout"/>
                  </use>
                  <path fill="none" stroke="white" stroke-width="1.5" d="M0,-3.0v7 M-2.5,-0.5L0,-3.0L2.5,-0.5"/>
                </g>
                <g id="arrowDown" xlink:href="#dirArrow" transform="rotate(180) translate(-30 -48)" onmousedown="handlePan(0,1)">
                  <use xlink:href="#rim" fill="#404040">
                        <set attributeName="fill" to="#808080" begin="arrowDown.mouseover" end="arrowDown.mouseout"/>
                  </use>
                  <path fill="none" stroke="white" stroke-width="1.5" d="M0,-3.0v7 M-2.5,-0.5L0,-3.0L2.5,-0.5"/>
                </g>
                <g id="arrowLeft" xlink:href="#dirArrow" transform="rotate(270) translate(-36 17)" onmousedown="handlePan(-1,0)">
                  <use xlink:href="#rim" fill="#404040">
                        <set attributeName="fill" to="#808080" begin="arrowLeft.mouseover" end="arrowLeft.mouseout"/>
                  </use>
                  <path fill="none" stroke="white" stroke-width="1.5" d="M0,-3.0v7 M-2.5,-0.5L0,-3.0L2.5,-0.5"/>
                </g>
        </g>
        <svg viewBox="0 0 15 15" width="100%" height="30px" preserveAspectRatio="xMaxYMin meet">
         <g id="arrow_out" transform="scale(0.3 0.3)">
          <a xlink:href="ar_get_trans_mat_stereo_8c__incl_org.svg" target="_base">
           <rect id="button" ry="5" rx="5" y="6" x="6" height="38" width="38"
                fill="#f2f5e9" fill-opacity="0.5" stroke="#606060" stroke-width="1.0"/>
           <path id="arrow"
             d="M 11.500037,31.436501 C 11.940474,20.09759 22.043105,11.32322 32.158766,21.979434 L 37.068811,17.246167 C 37.068811,17.246167 37.088388,32 37.088388,32 L 22.160133,31.978069 C 22.160133,31.978069 26.997745,27.140456 26.997745,27.140456 C 18.528582,18.264221 13.291696,25.230495 11.500037,31.436501 z"
             style="fill:#404040;"/>
          </a>
         </g>
        </svg>
</svg>
