<?xml version="1.0" encoding="UTF-8" standalone="no"?>
<!DOCTYPE svg PUBLIC "-//W3C//DTD SVG 1.1//EN"
 "http://www.w3.org/Graphics/SVG/1.1/DTD/svg11.dtd">
<!-- Generated by graphviz version 2.40.1 (20161225.0304)
 -->
<!-- Title: Source/ARX/AR/include/ARX/AR/arImageProc.h Pages: 1 -->
<svg width="6910pt" height="232pt"
 viewBox="0.00 0.00 6909.73 232.00" xmlns="http://www.w3.org/2000/svg" xmlns:xlink="http://www.w3.org/1999/xlink">
<g id="graph0" class="graph" transform="scale(1 1) rotate(0) translate(4 228)">
<title>Source/ARX/AR/include/ARX/AR/arImageProc.h</title>
<polygon fill="#ffffff" stroke="transparent" points="-4,4 -4,-228 6905.7285,-228 6905.7285,4 -4,4"/>
<!-- Node17 -->
<g id="node1" class="node">
<title>Node17</title>
<polygon fill="#bfbfbf" stroke="#000000" points="3269.1182,-195.5 3269.1182,-223.5 3393.4922,-223.5 3393.4922,-195.5 3269.1182,-195.5"/>
<text text-anchor="start" x="3277.1182" y="-211.5" font-family="Helvetica,sans-Serif" font-size="10.00" fill="#000000">Source/ARX/AR/include</text>
<text text-anchor="middle" x="3331.3052" y="-201.5" font-family="Helvetica,sans-Serif" font-size="10.00" fill="#000000">/ARX/AR/arImageProc.h</text>
</g>
<!-- Node18 -->
<g id="node2" class="node">
<title>Node18</title>
<g id="a_node2"><a xlink:href="ar_detect_marker_8c.html" target="_top" xlink:title="Source/ARX/AR/arDetectMarker.c">
<polygon fill="#ffffff" stroke="#000000" points="0,-70.5 0,-88.5 166.6104,-88.5 166.6104,-70.5 0,-70.5"/>
<text text-anchor="middle" x="83.3052" y="-76.5" font-family="Helvetica,sans-Serif" font-size="10.00" fill="#000000">Source/ARX/AR/arDetectMarker.c</text>
</a>
</g>
</g>
<!-- Node17&#45;&gt;Node18 -->
<g id="edge1" class="edge">
<title>Node17&#45;&gt;Node18</title>
<path fill="none" stroke="#191970" d="M3258.7997,-208.0115C2847.4446,-199.3896 803.2924,-154.1425 176.3052,-94 162.6415,-92.6893 147.9317,-90.6776 134.3334,-88.5661"/>
<polygon fill="#191970" stroke="#191970" points="3258.9988,-211.5163 3269.0698,-208.2262 3259.1452,-204.5178 3258.9988,-211.5163"/>
</g>
<!-- Node19 -->
<g id="node3" class="node">
<title>Node19</title>
<g id="a_node3"><a xlink:href="ar_image_proc_8c.html" target="_top" xlink:title="Source/ARX/AR/arImageProc.c">
<polygon fill="#ffffff" stroke="#000000" points="3410.5566,-135.5 3410.5566,-153.5 3566.0537,-153.5 3566.0537,-135.5 3410.5566,-135.5"/>
<text text-anchor="middle" x="3488.3052" y="-141.5" font-family="Helvetica,sans-Serif" font-size="10.00" fill="#000000">Source/ARX/AR/arImageProc.c</text>
</a>
</g>
</g>
<!-- Node17&#45;&gt;Node19 -->
<g id="edge2" class="edge">
<title>Node17&#45;&gt;Node19</title>
<path fill="none" stroke="#191970" d="M3374.7117,-191.5291C3404.4867,-179.2019 3442.7435,-163.3631 3466.3872,-153.5743"/>
<polygon fill="#191970" stroke="#191970" points="3373.2724,-188.3368 3365.3718,-195.396 3375.9502,-194.8045 3373.2724,-188.3368"/>
</g>
<!-- Node20 -->
<g id="node4" class="node">
<title>Node20</title>
<g id="a_node4"><a xlink:href="ar_8h.html" target="_top" xlink:title="artoolkitX core routines. ">
<polygon fill="#ffffff" stroke="#ff0000" points="3270.2241,-130.5 3270.2241,-158.5 3392.3862,-158.5 3392.3862,-130.5 3270.2241,-130.5"/>
<text text-anchor="start" x="3278.2241" y="-146.5" font-family="Helvetica,sans-Serif" font-size="10.00" fill="#000000">Source/ARX/AR/include</text>
<text text-anchor="middle" x="3331.3052" y="-136.5" font-family="Helvetica,sans-Serif" font-size="10.00" fill="#000000">/ARX/AR/ar.h</text>
</a>
</g>
</g>
<!-- Node17&#45;&gt;Node20 -->
<g id="edge3" class="edge">
<title>Node17&#45;&gt;Node20</title>
<path fill="none" stroke="#191970" d="M3324.7598,-185.4029C3324.3107,-176.3703 3324.6008,-166.4078 3325.6304,-158.5765"/>
<polygon fill="#191970" stroke="#191970" points="3321.2755,-185.7359 3325.6268,-195.396 3328.2493,-185.1309 3321.2755,-185.7359"/>
</g>
<!-- Node20&#45;&gt;Node17 -->
<g id="edge35" class="edge">
<title>Node20&#45;&gt;Node17</title>
<path fill="none" stroke="#191970" d="M3337.8489,-168.5653C3338.2998,-177.5958 3338.0114,-187.5597 3336.9836,-195.396"/>
<polygon fill="#191970" stroke="#191970" points="3341.3336,-168.2355 3336.98,-158.5765 3334.3599,-168.8422 3341.3336,-168.2355"/>
</g>
<!-- Node20&#45;&gt;Node18 -->
<g id="edge7" class="edge">
<title>Node20&#45;&gt;Node18</title>
<path fill="none" stroke="#191970" d="M3260.1816,-143.9541C2821.557,-140.5088 492.5228,-121.0507 176.3052,-94 162.1403,-92.7883 146.8622,-90.7255 132.8635,-88.53"/>
<polygon fill="#191970" stroke="#191970" points="3260.1621,-147.454 3270.1893,-144.0325 3260.217,-140.4542 3260.1621,-147.454"/>
</g>
<!-- Node21 -->
<g id="node5" class="node">
<title>Node21</title>
<g id="a_node5"><a xlink:href="ar3_d_create_handle_8c.html" target="_top" xlink:title="Source/ARX/AR/ar3DCreate\lHandle.c">
<polygon fill="#ffffff" stroke="#000000" points="6420.2241,-65.5 6420.2241,-93.5 6562.3862,-93.5 6562.3862,-65.5 6420.2241,-65.5"/>
<text text-anchor="start" x="6428.2241" y="-81.5" font-family="Helvetica,sans-Serif" font-size="10.00" fill="#000000">Source/ARX/AR/ar3DCreate</text>
<text text-anchor="middle" x="6491.3052" y="-71.5" font-family="Helvetica,sans-Serif" font-size="10.00" fill="#000000">Handle.c</text>
</a>
</g>
</g>
<!-- Node20&#45;&gt;Node21 -->
<g id="edge4" class="edge">
<title>Node20&#45;&gt;Node21</title>
<path fill="none" stroke="#191970" d="M3402.8495,-130.0083C4083.1186,-58.8215 5748.7576,-157.5543 6411.3052,-94 6414.1153,-93.7304 6416.9746,-93.4145 6419.8583,-93.0611"/>
<polygon fill="#191970" stroke="#191970" points="3402.2315,-126.5543 3392.6592,-131.0955 3402.9741,-133.5148 3402.2315,-126.5543"/>
</g>
<!-- Node22 -->
<g id="node6" class="node">
<title>Node22</title>
<g id="a_node6"><a xlink:href="ar3_d_util_8c.html" target="_top" xlink:title="Source/ARX/AR/ar3DUtil.c">
<polygon fill="#ffffff" stroke="#000000" points="6580.1206,-70.5 6580.1206,-88.5 6714.4897,-88.5 6714.4897,-70.5 6580.1206,-70.5"/>
<text text-anchor="middle" x="6647.3052" y="-76.5" font-family="Helvetica,sans-Serif" font-size="10.00" fill="#000000">Source/ARX/AR/ar3DUtil.c</text>
</a>
</g>
</g>
<!-- Node20&#45;&gt;Node22 -->
<g id="edge5" class="edge">
<title>Node20&#45;&gt;Node22</title>
<path fill="none" stroke="#191970" d="M3402.8576,-130.0078C4118.521,-55.2436 5873.6678,-163.9549 6571.3052,-94 6583.0667,-92.8206 6595.7227,-90.7387 6607.2684,-88.5141"/>
<polygon fill="#191970" stroke="#191970" points="3402.2323,-126.5545 3392.659,-131.0934 3402.9733,-133.5152 3402.2323,-126.5545"/>
</g>
<!-- Node23 -->
<g id="node7" class="node">
<title>Node23</title>
<g id="a_node7"><a xlink:href="ar_create_handle_8c.html" target="_top" xlink:title="Source/ARX/AR/arCreateHandle.c">
<polygon fill="#ffffff" stroke="#000000" points="6732.8818,-70.5 6732.8818,-88.5 6901.7285,-88.5 6901.7285,-70.5 6732.8818,-70.5"/>
<text text-anchor="middle" x="6817.3052" y="-76.5" font-family="Helvetica,sans-Serif" font-size="10.00" fill="#000000">Source/ARX/AR/arCreateHandle.c</text>
</a>
</g>
</g>
<!-- Node20&#45;&gt;Node23 -->
<g id="edge6" class="edge">
<title>Node20&#45;&gt;Node23</title>
<path fill="none" stroke="#191970" d="M3402.7892,-130.0142C4152.0141,-51.6891 5990.8401,-154.1549 6723.3052,-94 6737.7874,-92.8106 6753.4205,-90.7256 6767.702,-88.5011"/>
<polygon fill="#191970" stroke="#191970" points="3402.2326,-126.5536 3392.6588,-131.0915 3402.9729,-133.5144 3402.2326,-126.5536"/>
</g>
<!-- Node24 -->
<g id="node8" class="node">
<title>Node24</title>
<g id="a_node8"><a xlink:href="ar_detect_marker2_8c.html" target="_top" xlink:title="Source/ARX/AR/arDetectMarker2.c">
<polygon fill="#ffffff" stroke="#000000" points="184.9458,-70.5 184.9458,-88.5 357.6646,-88.5 357.6646,-70.5 184.9458,-70.5"/>
<text text-anchor="middle" x="271.3052" y="-76.5" font-family="Helvetica,sans-Serif" font-size="10.00" fill="#000000">Source/ARX/AR/arDetectMarker2.c</text>
</a>
</g>
</g>
<!-- Node20&#45;&gt;Node24 -->
<g id="edge8" class="edge">
<title>Node20&#45;&gt;Node24</title>
<path fill="none" stroke="#191970" d="M3259.8152,-143.859C2836.083,-139.9829 662.412,-119.0052 366.3052,-94 351.8415,-92.7786 336.2367,-90.7127 321.9369,-88.5174"/>
<polygon fill="#191970" stroke="#191970" points="3260.054,-147.3612 3270.0856,-143.9527 3260.118,-140.3615 3260.054,-147.3612"/>
</g>
<!-- Node25 -->
<g id="node9" class="node">
<title>Node25</title>
<g id="a_node9"><a xlink:href="ar_get_line_8c.html" target="_top" xlink:title="Source/ARX/AR/arGetLine.c">
<polygon fill="#ffffff" stroke="#000000" points="375.2217,-70.5 375.2217,-88.5 517.3887,-88.5 517.3887,-70.5 375.2217,-70.5"/>
<text text-anchor="middle" x="446.3052" y="-76.5" font-family="Helvetica,sans-Serif" font-size="10.00" fill="#000000">Source/ARX/AR/arGetLine.c</text>
</a>
</g>
</g>
<!-- Node20&#45;&gt;Node25 -->
<g id="edge9" class="edge">
<title>Node20&#45;&gt;Node25</title>
<path fill="none" stroke="#191970" d="M3259.7647,-143.9032C2849.5967,-140.3891 805.1733,-121.6006 526.3052,-94 514.0847,-92.7905 500.9308,-90.7284 488.8893,-88.5329"/>
<polygon fill="#191970" stroke="#191970" points="3259.974,-147.405 3270.0036,-143.9906 3260.0339,-140.4052 3259.974,-147.405"/>
</g>
<!-- Node26 -->
<g id="node10" class="node">
<title>Node26</title>
<g id="a_node10"><a xlink:href="ar_get_marker_info_8c.html" target="_top" xlink:title="Source/ARX/AR/arGetMarker\lInfo.c">
<polygon fill="#ffffff" stroke="#000000" points="535.0073,-65.5 535.0073,-93.5 681.603,-93.5 681.603,-65.5 535.0073,-65.5"/>
<text text-anchor="start" x="543.0073" y="-81.5" font-family="Helvetica,sans-Serif" font-size="10.00" fill="#000000">Source/ARX/AR/arGetMarker</text>
<text text-anchor="middle" x="608.3052" y="-71.5" font-family="Helvetica,sans-Serif" font-size="10.00" fill="#000000">Info.c</text>
</a>
</g>
</g>
<!-- Node20&#45;&gt;Node26 -->
<g id="edge10" class="edge">
<title>Node20&#45;&gt;Node26</title>
<path fill="none" stroke="#191970" d="M3259.8935,-143.7911C2864.5891,-139.7792 952.9291,-119.2039 691.3052,-94 688.2475,-93.7054 685.1329,-93.3616 681.9914,-92.9786"/>
<polygon fill="#191970" stroke="#191970" points="3260.0142,-147.2924 3270.0492,-143.8939 3260.0851,-140.2928 3260.0142,-147.2924"/>
</g>
<!-- Node27 -->
<g id="node11" class="node">
<title>Node27</title>
<g id="a_node11"><a xlink:href="ar_get_trans_mat_8c.html" target="_top" xlink:title="Source/ARX/AR/arGetTrans\lMat.c">
<polygon fill="#ffffff" stroke="#000000" points="699.9663,-65.5 699.9663,-93.5 840.644,-93.5 840.644,-65.5 699.9663,-65.5"/>
<text text-anchor="start" x="707.9663" y="-81.5" font-family="Helvetica,sans-Serif" font-size="10.00" fill="#000000">Source/ARX/AR/arGetTrans</text>
<text text-anchor="middle" x="770.3052" y="-71.5" font-family="Helvetica,sans-Serif" font-size="10.00" fill="#000000">Mat.c</text>
</a>
</g>
</g>
<!-- Node20&#45;&gt;Node27 -->
<g id="edge11" class="edge">
<title>Node20&#45;&gt;Node27</title>
<path fill="none" stroke="#191970" d="M3259.9441,-143.7249C2879.2024,-139.499 1095.1632,-118.5251 850.3052,-94 847.2153,-93.6905 844.0657,-93.3271 840.8894,-92.9214"/>
<polygon fill="#191970" stroke="#191970" points="3259.9659,-147.2253 3270.0041,-143.8363 3260.0435,-140.2257 3259.9659,-147.2253"/>
</g>
<!-- Node28 -->
<g id="node12" class="node">
<title>Node28</title>
<g id="a_node12"><a xlink:href="ar_get_trans_mat_stereo_8c.html" target="_top" xlink:title="Source/ARX/AR/arGetTrans\lMatStereo.c">
<polygon fill="#ffffff" stroke="#000000" points="858.9663,-65.5 858.9663,-93.5 999.644,-93.5 999.644,-65.5 858.9663,-65.5"/>
<text text-anchor="start" x="866.9663" y="-81.5" font-family="Helvetica,sans-Serif" font-size="10.00" fill="#000000">Source/ARX/AR/arGetTrans</text>
<text text-anchor="middle" x="929.3052" y="-71.5" font-family="Helvetica,sans-Serif" font-size="10.00" fill="#000000">MatStereo.c</text>
</a>
</g>
</g>
<!-- Node20&#45;&gt;Node28 -->
<g id="edge12" class="edge">
<title>Node20&#45;&gt;Node28</title>
<path fill="none" stroke="#191970" d="M3259.8632,-143.6174C2893.8882,-139.0062 1237.4795,-117.0146 1009.3052,-94 1006.2155,-93.6884 1003.0661,-93.3232 999.8899,-92.916"/>
<polygon fill="#191970" stroke="#191970" points="3260.0142,-147.1195 3270.0574,-143.7456 3260.1022,-140.1201 3260.0142,-147.1195"/>
</g>
<!-- Node29 -->
<g id="node13" class="node">
<title>Node29</title>
<g id="a_node13"><a xlink:href="ar_labeling_8c.html" target="_top" xlink:title="Source/ARX/AR/arLabeling.c">
<polygon fill="#ffffff" stroke="#000000" points="1017.8276,-70.5 1017.8276,-88.5 1162.7827,-88.5 1162.7827,-70.5 1017.8276,-70.5"/>
<text text-anchor="middle" x="1090.3052" y="-76.5" font-family="Helvetica,sans-Serif" font-size="10.00" fill="#000000">Source/ARX/AR/arLabeling.c</text>
</a>
</g>
</g>
<!-- Node20&#45;&gt;Node29 -->
<g id="edge13" class="edge">
<title>Node20&#45;&gt;Node29</title>
<path fill="none" stroke="#191970" d="M3259.7327,-144.3067C2934.0589,-143.2 1590.0121,-136.119 1171.3052,-94 1159.0809,-92.7703 1145.9286,-90.7304 1133.8514,-88.5635"/>
<polygon fill="#191970" stroke="#191970" points="3259.9677,-147.8074 3269.9792,-144.3407 3259.9909,-140.8075 3259.9677,-147.8074"/>
</g>
<!-- Node30 -->
<g id="node14" class="node">
<title>Node30</title>
<g id="a_node14"><a xlink:href="ar_labeling_sub_8h.html" target="_top" xlink:title="Source/ARX/AR/arLabeling\lSub/arLabelingSub.h">
<polygon fill="#ffffff" stroke="#ff0000" points="1180.7168,-65.5 1180.7168,-93.5 1317.8936,-93.5 1317.8936,-65.5 1180.7168,-65.5"/>
<text text-anchor="start" x="1188.7168" y="-81.5" font-family="Helvetica,sans-Serif" font-size="10.00" fill="#000000">Source/ARX/AR/arLabeling</text>
<text text-anchor="middle" x="1249.3052" y="-71.5" font-family="Helvetica,sans-Serif" font-size="10.00" fill="#000000">Sub/arLabelingSub.h</text>
</a>
</g>
</g>
<!-- Node20&#45;&gt;Node30 -->
<g id="edge14" class="edge">
<title>Node20&#45;&gt;Node30</title>
<path fill="none" stroke="#191970" d="M3259.8002,-144.1105C2949.4663,-142.2017 1717.6459,-132.3148 1332.3052,-94 1327.6472,-93.5369 1322.8568,-92.9629 1318.04,-92.3132"/>
<polygon fill="#191970" stroke="#191970" points="3259.9942,-147.6116 3270.0153,-144.1725 3260.0367,-140.6117 3259.9942,-147.6116"/>
</g>
<!-- Node43 -->
<g id="node15" class="node">
<title>Node43</title>
<g id="a_node15"><a xlink:href="ar_multi_free_config_8c.html" target="_top" xlink:title="Source/ARX/AR/arMultiFree\lConfig.c">
<polygon fill="#ffffff" stroke="#000000" points="1168.7856,-.5 1168.7856,-28.5 1309.8247,-28.5 1309.8247,-.5 1168.7856,-.5"/>
<text text-anchor="start" x="1176.7856" y="-16.5" font-family="Helvetica,sans-Serif" font-size="10.00" fill="#000000">Source/ARX/AR/arMultiFree</text>
<text text-anchor="middle" x="1239.3052" y="-6.5" font-family="Helvetica,sans-Serif" font-size="10.00" fill="#000000">Config.c</text>
</a>
</g>
</g>
<!-- Node20&#45;&gt;Node43 -->
<g id="edge15" class="edge">
<title>Node20&#45;&gt;Node43</title>
<path fill="none" stroke="#191970" d="M3259.7495,-143.5698C2919.6662,-139.0308 1479.3511,-118.4322 1387.3052,-94 1374.267,-90.5392 1302.7827,-50.5629 1264.1342,-28.6547"/>
<polygon fill="#191970" stroke="#191970" points="3259.9167,-147.0722 3269.9624,-143.7057 3260.0099,-140.0729 3259.9167,-147.0722"/>
</g>
<!-- Node44 -->
<g id="node16" class="node">
<title>Node44</title>
<g id="a_node16"><a xlink:href="ar_multi_get_trans_mat_8c.html" target="_top" xlink:title="Source/ARX/AR/arMultiGet\lTransMat.c">
<polygon fill="#ffffff" stroke="#000000" points="1328.0073,-.5 1328.0073,-28.5 1464.603,-28.5 1464.603,-.5 1328.0073,-.5"/>
<text text-anchor="start" x="1336.0073" y="-16.5" font-family="Helvetica,sans-Serif" font-size="10.00" fill="#000000">Source/ARX/AR/arMultiGet</text>
<text text-anchor="middle" x="1396.3052" y="-6.5" font-family="Helvetica,sans-Serif" font-size="10.00" fill="#000000">TransMat.c</text>
</a>
</g>
</g>
<!-- Node20&#45;&gt;Node44 -->
<g id="edge16" class="edge">
<title>Node20&#45;&gt;Node44</title>
<path fill="none" stroke="#191970" d="M3259.907,-143.9202C2915.1464,-140.962 1437.7765,-126.4095 1403.3052,-94 1385.7407,-77.4861 1388.8191,-46.6937 1392.5933,-28.6617"/>
<polygon fill="#191970" stroke="#191970" points="3259.985,-147.4209 3270.0145,-144.0064 3260.0448,-140.4212 3259.985,-147.4209"/>
</g>
<!-- Node45 -->
<g id="node17" class="node">
<title>Node45</title>
<g id="a_node17"><a xlink:href="ar_multi_get_trans_mat_stereo_8c.html" target="_top" xlink:title="Source/ARX/AR/arMultiGet\lTransMatStereo.c">
<polygon fill="#ffffff" stroke="#000000" points="1483.0073,-.5 1483.0073,-28.5 1619.603,-28.5 1619.603,-.5 1483.0073,-.5"/>
<text text-anchor="start" x="1491.0073" y="-16.5" font-family="Helvetica,sans-Serif" font-size="10.00" fill="#000000">Source/ARX/AR/arMultiGet</text>
<text text-anchor="middle" x="1551.3052" y="-6.5" font-family="Helvetica,sans-Serif" font-size="10.00" fill="#000000">TransMatStereo.c</text>
</a>
</g>
</g>
<!-- Node20&#45;&gt;Node45 -->
<g id="edge17" class="edge">
<title>Node20&#45;&gt;Node45</title>
<path fill="none" stroke="#191970" d="M3259.5557,-144.1531C2942.956,-142.3986 1683.2989,-132.9851 1609.3052,-94 1582.5512,-79.9042 1565.0665,-47.2958 1556.8229,-28.5127"/>
<polygon fill="#191970" stroke="#191970" points="3259.9565,-147.6552 3269.9754,-144.2099 3259.9947,-140.6553 3259.9565,-147.6552"/>
</g>
<!-- Node46 -->
<g id="node18" class="node">
<title>Node46</title>
<g id="a_node18"><a xlink:href="ar_multi_read_config_file_8c.html" target="_top" xlink:title="Source/ARX/AR/arMultiRead\lConfigFile.c">
<polygon fill="#ffffff" stroke="#000000" points="1637.1133,-.5 1637.1133,-28.5 1781.4971,-28.5 1781.4971,-.5 1637.1133,-.5"/>
<text text-anchor="start" x="1645.1133" y="-16.5" font-family="Helvetica,sans-Serif" font-size="10.00" fill="#000000">Source/ARX/AR/arMultiRead</text>
<text text-anchor="middle" x="1709.3052" y="-6.5" font-family="Helvetica,sans-Serif" font-size="10.00" fill="#000000">ConfigFile.c</text>
</a>
</g>
</g>
<!-- Node20&#45;&gt;Node46 -->
<g id="edge18" class="edge">
<title>Node20&#45;&gt;Node46</title>
<path fill="none" stroke="#191970" d="M3259.9211,-143.7393C2939.4989,-140.1585 1648.3289,-123.8925 1619.3052,-94 1595.5604,-69.5445 1638.857,-43.8989 1673.2457,-28.5588"/>
<polygon fill="#191970" stroke="#191970" points="3259.9748,-147.24 3270.0131,-143.8514 3260.0527,-140.2404 3259.9748,-147.24"/>
</g>
<!-- Node47 -->
<g id="node19" class="node">
<title>Node47</title>
<g id="a_node19"><a xlink:href="ar_patt_attach_8c.html" target="_top" xlink:title="Source/ARX/AR/arPattAttach.c">
<polygon fill="#ffffff" stroke="#000000" points="1628.665,-70.5 1628.665,-88.5 1781.9453,-88.5 1781.9453,-70.5 1628.665,-70.5"/>
<text text-anchor="middle" x="1705.3052" y="-76.5" font-family="Helvetica,sans-Serif" font-size="10.00" fill="#000000">Source/ARX/AR/arPattAttach.c</text>
</a>
</g>
</g>
<!-- Node20&#45;&gt;Node47 -->
<g id="edge19" class="edge">
<title>Node20&#45;&gt;Node47</title>
<path fill="none" stroke="#191970" d="M3259.9209,-143.4528C2996.7465,-139.3909 2081.0354,-123.423 1790.3052,-94 1777.6452,-92.7188 1764.0215,-90.6898 1751.4696,-88.5509"/>
<polygon fill="#191970" stroke="#191970" points="3260.0638,-146.9553 3270.1163,-143.6093 3260.1712,-139.9562 3260.0638,-146.9553"/>
</g>
<!-- Node48 -->
<g id="node20" class="node">
<title>Node48</title>
<g id="a_node20"><a xlink:href="ar_patt_create_handle_8c.html" target="_top" xlink:title="Source/ARX/AR/arPattCreate\lHandle.c">
<polygon fill="#ffffff" stroke="#000000" points="1799.7217,-65.5 1799.7217,-93.5 1946.8887,-93.5 1946.8887,-65.5 1799.7217,-65.5"/>
<text text-anchor="start" x="1807.7217" y="-81.5" font-family="Helvetica,sans-Serif" font-size="10.00" fill="#000000">Source/ARX/AR/arPattCreate</text>
<text text-anchor="middle" x="1873.3052" y="-71.5" font-family="Helvetica,sans-Serif" font-size="10.00" fill="#000000">Handle.c</text>
</a>
</g>
</g>
<!-- Node20&#45;&gt;Node48 -->
<g id="edge20" class="edge">
<title>Node20&#45;&gt;Node48</title>
<path fill="none" stroke="#191970" d="M3259.9006,-143.1858C3015.2914,-138.4793 2212.0602,-121.28 1955.3052,-94 1952.5737,-93.7098 1949.796,-93.3828 1946.994,-93.026"/>
<polygon fill="#191970" stroke="#191970" points="3260.0268,-146.6888 3270.092,-143.3809 3260.1608,-139.6901 3260.0268,-146.6888"/>
</g>
<!-- Node49 -->
<g id="node21" class="node">
<title>Node49</title>
<g id="a_node21"><a xlink:href="ar_patt_get_i_d_8c.html" target="_top" xlink:title="Source/ARX/AR/arPattGetID.c">
<polygon fill="#ffffff" stroke="#000000" points="1964.7808,-70.5 1964.7808,-88.5 2115.8296,-88.5 2115.8296,-70.5 1964.7808,-70.5"/>
<text text-anchor="middle" x="2040.3052" y="-76.5" font-family="Helvetica,sans-Serif" font-size="10.00" fill="#000000">Source/ARX/AR/arPattGetID.c</text>
</a>
</g>
</g>
<!-- Node20&#45;&gt;Node49 -->
<g id="edge21" class="edge">
<title>Node20&#45;&gt;Node49</title>
<path fill="none" stroke="#191970" d="M3260.0873,-142.7297C3035.9353,-136.9671 2346.6396,-117.7404 2124.3052,-94 2111.9443,-92.6801 2098.6513,-90.6653 2086.3687,-88.5536"/>
<polygon fill="#191970" stroke="#191970" points="3260.0032,-146.2286 3270.0895,-142.9858 3260.1824,-139.2309 3260.0032,-146.2286"/>
</g>
<!-- Node50 -->
<g id="node22" class="node">
<title>Node50</title>
<g id="a_node22"><a xlink:href="ar_patt_load_8c.html" target="_top" xlink:title="Source/ARX/AR/arPattLoad.c">
<polygon fill="#ffffff" stroke="#000000" points="2133.7168,-70.5 2133.7168,-88.5 2280.8936,-88.5 2280.8936,-70.5 2133.7168,-70.5"/>
<text text-anchor="middle" x="2207.3052" y="-76.5" font-family="Helvetica,sans-Serif" font-size="10.00" fill="#000000">Source/ARX/AR/arPattLoad.c</text>
</a>
</g>
</g>
<!-- Node20&#45;&gt;Node50 -->
<g id="edge22" class="edge">
<title>Node20&#45;&gt;Node50</title>
<path fill="none" stroke="#191970" d="M3259.6262,-142.2105C3056.219,-135.5251 2477.9355,-115.1625 2289.3052,-94 2277.237,-92.6461 2264.26,-90.6195 2252.2699,-88.5075"/>
<polygon fill="#191970" stroke="#191970" points="3259.7829,-145.7174 3269.8921,-142.5468 3260.0121,-138.7212 3259.7829,-145.7174"/>
</g>
<!-- Node51 -->
<g id="node23" class="node">
<title>Node51</title>
<g id="a_node23"><a xlink:href="ar_patt_save_8c.html" target="_top" xlink:title="Source/ARX/AR/arPattSave.c">
<polygon fill="#ffffff" stroke="#000000" points="2298.4434,-70.5 2298.4434,-88.5 2446.167,-88.5 2446.167,-70.5 2298.4434,-70.5"/>
<text text-anchor="middle" x="2372.3052" y="-76.5" font-family="Helvetica,sans-Serif" font-size="10.00" fill="#000000">Source/ARX/AR/arPattSave.c</text>
</a>
</g>
</g>
<!-- Node20&#45;&gt;Node51 -->
<g id="edge23" class="edge">
<title>Node20&#45;&gt;Node51</title>
<path fill="none" stroke="#191970" d="M3259.6029,-143.1652C3109.767,-139.761 2752.7089,-128.4341 2455.3052,-94 2443.2445,-92.6036 2430.2797,-90.5885 2418.2648,-88.5026"/>
<polygon fill="#191970" stroke="#191970" points="3259.954,-146.6738 3270.0293,-143.3969 3260.1095,-139.6755 3259.954,-146.6738"/>
</g>
<!-- Node52 -->
<g id="node24" class="node">
<title>Node52</title>
<g id="a_node24"><a xlink:href="ar_util_8c.html" target="_top" xlink:title="Source/ARX/AR/arUtil.c">
<polygon fill="#ffffff" stroke="#000000" points="2464.5122,-70.5 2464.5122,-88.5 2586.0981,-88.5 2586.0981,-70.5 2464.5122,-70.5"/>
<text text-anchor="middle" x="2525.3052" y="-76.5" font-family="Helvetica,sans-Serif" font-size="10.00" fill="#000000">Source/ARX/AR/arUtil.c</text>
</a>
</g>
</g>
<!-- Node20&#45;&gt;Node52 -->
<g id="edge24" class="edge">
<title>Node20&#45;&gt;Node52</title>
<path fill="none" stroke="#191970" d="M3259.4723,-142.8831C3127.2642,-139.1747 2836.7308,-127.6125 2594.3052,-94 2584.2416,-92.6047 2573.4505,-90.5899 2563.4614,-88.5041"/>
<polygon fill="#191970" stroke="#191970" points="3259.7689,-146.3924 3269.8609,-143.1674 3259.9604,-139.395 3259.7689,-146.3924"/>
</g>
<!-- Node53 -->
<g id="node25" class="node">
<title>Node53</title>
<g id="a_node25"><a xlink:href="icp_calib_stereo_8c.html" target="_top" xlink:title="Source/ARX/AR/icpCalibStereo.c">
<polygon fill="#ffffff" stroke="#000000" points="2603.6626,-70.5 2603.6626,-88.5 2766.9478,-88.5 2766.9478,-70.5 2603.6626,-70.5"/>
<text text-anchor="middle" x="2685.3052" y="-76.5" font-family="Helvetica,sans-Serif" font-size="10.00" fill="#000000">Source/ARX/AR/icpCalibStereo.c</text>
</a>
</g>
</g>
<!-- Node20&#45;&gt;Node53 -->
<g id="edge25" class="edge">
<title>Node20&#45;&gt;Node53</title>
<path fill="none" stroke="#191970" d="M3259.7325,-139.5345C3153.8561,-131.8389 2949.3518,-115.6346 2776.3052,-94 2763.9232,-92.452 2750.6385,-90.5012 2738.1508,-88.5368"/>
<polygon fill="#191970" stroke="#191970" points="3259.7503,-143.0448 3269.9766,-140.2748 3260.2549,-136.063 3259.7503,-143.0448"/>
</g>
<!-- Node54 -->
<g id="node26" class="node">
<title>Node54</title>
<g id="a_node26"><a xlink:href="icp_core_8c.html" target="_top" xlink:title="Source/ARX/AR/icpCore.c">
<polygon fill="#ffffff" stroke="#000000" points="2784.9507,-70.5 2784.9507,-88.5 2917.6597,-88.5 2917.6597,-70.5 2784.9507,-70.5"/>
<text text-anchor="middle" x="2851.3052" y="-76.5" font-family="Helvetica,sans-Serif" font-size="10.00" fill="#000000">Source/ARX/AR/icpCore.c</text>
</a>
</g>
</g>
<!-- Node20&#45;&gt;Node54 -->
<g id="edge26" class="edge">
<title>Node20&#45;&gt;Node54</title>
<path fill="none" stroke="#191970" d="M3260.1518,-137.0036C3179.2968,-128.1609 3043.4769,-112.3236 2927.3052,-94 2917.2212,-92.4095 2906.4263,-90.4854 2896.2314,-88.5659"/>
<polygon fill="#191970" stroke="#191970" points="3259.8987,-140.4966 3270.2188,-138.0995 3260.6563,-133.5378 3259.8987,-140.4966"/>
</g>
<!-- Node55 -->
<g id="node27" class="node">
<title>Node55</title>
<g id="a_node27"><a xlink:href="icp_handle_8c.html" target="_top" xlink:title="Source/ARX/AR/icpHandle.c">
<polygon fill="#ffffff" stroke="#000000" points="2935.9434,-70.5 2935.9434,-88.5 3078.667,-88.5 3078.667,-70.5 2935.9434,-70.5"/>
<text text-anchor="middle" x="3007.3052" y="-76.5" font-family="Helvetica,sans-Serif" font-size="10.00" fill="#000000">Source/ARX/AR/icpHandle.c</text>
</a>
</g>
</g>
<!-- Node20&#45;&gt;Node55 -->
<g id="edge27" class="edge">
<title>Node20&#45;&gt;Node55</title>
<path fill="none" stroke="#191970" d="M3260.0576,-130.2065C3196.6944,-117.4947 3105.9857,-99.297 3052.219,-88.5105"/>
<polygon fill="#191970" stroke="#191970" points="3259.4892,-133.6621 3269.9823,-132.1976 3260.8662,-126.7989 3259.4892,-133.6621"/>
</g>
<!-- Node56 -->
<g id="node28" class="node">
<title>Node56</title>
<g id="a_node28"><a xlink:href="icp_point_8c.html" target="_top" xlink:title="Source/ARX/AR/icpPoint.c">
<polygon fill="#ffffff" stroke="#000000" points="3096.3916,-70.5 3096.3916,-88.5 3230.2188,-88.5 3230.2188,-70.5 3096.3916,-70.5"/>
<text text-anchor="middle" x="3163.3052" y="-76.5" font-family="Helvetica,sans-Serif" font-size="10.00" fill="#000000">Source/ARX/AR/icpPoint.c</text>
</a>
</g>
</g>
<!-- Node20&#45;&gt;Node56 -->
<g id="edge28" class="edge">
<title>Node20&#45;&gt;Node56</title>
<path fill="none" stroke="#191970" d="M3285.2707,-126.689C3253.351,-114.3391 3212.1686,-98.4055 3186.7588,-88.5743"/>
<polygon fill="#191970" stroke="#191970" points="3284.2624,-130.0517 3294.8517,-130.396 3286.7883,-123.5233 3284.2624,-130.0517"/>
</g>
<!-- Node57 -->
<g id="node29" class="node">
<title>Node57</title>
<g id="a_node29"><a xlink:href="icp_point_robust_8c.html" target="_top" xlink:title="Source/ARX/AR/icpPointRobust.c">
<polygon fill="#ffffff" stroke="#000000" points="3248.5493,-70.5 3248.5493,-88.5 3414.061,-88.5 3414.061,-70.5 3248.5493,-70.5"/>
<text text-anchor="middle" x="3331.3052" y="-76.5" font-family="Helvetica,sans-Serif" font-size="10.00" fill="#000000">Source/ARX/AR/icpPointRobust.c</text>
</a>
</g>
</g>
<!-- Node20&#45;&gt;Node57 -->
<g id="edge29" class="edge">
<title>Node20&#45;&gt;Node57</title>
<path fill="none" stroke="#191970" d="M3331.3052,-120.3747C3331.3052,-109.2832 3331.3052,-96.7952 3331.3052,-88.5743"/>
<polygon fill="#191970" stroke="#191970" points="3327.8053,-120.3959 3331.3052,-130.396 3334.8053,-120.396 3327.8053,-120.3959"/>
</g>
<!-- Node58 -->
<g id="node30" class="node">
<title>Node58</title>
<g id="a_node30"><a xlink:href="icp_stereo_handle_8c.html" target="_top" xlink:title="Source/ARX/AR/icpStereoHandle.c">
<polygon fill="#ffffff" stroke="#000000" points="3432.2119,-70.5 3432.2119,-88.5 3604.3984,-88.5 3604.3984,-70.5 3432.2119,-70.5"/>
<text text-anchor="middle" x="3518.3052" y="-76.5" font-family="Helvetica,sans-Serif" font-size="10.00" fill="#000000">Source/ARX/AR/icpStereoHandle.c</text>
</a>
</g>
</g>
<!-- Node20&#45;&gt;Node58 -->
<g id="edge30" class="edge">
<title>Node20&#45;&gt;Node58</title>
<path fill="none" stroke="#191970" d="M3381.6294,-127.0076C3417.284,-114.6143 3463.6717,-98.4903 3492.1991,-88.5743"/>
<polygon fill="#191970" stroke="#191970" points="3380.1779,-123.8067 3371.8814,-130.396 3382.4762,-130.4186 3380.1779,-123.8067"/>
</g>
<!-- Node59 -->
<g id="node31" class="node">
<title>Node59</title>
<g id="a_node31"><a xlink:href="icp_stereo_point_8c.html" target="_top" xlink:title="Source/ARX/AR/icpStereoPoint.c">
<polygon fill="#ffffff" stroke="#000000" points="3622.6602,-70.5 3622.6602,-88.5 3785.9502,-88.5 3785.9502,-70.5 3622.6602,-70.5"/>
<text text-anchor="middle" x="3704.3052" y="-76.5" font-family="Helvetica,sans-Serif" font-size="10.00" fill="#000000">Source/ARX/AR/icpStereoPoint.c</text>
</a>
</g>
</g>
<!-- Node20&#45;&gt;Node59 -->
<g id="edge31" class="edge">
<title>Node20&#45;&gt;Node59</title>
<path fill="none" stroke="#191970" d="M3402.7357,-129.7872C3461.8279,-119.0189 3578.6221,-99.8863 3648.4902,-88.5339"/>
<polygon fill="#191970" stroke="#191970" points="3401.9368,-126.3755 3392.7385,-131.6329 3403.2077,-133.2591 3401.9368,-126.3755"/>
</g>
<!-- Node60 -->
<g id="node32" class="node">
<title>Node60</title>
<g id="a_node32"><a xlink:href="icp_stereo_point_robust_8c.html" target="_top" xlink:title="Source/ARX/AR/icpStereoPoint\lRobust.c">
<polygon fill="#ffffff" stroke="#000000" points="3803.5493,-65.5 3803.5493,-93.5 3959.061,-93.5 3959.061,-65.5 3803.5493,-65.5"/>
<text text-anchor="start" x="3811.5493" y="-81.5" font-family="Helvetica,sans-Serif" font-size="10.00" fill="#000000">Source/ARX/AR/icpStereoPoint</text>
<text text-anchor="middle" x="3881.3052" y="-71.5" font-family="Helvetica,sans-Serif" font-size="10.00" fill="#000000">Robust.c</text>
</a>
</g>
</g>
<!-- Node20&#45;&gt;Node60 -->
<g id="edge32" class="edge">
<title>Node20&#45;&gt;Node60</title>
<path fill="none" stroke="#191970" d="M3402.7161,-129.8978C3576.9716,-104.5772 3624.1629,-116.2138 3795.3052,-94 3798.0079,-93.6492 3800.7558,-93.276 3803.529,-92.8854"/>
<polygon fill="#191970" stroke="#191970" points="3402.0781,-126.4539 3392.695,-131.3739 3403.0984,-133.3791 3402.0781,-126.4539"/>
</g>
<!-- Node61 -->
<g id="node33" class="node">
<title>Node61</title>
<g id="a_node33"><a xlink:href="icp_util_8c.html" target="_top" xlink:title="Source/ARX/AR/icpUtil.c">
<polygon fill="#ffffff" stroke="#000000" points="3976.5664,-70.5 3976.5664,-88.5 4102.0439,-88.5 4102.0439,-70.5 3976.5664,-70.5"/>
<text text-anchor="middle" x="4039.3052" y="-76.5" font-family="Helvetica,sans-Serif" font-size="10.00" fill="#000000">Source/ARX/AR/icpUtil.c</text>
</a>
</g>
</g>
<!-- Node20&#45;&gt;Node61 -->
<g id="edge33" class="edge">
<title>Node20&#45;&gt;Node61</title>
<path fill="none" stroke="#191970" d="M3402.8204,-129.9277C3653.3389,-97.1147 3721.3086,-126.9026 3968.3052,-94 3978.6558,-92.6212 3989.7581,-90.6122 4000.0365,-88.5267"/>
<polygon fill="#191970" stroke="#191970" points="3402.1323,-126.4883 3392.6812,-131.2766 3403.0555,-133.4272 3402.1323,-126.4883"/>
</g>
<!-- Node62 -->
<g id="node34" class="node">
<title>Node62</title>
<g id="a_node34"><a xlink:href="ar_filter_trans_mat_8h.html" target="_top" xlink:title="Provides filtering of transformation matrices (pose estimates). ">
<polygon fill="#ffffff" stroke="#ff0000" points="4120.252,-65.5 4120.252,-93.5 4260.3584,-93.5 4260.3584,-65.5 4120.252,-65.5"/>
<text text-anchor="start" x="4128.252" y="-81.5" font-family="Helvetica,sans-Serif" font-size="10.00" fill="#000000">Source/ARX/AR/include</text>
<text text-anchor="middle" x="4190.3052" y="-71.5" font-family="Helvetica,sans-Serif" font-size="10.00" fill="#000000">/ARX/AR/arFilterTransMat.h</text>
</a>
</g>
</g>
<!-- Node20&#45;&gt;Node62 -->
<g id="edge34" class="edge">
<title>Node20&#45;&gt;Node62</title>
<path fill="none" stroke="#191970" d="M3402.9709,-129.9261C3716.508,-90.7042 3800.8423,-130.2052 4111.3052,-94 4114.2138,-93.6608 4117.1768,-93.2797 4120.1657,-92.8658"/>
<polygon fill="#191970" stroke="#191970" points="3402.1555,-126.5014 3392.6753,-131.2318 3403.0363,-133.4457 3402.1555,-126.5014"/>
</g>
<!-- Node84 -->
<g id="node35" class="node">
<title>Node84</title>
<g id="a_node35"><a xlink:href="ar_multi_8h.html" target="_top" xlink:title="Source/ARX/AR/include\l/ARX/AR/arMulti.h">
<polygon fill="#ffffff" stroke="#ff0000" points="1412.2241,-65.5 1412.2241,-93.5 1534.3862,-93.5 1534.3862,-65.5 1412.2241,-65.5"/>
<text text-anchor="start" x="1420.2241" y="-81.5" font-family="Helvetica,sans-Serif" font-size="10.00" fill="#000000">Source/ARX/AR/include</text>
<text text-anchor="middle" x="1473.3052" y="-71.5" font-family="Helvetica,sans-Serif" font-size="10.00" fill="#000000">/ARX/AR/arMulti.h</text>
</a>
</g>
</g>
<!-- Node20&#45;&gt;Node84 -->
<g id="edge36" class="edge">
<title>Node20&#45;&gt;Node84</title>
<path fill="none" stroke="#191970" d="M3259.5814,-144.0266C2970.2821,-141.8759 1888.4674,-131.4477 1548.3052,-94 1543.8232,-93.5066 1539.2088,-92.8885 1534.5762,-92.1875"/>
<polygon fill="#191970" stroke="#191970" points="3259.9153,-147.529 3269.9408,-144.1025 3259.9667,-140.5292 3259.9153,-147.529"/>
</g>
<!-- Node85 -->
<g id="node36" class="node">
<title>Node85</title>
<g id="a_node36"><a xlink:href="param_8h.html" target="_top" xlink:title="artoolkitX functions for handling calibrated camera parameters. ">
<polygon fill="#ffffff" stroke="#ff0000" points="4278.2241,-65.5 4278.2241,-93.5 4400.3862,-93.5 4400.3862,-65.5 4278.2241,-65.5"/>
<text text-anchor="start" x="4286.2241" y="-81.5" font-family="Helvetica,sans-Serif" font-size="10.00" fill="#000000">Source/ARX/AR/include</text>
<text text-anchor="middle" x="4339.3052" y="-71.5" font-family="Helvetica,sans-Serif" font-size="10.00" fill="#000000">/ARX/AR/param.h</text>
</a>
</g>
</g>
<!-- Node20&#45;&gt;Node85 -->
<g id="edge41" class="edge">
<title>Node20&#45;&gt;Node85</title>
<path fill="none" stroke="#191970" d="M3398.7178,-129.2501C3777.3123,-83.7071 3880.4738,-140.8994 4260.3052,-94 4266.0943,-93.2852 4272.1172,-92.3441 4278.1485,-91.2839"/>
<polygon fill="#191970" stroke="#191970" points="3398.0844,-125.8013 3388.5815,-130.486 3398.9316,-132.7499 3398.0844,-125.8013"/>
</g>
<!-- Node86 -->
<g id="node37" class="node">
<title>Node86</title>
<g id="a_node37"><a xlink:href="param_g_l_8h.html" target="_top" xlink:title="Routines for converting ARParam and matrix types to OpenGL. ">
<polygon fill="#ffffff" stroke="#ff0000" points="4322.2241,-.5 4322.2241,-28.5 4444.3862,-28.5 4444.3862,-.5 4322.2241,-.5"/>
<text text-anchor="start" x="4330.2241" y="-16.5" font-family="Helvetica,sans-Serif" font-size="10.00" fill="#000000">Source/ARX/AR/include</text>
<text text-anchor="middle" x="4383.3052" y="-6.5" font-family="Helvetica,sans-Serif" font-size="10.00" fill="#000000">/ARX/AR/paramGL.h</text>
</a>
</g>
</g>
<!-- Node20&#45;&gt;Node86 -->
<g id="edge44" class="edge">
<title>Node20&#45;&gt;Node86</title>
<path fill="none" stroke="#191970" d="M3402.8802,-130.3951C3521.8078,-124.0233 4371.8014,-132.8671 4409.3052,-94 4426.6485,-76.0262 4408.9499,-46.3171 4395.4679,-28.7557"/>
<polygon fill="#191970" stroke="#191970" points="3402.3715,-126.9238 3392.6688,-131.1791 3402.9074,-133.9032 3402.3715,-126.9238"/>
</g>
<!-- Node89 -->
<g id="node38" class="node">
<title>Node89</title>
<g id="a_node38"><a xlink:href="m_alloc_8c.html" target="_top" xlink:title="Source/ARX/AR/mAlloc.c">
<polygon fill="#ffffff" stroke="#000000" points="4456.1772,-70.5 4456.1772,-88.5 4584.4331,-88.5 4584.4331,-70.5 4456.1772,-70.5"/>
<text text-anchor="middle" x="4520.3052" y="-76.5" font-family="Helvetica,sans-Serif" font-size="10.00" fill="#000000">Source/ARX/AR/mAlloc.c</text>
</a>
</g>
</g>
<!-- Node20&#45;&gt;Node89 -->
<g id="edge45" class="edge">
<title>Node20&#45;&gt;Node89</title>
<path fill="none" stroke="#191970" d="M3402.9021,-129.9577C3862.7449,-75.8637 3985.4891,-144.0761 4442.3052,-94 4453.9431,-92.7243 4466.4518,-90.6971 4477.97,-88.5582"/>
<polygon fill="#191970" stroke="#191970" points="3402.1848,-126.5183 3392.6683,-131.1752 3403.0118,-133.4693 3402.1848,-126.5183"/>
</g>
<!-- Node90 -->
<g id="node39" class="node">
<title>Node90</title>
<g id="a_node39"><a xlink:href="m_alloc_dup_8c.html" target="_top" xlink:title="Source/ARX/AR/mAllocDup.c">
<polygon fill="#ffffff" stroke="#000000" points="4602.0049,-70.5 4602.0049,-88.5 4748.6055,-88.5 4748.6055,-70.5 4602.0049,-70.5"/>
<text text-anchor="middle" x="4675.3052" y="-76.5" font-family="Helvetica,sans-Serif" font-size="10.00" fill="#000000">Source/ARX/AR/mAllocDup.c</text>
</a>
</g>
</g>
<!-- Node20&#45;&gt;Node90 -->
<g id="edge46" class="edge">
<title>Node20&#45;&gt;Node90</title>
<path fill="none" stroke="#191970" d="M3402.8071,-129.9745C3929.4596,-69.0254 4069.4201,-147.9432 4593.3052,-94 4605.6728,-92.7265 4618.9849,-90.6723 4631.2113,-88.5056"/>
<polygon fill="#191970" stroke="#191970" points="3402.1925,-126.5224 3392.6665,-131.1598 3403.0052,-133.4751 3402.1925,-126.5224"/>
</g>
<!-- Node91 -->
<g id="node40" class="node">
<title>Node91</title>
<g id="a_node40"><a xlink:href="m_alloc_inv_8c.html" target="_top" xlink:title="Source/ARX/AR/mAllocInv.c">
<polygon fill="#ffffff" stroke="#000000" points="4766.876,-70.5 4766.876,-88.5 4907.7344,-88.5 4907.7344,-70.5 4766.876,-70.5"/>
<text text-anchor="middle" x="4837.3052" y="-76.5" font-family="Helvetica,sans-Serif" font-size="10.00" fill="#000000">Source/ARX/AR/mAllocInv.c</text>
</a>
</g>
</g>
<!-- Node20&#45;&gt;Node91 -->
<g id="edge47" class="edge">
<title>Node20&#45;&gt;Node91</title>
<path fill="none" stroke="#191970" d="M3402.8565,-129.9738C4001.9565,-61.649 4160.9839,-155.5928 4757.3052,-94 4769.38,-92.7528 4782.3704,-90.7072 4794.2985,-88.5404"/>
<polygon fill="#191970" stroke="#191970" points="3402.1991,-126.5263 3392.665,-131.1469 3402.9996,-133.4804 3402.1991,-126.5263"/>
</g>
<!-- Node92 -->
<g id="node41" class="node">
<title>Node92</title>
<g id="a_node41"><a xlink:href="m_alloc_mul_8c.html" target="_top" xlink:title="Source/ARX/AR/mAllocMul.c">
<polygon fill="#ffffff" stroke="#000000" points="4926.1206,-70.5 4926.1206,-88.5 5070.4897,-88.5 5070.4897,-70.5 4926.1206,-70.5"/>
<text text-anchor="middle" x="4998.3052" y="-76.5" font-family="Helvetica,sans-Serif" font-size="10.00" fill="#000000">Source/ARX/AR/mAllocMul.c</text>
</a>
</g>
</g>
<!-- Node20&#45;&gt;Node92 -->
<g id="edge48" class="edge">
<title>Node20&#45;&gt;Node92</title>
<path fill="none" stroke="#191970" d="M3403.0494,-129.9557C4072.2704,-54.4777 4249.5417,-160.488 4916.3052,-94 4928.6768,-92.7663 4941.9903,-90.7252 4954.2166,-88.5582"/>
<polygon fill="#191970" stroke="#191970" points="3402.2041,-126.5292 3392.6638,-131.1371 3402.9954,-133.4843 3402.2041,-126.5292"/>
</g>
<!-- Node93 -->
<g id="node42" class="node">
<title>Node93</title>
<g id="a_node42"><a xlink:href="m_alloc_trans_8c.html" target="_top" xlink:title="Source/ARX/AR/mAllocTrans.c">
<polygon fill="#ffffff" stroke="#000000" points="5088.5796,-70.5 5088.5796,-88.5 5242.0308,-88.5 5242.0308,-70.5 5088.5796,-70.5"/>
<text text-anchor="middle" x="5165.3052" y="-76.5" font-family="Helvetica,sans-Serif" font-size="10.00" fill="#000000">Source/ARX/AR/mAllocTrans.c</text>
</a>
</g>
</g>
<!-- Node20&#45;&gt;Node93 -->
<g id="edge49" class="edge">
<title>Node20&#45;&gt;Node93</title>
<path fill="none" stroke="#191970" d="M3402.7893,-129.9878C4144.2746,-47.0602 4340.0202,-163.8789 5079.3052,-94 5092.2689,-92.7746 5106.2281,-90.7362 5119.0509,-88.5692"/>
<polygon fill="#191970" stroke="#191970" points="3402.2081,-126.5311 3392.6629,-131.129 3402.992,-133.4871 3402.2081,-126.5311"/>
</g>
<!-- Node94 -->
<g id="node43" class="node">
<title>Node94</title>
<g id="a_node43"><a xlink:href="m_alloc_unit_8c.html" target="_top" xlink:title="Source/ARX/AR/mAllocUnit.c">
<polygon fill="#ffffff" stroke="#000000" points="5260.2856,-70.5 5260.2856,-88.5 5406.3247,-88.5 5406.3247,-70.5 5260.2856,-70.5"/>
<text text-anchor="middle" x="5333.3052" y="-76.5" font-family="Helvetica,sans-Serif" font-size="10.00" fill="#000000">Source/ARX/AR/mAllocUnit.c</text>
</a>
</g>
</g>
<!-- Node20&#45;&gt;Node94 -->
<g id="edge50" class="edge">
<title>Node20&#45;&gt;Node94</title>
<path fill="none" stroke="#191970" d="M3402.6132,-130.0101C4220.2798,-39.2934 4436.1093,-173.5192 5251.3052,-94 5263.8233,-92.7789 5277.3035,-90.7131 5289.6461,-88.5178"/>
<polygon fill="#191970" stroke="#191970" points="3402.2116,-126.5331 3392.6621,-131.1219 3402.989,-133.4898 3402.2116,-126.5331"/>
</g>
<!-- Node95 -->
<g id="node44" class="node">
<title>Node95</title>
<g id="a_node44"><a xlink:href="m_det_8c.html" target="_top" xlink:title="Source/ARX/AR/mDet.c">
<polygon fill="#ffffff" stroke="#000000" points="5424.2339,-70.5 5424.2339,-88.5 5546.3765,-88.5 5546.3765,-70.5 5424.2339,-70.5"/>
<text text-anchor="middle" x="5485.3052" y="-76.5" font-family="Helvetica,sans-Serif" font-size="10.00" fill="#000000">Source/ARX/AR/mDet.c</text>
</a>
</g>
</g>
<!-- Node20&#45;&gt;Node95 -->
<g id="edge51" class="edge">
<title>Node20&#45;&gt;Node95</title>
<path fill="none" stroke="#191970" d="M3402.832,-129.9885C4292.8278,-31.9999 4528.9339,-192.8503 5415.3052,-94 5426.036,-92.8033 5437.5578,-90.7453 5448.0936,-88.5496"/>
<polygon fill="#191970" stroke="#191970" points="3402.2148,-126.5354 3392.6615,-131.1163 3402.9864,-133.4927 3402.2148,-126.5354"/>
</g>
<!-- Node96 -->
<g id="node45" class="node">
<title>Node96</title>
<g id="a_node45"><a xlink:href="m_disp_8c.html" target="_top" xlink:title="Source/ARX/AR/mDisp.c">
<polygon fill="#ffffff" stroke="#000000" points="5564.0122,-70.5 5564.0122,-88.5 5690.5981,-88.5 5690.5981,-70.5 5564.0122,-70.5"/>
<text text-anchor="middle" x="5627.3052" y="-76.5" font-family="Helvetica,sans-Serif" font-size="10.00" fill="#000000">Source/ARX/AR/mDisp.c</text>
</a>
</g>
</g>
<!-- Node20&#45;&gt;Node96 -->
<g id="edge52" class="edge">
<title>Node20&#45;&gt;Node96</title>
<path fill="none" stroke="#191970" d="M3402.8326,-129.9898C4354.7165,-25.6493 4606.7577,-196.5756 5555.3052,-94 5566.3342,-92.8073 5578.1825,-90.7506 5589.0194,-88.5549"/>
<polygon fill="#191970" stroke="#191970" points="3402.2168,-126.5364 3392.661,-131.1122 3402.9847,-133.4941 3402.2168,-126.5364"/>
</g>
<!-- Node97 -->
<g id="node46" class="node">
<title>Node97</title>
<g id="a_node46"><a xlink:href="m_dup_8c.html" target="_top" xlink:title="Source/ARX/AR/mDup.c">
<polygon fill="#ffffff" stroke="#000000" points="5708.8423,-70.5 5708.8423,-88.5 5833.7681,-88.5 5833.7681,-70.5 5708.8423,-70.5"/>
<text text-anchor="middle" x="5771.3052" y="-76.5" font-family="Helvetica,sans-Serif" font-size="10.00" fill="#000000">Source/ARX/AR/mDup.c</text>
</a>
</g>
</g>
<!-- Node20&#45;&gt;Node97 -->
<g id="edge53" class="edge">
<title>Node20&#45;&gt;Node97</title>
<path fill="none" stroke="#191970" d="M3402.9699,-129.9954C3925.825,-74.9327 5194.8548,-148.284 5699.3052,-94 5710.3348,-92.8131 5722.1833,-90.7583 5733.0202,-88.5625"/>
<polygon fill="#191970" stroke="#191970" points="3402.2271,-126.5552 3392.6606,-131.1086 3402.9786,-133.5147 3402.2271,-126.5552"/>
</g>
<!-- Node98 -->
<g id="node47" class="node">
<title>Node98</title>
<g id="a_node47"><a xlink:href="m_free_8c.html" target="_top" xlink:title="Source/ARX/AR/mFree.c">
<polygon fill="#ffffff" stroke="#000000" points="5851.7339,-70.5 5851.7339,-88.5 5978.8765,-88.5 5978.8765,-70.5 5851.7339,-70.5"/>
<text text-anchor="middle" x="5915.3052" y="-76.5" font-family="Helvetica,sans-Serif" font-size="10.00" fill="#000000">Source/ARX/AR/mFree.c</text>
</a>
</g>
</g>
<!-- Node20&#45;&gt;Node98 -->
<g id="edge54" class="edge">
<title>Node20&#45;&gt;Node98</title>
<path fill="none" stroke="#191970" d="M3402.7833,-130.0152C3957.1579,-71.6901 5306.1058,-150.7324 5842.3052,-94 5853.4842,-92.8172 5865.4961,-90.7637 5876.4835,-88.5679"/>
<polygon fill="#191970" stroke="#191970" points="3402.228,-126.5547 3392.6603,-131.1053 3402.9776,-133.5144 3402.228,-126.5547"/>
</g>
<!-- Node99 -->
<g id="node48" class="node">
<title>Node99</title>
<g id="a_node48"><a xlink:href="m_inv_8c.html" target="_top" xlink:title="Source/ARX/AR/mInv.c">
<polygon fill="#ffffff" stroke="#000000" points="5996.7134,-70.5 5996.7134,-88.5 6115.897,-88.5 6115.897,-70.5 5996.7134,-70.5"/>
<text text-anchor="middle" x="6056.3052" y="-76.5" font-family="Helvetica,sans-Serif" font-size="10.00" fill="#000000">Source/ARX/AR/mInv.c</text>
</a>
</g>
</g>
<!-- Node20&#45;&gt;Node99 -->
<g id="edge55" class="edge">
<title>Node20&#45;&gt;Node99</title>
<path fill="none" stroke="#191970" d="M3402.9469,-129.9986C3989.7258,-68.4661 5420.3107,-157.8838 5988.3052,-94 5998.8611,-92.8128 6010.1949,-90.7284 6020.5246,-88.5039"/>
<polygon fill="#191970" stroke="#191970" points="3402.2294,-126.5554 3392.66,-131.1024 3402.9763,-133.5154 3402.2294,-126.5554"/>
</g>
<!-- Node100 -->
<g id="node49" class="node">
<title>Node100</title>
<g id="a_node49"><a xlink:href="m_mul_8c.html" target="_top" xlink:title="Source/ARX/AR/mMul.c">
<polygon fill="#ffffff" stroke="#000000" points="6133.958,-70.5 6133.958,-88.5 6256.6523,-88.5 6256.6523,-70.5 6133.958,-70.5"/>
<text text-anchor="middle" x="6195.3052" y="-76.5" font-family="Helvetica,sans-Serif" font-size="10.00" fill="#000000">Source/ARX/AR/mMul.c</text>
</a>
</g>
</g>
<!-- Node20&#45;&gt;Node100 -->
<g id="edge56" class="edge">
<title>Node20&#45;&gt;Node100</title>
<path fill="none" stroke="#191970" d="M3403.029,-129.99C4020.1617,-65.3694 5526.8736,-159.3279 6125.3052,-94 6136.1622,-92.8148 6147.8264,-90.731 6158.4601,-88.5065"/>
<polygon fill="#191970" stroke="#191970" points="3402.2303,-126.5554 3392.6597,-131.0999 3402.9754,-133.5156 3402.2303,-126.5554"/>
</g>
<!-- Node101 -->
<g id="node50" class="node">
<title>Node101</title>
<g id="a_node50"><a xlink:href="m_p_c_a_8c.html" target="_top" xlink:title="Source/ARX/AR/mPCA.c">
<polygon fill="#ffffff" stroke="#000000" points="6274.7339,-70.5 6274.7339,-88.5 6401.8765,-88.5 6401.8765,-70.5 6274.7339,-70.5"/>
<text text-anchor="middle" x="6338.3052" y="-76.5" font-family="Helvetica,sans-Serif" font-size="10.00" fill="#000000">Source/ARX/AR/mPCA.c</text>
</a>
</g>
</g>
<!-- Node20&#45;&gt;Node101 -->
<g id="edge57" class="edge">
<title>Node20&#45;&gt;Node101</title>
<path fill="none" stroke="#191970" d="M3403.0771,-129.9848C4051.2036,-62.1919 5635.671,-159.925 6265.3052,-94 6276.614,-92.8159 6288.774,-90.7325 6299.8637,-88.508"/>
<polygon fill="#191970" stroke="#191970" points="3402.2311,-126.5552 3392.6594,-131.0976 3402.9747,-133.5156 3402.2311,-126.5552"/>
</g>
<!-- Node84&#45;&gt;Node43 -->
<g id="edge37" class="edge">
<title>Node84&#45;&gt;Node43</title>
<path fill="none" stroke="#191970" d="M1412.879,-62.7149C1374.7996,-52.1373 1326.1905,-38.6348 1290.1045,-28.6109"/>
<polygon fill="#191970" stroke="#191970" points="1412.2468,-66.1718 1422.8188,-65.476 1414.1203,-59.4272 1412.2468,-66.1718"/>
</g>
<!-- Node84&#45;&gt;Node44 -->
<g id="edge38" class="edge">
<title>Node84&#45;&gt;Node44</title>
<path fill="none" stroke="#191970" d="M1448.8822,-58.8832C1437.1808,-49.0054 1423.4676,-37.4293 1412.9804,-28.5765"/>
<polygon fill="#191970" stroke="#191970" points="1446.6982,-61.6199 1456.5973,-65.396 1451.2136,-56.2709 1446.6982,-61.6199"/>
</g>
<!-- Node84&#45;&gt;Node45 -->
<g id="edge39" class="edge">
<title>Node84&#45;&gt;Node45</title>
<path fill="none" stroke="#191970" d="M1498.0453,-58.8832C1509.8987,-49.0054 1523.79,-37.4293 1534.4134,-28.5765"/>
<polygon fill="#191970" stroke="#191970" points="1495.6716,-56.3053 1490.23,-65.396 1500.1529,-61.6829 1495.6716,-56.3053"/>
</g>
<!-- Node84&#45;&gt;Node46 -->
<g id="edge40" class="edge">
<title>Node84&#45;&gt;Node46</title>
<path fill="none" stroke="#191970" d="M1534.2479,-62.7149C1572.6527,-52.1373 1621.6773,-38.6348 1658.0717,-28.6109"/>
<polygon fill="#191970" stroke="#191970" points="1532.9347,-59.4462 1524.2231,-65.476 1534.7935,-66.1949 1532.9347,-59.4462"/>
</g>
<!-- Node85&#45;&gt;Node20 -->
<g id="edge42" class="edge">
<title>Node85&#45;&gt;Node20</title>
<path fill="none" stroke="#191970" d="M4271.8925,-94.7499C3893.2981,-140.2929 3790.1366,-83.1006 3410.3052,-130 3404.5161,-130.7148 3398.4932,-131.6559 3392.4618,-132.7161"/>
<polygon fill="#191970" stroke="#191970" points="4272.526,-98.1987 4282.0289,-93.514 4271.6787,-91.2501 4272.526,-98.1987"/>
</g>
<!-- Node85&#45;&gt;Node86 -->
<g id="edge43" class="edge">
<title>Node85&#45;&gt;Node86</title>
<path fill="none" stroke="#191970" d="M4354.626,-56.8669C4360.9942,-47.4594 4368.1872,-36.8334 4373.7765,-28.5765"/>
<polygon fill="#191970" stroke="#191970" points="4351.5598,-55.1529 4348.8525,-65.396 4357.3566,-59.0769 4351.5598,-55.1529"/>
</g>
</g>
</svg>
