<?xml version="1.0" encoding="UTF-8" standalone="no"?>
<!DOCTYPE svg PUBLIC "-//W3C//DTD SVG 1.1//EN"
 "http://www.w3.org/Graphics/SVG/1.1/DTD/svg11.dtd">
<!-- Generated by graphviz version 2.40.1 (20161225.0304)
 -->
<!-- Title: Source/ARX/AR/arImageProc.c Pages: 1 -->
<svg width="942pt" height="247pt"
 viewBox="0.00 0.00 941.91 247.00" xmlns="http://www.w3.org/2000/svg" xmlns:xlink="http://www.w3.org/1999/xlink">
<g id="graph0" class="graph" transform="scale(1 1) rotate(0) translate(4 243)">
<title>Source/ARX/AR/arImageProc.c</title>
<polygon fill="#ffffff" stroke="transparent" points="-4,4 -4,-243 937.9136,-243 937.9136,4 -4,4"/>
<!-- Node0 -->
<g id="node1" class="node">
<title>Node0</title>
<polygon fill="#bfbfbf" stroke="#000000" points="147.6479,-220.5 147.6479,-238.5 303.145,-238.5 303.145,-220.5 147.6479,-220.5"/>
<text text-anchor="middle" x="225.3965" y="-226.5" font-family="Helvetica,sans-Serif" font-size="10.00" fill="#000000">Source/ARX/AR/arImageProc.c</text>
</g>
<!-- Node1 -->
<g id="node2" class="node">
<title>Node1</title>
<polygon fill="#ffffff" stroke="#bfbfbf" points="0,-.5 0,-18.5 48.793,-18.5 48.793,-.5 0,-.5"/>
<text text-anchor="middle" x="24.3965" y="-6.5" font-family="Helvetica,sans-Serif" font-size="10.00" fill="#000000">string.h</text>
</g>
<!-- Node0&#45;&gt;Node1 -->
<g id="edge1" class="edge">
<title>Node0&#45;&gt;Node1</title>
<path fill="none" stroke="#191970" d="M217.0157,-220.327C186.3037,-186.7119 79.6323,-69.9572 39.6702,-26.2175"/>
<polygon fill="#191970" stroke="#191970" points="42.1421,-23.7341 32.8131,-18.7122 36.9742,-28.4557 42.1421,-23.7341"/>
</g>
<!-- Node2 -->
<g id="node3" class="node">
<title>Node2</title>
<g id="a_node3"><a xlink:href="ar_image_proc_8h.html" target="_top" xlink:title="artoolkitX functions for 2D luminance image processing. ">
<polygon fill="#ffffff" stroke="#000000" points="397.5986,-165.5 397.5986,-183.5 519.1943,-183.5 519.1943,-165.5 397.5986,-165.5"/>
<text text-anchor="middle" x="458.3965" y="-171.5" font-family="Helvetica,sans-Serif" font-size="10.00" fill="#000000">ARX/AR/arImageProc.h</text>
</a>
</g>
</g>
<!-- Node0&#45;&gt;Node2 -->
<g id="edge2" class="edge">
<title>Node0&#45;&gt;Node2</title>
<path fill="none" stroke="#191970" d="M263.6108,-220.4795C303.7353,-211.008 366.9194,-196.0933 410.3836,-185.8335"/>
<polygon fill="#191970" stroke="#191970" points="411.2329,-189.2293 420.1613,-183.5255 409.6247,-182.4165 411.2329,-189.2293"/>
</g>
<!-- Node3 -->
<g id="node4" class="node">
<title>Node3</title>
<polygon fill="#ffffff" stroke="#bfbfbf" points="842.8794,-55.5 842.8794,-73.5 933.9136,-73.5 933.9136,-55.5 842.8794,-55.5"/>
<text text-anchor="middle" x="888.3965" y="-61.5" font-family="Helvetica,sans-Serif" font-size="10.00" fill="#000000">ARX/AR/config.h</text>
</g>
<!-- Node2&#45;&gt;Node3 -->
<g id="edge3" class="edge">
<title>Node2&#45;&gt;Node3</title>
<path fill="none" stroke="#191970" d="M493.5852,-165.4982C571.2435,-145.6321 757.2162,-98.0577 843.2832,-76.0406"/>
<polygon fill="#191970" stroke="#191970" points="844.203,-79.4181 853.0236,-73.5489 842.4682,-72.6365 844.203,-79.4181"/>
</g>
<!-- Node4 -->
<g id="node5" class="node">
<title>Node4</title>
<g id="a_node5"><a xlink:href="ar_8h.html" target="_top" xlink:title="artoolkitX core routines. ">
<polygon fill="#ffffff" stroke="#000000" points="422.0493,-110.5 422.0493,-128.5 494.7437,-128.5 494.7437,-110.5 422.0493,-110.5"/>
<text text-anchor="middle" x="458.3965" y="-116.5" font-family="Helvetica,sans-Serif" font-size="10.00" fill="#000000">ARX/AR/ar.h</text>
</a>
</g>
</g>
<!-- Node2&#45;&gt;Node4 -->
<g id="edge4" class="edge">
<title>Node2&#45;&gt;Node4</title>
<path fill="none" stroke="#191970" d="M453.2302,-165.4179C451.7386,-158.2164 451.3006,-147.8962 451.9163,-138.8632"/>
<polygon fill="#191970" stroke="#191970" points="455.4091,-139.1392 453.1897,-128.7795 448.4643,-138.2621 455.4091,-139.1392"/>
</g>
<!-- Node4&#45;&gt;Node1 -->
<g id="edge8" class="edge">
<title>Node4&#45;&gt;Node1</title>
<path fill="none" stroke="#191970" d="M421.9262,-118.1945C362.7313,-115.1953 242.664,-105.4298 146.3965,-74 109.4007,-61.9215 70.2348,-39.2023 46.5479,-24.2089"/>
<polygon fill="#191970" stroke="#191970" points="48.2775,-21.1598 37.9747,-18.6895 44.4882,-27.0456 48.2775,-21.1598"/>
</g>
<!-- Node4&#45;&gt;Node2 -->
<g id="edge25" class="edge">
<title>Node4&#45;&gt;Node2</title>
<path fill="none" stroke="#191970" d="M463.6033,-128.7795C465.0756,-136.0373 465.4944,-146.3738 464.8596,-155.383"/>
<polygon fill="#191970" stroke="#191970" points="461.3734,-155.0517 463.5628,-165.4179 468.3157,-155.949 461.3734,-155.0517"/>
</g>
<!-- Node4&#45;&gt;Node3 -->
<g id="edge9" class="edge">
<title>Node4&#45;&gt;Node3</title>
<path fill="none" stroke="#191970" d="M494.7806,-115.7542C560.3012,-108.8666 702.6946,-93.2503 832.631,-74.202"/>
<polygon fill="#191970" stroke="#191970" points="833.378,-77.6297 842.7594,-72.7063 832.3553,-70.7048 833.378,-77.6297"/>
</g>
<!-- Node5 -->
<g id="node6" class="node">
<title>Node5</title>
<polygon fill="#ffffff" stroke="#bfbfbf" points="406.665,-.5 406.665,-18.5 452.1279,-18.5 452.1279,-.5 406.665,-.5"/>
<text text-anchor="middle" x="429.3965" y="-6.5" font-family="Helvetica,sans-Serif" font-size="10.00" fill="#000000">stdio.h</text>
</g>
<!-- Node4&#45;&gt;Node5 -->
<g id="edge5" class="edge">
<title>Node4&#45;&gt;Node5</title>
<path fill="none" stroke="#191970" d="M421.7809,-111.2126C388.4756,-102.8448 342.9541,-89.0373 332.3965,-74 327.5442,-67.0888 327.8674,-62.1271 332.3965,-55 339.8387,-43.2888 371.5523,-29.774 396.7191,-20.5356"/>
<polygon fill="#191970" stroke="#191970" points="398.0883,-23.763 406.3231,-17.0968 395.7286,-17.1727 398.0883,-23.763"/>
</g>
<!-- Node6 -->
<g id="node7" class="node">
<title>Node6</title>
<polygon fill="#ffffff" stroke="#bfbfbf" points="340.5542,-.5 340.5542,-18.5 388.2388,-18.5 388.2388,-.5 340.5542,-.5"/>
<text text-anchor="middle" x="364.3965" y="-6.5" font-family="Helvetica,sans-Serif" font-size="10.00" fill="#000000">stdlib.h</text>
</g>
<!-- Node4&#45;&gt;Node6 -->
<g id="edge6" class="edge">
<title>Node4&#45;&gt;Node6</title>
<path fill="none" stroke="#191970" d="M421.7631,-111.9557C386.4798,-103.8581 336.8205,-89.9822 325.3965,-74 313.9679,-58.0114 329.372,-38.5831 344.0585,-25.2541"/>
<polygon fill="#191970" stroke="#191970" points="346.6116,-27.6778 351.9688,-18.5371 342.0807,-22.3419 346.6116,-27.6778"/>
</g>
<!-- Node7 -->
<g id="node8" class="node">
<title>Node7</title>
<polygon fill="#ffffff" stroke="#bfbfbf" points="341.2759,-55.5 341.2759,-73.5 389.5171,-73.5 389.5171,-55.5 341.2759,-55.5"/>
<text text-anchor="middle" x="365.3965" y="-61.5" font-family="Helvetica,sans-Serif" font-size="10.00" fill="#000000">stdint.h</text>
</g>
<!-- Node4&#45;&gt;Node7 -->
<g id="edge7" class="edge">
<title>Node4&#45;&gt;Node7</title>
<path fill="none" stroke="#191970" d="M443.0394,-110.4179C428.5004,-101.8195 406.4439,-88.7754 389.5501,-78.7844"/>
<polygon fill="#191970" stroke="#191970" points="391.1655,-75.6735 380.7764,-73.5956 387.6021,-81.6987 391.1655,-75.6735"/>
</g>
<!-- Node8 -->
<g id="node9" class="node">
<title>Node8</title>
<g id="a_node9"><a xlink:href="ar_config_8h.html" target="_top" xlink:title="ARX/AR/arConfig.h">
<polygon fill="#ffffff" stroke="#000000" points="407.3228,-55.5 407.3228,-73.5 509.4702,-73.5 509.4702,-55.5 407.3228,-55.5"/>
<text text-anchor="middle" x="458.3965" y="-61.5" font-family="Helvetica,sans-Serif" font-size="10.00" fill="#000000">ARX/AR/arConfig.h</text>
</a>
</g>
</g>
<!-- Node4&#45;&gt;Node8 -->
<g id="edge10" class="edge">
<title>Node4&#45;&gt;Node8</title>
<path fill="none" stroke="#191970" d="M458.3965,-110.4179C458.3965,-103.2164 458.3965,-92.8962 458.3965,-83.8632"/>
<polygon fill="#191970" stroke="#191970" points="461.8966,-83.7794 458.3965,-73.7795 454.8966,-83.7795 461.8966,-83.7794"/>
</g>
<!-- Node9 -->
<g id="node10" class="node">
<title>Node9</title>
<g id="a_node10"><a xlink:href="log_8h.html" target="_top" xlink:title="Logging utilities. ">
<polygon fill="#ffffff" stroke="#000000" points="155.3276,-55.5 155.3276,-73.5 247.4653,-73.5 247.4653,-55.5 155.3276,-55.5"/>
<text text-anchor="middle" x="201.3965" y="-61.5" font-family="Helvetica,sans-Serif" font-size="10.00" fill="#000000">ARX/ARUtil/log.h</text>
</a>
</g>
</g>
<!-- Node4&#45;&gt;Node9 -->
<g id="edge11" class="edge">
<title>Node4&#45;&gt;Node9</title>
<path fill="none" stroke="#191970" d="M421.8476,-111.6783C377.8968,-102.2724 303.8084,-86.4169 253.7828,-75.7111"/>
<polygon fill="#191970" stroke="#191970" points="254.3149,-72.2458 243.8039,-73.5755 252.85,-79.0908 254.3149,-72.2458"/>
</g>
<!-- Node13 -->
<g id="node14" class="node">
<title>Node13</title>
<g id="a_node14"><a xlink:href="matrix_8h.html" target="_top" xlink:title="ARX/AR/matrix.h">
<polygon fill="#ffffff" stroke="#000000" points="733.6108,-55.5 733.6108,-73.5 825.1821,-73.5 825.1821,-55.5 733.6108,-55.5"/>
<text text-anchor="middle" x="779.3965" y="-61.5" font-family="Helvetica,sans-Serif" font-size="10.00" fill="#000000">ARX/AR/matrix.h</text>
</a>
</g>
</g>
<!-- Node4&#45;&gt;Node13 -->
<g id="edge18" class="edge">
<title>Node4&#45;&gt;Node13</title>
<path fill="none" stroke="#191970" d="M494.9726,-113.2629C544.4008,-104.83 635.5453,-89.2649 723.5946,-74.1358"/>
<polygon fill="#191970" stroke="#191970" points="724.2188,-77.5799 733.4814,-72.4365 723.033,-70.681 724.2188,-77.5799"/>
</g>
<!-- Node15 -->
<g id="node16" class="node">
<title>Node15</title>
<g id="a_node16"><a xlink:href="icp_8h.html" target="_top" xlink:title="ARX/AR/icp.h">
<polygon fill="#ffffff" stroke="#000000" points="527.8301,-55.5 527.8301,-73.5 604.9629,-73.5 604.9629,-55.5 527.8301,-55.5"/>
<text text-anchor="middle" x="566.3965" y="-61.5" font-family="Helvetica,sans-Serif" font-size="10.00" fill="#000000">ARX/AR/icp.h</text>
</a>
</g>
</g>
<!-- Node4&#45;&gt;Node15 -->
<g id="edge20" class="edge">
<title>Node4&#45;&gt;Node15</title>
<path fill="none" stroke="#191970" d="M476.2305,-110.4179C493.4272,-101.6603 519.6801,-88.2907 539.4307,-78.2326"/>
<polygon fill="#191970" stroke="#191970" points="541.2133,-81.2526 548.536,-73.5956 538.0366,-75.0148 541.2133,-81.2526"/>
</g>
<!-- Node17 -->
<g id="node18" class="node">
<title>Node17</title>
<g id="a_node18"><a xlink:href="param_8h.html" target="_top" xlink:title="artoolkitX functions for handling calibrated camera parameters. ">
<polygon fill="#ffffff" stroke="#000000" points="623.0493,-55.5 623.0493,-73.5 715.7437,-73.5 715.7437,-55.5 623.0493,-55.5"/>
<text text-anchor="middle" x="669.3965" y="-61.5" font-family="Helvetica,sans-Serif" font-size="10.00" fill="#000000">ARX/AR/param.h</text>
</a>
</g>
</g>
<!-- Node4&#45;&gt;Node17 -->
<g id="edge23" class="edge">
<title>Node4&#45;&gt;Node17</title>
<path fill="none" stroke="#191970" d="M488.0725,-110.4179C522.3419,-100.9753 578.9922,-86.171 619.9209,-75.9369"/>
<polygon fill="#191970" stroke="#191970" points="620.8433,-79.3142 629.7029,-73.5042 619.1538,-72.5211 620.8433,-79.3142"/>
</g>
<!-- Node9&#45;&gt;Node1 -->
<g id="edge14" class="edge">
<title>Node9&#45;&gt;Node1</title>
<path fill="none" stroke="#191970" d="M172.1685,-55.4179C140.9351,-45.7126 91.4731,-30.343 58.4881,-20.0935"/>
<polygon fill="#191970" stroke="#191970" points="59.407,-16.714 48.8188,-17.0889 57.3298,-23.3987 59.407,-16.714"/>
</g>
<!-- Node9&#45;&gt;Node5 -->
<g id="edge12" class="edge">
<title>Node9&#45;&gt;Node5</title>
<path fill="none" stroke="#191970" d="M243.6352,-55.4689C281.3532,-47.2313 338.309,-34.3688 396.6228,-19.0904"/>
<polygon fill="#191970" stroke="#191970" points="397.5961,-22.4534 406.3713,-16.5167 395.8092,-15.6853 397.5961,-22.4534"/>
</g>
<!-- Node9&#45;&gt;Node6 -->
<g id="edge13" class="edge">
<title>Node9&#45;&gt;Node6</title>
<path fill="none" stroke="#191970" d="M228.3126,-55.4179C256.3402,-45.9607 300.3072,-31.1252 330.6422,-20.8895"/>
<polygon fill="#191970" stroke="#191970" points="332.0083,-24.1225 340.3644,-17.609 329.7703,-17.4899 332.0083,-24.1225"/>
</g>
<!-- Node10 -->
<g id="node11" class="node">
<title>Node10</title>
<polygon fill="#ffffff" stroke="#bfbfbf" points="270.3301,-.5 270.3301,-18.5 322.4629,-18.5 322.4629,-.5 270.3301,-.5"/>
<text text-anchor="middle" x="296.3965" y="-6.5" font-family="Helvetica,sans-Serif" font-size="10.00" fill="#000000">stdarg.h</text>
</g>
<!-- Node9&#45;&gt;Node10 -->
<g id="edge15" class="edge">
<title>Node9&#45;&gt;Node10</title>
<path fill="none" stroke="#191970" d="M217.0838,-55.4179C231.9355,-46.8195 254.4663,-33.7754 271.7234,-23.7844"/>
<polygon fill="#191970" stroke="#191970" points="273.7852,-26.635 280.6859,-18.5956 270.2779,-20.577 273.7852,-26.635"/>
</g>
<!-- Node11 -->
<g id="node12" class="node">
<title>Node11</title>
<polygon fill="#ffffff" stroke="#bfbfbf" points="66.665,-.5 66.665,-18.5 132.1279,-18.5 132.1279,-.5 66.665,-.5"/>
<text text-anchor="middle" x="99.3965" y="-6.5" font-family="Helvetica,sans-Serif" font-size="10.00" fill="#000000">sys/errno.h</text>
</g>
<!-- Node9&#45;&gt;Node11 -->
<g id="edge16" class="edge">
<title>Node9&#45;&gt;Node11</title>
<path fill="none" stroke="#191970" d="M184.5533,-55.4179C168.3858,-46.7001 143.7427,-33.4122 125.1189,-23.3699"/>
<polygon fill="#191970" stroke="#191970" points="126.7279,-20.2611 116.2647,-18.5956 123.4055,-26.4225 126.7279,-20.2611"/>
</g>
<!-- Node12 -->
<g id="node13" class="node">
<title>Node12</title>
<g id="a_node13"><a xlink:href="types_8h.html" target="_top" xlink:title="ARX/ARUtil/types.h">
<polygon fill="#ffffff" stroke="#000000" points="150.0493,-.5 150.0493,-18.5 252.7437,-18.5 252.7437,-.5 150.0493,-.5"/>
<text text-anchor="middle" x="201.3965" y="-6.5" font-family="Helvetica,sans-Serif" font-size="10.00" fill="#000000">ARX/ARUtil/types.h</text>
</a>
</g>
</g>
<!-- Node9&#45;&gt;Node12 -->
<g id="edge17" class="edge">
<title>Node9&#45;&gt;Node12</title>
<path fill="none" stroke="#191970" d="M201.3965,-55.4179C201.3965,-48.2164 201.3965,-37.8962 201.3965,-28.8632"/>
<polygon fill="#191970" stroke="#191970" points="204.8966,-28.7794 201.3965,-18.7795 197.8966,-28.7795 204.8966,-28.7794"/>
</g>
<!-- Node14 -->
<g id="node15" class="node">
<title>Node14</title>
<polygon fill="#ffffff" stroke="#bfbfbf" points="756.1108,-.5 756.1108,-18.5 802.6821,-18.5 802.6821,-.5 756.1108,-.5"/>
<text text-anchor="middle" x="779.3965" y="-6.5" font-family="Helvetica,sans-Serif" font-size="10.00" fill="#000000">math.h</text>
</g>
<!-- Node13&#45;&gt;Node14 -->
<g id="edge19" class="edge">
<title>Node13&#45;&gt;Node14</title>
<path fill="none" stroke="#191970" d="M779.3965,-55.4179C779.3965,-48.2164 779.3965,-37.8962 779.3965,-28.8632"/>
<polygon fill="#191970" stroke="#191970" points="782.8966,-28.7794 779.3965,-18.7795 775.8966,-28.7795 782.8966,-28.7794"/>
</g>
<!-- Node15&#45;&gt;Node5 -->
<g id="edge21" class="edge">
<title>Node15&#45;&gt;Node5</title>
<path fill="none" stroke="#191970" d="M543.7737,-55.4179C521.3645,-46.4215 486.832,-32.5581 461.572,-22.4172"/>
<polygon fill="#191970" stroke="#191970" points="462.6369,-19.0732 452.0529,-18.5956 460.029,-25.5693 462.6369,-19.0732"/>
</g>
<!-- Node16 -->
<g id="node17" class="node">
<title>Node16</title>
<g id="a_node17"><a xlink:href="icp_core_8h.html" target="_top" xlink:title="ARX/AR/icpCore.h">
<polygon fill="#ffffff" stroke="#000000" points="516.9927,-.5 516.9927,-18.5 615.8003,-18.5 615.8003,-.5 516.9927,-.5"/>
<text text-anchor="middle" x="566.3965" y="-6.5" font-family="Helvetica,sans-Serif" font-size="10.00" fill="#000000">ARX/AR/icpCore.h</text>
</a>
</g>
</g>
<!-- Node15&#45;&gt;Node16 -->
<g id="edge22" class="edge">
<title>Node15&#45;&gt;Node16</title>
<path fill="none" stroke="#191970" d="M566.3965,-55.4179C566.3965,-48.2164 566.3965,-37.8962 566.3965,-28.8632"/>
<polygon fill="#191970" stroke="#191970" points="569.8966,-28.7794 566.3965,-18.7795 562.8966,-28.7795 569.8966,-28.7794"/>
</g>
<!-- Node17&#45;&gt;Node4 -->
<g id="edge24" class="edge">
<title>Node17&#45;&gt;Node4</title>
<path fill="none" stroke="#191970" d="M639.9352,-73.5229C604.8184,-83.2025 545.9868,-98.5651 504.7784,-108.8354"/>
<polygon fill="#191970" stroke="#191970" points="503.8326,-105.4638 494.9678,-111.2659 505.516,-112.2584 503.8326,-105.4638"/>
</g>
</g>
</svg>
