<?xml version="1.0" encoding="UTF-8" standalone="no"?>
<!DOCTYPE svg PUBLIC "-//W3C//DTD SVG 1.1//EN"
 "http://www.w3.org/Graphics/SVG/1.1/DTD/svg11.dtd">
<!-- Generated by graphviz version 8.0.5 (20230430.1635)
 -->
<!-- Title: Source/ARX/AR/arLabelingSub/arLabelingSubDBIC.c Pages: 1 -->
<!--zoomable 260 -->
<svg id="main" version="1.1" xmlns="http://www.w3.org/2000/svg" xmlns:xlink="http://www.w3.org/1999/xlink" xml:space="preserve" onload="init(evt)">
<style type="text/css"><![CDATA[
.edge:hover path { stroke: red; }
.edge:hover polygon { stroke: red; fill: red; }
]]></style>
<script type="text/javascript"><![CDATA[
var edges = document.getElementsByTagName('g');
if (edges && edges.length) {
  for (var i=0;i<edges.length;i++) {
    if (edges[i].id.substr(0,4)=='edge') {
      edges[i].setAttribute('class','edge');
    }
  }
}
]]></script>
        <defs>
                <circle id="rim" cx="0" cy="0" r="7"/>
                <circle id="rim2" cx="0" cy="0" r="3.5"/>
                <g id="zoomPlus">
                        <use xlink:href="#rim" fill="#404040">
                                <set attributeName="fill" to="#808080" begin="zoomplus.mouseover" end="zoomplus.mouseout"/>
                        </use>
                        <path d="M-4,0h8M0,-4v8" fill="none" stroke="white" stroke-width="1.5" pointer-events="none"/>
                </g>
                <g id="zoomMin">
                        <use xlink:href="#rim" fill="#404040">
                                <set attributeName="fill" to="#808080" begin="zoomminus.mouseover" end="zoomminus.mouseout"/>
                        </use>
                        <path d="M-4,0h8" fill="none" stroke="white" stroke-width="1.5" pointer-events="none"/>
                </g>
                <g id="dirArrow">
                        <path fill="none" stroke="white" stroke-width="1.5" d="M0,-3.0v7 M-2.5,-0.5L0,-3.0L2.5,-0.5"/>
                </g>
               <g id="resetDef">
                       <use xlink:href="#rim2" fill="#404040">
                               <set attributeName="fill" to="#808080" begin="reset.mouseover" end="reset.mouseout"/>
                       </use>
               </g>
        </defs>

<script type="text/javascript">
var viewWidth = 1103;
var viewHeight = 260;
var sectionId = 'dynsection-0';
</script>
<script xlink:href="svgpan.js"/>
<svg id="graph" class="graph">
<g id="viewport">
<title>Source/ARX/AR/arLabelingSub/arLabelingSubDBIC.c</title>
<!-- Node1 -->
<g id="node1" class="node">
<title>Node1</title>
<g id="a_node1"><a xlink:title=" ">
<polygon fill="#999999" stroke="#666666" points="381.38,-251.5 246.12,-251.5 246.12,-221 381.38,-221 381.38,-251.5"/>
<text text-anchor="start" x="254.12" y="-238" font-family="Helvetica,sans-Serif" font-size="10.00">Source/ARX/AR/arLabeling</text>
<text text-anchor="middle" x="313.75" y="-226.75" font-family="Helvetica,sans-Serif" font-size="10.00">Sub/arLabelingSubDBIC.c</text>
</a>
</g>
</g>
<!-- Node2 -->
<g id="node2" class="node">
<title>Node2</title>
<g id="a_node2"><a xlink:href="ar_labeling_sub_8h.html" target="_top" xlink:title=" ">
<polygon fill="white" stroke="#666666" points="356.62,-185 270.88,-185 270.88,-165.75 356.62,-165.75 356.62,-185"/>
<text text-anchor="middle" x="313.75" y="-171.5" font-family="Helvetica,sans-Serif" font-size="10.00">arLabelingSub.h</text>
</a>
</g>
</g>
<!-- Node1&#45;&gt;Node2 -->
<g id="edge1" class="edge">
<title>Node1&#45;&gt;Node2</title>
<path fill="none" stroke="#63b8ff" d="M313.75,-220.7C313.75,-213.37 313.75,-204.37 313.75,-196.41"/>
<polygon fill="#63b8ff" stroke="#63b8ff" points="317.25,-196.45 313.75,-186.45 310.25,-196.45 317.25,-196.45"/>
</g>
<!-- Node3 -->
<g id="node3" class="node">
<title>Node3</title>
<g id="a_node3"><a xlink:title=" ">
<polygon fill="#e0e0e0" stroke="#999999" points="47.5,-19.25 0,-19.25 0,0 47.5,0 47.5,-19.25"/>
<text text-anchor="middle" x="23.75" y="-5.75" font-family="Helvetica,sans-Serif" font-size="10.00">stdlib.h</text>
</a>
</g>
</g>
<!-- Node2&#45;&gt;Node3 -->
<g id="edge2" class="edge">
<title>Node2&#45;&gt;Node3</title>
<path fill="none" stroke="#63b8ff" d="M287.63,-165.29C245.39,-149.98 160.27,-116.55 95.75,-74.5 74.65,-60.75 53.44,-41.05 39.56,-27.17"/>
<polygon fill="#63b8ff" stroke="#63b8ff" points="42.43,-25.08 32.93,-20.39 37.43,-29.98 42.43,-25.08"/>
</g>
<!-- Node4 -->
<g id="node4" class="node">
<title>Node4</title>
<g id="a_node4"><a xlink:title=" ">
<polygon fill="#e0e0e0" stroke="#999999" points="492.38,-19.25 447.12,-19.25 447.12,0 492.38,0 492.38,-19.25"/>
<text text-anchor="middle" x="469.75" y="-5.75" font-family="Helvetica,sans-Serif" font-size="10.00">stdio.h</text>
</a>
</g>
</g>
<!-- Node2&#45;&gt;Node4 -->
<g id="edge3" class="edge">
<title>Node2&#45;&gt;Node4</title>
<path fill="none" stroke="#63b8ff" d="M315.79,-165.35C321.13,-143.63 337.47,-87.78 370.75,-55.25 388.89,-37.52 415.31,-26.1 436.29,-19.25"/>
<polygon fill="#63b8ff" stroke="#63b8ff" points="437.15,-22.35 445.7,-16.08 435.11,-15.65 437.15,-22.35"/>
</g>
<!-- Node5 -->
<g id="node5" class="node">
<title>Node5</title>
<g id="a_node5"><a xlink:title=" ">
<polygon fill="#e0e0e0" stroke="#999999" points="388.88,-19.25 340.62,-19.25 340.62,0 388.88,0 388.88,-19.25"/>
<text text-anchor="middle" x="364.75" y="-5.75" font-family="Helvetica,sans-Serif" font-size="10.00">string.h</text>
</a>
</g>
</g>
<!-- Node2&#45;&gt;Node5 -->
<g id="edge4" class="edge">
<title>Node2&#45;&gt;Node5</title>
<path fill="none" stroke="#63b8ff" d="M309.39,-165.37C300,-144.6 280.25,-92.29 299.75,-55.25 306.76,-41.93 319.74,-31.82 332.27,-24.62"/>
<polygon fill="#63b8ff" stroke="#63b8ff" points="333.44,-27.43 340.66,-19.67 330.18,-21.24 333.44,-27.43"/>
</g>
<!-- Node6 -->
<g id="node6" class="node">
<title>Node6</title>
<g id="a_node6"><a xlink:href="ar_8h.html" target="_top" xlink:title="artoolkitX core routines.">
<polygon fill="white" stroke="#666666" points="620.25,-129.75 547.25,-129.75 547.25,-110.5 620.25,-110.5 620.25,-129.75"/>
<text text-anchor="middle" x="583.75" y="-116.25" font-family="Helvetica,sans-Serif" font-size="10.00">ARX/AR/ar.h</text>
</a>
</g>
</g>
<!-- Node2&#45;&gt;Node6 -->
<g id="edge5" class="edge">
<title>Node2&#45;&gt;Node6</title>
<path fill="none" stroke="#63b8ff" d="M356.83,-165.88C405.79,-156.22 485.48,-140.51 536.22,-130.5"/>
<polygon fill="#63b8ff" stroke="#63b8ff" points="536.76,-133.76 545.9,-128.39 535.41,-126.89 536.76,-133.76"/>
</g>
<!-- Node20 -->
<g id="node20" class="node">
<title>Node20</title>
<g id="a_node20"><a xlink:href="ar_labeling_private_8h.html" target="_top" xlink:title=" ">
<polygon fill="white" stroke="#666666" points="947.38,-129.75 848.12,-129.75 848.12,-110.5 947.38,-110.5 947.38,-129.75"/>
<text text-anchor="middle" x="897.75" y="-116.25" font-family="Helvetica,sans-Serif" font-size="10.00">arLabelingPrivate.h</text>
</a>
</g>
</g>
<!-- Node2&#45;&gt;Node20 -->
<g id="edge29" class="edge">
<title>Node2&#45;&gt;Node20</title>
<path fill="none" stroke="#63b8ff" d="M356.69,-170.46C459.25,-161.11 718.71,-137.45 837.13,-126.65"/>
<polygon fill="#63b8ff" stroke="#63b8ff" points="837.16,-130.07 846.8,-125.68 836.53,-123.1 837.16,-130.07"/>
</g>
<!-- Node6&#45;&gt;Node3 -->
<g id="edge7" class="edge">
<title>Node6&#45;&gt;Node3</title>
<path fill="none" stroke="#63b8ff" d="M547.04,-117.2C455.63,-112.13 219.82,-97.19 144.75,-74.5 107.94,-63.38 69.3,-40.78 45.87,-25.67"/>
<polygon fill="#63b8ff" stroke="#63b8ff" points="48.08,-22.28 37.8,-19.71 44.23,-28.13 48.08,-22.28"/>
</g>
<!-- Node6&#45;&gt;Node4 -->
<g id="edge6" class="edge">
<title>Node6&#45;&gt;Node4</title>
<path fill="none" stroke="#63b8ff" d="M571.53,-110.02C560.1,-101.32 542.74,-87.62 528.75,-74.5 512.82,-59.56 496.06,-41.12 484.49,-27.89"/>
<polygon fill="#63b8ff" stroke="#63b8ff" points="486.58,-25.95 477.39,-20.68 481.28,-30.53 486.58,-25.95"/>
</g>
<!-- Node6&#45;&gt;Node5 -->
<g id="edge9" class="edge">
<title>Node6&#45;&gt;Node5</title>
<path fill="none" stroke="#63b8ff" d="M546.84,-116.56C492.19,-111.94 393.71,-100.21 370.75,-74.5 360.08,-62.56 359.51,-43.89 361.05,-29.81"/>
<polygon fill="#63b8ff" stroke="#63b8ff" points="364.6,-30.73 362.67,-20.31 357.68,-29.66 364.6,-30.73"/>
</g>
<!-- Node7 -->
<g id="node7" class="node">
<title>Node7</title>
<g id="a_node7"><a xlink:title=" ">
<polygon fill="#e0e0e0" stroke="#999999" points="1079.88,-74.5 1031.62,-74.5 1031.62,-55.25 1079.88,-55.25 1079.88,-74.5"/>
<text text-anchor="middle" x="1055.75" y="-61" font-family="Helvetica,sans-Serif" font-size="10.00">stdint.h</text>
</a>
</g>
</g>
<!-- Node6&#45;&gt;Node7 -->
<g id="edge8" class="edge">
<title>Node6&#45;&gt;Node7</title>
<path fill="none" stroke="#63b8ff" d="M620.73,-117.3C694.9,-113.22 867.2,-101.66 1020.78,-74.59"/>
<polygon fill="#63b8ff" stroke="#63b8ff" points="1021.11,-77.91 1030.34,-72.7 1019.87,-71.02 1021.11,-77.91"/>
</g>
<!-- Node8 -->
<g id="node8" class="node">
<title>Node8</title>
<g id="a_node8"><a xlink:title=" ">
<polygon fill="#e0e0e0" stroke="#999999" points="998.62,-19.25 906.88,-19.25 906.88,0 998.62,0 998.62,-19.25"/>
<text text-anchor="middle" x="952.75" y="-5.75" font-family="Helvetica,sans-Serif" font-size="10.00">ARX/AR/config.h</text>
</a>
</g>
</g>
<!-- Node6&#45;&gt;Node8 -->
<g id="edge10" class="edge">
<title>Node6&#45;&gt;Node8</title>
<path fill="none" stroke="#63b8ff" d="M620.72,-117.04C672.3,-113.19 768.15,-102.61 844.75,-74.5 862.07,-68.14 903.74,-42.24 929.96,-25.44"/>
<polygon fill="#63b8ff" stroke="#63b8ff" points="931.67,-27.86 938.18,-19.5 927.87,-21.98 931.67,-27.86"/>
</g>
<!-- Node9 -->
<g id="node9" class="node">
<title>Node9</title>
<g id="a_node9"><a xlink:href="ar_config_8h.html" target="_top" xlink:title=" ">
<polygon fill="white" stroke="#666666" points="481.88,-74.5 379.62,-74.5 379.62,-55.25 481.88,-55.25 481.88,-74.5"/>
<text text-anchor="middle" x="430.75" y="-61" font-family="Helvetica,sans-Serif" font-size="10.00">ARX/AR/arConfig.h</text>
</a>
</g>
</g>
<!-- Node6&#45;&gt;Node9 -->
<g id="edge11" class="edge">
<title>Node6&#45;&gt;Node9</title>
<path fill="none" stroke="#63b8ff" d="M557.8,-110.09C532.85,-101.41 494.92,-88.21 467,-78.49"/>
<polygon fill="#63b8ff" stroke="#63b8ff" points="468.43,-74.93 457.83,-74.95 466.13,-81.55 468.43,-74.93"/>
</g>
<!-- Node10 -->
<g id="node10" class="node">
<title>Node10</title>
<g id="a_node10"><a xlink:href="log_8h.html" target="_top" xlink:title="Logging utilities.">
<polygon fill="white" stroke="#666666" points="247.38,-74.5 154.12,-74.5 154.12,-55.25 247.38,-55.25 247.38,-74.5"/>
<text text-anchor="middle" x="200.75" y="-61" font-family="Helvetica,sans-Serif" font-size="10.00">ARX/ARUtil/log.h</text>
</a>
</g>
</g>
<!-- Node6&#45;&gt;Node10 -->
<g id="edge12" class="edge">
<title>Node6&#45;&gt;Node10</title>
<path fill="none" stroke="#63b8ff" d="M547.03,-114.02C480.24,-104.73 338.43,-85.02 258.55,-73.91"/>
<polygon fill="#63b8ff" stroke="#63b8ff" points="259.09,-70.31 248.71,-72.4 258.13,-77.25 259.09,-70.31"/>
</g>
<!-- Node14 -->
<g id="node14" class="node">
<title>Node14</title>
<g id="a_node14"><a xlink:href="matrix_8h.html" target="_top" xlink:title=" ">
<polygon fill="white" stroke="#666666" points="836,-74.5 743.5,-74.5 743.5,-55.25 836,-55.25 836,-74.5"/>
<text text-anchor="middle" x="789.75" y="-61" font-family="Helvetica,sans-Serif" font-size="10.00">ARX/AR/matrix.h</text>
</a>
</g>
</g>
<!-- Node6&#45;&gt;Node14 -->
<g id="edge19" class="edge">
<title>Node6&#45;&gt;Node14</title>
<path fill="none" stroke="#63b8ff" d="M618.7,-110.09C653.32,-101.14 706.52,-87.39 744.39,-77.6"/>
<polygon fill="#63b8ff" stroke="#63b8ff" points="744.83,-80.84 753.63,-74.95 743.08,-74.07 744.83,-80.84"/>
</g>
<!-- Node16 -->
<g id="node16" class="node">
<title>Node16</title>
<g id="a_node16"><a xlink:href="icp_8h.html" target="_top" xlink:title=" ">
<polygon fill="white" stroke="#666666" points="725.88,-74.5 647.62,-74.5 647.62,-55.25 725.88,-55.25 725.88,-74.5"/>
<text text-anchor="middle" x="686.75" y="-61" font-family="Helvetica,sans-Serif" font-size="10.00">ARX/AR/icp.h</text>
</a>
</g>
</g>
<!-- Node6&#45;&gt;Node16 -->
<g id="edge21" class="edge">
<title>Node6&#45;&gt;Node16</title>
<path fill="none" stroke="#63b8ff" d="M601.22,-110.09C617.2,-101.83 641.1,-89.48 659.57,-79.93"/>
<polygon fill="#63b8ff" stroke="#63b8ff" points="660.92,-82.65 668.19,-74.95 657.7,-76.44 660.92,-82.65"/>
</g>
<!-- Node18 -->
<g id="node18" class="node">
<title>Node18</title>
<g id="a_node18"><a xlink:href="param_8h.html" target="_top" xlink:title="artoolkitX functions for handling calibrated camera parameters.">
<polygon fill="white" stroke="#666666" points="630,-74.5 537.5,-74.5 537.5,-55.25 630,-55.25 630,-74.5"/>
<text text-anchor="middle" x="583.75" y="-61" font-family="Helvetica,sans-Serif" font-size="10.00">ARX/AR/param.h</text>
</a>
</g>
</g>
<!-- Node6&#45;&gt;Node18 -->
<g id="edge24" class="edge">
<title>Node6&#45;&gt;Node18</title>
<path fill="none" stroke="#63b8ff" d="M578.58,-110.33C577.14,-103.59 576.68,-94.02 577.21,-85.49"/>
<polygon fill="#63b8ff" stroke="#63b8ff" points="580.77,-86.22 578.54,-75.86 573.83,-85.35 580.77,-86.22"/>
</g>
<!-- Node19 -->
<g id="node19" class="node">
<title>Node19</title>
<g id="a_node19"><a xlink:href="ar_image_proc_8h.html" target="_top" xlink:title="artoolkitX functions for 2D luminance image processing.">
<polygon fill="white" stroke="#666666" points="1013.25,-74.5 892.25,-74.5 892.25,-55.25 1013.25,-55.25 1013.25,-74.5"/>
<text text-anchor="middle" x="952.75" y="-61" font-family="Helvetica,sans-Serif" font-size="10.00">ARX/AR/arImageProc.h</text>
</a>
</g>
</g>
<!-- Node6&#45;&gt;Node19 -->
<g id="edge26" class="edge">
<title>Node6&#45;&gt;Node19</title>
<path fill="none" stroke="#63b8ff" d="M620.56,-113.17C681.22,-104.02 802.94,-86.41 881.04,-75.45"/>
<polygon fill="#63b8ff" stroke="#63b8ff" points="881.34,-78.81 890.76,-73.95 880.37,-71.87 881.34,-78.81"/>
</g>
<!-- Node10&#45;&gt;Node3 -->
<g id="edge14" class="edge">
<title>Node10&#45;&gt;Node3</title>
<path fill="none" stroke="#63b8ff" d="M170.72,-54.84C139.62,-45.48 91.08,-30.88 58.37,-21.04"/>
<polygon fill="#63b8ff" stroke="#63b8ff" points="59.52,-17.43 48.94,-17.9 57.51,-24.13 59.52,-17.43"/>
</g>
<!-- Node10&#45;&gt;Node4 -->
<g id="edge13" class="edge">
<title>Node10&#45;&gt;Node4</title>
<path fill="none" stroke="#63b8ff" d="M246.69,-54.78C300.45,-44.14 388.2,-26.77 436.04,-17.3"/>
<polygon fill="#63b8ff" stroke="#63b8ff" points="436.61,-20.56 445.74,-15.18 435.25,-13.69 436.61,-20.56"/>
</g>
<!-- Node10&#45;&gt;Node5 -->
<g id="edge15" class="edge">
<title>Node10&#45;&gt;Node5</title>
<path fill="none" stroke="#63b8ff" d="M228.57,-54.84C256.61,-45.74 299.95,-31.67 330.18,-21.85"/>
<polygon fill="#63b8ff" stroke="#63b8ff" points="330.85,-24.99 339.28,-18.57 328.69,-18.33 330.85,-24.99"/>
</g>
<!-- Node11 -->
<g id="node11" class="node">
<title>Node11</title>
<g id="a_node11"><a xlink:title=" ">
<polygon fill="#e0e0e0" stroke="#999999" points="322.38,-19.25 271.12,-19.25 271.12,0 322.38,0 322.38,-19.25"/>
<text text-anchor="middle" x="296.75" y="-5.75" font-family="Helvetica,sans-Serif" font-size="10.00">stdarg.h</text>
</a>
</g>
</g>
<!-- Node10&#45;&gt;Node11 -->
<g id="edge16" class="edge">
<title>Node10&#45;&gt;Node11</title>
<path fill="none" stroke="#63b8ff" d="M217.04,-54.84C231.79,-46.66 253.79,-34.46 270.94,-24.94"/>
<polygon fill="#63b8ff" stroke="#63b8ff" points="272.34,-27.61 279.39,-19.7 268.94,-21.49 272.34,-27.61"/>
</g>
<!-- Node12 -->
<g id="node12" class="node">
<title>Node12</title>
<g id="a_node12"><a xlink:title=" ">
<polygon fill="#e0e0e0" stroke="#999999" points="130.12,-19.25 65.38,-19.25 65.38,0 130.12,0 130.12,-19.25"/>
<text text-anchor="middle" x="97.75" y="-5.75" font-family="Helvetica,sans-Serif" font-size="10.00">sys/errno.h</text>
</a>
</g>
</g>
<!-- Node10&#45;&gt;Node12 -->
<g id="edge17" class="edge">
<title>Node10&#45;&gt;Node12</title>
<path fill="none" stroke="#63b8ff" d="M183.28,-54.84C167.3,-46.58 143.4,-34.23 124.93,-24.68"/>
<polygon fill="#63b8ff" stroke="#63b8ff" points="126.8,-21.19 116.31,-19.7 123.58,-27.4 126.8,-21.19"/>
</g>
<!-- Node13 -->
<g id="node13" class="node">
<title>Node13</title>
<g id="a_node13"><a xlink:href="types_8h.html" target="_top" xlink:title=" ">
<polygon fill="white" stroke="#666666" points="253,-19.25 148.5,-19.25 148.5,0 253,0 253,-19.25"/>
<text text-anchor="middle" x="200.75" y="-5.75" font-family="Helvetica,sans-Serif" font-size="10.00">ARX/ARUtil/types.h</text>
</a>
</g>
</g>
<!-- Node10&#45;&gt;Node13 -->
<g id="edge18" class="edge">
<title>Node10&#45;&gt;Node13</title>
<path fill="none" stroke="#63b8ff" d="M200.75,-55.08C200.75,-48.42 200.75,-38.99 200.75,-30.53"/>
<polygon fill="#63b8ff" stroke="#63b8ff" points="204.25,-30.61 200.75,-20.61 197.25,-30.61 204.25,-30.61"/>
</g>
<!-- Node15 -->
<g id="node15" class="node">
<title>Node15</title>
<g id="a_node15"><a xlink:title=" ">
<polygon fill="#e0e0e0" stroke="#999999" points="812.75,-19.25 766.75,-19.25 766.75,0 812.75,0 812.75,-19.25"/>
<text text-anchor="middle" x="789.75" y="-5.75" font-family="Helvetica,sans-Serif" font-size="10.00">math.h</text>
</a>
</g>
</g>
<!-- Node14&#45;&gt;Node15 -->
<g id="edge20" class="edge">
<title>Node14&#45;&gt;Node15</title>
<path fill="none" stroke="#63b8ff" d="M789.75,-55.08C789.75,-48.42 789.75,-38.99 789.75,-30.53"/>
<polygon fill="#63b8ff" stroke="#63b8ff" points="793.25,-30.61 789.75,-20.61 786.25,-30.61 793.25,-30.61"/>
</g>
<!-- Node16&#45;&gt;Node4 -->
<g id="edge22" class="edge">
<title>Node16&#45;&gt;Node4</title>
<path fill="none" stroke="#63b8ff" d="M649.94,-54.84C608.82,-44.75 542.84,-28.56 503.16,-18.82"/>
<polygon fill="#63b8ff" stroke="#63b8ff" points="504.26,-15.24 493.71,-16.26 502.59,-22.04 504.26,-15.24"/>
</g>
<!-- Node17 -->
<g id="node17" class="node">
<title>Node17</title>
<g id="a_node17"><a xlink:href="icp_core_8h.html" target="_top" xlink:title=" ">
<polygon fill="white" stroke="#666666" points="736.38,-19.25 637.12,-19.25 637.12,0 736.38,0 736.38,-19.25"/>
<text text-anchor="middle" x="686.75" y="-5.75" font-family="Helvetica,sans-Serif" font-size="10.00">ARX/AR/icpCore.h</text>
</a>
</g>
</g>
<!-- Node16&#45;&gt;Node17 -->
<g id="edge23" class="edge">
<title>Node16&#45;&gt;Node17</title>
<path fill="none" stroke="#63b8ff" d="M686.75,-55.08C686.75,-48.42 686.75,-38.99 686.75,-30.53"/>
<polygon fill="#63b8ff" stroke="#63b8ff" points="690.25,-30.61 686.75,-20.61 683.25,-30.61 690.25,-30.61"/>
</g>
<!-- Node18&#45;&gt;Node6 -->
<g id="edge25" class="edge">
<title>Node18&#45;&gt;Node6</title>
<path fill="none" stroke="#63b8ff" d="M588.96,-74.86C590.36,-81.58 590.81,-91.02 590.29,-99.46"/>
<polygon fill="#63b8ff" stroke="#63b8ff" points="586.7,-98.97 588.92,-109.33 593.64,-99.85 586.7,-98.97"/>
</g>
<!-- Node19&#45;&gt;Node6 -->
<g id="edge28" class="edge">
<title>Node19&#45;&gt;Node6</title>
<path fill="none" stroke="#63b8ff" d="M894.8,-74.99C822.04,-85.82 698.78,-103.57 631.28,-112.92"/>
<polygon fill="#63b8ff" stroke="#63b8ff" points="630.97,-109.57 621.54,-114.4 631.93,-116.5 630.97,-109.57"/>
</g>
<!-- Node19&#45;&gt;Node8 -->
<g id="edge27" class="edge">
<title>Node19&#45;&gt;Node8</title>
<path fill="none" stroke="#63b8ff" d="M952.75,-55.08C952.75,-48.42 952.75,-38.99 952.75,-30.53"/>
<polygon fill="#63b8ff" stroke="#63b8ff" points="956.25,-30.61 952.75,-20.61 949.25,-30.61 956.25,-30.61"/>
</g>
<!-- Node20&#45;&gt;Node8 -->
<g id="edge30" class="edge">
<title>Node20&#45;&gt;Node8</title>
<path fill="none" stroke="#63b8ff" d="M947.76,-114.4C998.34,-108.46 1071.45,-96.31 1088.75,-74.5 1114.22,-42.39 1057.2,-25.64 1009.35,-17.48"/>
<polygon fill="#63b8ff" stroke="#63b8ff" points="1010.12,-13.9 999.69,-15.78 1009.01,-20.81 1010.12,-13.9"/>
</g>
</g>
</svg>
        <g id="navigator" transform="translate(0 0)" fill="#404254">
                <rect fill="#f2f5e9" fill-opacity="0.5" stroke="#606060" stroke-width=".5" x="0" y="0" width="60" height="60"/>
                <use id="zoomplus" xlink:href="#zoomPlus" x="17" y="9" onmousedown="handleZoom(evt,'in')"/>
                <use id="zoomminus" xlink:href="#zoomMin" x="42" y="9" onmousedown="handleZoom(evt,'out')"/>
                <use id="reset" xlink:href="#resetDef" x="30" y="36" onmousedown="handleReset()"/>
                <g id="arrowUp" xlink:href="#dirArrow" transform="translate(30 24)" onmousedown="handlePan(0,-1)">
                  <use xlink:href="#rim" fill="#404040">
                        <set attributeName="fill" to="#808080" begin="arrowUp.mouseover" end="arrowUp.mouseout"/>
                  </use>
                  <path fill="none" stroke="white" stroke-width="1.5" d="M0,-3.0v7 M-2.5,-0.5L0,-3.0L2.5,-0.5"/>
                </g>
                <g id="arrowRight" xlink:href="#dirArrow" transform="rotate(90) translate(36 -43)" onmousedown="handlePan(1,0)">
                  <use xlink:href="#rim" fill="#404040">
                        <set attributeName="fill" to="#808080" begin="arrowRight.mouseover" end="arrowRight.mouseout"/>
                  </use>
                  <path fill="none" stroke="white" stroke-width="1.5" d="M0,-3.0v7 M-2.5,-0.5L0,-3.0L2.5,-0.5"/>
                </g>
                <g id="arrowDown" xlink:href="#dirArrow" transform="rotate(180) translate(-30 -48)" onmousedown="handlePan(0,1)">
                  <use xlink:href="#rim" fill="#404040">
                        <set attributeName="fill" to="#808080" begin="arrowDown.mouseover" end="arrowDown.mouseout"/>
                  </use>
                  <path fill="none" stroke="white" stroke-width="1.5" d="M0,-3.0v7 M-2.5,-0.5L0,-3.0L2.5,-0.5"/>
                </g>
                <g id="arrowLeft" xlink:href="#dirArrow" transform="rotate(270) translate(-36 17)" onmousedown="handlePan(-1,0)">
                  <use xlink:href="#rim" fill="#404040">
                        <set attributeName="fill" to="#808080" begin="arrowLeft.mouseover" end="arrowLeft.mouseout"/>
                  </use>
                  <path fill="none" stroke="white" stroke-width="1.5" d="M0,-3.0v7 M-2.5,-0.5L0,-3.0L2.5,-0.5"/>
                </g>
        </g>
        <svg viewBox="0 0 15 15" width="100%" height="30px" preserveAspectRatio="xMaxYMin meet">
         <g id="arrow_out" transform="scale(0.3 0.3)">
          <a xlink:href="ar_labeling_sub_d_b_i_c_8c__incl_org.svg" target="_base">
           <rect id="button" ry="5" rx="5" y="6" x="6" height="38" width="38"
                fill="#f2f5e9" fill-opacity="0.5" stroke="#606060" stroke-width="1.0"/>
           <path id="arrow"
             d="M 11.500037,31.436501 C 11.940474,20.09759 22.043105,11.32322 32.158766,21.979434 L 37.068811,17.246167 C 37.068811,17.246167 37.088388,32 37.088388,32 L 22.160133,31.978069 C 22.160133,31.978069 26.997745,27.140456 26.997745,27.140456 C 18.528582,18.264221 13.291696,25.230495 11.500037,31.436501 z"
             style="fill:#404040;"/>
          </a>
         </g>
        </svg>
</svg>
