<?xml version="1.0" encoding="UTF-8" standalone="no"?>
<!DOCTYPE svg PUBLIC "-//W3C//DTD SVG 1.1//EN"
 "http://www.w3.org/Graphics/SVG/1.1/DTD/svg11.dtd">
<!-- Generated by graphviz version 2.40.1 (20161225.0304)
 -->
<!-- Title: Source/ARX/AR/arLabelingSub/arLabelingSubEWIC.c Pages: 1 -->
<!--zoomable 257 -->
<svg id="main" version="1.1" xmlns="http://www.w3.org/2000/svg" xmlns:xlink="http://www.w3.org/1999/xlink" xml:space="preserve" onload="init(evt)">
<style type="text/css"><![CDATA[
.edge:hover path { stroke: red; }
.edge:hover polygon { stroke: red; fill: red; }
]]></style>
<script type="text/javascript"><![CDATA[
var edges = document.getElementsByTagName('g');
if (edges && edges.length) {
  for (var i=0;i<edges.length;i++) {
    if (edges[i].id.substr(0,4)=='edge') {
      edges[i].setAttribute('class','edge');
    }
  }
}
]]></script>
        <defs>
                <circle id="rim" cx="0" cy="0" r="7"/>
                <circle id="rim2" cx="0" cy="0" r="3.5"/>
                <g id="zoomPlus">
                        <use xlink:href="#rim" fill="#404040">
                                <set attributeName="fill" to="#808080" begin="zoomplus.mouseover" end="zoomplus.mouseout"/>
                        </use>
                        <path d="M-4,0h8M0,-4v8" fill="none" stroke="white" stroke-width="1.5" pointer-events="none"/>
                </g>
                <g id="zoomMin">
                        <use xlink:href="#rim" fill="#404040">
                                <set attributeName="fill" to="#808080" begin="zoomminus.mouseover" end="zoomminus.mouseout"/>
                        </use>
                        <path d="M-4,0h8" fill="none" stroke="white" stroke-width="1.5" pointer-events="none"/>
                </g>
                <g id="dirArrow">
                        <path fill="none" stroke="white" stroke-width="1.5" d="M0,-3.0v7 M-2.5,-0.5L0,-3.0L2.5,-0.5"/>
                </g>
               <g id="resetDef">
                       <use xlink:href="#rim2" fill="#404040">
                               <set attributeName="fill" to="#808080" begin="reset.mouseover" end="reset.mouseout"/>
                       </use>
               </g>
        </defs>

<script type="text/javascript">
var viewWidth = 1193;
var viewHeight = 257;
var sectionId = 'dynsection-0';
</script>
<script xlink:href="svgpan.js"/>
<svg id="graph" class="graph">
<g id="viewport">
<title>Source/ARX/AR/arLabelingSub/arLabelingSubEWIC.c</title>
<polygon fill="#ffffff" stroke="transparent" points="-4,4 -4,-253 1188.7405,-253 1188.7405,4 -4,4"/>
<!-- Node0 -->
<g id="node1" class="node">
<title>Node0</title>
<polygon fill="#bfbfbf" stroke="#000000" points="889.2539,-220.5 889.2539,-248.5 1026.4307,-248.5 1026.4307,-220.5 889.2539,-220.5"/>
<text text-anchor="start" x="897.2539" y="-236.5" font-family="Helvetica,sans-Serif" font-size="10.00" fill="#000000">Source/ARX/AR/arLabeling</text>
<text text-anchor="middle" x="957.8423" y="-226.5" font-family="Helvetica,sans-Serif" font-size="10.00" fill="#000000">Sub/arLabelingSubEWIC.c</text>
</g>
<!-- Node1 -->
<g id="node2" class="node">
<title>Node1</title>
<polygon fill="#ffffff" stroke="#bfbfbf" points="1008.3252,-.5 1008.3252,-18.5 1099.3594,-18.5 1099.3594,-.5 1008.3252,-.5"/>
<text text-anchor="middle" x="1053.8423" y="-6.5" font-family="Helvetica,sans-Serif" font-size="10.00" fill="#000000">ARX/AR/config.h</text>
</g>
<!-- Node0&#45;&gt;Node1 -->
<g id="edge1" class="edge">
<title>Node0&#45;&gt;Node1</title>
<path fill="none" stroke="#191970" d="M1026.5434,-221.7932C1077.9727,-208.2924 1144.896,-181.3379 1177.8423,-129 1206.615,-83.2921 1133.0324,-42.5865 1087.2239,-22.5842"/>
<polygon fill="#191970" stroke="#191970" points="1088.49,-19.3194 1077.9173,-18.6358 1085.7561,-25.7635 1088.49,-19.3194"/>
</g>
<!-- Node2 -->
<g id="node3" class="node">
<title>Node2</title>
<g id="a_node3"><a xlink:href="ar_labeling_sub_8h.html" target="_top" xlink:title="arLabelingSub.h">
<polygon fill="#ffffff" stroke="#000000" points="834.4238,-165.5 834.4238,-183.5 923.2607,-183.5 923.2607,-165.5 834.4238,-165.5"/>
<text text-anchor="middle" x="878.8423" y="-171.5" font-family="Helvetica,sans-Serif" font-size="10.00" fill="#000000">arLabelingSub.h</text>
</a>
</g>
</g>
<!-- Node0&#45;&gt;Node2 -->
<g id="edge2" class="edge">
<title>Node0&#45;&gt;Node2</title>
<path fill="none" stroke="#191970" d="M939.1204,-220.2808C927.0775,-211.1344 911.4324,-199.252 899.0993,-189.8851"/>
<polygon fill="#191970" stroke="#191970" points="900.8836,-186.8452 890.8031,-183.5842 896.6498,-192.4198 900.8836,-186.8452"/>
</g>
<!-- Node3 -->
<g id="node4" class="node">
<title>Node3</title>
<polygon fill="#ffffff" stroke="#bfbfbf" points="0,-.5 0,-18.5 47.6846,-18.5 47.6846,-.5 0,-.5"/>
<text text-anchor="middle" x="23.8423" y="-6.5" font-family="Helvetica,sans-Serif" font-size="10.00" fill="#000000">stdlib.h</text>
</g>
<!-- Node2&#45;&gt;Node3 -->
<g id="edge3" class="edge">
<title>Node2&#45;&gt;Node3</title>
<path fill="none" stroke="#191970" d="M834.2527,-172.2221C689.6972,-164.2973 235.7525,-135.0247 103.8423,-74 78.7041,-62.3705 54.6337,-41.1248 39.5812,-26.2033"/>
<polygon fill="#191970" stroke="#191970" points="41.6952,-23.3597 32.197,-18.6655 36.6947,-28.2582 41.6952,-23.3597"/>
</g>
<!-- Node4 -->
<g id="node5" class="node">
<title>Node4</title>
<polygon fill="#ffffff" stroke="#bfbfbf" points="339.1108,-.5 339.1108,-18.5 384.5737,-18.5 384.5737,-.5 339.1108,-.5"/>
<text text-anchor="middle" x="361.8423" y="-6.5" font-family="Helvetica,sans-Serif" font-size="10.00" fill="#000000">stdio.h</text>
</g>
<!-- Node2&#45;&gt;Node4 -->
<g id="edge4" class="edge">
<title>Node2&#45;&gt;Node4</title>
<path fill="none" stroke="#191970" d="M834.0181,-173.2907C715.3315,-169.0517 397.6297,-150.6255 333.8423,-74 322.0904,-59.8828 333.8265,-40.078 345.4995,-26.1486"/>
<polygon fill="#191970" stroke="#191970" points="348.1018,-28.4891 352.1871,-18.7136 342.8974,-23.8079 348.1018,-28.4891"/>
</g>
<!-- Node5 -->
<g id="node6" class="node">
<title>Node5</title>
<polygon fill="#ffffff" stroke="#bfbfbf" points="619.4458,-.5 619.4458,-18.5 668.2388,-18.5 668.2388,-.5 619.4458,-.5"/>
<text text-anchor="middle" x="643.8423" y="-6.5" font-family="Helvetica,sans-Serif" font-size="10.00" fill="#000000">string.h</text>
</g>
<!-- Node2&#45;&gt;Node5 -->
<g id="edge5" class="edge">
<title>Node2&#45;&gt;Node5</title>
<path fill="none" stroke="#191970" d="M918.1937,-165.4956C984.9882,-148.4997 1108.8559,-108.5374 1060.8423,-55 1048.1007,-40.7925 776.5813,-19.3414 678.6605,-12.0382"/>
<polygon fill="#191970" stroke="#191970" points="678.6343,-8.5267 668.4028,-11.2776 678.1166,-15.5075 678.6343,-8.5267"/>
</g>
<!-- Node6 -->
<g id="node7" class="node">
<title>Node6</title>
<g id="a_node7"><a xlink:href="ar_8h.html" target="_top" xlink:title="artoolkitX core routines. ">
<polygon fill="#ffffff" stroke="#000000" points="644.4951,-110.5 644.4951,-128.5 717.1895,-128.5 717.1895,-110.5 644.4951,-110.5"/>
<text text-anchor="middle" x="680.8423" y="-116.5" font-family="Helvetica,sans-Serif" font-size="10.00" fill="#000000">ARX/AR/ar.h</text>
</a>
</g>
</g>
<!-- Node2&#45;&gt;Node6 -->
<g id="edge6" class="edge">
<title>Node2&#45;&gt;Node6</title>
<path fill="none" stroke="#191970" d="M846.1466,-165.4179C812.5127,-156.0751 759.9826,-141.4834 723.189,-131.263"/>
<polygon fill="#191970" stroke="#191970" points="723.8294,-127.8084 713.2574,-128.5042 721.9558,-134.553 723.8294,-127.8084"/>
</g>
<!-- Node19 -->
<g id="node20" class="node">
<title>Node19</title>
<g id="a_node20"><a xlink:href="ar_labeling_private_8h.html" target="_top" xlink:title="arLabelingPrivate.h">
<polygon fill="#ffffff" stroke="#000000" points="1066.7588,-110.5 1066.7588,-128.5 1168.9258,-128.5 1168.9258,-110.5 1066.7588,-110.5"/>
<text text-anchor="middle" x="1117.8423" y="-116.5" font-family="Helvetica,sans-Serif" font-size="10.00" fill="#000000">arLabelingPrivate.h</text>
</a>
</g>
</g>
<!-- Node2&#45;&gt;Node19 -->
<g id="edge30" class="edge">
<title>Node2&#45;&gt;Node19</title>
<path fill="none" stroke="#191970" d="M918.0406,-165.4795C959.285,-155.9881 1024.2825,-141.0305 1068.8743,-130.7688"/>
<polygon fill="#191970" stroke="#191970" points="1069.6622,-134.179 1078.6225,-128.5255 1068.0923,-127.3573 1069.6622,-134.179"/>
</g>
<!-- Node6&#45;&gt;Node1 -->
<g id="edge11" class="edge">
<title>Node6&#45;&gt;Node1</title>
<path fill="none" stroke="#191970" d="M717.3466,-114.0163C758.3874,-107.2267 826.6364,-94.0466 882.8423,-74 900.6273,-67.6567 903.4258,-62.2946 920.8423,-55 951.4803,-42.1678 987.1364,-30.1186 1013.8134,-21.6474"/>
<polygon fill="#191970" stroke="#191970" points="1015.0782,-24.9187 1023.5689,-18.5817 1012.9795,-18.2407 1015.0782,-24.9187"/>
</g>
<!-- Node6&#45;&gt;Node3 -->
<g id="edge8" class="edge">
<title>Node6&#45;&gt;Node3</title>
<path fill="none" stroke="#191970" d="M644.3843,-118.0587C541.2696,-113.7096 249.0523,-99.4286 156.8423,-74 116.0811,-62.7594 72.6949,-39.2695 46.9477,-23.9543"/>
<polygon fill="#191970" stroke="#191970" points="48.665,-20.9026 38.2975,-18.7195 45.0408,-26.8913 48.665,-20.9026"/>
</g>
<!-- Node6&#45;&gt;Node4 -->
<g id="edge7" class="edge">
<title>Node6&#45;&gt;Node4</title>
<path fill="none" stroke="#191970" d="M644.3876,-117.2649C561.0987,-111.7874 362.5003,-96.4816 342.8423,-74 331.37,-60.8799 339.7409,-41.1257 348.7121,-26.9375"/>
<polygon fill="#191970" stroke="#191970" points="351.7034,-28.7647 354.4917,-18.5433 345.9379,-24.795 351.7034,-28.7647"/>
</g>
<!-- Node6&#45;&gt;Node5 -->
<g id="edge10" class="edge">
<title>Node6&#45;&gt;Node5</title>
<path fill="none" stroke="#191970" d="M676.8694,-110.181C673.0443,-101.0484 667.2118,-86.6909 662.8423,-74 657.6691,-58.9749 652.6253,-41.6915 649.036,-28.7998"/>
<polygon fill="#191970" stroke="#191970" points="652.306,-27.4891 646.2895,-18.7684 645.5545,-29.3377 652.306,-27.4891"/>
</g>
<!-- Node7 -->
<g id="node8" class="node">
<title>Node7</title>
<polygon fill="#ffffff" stroke="#bfbfbf" points="447.7217,-55.5 447.7217,-73.5 495.9629,-73.5 495.9629,-55.5 447.7217,-55.5"/>
<text text-anchor="middle" x="471.8423" y="-61.5" font-family="Helvetica,sans-Serif" font-size="10.00" fill="#000000">stdint.h</text>
</g>
<!-- Node6&#45;&gt;Node7 -->
<g id="edge9" class="edge">
<title>Node6&#45;&gt;Node7</title>
<path fill="none" stroke="#191970" d="M644.6989,-110.4632C611.0843,-101.9904 559.3723,-88.7836 505.6638,-74.1745"/>
<polygon fill="#191970" stroke="#191970" points="506.5402,-70.7857 495.9715,-71.5286 504.6967,-77.5386 506.5402,-70.7857"/>
</g>
<!-- Node8 -->
<g id="node9" class="node">
<title>Node8</title>
<g id="a_node9"><a xlink:href="ar_config_8h.html" target="_top" xlink:title="ARX/AR/arConfig.h">
<polygon fill="#ffffff" stroke="#000000" points="513.7686,-55.5 513.7686,-73.5 615.916,-73.5 615.916,-55.5 513.7686,-55.5"/>
<text text-anchor="middle" x="564.8423" y="-61.5" font-family="Helvetica,sans-Serif" font-size="10.00" fill="#000000">ARX/AR/arConfig.h</text>
</a>
</g>
</g>
<!-- Node6&#45;&gt;Node8 -->
<g id="edge12" class="edge">
<title>Node6&#45;&gt;Node8</title>
<path fill="none" stroke="#191970" d="M661.6872,-110.4179C643.0488,-101.5807 614.5056,-88.0473 593.2287,-77.9591"/>
<polygon fill="#191970" stroke="#191970" points="594.5611,-74.7174 584.0258,-73.5956 591.5621,-81.0424 594.5611,-74.7174"/>
</g>
<!-- Node9 -->
<g id="node10" class="node">
<title>Node9</title>
<g id="a_node10"><a xlink:href="log_8h.html" target="_top" xlink:title="Logging utilities. ">
<polygon fill="#ffffff" stroke="#000000" points="165.7734,-55.5 165.7734,-73.5 257.9111,-73.5 257.9111,-55.5 165.7734,-55.5"/>
<text text-anchor="middle" x="211.8423" y="-61.5" font-family="Helvetica,sans-Serif" font-size="10.00" fill="#000000">ARX/ARUtil/log.h</text>
</a>
</g>
</g>
<!-- Node6&#45;&gt;Node9 -->
<g id="edge13" class="edge">
<title>Node6&#45;&gt;Node9</title>
<path fill="none" stroke="#191970" d="M644.4309,-115.23C562.9476,-105.6744 365.4335,-82.5118 268.0426,-71.0907"/>
<polygon fill="#191970" stroke="#191970" points="268.4283,-67.612 258.0886,-69.9233 267.6129,-74.5643 268.4283,-67.612"/>
</g>
<!-- Node13 -->
<g id="node14" class="node">
<title>Node13</title>
<g id="a_node14"><a xlink:href="matrix_8h.html" target="_top" xlink:title="ARX/AR/matrix.h">
<polygon fill="#ffffff" stroke="#000000" points="782.0566,-55.5 782.0566,-73.5 873.6279,-73.5 873.6279,-55.5 782.0566,-55.5"/>
<text text-anchor="middle" x="827.8423" y="-61.5" font-family="Helvetica,sans-Serif" font-size="10.00" fill="#000000">ARX/AR/matrix.h</text>
</a>
</g>
</g>
<!-- Node6&#45;&gt;Node13 -->
<g id="edge20" class="edge">
<title>Node6&#45;&gt;Node13</title>
<path fill="none" stroke="#191970" d="M705.1163,-110.4179C729.3741,-101.3419 766.8712,-87.3123 794.0355,-77.1488"/>
<polygon fill="#191970" stroke="#191970" points="795.3928,-80.378 803.5322,-73.5956 792.9397,-73.8219 795.3928,-80.378"/>
</g>
<!-- Node15 -->
<g id="node16" class="node">
<title>Node15</title>
<g id="a_node16"><a xlink:href="icp_8h.html" target="_top" xlink:title="ARX/AR/icp.h">
<polygon fill="#ffffff" stroke="#000000" points="352.2759,-55.5 352.2759,-73.5 429.4087,-73.5 429.4087,-55.5 352.2759,-55.5"/>
<text text-anchor="middle" x="390.8423" y="-61.5" font-family="Helvetica,sans-Serif" font-size="10.00" fill="#000000">ARX/AR/icp.h</text>
</a>
</g>
</g>
<!-- Node6&#45;&gt;Node15 -->
<g id="edge22" class="edge">
<title>Node6&#45;&gt;Node15</title>
<path fill="none" stroke="#191970" d="M644.3331,-112.7479C598.8824,-104.3174 518.6011,-89.3457 439.7194,-74.1553"/>
<polygon fill="#191970" stroke="#191970" points="440.0905,-70.6624 429.6087,-72.2055 438.765,-77.5358 440.0905,-70.6624"/>
</g>
<!-- Node17 -->
<g id="node18" class="node">
<title>Node17</title>
<g id="a_node18"><a xlink:href="param_8h.html" target="_top" xlink:title="artoolkitX functions for handling calibrated camera parameters. ">
<polygon fill="#ffffff" stroke="#000000" points="671.4951,-55.5 671.4951,-73.5 764.1895,-73.5 764.1895,-55.5 671.4951,-55.5"/>
<text text-anchor="middle" x="717.8423" y="-61.5" font-family="Helvetica,sans-Serif" font-size="10.00" fill="#000000">ARX/AR/param.h</text>
</a>
</g>
</g>
<!-- Node6&#45;&gt;Node17 -->
<g id="edge25" class="edge">
<title>Node6&#45;&gt;Node17</title>
<path fill="none" stroke="#191970" d="M681.7858,-110.4179C685.3968,-102.6624 692.6629,-91.29 699.8823,-81.8035"/>
<polygon fill="#191970" stroke="#191970" points="702.8101,-83.7501 706.393,-73.7795 697.3743,-79.3395 702.8101,-83.7501"/>
</g>
<!-- Node18 -->
<g id="node19" class="node">
<title>Node18</title>
<g id="a_node19"><a xlink:href="ar_image_proc_8h.html" target="_top" xlink:title="artoolkitX functions for 2D luminance image processing. ">
<polygon fill="#ffffff" stroke="#000000" points="930.0444,-55.5 930.0444,-73.5 1051.6401,-73.5 1051.6401,-55.5 930.0444,-55.5"/>
<text text-anchor="middle" x="990.8423" y="-61.5" font-family="Helvetica,sans-Serif" font-size="10.00" fill="#000000">ARX/AR/arImageProc.h</text>
</a>
</g>
</g>
<!-- Node6&#45;&gt;Node18 -->
<g id="edge27" class="edge">
<title>Node6&#45;&gt;Node18</title>
<path fill="none" stroke="#191970" d="M717.2479,-112.1964C768.2497,-102.7242 861.5559,-86.1274 924.9174,-75.2243"/>
<polygon fill="#191970" stroke="#191970" points="925.5544,-78.6662 934.8183,-73.5252 924.3704,-71.767 925.5544,-78.6662"/>
</g>
<!-- Node9&#45;&gt;Node3 -->
<g id="edge15" class="edge">
<title>Node9&#45;&gt;Node3</title>
<path fill="none" stroke="#191970" d="M180.7979,-55.4179C146.816,-45.4763 92.5187,-29.5915 57.5261,-19.3543"/>
<polygon fill="#191970" stroke="#191970" points="58.3464,-15.9476 47.7659,-16.4989 56.3809,-22.666 58.3464,-15.9476"/>
</g>
<!-- Node9&#45;&gt;Node4 -->
<g id="edge14" class="edge">
<title>Node9&#45;&gt;Node4</title>
<path fill="none" stroke="#191970" d="M236.6117,-55.4179C261.9574,-46.1245 301.4676,-31.6374 329.3188,-21.4253"/>
<polygon fill="#191970" stroke="#191970" points="330.8206,-24.6026 339.0044,-17.8739 328.4108,-18.0304 330.8206,-24.6026"/>
</g>
<!-- Node9&#45;&gt;Node5 -->
<g id="edge16" class="edge">
<title>Node9&#45;&gt;Node5</title>
<path fill="none" stroke="#191970" d="M258.0739,-58.614C345.1783,-47.5243 531.7852,-23.7665 609.1413,-13.9179"/>
<polygon fill="#191970" stroke="#191970" points="609.832,-17.3584 619.3098,-12.6233 608.9478,-10.4144 609.832,-17.3584"/>
</g>
<!-- Node10 -->
<g id="node11" class="node">
<title>Node10</title>
<polygon fill="#ffffff" stroke="#bfbfbf" points="185.7759,-.5 185.7759,-18.5 237.9087,-18.5 237.9087,-.5 185.7759,-.5"/>
<text text-anchor="middle" x="211.8423" y="-6.5" font-family="Helvetica,sans-Serif" font-size="10.00" fill="#000000">stdarg.h</text>
</g>
<!-- Node9&#45;&gt;Node10 -->
<g id="edge17" class="edge">
<title>Node9&#45;&gt;Node10</title>
<path fill="none" stroke="#191970" d="M211.8423,-55.4179C211.8423,-48.2164 211.8423,-37.8962 211.8423,-28.8632"/>
<polygon fill="#191970" stroke="#191970" points="215.3424,-28.7794 211.8423,-18.7795 208.3424,-28.7795 215.3424,-28.7794"/>
</g>
<!-- Node11 -->
<g id="node12" class="node">
<title>Node11</title>
<polygon fill="#ffffff" stroke="#bfbfbf" points="256.1108,-.5 256.1108,-18.5 321.5737,-18.5 321.5737,-.5 256.1108,-.5"/>
<text text-anchor="middle" x="288.8423" y="-6.5" font-family="Helvetica,sans-Serif" font-size="10.00" fill="#000000">sys/errno.h</text>
</g>
<!-- Node9&#45;&gt;Node11 -->
<g id="edge18" class="edge">
<title>Node9&#45;&gt;Node11</title>
<path fill="none" stroke="#191970" d="M224.5573,-55.4179C236.2606,-47.0584 253.847,-34.4966 267.6688,-24.6239"/>
<polygon fill="#191970" stroke="#191970" points="270.0054,-27.2561 276.1084,-18.5956 265.9367,-21.56 270.0054,-27.2561"/>
</g>
<!-- Node12 -->
<g id="node13" class="node">
<title>Node12</title>
<g id="a_node13"><a xlink:href="types_8h.html" target="_top" xlink:title="ARX/ARUtil/types.h">
<polygon fill="#ffffff" stroke="#000000" points="65.4951,-.5 65.4951,-18.5 168.1895,-18.5 168.1895,-.5 65.4951,-.5"/>
<text text-anchor="middle" x="116.8423" y="-6.5" font-family="Helvetica,sans-Serif" font-size="10.00" fill="#000000">ARX/ARUtil/types.h</text>
</a>
</g>
</g>
<!-- Node9&#45;&gt;Node12 -->
<g id="edge19" class="edge">
<title>Node9&#45;&gt;Node12</title>
<path fill="none" stroke="#191970" d="M196.155,-55.4179C181.3033,-46.8195 158.7725,-33.7754 141.5154,-23.7844"/>
<polygon fill="#191970" stroke="#191970" points="142.9608,-20.577 132.5529,-18.5956 139.4535,-26.635 142.9608,-20.577"/>
</g>
<!-- Node14 -->
<g id="node15" class="node">
<title>Node14</title>
<polygon fill="#ffffff" stroke="#bfbfbf" points="804.5566,-.5 804.5566,-18.5 851.1279,-18.5 851.1279,-.5 804.5566,-.5"/>
<text text-anchor="middle" x="827.8423" y="-6.5" font-family="Helvetica,sans-Serif" font-size="10.00" fill="#000000">math.h</text>
</g>
<!-- Node13&#45;&gt;Node14 -->
<g id="edge21" class="edge">
<title>Node13&#45;&gt;Node14</title>
<path fill="none" stroke="#191970" d="M827.8423,-55.4179C827.8423,-48.2164 827.8423,-37.8962 827.8423,-28.8632"/>
<polygon fill="#191970" stroke="#191970" points="831.3424,-28.7794 827.8423,-18.7795 824.3424,-28.7795 831.3424,-28.7794"/>
</g>
<!-- Node15&#45;&gt;Node4 -->
<g id="edge23" class="edge">
<title>Node15&#45;&gt;Node4</title>
<path fill="none" stroke="#191970" d="M386.0535,-55.4179C382.0895,-47.8998 376.3333,-36.9829 371.428,-27.6799"/>
<polygon fill="#191970" stroke="#191970" points="374.4952,-25.9927 366.7351,-18.7795 368.3032,-29.2576 374.4952,-25.9927"/>
</g>
<!-- Node16 -->
<g id="node17" class="node">
<title>Node16</title>
<g id="a_node17"><a xlink:href="icp_core_8h.html" target="_top" xlink:title="ARX/AR/icpCore.h">
<polygon fill="#ffffff" stroke="#000000" points="402.4385,-.5 402.4385,-18.5 501.2461,-18.5 501.2461,-.5 402.4385,-.5"/>
<text text-anchor="middle" x="451.8423" y="-6.5" font-family="Helvetica,sans-Serif" font-size="10.00" fill="#000000">ARX/AR/icpCore.h</text>
</a>
</g>
</g>
<!-- Node15&#45;&gt;Node16 -->
<g id="edge24" class="edge">
<title>Node15&#45;&gt;Node16</title>
<path fill="none" stroke="#191970" d="M400.9152,-55.4179C409.8678,-47.3458 423.1661,-35.3556 433.9286,-25.6517"/>
<polygon fill="#191970" stroke="#191970" points="436.4674,-28.0753 441.5505,-18.7795 431.7799,-22.8764 436.4674,-28.0753"/>
</g>
<!-- Node17&#45;&gt;Node6 -->
<g id="edge26" class="edge">
<title>Node17&#45;&gt;Node6</title>
<path fill="none" stroke="#191970" d="M716.8065,-73.7795C713.134,-81.5956 705.8376,-92.9823 698.6193,-102.4365"/>
<polygon fill="#191970" stroke="#191970" points="695.72,-100.454 692.1184,-110.4179 701.1475,-104.8747 695.72,-100.454"/>
</g>
<!-- Node18&#45;&gt;Node1 -->
<g id="edge28" class="edge">
<title>Node18&#45;&gt;Node1</title>
<path fill="none" stroke="#191970" d="M1001.2455,-55.4179C1010.5822,-47.2667 1024.4956,-35.1201 1035.6674,-25.3669"/>
<polygon fill="#191970" stroke="#191970" points="1037.9817,-27.9927 1043.2131,-18.7795 1033.3781,-22.7194 1037.9817,-27.9927"/>
</g>
<!-- Node18&#45;&gt;Node6 -->
<g id="edge29" class="edge">
<title>Node18&#45;&gt;Node6</title>
<path fill="none" stroke="#191970" d="M945.1074,-73.5289C886.7264,-84.2843 786.4716,-102.0501 727.6019,-112.0547"/>
<polygon fill="#191970" stroke="#191970" points="726.7397,-108.6508 717.4636,-113.7697 727.9073,-115.5527 726.7397,-108.6508"/>
</g>
<!-- Node19&#45;&gt;Node1 -->
<g id="edge31" class="edge">
<title>Node19&#45;&gt;Node1</title>
<path fill="none" stroke="#191970" d="M1115.5545,-110.2696C1112.0939,-97.3076 1104.7527,-73.2556 1093.8423,-55 1087.6102,-44.5723 1078.8593,-34.2922 1071.1311,-26.1491"/>
<polygon fill="#191970" stroke="#191970" points="1073.3889,-23.454 1063.8749,-18.792 1068.4051,-28.3695 1073.3889,-23.454"/>
</g>
</g>
</svg>
        <g id="navigator" transform="translate(0 0)" fill="#404254">
                <rect fill="#f2f5e9" fill-opacity="0.5" stroke="#606060" stroke-width=".5" x="0" y="0" width="60" height="60"/>
                <use id="zoomplus" xlink:href="#zoomPlus" x="17" y="9" onmousedown="handleZoom(evt,'in')"/>
                <use id="zoomminus" xlink:href="#zoomMin" x="42" y="9" onmousedown="handleZoom(evt,'out')"/>
                <use id="reset" xlink:href="#resetDef" x="30" y="36" onmousedown="handleReset()"/>
                <g id="arrowUp" xlink:href="#dirArrow" transform="translate(30 24)" onmousedown="handlePan(0,-1)">
                  <use xlink:href="#rim" fill="#404040">
                        <set attributeName="fill" to="#808080" begin="arrowUp.mouseover" end="arrowUp.mouseout"/>
                  </use>
                  <path fill="none" stroke="white" stroke-width="1.5" d="M0,-3.0v7 M-2.5,-0.5L0,-3.0L2.5,-0.5"/>
                </g>
                <g id="arrowRight" xlink:href="#dirArrow" transform="rotate(90) translate(36 -43)" onmousedown="handlePan(1,0)">
                  <use xlink:href="#rim" fill="#404040">
                        <set attributeName="fill" to="#808080" begin="arrowRight.mouseover" end="arrowRight.mouseout"/>
                  </use>
                  <path fill="none" stroke="white" stroke-width="1.5" d="M0,-3.0v7 M-2.5,-0.5L0,-3.0L2.5,-0.5"/>
                </g>
                <g id="arrowDown" xlink:href="#dirArrow" transform="rotate(180) translate(-30 -48)" onmousedown="handlePan(0,1)">
                  <use xlink:href="#rim" fill="#404040">
                        <set attributeName="fill" to="#808080" begin="arrowDown.mouseover" end="arrowDown.mouseout"/>
                  </use>
                  <path fill="none" stroke="white" stroke-width="1.5" d="M0,-3.0v7 M-2.5,-0.5L0,-3.0L2.5,-0.5"/>
                </g>
                <g id="arrowLeft" xlink:href="#dirArrow" transform="rotate(270) translate(-36 17)" onmousedown="handlePan(-1,0)">
                  <use xlink:href="#rim" fill="#404040">
                        <set attributeName="fill" to="#808080" begin="arrowLeft.mouseover" end="arrowLeft.mouseout"/>
                  </use>
                  <path fill="none" stroke="white" stroke-width="1.5" d="M0,-3.0v7 M-2.5,-0.5L0,-3.0L2.5,-0.5"/>
                </g>
        </g>
        <svg viewBox="0 0 15 15" width="100%" height="30px" preserveAspectRatio="xMaxYMin meet">
         <g id="arrow_out" transform="scale(0.3 0.3)">
          <a xlink:href="ar_labeling_sub_e_w_i_c_8c__incl_org.svg" target="_base">
           <rect id="button" ry="5" rx="5" y="6" x="6" height="38" width="38"
                fill="#f2f5e9" fill-opacity="0.5" stroke="#606060" stroke-width="1.0"/>
           <path id="arrow"
             d="M 11.500037,31.436501 C 11.940474,20.09759 22.043105,11.32322 32.158766,21.979434 L 37.068811,17.246167 C 37.068811,17.246167 37.088388,32 37.088388,32 L 22.160133,31.978069 C 22.160133,31.978069 26.997745,27.140456 26.997745,27.140456 C 18.528582,18.264221 13.291696,25.230495 11.500037,31.436501 z"
             style="fill:#404040;"/>
          </a>
         </g>
        </svg>
</svg>
