<?xml version="1.0" encoding="UTF-8" standalone="no"?>
<!DOCTYPE svg PUBLIC "-//W3C//DTD SVG 1.1//EN"
 "http://www.w3.org/Graphics/SVG/1.1/DTD/svg11.dtd">
<!-- Generated by graphviz version 7.0.5 (20221223.1930)
 -->
<!-- Title: Source/ARX/AR/arLabeling.c Pages: 1 -->
<!--zoomable 203 -->
<svg id="main" version="1.1" xmlns="http://www.w3.org/2000/svg" xmlns:xlink="http://www.w3.org/1999/xlink" xml:space="preserve" onload="init(evt)">
<style type="text/css"><![CDATA[
.edge:hover path { stroke: red; }
.edge:hover polygon { stroke: red; fill: red; }
]]></style>
<script type="text/javascript"><![CDATA[
var edges = document.getElementsByTagName('g');
if (edges && edges.length) {
  for (var i=0;i<edges.length;i++) {
    if (edges[i].id.substr(0,4)=='edge') {
      edges[i].setAttribute('class','edge');
    }
  }
}
]]></script>
        <defs>
                <circle id="rim" cx="0" cy="0" r="7"/>
                <circle id="rim2" cx="0" cy="0" r="3.5"/>
                <g id="zoomPlus">
                        <use xlink:href="#rim" fill="#404040">
                                <set attributeName="fill" to="#808080" begin="zoomplus.mouseover" end="zoomplus.mouseout"/>
                        </use>
                        <path d="M-4,0h8M0,-4v8" fill="none" stroke="white" stroke-width="1.5" pointer-events="none"/>
                </g>
                <g id="zoomMin">
                        <use xlink:href="#rim" fill="#404040">
                                <set attributeName="fill" to="#808080" begin="zoomminus.mouseover" end="zoomminus.mouseout"/>
                        </use>
                        <path d="M-4,0h8" fill="none" stroke="white" stroke-width="1.5" pointer-events="none"/>
                </g>
                <g id="dirArrow">
                        <path fill="none" stroke="white" stroke-width="1.5" d="M0,-3.0v7 M-2.5,-0.5L0,-3.0L2.5,-0.5"/>
                </g>
               <g id="resetDef">
                       <use xlink:href="#rim2" fill="#404040">
                               <set attributeName="fill" to="#808080" begin="reset.mouseover" end="reset.mouseout"/>
                       </use>
               </g>
        </defs>

<script type="text/javascript">
var viewWidth = 1058;
var viewHeight = 203;
var sectionId = 'dynsection-0';
</script>
<script xlink:href="svgpan.js"/>
<svg id="graph" class="graph">
<g id="viewport">
<title>Source/ARX/AR/arLabeling.c</title>
<!-- Node1 -->
<g id="node1" class="node">
<title>Node1</title>
<g id="a_node1"><a xlink:title=" ">
<polygon fill="#999999" stroke="#666666" points="585,-195 441,-195 441,-176 585,-176 585,-195"/>
<text text-anchor="middle" x="513" y="-183" font-family="Helvetica,sans-Serif" font-size="10.00">Source/ARX/AR/arLabeling.c</text>
</a>
</g>
</g>
<!-- Node2 -->
<g id="node2" class="node">
<title>Node2</title>
<g id="a_node2"><a xlink:title=" ">
<polygon fill="#e0e0e0" stroke="#999999" points="868,-19 820,-19 820,0 868,0 868,-19"/>
<text text-anchor="middle" x="844" y="-7" font-family="Helvetica,sans-Serif" font-size="10.00">stdlib.h</text>
</a>
</g>
</g>
<!-- Node1&#45;&gt;Node2 -->
<g id="edge1" class="edge">
<title>Node1&#45;&gt;Node2</title>
<path fill="none" stroke="#63b8ff" d="M585.31,-177.59C655.92,-167.04 761.72,-140.5 825,-74 836.17,-62.26 840.8,-44.21 842.71,-30.35"/>
<polygon fill="#63b8ff" stroke="#63b8ff" points="846.17,-30.9 843.65,-20.61 839.2,-30.22 846.17,-30.9"/>
</g>
<!-- Node3 -->
<g id="node3" class="node">
<title>Node3</title>
<g id="a_node3"><a xlink:title=" ">
<polygon fill="#e0e0e0" stroke="#999999" points="932,-19 886,-19 886,0 932,0 932,-19"/>
<text text-anchor="middle" x="909" y="-7" font-family="Helvetica,sans-Serif" font-size="10.00">stdio.h</text>
</a>
</g>
</g>
<!-- Node1&#45;&gt;Node3 -->
<g id="edge2" class="edge">
<title>Node1&#45;&gt;Node3</title>
<path fill="none" stroke="#63b8ff" d="M585.46,-181.17C638.24,-176.57 710.44,-165.68 769,-140 825.69,-115.14 874.24,-57.52 896.31,-28.25"/>
<polygon fill="#63b8ff" stroke="#63b8ff" points="898.98,-30.53 902.09,-20.4 893.34,-26.38 898.98,-30.53"/>
</g>
<!-- Node4 -->
<g id="node4" class="node">
<title>Node4</title>
<g id="a_node4"><a xlink:href="ar_8h.html" target="_top" xlink:title="artoolkitX core routines.">
<polygon fill="white" stroke="#666666" points="550,-134.5 476,-134.5 476,-115.5 550,-115.5 550,-134.5"/>
<text text-anchor="middle" x="513" y="-122.5" font-family="Helvetica,sans-Serif" font-size="10.00">ARX/AR/ar.h</text>
</a>
</g>
</g>
<!-- Node1&#45;&gt;Node4 -->
<g id="edge3" class="edge">
<title>Node1&#45;&gt;Node4</title>
<path fill="none" stroke="#63b8ff" d="M513,-175.87C513,-168 513,-156.1 513,-145.89"/>
<polygon fill="#63b8ff" stroke="#63b8ff" points="516.5,-146.18 513,-136.18 509.5,-146.18 516.5,-146.18"/>
</g>
<!-- Node7 -->
<g id="node7" class="node">
<title>Node7</title>
<g id="a_node7"><a xlink:title=" ">
<polygon fill="#e0e0e0" stroke="#999999" points="92,-19 0,-19 0,0 92,0 92,-19"/>
<text text-anchor="middle" x="46" y="-7" font-family="Helvetica,sans-Serif" font-size="10.00">ARX/AR/config.h</text>
</a>
</g>
</g>
<!-- Node1&#45;&gt;Node7 -->
<g id="edge27" class="edge">
<title>Node1&#45;&gt;Node7</title>
<path fill="none" stroke="#63b8ff" d="M440.76,-182.69C369.25,-179.19 257.38,-169.07 165,-140 104.7,-121.03 71.73,-128.09 39,-74 31.09,-60.92 33.72,-43.52 37.84,-30.24"/>
<polygon fill="#63b8ff" stroke="#63b8ff" points="41.12,-31.47 41.26,-20.87 34.55,-29.07 41.12,-31.47"/>
</g>
<!-- Node19 -->
<g id="node19" class="node">
<title>Node19</title>
<g id="a_node19"><a xlink:href="ar_labeling_private_8h.html" target="_top" xlink:title=" ">
<polygon fill="white" stroke="#666666" points="299.5,-140 174.5,-140 174.5,-110 299.5,-110 299.5,-140"/>
<text text-anchor="start" x="182.5" y="-128" font-family="Helvetica,sans-Serif" font-size="10.00">arLabelingSub/arLabeling</text>
<text text-anchor="middle" x="237" y="-117" font-family="Helvetica,sans-Serif" font-size="10.00">Private.h</text>
</a>
</g>
</g>
<!-- Node1&#45;&gt;Node19 -->
<g id="edge28" class="edge">
<title>Node1&#45;&gt;Node19</title>
<path fill="none" stroke="#63b8ff" d="M470.78,-175.55C428.36,-166.56 362.13,-152.52 310.97,-141.68"/>
<polygon fill="#63b8ff" stroke="#63b8ff" points="311.96,-138.31 301.45,-139.66 310.51,-145.16 311.96,-138.31"/>
</g>
<!-- Node4&#45;&gt;Node2 -->
<g id="edge5" class="edge">
<title>Node4&#45;&gt;Node2</title>
<path fill="none" stroke="#63b8ff" d="M550.23,-117.66C592.09,-109.92 661.7,-95.18 719,-74 724.03,-72.14 781.39,-42.74 816.64,-24.6"/>
<polygon fill="#63b8ff" stroke="#63b8ff" points="818.15,-27.76 825.44,-20.07 814.95,-21.54 818.15,-27.76"/>
</g>
<!-- Node4&#45;&gt;Node3 -->
<g id="edge4" class="edge">
<title>Node4&#45;&gt;Node3</title>
<path fill="none" stroke="#63b8ff" d="M550.14,-123.78C610.28,-122.19 731.65,-113.81 825,-74 851.15,-62.85 876.52,-41.82 892.41,-27.02"/>
<polygon fill="#63b8ff" stroke="#63b8ff" points="894.73,-29.65 899.52,-20.2 889.88,-24.6 894.73,-29.65"/>
</g>
<!-- Node5 -->
<g id="node5" class="node">
<title>Node5</title>
<g id="a_node5"><a xlink:title=" ">
<polygon fill="#e0e0e0" stroke="#999999" points="815.5,-74 766.5,-74 766.5,-55 815.5,-55 815.5,-74"/>
<text text-anchor="middle" x="791" y="-62" font-family="Helvetica,sans-Serif" font-size="10.00">stdint.h</text>
</a>
</g>
</g>
<!-- Node4&#45;&gt;Node5 -->
<g id="edge6" class="edge">
<title>Node4&#45;&gt;Node5</title>
<path fill="none" stroke="#63b8ff" d="M550.28,-116.3C597.32,-106.56 680.69,-89.23 752,-74 753.01,-73.78 754.03,-73.57 755.06,-73.34"/>
<polygon fill="#63b8ff" stroke="#63b8ff" points="755.73,-76.78 764.77,-71.25 754.26,-69.94 755.73,-76.78"/>
</g>
<!-- Node6 -->
<g id="node6" class="node">
<title>Node6</title>
<g id="a_node6"><a xlink:title=" ">
<polygon fill="#e0e0e0" stroke="#999999" points="524.5,-19 475.5,-19 475.5,0 524.5,0 524.5,-19"/>
<text text-anchor="middle" x="500" y="-7" font-family="Helvetica,sans-Serif" font-size="10.00">string.h</text>
</a>
</g>
</g>
<!-- Node4&#45;&gt;Node6 -->
<g id="edge7" class="edge">
<title>Node4&#45;&gt;Node6</title>
<path fill="none" stroke="#63b8ff" d="M529.44,-115.19C550.29,-102.78 582.07,-78.98 569,-55 561.63,-41.47 548.18,-31.43 535.1,-24.35"/>
<polygon fill="#63b8ff" stroke="#63b8ff" points="536.69,-21.23 526.17,-19.96 533.6,-27.51 536.69,-21.23"/>
</g>
<!-- Node4&#45;&gt;Node7 -->
<g id="edge8" class="edge">
<title>Node4&#45;&gt;Node7</title>
<path fill="none" stroke="#63b8ff" d="M475.8,-121.55C377.6,-114.8 116.63,-95.09 84,-74 68.16,-63.76 58,-44.39 52.2,-29.73"/>
<polygon fill="#63b8ff" stroke="#63b8ff" points="55.63,-28.91 48.98,-20.66 49.03,-31.26 55.63,-28.91"/>
</g>
<!-- Node8 -->
<g id="node8" class="node">
<title>Node8</title>
<g id="a_node8"><a xlink:href="ar_config_8h.html" target="_top" xlink:title=" ">
<polygon fill="white" stroke="#666666" points="196.5,-74 93.5,-74 93.5,-55 196.5,-55 196.5,-74"/>
<text text-anchor="middle" x="145" y="-62" font-family="Helvetica,sans-Serif" font-size="10.00">ARX/AR/arConfig.h</text>
</a>
</g>
</g>
<!-- Node4&#45;&gt;Node8 -->
<g id="edge9" class="edge">
<title>Node4&#45;&gt;Node8</title>
<path fill="none" stroke="#63b8ff" d="M475.69,-118.07C412.73,-108.06 284.75,-87.72 207.77,-75.48"/>
<polygon fill="#63b8ff" stroke="#63b8ff" points="208.72,-72.09 198.29,-73.97 207.62,-79 208.72,-72.09"/>
</g>
<!-- Node9 -->
<g id="node9" class="node">
<title>Node9</title>
<g id="a_node9"><a xlink:href="log_8h.html" target="_top" xlink:title="Logging utilities.">
<polygon fill="white" stroke="#666666" points="710,-74 616,-74 616,-55 710,-55 710,-74"/>
<text text-anchor="middle" x="663" y="-62" font-family="Helvetica,sans-Serif" font-size="10.00">ARX/ARUtil/log.h</text>
</a>
</g>
</g>
<!-- Node4&#45;&gt;Node9 -->
<g id="edge10" class="edge">
<title>Node4&#45;&gt;Node9</title>
<path fill="none" stroke="#63b8ff" d="M535.78,-115.12C560.67,-105.41 600.79,-89.76 629.32,-78.64"/>
<polygon fill="#63b8ff" stroke="#63b8ff" points="630.55,-81.91 638.59,-75.02 628.01,-75.39 630.55,-81.91"/>
</g>
<!-- Node13 -->
<g id="node13" class="node">
<title>Node13</title>
<g id="a_node13"><a xlink:href="matrix_8h.html" target="_top" xlink:title=" ">
<polygon fill="white" stroke="#666666" points="448.5,-74 355.5,-74 355.5,-55 448.5,-55 448.5,-74"/>
<text text-anchor="middle" x="402" y="-62" font-family="Helvetica,sans-Serif" font-size="10.00">ARX/AR/matrix.h</text>
</a>
</g>
</g>
<!-- Node4&#45;&gt;Node13 -->
<g id="edge17" class="edge">
<title>Node4&#45;&gt;Node13</title>
<path fill="none" stroke="#63b8ff" d="M496.14,-115.12C478.38,-105.75 450.12,-90.86 429.2,-79.83"/>
<polygon fill="#63b8ff" stroke="#63b8ff" points="430.83,-76.74 420.36,-75.17 427.57,-82.93 430.83,-76.74"/>
</g>
<!-- Node15 -->
<g id="node15" class="node">
<title>Node15</title>
<g id="a_node15"><a xlink:href="icp_8h.html" target="_top" xlink:title=" ">
<polygon fill="white" stroke="#666666" points="1027.5,-74 948.5,-74 948.5,-55 1027.5,-55 1027.5,-74"/>
<text text-anchor="middle" x="988" y="-62" font-family="Helvetica,sans-Serif" font-size="10.00">ARX/AR/icp.h</text>
</a>
</g>
</g>
<!-- Node4&#45;&gt;Node15 -->
<g id="edge19" class="edge">
<title>Node4&#45;&gt;Node15</title>
<path fill="none" stroke="#63b8ff" d="M550.27,-119.41C634.76,-109 840.93,-83.61 937.08,-71.77"/>
<polygon fill="#63b8ff" stroke="#63b8ff" points="937.24,-75.28 946.74,-70.58 936.39,-68.33 937.24,-75.28"/>
</g>
<!-- Node17 -->
<g id="node17" class="node">
<title>Node17</title>
<g id="a_node17"><a xlink:href="param_8h.html" target="_top" xlink:title="artoolkitX functions for handling calibrated camera parameters.">
<polygon fill="white" stroke="#666666" points="559.5,-74 466.5,-74 466.5,-55 559.5,-55 559.5,-74"/>
<text text-anchor="middle" x="513" y="-62" font-family="Helvetica,sans-Serif" font-size="10.00">ARX/AR/param.h</text>
</a>
</g>
</g>
<!-- Node4&#45;&gt;Node17 -->
<g id="edge22" class="edge">
<title>Node4&#45;&gt;Node17</title>
<path fill="none" stroke="#63b8ff" d="M508.04,-115.37C506.35,-107.5 505.85,-95.6 506.57,-85.39"/>
<polygon fill="#63b8ff" stroke="#63b8ff" points="510.01,-86.04 507.84,-75.67 503.07,-85.13 510.01,-86.04"/>
</g>
<!-- Node18 -->
<g id="node18" class="node">
<title>Node18</title>
<g id="a_node18"><a xlink:href="ar_image_proc_8h.html" target="_top" xlink:title="artoolkitX functions for 2D luminance image processing.">
<polygon fill="white" stroke="#666666" points="337,-74 215,-74 215,-55 337,-55 337,-74"/>
<text text-anchor="middle" x="276" y="-62" font-family="Helvetica,sans-Serif" font-size="10.00">ARX/AR/arImageProc.h</text>
</a>
</g>
</g>
<!-- Node4&#45;&gt;Node18 -->
<g id="edge24" class="edge">
<title>Node4&#45;&gt;Node18</title>
<path fill="none" stroke="#63b8ff" d="M475.73,-115.99C432.95,-106 363.2,-88.84 318.4,-77.34"/>
<polygon fill="#63b8ff" stroke="#63b8ff" points="319.33,-73.96 308.77,-74.85 317.58,-80.74 319.33,-73.96"/>
</g>
<!-- Node9&#45;&gt;Node2 -->
<g id="edge12" class="edge">
<title>Node9&#45;&gt;Node2</title>
<path fill="none" stroke="#63b8ff" d="M693.7,-54.51C725.6,-45.17 775.44,-30.58 808.88,-20.78"/>
<polygon fill="#63b8ff" stroke="#63b8ff" points="809.48,-24.26 818.09,-18.09 807.51,-17.54 809.48,-24.26"/>
</g>
<!-- Node9&#45;&gt;Node3 -->
<g id="edge11" class="edge">
<title>Node9&#45;&gt;Node3</title>
<path fill="none" stroke="#63b8ff" d="M709.92,-54.51C750.92,-46.48 812.32,-34.05 874.43,-19.51"/>
<polygon fill="#63b8ff" stroke="#63b8ff" points="875.22,-22.92 884.15,-17.22 873.61,-16.11 875.22,-22.92"/>
</g>
<!-- Node9&#45;&gt;Node6 -->
<g id="edge13" class="edge">
<title>Node9&#45;&gt;Node6</title>
<path fill="none" stroke="#63b8ff" d="M635.35,-54.51C607.89,-45.58 565.65,-31.85 535.68,-22.1"/>
<polygon fill="#63b8ff" stroke="#63b8ff" points="536.88,-18.81 526.28,-19.05 534.71,-25.47 536.88,-18.81"/>
</g>
<!-- Node10 -->
<g id="node10" class="node">
<title>Node10</title>
<g id="a_node10"><a xlink:title=" ">
<polygon fill="#e0e0e0" stroke="#999999" points="595,-19 543,-19 543,0 595,0 595,-19"/>
<text text-anchor="middle" x="569" y="-7" font-family="Helvetica,sans-Serif" font-size="10.00">stdarg.h</text>
</a>
</g>
</g>
<!-- Node9&#45;&gt;Node10 -->
<g id="edge14" class="edge">
<title>Node9&#45;&gt;Node10</title>
<path fill="none" stroke="#63b8ff" d="M647.05,-54.51C632.65,-46.39 611.21,-34.3 594.44,-24.85"/>
<polygon fill="#63b8ff" stroke="#63b8ff" points="596.46,-21.96 586.03,-20.1 593.02,-28.06 596.46,-21.96"/>
</g>
<!-- Node11 -->
<g id="node11" class="node">
<title>Node11</title>
<g id="a_node11"><a xlink:title=" ">
<polygon fill="#e0e0e0" stroke="#999999" points="678.5,-19 613.5,-19 613.5,0 678.5,0 678.5,-19"/>
<text text-anchor="middle" x="646" y="-7" font-family="Helvetica,sans-Serif" font-size="10.00">sys/errno.h</text>
</a>
</g>
</g>
<!-- Node9&#45;&gt;Node11 -->
<g id="edge15" class="edge">
<title>Node9&#45;&gt;Node11</title>
<path fill="none" stroke="#63b8ff" d="M660.19,-54.75C658.06,-48.11 655.06,-38.73 652.36,-30.31"/>
<polygon fill="#63b8ff" stroke="#63b8ff" points="655.72,-29.34 649.33,-20.88 649.05,-31.47 655.72,-29.34"/>
</g>
<!-- Node12 -->
<g id="node12" class="node">
<title>Node12</title>
<g id="a_node12"><a xlink:href="types_8h.html" target="_top" xlink:title=" ">
<polygon fill="white" stroke="#666666" points="801.5,-19 696.5,-19 696.5,0 801.5,0 801.5,-19"/>
<text text-anchor="middle" x="749" y="-7" font-family="Helvetica,sans-Serif" font-size="10.00">ARX/ARUtil/types.h</text>
</a>
</g>
</g>
<!-- Node9&#45;&gt;Node12 -->
<g id="edge16" class="edge">
<title>Node9&#45;&gt;Node12</title>
<path fill="none" stroke="#63b8ff" d="M677.59,-54.51C690.52,-46.54 709.64,-34.75 724.85,-25.38"/>
<polygon fill="#63b8ff" stroke="#63b8ff" points="726.66,-28.38 733.34,-20.15 722.99,-22.42 726.66,-28.38"/>
</g>
<!-- Node14 -->
<g id="node14" class="node">
<title>Node14</title>
<g id="a_node14"><a xlink:title=" ">
<polygon fill="#e0e0e0" stroke="#999999" points="425.5,-19 378.5,-19 378.5,0 425.5,0 425.5,-19"/>
<text text-anchor="middle" x="402" y="-7" font-family="Helvetica,sans-Serif" font-size="10.00">math.h</text>
</a>
</g>
</g>
<!-- Node13&#45;&gt;Node14 -->
<g id="edge18" class="edge">
<title>Node13&#45;&gt;Node14</title>
<path fill="none" stroke="#63b8ff" d="M402,-54.75C402,-48.27 402,-39.16 402,-30.9"/>
<polygon fill="#63b8ff" stroke="#63b8ff" points="405.5,-30.96 402,-20.96 398.5,-30.96 405.5,-30.96"/>
</g>
<!-- Node15&#45;&gt;Node3 -->
<g id="edge20" class="edge">
<title>Node15&#45;&gt;Node3</title>
<path fill="none" stroke="#63b8ff" d="M974.6,-54.51C962.84,-46.62 945.49,-34.98 931.59,-25.65"/>
<polygon fill="#63b8ff" stroke="#63b8ff" points="933.71,-22.87 923.46,-20.2 929.81,-28.68 933.71,-22.87"/>
</g>
<!-- Node16 -->
<g id="node16" class="node">
<title>Node16</title>
<g id="a_node16"><a xlink:href="icp_core_8h.html" target="_top" xlink:title=" ">
<polygon fill="white" stroke="#666666" points="1050,-19 950,-19 950,0 1050,0 1050,-19"/>
<text text-anchor="middle" x="1000" y="-7" font-family="Helvetica,sans-Serif" font-size="10.00">ARX/AR/icpCore.h</text>
</a>
</g>
</g>
<!-- Node15&#45;&gt;Node16 -->
<g id="edge21" class="edge">
<title>Node15&#45;&gt;Node16</title>
<path fill="none" stroke="#63b8ff" d="M989.98,-54.75C991.47,-48.19 993.56,-38.95 995.45,-30.6"/>
<polygon fill="#63b8ff" stroke="#63b8ff" points="998.85,-31.44 997.64,-20.92 992.02,-29.9 998.85,-31.44"/>
</g>
<!-- Node17&#45;&gt;Node4 -->
<g id="edge23" class="edge">
<title>Node17&#45;&gt;Node4</title>
<path fill="none" stroke="#63b8ff" d="M517.96,-74.17C519.66,-82.04 520.15,-93.95 519.43,-104.16"/>
<polygon fill="#63b8ff" stroke="#63b8ff" points="515.99,-103.5 518.15,-113.87 522.93,-104.41 515.99,-103.5"/>
</g>
<!-- Node18&#45;&gt;Node4 -->
<g id="edge26" class="edge">
<title>Node18&#45;&gt;Node4</title>
<path fill="none" stroke="#63b8ff" d="M317.36,-74.47C360.51,-84.6 427.6,-101.12 470.99,-112.26"/>
<polygon fill="#63b8ff" stroke="#63b8ff" points="469.99,-115.62 480.55,-114.74 471.74,-108.84 469.99,-115.62"/>
</g>
<!-- Node18&#45;&gt;Node7 -->
<g id="edge25" class="edge">
<title>Node18&#45;&gt;Node7</title>
<path fill="none" stroke="#63b8ff" d="M236.98,-54.51C198.12,-45.55 138.31,-31.77 95.99,-22.02"/>
<polygon fill="#63b8ff" stroke="#63b8ff" points="96.83,-18.62 86.3,-19.79 95.26,-25.44 96.83,-18.62"/>
</g>
<!-- Node19&#45;&gt;Node7 -->
<g id="edge29" class="edge">
<title>Node19&#45;&gt;Node7</title>
<path fill="none" stroke="#63b8ff" d="M174.06,-114.97C126.51,-106.77 66.82,-93.03 51,-74 41.15,-62.15 40.54,-44.39 42.03,-30.66"/>
<polygon fill="#63b8ff" stroke="#63b8ff" points="45.46,-31.39 43.55,-20.97 38.55,-30.3 45.46,-31.39"/>
</g>
</g>
</svg>
        <g id="navigator" transform="translate(0 0)" fill="#404254">
                <rect fill="#f2f5e9" fill-opacity="0.5" stroke="#606060" stroke-width=".5" x="0" y="0" width="60" height="60"/>
                <use id="zoomplus" xlink:href="#zoomPlus" x="17" y="9" onmousedown="handleZoom(evt,'in')"/>
                <use id="zoomminus" xlink:href="#zoomMin" x="42" y="9" onmousedown="handleZoom(evt,'out')"/>
                <use id="reset" xlink:href="#resetDef" x="30" y="36" onmousedown="handleReset()"/>
                <g id="arrowUp" xlink:href="#dirArrow" transform="translate(30 24)" onmousedown="handlePan(0,-1)">
                  <use xlink:href="#rim" fill="#404040">
                        <set attributeName="fill" to="#808080" begin="arrowUp.mouseover" end="arrowUp.mouseout"/>
                  </use>
                  <path fill="none" stroke="white" stroke-width="1.5" d="M0,-3.0v7 M-2.5,-0.5L0,-3.0L2.5,-0.5"/>
                </g>
                <g id="arrowRight" xlink:href="#dirArrow" transform="rotate(90) translate(36 -43)" onmousedown="handlePan(1,0)">
                  <use xlink:href="#rim" fill="#404040">
                        <set attributeName="fill" to="#808080" begin="arrowRight.mouseover" end="arrowRight.mouseout"/>
                  </use>
                  <path fill="none" stroke="white" stroke-width="1.5" d="M0,-3.0v7 M-2.5,-0.5L0,-3.0L2.5,-0.5"/>
                </g>
                <g id="arrowDown" xlink:href="#dirArrow" transform="rotate(180) translate(-30 -48)" onmousedown="handlePan(0,1)">
                  <use xlink:href="#rim" fill="#404040">
                        <set attributeName="fill" to="#808080" begin="arrowDown.mouseover" end="arrowDown.mouseout"/>
                  </use>
                  <path fill="none" stroke="white" stroke-width="1.5" d="M0,-3.0v7 M-2.5,-0.5L0,-3.0L2.5,-0.5"/>
                </g>
                <g id="arrowLeft" xlink:href="#dirArrow" transform="rotate(270) translate(-36 17)" onmousedown="handlePan(-1,0)">
                  <use xlink:href="#rim" fill="#404040">
                        <set attributeName="fill" to="#808080" begin="arrowLeft.mouseover" end="arrowLeft.mouseout"/>
                  </use>
                  <path fill="none" stroke="white" stroke-width="1.5" d="M0,-3.0v7 M-2.5,-0.5L0,-3.0L2.5,-0.5"/>
                </g>
        </g>
        <svg viewBox="0 0 15 15" width="100%" height="30px" preserveAspectRatio="xMaxYMin meet">
         <g id="arrow_out" transform="scale(0.3 0.3)">
          <a xlink:href="ar_labeling_8c__incl_org.svg" target="_base">
           <rect id="button" ry="5" rx="5" y="6" x="6" height="38" width="38"
                fill="#f2f5e9" fill-opacity="0.5" stroke="#606060" stroke-width="1.0"/>
           <path id="arrow"
             d="M 11.500037,31.436501 C 11.940474,20.09759 22.043105,11.32322 32.158766,21.979434 L 37.068811,17.246167 C 37.068811,17.246167 37.088388,32 37.088388,32 L 22.160133,31.978069 C 22.160133,31.978069 26.997745,27.140456 26.997745,27.140456 C 18.528582,18.264221 13.291696,25.230495 11.500037,31.436501 z"
             style="fill:#404040;"/>
          </a>
         </g>
        </svg>
</svg>
