<?xml version="1.0" encoding="UTF-8" standalone="no"?>
<!DOCTYPE svg PUBLIC "-//W3C//DTD SVG 1.1//EN"
 "http://www.w3.org/Graphics/SVG/1.1/DTD/svg11.dtd">
<!-- Generated by graphviz version 2.40.1 (20161225.0304)
 -->
<!-- Title: /Users/phil/r/artoolkitx/Source/ARX/AR/arLabelingSub/arLabelingPrivate.h Pages: 1 -->
<!--zoomable 197 -->
<svg id="main" version="1.1" xmlns="http://www.w3.org/2000/svg" xmlns:xlink="http://www.w3.org/1999/xlink" xml:space="preserve" onload="init(evt)">
<style type="text/css"><![CDATA[
.edge:hover path { stroke: red; }
.edge:hover polygon { stroke: red; fill: red; }
]]></style>
<script type="text/javascript"><![CDATA[
var edges = document.getElementsByTagName('g');
if (edges && edges.length) {
  for (var i=0;i<edges.length;i++) {
    if (edges[i].id.substr(0,4)=='edge') {
      edges[i].setAttribute('class','edge');
    }
  }
}
]]></script>
        <defs>
                <circle id="rim" cx="0" cy="0" r="7"/>
                <circle id="rim2" cx="0" cy="0" r="3.5"/>
                <g id="zoomPlus">
                        <use xlink:href="#rim" fill="#404040">
                                <set attributeName="fill" to="#808080" begin="zoomplus.mouseover" end="zoomplus.mouseout"/>
                        </use>
                        <path d="M-4,0h8M0,-4v8" fill="none" stroke="white" stroke-width="1.5" pointer-events="none"/>
                </g>
                <g id="zoomMin">
                        <use xlink:href="#rim" fill="#404040">
                                <set attributeName="fill" to="#808080" begin="zoomminus.mouseover" end="zoomminus.mouseout"/>
                        </use>
                        <path d="M-4,0h8" fill="none" stroke="white" stroke-width="1.5" pointer-events="none"/>
                </g>
                <g id="dirArrow">
                        <path fill="none" stroke="white" stroke-width="1.5" d="M0,-3.0v7 M-2.5,-0.5L0,-3.0L2.5,-0.5"/>
                </g>
               <g id="resetDef">
                       <use xlink:href="#rim2" fill="#404040">
                               <set attributeName="fill" to="#808080" begin="reset.mouseover" end="reset.mouseout"/>
                       </use>
               </g>
        </defs>

<script type="text/javascript">
var viewWidth = 2102;
var viewHeight = 197;
var sectionId = 'dynsection-1';
</script>
<script xlink:href="svgpan.js"/>
<svg id="graph" class="graph">
<g id="viewport">
<title>/Users/phil/r/artoolkitx/Source/ARX/AR/arLabelingSub/arLabelingPrivate.h</title>
<polygon fill="#ffffff" stroke="transparent" points="-4,4 -4,-193 2097.748,-193 2097.748,4 -4,4"/>
<!-- Node2 -->
<g id="node1" class="node">
<title>Node2</title>
<polygon fill="#bfbfbf" stroke="#000000" points="882,-150.5 882,-188.5 1039.748,-188.5 1039.748,-150.5 882,-150.5"/>
<text text-anchor="start" x="890" y="-176.5" font-family="Helvetica,sans-Serif" font-size="10.00" fill="#000000">/Users/phil/r/artoolkitx</text>
<text text-anchor="start" x="890" y="-166.5" font-family="Helvetica,sans-Serif" font-size="10.00" fill="#000000">/Source/ARX/AR/arLabelingSub</text>
<text text-anchor="middle" x="960.874" y="-156.5" font-family="Helvetica,sans-Serif" font-size="10.00" fill="#000000">/arLabelingPrivate.h</text>
</g>
<!-- Node3 -->
<g id="node2" class="node">
<title>Node3</title>
<g id="a_node2"><a xlink:href="ar_labeling_8c.html" target="_top" xlink:title="/Users/phil/r/artoolkitx\l/Source/ARX/AR/arLabeling.c">
<polygon fill="#ffffff" stroke="#000000" points="802.0073,-80.5 802.0073,-108.5 949.7407,-108.5 949.7407,-80.5 802.0073,-80.5"/>
<text text-anchor="start" x="810.0073" y="-96.5" font-family="Helvetica,sans-Serif" font-size="10.00" fill="#000000">/Users/phil/r/artoolkitx</text>
<text text-anchor="middle" x="875.874" y="-86.5" font-family="Helvetica,sans-Serif" font-size="10.00" fill="#000000">/Source/ARX/AR/arLabeling.c</text>
</a>
</g>
</g>
<!-- Node2&#45;&gt;Node3 -->
<g id="edge1" class="edge">
<title>Node2&#45;&gt;Node3</title>
<path fill="none" stroke="#191970" d="M931.4131,-143.5051C918.1069,-131.7643 902.9126,-118.3576 891.784,-108.5382"/>
<polygon fill="#191970" stroke="#191970" points="929.1703,-146.1938 938.9844,-150.1856 933.8017,-140.9449 929.1703,-146.1938"/>
</g>
<!-- Node4 -->
<g id="node3" class="node">
<title>Node4</title>
<g id="a_node3"><a xlink:href="ar_labeling_sub_8h.html" target="_top" xlink:title="/Users/phil/r/artoolkitx\l/Source/ARX/AR/arLabelingSub\l/arLabelingSub.h">
<polygon fill="#ffffff" stroke="#000000" points="968,-75.5 968,-113.5 1125.748,-113.5 1125.748,-75.5 968,-75.5"/>
<text text-anchor="start" x="976" y="-101.5" font-family="Helvetica,sans-Serif" font-size="10.00" fill="#000000">/Users/phil/r/artoolkitx</text>
<text text-anchor="start" x="976" y="-91.5" font-family="Helvetica,sans-Serif" font-size="10.00" fill="#000000">/Source/ARX/AR/arLabelingSub</text>
<text text-anchor="middle" x="1046.874" y="-81.5" font-family="Helvetica,sans-Serif" font-size="10.00" fill="#000000">/arLabelingSub.h</text>
</a>
</g>
</g>
<!-- Node2&#45;&gt;Node4 -->
<g id="edge2" class="edge">
<title>Node2&#45;&gt;Node4</title>
<path fill="none" stroke="#191970" d="M990.8704,-143.3404C1002.0302,-133.608 1014.4799,-122.7507 1024.8019,-113.7489"/>
<polygon fill="#191970" stroke="#191970" points="988.2574,-140.9752 983.0212,-150.1856 992.8582,-146.2508 988.2574,-140.9752"/>
</g>
<!-- Node5 -->
<g id="node4" class="node">
<title>Node5</title>
<g id="a_node4"><a xlink:href="ar_labeling_sub_d_b_i_c_8c.html" target="_top" xlink:title="/Users/phil/r/artoolkitx\l/Source/ARX/AR/arLabelingSub\l/arLabelingSubDBIC.c">
<polygon fill="#ffffff" stroke="#000000" points="0,-.5 0,-38.5 157.748,-38.5 157.748,-.5 0,-.5"/>
<text text-anchor="start" x="8" y="-26.5" font-family="Helvetica,sans-Serif" font-size="10.00" fill="#000000">/Users/phil/r/artoolkitx</text>
<text text-anchor="start" x="8" y="-16.5" font-family="Helvetica,sans-Serif" font-size="10.00" fill="#000000">/Source/ARX/AR/arLabelingSub</text>
<text text-anchor="middle" x="78.874" y="-6.5" font-family="Helvetica,sans-Serif" font-size="10.00" fill="#000000">/arLabelingSubDBIC.c</text>
</a>
</g>
</g>
<!-- Node4&#45;&gt;Node5 -->
<g id="edge3" class="edge">
<title>Node4&#45;&gt;Node5</title>
<path fill="none" stroke="#191970" d="M957.6725,-74.9791C607.7627,-29.78 512.858,-84.8473 166.874,-39 163.9266,-38.6094 160.9319,-38.1694 157.9133,-37.6895"/>
<polygon fill="#191970" stroke="#191970" points="957.4648,-78.4817 967.8348,-76.3105 958.3742,-71.541 957.4648,-78.4817"/>
</g>
<!-- Node6 -->
<g id="node5" class="node">
<title>Node6</title>
<g id="a_node5"><a xlink:href="ar_labeling_sub_d_b_r_c_8c.html" target="_top" xlink:title="/Users/phil/r/artoolkitx\l/Source/ARX/AR/arLabelingSub\l/arLabelingSubDBRC.c">
<polygon fill="#ffffff" stroke="#000000" points="176,-.5 176,-38.5 333.748,-38.5 333.748,-.5 176,-.5"/>
<text text-anchor="start" x="184" y="-26.5" font-family="Helvetica,sans-Serif" font-size="10.00" fill="#000000">/Users/phil/r/artoolkitx</text>
<text text-anchor="start" x="184" y="-16.5" font-family="Helvetica,sans-Serif" font-size="10.00" fill="#000000">/Source/ARX/AR/arLabelingSub</text>
<text text-anchor="middle" x="254.874" y="-6.5" font-family="Helvetica,sans-Serif" font-size="10.00" fill="#000000">/arLabelingSubDBRC.c</text>
</a>
</g>
</g>
<!-- Node4&#45;&gt;Node6 -->
<g id="edge4" class="edge">
<title>Node4&#45;&gt;Node6</title>
<path fill="none" stroke="#191970" d="M957.645,-74.961C685.4391,-38.1687 611.1876,-76.3246 342.874,-39 339.9292,-38.5903 336.9367,-38.1341 333.92,-37.6404"/>
<polygon fill="#191970" stroke="#191970" points="957.4448,-78.4662 967.8281,-76.3596 958.3974,-71.5313 957.4448,-78.4662"/>
</g>
<!-- Node7 -->
<g id="node6" class="node">
<title>Node7</title>
<g id="a_node6"><a xlink:href="ar_labeling_sub_d_b_z_8c.html" target="_top" xlink:title="/Users/phil/r/artoolkitx\l/Source/ARX/AR/arLabelingSub\l/arLabelingSubDBZ.c">
<polygon fill="#ffffff" stroke="#000000" points="352,-.5 352,-38.5 509.748,-38.5 509.748,-.5 352,-.5"/>
<text text-anchor="start" x="360" y="-26.5" font-family="Helvetica,sans-Serif" font-size="10.00" fill="#000000">/Users/phil/r/artoolkitx</text>
<text text-anchor="start" x="360" y="-16.5" font-family="Helvetica,sans-Serif" font-size="10.00" fill="#000000">/Source/ARX/AR/arLabelingSub</text>
<text text-anchor="middle" x="430.874" y="-6.5" font-family="Helvetica,sans-Serif" font-size="10.00" fill="#000000">/arLabelingSubDBZ.c</text>
</a>
</g>
</g>
<!-- Node4&#45;&gt;Node7 -->
<g id="edge5" class="edge">
<title>Node4&#45;&gt;Node7</title>
<path fill="none" stroke="#191970" d="M957.8309,-74.9602C763.0989,-46.4432 709.6633,-67.8061 518.874,-39 515.9342,-38.5561 512.9459,-38.0707 509.9327,-37.5524"/>
<polygon fill="#191970" stroke="#191970" points="957.4087,-78.4359 967.8153,-76.4476 958.4402,-71.5123 957.4087,-78.4359"/>
</g>
<!-- Node8 -->
<g id="node7" class="node">
<title>Node8</title>
<g id="a_node7"><a xlink:href="ar_labeling_sub_d_w_i_c_8c.html" target="_top" xlink:title="/Users/phil/r/artoolkitx\l/Source/ARX/AR/arLabelingSub\l/arLabelingSubDWIC.c">
<polygon fill="#ffffff" stroke="#000000" points="528,-.5 528,-38.5 685.748,-38.5 685.748,-.5 528,-.5"/>
<text text-anchor="start" x="536" y="-26.5" font-family="Helvetica,sans-Serif" font-size="10.00" fill="#000000">/Users/phil/r/artoolkitx</text>
<text text-anchor="start" x="536" y="-16.5" font-family="Helvetica,sans-Serif" font-size="10.00" fill="#000000">/Source/ARX/AR/arLabelingSub</text>
<text text-anchor="middle" x="606.874" y="-6.5" font-family="Helvetica,sans-Serif" font-size="10.00" fill="#000000">/arLabelingSubDWIC.c</text>
</a>
</g>
</g>
<!-- Node4&#45;&gt;Node8 -->
<g id="edge6" class="edge">
<title>Node4&#45;&gt;Node8</title>
<path fill="none" stroke="#191970" d="M957.697,-74.8689C840.5493,-54.4621 808.2598,-59.2578 694.874,-39 691.9472,-38.4771 688.97,-37.9244 685.9662,-37.3492"/>
<polygon fill="#191970" stroke="#191970" points="957.3253,-78.3574 967.7818,-76.6508 958.5434,-71.4642 957.3253,-78.3574"/>
</g>
<!-- Node9 -->
<g id="node8" class="node">
<title>Node9</title>
<g id="a_node8"><a xlink:href="ar_labeling_sub_d_w_r_c_8c.html" target="_top" xlink:title="/Users/phil/r/artoolkitx\l/Source/ARX/AR/arLabelingSub\l/arLabelingSubDWRC.c">
<polygon fill="#ffffff" stroke="#000000" points="704,-.5 704,-38.5 861.748,-38.5 861.748,-.5 704,-.5"/>
<text text-anchor="start" x="712" y="-26.5" font-family="Helvetica,sans-Serif" font-size="10.00" fill="#000000">/Users/phil/r/artoolkitx</text>
<text text-anchor="start" x="712" y="-16.5" font-family="Helvetica,sans-Serif" font-size="10.00" fill="#000000">/Source/ARX/AR/arLabelingSub</text>
<text text-anchor="middle" x="782.874" y="-6.5" font-family="Helvetica,sans-Serif" font-size="10.00" fill="#000000">/arLabelingSubDWRC.c</text>
</a>
</g>
</g>
<!-- Node4&#45;&gt;Node9 -->
<g id="edge7" class="edge">
<title>Node4&#45;&gt;Node9</title>
<path fill="none" stroke="#191970" d="M969.9012,-72.6327C931.8426,-61.8206 886.3503,-48.8967 849.7623,-38.5023"/>
<polygon fill="#191970" stroke="#191970" points="969.3385,-76.1113 979.9144,-75.4774 971.2515,-69.3778 969.3385,-76.1113"/>
</g>
<!-- Node10 -->
<g id="node9" class="node">
<title>Node10</title>
<g id="a_node9"><a xlink:href="ar_labeling_sub_d_w_z_8c.html" target="_top" xlink:title="/Users/phil/r/artoolkitx\l/Source/ARX/AR/arLabelingSub\l/arLabelingSubDWZ.c">
<polygon fill="#ffffff" stroke="#000000" points="880,-.5 880,-38.5 1037.748,-38.5 1037.748,-.5 880,-.5"/>
<text text-anchor="start" x="888" y="-26.5" font-family="Helvetica,sans-Serif" font-size="10.00" fill="#000000">/Users/phil/r/artoolkitx</text>
<text text-anchor="start" x="888" y="-16.5" font-family="Helvetica,sans-Serif" font-size="10.00" fill="#000000">/Source/ARX/AR/arLabelingSub</text>
<text text-anchor="middle" x="958.874" y="-6.5" font-family="Helvetica,sans-Serif" font-size="10.00" fill="#000000">/arLabelingSubDWZ.c</text>
</a>
</g>
</g>
<!-- Node4&#45;&gt;Node10 -->
<g id="edge8" class="edge">
<title>Node4&#45;&gt;Node10</title>
<path fill="none" stroke="#191970" d="M1016.5123,-68.6235C1005.0083,-58.819 992.124,-47.8381 981.4594,-38.7489"/>
<polygon fill="#191970" stroke="#191970" points="1014.3307,-71.3629 1024.2118,-75.1856 1018.8713,-66.0353 1014.3307,-71.3629"/>
</g>
<!-- Node11 -->
<g id="node10" class="node">
<title>Node11</title>
<g id="a_node10"><a xlink:href="ar_labeling_sub_e_b_i_c_8c.html" target="_top" xlink:title="/Users/phil/r/artoolkitx\l/Source/ARX/AR/arLabelingSub\l/arLabelingSubEBIC.c">
<polygon fill="#ffffff" stroke="#000000" points="1056,-.5 1056,-38.5 1213.748,-38.5 1213.748,-.5 1056,-.5"/>
<text text-anchor="start" x="1064" y="-26.5" font-family="Helvetica,sans-Serif" font-size="10.00" fill="#000000">/Users/phil/r/artoolkitx</text>
<text text-anchor="start" x="1064" y="-16.5" font-family="Helvetica,sans-Serif" font-size="10.00" fill="#000000">/Source/ARX/AR/arLabelingSub</text>
<text text-anchor="middle" x="1134.874" y="-6.5" font-family="Helvetica,sans-Serif" font-size="10.00" fill="#000000">/arLabelingSubEBIC.c</text>
</a>
</g>
</g>
<!-- Node4&#45;&gt;Node11 -->
<g id="edge9" class="edge">
<title>Node4&#45;&gt;Node11</title>
<path fill="none" stroke="#191970" d="M1077.2358,-68.6235C1088.7398,-58.819 1101.624,-47.8381 1112.2886,-38.7489"/>
<polygon fill="#191970" stroke="#191970" points="1074.8768,-66.0353 1069.5362,-75.1856 1079.4174,-71.3629 1074.8768,-66.0353"/>
</g>
<!-- Node12 -->
<g id="node11" class="node">
<title>Node12</title>
<g id="a_node11"><a xlink:href="ar_labeling_sub_e_b_r_c_8c.html" target="_top" xlink:title="/Users/phil/r/artoolkitx\l/Source/ARX/AR/arLabelingSub\l/arLabelingSubEBRC.c">
<polygon fill="#ffffff" stroke="#000000" points="1232,-.5 1232,-38.5 1389.748,-38.5 1389.748,-.5 1232,-.5"/>
<text text-anchor="start" x="1240" y="-26.5" font-family="Helvetica,sans-Serif" font-size="10.00" fill="#000000">/Users/phil/r/artoolkitx</text>
<text text-anchor="start" x="1240" y="-16.5" font-family="Helvetica,sans-Serif" font-size="10.00" fill="#000000">/Source/ARX/AR/arLabelingSub</text>
<text text-anchor="middle" x="1310.874" y="-6.5" font-family="Helvetica,sans-Serif" font-size="10.00" fill="#000000">/arLabelingSubEBRC.c</text>
</a>
</g>
</g>
<!-- Node4&#45;&gt;Node12 -->
<g id="edge10" class="edge">
<title>Node4&#45;&gt;Node12</title>
<path fill="none" stroke="#191970" d="M1123.8469,-72.6327C1161.9055,-61.8206 1207.3978,-48.8967 1243.9858,-38.5023"/>
<polygon fill="#191970" stroke="#191970" points="1122.4965,-69.3778 1113.8337,-75.4774 1124.4095,-76.1113 1122.4965,-69.3778"/>
</g>
<!-- Node13 -->
<g id="node12" class="node">
<title>Node13</title>
<g id="a_node12"><a xlink:href="ar_labeling_sub_e_b_z_8c.html" target="_top" xlink:title="/Users/phil/r/artoolkitx\l/Source/ARX/AR/arLabelingSub\l/arLabelingSubEBZ.c">
<polygon fill="#ffffff" stroke="#000000" points="1408,-.5 1408,-38.5 1565.748,-38.5 1565.748,-.5 1408,-.5"/>
<text text-anchor="start" x="1416" y="-26.5" font-family="Helvetica,sans-Serif" font-size="10.00" fill="#000000">/Users/phil/r/artoolkitx</text>
<text text-anchor="start" x="1416" y="-16.5" font-family="Helvetica,sans-Serif" font-size="10.00" fill="#000000">/Source/ARX/AR/arLabelingSub</text>
<text text-anchor="middle" x="1486.874" y="-6.5" font-family="Helvetica,sans-Serif" font-size="10.00" fill="#000000">/arLabelingSubEBZ.c</text>
</a>
</g>
</g>
<!-- Node4&#45;&gt;Node13 -->
<g id="edge11" class="edge">
<title>Node4&#45;&gt;Node13</title>
<path fill="none" stroke="#191970" d="M1136.0439,-81.9928C1207.3588,-71.6165 1309.798,-55.8749 1398.874,-39 1401.7953,-38.4466 1404.7676,-37.8679 1407.7674,-37.2708"/>
<polygon fill="#191970" stroke="#191970" points="1135.1477,-78.586 1125.7532,-83.4843 1136.1518,-85.5136 1135.1477,-78.586"/>
</g>
<!-- Node14 -->
<g id="node13" class="node">
<title>Node14</title>
<g id="a_node13"><a xlink:href="ar_labeling_sub_e_w_i_c_8c.html" target="_top" xlink:title="/Users/phil/r/artoolkitx\l/Source/ARX/AR/arLabelingSub\l/arLabelingSubEWIC.c">
<polygon fill="#ffffff" stroke="#000000" points="1584,-.5 1584,-38.5 1741.748,-38.5 1741.748,-.5 1584,-.5"/>
<text text-anchor="start" x="1592" y="-26.5" font-family="Helvetica,sans-Serif" font-size="10.00" fill="#000000">/Users/phil/r/artoolkitx</text>
<text text-anchor="start" x="1592" y="-16.5" font-family="Helvetica,sans-Serif" font-size="10.00" fill="#000000">/Source/ARX/AR/arLabelingSub</text>
<text text-anchor="middle" x="1662.874" y="-6.5" font-family="Helvetica,sans-Serif" font-size="10.00" fill="#000000">/arLabelingSubEWIC.c</text>
</a>
</g>
</g>
<!-- Node4&#45;&gt;Node14 -->
<g id="edge12" class="edge">
<title>Node4&#45;&gt;Node14</title>
<path fill="none" stroke="#191970" d="M1136.2353,-88.2125C1241.569,-80.0848 1421.6809,-63.942 1574.874,-39 1577.8086,-38.5222 1580.7923,-38.0079 1583.8016,-37.4652"/>
<polygon fill="#191970" stroke="#191970" points="1135.6691,-84.7455 1125.965,-88.9978 1136.2028,-91.7251 1135.6691,-84.7455"/>
</g>
<!-- Node15 -->
<g id="node14" class="node">
<title>Node15</title>
<g id="a_node14"><a xlink:href="ar_labeling_sub_e_w_r_c_8c.html" target="_top" xlink:title="/Users/phil/r/artoolkitx\l/Source/ARX/AR/arLabelingSub\l/arLabelingSubEWRC.c">
<polygon fill="#ffffff" stroke="#000000" points="1760,-.5 1760,-38.5 1917.748,-38.5 1917.748,-.5 1760,-.5"/>
<text text-anchor="start" x="1768" y="-26.5" font-family="Helvetica,sans-Serif" font-size="10.00" fill="#000000">/Users/phil/r/artoolkitx</text>
<text text-anchor="start" x="1768" y="-16.5" font-family="Helvetica,sans-Serif" font-size="10.00" fill="#000000">/Source/ARX/AR/arLabelingSub</text>
<text text-anchor="middle" x="1838.874" y="-6.5" font-family="Helvetica,sans-Serif" font-size="10.00" fill="#000000">/arLabelingSubEWRC.c</text>
</a>
</g>
</g>
<!-- Node4&#45;&gt;Node15 -->
<g id="edge13" class="edge">
<title>Node4&#45;&gt;Node15</title>
<path fill="none" stroke="#191970" d="M1136.1565,-91.4502C1270.256,-85.9704 1531.3626,-71.81 1750.874,-39 1753.8145,-38.5605 1756.8033,-38.0788 1759.817,-37.5636"/>
<polygon fill="#191970" stroke="#191970" points="1135.7886,-87.962 1125.9373,-91.8609 1136.0699,-94.9564 1135.7886,-87.962"/>
</g>
<!-- Node16 -->
<g id="node15" class="node">
<title>Node16</title>
<g id="a_node15"><a xlink:href="ar_labeling_sub_e_w_z_8c.html" target="_top" xlink:title="/Users/phil/r/artoolkitx\l/Source/ARX/AR/arLabelingSub\l/arLabelingSubEWZ.c">
<polygon fill="#ffffff" stroke="#000000" points="1936,-.5 1936,-38.5 2093.748,-38.5 2093.748,-.5 1936,-.5"/>
<text text-anchor="start" x="1944" y="-26.5" font-family="Helvetica,sans-Serif" font-size="10.00" fill="#000000">/Users/phil/r/artoolkitx</text>
<text text-anchor="start" x="1944" y="-16.5" font-family="Helvetica,sans-Serif" font-size="10.00" fill="#000000">/Source/ARX/AR/arLabelingSub</text>
<text text-anchor="middle" x="2014.874" y="-6.5" font-family="Helvetica,sans-Serif" font-size="10.00" fill="#000000">/arLabelingSubEWZ.c</text>
</a>
</g>
</g>
<!-- Node4&#45;&gt;Node16 -->
<g id="edge14" class="edge">
<title>Node4&#45;&gt;Node16</title>
<path fill="none" stroke="#191970" d="M1136.1092,-93.4341C1295.5828,-90.5161 1639.6974,-79.6235 1926.874,-39 1929.8179,-38.5836 1932.8095,-38.1215 1935.8256,-37.623"/>
<polygon fill="#191970" stroke="#191970" points="1135.8111,-89.9387 1125.8745,-93.615 1135.9349,-96.9376 1135.8111,-89.9387"/>
</g>
</g>
</svg>
        <g id="navigator" transform="translate(0 0)" fill="#404254">
                <rect fill="#f2f5e9" fill-opacity="0.5" stroke="#606060" stroke-width=".5" x="0" y="0" width="60" height="60"/>
                <use id="zoomplus" xlink:href="#zoomPlus" x="17" y="9" onmousedown="handleZoom(evt,'in')"/>
                <use id="zoomminus" xlink:href="#zoomMin" x="42" y="9" onmousedown="handleZoom(evt,'out')"/>
                <use id="reset" xlink:href="#resetDef" x="30" y="36" onmousedown="handleReset()"/>
                <g id="arrowUp" xlink:href="#dirArrow" transform="translate(30 24)" onmousedown="handlePan(0,-1)">
                  <use xlink:href="#rim" fill="#404040">
                        <set attributeName="fill" to="#808080" begin="arrowUp.mouseover" end="arrowUp.mouseout"/>
                  </use>
                  <path fill="none" stroke="white" stroke-width="1.5" d="M0,-3.0v7 M-2.5,-0.5L0,-3.0L2.5,-0.5"/>
                </g>
                <g id="arrowRight" xlink:href="#dirArrow" transform="rotate(90) translate(36 -43)" onmousedown="handlePan(1,0)">
                  <use xlink:href="#rim" fill="#404040">
                        <set attributeName="fill" to="#808080" begin="arrowRight.mouseover" end="arrowRight.mouseout"/>
                  </use>
                  <path fill="none" stroke="white" stroke-width="1.5" d="M0,-3.0v7 M-2.5,-0.5L0,-3.0L2.5,-0.5"/>
                </g>
                <g id="arrowDown" xlink:href="#dirArrow" transform="rotate(180) translate(-30 -48)" onmousedown="handlePan(0,1)">
                  <use xlink:href="#rim" fill="#404040">
                        <set attributeName="fill" to="#808080" begin="arrowDown.mouseover" end="arrowDown.mouseout"/>
                  </use>
                  <path fill="none" stroke="white" stroke-width="1.5" d="M0,-3.0v7 M-2.5,-0.5L0,-3.0L2.5,-0.5"/>
                </g>
                <g id="arrowLeft" xlink:href="#dirArrow" transform="rotate(270) translate(-36 17)" onmousedown="handlePan(-1,0)">
                  <use xlink:href="#rim" fill="#404040">
                        <set attributeName="fill" to="#808080" begin="arrowLeft.mouseover" end="arrowLeft.mouseout"/>
                  </use>
                  <path fill="none" stroke="white" stroke-width="1.5" d="M0,-3.0v7 M-2.5,-0.5L0,-3.0L2.5,-0.5"/>
                </g>
        </g>
        <svg viewBox="0 0 15 15" width="100%" height="30px" preserveAspectRatio="xMaxYMin meet">
         <g id="arrow_out" transform="scale(0.3 0.3)">
          <a xlink:href="ar_labeling_private_8h__dep__incl_org.svg" target="_base">
           <rect id="button" ry="5" rx="5" y="6" x="6" height="38" width="38"
                fill="#f2f5e9" fill-opacity="0.5" stroke="#606060" stroke-width="1.0"/>
           <path id="arrow"
             d="M 11.500037,31.436501 C 11.940474,20.09759 22.043105,11.32322 32.158766,21.979434 L 37.068811,17.246167 C 37.068811,17.246167 37.088388,32 37.088388,32 L 22.160133,31.978069 C 22.160133,31.978069 26.997745,27.140456 26.997745,27.140456 C 18.528582,18.264221 13.291696,25.230495 11.500037,31.436501 z"
             style="fill:#404040;"/>
          </a>
         </g>
        </svg>
</svg>
