<?xml version="1.0" encoding="UTF-8" standalone="no"?>
<!DOCTYPE svg PUBLIC "-//W3C//DTD SVG 1.1//EN"
 "http://www.w3.org/Graphics/SVG/1.1/DTD/svg11.dtd">
<!-- Generated by graphviz version 7.0.5 (20221223.1930)
 -->
<!-- Title: Source/ARX/AR/arLabelingSub/arLabelingPrivate.h Pages: 1 -->
<svg width="1844pt" height="170pt"
 viewBox="0.00 0.00 1844.00 170.00" xmlns="http://www.w3.org/2000/svg" xmlns:xlink="http://www.w3.org/1999/xlink">
<g id="graph0" class="graph" transform="scale(1 1) rotate(0) translate(4 166)">
<title>Source/ARX/AR/arLabelingSub/arLabelingPrivate.h</title>
<!-- Node1 -->
<g id="node1" class="node">
<title>Node1</title>
<g id="a_node1"><a xlink:title=" ">
<polygon fill="#999999" stroke="#666666" points="908,-162 772,-162 772,-132 908,-132 908,-162"/>
<text text-anchor="start" x="780" y="-150" font-family="Helvetica,sans-Serif" font-size="10.00">Source/ARX/AR/arLabeling</text>
<text text-anchor="middle" x="840" y="-139" font-family="Helvetica,sans-Serif" font-size="10.00">Sub/arLabelingPrivate.h</text>
</a>
</g>
</g>
<!-- Node2 -->
<g id="node2" class="node">
<title>Node2</title>
<g id="a_node2"><a xlink:href="ar_labeling_8c.html" target="_top" xlink:title=" ">
<polygon fill="white" stroke="#666666" points="833,-90.5 689,-90.5 689,-71.5 833,-71.5 833,-90.5"/>
<text text-anchor="middle" x="761" y="-78.5" font-family="Helvetica,sans-Serif" font-size="10.00">Source/ARX/AR/arLabeling.c</text>
</a>
</g>
</g>
<!-- Node1&#45;&gt;Node2 -->
<g id="edge1" class="edge">
<title>Node1&#45;&gt;Node2</title>
<path fill="none" stroke="#63b8ff" d="M813.59,-124.6C799.38,-113.1 782.63,-99.52 771.92,-90.84"/>
<polygon fill="#63b8ff" stroke="#63b8ff" points="811.32,-127.27 821.29,-130.84 815.72,-121.83 811.32,-127.27"/>
</g>
<!-- Node3 -->
<g id="node3" class="node">
<title>Node3</title>
<g id="a_node3"><a xlink:href="ar_labeling_sub_8h.html" target="_top" xlink:title=" ">
<polygon fill="white" stroke="#666666" points="987,-96 851,-96 851,-66 987,-66 987,-96"/>
<text text-anchor="start" x="859" y="-84" font-family="Helvetica,sans-Serif" font-size="10.00">Source/ARX/AR/arLabeling</text>
<text text-anchor="middle" x="919" y="-73" font-family="Helvetica,sans-Serif" font-size="10.00">Sub/arLabelingSub.h</text>
</a>
</g>
</g>
<!-- Node1&#45;&gt;Node3 -->
<g id="edge2" class="edge">
<title>Node1&#45;&gt;Node3</title>
<path fill="none" stroke="#63b8ff" d="M866.29,-124.7C877.78,-115.4 890.94,-104.73 901.24,-96.39"/>
<polygon fill="#63b8ff" stroke="#63b8ff" points="864.28,-121.83 858.71,-130.84 868.68,-127.27 864.28,-121.83"/>
</g>
<!-- Node4 -->
<g id="node4" class="node">
<title>Node4</title>
<g id="a_node4"><a xlink:href="ar_labeling_sub_d_b_i_c_8c.html" target="_top" xlink:title=" ">
<polygon fill="white" stroke="#666666" points="136,-30 0,-30 0,0 136,0 136,-30"/>
<text text-anchor="start" x="8" y="-18" font-family="Helvetica,sans-Serif" font-size="10.00">Source/ARX/AR/arLabeling</text>
<text text-anchor="middle" x="68" y="-7" font-family="Helvetica,sans-Serif" font-size="10.00">Sub/arLabelingSubDBIC.c</text>
</a>
</g>
</g>
<!-- Node3&#45;&gt;Node4 -->
<g id="edge3" class="edge">
<title>Node3&#45;&gt;Node4</title>
<path fill="none" stroke="#63b8ff" d="M839.6,-65.83C531.96,-31.01 449.51,-65.4 145,-30 142.17,-29.67 139.28,-29.3 136.37,-28.9"/>
<polygon fill="#63b8ff" stroke="#63b8ff" points="838.8,-69.26 849.13,-66.93 839.6,-62.31 838.8,-69.26"/>
</g>
<!-- Node5 -->
<g id="node5" class="node">
<title>Node5</title>
<g id="a_node5"><a xlink:href="ar_labeling_sub_d_b_r_c_8c.html" target="_top" xlink:title=" ">
<polygon fill="white" stroke="#666666" points="290,-30 154,-30 154,0 290,0 290,-30"/>
<text text-anchor="start" x="162" y="-18" font-family="Helvetica,sans-Serif" font-size="10.00">Source/ARX/AR/arLabeling</text>
<text text-anchor="middle" x="222" y="-7" font-family="Helvetica,sans-Serif" font-size="10.00">Sub/arLabelingSubDBRC.c</text>
</a>
</g>
</g>
<!-- Node3&#45;&gt;Node5 -->
<g id="edge4" class="edge">
<title>Node3&#45;&gt;Node5</title>
<path fill="none" stroke="#63b8ff" d="M839.46,-65.79C600.02,-37.01 535.4,-59.23 299,-30 296.17,-29.65 293.28,-29.26 290.37,-28.85"/>
<polygon fill="#63b8ff" stroke="#63b8ff" points="838.78,-69.23 849.13,-66.97 839.62,-62.28 838.78,-69.23"/>
</g>
<!-- Node6 -->
<g id="node6" class="node">
<title>Node6</title>
<g id="a_node6"><a xlink:href="ar_labeling_sub_d_b_z_8c.html" target="_top" xlink:title=" ">
<polygon fill="white" stroke="#666666" points="444,-30 308,-30 308,0 444,0 444,-30"/>
<text text-anchor="start" x="316" y="-18" font-family="Helvetica,sans-Serif" font-size="10.00">Source/ARX/AR/arLabeling</text>
<text text-anchor="middle" x="376" y="-7" font-family="Helvetica,sans-Serif" font-size="10.00">Sub/arLabelingSubDBZ.c</text>
</a>
</g>
</g>
<!-- Node3&#45;&gt;Node6 -->
<g id="edge5" class="edge">
<title>Node3&#45;&gt;Node6</title>
<path fill="none" stroke="#63b8ff" d="M839.41,-65.73C668.03,-42.9 621.41,-53.06 453,-30 450.17,-29.61 447.29,-29.2 444.38,-28.75"/>
<polygon fill="#63b8ff" stroke="#63b8ff" points="838.74,-69.17 849.12,-67.04 839.68,-62.23 838.74,-69.17"/>
</g>
<!-- Node7 -->
<g id="node7" class="node">
<title>Node7</title>
<g id="a_node7"><a xlink:href="ar_labeling_sub_d_w_i_c_8c.html" target="_top" xlink:title=" ">
<polygon fill="white" stroke="#666666" points="598,-30 462,-30 462,0 598,0 598,-30"/>
<text text-anchor="start" x="470" y="-18" font-family="Helvetica,sans-Serif" font-size="10.00">Source/ARX/AR/arLabeling</text>
<text text-anchor="middle" x="530" y="-7" font-family="Helvetica,sans-Serif" font-size="10.00">Sub/arLabelingSubDWIC.c</text>
</a>
</g>
</g>
<!-- Node3&#45;&gt;Node7 -->
<g id="edge6" class="edge">
<title>Node3&#45;&gt;Node7</title>
<path fill="none" stroke="#63b8ff" d="M839.31,-65.58C735.88,-48.45 707.65,-46.86 607,-30 604.19,-29.53 601.32,-29.04 598.42,-28.54"/>
<polygon fill="#63b8ff" stroke="#63b8ff" points="838.65,-69.02 849.09,-67.21 839.8,-62.11 838.65,-69.02"/>
</g>
<!-- Node8 -->
<g id="node8" class="node">
<title>Node8</title>
<g id="a_node8"><a xlink:href="ar_labeling_sub_d_w_r_c_8c.html" target="_top" xlink:title=" ">
<polygon fill="white" stroke="#666666" points="755.5,-30 616.5,-30 616.5,0 755.5,0 755.5,-30"/>
<text text-anchor="start" x="624.5" y="-18" font-family="Helvetica,sans-Serif" font-size="10.00">Source/ARX/AR/arLabeling</text>
<text text-anchor="middle" x="686" y="-7" font-family="Helvetica,sans-Serif" font-size="10.00">Sub/arLabelingSubDWRC.c</text>
</a>
</g>
</g>
<!-- Node3&#45;&gt;Node8 -->
<g id="edge7" class="edge">
<title>Node3&#45;&gt;Node8</title>
<path fill="none" stroke="#63b8ff" d="M855.33,-62.51C818.62,-52.43 773.02,-39.9 738.39,-30.39"/>
<polygon fill="#63b8ff" stroke="#63b8ff" points="854.39,-65.88 864.96,-65.16 856.24,-59.13 854.39,-65.88"/>
</g>
<!-- Node9 -->
<g id="node9" class="node">
<title>Node9</title>
<g id="a_node9"><a xlink:href="ar_labeling_sub_d_w_z_8c.html" target="_top" xlink:title=" ">
<polygon fill="white" stroke="#666666" points="910,-30 774,-30 774,0 910,0 910,-30"/>
<text text-anchor="start" x="782" y="-18" font-family="Helvetica,sans-Serif" font-size="10.00">Source/ARX/AR/arLabeling</text>
<text text-anchor="middle" x="842" y="-7" font-family="Helvetica,sans-Serif" font-size="10.00">Sub/arLabelingSubDWZ.c</text>
</a>
</g>
</g>
<!-- Node3&#45;&gt;Node9 -->
<g id="edge8" class="edge">
<title>Node3&#45;&gt;Node9</title>
<path fill="none" stroke="#63b8ff" d="M893.37,-58.7C882.18,-49.4 869.35,-38.73 859.31,-30.39"/>
<polygon fill="#63b8ff" stroke="#63b8ff" points="890.82,-61.13 900.75,-64.83 895.29,-55.75 890.82,-61.13"/>
</g>
<!-- Node10 -->
<g id="node10" class="node">
<title>Node10</title>
<g id="a_node10"><a xlink:href="ar_labeling_sub_e_b_i_c_8c.html" target="_top" xlink:title=" ">
<polygon fill="white" stroke="#666666" points="1064,-30 928,-30 928,0 1064,0 1064,-30"/>
<text text-anchor="start" x="936" y="-18" font-family="Helvetica,sans-Serif" font-size="10.00">Source/ARX/AR/arLabeling</text>
<text text-anchor="middle" x="996" y="-7" font-family="Helvetica,sans-Serif" font-size="10.00">Sub/arLabelingSubEBIC.c</text>
</a>
</g>
</g>
<!-- Node3&#45;&gt;Node10 -->
<g id="edge9" class="edge">
<title>Node3&#45;&gt;Node10</title>
<path fill="none" stroke="#63b8ff" d="M944.63,-58.7C955.82,-49.4 968.65,-38.73 978.69,-30.39"/>
<polygon fill="#63b8ff" stroke="#63b8ff" points="942.71,-55.75 937.25,-64.83 947.18,-61.13 942.71,-55.75"/>
</g>
<!-- Node11 -->
<g id="node11" class="node">
<title>Node11</title>
<g id="a_node11"><a xlink:href="ar_labeling_sub_e_b_r_c_8c.html" target="_top" xlink:title=" ">
<polygon fill="white" stroke="#666666" points="1218,-30 1082,-30 1082,0 1218,0 1218,-30"/>
<text text-anchor="start" x="1090" y="-18" font-family="Helvetica,sans-Serif" font-size="10.00">Source/ARX/AR/arLabeling</text>
<text text-anchor="middle" x="1150" y="-7" font-family="Helvetica,sans-Serif" font-size="10.00">Sub/arLabelingSubEBRC.c</text>
</a>
</g>
</g>
<!-- Node3&#45;&gt;Node11 -->
<g id="edge10" class="edge">
<title>Node3&#45;&gt;Node11</title>
<path fill="none" stroke="#63b8ff" d="M982.12,-62.51C1018.52,-52.43 1063.73,-39.9 1098.06,-30.39"/>
<polygon fill="#63b8ff" stroke="#63b8ff" points="981.29,-59.11 972.59,-65.15 983.16,-65.86 981.29,-59.11"/>
</g>
<!-- Node12 -->
<g id="node12" class="node">
<title>Node12</title>
<g id="a_node12"><a xlink:href="ar_labeling_sub_e_b_z_8c.html" target="_top" xlink:title=" ">
<polygon fill="white" stroke="#666666" points="1372,-30 1236,-30 1236,0 1372,0 1372,-30"/>
<text text-anchor="start" x="1244" y="-18" font-family="Helvetica,sans-Serif" font-size="10.00">Source/ARX/AR/arLabeling</text>
<text text-anchor="middle" x="1304" y="-7" font-family="Helvetica,sans-Serif" font-size="10.00">Sub/arLabelingSubEBZ.c</text>
</a>
</g>
</g>
<!-- Node3&#45;&gt;Node12 -->
<g id="edge11" class="edge">
<title>Node3&#45;&gt;Node12</title>
<path fill="none" stroke="#63b8ff" d="M998.57,-67.51C1060.8,-57.63 1149.47,-43.34 1227,-30 1229.81,-29.52 1232.68,-29.02 1235.58,-28.51"/>
<polygon fill="#63b8ff" stroke="#63b8ff" points="998.09,-64.04 988.76,-69.06 999.18,-70.95 998.09,-64.04"/>
</g>
<!-- Node13 -->
<g id="node13" class="node">
<title>Node13</title>
<g id="a_node13"><a xlink:href="ar_labeling_sub_e_w_i_c_8c.html" target="_top" xlink:title=" ">
<polygon fill="white" stroke="#666666" points="1526,-30 1390,-30 1390,0 1526,0 1526,-30"/>
<text text-anchor="start" x="1398" y="-18" font-family="Helvetica,sans-Serif" font-size="10.00">Source/ARX/AR/arLabeling</text>
<text text-anchor="middle" x="1458" y="-7" font-family="Helvetica,sans-Serif" font-size="10.00">Sub/arLabelingSubEWIC.c</text>
</a>
</g>
</g>
<!-- Node3&#45;&gt;Node13 -->
<g id="edge12" class="edge">
<title>Node3&#45;&gt;Node13</title>
<path fill="none" stroke="#63b8ff" d="M998.5,-73.15C1090.72,-64.8 1247.25,-49.37 1381,-30 1383.82,-29.59 1386.7,-29.15 1389.61,-28.7"/>
<polygon fill="#63b8ff" stroke="#63b8ff" points="998.45,-69.64 988.8,-74.02 999.08,-76.61 998.45,-69.64"/>
</g>
<!-- Node14 -->
<g id="node14" class="node">
<title>Node14</title>
<g id="a_node14"><a xlink:href="ar_labeling_sub_e_w_r_c_8c.html" target="_top" xlink:title=" ">
<polygon fill="white" stroke="#666666" points="1682,-30 1544,-30 1544,0 1682,0 1682,-30"/>
<text text-anchor="start" x="1552" y="-18" font-family="Helvetica,sans-Serif" font-size="10.00">Source/ARX/AR/arLabeling</text>
<text text-anchor="middle" x="1613" y="-7" font-family="Helvetica,sans-Serif" font-size="10.00">Sub/arLabelingSubEWRC.c</text>
</a>
</g>
</g>
<!-- Node3&#45;&gt;Node14 -->
<g id="edge13" class="edge">
<title>Node3&#45;&gt;Node14</title>
<path fill="none" stroke="#63b8ff" d="M998.51,-76.01C1116.12,-69.54 1343.22,-54.94 1535,-30 1537.87,-29.63 1540.78,-29.22 1543.73,-28.79"/>
<polygon fill="#63b8ff" stroke="#63b8ff" points="998.44,-72.51 988.65,-76.54 998.82,-79.5 998.44,-72.51"/>
</g>
<!-- Node15 -->
<g id="node15" class="node">
<title>Node15</title>
<g id="a_node15"><a xlink:href="ar_labeling_sub_e_w_z_8c.html" target="_top" xlink:title=" ">
<polygon fill="white" stroke="#666666" points="1836,-30 1700,-30 1700,0 1836,0 1836,-30"/>
<text text-anchor="start" x="1708" y="-18" font-family="Helvetica,sans-Serif" font-size="10.00">Source/ARX/AR/arLabeling</text>
<text text-anchor="middle" x="1768" y="-7" font-family="Helvetica,sans-Serif" font-size="10.00">Sub/arLabelingSubEWZ.c</text>
</a>
</g>
</g>
<!-- Node3&#45;&gt;Node15 -->
<g id="edge14" class="edge">
<title>Node3&#45;&gt;Node15</title>
<path fill="none" stroke="#63b8ff" d="M998.87,-77.86C1139.3,-73.42 1439.46,-60.91 1691,-30 1693.83,-29.65 1696.72,-29.27 1699.63,-28.85"/>
<polygon fill="#63b8ff" stroke="#63b8ff" points="998.8,-74.36 988.92,-78.17 999.02,-81.36 998.8,-74.36"/>
</g>
</g>
</svg>
