<?xml version="1.0" encoding="UTF-8" standalone="no"?>
<!DOCTYPE svg PUBLIC "-//W3C//DTD SVG 1.1//EN"
 "http://www.w3.org/Graphics/SVG/1.1/DTD/svg11.dtd">
<!-- Generated by graphviz version 2.40.1 (20161225.0304)
 -->
<!-- Title: Source/ARX/AR/arLabelingSub/arLabelingSub.h Pages: 1 -->
<!--zoomable 102 -->
<svg id="main" version="1.1" xmlns="http://www.w3.org/2000/svg" xmlns:xlink="http://www.w3.org/1999/xlink" xml:space="preserve" onload="init(evt)">
<style type="text/css"><![CDATA[
.edge:hover path { stroke: red; }
.edge:hover polygon { stroke: red; fill: red; }
]]></style>
<script type="text/javascript"><![CDATA[
var edges = document.getElementsByTagName('g');
if (edges && edges.length) {
  for (var i=0;i<edges.length;i++) {
    if (edges[i].id.substr(0,4)=='edge') {
      edges[i].setAttribute('class','edge');
    }
  }
}
]]></script>
        <defs>
                <circle id="rim" cx="0" cy="0" r="7"/>
                <circle id="rim2" cx="0" cy="0" r="3.5"/>
                <g id="zoomPlus">
                        <use xlink:href="#rim" fill="#404040">
                                <set attributeName="fill" to="#808080" begin="zoomplus.mouseover" end="zoomplus.mouseout"/>
                        </use>
                        <path d="M-4,0h8M0,-4v8" fill="none" stroke="white" stroke-width="1.5" pointer-events="none"/>
                </g>
                <g id="zoomMin">
                        <use xlink:href="#rim" fill="#404040">
                                <set attributeName="fill" to="#808080" begin="zoomminus.mouseover" end="zoomminus.mouseout"/>
                        </use>
                        <path d="M-4,0h8" fill="none" stroke="white" stroke-width="1.5" pointer-events="none"/>
                </g>
                <g id="dirArrow">
                        <path fill="none" stroke="white" stroke-width="1.5" d="M0,-3.0v7 M-2.5,-0.5L0,-3.0L2.5,-0.5"/>
                </g>
               <g id="resetDef">
                       <use xlink:href="#rim2" fill="#404040">
                               <set attributeName="fill" to="#808080" begin="reset.mouseover" end="reset.mouseout"/>
                       </use>
               </g>
        </defs>

<script type="text/javascript">
var viewWidth = 1856;
var viewHeight = 102;
var sectionId = 'dynsection-1';
</script>
<script xlink:href="svgpan.js"/>
<svg id="graph" class="graph">
<g id="viewport">
<title>Source/ARX/AR/arLabelingSub/arLabelingSub.h</title>
<polygon fill="#ffffff" stroke="transparent" points="-4,4 -4,-98 1852.1768,-98 1852.1768,4 -4,4"/>
<!-- Node19 -->
<g id="node1" class="node">
<title>Node19</title>
<polygon fill="#bfbfbf" stroke="#000000" points="856,-65.5 856,-93.5 993.1768,-93.5 993.1768,-65.5 856,-65.5"/>
<text text-anchor="start" x="864" y="-81.5" font-family="Helvetica,sans-Serif" font-size="10.00" fill="#000000">Source/ARX/AR/arLabeling</text>
<text text-anchor="middle" x="924.5884" y="-71.5" font-family="Helvetica,sans-Serif" font-size="10.00" fill="#000000">Sub/arLabelingSub.h</text>
</g>
<!-- Node20 -->
<g id="node2" class="node">
<title>Node20</title>
<g id="a_node2"><a xlink:href="ar_labeling_sub_d_b_i_c_8c.html" target="_top" xlink:title="Source/ARX/AR/arLabeling\lSub/arLabelingSubDBIC.c">
<polygon fill="#ffffff" stroke="#000000" points="0,-.5 0,-28.5 137.1768,-28.5 137.1768,-.5 0,-.5"/>
<text text-anchor="start" x="8" y="-16.5" font-family="Helvetica,sans-Serif" font-size="10.00" fill="#000000">Source/ARX/AR/arLabeling</text>
<text text-anchor="middle" x="68.5884" y="-6.5" font-family="Helvetica,sans-Serif" font-size="10.00" fill="#000000">Sub/arLabelingSubDBIC.c</text>
</a>
</g>
</g>
<!-- Node19&#45;&gt;Node20 -->
<g id="edge1" class="edge">
<title>Node19&#45;&gt;Node20</title>
<path fill="none" stroke="#191970" d="M845.5274,-77.5441C704.4511,-73.3491 400.2404,-61.1106 145.5884,-29 142.8892,-28.6596 140.1417,-28.284 137.3701,-27.8806"/>
<polygon fill="#191970" stroke="#191970" points="845.711,-81.0508 855.8088,-77.8441 845.9152,-74.0538 845.711,-81.0508"/>
</g>
<!-- Node21 -->
<g id="node3" class="node">
<title>Node21</title>
<g id="a_node3"><a xlink:href="ar_labeling_sub_d_b_r_c_8c.html" target="_top" xlink:title="Source/ARX/AR/arLabeling\lSub/arLabelingSubDBRC.c">
<polygon fill="#ffffff" stroke="#000000" points="154.9976,-.5 154.9976,-28.5 292.1792,-28.5 292.1792,-.5 154.9976,-.5"/>
<text text-anchor="start" x="162.9976" y="-16.5" font-family="Helvetica,sans-Serif" font-size="10.00" fill="#000000">Source/ARX/AR/arLabeling</text>
<text text-anchor="middle" x="223.5884" y="-6.5" font-family="Helvetica,sans-Serif" font-size="10.00" fill="#000000">Sub/arLabelingSubDBRC.c</text>
</a>
</g>
</g>
<!-- Node19&#45;&gt;Node21 -->
<g id="edge2" class="edge">
<title>Node19&#45;&gt;Node21</title>
<path fill="none" stroke="#191970" d="M845.4513,-75.7733C726.7022,-69.5768 495.5373,-55.17 300.5884,-29 297.892,-28.638 295.1469,-28.2441 292.3772,-27.8255"/>
<polygon fill="#191970" stroke="#191970" points="845.377,-79.2741 855.5442,-76.2943 845.738,-72.2834 845.377,-79.2741"/>
</g>
<!-- Node22 -->
<g id="node4" class="node">
<title>Node22</title>
<g id="a_node4"><a xlink:href="ar_labeling_sub_d_b_z_8c.html" target="_top" xlink:title="Source/ARX/AR/arLabeling\lSub/arLabelingSubDBZ.c">
<polygon fill="#ffffff" stroke="#000000" points="310,-.5 310,-28.5 447.1768,-28.5 447.1768,-.5 310,-.5"/>
<text text-anchor="start" x="318" y="-16.5" font-family="Helvetica,sans-Serif" font-size="10.00" fill="#000000">Source/ARX/AR/arLabeling</text>
<text text-anchor="middle" x="378.5884" y="-6.5" font-family="Helvetica,sans-Serif" font-size="10.00" fill="#000000">Sub/arLabelingSubDBZ.c</text>
</a>
</g>
</g>
<!-- Node19&#45;&gt;Node22 -->
<g id="edge3" class="edge">
<title>Node19&#45;&gt;Node22</title>
<path fill="none" stroke="#191970" d="M845.4067,-72.8938C751.9691,-64.6548 592.0461,-49.1628 455.5884,-29 452.897,-28.6023 450.1562,-28.1783 447.3901,-27.7344"/>
<polygon fill="#191970" stroke="#191970" points="845.3624,-76.4033 855.6298,-73.7897 845.9736,-69.43 845.3624,-76.4033"/>
</g>
<!-- Node23 -->
<g id="node5" class="node">
<title>Node23</title>
<g id="a_node5"><a xlink:href="ar_labeling_sub_d_w_i_c_8c.html" target="_top" xlink:title="Source/ARX/AR/arLabeling\lSub/arLabelingSubDWIC.c">
<polygon fill="#ffffff" stroke="#000000" points="465,-.5 465,-28.5 602.1768,-28.5 602.1768,-.5 465,-.5"/>
<text text-anchor="start" x="473" y="-16.5" font-family="Helvetica,sans-Serif" font-size="10.00" fill="#000000">Source/ARX/AR/arLabeling</text>
<text text-anchor="middle" x="533.5884" y="-6.5" font-family="Helvetica,sans-Serif" font-size="10.00" fill="#000000">Sub/arLabelingSubDWIC.c</text>
</a>
</g>
</g>
<!-- Node19&#45;&gt;Node23 -->
<g id="edge4" class="edge">
<title>Node19&#45;&gt;Node23</title>
<path fill="none" stroke="#191970" d="M845.8957,-67.3355C782.5456,-57.4146 691.2505,-42.8289 611.5884,-29 608.6028,-28.4817 605.5544,-27.9454 602.4759,-27.3981"/>
<polygon fill="#191970" stroke="#191970" points="845.3963,-70.7998 855.817,-68.8868 846.4778,-63.8839 845.3963,-70.7998"/>
</g>
<!-- Node24 -->
<g id="node6" class="node">
<title>Node24</title>
<g id="a_node6"><a xlink:href="ar_labeling_sub_d_w_r_c_8c.html" target="_top" xlink:title="Source/ARX/AR/arLabeling\lSub/arLabelingSubDWRC.c">
<polygon fill="#ffffff" stroke="#000000" points="620.6133,-.5 620.6133,-28.5 760.5635,-28.5 760.5635,-.5 620.6133,-.5"/>
<text text-anchor="start" x="628.6133" y="-16.5" font-family="Helvetica,sans-Serif" font-size="10.00" fill="#000000">Source/ARX/AR/arLabeling</text>
<text text-anchor="middle" x="690.5884" y="-6.5" font-family="Helvetica,sans-Serif" font-size="10.00" fill="#000000">Sub/arLabelingSubDWRC.c</text>
</a>
</g>
</g>
<!-- Node19&#45;&gt;Node24 -->
<g id="edge5" class="edge">
<title>Node19&#45;&gt;Node24</title>
<path fill="none" stroke="#191970" d="M864.1622,-62.7149C826.0828,-52.1373 777.4737,-38.6348 741.3877,-28.6109"/>
<polygon fill="#191970" stroke="#191970" points="863.53,-66.1718 874.102,-65.476 865.4035,-59.4272 863.53,-66.1718"/>
</g>
<!-- Node25 -->
<g id="node7" class="node">
<title>Node25</title>
<g id="a_node7"><a xlink:href="ar_labeling_sub_d_w_z_8c.html" target="_top" xlink:title="Source/ARX/AR/arLabeling\lSub/arLabelingSubDWZ.c">
<polygon fill="#ffffff" stroke="#000000" points="779,-.5 779,-28.5 916.1768,-28.5 916.1768,-.5 779,-.5"/>
<text text-anchor="start" x="787" y="-16.5" font-family="Helvetica,sans-Serif" font-size="10.00" fill="#000000">Source/ARX/AR/arLabeling</text>
<text text-anchor="middle" x="847.5884" y="-6.5" font-family="Helvetica,sans-Serif" font-size="10.00" fill="#000000">Sub/arLabelingSubDWZ.c</text>
</a>
</g>
</g>
<!-- Node19&#45;&gt;Node25 -->
<g id="edge6" class="edge">
<title>Node19&#45;&gt;Node25</title>
<path fill="none" stroke="#191970" d="M900.1654,-58.8832C888.464,-49.0054 874.7508,-37.4293 864.2636,-28.5765"/>
<polygon fill="#191970" stroke="#191970" points="897.9814,-61.6199 907.8805,-65.396 902.4968,-56.2709 897.9814,-61.6199"/>
</g>
<!-- Node26 -->
<g id="node8" class="node">
<title>Node26</title>
<g id="a_node8"><a xlink:href="ar_labeling_sub_e_b_i_c_8c.html" target="_top" xlink:title="Source/ARX/AR/arLabeling\lSub/arLabelingSubEBIC.c">
<polygon fill="#ffffff" stroke="#000000" points="934,-.5 934,-28.5 1071.1768,-28.5 1071.1768,-.5 934,-.5"/>
<text text-anchor="start" x="942" y="-16.5" font-family="Helvetica,sans-Serif" font-size="10.00" fill="#000000">Source/ARX/AR/arLabeling</text>
<text text-anchor="middle" x="1002.5884" y="-6.5" font-family="Helvetica,sans-Serif" font-size="10.00" fill="#000000">Sub/arLabelingSubEBIC.c</text>
</a>
</g>
</g>
<!-- Node19&#45;&gt;Node26 -->
<g id="edge7" class="edge">
<title>Node19&#45;&gt;Node26</title>
<path fill="none" stroke="#191970" d="M949.3285,-58.8832C961.1819,-49.0054 975.0732,-37.4293 985.6966,-28.5765"/>
<polygon fill="#191970" stroke="#191970" points="946.9548,-56.3053 941.5132,-65.396 951.4361,-61.6829 946.9548,-56.3053"/>
</g>
<!-- Node27 -->
<g id="node9" class="node">
<title>Node27</title>
<g id="a_node9"><a xlink:href="ar_labeling_sub_e_b_r_c_8c.html" target="_top" xlink:title="Source/ARX/AR/arLabeling\lSub/arLabelingSubEBRC.c">
<polygon fill="#ffffff" stroke="#000000" points="1089,-.5 1089,-28.5 1226.1768,-28.5 1226.1768,-.5 1089,-.5"/>
<text text-anchor="start" x="1097" y="-16.5" font-family="Helvetica,sans-Serif" font-size="10.00" fill="#000000">Source/ARX/AR/arLabeling</text>
<text text-anchor="middle" x="1157.5884" y="-6.5" font-family="Helvetica,sans-Serif" font-size="10.00" fill="#000000">Sub/arLabelingSubEBRC.c</text>
</a>
</g>
</g>
<!-- Node19&#45;&gt;Node27 -->
<g id="edge8" class="edge">
<title>Node19&#45;&gt;Node27</title>
<path fill="none" stroke="#191970" d="M984.7564,-62.7149C1022.673,-52.1373 1071.0744,-38.6348 1107.0062,-28.6109"/>
<polygon fill="#191970" stroke="#191970" points="983.5508,-59.4175 974.859,-65.476 985.4318,-66.1601 983.5508,-59.4175"/>
</g>
<!-- Node28 -->
<g id="node10" class="node">
<title>Node28</title>
<g id="a_node10"><a xlink:href="ar_labeling_sub_e_b_z_8c.html" target="_top" xlink:title="Source/ARX/AR/arLabeling\lSub/arLabelingSubEBZ.c">
<polygon fill="#ffffff" stroke="#000000" points="1244,-.5 1244,-28.5 1381.1768,-28.5 1381.1768,-.5 1244,-.5"/>
<text text-anchor="start" x="1252" y="-16.5" font-family="Helvetica,sans-Serif" font-size="10.00" fill="#000000">Source/ARX/AR/arLabeling</text>
<text text-anchor="middle" x="1312.5884" y="-6.5" font-family="Helvetica,sans-Serif" font-size="10.00" fill="#000000">Sub/arLabelingSubEBZ.c</text>
</a>
</g>
</g>
<!-- Node19&#45;&gt;Node28 -->
<g id="edge9" class="edge">
<title>Node19&#45;&gt;Node28</title>
<path fill="none" stroke="#191970" d="M1003.4779,-67.2514C1066.3978,-57.347 1156.7358,-42.8242 1235.5884,-29 1238.2681,-28.5302 1240.9991,-28.0453 1243.757,-27.5505"/>
<polygon fill="#191970" stroke="#191970" points="1002.5666,-63.8516 993.2312,-68.8617 1003.6534,-70.7667 1002.5666,-63.8516"/>
</g>
<!-- Node29 -->
<g id="node11" class="node">
<title>Node29</title>
<g id="a_node11"><a xlink:href="ar_labeling_sub_e_w_i_c_8c.html" target="_top" xlink:title="Source/ARX/AR/arLabeling\lSub/arLabelingSubEWIC.c">
<polygon fill="#ffffff" stroke="#000000" points="1399,-.5 1399,-28.5 1536.1768,-28.5 1536.1768,-.5 1399,-.5"/>
<text text-anchor="start" x="1407" y="-16.5" font-family="Helvetica,sans-Serif" font-size="10.00" fill="#000000">Source/ARX/AR/arLabeling</text>
<text text-anchor="middle" x="1467.5884" y="-6.5" font-family="Helvetica,sans-Serif" font-size="10.00" fill="#000000">Sub/arLabelingSubEWIC.c</text>
</a>
</g>
</g>
<!-- Node19&#45;&gt;Node29 -->
<g id="edge10" class="edge">
<title>Node19&#45;&gt;Node29</title>
<path fill="none" stroke="#191970" d="M1003.6613,-72.8299C1096.5559,-64.555 1255.1944,-49.0531 1390.5884,-29 1393.2796,-28.6014 1396.0203,-28.1766 1398.7864,-27.7321"/>
<polygon fill="#191970" stroke="#191970" points="1003.1484,-69.3615 993.4961,-73.7299 1003.7658,-76.3342 1003.1484,-69.3615"/>
</g>
<!-- Node30 -->
<g id="node12" class="node">
<title>Node30</title>
<g id="a_node12"><a xlink:href="ar_labeling_sub_e_w_r_c_8c.html" target="_top" xlink:title="Source/ARX/AR/arLabeling\lSub/arLabelingSubEWRC.c">
<polygon fill="#ffffff" stroke="#000000" points="1553.8892,-.5 1553.8892,-28.5 1693.2876,-28.5 1693.2876,-.5 1553.8892,-.5"/>
<text text-anchor="start" x="1561.8892" y="-16.5" font-family="Helvetica,sans-Serif" font-size="10.00" fill="#000000">Source/ARX/AR/arLabeling</text>
<text text-anchor="middle" x="1623.5884" y="-6.5" font-family="Helvetica,sans-Serif" font-size="10.00" fill="#000000">Sub/arLabelingSubEWRC.c</text>
</a>
</g>
</g>
<!-- Node19&#45;&gt;Node30 -->
<g id="edge11" class="edge">
<title>Node19&#45;&gt;Node30</title>
<path fill="none" stroke="#191970" d="M1003.3369,-75.6925C1121.5048,-69.393 1351.5454,-54.8564 1545.5884,-29 1548.1824,-28.6543 1550.8211,-28.2801 1553.4835,-27.8835"/>
<polygon fill="#191970" stroke="#191970" points="1003.0951,-72.2003 993.2934,-76.2224 1003.464,-79.1906 1003.0951,-72.2003"/>
</g>
<!-- Node31 -->
<g id="node13" class="node">
<title>Node31</title>
<g id="a_node13"><a xlink:href="ar_labeling_sub_e_w_z_8c.html" target="_top" xlink:title="Source/ARX/AR/arLabeling\lSub/arLabelingSubEWZ.c">
<polygon fill="#ffffff" stroke="#000000" points="1711,-.5 1711,-28.5 1848.1768,-28.5 1848.1768,-.5 1711,-.5"/>
<text text-anchor="start" x="1719" y="-16.5" font-family="Helvetica,sans-Serif" font-size="10.00" fill="#000000">Source/ARX/AR/arLabeling</text>
<text text-anchor="middle" x="1779.5884" y="-6.5" font-family="Helvetica,sans-Serif" font-size="10.00" fill="#000000">Sub/arLabelingSubEWZ.c</text>
</a>
</g>
</g>
<!-- Node19&#45;&gt;Node31 -->
<g id="edge12" class="edge">
<title>Node19&#45;&gt;Node31</title>
<path fill="none" stroke="#191970" d="M1003.5479,-77.5379C1144.443,-73.3332 1448.2632,-61.0801 1702.5884,-29 1705.2876,-28.6595 1708.035,-28.2838 1710.8067,-27.8803"/>
<polygon fill="#191970" stroke="#191970" points="1003.1728,-74.0473 993.2796,-77.8386 1003.3778,-81.0443 1003.1728,-74.0473"/>
</g>
</g>
</svg>
        <g id="navigator" transform="translate(0 0)" fill="#404254">
                <rect fill="#f2f5e9" fill-opacity="0.5" stroke="#606060" stroke-width=".5" x="0" y="0" width="60" height="60"/>
                <use id="zoomplus" xlink:href="#zoomPlus" x="17" y="9" onmousedown="handleZoom(evt,'in')"/>
                <use id="zoomminus" xlink:href="#zoomMin" x="42" y="9" onmousedown="handleZoom(evt,'out')"/>
                <use id="reset" xlink:href="#resetDef" x="30" y="36" onmousedown="handleReset()"/>
                <g id="arrowUp" xlink:href="#dirArrow" transform="translate(30 24)" onmousedown="handlePan(0,-1)">
                  <use xlink:href="#rim" fill="#404040">
                        <set attributeName="fill" to="#808080" begin="arrowUp.mouseover" end="arrowUp.mouseout"/>
                  </use>
                  <path fill="none" stroke="white" stroke-width="1.5" d="M0,-3.0v7 M-2.5,-0.5L0,-3.0L2.5,-0.5"/>
                </g>
                <g id="arrowRight" xlink:href="#dirArrow" transform="rotate(90) translate(36 -43)" onmousedown="handlePan(1,0)">
                  <use xlink:href="#rim" fill="#404040">
                        <set attributeName="fill" to="#808080" begin="arrowRight.mouseover" end="arrowRight.mouseout"/>
                  </use>
                  <path fill="none" stroke="white" stroke-width="1.5" d="M0,-3.0v7 M-2.5,-0.5L0,-3.0L2.5,-0.5"/>
                </g>
                <g id="arrowDown" xlink:href="#dirArrow" transform="rotate(180) translate(-30 -48)" onmousedown="handlePan(0,1)">
                  <use xlink:href="#rim" fill="#404040">
                        <set attributeName="fill" to="#808080" begin="arrowDown.mouseover" end="arrowDown.mouseout"/>
                  </use>
                  <path fill="none" stroke="white" stroke-width="1.5" d="M0,-3.0v7 M-2.5,-0.5L0,-3.0L2.5,-0.5"/>
                </g>
                <g id="arrowLeft" xlink:href="#dirArrow" transform="rotate(270) translate(-36 17)" onmousedown="handlePan(-1,0)">
                  <use xlink:href="#rim" fill="#404040">
                        <set attributeName="fill" to="#808080" begin="arrowLeft.mouseover" end="arrowLeft.mouseout"/>
                  </use>
                  <path fill="none" stroke="white" stroke-width="1.5" d="M0,-3.0v7 M-2.5,-0.5L0,-3.0L2.5,-0.5"/>
                </g>
        </g>
        <svg viewBox="0 0 15 15" width="100%" height="30px" preserveAspectRatio="xMaxYMin meet">
         <g id="arrow_out" transform="scale(0.3 0.3)">
          <a xlink:href="ar_labeling_sub_8h__dep__incl_org.svg" target="_base">
           <rect id="button" ry="5" rx="5" y="6" x="6" height="38" width="38"
                fill="#f2f5e9" fill-opacity="0.5" stroke="#606060" stroke-width="1.0"/>
           <path id="arrow"
             d="M 11.500037,31.436501 C 11.940474,20.09759 22.043105,11.32322 32.158766,21.979434 L 37.068811,17.246167 C 37.068811,17.246167 37.088388,32 37.088388,32 L 22.160133,31.978069 C 22.160133,31.978069 26.997745,27.140456 26.997745,27.140456 C 18.528582,18.264221 13.291696,25.230495 11.500037,31.436501 z"
             style="fill:#404040;"/>
          </a>
         </g>
        </svg>
</svg>
