<?xml version="1.0" encoding="UTF-8" standalone="no"?>
<!DOCTYPE svg PUBLIC "-//W3C//DTD SVG 1.1//EN"
 "http://www.w3.org/Graphics/SVG/1.1/DTD/svg11.dtd">
<!-- Generated by graphviz version 7.0.5 (20221223.1930)
 -->
<!-- Title: Source/ARX/AR/arLabelingSub/arLabelingSubEWIC.c Pages: 1 -->
<!--zoomable 258 -->
<svg id="main" version="1.1" xmlns="http://www.w3.org/2000/svg" xmlns:xlink="http://www.w3.org/1999/xlink" xml:space="preserve" onload="init(evt)">
<style type="text/css"><![CDATA[
.edge:hover path { stroke: red; }
.edge:hover polygon { stroke: red; fill: red; }
]]></style>
<script type="text/javascript"><![CDATA[
var edges = document.getElementsByTagName('g');
if (edges && edges.length) {
  for (var i=0;i<edges.length;i++) {
    if (edges[i].id.substr(0,4)=='edge') {
      edges[i].setAttribute('class','edge');
    }
  }
}
]]></script>
        <defs>
                <circle id="rim" cx="0" cy="0" r="7"/>
                <circle id="rim2" cx="0" cy="0" r="3.5"/>
                <g id="zoomPlus">
                        <use xlink:href="#rim" fill="#404040">
                                <set attributeName="fill" to="#808080" begin="zoomplus.mouseover" end="zoomplus.mouseout"/>
                        </use>
                        <path d="M-4,0h8M0,-4v8" fill="none" stroke="white" stroke-width="1.5" pointer-events="none"/>
                </g>
                <g id="zoomMin">
                        <use xlink:href="#rim" fill="#404040">
                                <set attributeName="fill" to="#808080" begin="zoomminus.mouseover" end="zoomminus.mouseout"/>
                        </use>
                        <path d="M-4,0h8" fill="none" stroke="white" stroke-width="1.5" pointer-events="none"/>
                </g>
                <g id="dirArrow">
                        <path fill="none" stroke="white" stroke-width="1.5" d="M0,-3.0v7 M-2.5,-0.5L0,-3.0L2.5,-0.5"/>
                </g>
               <g id="resetDef">
                       <use xlink:href="#rim2" fill="#404040">
                               <set attributeName="fill" to="#808080" begin="reset.mouseover" end="reset.mouseout"/>
                       </use>
               </g>
        </defs>

<script type="text/javascript">
var viewWidth = 1204;
var viewHeight = 258;
var sectionId = 'dynsection-0';
</script>
<script xlink:href="svgpan.js"/>
<svg id="graph" class="graph">
<g id="viewport">
<title>Source/ARX/AR/arLabelingSub/arLabelingSubEWIC.c</title>
<!-- Node1 -->
<g id="node1" class="node">
<title>Node1</title>
<g id="a_node1"><a xlink:title=" ">
<polygon fill="#999999" stroke="#666666" points="1036,-250 900,-250 900,-220 1036,-220 1036,-250"/>
<text text-anchor="start" x="908" y="-238" font-family="Helvetica,sans-Serif" font-size="10.00">Source/ARX/AR/arLabeling</text>
<text text-anchor="middle" x="968" y="-227" font-family="Helvetica,sans-Serif" font-size="10.00">Sub/arLabelingSubEWIC.c</text>
</a>
</g>
</g>
<!-- Node2 -->
<g id="node2" class="node">
<title>Node2</title>
<g id="a_node2"><a xlink:title=" ">
<polygon fill="#e0e0e0" stroke="#999999" points="1112,-19 1020,-19 1020,0 1112,0 1112,-19"/>
<text text-anchor="middle" x="1066" y="-7" font-family="Helvetica,sans-Serif" font-size="10.00">ARX/AR/config.h</text>
</a>
</g>
</g>
<!-- Node1&#45;&gt;Node2 -->
<g id="edge1" class="edge">
<title>Node1&#45;&gt;Node2</title>
<path fill="none" stroke="#63b8ff" d="M1036.46,-221.68C1088.18,-208.39 1155.75,-181.61 1189,-129 1217.45,-83.98 1145.44,-43.8 1099.93,-23.83"/>
<polygon fill="#63b8ff" stroke="#63b8ff" points="1101.52,-20.71 1090.95,-20.02 1098.79,-27.15 1101.52,-20.71"/>
</g>
<!-- Node3 -->
<g id="node3" class="node">
<title>Node3</title>
<g id="a_node3"><a xlink:href="ar_labeling_sub_8h.html" target="_top" xlink:title=" ">
<polygon fill="white" stroke="#666666" points="933,-184 847,-184 847,-165 933,-165 933,-184"/>
<text text-anchor="middle" x="890" y="-172" font-family="Helvetica,sans-Serif" font-size="10.00">arLabelingSub.h</text>
</a>
</g>
</g>
<!-- Node1&#45;&gt;Node3 -->
<g id="edge2" class="edge">
<title>Node1&#45;&gt;Node3</title>
<path fill="none" stroke="#63b8ff" d="M948.72,-219.54C937.16,-210.87 922.46,-199.85 910.66,-191"/>
<polygon fill="#63b8ff" stroke="#63b8ff" points="912.88,-188.28 902.78,-185.08 908.68,-193.88 912.88,-188.28"/>
</g>
<!-- Node4 -->
<g id="node4" class="node">
<title>Node4</title>
<g id="a_node4"><a xlink:title=" ">
<polygon fill="#e0e0e0" stroke="#999999" points="48,-19 0,-19 0,0 48,0 48,-19"/>
<text text-anchor="middle" x="24" y="-7" font-family="Helvetica,sans-Serif" font-size="10.00">stdlib.h</text>
</a>
</g>
</g>
<!-- Node3&#45;&gt;Node4 -->
<g id="edge3" class="edge">
<title>Node3&#45;&gt;Node4</title>
<path fill="none" stroke="#63b8ff" d="M846.97,-171.34C703.15,-163.61 240.7,-134.51 106,-74 80.46,-62.53 55.7,-41.57 40.19,-26.87"/>
<polygon fill="#63b8ff" stroke="#63b8ff" points="42.87,-24.61 33.27,-20.13 37.98,-29.61 42.87,-24.61"/>
</g>
<!-- Node5 -->
<g id="node5" class="node">
<title>Node5</title>
<g id="a_node5"><a xlink:title=" ">
<polygon fill="#e0e0e0" stroke="#999999" points="390,-19 344,-19 344,0 390,0 390,-19"/>
<text text-anchor="middle" x="367" y="-7" font-family="Helvetica,sans-Serif" font-size="10.00">stdio.h</text>
</a>
</g>
</g>
<!-- Node3&#45;&gt;Node5 -->
<g id="edge4" class="edge">
<title>Node3&#45;&gt;Node5</title>
<path fill="none" stroke="#63b8ff" d="M846.84,-172.53C728.61,-168.86 403.98,-151.76 339,-74 327.58,-60.33 338.69,-41.26 350.12,-27.6"/>
<polygon fill="#63b8ff" stroke="#63b8ff" points="352.66,-30.01 356.79,-20.25 347.48,-25.3 352.66,-30.01"/>
</g>
<!-- Node6 -->
<g id="node6" class="node">
<title>Node6</title>
<g id="a_node6"><a xlink:title=" ">
<polygon fill="#e0e0e0" stroke="#999999" points="677.5,-19 628.5,-19 628.5,0 677.5,0 677.5,-19"/>
<text text-anchor="middle" x="653" y="-7" font-family="Helvetica,sans-Serif" font-size="10.00">string.h</text>
</a>
</g>
</g>
<!-- Node3&#45;&gt;Node6 -->
<g id="edge5" class="edge">
<title>Node3&#45;&gt;Node6</title>
<path fill="none" stroke="#63b8ff" d="M930.08,-164.53C997.32,-147.74 1121.03,-108.39 1073,-55 1060.19,-40.76 788.35,-20.11 688.97,-13.01"/>
<polygon fill="#63b8ff" stroke="#63b8ff" points="689.47,-9.54 679.25,-12.32 688.97,-16.52 689.47,-9.54"/>
</g>
<!-- Node7 -->
<g id="node7" class="node">
<title>Node7</title>
<g id="a_node7"><a xlink:href="ar_8h.html" target="_top" xlink:title="artoolkitX core routines.">
<polygon fill="white" stroke="#666666" points="728,-129 654,-129 654,-110 728,-110 728,-129"/>
<text text-anchor="middle" x="691" y="-117" font-family="Helvetica,sans-Serif" font-size="10.00">ARX/AR/ar.h</text>
</a>
</g>
</g>
<!-- Node3&#45;&gt;Node7 -->
<g id="edge6" class="edge">
<title>Node3&#45;&gt;Node7</title>
<path fill="none" stroke="#63b8ff" d="M856.24,-164.51C822.98,-155.65 771.97,-142.07 735.43,-132.33"/>
<polygon fill="#63b8ff" stroke="#63b8ff" points="736.62,-129.03 726.05,-129.84 734.82,-135.79 736.62,-129.03"/>
</g>
<!-- Node20 -->
<g id="node20" class="node">
<title>Node20</title>
<g id="a_node20"><a xlink:href="ar_labeling_private_8h.html" target="_top" xlink:title=" ">
<polygon fill="white" stroke="#666666" points="1180,-129 1080,-129 1080,-110 1180,-110 1180,-129"/>
<text text-anchor="middle" x="1130" y="-117" font-family="Helvetica,sans-Serif" font-size="10.00">arLabelingPrivate.h</text>
</a>
</g>
</g>
<!-- Node3&#45;&gt;Node20 -->
<g id="edge30" class="edge">
<title>Node3&#45;&gt;Node20</title>
<path fill="none" stroke="#63b8ff" d="M930.71,-164.51C971.43,-155.52 1034.21,-141.65 1078.4,-131.9"/>
<polygon fill="#63b8ff" stroke="#63b8ff" points="1079,-135.35 1088.01,-129.77 1077.49,-128.51 1079,-135.35"/>
</g>
<!-- Node7&#45;&gt;Node2 -->
<g id="edge11" class="edge">
<title>Node7&#45;&gt;Node2</title>
<path fill="none" stroke="#63b8ff" d="M728.4,-113.04C769.69,-106.38 837.77,-93.55 894,-74 912.21,-67.67 915.15,-62.3 933,-55 963.17,-42.66 998.16,-31.06 1024.67,-22.8"/>
<polygon fill="#63b8ff" stroke="#63b8ff" points="1025.51,-26.2 1034.03,-19.91 1023.45,-19.51 1025.51,-26.2"/>
</g>
<!-- Node7&#45;&gt;Node4 -->
<g id="edge8" class="edge">
<title>Node7&#45;&gt;Node4</title>
<path fill="none" stroke="#63b8ff" d="M653.7,-117.08C548.93,-112.83 253.53,-98.9 160,-74 118.84,-63.04 74.79,-40.18 48.32,-25.09"/>
<polygon fill="#63b8ff" stroke="#63b8ff" points="50.15,-22.11 39.75,-20.11 46.64,-28.16 50.15,-22.11"/>
</g>
<!-- Node7&#45;&gt;Node5 -->
<g id="edge7" class="edge">
<title>Node7&#45;&gt;Node5</title>
<path fill="none" stroke="#63b8ff" d="M653.7,-116.4C569,-111.24 367.97,-96.72 348,-74 336.98,-61.46 344.55,-42.75 353.18,-28.88"/>
<polygon fill="#63b8ff" stroke="#63b8ff" points="356.05,-30.88 358.83,-20.65 350.28,-26.91 356.05,-30.88"/>
</g>
<!-- Node7&#45;&gt;Node6 -->
<g id="edge10" class="edge">
<title>Node7&#45;&gt;Node6</title>
<path fill="none" stroke="#63b8ff" d="M686.92,-109.75C682.85,-100.86 676.57,-86.64 672,-74 666.77,-59.55 661.83,-42.91 658.3,-30.28"/>
<polygon fill="#63b8ff" stroke="#63b8ff" points="661.69,-29.41 655.68,-20.69 654.94,-31.26 661.69,-29.41"/>
</g>
<!-- Node8 -->
<g id="node8" class="node">
<title>Node8</title>
<g id="a_node8"><a xlink:title=" ">
<polygon fill="#e0e0e0" stroke="#999999" points="503.5,-74 454.5,-74 454.5,-55 503.5,-55 503.5,-74"/>
<text text-anchor="middle" x="479" y="-62" font-family="Helvetica,sans-Serif" font-size="10.00">stdint.h</text>
</a>
</g>
</g>
<!-- Node7&#45;&gt;Node8 -->
<g id="edge9" class="edge">
<title>Node7&#45;&gt;Node8</title>
<path fill="none" stroke="#63b8ff" d="M654.64,-109.56C620.79,-101.21 568.63,-88.29 514.97,-74.74"/>
<polygon fill="#63b8ff" stroke="#63b8ff" points="515.88,-71.36 505.33,-72.3 514.16,-78.14 515.88,-71.36"/>
</g>
<!-- Node9 -->
<g id="node9" class="node">
<title>Node9</title>
<g id="a_node9"><a xlink:href="ar_config_8h.html" target="_top" xlink:title=" ">
<polygon fill="white" stroke="#666666" points="624.5,-74 521.5,-74 521.5,-55 624.5,-55 624.5,-74"/>
<text text-anchor="middle" x="573" y="-62" font-family="Helvetica,sans-Serif" font-size="10.00">ARX/AR/arConfig.h</text>
</a>
</g>
</g>
<!-- Node7&#45;&gt;Node9 -->
<g id="edge12" class="edge">
<title>Node7&#45;&gt;Node9</title>
<path fill="none" stroke="#63b8ff" d="M670.98,-109.51C652.39,-101.16 624.46,-88.61 603.17,-79.05"/>
<polygon fill="#63b8ff" stroke="#63b8ff" points="604.66,-75.88 594.1,-74.98 601.79,-82.27 604.66,-75.88"/>
</g>
<!-- Node10 -->
<g id="node10" class="node">
<title>Node10</title>
<g id="a_node10"><a xlink:href="log_8h.html" target="_top" xlink:title="Logging utilities.">
<polygon fill="white" stroke="#666666" points="263,-74 169,-74 169,-55 263,-55 263,-74"/>
<text text-anchor="middle" x="216" y="-62" font-family="Helvetica,sans-Serif" font-size="10.00">ARX/ARUtil/log.h</text>
</a>
</g>
</g>
<!-- Node7&#45;&gt;Node10 -->
<g id="edge13" class="edge">
<title>Node7&#45;&gt;Node10</title>
<path fill="none" stroke="#63b8ff" d="M653.73,-114.34C571.47,-105.16 373.86,-83.11 274.75,-72.06"/>
<polygon fill="#63b8ff" stroke="#63b8ff" points="275.29,-68.59 264.96,-70.96 274.51,-75.55 275.29,-68.59"/>
</g>
<!-- Node14 -->
<g id="node14" class="node">
<title>Node14</title>
<g id="a_node14"><a xlink:href="matrix_8h.html" target="_top" xlink:title=" ">
<polygon fill="white" stroke="#666666" points="885.5,-74 792.5,-74 792.5,-55 885.5,-55 885.5,-74"/>
<text text-anchor="middle" x="839" y="-62" font-family="Helvetica,sans-Serif" font-size="10.00">ARX/AR/matrix.h</text>
</a>
</g>
</g>
<!-- Node7&#45;&gt;Node14 -->
<g id="edge20" class="edge">
<title>Node7&#45;&gt;Node14</title>
<path fill="none" stroke="#63b8ff" d="M716.11,-109.51C740.17,-100.89 776.72,-87.8 803.71,-78.14"/>
<polygon fill="#63b8ff" stroke="#63b8ff" points="804.61,-81.53 812.84,-74.87 802.25,-74.94 804.61,-81.53"/>
</g>
<!-- Node16 -->
<g id="node16" class="node">
<title>Node16</title>
<g id="a_node16"><a xlink:href="icp_8h.html" target="_top" xlink:title=" ">
<polygon fill="white" stroke="#666666" points="436.5,-74 357.5,-74 357.5,-55 436.5,-55 436.5,-74"/>
<text text-anchor="middle" x="397" y="-62" font-family="Helvetica,sans-Serif" font-size="10.00">ARX/AR/icp.h</text>
</a>
</g>
</g>
<!-- Node7&#45;&gt;Node16 -->
<g id="edge22" class="edge">
<title>Node7&#45;&gt;Node16</title>
<path fill="none" stroke="#63b8ff" d="M653.76,-111.79C601.62,-102.39 506.65,-85.27 447.97,-74.69"/>
<polygon fill="#63b8ff" stroke="#63b8ff" points="448.7,-71.26 438.24,-72.93 447.46,-78.15 448.7,-71.26"/>
</g>
<!-- Node18 -->
<g id="node18" class="node">
<title>Node18</title>
<g id="a_node18"><a xlink:href="param_8h.html" target="_top" xlink:title="artoolkitX functions for handling calibrated camera parameters.">
<polygon fill="white" stroke="#666666" points="774.5,-74 681.5,-74 681.5,-55 774.5,-55 774.5,-74"/>
<text text-anchor="middle" x="728" y="-62" font-family="Helvetica,sans-Serif" font-size="10.00">ARX/AR/param.h</text>
</a>
</g>
</g>
<!-- Node7&#45;&gt;Node18 -->
<g id="edge25" class="edge">
<title>Node7&#45;&gt;Node18</title>
<path fill="none" stroke="#63b8ff" d="M691.94,-109.75C695.44,-102.5 702.38,-91.98 709.38,-83.02"/>
<polygon fill="#63b8ff" stroke="#63b8ff" points="711.85,-85.52 715.58,-75.6 706.48,-81.03 711.85,-85.52"/>
</g>
<!-- Node19 -->
<g id="node19" class="node">
<title>Node19</title>
<g id="a_node19"><a xlink:href="ar_image_proc_8h.html" target="_top" xlink:title="artoolkitX functions for 2D luminance image processing.">
<polygon fill="white" stroke="#666666" points="1064,-74 942,-74 942,-55 1064,-55 1064,-74"/>
<text text-anchor="middle" x="1003" y="-62" font-family="Helvetica,sans-Serif" font-size="10.00">ARX/AR/arImageProc.h</text>
</a>
</g>
</g>
<!-- Node7&#45;&gt;Node19 -->
<g id="edge27" class="edge">
<title>Node7&#45;&gt;Node19</title>
<path fill="none" stroke="#63b8ff" d="M728.29,-111.35C779,-102.34 870.41,-86.77 933.82,-76.31"/>
<polygon fill="#63b8ff" stroke="#63b8ff" points="934.14,-79.8 943.44,-74.72 933,-72.89 934.14,-79.8"/>
</g>
<!-- Node10&#45;&gt;Node4 -->
<g id="edge15" class="edge">
<title>Node10&#45;&gt;Node4</title>
<path fill="none" stroke="#63b8ff" d="M183.43,-54.51C148.96,-45 94.76,-30.03 59.29,-20.24"/>
<polygon fill="#63b8ff" stroke="#63b8ff" points="60.52,-16.95 49.94,-17.66 58.65,-23.7 60.52,-16.95"/>
</g>
<!-- Node10&#45;&gt;Node5 -->
<g id="edge14" class="edge">
<title>Node10&#45;&gt;Node5</title>
<path fill="none" stroke="#63b8ff" d="M241.62,-54.51C266.76,-45.68 305.26,-32.17 332.97,-22.44"/>
<polygon fill="#63b8ff" stroke="#63b8ff" points="334.04,-25.78 342.31,-19.16 331.72,-19.17 334.04,-25.78"/>
</g>
<!-- Node10&#45;&gt;Node6 -->
<g id="edge16" class="edge">
<title>Node10&#45;&gt;Node6</title>
<path fill="none" stroke="#63b8ff" d="M263.18,-57.78C351.14,-47.11 538.36,-24.4 617.01,-14.86"/>
<polygon fill="#63b8ff" stroke="#63b8ff" points="617.23,-18.36 626.74,-13.69 616.39,-11.41 617.23,-18.36"/>
</g>
<!-- Node11 -->
<g id="node11" class="node">
<title>Node11</title>
<g id="a_node11"><a xlink:title=" ">
<polygon fill="#e0e0e0" stroke="#999999" points="242,-19 190,-19 190,0 242,0 242,-19"/>
<text text-anchor="middle" x="216" y="-7" font-family="Helvetica,sans-Serif" font-size="10.00">stdarg.h</text>
</a>
</g>
</g>
<!-- Node10&#45;&gt;Node11 -->
<g id="edge17" class="edge">
<title>Node10&#45;&gt;Node11</title>
<path fill="none" stroke="#63b8ff" d="M216,-54.75C216,-48.27 216,-39.16 216,-30.9"/>
<polygon fill="#63b8ff" stroke="#63b8ff" points="219.5,-30.96 216,-20.96 212.5,-30.96 219.5,-30.96"/>
</g>
<!-- Node12 -->
<g id="node12" class="node">
<title>Node12</title>
<g id="a_node12"><a xlink:title=" ">
<polygon fill="#e0e0e0" stroke="#999999" points="325.5,-19 260.5,-19 260.5,0 325.5,0 325.5,-19"/>
<text text-anchor="middle" x="293" y="-7" font-family="Helvetica,sans-Serif" font-size="10.00">sys/errno.h</text>
</a>
</g>
</g>
<!-- Node10&#45;&gt;Node12 -->
<g id="edge18" class="edge">
<title>Node10&#45;&gt;Node12</title>
<path fill="none" stroke="#63b8ff" d="M229.06,-54.51C240.52,-46.62 257.43,-34.98 270.98,-25.65"/>
<polygon fill="#63b8ff" stroke="#63b8ff" points="272.63,-28.77 278.88,-20.22 268.66,-23 272.63,-28.77"/>
</g>
<!-- Node13 -->
<g id="node13" class="node">
<title>Node13</title>
<g id="a_node13"><a xlink:href="types_8h.html" target="_top" xlink:title=" ">
<polygon fill="white" stroke="#666666" points="171.5,-19 66.5,-19 66.5,0 171.5,0 171.5,-19"/>
<text text-anchor="middle" x="119" y="-7" font-family="Helvetica,sans-Serif" font-size="10.00">ARX/ARUtil/types.h</text>
</a>
</g>
</g>
<!-- Node10&#45;&gt;Node13 -->
<g id="edge19" class="edge">
<title>Node10&#45;&gt;Node13</title>
<path fill="none" stroke="#63b8ff" d="M199.55,-54.51C184.68,-46.39 162.56,-34.3 145.25,-24.85"/>
<polygon fill="#63b8ff" stroke="#63b8ff" points="146.99,-21.81 136.54,-20.08 143.64,-27.95 146.99,-21.81"/>
</g>
<!-- Node15 -->
<g id="node15" class="node">
<title>Node15</title>
<g id="a_node15"><a xlink:title=" ">
<polygon fill="#e0e0e0" stroke="#999999" points="862.5,-19 815.5,-19 815.5,0 862.5,0 862.5,-19"/>
<text text-anchor="middle" x="839" y="-7" font-family="Helvetica,sans-Serif" font-size="10.00">math.h</text>
</a>
</g>
</g>
<!-- Node14&#45;&gt;Node15 -->
<g id="edge21" class="edge">
<title>Node14&#45;&gt;Node15</title>
<path fill="none" stroke="#63b8ff" d="M839,-54.75C839,-48.27 839,-39.16 839,-30.9"/>
<polygon fill="#63b8ff" stroke="#63b8ff" points="842.5,-30.96 839,-20.96 835.5,-30.96 842.5,-30.96"/>
</g>
<!-- Node16&#45;&gt;Node5 -->
<g id="edge23" class="edge">
<title>Node16&#45;&gt;Node5</title>
<path fill="none" stroke="#63b8ff" d="M392.05,-54.75C388.16,-47.88 382.61,-38.08 377.72,-29.45"/>
<polygon fill="#63b8ff" stroke="#63b8ff" points="380.78,-27.74 372.81,-20.76 374.69,-31.19 380.78,-27.74"/>
</g>
<!-- Node17 -->
<g id="node17" class="node">
<title>Node17</title>
<g id="a_node17"><a xlink:href="icp_core_8h.html" target="_top" xlink:title=" ">
<polygon fill="white" stroke="#666666" points="508,-19 408,-19 408,0 508,0 508,-19"/>
<text text-anchor="middle" x="458" y="-7" font-family="Helvetica,sans-Serif" font-size="10.00">ARX/AR/icpCore.h</text>
</a>
</g>
</g>
<!-- Node16&#45;&gt;Node17 -->
<g id="edge24" class="edge">
<title>Node16&#45;&gt;Node17</title>
<path fill="none" stroke="#63b8ff" d="M407.35,-54.51C416.08,-46.93 428.79,-35.88 439.3,-26.75"/>
<polygon fill="#63b8ff" stroke="#63b8ff" points="441.41,-29.55 446.66,-20.35 436.82,-24.27 441.41,-29.55"/>
</g>
<!-- Node18&#45;&gt;Node7 -->
<g id="edge26" class="edge">
<title>Node18&#45;&gt;Node7</title>
<path fill="none" stroke="#63b8ff" d="M726.96,-74.44C723.44,-81.67 716.58,-92.06 709.66,-100.93"/>
<polygon fill="#63b8ff" stroke="#63b8ff" points="706.99,-98.67 703.25,-108.59 712.35,-103.17 706.99,-98.67"/>
</g>
<!-- Node19&#45;&gt;Node2 -->
<g id="edge28" class="edge">
<title>Node19&#45;&gt;Node2</title>
<path fill="none" stroke="#63b8ff" d="M1013.69,-54.51C1022.7,-46.93 1035.83,-35.88 1046.68,-26.75"/>
<polygon fill="#63b8ff" stroke="#63b8ff" points="1048.91,-29.45 1054.31,-20.33 1044.41,-24.09 1048.91,-29.45"/>
</g>
<!-- Node19&#45;&gt;Node7 -->
<g id="edge29" class="edge">
<title>Node19&#45;&gt;Node7</title>
<path fill="none" stroke="#63b8ff" d="M955.26,-74.5C896.81,-84.79 798.55,-101.46 739.68,-111.06"/>
<polygon fill="#63b8ff" stroke="#63b8ff" points="739.25,-107.58 729.94,-112.64 740.37,-114.49 739.25,-107.58"/>
</g>
<!-- Node20&#45;&gt;Node2 -->
<g id="edge31" class="edge">
<title>Node20&#45;&gt;Node2</title>
<path fill="none" stroke="#63b8ff" d="M1127.83,-109.82C1124.41,-97.15 1117.03,-73.12 1106,-55 1099.88,-44.94 1091.34,-35.07 1083.72,-27.19"/>
<polygon fill="#63b8ff" stroke="#63b8ff" points="1086.33,-24.85 1076.76,-20.29 1081.4,-29.82 1086.33,-24.85"/>
</g>
</g>
</svg>
        <g id="navigator" transform="translate(0 0)" fill="#404254">
                <rect fill="#f2f5e9" fill-opacity="0.5" stroke="#606060" stroke-width=".5" x="0" y="0" width="60" height="60"/>
                <use id="zoomplus" xlink:href="#zoomPlus" x="17" y="9" onmousedown="handleZoom(evt,'in')"/>
                <use id="zoomminus" xlink:href="#zoomMin" x="42" y="9" onmousedown="handleZoom(evt,'out')"/>
                <use id="reset" xlink:href="#resetDef" x="30" y="36" onmousedown="handleReset()"/>
                <g id="arrowUp" xlink:href="#dirArrow" transform="translate(30 24)" onmousedown="handlePan(0,-1)">
                  <use xlink:href="#rim" fill="#404040">
                        <set attributeName="fill" to="#808080" begin="arrowUp.mouseover" end="arrowUp.mouseout"/>
                  </use>
                  <path fill="none" stroke="white" stroke-width="1.5" d="M0,-3.0v7 M-2.5,-0.5L0,-3.0L2.5,-0.5"/>
                </g>
                <g id="arrowRight" xlink:href="#dirArrow" transform="rotate(90) translate(36 -43)" onmousedown="handlePan(1,0)">
                  <use xlink:href="#rim" fill="#404040">
                        <set attributeName="fill" to="#808080" begin="arrowRight.mouseover" end="arrowRight.mouseout"/>
                  </use>
                  <path fill="none" stroke="white" stroke-width="1.5" d="M0,-3.0v7 M-2.5,-0.5L0,-3.0L2.5,-0.5"/>
                </g>
                <g id="arrowDown" xlink:href="#dirArrow" transform="rotate(180) translate(-30 -48)" onmousedown="handlePan(0,1)">
                  <use xlink:href="#rim" fill="#404040">
                        <set attributeName="fill" to="#808080" begin="arrowDown.mouseover" end="arrowDown.mouseout"/>
                  </use>
                  <path fill="none" stroke="white" stroke-width="1.5" d="M0,-3.0v7 M-2.5,-0.5L0,-3.0L2.5,-0.5"/>
                </g>
                <g id="arrowLeft" xlink:href="#dirArrow" transform="rotate(270) translate(-36 17)" onmousedown="handlePan(-1,0)">
                  <use xlink:href="#rim" fill="#404040">
                        <set attributeName="fill" to="#808080" begin="arrowLeft.mouseover" end="arrowLeft.mouseout"/>
                  </use>
                  <path fill="none" stroke="white" stroke-width="1.5" d="M0,-3.0v7 M-2.5,-0.5L0,-3.0L2.5,-0.5"/>
                </g>
        </g>
        <svg viewBox="0 0 15 15" width="100%" height="30px" preserveAspectRatio="xMaxYMin meet">
         <g id="arrow_out" transform="scale(0.3 0.3)">
          <a xlink:href="ar_labeling_sub_e_w_i_c_8c__incl_org.svg" target="_base">
           <rect id="button" ry="5" rx="5" y="6" x="6" height="38" width="38"
                fill="#f2f5e9" fill-opacity="0.5" stroke="#606060" stroke-width="1.0"/>
           <path id="arrow"
             d="M 11.500037,31.436501 C 11.940474,20.09759 22.043105,11.32322 32.158766,21.979434 L 37.068811,17.246167 C 37.068811,17.246167 37.088388,32 37.088388,32 L 22.160133,31.978069 C 22.160133,31.978069 26.997745,27.140456 26.997745,27.140456 C 18.528582,18.264221 13.291696,25.230495 11.500037,31.436501 z"
             style="fill:#404040;"/>
          </a>
         </g>
        </svg>
</svg>
