<?xml version="1.0" encoding="UTF-8" standalone="no"?>
<!DOCTYPE svg PUBLIC "-//W3C//DTD SVG 1.1//EN"
 "http://www.w3.org/Graphics/SVG/1.1/DTD/svg11.dtd">
<!-- Generated by graphviz version 7.0.5 (20221223.1930)
 -->
<!-- Title: arMultiReadConfigFile Pages: 1 -->
<!--zoomable 138 -->
<svg id="main" version="1.1" xmlns="http://www.w3.org/2000/svg" xmlns:xlink="http://www.w3.org/1999/xlink" xml:space="preserve" onload="init(evt)">
<style type="text/css"><![CDATA[
.edge:hover path { stroke: red; }
.edge:hover polygon { stroke: red; fill: red; }
]]></style>
<script type="text/javascript"><![CDATA[
var edges = document.getElementsByTagName('g');
if (edges && edges.length) {
  for (var i=0;i<edges.length;i++) {
    if (edges[i].id.substr(0,4)=='edge') {
      edges[i].setAttribute('class','edge');
    }
  }
}
]]></script>
        <defs>
                <circle id="rim" cx="0" cy="0" r="7"/>
                <circle id="rim2" cx="0" cy="0" r="3.5"/>
                <g id="zoomPlus">
                        <use xlink:href="#rim" fill="#404040">
                                <set attributeName="fill" to="#808080" begin="zoomplus.mouseover" end="zoomplus.mouseout"/>
                        </use>
                        <path d="M-4,0h8M0,-4v8" fill="none" stroke="white" stroke-width="1.5" pointer-events="none"/>
                </g>
                <g id="zoomMin">
                        <use xlink:href="#rim" fill="#404040">
                                <set attributeName="fill" to="#808080" begin="zoomminus.mouseover" end="zoomminus.mouseout"/>
                        </use>
                        <path d="M-4,0h8" fill="none" stroke="white" stroke-width="1.5" pointer-events="none"/>
                </g>
                <g id="dirArrow">
                        <path fill="none" stroke="white" stroke-width="1.5" d="M0,-3.0v7 M-2.5,-0.5L0,-3.0L2.5,-0.5"/>
                </g>
               <g id="resetDef">
                       <use xlink:href="#rim2" fill="#404040">
                               <set attributeName="fill" to="#808080" begin="reset.mouseover" end="reset.mouseout"/>
                       </use>
               </g>
        </defs>

<script type="text/javascript">
var viewWidth = 589;
var viewHeight = 138;
var sectionId = 'dynsection-3';
</script>
<script xlink:href="svgpan.js"/>
<svg id="graph" class="graph">
<g id="viewport">
<title>arMultiReadConfigFile</title>
<!-- Node1 -->
<g id="node1" class="node">
<title>Node1</title>
<g id="a_node1"><a xlink:title="Creates a new multi&#45;marker configuration and fills it with the config from the multi&#45;marker config fi...">
<polygon fill="#999999" stroke="#666666" points="113,-74 0,-74 0,-55 113,-55 113,-74"/>
<text text-anchor="middle" x="56.5" y="-62" font-family="Helvetica,sans-Serif" font-size="10.00">arMultiReadConfigFile</text>
</a>
</g>
</g>
<!-- Node2 -->
<g id="node2" class="node">
<title>Node2</title>
<g id="a_node2"><a xlink:href="ar_multi_edit_config_8c.html#ad1fc20004885bcb4b4cb3ee0931df634" target="_top" xlink:title="Creates a new empty multi&#45;marker configuration.">
<polygon fill="white" stroke="#666666" points="279,-130 183,-130 183,-111 279,-111 279,-130"/>
<text text-anchor="middle" x="231" y="-118" font-family="Helvetica,sans-Serif" font-size="10.00">arMultiAllocConfig</text>
</a>
</g>
</g>
<!-- Node1&#45;&gt;Node2 -->
<g id="edge1" class="edge">
<title>Node1&#45;&gt;Node2</title>
<path fill="none" stroke="#63b8ff" d="M78.55,-74.48C96.85,-82.86 124.23,-94.67 149,-102.5 156.2,-104.78 163.84,-106.87 171.45,-108.77"/>
<polygon fill="#63b8ff" stroke="#63b8ff" points="170.5,-112.14 181.04,-111.06 172.13,-105.33 170.5,-112.14"/>
</g>
<!-- Node3 -->
<g id="node3" class="node">
<title>Node3</title>
<g id="a_node3"><a xlink:href="ar_multi_edit_config_8c.html#a7a45fb2f0acb56ddee63efcdaaf654a1" target="_top" xlink:title=" ">
<polygon fill="white" stroke="#666666" points="304.5,-93 157.5,-93 157.5,-74 304.5,-74 304.5,-93"/>
<text text-anchor="middle" x="231" y="-81" font-family="Helvetica,sans-Serif" font-size="10.00">arMultiUpdateSubmarkerPose</text>
</a>
</g>
</g>
<!-- Node1&#45;&gt;Node3 -->
<g id="edge2" class="edge">
<title>Node1&#45;&gt;Node3</title>
<path fill="none" stroke="#63b8ff" d="M113.03,-70.62C123.59,-71.78 134.86,-73.02 146.08,-74.26"/>
<polygon fill="#63b8ff" stroke="#63b8ff" points="145.43,-77.71 155.75,-75.32 146.19,-70.75 145.43,-77.71"/>
</g>
<!-- Node8 -->
<g id="node8" class="node">
<title>Node8</title>
<g id="a_node8"><a xlink:href="ar_patt_load_8c.html#a6c3899cc1122ad7ae5bd93b4c00a64cf" target="_top" xlink:title="Load a pattern file into a pattern handle.">
<polygon fill="white" stroke="#666666" points="263,-56 199,-56 199,-37 263,-37 263,-56"/>
<text text-anchor="middle" x="231" y="-44" font-family="Helvetica,sans-Serif" font-size="10.00">arPattLoad</text>
</a>
</g>
</g>
<!-- Node1&#45;&gt;Node8 -->
<g id="edge7" class="edge">
<title>Node1&#45;&gt;Node8</title>
<path fill="none" stroke="#63b8ff" d="M113.03,-58.71C137.18,-56.19 165.04,-53.28 187.5,-50.93"/>
<polygon fill="#63b8ff" stroke="#63b8ff" points="187.62,-54.44 197.21,-49.92 186.9,-47.48 187.62,-54.44"/>
</g>
<!-- Node11 -->
<g id="node11" class="node">
<title>Node11</title>
<g id="a_node11"><a xlink:href="ar_util_8c.html#aadb50b241c9234d1a23317a1767a39be" target="_top" xlink:title=" ">
<polygon fill="white" stroke="#666666" points="313,-19 149,-19 149,0 313,0 313,-19"/>
<text text-anchor="middle" x="231" y="-7" font-family="Helvetica,sans-Serif" font-size="10.00">arUtilGetDirectoryNameFromPath</text>
</a>
</g>
</g>
<!-- Node1&#45;&gt;Node11 -->
<g id="edge10" class="edge">
<title>Node1&#45;&gt;Node11</title>
<path fill="none" stroke="#63b8ff" d="M80.11,-54.55C98.43,-46.74 125.05,-35.98 149,-28.5 156.23,-26.24 163.89,-24.12 171.5,-22.16"/>
<polygon fill="#63b8ff" stroke="#63b8ff" points="172.24,-25.58 181.11,-19.78 170.56,-18.79 172.24,-25.58"/>
</g>
<!-- Node4 -->
<g id="node4" class="node">
<title>Node4</title>
<g id="a_node4"><a xlink:href="ar_util_8c.html#a97c94e6c703a2e449272302c925944d1" target="_top" xlink:title=" ">
<polygon fill="white" stroke="#666666" points="440.5,-93 370.5,-93 370.5,-74 440.5,-74 440.5,-93"/>
<text text-anchor="middle" x="405.5" y="-81" font-family="Helvetica,sans-Serif" font-size="10.00">arUtilMatInv</text>
</a>
</g>
</g>
<!-- Node3&#45;&gt;Node4 -->
<g id="edge3" class="edge">
<title>Node3&#45;&gt;Node4</title>
<path fill="none" stroke="#63b8ff" d="M304.66,-83.5C323.21,-83.5 342.62,-83.5 359.35,-83.5"/>
<polygon fill="#63b8ff" stroke="#63b8ff" points="358.94,-87 368.94,-83.5 358.94,-80 358.94,-87"/>
</g>
<!-- Node5 -->
<g id="node5" class="node">
<title>Node5</title>
<g id="a_node5"><a xlink:href="m_alloc_8c.html#a69c9a974dc5a3963148ebb2c4a80f969" target="_top" xlink:title=" ">
<polygon fill="white" stroke="#666666" points="576.5,-130 502.5,-130 502.5,-111 576.5,-111 576.5,-130"/>
<text text-anchor="middle" x="539.5" y="-118" font-family="Helvetica,sans-Serif" font-size="10.00">arMatrixAlloc</text>
</a>
</g>
</g>
<!-- Node4&#45;&gt;Node5 -->
<g id="edge4" class="edge">
<title>Node4&#45;&gt;Node5</title>
<path fill="none" stroke="#63b8ff" d="M440.84,-93.12C456.5,-97.52 475.29,-102.78 492.18,-107.52"/>
<polygon fill="#63b8ff" stroke="#63b8ff" points="490.92,-110.8 501.5,-110.13 492.81,-104.06 490.92,-110.8"/>
</g>
<!-- Node6 -->
<g id="node6" class="node">
<title>Node6</title>
<g id="a_node6"><a xlink:href="m_free_8c.html#ac4b7a714cce9fffda773d86363380454" target="_top" xlink:title=" ">
<polygon fill="white" stroke="#666666" points="575,-93 504,-93 504,-74 575,-74 575,-93"/>
<text text-anchor="middle" x="539.5" y="-81" font-family="Helvetica,sans-Serif" font-size="10.00">arMatrixFree</text>
</a>
</g>
</g>
<!-- Node4&#45;&gt;Node6 -->
<g id="edge5" class="edge">
<title>Node4&#45;&gt;Node6</title>
<path fill="none" stroke="#63b8ff" d="M440.84,-83.5C456.6,-83.5 475.52,-83.5 492.5,-83.5"/>
<polygon fill="#63b8ff" stroke="#63b8ff" points="492.36,-87 502.36,-83.5 492.36,-80 492.36,-87"/>
</g>
<!-- Node7 -->
<g id="node7" class="node">
<title>Node7</title>
<g id="a_node7"><a xlink:href="m_self_inv_8c.html#a929738025b539a0c1bbd2f395ad4d981" target="_top" xlink:title=" ">
<polygon fill="white" stroke="#666666" points="581,-56 498,-56 498,-37 581,-37 581,-56"/>
<text text-anchor="middle" x="539.5" y="-44" font-family="Helvetica,sans-Serif" font-size="10.00">arMatrixSelfInv</text>
</a>
</g>
</g>
<!-- Node4&#45;&gt;Node7 -->
<g id="edge6" class="edge">
<title>Node4&#45;&gt;Node7</title>
<path fill="none" stroke="#63b8ff" d="M440.84,-73.88C456.5,-69.48 475.29,-64.22 492.18,-59.48"/>
<polygon fill="#63b8ff" stroke="#63b8ff" points="492.81,-62.94 501.5,-56.87 490.92,-56.2 492.81,-62.94"/>
</g>
<!-- Node9 -->
<g id="node9" class="node">
<title>Node9</title>
<g id="a_node9"><a xlink:href="ar_patt_load_8c.html#a1eb242ab9531966ab8bd8a5379e78792" target="_top" xlink:title=" ">
<polygon fill="white" stroke="#666666" points="462,-56 349,-56 349,-37 462,-37 462,-56"/>
<text text-anchor="middle" x="405.5" y="-44" font-family="Helvetica,sans-Serif" font-size="10.00">arPattLoadFromBuffer</text>
</a>
</g>
</g>
<!-- Node8&#45;&gt;Node9 -->
<g id="edge8" class="edge">
<title>Node8&#45;&gt;Node9</title>
<path fill="none" stroke="#63b8ff" d="M263.24,-46.5C283.96,-46.5 311.95,-46.5 337.55,-46.5"/>
<polygon fill="#63b8ff" stroke="#63b8ff" points="337.21,-50 347.21,-46.5 337.21,-43 337.21,-50"/>
</g>
<!-- Node10 -->
<g id="node10" class="node">
<title>Node10</title>
<g id="a_node10"><a xlink:href="file__utils_8c.html#a21f1c9d5c1f0959f58653362849bd63f" target="_top" xlink:title=" ">
<polygon fill="white" stroke="#666666" points="420.5,-19 390.5,-19 390.5,0 420.5,0 420.5,-19"/>
<text text-anchor="middle" x="405.5" y="-7" font-family="Helvetica,sans-Serif" font-size="10.00">cat</text>
</a>
</g>
</g>
<!-- Node8&#45;&gt;Node10 -->
<g id="edge9" class="edge">
<title>Node8&#45;&gt;Node10</title>
<path fill="none" stroke="#63b8ff" d="M263.24,-39.8C296.49,-32.67 348.48,-21.52 379.25,-14.92"/>
<polygon fill="#63b8ff" stroke="#63b8ff" points="379.76,-18.39 388.81,-12.87 378.29,-11.54 379.76,-18.39"/>
</g>
</g>
</svg>
        <g id="navigator" transform="translate(0 0)" fill="#404254">
                <rect fill="#f2f5e9" fill-opacity="0.5" stroke="#606060" stroke-width=".5" x="0" y="0" width="60" height="60"/>
                <use id="zoomplus" xlink:href="#zoomPlus" x="17" y="9" onmousedown="handleZoom(evt,'in')"/>
                <use id="zoomminus" xlink:href="#zoomMin" x="42" y="9" onmousedown="handleZoom(evt,'out')"/>
                <use id="reset" xlink:href="#resetDef" x="30" y="36" onmousedown="handleReset()"/>
                <g id="arrowUp" xlink:href="#dirArrow" transform="translate(30 24)" onmousedown="handlePan(0,-1)">
                  <use xlink:href="#rim" fill="#404040">
                        <set attributeName="fill" to="#808080" begin="arrowUp.mouseover" end="arrowUp.mouseout"/>
                  </use>
                  <path fill="none" stroke="white" stroke-width="1.5" d="M0,-3.0v7 M-2.5,-0.5L0,-3.0L2.5,-0.5"/>
                </g>
                <g id="arrowRight" xlink:href="#dirArrow" transform="rotate(90) translate(36 -43)" onmousedown="handlePan(1,0)">
                  <use xlink:href="#rim" fill="#404040">
                        <set attributeName="fill" to="#808080" begin="arrowRight.mouseover" end="arrowRight.mouseout"/>
                  </use>
                  <path fill="none" stroke="white" stroke-width="1.5" d="M0,-3.0v7 M-2.5,-0.5L0,-3.0L2.5,-0.5"/>
                </g>
                <g id="arrowDown" xlink:href="#dirArrow" transform="rotate(180) translate(-30 -48)" onmousedown="handlePan(0,1)">
                  <use xlink:href="#rim" fill="#404040">
                        <set attributeName="fill" to="#808080" begin="arrowDown.mouseover" end="arrowDown.mouseout"/>
                  </use>
                  <path fill="none" stroke="white" stroke-width="1.5" d="M0,-3.0v7 M-2.5,-0.5L0,-3.0L2.5,-0.5"/>
                </g>
                <g id="arrowLeft" xlink:href="#dirArrow" transform="rotate(270) translate(-36 17)" onmousedown="handlePan(-1,0)">
                  <use xlink:href="#rim" fill="#404040">
                        <set attributeName="fill" to="#808080" begin="arrowLeft.mouseover" end="arrowLeft.mouseout"/>
                  </use>
                  <path fill="none" stroke="white" stroke-width="1.5" d="M0,-3.0v7 M-2.5,-0.5L0,-3.0L2.5,-0.5"/>
                </g>
        </g>
        <svg viewBox="0 0 15 15" width="100%" height="30px" preserveAspectRatio="xMaxYMin meet">
         <g id="arrow_out" transform="scale(0.3 0.3)">
          <a xlink:href="ar_multi_8h_a05f72b616baa2de9d243a6ebeb5aae05_cgraph_org.svg" target="_base">
           <rect id="button" ry="5" rx="5" y="6" x="6" height="38" width="38"
                fill="#f2f5e9" fill-opacity="0.5" stroke="#606060" stroke-width="1.0"/>
           <path id="arrow"
             d="M 11.500037,31.436501 C 11.940474,20.09759 22.043105,11.32322 32.158766,21.979434 L 37.068811,17.246167 C 37.068811,17.246167 37.088388,32 37.088388,32 L 22.160133,31.978069 C 22.160133,31.978069 26.997745,27.140456 26.997745,27.140456 C 18.528582,18.264221 13.291696,25.230495 11.500037,31.436501 z"
             style="fill:#404040;"/>
          </a>
         </g>
        </svg>
</svg>
