<?xml version="1.0" encoding="UTF-8" standalone="no"?>
<!DOCTYPE svg PUBLIC "-//W3C//DTD SVG 1.1//EN"
 "http://www.w3.org/Graphics/SVG/1.1/DTD/svg11.dtd">
<!-- Generated by graphviz version 8.0.5 (20230430.1635)
 -->
<!-- Title: arMultiAddOrUpdateSubmarker Pages: 1 -->
<svg width="566pt" height="101pt"
 viewBox="0.00 0.00 565.50 101.25" xmlns="http://www.w3.org/2000/svg" xmlns:xlink="http://www.w3.org/1999/xlink">
<g id="graph0" class="graph" transform="scale(1 1) rotate(0) translate(4 97.25)">
<title>arMultiAddOrUpdateSubmarker</title>
<!-- Node1 -->
<g id="node1" class="node">
<title>Node1</title>
<g id="a_node1"><a xlink:title=" ">
<polygon fill="#999999" stroke="#666666" points="151.75,-56.25 0,-56.25 0,-37 151.75,-37 151.75,-56.25"/>
<text text-anchor="middle" x="75.88" y="-42.75" font-family="Helvetica,sans-Serif" font-size="10.00">arMultiAddOrUpdateSubmarker</text>
</a>
</g>
</g>
<!-- Node2 -->
<g id="node2" class="node">
<title>Node2</title>
<g id="a_node2"><a xlink:href="ar_multi_edit_config_8c.html#a7a45fb2f0acb56ddee63efcdaaf654a1" target="_top" xlink:title=" ">
<polygon fill="white" stroke="#666666" points="334.25,-56.25 187.75,-56.25 187.75,-37 334.25,-37 334.25,-56.25"/>
<text text-anchor="middle" x="261" y="-42.75" font-family="Helvetica,sans-Serif" font-size="10.00">arMultiUpdateSubmarkerPose</text>
</a>
</g>
</g>
<!-- Node1&#45;&gt;Node2 -->
<g id="edge1" class="edge">
<title>Node1&#45;&gt;Node2</title>
<path fill="none" stroke="#63b8ff" d="M152.15,-46.62C160.15,-46.62 168.33,-46.62 176.42,-46.62"/>
<polygon fill="#63b8ff" stroke="#63b8ff" points="176.38,-50.13 186.38,-46.62 176.38,-43.13 176.38,-50.13"/>
</g>
<!-- Node3 -->
<g id="node3" class="node">
<title>Node3</title>
<g id="a_node3"><a xlink:href="ar_util_8c.html#a97c94e6c703a2e449272302c925944d1" target="_top" xlink:title=" ">
<polygon fill="white" stroke="#666666" points="439.5,-56.25 370.25,-56.25 370.25,-37 439.5,-37 439.5,-56.25"/>
<text text-anchor="middle" x="404.88" y="-42.75" font-family="Helvetica,sans-Serif" font-size="10.00">arUtilMatInv</text>
</a>
</g>
</g>
<!-- Node2&#45;&gt;Node3 -->
<g id="edge2" class="edge">
<title>Node2&#45;&gt;Node3</title>
<path fill="none" stroke="#63b8ff" d="M334.6,-46.62C343.03,-46.62 351.44,-46.62 359.33,-46.62"/>
<polygon fill="#63b8ff" stroke="#63b8ff" points="359.1,-50.13 369.1,-46.62 359.1,-43.13 359.1,-50.13"/>
</g>
<!-- Node4 -->
<g id="node4" class="node">
<title>Node4</title>
<g id="a_node4"><a xlink:href="m_alloc_8c.html#a69c9a974dc5a3963148ebb2c4a80f969" target="_top" xlink:title=" ">
<polygon fill="white" stroke="#666666" points="553,-93.25 480,-93.25 480,-74 553,-74 553,-93.25"/>
<text text-anchor="middle" x="516.5" y="-79.75" font-family="Helvetica,sans-Serif" font-size="10.00">arMatrixAlloc</text>
</a>
</g>
</g>
<!-- Node3&#45;&gt;Node4 -->
<g id="edge3" class="edge">
<title>Node3&#45;&gt;Node4</title>
<path fill="none" stroke="#63b8ff" d="M435.83,-56.74C448.04,-60.85 462.33,-65.68 475.41,-70.09"/>
<polygon fill="#63b8ff" stroke="#63b8ff" points="473.99,-73.65 484.58,-73.53 476.23,-67.01 473.99,-73.65"/>
</g>
<!-- Node5 -->
<g id="node5" class="node">
<title>Node5</title>
<g id="a_node5"><a xlink:href="m_free_8c.html#ac4b7a714cce9fffda773d86363380454" target="_top" xlink:title=" ">
<polygon fill="white" stroke="#666666" points="551.88,-56.25 481.12,-56.25 481.12,-37 551.88,-37 551.88,-56.25"/>
<text text-anchor="middle" x="516.5" y="-42.75" font-family="Helvetica,sans-Serif" font-size="10.00">arMatrixFree</text>
</a>
</g>
</g>
<!-- Node3&#45;&gt;Node5 -->
<g id="edge4" class="edge">
<title>Node3&#45;&gt;Node5</title>
<path fill="none" stroke="#63b8ff" d="M439.96,-46.62C449.37,-46.62 459.73,-46.62 469.69,-46.62"/>
<polygon fill="#63b8ff" stroke="#63b8ff" points="469.68,-50.13 479.68,-46.62 469.68,-43.13 469.68,-50.13"/>
</g>
<!-- Node6 -->
<g id="node6" class="node">
<title>Node6</title>
<g id="a_node6"><a xlink:href="m_self_inv_8c.html#a929738025b539a0c1bbd2f395ad4d981" target="_top" xlink:title=" ">
<polygon fill="white" stroke="#666666" points="557.5,-19.25 475.5,-19.25 475.5,0 557.5,0 557.5,-19.25"/>
<text text-anchor="middle" x="516.5" y="-5.75" font-family="Helvetica,sans-Serif" font-size="10.00">arMatrixSelfInv</text>
</a>
</g>
</g>
<!-- Node3&#45;&gt;Node6 -->
<g id="edge5" class="edge">
<title>Node3&#45;&gt;Node6</title>
<path fill="none" stroke="#63b8ff" d="M435.83,-36.51C448.04,-32.4 462.33,-27.57 475.41,-23.16"/>
<polygon fill="#63b8ff" stroke="#63b8ff" points="476.23,-26.24 484.58,-19.72 473.99,-19.6 476.23,-26.24"/>
</g>
</g>
</svg>
