<?xml version="1.0" encoding="UTF-8" standalone="no"?>
<!DOCTYPE svg PUBLIC "-//W3C//DTD SVG 1.1//EN"
 "http://www.w3.org/Graphics/SVG/1.1/DTD/svg11.dtd">
<!-- Generated by graphviz version 2.40.1 (20161225.0304)
 -->
<!-- Title: /Users/phil/r/artoolkitx/Source/ARX/AR/include/ARX/AR/arMulti.h Pages: 1 -->
<svg width="1679pt" height="337pt"
 viewBox="0.00 0.00 1679.34 337.00" xmlns="http://www.w3.org/2000/svg" xmlns:xlink="http://www.w3.org/1999/xlink">
<g id="graph0" class="graph" transform="scale(1 1) rotate(0) translate(4 333)">
<title>/Users/phil/r/artoolkitx/Source/ARX/AR/include/ARX/AR/arMulti.h</title>
<polygon fill="#ffffff" stroke="transparent" points="-4,4 -4,-333 1675.3394,-333 1675.3394,4 -4,4"/>
<!-- Node18 -->
<g id="node1" class="node">
<title>Node18</title>
<polygon fill="#bfbfbf" stroke="#000000" points="425.7808,-290.5 425.7808,-328.5 550.7212,-328.5 550.7212,-290.5 425.7808,-290.5"/>
<text text-anchor="start" x="433.7808" y="-316.5" font-family="Helvetica,sans-Serif" font-size="10.00" fill="#000000">/Users/phil/r/artoolkitx</text>
<text text-anchor="start" x="433.7808" y="-306.5" font-family="Helvetica,sans-Serif" font-size="10.00" fill="#000000">/Source/ARX/AR/include</text>
<text text-anchor="middle" x="488.251" y="-296.5" font-family="Helvetica,sans-Serif" font-size="10.00" fill="#000000">/ARX/AR/arMulti.h</text>
</g>
<!-- Node19 -->
<g id="node2" class="node">
<title>Node19</title>
<g id="a_node2"><a xlink:href="ar_multi_free_config_8c.html" target="_top" xlink:title="/Users/phil/r/artoolkitx\l/Source/ARX/AR/arMultiFreeConfig.c">
<polygon fill="#ffffff" stroke="#000000" points="0,-220.5 0,-248.5 180.502,-248.5 180.502,-220.5 0,-220.5"/>
<text text-anchor="start" x="8" y="-236.5" font-family="Helvetica,sans-Serif" font-size="10.00" fill="#000000">/Users/phil/r/artoolkitx</text>
<text text-anchor="middle" x="90.251" y="-226.5" font-family="Helvetica,sans-Serif" font-size="10.00" fill="#000000">/Source/ARX/AR/arMultiFreeConfig.c</text>
</a>
</g>
</g>
<!-- Node18&#45;&gt;Node19 -->
<g id="edge1" class="edge">
<title>Node18&#45;&gt;Node19</title>
<path fill="none" stroke="#191970" d="M415.6546,-296.2544C355.0791,-285.147 266.4947,-268.7758 189.251,-254 180.1319,-252.2556 170.5454,-250.3977 161.0758,-248.5481"/>
<polygon fill="#191970" stroke="#191970" points="415.037,-299.6995 425.5041,-298.0594 416.2988,-292.8141 415.037,-299.6995"/>
</g>
<!-- Node20 -->
<g id="node3" class="node">
<title>Node20</title>
<g id="a_node3"><a xlink:href="ar_multi_get_trans_mat_8c.html" target="_top" xlink:title="/Users/phil/r/artoolkitx\l/Source/ARX/AR/arMultiGetTransMat.c">
<polygon fill="#ffffff" stroke="#000000" points="198.7422,-220.5 198.7422,-248.5 387.7598,-248.5 387.7598,-220.5 198.7422,-220.5"/>
<text text-anchor="start" x="206.7422" y="-236.5" font-family="Helvetica,sans-Serif" font-size="10.00" fill="#000000">/Users/phil/r/artoolkitx</text>
<text text-anchor="middle" x="293.251" y="-226.5" font-family="Helvetica,sans-Serif" font-size="10.00" fill="#000000">/Source/ARX/AR/arMultiGetTransMat.c</text>
</a>
</g>
</g>
<!-- Node18&#45;&gt;Node20 -->
<g id="edge2" class="edge">
<title>Node18&#45;&gt;Node20</title>
<path fill="none" stroke="#191970" d="M429.4044,-286.8667C396.973,-274.3931 357.7335,-259.301 329.7275,-248.5294"/>
<polygon fill="#191970" stroke="#191970" points="428.2022,-290.1542 438.7922,-290.4774 430.7151,-283.6208 428.2022,-290.1542"/>
</g>
<!-- Node21 -->
<g id="node4" class="node">
<title>Node21</title>
<g id="a_node4"><a xlink:href="ar_multi_get_trans_mat_stereo_8c.html" target="_top" xlink:title="/Users/phil/r/artoolkitx\l/Source/ARX/AR/arMultiGetTrans\lMatStereo.c">
<polygon fill="#ffffff" stroke="#000000" points="405.9663,-215.5 405.9663,-253.5 570.5356,-253.5 570.5356,-215.5 405.9663,-215.5"/>
<text text-anchor="start" x="413.9663" y="-241.5" font-family="Helvetica,sans-Serif" font-size="10.00" fill="#000000">/Users/phil/r/artoolkitx</text>
<text text-anchor="start" x="413.9663" y="-231.5" font-family="Helvetica,sans-Serif" font-size="10.00" fill="#000000">/Source/ARX/AR/arMultiGetTrans</text>
<text text-anchor="middle" x="488.251" y="-221.5" font-family="Helvetica,sans-Serif" font-size="10.00" fill="#000000">MatStereo.c</text>
</a>
</g>
</g>
<!-- Node18&#45;&gt;Node21 -->
<g id="edge3" class="edge">
<title>Node18&#45;&gt;Node21</title>
<path fill="none" stroke="#191970" d="M488.251,-279.8977C488.251,-271.1033 488.251,-261.7019 488.251,-253.7489"/>
<polygon fill="#191970" stroke="#191970" points="484.7511,-280.1856 488.251,-290.1856 491.7511,-280.1857 484.7511,-280.1856"/>
</g>
<!-- Node22 -->
<g id="node5" class="node">
<title>Node22</title>
<g id="a_node5"><a xlink:href="ar_multi_read_config_file_8c.html" target="_top" xlink:title="/Users/phil/r/artoolkitx\l/Source/ARX/AR/arMultiReadConfig\lFile.c">
<polygon fill="#ffffff" stroke="#000000" points="588.2168,-215.5 588.2168,-253.5 764.2852,-253.5 764.2852,-215.5 588.2168,-215.5"/>
<text text-anchor="start" x="596.2168" y="-241.5" font-family="Helvetica,sans-Serif" font-size="10.00" fill="#000000">/Users/phil/r/artoolkitx</text>
<text text-anchor="start" x="596.2168" y="-231.5" font-family="Helvetica,sans-Serif" font-size="10.00" fill="#000000">/Source/ARX/AR/arMultiReadConfig</text>
<text text-anchor="middle" x="676.251" y="-221.5" font-family="Helvetica,sans-Serif" font-size="10.00" fill="#000000">File.c</text>
</a>
</g>
</g>
<!-- Node18&#45;&gt;Node22 -->
<g id="edge4" class="edge">
<title>Node18&#45;&gt;Node22</title>
<path fill="none" stroke="#191970" d="M545.7048,-286.5796C572.1789,-276.0181 603.234,-263.6291 628.4117,-253.5848"/>
<polygon fill="#191970" stroke="#191970" points="544.169,-283.424 536.1778,-290.3803 546.7628,-289.9257 544.169,-283.424"/>
</g>
<!-- Node23 -->
<g id="node6" class="node">
<title>Node23</title>
<g id="a_node6"><a xlink:href="_a_r_trackable_multi_square_8h.html" target="_top" xlink:title="/Users/phil/r/artoolkitx\l/Source/ARX/include/ARX\l/ARTrackableMultiSquare.h">
<polygon fill="#ffffff" stroke="#000000" points="782.3843,-215.5 782.3843,-253.5 920.1177,-253.5 920.1177,-215.5 782.3843,-215.5"/>
<text text-anchor="start" x="790.3843" y="-241.5" font-family="Helvetica,sans-Serif" font-size="10.00" fill="#000000">/Users/phil/r/artoolkitx</text>
<text text-anchor="start" x="790.3843" y="-231.5" font-family="Helvetica,sans-Serif" font-size="10.00" fill="#000000">/Source/ARX/include/ARX</text>
<text text-anchor="middle" x="851.251" y="-221.5" font-family="Helvetica,sans-Serif" font-size="10.00" fill="#000000">/ARTrackableMultiSquare.h</text>
</a>
</g>
</g>
<!-- Node18&#45;&gt;Node23 -->
<g id="edge5" class="edge">
<title>Node18&#45;&gt;Node23</title>
<path fill="none" stroke="#191970" d="M561.1144,-296.4041C618.8289,-285.7678 701.4142,-269.9626 773.251,-254 776.1125,-253.3642 779.0293,-252.7014 781.9733,-252.0205"/>
<polygon fill="#191970" stroke="#191970" points="560.1983,-293.0138 550.9953,-298.263 561.4631,-299.8986 560.1983,-293.0138"/>
</g>
<!-- Node24 -->
<g id="node7" class="node">
<title>Node24</title>
<g id="a_node7"><a xlink:href="_a_r_trackable_8cpp.html" target="_top" xlink:title="/Users/phil/r/artoolkitx\l/Source/ARX/ARTrackable.cpp">
<polygon fill="#ffffff" stroke="#000000" points="433.8818,-.5 433.8818,-28.5 586.6201,-28.5 586.6201,-.5 433.8818,-.5"/>
<text text-anchor="start" x="441.8818" y="-16.5" font-family="Helvetica,sans-Serif" font-size="10.00" fill="#000000">/Users/phil/r/artoolkitx</text>
<text text-anchor="middle" x="510.251" y="-6.5" font-family="Helvetica,sans-Serif" font-size="10.00" fill="#000000">/Source/ARX/ARTrackable.cpp</text>
</a>
</g>
</g>
<!-- Node23&#45;&gt;Node24 -->
<g id="edge6" class="edge">
<title>Node23&#45;&gt;Node24</title>
<path fill="none" stroke="#191970" d="M812.8432,-209.7208C741.1618,-163.4747 589.1327,-65.3914 532.2998,-28.725"/>
<polygon fill="#191970" stroke="#191970" points="811.2855,-212.881 821.586,-215.3613 815.0805,-206.9989 811.2855,-212.881"/>
</g>
<!-- Node25 -->
<g id="node8" class="node">
<title>Node25</title>
<g id="a_node8"><a xlink:href="_a_r_trackable_multi_square_8cpp.html" target="_top" xlink:title="/Users/phil/r/artoolkitx\l/Source/ARX/ARTrackableMultiSquare.cpp">
<polygon fill="#ffffff" stroke="#000000" points="604.2021,-.5 604.2021,-28.5 810.2998,-28.5 810.2998,-.5 604.2021,-.5"/>
<text text-anchor="start" x="612.2021" y="-16.5" font-family="Helvetica,sans-Serif" font-size="10.00" fill="#000000">/Users/phil/r/artoolkitx</text>
<text text-anchor="middle" x="707.251" y="-6.5" font-family="Helvetica,sans-Serif" font-size="10.00" fill="#000000">/Source/ARX/ARTrackableMultiSquare.cpp</text>
</a>
</g>
</g>
<!-- Node23&#45;&gt;Node25 -->
<g id="edge7" class="edge">
<title>Node23&#45;&gt;Node25</title>
<path fill="none" stroke="#191970" d="M833.1408,-206.8316C802.1633,-159.5049 740.0729,-64.6446 716.5619,-28.725"/>
<polygon fill="#191970" stroke="#191970" points="830.3187,-208.9111 838.7238,-215.3613 836.1757,-205.0774 830.3187,-208.9111"/>
</g>
<!-- Node26 -->
<g id="node9" class="node">
<title>Node26</title>
<g id="a_node9"><a xlink:href="_a_r_tracker_square_8cpp.html" target="_top" xlink:title="/Users/phil/r/artoolkitx\l/Source/ARX/ARTrackerSquare.cpp">
<polygon fill="#ffffff" stroke="#000000" points="982.7661,-70.5 982.7661,-98.5 1157.7358,-98.5 1157.7358,-70.5 982.7661,-70.5"/>
<text text-anchor="start" x="990.7661" y="-86.5" font-family="Helvetica,sans-Serif" font-size="10.00" fill="#000000">/Users/phil/r/artoolkitx</text>
<text text-anchor="middle" x="1070.251" y="-76.5" font-family="Helvetica,sans-Serif" font-size="10.00" fill="#000000">/Source/ARX/ARTrackerSquare.cpp</text>
</a>
</g>
</g>
<!-- Node23&#45;&gt;Node26 -->
<g id="edge8" class="edge">
<title>Node23&#45;&gt;Node26</title>
<path fill="none" stroke="#191970" d="M913.7018,-211.4091C933.8429,-202.6543 955.7318,-191.6886 974.251,-179 1008.785,-155.3387 1041.9604,-118.5645 1058.7932,-98.5832"/>
<polygon fill="#191970" stroke="#191970" points="912.1258,-208.2756 904.2843,-215.4004 914.8574,-214.7207 912.1258,-208.2756"/>
</g>
<!-- Node27 -->
<g id="node10" class="node">
<title>Node27</title>
<g id="a_node10"><a xlink:href="_a_r_tracker_square_8h.html" target="_top" xlink:title="/Users/phil/r/artoolkitx\l/Source/ARX/include/ARX\l/ARTrackerSquare.h">
<polygon fill="#ffffff" stroke="#000000" points="833.4458,-140.5 833.4458,-178.5 965.0562,-178.5 965.0562,-140.5 833.4458,-140.5"/>
<text text-anchor="start" x="841.4458" y="-166.5" font-family="Helvetica,sans-Serif" font-size="10.00" fill="#000000">/Users/phil/r/artoolkitx</text>
<text text-anchor="start" x="841.4458" y="-156.5" font-family="Helvetica,sans-Serif" font-size="10.00" fill="#000000">/Source/ARX/include/ARX</text>
<text text-anchor="middle" x="899.251" y="-146.5" font-family="Helvetica,sans-Serif" font-size="10.00" fill="#000000">/ARTrackerSquare.h</text>
</a>
</g>
</g>
<!-- Node23&#45;&gt;Node27 -->
<g id="edge9" class="edge">
<title>Node23&#45;&gt;Node27</title>
<path fill="none" stroke="#191970" d="M869.0886,-206.6287C875.0274,-197.3494 881.5062,-187.2263 886.9317,-178.7489"/>
<polygon fill="#191970" stroke="#191970" points="866.0548,-204.8762 863.6122,-215.1856 871.9507,-208.6496 866.0548,-204.8762"/>
</g>
<!-- Node27&#45;&gt;Node26 -->
<g id="edge10" class="edge">
<title>Node27&#45;&gt;Node26</title>
<path fill="none" stroke="#191970" d="M952.1441,-136.3013C980.257,-123.9711 1013.9018,-109.2145 1038.0778,-98.6111"/>
<polygon fill="#191970" stroke="#191970" points="950.596,-133.1583 942.8439,-140.3803 953.4077,-139.5689 950.596,-133.1583"/>
</g>
<!-- Node28 -->
<g id="node11" class="node">
<title>Node28</title>
<g id="a_node11"><a xlink:href="_a_r_controller_8h.html" target="_top" xlink:title="/Users/phil/r/artoolkitx\l/Source/ARX/include/ARX\l/ARController.h">
<polygon fill="#ffffff" stroke="#000000" points="833.4458,-65.5 833.4458,-103.5 965.0562,-103.5 965.0562,-65.5 833.4458,-65.5"/>
<text text-anchor="start" x="841.4458" y="-91.5" font-family="Helvetica,sans-Serif" font-size="10.00" fill="#000000">/Users/phil/r/artoolkitx</text>
<text text-anchor="start" x="841.4458" y="-81.5" font-family="Helvetica,sans-Serif" font-size="10.00" fill="#000000">/Source/ARX/include/ARX</text>
<text text-anchor="middle" x="899.251" y="-71.5" font-family="Helvetica,sans-Serif" font-size="10.00" fill="#000000">/ARController.h</text>
</a>
</g>
</g>
<!-- Node27&#45;&gt;Node28 -->
<g id="edge11" class="edge">
<title>Node27&#45;&gt;Node28</title>
<path fill="none" stroke="#191970" d="M899.251,-129.8977C899.251,-121.1033 899.251,-111.7019 899.251,-103.7489"/>
<polygon fill="#191970" stroke="#191970" points="895.7511,-130.1856 899.251,-140.1856 902.7511,-130.1857 895.7511,-130.1856"/>
</g>
<!-- Node28&#45;&gt;Node24 -->
<g id="edge14" class="edge">
<title>Node28&#45;&gt;Node24</title>
<path fill="none" stroke="#191970" d="M823.012,-70.7809C754.7914,-58.5047 655.2832,-40.5983 586.9289,-28.2981"/>
<polygon fill="#191970" stroke="#191970" points="822.8006,-74.299 833.2624,-72.6255 824.0404,-67.4097 822.8006,-74.299"/>
</g>
<!-- Node28&#45;&gt;Node25 -->
<g id="edge15" class="edge">
<title>Node28&#45;&gt;Node25</title>
<path fill="none" stroke="#191970" d="M837.4523,-61.9692C807.3073,-50.9789 771.9863,-38.1014 745.7444,-28.534"/>
<polygon fill="#191970" stroke="#191970" points="836.4458,-65.3276 847.0397,-65.4647 838.8435,-58.751 836.4458,-65.3276"/>
</g>
<!-- Node29 -->
<g id="node12" class="node">
<title>Node29</title>
<g id="a_node12"><a xlink:href="_a_r_controller_8cpp.html" target="_top" xlink:title="/Users/phil/r/artoolkitx\l/Source/ARX/ARController.cpp">
<polygon fill="#ffffff" stroke="#000000" points="1519.1626,-.5 1519.1626,-28.5 1671.3394,-28.5 1671.3394,-.5 1519.1626,-.5"/>
<text text-anchor="start" x="1527.1626" y="-16.5" font-family="Helvetica,sans-Serif" font-size="10.00" fill="#000000">/Users/phil/r/artoolkitx</text>
<text text-anchor="middle" x="1595.251" y="-6.5" font-family="Helvetica,sans-Serif" font-size="10.00" fill="#000000">/Source/ARX/ARController.cpp</text>
</a>
</g>
</g>
<!-- Node28&#45;&gt;Node29 -->
<g id="edge12" class="edge">
<title>Node28&#45;&gt;Node29</title>
<path fill="none" stroke="#191970" d="M975.2917,-65.001C1211.6942,-27.6108 1276.3943,-56.7269 1510.251,-29 1513.0755,-28.6651 1515.949,-28.3001 1518.8486,-27.9112"/>
<polygon fill="#191970" stroke="#191970" points="974.6803,-61.5542 965.3612,-66.5945 975.7895,-68.4658 974.6803,-61.5542"/>
</g>
<!-- Node30 -->
<g id="node13" class="node">
<title>Node30</title>
<g id="a_node13"><a xlink:href="_a_r_pattern_8cpp.html" target="_top" xlink:title="/Users/phil/r/artoolkitx\l/Source/ARX/ARPattern.cpp">
<polygon fill="#ffffff" stroke="#000000" points="828.4434,-.5 828.4434,-28.5 970.0586,-28.5 970.0586,-.5 828.4434,-.5"/>
<text text-anchor="start" x="836.4434" y="-16.5" font-family="Helvetica,sans-Serif" font-size="10.00" fill="#000000">/Users/phil/r/artoolkitx</text>
<text text-anchor="middle" x="899.251" y="-6.5" font-family="Helvetica,sans-Serif" font-size="10.00" fill="#000000">/Source/ARX/ARPattern.cpp</text>
</a>
</g>
</g>
<!-- Node28&#45;&gt;Node30 -->
<g id="edge13" class="edge">
<title>Node28&#45;&gt;Node30</title>
<path fill="none" stroke="#191970" d="M899.251,-55.1346C899.251,-46.0837 899.251,-36.5165 899.251,-28.9404"/>
<polygon fill="#191970" stroke="#191970" points="895.7511,-55.3722 899.251,-65.3722 902.7511,-55.3722 895.7511,-55.3722"/>
</g>
<!-- Node31 -->
<g id="node14" class="node">
<title>Node31</title>
<g id="a_node14"><a xlink:href="_a_r_trackable_square_8cpp.html" target="_top" xlink:title="/Users/phil/r/artoolkitx\l/Source/ARX/ARTrackableSquare.cpp">
<polygon fill="#ffffff" stroke="#000000" points="987.7588,-.5 987.7588,-28.5 1172.7432,-28.5 1172.7432,-.5 987.7588,-.5"/>
<text text-anchor="start" x="995.7588" y="-16.5" font-family="Helvetica,sans-Serif" font-size="10.00" fill="#000000">/Users/phil/r/artoolkitx</text>
<text text-anchor="middle" x="1080.251" y="-6.5" font-family="Helvetica,sans-Serif" font-size="10.00" fill="#000000">/Source/ARX/ARTrackableSquare.cpp</text>
</a>
</g>
</g>
<!-- Node28&#45;&gt;Node31 -->
<g id="edge16" class="edge">
<title>Node28&#45;&gt;Node31</title>
<path fill="none" stroke="#191970" d="M958.0809,-61.7481C986.2999,-50.8347 1019.2199,-38.1032 1043.7727,-28.6076"/>
<polygon fill="#191970" stroke="#191970" points="956.7743,-58.5007 948.71,-65.3722 959.2993,-65.0295 956.7743,-58.5007"/>
</g>
<!-- Node32 -->
<g id="node15" class="node">
<title>Node32</title>
<g id="a_node15"><a xlink:href="_a_r_video_source_8cpp.html" target="_top" xlink:title="/Users/phil/r/artoolkitx\l/Source/ARX/ARVideoSource.cpp">
<polygon fill="#ffffff" stroke="#000000" points="1191.1094,-.5 1191.1094,-28.5 1357.3926,-28.5 1357.3926,-.5 1191.1094,-.5"/>
<text text-anchor="start" x="1199.1094" y="-16.5" font-family="Helvetica,sans-Serif" font-size="10.00" fill="#000000">/Users/phil/r/artoolkitx</text>
<text text-anchor="middle" x="1274.251" y="-6.5" font-family="Helvetica,sans-Serif" font-size="10.00" fill="#000000">/Source/ARX/ARVideoSource.cpp</text>
</a>
</g>
</g>
<!-- Node28&#45;&gt;Node32 -->
<g id="edge17" class="edge">
<title>Node28&#45;&gt;Node32</title>
<path fill="none" stroke="#191970" d="M975.2296,-64.9081C1027.1529,-54.3189 1121.4209,-38.833 1190.7704,-27.7124"/>
<polygon fill="#191970" stroke="#191970" points="974.5011,-61.4847 965.4295,-66.958 975.9342,-68.3364 974.5011,-61.4847"/>
</g>
<!-- Node33 -->
<g id="node16" class="node">
<title>Node33</title>
<g id="a_node16"><a xlink:href="_a_r_x__c_8cpp.html" target="_top" xlink:title="/Users/phil/r/artoolkitx\l/Source/ARX/ARX_c.cpp">
<polygon fill="#ffffff" stroke="#000000" points="1374.9482,-.5 1374.9482,-28.5 1501.5537,-28.5 1501.5537,-.5 1374.9482,-.5"/>
<text text-anchor="start" x="1382.9482" y="-16.5" font-family="Helvetica,sans-Serif" font-size="10.00" fill="#000000">/Users/phil/r/artoolkitx</text>
<text text-anchor="middle" x="1438.251" y="-6.5" font-family="Helvetica,sans-Serif" font-size="10.00" fill="#000000">/Source/ARX/ARX_c.cpp</text>
</a>
</g>
</g>
<!-- Node28&#45;&gt;Node33 -->
<g id="edge18" class="edge">
<title>Node28&#45;&gt;Node33</title>
<path fill="none" stroke="#191970" d="M975.3263,-64.9665C1148.3662,-35.5932 1196.3476,-53.837 1366.251,-29 1369.0267,-28.5942 1371.8571,-28.1511 1374.7122,-27.6801"/>
<polygon fill="#191970" stroke="#191970" points="974.6352,-61.534 965.3763,-66.6842 975.826,-68.432 974.6352,-61.534"/>
</g>
</g>
</svg>
