<?xml version="1.0" encoding="UTF-8" standalone="no"?>
<!DOCTYPE svg PUBLIC "-//W3C//DTD SVG 1.1//EN"
 "http://www.w3.org/Graphics/SVG/1.1/DTD/svg11.dtd">
<!-- Generated by graphviz version 2.40.1 (20161225.0304)
 -->
<!-- Title: Source/ARX/AR/arMultiReadConfigFile.c Pages: 1 -->
<svg width="998pt" height="257pt"
 viewBox="0.00 0.00 997.72 257.00" xmlns="http://www.w3.org/2000/svg" xmlns:xlink="http://www.w3.org/1999/xlink">
<g id="graph0" class="graph" transform="scale(1 1) rotate(0) translate(4 253)">
<title>Source/ARX/AR/arMultiReadConfigFile.c</title>
<polygon fill="#ffffff" stroke="transparent" points="-4,4 -4,-253 993.7227,-253 993.7227,4 -4,4"/>
<!-- Node0 -->
<g id="node1" class="node">
<title>Node0</title>
<polygon fill="#bfbfbf" stroke="#000000" points="323.2046,-220.5 323.2046,-248.5 467.5884,-248.5 467.5884,-220.5 323.2046,-220.5"/>
<text text-anchor="start" x="331.2046" y="-236.5" font-family="Helvetica,sans-Serif" font-size="10.00" fill="#000000">Source/ARX/AR/arMultiRead</text>
<text text-anchor="middle" x="395.3965" y="-226.5" font-family="Helvetica,sans-Serif" font-size="10.00" fill="#000000">ConfigFile.c</text>
</g>
<!-- Node1 -->
<g id="node2" class="node">
<title>Node1</title>
<polygon fill="#ffffff" stroke="#bfbfbf" points="428.665,-.5 428.665,-18.5 474.1279,-18.5 474.1279,-.5 428.665,-.5"/>
<text text-anchor="middle" x="451.3965" y="-6.5" font-family="Helvetica,sans-Serif" font-size="10.00" fill="#000000">stdio.h</text>
</g>
<!-- Node0&#45;&gt;Node1 -->
<g id="edge1" class="edge">
<title>Node0&#45;&gt;Node1</title>
<path fill="none" stroke="#191970" d="M388.8015,-220.3387C375.0103,-188.4785 346.8307,-109.6752 377.3965,-55 386.3552,-38.9749 403.5269,-27.9018 419.0749,-20.6948"/>
<polygon fill="#191970" stroke="#191970" points="420.6298,-23.8368 428.4579,-16.6973 417.8862,-17.3969 420.6298,-23.8368"/>
</g>
<!-- Node2 -->
<g id="node3" class="node">
<title>Node2</title>
<polygon fill="#ffffff" stroke="#bfbfbf" points="76.5542,-.5 76.5542,-18.5 124.2388,-18.5 124.2388,-.5 76.5542,-.5"/>
<text text-anchor="middle" x="100.3965" y="-6.5" font-family="Helvetica,sans-Serif" font-size="10.00" fill="#000000">stdlib.h</text>
</g>
<!-- Node0&#45;&gt;Node2 -->
<g id="edge2" class="edge">
<title>Node0&#45;&gt;Node2</title>
<path fill="none" stroke="#191970" d="M335.9822,-220.4991C266.7824,-200.723 155.3362,-157.3356 103.3965,-74 95.0583,-60.6216 94.9755,-42.4784 96.5944,-28.842"/>
<polygon fill="#191970" stroke="#191970" points="100.101,-29.0759 98.2107,-18.651 93.1874,-27.9793 100.101,-29.0759"/>
</g>
<!-- Node3 -->
<g id="node4" class="node">
<title>Node3</title>
<polygon fill="#ffffff" stroke="#bfbfbf" points="0,-.5 0,-18.5 48.793,-18.5 48.793,-.5 0,-.5"/>
<text text-anchor="middle" x="24.3965" y="-6.5" font-family="Helvetica,sans-Serif" font-size="10.00" fill="#000000">string.h</text>
</g>
<!-- Node0&#45;&gt;Node3 -->
<g id="edge3" class="edge">
<title>Node0&#45;&gt;Node3</title>
<path fill="none" stroke="#191970" d="M322.9018,-222.8719C285.3471,-215.078 239.5013,-202.7308 201.3965,-184 132.5552,-150.1603 119.087,-131.5736 68.3965,-74 55.5662,-59.4275 43.319,-40.9701 35.0189,-27.5371"/>
<polygon fill="#191970" stroke="#191970" points="37.8889,-25.519 29.7209,-18.7711 31.8981,-29.1398 37.8889,-25.519"/>
</g>
<!-- Node4 -->
<g id="node5" class="node">
<title>Node4</title>
<polygon fill="#ffffff" stroke="#bfbfbf" points="943.1108,-.5 943.1108,-18.5 989.6821,-18.5 989.6821,-.5 943.1108,-.5"/>
<text text-anchor="middle" x="966.3965" y="-6.5" font-family="Helvetica,sans-Serif" font-size="10.00" fill="#000000">math.h</text>
</g>
<!-- Node0&#45;&gt;Node4 -->
<g id="edge4" class="edge">
<title>Node0&#45;&gt;Node4</title>
<path fill="none" stroke="#191970" d="M467.7241,-225.6752C610.7706,-206.5786 921.4624,-156.3781 984.3965,-74 994.7185,-60.4889 987.3721,-41.3644 979.1761,-27.4498"/>
<polygon fill="#191970" stroke="#191970" points="981.9411,-25.28 973.5728,-18.782 976.0624,-29.0802 981.9411,-25.28"/>
</g>
<!-- Node5 -->
<g id="node6" class="node">
<title>Node5</title>
<g id="a_node6"><a xlink:href="ar_8h.html" target="_top" xlink:title="artoolkitX core routines. ">
<polygon fill="#ffffff" stroke="#000000" points="426.0493,-110.5 426.0493,-128.5 498.7437,-128.5 498.7437,-110.5 426.0493,-110.5"/>
<text text-anchor="middle" x="462.3965" y="-116.5" font-family="Helvetica,sans-Serif" font-size="10.00" fill="#000000">ARX/AR/ar.h</text>
</a>
</g>
</g>
<!-- Node0&#45;&gt;Node5 -->
<g id="edge5" class="edge">
<title>Node0&#45;&gt;Node5</title>
<path fill="none" stroke="#191970" d="M443.5208,-220.3817C461.1333,-212.6262 479.2238,-201.0128 489.3965,-184 498.4931,-168.7867 488.429,-149.9444 478.1023,-136.5622"/>
<polygon fill="#191970" stroke="#191970" points="480.5804,-134.0699 471.477,-128.6496 475.2134,-138.5638 480.5804,-134.0699"/>
</g>
<!-- Node18 -->
<g id="node19" class="node">
<title>Node18</title>
<g id="a_node19"><a xlink:href="ar_multi_8h.html" target="_top" xlink:title="ARX/AR/arMulti.h">
<polygon fill="#ffffff" stroke="#000000" points="386.2192,-165.5 386.2192,-183.5 480.5737,-183.5 480.5737,-165.5 386.2192,-165.5"/>
<text text-anchor="middle" x="433.3965" y="-171.5" font-family="Helvetica,sans-Serif" font-size="10.00" fill="#000000">ARX/AR/arMulti.h</text>
</a>
</g>
</g>
<!-- Node0&#45;&gt;Node18 -->
<g id="edge29" class="edge">
<title>Node0&#45;&gt;Node18</title>
<path fill="none" stroke="#191970" d="M404.402,-220.2808C409.7448,-211.8448 416.5617,-201.0813 422.243,-192.1107"/>
<polygon fill="#191970" stroke="#191970" points="425.2495,-193.9051 427.6432,-183.5842 419.3357,-190.1597 425.2495,-193.9051"/>
</g>
<!-- Node5&#45;&gt;Node1 -->
<g id="edge6" class="edge">
<title>Node5&#45;&gt;Node1</title>
<path fill="none" stroke="#191970" d="M461.4963,-110.4982C459.7156,-92.6913 455.7087,-52.6225 453.3116,-28.6515"/>
<polygon fill="#191970" stroke="#191970" points="456.7869,-28.2282 452.3091,-18.6261 449.8216,-28.9248 456.7869,-28.2282"/>
</g>
<!-- Node5&#45;&gt;Node2 -->
<g id="edge7" class="edge">
<title>Node5&#45;&gt;Node2</title>
<path fill="none" stroke="#191970" d="M425.8155,-116.8909C342.1808,-110.6109 142.4107,-93.7056 119.3965,-74 106.3949,-62.8675 102.0538,-43.3283 100.7177,-28.6644"/>
<polygon fill="#191970" stroke="#191970" points="104.2099,-28.4228 100.1881,-18.6211 97.2196,-28.7915 104.2099,-28.4228"/>
</g>
<!-- Node5&#45;&gt;Node3 -->
<g id="edge9" class="edge">
<title>Node5&#45;&gt;Node3</title>
<path fill="none" stroke="#191970" d="M425.7718,-117.4224C346.3729,-112.5067 160.9131,-98.6833 103.3965,-74 78.1358,-63.1594 54.4593,-41.7457 39.7358,-26.5698"/>
<polygon fill="#191970" stroke="#191970" points="41.92,-23.7827 32.5239,-18.8873 36.8163,-28.5737 41.92,-23.7827"/>
</g>
<!-- Node6 -->
<g id="node7" class="node">
<title>Node6</title>
<polygon fill="#ffffff" stroke="#bfbfbf" points="386.2759,-55.5 386.2759,-73.5 434.5171,-73.5 434.5171,-55.5 386.2759,-55.5"/>
<text text-anchor="middle" x="410.3965" y="-61.5" font-family="Helvetica,sans-Serif" font-size="10.00" fill="#000000">stdint.h</text>
</g>
<!-- Node5&#45;&gt;Node6 -->
<g id="edge8" class="edge">
<title>Node5&#45;&gt;Node6</title>
<path fill="none" stroke="#191970" d="M453.8097,-110.4179C446.3277,-102.5041 435.2849,-90.8243 426.2093,-81.2251"/>
<polygon fill="#191970" stroke="#191970" points="428.5832,-78.6414 419.1698,-73.7795 423.4967,-83.4505 428.5832,-78.6414"/>
</g>
<!-- Node7 -->
<g id="node8" class="node">
<title>Node7</title>
<polygon fill="#ffffff" stroke="#bfbfbf" points="610.8794,-.5 610.8794,-18.5 701.9136,-18.5 701.9136,-.5 610.8794,-.5"/>
<text text-anchor="middle" x="656.3965" y="-6.5" font-family="Helvetica,sans-Serif" font-size="10.00" fill="#000000">ARX/AR/config.h</text>
</g>
<!-- Node5&#45;&gt;Node7 -->
<g id="edge10" class="edge">
<title>Node5&#45;&gt;Node7</title>
<path fill="none" stroke="#191970" d="M499.0222,-117.756C588.8164,-113.1067 814.2242,-99.0332 836.3965,-74 874.5771,-30.8929 778.3647,-16.5899 712.3618,-11.8479"/>
<polygon fill="#191970" stroke="#191970" points="712.2626,-8.3338 702.0534,-11.166 711.8005,-15.3186 712.2626,-8.3338"/>
</g>
<!-- Node8 -->
<g id="node9" class="node">
<title>Node8</title>
<g id="a_node9"><a xlink:href="ar_config_8h.html" target="_top" xlink:title="ARX/AR/arConfig.h">
<polygon fill="#ffffff" stroke="#000000" points="725.3228,-55.5 725.3228,-73.5 827.4702,-73.5 827.4702,-55.5 725.3228,-55.5"/>
<text text-anchor="middle" x="776.3965" y="-61.5" font-family="Helvetica,sans-Serif" font-size="10.00" fill="#000000">ARX/AR/arConfig.h</text>
</a>
</g>
</g>
<!-- Node5&#45;&gt;Node8 -->
<g id="edge11" class="edge">
<title>Node5&#45;&gt;Node8</title>
<path fill="none" stroke="#191970" d="M499.0308,-113.0832C552.0863,-103.79 650.9736,-86.469 715.2107,-75.2173"/>
<polygon fill="#191970" stroke="#191970" points="715.9643,-78.6386 725.2105,-73.4657 714.7565,-71.7436 715.9643,-78.6386"/>
</g>
<!-- Node9 -->
<g id="node10" class="node">
<title>Node9</title>
<g id="a_node10"><a xlink:href="log_8h.html" target="_top" xlink:title="Logging utilities. ">
<polygon fill="#ffffff" stroke="#000000" points="238.3276,-55.5 238.3276,-73.5 330.4653,-73.5 330.4653,-55.5 238.3276,-55.5"/>
<text text-anchor="middle" x="284.3965" y="-61.5" font-family="Helvetica,sans-Serif" font-size="10.00" fill="#000000">ARX/ARUtil/log.h</text>
</a>
</g>
</g>
<!-- Node5&#45;&gt;Node9 -->
<g id="edge12" class="edge">
<title>Node5&#45;&gt;Node9</title>
<path fill="none" stroke="#191970" d="M433.0034,-110.4179C403.0253,-101.155 356.3488,-86.7325 323.317,-76.526"/>
<polygon fill="#191970" stroke="#191970" points="324.125,-73.1124 313.5374,-73.5042 322.0584,-79.8005 324.125,-73.1124"/>
</g>
<!-- Node13 -->
<g id="node14" class="node">
<title>Node13</title>
<g id="a_node14"><a xlink:href="matrix_8h.html" target="_top" xlink:title="ARX/AR/matrix.h">
<polygon fill="#ffffff" stroke="#000000" points="883.6108,-55.5 883.6108,-73.5 975.1821,-73.5 975.1821,-55.5 883.6108,-55.5"/>
<text text-anchor="middle" x="929.3965" y="-61.5" font-family="Helvetica,sans-Serif" font-size="10.00" fill="#000000">ARX/AR/matrix.h</text>
</a>
</g>
</g>
<!-- Node5&#45;&gt;Node13 -->
<g id="edge19" class="edge">
<title>Node5&#45;&gt;Node13</title>
<path fill="none" stroke="#191970" d="M498.9487,-115.9793C570.2948,-108.982 733.0548,-92.405 869.3965,-74 870.6899,-73.8254 871.9984,-73.6455 873.3176,-73.4612"/>
<polygon fill="#191970" stroke="#191970" points="874.1706,-76.8743 883.5659,-71.9774 873.1675,-69.9465 874.1706,-76.8743"/>
</g>
<!-- Node14 -->
<g id="node15" class="node">
<title>Node14</title>
<g id="a_node15"><a xlink:href="icp_8h.html" target="_top" xlink:title="ARX/AR/icp.h">
<polygon fill="#ffffff" stroke="#000000" points="490.8301,-55.5 490.8301,-73.5 567.9629,-73.5 567.9629,-55.5 490.8301,-55.5"/>
<text text-anchor="middle" x="529.3965" y="-61.5" font-family="Helvetica,sans-Serif" font-size="10.00" fill="#000000">ARX/AR/icp.h</text>
</a>
</g>
</g>
<!-- Node5&#45;&gt;Node14 -->
<g id="edge21" class="edge">
<title>Node5&#45;&gt;Node14</title>
<path fill="none" stroke="#191970" d="M473.4602,-110.4179C483.3898,-102.2667 498.1865,-90.1201 510.0677,-80.3669"/>
<polygon fill="#191970" stroke="#191970" points="512.5839,-82.8297 518.0924,-73.7795 508.1424,-77.4192 512.5839,-82.8297"/>
</g>
<!-- Node16 -->
<g id="node17" class="node">
<title>Node16</title>
<g id="a_node17"><a xlink:href="param_8h.html" target="_top" xlink:title="artoolkitX functions for handling calibrated camera parameters. ">
<polygon fill="#ffffff" stroke="#000000" points="128.0493,-55.5 128.0493,-73.5 220.7437,-73.5 220.7437,-55.5 128.0493,-55.5"/>
<text text-anchor="middle" x="174.3965" y="-61.5" font-family="Helvetica,sans-Serif" font-size="10.00" fill="#000000">ARX/AR/param.h</text>
</a>
</g>
</g>
<!-- Node5&#45;&gt;Node16 -->
<g id="edge24" class="edge">
<title>Node5&#45;&gt;Node16</title>
<path fill="none" stroke="#191970" d="M426.0425,-113.4039C375.5738,-104.2749 284.2807,-86.9103 226.5749,-75.5207"/>
<polygon fill="#191970" stroke="#191970" points="227.0495,-72.0468 216.56,-73.5369 225.6893,-78.9134 227.0495,-72.0468"/>
</g>
<!-- Node17 -->
<g id="node18" class="node">
<title>Node17</title>
<g id="a_node18"><a xlink:href="ar_image_proc_8h.html" target="_top" xlink:title="artoolkitX functions for 2D luminance image processing. ">
<polygon fill="#ffffff" stroke="#000000" points="585.5986,-55.5 585.5986,-73.5 707.1943,-73.5 707.1943,-55.5 585.5986,-55.5"/>
<text text-anchor="middle" x="646.3965" y="-61.5" font-family="Helvetica,sans-Serif" font-size="10.00" fill="#000000">ARX/AR/arImageProc.h</text>
</a>
</g>
</g>
<!-- Node5&#45;&gt;Node17 -->
<g id="edge26" class="edge">
<title>Node5&#45;&gt;Node17</title>
<path fill="none" stroke="#191970" d="M487.614,-110.4179C516.9347,-101.0751 565.5888,-86.4834 601.3923,-76.263"/>
<polygon fill="#191970" stroke="#191970" points="602.457,-79.5991 611.1232,-73.5042 600.5477,-72.8646 602.457,-79.5991"/>
</g>
<!-- Node9&#45;&gt;Node1 -->
<g id="edge13" class="edge">
<title>Node9&#45;&gt;Node1</title>
<path fill="none" stroke="#191970" d="M311.9731,-55.4179C341.3985,-45.7269 387.972,-30.3883 419.0932,-20.1388"/>
<polygon fill="#191970" stroke="#191970" points="420.2099,-23.456 428.6132,-17.0035 418.0202,-16.8073 420.2099,-23.456"/>
</g>
<!-- Node9&#45;&gt;Node2 -->
<g id="edge14" class="edge">
<title>Node9&#45;&gt;Node2</title>
<path fill="none" stroke="#191970" d="M254.0126,-55.4179C221.0815,-45.5743 168.6571,-29.904 134.3816,-19.6586"/>
<polygon fill="#191970" stroke="#191970" points="134.9522,-16.1762 124.3687,-16.6656 132.9474,-22.883 134.9522,-16.1762"/>
</g>
<!-- Node9&#45;&gt;Node3 -->
<g id="edge15" class="edge">
<title>Node9&#45;&gt;Node3</title>
<path fill="none" stroke="#191970" d="M240.7254,-55.487C196.8832,-46.4047 127.4173,-31.9223 67.3965,-19 64.5937,-18.3966 61.6894,-17.7661 58.7734,-17.1294"/>
<polygon fill="#191970" stroke="#191970" points="59.463,-13.6975 48.945,-14.9713 57.9616,-20.5346 59.463,-13.6975"/>
</g>
<!-- Node10 -->
<g id="node11" class="node">
<title>Node10</title>
<polygon fill="#ffffff" stroke="#bfbfbf" points="154.3301,-.5 154.3301,-18.5 206.4629,-18.5 206.4629,-.5 154.3301,-.5"/>
<text text-anchor="middle" x="180.3965" y="-6.5" font-family="Helvetica,sans-Serif" font-size="10.00" fill="#000000">stdarg.h</text>
</g>
<!-- Node9&#45;&gt;Node10 -->
<g id="edge16" class="edge">
<title>Node9&#45;&gt;Node10</title>
<path fill="none" stroke="#191970" d="M267.223,-55.4179C250.7385,-46.7001 225.6123,-33.4122 206.6232,-23.3699"/>
<polygon fill="#191970" stroke="#191970" points="208.0717,-20.1767 197.5955,-18.5956 204.7992,-26.3646 208.0717,-20.1767"/>
</g>
<!-- Node11 -->
<g id="node12" class="node">
<title>Node11</title>
<polygon fill="#ffffff" stroke="#bfbfbf" points="224.665,-.5 224.665,-18.5 290.1279,-18.5 290.1279,-.5 224.665,-.5"/>
<text text-anchor="middle" x="257.3965" y="-6.5" font-family="Helvetica,sans-Serif" font-size="10.00" fill="#000000">sys/errno.h</text>
</g>
<!-- Node9&#45;&gt;Node11 -->
<g id="edge17" class="edge">
<title>Node9&#45;&gt;Node11</title>
<path fill="none" stroke="#191970" d="M279.938,-55.4179C276.2861,-47.9789 271.0007,-37.2123 266.4656,-27.9742"/>
<polygon fill="#191970" stroke="#191970" points="269.5005,-26.2138 261.9519,-18.7795 263.2168,-29.2985 269.5005,-26.2138"/>
</g>
<!-- Node12 -->
<g id="node13" class="node">
<title>Node12</title>
<g id="a_node13"><a xlink:href="types_8h.html" target="_top" xlink:title="ARX/ARUtil/types.h">
<polygon fill="#ffffff" stroke="#000000" points="308.0493,-.5 308.0493,-18.5 410.7437,-18.5 410.7437,-.5 308.0493,-.5"/>
<text text-anchor="middle" x="359.3965" y="-6.5" font-family="Helvetica,sans-Serif" font-size="10.00" fill="#000000">ARX/ARUtil/types.h</text>
</a>
</g>
</g>
<!-- Node9&#45;&gt;Node12 -->
<g id="edge18" class="edge">
<title>Node9&#45;&gt;Node12</title>
<path fill="none" stroke="#191970" d="M296.7812,-55.4179C308.1805,-47.0584 325.3102,-34.4966 338.773,-24.6239"/>
<polygon fill="#191970" stroke="#191970" points="340.9991,-27.3317 346.9934,-18.5956 336.8595,-21.6869 340.9991,-27.3317"/>
</g>
<!-- Node13&#45;&gt;Node4 -->
<g id="edge20" class="edge">
<title>Node13&#45;&gt;Node4</title>
<path fill="none" stroke="#191970" d="M935.5063,-55.4179C940.6704,-47.7415 948.2182,-36.5217 954.5602,-27.0945"/>
<polygon fill="#191970" stroke="#191970" points="957.4762,-29.0303 960.1539,-18.7795 951.6681,-25.1231 957.4762,-29.0303"/>
</g>
<!-- Node14&#45;&gt;Node1 -->
<g id="edge22" class="edge">
<title>Node14&#45;&gt;Node1</title>
<path fill="none" stroke="#191970" d="M516.5164,-55.4179C504.6611,-47.0584 486.8462,-34.4966 472.8449,-24.6239"/>
<polygon fill="#191970" stroke="#191970" points="474.4853,-21.498 464.2957,-18.5956 470.4514,-27.2188 474.4853,-21.498"/>
</g>
<!-- Node15 -->
<g id="node16" class="node">
<title>Node15</title>
<g id="a_node16"><a xlink:href="icp_core_8h.html" target="_top" xlink:title="ARX/AR/icpCore.h">
<polygon fill="#ffffff" stroke="#000000" points="491.9927,-.5 491.9927,-18.5 590.8003,-18.5 590.8003,-.5 491.9927,-.5"/>
<text text-anchor="middle" x="541.3965" y="-6.5" font-family="Helvetica,sans-Serif" font-size="10.00" fill="#000000">ARX/AR/icpCore.h</text>
</a>
</g>
</g>
<!-- Node14&#45;&gt;Node15 -->
<g id="edge23" class="edge">
<title>Node14&#45;&gt;Node15</title>
<path fill="none" stroke="#191970" d="M531.378,-55.4179C532.9665,-48.1372 535.2505,-37.669 537.2367,-28.5659"/>
<polygon fill="#191970" stroke="#191970" points="540.6597,-29.2957 539.3719,-18.7795 533.8206,-27.8035 540.6597,-29.2957"/>
</g>
<!-- Node16&#45;&gt;Node5 -->
<g id="edge25" class="edge">
<title>Node16&#45;&gt;Node5</title>
<path fill="none" stroke="#191970" d="M220.9687,-72.4548C274.7401,-82.2844 362.4534,-99.0096 416.1033,-109.6432"/>
<polygon fill="#191970" stroke="#191970" points="415.5428,-113.1003 426.0337,-111.6198 416.9094,-106.2349 415.5428,-113.1003"/>
</g>
<!-- Node17&#45;&gt;Node5 -->
<g id="edge28" class="edge">
<title>Node17&#45;&gt;Node5</title>
<path fill="none" stroke="#191970" d="M621.4234,-73.5042C592.2106,-82.8177 543.5748,-97.4068 507.7,-107.6515"/>
<polygon fill="#191970" stroke="#191970" points="506.6121,-104.322 497.9467,-110.4179 508.5222,-111.0563 506.6121,-104.322"/>
</g>
<!-- Node17&#45;&gt;Node7 -->
<g id="edge27" class="edge">
<title>Node17&#45;&gt;Node7</title>
<path fill="none" stroke="#191970" d="M648.0478,-55.4179C649.3571,-48.2164 651.2335,-37.8962 652.8759,-28.8632"/>
<polygon fill="#191970" stroke="#191970" points="656.3639,-29.2443 654.7093,-18.7795 649.4768,-27.992 656.3639,-29.2443"/>
</g>
<!-- Node18&#45;&gt;Node5 -->
<g id="edge30" class="edge">
<title>Node18&#45;&gt;Node5</title>
<path fill="none" stroke="#191970" d="M438.1852,-165.4179C442.1493,-157.8998 447.9055,-146.9829 452.8107,-137.6799"/>
<polygon fill="#191970" stroke="#191970" points="455.9355,-139.2576 457.5037,-128.7795 449.7435,-135.9927 455.9355,-139.2576"/>
</g>
</g>
</svg>
