<?xml version="1.0" encoding="UTF-8" standalone="no"?>
<!DOCTYPE svg PUBLIC "-//W3C//DTD SVG 1.1//EN"
 "http://www.w3.org/Graphics/SVG/1.1/DTD/svg11.dtd">
<!-- Generated by graphviz version 7.0.5 (20221223.1930)
 -->
<!-- Title: arMultiUpdateSubmarkerPose Pages: 1 -->
<svg width="380pt" height="101pt"
 viewBox="0.00 0.00 380.00 101.00" xmlns="http://www.w3.org/2000/svg" xmlns:xlink="http://www.w3.org/1999/xlink">
<g id="graph0" class="graph" transform="scale(1 1) rotate(0) translate(4 97)">
<title>arMultiUpdateSubmarkerPose</title>
<!-- Node1 -->
<g id="node1" class="node">
<title>Node1</title>
<g id="a_node1"><a xlink:title=" ">
<polygon fill="#999999" stroke="#666666" points="147,-56 0,-56 0,-37 147,-37 147,-56"/>
<text text-anchor="middle" x="73.5" y="-44" font-family="Helvetica,sans-Serif" font-size="10.00">arMultiUpdateSubmarkerPose</text>
</a>
</g>
</g>
<!-- Node2 -->
<g id="node2" class="node">
<title>Node2</title>
<g id="a_node2"><a xlink:href="ar_util_8c.html#a97c94e6c703a2e449272302c925944d1" target="_top" xlink:title=" ">
<polygon fill="white" stroke="#666666" points="253,-56 183,-56 183,-37 253,-37 253,-56"/>
<text text-anchor="middle" x="218" y="-44" font-family="Helvetica,sans-Serif" font-size="10.00">arUtilMatInv</text>
</a>
</g>
</g>
<!-- Node1&#45;&gt;Node2 -->
<g id="edge1" class="edge">
<title>Node1&#45;&gt;Node2</title>
<path fill="none" stroke="#63b8ff" d="M147.42,-46.5C155.6,-46.5 163.76,-46.5 171.45,-46.5"/>
<polygon fill="#63b8ff" stroke="#63b8ff" points="171.21,-50 181.21,-46.5 171.21,-43 171.21,-50"/>
</g>
<!-- Node3 -->
<g id="node3" class="node">
<title>Node3</title>
<g id="a_node3"><a xlink:href="m_alloc_8c.html#a69c9a974dc5a3963148ebb2c4a80f969" target="_top" xlink:title=" ">
<polygon fill="white" stroke="#666666" points="367.5,-93 293.5,-93 293.5,-74 367.5,-74 367.5,-93"/>
<text text-anchor="middle" x="330.5" y="-81" font-family="Helvetica,sans-Serif" font-size="10.00">arMatrixAlloc</text>
</a>
</g>
</g>
<!-- Node2&#45;&gt;Node3 -->
<g id="edge2" class="edge">
<title>Node2&#45;&gt;Node3</title>
<path fill="none" stroke="#63b8ff" d="M248.61,-56.42C261,-60.56 275.59,-65.45 288.95,-69.92"/>
<polygon fill="#63b8ff" stroke="#63b8ff" points="287.78,-73.22 298.37,-73.08 290,-66.58 287.78,-73.22"/>
</g>
<!-- Node4 -->
<g id="node4" class="node">
<title>Node4</title>
<g id="a_node4"><a xlink:href="m_free_8c.html#ac4b7a714cce9fffda773d86363380454" target="_top" xlink:title=" ">
<polygon fill="white" stroke="#666666" points="366,-56 295,-56 295,-37 366,-37 366,-56"/>
<text text-anchor="middle" x="330.5" y="-44" font-family="Helvetica,sans-Serif" font-size="10.00">arMatrixFree</text>
</a>
</g>
</g>
<!-- Node2&#45;&gt;Node4 -->
<g id="edge3" class="edge">
<title>Node2&#45;&gt;Node4</title>
<path fill="none" stroke="#63b8ff" d="M253.36,-46.5C262.83,-46.5 273.26,-46.5 283.29,-46.5"/>
<polygon fill="#63b8ff" stroke="#63b8ff" points="283.27,-50 293.27,-46.5 283.27,-43 283.27,-50"/>
</g>
<!-- Node5 -->
<g id="node5" class="node">
<title>Node5</title>
<g id="a_node5"><a xlink:href="m_self_inv_8c.html#a929738025b539a0c1bbd2f395ad4d981" target="_top" xlink:title=" ">
<polygon fill="white" stroke="#666666" points="372,-19 289,-19 289,0 372,0 372,-19"/>
<text text-anchor="middle" x="330.5" y="-7" font-family="Helvetica,sans-Serif" font-size="10.00">arMatrixSelfInv</text>
</a>
</g>
</g>
<!-- Node2&#45;&gt;Node5 -->
<g id="edge4" class="edge">
<title>Node2&#45;&gt;Node5</title>
<path fill="none" stroke="#63b8ff" d="M248.61,-36.58C261,-32.44 275.59,-27.55 288.95,-23.08"/>
<polygon fill="#63b8ff" stroke="#63b8ff" points="290,-26.42 298.37,-19.92 287.78,-19.78 290,-26.42"/>
</g>
</g>
</svg>
