<?xml version="1.0" encoding="UTF-8" standalone="no"?>
<!DOCTYPE svg PUBLIC "-//W3C//DTD SVG 1.1//EN"
 "http://www.w3.org/Graphics/SVG/1.1/DTD/svg11.dtd">
<!-- Generated by graphviz version 8.0.5 (20230430.1635)
 -->
<!-- Title: arMultiReadConfigFile Pages: 1 -->
<!--zoomable 138 -->
<svg id="main" version="1.1" xmlns="http://www.w3.org/2000/svg" xmlns:xlink="http://www.w3.org/1999/xlink" xml:space="preserve" onload="init(evt)">
<style type="text/css"><![CDATA[
.edge:hover path { stroke: red; }
.edge:hover polygon { stroke: red; fill: red; }
]]></style>
<script type="text/javascript"><![CDATA[
var edges = document.getElementsByTagName('g');
if (edges && edges.length) {
  for (var i=0;i<edges.length;i++) {
    if (edges[i].id.substr(0,4)=='edge') {
      edges[i].setAttribute('class','edge');
    }
  }
}
]]></script>
        <defs>
                <circle id="rim" cx="0" cy="0" r="7"/>
                <circle id="rim2" cx="0" cy="0" r="3.5"/>
                <g id="zoomPlus">
                        <use xlink:href="#rim" fill="#404040">
                                <set attributeName="fill" to="#808080" begin="zoomplus.mouseover" end="zoomplus.mouseout"/>
                        </use>
                        <path d="M-4,0h8M0,-4v8" fill="none" stroke="white" stroke-width="1.5" pointer-events="none"/>
                </g>
                <g id="zoomMin">
                        <use xlink:href="#rim" fill="#404040">
                                <set attributeName="fill" to="#808080" begin="zoomminus.mouseover" end="zoomminus.mouseout"/>
                        </use>
                        <path d="M-4,0h8" fill="none" stroke="white" stroke-width="1.5" pointer-events="none"/>
                </g>
                <g id="dirArrow">
                        <path fill="none" stroke="white" stroke-width="1.5" d="M0,-3.0v7 M-2.5,-0.5L0,-3.0L2.5,-0.5"/>
                </g>
               <g id="resetDef">
                       <use xlink:href="#rim2" fill="#404040">
                               <set attributeName="fill" to="#808080" begin="reset.mouseover" end="reset.mouseout"/>
                       </use>
               </g>
        </defs>

<script type="text/javascript">
var viewWidth = 587;
var viewHeight = 138;
var sectionId = 'dynsection-3';
</script>
<script xlink:href="svgpan.js"/>
<svg id="graph" class="graph">
<g id="viewport">
<title>arMultiReadConfigFile</title>
<!-- Node1 -->
<g id="node1" class="node">
<title>Node1</title>
<g id="a_node1"><a xlink:title="Creates a new multi&#45;marker configuration and fills it with the config from the multi&#45;marker config fi...">
<polygon fill="#999999" stroke="#666666" points="112.75,-74.25 0,-74.25 0,-55 112.75,-55 112.75,-74.25"/>
<text text-anchor="middle" x="56.38" y="-60.75" font-family="Helvetica,sans-Serif" font-size="10.00">arMultiReadConfigFile</text>
</a>
</g>
</g>
<!-- Node2 -->
<g id="node2" class="node">
<title>Node2</title>
<g id="a_node2"><a xlink:href="ar_multi_edit_config_8c.html#ad1fc20004885bcb4b4cb3ee0931df634" target="_top" xlink:title="Creates a new empty multi&#45;marker configuration.">
<polygon fill="white" stroke="#666666" points="278.38,-130.25 182.88,-130.25 182.88,-111 278.38,-111 278.38,-130.25"/>
<text text-anchor="middle" x="230.62" y="-116.75" font-family="Helvetica,sans-Serif" font-size="10.00">arMultiAllocConfig</text>
</a>
</g>
</g>
<!-- Node1&#45;&gt;Node2 -->
<g id="edge1" class="edge">
<title>Node1&#45;&gt;Node2</title>
<path fill="none" stroke="#63b8ff" d="M78.4,-74.61C96.67,-82.98 124.02,-94.8 148.75,-102.62 156.2,-104.98 164.13,-107.15 172,-109.1"/>
<polygon fill="#63b8ff" stroke="#63b8ff" points="171.1,-112.72 181.64,-111.63 172.72,-105.91 171.1,-112.72"/>
</g>
<!-- Node3 -->
<g id="node3" class="node">
<title>Node3</title>
<g id="a_node3"><a xlink:href="ar_multi_edit_config_8c.html#a7a45fb2f0acb56ddee63efcdaaf654a1" target="_top" xlink:title=" ">
<polygon fill="white" stroke="#666666" points="303.88,-93.25 157.38,-93.25 157.38,-74 303.88,-74 303.88,-93.25"/>
<text text-anchor="middle" x="230.62" y="-79.75" font-family="Helvetica,sans-Serif" font-size="10.00">arMultiUpdateSubmarkerPose</text>
</a>
</g>
</g>
<!-- Node1&#45;&gt;Node3 -->
<g id="edge2" class="edge">
<title>Node1&#45;&gt;Node3</title>
<path fill="none" stroke="#63b8ff" d="M112.82,-70.74C123.48,-71.92 134.86,-73.17 146.18,-74.42"/>
<polygon fill="#63b8ff" stroke="#63b8ff" points="145.66,-77.99 155.98,-75.61 146.43,-71.04 145.66,-77.99"/>
</g>
<!-- Node8 -->
<g id="node8" class="node">
<title>Node8</title>
<g id="a_node8"><a xlink:href="ar_patt_load_8c.html#a6c3899cc1122ad7ae5bd93b4c00a64cf" target="_top" xlink:title="Load a pattern file into a pattern handle.">
<polygon fill="white" stroke="#666666" points="262.25,-56.25 199,-56.25 199,-37 262.25,-37 262.25,-56.25"/>
<text text-anchor="middle" x="230.62" y="-42.75" font-family="Helvetica,sans-Serif" font-size="10.00">arPattLoad</text>
</a>
</g>
</g>
<!-- Node1&#45;&gt;Node8 -->
<g id="edge7" class="edge">
<title>Node1&#45;&gt;Node8</title>
<path fill="none" stroke="#63b8ff" d="M112.82,-58.83C137.22,-56.28 165.4,-53.34 187.97,-50.98"/>
<polygon fill="#63b8ff" stroke="#63b8ff" points="188.29,-54.36 197.88,-49.84 187.57,-47.4 188.29,-54.36"/>
</g>
<!-- Node11 -->
<g id="node11" class="node">
<title>Node11</title>
<g id="a_node11"><a xlink:href="ar_util_8c.html#aadb50b241c9234d1a23317a1767a39be" target="_top" xlink:title=" ">
<polygon fill="white" stroke="#666666" points="312.5,-19.25 148.75,-19.25 148.75,0 312.5,0 312.5,-19.25"/>
<text text-anchor="middle" x="230.62" y="-5.75" font-family="Helvetica,sans-Serif" font-size="10.00">arUtilGetDirectoryNameFromPath</text>
</a>
</g>
</g>
<!-- Node1&#45;&gt;Node11 -->
<g id="edge10" class="edge">
<title>Node1&#45;&gt;Node11</title>
<path fill="none" stroke="#63b8ff" d="M79.16,-54.61C97.44,-46.5 124.4,-35.21 148.75,-27.62 154.97,-25.69 161.52,-23.87 168.09,-22.2"/>
<polygon fill="#63b8ff" stroke="#63b8ff" points="168.5,-25.46 177.38,-19.68 166.83,-18.66 168.5,-25.46"/>
</g>
<!-- Node4 -->
<g id="node4" class="node">
<title>Node4</title>
<g id="a_node4"><a xlink:href="ar_util_8c.html#a97c94e6c703a2e449272302c925944d1" target="_top" xlink:title=" ">
<polygon fill="white" stroke="#666666" points="439.12,-93.25 369.88,-93.25 369.88,-74 439.12,-74 439.12,-93.25"/>
<text text-anchor="middle" x="404.5" y="-79.75" font-family="Helvetica,sans-Serif" font-size="10.00">arUtilMatInv</text>
</a>
</g>
</g>
<!-- Node3&#45;&gt;Node4 -->
<g id="edge3" class="edge">
<title>Node3&#45;&gt;Node4</title>
<path fill="none" stroke="#63b8ff" d="M304.02,-83.62C322.68,-83.62 342.22,-83.62 358.99,-83.62"/>
<polygon fill="#63b8ff" stroke="#63b8ff" points="358.58,-87.13 368.58,-83.62 358.58,-80.13 358.58,-87.13"/>
</g>
<!-- Node5 -->
<g id="node5" class="node">
<title>Node5</title>
<g id="a_node5"><a xlink:href="m_alloc_8c.html#a69c9a974dc5a3963148ebb2c4a80f969" target="_top" xlink:title=" ">
<polygon fill="white" stroke="#666666" points="574,-130.25 501,-130.25 501,-111 574,-111 574,-130.25"/>
<text text-anchor="middle" x="537.5" y="-116.75" font-family="Helvetica,sans-Serif" font-size="10.00">arMatrixAlloc</text>
</a>
</g>
</g>
<!-- Node4&#45;&gt;Node5 -->
<g id="edge4" class="edge">
<title>Node4&#45;&gt;Node5</title>
<path fill="none" stroke="#63b8ff" d="M439.58,-93.25C455.15,-97.65 473.82,-102.92 490.6,-107.66"/>
<polygon fill="#63b8ff" stroke="#63b8ff" points="489.19,-111.18 499.76,-110.53 491.09,-104.45 489.19,-111.18"/>
</g>
<!-- Node6 -->
<g id="node6" class="node">
<title>Node6</title>
<g id="a_node6"><a xlink:href="m_free_8c.html#ac4b7a714cce9fffda773d86363380454" target="_top" xlink:title=" ">
<polygon fill="white" stroke="#666666" points="572.88,-93.25 502.12,-93.25 502.12,-74 572.88,-74 572.88,-93.25"/>
<text text-anchor="middle" x="537.5" y="-79.75" font-family="Helvetica,sans-Serif" font-size="10.00">arMatrixFree</text>
</a>
</g>
</g>
<!-- Node4&#45;&gt;Node6 -->
<g id="edge5" class="edge">
<title>Node4&#45;&gt;Node6</title>
<path fill="none" stroke="#63b8ff" d="M439.58,-83.62C455.25,-83.62 474.06,-83.62 490.93,-83.62"/>
<polygon fill="#63b8ff" stroke="#63b8ff" points="490.68,-87.13 500.68,-83.62 490.68,-80.13 490.68,-87.13"/>
</g>
<!-- Node7 -->
<g id="node7" class="node">
<title>Node7</title>
<g id="a_node7"><a xlink:href="m_self_inv_8c.html#a929738025b539a0c1bbd2f395ad4d981" target="_top" xlink:title=" ">
<polygon fill="white" stroke="#666666" points="578.5,-56.25 496.5,-56.25 496.5,-37 578.5,-37 578.5,-56.25"/>
<text text-anchor="middle" x="537.5" y="-42.75" font-family="Helvetica,sans-Serif" font-size="10.00">arMatrixSelfInv</text>
</a>
</g>
</g>
<!-- Node4&#45;&gt;Node7 -->
<g id="edge6" class="edge">
<title>Node4&#45;&gt;Node7</title>
<path fill="none" stroke="#63b8ff" d="M439.58,-74C455.15,-69.6 473.82,-64.33 490.6,-59.59"/>
<polygon fill="#63b8ff" stroke="#63b8ff" points="491.09,-62.8 499.76,-56.72 489.19,-56.07 491.09,-62.8"/>
</g>
<!-- Node9 -->
<g id="node9" class="node">
<title>Node9</title>
<g id="a_node9"><a xlink:href="ar_patt_load_8c.html#a1eb242ab9531966ab8bd8a5379e78792" target="_top" xlink:title=" ">
<polygon fill="white" stroke="#666666" points="460.5,-56.25 348.5,-56.25 348.5,-37 460.5,-37 460.5,-56.25"/>
<text text-anchor="middle" x="404.5" y="-42.75" font-family="Helvetica,sans-Serif" font-size="10.00">arPattLoadFromBuffer</text>
</a>
</g>
</g>
<!-- Node8&#45;&gt;Node9 -->
<g id="edge8" class="edge">
<title>Node8&#45;&gt;Node9</title>
<path fill="none" stroke="#63b8ff" d="M262.35,-46.62C283.14,-46.62 311.39,-46.62 337.16,-46.62"/>
<polygon fill="#63b8ff" stroke="#63b8ff" points="337.03,-50.13 347.03,-46.62 337.03,-43.13 337.03,-50.13"/>
</g>
<!-- Node10 -->
<g id="node10" class="node">
<title>Node10</title>
<g id="a_node10"><a xlink:href="file__utils_8c.html#a21f1c9d5c1f0959f58653362849bd63f" target="_top" xlink:title=" ">
<polygon fill="white" stroke="#666666" points="419.25,-19.25 389.75,-19.25 389.75,0 419.25,0 419.25,-19.25"/>
<text text-anchor="middle" x="404.5" y="-5.75" font-family="Helvetica,sans-Serif" font-size="10.00">cat</text>
</a>
</g>
</g>
<!-- Node8&#45;&gt;Node10 -->
<g id="edge9" class="edge">
<title>Node8&#45;&gt;Node10</title>
<path fill="none" stroke="#63b8ff" d="M262.35,-40.01C295.57,-32.86 347.88,-21.6 378.62,-14.98"/>
<polygon fill="#63b8ff" stroke="#63b8ff" points="379.23,-18.22 388.27,-12.69 377.75,-11.37 379.23,-18.22"/>
</g>
</g>
</svg>
        <g id="navigator" transform="translate(0 0)" fill="#404254">
                <rect fill="#f2f5e9" fill-opacity="0.5" stroke="#606060" stroke-width=".5" x="0" y="0" width="60" height="60"/>
                <use id="zoomplus" xlink:href="#zoomPlus" x="17" y="9" onmousedown="handleZoom(evt,'in')"/>
                <use id="zoomminus" xlink:href="#zoomMin" x="42" y="9" onmousedown="handleZoom(evt,'out')"/>
                <use id="reset" xlink:href="#resetDef" x="30" y="36" onmousedown="handleReset()"/>
                <g id="arrowUp" xlink:href="#dirArrow" transform="translate(30 24)" onmousedown="handlePan(0,-1)">
                  <use xlink:href="#rim" fill="#404040">
                        <set attributeName="fill" to="#808080" begin="arrowUp.mouseover" end="arrowUp.mouseout"/>
                  </use>
                  <path fill="none" stroke="white" stroke-width="1.5" d="M0,-3.0v7 M-2.5,-0.5L0,-3.0L2.5,-0.5"/>
                </g>
                <g id="arrowRight" xlink:href="#dirArrow" transform="rotate(90) translate(36 -43)" onmousedown="handlePan(1,0)">
                  <use xlink:href="#rim" fill="#404040">
                        <set attributeName="fill" to="#808080" begin="arrowRight.mouseover" end="arrowRight.mouseout"/>
                  </use>
                  <path fill="none" stroke="white" stroke-width="1.5" d="M0,-3.0v7 M-2.5,-0.5L0,-3.0L2.5,-0.5"/>
                </g>
                <g id="arrowDown" xlink:href="#dirArrow" transform="rotate(180) translate(-30 -48)" onmousedown="handlePan(0,1)">
                  <use xlink:href="#rim" fill="#404040">
                        <set attributeName="fill" to="#808080" begin="arrowDown.mouseover" end="arrowDown.mouseout"/>
                  </use>
                  <path fill="none" stroke="white" stroke-width="1.5" d="M0,-3.0v7 M-2.5,-0.5L0,-3.0L2.5,-0.5"/>
                </g>
                <g id="arrowLeft" xlink:href="#dirArrow" transform="rotate(270) translate(-36 17)" onmousedown="handlePan(-1,0)">
                  <use xlink:href="#rim" fill="#404040">
                        <set attributeName="fill" to="#808080" begin="arrowLeft.mouseover" end="arrowLeft.mouseout"/>
                  </use>
                  <path fill="none" stroke="white" stroke-width="1.5" d="M0,-3.0v7 M-2.5,-0.5L0,-3.0L2.5,-0.5"/>
                </g>
        </g>
        <svg viewBox="0 0 15 15" width="100%" height="30px" preserveAspectRatio="xMaxYMin meet">
         <g id="arrow_out" transform="scale(0.3 0.3)">
          <a xlink:href="ar_multi_8h_a05f72b616baa2de9d243a6ebeb5aae05_cgraph_org.svg" target="_base">
           <rect id="button" ry="5" rx="5" y="6" x="6" height="38" width="38"
                fill="#f2f5e9" fill-opacity="0.5" stroke="#606060" stroke-width="1.0"/>
           <path id="arrow"
             d="M 11.500037,31.436501 C 11.940474,20.09759 22.043105,11.32322 32.158766,21.979434 L 37.068811,17.246167 C 37.068811,17.246167 37.088388,32 37.088388,32 L 22.160133,31.978069 C 22.160133,31.978069 26.997745,27.140456 26.997745,27.140456 C 18.528582,18.264221 13.291696,25.230495 11.500037,31.436501 z"
             style="fill:#404040;"/>
          </a>
         </g>
        </svg>
</svg>
