<?xml version="1.0" encoding="UTF-8" standalone="no"?>
<!DOCTYPE svg PUBLIC "-//W3C//DTD SVG 1.1//EN"
 "http://www.w3.org/Graphics/SVG/1.1/DTD/svg11.dtd">
<!-- Generated by graphviz version 2.40.1 (20161225.0304)
 -->
<!-- Title: arPattGetID2 Pages: 1 -->
<svg width="344pt" height="27pt"
 viewBox="0.00 0.00 344.22 27.00" xmlns="http://www.w3.org/2000/svg" xmlns:xlink="http://www.w3.org/1999/xlink">
<g id="graph0" class="graph" transform="scale(1 1) rotate(0) translate(4 23)">
<title>arPattGetID2</title>
<polygon fill="#ffffff" stroke="transparent" points="-4,4 -4,-23 340.2158,-23 340.2158,4 -4,4"/>
<!-- Node2 -->
<g id="node1" class="node">
<title>Node2</title>
<polygon fill="#bfbfbf" stroke="#000000" points="0,-.5 0,-18.5 74.3594,-18.5 74.3594,-.5 0,-.5"/>
<text text-anchor="middle" x="37.1797" y="-6.5" font-family="Helvetica,sans-Serif" font-size="10.00" fill="#000000">arPattGetID2</text>
</g>
<!-- Node3 -->
<g id="node2" class="node">
<title>Node3</title>
<g id="a_node2"><a xlink:href="ar_patt_get_i_d_8c.html#acce963b8d7e85cedfcb4d33ece5f20db" target="_top" xlink:title="Match the interior of a detected square against known patterns with variable border width...">
<polygon fill="#ffffff" stroke="#000000" points="110.3594,-.5 110.3594,-18.5 208.0635,-18.5 208.0635,-.5 110.3594,-.5"/>
<text text-anchor="middle" x="159.2114" y="-6.5" font-family="Helvetica,sans-Serif" font-size="10.00" fill="#000000">arPattGetIDGlobal</text>
</a>
</g>
</g>
<!-- Node2&#45;&gt;Node3 -->
<g id="edge1" class="edge">
<title>Node2&#45;&gt;Node3</title>
<path fill="none" stroke="#191970" d="M74.4563,-9.5C82.5169,-9.5 91.2324,-9.5 99.9019,-9.5"/>
<polygon fill="#191970" stroke="#191970" points="100.0161,-13.0001 110.0161,-9.5 100.016,-6.0001 100.0161,-13.0001"/>
</g>
<!-- Node4 -->
<g id="node3" class="node">
<title>Node4</title>
<g id="a_node3"><a xlink:href="ar_patt_get_i_d_8c.html#a85629f26a05cd8cb8644c5e95e581d4d" target="_top" xlink:title="Extract the image (i.e. locate and unwarp) of the pattern&#45;space portion of a detected square...">
<polygon fill="#ffffff" stroke="#000000" points="244.0635,-.5 244.0635,-18.5 336.2158,-18.5 336.2158,-.5 244.0635,-.5"/>
<text text-anchor="middle" x="290.1396" y="-6.5" font-family="Helvetica,sans-Serif" font-size="10.00" fill="#000000">arPattGetImage2</text>
</a>
</g>
</g>
<!-- Node3&#45;&gt;Node4 -->
<g id="edge2" class="edge">
<title>Node3&#45;&gt;Node4</title>
<path fill="none" stroke="#191970" d="M208.3368,-9.5C216.5906,-9.5 225.2147,-9.5 233.637,-9.5"/>
<polygon fill="#191970" stroke="#191970" points="233.772,-13.0001 243.772,-9.5 233.7719,-6.0001 233.772,-13.0001"/>
</g>
</g>
</svg>
