<?xml version="1.0" encoding="UTF-8" standalone="no"?>
<!DOCTYPE svg PUBLIC "-//W3C//DTD SVG 1.1//EN"
 "http://www.w3.org/Graphics/SVG/1.1/DTD/svg11.dtd">
<!-- Generated by graphviz version 2.40.1 (20161225.0304)
 -->
<!-- Title: arPattLoad Pages: 1 -->
<svg width="224pt" height="64pt"
 viewBox="0.00 0.00 223.69 64.00" xmlns="http://www.w3.org/2000/svg" xmlns:xlink="http://www.w3.org/1999/xlink">
<g id="graph0" class="graph" transform="scale(1 1) rotate(0) translate(4 60)">
<title>arPattLoad</title>
<polygon fill="#ffffff" stroke="transparent" points="-4,4 -4,-60 219.6855,-60 219.6855,4 -4,4"/>
<!-- Node3 -->
<g id="node1" class="node">
<title>Node3</title>
<polygon fill="#bfbfbf" stroke="#000000" points="0,-18.5 0,-36.5 64.9258,-36.5 64.9258,-18.5 0,-18.5"/>
<text text-anchor="middle" x="32.4629" y="-24.5" font-family="Helvetica,sans-Serif" font-size="10.00" fill="#000000">arPattLoad</text>
</g>
<!-- Node4 -->
<g id="node2" class="node">
<title>Node4</title>
<g id="a_node2"><a xlink:href="file__utils_8c.html#a5160d4dbf6ed208004ff4477724b311a" target="_top" xlink:title="cat">
<polygon fill="#ffffff" stroke="#000000" points="143.6357,-37.5 143.6357,-55.5 172.9756,-55.5 172.9756,-37.5 143.6357,-37.5"/>
<text text-anchor="middle" x="158.3057" y="-43.5" font-family="Helvetica,sans-Serif" font-size="10.00" fill="#000000">cat</text>
</a>
</g>
</g>
<!-- Node3&#45;&gt;Node4 -->
<g id="edge1" class="edge">
<title>Node3&#45;&gt;Node4</title>
<path fill="none" stroke="#191970" d="M65.1981,-32.4424C86.5815,-35.6709 114.0605,-39.8198 133.611,-42.7715"/>
<polygon fill="#191970" stroke="#191970" points="133.1571,-46.2426 143.5676,-44.2748 134.2022,-39.3211 133.1571,-46.2426"/>
</g>
<!-- Node5 -->
<g id="node3" class="node">
<title>Node5</title>
<g id="a_node3"><a xlink:href="ar_patt_load_8c.html#a1eb242ab9531966ab8bd8a5379e78792" target="_top" xlink:title="arPattLoadFromBuffer">
<polygon fill="#ffffff" stroke="#000000" points="100.9258,-.5 100.9258,-18.5 215.6855,-18.5 215.6855,-.5 100.9258,-.5"/>
<text text-anchor="middle" x="158.3057" y="-6.5" font-family="Helvetica,sans-Serif" font-size="10.00" fill="#000000">arPattLoadFromBuffer</text>
</a>
</g>
</g>
<!-- Node3&#45;&gt;Node5 -->
<g id="edge2" class="edge">
<title>Node3&#45;&gt;Node5</title>
<path fill="none" stroke="#191970" d="M65.1981,-22.8177C73.1349,-21.6825 81.9115,-20.4271 90.8108,-19.1542"/>
<polygon fill="#191970" stroke="#191970" points="91.4686,-22.5958 100.8723,-17.715 90.4774,-15.6663 91.4686,-22.5958"/>
</g>
</g>
</svg>
