<?xml version="1.0" encoding="UTF-8" standalone="no"?>
<!DOCTYPE svg PUBLIC "-//W3C//DTD SVG 1.1//EN"
 "http://www.w3.org/Graphics/SVG/1.1/DTD/svg11.dtd">
<!-- Generated by graphviz version 7.0.5 (20221223.1930)
 -->
<!-- Title: Source/ARX/AR/arUtil.c Pages: 1 -->
<svg width="1352pt" height="192pt"
 viewBox="0.00 0.00 1351.50 192.00" xmlns="http://www.w3.org/2000/svg" xmlns:xlink="http://www.w3.org/1999/xlink">
<g id="graph0" class="graph" transform="scale(1 1) rotate(0) translate(4 188)">
<title>Source/ARX/AR/arUtil.c</title>
<!-- Node1 -->
<g id="node1" class="node">
<title>Node1</title>
<g id="a_node1"><a xlink:title=" ">
<polygon fill="#999999" stroke="#666666" points="1147.5,-184 1024.5,-184 1024.5,-165 1147.5,-165 1147.5,-184"/>
<text text-anchor="middle" x="1086" y="-172" font-family="Helvetica,sans-Serif" font-size="10.00">Source/ARX/AR/arUtil.c</text>
</a>
</g>
</g>
<!-- Node2 -->
<g id="node2" class="node">
<title>Node2</title>
<g id="a_node2"><a xlink:href="ar_8h.html" target="_top" xlink:title="artoolkitX core routines.">
<polygon fill="white" stroke="#666666" points="557,-129 483,-129 483,-110 557,-110 557,-129"/>
<text text-anchor="middle" x="520" y="-117" font-family="Helvetica,sans-Serif" font-size="10.00">ARX/AR/ar.h</text>
</a>
</g>
</g>
<!-- Node1&#45;&gt;Node2 -->
<g id="edge1" class="edge">
<title>Node1&#45;&gt;Node2</title>
<path fill="none" stroke="#63b8ff" d="M1024.08,-167.7C910.56,-157.07 671.37,-134.67 568.6,-125.05"/>
<polygon fill="#63b8ff" stroke="#63b8ff" points="569.13,-121.59 558.85,-124.14 568.48,-128.56 569.13,-121.59"/>
</g>
<!-- Node14 -->
<g id="node14" class="node">
<title>Node14</title>
<g id="a_node14"><a xlink:title=" ">
<polygon fill="#e0e0e0" stroke="#999999" points="958.5,-19 911.5,-19 911.5,0 958.5,0 958.5,-19"/>
<text text-anchor="middle" x="935" y="-7" font-family="Helvetica,sans-Serif" font-size="10.00">math.h</text>
</a>
</g>
</g>
<!-- Node1&#45;&gt;Node14 -->
<g id="edge25" class="edge">
<title>Node1&#45;&gt;Node14</title>
<path fill="none" stroke="#63b8ff" d="M1078.5,-164.62C1071.29,-155.86 1060.27,-141.94 1052,-129 1031.98,-97.68 1038.85,-81.72 1013,-55 1000.41,-41.98 983.18,-31.61 968.12,-24.17"/>
<polygon fill="#63b8ff" stroke="#63b8ff" points="970.03,-21.2 959.49,-20.13 967.06,-27.54 970.03,-21.2"/>
</g>
<!-- Node19 -->
<g id="node19" class="node">
<title>Node19</title>
<g id="a_node19"><a xlink:title=" ">
<polygon fill="#e0e0e0" stroke="#999999" points="1110.5,-129 1061.5,-129 1061.5,-110 1110.5,-110 1110.5,-129"/>
<text text-anchor="middle" x="1086" y="-117" font-family="Helvetica,sans-Serif" font-size="10.00">ctype.h</text>
</a>
</g>
</g>
<!-- Node1&#45;&gt;Node19 -->
<g id="edge26" class="edge">
<title>Node1&#45;&gt;Node19</title>
<path fill="none" stroke="#63b8ff" d="M1086,-164.75C1086,-158.27 1086,-149.16 1086,-140.9"/>
<polygon fill="#63b8ff" stroke="#63b8ff" points="1089.5,-140.96 1086,-130.96 1082.5,-140.96 1089.5,-140.96"/>
</g>
<!-- Node20 -->
<g id="node20" class="node">
<title>Node20</title>
<g id="a_node20"><a xlink:title=" ">
<polygon fill="#e0e0e0" stroke="#999999" points="1179.5,-129 1128.5,-129 1128.5,-110 1179.5,-110 1179.5,-129"/>
<text text-anchor="middle" x="1154" y="-117" font-family="Helvetica,sans-Serif" font-size="10.00">unistd.h</text>
</a>
</g>
</g>
<!-- Node1&#45;&gt;Node20 -->
<g id="edge27" class="edge">
<title>Node1&#45;&gt;Node20</title>
<path fill="none" stroke="#63b8ff" d="M1097.54,-164.51C1107.46,-156.77 1122.01,-145.43 1133.86,-136.2"/>
<polygon fill="#63b8ff" stroke="#63b8ff" points="1135.71,-139.2 1141.44,-130.29 1131.4,-133.68 1135.71,-139.2"/>
</g>
<!-- Node21 -->
<g id="node21" class="node">
<title>Node21</title>
<g id="a_node21"><a xlink:title=" ">
<polygon fill="#e0e0e0" stroke="#999999" points="1268.5,-129 1197.5,-129 1197.5,-110 1268.5,-110 1268.5,-129"/>
<text text-anchor="middle" x="1233" y="-117" font-family="Helvetica,sans-Serif" font-size="10.00">sys/param.h</text>
</a>
</g>
</g>
<!-- Node1&#45;&gt;Node21 -->
<g id="edge28" class="edge">
<title>Node1&#45;&gt;Node21</title>
<path fill="none" stroke="#63b8ff" d="M1110.94,-164.51C1134.84,-155.89 1171.14,-142.8 1197.95,-133.14"/>
<polygon fill="#63b8ff" stroke="#63b8ff" points="1198.79,-136.56 1207.01,-129.87 1196.41,-129.97 1198.79,-136.56"/>
</g>
<!-- Node22 -->
<g id="node22" class="node">
<title>Node22</title>
<g id="a_node22"><a xlink:title=" ">
<polygon fill="#e0e0e0" stroke="#999999" points="1343.5,-129 1286.5,-129 1286.5,-110 1343.5,-110 1343.5,-129"/>
<text text-anchor="middle" x="1315" y="-117" font-family="Helvetica,sans-Serif" font-size="10.00">pthread.h</text>
</a>
</g>
</g>
<!-- Node1&#45;&gt;Node22 -->
<g id="edge29" class="edge">
<title>Node1&#45;&gt;Node22</title>
<path fill="none" stroke="#63b8ff" d="M1124.85,-164.51C1166.69,-154.82 1232.94,-139.49 1275.17,-129.72"/>
<polygon fill="#63b8ff" stroke="#63b8ff" points="1275.71,-133.19 1284.66,-127.52 1274.13,-126.37 1275.71,-133.19"/>
</g>
<!-- Node23 -->
<g id="node23" class="node">
<title>Node23</title>
<g id="a_node23"><a xlink:href="file__utils_8h.html" target="_top" xlink:title=" ">
<polygon fill="white" stroke="#666666" points="165.5,-129 48.5,-129 48.5,-110 165.5,-110 165.5,-129"/>
<text text-anchor="middle" x="107" y="-117" font-family="Helvetica,sans-Serif" font-size="10.00">ARX/ARUtil/file_utils.h</text>
</a>
</g>
</g>
<!-- Node1&#45;&gt;Node23 -->
<g id="edge30" class="edge">
<title>Node1&#45;&gt;Node23</title>
<path fill="none" stroke="#63b8ff" d="M1024.02,-170.14C850.47,-160.75 360.46,-134.22 177.27,-124.3"/>
<polygon fill="#63b8ff" stroke="#63b8ff" points="177.6,-120.82 167.42,-123.77 177.22,-127.81 177.6,-120.82"/>
</g>
<!-- Node3 -->
<g id="node3" class="node">
<title>Node3</title>
<g id="a_node3"><a xlink:title=" ">
<polygon fill="#e0e0e0" stroke="#999999" points="488,-19 442,-19 442,0 488,0 488,-19"/>
<text text-anchor="middle" x="465" y="-7" font-family="Helvetica,sans-Serif" font-size="10.00">stdio.h</text>
</a>
</g>
</g>
<!-- Node2&#45;&gt;Node3 -->
<g id="edge2" class="edge">
<title>Node2&#45;&gt;Node3</title>
<path fill="none" stroke="#63b8ff" d="M515.5,-109.66C506.64,-92.26 486.74,-53.19 474.74,-29.62"/>
<polygon fill="#63b8ff" stroke="#63b8ff" points="477.91,-28.13 470.25,-20.81 471.67,-31.31 477.91,-28.13"/>
</g>
<!-- Node4 -->
<g id="node4" class="node">
<title>Node4</title>
<g id="a_node4"><a xlink:title=" ">
<polygon fill="#e0e0e0" stroke="#999999" points="356,-19 308,-19 308,0 356,0 356,-19"/>
<text text-anchor="middle" x="332" y="-7" font-family="Helvetica,sans-Serif" font-size="10.00">stdlib.h</text>
</a>
</g>
</g>
<!-- Node2&#45;&gt;Node4 -->
<g id="edge3" class="edge">
<title>Node2&#45;&gt;Node4</title>
<path fill="none" stroke="#63b8ff" d="M504.62,-109.66C472.32,-91.11 397.19,-47.95 357.55,-25.18"/>
<polygon fill="#63b8ff" stroke="#63b8ff" points="359.32,-22.16 348.91,-20.21 355.84,-28.23 359.32,-22.16"/>
</g>
<!-- Node5 -->
<g id="node5" class="node">
<title>Node5</title>
<g id="a_node5"><a xlink:title=" ">
<polygon fill="#e0e0e0" stroke="#999999" points="157.5,-74 108.5,-74 108.5,-55 157.5,-55 157.5,-74"/>
<text text-anchor="middle" x="133" y="-62" font-family="Helvetica,sans-Serif" font-size="10.00">stdint.h</text>
</a>
</g>
</g>
<!-- Node2&#45;&gt;Node5 -->
<g id="edge4" class="edge">
<title>Node2&#45;&gt;Node5</title>
<path fill="none" stroke="#63b8ff" d="M482.67,-115.27C419.97,-109.54 289.36,-96.22 169.04,-74.16"/>
<polygon fill="#63b8ff" stroke="#63b8ff" points="169.77,-70.73 159.29,-72.34 168.49,-77.61 169.77,-70.73"/>
</g>
<!-- Node6 -->
<g id="node6" class="node">
<title>Node6</title>
<g id="a_node6"><a xlink:title=" ">
<polygon fill="#e0e0e0" stroke="#999999" points="423.5,-19 374.5,-19 374.5,0 423.5,0 423.5,-19"/>
<text text-anchor="middle" x="399" y="-7" font-family="Helvetica,sans-Serif" font-size="10.00">string.h</text>
</a>
</g>
</g>
<!-- Node2&#45;&gt;Node6 -->
<g id="edge5" class="edge">
<title>Node2&#45;&gt;Node6</title>
<path fill="none" stroke="#63b8ff" d="M510.1,-109.66C489.89,-91.62 443.62,-50.32 417.62,-27.12"/>
<polygon fill="#63b8ff" stroke="#63b8ff" points="419.96,-24.52 410.17,-20.47 415.3,-29.74 419.96,-24.52"/>
</g>
<!-- Node7 -->
<g id="node7" class="node">
<title>Node7</title>
<g id="a_node7"><a xlink:title=" ">
<polygon fill="#e0e0e0" stroke="#999999" points="757,-19 665,-19 665,0 757,0 757,-19"/>
<text text-anchor="middle" x="711" y="-7" font-family="Helvetica,sans-Serif" font-size="10.00">ARX/AR/config.h</text>
</a>
</g>
</g>
<!-- Node2&#45;&gt;Node7 -->
<g id="edge6" class="edge">
<title>Node2&#45;&gt;Node7</title>
<path fill="none" stroke="#63b8ff" d="M557.06,-116.62C614.27,-112.84 719.9,-102.16 743,-74 754.56,-59.91 742.14,-40.95 729.55,-27.42"/>
<polygon fill="#63b8ff" stroke="#63b8ff" points="732.14,-25.06 722.59,-20.49 727.21,-30.02 732.14,-25.06"/>
</g>
<!-- Node8 -->
<g id="node8" class="node">
<title>Node8</title>
<g id="a_node8"><a xlink:href="ar_config_8h.html" target="_top" xlink:title=" ">
<polygon fill="white" stroke="#666666" points="1004.5,-74 901.5,-74 901.5,-55 1004.5,-55 1004.5,-74"/>
<text text-anchor="middle" x="953" y="-62" font-family="Helvetica,sans-Serif" font-size="10.00">ARX/AR/arConfig.h</text>
</a>
</g>
</g>
<!-- Node2&#45;&gt;Node8 -->
<g id="edge7" class="edge">
<title>Node2&#45;&gt;Node8</title>
<path fill="none" stroke="#63b8ff" d="M557.25,-114.29C622.38,-106.87 761.43,-90.79 889.89,-74.25"/>
<polygon fill="#63b8ff" stroke="#63b8ff" points="890.12,-77.75 899.59,-73 889.23,-70.81 890.12,-77.75"/>
</g>
<!-- Node9 -->
<g id="node9" class="node">
<title>Node9</title>
<g id="a_node9"><a xlink:href="log_8h.html" target="_top" xlink:title="Logging utilities.">
<polygon fill="white" stroke="#666666" points="270,-74 176,-74 176,-55 270,-55 270,-74"/>
<text text-anchor="middle" x="223" y="-62" font-family="Helvetica,sans-Serif" font-size="10.00">ARX/ARUtil/log.h</text>
</a>
</g>
</g>
<!-- Node2&#45;&gt;Node9 -->
<g id="edge8" class="edge">
<title>Node2&#45;&gt;Node9</title>
<path fill="none" stroke="#63b8ff" d="M482.69,-111.84C432.12,-102.82 341.3,-86.61 281.59,-75.95"/>
<polygon fill="#63b8ff" stroke="#63b8ff" points="282.4,-72.54 271.94,-74.23 281.17,-79.44 282.4,-72.54"/>
</g>
<!-- Node13 -->
<g id="node13" class="node">
<title>Node13</title>
<g id="a_node13"><a xlink:href="matrix_8h.html" target="_top" xlink:title=" ">
<polygon fill="white" stroke="#666666" points="883.5,-74 790.5,-74 790.5,-55 883.5,-55 883.5,-74"/>
<text text-anchor="middle" x="837" y="-62" font-family="Helvetica,sans-Serif" font-size="10.00">ARX/AR/matrix.h</text>
</a>
</g>
</g>
<!-- Node2&#45;&gt;Node13 -->
<g id="edge15" class="edge">
<title>Node2&#45;&gt;Node13</title>
<path fill="none" stroke="#63b8ff" d="M557.3,-112.26C611.95,-103.13 714.3,-86.01 778.88,-75.22"/>
<polygon fill="#63b8ff" stroke="#63b8ff" points="779.3,-78.69 788.59,-73.59 778.15,-71.79 779.3,-78.69"/>
</g>
<!-- Node15 -->
<g id="node15" class="node">
<title>Node15</title>
<g id="a_node15"><a xlink:href="icp_8h.html" target="_top" xlink:title=" ">
<polygon fill="white" stroke="#666666" points="593.5,-74 514.5,-74 514.5,-55 593.5,-55 593.5,-74"/>
<text text-anchor="middle" x="554" y="-62" font-family="Helvetica,sans-Serif" font-size="10.00">ARX/AR/icp.h</text>
</a>
</g>
</g>
<!-- Node2&#45;&gt;Node15 -->
<g id="edge17" class="edge">
<title>Node2&#45;&gt;Node15</title>
<path fill="none" stroke="#63b8ff" d="M525.61,-109.75C530.12,-102.73 536.59,-92.64 542.21,-83.87"/>
<polygon fill="#63b8ff" stroke="#63b8ff" points="544.99,-86.02 547.45,-75.72 539.1,-82.24 544.99,-86.02"/>
</g>
<!-- Node17 -->
<g id="node17" class="node">
<title>Node17</title>
<g id="a_node17"><a xlink:href="param_8h.html" target="_top" xlink:title="artoolkitX functions for handling calibrated camera parameters.">
<polygon fill="white" stroke="#666666" points="381.5,-74 288.5,-74 288.5,-55 381.5,-55 381.5,-74"/>
<text text-anchor="middle" x="335" y="-62" font-family="Helvetica,sans-Serif" font-size="10.00">ARX/AR/param.h</text>
</a>
</g>
</g>
<!-- Node2&#45;&gt;Node17 -->
<g id="edge20" class="edge">
<title>Node2&#45;&gt;Node17</title>
<path fill="none" stroke="#63b8ff" d="M483.4,-109.51C451.05,-100.76 404.26,-87.42 371.84,-77.71"/>
<polygon fill="#63b8ff" stroke="#63b8ff" points="373.05,-74.42 362.47,-74.88 371.03,-81.12 373.05,-74.42"/>
</g>
<!-- Node18 -->
<g id="node18" class="node">
<title>Node18</title>
<g id="a_node18"><a xlink:href="ar_image_proc_8h.html" target="_top" xlink:title="artoolkitX functions for 2D luminance image processing.">
<polygon fill="white" stroke="#666666" points="734,-74 612,-74 612,-55 734,-55 734,-74"/>
<text text-anchor="middle" x="673" y="-62" font-family="Helvetica,sans-Serif" font-size="10.00">ARX/AR/arImageProc.h</text>
</a>
</g>
</g>
<!-- Node2&#45;&gt;Node18 -->
<g id="edge22" class="edge">
<title>Node2&#45;&gt;Node18</title>
<path fill="none" stroke="#63b8ff" d="M540.74,-109.51C563.95,-100.84 601.83,-87.65 631.18,-77.97"/>
<polygon fill="#63b8ff" stroke="#63b8ff" points="632.11,-81.35 640.53,-74.92 629.94,-74.69 632.11,-81.35"/>
</g>
<!-- Node9&#45;&gt;Node3 -->
<g id="edge9" class="edge">
<title>Node9&#45;&gt;Node3</title>
<path fill="none" stroke="#63b8ff" d="M267.56,-54.58C307.64,-46.43 368.39,-33.77 430.76,-19.21"/>
<polygon fill="#63b8ff" stroke="#63b8ff" points="431.19,-22.7 440.12,-17.01 429.59,-15.89 431.19,-22.7"/>
</g>
<!-- Node9&#45;&gt;Node4 -->
<g id="edge10" class="edge">
<title>Node9&#45;&gt;Node4</title>
<path fill="none" stroke="#63b8ff" d="M241.49,-54.51C258.5,-46.24 283.99,-33.84 303.59,-24.31"/>
<polygon fill="#63b8ff" stroke="#63b8ff" points="304.96,-27.54 312.42,-20.02 301.9,-21.25 304.96,-27.54"/>
</g>
<!-- Node9&#45;&gt;Node6 -->
<g id="edge11" class="edge">
<title>Node9&#45;&gt;Node6</title>
<path fill="none" stroke="#63b8ff" d="M252.86,-54.51C283.39,-45.32 330.82,-31.03 363.31,-21.25"/>
<polygon fill="#63b8ff" stroke="#63b8ff" points="364.11,-24.66 372.68,-18.43 362.09,-17.96 364.11,-24.66"/>
</g>
<!-- Node10 -->
<g id="node10" class="node">
<title>Node10</title>
<g id="a_node10"><a xlink:title=" ">
<polygon fill="#e0e0e0" stroke="#999999" points="206,-19 154,-19 154,0 206,0 206,-19"/>
<text text-anchor="middle" x="180" y="-7" font-family="Helvetica,sans-Serif" font-size="10.00">stdarg.h</text>
</a>
</g>
</g>
<!-- Node9&#45;&gt;Node10 -->
<g id="edge12" class="edge">
<title>Node9&#45;&gt;Node10</title>
<path fill="none" stroke="#63b8ff" d="M215.9,-54.75C210.08,-47.58 201.67,-37.2 194.44,-28.3"/>
<polygon fill="#63b8ff" stroke="#63b8ff" points="197.23,-26.18 188.21,-20.62 191.79,-30.59 197.23,-26.18"/>
</g>
<!-- Node11 -->
<g id="node11" class="node">
<title>Node11</title>
<g id="a_node11"><a xlink:title=" ">
<polygon fill="#e0e0e0" stroke="#999999" points="289.5,-19 224.5,-19 224.5,0 289.5,0 289.5,-19"/>
<text text-anchor="middle" x="257" y="-7" font-family="Helvetica,sans-Serif" font-size="10.00">sys/errno.h</text>
</a>
</g>
</g>
<!-- Node9&#45;&gt;Node11 -->
<g id="edge13" class="edge">
<title>Node9&#45;&gt;Node11</title>
<path fill="none" stroke="#63b8ff" d="M228.61,-54.75C233.12,-47.73 239.59,-37.64 245.21,-28.87"/>
<polygon fill="#63b8ff" stroke="#63b8ff" points="247.99,-31.02 250.45,-20.72 242.1,-27.24 247.99,-31.02"/>
</g>
<!-- Node12 -->
<g id="node12" class="node">
<title>Node12</title>
<g id="a_node12"><a xlink:href="types_8h.html" target="_top" xlink:title=" ">
<polygon fill="white" stroke="#666666" points="135.5,-19 30.5,-19 30.5,0 135.5,0 135.5,-19"/>
<text text-anchor="middle" x="83" y="-7" font-family="Helvetica,sans-Serif" font-size="10.00">ARX/ARUtil/types.h</text>
</a>
</g>
</g>
<!-- Node9&#45;&gt;Node12 -->
<g id="edge14" class="edge">
<title>Node9&#45;&gt;Node12</title>
<path fill="none" stroke="#63b8ff" d="M199.25,-54.51C176.69,-45.97 142.53,-33.03 117.06,-23.4"/>
<polygon fill="#63b8ff" stroke="#63b8ff" points="118.41,-20.16 107.81,-19.89 115.93,-26.71 118.41,-20.16"/>
</g>
<!-- Node13&#45;&gt;Node14 -->
<g id="edge16" class="edge">
<title>Node13&#45;&gt;Node14</title>
<path fill="none" stroke="#63b8ff" d="M853.62,-54.51C868.78,-46.31 891.42,-34.07 908.97,-24.58"/>
<polygon fill="#63b8ff" stroke="#63b8ff" points="910.16,-27.91 917.29,-20.08 906.83,-21.76 910.16,-27.91"/>
</g>
<!-- Node15&#45;&gt;Node3 -->
<g id="edge18" class="edge">
<title>Node15&#45;&gt;Node3</title>
<path fill="none" stroke="#63b8ff" d="M538.9,-54.51C525.4,-46.47 505.35,-34.53 489.54,-25.11"/>
<polygon fill="#63b8ff" stroke="#63b8ff" points="491.56,-22.24 481.18,-20.13 487.98,-28.26 491.56,-22.24"/>
</g>
<!-- Node16 -->
<g id="node16" class="node">
<title>Node16</title>
<g id="a_node16"><a xlink:href="icp_core_8h.html" target="_top" xlink:title=" ">
<polygon fill="white" stroke="#666666" points="606,-19 506,-19 506,0 606,0 606,-19"/>
<text text-anchor="middle" x="556" y="-7" font-family="Helvetica,sans-Serif" font-size="10.00">ARX/AR/icpCore.h</text>
</a>
</g>
</g>
<!-- Node15&#45;&gt;Node16 -->
<g id="edge19" class="edge">
<title>Node15&#45;&gt;Node16</title>
<path fill="none" stroke="#63b8ff" d="M554.33,-54.75C554.57,-48.27 554.92,-39.16 555.23,-30.9"/>
<polygon fill="#63b8ff" stroke="#63b8ff" points="558.73,-31.08 555.61,-20.95 551.73,-30.82 558.73,-31.08"/>
</g>
<!-- Node17&#45;&gt;Node2 -->
<g id="edge21" class="edge">
<title>Node17&#45;&gt;Node2</title>
<path fill="none" stroke="#63b8ff" d="M371.44,-74.45C403.74,-83.18 450.53,-96.52 482.99,-106.24"/>
<polygon fill="#63b8ff" stroke="#63b8ff" points="481.8,-109.53 492.39,-109.07 483.82,-102.83 481.8,-109.53"/>
</g>
<!-- Node18&#45;&gt;Node2 -->
<g id="edge24" class="edge">
<title>Node18&#45;&gt;Node2</title>
<path fill="none" stroke="#63b8ff" d="M652.62,-74.36C629.49,-83.01 591.48,-96.25 562,-105.97"/>
<polygon fill="#63b8ff" stroke="#63b8ff" points="561.03,-102.61 552.61,-109.04 563.2,-109.26 561.03,-102.61"/>
</g>
<!-- Node18&#45;&gt;Node7 -->
<g id="edge23" class="edge">
<title>Node18&#45;&gt;Node7</title>
<path fill="none" stroke="#63b8ff" d="M679.27,-54.75C684.36,-47.66 691.7,-37.42 698.03,-28.59"/>
<polygon fill="#63b8ff" stroke="#63b8ff" points="700.72,-30.84 703.71,-20.67 695.04,-26.76 700.72,-30.84"/>
</g>
<!-- Node23&#45;&gt;Node5 -->
<g id="edge32" class="edge">
<title>Node23&#45;&gt;Node5</title>
<path fill="none" stroke="#63b8ff" d="M111.29,-109.75C114.62,-102.96 119.36,-93.3 123.56,-84.73"/>
<polygon fill="#63b8ff" stroke="#63b8ff" points="126.68,-86.32 127.95,-75.8 120.4,-83.24 126.68,-86.32"/>
</g>
<!-- Node23&#45;&gt;Node12 -->
<g id="edge33" class="edge">
<title>Node23&#45;&gt;Node12</title>
<path fill="none" stroke="#63b8ff" d="M105.04,-109.66C101.22,-92.5 92.72,-54.26 87.47,-30.6"/>
<polygon fill="#63b8ff" stroke="#63b8ff" points="90.91,-29.94 85.32,-20.94 84.07,-31.46 90.91,-29.94"/>
</g>
<!-- Node24 -->
<g id="node24" class="node">
<title>Node24</title>
<g id="a_node24"><a xlink:title=" ">
<polygon fill="#e0e0e0" stroke="#999999" points="52,-74 0,-74 0,-55 52,-55 52,-74"/>
<text text-anchor="middle" x="26" y="-62" font-family="Helvetica,sans-Serif" font-size="10.00">stddef.h</text>
</a>
</g>
</g>
<!-- Node23&#45;&gt;Node24 -->
<g id="edge31" class="edge">
<title>Node23&#45;&gt;Node24</title>
<path fill="none" stroke="#63b8ff" d="M93.26,-109.51C81.2,-101.62 63.41,-89.98 49.16,-80.65"/>
<polygon fill="#63b8ff" stroke="#63b8ff" points="51.09,-77.73 40.8,-75.19 47.26,-83.59 51.09,-77.73"/>
</g>
</g>
</svg>
