<?xml version="1.0" encoding="UTF-8" standalone="no"?>
<!DOCTYPE svg PUBLIC "-//W3C//DTD SVG 1.1//EN"
 "http://www.w3.org/Graphics/SVG/1.1/DTD/svg11.dtd">
<!-- Generated by graphviz version 2.40.1 (20161225.0304)
 -->
<!-- Title: arUtilGetAndCreateResourcesDirectoryPath Pages: 1 -->
<!--zoomable 119 -->
<svg id="main" version="1.1" xmlns="http://www.w3.org/2000/svg" xmlns:xlink="http://www.w3.org/1999/xlink" xml:space="preserve" onload="init(evt)">
<style type="text/css"><![CDATA[
.edge:hover path { stroke: red; }
.edge:hover polygon { stroke: red; fill: red; }
]]></style>
<script type="text/javascript"><![CDATA[
var edges = document.getElementsByTagName('g');
if (edges && edges.length) {
  for (var i=0;i<edges.length;i++) {
    if (edges[i].id.substr(0,4)=='edge') {
      edges[i].setAttribute('class','edge');
    }
  }
}
]]></script>
        <defs>
                <circle id="rim" cx="0" cy="0" r="7"/>
                <circle id="rim2" cx="0" cy="0" r="3.5"/>
                <g id="zoomPlus">
                        <use xlink:href="#rim" fill="#404040">
                                <set attributeName="fill" to="#808080" begin="zoomplus.mouseover" end="zoomplus.mouseout"/>
                        </use>
                        <path d="M-4,0h8M0,-4v8" fill="none" stroke="white" stroke-width="1.5" pointer-events="none"/>
                </g>
                <g id="zoomMin">
                        <use xlink:href="#rim" fill="#404040">
                                <set attributeName="fill" to="#808080" begin="zoomminus.mouseover" end="zoomminus.mouseout"/>
                        </use>
                        <path d="M-4,0h8" fill="none" stroke="white" stroke-width="1.5" pointer-events="none"/>
                </g>
                <g id="dirArrow">
                        <path fill="none" stroke="white" stroke-width="1.5" d="M0,-3.0v7 M-2.5,-0.5L0,-3.0L2.5,-0.5"/>
                </g>
               <g id="resetDef">
                       <use xlink:href="#rim2" fill="#404040">
                               <set attributeName="fill" to="#808080" begin="reset.mouseover" end="reset.mouseout"/>
                       </use>
               </g>
        </defs>

<script type="text/javascript">
var viewWidth = 561;
var viewHeight = 119;
var sectionId = 'dynsection-2';
</script>
<script xlink:href="svgpan.js"/>
<svg id="graph" class="graph">
<g id="viewport">
<title>arUtilGetAndCreateResourcesDirectoryPath</title>
<polygon fill="#ffffff" stroke="transparent" points="-4,4 -4,-115 556.9199,-115 556.9199,4 -4,4"/>
<!-- Node6 -->
<g id="node1" class="node">
<title>Node6</title>
<polygon fill="#bfbfbf" stroke="#000000" points="0,-32.5 0,-60.5 151.0586,-60.5 151.0586,-32.5 0,-32.5"/>
<text text-anchor="start" x="8" y="-48.5" font-family="Helvetica,sans-Serif" font-size="10.00" fill="#000000">arUtilGetAndCreateResources</text>
<text text-anchor="middle" x="75.5293" y="-38.5" font-family="Helvetica,sans-Serif" font-size="10.00" fill="#000000">DirectoryPath</text>
</g>
<!-- Node7 -->
<g id="node2" class="node">
<title>Node7</title>
<g id="a_node2"><a xlink:href="ar_util_8c.html#ad5271b5188c065012893079f667e2eac" target="_top" xlink:title="Get the path to the resources directory using the specified behavior. ">
<polygon fill="#ffffff" stroke="#000000" points="187.0586,-74.5 187.0586,-92.5 350.8857,-92.5 350.8857,-74.5 187.0586,-74.5"/>
<text text-anchor="middle" x="268.9722" y="-80.5" font-family="Helvetica,sans-Serif" font-size="10.00" fill="#000000">arUtilGetResourcesDirectoryPath</text>
</a>
</g>
</g>
<!-- Node6&#45;&gt;Node7 -->
<g id="edge1" class="edge">
<title>Node6&#45;&gt;Node7</title>
<path fill="none" stroke="#191970" d="M148.9376,-60.5409C169.6894,-64.5101 191.9637,-68.7705 211.6216,-72.5305"/>
<polygon fill="#191970" stroke="#191970" points="211.1615,-76.0059 221.641,-74.4469 212.4767,-69.1305 211.1615,-76.0059"/>
</g>
<!-- Node10 -->
<g id="node5" class="node">
<title>Node10</title>
<g id="a_node5"><a xlink:href="file__utils_8c.html#a9ea670a576a1537cb0a8d35778c0bbbc" target="_top" xlink:title="test_d">
<polygon fill="#ffffff" stroke="#000000" points="247.3516,-37.5 247.3516,-55.5 290.5928,-55.5 290.5928,-37.5 247.3516,-37.5"/>
<text text-anchor="middle" x="268.9722" y="-43.5" font-family="Helvetica,sans-Serif" font-size="10.00" fill="#000000">test_d</text>
</a>
</g>
</g>
<!-- Node6&#45;&gt;Node10 -->
<g id="edge5" class="edge">
<title>Node6&#45;&gt;Node10</title>
<path fill="none" stroke="#191970" d="M151.1505,-46.5C181.1077,-46.5 213.9037,-46.5 237.2704,-46.5"/>
<polygon fill="#191970" stroke="#191970" points="237.299,-50.0001 247.2989,-46.5 237.2989,-43.0001 237.299,-50.0001"/>
</g>
<!-- Node11 -->
<g id="node6" class="node">
<title>Node11</title>
<g id="a_node6"><a xlink:href="file__utils_8c.html#a6d0adb35b2ec47f5a5d3d9c2e424532a" target="_top" xlink:title="mkdir_p">
<polygon fill="#ffffff" stroke="#000000" points="243.189,-.5 243.189,-18.5 294.7554,-18.5 294.7554,-.5 243.189,-.5"/>
<text text-anchor="middle" x="268.9722" y="-6.5" font-family="Helvetica,sans-Serif" font-size="10.00" fill="#000000">mkdir_p</text>
</a>
</g>
</g>
<!-- Node6&#45;&gt;Node11 -->
<g id="edge6" class="edge">
<title>Node6&#45;&gt;Node11</title>
<path fill="none" stroke="#191970" d="M148.9376,-32.4591C177.7999,-26.9386 209.6073,-20.8548 233.2246,-16.3375"/>
<polygon fill="#191970" stroke="#191970" points="233.9708,-19.7583 243.1352,-14.4419 232.6557,-12.8829 233.9708,-19.7583"/>
</g>
<!-- Node7&#45;&gt;Node7 -->
<g id="edge4" class="edge">
<title>Node7&#45;&gt;Node7</title>
<path fill="none" stroke="#191970" d="M240.3638,-92.5134C224.561,-101.322 234.0972,-111 268.9722,-111 294.5835,-111 306.5294,-105.7806 304.8099,-99.5191"/>
<polygon fill="#191970" stroke="#191970" points="307.1976,-96.9591 297.5806,-92.5134 302.3262,-101.986 307.1976,-96.9591"/>
</g>
<!-- Node8 -->
<g id="node3" class="node">
<title>Node8</title>
<g id="a_node3"><a xlink:href="ar_util_8c.html#ae4f3e60c7edce9acfdddb9b454d13c1d" target="_top" xlink:title="arUtilGetDirectoryNameFromPath">
<polygon fill="#ffffff" stroke="#000000" points="386.8857,-92.5 386.8857,-110.5 552.9199,-110.5 552.9199,-92.5 386.8857,-92.5"/>
<text text-anchor="middle" x="469.9028" y="-98.5" font-family="Helvetica,sans-Serif" font-size="10.00" fill="#000000">arUtilGetDirectoryNameFromPath</text>
</a>
</g>
</g>
<!-- Node7&#45;&gt;Node8 -->
<g id="edge2" class="edge">
<title>Node7&#45;&gt;Node8</title>
<path fill="none" stroke="#191970" d="M350.9882,-90.8473C359.4896,-91.6088 368.1736,-92.3868 376.7852,-93.1582"/>
<polygon fill="#191970" stroke="#191970" points="376.5735,-96.6532 386.8459,-94.0595 377.1981,-89.6811 376.5735,-96.6532"/>
</g>
<!-- Node9 -->
<g id="node4" class="node">
<title>Node9</title>
<g id="a_node4"><a xlink:href="ar_util_8c.html#ac0d48e09db3feb8db34b2911ca70f8d0" target="_top" xlink:title="arUtilGetFileNameFromPath">
<polygon fill="#ffffff" stroke="#000000" points="398.8315,-55.5 398.8315,-73.5 540.9741,-73.5 540.9741,-55.5 398.8315,-55.5"/>
<text text-anchor="middle" x="469.9028" y="-61.5" font-family="Helvetica,sans-Serif" font-size="10.00" fill="#000000">arUtilGetFileNameFromPath</text>
</a>
</g>
</g>
<!-- Node7&#45;&gt;Node9 -->
<g id="edge3" class="edge">
<title>Node7&#45;&gt;Node9</title>
<path fill="none" stroke="#191970" d="M350.9882,-75.7446C363.3656,-74.5742 376.13,-73.3672 388.4945,-72.198"/>
<polygon fill="#191970" stroke="#191970" points="389.1434,-75.6523 398.7695,-71.2264 388.4844,-68.6834 389.1434,-75.6523"/>
</g>
</g>
</svg>
        <g id="navigator" transform="translate(0 0)" fill="#404254">
                <rect fill="#f2f5e9" fill-opacity="0.5" stroke="#606060" stroke-width=".5" x="0" y="0" width="60" height="60"/>
                <use id="zoomplus" xlink:href="#zoomPlus" x="17" y="9" onmousedown="handleZoom(evt,'in')"/>
                <use id="zoomminus" xlink:href="#zoomMin" x="42" y="9" onmousedown="handleZoom(evt,'out')"/>
                <use id="reset" xlink:href="#resetDef" x="30" y="36" onmousedown="handleReset()"/>
                <g id="arrowUp" xlink:href="#dirArrow" transform="translate(30 24)" onmousedown="handlePan(0,-1)">
                  <use xlink:href="#rim" fill="#404040">
                        <set attributeName="fill" to="#808080" begin="arrowUp.mouseover" end="arrowUp.mouseout"/>
                  </use>
                  <path fill="none" stroke="white" stroke-width="1.5" d="M0,-3.0v7 M-2.5,-0.5L0,-3.0L2.5,-0.5"/>
                </g>
                <g id="arrowRight" xlink:href="#dirArrow" transform="rotate(90) translate(36 -43)" onmousedown="handlePan(1,0)">
                  <use xlink:href="#rim" fill="#404040">
                        <set attributeName="fill" to="#808080" begin="arrowRight.mouseover" end="arrowRight.mouseout"/>
                  </use>
                  <path fill="none" stroke="white" stroke-width="1.5" d="M0,-3.0v7 M-2.5,-0.5L0,-3.0L2.5,-0.5"/>
                </g>
                <g id="arrowDown" xlink:href="#dirArrow" transform="rotate(180) translate(-30 -48)" onmousedown="handlePan(0,1)">
                  <use xlink:href="#rim" fill="#404040">
                        <set attributeName="fill" to="#808080" begin="arrowDown.mouseover" end="arrowDown.mouseout"/>
                  </use>
                  <path fill="none" stroke="white" stroke-width="1.5" d="M0,-3.0v7 M-2.5,-0.5L0,-3.0L2.5,-0.5"/>
                </g>
                <g id="arrowLeft" xlink:href="#dirArrow" transform="rotate(270) translate(-36 17)" onmousedown="handlePan(-1,0)">
                  <use xlink:href="#rim" fill="#404040">
                        <set attributeName="fill" to="#808080" begin="arrowLeft.mouseover" end="arrowLeft.mouseout"/>
                  </use>
                  <path fill="none" stroke="white" stroke-width="1.5" d="M0,-3.0v7 M-2.5,-0.5L0,-3.0L2.5,-0.5"/>
                </g>
        </g>
        <svg viewBox="0 0 15 15" width="100%" height="30px" preserveAspectRatio="xMaxYMin meet">
         <g id="arrow_out" transform="scale(0.3 0.3)">
          <a xlink:href="ar_util_8c_aee3916e59439c65e24bd1e79c8579052_cgraph_org.svg" target="_base">
           <rect id="button" ry="5" rx="5" y="6" x="6" height="38" width="38"
                fill="#f2f5e9" fill-opacity="0.5" stroke="#606060" stroke-width="1.0"/>
           <path id="arrow"
             d="M 11.500037,31.436501 C 11.940474,20.09759 22.043105,11.32322 32.158766,21.979434 L 37.068811,17.246167 C 37.068811,17.246167 37.088388,32 37.088388,32 L 22.160133,31.978069 C 22.160133,31.978069 26.997745,27.140456 26.997745,27.140456 C 18.528582,18.264221 13.291696,25.230495 11.500037,31.436501 z"
             style="fill:#404040;"/>
          </a>
         </g>
        </svg>
</svg>
