<?xml version="1.0" encoding="UTF-8" standalone="no"?>
<!DOCTYPE svg PUBLIC "-//W3C//DTD SVG 1.1//EN"
 "http://www.w3.org/Graphics/SVG/1.1/DTD/svg11.dtd">
<!-- Generated by graphviz version 7.0.5 (20221223.1930)
 -->
<!-- Title: Source/ARX/ARG/arg_private.h Pages: 1 -->
<svg width="544pt" height="170pt"
 viewBox="0.00 0.00 543.50 170.00" xmlns="http://www.w3.org/2000/svg" xmlns:xlink="http://www.w3.org/1999/xlink">
<g id="graph0" class="graph" transform="scale(1 1) rotate(0) translate(4 166)">
<title>Source/ARX/ARG/arg_private.h</title>
<!-- Node1 -->
<g id="node1" class="node">
<title>Node1</title>
<g id="a_node1"><a xlink:title=" ">
<polygon fill="#999999" stroke="#666666" points="313,-162 200,-162 200,-132 313,-132 313,-162"/>
<text text-anchor="start" x="208" y="-150" font-family="Helvetica,sans-Serif" font-size="10.00">Source/ARX/ARG/arg</text>
<text text-anchor="middle" x="256.5" y="-139" font-family="Helvetica,sans-Serif" font-size="10.00">_private.h</text>
</a>
</g>
</g>
<!-- Node2 -->
<g id="node2" class="node">
<title>Node2</title>
<g id="a_node2"><a xlink:href="arg__gl_8h.html" target="_top" xlink:title=" ">
<polygon fill="white" stroke="#666666" points="465.5,-90.5 331.5,-90.5 331.5,-71.5 465.5,-71.5 465.5,-90.5"/>
<text text-anchor="middle" x="398.5" y="-78.5" font-family="Helvetica,sans-Serif" font-size="10.00">Source/ARX/ARG/arg_gl.h</text>
</a>
</g>
</g>
<!-- Node1&#45;&gt;Node2 -->
<g id="edge1" class="edge">
<title>Node1&#45;&gt;Node2</title>
<path fill="none" stroke="#63b8ff" d="M298.51,-127.06C324.96,-115.14 357.89,-100.3 378.56,-90.99"/>
<polygon fill="#63b8ff" stroke="#63b8ff" points="297.43,-123.72 289.75,-131.02 300.3,-130.1 297.43,-123.72"/>
</g>
<!-- Node5 -->
<g id="node5" class="node">
<title>Node5</title>
<g id="a_node5"><a xlink:href="arg__gl3_8h.html" target="_top" xlink:title=" ">
<polygon fill="white" stroke="#666666" points="182,-96 69,-96 69,-66 182,-66 182,-96"/>
<text text-anchor="start" x="77" y="-84" font-family="Helvetica,sans-Serif" font-size="10.00">Source/ARX/ARG/arg</text>
<text text-anchor="middle" x="125.5" y="-73" font-family="Helvetica,sans-Serif" font-size="10.00">_gl3.h</text>
</a>
</g>
</g>
<!-- Node1&#45;&gt;Node5 -->
<g id="edge4" class="edge">
<title>Node1&#45;&gt;Node5</title>
<path fill="none" stroke="#63b8ff" d="M216.77,-126.59C196.81,-116.84 173.07,-105.24 154.8,-96.31"/>
<polygon fill="#63b8ff" stroke="#63b8ff" points="215.22,-129.73 225.74,-130.97 218.29,-123.44 215.22,-129.73"/>
</g>
<!-- Node7 -->
<g id="node7" class="node">
<title>Node7</title>
<g id="a_node7"><a xlink:href="arg__gles2_8h.html" target="_top" xlink:title=" ">
<polygon fill="white" stroke="#666666" points="313,-96 200,-96 200,-66 313,-66 313,-96"/>
<text text-anchor="start" x="208" y="-84" font-family="Helvetica,sans-Serif" font-size="10.00">Source/ARX/ARG/arg</text>
<text text-anchor="middle" x="256.5" y="-73" font-family="Helvetica,sans-Serif" font-size="10.00">_gles2.h</text>
</a>
</g>
</g>
<!-- Node1&#45;&gt;Node7 -->
<g id="edge7" class="edge">
<title>Node1&#45;&gt;Node7</title>
<path fill="none" stroke="#63b8ff" d="M256.5,-120.39C256.5,-112.13 256.5,-103.28 256.5,-96.16"/>
<polygon fill="#63b8ff" stroke="#63b8ff" points="253,-120.28 256.5,-130.28 260,-120.28 253,-120.28"/>
</g>
<!-- Node3 -->
<g id="node3" class="node">
<title>Node3</title>
<g id="a_node3"><a xlink:href="arg_8c.html" target="_top" xlink:title=" ">
<polygon fill="white" stroke="#666666" points="252,-24.5 131,-24.5 131,-5.5 252,-5.5 252,-24.5"/>
<text text-anchor="middle" x="191.5" y="-12.5" font-family="Helvetica,sans-Serif" font-size="10.00">Source/ARX/ARG/arg.c</text>
</a>
</g>
</g>
<!-- Node2&#45;&gt;Node3 -->
<g id="edge2" class="edge">
<title>Node2&#45;&gt;Node3</title>
<path fill="none" stroke="#63b8ff" d="M358.9,-67.76C318.4,-55.24 256.46,-36.08 220.37,-24.93"/>
<polygon fill="#63b8ff" stroke="#63b8ff" points="357.68,-71.04 368.27,-70.65 359.75,-64.36 357.68,-71.04"/>
</g>
<!-- Node4 -->
<g id="node4" class="node">
<title>Node4</title>
<g id="a_node4"><a xlink:href="arg__gl_8c.html" target="_top" xlink:title=" ">
<polygon fill="white" stroke="#666666" points="535.5,-24.5 401.5,-24.5 401.5,-5.5 535.5,-5.5 535.5,-24.5"/>
<text text-anchor="middle" x="468.5" y="-12.5" font-family="Helvetica,sans-Serif" font-size="10.00">Source/ARX/ARG/arg_gl.c</text>
</a>
</g>
</g>
<!-- Node2&#45;&gt;Node4 -->
<g id="edge3" class="edge">
<title>Node2&#45;&gt;Node4</title>
<path fill="none" stroke="#63b8ff" d="M416.73,-63.33C430.2,-51.02 448.02,-34.73 458.85,-24.82"/>
<polygon fill="#63b8ff" stroke="#63b8ff" points="414.37,-60.75 409.35,-70.08 419.09,-65.92 414.37,-60.75"/>
</g>
<!-- Node5&#45;&gt;Node3 -->
<g id="edge5" class="edge">
<title>Node5&#45;&gt;Node3</title>
<path fill="none" stroke="#63b8ff" d="M148.25,-57.94C159.96,-46.58 173.6,-33.36 182.38,-24.84"/>
<polygon fill="#63b8ff" stroke="#63b8ff" points="145.98,-55.27 141.23,-64.74 150.85,-60.29 145.98,-55.27"/>
</g>
<!-- Node6 -->
<g id="node6" class="node">
<title>Node6</title>
<g id="a_node6"><a xlink:href="arg__gl3_8c.html" target="_top" xlink:title=" ">
<polygon fill="white" stroke="#666666" points="113,-30 0,-30 0,0 113,0 113,-30"/>
<text text-anchor="start" x="8" y="-18" font-family="Helvetica,sans-Serif" font-size="10.00">Source/ARX/ARG/arg</text>
<text text-anchor="middle" x="56.5" y="-7" font-family="Helvetica,sans-Serif" font-size="10.00">_gl3.c</text>
</a>
</g>
</g>
<!-- Node5&#45;&gt;Node6 -->
<g id="edge6" class="edge">
<title>Node5&#45;&gt;Node6</title>
<path fill="none" stroke="#63b8ff" d="M101.88,-58.09C91.91,-48.85 80.61,-38.36 71.77,-30.16"/>
<polygon fill="#63b8ff" stroke="#63b8ff" points="99.37,-60.53 109.08,-64.77 104.13,-55.4 99.37,-60.53"/>
</g>
<!-- Node7&#45;&gt;Node3 -->
<g id="edge8" class="edge">
<title>Node7&#45;&gt;Node3</title>
<path fill="none" stroke="#63b8ff" d="M234.1,-57.94C222.56,-46.58 209.13,-33.36 200.48,-24.84"/>
<polygon fill="#63b8ff" stroke="#63b8ff" points="231.41,-60.21 241,-64.73 236.33,-55.22 231.41,-60.21"/>
</g>
<!-- Node8 -->
<g id="node8" class="node">
<title>Node8</title>
<g id="a_node8"><a xlink:href="arg__gles2_8c.html" target="_top" xlink:title=" ">
<polygon fill="white" stroke="#666666" points="383,-30 270,-30 270,0 383,0 383,-30"/>
<text text-anchor="start" x="278" y="-18" font-family="Helvetica,sans-Serif" font-size="10.00">Source/ARX/ARG/arg</text>
<text text-anchor="middle" x="326.5" y="-7" font-family="Helvetica,sans-Serif" font-size="10.00">_gles2.c</text>
</a>
</g>
</g>
<!-- Node7&#45;&gt;Node8 -->
<g id="edge9" class="edge">
<title>Node7&#45;&gt;Node8</title>
<path fill="none" stroke="#63b8ff" d="M280.47,-58.09C290.57,-48.85 302.04,-38.36 311.01,-30.16"/>
<polygon fill="#63b8ff" stroke="#63b8ff" points="278.17,-55.44 273.15,-64.78 282.89,-60.61 278.17,-55.44"/>
</g>
</g>
</svg>
