<?xml version="1.0" encoding="UTF-8" standalone="no"?>
<!DOCTYPE svg PUBLIC "-//W3C//DTD SVG 1.1//EN"
 "http://www.w3.org/Graphics/SVG/1.1/DTD/svg11.dtd">
<!-- Generated by graphviz version 7.0.5 (20221223.1930)
 -->
<!-- Title: Source/ARX/ARG/include/ARX/ARG/arg.h Pages: 1 -->
<svg width="1730pt" height="236pt"
 viewBox="0.00 0.00 1729.50 236.00" xmlns="http://www.w3.org/2000/svg" xmlns:xlink="http://www.w3.org/1999/xlink">
<g id="graph0" class="graph" transform="scale(1 1) rotate(0) translate(4 232)">
<title>Source/ARX/ARG/include/ARX/ARG/arg.h</title>
<!-- Node1 -->
<g id="node1" class="node">
<title>Node1</title>
<g id="a_node1"><a xlink:title="A collection of useful graphics routines for artoolkitX.">
<polygon fill="#999999" stroke="#666666" points="413,-228 283,-228 283,-198 413,-198 413,-228"/>
<text text-anchor="start" x="291" y="-216" font-family="Helvetica,sans-Serif" font-size="10.00">Source/ARX/ARG/include</text>
<text text-anchor="middle" x="348" y="-205" font-family="Helvetica,sans-Serif" font-size="10.00">/ARX/ARG/arg.h</text>
</a>
</g>
</g>
<!-- Node2 -->
<g id="node2" class="node">
<title>Node2</title>
<g id="a_node2"><a xlink:href="arg_8c.html" target="_top" xlink:title=" ">
<polygon fill="white" stroke="#666666" points="273.5,-24.5 152.5,-24.5 152.5,-5.5 273.5,-5.5 273.5,-24.5"/>
<text text-anchor="middle" x="213" y="-12.5" font-family="Helvetica,sans-Serif" font-size="10.00">Source/ARX/ARG/arg.c</text>
</a>
</g>
</g>
<!-- Node1&#45;&gt;Node2 -->
<g id="edge1" class="edge">
<title>Node1&#45;&gt;Node2</title>
<path fill="none" stroke="#63b8ff" d="M274.3,-194.15C224.02,-177.71 161.11,-147.79 130,-96 123.13,-84.57 123.44,-77.61 130,-66 141.59,-45.5 165.32,-32.46 184.46,-24.86"/>
<polygon fill="#63b8ff" stroke="#63b8ff" points="273.11,-197.44 283.7,-197.1 275.2,-190.76 273.11,-197.44"/>
</g>
<!-- Node3 -->
<g id="node3" class="node">
<title>Node3</title>
<g id="a_node3"><a xlink:href="arg__private_8h.html" target="_top" xlink:title=" ">
<polygon fill="white" stroke="#666666" points="404.5,-162 291.5,-162 291.5,-132 404.5,-132 404.5,-162"/>
<text text-anchor="start" x="299.5" y="-150" font-family="Helvetica,sans-Serif" font-size="10.00">Source/ARX/ARG/arg</text>
<text text-anchor="middle" x="348" y="-139" font-family="Helvetica,sans-Serif" font-size="10.00">_private.h</text>
</a>
</g>
</g>
<!-- Node1&#45;&gt;Node3 -->
<g id="edge2" class="edge">
<title>Node1&#45;&gt;Node3</title>
<path fill="none" stroke="#63b8ff" d="M348,-186.39C348,-178.13 348,-169.28 348,-162.16"/>
<polygon fill="#63b8ff" stroke="#63b8ff" points="344.5,-186.28 348,-196.28 351.5,-186.28 344.5,-186.28"/>
</g>
<!-- Node10 -->
<g id="node10" class="node">
<title>Node10</title>
<g id="a_node10"><a xlink:href="_a_r_video_view_8h.html" target="_top" xlink:title=" ">
<polygon fill="white" stroke="#666666" points="772.5,-162 661.5,-162 661.5,-132 772.5,-132 772.5,-162"/>
<text text-anchor="start" x="669.5" y="-150" font-family="Helvetica,sans-Serif" font-size="10.00">Source/ARX/include</text>
<text text-anchor="middle" x="717" y="-139" font-family="Helvetica,sans-Serif" font-size="10.00">/ARX/ARVideoView.h</text>
</a>
</g>
</g>
<!-- Node1&#45;&gt;Node10 -->
<g id="edge12" class="edge">
<title>Node1&#45;&gt;Node10</title>
<path fill="none" stroke="#63b8ff" d="M424.16,-198.79C494.74,-186.55 598.09,-168.62 661.27,-157.67"/>
<polygon fill="#63b8ff" stroke="#63b8ff" points="423.87,-195.29 414.61,-200.45 425.06,-202.19 423.87,-195.29"/>
</g>
<!-- Node4 -->
<g id="node4" class="node">
<title>Node4</title>
<g id="a_node4"><a xlink:href="arg__gl_8h.html" target="_top" xlink:title=" ">
<polygon fill="white" stroke="#666666" points="273,-90.5 139,-90.5 139,-71.5 273,-71.5 273,-90.5"/>
<text text-anchor="middle" x="206" y="-78.5" font-family="Helvetica,sans-Serif" font-size="10.00">Source/ARX/ARG/arg_gl.h</text>
</a>
</g>
</g>
<!-- Node3&#45;&gt;Node4 -->
<g id="edge3" class="edge">
<title>Node3&#45;&gt;Node4</title>
<path fill="none" stroke="#63b8ff" d="M305.99,-127.06C279.54,-115.14 246.61,-100.3 225.94,-90.99"/>
<polygon fill="#63b8ff" stroke="#63b8ff" points="304.2,-130.1 314.75,-131.02 307.07,-123.72 304.2,-130.1"/>
</g>
<!-- Node6 -->
<g id="node6" class="node">
<title>Node6</title>
<g id="a_node6"><a xlink:href="arg__gl3_8h.html" target="_top" xlink:title=" ">
<polygon fill="white" stroke="#666666" points="404.5,-96 291.5,-96 291.5,-66 404.5,-66 404.5,-96"/>
<text text-anchor="start" x="299.5" y="-84" font-family="Helvetica,sans-Serif" font-size="10.00">Source/ARX/ARG/arg</text>
<text text-anchor="middle" x="348" y="-73" font-family="Helvetica,sans-Serif" font-size="10.00">_gl3.h</text>
</a>
</g>
</g>
<!-- Node3&#45;&gt;Node6 -->
<g id="edge6" class="edge">
<title>Node3&#45;&gt;Node6</title>
<path fill="none" stroke="#63b8ff" d="M348,-120.39C348,-112.13 348,-103.28 348,-96.16"/>
<polygon fill="#63b8ff" stroke="#63b8ff" points="344.5,-120.28 348,-130.28 351.5,-120.28 344.5,-120.28"/>
</g>
<!-- Node8 -->
<g id="node8" class="node">
<title>Node8</title>
<g id="a_node8"><a xlink:href="arg__gles2_8h.html" target="_top" xlink:title=" ">
<polygon fill="white" stroke="#666666" points="535.5,-96 422.5,-96 422.5,-66 535.5,-66 535.5,-96"/>
<text text-anchor="start" x="430.5" y="-84" font-family="Helvetica,sans-Serif" font-size="10.00">Source/ARX/ARG/arg</text>
<text text-anchor="middle" x="479" y="-73" font-family="Helvetica,sans-Serif" font-size="10.00">_gles2.h</text>
</a>
</g>
</g>
<!-- Node3&#45;&gt;Node8 -->
<g id="edge9" class="edge">
<title>Node3&#45;&gt;Node8</title>
<path fill="none" stroke="#63b8ff" d="M387.73,-126.59C407.69,-116.84 431.43,-105.24 449.7,-96.31"/>
<polygon fill="#63b8ff" stroke="#63b8ff" points="386.21,-123.44 378.76,-130.97 389.28,-129.73 386.21,-123.44"/>
</g>
<!-- Node4&#45;&gt;Node2 -->
<g id="edge4" class="edge">
<title>Node4&#45;&gt;Node2</title>
<path fill="none" stroke="#63b8ff" d="M208.22,-59.68C209.51,-47.94 211.06,-33.77 212.03,-24.82"/>
<polygon fill="#63b8ff" stroke="#63b8ff" points="204.75,-59.28 207.14,-69.6 211.7,-60.04 204.75,-59.28"/>
</g>
<!-- Node5 -->
<g id="node5" class="node">
<title>Node5</title>
<g id="a_node5"><a xlink:href="arg__gl_8c.html" target="_top" xlink:title=" ">
<polygon fill="white" stroke="#666666" points="134,-24.5 0,-24.5 0,-5.5 134,-5.5 134,-24.5"/>
<text text-anchor="middle" x="67" y="-12.5" font-family="Helvetica,sans-Serif" font-size="10.00">Source/ARX/ARG/arg_gl.c</text>
</a>
</g>
</g>
<!-- Node4&#45;&gt;Node5 -->
<g id="edge5" class="edge">
<title>Node4&#45;&gt;Node5</title>
<path fill="none" stroke="#63b8ff" d="M176.54,-66.44C149.28,-53.88 109.53,-35.58 86.16,-24.82"/>
<polygon fill="#63b8ff" stroke="#63b8ff" points="174.75,-69.46 185.3,-70.47 177.68,-63.11 174.75,-69.46"/>
</g>
<!-- Node6&#45;&gt;Node2 -->
<g id="edge7" class="edge">
<title>Node6&#45;&gt;Node2</title>
<path fill="none" stroke="#63b8ff" d="M307.39,-60.75C282.36,-48.88 251.43,-34.22 231.95,-24.99"/>
<polygon fill="#63b8ff" stroke="#63b8ff" points="305.8,-63.87 316.34,-64.99 308.8,-57.54 305.8,-63.87"/>
</g>
<!-- Node7 -->
<g id="node7" class="node">
<title>Node7</title>
<g id="a_node7"><a xlink:href="arg__gl3_8c.html" target="_top" xlink:title=" ">
<polygon fill="white" stroke="#666666" points="404.5,-30 291.5,-30 291.5,0 404.5,0 404.5,-30"/>
<text text-anchor="start" x="299.5" y="-18" font-family="Helvetica,sans-Serif" font-size="10.00">Source/ARX/ARG/arg</text>
<text text-anchor="middle" x="348" y="-7" font-family="Helvetica,sans-Serif" font-size="10.00">_gl3.c</text>
</a>
</g>
</g>
<!-- Node6&#45;&gt;Node7 -->
<g id="edge8" class="edge">
<title>Node6&#45;&gt;Node7</title>
<path fill="none" stroke="#63b8ff" d="M348,-54.39C348,-46.13 348,-37.28 348,-30.16"/>
<polygon fill="#63b8ff" stroke="#63b8ff" points="344.5,-54.28 348,-64.28 351.5,-54.28 344.5,-54.28"/>
</g>
<!-- Node8&#45;&gt;Node2 -->
<g id="edge10" class="edge">
<title>Node8&#45;&gt;Node2</title>
<path fill="none" stroke="#63b8ff" d="M411.28,-63.71C360.05,-51.38 291.63,-34.92 250.02,-24.91"/>
<polygon fill="#63b8ff" stroke="#63b8ff" points="410.25,-67.06 420.79,-65.99 411.89,-60.25 410.25,-67.06"/>
</g>
<!-- Node9 -->
<g id="node9" class="node">
<title>Node9</title>
<g id="a_node9"><a xlink:href="arg__gles2_8c.html" target="_top" xlink:title=" ">
<polygon fill="white" stroke="#666666" points="535.5,-30 422.5,-30 422.5,0 535.5,0 535.5,-30"/>
<text text-anchor="start" x="430.5" y="-18" font-family="Helvetica,sans-Serif" font-size="10.00">Source/ARX/ARG/arg</text>
<text text-anchor="middle" x="479" y="-7" font-family="Helvetica,sans-Serif" font-size="10.00">_gles2.c</text>
</a>
</g>
</g>
<!-- Node8&#45;&gt;Node9 -->
<g id="edge11" class="edge">
<title>Node8&#45;&gt;Node9</title>
<path fill="none" stroke="#63b8ff" d="M479,-54.39C479,-46.13 479,-37.28 479,-30.16"/>
<polygon fill="#63b8ff" stroke="#63b8ff" points="475.5,-54.28 479,-64.28 482.5,-54.28 475.5,-54.28"/>
</g>
<!-- Node11 -->
<g id="node11" class="node">
<title>Node11</title>
<g id="a_node11"><a xlink:href="_a_r_video_view_8cpp.html" target="_top" xlink:title=" ">
<polygon fill="white" stroke="#666666" points="793,-90.5 641,-90.5 641,-71.5 793,-71.5 793,-90.5"/>
<text text-anchor="middle" x="717" y="-78.5" font-family="Helvetica,sans-Serif" font-size="10.00">Source/ARX/ARVideoView.cpp</text>
</a>
</g>
</g>
<!-- Node10&#45;&gt;Node11 -->
<g id="edge13" class="edge">
<title>Node10&#45;&gt;Node11</title>
<path fill="none" stroke="#63b8ff" d="M717,-120.59C717,-110.06 717,-98.53 717,-90.84"/>
<polygon fill="#63b8ff" stroke="#63b8ff" points="713.5,-120.28 717,-130.28 720.5,-120.28 713.5,-120.28"/>
</g>
<!-- Node12 -->
<g id="node12" class="node">
<title>Node12</title>
<g id="a_node12"><a xlink:href="_a_r_controller_8h.html" target="_top" xlink:title=" ">
<polygon fill="white" stroke="#666666" points="1086.5,-96 979.5,-96 979.5,-66 1086.5,-66 1086.5,-96"/>
<text text-anchor="start" x="987.5" y="-84" font-family="Helvetica,sans-Serif" font-size="10.00">Source/ARX/include</text>
<text text-anchor="middle" x="1033" y="-73" font-family="Helvetica,sans-Serif" font-size="10.00">/ARX/ARController.h</text>
</a>
</g>
</g>
<!-- Node10&#45;&gt;Node12 -->
<g id="edge14" class="edge">
<title>Node10&#45;&gt;Node12</title>
<path fill="none" stroke="#63b8ff" d="M784.04,-132.42C842.17,-120.65 925.21,-103.83 979.11,-92.91"/>
<polygon fill="#63b8ff" stroke="#63b8ff" points="783.36,-128.99 774.25,-134.4 784.75,-135.85 783.36,-128.99"/>
</g>
<!-- Node13 -->
<g id="node13" class="node">
<title>Node13</title>
<g id="a_node13"><a xlink:href="_a_r_controller_8cpp.html" target="_top" xlink:title=" ">
<polygon fill="white" stroke="#666666" points="1026.5,-24.5 877.5,-24.5 877.5,-5.5 1026.5,-5.5 1026.5,-24.5"/>
<text text-anchor="middle" x="952" y="-12.5" font-family="Helvetica,sans-Serif" font-size="10.00">Source/ARX/ARController.cpp</text>
</a>
</g>
</g>
<!-- Node12&#45;&gt;Node13 -->
<g id="edge15" class="edge">
<title>Node12&#45;&gt;Node13</title>
<path fill="none" stroke="#63b8ff" d="M1006.34,-58.93C991.68,-47.35 974.28,-33.61 963.19,-24.84"/>
<polygon fill="#63b8ff" stroke="#63b8ff" points="1003.82,-61.4 1013.84,-64.86 1008.16,-55.91 1003.82,-61.4"/>
</g>
<!-- Node14 -->
<g id="node14" class="node">
<title>Node14</title>
<g id="a_node14"><a xlink:href="_a_r_pattern_8cpp.html" target="_top" xlink:title=" ">
<polygon fill="white" stroke="#666666" points="1183.5,-24.5 1044.5,-24.5 1044.5,-5.5 1183.5,-5.5 1183.5,-24.5"/>
<text text-anchor="middle" x="1114" y="-12.5" font-family="Helvetica,sans-Serif" font-size="10.00">Source/ARX/ARPattern.cpp</text>
</a>
</g>
</g>
<!-- Node12&#45;&gt;Node14 -->
<g id="edge16" class="edge">
<title>Node12&#45;&gt;Node14</title>
<path fill="none" stroke="#63b8ff" d="M1059.66,-58.93C1074.32,-47.35 1091.72,-33.61 1102.81,-24.84"/>
<polygon fill="#63b8ff" stroke="#63b8ff" points="1057.84,-55.91 1052.16,-64.86 1062.18,-61.4 1057.84,-55.91"/>
</g>
<!-- Node15 -->
<g id="node15" class="node">
<title>Node15</title>
<g id="a_node15"><a xlink:href="_a_r_trackable_8cpp.html" target="_top" xlink:title=" ">
<polygon fill="white" stroke="#666666" points="1352,-24.5 1202,-24.5 1202,-5.5 1352,-5.5 1352,-24.5"/>
<text text-anchor="middle" x="1277" y="-12.5" font-family="Helvetica,sans-Serif" font-size="10.00">Source/ARX/ARTrackable.cpp</text>
</a>
</g>
</g>
<!-- Node12&#45;&gt;Node15 -->
<g id="edge17" class="edge">
<title>Node12&#45;&gt;Node15</title>
<path fill="none" stroke="#63b8ff" d="M1097.76,-63.01C1144.36,-50.79 1205.36,-34.79 1242.84,-24.96"/>
<polygon fill="#63b8ff" stroke="#63b8ff" points="1097.1,-59.57 1088.31,-65.49 1098.87,-66.34 1097.1,-59.57"/>
</g>
<!-- Node16 -->
<g id="node16" class="node">
<title>Node16</title>
<g id="a_node16"><a xlink:href="_a_r_trackable_multi_square_8cpp.html" target="_top" xlink:title=" ">
<polygon fill="white" stroke="#666666" points="1522,-30 1370,-30 1370,0 1522,0 1522,-30"/>
<text text-anchor="start" x="1378" y="-18" font-family="Helvetica,sans-Serif" font-size="10.00">Source/ARX/ARTrackableMulti</text>
<text text-anchor="middle" x="1446" y="-7" font-family="Helvetica,sans-Serif" font-size="10.00">Square.cpp</text>
</a>
</g>
</g>
<!-- Node12&#45;&gt;Node16 -->
<g id="edge18" class="edge">
<title>Node12&#45;&gt;Node16</title>
<path fill="none" stroke="#63b8ff" d="M1097.8,-70.36C1163.99,-60.45 1269.71,-44.48 1361,-30 1363.81,-29.55 1366.66,-29.1 1369.55,-28.64"/>
<polygon fill="#63b8ff" stroke="#63b8ff" points="1097.59,-66.85 1088.22,-71.79 1098.63,-73.77 1097.59,-66.85"/>
</g>
<!-- Node17 -->
<g id="node17" class="node">
<title>Node17</title>
<g id="a_node17"><a xlink:href="_a_r_trackable_square_8cpp.html" target="_top" xlink:title=" ">
<polygon fill="white" stroke="#666666" points="1721.5,-24.5 1540.5,-24.5 1540.5,-5.5 1721.5,-5.5 1721.5,-24.5"/>
<text text-anchor="middle" x="1631" y="-12.5" font-family="Helvetica,sans-Serif" font-size="10.00">Source/ARX/ARTrackableSquare.cpp</text>
</a>
</g>
</g>
<!-- Node12&#45;&gt;Node17 -->
<g id="edge19" class="edge">
<title>Node12&#45;&gt;Node17</title>
<path fill="none" stroke="#63b8ff" d="M1098.33,-74.26C1193.58,-65.71 1376.13,-48.61 1531,-30 1543.53,-28.49 1556.92,-26.73 1569.7,-24.97"/>
<polygon fill="#63b8ff" stroke="#63b8ff" points="1098.03,-70.77 1088.38,-75.15 1098.65,-77.75 1098.03,-70.77"/>
</g>
<!-- Node18 -->
<g id="node18" class="node">
<title>Node18</title>
<g id="a_node18"><a xlink:href="_a_r_video_source_8cpp.html" target="_top" xlink:title=" ">
<polygon fill="white" stroke="#666666" points="716.5,-24.5 553.5,-24.5 553.5,-5.5 716.5,-5.5 716.5,-24.5"/>
<text text-anchor="middle" x="635" y="-12.5" font-family="Helvetica,sans-Serif" font-size="10.00">Source/ARX/ARVideoSource.cpp</text>
</a>
</g>
</g>
<!-- Node12&#45;&gt;Node18 -->
<g id="edge20" class="edge">
<title>Node12&#45;&gt;Node18</title>
<path fill="none" stroke="#63b8ff" d="M968.33,-69.6C891.21,-57.2 763.63,-36.68 690.7,-24.96"/>
<polygon fill="#63b8ff" stroke="#63b8ff" points="967.4,-73 977.83,-71.13 968.51,-66.09 967.4,-73"/>
</g>
<!-- Node19 -->
<g id="node19" class="node">
<title>Node19</title>
<g id="a_node19"><a xlink:href="_a_r_x__c_8cpp.html" target="_top" xlink:title=" ">
<polygon fill="white" stroke="#666666" points="859.5,-24.5 734.5,-24.5 734.5,-5.5 859.5,-5.5 859.5,-24.5"/>
<text text-anchor="middle" x="797" y="-12.5" font-family="Helvetica,sans-Serif" font-size="10.00">Source/ARX/ARX_c.cpp</text>
</a>
</g>
</g>
<!-- Node12&#45;&gt;Node19 -->
<g id="edge21" class="edge">
<title>Node12&#45;&gt;Node19</title>
<path fill="none" stroke="#63b8ff" d="M968.65,-62.55C923.81,-50.39 865.84,-34.67 830.05,-24.96"/>
<polygon fill="#63b8ff" stroke="#63b8ff" points="967.71,-65.92 978.28,-65.16 969.55,-59.17 967.71,-65.92"/>
</g>
</g>
</svg>
