<?xml version="1.0" encoding="UTF-8" standalone="no"?>
<!DOCTYPE svg PUBLIC "-//W3C//DTD SVG 1.1//EN"
 "http://www.w3.org/Graphics/SVG/1.1/DTD/svg11.dtd">
<!-- Generated by graphviz version 8.0.5 (20230430.1635)
 -->
<!-- Title: Source/ARX/ARG/arg_gl3.h Pages: 1 -->
<!--zoomable 315 -->
<svg id="main" version="1.1" xmlns="http://www.w3.org/2000/svg" xmlns:xlink="http://www.w3.org/1999/xlink" xml:space="preserve" onload="init(evt)">
<style type="text/css"><![CDATA[
.edge:hover path { stroke: red; }
.edge:hover polygon { stroke: red; fill: red; }
]]></style>
<script type="text/javascript"><![CDATA[
var edges = document.getElementsByTagName('g');
if (edges && edges.length) {
  for (var i=0;i<edges.length;i++) {
    if (edges[i].id.substr(0,4)=='edge') {
      edges[i].setAttribute('class','edge');
    }
  }
}
]]></script>
        <defs>
                <circle id="rim" cx="0" cy="0" r="7"/>
                <circle id="rim2" cx="0" cy="0" r="3.5"/>
                <g id="zoomPlus">
                        <use xlink:href="#rim" fill="#404040">
                                <set attributeName="fill" to="#808080" begin="zoomplus.mouseover" end="zoomplus.mouseout"/>
                        </use>
                        <path d="M-4,0h8M0,-4v8" fill="none" stroke="white" stroke-width="1.5" pointer-events="none"/>
                </g>
                <g id="zoomMin">
                        <use xlink:href="#rim" fill="#404040">
                                <set attributeName="fill" to="#808080" begin="zoomminus.mouseover" end="zoomminus.mouseout"/>
                        </use>
                        <path d="M-4,0h8" fill="none" stroke="white" stroke-width="1.5" pointer-events="none"/>
                </g>
                <g id="dirArrow">
                        <path fill="none" stroke="white" stroke-width="1.5" d="M0,-3.0v7 M-2.5,-0.5L0,-3.0L2.5,-0.5"/>
                </g>
               <g id="resetDef">
                       <use xlink:href="#rim2" fill="#404040">
                               <set attributeName="fill" to="#808080" begin="reset.mouseover" end="reset.mouseout"/>
                       </use>
               </g>
        </defs>

<script type="text/javascript">
var viewWidth = 916;
var viewHeight = 315;
var sectionId = 'dynsection-0';
</script>
<script xlink:href="svgpan.js"/>
<svg id="graph" class="graph">
<g id="viewport">
<title>Source/ARX/ARG/arg_gl3.h</title>
<!-- Node1 -->
<g id="node1" class="node">
<title>Node1</title>
<g id="a_node1"><a xlink:title=" ">
<polygon fill="#999999" stroke="#666666" points="550.75,-306.75 438.75,-306.75 438.75,-276.25 550.75,-276.25 550.75,-306.75"/>
<text text-anchor="start" x="446.75" y="-293.25" font-family="Helvetica,sans-Serif" font-size="10.00">Source/ARX/ARG/arg</text>
<text text-anchor="middle" x="494.75" y="-282" font-family="Helvetica,sans-Serif" font-size="10.00">_gl3.h</text>
</a>
</g>
</g>
<!-- Node2 -->
<g id="node2" class="node">
<title>Node2</title>
<g id="a_node2"><a xlink:href="arg__private_8h.html" target="_top" xlink:title=" ">
<polygon fill="white" stroke="#666666" points="530.88,-240.25 458.62,-240.25 458.62,-221 530.88,-221 530.88,-240.25"/>
<text text-anchor="middle" x="494.75" y="-226.75" font-family="Helvetica,sans-Serif" font-size="10.00">arg_private.h</text>
</a>
</g>
</g>
<!-- Node1&#45;&gt;Node2 -->
<g id="edge1" class="edge">
<title>Node1&#45;&gt;Node2</title>
<path fill="none" stroke="#63b8ff" d="M494.75,-275.95C494.75,-268.62 494.75,-259.62 494.75,-251.66"/>
<polygon fill="#63b8ff" stroke="#63b8ff" points="498.25,-251.7 494.75,-241.7 491.25,-251.7 498.25,-251.7"/>
</g>
<!-- Node3 -->
<g id="node3" class="node">
<title>Node3</title>
<g id="a_node3"><a xlink:href="arg_8h.html" target="_top" xlink:title="A collection of useful graphics routines for artoolkitX.">
<polygon fill="white" stroke="#666666" points="538,-185 451.5,-185 451.5,-165.75 538,-165.75 538,-185"/>
<text text-anchor="middle" x="494.75" y="-171.5" font-family="Helvetica,sans-Serif" font-size="10.00">ARX/ARG/arg.h</text>
</a>
</g>
</g>
<!-- Node2&#45;&gt;Node3 -->
<g id="edge2" class="edge">
<title>Node2&#45;&gt;Node3</title>
<path fill="none" stroke="#63b8ff" d="M494.75,-220.83C494.75,-214.17 494.75,-204.74 494.75,-196.28"/>
<polygon fill="#63b8ff" stroke="#63b8ff" points="498.25,-196.36 494.75,-186.36 491.25,-196.36 498.25,-196.36"/>
</g>
<!-- Node4 -->
<g id="node4" class="node">
<title>Node4</title>
<g id="a_node4"><a xlink:href="ar_8h.html" target="_top" xlink:title="artoolkitX core routines.">
<polygon fill="white" stroke="#666666" points="531.25,-129.75 458.25,-129.75 458.25,-110.5 531.25,-110.5 531.25,-129.75"/>
<text text-anchor="middle" x="494.75" y="-116.25" font-family="Helvetica,sans-Serif" font-size="10.00">ARX/AR/ar.h</text>
</a>
</g>
</g>
<!-- Node3&#45;&gt;Node4 -->
<g id="edge3" class="edge">
<title>Node3&#45;&gt;Node4</title>
<path fill="none" stroke="#63b8ff" d="M494.75,-165.58C494.75,-158.92 494.75,-149.49 494.75,-141.03"/>
<polygon fill="#63b8ff" stroke="#63b8ff" points="498.25,-141.11 494.75,-131.11 491.25,-141.11 498.25,-141.11"/>
</g>
<!-- Node5 -->
<g id="node5" class="node">
<title>Node5</title>
<g id="a_node5"><a xlink:title=" ">
<polygon fill="#e0e0e0" stroke="#999999" points="452.38,-19.25 407.12,-19.25 407.12,0 452.38,0 452.38,-19.25"/>
<text text-anchor="middle" x="429.75" y="-5.75" font-family="Helvetica,sans-Serif" font-size="10.00">stdio.h</text>
</a>
</g>
</g>
<!-- Node4&#45;&gt;Node5 -->
<g id="edge4" class="edge">
<title>Node4&#45;&gt;Node5</title>
<path fill="none" stroke="#63b8ff" d="M457.85,-114.56C413.38,-108.22 342.62,-95.13 326.75,-74.5 321.53,-67.72 322.05,-62.4 326.75,-55.25 334.87,-42.88 369.59,-29.49 396.51,-20.63"/>
<polygon fill="#63b8ff" stroke="#63b8ff" points="397.27,-23.74 405.73,-17.36 395.14,-17.08 397.27,-23.74"/>
</g>
<!-- Node6 -->
<g id="node6" class="node">
<title>Node6</title>
<g id="a_node6"><a xlink:title=" ">
<polygon fill="#e0e0e0" stroke="#999999" points="47.5,-19.25 0,-19.25 0,0 47.5,0 47.5,-19.25"/>
<text text-anchor="middle" x="23.75" y="-5.75" font-family="Helvetica,sans-Serif" font-size="10.00">stdlib.h</text>
</a>
</g>
</g>
<!-- Node4&#45;&gt;Node6 -->
<g id="edge5" class="edge">
<title>Node4&#45;&gt;Node6</title>
<path fill="none" stroke="#63b8ff" d="M457.99,-117.93C371.66,-114.65 158.36,-103.76 93.75,-74.5 70.67,-64.05 50.02,-43.05 37.23,-27.98"/>
<polygon fill="#63b8ff" stroke="#63b8ff" points="39.36,-26.05 30.34,-20.51 33.94,-30.47 39.36,-26.05"/>
</g>
<!-- Node7 -->
<g id="node7" class="node">
<title>Node7</title>
<g id="a_node7"><a xlink:title=" ">
<polygon fill="#e0e0e0" stroke="#999999" points="167.88,-74.5 119.62,-74.5 119.62,-55.25 167.88,-55.25 167.88,-74.5"/>
<text text-anchor="middle" x="143.75" y="-61" font-family="Helvetica,sans-Serif" font-size="10.00">stdint.h</text>
</a>
</g>
</g>
<!-- Node4&#45;&gt;Node7 -->
<g id="edge6" class="edge">
<title>Node4&#45;&gt;Node7</title>
<path fill="none" stroke="#63b8ff" d="M457.79,-115.35C400.18,-109.16 285.32,-95.6 178.8,-74.71"/>
<polygon fill="#63b8ff" stroke="#63b8ff" points="179.68,-71.12 169.18,-72.6 178.31,-77.98 179.68,-71.12"/>
</g>
<!-- Node8 -->
<g id="node8" class="node">
<title>Node8</title>
<g id="a_node8"><a xlink:title=" ">
<polygon fill="#e0e0e0" stroke="#999999" points="113.88,-19.25 65.62,-19.25 65.62,0 113.88,0 113.88,-19.25"/>
<text text-anchor="middle" x="89.75" y="-5.75" font-family="Helvetica,sans-Serif" font-size="10.00">string.h</text>
</a>
</g>
</g>
<!-- Node4&#45;&gt;Node8 -->
<g id="edge7" class="edge">
<title>Node4&#45;&gt;Node8</title>
<path fill="none" stroke="#63b8ff" d="M458.03,-119.72C372.51,-120.37 163.33,-117.41 110.75,-74.5 97.75,-63.89 92.73,-45.06 90.82,-30.58"/>
<polygon fill="#63b8ff" stroke="#63b8ff" points="94.23,-30.37 89.85,-20.72 87.26,-30.99 94.23,-30.37"/>
</g>
<!-- Node9 -->
<g id="node9" class="node">
<title>Node9</title>
<g id="a_node9"><a xlink:title=" ">
<polygon fill="#e0e0e0" stroke="#999999" points="867.62,-19.25 775.88,-19.25 775.88,0 867.62,0 867.62,-19.25"/>
<text text-anchor="middle" x="821.75" y="-5.75" font-family="Helvetica,sans-Serif" font-size="10.00">ARX/AR/config.h</text>
</a>
</g>
</g>
<!-- Node4&#45;&gt;Node9 -->
<g id="edge8" class="edge">
<title>Node4&#45;&gt;Node9</title>
<path fill="none" stroke="#63b8ff" d="M531.51,-117.85C627.17,-114.16 878.16,-101.92 902.75,-74.5 920.93,-54.22 888.93,-35.5 859.95,-23.63"/>
<polygon fill="#63b8ff" stroke="#63b8ff" points="861.5,-20.09 850.91,-19.73 858.97,-26.62 861.5,-20.09"/>
</g>
<!-- Node10 -->
<g id="node10" class="node">
<title>Node10</title>
<g id="a_node10"><a xlink:href="ar_config_8h.html" target="_top" xlink:title=" ">
<polygon fill="white" stroke="#666666" points="437.88,-74.5 335.62,-74.5 335.62,-55.25 437.88,-55.25 437.88,-74.5"/>
<text text-anchor="middle" x="386.75" y="-61" font-family="Helvetica,sans-Serif" font-size="10.00">ARX/AR/arConfig.h</text>
</a>
</g>
</g>
<!-- Node4&#45;&gt;Node10 -->
<g id="edge9" class="edge">
<title>Node4&#45;&gt;Node10</title>
<path fill="none" stroke="#63b8ff" d="M476.43,-110.09C459.59,-101.79 434.39,-89.36 414.98,-79.79"/>
<polygon fill="#63b8ff" stroke="#63b8ff" points="416.68,-76.24 406.16,-74.95 413.58,-82.51 416.68,-76.24"/>
</g>
<!-- Node11 -->
<g id="node11" class="node">
<title>Node11</title>
<g id="a_node11"><a xlink:href="log_8h.html" target="_top" xlink:title="Logging utilities.">
<polygon fill="white" stroke="#666666" points="279.38,-74.5 186.12,-74.5 186.12,-55.25 279.38,-55.25 279.38,-74.5"/>
<text text-anchor="middle" x="232.75" y="-61" font-family="Helvetica,sans-Serif" font-size="10.00">ARX/ARUtil/log.h</text>
</a>
</g>
</g>
<!-- Node4&#45;&gt;Node11 -->
<g id="edge10" class="edge">
<title>Node4&#45;&gt;Node11</title>
<path fill="none" stroke="#63b8ff" d="M457.77,-111.61C413.52,-102.62 339.03,-87.48 287.96,-77.1"/>
<polygon fill="#63b8ff" stroke="#63b8ff" points="288.93,-73.52 278.44,-74.96 287.54,-80.38 288.93,-73.52"/>
</g>
<!-- Node15 -->
<g id="node15" class="node">
<title>Node15</title>
<g id="a_node15"><a xlink:href="matrix_8h.html" target="_top" xlink:title=" ">
<polygon fill="white" stroke="#666666" points="644,-74.5 551.5,-74.5 551.5,-55.25 644,-55.25 644,-74.5"/>
<text text-anchor="middle" x="597.75" y="-61" font-family="Helvetica,sans-Serif" font-size="10.00">ARX/AR/matrix.h</text>
</a>
</g>
</g>
<!-- Node4&#45;&gt;Node15 -->
<g id="edge17" class="edge">
<title>Node4&#45;&gt;Node15</title>
<path fill="none" stroke="#63b8ff" d="M512.22,-110.09C528.2,-101.83 552.1,-89.48 570.57,-79.93"/>
<polygon fill="#63b8ff" stroke="#63b8ff" points="571.92,-82.65 579.19,-74.95 568.7,-76.44 571.92,-82.65"/>
</g>
<!-- Node17 -->
<g id="node17" class="node">
<title>Node17</title>
<g id="a_node17"><a xlink:href="icp_8h.html" target="_top" xlink:title=" ">
<polygon fill="white" stroke="#666666" points="533.88,-74.5 455.62,-74.5 455.62,-55.25 533.88,-55.25 533.88,-74.5"/>
<text text-anchor="middle" x="494.75" y="-61" font-family="Helvetica,sans-Serif" font-size="10.00">ARX/AR/icp.h</text>
</a>
</g>
</g>
<!-- Node4&#45;&gt;Node17 -->
<g id="edge19" class="edge">
<title>Node4&#45;&gt;Node17</title>
<path fill="none" stroke="#63b8ff" d="M494.75,-110.33C494.75,-103.67 494.75,-94.24 494.75,-85.78"/>
<polygon fill="#63b8ff" stroke="#63b8ff" points="498.25,-85.86 494.75,-75.86 491.25,-85.86 498.25,-85.86"/>
</g>
<!-- Node19 -->
<g id="node19" class="node">
<title>Node19</title>
<g id="a_node19"><a xlink:href="param_8h.html" target="_top" xlink:title="artoolkitX functions for handling calibrated camera parameters.">
<polygon fill="white" stroke="#666666" points="894,-74.5 801.5,-74.5 801.5,-55.25 894,-55.25 894,-74.5"/>
<text text-anchor="middle" x="847.75" y="-61" font-family="Helvetica,sans-Serif" font-size="10.00">ARX/AR/param.h</text>
</a>
</g>
</g>
<!-- Node4&#45;&gt;Node19 -->
<g id="edge22" class="edge">
<title>Node4&#45;&gt;Node19</title>
<path fill="none" stroke="#63b8ff" d="M531.6,-112.79C586.62,-104.22 693,-88.41 783.75,-74.5 785.95,-74.16 788.2,-73.82 790.48,-73.46"/>
<polygon fill="#63b8ff" stroke="#63b8ff" points="790.94,-76.78 800.29,-71.8 789.88,-69.86 790.94,-76.78"/>
</g>
<!-- Node20 -->
<g id="node20" class="node">
<title>Node20</title>
<g id="a_node20"><a xlink:href="ar_image_proc_8h.html" target="_top" xlink:title="artoolkitX functions for 2D luminance image processing.">
<polygon fill="white" stroke="#666666" points="783.25,-74.5 662.25,-74.5 662.25,-55.25 783.25,-55.25 783.25,-74.5"/>
<text text-anchor="middle" x="722.75" y="-61" font-family="Helvetica,sans-Serif" font-size="10.00">ARX/AR/arImageProc.h</text>
</a>
</g>
</g>
<!-- Node4&#45;&gt;Node20 -->
<g id="edge24" class="edge">
<title>Node4&#45;&gt;Node20</title>
<path fill="none" stroke="#63b8ff" d="M528.21,-110.09C564.98,-101.06 624.39,-87.15 667.95,-77.35"/>
<polygon fill="#63b8ff" stroke="#63b8ff" points="668.66,-80.55 677.66,-74.95 667.13,-73.72 668.66,-80.55"/>
</g>
<!-- Node11&#45;&gt;Node5 -->
<g id="edge11" class="edge">
<title>Node11&#45;&gt;Node5</title>
<path fill="none" stroke="#63b8ff" d="M266.17,-54.84C302.38,-45.05 359.83,-29.52 396.13,-19.71"/>
<polygon fill="#63b8ff" stroke="#63b8ff" points="396.92,-22.85 405.66,-16.87 395.1,-16.1 396.92,-22.85"/>
</g>
<!-- Node11&#45;&gt;Node6 -->
<g id="edge12" class="edge">
<title>Node11&#45;&gt;Node6</title>
<path fill="none" stroke="#63b8ff" d="M196.66,-54.81C163.23,-46.39 111.83,-33.4 58.27,-19.63"/>
<polygon fill="#63b8ff" stroke="#63b8ff" points="59.45,-16.06 48.9,-16.96 57.71,-22.84 59.45,-16.06"/>
</g>
<!-- Node11&#45;&gt;Node8 -->
<g id="edge13" class="edge">
<title>Node11&#45;&gt;Node8</title>
<path fill="none" stroke="#63b8ff" d="M208.49,-54.84C185.38,-46.24 150.35,-33.19 124.32,-23.5"/>
<polygon fill="#63b8ff" stroke="#63b8ff" points="125.72,-19.91 115.13,-19.7 123.28,-26.47 125.72,-19.91"/>
</g>
<!-- Node12 -->
<g id="node12" class="node">
<title>Node12</title>
<g id="a_node12"><a xlink:title=" ">
<polygon fill="#e0e0e0" stroke="#999999" points="183.38,-19.25 132.12,-19.25 132.12,0 183.38,0 183.38,-19.25"/>
<text text-anchor="middle" x="157.75" y="-5.75" font-family="Helvetica,sans-Serif" font-size="10.00">stdarg.h</text>
</a>
</g>
</g>
<!-- Node11&#45;&gt;Node12 -->
<g id="edge14" class="edge">
<title>Node11&#45;&gt;Node12</title>
<path fill="none" stroke="#63b8ff" d="M220.03,-54.84C208.93,-46.96 192.59,-35.36 179.43,-26.02"/>
<polygon fill="#63b8ff" stroke="#63b8ff" points="181.72,-22.64 171.54,-19.7 177.66,-28.35 181.72,-22.64"/>
</g>
<!-- Node13 -->
<g id="node13" class="node">
<title>Node13</title>
<g id="a_node13"><a xlink:title=" ">
<polygon fill="#e0e0e0" stroke="#999999" points="266.12,-19.25 201.38,-19.25 201.38,0 266.12,0 266.12,-19.25"/>
<text text-anchor="middle" x="233.75" y="-5.75" font-family="Helvetica,sans-Serif" font-size="10.00">sys/errno.h</text>
</a>
</g>
</g>
<!-- Node11&#45;&gt;Node13 -->
<g id="edge15" class="edge">
<title>Node11&#45;&gt;Node13</title>
<path fill="none" stroke="#63b8ff" d="M232.92,-55.08C233.04,-48.42 233.22,-38.99 233.38,-30.53"/>
<polygon fill="#63b8ff" stroke="#63b8ff" points="236.89,-30.67 233.58,-20.61 229.89,-30.54 236.89,-30.67"/>
</g>
<!-- Node14 -->
<g id="node14" class="node">
<title>Node14</title>
<g id="a_node14"><a xlink:href="types_8h.html" target="_top" xlink:title=" ">
<polygon fill="white" stroke="#666666" points="389,-19.25 284.5,-19.25 284.5,0 389,0 389,-19.25"/>
<text text-anchor="middle" x="336.75" y="-5.75" font-family="Helvetica,sans-Serif" font-size="10.00">ARX/ARUtil/types.h</text>
</a>
</g>
</g>
<!-- Node11&#45;&gt;Node14 -->
<g id="edge16" class="edge">
<title>Node11&#45;&gt;Node14</title>
<path fill="none" stroke="#63b8ff" d="M250.39,-54.84C266.53,-46.58 290.65,-34.23 309.31,-24.68"/>
<polygon fill="#63b8ff" stroke="#63b8ff" points="310.72,-27.38 318.02,-19.7 307.53,-21.14 310.72,-27.38"/>
</g>
<!-- Node16 -->
<g id="node16" class="node">
<title>Node16</title>
<g id="a_node16"><a xlink:title=" ">
<polygon fill="#e0e0e0" stroke="#999999" points="633.75,-19.25 587.75,-19.25 587.75,0 633.75,0 633.75,-19.25"/>
<text text-anchor="middle" x="610.75" y="-5.75" font-family="Helvetica,sans-Serif" font-size="10.00">math.h</text>
</a>
</g>
</g>
<!-- Node15&#45;&gt;Node16 -->
<g id="edge18" class="edge">
<title>Node15&#45;&gt;Node16</title>
<path fill="none" stroke="#63b8ff" d="M599.9,-55.08C601.54,-48.34 603.88,-38.77 605.96,-30.24"/>
<polygon fill="#63b8ff" stroke="#63b8ff" points="609.59,-31.15 608.56,-20.61 602.78,-29.49 609.59,-31.15"/>
</g>
<!-- Node17&#45;&gt;Node5 -->
<g id="edge20" class="edge">
<title>Node17&#45;&gt;Node5</title>
<path fill="none" stroke="#63b8ff" d="M483.72,-54.84C474.24,-47.07 460.33,-35.67 449,-26.4"/>
<polygon fill="#63b8ff" stroke="#63b8ff" points="451.57,-23.15 441.61,-19.52 447.13,-28.57 451.57,-23.15"/>
</g>
<!-- Node18 -->
<g id="node18" class="node">
<title>Node18</title>
<g id="a_node18"><a xlink:href="icp_core_8h.html" target="_top" xlink:title=" ">
<polygon fill="white" stroke="#666666" points="569.38,-19.25 470.12,-19.25 470.12,0 569.38,0 569.38,-19.25"/>
<text text-anchor="middle" x="519.75" y="-5.75" font-family="Helvetica,sans-Serif" font-size="10.00">ARX/AR/icpCore.h</text>
</a>
</g>
</g>
<!-- Node17&#45;&gt;Node18 -->
<g id="edge21" class="edge">
<title>Node17&#45;&gt;Node18</title>
<path fill="none" stroke="#63b8ff" d="M498.88,-55.08C502.15,-48.11 506.84,-38.12 510.95,-29.37"/>
<polygon fill="#63b8ff" stroke="#63b8ff" points="514.45,-31.15 515.53,-20.61 508.11,-28.17 514.45,-31.15"/>
</g>
<!-- Node19&#45;&gt;Node4 -->
<g id="edge23" class="edge">
<title>Node19&#45;&gt;Node4</title>
<path fill="none" stroke="#63b8ff" d="M801.18,-74.59C709.78,-88.6 602.67,-104.51 542.24,-113.01"/>
<polygon fill="#63b8ff" stroke="#63b8ff" points="541.94,-109.66 532.52,-114.51 542.9,-116.59 541.94,-109.66"/>
</g>
<!-- Node20&#45;&gt;Node4 -->
<g id="edge26" class="edge">
<title>Node20&#45;&gt;Node4</title>
<path fill="none" stroke="#63b8ff" d="M689.01,-74.98C650.11,-84.52 586.14,-99.47 542.25,-109.29"/>
<polygon fill="#63b8ff" stroke="#63b8ff" points="541.55,-106.08 532.55,-111.66 543.07,-112.91 541.55,-106.08"/>
</g>
<!-- Node20&#45;&gt;Node9 -->
<g id="edge25" class="edge">
<title>Node20&#45;&gt;Node9</title>
<path fill="none" stroke="#63b8ff" d="M739.54,-54.84C754.9,-46.58 777.87,-34.23 795.63,-24.68"/>
<polygon fill="#63b8ff" stroke="#63b8ff" points="796.72,-27.52 803.87,-19.7 793.41,-21.36 796.72,-27.52"/>
</g>
</g>
</svg>
        <g id="navigator" transform="translate(0 0)" fill="#404254">
                <rect fill="#f2f5e9" fill-opacity="0.5" stroke="#606060" stroke-width=".5" x="0" y="0" width="60" height="60"/>
                <use id="zoomplus" xlink:href="#zoomPlus" x="17" y="9" onmousedown="handleZoom(evt,'in')"/>
                <use id="zoomminus" xlink:href="#zoomMin" x="42" y="9" onmousedown="handleZoom(evt,'out')"/>
                <use id="reset" xlink:href="#resetDef" x="30" y="36" onmousedown="handleReset()"/>
                <g id="arrowUp" xlink:href="#dirArrow" transform="translate(30 24)" onmousedown="handlePan(0,-1)">
                  <use xlink:href="#rim" fill="#404040">
                        <set attributeName="fill" to="#808080" begin="arrowUp.mouseover" end="arrowUp.mouseout"/>
                  </use>
                  <path fill="none" stroke="white" stroke-width="1.5" d="M0,-3.0v7 M-2.5,-0.5L0,-3.0L2.5,-0.5"/>
                </g>
                <g id="arrowRight" xlink:href="#dirArrow" transform="rotate(90) translate(36 -43)" onmousedown="handlePan(1,0)">
                  <use xlink:href="#rim" fill="#404040">
                        <set attributeName="fill" to="#808080" begin="arrowRight.mouseover" end="arrowRight.mouseout"/>
                  </use>
                  <path fill="none" stroke="white" stroke-width="1.5" d="M0,-3.0v7 M-2.5,-0.5L0,-3.0L2.5,-0.5"/>
                </g>
                <g id="arrowDown" xlink:href="#dirArrow" transform="rotate(180) translate(-30 -48)" onmousedown="handlePan(0,1)">
                  <use xlink:href="#rim" fill="#404040">
                        <set attributeName="fill" to="#808080" begin="arrowDown.mouseover" end="arrowDown.mouseout"/>
                  </use>
                  <path fill="none" stroke="white" stroke-width="1.5" d="M0,-3.0v7 M-2.5,-0.5L0,-3.0L2.5,-0.5"/>
                </g>
                <g id="arrowLeft" xlink:href="#dirArrow" transform="rotate(270) translate(-36 17)" onmousedown="handlePan(-1,0)">
                  <use xlink:href="#rim" fill="#404040">
                        <set attributeName="fill" to="#808080" begin="arrowLeft.mouseover" end="arrowLeft.mouseout"/>
                  </use>
                  <path fill="none" stroke="white" stroke-width="1.5" d="M0,-3.0v7 M-2.5,-0.5L0,-3.0L2.5,-0.5"/>
                </g>
        </g>
        <svg viewBox="0 0 15 15" width="100%" height="30px" preserveAspectRatio="xMaxYMin meet">
         <g id="arrow_out" transform="scale(0.3 0.3)">
          <a xlink:href="arg__gl3_8h__incl_org.svg" target="_base">
           <rect id="button" ry="5" rx="5" y="6" x="6" height="38" width="38"
                fill="#f2f5e9" fill-opacity="0.5" stroke="#606060" stroke-width="1.0"/>
           <path id="arrow"
             d="M 11.500037,31.436501 C 11.940474,20.09759 22.043105,11.32322 32.158766,21.979434 L 37.068811,17.246167 C 37.068811,17.246167 37.088388,32 37.088388,32 L 22.160133,31.978069 C 22.160133,31.978069 26.997745,27.140456 26.997745,27.140456 C 18.528582,18.264221 13.291696,25.230495 11.500037,31.436501 z"
             style="fill:#404040;"/>
          </a>
         </g>
        </svg>
</svg>
