<?xml version="1.0" encoding="UTF-8" standalone="no"?>
<!DOCTYPE svg PUBLIC "-//W3C//DTD SVG 1.1//EN"
 "http://www.w3.org/Graphics/SVG/1.1/DTD/svg11.dtd">
<!-- Generated by graphviz version 8.0.5 (20230430.1635)
 -->
<!-- Title: Source/ARX/ARG/arg_private.h Pages: 1 -->
<!--zoomable 172 -->
<svg id="main" version="1.1" xmlns="http://www.w3.org/2000/svg" xmlns:xlink="http://www.w3.org/1999/xlink" xml:space="preserve" onload="init(evt)">
<style type="text/css"><![CDATA[
.edge:hover path { stroke: red; }
.edge:hover polygon { stroke: red; fill: red; }
]]></style>
<script type="text/javascript"><![CDATA[
var edges = document.getElementsByTagName('g');
if (edges && edges.length) {
  for (var i=0;i<edges.length;i++) {
    if (edges[i].id.substr(0,4)=='edge') {
      edges[i].setAttribute('class','edge');
    }
  }
}
]]></script>
        <defs>
                <circle id="rim" cx="0" cy="0" r="7"/>
                <circle id="rim2" cx="0" cy="0" r="3.5"/>
                <g id="zoomPlus">
                        <use xlink:href="#rim" fill="#404040">
                                <set attributeName="fill" to="#808080" begin="zoomplus.mouseover" end="zoomplus.mouseout"/>
                        </use>
                        <path d="M-4,0h8M0,-4v8" fill="none" stroke="white" stroke-width="1.5" pointer-events="none"/>
                </g>
                <g id="zoomMin">
                        <use xlink:href="#rim" fill="#404040">
                                <set attributeName="fill" to="#808080" begin="zoomminus.mouseover" end="zoomminus.mouseout"/>
                        </use>
                        <path d="M-4,0h8" fill="none" stroke="white" stroke-width="1.5" pointer-events="none"/>
                </g>
                <g id="dirArrow">
                        <path fill="none" stroke="white" stroke-width="1.5" d="M0,-3.0v7 M-2.5,-0.5L0,-3.0L2.5,-0.5"/>
                </g>
               <g id="resetDef">
                       <use xlink:href="#rim2" fill="#404040">
                               <set attributeName="fill" to="#808080" begin="reset.mouseover" end="reset.mouseout"/>
                       </use>
               </g>
        </defs>

<script type="text/javascript">
var viewWidth = 540;
var viewHeight = 172;
var sectionId = 'dynsection-1';
</script>
<script xlink:href="svgpan.js"/>
<svg id="graph" class="graph">
<g id="viewport">
<title>Source/ARX/ARG/arg_private.h</title>
<!-- Node1 -->
<g id="node1" class="node">
<title>Node1</title>
<g id="a_node1"><a xlink:title=" ">
<polygon fill="#999999" stroke="#666666" points="311,-163.5 199,-163.5 199,-133 311,-133 311,-163.5"/>
<text text-anchor="start" x="207" y="-150" font-family="Helvetica,sans-Serif" font-size="10.00">Source/ARX/ARG/arg</text>
<text text-anchor="middle" x="255" y="-138.75" font-family="Helvetica,sans-Serif" font-size="10.00">_private.h</text>
</a>
</g>
</g>
<!-- Node2 -->
<g id="node2" class="node">
<title>Node2</title>
<g id="a_node2"><a xlink:href="arg__gl_8h.html" target="_top" xlink:title=" ">
<polygon fill="white" stroke="#666666" points="462.5,-91.38 329.5,-91.38 329.5,-72.12 462.5,-72.12 462.5,-91.38"/>
<text text-anchor="middle" x="396" y="-77.88" font-family="Helvetica,sans-Serif" font-size="10.00">Source/ARX/ARG/arg_gl.h</text>
</a>
</g>
</g>
<!-- Node1&#45;&gt;Node2 -->
<g id="edge1" class="edge">
<title>Node1&#45;&gt;Node2</title>
<path fill="none" stroke="#63b8ff" d="M296.72,-128.16C323.03,-116.13 355.79,-101.15 376.3,-91.76"/>
<polygon fill="#63b8ff" stroke="#63b8ff" points="295.63,-125.27 288,-132.61 298.54,-131.64 295.63,-125.27"/>
</g>
<!-- Node5 -->
<g id="node5" class="node">
<title>Node5</title>
<g id="a_node5"><a xlink:href="arg__gl3_8h.html" target="_top" xlink:title=" ">
<polygon fill="white" stroke="#666666" points="181,-97 69,-97 69,-66.5 181,-66.5 181,-97"/>
<text text-anchor="start" x="77" y="-83.5" font-family="Helvetica,sans-Serif" font-size="10.00">Source/ARX/ARG/arg</text>
<text text-anchor="middle" x="125" y="-72.25" font-family="Helvetica,sans-Serif" font-size="10.00">_gl3.h</text>
</a>
</g>
</g>
<!-- Node1&#45;&gt;Node5 -->
<g id="edge4" class="edge">
<title>Node1&#45;&gt;Node5</title>
<path fill="none" stroke="#63b8ff" d="M215.86,-127.83C196.11,-118.03 172.56,-106.35 154.38,-97.33"/>
<polygon fill="#63b8ff" stroke="#63b8ff" points="213.99,-131.3 224.5,-132.61 217.1,-125.03 213.99,-131.3"/>
</g>
<!-- Node7 -->
<g id="node7" class="node">
<title>Node7</title>
<g id="a_node7"><a xlink:href="arg__gles2_8h.html" target="_top" xlink:title=" ">
<polygon fill="white" stroke="#666666" points="311,-97 199,-97 199,-66.5 311,-66.5 311,-97"/>
<text text-anchor="start" x="207" y="-83.5" font-family="Helvetica,sans-Serif" font-size="10.00">Source/ARX/ARG/arg</text>
<text text-anchor="middle" x="255" y="-72.25" font-family="Helvetica,sans-Serif" font-size="10.00">_gles2.h</text>
</a>
</g>
</g>
<!-- Node1&#45;&gt;Node7 -->
<g id="edge7" class="edge">
<title>Node1&#45;&gt;Node7</title>
<path fill="none" stroke="#63b8ff" d="M255,-121.88C255,-113.55 255,-104.58 255,-97.33"/>
<polygon fill="#63b8ff" stroke="#63b8ff" points="251.5,-121.61 255,-131.61 258.5,-121.61 251.5,-121.61"/>
</g>
<!-- Node3 -->
<g id="node3" class="node">
<title>Node3</title>
<g id="a_node3"><a xlink:href="arg_8c.html" target="_top" xlink:title=" ">
<polygon fill="white" stroke="#666666" points="250.12,-24.88 129.88,-24.88 129.88,-5.63 250.12,-5.63 250.12,-24.88"/>
<text text-anchor="middle" x="190" y="-11.38" font-family="Helvetica,sans-Serif" font-size="10.00">Source/ARX/ARG/arg.c</text>
</a>
</g>
</g>
<!-- Node2&#45;&gt;Node3 -->
<g id="edge2" class="edge">
<title>Node2&#45;&gt;Node3</title>
<path fill="none" stroke="#63b8ff" d="M356.43,-68.36C316.19,-55.76 254.82,-36.55 218.93,-25.31"/>
<polygon fill="#63b8ff" stroke="#63b8ff" points="355.33,-72 365.92,-71.65 357.42,-65.32 355.33,-72"/>
</g>
<!-- Node4 -->
<g id="node4" class="node">
<title>Node4</title>
<g id="a_node4"><a xlink:href="arg__gl_8c.html" target="_top" xlink:title=" ">
<polygon fill="white" stroke="#666666" points="531.5,-24.88 398.5,-24.88 398.5,-5.63 531.5,-5.63 531.5,-24.88"/>
<text text-anchor="middle" x="465" y="-11.38" font-family="Helvetica,sans-Serif" font-size="10.00">Source/ARX/ARG/arg_gl.c</text>
</a>
</g>
</g>
<!-- Node2&#45;&gt;Node4 -->
<g id="edge3" class="edge">
<title>Node2&#45;&gt;Node4</title>
<path fill="none" stroke="#63b8ff" d="M413.59,-64.31C426.91,-51.86 444.71,-35.22 455.49,-25.14"/>
<polygon fill="#63b8ff" stroke="#63b8ff" points="411.51,-61.4 406.59,-70.78 416.29,-66.51 411.51,-61.4"/>
</g>
<!-- Node5&#45;&gt;Node3 -->
<g id="edge5" class="edge">
<title>Node5&#45;&gt;Node3</title>
<path fill="none" stroke="#63b8ff" d="M147.38,-58.54C158.97,-47.04 172.46,-33.65 181.11,-25.07"/>
<polygon fill="#63b8ff" stroke="#63b8ff" points="145.38,-55.59 140.75,-65.11 150.31,-60.55 145.38,-55.59"/>
</g>
<!-- Node6 -->
<g id="node6" class="node">
<title>Node6</title>
<g id="a_node6"><a xlink:href="arg__gl3_8c.html" target="_top" xlink:title=" ">
<polygon fill="white" stroke="#666666" points="112,-30.5 0,-30.5 0,0 112,0 112,-30.5"/>
<text text-anchor="start" x="8" y="-17" font-family="Helvetica,sans-Serif" font-size="10.00">Source/ARX/ARG/arg</text>
<text text-anchor="middle" x="56" y="-5.75" font-family="Helvetica,sans-Serif" font-size="10.00">_gl3.c</text>
</a>
</g>
</g>
<!-- Node5&#45;&gt;Node6 -->
<g id="edge6" class="edge">
<title>Node5&#45;&gt;Node6</title>
<path fill="none" stroke="#63b8ff" d="M101.46,-58.74C91.6,-49.53 80.41,-39.06 71.6,-30.83"/>
<polygon fill="#63b8ff" stroke="#63b8ff" points="98.65,-60.84 108.34,-65.11 103.43,-55.73 98.65,-60.84"/>
</g>
<!-- Node7&#45;&gt;Node3 -->
<g id="edge8" class="edge">
<title>Node7&#45;&gt;Node3</title>
<path fill="none" stroke="#63b8ff" d="M232.62,-58.54C221.03,-47.04 207.54,-33.65 198.89,-25.07"/>
<polygon fill="#63b8ff" stroke="#63b8ff" points="229.69,-60.55 239.25,-65.11 234.62,-55.59 229.69,-60.55"/>
</g>
<!-- Node8 -->
<g id="node8" class="node">
<title>Node8</title>
<g id="a_node8"><a xlink:href="arg__gles2_8c.html" target="_top" xlink:title=" ">
<polygon fill="white" stroke="#666666" points="380,-30.5 268,-30.5 268,0 380,0 380,-30.5"/>
<text text-anchor="start" x="276" y="-17" font-family="Helvetica,sans-Serif" font-size="10.00">Source/ARX/ARG/arg</text>
<text text-anchor="middle" x="324" y="-5.75" font-family="Helvetica,sans-Serif" font-size="10.00">_gles2.c</text>
</a>
</g>
</g>
<!-- Node7&#45;&gt;Node8 -->
<g id="edge9" class="edge">
<title>Node7&#45;&gt;Node8</title>
<path fill="none" stroke="#63b8ff" d="M278.54,-58.74C288.4,-49.53 299.59,-39.06 308.4,-30.83"/>
<polygon fill="#63b8ff" stroke="#63b8ff" points="276.57,-55.73 271.66,-65.11 281.35,-60.84 276.57,-55.73"/>
</g>
</g>
</svg>
        <g id="navigator" transform="translate(0 0)" fill="#404254">
                <rect fill="#f2f5e9" fill-opacity="0.5" stroke="#606060" stroke-width=".5" x="0" y="0" width="60" height="60"/>
                <use id="zoomplus" xlink:href="#zoomPlus" x="17" y="9" onmousedown="handleZoom(evt,'in')"/>
                <use id="zoomminus" xlink:href="#zoomMin" x="42" y="9" onmousedown="handleZoom(evt,'out')"/>
                <use id="reset" xlink:href="#resetDef" x="30" y="36" onmousedown="handleReset()"/>
                <g id="arrowUp" xlink:href="#dirArrow" transform="translate(30 24)" onmousedown="handlePan(0,-1)">
                  <use xlink:href="#rim" fill="#404040">
                        <set attributeName="fill" to="#808080" begin="arrowUp.mouseover" end="arrowUp.mouseout"/>
                  </use>
                  <path fill="none" stroke="white" stroke-width="1.5" d="M0,-3.0v7 M-2.5,-0.5L0,-3.0L2.5,-0.5"/>
                </g>
                <g id="arrowRight" xlink:href="#dirArrow" transform="rotate(90) translate(36 -43)" onmousedown="handlePan(1,0)">
                  <use xlink:href="#rim" fill="#404040">
                        <set attributeName="fill" to="#808080" begin="arrowRight.mouseover" end="arrowRight.mouseout"/>
                  </use>
                  <path fill="none" stroke="white" stroke-width="1.5" d="M0,-3.0v7 M-2.5,-0.5L0,-3.0L2.5,-0.5"/>
                </g>
                <g id="arrowDown" xlink:href="#dirArrow" transform="rotate(180) translate(-30 -48)" onmousedown="handlePan(0,1)">
                  <use xlink:href="#rim" fill="#404040">
                        <set attributeName="fill" to="#808080" begin="arrowDown.mouseover" end="arrowDown.mouseout"/>
                  </use>
                  <path fill="none" stroke="white" stroke-width="1.5" d="M0,-3.0v7 M-2.5,-0.5L0,-3.0L2.5,-0.5"/>
                </g>
                <g id="arrowLeft" xlink:href="#dirArrow" transform="rotate(270) translate(-36 17)" onmousedown="handlePan(-1,0)">
                  <use xlink:href="#rim" fill="#404040">
                        <set attributeName="fill" to="#808080" begin="arrowLeft.mouseover" end="arrowLeft.mouseout"/>
                  </use>
                  <path fill="none" stroke="white" stroke-width="1.5" d="M0,-3.0v7 M-2.5,-0.5L0,-3.0L2.5,-0.5"/>
                </g>
        </g>
        <svg viewBox="0 0 15 15" width="100%" height="30px" preserveAspectRatio="xMaxYMin meet">
         <g id="arrow_out" transform="scale(0.3 0.3)">
          <a xlink:href="arg__private_8h__dep__incl_org.svg" target="_base">
           <rect id="button" ry="5" rx="5" y="6" x="6" height="38" width="38"
                fill="#f2f5e9" fill-opacity="0.5" stroke="#606060" stroke-width="1.0"/>
           <path id="arrow"
             d="M 11.500037,31.436501 C 11.940474,20.09759 22.043105,11.32322 32.158766,21.979434 L 37.068811,17.246167 C 37.068811,17.246167 37.088388,32 37.088388,32 L 22.160133,31.978069 C 22.160133,31.978069 26.997745,27.140456 26.997745,27.140456 C 18.528582,18.264221 13.291696,25.230495 11.500037,31.436501 z"
             style="fill:#404040;"/>
          </a>
         </g>
        </svg>
</svg>
