<?xml version="1.0" encoding="UTF-8" standalone="no"?>
<!DOCTYPE svg PUBLIC "-//W3C//DTD SVG 1.1//EN"
 "http://www.w3.org/Graphics/SVG/1.1/DTD/svg11.dtd">
<!-- Generated by graphviz version 2.40.1 (20161225.0304)
 -->
<!-- Title: ARController::startRunning Pages: 1 -->
<svg width="457pt" height="101pt"
 viewBox="0.00 0.00 456.54 101.00" xmlns="http://www.w3.org/2000/svg" xmlns:xlink="http://www.w3.org/1999/xlink">
<g id="graph0" class="graph" transform="scale(1 1) rotate(0) translate(4 97)">
<title>ARController::startRunning</title>
<polygon fill="#ffffff" stroke="transparent" points="-4,4 -4,-97 452.54,-97 452.54,4 -4,4"/>
<!-- Node91 -->
<g id="node1" class="node">
<title>Node91</title>
<polygon fill="#bfbfbf" stroke="#000000" points="0,-37.5 0,-55.5 135.4971,-55.5 135.4971,-37.5 0,-37.5"/>
<text text-anchor="middle" x="67.7485" y="-43.5" font-family="Helvetica,sans-Serif" font-size="10.00" fill="#000000">ARController::startRunning</text>
</g>
<!-- Node92 -->
<g id="node2" class="node">
<title>Node92</title>
<g id="a_node2"><a xlink:href="class_a_r_video_source.html#aa385c7136b3d45c6efaa6604bf0a6d9a" target="_top" xlink:title="Sets initial parameters which will be used when the video source is opened. ">
<polygon fill="#ffffff" stroke="#000000" points="171.4971,-74.5 171.4971,-92.5 304.9922,-92.5 304.9922,-74.5 171.4971,-74.5"/>
<text text-anchor="middle" x="238.2446" y="-80.5" font-family="Helvetica,sans-Serif" font-size="10.00" fill="#000000">ARVideoSource::configure</text>
</a>
</g>
</g>
<!-- Node91&#45;&gt;Node92 -->
<g id="edge1" class="edge">
<title>Node91&#45;&gt;Node92</title>
<path fill="none" stroke="#191970" d="M109.4566,-55.5512C132.7644,-60.6093 162.0082,-66.9556 186.7358,-72.3219"/>
<polygon fill="#191970" stroke="#191970" points="186.1572,-75.7777 196.672,-74.4782 187.6418,-68.9369 186.1572,-75.7777"/>
</g>
<!-- Node93 -->
<g id="node3" class="node">
<title>Node93</title>
<g id="a_node3"><a xlink:href="class_a_r_video_source.html#ad6e81f0a07ddf8e844dfb867bc94de4b" target="_top" xlink:title="Opens the video source. ">
<polygon fill="#ffffff" stroke="#000000" points="180.9429,-37.5 180.9429,-55.5 295.5464,-55.5 295.5464,-37.5 180.9429,-37.5"/>
<text text-anchor="middle" x="238.2446" y="-43.5" font-family="Helvetica,sans-Serif" font-size="10.00" fill="#000000">ARVideoSource::open</text>
</a>
</g>
</g>
<!-- Node91&#45;&gt;Node93 -->
<g id="edge2" class="edge">
<title>Node91&#45;&gt;Node93</title>
<path fill="none" stroke="#191970" d="M135.623,-46.5C147.1866,-46.5 159.1956,-46.5 170.7494,-46.5"/>
<polygon fill="#191970" stroke="#191970" points="170.7629,-50.0001 180.7629,-46.5 170.7629,-43.0001 170.7629,-50.0001"/>
</g>
<!-- Node96 -->
<g id="node6" class="node">
<title>Node96</title>
<g id="a_node6"><a xlink:href="class_a_r_video_source.html#a1d4e4cebdf413918427c39aa99a197cc" target="_top" xlink:title="ARVideoSource::getError">
<polygon fill="#ffffff" stroke="#000000" points="174.0044,-.5 174.0044,-18.5 302.4849,-18.5 302.4849,-.5 174.0044,-.5"/>
<text text-anchor="middle" x="238.2446" y="-6.5" font-family="Helvetica,sans-Serif" font-size="10.00" fill="#000000">ARVideoSource::getError</text>
</a>
</g>
</g>
<!-- Node91&#45;&gt;Node96 -->
<g id="edge5" class="edge">
<title>Node91&#45;&gt;Node96</title>
<path fill="none" stroke="#191970" d="M109.4566,-37.4488C132.7644,-32.3907 162.0082,-26.0444 186.7358,-20.6781"/>
<polygon fill="#191970" stroke="#191970" points="187.6418,-24.0631 196.672,-18.5218 186.1572,-17.2223 187.6418,-24.0631"/>
</g>
<!-- Node94 -->
<g id="node4" class="node">
<title>Node94</title>
<g id="a_node4"><a xlink:href="video_8h.html#a6a911689abfaf33e8b1bea7c34f7c39a" target="_top" xlink:title="ar2VideoOpenAsync">
<polygon fill="#ffffff" stroke="#000000" points="340.9922,-55.5 340.9922,-73.5 448.54,-73.5 448.54,-55.5 340.9922,-55.5"/>
<text text-anchor="middle" x="394.7661" y="-61.5" font-family="Helvetica,sans-Serif" font-size="10.00" fill="#000000">ar2VideoOpenAsync</text>
</a>
</g>
</g>
<!-- Node93&#45;&gt;Node94 -->
<g id="edge3" class="edge">
<title>Node93&#45;&gt;Node94</title>
<path fill="none" stroke="#191970" d="M295.6387,-53.1003C307.043,-54.4118 319.0851,-55.7967 330.696,-57.1319"/>
<polygon fill="#191970" stroke="#191970" points="330.4272,-60.624 340.7616,-58.2895 331.227,-53.6698 330.4272,-60.624"/>
</g>
<!-- Node95 -->
<g id="node5" class="node">
<title>Node95</title>
<g id="a_node5"><a xlink:href="video_8h.html#a266a574c77510cdde38998c94118611a" target="_top" xlink:title="ar2VideoOpen">
<polygon fill="#ffffff" stroke="#000000" points="354.6079,-18.5 354.6079,-36.5 434.9243,-36.5 434.9243,-18.5 354.6079,-18.5"/>
<text text-anchor="middle" x="394.7661" y="-24.5" font-family="Helvetica,sans-Serif" font-size="10.00" fill="#000000">ar2VideoOpen</text>
</a>
</g>
</g>
<!-- Node93&#45;&gt;Node95 -->
<g id="edge4" class="edge">
<title>Node93&#45;&gt;Node95</title>
<path fill="none" stroke="#191970" d="M295.6387,-39.533C311.6706,-37.5869 328.9628,-35.4878 344.5458,-33.5962"/>
<polygon fill="#191970" stroke="#191970" points="345.0035,-37.0664 354.5088,-32.3868 344.1599,-30.1174 345.0035,-37.0664"/>
</g>
</g>
</svg>
