<?xml version="1.0" encoding="UTF-8" standalone="no"?>
<!DOCTYPE svg PUBLIC "-//W3C//DTD SVG 1.1//EN"
 "http://www.w3.org/Graphics/SVG/1.1/DTD/svg11.dtd">
<!-- Generated by graphviz version 7.0.5 (20221223.1930)
 -->
<!-- Title: ARTrackable::update Pages: 1 -->
<svg width="396pt" height="175pt"
 viewBox="0.00 0.00 396.00 175.00" xmlns="http://www.w3.org/2000/svg" xmlns:xlink="http://www.w3.org/1999/xlink">
<g id="graph0" class="graph" transform="scale(1 1) rotate(0) translate(4 171)">
<title>ARTrackable::update</title>
<!-- Node1 -->
<g id="node1" class="node">
<title>Node1</title>
<g id="a_node1"><a xlink:title="Completes an update begun in the parent class, performing filtering, generating OpenGL view matrix an...">
<polygon fill="#999999" stroke="#666666" points="109,-74 0,-74 0,-55 109,-55 109,-74"/>
<text text-anchor="middle" x="54.5" y="-62" font-family="Helvetica,sans-Serif" font-size="10.00">ARTrackable::update</text>
</a>
</g>
</g>
<!-- Node2 -->
<g id="node2" class="node">
<title>Node2</title>
<g id="a_node2"><a xlink:href="ar_filter_trans_mat_8c.html#a575d29079692c1af23b19f0477ee2123" target="_top" xlink:title="Filters the supplied pose estimate transformation matrix in&#45;place.">
<polygon fill="white" stroke="#666666" points="242.5,-130 154.5,-130 154.5,-111 242.5,-111 242.5,-130"/>
<text text-anchor="middle" x="198.5" y="-118" font-family="Helvetica,sans-Serif" font-size="10.00">arFilterTransMat</text>
</a>
</g>
</g>
<!-- Node1&#45;&gt;Node2 -->
<g id="edge1" class="edge">
<title>Node1&#45;&gt;Node2</title>
<path fill="none" stroke="#63b8ff" d="M77.76,-74.47C95.76,-82.41 121.83,-93.62 145,-102.5 148.82,-103.97 152.83,-105.44 156.84,-106.88"/>
<polygon fill="#63b8ff" stroke="#63b8ff" points="155.36,-110.07 165.96,-110.08 157.68,-103.47 155.36,-110.07"/>
</g>
<!-- Node6 -->
<g id="node6" class="node">
<title>Node6</title>
<g id="a_node6"><a xlink:href="param_g_l_8c.html#a21250f8dd05058fe653e4a0116e7f592" target="_top" xlink:title="Create an OpenGL viewing transformation matrix.">
<polygon fill="white" stroke="#666666" points="250.5,-93 146.5,-93 146.5,-74 250.5,-74 250.5,-93"/>
<text text-anchor="middle" x="198.5" y="-81" font-family="Helvetica,sans-Serif" font-size="10.00">arglCameraViewRH</text>
</a>
</g>
</g>
<!-- Node1&#45;&gt;Node6 -->
<g id="edge5" class="edge">
<title>Node1&#45;&gt;Node6</title>
<path fill="none" stroke="#63b8ff" d="M109.18,-71.68C117.59,-72.81 126.35,-73.98 134.94,-75.13"/>
<polygon fill="#63b8ff" stroke="#63b8ff" points="134.21,-78.56 144.59,-76.42 135.14,-71.62 134.21,-78.56"/>
</g>
<!-- Node7 -->
<g id="node7" class="node">
<title>Node7</title>
<g id="a_node7"><a xlink:href="param_g_l_8c.html#a069eee4b7a32208a45b8c438283e9a7f" target="_top" xlink:title=" ">
<polygon fill="white" stroke="#666666" points="252,-56 145,-56 145,-37 252,-37 252,-56"/>
<text text-anchor="middle" x="198.5" y="-44" font-family="Helvetica,sans-Serif" font-size="10.00">arglCameraViewRHf</text>
</a>
</g>
</g>
<!-- Node1&#45;&gt;Node7 -->
<g id="edge6" class="edge">
<title>Node1&#45;&gt;Node7</title>
<path fill="none" stroke="#63b8ff" d="M109.18,-57.69C117.08,-56.69 125.29,-55.65 133.37,-54.63"/>
<polygon fill="#63b8ff" stroke="#63b8ff" points="133.7,-58.12 143.18,-53.39 132.82,-51.17 133.7,-58.12"/>
</g>
<!-- Node8 -->
<g id="node8" class="node">
<title>Node8</title>
<g id="a_node8"><a xlink:href="ar_util_8c.html#ae28eeba3e16224a7d77b46bd34b8f4fe" target="_top" xlink:title=" ">
<polygon fill="white" stroke="#666666" points="234.5,-19 162.5,-19 162.5,0 234.5,0 234.5,-19"/>
<text text-anchor="middle" x="198.5" y="-7" font-family="Helvetica,sans-Serif" font-size="10.00">arUtilMatMul</text>
</a>
</g>
</g>
<!-- Node1&#45;&gt;Node8 -->
<g id="edge7" class="edge">
<title>Node1&#45;&gt;Node8</title>
<path fill="none" stroke="#63b8ff" d="M78.52,-54.52C96.51,-46.84 122.19,-36.11 145,-27.5 148.83,-26.05 152.84,-24.59 156.85,-23.16"/>
<polygon fill="#63b8ff" stroke="#63b8ff" points="157.69,-26.57 165.97,-19.96 155.38,-19.97 157.69,-26.57"/>
</g>
<!-- Node3 -->
<g id="node3" class="node">
<title>Node3</title>
<g id="a_node3"><a xlink:href="ar_util_8c.html#adb4a9f8d233d3b954fd85bbb3deda173" target="_top" xlink:title=" ">
<polygon fill="white" stroke="#666666" points="388,-167 288,-167 288,-148 388,-148 388,-167"/>
<text text-anchor="middle" x="338" y="-155" font-family="Helvetica,sans-Serif" font-size="10.00">arUtilMat2QuatPos</text>
</a>
</g>
</g>
<!-- Node2&#45;&gt;Node3 -->
<g id="edge2" class="edge">
<title>Node2&#45;&gt;Node3</title>
<path fill="none" stroke="#63b8ff" d="M236.35,-130.42C252.53,-134.77 271.74,-139.94 289.03,-144.59"/>
<polygon fill="#63b8ff" stroke="#63b8ff" points="288.02,-147.95 298.59,-147.16 289.84,-141.19 288.02,-147.95"/>
</g>
<!-- Node4 -->
<g id="node4" class="node">
<title>Node4</title>
<g id="a_node4"><a xlink:href="ar_util_8c.html#aa543b10d8b401ccf5626aba7dfa12e09" target="_top" xlink:title=" ">
<polygon fill="white" stroke="#666666" points="380.5,-130 295.5,-130 295.5,-111 380.5,-111 380.5,-130"/>
<text text-anchor="middle" x="338" y="-118" font-family="Helvetica,sans-Serif" font-size="10.00">arUtilQuatNorm</text>
</a>
</g>
</g>
<!-- Node2&#45;&gt;Node4 -->
<g id="edge3" class="edge">
<title>Node2&#45;&gt;Node4</title>
<path fill="none" stroke="#63b8ff" d="M242.63,-120.5C255.8,-120.5 270.43,-120.5 284.16,-120.5"/>
<polygon fill="#63b8ff" stroke="#63b8ff" points="283.92,-124 293.92,-120.5 283.92,-117 283.92,-124"/>
</g>
<!-- Node5 -->
<g id="node5" class="node">
<title>Node5</title>
<g id="a_node5"><a xlink:href="ar_util_8c.html#a016bf9cc45eee7cd9eae471cecc68e9a" target="_top" xlink:title=" ">
<polygon fill="white" stroke="#666666" points="388,-93 288,-93 288,-74 388,-74 388,-93"/>
<text text-anchor="middle" x="338" y="-81" font-family="Helvetica,sans-Serif" font-size="10.00">arUtilQuatPos2Mat</text>
</a>
</g>
</g>
<!-- Node2&#45;&gt;Node5 -->
<g id="edge4" class="edge">
<title>Node2&#45;&gt;Node5</title>
<path fill="none" stroke="#63b8ff" d="M236.35,-110.58C252.53,-106.23 271.74,-101.06 289.03,-96.41"/>
<polygon fill="#63b8ff" stroke="#63b8ff" points="289.84,-99.81 298.59,-93.84 288.02,-93.05 289.84,-99.81"/>
</g>
</g>
</svg>
