<?xml version="1.0" encoding="UTF-8" standalone="no"?>
<!DOCTYPE svg PUBLIC "-//W3C//DTD SVG 1.1//EN"
 "http://www.w3.org/Graphics/SVG/1.1/DTD/svg11.dtd">
<!-- Generated by graphviz version 8.0.5 (20230430.1635)
 -->
<!-- Title: ARTrackable Pages: 1 -->
<svg width="417pt" height="83pt"
 viewBox="0.00 0.00 417.25 82.50" xmlns="http://www.w3.org/2000/svg" xmlns:xlink="http://www.w3.org/1999/xlink">
<g id="graph0" class="graph" transform="scale(1 1) rotate(0) translate(4 78.5)">
<title>ARTrackable</title>
<!-- Node1 -->
<g id="node1" class="node">
<title>Node1</title>
<g id="a_node1"><a xlink:title="Base class for supported trackable types.">
<polygon fill="#999999" stroke="#666666" points="251.88,-74.5 178.88,-74.5 178.88,-55.25 251.88,-55.25 251.88,-74.5"/>
<text text-anchor="middle" x="215.38" y="-61" font-family="Helvetica,sans-Serif" font-size="10.00">ARTrackable</text>
</a>
</g>
</g>
<!-- Node2 -->
<g id="node2" class="node">
<title>Node2</title>
<g id="a_node2"><a xlink:href="class_a_r_trackable_multi_square.html" target="_top" xlink:title="Multiple marker type of ARTrackable.">
<polygon fill="white" stroke="#666666" points="124.75,-19.25 0,-19.25 0,0 124.75,0 124.75,-19.25"/>
<text text-anchor="middle" x="62.38" y="-5.75" font-family="Helvetica,sans-Serif" font-size="10.00">ARTrackableMultiSquare</text>
</a>
</g>
</g>
<!-- Node1&#45;&gt;Node2 -->
<g id="edge1" class="edge">
<title>Node1&#45;&gt;Node2</title>
<path fill="none" stroke="#63b8ff" d="M179.27,-51.31C151.38,-41.6 113.45,-28.4 88.46,-19.7"/>
<polygon fill="#63b8ff" stroke="#63b8ff" points="177.83,-54.86 188.42,-54.84 180.13,-48.25 177.83,-54.86"/>
</g>
<!-- Node3 -->
<g id="node3" class="node">
<title>Node3</title>
<g id="a_node3"><a xlink:href="class_a_r_trackable_multi_square_auto.html" target="_top" xlink:title="An ARTrackable that auto&#45;builds a map of matrix (2D barcode) markers.">
<polygon fill="white" stroke="#666666" points="287.88,-19.25 142.88,-19.25 142.88,0 287.88,0 287.88,-19.25"/>
<text text-anchor="middle" x="215.38" y="-5.75" font-family="Helvetica,sans-Serif" font-size="10.00">ARTrackableMultiSquareAuto</text>
</a>
</g>
</g>
<!-- Node1&#45;&gt;Node3 -->
<g id="edge2" class="edge">
<title>Node1&#45;&gt;Node3</title>
<path fill="none" stroke="#63b8ff" d="M215.38,-44.21C215.38,-35.77 215.38,-26.33 215.38,-19.61"/>
<polygon fill="#63b8ff" stroke="#63b8ff" points="211.88,-44.08 215.38,-54.08 218.88,-44.08 211.88,-44.08"/>
</g>
<!-- Node4 -->
<g id="node4" class="node">
<title>Node4</title>
<g id="a_node4"><a xlink:href="class_a_r_trackable_square.html" target="_top" xlink:title="Single marker type of ARTrackable.">
<polygon fill="white" stroke="#666666" points="409.25,-19.25 305.5,-19.25 305.5,0 409.25,0 409.25,-19.25"/>
<text text-anchor="middle" x="357.38" y="-5.75" font-family="Helvetica,sans-Serif" font-size="10.00">ARTrackableSquare</text>
</a>
</g>
</g>
<!-- Node1&#45;&gt;Node4 -->
<g id="edge3" class="edge">
<title>Node1&#45;&gt;Node4</title>
<path fill="none" stroke="#63b8ff" d="M249.57,-51.05C275.39,-41.37 310.18,-28.32 333.17,-19.7"/>
<polygon fill="#63b8ff" stroke="#63b8ff" points="248.6,-48.05 240.46,-54.84 251.06,-54.61 248.6,-48.05"/>
</g>
</g>
</svg>
