<?xml version="1.0" encoding="UTF-8" standalone="no"?>
<!DOCTYPE svg PUBLIC "-//W3C//DTD SVG 1.1//EN"
 "http://www.w3.org/Graphics/SVG/1.1/DTD/svg11.dtd">
<!-- Generated by graphviz version 7.0.5 (20221223.1930)
 -->
<!-- Title: PlanarTracker::PlanarTrackerImpl::PlanarTrackerImpl Pages: 1 -->
<svg width="477pt" height="38pt"
 viewBox="0.00 0.00 477.00 38.00" xmlns="http://www.w3.org/2000/svg" xmlns:xlink="http://www.w3.org/1999/xlink">
<g id="graph0" class="graph" transform="scale(1 1) rotate(0) translate(4 34)">
<title>PlanarTracker::PlanarTrackerImpl::PlanarTrackerImpl</title>
<!-- Node1 -->
<g id="node1" class="node">
<title>Node1</title>
<g id="a_node1"><a xlink:title=" ">
<polygon fill="#999999" stroke="#666666" points="144,-30 0,-30 0,0 144,0 144,-30"/>
<text text-anchor="start" x="8" y="-18" font-family="Helvetica,sans-Serif" font-size="10.00">PlanarTracker::PlanarTracker</text>
<text text-anchor="middle" x="72" y="-7" font-family="Helvetica,sans-Serif" font-size="10.00">Impl::PlanarTrackerImpl</text>
</a>
</g>
</g>
<!-- Node2 -->
<g id="node2" class="node">
<title>Node2</title>
<g id="a_node2"><a xlink:href="class_planar_tracker_1_1_planar_tracker_impl.html#af0715bf1af4a09d2a942d48a9937d159" target="_top" xlink:title=" ">
<polygon fill="white" stroke="#666666" points="324,-30 180,-30 180,0 324,0 324,-30"/>
<text text-anchor="start" x="188" y="-18" font-family="Helvetica,sans-Serif" font-size="10.00">PlanarTracker::PlanarTracker</text>
<text text-anchor="middle" x="252" y="-7" font-family="Helvetica,sans-Serif" font-size="10.00">Impl::SetFeatureDetector</text>
</a>
</g>
</g>
<!-- Node1&#45;&gt;Node2 -->
<g id="edge1" class="edge">
<title>Node1&#45;&gt;Node2</title>
<path fill="none" stroke="#63b8ff" d="M144.37,-15C152.26,-15 160.34,-15 168.36,-15"/>
<polygon fill="#63b8ff" stroke="#63b8ff" points="168.1,-18.5 178.1,-15 168.1,-11.5 168.1,-18.5"/>
</g>
<!-- Node3 -->
<g id="node3" class="node">
<title>Node3</title>
<g id="a_node3"><a xlink:href="class_o_c_v_feature_detector.html#acde63c94749b067c846a3cd7db72dbcd" target="_top" xlink:title=" ">
<polygon fill="white" stroke="#666666" points="469,-30 360,-30 360,0 469,0 469,-30"/>
<text text-anchor="start" x="368" y="-18" font-family="Helvetica,sans-Serif" font-size="10.00">OCVFeatureDetector</text>
<text text-anchor="middle" x="414.5" y="-7" font-family="Helvetica,sans-Serif" font-size="10.00">::SetFeatureDetector</text>
</a>
</g>
</g>
<!-- Node2&#45;&gt;Node3 -->
<g id="edge2" class="edge">
<title>Node2&#45;&gt;Node3</title>
<path fill="none" stroke="#63b8ff" d="M324.33,-15C332.32,-15 340.43,-15 348.33,-15"/>
<polygon fill="#63b8ff" stroke="#63b8ff" points="348.22,-18.5 358.22,-15 348.22,-11.5 348.22,-18.5"/>
</g>
</g>
</svg>
