<?xml version="1.0" encoding="UTF-8" standalone="no"?>
<!DOCTYPE svg PUBLIC "-//W3C//DTD SVG 1.1//EN"
 "http://www.w3.org/Graphics/SVG/1.1/DTD/svg11.dtd">
<!-- Generated by graphviz version 2.40.1 (20161225.0304)
 -->
<!-- Title: ARTrackerSquare::setThresholdMode Pages: 1 -->
<svg width="493pt" height="64pt"
 viewBox="0.00 0.00 492.64 64.00" xmlns="http://www.w3.org/2000/svg" xmlns:xlink="http://www.w3.org/1999/xlink">
<g id="graph0" class="graph" transform="scale(1 1) rotate(0) translate(4 60)">
<title>ARTrackerSquare::setThresholdMode</title>
<polygon fill="#ffffff" stroke="transparent" points="-4,4 -4,-60 488.6387,-60 488.6387,4 -4,4"/>
<!-- Node56 -->
<g id="node1" class="node">
<title>Node56</title>
<polygon fill="#bfbfbf" stroke="#000000" points="0,-18.5 0,-36.5 183.8662,-36.5 183.8662,-18.5 0,-18.5"/>
<text text-anchor="middle" x="91.9331" y="-24.5" font-family="Helvetica,sans-Serif" font-size="10.00" fill="#000000">ARTrackerSquare::setThresholdMode</text>
</g>
<!-- Node57 -->
<g id="node2" class="node">
<title>Node57</title>
<g id="a_node2"><a xlink:href="ar_create_handle_8c.html#aec6c548f3619e700e40764cd1c685fc6" target="_top" xlink:title="Set the labeling threshold mode (auto/manual). ">
<polygon fill="#ffffff" stroke="#000000" points="219.8662,-18.5 219.8662,-36.5 353.7178,-36.5 353.7178,-18.5 219.8662,-18.5"/>
<text text-anchor="middle" x="286.792" y="-24.5" font-family="Helvetica,sans-Serif" font-size="10.00" fill="#000000">arSetLabelingThreshMode</text>
</a>
</g>
</g>
<!-- Node56&#45;&gt;Node57 -->
<g id="edge1" class="edge">
<title>Node56&#45;&gt;Node57</title>
<path fill="none" stroke="#191970" d="M183.9417,-27.5C192.4886,-27.5 201.0913,-27.5 209.4856,-27.5"/>
<polygon fill="#191970" stroke="#191970" points="209.6037,-31.0001 219.6037,-27.5 209.6036,-24.0001 209.6037,-31.0001"/>
</g>
<!-- Node58 -->
<g id="node3" class="node">
<title>Node58</title>
<g id="a_node3"><a xlink:href="ar_image_proc_8c.html#a99a7b2bbb653be2ecc772ceed7159ce1" target="_top" xlink:title="Finish image processing and free memory. ">
<polygon fill="#ffffff" stroke="#000000" points="389.7178,-37.5 389.7178,-55.5 484.6387,-55.5 484.6387,-37.5 389.7178,-37.5"/>
<text text-anchor="middle" x="437.1782" y="-43.5" font-family="Helvetica,sans-Serif" font-size="10.00" fill="#000000">arImageProcFinal</text>
</a>
</g>
</g>
<!-- Node57&#45;&gt;Node58 -->
<g id="edge2" class="edge">
<title>Node57&#45;&gt;Node58</title>
<path fill="none" stroke="#191970" d="M354.0677,-35.9997C362.5187,-37.0674 371.1047,-38.1522 379.3921,-39.1992"/>
<polygon fill="#191970" stroke="#191970" points="378.964,-42.6729 389.3238,-40.454 379.8414,-35.7281 378.964,-42.6729"/>
</g>
<!-- Node59 -->
<g id="node4" class="node">
<title>Node59</title>
<g id="a_node4"><a xlink:href="ar_image_proc_8c.html#a40df944801ad1069f667b366eba16855" target="_top" xlink:title="Initialise image processing. ">
<polygon fill="#ffffff" stroke="#000000" points="393.8853,-.5 393.8853,-18.5 480.4712,-18.5 480.4712,-.5 393.8853,-.5"/>
<text text-anchor="middle" x="437.1782" y="-6.5" font-family="Helvetica,sans-Serif" font-size="10.00" fill="#000000">arImageProcInit</text>
</a>
</g>
</g>
<!-- Node57&#45;&gt;Node59 -->
<g id="edge3" class="edge">
<title>Node57&#45;&gt;Node59</title>
<path fill="none" stroke="#191970" d="M354.0677,-19.4477C363.946,-18.2653 374.0086,-17.0609 383.5634,-15.9173"/>
<polygon fill="#191970" stroke="#191970" points="384.1861,-19.3678 393.6992,-14.7041 383.3541,-12.4174 384.1861,-19.3678"/>
</g>
</g>
</svg>
