<?xml version="1.0" encoding="UTF-8" standalone="no"?>
<!DOCTYPE svg PUBLIC "-//W3C//DTD SVG 1.1//EN"
 "http://www.w3.org/Graphics/SVG/1.1/DTD/svg11.dtd">
<!-- Generated by graphviz version 7.0.5 (20221223.1930)
 -->
<!-- Title: ARVideoView::draw Pages: 1 -->
<svg width="308pt" height="310pt"
 viewBox="0.00 0.00 308.00 310.00" xmlns="http://www.w3.org/2000/svg" xmlns:xlink="http://www.w3.org/1999/xlink">
<g id="graph0" class="graph" transform="scale(1 1) rotate(0) translate(4 306)">
<title>ARVideoView::draw</title>
<!-- Node1 -->
<g id="node1" class="node">
<title>Node1</title>
<g id="a_node1"><a xlink:title=" ">
<polygon fill="#999999" stroke="#666666" points="104,-160 0,-160 0,-141 104,-141 104,-160"/>
<text text-anchor="middle" x="52" y="-148" font-family="Helvetica,sans-Serif" font-size="10.00">ARVideoView::draw</text>
</a>
</g>
</g>
<!-- Node2 -->
<g id="node2" class="node">
<title>Node2</title>
<g id="a_node2"><a xlink:href="arg_8c.html#afdd586c0ba2cc7df1347cc0522c6777b" target="_top" xlink:title="Display an ARVideo image, by drawing it using OpenGL.">
<polygon fill="white" stroke="#666666" points="260,-302 180,-302 180,-283 260,-283 260,-302"/>
<text text-anchor="middle" x="220" y="-290" font-family="Helvetica,sans-Serif" font-size="10.00">arglDispImage</text>
</a>
</g>
</g>
<!-- Node1&#45;&gt;Node2 -->
<g id="edge1" class="edge">
<title>Node1&#45;&gt;Node2</title>
<path fill="none" stroke="#63b8ff" d="M56.99,-160.3C67.09,-183.82 96.05,-243.71 140,-273.5 148.58,-279.31 158.73,-283.35 168.86,-286.16"/>
<polygon fill="#63b8ff" stroke="#63b8ff" points="167.74,-289.49 178.28,-288.4 169.36,-282.68 167.74,-289.49"/>
</g>
<!-- Node3 -->
<g id="node3" class="node">
<title>Node3</title>
<g id="a_node3"><a xlink:href="arg_8c.html#a25cc1097132fc11d1acb6b37694b5d2a" target="_top" xlink:title="Upload a buffer of pixel data to an OpenGL texture for later use by arglDispImage().">
<polygon fill="white" stroke="#666666" points="286,-264.5 154,-264.5 154,-234.5 286,-234.5 286,-264.5"/>
<text text-anchor="start" x="162" y="-252.5" font-family="Helvetica,sans-Serif" font-size="10.00">arglPixelBufferDataUpload</text>
<text text-anchor="middle" x="220" y="-241.5" font-family="Helvetica,sans-Serif" font-size="10.00">BiPlanar</text>
</a>
</g>
</g>
<!-- Node1&#45;&gt;Node3 -->
<g id="edge2" class="edge">
<title>Node1&#45;&gt;Node3</title>
<path fill="none" stroke="#63b8ff" d="M61.67,-160.24C76.3,-176.13 107.51,-207.61 140,-225.5 142.67,-226.97 145.45,-228.37 148.29,-229.68"/>
<polygon fill="#63b8ff" stroke="#63b8ff" points="146.84,-232.87 157.42,-233.54 149.57,-226.42 146.84,-232.87"/>
</g>
<!-- Node4 -->
<g id="node4" class="node">
<title>Node4</title>
<g id="a_node4"><a xlink:href="arg_8c.html#a6b7919e1a7ade7c23394eeb964be17f6" target="_top" xlink:title="Specify a desired pixel buffer size larger than the camera image size.">
<polygon fill="white" stroke="#666666" points="277.5,-216 162.5,-216 162.5,-197 277.5,-197 277.5,-216"/>
<text text-anchor="middle" x="220" y="-204" font-family="Helvetica,sans-Serif" font-size="10.00">arglPixelBufferSizeSet</text>
</a>
</g>
</g>
<!-- Node1&#45;&gt;Node4 -->
<g id="edge3" class="edge">
<title>Node1&#45;&gt;Node4</title>
<path fill="none" stroke="#63b8ff" d="M72.63,-160.34C89.99,-168.74 116.2,-180.67 140,-188.5 145.76,-190.4 151.83,-192.16 157.92,-193.79"/>
<polygon fill="#63b8ff" stroke="#63b8ff" points="156.86,-197.14 167.42,-196.2 158.58,-190.35 156.86,-197.14"/>
</g>
<!-- Node5 -->
<g id="node5" class="node">
<title>Node5</title>
<g id="a_node5"><a xlink:href="arg_8c.html#aab881f83622055d786e2f42086220b94" target="_top" xlink:title="Set the format of pixel data which will be passed to arglDispImage*()">
<polygon fill="white" stroke="#666666" points="270,-179 170,-179 170,-160 270,-160 270,-179"/>
<text text-anchor="middle" x="220" y="-167" font-family="Helvetica,sans-Serif" font-size="10.00">arglPixelFormatSet</text>
</a>
</g>
</g>
<!-- Node1&#45;&gt;Node5 -->
<g id="edge4" class="edge">
<title>Node1&#45;&gt;Node5</title>
<path fill="none" stroke="#63b8ff" d="M104.16,-156.36C121.27,-158.31 140.52,-160.52 158.29,-162.55"/>
<polygon fill="#63b8ff" stroke="#63b8ff" points="157.88,-166.03 168.21,-163.69 158.67,-159.07 157.88,-166.03"/>
</g>
<!-- Node6 -->
<g id="node6" class="node">
<title>Node6</title>
<g id="a_node6"><a xlink:href="arg_8c.html#a60f8657d50e21a7d8213a628bda888a9" target="_top" xlink:title="Set the current video image drawing scalefactor.">
<polygon fill="white" stroke="#666666" points="267,-142 173,-142 173,-123 267,-123 267,-142"/>
<text text-anchor="middle" x="220" y="-130" font-family="Helvetica,sans-Serif" font-size="10.00">arglSetPixelZoom</text>
</a>
</g>
</g>
<!-- Node1&#45;&gt;Node6 -->
<g id="edge5" class="edge">
<title>Node1&#45;&gt;Node6</title>
<path fill="none" stroke="#63b8ff" d="M104.16,-144.95C122.23,-142.99 142.66,-140.78 161.24,-138.76"/>
<polygon fill="#63b8ff" stroke="#63b8ff" points="161.46,-142.26 171.02,-137.7 160.7,-135.3 161.46,-142.26"/>
</g>
<!-- Node7 -->
<g id="node7" class="node">
<title>Node7</title>
<g id="a_node7"><a xlink:href="class_a_r_video_source.html#a3d4b14784d083ae76f43c8942cb9076b" target="_top" xlink:title="Checkin a locked video frame.">
<polygon fill="white" stroke="#666666" points="297,-105 143,-105 143,-86 297,-86 297,-105"/>
<text text-anchor="middle" x="220" y="-93" font-family="Helvetica,sans-Serif" font-size="10.00">ARVideoSource::checkinFrame</text>
</a>
</g>
</g>
<!-- Node1&#45;&gt;Node7 -->
<g id="edge6" class="edge">
<title>Node1&#45;&gt;Node7</title>
<path fill="none" stroke="#63b8ff" d="M74.46,-140.52C91.85,-132.69 117.15,-121.93 140,-114.5 146.86,-112.27 154.13,-110.17 161.38,-108.25"/>
<polygon fill="#63b8ff" stroke="#63b8ff" points="162.01,-111.7 170.83,-105.83 160.27,-104.92 162.01,-111.7"/>
</g>
<!-- Node8 -->
<g id="node8" class="node">
<title>Node8</title>
<g id="a_node8"><a xlink:href="class_a_r_video_source.html#a0870e3e3099fe2bede89980bc89c5e70" target="_top" xlink:title="Checkout a locked video frame if the frame&#39;s timestamp is newer than &#39;time&#39;.">
<polygon fill="white" stroke="#666666" points="300,-67.5 140,-67.5 140,-37.5 300,-37.5 300,-67.5"/>
<text text-anchor="start" x="148" y="-55.5" font-family="Helvetica,sans-Serif" font-size="10.00">ARVideoSource::checkoutFrame</text>
<text text-anchor="middle" x="220" y="-44.5" font-family="Helvetica,sans-Serif" font-size="10.00">IfNewerThan</text>
</a>
</g>
</g>
<!-- Node1&#45;&gt;Node8 -->
<g id="edge7" class="edge">
<title>Node1&#45;&gt;Node8</title>
<path fill="none" stroke="#63b8ff" d="M62.23,-140.57C77.17,-125.04 108.2,-94.97 140,-77.5 143.38,-75.64 146.92,-73.9 150.55,-72.27"/>
<polygon fill="#63b8ff" stroke="#63b8ff" points="151.65,-75.6 159.55,-68.54 148.97,-69.14 151.65,-75.6"/>
</g>
<!-- Node9 -->
<g id="node9" class="node">
<title>Node9</title>
<g id="a_node9"><a xlink:href="class_a_r_video_source.html#a4328e4435cfcff995216fb77ddb93619" target="_top" xlink:title="Returns the pixel format of the video.">
<polygon fill="white" stroke="#666666" points="299,-19 141,-19 141,0 299,0 299,-19"/>
<text text-anchor="middle" x="220" y="-7" font-family="Helvetica,sans-Serif" font-size="10.00">ARVideoSource::getPixelFormat</text>
</a>
</g>
</g>
<!-- Node1&#45;&gt;Node9 -->
<g id="edge8" class="edge">
<title>Node1&#45;&gt;Node9</title>
<path fill="none" stroke="#63b8ff" d="M57.01,-140.78C67.17,-117.45 96.23,-58.04 140,-28.5 142.4,-26.88 144.93,-25.39 147.55,-24.03"/>
<polygon fill="#63b8ff" stroke="#63b8ff" points="148.89,-27.27 156.62,-20.01 146.06,-20.87 148.89,-27.27"/>
</g>
</g>
</svg>
