<?xml version="1.0" encoding="UTF-8" standalone="no"?>
<!DOCTYPE svg PUBLIC "-//W3C//DTD SVG 1.1//EN"
 "http://www.w3.org/Graphics/SVG/1.1/DTD/svg11.dtd">
<!-- Generated by graphviz version 8.0.5 (20230430.1635)
 -->
<!-- Title: ARController::updateTextureRGBA32 Pages: 1 -->
<!--zoomable 113 -->
<svg id="main" version="1.1" xmlns="http://www.w3.org/2000/svg" xmlns:xlink="http://www.w3.org/1999/xlink" xml:space="preserve" onload="init(evt)">
<style type="text/css"><![CDATA[
.edge:hover path { stroke: red; }
.edge:hover polygon { stroke: red; fill: red; }
]]></style>
<script type="text/javascript"><![CDATA[
var edges = document.getElementsByTagName('g');
if (edges && edges.length) {
  for (var i=0;i<edges.length;i++) {
    if (edges[i].id.substr(0,4)=='edge') {
      edges[i].setAttribute('class','edge');
    }
  }
}
]]></script>
        <defs>
                <circle id="rim" cx="0" cy="0" r="7"/>
                <circle id="rim2" cx="0" cy="0" r="3.5"/>
                <g id="zoomPlus">
                        <use xlink:href="#rim" fill="#404040">
                                <set attributeName="fill" to="#808080" begin="zoomplus.mouseover" end="zoomplus.mouseout"/>
                        </use>
                        <path d="M-4,0h8M0,-4v8" fill="none" stroke="white" stroke-width="1.5" pointer-events="none"/>
                </g>
                <g id="zoomMin">
                        <use xlink:href="#rim" fill="#404040">
                                <set attributeName="fill" to="#808080" begin="zoomminus.mouseover" end="zoomminus.mouseout"/>
                        </use>
                        <path d="M-4,0h8" fill="none" stroke="white" stroke-width="1.5" pointer-events="none"/>
                </g>
                <g id="dirArrow">
                        <path fill="none" stroke="white" stroke-width="1.5" d="M0,-3.0v7 M-2.5,-0.5L0,-3.0L2.5,-0.5"/>
                </g>
               <g id="resetDef">
                       <use xlink:href="#rim2" fill="#404040">
                               <set attributeName="fill" to="#808080" begin="reset.mouseover" end="reset.mouseout"/>
                       </use>
               </g>
        </defs>

<script type="text/javascript">
var viewWidth = 677;
var viewHeight = 113;
var sectionId = 'dynsection-17';
</script>
<script xlink:href="svgpan.js"/>
<svg id="graph" class="graph">
<g id="viewport">
<title>ARController::updateTextureRGBA32</title>
<!-- Node1 -->
<g id="node1" class="node">
<title>Node1</title>
<g id="a_node1"><a xlink:title="Asks the video source to push the most recent frame into the passed&#45;in buffer.">
<polygon fill="#999999" stroke="#666666" points="139.75,-67.88 0,-67.88 0,-37.38 139.75,-37.38 139.75,-67.88"/>
<text text-anchor="start" x="8" y="-54.38" font-family="Helvetica,sans-Serif" font-size="10.00">ARController::updateTexture</text>
<text text-anchor="middle" x="69.88" y="-43.12" font-family="Helvetica,sans-Serif" font-size="10.00">RGBA32</text>
</a>
</g>
</g>
<!-- Node2 -->
<g id="node2" class="node">
<title>Node2</title>
<g id="a_node2"><a xlink:href="class_a_r_video_source.html#a65ebb92f31e3124222c04848ab118995" target="_top" xlink:title="Populates the provided color buffer with the current video frame.">
<polygon fill="white" stroke="#666666" points="341,-67.88 175.75,-67.88 175.75,-37.38 341,-37.38 341,-67.88"/>
<text text-anchor="start" x="183.75" y="-54.38" font-family="Helvetica,sans-Serif" font-size="10.00">ARVideoSource::getFrameTexture</text>
<text text-anchor="middle" x="258.38" y="-43.12" font-family="Helvetica,sans-Serif" font-size="10.00">RGBA32</text>
</a>
</g>
</g>
<!-- Node1&#45;&gt;Node2 -->
<g id="edge1" class="edge">
<title>Node1&#45;&gt;Node2</title>
<path fill="none" stroke="#63b8ff" d="M140.06,-52.62C148.06,-52.62 156.31,-52.62 164.56,-52.62"/>
<polygon fill="#63b8ff" stroke="#63b8ff" points="164.38,-56.13 174.38,-52.62 164.38,-49.13 164.38,-56.13"/>
</g>
<!-- Node3 -->
<g id="node3" class="node">
<title>Node3</title>
<g id="a_node3"><a xlink:href="class_a_r_video_source.html#a3d4b14784d083ae76f43c8942cb9076b" target="_top" xlink:title="Checkin a locked video frame.">
<polygon fill="white" stroke="#666666" points="533.25,-105.25 380,-105.25 380,-86 533.25,-86 533.25,-105.25"/>
<text text-anchor="middle" x="456.62" y="-91.75" font-family="Helvetica,sans-Serif" font-size="10.00">ARVideoSource::checkinFrame</text>
</a>
</g>
</g>
<!-- Node2&#45;&gt;Node3 -->
<g id="edge2" class="edge">
<title>Node2&#45;&gt;Node3</title>
<path fill="none" stroke="#63b8ff" d="M331.06,-68.33C353.34,-73.21 377.59,-78.53 398.73,-83.16"/>
<polygon fill="#63b8ff" stroke="#63b8ff" points="397.95,-86.79 408.47,-85.51 399.45,-79.95 397.95,-86.79"/>
</g>
<!-- Node4 -->
<g id="node4" class="node">
<title>Node4</title>
<g id="a_node4"><a xlink:href="class_a_r_video_source.html#a0870e3e3099fe2bede89980bc89c5e70" target="_top" xlink:title="Checkout a locked video frame if the frame&#39;s timestamp is newer than &#39;time&#39;.">
<polygon fill="white" stroke="#666666" points="536.25,-67.88 377,-67.88 377,-37.38 536.25,-37.38 536.25,-67.88"/>
<text text-anchor="start" x="385" y="-54.38" font-family="Helvetica,sans-Serif" font-size="10.00">ARVideoSource::checkoutFrame</text>
<text text-anchor="middle" x="456.62" y="-43.12" font-family="Helvetica,sans-Serif" font-size="10.00">IfNewerThan</text>
</a>
</g>
</g>
<!-- Node2&#45;&gt;Node4 -->
<g id="edge3" class="edge">
<title>Node2&#45;&gt;Node4</title>
<path fill="none" stroke="#63b8ff" d="M341.47,-52.62C349.48,-52.62 357.64,-52.62 365.73,-52.62"/>
<polygon fill="#63b8ff" stroke="#63b8ff" points="365.69,-56.13 375.69,-52.62 365.69,-49.13 365.69,-56.13"/>
</g>
<!-- Node5 -->
<g id="node5" class="node">
<title>Node5</title>
<g id="a_node5"><a xlink:href="video_r_g_b_a_8c.html#a44cdba1bda6acc12b6705a03fae865b2" target="_top" xlink:title=" ">
<polygon fill="white" stroke="#666666" points="490.5,-19.25 422.75,-19.25 422.75,0 490.5,0 490.5,-19.25"/>
<text text-anchor="middle" x="456.62" y="-5.75" font-family="Helvetica,sans-Serif" font-size="10.00">videoRGBA</text>
</a>
</g>
</g>
<!-- Node2&#45;&gt;Node5 -->
<g id="edge4" class="edge">
<title>Node2&#45;&gt;Node5</title>
<path fill="none" stroke="#63b8ff" d="M331.06,-36.92C358.12,-30.99 388.08,-24.42 411.84,-19.22"/>
<polygon fill="#63b8ff" stroke="#63b8ff" points="412.26,-22.49 421.28,-16.93 410.76,-15.65 412.26,-22.49"/>
</g>
<!-- Node6 -->
<g id="node6" class="node">
<title>Node6</title>
<g id="a_node6"><a xlink:href="ar_util_8c.html#a97d737ba2827a9edfd10deefb3ce03b4" target="_top" xlink:title="Get the size in bytes of a single pixel for a given pixel format.">
<polygon fill="white" stroke="#666666" points="668.5,-19.25 572.25,-19.25 572.25,0 668.5,0 668.5,-19.25"/>
<text text-anchor="middle" x="620.38" y="-5.75" font-family="Helvetica,sans-Serif" font-size="10.00">arUtilGetPixelSize</text>
</a>
</g>
</g>
<!-- Node5&#45;&gt;Node6 -->
<g id="edge5" class="edge">
<title>Node5&#45;&gt;Node6</title>
<path fill="none" stroke="#63b8ff" d="M490.75,-9.62C510.93,-9.62 537.31,-9.62 560.91,-9.62"/>
<polygon fill="#63b8ff" stroke="#63b8ff" points="560.88,-13.13 570.88,-9.62 560.88,-6.13 560.88,-13.13"/>
</g>
</g>
</svg>
        <g id="navigator" transform="translate(0 0)" fill="#404254">
                <rect fill="#f2f5e9" fill-opacity="0.5" stroke="#606060" stroke-width=".5" x="0" y="0" width="60" height="60"/>
                <use id="zoomplus" xlink:href="#zoomPlus" x="17" y="9" onmousedown="handleZoom(evt,'in')"/>
                <use id="zoomminus" xlink:href="#zoomMin" x="42" y="9" onmousedown="handleZoom(evt,'out')"/>
                <use id="reset" xlink:href="#resetDef" x="30" y="36" onmousedown="handleReset()"/>
                <g id="arrowUp" xlink:href="#dirArrow" transform="translate(30 24)" onmousedown="handlePan(0,-1)">
                  <use xlink:href="#rim" fill="#404040">
                        <set attributeName="fill" to="#808080" begin="arrowUp.mouseover" end="arrowUp.mouseout"/>
                  </use>
                  <path fill="none" stroke="white" stroke-width="1.5" d="M0,-3.0v7 M-2.5,-0.5L0,-3.0L2.5,-0.5"/>
                </g>
                <g id="arrowRight" xlink:href="#dirArrow" transform="rotate(90) translate(36 -43)" onmousedown="handlePan(1,0)">
                  <use xlink:href="#rim" fill="#404040">
                        <set attributeName="fill" to="#808080" begin="arrowRight.mouseover" end="arrowRight.mouseout"/>
                  </use>
                  <path fill="none" stroke="white" stroke-width="1.5" d="M0,-3.0v7 M-2.5,-0.5L0,-3.0L2.5,-0.5"/>
                </g>
                <g id="arrowDown" xlink:href="#dirArrow" transform="rotate(180) translate(-30 -48)" onmousedown="handlePan(0,1)">
                  <use xlink:href="#rim" fill="#404040">
                        <set attributeName="fill" to="#808080" begin="arrowDown.mouseover" end="arrowDown.mouseout"/>
                  </use>
                  <path fill="none" stroke="white" stroke-width="1.5" d="M0,-3.0v7 M-2.5,-0.5L0,-3.0L2.5,-0.5"/>
                </g>
                <g id="arrowLeft" xlink:href="#dirArrow" transform="rotate(270) translate(-36 17)" onmousedown="handlePan(-1,0)">
                  <use xlink:href="#rim" fill="#404040">
                        <set attributeName="fill" to="#808080" begin="arrowLeft.mouseover" end="arrowLeft.mouseout"/>
                  </use>
                  <path fill="none" stroke="white" stroke-width="1.5" d="M0,-3.0v7 M-2.5,-0.5L0,-3.0L2.5,-0.5"/>
                </g>
        </g>
        <svg viewBox="0 0 15 15" width="100%" height="30px" preserveAspectRatio="xMaxYMin meet">
         <g id="arrow_out" transform="scale(0.3 0.3)">
          <a xlink:href="class_a_r_controller_ab05b850883a1f6cf4296c2430cff225f_cgraph_org.svg" target="_base">
           <rect id="button" ry="5" rx="5" y="6" x="6" height="38" width="38"
                fill="#f2f5e9" fill-opacity="0.5" stroke="#606060" stroke-width="1.0"/>
           <path id="arrow"
             d="M 11.500037,31.436501 C 11.940474,20.09759 22.043105,11.32322 32.158766,21.979434 L 37.068811,17.246167 C 37.068811,17.246167 37.088388,32 37.088388,32 L 22.160133,31.978069 C 22.160133,31.978069 26.997745,27.140456 26.997745,27.140456 C 18.528582,18.264221 13.291696,25.230495 11.500037,31.436501 z"
             style="fill:#404040;"/>
          </a>
         </g>
        </svg>
</svg>
