<?xml version="1.0" encoding="UTF-8" standalone="no"?>
<!DOCTYPE svg PUBLIC "-//W3C//DTD SVG 1.1//EN"
 "http://www.w3.org/Graphics/SVG/1.1/DTD/svg11.dtd">
<!-- Generated by graphviz version 2.40.1 (20161225.0304)
 -->
<!-- Title: ARTrackableMultiSquare::updateWithDetectedMarkers Pages: 1 -->
<!--zoomable 175 -->
<svg id="main" version="1.1" xmlns="http://www.w3.org/2000/svg" xmlns:xlink="http://www.w3.org/1999/xlink" xml:space="preserve" onload="init(evt)">
<style type="text/css"><![CDATA[
.edge:hover path { stroke: red; }
.edge:hover polygon { stroke: red; fill: red; }
]]></style>
<script type="text/javascript"><![CDATA[
var edges = document.getElementsByTagName('g');
if (edges && edges.length) {
  for (var i=0;i<edges.length;i++) {
    if (edges[i].id.substr(0,4)=='edge') {
      edges[i].setAttribute('class','edge');
    }
  }
}
]]></script>
        <defs>
                <circle id="rim" cx="0" cy="0" r="7"/>
                <circle id="rim2" cx="0" cy="0" r="3.5"/>
                <g id="zoomPlus">
                        <use xlink:href="#rim" fill="#404040">
                                <set attributeName="fill" to="#808080" begin="zoomplus.mouseover" end="zoomplus.mouseout"/>
                        </use>
                        <path d="M-4,0h8M0,-4v8" fill="none" stroke="white" stroke-width="1.5" pointer-events="none"/>
                </g>
                <g id="zoomMin">
                        <use xlink:href="#rim" fill="#404040">
                                <set attributeName="fill" to="#808080" begin="zoomminus.mouseover" end="zoomminus.mouseout"/>
                        </use>
                        <path d="M-4,0h8" fill="none" stroke="white" stroke-width="1.5" pointer-events="none"/>
                </g>
                <g id="dirArrow">
                        <path fill="none" stroke="white" stroke-width="1.5" d="M0,-3.0v7 M-2.5,-0.5L0,-3.0L2.5,-0.5"/>
                </g>
               <g id="resetDef">
                       <use xlink:href="#rim2" fill="#404040">
                               <set attributeName="fill" to="#808080" begin="reset.mouseover" end="reset.mouseout"/>
                       </use>
               </g>
        </defs>

<script type="text/javascript">
var viewWidth = 608;
var viewHeight = 175;
var sectionId = 'dynsection-5';
</script>
<script xlink:href="svgpan.js"/>
<svg id="graph" class="graph">
<g id="viewport">
<title>ARTrackableMultiSquare::updateWithDetectedMarkers</title>
<polygon fill="#ffffff" stroke="transparent" points="-4,4 -4,-171 603.9541,-171 603.9541,4 -4,4"/>
<!-- Node16 -->
<g id="node1" class="node">
<title>Node16</title>
<polygon fill="#bfbfbf" stroke="#000000" points="0,-87.5 0,-115.5 148.2803,-115.5 148.2803,-87.5 0,-87.5"/>
<text text-anchor="start" x="8" y="-103.5" font-family="Helvetica,sans-Serif" font-size="10.00" fill="#000000">ARTrackableMultiSquare</text>
<text text-anchor="middle" x="74.1401" y="-93.5" font-family="Helvetica,sans-Serif" font-size="10.00" fill="#000000">::updateWithDetectedMarkers</text>
</g>
<!-- Node17 -->
<g id="node2" class="node">
<title>Node17</title>
<g id="a_node2"><a xlink:href="ar_multi_get_trans_mat_8c.html#aa06dfa991e38d7352193ad8791c21e82" target="_top" xlink:title="arGetTransMatMultiSquare\lRobust">
<polygon fill="#ffffff" stroke="#000000" points="184.2803,-129.5 184.2803,-157.5 320.5146,-157.5 320.5146,-129.5 184.2803,-129.5"/>
<text text-anchor="start" x="192.2803" y="-145.5" font-family="Helvetica,sans-Serif" font-size="10.00" fill="#000000">arGetTransMatMultiSquare</text>
<text text-anchor="middle" x="252.3975" y="-135.5" font-family="Helvetica,sans-Serif" font-size="10.00" fill="#000000">Robust</text>
</a>
</g>
</g>
<!-- Node16&#45;&gt;Node17 -->
<g id="edge1" class="edge">
<title>Node16&#45;&gt;Node17</title>
<path fill="none" stroke="#191970" d="M133.9931,-115.6022C149.6562,-119.2927 166.6762,-123.3028 182.7995,-127.1017"/>
<polygon fill="#191970" stroke="#191970" points="182.1663,-130.5483 192.7024,-129.435 183.7717,-123.7348 182.1663,-130.5483"/>
</g>
<!-- Node18 -->
<g id="node3" class="node">
<title>Node18</title>
<g id="a_node3"><a xlink:href="ar_multi_get_trans_mat_8c.html#ab1dec17a3d938eb9c85be5c4b094db24" target="_top" xlink:title="arGetTransMatMultiSquare">
<polygon fill="#ffffff" stroke="#000000" points="184.2803,-92.5 184.2803,-110.5 320.5146,-110.5 320.5146,-92.5 184.2803,-92.5"/>
<text text-anchor="middle" x="252.3975" y="-98.5" font-family="Helvetica,sans-Serif" font-size="10.00" fill="#000000">arGetTransMatMultiSquare</text>
</a>
</g>
</g>
<!-- Node16&#45;&gt;Node18 -->
<g id="edge2" class="edge">
<title>Node16&#45;&gt;Node18</title>
<path fill="none" stroke="#191970" d="M148.4465,-101.5C156.8681,-101.5 165.4714,-101.5 173.9442,-101.5"/>
<polygon fill="#191970" stroke="#191970" points="174.1933,-105.0001 184.1933,-101.5 174.1932,-98.0001 174.1933,-105.0001"/>
</g>
<!-- Node19 -->
<g id="node4" class="node">
<title>Node19</title>
<g id="a_node4"><a xlink:href="class_a_r_trackable.html#a445a8894d99c98bc966ebff530d58278" target="_top" xlink:title="Completes an update begun in the parent class, performing filtering, generating OpenGL view matrix an...">
<polygon fill="#ffffff" stroke="#000000" points="197.6982,-55.5 197.6982,-73.5 307.0967,-73.5 307.0967,-55.5 197.6982,-55.5"/>
<text text-anchor="middle" x="252.3975" y="-61.5" font-family="Helvetica,sans-Serif" font-size="10.00" fill="#000000">ARTrackable::update</text>
</a>
</g>
</g>
<!-- Node16&#45;&gt;Node19 -->
<g id="edge3" class="edge">
<title>Node16&#45;&gt;Node19</title>
<path fill="none" stroke="#191970" d="M141.7858,-87.4591C160.6453,-83.5445 180.8696,-79.3467 198.7998,-75.625"/>
<polygon fill="#191970" stroke="#191970" points="199.7019,-79.0124 208.7819,-73.5531 198.2793,-72.1585 199.7019,-79.0124"/>
</g>
<!-- Node20 -->
<g id="node5" class="node">
<title>Node20</title>
<g id="a_node5"><a xlink:href="ar_filter_trans_mat_8c.html#a575d29079692c1af23b19f0477ee2123" target="_top" xlink:title="Filters the supplied pose estimate transformation matrix in&#45;place. ">
<polygon fill="#ffffff" stroke="#000000" points="365.5063,-111.5 365.5063,-129.5 454.4849,-129.5 454.4849,-111.5 365.5063,-111.5"/>
<text text-anchor="middle" x="409.9956" y="-117.5" font-family="Helvetica,sans-Serif" font-size="10.00" fill="#000000">arFilterTransMat</text>
</a>
</g>
</g>
<!-- Node19&#45;&gt;Node20 -->
<g id="edge4" class="edge">
<title>Node19&#45;&gt;Node20</title>
<path fill="none" stroke="#191970" d="M290.3497,-73.5404C300.3052,-76.3293 310.9329,-79.686 320.5146,-83.5 337.3237,-90.1907 339.8876,-95.3692 356.5146,-102.5 361.0052,-104.4258 365.776,-106.2845 370.5473,-108.0291"/>
<polygon fill="#191970" stroke="#191970" points="369.6575,-111.426 380.2524,-111.4347 371.9754,-104.8209 369.6575,-111.426"/>
</g>
<!-- Node24 -->
<g id="node9" class="node">
<title>Node24</title>
<g id="a_node9"><a xlink:href="param_g_l_8h.html#a417be19c9a53d64da33898a938d80944" target="_top" xlink:title="arglCameraViewRHf">
<polygon fill="#ffffff" stroke="#000000" points="356.5146,-74.5 356.5146,-92.5 463.4766,-92.5 463.4766,-74.5 356.5146,-74.5"/>
<text text-anchor="middle" x="409.9956" y="-80.5" font-family="Helvetica,sans-Serif" font-size="10.00" fill="#000000">arglCameraViewRHf</text>
</a>
</g>
</g>
<!-- Node19&#45;&gt;Node24 -->
<g id="edge8" class="edge">
<title>Node19&#45;&gt;Node24</title>
<path fill="none" stroke="#191970" d="M307.5176,-71.1453C320.0547,-72.6567 333.4734,-74.2745 346.3332,-75.8249"/>
<polygon fill="#191970" stroke="#191970" points="346.1521,-79.3283 356.4992,-77.0505 346.9901,-72.3786 346.1521,-79.3283"/>
</g>
<!-- Node25 -->
<g id="node10" class="node">
<title>Node25</title>
<g id="a_node10"><a xlink:href="param_g_l_8h.html#abb0e707a0812fc2c5bdbbaee6694a16f" target="_top" xlink:title="Create an OpenGL viewing transformation matrix. ">
<polygon fill="#ffffff" stroke="#000000" points="357.9038,-37.5 357.9038,-55.5 462.0874,-55.5 462.0874,-37.5 357.9038,-37.5"/>
<text text-anchor="middle" x="409.9956" y="-43.5" font-family="Helvetica,sans-Serif" font-size="10.00" fill="#000000">arglCameraViewRH</text>
</a>
</g>
</g>
<!-- Node19&#45;&gt;Node25 -->
<g id="edge9" class="edge">
<title>Node19&#45;&gt;Node25</title>
<path fill="none" stroke="#191970" d="M307.5176,-58.2045C320.5325,-56.718 334.4975,-55.123 347.801,-53.6035"/>
<polygon fill="#191970" stroke="#191970" points="348.2804,-57.0716 357.8186,-52.4594 347.486,-50.1168 348.2804,-57.0716"/>
</g>
<!-- Node26 -->
<g id="node11" class="node">
<title>Node26</title>
<g id="a_node11"><a xlink:href="ar_util_8c.html#ae28eeba3e16224a7d77b46bd34b8f4fe" target="_top" xlink:title="arUtilMatMul">
<polygon fill="#ffffff" stroke="#000000" points="373.9365,-.5 373.9365,-18.5 446.0547,-18.5 446.0547,-.5 373.9365,-.5"/>
<text text-anchor="middle" x="409.9956" y="-6.5" font-family="Helvetica,sans-Serif" font-size="10.00" fill="#000000">arUtilMatMul</text>
</a>
</g>
</g>
<!-- Node19&#45;&gt;Node26 -->
<g id="edge10" class="edge">
<title>Node19&#45;&gt;Node26</title>
<path fill="none" stroke="#191970" d="M277.6026,-55.4094C298.6631,-47.8458 329.5022,-36.8447 356.5146,-27.5 361.8382,-25.6584 367.4684,-23.7359 372.9989,-21.8619"/>
<polygon fill="#191970" stroke="#191970" points="374.4022,-25.0824 382.7584,-18.5689 372.1642,-18.4497 374.4022,-25.0824"/>
</g>
<!-- Node21 -->
<g id="node6" class="node">
<title>Node21</title>
<g id="a_node6"><a xlink:href="ar_util_8c.html#adb4a9f8d233d3b954fd85bbb3deda173" target="_top" xlink:title="arUtilMat2QuatPos">
<polygon fill="#ffffff" stroke="#000000" points="499.4766,-148.5 499.4766,-166.5 599.9541,-166.5 599.9541,-148.5 499.4766,-148.5"/>
<text text-anchor="middle" x="549.7153" y="-154.5" font-family="Helvetica,sans-Serif" font-size="10.00" fill="#000000">arUtilMat2QuatPos</text>
</a>
</g>
</g>
<!-- Node20&#45;&gt;Node21 -->
<g id="edge5" class="edge">
<title>Node20&#45;&gt;Node21</title>
<path fill="none" stroke="#191970" d="M444.1749,-129.5512C462.697,-134.4562 485.7933,-140.5724 505.6534,-145.8317"/>
<polygon fill="#191970" stroke="#191970" points="504.8419,-149.2374 515.4047,-148.414 506.6339,-142.4706 504.8419,-149.2374"/>
</g>
<!-- Node22 -->
<g id="node7" class="node">
<title>Node22</title>
<g id="a_node7"><a xlink:href="ar_util_8c.html#aa543b10d8b401ccf5626aba7dfa12e09" target="_top" xlink:title="arUtilQuatNorm">
<polygon fill="#ffffff" stroke="#000000" points="506.9863,-111.5 506.9863,-129.5 592.4443,-129.5 592.4443,-111.5 506.9863,-111.5"/>
<text text-anchor="middle" x="549.7153" y="-117.5" font-family="Helvetica,sans-Serif" font-size="10.00" fill="#000000">arUtilQuatNorm</text>
</a>
</g>
</g>
<!-- Node20&#45;&gt;Node22 -->
<g id="edge6" class="edge">
<title>Node20&#45;&gt;Node22</title>
<path fill="none" stroke="#191970" d="M454.5879,-120.5C467.9526,-120.5 482.743,-120.5 496.5996,-120.5"/>
<polygon fill="#191970" stroke="#191970" points="496.9747,-124.0001 506.9747,-120.5 496.9746,-117.0001 496.9747,-124.0001"/>
</g>
<!-- Node23 -->
<g id="node8" class="node">
<title>Node23</title>
<g id="a_node8"><a xlink:href="ar_util_8c.html#a016bf9cc45eee7cd9eae471cecc68e9a" target="_top" xlink:title="arUtilQuatPos2Mat">
<polygon fill="#ffffff" stroke="#000000" points="499.4766,-74.5 499.4766,-92.5 599.9541,-92.5 599.9541,-74.5 499.4766,-74.5"/>
<text text-anchor="middle" x="549.7153" y="-80.5" font-family="Helvetica,sans-Serif" font-size="10.00" fill="#000000">arUtilQuatPos2Mat</text>
</a>
</g>
</g>
<!-- Node20&#45;&gt;Node23 -->
<g id="edge7" class="edge">
<title>Node20&#45;&gt;Node23</title>
<path fill="none" stroke="#191970" d="M444.1749,-111.4488C462.697,-106.5438 485.7933,-100.4276 505.6534,-95.1683"/>
<polygon fill="#191970" stroke="#191970" points="506.6339,-98.5294 515.4047,-92.586 504.8419,-91.7626 506.6339,-98.5294"/>
</g>
</g>
</svg>
        <g id="navigator" transform="translate(0 0)" fill="#404254">
                <rect fill="#f2f5e9" fill-opacity="0.5" stroke="#606060" stroke-width=".5" x="0" y="0" width="60" height="60"/>
                <use id="zoomplus" xlink:href="#zoomPlus" x="17" y="9" onmousedown="handleZoom(evt,'in')"/>
                <use id="zoomminus" xlink:href="#zoomMin" x="42" y="9" onmousedown="handleZoom(evt,'out')"/>
                <use id="reset" xlink:href="#resetDef" x="30" y="36" onmousedown="handleReset()"/>
                <g id="arrowUp" xlink:href="#dirArrow" transform="translate(30 24)" onmousedown="handlePan(0,-1)">
                  <use xlink:href="#rim" fill="#404040">
                        <set attributeName="fill" to="#808080" begin="arrowUp.mouseover" end="arrowUp.mouseout"/>
                  </use>
                  <path fill="none" stroke="white" stroke-width="1.5" d="M0,-3.0v7 M-2.5,-0.5L0,-3.0L2.5,-0.5"/>
                </g>
                <g id="arrowRight" xlink:href="#dirArrow" transform="rotate(90) translate(36 -43)" onmousedown="handlePan(1,0)">
                  <use xlink:href="#rim" fill="#404040">
                        <set attributeName="fill" to="#808080" begin="arrowRight.mouseover" end="arrowRight.mouseout"/>
                  </use>
                  <path fill="none" stroke="white" stroke-width="1.5" d="M0,-3.0v7 M-2.5,-0.5L0,-3.0L2.5,-0.5"/>
                </g>
                <g id="arrowDown" xlink:href="#dirArrow" transform="rotate(180) translate(-30 -48)" onmousedown="handlePan(0,1)">
                  <use xlink:href="#rim" fill="#404040">
                        <set attributeName="fill" to="#808080" begin="arrowDown.mouseover" end="arrowDown.mouseout"/>
                  </use>
                  <path fill="none" stroke="white" stroke-width="1.5" d="M0,-3.0v7 M-2.5,-0.5L0,-3.0L2.5,-0.5"/>
                </g>
                <g id="arrowLeft" xlink:href="#dirArrow" transform="rotate(270) translate(-36 17)" onmousedown="handlePan(-1,0)">
                  <use xlink:href="#rim" fill="#404040">
                        <set attributeName="fill" to="#808080" begin="arrowLeft.mouseover" end="arrowLeft.mouseout"/>
                  </use>
                  <path fill="none" stroke="white" stroke-width="1.5" d="M0,-3.0v7 M-2.5,-0.5L0,-3.0L2.5,-0.5"/>
                </g>
        </g>
        <svg viewBox="0 0 15 15" width="100%" height="30px" preserveAspectRatio="xMaxYMin meet">
         <g id="arrow_out" transform="scale(0.3 0.3)">
          <a xlink:href="class_a_r_trackable_multi_square_a639cf0dac8ba5eed2b0556ad71ea1b2b_cgraph_org.svg" target="_base">
           <rect id="button" ry="5" rx="5" y="6" x="6" height="38" width="38"
                fill="#f2f5e9" fill-opacity="0.5" stroke="#606060" stroke-width="1.0"/>
           <path id="arrow"
             d="M 11.500037,31.436501 C 11.940474,20.09759 22.043105,11.32322 32.158766,21.979434 L 37.068811,17.246167 C 37.068811,17.246167 37.088388,32 37.088388,32 L 22.160133,31.978069 C 22.160133,31.978069 26.997745,27.140456 26.997745,27.140456 C 18.528582,18.264221 13.291696,25.230495 11.500037,31.436501 z"
             style="fill:#404040;"/>
          </a>
         </g>
        </svg>
</svg>
