<?xml version="1.0" encoding="UTF-8" standalone="no"?>
<!DOCTYPE svg PUBLIC "-//W3C//DTD SVG 1.1//EN"
 "http://www.w3.org/Graphics/SVG/1.1/DTD/svg11.dtd">
<!-- Generated by graphviz version 8.0.5 (20230430.1635)
 -->
<!-- Title: ARController::drawVideoSettings Pages: 1 -->
<svg width="530pt" height="273pt"
 viewBox="0.00 0.00 530.00 272.88" xmlns="http://www.w3.org/2000/svg" xmlns:xlink="http://www.w3.org/1999/xlink">
<g id="graph0" class="graph" transform="scale(1 1) rotate(0) translate(4 268.88)">
<title>ARController::drawVideoSettings</title>
<!-- Node1 -->
<g id="node1" class="node">
<title>Node1</title>
<g id="a_node1"><a xlink:title=" ">
<polygon fill="#999999" stroke="#666666" points="160,-147.88 0,-147.88 0,-128.62 160,-128.62 160,-147.88"/>
<text text-anchor="middle" x="80" y="-134.38" font-family="Helvetica,sans-Serif" font-size="10.00">ARController::drawVideoSettings</text>
</a>
</g>
</g>
<!-- Node2 -->
<g id="node2" class="node">
<title>Node2</title>
<g id="a_node2"><a xlink:href="class_a_r_video_view.html#adca8d189a9a553d88632db91b9469bfa" target="_top" xlink:title=" ">
<polygon fill="white" stroke="#666666" points="339.5,-264.88 205,-264.88 205,-245.62 339.5,-245.62 339.5,-264.88"/>
<text text-anchor="middle" x="272.25" y="-251.38" font-family="Helvetica,sans-Serif" font-size="10.00">ARVideoView::getViewport</text>
</a>
</g>
</g>
<!-- Node1&#45;&gt;Node2 -->
<g id="edge1" class="edge">
<title>Node1&#45;&gt;Node2</title>
<path fill="none" stroke="#63b8ff" d="M89.41,-148.14C107.04,-168.2 150.03,-213.74 196,-237.25 199.11,-238.84 202.36,-240.29 205.7,-241.62"/>
<polygon fill="#63b8ff" stroke="#63b8ff" points="204.31,-245.19 214.9,-245.24 206.64,-238.6 204.31,-245.19"/>
</g>
<!-- Node3 -->
<g id="node3" class="node">
<title>Node3</title>
<g id="a_node3"><a xlink:href="class_a_r_video_view.html#a128378e1e100251aa48159f50484dc79" target="_top" xlink:title=" ">
<polygon fill="white" stroke="#666666" points="332,-227.88 212.5,-227.88 212.5,-208.62 332,-208.62 332,-227.88"/>
<text text-anchor="middle" x="272.25" y="-214.38" font-family="Helvetica,sans-Serif" font-size="10.00">ARVideoView::setFlipH</text>
</a>
</g>
</g>
<!-- Node1&#45;&gt;Node3 -->
<g id="edge2" class="edge">
<title>Node1&#45;&gt;Node3</title>
<path fill="none" stroke="#63b8ff" d="M96.38,-148.23C117.88,-161.78 158.49,-185.93 196,-200.25 200.69,-202.04 205.62,-203.69 210.62,-205.21"/>
<polygon fill="#63b8ff" stroke="#63b8ff" points="209.33,-208.77 219.91,-208.13 211.24,-202.03 209.33,-208.77"/>
</g>
<!-- Node5 -->
<g id="node5" class="node">
<title>Node5</title>
<g id="a_node5"><a xlink:href="class_a_r_video_view.html#a4af1fe48c71a10461d23d71ced32ee12" target="_top" xlink:title=" ">
<polygon fill="white" stroke="#666666" points="331.62,-190.88 212.88,-190.88 212.88,-171.62 331.62,-171.62 331.62,-190.88"/>
<text text-anchor="middle" x="272.25" y="-177.38" font-family="Helvetica,sans-Serif" font-size="10.00">ARVideoView::setFlipV</text>
</a>
</g>
</g>
<!-- Node1&#45;&gt;Node5 -->
<g id="edge4" class="edge">
<title>Node1&#45;&gt;Node5</title>
<path fill="none" stroke="#63b8ff" d="M125.61,-148.33C152.58,-154.43 187.19,-162.25 215.91,-168.74"/>
<polygon fill="#63b8ff" stroke="#63b8ff" points="215.07,-172.37 225.6,-171.16 216.61,-165.54 215.07,-172.37"/>
</g>
<!-- Node7 -->
<g id="node7" class="node">
<title>Node7</title>
<g id="a_node7"><a xlink:href="class_a_r_video_view.html#a4ff9d2658138c241024c96e47e91ef99" target="_top" xlink:title=" ">
<polygon fill="white" stroke="#666666" points="342.5,-153.5 202,-153.5 202,-123 342.5,-123 342.5,-153.5"/>
<text text-anchor="start" x="210" y="-140" font-family="Helvetica,sans-Serif" font-size="10.00">ARVideoView::setHorizontal</text>
<text text-anchor="middle" x="272.25" y="-128.75" font-family="Helvetica,sans-Serif" font-size="10.00">Alignment</text>
</a>
</g>
</g>
<!-- Node1&#45;&gt;Node7 -->
<g id="edge6" class="edge">
<title>Node1&#45;&gt;Node7</title>
<path fill="none" stroke="#63b8ff" d="M160.31,-138.25C170.41,-138.25 180.77,-138.25 190.89,-138.25"/>
<polygon fill="#63b8ff" stroke="#63b8ff" points="190.77,-141.75 200.77,-138.25 190.77,-134.75 190.77,-141.75"/>
</g>
<!-- Node8 -->
<g id="node8" class="node">
<title>Node8</title>
<g id="a_node8"><a xlink:href="class_a_r_video_view.html#a25ffd610597c483020fd7e88e653fb78" target="_top" xlink:title=" ">
<polygon fill="white" stroke="#666666" points="340.25,-104.88 204.25,-104.88 204.25,-85.62 340.25,-85.62 340.25,-104.88"/>
<text text-anchor="middle" x="272.25" y="-91.38" font-family="Helvetica,sans-Serif" font-size="10.00">ARVideoView::setRotate90</text>
</a>
</g>
</g>
<!-- Node1&#45;&gt;Node8 -->
<g id="edge7" class="edge">
<title>Node1&#45;&gt;Node8</title>
<path fill="none" stroke="#63b8ff" d="M125.61,-128.17C152.58,-122.07 187.19,-114.25 215.91,-107.76"/>
<polygon fill="#63b8ff" stroke="#63b8ff" points="216.61,-110.96 225.6,-105.34 215.07,-104.13 216.61,-110.96"/>
</g>
<!-- Node10 -->
<g id="node10" class="node">
<title>Node10</title>
<g id="a_node10"><a xlink:href="class_a_r_video_view.html#a9fb6a17252b27a30a90906f3cb6b855c" target="_top" xlink:title=" ">
<polygon fill="white" stroke="#666666" points="348.5,-67.88 196,-67.88 196,-48.62 348.5,-48.62 348.5,-67.88"/>
<text text-anchor="middle" x="272.25" y="-54.38" font-family="Helvetica,sans-Serif" font-size="10.00">ARVideoView::setScalingMode</text>
</a>
</g>
</g>
<!-- Node1&#45;&gt;Node10 -->
<g id="edge9" class="edge">
<title>Node1&#45;&gt;Node10</title>
<path fill="none" stroke="#63b8ff" d="M96.38,-128.27C117.88,-114.72 158.49,-90.57 196,-76.25 200.69,-74.46 205.62,-72.81 210.62,-71.29"/>
<polygon fill="#63b8ff" stroke="#63b8ff" points="211.24,-74.47 219.91,-68.37 209.33,-67.73 211.24,-74.47"/>
</g>
<!-- Node12 -->
<g id="node12" class="node">
<title>Node12</title>
<g id="a_node12"><a xlink:href="class_a_r_video_view.html#a7f3b8d64e4ae7fe284a6b8894deb859e" target="_top" xlink:title=" ">
<polygon fill="white" stroke="#666666" points="336.88,-30.5 207.62,-30.5 207.62,0 336.88,0 336.88,-30.5"/>
<text text-anchor="start" x="215.62" y="-17" font-family="Helvetica,sans-Serif" font-size="10.00">ARVideoView::setVertical</text>
<text text-anchor="middle" x="272.25" y="-5.75" font-family="Helvetica,sans-Serif" font-size="10.00">Alignment</text>
</a>
</g>
</g>
<!-- Node1&#45;&gt;Node12 -->
<g id="edge11" class="edge">
<title>Node1&#45;&gt;Node12</title>
<path fill="none" stroke="#63b8ff" d="M89.84,-128.34C107.91,-108.64 151.16,-64.32 196,-39.25 198.41,-37.9 200.9,-36.62 203.46,-35.4"/>
<polygon fill="#63b8ff" stroke="#63b8ff" points="204.77,-38.21 212.53,-30.99 201.97,-31.79 204.77,-38.21"/>
</g>
<!-- Node4 -->
<g id="node4" class="node">
<title>Node4</title>
<g id="a_node4"><a xlink:href="class_a_r_video_view.html#a34d5b337ce0eec2744d73169b2e26211" target="_top" xlink:title="窶好efaults to false.">
<polygon fill="white" stroke="#666666" points="504.75,-227.88 401.75,-227.88 401.75,-208.62 504.75,-208.62 504.75,-227.88"/>
<text text-anchor="middle" x="453.25" y="-214.38" font-family="Helvetica,sans-Serif" font-size="10.00">ARVideoView::flipH</text>
</a>
</g>
</g>
<!-- Node3&#45;&gt;Node4 -->
<g id="edge3" class="edge">
<title>Node3&#45;&gt;Node4</title>
<path fill="none" stroke="#63b8ff" d="M332.36,-218.25C351,-218.25 371.64,-218.25 390.46,-218.25"/>
<polygon fill="#63b8ff" stroke="#63b8ff" points="390.31,-221.75 400.31,-218.25 390.31,-214.75 390.31,-221.75"/>
</g>
<!-- Node6 -->
<g id="node6" class="node">
<title>Node6</title>
<g id="a_node6"><a xlink:href="class_a_r_video_view.html#a92fd6ecb873b76246736c8dbc42c18d1" target="_top" xlink:title="窶好efaults to false.">
<polygon fill="white" stroke="#666666" points="504.38,-190.88 402.12,-190.88 402.12,-171.62 504.38,-171.62 504.38,-190.88"/>
<text text-anchor="middle" x="453.25" y="-177.38" font-family="Helvetica,sans-Serif" font-size="10.00">ARVideoView::flipV</text>
</a>
</g>
</g>
<!-- Node5&#45;&gt;Node6 -->
<g id="edge5" class="edge">
<title>Node5&#45;&gt;Node6</title>
<path fill="none" stroke="#63b8ff" d="M331.86,-181.25C350.7,-181.25 371.61,-181.25 390.66,-181.25"/>
<polygon fill="#63b8ff" stroke="#63b8ff" points="390.63,-184.75 400.63,-181.25 390.62,-177.75 390.63,-184.75"/>
</g>
<!-- Node9 -->
<g id="node9" class="node">
<title>Node9</title>
<g id="a_node9"><a xlink:href="class_a_r_video_view.html#a1fd2ef182b3414370cafb069885c92c7" target="_top" xlink:title="窶好efaults to true.">
<polygon fill="white" stroke="#666666" points="512.25,-104.88 394.25,-104.88 394.25,-85.62 512.25,-85.62 512.25,-104.88"/>
<text text-anchor="middle" x="453.25" y="-91.38" font-family="Helvetica,sans-Serif" font-size="10.00">ARVideoView::rotate90</text>
</a>
</g>
</g>
<!-- Node8&#45;&gt;Node9 -->
<g id="edge8" class="edge">
<title>Node8&#45;&gt;Node9</title>
<path fill="none" stroke="#63b8ff" d="M340.67,-95.25C354.51,-95.25 369.1,-95.25 383.01,-95.25"/>
<polygon fill="#63b8ff" stroke="#63b8ff" points="382.98,-98.75 392.98,-95.25 382.98,-91.75 382.98,-98.75"/>
</g>
<!-- Node11 -->
<g id="node11" class="node">
<title>Node11</title>
<g id="a_node11"><a xlink:href="class_a_r_video_view.html#a960dbd5de44993d4453a5bdf6737c5d0" target="_top" xlink:title="窶好efaults to V_ALIGN_CENTRE.">
<polygon fill="white" stroke="#666666" points="522,-67.88 384.5,-67.88 384.5,-48.62 522,-48.62 522,-67.88"/>
<text text-anchor="middle" x="453.25" y="-54.38" font-family="Helvetica,sans-Serif" font-size="10.00">ARVideoView::scalingMode</text>
</a>
</g>
</g>
<!-- Node10&#45;&gt;Node11 -->
<g id="edge10" class="edge">
<title>Node10&#45;&gt;Node11</title>
<path fill="none" stroke="#63b8ff" d="M348.9,-58.25C356.97,-58.25 365.19,-58.25 373.3,-58.25"/>
<polygon fill="#63b8ff" stroke="#63b8ff" points="373.25,-61.75 383.25,-58.25 373.25,-54.75 373.25,-61.75"/>
</g>
</g>
</svg>
