<?xml version="1.0" encoding="UTF-8" standalone="no"?>
<!DOCTYPE svg PUBLIC "-//W3C//DTD SVG 1.1//EN"
 "http://www.w3.org/Graphics/SVG/1.1/DTD/svg11.dtd">
<!-- Generated by graphviz version 2.40.1 (20161225.0304)
 -->
<!-- Title: ARController::update Pages: 1 -->
<svg width="315pt" height="232pt"
 viewBox="0.00 0.00 314.66 232.00" xmlns="http://www.w3.org/2000/svg" xmlns:xlink="http://www.w3.org/1999/xlink">
<g id="graph0" class="graph" transform="scale(1 1) rotate(0) translate(4 228)">
<title>ARController::update</title>
<polygon fill="#ffffff" stroke="transparent" points="-4,4 -4,-228 310.6572,-228 310.6572,4 -4,4"/>
<!-- Node112 -->
<g id="node1" class="node">
<title>Node112</title>
<polygon fill="#bfbfbf" stroke="#000000" points="0,-105.5 0,-123.5 109.3838,-123.5 109.3838,-105.5 0,-105.5"/>
<text text-anchor="middle" x="54.6919" y="-111.5" font-family="Helvetica,sans-Serif" font-size="10.00" fill="#000000">ARController::update</text>
</g>
<!-- Node113 -->
<g id="node2" class="node">
<title>Node113</title>
<g id="a_node2"><a xlink:href="class_a_r_video_source.html#a1e884eb3148cf3f996be7e7a0e79b546" target="_top" xlink:title="Returns true if the video source is open. ">
<polygon fill="#ffffff" stroke="#000000" points="163.9995,-205.5 163.9995,-223.5 288.0415,-223.5 288.0415,-205.5 163.9995,-205.5"/>
<text text-anchor="middle" x="226.0205" y="-211.5" font-family="Helvetica,sans-Serif" font-size="10.00" fill="#000000">ARVideoSource::isOpen</text>
</a>
</g>
</g>
<!-- Node112&#45;&gt;Node113 -->
<g id="edge1" class="edge">
<title>Node112&#45;&gt;Node113</title>
<path fill="none" stroke="#191970" d="M61.8549,-123.5343C75.9272,-140.6292 108.996,-177.6778 145.3838,-196.5 149.62,-198.6912 154.1161,-200.6169 158.7331,-202.3091"/>
<polygon fill="#191970" stroke="#191970" points="157.7425,-205.6676 168.3354,-205.4647 159.9279,-199.0175 157.7425,-205.6676"/>
</g>
<!-- Node114 -->
<g id="node3" class="node">
<title>Node114</title>
<g id="a_node3"><a xlink:href="class_a_r_video_source.html#adcdfb6d6fcf844c7578bec2b3f978108" target="_top" xlink:title="Returns true if the video source is open and ready to be queried. ">
<polygon fill="#ffffff" stroke="#000000" points="157.6055,-168.5 157.6055,-186.5 294.4355,-186.5 294.4355,-168.5 157.6055,-168.5"/>
<text text-anchor="middle" x="226.0205" y="-174.5" font-family="Helvetica,sans-Serif" font-size="10.00" fill="#000000">ARVideoSource::isRunning</text>
</a>
</g>
</g>
<!-- Node112&#45;&gt;Node114 -->
<g id="edge2" class="edge">
<title>Node112&#45;&gt;Node114</title>
<path fill="none" stroke="#191970" d="M70.239,-123.6658C87.9102,-133.7351 117.8776,-149.7667 145.3838,-159.5 152.1703,-161.9015 159.3951,-164.0531 166.6254,-165.9607"/>
<polygon fill="#191970" stroke="#191970" points="165.8979,-169.3864 176.4478,-168.4111 167.5923,-162.5945 165.8979,-169.3864"/>
</g>
<!-- Node115 -->
<g id="node4" class="node">
<title>Node115</title>
<g id="a_node4"><a xlink:href="class_a_r_video_source.html#a0870e3e3099fe2bede89980bc89c5e70" target="_top" xlink:title="Checkout a locked video frame if the frame&#39;s timestamp is newer than &#39;time&#39;. ">
<polygon fill="#ffffff" stroke="#000000" points="145.3838,-121.5 145.3838,-149.5 306.6572,-149.5 306.6572,-121.5 145.3838,-121.5"/>
<text text-anchor="start" x="153.3838" y="-137.5" font-family="Helvetica,sans-Serif" font-size="10.00" fill="#000000">ARVideoSource::checkoutFrame</text>
<text text-anchor="middle" x="226.0205" y="-127.5" font-family="Helvetica,sans-Serif" font-size="10.00" fill="#000000">IfNewerThan</text>
</a>
</g>
</g>
<!-- Node112&#45;&gt;Node115 -->
<g id="edge3" class="edge">
<title>Node112&#45;&gt;Node115</title>
<path fill="none" stroke="#191970" d="M109.8444,-121.2601C117.93,-122.2512 126.4328,-123.2934 135.0073,-124.3444"/>
<polygon fill="#191970" stroke="#191970" points="134.7337,-127.8369 145.0852,-125.5796 135.5854,-120.8889 134.7337,-127.8369"/>
</g>
<!-- Node116 -->
<g id="node5" class="node">
<title>Node116</title>
<g id="a_node5"><a xlink:href="class_a_r_video_source.html#a3d4b14784d083ae76f43c8942cb9076b" target="_top" xlink:title="Checkin a locked video frame. ">
<polygon fill="#ffffff" stroke="#000000" points="148.4429,-84.5 148.4429,-102.5 303.5981,-102.5 303.5981,-84.5 148.4429,-84.5"/>
<text text-anchor="middle" x="226.0205" y="-90.5" font-family="Helvetica,sans-Serif" font-size="10.00" fill="#000000">ARVideoSource::checkinFrame</text>
</a>
</g>
</g>
<!-- Node112&#45;&gt;Node116 -->
<g id="edge4" class="edge">
<title>Node112&#45;&gt;Node116</title>
<path fill="none" stroke="#191970" d="M109.8444,-107.7399C120.2548,-106.4639 131.3567,-105.1031 142.413,-103.7479"/>
<polygon fill="#191970" stroke="#191970" points="143.0328,-107.1982 152.5326,-102.5075 142.1811,-100.2502 143.0328,-107.1982"/>
</g>
<!-- Node117 -->
<g id="node6" class="node">
<title>Node117</title>
<g id="a_node6"><a xlink:href="class_a_r_video_source.html#a5feeb630d5706513ba1d48ba7dcd2c31" target="_top" xlink:title="Returns the camera parameters for the video source. ">
<polygon fill="#ffffff" stroke="#000000" points="155.1079,-37.5 155.1079,-65.5 296.9331,-65.5 296.9331,-37.5 155.1079,-37.5"/>
<text text-anchor="start" x="163.1079" y="-53.5" font-family="Helvetica,sans-Serif" font-size="10.00" fill="#000000">ARVideoSource::getCamera</text>
<text text-anchor="middle" x="226.0205" y="-43.5" font-family="Helvetica,sans-Serif" font-size="10.00" fill="#000000">Parameters</text>
</a>
</g>
</g>
<!-- Node112&#45;&gt;Node117 -->
<g id="edge5" class="edge">
<title>Node112&#45;&gt;Node117</title>
<path fill="none" stroke="#191970" d="M73.8891,-105.4668C92.068,-97.0997 120.2466,-84.6104 145.3838,-75.5 151.8422,-73.1593 158.6493,-70.8686 165.4588,-68.6885"/>
<polygon fill="#191970" stroke="#191970" points="166.8975,-71.9059 175.3971,-65.5807 164.8082,-65.2249 166.8975,-71.9059"/>
</g>
<!-- Node118 -->
<g id="node7" class="node">
<title>Node118</title>
<g id="a_node7"><a xlink:href="class_a_r_video_source.html#a4328e4435cfcff995216fb77ddb93619" target="_top" xlink:title="Returns the pixel format of the video. ">
<polygon fill="#ffffff" stroke="#000000" points="146.2188,-.5 146.2188,-18.5 305.8223,-18.5 305.8223,-.5 146.2188,-.5"/>
<text text-anchor="middle" x="226.0205" y="-6.5" font-family="Helvetica,sans-Serif" font-size="10.00" fill="#000000">ARVideoSource::getPixelFormat</text>
</a>
</g>
</g>
<!-- Node112&#45;&gt;Node118 -->
<g id="edge6" class="edge">
<title>Node112&#45;&gt;Node118</title>
<path fill="none" stroke="#191970" d="M61.5561,-105.3299C75.36,-87.5762 108.3438,-48.5013 145.3838,-28.5 150.2087,-25.8946 155.385,-23.6438 160.7009,-21.6998"/>
<polygon fill="#191970" stroke="#191970" points="161.9667,-24.968 170.3746,-18.5216 159.7818,-18.3177 161.9667,-24.968"/>
</g>
</g>
</svg>
