<?xml version="1.0" encoding="UTF-8" standalone="no"?>
<!DOCTYPE svg PUBLIC "-//W3C//DTD SVG 1.1//EN"
 "http://www.w3.org/Graphics/SVG/1.1/DTD/svg11.dtd">
<!-- Generated by graphviz version 7.0.5 (20221223.1930)
 -->
<!-- Title: ARTrackerSquare::start Pages: 1 -->
<svg width="641pt" height="516pt"
 viewBox="0.00 0.00 641.00 516.00" xmlns="http://www.w3.org/2000/svg" xmlns:xlink="http://www.w3.org/1999/xlink">
<g id="graph0" class="graph" transform="scale(1 1) rotate(0) translate(4 512)">
<title>ARTrackerSquare::start</title>
<!-- Node1 -->
<g id="node1" class="node">
<title>Node1</title>
<g id="a_node1"><a xlink:title=" ">
<polygon fill="#999999" stroke="#666666" points="120,-259 0,-259 0,-240 120,-240 120,-259"/>
<text text-anchor="middle" x="60" y="-247" font-family="Helvetica,sans-Serif" font-size="10.00">ARTrackerSquare::start</text>
</a>
</g>
</g>
<!-- Node2 -->
<g id="node2" class="node">
<title>Node2</title>
<g id="a_node2"><a xlink:href="ar3_d_create_handle_8c.html#a069422274c912080a50e49fb9ef75a7b" target="_top" xlink:title="Create handle used for 3D calculation from calibrated camera parameters.">
<polygon fill="white" stroke="#666666" points="273.5,-508 175.5,-508 175.5,-489 273.5,-489 273.5,-508"/>
<text text-anchor="middle" x="224.5" y="-496" font-family="Helvetica,sans-Serif" font-size="10.00">ar3DCreateHandle</text>
</a>
</g>
</g>
<!-- Node1&#45;&gt;Node2 -->
<g id="edge1" class="edge">
<title>Node1&#45;&gt;Node2</title>
<path fill="none" stroke="#63b8ff" d="M61.96,-259.14C66.02,-294.47 84.97,-418.12 156,-480.5 158.65,-482.83 161.57,-484.86 164.66,-486.63"/>
<polygon fill="#63b8ff" stroke="#63b8ff" points="163.09,-489.76 173.63,-490.81 166.04,-483.41 163.09,-489.76"/>
</g>
<!-- Node5 -->
<g id="node5" class="node">
<title>Node5</title>
<g id="a_node5"><a xlink:href="ar3_d_create_handle_8c.html#a52dff553e3bb96fb199cf50105c16218" target="_top" xlink:title=" ">
<polygon fill="white" stroke="#666666" points="287.5,-471 161.5,-471 161.5,-452 287.5,-452 287.5,-471"/>
<text text-anchor="middle" x="224.5" y="-459" font-family="Helvetica,sans-Serif" font-size="10.00">ar3DStereoCreateHandle</text>
</a>
</g>
</g>
<!-- Node1&#45;&gt;Node5 -->
<g id="edge4" class="edge">
<title>Node1&#45;&gt;Node5</title>
<path fill="none" stroke="#63b8ff" d="M63.24,-259.19C70.78,-289.71 98.08,-384.91 156,-436.5 160.61,-440.6 165.95,-444.06 171.57,-446.95"/>
<polygon fill="#63b8ff" stroke="#63b8ff" points="169.95,-450.06 180.51,-450.97 172.82,-443.68 169.95,-450.06"/>
</g>
<!-- Node8 -->
<g id="node8" class="node">
<title>Node8</title>
<g id="a_node8"><a xlink:href="ar_create_handle_8c.html#affb342f5fad6b46ea09fd4c8befda607" target="_top" xlink:title="Create a handle to hold settings for an artoolkitX tracker instance.">
<polygon fill="white" stroke="#666666" points="267,-392 182,-392 182,-373 267,-373 267,-392"/>
<text text-anchor="middle" x="224.5" y="-380" font-family="Helvetica,sans-Serif" font-size="10.00">arCreateHandle</text>
</a>
</g>
</g>
<!-- Node1&#45;&gt;Node8 -->
<g id="edge7" class="edge">
<title>Node1&#45;&gt;Node8</title>
<path fill="none" stroke="#63b8ff" d="M67.09,-259.44C80.55,-280.62 114.92,-330.53 156,-358.5 161.53,-362.27 167.72,-365.51 174.05,-368.28"/>
<polygon fill="#63b8ff" stroke="#63b8ff" points="172.74,-371.53 183.32,-371.96 175.31,-365.02 172.74,-371.53"/>
</g>
<!-- Node9 -->
<g id="node9" class="node">
<title>Node9</title>
<g id="a_node9"><a xlink:href="ar_create_handle_8c.html#a01258051f513f5c2760136479c9a2052" target="_top" xlink:title="Enable or disable artoolkitX&#39;s debug mode.">
<polygon fill="white" stroke="#666666" points="450,-434 358,-434 358,-415 450,-415 450,-434"/>
<text text-anchor="middle" x="404" y="-422" font-family="Helvetica,sans-Serif" font-size="10.00">arSetDebugMode</text>
</a>
</g>
</g>
<!-- Node1&#45;&gt;Node9 -->
<g id="edge16" class="edge">
<title>Node1&#45;&gt;Node9</title>
<path fill="none" stroke="#63b8ff" d="M63.71,-259.14C72.08,-286.89 100.37,-367.2 156,-401.5 213.55,-436.98 293.4,-437.6 346.56,-432.76"/>
<polygon fill="#63b8ff" stroke="#63b8ff" points="346.71,-436.27 356.3,-431.78 346,-429.3 346.71,-436.27"/>
</g>
<!-- Node10 -->
<g id="node10" class="node">
<title>Node10</title>
<g id="a_node10"><a xlink:href="ar_create_handle_8c.html#aec6c548f3619e700e40764cd1c685fc6" target="_top" xlink:title="Set the labeling threshold mode (auto/manual).">
<polygon fill="white" stroke="#666666" points="469,-348 339,-348 339,-329 469,-329 469,-348"/>
<text text-anchor="middle" x="404" y="-336" font-family="Helvetica,sans-Serif" font-size="10.00">arSetLabelingThreshMode</text>
</a>
</g>
</g>
<!-- Node1&#45;&gt;Node10 -->
<g id="edge20" class="edge">
<title>Node1&#45;&gt;Node10</title>
<path fill="none" stroke="#63b8ff" d="M73,-259.4C90.21,-272.99 123.4,-297.03 156,-308.5 211.29,-327.95 277.35,-335.21 327.24,-337.74"/>
<polygon fill="#63b8ff" stroke="#63b8ff" points="326.93,-341.23 337.08,-338.18 327.25,-334.24 326.93,-341.23"/>
</g>
<!-- Node14 -->
<g id="node14" class="node">
<title>Node14</title>
<g id="a_node14"><a xlink:href="ar_create_handle_8c.html#ac044da75a479ba275db558f8e3b1d6fd" target="_top" xlink:title="Delete a handle which holds settings for an artoolkitX tracker instance.">
<polygon fill="white" stroke="#666666" points="446,-311 362,-311 362,-292 446,-292 446,-311"/>
<text text-anchor="middle" x="404" y="-299" font-family="Helvetica,sans-Serif" font-size="10.00">arDeleteHandle</text>
</a>
</g>
</g>
<!-- Node1&#45;&gt;Node14 -->
<g id="edge13" class="edge">
<title>Node1&#45;&gt;Node14</title>
<path fill="none" stroke="#63b8ff" d="M80.42,-259.44C99.21,-268.53 128.77,-281.45 156,-287.5 221.93,-302.14 300.06,-304.08 350.53,-303.39"/>
<polygon fill="#63b8ff" stroke="#63b8ff" points="350.35,-306.9 360.29,-303.22 350.22,-299.9 350.35,-306.9"/>
</g>
<!-- Node15 -->
<g id="node15" class="node">
<title>Node15</title>
<g id="a_node15"><a xlink:href="ar_patt_attach_8c.html#aa20f17a257b19a05281e80430301a8d5" target="_top" xlink:title="Associate a set of patterns with an ARHandle.">
<polygon fill="white" stroke="#666666" points="260,-278 189,-278 189,-259 260,-259 260,-278"/>
<text text-anchor="middle" x="224.5" y="-266" font-family="Helvetica,sans-Serif" font-size="10.00">arPattAttach</text>
</a>
</g>
</g>
<!-- Node1&#45;&gt;Node15 -->
<g id="edge15" class="edge">
<title>Node1&#45;&gt;Node15</title>
<path fill="none" stroke="#63b8ff" d="M120.13,-256.41C139.03,-258.62 159.67,-261.04 177.5,-263.12"/>
<polygon fill="#63b8ff" stroke="#63b8ff" points="176.92,-266.58 187.26,-264.26 177.74,-259.63 176.92,-266.58"/>
</g>
<!-- Node16 -->
<g id="node16" class="node">
<title>Node16</title>
<g id="a_node16"><a xlink:href="ar_create_handle_8c.html#a292c6689bec483177a50f45a5960590a" target="_top" xlink:title="Set the image processing mode.">
<polygon fill="white" stroke="#666666" points="280,-241 169,-241 169,-222 280,-222 280,-241"/>
<text text-anchor="middle" x="224.5" y="-229" font-family="Helvetica,sans-Serif" font-size="10.00">arSetImageProcMode</text>
</a>
</g>
</g>
<!-- Node1&#45;&gt;Node16 -->
<g id="edge17" class="edge">
<title>Node1&#45;&gt;Node16</title>
<path fill="none" stroke="#63b8ff" d="M120.13,-242.95C132.28,-241.6 145.16,-240.18 157.54,-238.81"/>
<polygon fill="#63b8ff" stroke="#63b8ff" points="157.68,-242.31 167.24,-237.73 156.91,-235.35 157.68,-242.31"/>
</g>
<!-- Node17 -->
<g id="node17" class="node">
<title>Node17</title>
<g id="a_node17"><a xlink:href="ar_create_handle_8c.html#ac64374d047a7137ff9261bf0b001c454" target="_top" xlink:title="Select between detection of black markers and white markers.">
<polygon fill="white" stroke="#666666" points="274.5,-204 174.5,-204 174.5,-185 274.5,-185 274.5,-204"/>
<text text-anchor="middle" x="224.5" y="-192" font-family="Helvetica,sans-Serif" font-size="10.00">arSetLabelingMode</text>
</a>
</g>
</g>
<!-- Node1&#45;&gt;Node17 -->
<g id="edge18" class="edge">
<title>Node1&#45;&gt;Node17</title>
<path fill="none" stroke="#63b8ff" d="M85.39,-239.58C104.46,-231.99 131.71,-221.5 156,-213.5 162.15,-211.47 168.65,-209.47 175.1,-207.57"/>
<polygon fill="#63b8ff" stroke="#63b8ff" points="175.74,-211.03 184.38,-204.89 173.8,-204.3 175.74,-211.03"/>
</g>
<!-- Node18 -->
<g id="node18" class="node">
<title>Node18</title>
<g id="a_node18"><a xlink:href="ar_create_handle_8c.html#ac7e721a0e5f2143612c5269a1ec19976" target="_top" xlink:title="Set the labeling threshhold.">
<polygon fill="white" stroke="#666666" points="277.5,-167 171.5,-167 171.5,-148 277.5,-148 277.5,-167"/>
<text text-anchor="middle" x="224.5" y="-155" font-family="Helvetica,sans-Serif" font-size="10.00">arSetLabelingThresh</text>
</a>
</g>
</g>
<!-- Node1&#45;&gt;Node18 -->
<g id="edge19" class="edge">
<title>Node1&#45;&gt;Node18</title>
<path fill="none" stroke="#63b8ff" d="M70.93,-239.75C87.31,-224.19 121.6,-193.75 156,-176.5 159.93,-174.53 164.09,-172.74 168.34,-171.11"/>
<polygon fill="#63b8ff" stroke="#63b8ff" points="169.29,-174.49 177.59,-167.91 166.99,-167.88 169.29,-174.49"/>
</g>
<!-- Node19 -->
<g id="node19" class="node">
<title>Node19</title>
<g id="a_node19"><a xlink:href="ar_create_handle_8c.html#a76631fc86b9d0fa0b10b7de01533ae32" target="_top" xlink:title="Set the size and ECC algorithm to be used for matrix code (2D barcode) marker detection.">
<polygon fill="white" stroke="#666666" points="280,-130 169,-130 169,-111 280,-111 280,-130"/>
<text text-anchor="middle" x="224.5" y="-118" font-family="Helvetica,sans-Serif" font-size="10.00">arSetMatrixCodeType</text>
</a>
</g>
</g>
<!-- Node1&#45;&gt;Node19 -->
<g id="edge21" class="edge">
<title>Node1&#45;&gt;Node19</title>
<path fill="none" stroke="#63b8ff" d="M66.73,-239.58C79.73,-217.97 113.63,-166.45 156,-139.5 158.61,-137.84 161.36,-136.33 164.2,-134.94"/>
<polygon fill="#63b8ff" stroke="#63b8ff" points="165.56,-138.17 173.42,-131.06 162.84,-131.72 165.56,-138.17"/>
</g>
<!-- Node20 -->
<g id="node20" class="node">
<title>Node20</title>
<g id="a_node20"><a xlink:href="ar_create_handle_8c.html#aa36c31f7d892653d73647e545ab3b3c9" target="_top" xlink:title="Set the pattern detection mode.">
<polygon fill="white" stroke="#666666" points="293,-93 156,-93 156,-74 293,-74 293,-93"/>
<text text-anchor="middle" x="224.5" y="-81" font-family="Helvetica,sans-Serif" font-size="10.00">arSetPatternDetectionMode</text>
</a>
</g>
</g>
<!-- Node1&#45;&gt;Node20 -->
<g id="edge22" class="edge">
<title>Node1&#45;&gt;Node20</title>
<path fill="none" stroke="#63b8ff" d="M64.55,-239.51C74.51,-212.91 105.39,-139.85 156,-102.5 158.03,-101 160.17,-99.62 162.4,-98.35"/>
<polygon fill="#63b8ff" stroke="#63b8ff" points="163.73,-101.6 171.22,-94.1 160.69,-95.29 163.73,-101.6"/>
</g>
<!-- Node21 -->
<g id="node21" class="node">
<title>Node21</title>
<g id="a_node21"><a xlink:href="ar_create_handle_8c.html#a811149d4e03ad3acc4c6b22a385033e4" target="_top" xlink:title="Set the width/height of the marker pattern space, as a proportion of marker width/height.">
<polygon fill="white" stroke="#666666" points="265,-56 184,-56 184,-37 265,-37 265,-56"/>
<text text-anchor="middle" x="224.5" y="-44" font-family="Helvetica,sans-Serif" font-size="10.00">arSetPattRatio</text>
</a>
</g>
</g>
<!-- Node1&#45;&gt;Node21 -->
<g id="edge23" class="edge">
<title>Node1&#45;&gt;Node21</title>
<path fill="none" stroke="#63b8ff" d="M63.07,-239.68C70.12,-208.79 96.13,-112.77 156,-64.5 161.08,-60.4 167.01,-57.23 173.2,-54.78"/>
<polygon fill="#63b8ff" stroke="#63b8ff" points="173.93,-58.23 182.34,-51.77 171.74,-51.58 173.93,-58.23"/>
</g>
<!-- Node22 -->
<g id="node22" class="node">
<title>Node22</title>
<g id="a_node22"><a xlink:href="ar_create_handle_8c.html#ac4fa700cc90dd9314646127f08913d2c" target="_top" xlink:title="Set the expected pixel format for video frames being passed to arDetectMarker.">
<polygon fill="white" stroke="#666666" points="270.5,-19 178.5,-19 178.5,0 270.5,0 270.5,-19"/>
<text text-anchor="middle" x="224.5" y="-7" font-family="Helvetica,sans-Serif" font-size="10.00">arSetPixelFormat</text>
</a>
</g>
</g>
<!-- Node1&#45;&gt;Node22 -->
<g id="edge24" class="edge">
<title>Node1&#45;&gt;Node22</title>
<path fill="none" stroke="#63b8ff" d="M62.15,-239.76C66.78,-205.15 87.22,-87.04 156,-27.5 159.56,-24.42 163.59,-21.86 167.87,-19.73"/>
<polygon fill="#63b8ff" stroke="#63b8ff" points="168.86,-23.11 176.79,-16.09 166.21,-16.63 168.86,-23.11"/>
</g>
<!-- Node3 -->
<g id="node3" class="node">
<title>Node3</title>
<g id="a_node3"><a xlink:href="ar3_d_create_handle_8c.html#aa7e4d91eb6f9d0b2766a96e7da1e2b56" target="_top" xlink:title="Create handle used for 3D calculation from an intrinsic parameters matrix.">
<polygon fill="white" stroke="#666666" points="455.5,-508 352.5,-508 352.5,-489 455.5,-489 455.5,-508"/>
<text text-anchor="middle" x="404" y="-496" font-family="Helvetica,sans-Serif" font-size="10.00">ar3DCreateHandle2</text>
</a>
</g>
</g>
<!-- Node2&#45;&gt;Node3 -->
<g id="edge2" class="edge">
<title>Node2&#45;&gt;Node3</title>
<path fill="none" stroke="#63b8ff" d="M273.53,-498.5C294.26,-498.5 318.76,-498.5 340.84,-498.5"/>
<polygon fill="#63b8ff" stroke="#63b8ff" points="340.62,-502 350.62,-498.5 340.62,-495 340.62,-502"/>
</g>
<!-- Node4 -->
<g id="node4" class="node">
<title>Node4</title>
<g id="a_node4"><a xlink:href="icp_handle_8c.html#acc980d46da2fee551179fe0eb8853587" target="_top" xlink:title=" ">
<polygon fill="white" stroke="#666666" points="618.5,-508 529.5,-508 529.5,-489 618.5,-489 618.5,-508"/>
<text text-anchor="middle" x="574" y="-496" font-family="Helvetica,sans-Serif" font-size="10.00">icpCreateHandle</text>
</a>
</g>
</g>
<!-- Node3&#45;&gt;Node4 -->
<g id="edge3" class="edge">
<title>Node3&#45;&gt;Node4</title>
<path fill="none" stroke="#63b8ff" d="M455.86,-498.5C475.4,-498.5 497.78,-498.5 517.72,-498.5"/>
<polygon fill="#63b8ff" stroke="#63b8ff" points="517.62,-502 527.62,-498.5 517.62,-495 517.62,-502"/>
</g>
<!-- Node6 -->
<g id="node6" class="node">
<title>Node6</title>
<g id="a_node6"><a xlink:href="ar3_d_create_handle_8c.html#adc615d7ceff3996a765687d4c070a174" target="_top" xlink:title=" ">
<polygon fill="white" stroke="#666666" points="469.5,-471 338.5,-471 338.5,-452 469.5,-452 469.5,-471"/>
<text text-anchor="middle" x="404" y="-459" font-family="Helvetica,sans-Serif" font-size="10.00">ar3DStereoCreateHandle2</text>
</a>
</g>
</g>
<!-- Node5&#45;&gt;Node6 -->
<g id="edge5" class="edge">
<title>Node5&#45;&gt;Node6</title>
<path fill="none" stroke="#63b8ff" d="M287.58,-461.5C300.26,-461.5 313.74,-461.5 326.85,-461.5"/>
<polygon fill="#63b8ff" stroke="#63b8ff" points="326.73,-465 336.73,-461.5 326.73,-458 326.73,-465"/>
</g>
<!-- Node7 -->
<g id="node7" class="node">
<title>Node7</title>
<g id="a_node7"><a xlink:href="icp_stereo_handle_8c.html#a5436b1a52e81fa715d70decffa023354" target="_top" xlink:title=" ">
<polygon fill="white" stroke="#666666" points="633,-471 515,-471 515,-452 633,-452 633,-471"/>
<text text-anchor="middle" x="574" y="-459" font-family="Helvetica,sans-Serif" font-size="10.00">icpStereoCreateHandle</text>
</a>
</g>
</g>
<!-- Node6&#45;&gt;Node7 -->
<g id="edge6" class="edge">
<title>Node6&#45;&gt;Node7</title>
<path fill="none" stroke="#63b8ff" d="M469.95,-461.5C480.85,-461.5 492.2,-461.5 503.21,-461.5"/>
<polygon fill="#63b8ff" stroke="#63b8ff" points="503.02,-465 513.02,-461.5 503.02,-458 503.02,-465"/>
</g>
<!-- Node8&#45;&gt;Node9 -->
<g id="edge8" class="edge">
<title>Node8&#45;&gt;Node9</title>
<path fill="none" stroke="#63b8ff" d="M267.12,-392.35C291.86,-398.2 323.5,-405.69 350.01,-411.96"/>
<polygon fill="#63b8ff" stroke="#63b8ff" points="349.02,-415.32 359.56,-414.22 350.63,-408.51 349.02,-415.32"/>
</g>
<!-- Node8&#45;&gt;Node10 -->
<g id="edge9" class="edge">
<title>Node8&#45;&gt;Node10</title>
<path fill="none" stroke="#63b8ff" d="M265.78,-372.52C291.31,-366.19 324.56,-357.94 351.94,-351.16"/>
<polygon fill="#63b8ff" stroke="#63b8ff" points="352.55,-354.61 361.41,-348.81 350.86,-347.82 352.55,-354.61"/>
</g>
<!-- Node13 -->
<g id="node13" class="node">
<title>Node13</title>
<g id="a_node13"><a xlink:href="ar_create_handle_8c.html#a86e2d00dfb41243650b1e18c55dcf031" target="_top" xlink:title="Set the number of frames between auto&#45;threshold calculations.">
<polygon fill="white" stroke="#666666" points="479,-396.5 329,-396.5 329,-366.5 479,-366.5 479,-396.5"/>
<text text-anchor="start" x="337" y="-384.5" font-family="Helvetica,sans-Serif" font-size="10.00">arSetLabelingThreshModeAuto</text>
<text text-anchor="middle" x="404" y="-373.5" font-family="Helvetica,sans-Serif" font-size="10.00">Interval</text>
</a>
</g>
</g>
<!-- Node8&#45;&gt;Node13 -->
<g id="edge12" class="edge">
<title>Node8&#45;&gt;Node13</title>
<path fill="none" stroke="#63b8ff" d="M267.12,-382.27C282.16,-382.18 299.75,-382.08 317.19,-381.98"/>
<polygon fill="#63b8ff" stroke="#63b8ff" points="317.11,-385.48 327.09,-381.93 317.07,-378.48 317.11,-385.48"/>
</g>
<!-- Node11 -->
<g id="node11" class="node">
<title>Node11</title>
<g id="a_node11"><a xlink:href="ar_image_proc_8c.html#a99a7b2bbb653be2ecc772ceed7159ce1" target="_top" xlink:title="Finish image processing and free memory.">
<polygon fill="white" stroke="#666666" points="620.5,-311 527.5,-311 527.5,-292 620.5,-292 620.5,-311"/>
<text text-anchor="middle" x="574" y="-299" font-family="Helvetica,sans-Serif" font-size="10.00">arImageProcFinal</text>
</a>
</g>
</g>
<!-- Node10&#45;&gt;Node11 -->
<g id="edge10" class="edge">
<title>Node10&#45;&gt;Node11</title>
<path fill="none" stroke="#63b8ff" d="M450.02,-328.58C470.55,-324.06 495.06,-318.66 516.79,-313.88"/>
<polygon fill="#63b8ff" stroke="#63b8ff" points="517.36,-317.34 526.38,-311.77 515.86,-310.5 517.36,-317.34"/>
</g>
<!-- Node12 -->
<g id="node12" class="node">
<title>Node12</title>
<g id="a_node12"><a xlink:href="ar_image_proc_8c.html#ab17100ae9f8d3a2b881830f135bfffa8" target="_top" xlink:title="Initialise image processing.">
<polygon fill="white" stroke="#666666" points="617,-348 531,-348 531,-329 617,-329 617,-348"/>
<text text-anchor="middle" x="574" y="-336" font-family="Helvetica,sans-Serif" font-size="10.00">arImageProcInit</text>
</a>
</g>
</g>
<!-- Node10&#45;&gt;Node12 -->
<g id="edge11" class="edge">
<title>Node10&#45;&gt;Node12</title>
<path fill="none" stroke="#63b8ff" d="M469.47,-338.5C485.93,-338.5 503.44,-338.5 519.29,-338.5"/>
<polygon fill="#63b8ff" stroke="#63b8ff" points="518.99,-342 528.99,-338.5 518.99,-335 518.99,-342"/>
</g>
<!-- Node14&#45;&gt;Node11 -->
<g id="edge14" class="edge">
<title>Node14&#45;&gt;Node11</title>
<path fill="none" stroke="#63b8ff" d="M446.1,-301.5C467.12,-301.5 493.05,-301.5 515.97,-301.5"/>
<polygon fill="#63b8ff" stroke="#63b8ff" points="515.79,-305 525.79,-301.5 515.79,-298 515.79,-305"/>
</g>
<!-- Node23 -->
<g id="node23" class="node">
<title>Node23</title>
<g id="a_node23"><a xlink:href="ar_util_8c.html#a97d737ba2827a9edfd10deefb3ce03b4" target="_top" xlink:title="Get the size in bytes of a single pixel for a given pixel format.">
<polygon fill="white" stroke="#666666" points="452.5,-19 355.5,-19 355.5,0 452.5,0 452.5,-19"/>
<text text-anchor="middle" x="404" y="-7" font-family="Helvetica,sans-Serif" font-size="10.00">arUtilGetPixelSize</text>
</a>
</g>
</g>
<!-- Node22&#45;&gt;Node23 -->
<g id="edge25" class="edge">
<title>Node22&#45;&gt;Node23</title>
<path fill="none" stroke="#63b8ff" d="M270.75,-9.5C292.91,-9.5 319.87,-9.5 343.65,-9.5"/>
<polygon fill="#63b8ff" stroke="#63b8ff" points="343.52,-13 353.52,-9.5 343.52,-6 343.52,-13"/>
</g>
</g>
</svg>
