<?xml version="1.0" encoding="UTF-8" standalone="no"?>
<!DOCTYPE svg PUBLIC "-//W3C//DTD SVG 1.1//EN"
 "http://www.w3.org/Graphics/SVG/1.1/DTD/svg11.dtd">
<!-- Generated by graphviz version 8.0.5 (20230430.1635)
 -->
<!-- Title: ARTrackerSquare::terminate Pages: 1 -->
<svg width="384pt" height="27pt"
 viewBox="0.00 0.00 383.75 27.25" xmlns="http://www.w3.org/2000/svg" xmlns:xlink="http://www.w3.org/1999/xlink">
<g id="graph0" class="graph" transform="scale(1 1) rotate(0) translate(4 23.25)">
<title>ARTrackerSquare::terminate</title>
<!-- Node1 -->
<g id="node1" class="node">
<title>Node1</title>
<g id="a_node1"><a xlink:title=" ">
<polygon fill="#999999" stroke="#666666" points="140.5,-19.25 0,-19.25 0,0 140.5,0 140.5,-19.25"/>
<text text-anchor="middle" x="70.25" y="-5.75" font-family="Helvetica,sans-Serif" font-size="10.00">ARTrackerSquare::terminate</text>
</a>
</g>
</g>
<!-- Node2 -->
<g id="node2" class="node">
<title>Node2</title>
<g id="a_node2"><a xlink:href="ar_patt_create_handle_8c.html#a4cc694c73a326767ba1614e97fcd00cb" target="_top" xlink:title="Free all loaded patterns and pattern handle.">
<polygon fill="white" stroke="#666666" points="278,-19.25 176.5,-19.25 176.5,0 278,0 278,-19.25"/>
<text text-anchor="middle" x="227.25" y="-5.75" font-family="Helvetica,sans-Serif" font-size="10.00">arPattDeleteHandle</text>
</a>
</g>
</g>
<!-- Node1&#45;&gt;Node2 -->
<g id="edge1" class="edge">
<title>Node1&#45;&gt;Node2</title>
<path fill="none" stroke="#63b8ff" d="M140.59,-9.62C148.79,-9.62 157.12,-9.62 165.19,-9.62"/>
<polygon fill="#63b8ff" stroke="#63b8ff" points="165.01,-13.13 175.01,-9.62 165.01,-6.13 165.01,-13.13"/>
</g>
<!-- Node3 -->
<g id="node3" class="node">
<title>Node3</title>
<g id="a_node3"><a xlink:href="ar_patt_load_8c.html#a7e05342aa3eec9d14b56886aa9bd3731" target="_top" xlink:title="Frees (unloads) a pattern file from memory.">
<polygon fill="white" stroke="#666666" points="375.75,-19.25 314,-19.25 314,0 375.75,0 375.75,-19.25"/>
<text text-anchor="middle" x="344.88" y="-5.75" font-family="Helvetica,sans-Serif" font-size="10.00">arPattFree</text>
</a>
</g>
</g>
<!-- Node2&#45;&gt;Node3 -->
<g id="edge2" class="edge">
<title>Node2&#45;&gt;Node3</title>
<path fill="none" stroke="#63b8ff" d="M278.29,-9.62C286.51,-9.62 294.93,-9.62 302.89,-9.62"/>
<polygon fill="#63b8ff" stroke="#63b8ff" points="302.77,-13.13 312.77,-9.62 302.77,-6.13 302.77,-13.13"/>
</g>
</g>
</svg>
