<?xml version="1.0" encoding="UTF-8" standalone="no"?>
<!DOCTYPE svg PUBLIC "-//W3C//DTD SVG 1.1//EN"
 "http://www.w3.org/Graphics/SVG/1.1/DTD/svg11.dtd">
<!-- Generated by graphviz version 8.0.5 (20230430.1635)
 -->
<!-- Title: PlanarTracker::PlanarTrackerImpl::RunOpticalFlow Pages: 1 -->
<svg width="508pt" height="39pt"
 viewBox="0.00 0.00 507.50 38.50" xmlns="http://www.w3.org/2000/svg" xmlns:xlink="http://www.w3.org/1999/xlink">
<g id="graph0" class="graph" transform="scale(1 1) rotate(0) translate(4 34.5)">
<title>PlanarTracker::PlanarTrackerImpl::RunOpticalFlow</title>
<!-- Node1 -->
<g id="node1" class="node">
<title>Node1</title>
<g id="a_node1"><a xlink:title=" ">
<polygon fill="#999999" stroke="#666666" points="143.5,-30.5 0,-30.5 0,0 143.5,0 143.5,-30.5"/>
<text text-anchor="start" x="8" y="-17" font-family="Helvetica,sans-Serif" font-size="10.00">PlanarTracker::PlanarTracker</text>
<text text-anchor="middle" x="71.75" y="-5.75" font-family="Helvetica,sans-Serif" font-size="10.00">Impl::RunOpticalFlow</text>
</a>
</g>
</g>
<!-- Node2 -->
<g id="node2" class="node">
<title>Node2</title>
<g id="a_node2"><a xlink:href="class_planar_tracker_1_1_planar_tracker_impl.html#ab33c6c9dfe6b1c7d06478328d20c6905" target="_top" xlink:title=" ">
<polygon fill="white" stroke="#666666" points="350,-30.5 179.5,-30.5 179.5,0 350,0 350,-30.5"/>
<text text-anchor="start" x="187.5" y="-17" font-family="Helvetica,sans-Serif" font-size="10.00">PlanarTracker::PlanarTracker</text>
<text text-anchor="middle" x="264.75" y="-5.75" font-family="Helvetica,sans-Serif" font-size="10.00">Impl::UpdateTrackableHomography</text>
</a>
</g>
</g>
<!-- Node1&#45;&gt;Node2 -->
<g id="edge1" class="edge">
<title>Node1&#45;&gt;Node2</title>
<path fill="none" stroke="#63b8ff" d="M143.87,-15.25C151.84,-15.25 160.04,-15.25 168.25,-15.25"/>
<polygon fill="#63b8ff" stroke="#63b8ff" points="168.02,-18.75 178.02,-15.25 168.02,-11.75 168.02,-18.75"/>
</g>
<!-- Node3 -->
<g id="node3" class="node">
<title>Node3</title>
<g id="a_node3"><a xlink:href="_o_c_v_utils_8h.html#a7fe5bf75dbdbdb3b864fd17f80e8129f" target="_top" xlink:title=" ">
<polygon fill="white" stroke="#666666" points="499.5,-24.88 386,-24.88 386,-5.63 499.5,-5.63 499.5,-24.88"/>
<text text-anchor="middle" x="442.75" y="-11.38" font-family="Helvetica,sans-Serif" font-size="10.00">GetHomographyInliers</text>
</a>
</g>
</g>
<!-- Node2&#45;&gt;Node3 -->
<g id="edge2" class="edge">
<title>Node2&#45;&gt;Node3</title>
<path fill="none" stroke="#63b8ff" d="M350.4,-15.25C358.63,-15.25 366.91,-15.25 374.93,-15.25"/>
<polygon fill="#63b8ff" stroke="#63b8ff" points="374.69,-18.75 384.69,-15.25 374.69,-11.75 374.69,-18.75"/>
</g>
</g>
</svg>
