<?xml version="1.0" encoding="UTF-8" standalone="no"?>
<!DOCTYPE svg PUBLIC "-//W3C//DTD SVG 1.1//EN"
 "http://www.w3.org/Graphics/SVG/1.1/DTD/svg11.dtd">
<!-- Generated by graphviz version 8.0.5 (20230430.1635)
 -->
<!-- Title: ARTrackableMultiSquare::~ARTrackableMultiSquare Pages: 1 -->
<svg width="435pt" height="39pt"
 viewBox="0.00 0.00 434.75 38.50" xmlns="http://www.w3.org/2000/svg" xmlns:xlink="http://www.w3.org/1999/xlink">
<g id="graph0" class="graph" transform="scale(1 1) rotate(0) translate(4 34.5)">
<title>ARTrackableMultiSquare::~ARTrackableMultiSquare</title>
<!-- Node1 -->
<g id="node1" class="node">
<title>Node1</title>
<g id="a_node1"><a xlink:title=" ">
<polygon fill="#999999" stroke="#666666" points="136.75,-30.5 0,-30.5 0,0 136.75,0 136.75,-30.5"/>
<text text-anchor="start" x="8" y="-17" font-family="Helvetica,sans-Serif" font-size="10.00">ARTrackableMultiSquare</text>
<text text-anchor="middle" x="68.38" y="-5.75" font-family="Helvetica,sans-Serif" font-size="10.00">::~ARTrackableMultiSquare</text>
</a>
</g>
</g>
<!-- Node2 -->
<g id="node2" class="node">
<title>Node2</title>
<g id="a_node2"><a xlink:href="class_a_r_trackable_multi_square.html#a57881bb2ce7acf1852db2ee6665cd0f4" target="_top" xlink:title=" ">
<polygon fill="white" stroke="#666666" points="297.5,-30.5 172.75,-30.5 172.75,0 297.5,0 297.5,-30.5"/>
<text text-anchor="start" x="180.75" y="-17" font-family="Helvetica,sans-Serif" font-size="10.00">ARTrackableMultiSquare</text>
<text text-anchor="middle" x="235.12" y="-5.75" font-family="Helvetica,sans-Serif" font-size="10.00">::unload</text>
</a>
</g>
</g>
<!-- Node1&#45;&gt;Node2 -->
<g id="edge1" class="edge">
<title>Node1&#45;&gt;Node2</title>
<path fill="none" stroke="#63b8ff" d="M136.86,-15.25C144.92,-15.25 153.19,-15.25 161.32,-15.25"/>
<polygon fill="#63b8ff" stroke="#63b8ff" points="161.31,-18.75 171.31,-15.25 161.31,-11.75 161.31,-18.75"/>
</g>
<!-- Node3 -->
<g id="node3" class="node">
<title>Node3</title>
<g id="a_node3"><a xlink:href="ar_multi_free_config_8c.html#a0f33d2031514e1b5af6ba4dfa152633f" target="_top" xlink:title="Frees the multi&#45;marker configuration passed in.">
<polygon fill="white" stroke="#666666" points="426.75,-24.88 333.5,-24.88 333.5,-5.63 426.75,-5.63 426.75,-24.88"/>
<text text-anchor="middle" x="380.12" y="-11.38" font-family="Helvetica,sans-Serif" font-size="10.00">arMultiFreeConfig</text>
</a>
</g>
</g>
<!-- Node2&#45;&gt;Node3 -->
<g id="edge2" class="edge">
<title>Node2&#45;&gt;Node3</title>
<path fill="none" stroke="#63b8ff" d="M297.6,-15.25C305.82,-15.25 314.23,-15.25 322.36,-15.25"/>
<polygon fill="#63b8ff" stroke="#63b8ff" points="322.25,-18.75 332.25,-15.25 322.25,-11.75 322.25,-18.75"/>
</g>
</g>
</svg>
