<?xml version="1.0" encoding="UTF-8" standalone="no"?>
<!DOCTYPE svg PUBLIC "-//W3C//DTD SVG 1.1//EN"
 "http://www.w3.org/Graphics/SVG/1.1/DTD/svg11.dtd">
<!-- Generated by graphviz version 7.0.5 (20221223.1930)
 -->
<!-- Title: PlanarTracker::PlanarTrackerImpl::ProcessFrameData Pages: 1 -->
<svg width="874pt" height="753pt"
 viewBox="0.00 0.00 874.00 753.00" xmlns="http://www.w3.org/2000/svg" xmlns:xlink="http://www.w3.org/1999/xlink">
<g id="graph0" class="graph" transform="scale(1 1) rotate(0) translate(4 749)">
<title>PlanarTracker::PlanarTrackerImpl::ProcessFrameData</title>
<!-- Node1 -->
<g id="node1" class="node">
<title>Node1</title>
<g id="a_node1"><a xlink:title=" ">
<polygon fill="#999999" stroke="#666666" points="144,-481 0,-481 0,-451 144,-451 144,-481"/>
<text text-anchor="start" x="8" y="-469" font-family="Helvetica,sans-Serif" font-size="10.00">PlanarTracker::PlanarTracker</text>
<text text-anchor="middle" x="72" y="-458" font-family="Helvetica,sans-Serif" font-size="10.00">Impl::ProcessFrameData</text>
</a>
</g>
</g>
<!-- Node2 -->
<g id="node2" class="node">
<title>Node2</title>
<g id="a_node2"><a xlink:href="class_planar_tracker_1_1_planar_tracker_impl.html#a762636e94d6d1e39fa3753a316f84784" target="_top" xlink:title=" ">
<polygon fill="white" stroke="#666666" points="324,-481 180,-481 180,-451 324,-451 324,-481"/>
<text text-anchor="start" x="188" y="-469" font-family="Helvetica,sans-Serif" font-size="10.00">PlanarTracker::PlanarTracker</text>
<text text-anchor="middle" x="252" y="-458" font-family="Helvetica,sans-Serif" font-size="10.00">Impl::ProcessFrame</text>
</a>
</g>
</g>
<!-- Node1&#45;&gt;Node2 -->
<g id="edge1" class="edge">
<title>Node1&#45;&gt;Node2</title>
<path fill="none" stroke="#63b8ff" d="M144.37,-466C152.26,-466 160.34,-466 168.36,-466"/>
<polygon fill="#63b8ff" stroke="#63b8ff" points="168.1,-469.5 178.1,-466 168.1,-462.5 168.1,-469.5"/>
</g>
<!-- Node3 -->
<g id="node3" class="node">
<title>Node3</title>
<g id="a_node3"><a xlink:href="class_planar_tracker_1_1_planar_tracker_impl.html#a4173952f654e68af1a1eabe4b0c8e3dd" target="_top" xlink:title=" ">
<polygon fill="white" stroke="#666666" points="506.5,-745 362.5,-745 362.5,-715 506.5,-715 506.5,-745"/>
<text text-anchor="start" x="370.5" y="-733" font-family="Helvetica,sans-Serif" font-size="10.00">PlanarTracker::PlanarTracker</text>
<text text-anchor="middle" x="434.5" y="-722" font-family="Helvetica,sans-Serif" font-size="10.00">Impl::BuildImagePyramid</text>
</a>
</g>
</g>
<!-- Node2&#45;&gt;Node3 -->
<g id="edge2" class="edge">
<title>Node2&#45;&gt;Node3</title>
<path fill="none" stroke="#63b8ff" d="M255.44,-481.45C262.93,-523.74 289.51,-642.47 360,-706 360.92,-706.83 361.87,-707.63 362.85,-708.41"/>
<polygon fill="#63b8ff" stroke="#63b8ff" points="360.74,-711.2 371,-713.82 364.61,-705.37 360.74,-711.2"/>
</g>
<!-- Node4 -->
<g id="node4" class="node">
<title>Node4</title>
<g id="a_node4"><a xlink:href="class_o_c_v_feature_detector.html#a85c838ba02e1d9666e3498cdd2273814" target="_top" xlink:title=" ">
<polygon fill="white" stroke="#666666" points="489,-697 380,-697 380,-667 489,-667 489,-697"/>
<text text-anchor="start" x="388" y="-685" font-family="Helvetica,sans-Serif" font-size="10.00">OCVFeatureDetector</text>
<text text-anchor="middle" x="434.5" y="-674" font-family="Helvetica,sans-Serif" font-size="10.00">::CalcDescriptors</text>
</a>
</g>
</g>
<!-- Node2&#45;&gt;Node4 -->
<g id="edge3" class="edge">
<title>Node2&#45;&gt;Node4</title>
<path fill="none" stroke="#63b8ff" d="M257.33,-481.48C268.28,-517.78 300.5,-608.99 360,-658 362.99,-660.46 366.24,-662.68 369.66,-664.67"/>
<polygon fill="#63b8ff" stroke="#63b8ff" points="367.78,-667.64 378.29,-669.01 370.93,-661.39 367.78,-667.64"/>
</g>
<!-- Node5 -->
<g id="node5" class="node">
<title>Node5</title>
<g id="a_node5"><a xlink:href="class_planar_tracker_1_1_planar_tracker_impl.html#a91c57fbfdcd85bd68d4140447c08b9fc" target="_top" xlink:title=" ">
<polygon fill="white" stroke="#666666" points="509,-649 360,-649 360,-619 509,-619 509,-649"/>
<text text-anchor="start" x="368" y="-637" font-family="Helvetica,sans-Serif" font-size="10.00">PlanarTracker::PlanarTracker</text>
<text text-anchor="middle" x="434.5" y="-626" font-family="Helvetica,sans-Serif" font-size="10.00">Impl::CameraPoseFromPoints</text>
</a>
</g>
</g>
<!-- Node2&#45;&gt;Node5 -->
<g id="edge4" class="edge">
<title>Node2&#45;&gt;Node5</title>
<path fill="none" stroke="#63b8ff" d="M260.39,-481.49C275.17,-510.87 311.21,-574.89 360,-610 361.57,-611.13 363.2,-612.21 364.88,-613.24"/>
<polygon fill="#63b8ff" stroke="#63b8ff" points="363.08,-616.25 373.55,-617.91 366.4,-610.09 363.08,-616.25"/>
</g>
<!-- Node6 -->
<g id="node6" class="node">
<title>Node6</title>
<g id="a_node6"><a xlink:href="class_planar_tracker_1_1_planar_tracker_impl.html#a80f0f662ac09c6c807020f3a69f7e31f" target="_top" xlink:title=" ">
<polygon fill="white" stroke="#666666" points="508,-601 361,-601 361,-571 508,-571 508,-601"/>
<text text-anchor="start" x="369" y="-589" font-family="Helvetica,sans-Serif" font-size="10.00">PlanarTracker::PlanarTracker</text>
<text text-anchor="middle" x="434.5" y="-578" font-family="Helvetica,sans-Serif" font-size="10.00">Impl::CanDetectNewFeatures</text>
</a>
</g>
</g>
<!-- Node2&#45;&gt;Node6 -->
<g id="edge5" class="edge">
<title>Node2&#45;&gt;Node6</title>
<path fill="none" stroke="#63b8ff" d="M266.35,-481.48C285.24,-502.48 321.74,-539.92 360,-562 362.44,-563.41 364.98,-564.75 367.57,-566.02"/>
<polygon fill="#63b8ff" stroke="#63b8ff" points="365.89,-569.1 376.45,-569.98 368.74,-562.71 365.89,-569.1"/>
</g>
<!-- Node7 -->
<g id="node7" class="node">
<title>Node7</title>
<g id="a_node7"><a xlink:href="class_planar_tracker_1_1_planar_tracker_impl.html#a7a63a98ccbcd5352adf4bd3bdef58fa9" target="_top" xlink:title=" ">
<polygon fill="white" stroke="#666666" points="507,-553 362,-553 362,-523 507,-523 507,-553"/>
<text text-anchor="start" x="370" y="-541" font-family="Helvetica,sans-Serif" font-size="10.00">PlanarTracker::PlanarTracker</text>
<text text-anchor="middle" x="434.5" y="-530" font-family="Helvetica,sans-Serif" font-size="10.00">Impl::CanMatchNewFeatures</text>
</a>
</g>
</g>
<!-- Node2&#45;&gt;Node7 -->
<g id="edge6" class="edge">
<title>Node2&#45;&gt;Node7</title>
<path fill="none" stroke="#63b8ff" d="M284.93,-481.39C306.01,-491.29 334.36,-504.1 360,-514 364.3,-515.66 368.76,-517.31 373.27,-518.91"/>
<polygon fill="#63b8ff" stroke="#63b8ff" points="371.8,-522.11 382.4,-522.08 374.1,-515.49 371.8,-522.11"/>
</g>
<!-- Node8 -->
<g id="node8" class="node">
<title>Node8</title>
<g id="a_node8"><a xlink:href="class_planar_tracker_1_1_planar_tracker_impl.html#aa42703f5b2d24776ba4e30c4b22df5d3" target="_top" xlink:title=" ">
<polygon fill="white" stroke="#666666" points="506.5,-505 362.5,-505 362.5,-475 506.5,-475 506.5,-505"/>
<text text-anchor="start" x="370.5" y="-493" font-family="Helvetica,sans-Serif" font-size="10.00">PlanarTracker::PlanarTracker</text>
<text text-anchor="middle" x="434.5" y="-482" font-family="Helvetica,sans-Serif" font-size="10.00">Impl::CreateFeatureMask</text>
</a>
</g>
</g>
<!-- Node2&#45;&gt;Node8 -->
<g id="edge7" class="edge">
<title>Node2&#45;&gt;Node8</title>
<path fill="none" stroke="#63b8ff" d="M324.34,-475.49C333.07,-476.65 342.05,-477.84 350.92,-479.02"/>
<polygon fill="#63b8ff" stroke="#63b8ff" points="350.21,-482.46 360.59,-480.31 351.14,-475.52 350.21,-482.46"/>
</g>
<!-- Node9 -->
<g id="node9" class="node">
<title>Node9</title>
<g id="a_node9"><a xlink:href="class_o_c_v_feature_detector.html#ac02fa1aef24f302f4a7f93e0840bd37d" target="_top" xlink:title=" ">
<polygon fill="white" stroke="#666666" points="489,-457 380,-457 380,-427 489,-427 489,-457"/>
<text text-anchor="start" x="388" y="-445" font-family="Helvetica,sans-Serif" font-size="10.00">OCVFeatureDetector</text>
<text text-anchor="middle" x="434.5" y="-434" font-family="Helvetica,sans-Serif" font-size="10.00">::DetectFeatures</text>
</a>
</g>
</g>
<!-- Node2&#45;&gt;Node9 -->
<g id="edge8" class="edge">
<title>Node2&#45;&gt;Node9</title>
<path fill="none" stroke="#63b8ff" d="M324.34,-456.51C338.88,-454.58 354.1,-452.56 368.41,-450.65"/>
<polygon fill="#63b8ff" stroke="#63b8ff" points="368.71,-454.15 378.16,-449.36 367.79,-447.21 368.71,-454.15"/>
</g>
<!-- Node10 -->
<g id="node10" class="node">
<title>Node10</title>
<g id="a_node10"><a xlink:href="class_planar_tracker_1_1_planar_tracker_impl.html#aaa362b7b5e5749514365b91bb1f4177e" target="_top" xlink:title=" ">
<polygon fill="white" stroke="#666666" points="506.5,-409 362.5,-409 362.5,-379 506.5,-379 506.5,-409"/>
<text text-anchor="start" x="370.5" y="-397" font-family="Helvetica,sans-Serif" font-size="10.00">PlanarTracker::PlanarTracker</text>
<text text-anchor="middle" x="434.5" y="-386" font-family="Helvetica,sans-Serif" font-size="10.00">Impl::MatchFeatures</text>
</a>
</g>
</g>
<!-- Node2&#45;&gt;Node10 -->
<g id="edge9" class="edge">
<title>Node2&#45;&gt;Node10</title>
<path fill="none" stroke="#63b8ff" d="M284.93,-450.61C306.01,-440.71 334.36,-427.9 360,-418 364.3,-416.34 368.76,-414.69 373.27,-413.09"/>
<polygon fill="#63b8ff" stroke="#63b8ff" points="374.1,-416.51 382.4,-409.92 371.8,-409.89 374.1,-416.51"/>
</g>
<!-- Node14 -->
<g id="node14" class="node">
<title>Node14</title>
<g id="a_node14"><a xlink:href="class_planar_tracker_1_1_planar_tracker_impl.html#a47d9c7350acfa5c446bee541105b193c" target="_top" xlink:title=" ">
<polygon fill="white" stroke="#666666" points="506.5,-361 362.5,-361 362.5,-331 506.5,-331 506.5,-361"/>
<text text-anchor="start" x="370.5" y="-349" font-family="Helvetica,sans-Serif" font-size="10.00">PlanarTracker::PlanarTracker</text>
<text text-anchor="middle" x="434.5" y="-338" font-family="Helvetica,sans-Serif" font-size="10.00">Impl::RunOpticalFlow</text>
</a>
</g>
</g>
<!-- Node2&#45;&gt;Node14 -->
<g id="edge13" class="edge">
<title>Node2&#45;&gt;Node14</title>
<path fill="none" stroke="#63b8ff" d="M266.35,-450.52C285.24,-429.52 321.74,-392.08 360,-370 362.44,-368.59 364.98,-367.25 367.57,-365.98"/>
<polygon fill="#63b8ff" stroke="#63b8ff" points="368.74,-369.29 376.45,-362.02 365.89,-362.9 368.74,-369.29"/>
</g>
<!-- Node16 -->
<g id="node16" class="node">
<title>Node16</title>
<g id="a_node16"><a xlink:href="class_planar_tracker_1_1_planar_tracker_impl.html#a222b528facf0da27e39f26572df9ba00" target="_top" xlink:title=" ">
<polygon fill="white" stroke="#666666" points="506.5,-270 362.5,-270 362.5,-240 506.5,-240 506.5,-270"/>
<text text-anchor="start" x="370.5" y="-258" font-family="Helvetica,sans-Serif" font-size="10.00">PlanarTracker::PlanarTracker</text>
<text text-anchor="middle" x="434.5" y="-247" font-family="Helvetica,sans-Serif" font-size="10.00">Impl::RunTemplateMatching</text>
</a>
</g>
</g>
<!-- Node2&#45;&gt;Node16 -->
<g id="edge16" class="edge">
<title>Node2&#45;&gt;Node16</title>
<path fill="none" stroke="#63b8ff" d="M263.04,-450.54C281.01,-423.34 320.51,-365.66 360,-322 374.29,-306.2 391.88,-290.07 406.27,-277.59"/>
<polygon fill="#63b8ff" stroke="#63b8ff" points="408.28,-280.47 413.61,-271.31 403.73,-275.15 408.28,-280.47"/>
</g>
<!-- Node24 -->
<g id="node24" class="node">
<title>Node24</title>
<g id="a_node24"><a xlink:href="class_planar_tracker_1_1_planar_tracker_impl.html#a6cb1faa1f8fe7fa77f55d18dca4de225" target="_top" xlink:title=" ">
<polygon fill="white" stroke="#666666" points="506.5,-222 362.5,-222 362.5,-192 506.5,-192 506.5,-222"/>
<text text-anchor="start" x="370.5" y="-210" font-family="Helvetica,sans-Serif" font-size="10.00">PlanarTracker::PlanarTracker</text>
<text text-anchor="middle" x="434.5" y="-199" font-family="Helvetica,sans-Serif" font-size="10.00">Impl::SelectTrackablePoints</text>
</a>
</g>
</g>
<!-- Node2&#45;&gt;Node24 -->
<g id="edge25" class="edge">
<title>Node2&#45;&gt;Node24</title>
<path fill="none" stroke="#63b8ff" d="M255.6,-450.57C263.43,-408.88 290.66,-293 360,-231 360.93,-230.17 361.88,-229.37 362.86,-228.6"/>
<polygon fill="#63b8ff" stroke="#63b8ff" points="364.61,-231.64 371.03,-223.21 360.75,-225.8 364.61,-231.64"/>
</g>
<!-- Node25 -->
<g id="node25" class="node">
<title>Node25</title>
<g id="a_node25"><a xlink:href="class_planar_tracker_1_1_planar_tracker_impl.html#ad9fafde4e80b0c15a74879e50c54c03c" target="_top" xlink:title=" ">
<polygon fill="white" stroke="#666666" points="506.5,-174 362.5,-174 362.5,-144 506.5,-144 506.5,-174"/>
<text text-anchor="start" x="370.5" y="-162" font-family="Helvetica,sans-Serif" font-size="10.00">PlanarTracker::PlanarTracker</text>
<text text-anchor="middle" x="434.5" y="-151" font-family="Helvetica,sans-Serif" font-size="10.00">Impl::SwapImagePyramid</text>
</a>
</g>
</g>
<!-- Node2&#45;&gt;Node25 -->
<g id="edge26" class="edge">
<title>Node2&#45;&gt;Node25</title>
<path fill="none" stroke="#63b8ff" d="M254.26,-450.61C258.94,-403.52 279.47,-259.91 360,-183 360.76,-182.27 361.55,-181.56 362.36,-180.88"/>
<polygon fill="#63b8ff" stroke="#63b8ff" points="364.29,-183.8 370.46,-175.18 360.26,-178.07 364.29,-183.8"/>
</g>
<!-- Node11 -->
<g id="node11" class="node">
<title>Node11</title>
<g id="a_node11"><a xlink:href="_o_c_v_utils_8h.html#a7fe5bf75dbdbdb3b864fd17f80e8129f" target="_top" xlink:title=" ">
<polygon fill="white" stroke="#666666" points="866,-424.5 752,-424.5 752,-405.5 866,-405.5 866,-424.5"/>
<text text-anchor="middle" x="809" y="-412.5" font-family="Helvetica,sans-Serif" font-size="10.00">GetHomographyInliers</text>
</a>
</g>
</g>
<!-- Node10&#45;&gt;Node11 -->
<g id="edge10" class="edge">
<title>Node10&#45;&gt;Node11</title>
<path fill="none" stroke="#63b8ff" d="M493.55,-409.48C498.97,-411.94 504.22,-414.77 509,-418 529.65,-431.96 522.42,-450.45 545,-461 613.86,-493.16 642.03,-478.46 716,-461 740.55,-455.2 766.02,-441.8 783.92,-430.94"/>
<polygon fill="#63b8ff" stroke="#63b8ff" points="785.63,-434.01 792.24,-425.73 781.91,-428.08 785.63,-434.01"/>
</g>
<!-- Node12 -->
<g id="node12" class="node">
<title>Node12</title>
<g id="a_node12"><a xlink:href="class_o_c_v_feature_detector.html#ac868b4b67deb841ebb050993250fda2b" target="_top" xlink:title=" ">
<polygon fill="white" stroke="#666666" points="685,-452 576,-452 576,-422 685,-422 685,-452"/>
<text text-anchor="start" x="584" y="-440" font-family="Helvetica,sans-Serif" font-size="10.00">OCVFeatureDetector</text>
<text text-anchor="middle" x="630.5" y="-429" font-family="Helvetica,sans-Serif" font-size="10.00">::MatchFeatures</text>
</a>
</g>
</g>
<!-- Node10&#45;&gt;Node12 -->
<g id="edge11" class="edge">
<title>Node10&#45;&gt;Node12</title>
<path fill="none" stroke="#63b8ff" d="M505.26,-409.46C524.61,-413.75 545.52,-418.39 564.57,-422.61"/>
<polygon fill="#63b8ff" stroke="#63b8ff" points="563.55,-425.97 574.07,-424.71 565.07,-419.13 563.55,-425.97"/>
</g>
<!-- Node13 -->
<g id="node13" class="node">
<title>Node13</title>
<g id="a_node13"><a xlink:href="_o_c_v_utils_8h.html#ae0578b8b2c51f5555f86b17854eb6d88" target="_top" xlink:title=" ">
<polygon fill="white" stroke="#666666" points="652.5,-403.5 608.5,-403.5 608.5,-384.5 652.5,-384.5 652.5,-403.5"/>
<text text-anchor="middle" x="630.5" y="-391.5" font-family="Helvetica,sans-Serif" font-size="10.00">Points</text>
</a>
</g>
</g>
<!-- Node10&#45;&gt;Node13 -->
<g id="edge12" class="edge">
<title>Node10&#45;&gt;Node13</title>
<path fill="none" stroke="#63b8ff" d="M506.91,-394C537.92,-394 572.69,-394 597.26,-394"/>
<polygon fill="#63b8ff" stroke="#63b8ff" points="596.92,-397.5 606.92,-394 596.92,-390.5 596.92,-397.5"/>
</g>
<!-- Node15 -->
<g id="node15" class="node">
<title>Node15</title>
<g id="a_node15"><a xlink:href="class_planar_tracker_1_1_planar_tracker_impl.html#ab33c6c9dfe6b1c7d06478328d20c6905" target="_top" xlink:title=" ">
<polygon fill="white" stroke="#666666" points="716,-366 545,-366 545,-336 716,-336 716,-366"/>
<text text-anchor="start" x="553" y="-354" font-family="Helvetica,sans-Serif" font-size="10.00">PlanarTracker::PlanarTracker</text>
<text text-anchor="middle" x="630.5" y="-343" font-family="Helvetica,sans-Serif" font-size="10.00">Impl::UpdateTrackableHomography</text>
</a>
</g>
</g>
<!-- Node14&#45;&gt;Node15 -->
<g id="edge14" class="edge">
<title>Node14&#45;&gt;Node15</title>
<path fill="none" stroke="#63b8ff" d="M506.91,-347.84C515.57,-348.06 524.52,-348.29 533.47,-348.52"/>
<polygon fill="#63b8ff" stroke="#63b8ff" points="533.16,-352.02 543.25,-348.78 533.35,-345.02 533.16,-352.02"/>
</g>
<!-- Node15&#45;&gt;Node11 -->
<g id="edge15" class="edge">
<title>Node15&#45;&gt;Node11</title>
<path fill="none" stroke="#63b8ff" d="M686.79,-366.38C696.58,-369.38 706.64,-372.64 716,-376 736.42,-383.32 758.84,-392.8 776.44,-400.57"/>
<polygon fill="#63b8ff" stroke="#63b8ff" points="774.77,-403.66 785.33,-404.54 777.62,-397.27 774.77,-403.66"/>
</g>
<!-- Node16&#45;&gt;Node15 -->
<g id="edge24" class="edge">
<title>Node16&#45;&gt;Node15</title>
<path fill="none" stroke="#63b8ff" d="M455,-270.49C476.11,-286.6 511.28,-311.57 545,-327 548.58,-328.64 552.29,-330.19 556.07,-331.65"/>
<polygon fill="#63b8ff" stroke="#63b8ff" points="554.86,-334.93 565.46,-335.04 557.24,-328.35 554.86,-334.93"/>
</g>
<!-- Node17 -->
<g id="node17" class="node">
<title>Node17</title>
<g id="a_node17"><a xlink:href="class_planar_tracker_1_1_planar_tracker_impl.html#a3925e818c3b90e8917eefb9a0360c1b7" target="_top" xlink:title=" ">
<polygon fill="white" stroke="#666666" points="702.5,-318 558.5,-318 558.5,-288 702.5,-288 702.5,-318"/>
<text text-anchor="start" x="566.5" y="-306" font-family="Helvetica,sans-Serif" font-size="10.00">PlanarTracker::PlanarTracker</text>
<text text-anchor="middle" x="630.5" y="-295" font-family="Helvetica,sans-Serif" font-size="10.00">Impl::FloorVertexPoints</text>
</a>
</g>
</g>
<!-- Node16&#45;&gt;Node17 -->
<g id="edge17" class="edge">
<title>Node16&#45;&gt;Node17</title>
<path fill="none" stroke="#63b8ff" d="M497.95,-270.45C516.47,-275.03 536.92,-280.09 556.07,-284.83"/>
<polygon fill="#63b8ff" stroke="#63b8ff" points="555.15,-288.21 565.7,-287.21 556.83,-281.41 555.15,-288.21"/>
</g>
<!-- Node18 -->
<g id="node18" class="node">
<title>Node18</title>
<g id="a_node18"><a xlink:href="class_planar_tracker_1_1_planar_tracker_impl.html#aace5e63679577c60230fd0829ac39720" target="_top" xlink:title=" ">
<polygon fill="white" stroke="#666666" points="702.5,-270 558.5,-270 558.5,-240 702.5,-240 702.5,-270"/>
<text text-anchor="start" x="566.5" y="-258" font-family="Helvetica,sans-Serif" font-size="10.00">PlanarTracker::PlanarTracker</text>
<text text-anchor="middle" x="630.5" y="-247" font-family="Helvetica,sans-Serif" font-size="10.00">Impl::GetTemplateRoi</text>
</a>
</g>
</g>
<!-- Node16&#45;&gt;Node18 -->
<g id="edge18" class="edge">
<title>Node16&#45;&gt;Node18</title>
<path fill="none" stroke="#63b8ff" d="M506.91,-255C519.99,-255 533.75,-255 547.12,-255"/>
<polygon fill="#63b8ff" stroke="#63b8ff" points="546.73,-258.5 556.73,-255 546.73,-251.5 546.73,-258.5"/>
</g>
<!-- Node19 -->
<g id="node19" class="node">
<title>Node19</title>
<g id="a_node19"><a xlink:href="class_planar_tracker_1_1_planar_tracker_impl.html#ae3b724a97d4eb5bb851cfee5eeb379e8" target="_top" xlink:title=" ">
<polygon fill="white" stroke="#666666" points="702.5,-222 558.5,-222 558.5,-192 702.5,-192 702.5,-222"/>
<text text-anchor="start" x="566.5" y="-210" font-family="Helvetica,sans-Serif" font-size="10.00">PlanarTracker::PlanarTracker</text>
<text text-anchor="middle" x="630.5" y="-199" font-family="Helvetica,sans-Serif" font-size="10.00">Impl::GetVerticesFromPoint</text>
</a>
</g>
</g>
<!-- Node16&#45;&gt;Node19 -->
<g id="edge19" class="edge">
<title>Node16&#45;&gt;Node19</title>
<path fill="none" stroke="#63b8ff" d="M497.95,-239.55C516.47,-234.97 536.92,-229.91 556.07,-225.17"/>
<polygon fill="#63b8ff" stroke="#63b8ff" points="556.83,-228.59 565.7,-222.79 555.15,-221.79 556.83,-228.59"/>
</g>
<!-- Node20 -->
<g id="node20" class="node">
<title>Node20</title>
<g id="a_node20"><a xlink:href="class_planar_tracker_1_1_planar_tracker_impl.html#a03ff176f2a4ce679bdf4fa44f5790332" target="_top" xlink:title=" ">
<polygon fill="white" stroke="#666666" points="711,-174 550,-174 550,-144 711,-144 711,-174"/>
<text text-anchor="start" x="558" y="-162" font-family="Helvetica,sans-Serif" font-size="10.00">PlanarTracker::PlanarTracker</text>
<text text-anchor="middle" x="630.5" y="-151" font-family="Helvetica,sans-Serif" font-size="10.00">Impl::GetVerticesFromTopCorner</text>
</a>
</g>
</g>
<!-- Node16&#45;&gt;Node20 -->
<g id="edge20" class="edge">
<title>Node16&#45;&gt;Node20</title>
<path fill="none" stroke="#63b8ff" d="M494.1,-239.61C499.36,-237.13 504.42,-234.28 509,-231 530.68,-215.47 523.02,-198.1 545,-183 546.79,-181.77 548.64,-180.6 550.55,-179.49"/>
<polygon fill="#63b8ff" stroke="#63b8ff" points="551.77,-182.8 559.08,-175.12 548.58,-176.57 551.77,-182.8"/>
</g>
<!-- Node21 -->
<g id="node21" class="node">
<title>Node21</title>
<g id="a_node21"><a xlink:href="class_planar_tracker_1_1_planar_tracker_impl.html#a08ef0ac5b1da5887bc48f06eeb67ca16" target="_top" xlink:title=" ">
<polygon fill="white" stroke="#666666" points="702.5,-126 558.5,-126 558.5,-96 702.5,-96 702.5,-126"/>
<text text-anchor="start" x="566.5" y="-114" font-family="Helvetica,sans-Serif" font-size="10.00">PlanarTracker::PlanarTracker</text>
<text text-anchor="middle" x="630.5" y="-103" font-family="Helvetica,sans-Serif" font-size="10.00">Impl::InflateRoi</text>
</a>
</g>
</g>
<!-- Node16&#45;&gt;Node21 -->
<g id="edge21" class="edge">
<title>Node16&#45;&gt;Node21</title>
<path fill="none" stroke="#63b8ff" d="M497.32,-239.7C501.55,-237.22 505.51,-234.34 509,-231 541.91,-199.48 511.48,-165.87 545,-135 546.23,-133.87 547.5,-132.79 548.82,-131.77"/>
<polygon fill="#63b8ff" stroke="#63b8ff" points="550.38,-134.93 556.82,-126.52 546.54,-129.08 550.38,-134.93"/>
</g>
<!-- Node22 -->
<g id="node22" class="node">
<title>Node22</title>
<g id="a_node22"><a xlink:href="class_planar_tracker_1_1_planar_tracker_impl.html#a3fda737b66dff42b043010a8183fc792" target="_top" xlink:title=" ">
<polygon fill="white" stroke="#666666" points="702.5,-78 558.5,-78 558.5,-48 702.5,-48 702.5,-78"/>
<text text-anchor="start" x="566.5" y="-66" font-family="Helvetica,sans-Serif" font-size="10.00">PlanarTracker::PlanarTracker</text>
<text text-anchor="middle" x="630.5" y="-55" font-family="Helvetica,sans-Serif" font-size="10.00">Impl::IsRoiValidForFrame</text>
</a>
</g>
</g>
<!-- Node16&#45;&gt;Node22 -->
<g id="edge22" class="edge">
<title>Node16&#45;&gt;Node22</title>
<path fill="none" stroke="#63b8ff" d="M498.44,-239.69C502.31,-237.21 505.89,-234.34 509,-231 553.97,-182.73 499.1,-134.38 545,-87 546.19,-85.77 547.45,-84.6 548.75,-83.49"/>
<polygon fill="#63b8ff" stroke="#63b8ff" points="550.6,-86.46 556.77,-77.84 546.58,-80.74 550.6,-86.46"/>
</g>
<!-- Node23 -->
<g id="node23" class="node">
<title>Node23</title>
<g id="a_node23"><a xlink:href="class_planar_tracker_1_1_planar_tracker_impl.html#a78f2548808b2dbc02523d5b8bf20dc76" target="_top" xlink:title=" ">
<polygon fill="white" stroke="#666666" points="703.5,-30 557.5,-30 557.5,0 703.5,0 703.5,-30"/>
<text text-anchor="start" x="565.5" y="-18" font-family="Helvetica,sans-Serif" font-size="10.00">PlanarTracker::PlanarTracker</text>
<text text-anchor="middle" x="630.5" y="-7" font-family="Helvetica,sans-Serif" font-size="10.00">Impl::MatchTemplateToImage</text>
</a>
</g>
</g>
<!-- Node16&#45;&gt;Node23 -->
<g id="edge23" class="edge">
<title>Node16&#45;&gt;Node23</title>
<path fill="none" stroke="#63b8ff" d="M499,-239.67C502.69,-237.2 506.08,-234.33 509,-231 566.27,-165.74 486.48,-103.13 545,-39 546.01,-37.89 547.07,-36.83 548.17,-35.82"/>
<polygon fill="#63b8ff" stroke="#63b8ff" points="550.22,-38.66 556.14,-29.87 546.03,-33.05 550.22,-38.66"/>
</g>
</g>
</svg>
