<?xml version="1.0" encoding="UTF-8" standalone="no"?>
<!DOCTYPE svg PUBLIC "-//W3C//DTD SVG 1.1//EN"
 "http://www.w3.org/Graphics/SVG/1.1/DTD/svg11.dtd">
<!-- Generated by graphviz version 7.0.5 (20221223.1930)
 -->
<!-- Title: ARTrackableSquare::~ARTrackableSquare Pages: 1 -->
<svg width="433pt" height="64pt"
 viewBox="0.00 0.00 433.00 64.00" xmlns="http://www.w3.org/2000/svg" xmlns:xlink="http://www.w3.org/1999/xlink">
<g id="graph0" class="graph" transform="scale(1 1) rotate(0) translate(4 60)">
<title>ARTrackableSquare::~ARTrackableSquare</title>
<!-- Node1 -->
<g id="node1" class="node">
<title>Node1</title>
<g id="a_node1"><a xlink:title=" ">
<polygon fill="#999999" stroke="#666666" points="110,-42.5 0,-42.5 0,-12.5 110,-12.5 110,-42.5"/>
<text text-anchor="start" x="8" y="-30.5" font-family="Helvetica,sans-Serif" font-size="10.00">ARTrackableSquare::</text>
<text text-anchor="middle" x="55" y="-19.5" font-family="Helvetica,sans-Serif" font-size="10.00">~ARTrackableSquare</text>
</a>
</g>
</g>
<!-- Node2 -->
<g id="node2" class="node">
<title>Node2</title>
<g id="a_node2"><a xlink:href="class_a_r_trackable_square.html#a9f5452921633ac1bd40b661081a9da79" target="_top" xlink:title=" ">
<polygon fill="white" stroke="#666666" points="256,-42.5 146,-42.5 146,-12.5 256,-12.5 256,-42.5"/>
<text text-anchor="start" x="154" y="-30.5" font-family="Helvetica,sans-Serif" font-size="10.00">ARTrackableSquare::</text>
<text text-anchor="middle" x="201" y="-19.5" font-family="Helvetica,sans-Serif" font-size="10.00">unload</text>
</a>
</g>
</g>
<!-- Node1&#45;&gt;Node2 -->
<g id="edge1" class="edge">
<title>Node1&#45;&gt;Node2</title>
<path fill="none" stroke="#63b8ff" d="M110.44,-27.5C118.34,-27.5 126.55,-27.5 134.64,-27.5"/>
<polygon fill="#63b8ff" stroke="#63b8ff" points="134.45,-31 144.45,-27.5 134.45,-24 134.45,-31"/>
</g>
<!-- Node3 -->
<g id="node3" class="node">
<title>Node3</title>
<g id="a_node3"><a xlink:href="ar_patt_load_8c.html#a7e05342aa3eec9d14b56886aa9bd3731" target="_top" xlink:title="Frees (unloads) a pattern file from memory.">
<polygon fill="white" stroke="#666666" points="389.5,-56 327.5,-56 327.5,-37 389.5,-37 389.5,-56"/>
<text text-anchor="middle" x="358.5" y="-44" font-family="Helvetica,sans-Serif" font-size="10.00">arPattFree</text>
</a>
</g>
</g>
<!-- Node2&#45;&gt;Node3 -->
<g id="edge2" class="edge">
<title>Node2&#45;&gt;Node3</title>
<path fill="none" stroke="#63b8ff" d="M256.39,-34.15C276.02,-36.54 297.85,-39.21 316.18,-41.45"/>
<polygon fill="#63b8ff" stroke="#63b8ff" points="315.53,-44.9 325.88,-42.64 316.38,-37.95 315.53,-44.9"/>
</g>
<!-- Node4 -->
<g id="node4" class="node">
<title>Node4</title>
<g id="a_node4"><a xlink:href="class_a_r_trackable.html#aa425f1e3e1ba8d8b39ec6a34f8e2f403" target="_top" xlink:title="Frees allocated patterns and resets the pattern count to zero.">
<polygon fill="white" stroke="#666666" points="425,-19 292,-19 292,0 425,0 425,-19"/>
<text text-anchor="middle" x="358.5" y="-7" font-family="Helvetica,sans-Serif" font-size="10.00">ARTrackable::freePatterns</text>
</a>
</g>
</g>
<!-- Node2&#45;&gt;Node4 -->
<g id="edge3" class="edge">
<title>Node2&#45;&gt;Node4</title>
<path fill="none" stroke="#63b8ff" d="M256.39,-21.2C264.12,-20.31 272.2,-19.37 280.28,-18.44"/>
<polygon fill="#63b8ff" stroke="#63b8ff" points="280.61,-21.92 290.14,-17.3 279.81,-14.97 280.61,-21.92"/>
</g>
</g>
</svg>
