<?xml version="1.0" encoding="UTF-8" standalone="no"?>
<!DOCTYPE svg PUBLIC "-//W3C//DTD SVG 1.1//EN"
 "http://www.w3.org/Graphics/SVG/1.1/DTD/svg11.dtd">
<!-- Generated by graphviz version 7.0.5 (20221223.1930)
 -->
<!-- Title: WindowsMediaCapture::~WindowsMediaCapture Pages: 1 -->
<svg width="411pt" height="59pt"
 viewBox="0.00 0.00 411.00 59.00" xmlns="http://www.w3.org/2000/svg" xmlns:xlink="http://www.w3.org/1999/xlink">
<g id="graph0" class="graph" transform="scale(1 1) rotate(0) translate(4 55)">
<title>WindowsMediaCapture::~WindowsMediaCapture</title>
<!-- Node1 -->
<g id="node1" class="node">
<title>Node1</title>
<g id="a_node1"><a xlink:title=" ">
<polygon fill="#999999" stroke="#666666" points="130,-51 0,-51 0,-21 130,-21 130,-51"/>
<text text-anchor="start" x="8" y="-39" font-family="Helvetica,sans-Serif" font-size="10.00">WindowsMediaCapture</text>
<text text-anchor="middle" x="65" y="-28" font-family="Helvetica,sans-Serif" font-size="10.00">::~WindowsMediaCapture</text>
</a>
</g>
</g>
<!-- Node2 -->
<g id="node2" class="node">
<title>Node2</title>
<g id="a_node2"><a xlink:href="_windows_media_capture_8cpp.html#a5d2988854fd247304b4976371023a76b" target="_top" xlink:title=" ">
<polygon fill="white" stroke="#666666" points="403,-45.5 320,-45.5 320,-26.5 403,-26.5 403,-45.5"/>
<text text-anchor="middle" x="361.5" y="-33.5" font-family="Helvetica,sans-Serif" font-size="10.00">GetTimeStamp</text>
</a>
</g>
</g>
<!-- Node1&#45;&gt;Node2 -->
<g id="edge1" class="edge">
<title>Node1&#45;&gt;Node2</title>
<path fill="none" stroke="#63b8ff" d="M130.28,-38.21C142.15,-38.54 154.45,-38.83 166,-39 218.44,-39.79 231.57,-40.03 284,-39 291.86,-38.85 300.17,-38.6 308.3,-38.32"/>
<polygon fill="#63b8ff" stroke="#63b8ff" points="308.24,-41.83 318.1,-37.96 307.98,-34.83 308.24,-41.83"/>
</g>
<!-- Node3 -->
<g id="node3" class="node">
<title>Node3</title>
<g id="a_node3"><a xlink:href="class_windows_media_capture.html#a36668248a656ec8d24aace6eddc2383c" target="_top" xlink:title=" ">
<polygon fill="white" stroke="#666666" points="284,-30 166,-30 166,0 284,0 284,-30"/>
<text text-anchor="start" x="174" y="-18" font-family="Helvetica,sans-Serif" font-size="10.00">WindowsMediaCapture</text>
<text text-anchor="middle" x="225" y="-7" font-family="Helvetica,sans-Serif" font-size="10.00">::StopCapture</text>
</a>
</g>
</g>
<!-- Node1&#45;&gt;Node3 -->
<g id="edge2" class="edge">
<title>Node1&#45;&gt;Node3</title>
<path fill="none" stroke="#63b8ff" d="M130.26,-27.46C138.22,-26.4 146.38,-25.32 154.41,-24.25"/>
<polygon fill="#63b8ff" stroke="#63b8ff" points="154.69,-27.74 164.14,-22.96 153.77,-20.8 154.69,-27.74"/>
</g>
<!-- Node3&#45;&gt;Node2 -->
<g id="edge3" class="edge">
<title>Node3&#45;&gt;Node2</title>
<path fill="none" stroke="#63b8ff" d="M284.21,-24.09C292.23,-25.34 300.41,-26.62 308.31,-27.85"/>
<polygon fill="#63b8ff" stroke="#63b8ff" points="307.7,-31.3 318.12,-29.38 308.78,-24.38 307.7,-31.3"/>
</g>
</g>
</svg>
