<?xml version="1.0" encoding="UTF-8" standalone="no"?>
<!DOCTYPE svg PUBLIC "-//W3C//DTD SVG 1.1//EN"
 "http://www.w3.org/Graphics/SVG/1.1/DTD/svg11.dtd">
<!-- Generated by graphviz version 2.40.1 (20161225.0304)
 -->
<!-- Title: ARController::loadOpticalParams Pages: 1 -->
<svg width="450pt" height="249pt"
 viewBox="0.00 0.00 450.16 249.00" xmlns="http://www.w3.org/2000/svg" xmlns:xlink="http://www.w3.org/1999/xlink">
<g id="graph0" class="graph" transform="scale(1 1) rotate(0) translate(4 245)">
<title>ARController::loadOpticalParams</title>
<polygon fill="#ffffff" stroke="transparent" points="-4,4 -4,-245 446.1582,-245 446.1582,4 -4,4"/>
<!-- Node62 -->
<g id="node1" class="node">
<title>Node62</title>
<polygon fill="#bfbfbf" stroke="#000000" points="0,-106.5 0,-134.5 128.8271,-134.5 128.8271,-106.5 0,-106.5"/>
<text text-anchor="start" x="8" y="-122.5" font-family="Helvetica,sans-Serif" font-size="10.00" fill="#000000">ARController::loadOptical</text>
<text text-anchor="middle" x="64.4136" y="-112.5" font-family="Helvetica,sans-Serif" font-size="10.00" fill="#000000">Params</text>
</g>
<!-- Node63 -->
<g id="node2" class="node">
<title>Node63</title>
<g id="a_node2"><a xlink:href="param_8h.html#a03e35c9acf94cd23eeab25815c310cad" target="_top" xlink:title="arParamLoadOptical">
<polygon fill="#ffffff" stroke="#000000" points="189.7441,-222.5 189.7441,-240.5 297.458,-240.5 297.458,-222.5 189.7441,-222.5"/>
<text text-anchor="middle" x="243.6011" y="-228.5" font-family="Helvetica,sans-Serif" font-size="10.00" fill="#000000">arParamLoadOptical</text>
</a>
</g>
</g>
<!-- Node62&#45;&gt;Node63 -->
<g id="edge1" class="edge">
<title>Node62&#45;&gt;Node63</title>
<path fill="none" stroke="#191970" d="M75.4268,-134.5983C92.3476,-155.2422 126.7966,-193.4165 164.8271,-213.5 169.6341,-216.0385 174.7907,-218.2209 180.0809,-220.0969"/>
<polygon fill="#191970" stroke="#191970" points="179.1107,-223.461 189.7011,-223.1534 181.2304,-216.7896 179.1107,-223.461"/>
</g>
<!-- Node64 -->
<g id="node3" class="node">
<title>Node64</title>
<g id="a_node3"><a xlink:href="param_8h.html#a6457409f7308cea3b0818cc3941fbb96" target="_top" xlink:title="arParamLoadOpticalFromBuffer">
<polygon fill="#ffffff" stroke="#000000" points="164.8271,-185.5 164.8271,-203.5 322.375,-203.5 322.375,-185.5 164.8271,-185.5"/>
<text text-anchor="middle" x="243.6011" y="-191.5" font-family="Helvetica,sans-Serif" font-size="10.00" fill="#000000">arParamLoadOpticalFromBuffer</text>
</a>
</g>
</g>
<!-- Node62&#45;&gt;Node64 -->
<g id="edge2" class="edge">
<title>Node62&#45;&gt;Node64</title>
<path fill="none" stroke="#191970" d="M85.4833,-134.5922C105.2264,-147.2182 135.945,-165.4076 164.8271,-176.5 171.0743,-178.8993 177.7285,-181.0294 184.4211,-182.9073"/>
<polygon fill="#191970" stroke="#191970" points="183.65,-186.3235 194.2112,-185.4803 185.4293,-179.5534 183.65,-186.3235"/>
</g>
<!-- Node65 -->
<g id="node4" class="node">
<title>Node65</title>
<g id="a_node4"><a xlink:href="param_8h.html#a30181600758bb1a05334af96f16b5210" target="_top" xlink:title="arParamDispOptical">
<polygon fill="#ffffff" stroke="#000000" points="190.8647,-148.5 190.8647,-166.5 296.3374,-166.5 296.3374,-148.5 190.8647,-148.5"/>
<text text-anchor="middle" x="243.6011" y="-154.5" font-family="Helvetica,sans-Serif" font-size="10.00" fill="#000000">arParamDispOptical</text>
</a>
</g>
</g>
<!-- Node62&#45;&gt;Node65 -->
<g id="edge3" class="edge">
<title>Node62&#45;&gt;Node65</title>
<path fill="none" stroke="#191970" d="M128.8512,-133.8056C148.9299,-137.9516 170.8429,-142.4763 190.0889,-146.4504"/>
<polygon fill="#191970" stroke="#191970" points="189.3852,-149.8789 199.8864,-148.4735 190.8008,-143.0235 189.3852,-149.8789"/>
</g>
<!-- Node66 -->
<g id="node5" class="node">
<title>Node66</title>
<g id="a_node5"><a xlink:href="mtx_8h.html#a5c1425e406e6be39c3e0255ba324b6d2" target="_top" xlink:title="mtxLoadIdentityf">
<polygon fill="#ffffff" stroke="#000000" points="198.9141,-111.5 198.9141,-129.5 288.2881,-129.5 288.2881,-111.5 198.9141,-111.5"/>
<text text-anchor="middle" x="243.6011" y="-117.5" font-family="Helvetica,sans-Serif" font-size="10.00" fill="#000000">mtxLoadIdentityf</text>
</a>
</g>
</g>
<!-- Node62&#45;&gt;Node66 -->
<g id="edge4" class="edge">
<title>Node62&#45;&gt;Node66</title>
<path fill="none" stroke="#191970" d="M128.8512,-120.5C148.407,-120.5 169.7029,-120.5 188.5801,-120.5"/>
<polygon fill="#191970" stroke="#191970" points="188.7922,-124.0001 198.7922,-120.5 188.7921,-117.0001 188.7922,-124.0001"/>
</g>
<!-- Node67 -->
<g id="node6" class="node">
<title>Node67</title>
<g id="a_node6"><a xlink:href="mtx_8h.html#aed5ebe5a63efc9a61a51880bf58e47e5" target="_top" xlink:title="mtxPerspectivef">
<polygon fill="#ffffff" stroke="#000000" points="200.0347,-74.5 200.0347,-92.5 287.1675,-92.5 287.1675,-74.5 200.0347,-74.5"/>
<text text-anchor="middle" x="243.6011" y="-80.5" font-family="Helvetica,sans-Serif" font-size="10.00" fill="#000000">mtxPerspectivef</text>
</a>
</g>
</g>
<!-- Node62&#45;&gt;Node67 -->
<g id="edge5" class="edge">
<title>Node62&#45;&gt;Node67</title>
<path fill="none" stroke="#191970" d="M128.8512,-107.1944C148.9299,-103.0484 170.8429,-98.5237 190.0889,-94.5496"/>
<polygon fill="#191970" stroke="#191970" points="190.8008,-97.9765 199.8864,-92.5265 189.3852,-91.1211 190.8008,-97.9765"/>
</g>
<!-- Node69 -->
<g id="node8" class="node">
<title>Node69</title>
<g id="a_node8"><a xlink:href="mtx_8h.html#aedae765555fd3cbbe784ebc2a588fdd8" target="_top" xlink:title="mtxLoadIdentityd">
<polygon fill="#ffffff" stroke="#000000" points="197.5225,-37.5 197.5225,-55.5 289.6797,-55.5 289.6797,-37.5 197.5225,-37.5"/>
<text text-anchor="middle" x="243.6011" y="-43.5" font-family="Helvetica,sans-Serif" font-size="10.00" fill="#000000">mtxLoadIdentityd</text>
</a>
</g>
</g>
<!-- Node62&#45;&gt;Node69 -->
<g id="edge7" class="edge">
<title>Node62&#45;&gt;Node69</title>
<path fill="none" stroke="#191970" d="M86.3229,-106.2796C106.1348,-93.9696 136.4616,-76.4657 164.8271,-65.5 172.0236,-62.7179 179.7521,-60.2559 187.4543,-58.1044"/>
<polygon fill="#191970" stroke="#191970" points="188.3784,-61.4804 197.1543,-55.5446 186.5922,-54.7121 188.3784,-61.4804"/>
</g>
<!-- Node70 -->
<g id="node9" class="node">
<title>Node70</title>
<g id="a_node9"><a xlink:href="mtx_8h.html#a81515ddf0090813c266d75f0fbb107a0" target="_top" xlink:title="mtxPerspectived">
<polygon fill="#ffffff" stroke="#000000" points="198.6431,-.5 198.6431,-18.5 288.5591,-18.5 288.5591,-.5 198.6431,-.5"/>
<text text-anchor="middle" x="243.6011" y="-6.5" font-family="Helvetica,sans-Serif" font-size="10.00" fill="#000000">mtxPerspectived</text>
</a>
</g>
</g>
<!-- Node62&#45;&gt;Node70 -->
<g id="edge8" class="edge">
<title>Node62&#45;&gt;Node70</title>
<path fill="none" stroke="#191970" d="M75.7758,-106.2769C92.8788,-85.8576 127.2602,-48.4986 164.8271,-28.5 172.2354,-24.5563 180.4687,-21.4188 188.7401,-18.9259"/>
<polygon fill="#191970" stroke="#191970" points="189.6937,-22.2938 198.4205,-16.286 187.852,-15.5404 189.6937,-22.2938"/>
</g>
<!-- Node68 -->
<g id="node7" class="node">
<title>Node68</title>
<g id="a_node7"><a xlink:href="mtx_8c.html#af377adb88126f1b018b6be776c49cf35" target="_top" xlink:title="mtxMultMatrixf">
<polygon fill="#ffffff" stroke="#000000" points="359.7666,-74.5 359.7666,-92.5 440.7666,-92.5 440.7666,-74.5 359.7666,-74.5"/>
<text text-anchor="middle" x="400.2666" y="-80.5" font-family="Helvetica,sans-Serif" font-size="10.00" fill="#000000">mtxMultMatrixf</text>
</a>
</g>
</g>
<!-- Node67&#45;&gt;Node68 -->
<g id="edge6" class="edge">
<title>Node67&#45;&gt;Node68</title>
<path fill="none" stroke="#191970" d="M287.2412,-83.5C306.5161,-83.5 329.303,-83.5 349.3489,-83.5"/>
<polygon fill="#191970" stroke="#191970" points="349.5487,-87.0001 359.5486,-83.5 349.5486,-80.0001 349.5487,-87.0001"/>
</g>
<!-- Node71 -->
<g id="node10" class="node">
<title>Node71</title>
<g id="a_node10"><a xlink:href="mtx_8c.html#a46f08e4d7a5d5cc03290d3a166b723d0" target="_top" xlink:title="mtxMultMatrixd">
<polygon fill="#ffffff" stroke="#000000" points="358.375,-.5 358.375,-18.5 442.1582,-18.5 442.1582,-.5 358.375,-.5"/>
<text text-anchor="middle" x="400.2666" y="-6.5" font-family="Helvetica,sans-Serif" font-size="10.00" fill="#000000">mtxMultMatrixd</text>
</a>
</g>
</g>
<!-- Node70&#45;&gt;Node71 -->
<g id="edge9" class="edge">
<title>Node70&#45;&gt;Node71</title>
<path fill="none" stroke="#191970" d="M288.9152,-9.5C307.453,-9.5 329.0107,-9.5 348.1926,-9.5"/>
<polygon fill="#191970" stroke="#191970" points="348.2735,-13.0001 358.2735,-9.5 348.2734,-6.0001 348.2735,-13.0001"/>
</g>
</g>
</svg>
