<?xml version="1.0" encoding="UTF-8" standalone="no"?>
<!DOCTYPE svg PUBLIC "-//W3C//DTD SVG 1.1//EN"
 "http://www.w3.org/Graphics/SVG/1.1/DTD/svg11.dtd">
<!-- Generated by graphviz version 7.0.5 (20221223.1930)
 -->
<!-- Title: ARController::update Pages: 1 -->
<svg width="312pt" height="235pt"
 viewBox="0.00 0.00 312.00 235.00" xmlns="http://www.w3.org/2000/svg" xmlns:xlink="http://www.w3.org/1999/xlink">
<g id="graph0" class="graph" transform="scale(1 1) rotate(0) translate(4 231)">
<title>ARController::update</title>
<!-- Node1 -->
<g id="node1" class="node">
<title>Node1</title>
<g id="a_node1"><a xlink:title="Performs tracking and updates all trackables.">
<polygon fill="#999999" stroke="#666666" points="108,-114 0,-114 0,-95 108,-95 108,-114"/>
<text text-anchor="middle" x="54" y="-102" font-family="Helvetica,sans-Serif" font-size="10.00">ARController::update</text>
</a>
</g>
</g>
<!-- Node2 -->
<g id="node2" class="node">
<title>Node2</title>
<g id="a_node2"><a xlink:href="class_a_r_video_source.html#a3d4b14784d083ae76f43c8942cb9076b" target="_top" xlink:title="Checkin a locked video frame.">
<polygon fill="white" stroke="#666666" points="301,-227 147,-227 147,-208 301,-208 301,-227"/>
<text text-anchor="middle" x="224" y="-215" font-family="Helvetica,sans-Serif" font-size="10.00">ARVideoSource::checkinFrame</text>
</a>
</g>
</g>
<!-- Node1&#45;&gt;Node2 -->
<g id="edge1" class="edge">
<title>Node1&#45;&gt;Node2</title>
<path fill="none" stroke="#63b8ff" d="M61.29,-114.23C74.28,-133.5 106.06,-176.56 144,-198.5 147.17,-200.34 150.52,-202 153.97,-203.49"/>
<polygon fill="#63b8ff" stroke="#63b8ff" points="152.55,-206.7 163.14,-206.99 155.04,-200.16 152.55,-206.7"/>
</g>
<!-- Node3 -->
<g id="node3" class="node">
<title>Node3</title>
<g id="a_node3"><a xlink:href="class_a_r_video_source.html#a0870e3e3099fe2bede89980bc89c5e70" target="_top" xlink:title="Checkout a locked video frame if the frame&#39;s timestamp is newer than &#39;time&#39;.">
<polygon fill="white" stroke="#666666" points="304,-189.5 144,-189.5 144,-159.5 304,-159.5 304,-189.5"/>
<text text-anchor="start" x="152" y="-177.5" font-family="Helvetica,sans-Serif" font-size="10.00">ARVideoSource::checkoutFrame</text>
<text text-anchor="middle" x="224" y="-166.5" font-family="Helvetica,sans-Serif" font-size="10.00">IfNewerThan</text>
</a>
</g>
</g>
<!-- Node1&#45;&gt;Node3 -->
<g id="edge2" class="edge">
<title>Node1&#45;&gt;Node3</title>
<path fill="none" stroke="#63b8ff" d="M71.95,-114.45C89.54,-124.48 118.06,-139.96 144,-150.5 148.26,-152.23 152.69,-153.9 157.18,-155.51"/>
<polygon fill="#63b8ff" stroke="#63b8ff" points="155.7,-158.7 166.3,-158.63 157.97,-152.08 155.7,-158.7"/>
</g>
<!-- Node4 -->
<g id="node4" class="node">
<title>Node4</title>
<g id="a_node4"><a xlink:href="class_a_r_video_source.html#a5feeb630d5706513ba1d48ba7dcd2c31" target="_top" xlink:title="Returns the camera parameters for the video source.">
<polygon fill="white" stroke="#666666" points="294,-141.5 154,-141.5 154,-111.5 294,-111.5 294,-141.5"/>
<text text-anchor="start" x="162" y="-129.5" font-family="Helvetica,sans-Serif" font-size="10.00">ARVideoSource::getCamera</text>
<text text-anchor="middle" x="224" y="-118.5" font-family="Helvetica,sans-Serif" font-size="10.00">Parameters</text>
</a>
</g>
</g>
<!-- Node1&#45;&gt;Node4 -->
<g id="edge3" class="edge">
<title>Node1&#45;&gt;Node4</title>
<path fill="none" stroke="#63b8ff" d="M108.16,-111.46C119.08,-112.89 130.82,-114.43 142.47,-115.95"/>
<polygon fill="#63b8ff" stroke="#63b8ff" points="141.71,-119.38 152.08,-117.21 142.62,-112.44 141.71,-119.38"/>
</g>
<!-- Node5 -->
<g id="node5" class="node">
<title>Node5</title>
<g id="a_node5"><a xlink:href="class_a_r_video_source.html#a4328e4435cfcff995216fb77ddb93619" target="_top" xlink:title="Returns the pixel format of the video.">
<polygon fill="white" stroke="#666666" points="303,-93 145,-93 145,-74 303,-74 303,-93"/>
<text text-anchor="middle" x="224" y="-81" font-family="Helvetica,sans-Serif" font-size="10.00">ARVideoSource::getPixelFormat</text>
</a>
</g>
</g>
<!-- Node1&#45;&gt;Node5 -->
<g id="edge4" class="edge">
<title>Node1&#45;&gt;Node5</title>
<path fill="none" stroke="#63b8ff" d="M108.16,-97.86C116.24,-96.84 124.77,-95.78 133.38,-94.7"/>
<polygon fill="#63b8ff" stroke="#63b8ff" points="133.73,-98.19 143.22,-93.47 132.86,-91.24 133.73,-98.19"/>
</g>
<!-- Node6 -->
<g id="node6" class="node">
<title>Node6</title>
<g id="a_node6"><a xlink:href="class_a_r_video_source.html#a1e884eb3148cf3f996be7e7a0e79b546" target="_top" xlink:title="Returns true if the video source is open.">
<polygon fill="white" stroke="#666666" points="285.5,-56 162.5,-56 162.5,-37 285.5,-37 285.5,-56"/>
<text text-anchor="middle" x="224" y="-44" font-family="Helvetica,sans-Serif" font-size="10.00">ARVideoSource::isOpen</text>
</a>
</g>
</g>
<!-- Node1&#45;&gt;Node6 -->
<g id="edge5" class="edge">
<title>Node1&#45;&gt;Node6</title>
<path fill="none" stroke="#63b8ff" d="M74.75,-94.64C92.52,-86.05 119.54,-73.73 144,-65.5 150.67,-63.26 157.74,-61.17 164.8,-59.25"/>
<polygon fill="#63b8ff" stroke="#63b8ff" points="165.56,-62.67 174.36,-56.78 163.8,-55.9 165.56,-62.67"/>
</g>
<!-- Node7 -->
<g id="node7" class="node">
<title>Node7</title>
<g id="a_node7"><a xlink:href="class_a_r_video_source.html#adcdfb6d6fcf844c7578bec2b3f978108" target="_top" xlink:title="Returns true if the video source is open and ready to be queried.">
<polygon fill="white" stroke="#666666" points="292,-19 156,-19 156,0 292,0 292,-19"/>
<text text-anchor="middle" x="224" y="-7" font-family="Helvetica,sans-Serif" font-size="10.00">ARVideoSource::isRunning</text>
</a>
</g>
</g>
<!-- Node1&#45;&gt;Node7 -->
<g id="edge6" class="edge">
<title>Node1&#45;&gt;Node7</title>
<path fill="none" stroke="#63b8ff" d="M63.53,-94.67C78.26,-78.35 110.15,-45.75 144,-28.5 147.92,-26.5 152.05,-24.71 156.29,-23.1"/>
<polygon fill="#63b8ff" stroke="#63b8ff" points="157.21,-26.49 165.56,-19.96 154.96,-19.86 157.21,-26.49"/>
</g>
</g>
</svg>
