<?xml version="1.0" encoding="UTF-8" standalone="no"?>
<!DOCTYPE svg PUBLIC "-//W3C//DTD SVG 1.1//EN"
 "http://www.w3.org/Graphics/SVG/1.1/DTD/svg11.dtd">
<!-- Generated by graphviz version 2.40.1 (20161225.0304)
 -->
<!-- Title: ARVideoView::drawDebugImage Pages: 1 -->
<svg width="339pt" height="185pt"
 viewBox="0.00 0.00 338.77 185.00" xmlns="http://www.w3.org/2000/svg" xmlns:xlink="http://www.w3.org/1999/xlink">
<g id="graph0" class="graph" transform="scale(1 1) rotate(0) translate(4 181)">
<title>ARVideoView::drawDebugImage</title>
<polygon fill="#ffffff" stroke="transparent" points="-4,4 -4,-181 334.7734,-181 334.7734,4 -4,4"/>
<!-- Node14 -->
<g id="node1" class="node">
<title>Node14</title>
<polygon fill="#bfbfbf" stroke="#000000" points="0,-84.5 0,-102.5 161.1074,-102.5 161.1074,-84.5 0,-84.5"/>
<text text-anchor="middle" x="80.5537" y="-90.5" font-family="Helvetica,sans-Serif" font-size="10.00" fill="#000000">ARVideoView::drawDebugImage</text>
</g>
<!-- Node15 -->
<g id="node2" class="node">
<title>Node15</title>
<g id="a_node2"><a xlink:href="arg_8c.html#aab881f83622055d786e2f42086220b94" target="_top" xlink:title="Set the format of pixel data which will be passed to arglDispImage*() ">
<polygon fill="#ffffff" stroke="#000000" points="213.4258,-158.5 213.4258,-176.5 314.4551,-176.5 314.4551,-158.5 213.4258,-158.5"/>
<text text-anchor="middle" x="263.9404" y="-164.5" font-family="Helvetica,sans-Serif" font-size="10.00" fill="#000000">arglPixelFormatSet</text>
</a>
</g>
</g>
<!-- Node14&#45;&gt;Node15 -->
<g id="edge1" class="edge">
<title>Node14&#45;&gt;Node15</title>
<path fill="none" stroke="#191970" d="M97.1138,-102.6645C119.3352,-114.6783 160.2773,-135.8263 197.1074,-149.5 203.0216,-151.6957 209.3208,-153.7479 215.5985,-155.623"/>
<polygon fill="#191970" stroke="#191970" points="214.8103,-159.0378 225.3871,-158.4191 216.733,-152.307 214.8103,-159.0378"/>
</g>
<!-- Node16 -->
<g id="node3" class="node">
<title>Node16</title>
<g id="a_node3"><a xlink:href="arg_8c.html#a6b7919e1a7ade7c23394eeb964be17f6" target="_top" xlink:title="Specify a desired pixel buffer size larger than the camera image size. ">
<polygon fill="#ffffff" stroke="#000000" points="206.2822,-121.5 206.2822,-139.5 321.5986,-139.5 321.5986,-121.5 206.2822,-121.5"/>
<text text-anchor="middle" x="263.9404" y="-127.5" font-family="Helvetica,sans-Serif" font-size="10.00" fill="#000000">arglPixelBufferSizeSet</text>
</a>
</g>
</g>
<!-- Node14&#45;&gt;Node16 -->
<g id="edge2" class="edge">
<title>Node14&#45;&gt;Node16</title>
<path fill="none" stroke="#191970" d="M125.4151,-102.5512C150.7081,-107.6543 182.4997,-114.0686 209.2453,-119.4647"/>
<polygon fill="#191970" stroke="#191970" points="208.73,-122.9312 219.2247,-121.4782 210.1144,-116.0695 208.73,-122.9312"/>
</g>
<!-- Node17 -->
<g id="node4" class="node">
<title>Node17</title>
<g id="a_node4"><a xlink:href="arg_8c.html#a60f8657d50e21a7d8213a628bda888a9" target="_top" xlink:title="Set the current video image drawing scalefactor. ">
<polygon fill="#ffffff" stroke="#000000" points="216.48,-84.5 216.48,-102.5 311.4009,-102.5 311.4009,-84.5 216.48,-84.5"/>
<text text-anchor="middle" x="263.9404" y="-90.5" font-family="Helvetica,sans-Serif" font-size="10.00" fill="#000000">arglSetPixelZoom</text>
</a>
</g>
</g>
<!-- Node14&#45;&gt;Node17 -->
<g id="edge3" class="edge">
<title>Node14&#45;&gt;Node17</title>
<path fill="none" stroke="#191970" d="M161.2567,-93.5C176.4126,-93.5 191.9749,-93.5 206.2551,-93.5"/>
<polygon fill="#191970" stroke="#191970" points="206.4026,-97.0001 216.4026,-93.5 206.4025,-90.0001 206.4026,-97.0001"/>
</g>
<!-- Node18 -->
<g id="node5" class="node">
<title>Node18</title>
<g id="a_node5"><a xlink:href="arg_8c.html#a25cc1097132fc11d1acb6b37694b5d2a" target="_top" xlink:title="Upload a buffer of pixel data to an OpenGL texture for later use by arglDispImage(). ">
<polygon fill="#ffffff" stroke="#000000" points="197.1074,-37.5 197.1074,-65.5 330.7734,-65.5 330.7734,-37.5 197.1074,-37.5"/>
<text text-anchor="start" x="205.1074" y="-53.5" font-family="Helvetica,sans-Serif" font-size="10.00" fill="#000000">arglPixelBufferDataUpload</text>
<text text-anchor="middle" x="263.9404" y="-43.5" font-family="Helvetica,sans-Serif" font-size="10.00" fill="#000000">BiPlanar</text>
</a>
</g>
</g>
<!-- Node14&#45;&gt;Node18 -->
<g id="edge4" class="edge">
<title>Node14&#45;&gt;Node18</title>
<path fill="none" stroke="#191970" d="M119.8948,-84.4899C141.0772,-79.6386 167.8654,-73.5035 192.5787,-67.8436"/>
<polygon fill="#191970" stroke="#191970" points="193.689,-71.18 202.6552,-65.5358 192.1262,-64.3566 193.689,-71.18"/>
</g>
<!-- Node19 -->
<g id="node6" class="node">
<title>Node19</title>
<g id="a_node6"><a xlink:href="arg_8c.html#afdd586c0ba2cc7df1347cc0522c6777b" target="_top" xlink:title="Display an ARVideo image, by drawing it using OpenGL. ">
<polygon fill="#ffffff" stroke="#000000" points="223.7041,-.5 223.7041,-18.5 304.1768,-18.5 304.1768,-.5 223.7041,-.5"/>
<text text-anchor="middle" x="263.9404" y="-6.5" font-family="Helvetica,sans-Serif" font-size="10.00" fill="#000000">arglDispImage</text>
</a>
</g>
</g>
<!-- Node14&#45;&gt;Node19 -->
<g id="edge5" class="edge">
<title>Node14&#45;&gt;Node19</title>
<path fill="none" stroke="#191970" d="M94.3751,-84.3928C115.6764,-70.6856 158.1522,-44.6428 197.1074,-28.5 203.3218,-25.9248 210.0002,-23.5699 216.6454,-21.4616"/>
<polygon fill="#191970" stroke="#191970" points="217.7352,-24.7888 226.2999,-18.5522 215.7153,-18.0865 217.7352,-24.7888"/>
</g>
</g>
</svg>
