<?xml version="1.0" encoding="UTF-8" standalone="no"?>
<!DOCTYPE svg PUBLIC "-//W3C//DTD SVG 1.1//EN"
 "http://www.w3.org/Graphics/SVG/1.1/DTD/svg11.dtd">
<!-- Generated by graphviz version 8.0.5 (20230430.1635)
 -->
<!-- Title: ARTrackableSquare::initWithPatternFromBuffer Pages: 1 -->
<svg width="383pt" height="125pt"
 viewBox="0.00 0.00 383.00 124.88" xmlns="http://www.w3.org/2000/svg" xmlns:xlink="http://www.w3.org/1999/xlink">
<g id="graph0" class="graph" transform="scale(1 1) rotate(0) translate(4 120.88)">
<title>ARTrackableSquare::initWithPatternFromBuffer</title>
<!-- Node1 -->
<g id="node1" class="node">
<title>Node1</title>
<g id="a_node1"><a xlink:title=" ">
<polygon fill="#999999" stroke="#666666" points="129.25,-79.5 0,-79.5 0,-49 129.25,-49 129.25,-79.5"/>
<text text-anchor="start" x="8" y="-66" font-family="Helvetica,sans-Serif" font-size="10.00">ARTrackableSquare::</text>
<text text-anchor="middle" x="64.62" y="-54.75" font-family="Helvetica,sans-Serif" font-size="10.00">initWithPatternFromBuffer</text>
</a>
</g>
</g>
<!-- Node2 -->
<g id="node2" class="node">
<title>Node2</title>
<g id="a_node2"><a xlink:href="ar_patt_load_8c.html#a1eb242ab9531966ab8bd8a5379e78792" target="_top" xlink:title=" ">
<polygon fill="white" stroke="#666666" points="277.25,-116.88 165.25,-116.88 165.25,-97.62 277.25,-97.62 277.25,-116.88"/>
<text text-anchor="middle" x="221.25" y="-103.38" font-family="Helvetica,sans-Serif" font-size="10.00">arPattLoadFromBuffer</text>
</a>
</g>
</g>
<!-- Node1&#45;&gt;Node2 -->
<g id="edge1" class="edge">
<title>Node1&#45;&gt;Node2</title>
<path fill="none" stroke="#63b8ff" d="M121.89,-79.9C138.89,-84.62 157.36,-89.76 173.65,-94.29"/>
<polygon fill="#63b8ff" stroke="#63b8ff" points="172.44,-97.86 183.01,-97.17 174.31,-91.12 172.44,-97.86"/>
</g>
<!-- Node3 -->
<g id="node3" class="node">
<title>Node3</title>
<g id="a_node3"><a xlink:href="class_a_r_trackable_square.html#a9f5452921633ac1bd40b661081a9da79" target="_top" xlink:title=" ">
<polygon fill="white" stroke="#666666" points="276.12,-79.5 166.38,-79.5 166.38,-49 276.12,-49 276.12,-79.5"/>
<text text-anchor="start" x="174.38" y="-66" font-family="Helvetica,sans-Serif" font-size="10.00">ARTrackableSquare::</text>
<text text-anchor="middle" x="221.25" y="-54.75" font-family="Helvetica,sans-Serif" font-size="10.00">unload</text>
</a>
</g>
</g>
<!-- Node1&#45;&gt;Node3 -->
<g id="edge2" class="edge">
<title>Node1&#45;&gt;Node3</title>
<path fill="none" stroke="#63b8ff" d="M129.41,-64.25C137.85,-64.25 146.52,-64.25 154.99,-64.25"/>
<polygon fill="#63b8ff" stroke="#63b8ff" points="154.98,-67.75 164.98,-64.25 154.98,-60.75 154.98,-67.75"/>
</g>
<!-- Node5 -->
<g id="node5" class="node">
<title>Node5</title>
<g id="a_node5"><a xlink:href="class_a_r_trackable_square.html#af38499ff1ed1065ccb0be6f4cb431058" target="_top" xlink:title=" ">
<polygon fill="white" stroke="#666666" points="276.12,-30.5 166.38,-30.5 166.38,0 276.12,0 276.12,-30.5"/>
<text text-anchor="start" x="174.38" y="-17" font-family="Helvetica,sans-Serif" font-size="10.00">ARTrackableSquare::</text>
<text text-anchor="middle" x="221.25" y="-5.75" font-family="Helvetica,sans-Serif" font-size="10.00">width</text>
</a>
</g>
</g>
<!-- Node1&#45;&gt;Node5 -->
<g id="edge4" class="edge">
<title>Node1&#45;&gt;Node5</title>
<path fill="none" stroke="#63b8ff" d="M114.97,-48.61C129.41,-44.04 145.35,-38.99 160.36,-34.23"/>
<polygon fill="#63b8ff" stroke="#63b8ff" points="161.1,-37.35 169.57,-30.99 158.98,-30.68 161.1,-37.35"/>
</g>
<!-- Node4 -->
<g id="node4" class="node">
<title>Node4</title>
<g id="a_node4"><a xlink:href="ar_patt_load_8c.html#a7e05342aa3eec9d14b56886aa9bd3731" target="_top" xlink:title="Frees (unloads) a pattern file from memory.">
<polygon fill="white" stroke="#666666" points="375,-73.88 313.25,-73.88 313.25,-54.62 375,-54.62 375,-73.88"/>
<text text-anchor="middle" x="344.12" y="-60.38" font-family="Helvetica,sans-Serif" font-size="10.00">arPattFree</text>
</a>
</g>
</g>
<!-- Node3&#45;&gt;Node4 -->
<g id="edge3" class="edge">
<title>Node3&#45;&gt;Node4</title>
<path fill="none" stroke="#63b8ff" d="M276.32,-64.25C284.97,-64.25 293.79,-64.25 302.06,-64.25"/>
<polygon fill="#63b8ff" stroke="#63b8ff" points="301.94,-67.75 311.94,-64.25 301.94,-60.75 301.94,-67.75"/>
</g>
</g>
</svg>
