<?xml version="1.0" encoding="UTF-8" standalone="no"?>
<!DOCTYPE svg PUBLIC "-//W3C//DTD SVG 1.1//EN"
 "http://www.w3.org/Graphics/SVG/1.1/DTD/svg11.dtd">
<!-- Generated by graphviz version 7.0.5 (20221223.1930)
 -->
<!-- Title: TrackableInfo Pages: 1 -->
<svg width="944pt" height="211pt"
 viewBox="0.00 0.00 944.00 211.00" xmlns="http://www.w3.org/2000/svg" xmlns:xlink="http://www.w3.org/1999/xlink">
<g id="graph0" class="graph" transform="scale(1 1) rotate(0) translate(4 207)">
<title>TrackableInfo</title>
<!-- Node1 -->
<g id="node1" class="node">
<title>Node1</title>
<g id="a_node1"><a xlink:title=" ">
<polygon fill="#999999" stroke="#666666" points="936,-105.5 860,-105.5 860,-86.5 936,-86.5 936,-105.5"/>
<text text-anchor="middle" x="898" y="-93.5" font-family="Helvetica,sans-Serif" font-size="10.00">TrackableInfo</text>
</a>
</g>
</g>
<!-- Node2 -->
<g id="node2" class="node">
<title>Node2</title>
<g id="a_node2"><a xlink:title=" ">
<polygon fill="white" stroke="#666666" points="502,-172.5 374,-172.5 374,-153.5 502,-153.5 502,-172.5"/>
<text text-anchor="middle" x="438" y="-160.5" font-family="Helvetica,sans-Serif" font-size="10.00">std::vector&lt; cv::Point2f &gt;</text>
</a>
</g>
</g>
<!-- Node2&#45;&gt;Node1 -->
<g id="edge1" class="edge">
<title>Node2&#45;&gt;Node1</title>
<path fill="none" stroke="#9a32cd" stroke-dasharray="5,2" d="M513.76,-163.97C595.97,-163.08 731.13,-155.82 842,-122 855.13,-117.99 869.11,-111.35 879.69,-105.78"/>
<polygon fill="#9a32cd" stroke="#9a32cd" points="513.76,-160.47 503.78,-164.05 513.81,-167.47 513.76,-160.47"/>
<text text-anchor="middle" x="684.5" y="-195" font-family="Helvetica,sans-Serif" font-size="10.00"> _bBox</text>
<text text-anchor="middle" x="684.5" y="-184" font-family="Helvetica,sans-Serif" font-size="10.00">_bBoxTransformed</text>
<text text-anchor="middle" x="684.5" y="-173" font-family="Helvetica,sans-Serif" font-size="10.00">_cornerPoints</text>
<text text-anchor="middle" x="684.5" y="-162" font-family="Helvetica,sans-Serif" font-size="10.00">_points</text>
</g>
<!-- Node6 -->
<g id="node6" class="node">
<title>Node6</title>
<g id="a_node6"><a xlink:href="class_tracking_point_selector.html" target="_top" xlink:title=" ">
<polygon fill="white" stroke="#666666" points="741,-123.5 628,-123.5 628,-104.5 741,-104.5 741,-123.5"/>
<text text-anchor="middle" x="684.5" y="-111.5" font-family="Helvetica,sans-Serif" font-size="10.00">TrackingPointSelector</text>
</a>
</g>
</g>
<!-- Node2&#45;&gt;Node6 -->
<g id="edge8" class="edge">
<title>Node2&#45;&gt;Node6</title>
<path fill="none" stroke="#9a32cd" stroke-dasharray="5,2" d="M500.06,-150.76C541.33,-142.49 595.14,-131.71 633.8,-123.96"/>
<polygon fill="#9a32cd" stroke="#9a32cd" points="499.37,-147.33 490.26,-152.73 500.75,-154.19 499.37,-147.33"/>
<text text-anchor="middle" x="560.5" y="-148" font-family="Helvetica,sans-Serif" font-size="10.00"> _pts</text>
</g>
<!-- Node3 -->
<g id="node3" class="node">
<title>Node3</title>
<g id="a_node3"><a xlink:title=" ">
<polygon fill="white" stroke="#666666" points="714.5,-86.5 654.5,-86.5 654.5,-67.5 714.5,-67.5 714.5,-86.5"/>
<text text-anchor="middle" x="684.5" y="-74.5" font-family="Helvetica,sans-Serif" font-size="10.00">std::string</text>
</a>
</g>
</g>
<!-- Node3&#45;&gt;Node1 -->
<g id="edge2" class="edge">
<title>Node3&#45;&gt;Node1</title>
<path fill="none" stroke="#9a32cd" stroke-dasharray="5,2" d="M726.17,-77.97C757.83,-79.06 802.82,-81.33 842,-86 847.69,-86.68 853.67,-87.57 859.52,-88.55"/>
<polygon fill="#9a32cd" stroke="#9a32cd" points="726.34,-74.48 716.24,-77.66 726.12,-81.48 726.34,-74.48"/>
<text text-anchor="middle" x="806.5" y="-89" font-family="Helvetica,sans-Serif" font-size="10.00"> _fileName</text>
</g>
<!-- Node4 -->
<g id="node4" class="node">
<title>Node4</title>
<g id="a_node4"><a xlink:title=" ">
<polygon fill="white" stroke="#666666" points="485.5,-30 390.5,-30 390.5,0 485.5,0 485.5,-30"/>
<text text-anchor="start" x="398.5" y="-18" font-family="Helvetica,sans-Serif" font-size="10.00">std::basic_string&lt;</text>
<text text-anchor="middle" x="438" y="-7" font-family="Helvetica,sans-Serif" font-size="10.00"> Char &gt;</text>
</a>
</g>
</g>
<!-- Node4&#45;&gt;Node3 -->
<g id="edge3" class="edge">
<title>Node4&#45;&gt;Node3</title>
<path fill="none" stroke="#63b8ff" d="M496.71,-29.63C546.13,-42.17 615.28,-59.7 654.09,-69.54"/>
<polygon fill="#63b8ff" stroke="#63b8ff" points="497.87,-26.32 487.32,-27.25 496.15,-33.1 497.87,-26.32"/>
</g>
<!-- Node5 -->
<g id="node5" class="node">
<title>Node5</title>
<g id="a_node5"><a xlink:title=" ">
<polygon fill="white" stroke="#666666" points="753,-49.5 616,-49.5 616,-30.5 753,-30.5 753,-49.5"/>
<text text-anchor="middle" x="684.5" y="-37.5" font-family="Helvetica,sans-Serif" font-size="10.00">std::vector&lt; cv::KeyPoint &gt;</text>
</a>
</g>
</g>
<!-- Node5&#45;&gt;Node1 -->
<g id="edge4" class="edge">
<title>Node5&#45;&gt;Node1</title>
<path fill="none" stroke="#9a32cd" stroke-dasharray="5,2" d="M764.72,-47.91C789.87,-51.8 817.5,-57.55 842,-66 856.4,-70.96 871.5,-79.47 882.22,-86.16"/>
<polygon fill="#9a32cd" stroke="#9a32cd" points="765.26,-44.45 754.85,-46.47 764.24,-51.38 765.26,-44.45"/>
<text text-anchor="middle" x="806.5" y="-69" font-family="Helvetica,sans-Serif" font-size="10.00"> _featurePoints</text>
</g>
<!-- Node6&#45;&gt;Node1 -->
<g id="edge5" class="edge">
<title>Node6&#45;&gt;Node1</title>
<path fill="none" stroke="#9a32cd" stroke-dasharray="5,2" d="M752.57,-108.29C787.92,-105.28 829.97,-101.71 859.55,-99.19"/>
<polygon fill="#9a32cd" stroke="#9a32cd" points="752.52,-104.78 742.85,-109.12 753.11,-111.76 752.52,-104.78"/>
<text text-anchor="middle" x="806.5" y="-110" font-family="Helvetica,sans-Serif" font-size="10.00"> _trackSelection</text>
</g>
<!-- Node7 -->
<g id="node7" class="node">
<title>Node7</title>
<g id="a_node7"><a xlink:title=" ">
<polygon fill="white" stroke="#666666" points="292,-98.5 153,-98.5 153,-79.5 292,-79.5 292,-98.5"/>
<text text-anchor="middle" x="222.5" y="-86.5" font-family="Helvetica,sans-Serif" font-size="10.00">std::vector&lt; TrackedPoint &gt;</text>
</a>
</g>
</g>
<!-- Node7&#45;&gt;Node6 -->
<g id="edge6" class="edge">
<title>Node7&#45;&gt;Node6</title>
<path fill="none" stroke="#9a32cd" stroke-dasharray="5,2" d="M303.77,-93.65C305.87,-93.77 307.95,-93.89 310,-94 422.82,-100.28 554.82,-107.26 627.81,-111.09"/>
<polygon fill="#9a32cd" stroke="#9a32cd" points="304.12,-90.17 293.94,-93.1 303.73,-97.16 304.12,-90.17"/>
<text text-anchor="middle" x="438" y="-108" font-family="Helvetica,sans-Serif" font-size="10.00"> _selectedPts</text>
</g>
<!-- Node9 -->
<g id="node9" class="node">
<title>Node9</title>
<g id="a_node9"><a xlink:title=" ">
<polygon fill="white" stroke="#666666" points="505,-78 371,-78 371,-48 505,-48 505,-78"/>
<text text-anchor="start" x="379" y="-66" font-family="Helvetica,sans-Serif" font-size="10.00">std::map&lt; int, std</text>
<text text-anchor="middle" x="438" y="-55" font-family="Helvetica,sans-Serif" font-size="10.00">::vector&lt; TrackedPoint &gt; &gt;</text>
</a>
</g>
</g>
<!-- Node7&#45;&gt;Node9 -->
<g id="edge10" class="edge">
<title>Node7&#45;&gt;Node9</title>
<path fill="none" stroke="#9a32cd" stroke-dasharray="5,2" d="M303.6,-79.25C325.68,-76.56 349.38,-73.67 370.59,-71.09"/>
<polygon fill="#9a32cd" stroke="#9a32cd" points="303.23,-75.76 293.73,-80.45 304.08,-82.71 303.23,-75.76"/>
<text text-anchor="middle" x="331.5" y="-82" font-family="Helvetica,sans-Serif" font-size="10.00"> elements</text>
</g>
<!-- Node8 -->
<g id="node8" class="node">
<title>Node8</title>
<g id="a_node8"><a xlink:href="class_tracked_point.html" target="_top" xlink:title=" ">
<polygon fill="white" stroke="#666666" points="74,-98.5 0,-98.5 0,-79.5 74,-79.5 74,-98.5"/>
<text text-anchor="middle" x="37" y="-86.5" font-family="Helvetica,sans-Serif" font-size="10.00">TrackedPoint</text>
</a>
</g>
</g>
<!-- Node8&#45;&gt;Node7 -->
<g id="edge7" class="edge">
<title>Node8&#45;&gt;Node7</title>
<path fill="none" stroke="#9a32cd" stroke-dasharray="5,2" d="M85.49,-89C105.95,-89 130.26,-89 152.64,-89"/>
<polygon fill="#9a32cd" stroke="#9a32cd" points="85.77,-85.5 75.77,-89 85.77,-92.5 85.77,-85.5"/>
<text text-anchor="middle" x="113.5" y="-92" font-family="Helvetica,sans-Serif" font-size="10.00"> elements</text>
</g>
<!-- Node9&#45;&gt;Node6 -->
<g id="edge9" class="edge">
<title>Node9&#45;&gt;Node6</title>
<path fill="none" stroke="#9a32cd" stroke-dasharray="5,2" d="M516.58,-73.15C542.64,-77.23 571.74,-82.52 598,-89 606.19,-91.02 607.94,-92.52 616,-95 626.01,-98.07 636.91,-101.23 646.97,-104.06"/>
<polygon fill="#9a32cd" stroke="#9a32cd" points="517.14,-69.69 506.73,-71.64 516.09,-76.61 517.14,-69.69"/>
<text text-anchor="middle" x="560.5" y="-92" font-family="Helvetica,sans-Serif" font-size="10.00"> trackingPointBin</text>
</g>
</g>
</svg>
