<?xml version="1.0" encoding="UTF-8" standalone="no"?>
<!DOCTYPE svg PUBLIC "-//W3C//DTD SVG 1.1//EN"
 "http://www.w3.org/Graphics/SVG/1.1/DTD/svg11.dtd">
<!-- Generated by graphviz version 8.0.5 (20230430.1635)
 -->
<!-- Title: ARTrackerVideo Pages: 1 -->
<svg width="102pt" height="138pt"
 viewBox="0.00 0.00 102.00 137.75" xmlns="http://www.w3.org/2000/svg" xmlns:xlink="http://www.w3.org/1999/xlink">
<g id="graph0" class="graph" transform="scale(1 1) rotate(0) translate(4 133.75)">
<title>ARTrackerVideo</title>
<!-- Node1 -->
<g id="node1" class="node">
<title>Node1</title>
<g id="a_node1"><a xlink:title=" ">
<polygon fill="#999999" stroke="#666666" points="91,-74.5 3,-74.5 3,-55.25 91,-55.25 91,-74.5"/>
<text text-anchor="middle" x="47" y="-61" font-family="Helvetica,sans-Serif" font-size="10.00">ARTrackerVideo</text>
</a>
</g>
</g>
<!-- Node3 -->
<g id="node3" class="node">
<title>Node3</title>
<g id="a_node3"><a xlink:href="class_a_r_tracker_square.html" target="_top" xlink:title=" ">
<polygon fill="white" stroke="#666666" points="94,-19.25 0,-19.25 0,0 94,0 94,-19.25"/>
<text text-anchor="middle" x="47" y="-5.75" font-family="Helvetica,sans-Serif" font-size="10.00">ARTrackerSquare</text>
</a>
</g>
</g>
<!-- Node1&#45;&gt;Node3 -->
<g id="edge2" class="edge">
<title>Node1&#45;&gt;Node3</title>
<path fill="none" stroke="#63b8ff" d="M47,-44.21C47,-35.77 47,-26.33 47,-19.61"/>
<polygon fill="#63b8ff" stroke="#63b8ff" points="43.5,-44.08 47,-54.08 50.5,-44.08 43.5,-44.08"/>
</g>
<!-- Node2 -->
<g id="node2" class="node">
<title>Node2</title>
<g id="a_node2"><a xlink:href="class_a_r_tracker.html" target="_top" xlink:title=" ">
<polygon fill="white" stroke="#666666" points="78.62,-129.75 15.38,-129.75 15.38,-110.5 78.62,-110.5 78.62,-129.75"/>
<text text-anchor="middle" x="47" y="-116.25" font-family="Helvetica,sans-Serif" font-size="10.00">ARTracker</text>
</a>
</g>
</g>
<!-- Node2&#45;&gt;Node1 -->
<g id="edge1" class="edge">
<title>Node2&#45;&gt;Node1</title>
<path fill="none" stroke="#63b8ff" d="M47,-99.46C47,-91.02 47,-81.58 47,-74.86"/>
<polygon fill="#63b8ff" stroke="#63b8ff" points="43.5,-99.33 47,-109.33 50.5,-99.33 43.5,-99.33"/>
</g>
</g>
</svg>
