<?xml version="1.0" encoding="UTF-8" standalone="no"?>
<!DOCTYPE svg PUBLIC "-//W3C//DTD SVG 1.1//EN"
 "http://www.w3.org/Graphics/SVG/1.1/DTD/svg11.dtd">
<!-- Generated by graphviz version 8.0.5 (20230430.1635)
 -->
<!-- Title: ARVideoView::drawDebugImage Pages: 1 -->
<svg width="335pt" height="187pt"
 viewBox="0.00 0.00 334.75 187.25" xmlns="http://www.w3.org/2000/svg" xmlns:xlink="http://www.w3.org/1999/xlink">
<g id="graph0" class="graph" transform="scale(1 1) rotate(0) translate(4 183.25)">
<title>ARVideoView::drawDebugImage</title>
<!-- Node1 -->
<g id="node1" class="node">
<title>Node1</title>
<g id="a_node1"><a xlink:title=" ">
<polygon fill="#999999" stroke="#666666" points="159.25,-93.25 0,-93.25 0,-74 159.25,-74 159.25,-93.25"/>
<text text-anchor="middle" x="79.62" y="-79.75" font-family="Helvetica,sans-Serif" font-size="10.00">ARVideoView::drawDebugImage</text>
</a>
</g>
</g>
<!-- Node2 -->
<g id="node2" class="node">
<title>Node2</title>
<g id="a_node2"><a xlink:href="arg_8c.html#afdd586c0ba2cc7df1347cc0522c6777b" target="_top" xlink:title="Display an ARVideo image, by drawing it using OpenGL.">
<polygon fill="white" stroke="#666666" points="300.5,-179.25 221.5,-179.25 221.5,-160 300.5,-160 300.5,-179.25"/>
<text text-anchor="middle" x="261" y="-165.75" font-family="Helvetica,sans-Serif" font-size="10.00">arglDispImage</text>
</a>
</g>
</g>
<!-- Node1&#45;&gt;Node2 -->
<g id="edge1" class="edge">
<title>Node1&#45;&gt;Node2</title>
<path fill="none" stroke="#63b8ff" d="M95.21,-93.73C116.42,-108.04 157.36,-134.28 195.25,-150.62 200.23,-152.77 205.53,-154.77 210.87,-156.59"/>
<polygon fill="#63b8ff" stroke="#63b8ff" points="209.52,-160.15 220.11,-159.88 211.66,-153.49 209.52,-160.15"/>
</g>
<!-- Node3 -->
<g id="node3" class="node">
<title>Node3</title>
<g id="a_node3"><a xlink:href="arg_8c.html#a25cc1097132fc11d1acb6b37694b5d2a" target="_top" xlink:title="Upload a buffer of pixel data to an OpenGL texture for later use by arglDispImage().">
<polygon fill="white" stroke="#666666" points="326.75,-141.88 195.25,-141.88 195.25,-111.38 326.75,-111.38 326.75,-141.88"/>
<text text-anchor="start" x="203.25" y="-128.38" font-family="Helvetica,sans-Serif" font-size="10.00">arglPixelBufferDataUpload</text>
<text text-anchor="middle" x="261" y="-117.12" font-family="Helvetica,sans-Serif" font-size="10.00">BiPlanar</text>
</a>
</g>
</g>
<!-- Node1&#45;&gt;Node3 -->
<g id="edge2" class="edge">
<title>Node1&#45;&gt;Node3</title>
<path fill="none" stroke="#63b8ff" d="M122.68,-93.71C141.11,-98.12 163.31,-103.45 184.44,-108.51"/>
<polygon fill="#63b8ff" stroke="#63b8ff" points="183.5,-112.12 194.04,-111.05 185.13,-105.32 183.5,-112.12"/>
</g>
<!-- Node4 -->
<g id="node4" class="node">
<title>Node4</title>
<g id="a_node4"><a xlink:href="arg_8c.html#a6b7919e1a7ade7c23394eeb964be17f6" target="_top" xlink:title="Specify a desired pixel buffer size larger than the camera image size.">
<polygon fill="white" stroke="#666666" points="318.12,-93.25 203.88,-93.25 203.88,-74 318.12,-74 318.12,-93.25"/>
<text text-anchor="middle" x="261" y="-79.75" font-family="Helvetica,sans-Serif" font-size="10.00">arglPixelBufferSizeSet</text>
</a>
</g>
</g>
<!-- Node1&#45;&gt;Node4 -->
<g id="edge3" class="edge">
<title>Node1&#45;&gt;Node4</title>
<path fill="none" stroke="#63b8ff" d="M159.56,-83.62C170.51,-83.62 181.68,-83.62 192.4,-83.62"/>
<polygon fill="#63b8ff" stroke="#63b8ff" points="192.39,-87.13 202.39,-83.62 192.39,-80.13 192.39,-87.13"/>
</g>
<!-- Node5 -->
<g id="node5" class="node">
<title>Node5</title>
<g id="a_node5"><a xlink:href="arg_8c.html#aab881f83622055d786e2f42086220b94" target="_top" xlink:title="Set the format of pixel data which will be passed to arglDispImage*()">
<polygon fill="white" stroke="#666666" points="310.62,-56.25 211.38,-56.25 211.38,-37 310.62,-37 310.62,-56.25"/>
<text text-anchor="middle" x="261" y="-42.75" font-family="Helvetica,sans-Serif" font-size="10.00">arglPixelFormatSet</text>
</a>
</g>
</g>
<!-- Node1&#45;&gt;Node5 -->
<g id="edge4" class="edge">
<title>Node1&#45;&gt;Node5</title>
<path fill="none" stroke="#63b8ff" d="M129.64,-73.51C151.49,-69.01 177.43,-63.66 200.39,-58.92"/>
<polygon fill="#63b8ff" stroke="#63b8ff" points="200.96,-62.17 210.04,-56.72 199.54,-55.32 200.96,-62.17"/>
</g>
<!-- Node6 -->
<g id="node6" class="node">
<title>Node6</title>
<g id="a_node6"><a xlink:href="arg_8c.html#a60f8657d50e21a7d8213a628bda888a9" target="_top" xlink:title="Set the current video image drawing scalefactor.">
<polygon fill="white" stroke="#666666" points="307.62,-19.25 214.38,-19.25 214.38,0 307.62,0 307.62,-19.25"/>
<text text-anchor="middle" x="261" y="-5.75" font-family="Helvetica,sans-Serif" font-size="10.00">arglSetPixelZoom</text>
</a>
</g>
</g>
<!-- Node1&#45;&gt;Node6 -->
<g id="edge5" class="edge">
<title>Node1&#45;&gt;Node6</title>
<path fill="none" stroke="#63b8ff" d="M98.43,-73.65C120.59,-61.54 159.84,-41.07 195.25,-27.62 199.66,-25.95 204.3,-24.35 208.98,-22.85"/>
<polygon fill="#63b8ff" stroke="#63b8ff" points="209.67,-26 218.22,-19.73 207.63,-19.3 209.67,-26"/>
</g>
</g>
</svg>
