<?xml version="1.0" encoding="UTF-8" standalone="no"?>
<!DOCTYPE svg PUBLIC "-//W3C//DTD SVG 1.1//EN"
 "http://www.w3.org/Graphics/SVG/1.1/DTD/svg11.dtd">
<!-- Generated by graphviz version 8.0.5 (20230430.1635)
 -->
<!-- Title: HomographyInfo Pages: 1 -->
<svg width="262pt" height="94pt"
 viewBox="0.00 0.00 262.00 93.75" xmlns="http://www.w3.org/2000/svg" xmlns:xlink="http://www.w3.org/1999/xlink">
<g id="graph0" class="graph" transform="scale(1 1) rotate(0) translate(4 89.75)">
<title>HomographyInfo</title>
<!-- Node1 -->
<g id="node1" class="node">
<title>Node1</title>
<g id="a_node1"><a xlink:title=" ">
<polygon fill="#999999" stroke="#666666" points="164.25,-19.25 76.25,-19.25 76.25,0 164.25,0 164.25,-19.25"/>
<text text-anchor="middle" x="120.25" y="-5.75" font-family="Helvetica,sans-Serif" font-size="10.00">HomographyInfo</text>
</a>
</g>
</g>
<!-- Node2 -->
<g id="node2" class="node">
<title>Node2</title>
<g id="a_node2"><a xlink:title=" ">
<polygon fill="white" stroke="#666666" points="104.5,-85.75 0,-85.75 0,-66.5 104.5,-66.5 104.5,-85.75"/>
<text text-anchor="middle" x="52.25" y="-72.25" font-family="Helvetica,sans-Serif" font-size="10.00">std::vector&lt; uchar &gt;</text>
</a>
</g>
</g>
<!-- Node2&#45;&gt;Node1 -->
<g id="edge1" class="edge">
<title>Node2&#45;&gt;Node1</title>
<path fill="none" stroke="#9a32cd" stroke-dasharray="5,2" d="M69.58,-58.69C82.71,-46.23 100.25,-29.59 110.88,-19.52"/>
<polygon fill="#9a32cd" stroke="#9a32cd" points="67.55,-55.74 62.71,-65.16 72.37,-60.81 67.55,-55.74"/>
<text text-anchor="middle" x="106.25" y="-39" font-family="Helvetica,sans-Serif" font-size="10.00"> status</text>
</g>
<!-- Node3 -->
<g id="node3" class="node">
<title>Node3</title>
<g id="a_node3"><a xlink:title=" ">
<polygon fill="white" stroke="#666666" points="254,-85.75 122.5,-85.75 122.5,-66.5 254,-66.5 254,-85.75"/>
<text text-anchor="middle" x="188.25" y="-72.25" font-family="Helvetica,sans-Serif" font-size="10.00">std::vector&lt; cv::DMatch &gt;</text>
</a>
</g>
</g>
<!-- Node3&#45;&gt;Node1 -->
<g id="edge2" class="edge">
<title>Node3&#45;&gt;Node1</title>
<path fill="none" stroke="#9a32cd" stroke-dasharray="5,2" d="M170.92,-58.69C157.79,-46.23 140.25,-29.59 129.62,-19.52"/>
<polygon fill="#9a32cd" stroke="#9a32cd" points="168.13,-60.81 177.79,-65.16 172.95,-55.74 168.13,-60.81"/>
<text text-anchor="middle" x="191.25" y="-39" font-family="Helvetica,sans-Serif" font-size="10.00"> inlier_matches</text>
</g>
</g>
</svg>
