<?xml version="1.0" encoding="UTF-8" standalone="no"?>
<!DOCTYPE svg PUBLIC "-//W3C//DTD SVG 1.1//EN"
 "http://www.w3.org/Graphics/SVG/1.1/DTD/svg11.dtd">
<!-- Generated by graphviz version 8.0.5 (20230430.1635)
 -->
<!-- Title: ARTrackable::update Pages: 1 -->
<svg width="394pt" height="175pt"
 viewBox="0.00 0.00 393.50 175.25" xmlns="http://www.w3.org/2000/svg" xmlns:xlink="http://www.w3.org/1999/xlink">
<g id="graph0" class="graph" transform="scale(1 1) rotate(0) translate(4 171.25)">
<title>ARTrackable::update</title>
<!-- Node1 -->
<g id="node1" class="node">
<title>Node1</title>
<g id="a_node1"><a xlink:title="Completes an update begun in the parent class, performing filtering, generating OpenGL view matrix an...">
<polygon fill="#999999" stroke="#666666" points="108.25,-74.25 0,-74.25 0,-55 108.25,-55 108.25,-74.25"/>
<text text-anchor="middle" x="54.12" y="-60.75" font-family="Helvetica,sans-Serif" font-size="10.00">ARTrackable::update</text>
</a>
</g>
</g>
<!-- Node2 -->
<g id="node2" class="node">
<title>Node2</title>
<g id="a_node2"><a xlink:href="ar_filter_trans_mat_8c.html#a575d29079692c1af23b19f0477ee2123" target="_top" xlink:title="Filters the supplied pose estimate transformation matrix in&#45;place.">
<polygon fill="white" stroke="#666666" points="240.88,-130.25 153.62,-130.25 153.62,-111 240.88,-111 240.88,-130.25"/>
<text text-anchor="middle" x="197.25" y="-116.75" font-family="Helvetica,sans-Serif" font-size="10.00">arFilterTransMat</text>
</a>
</g>
</g>
<!-- Node1&#45;&gt;Node2 -->
<g id="edge1" class="edge">
<title>Node1&#45;&gt;Node2</title>
<path fill="none" stroke="#63b8ff" d="M77.66,-74.75C95.57,-82.67 121.34,-93.79 144.25,-102.62 147.94,-104.05 151.8,-105.48 155.68,-106.89"/>
<polygon fill="#63b8ff" stroke="#63b8ff" points="154.28,-110.46 164.87,-110.51 156.62,-103.86 154.28,-110.46"/>
</g>
<!-- Node6 -->
<g id="node6" class="node">
<title>Node6</title>
<g id="a_node6"><a xlink:href="param_g_l_8c.html#a21250f8dd05058fe653e4a0116e7f592" target="_top" xlink:title="Create an OpenGL viewing transformation matrix.">
<polygon fill="white" stroke="#666666" points="248.75,-93.25 145.75,-93.25 145.75,-74 248.75,-74 248.75,-93.25"/>
<text text-anchor="middle" x="197.25" y="-79.75" font-family="Helvetica,sans-Serif" font-size="10.00">arglCameraViewRH</text>
</a>
</g>
</g>
<!-- Node1&#45;&gt;Node6 -->
<g id="edge5" class="edge">
<title>Node1&#45;&gt;Node6</title>
<path fill="none" stroke="#63b8ff" d="M108.48,-71.81C117.14,-72.97 126.16,-74.19 134.99,-75.38"/>
<polygon fill="#63b8ff" stroke="#63b8ff" points="134.24,-78.94 144.62,-76.81 135.17,-72.01 134.24,-78.94"/>
</g>
<!-- Node7 -->
<g id="node7" class="node">
<title>Node7</title>
<g id="a_node7"><a xlink:href="param_g_l_8c.html#a069eee4b7a32208a45b8c438283e9a7f" target="_top" xlink:title=" ">
<polygon fill="white" stroke="#666666" points="250.25,-56.25 144.25,-56.25 144.25,-37 250.25,-37 250.25,-56.25"/>
<text text-anchor="middle" x="197.25" y="-42.75" font-family="Helvetica,sans-Serif" font-size="10.00">arglCameraViewRHf</text>
</a>
</g>
</g>
<!-- Node1&#45;&gt;Node7 -->
<g id="edge6" class="edge">
<title>Node1&#45;&gt;Node7</title>
<path fill="none" stroke="#63b8ff" d="M108.48,-57.82C116.51,-56.8 124.86,-55.73 133.07,-54.68"/>
<polygon fill="#63b8ff" stroke="#63b8ff" points="133.28,-58.06 142.76,-53.32 132.39,-51.11 133.28,-58.06"/>
</g>
<!-- Node8 -->
<g id="node8" class="node">
<title>Node8</title>
<g id="a_node8"><a xlink:href="ar_util_8c.html#ae28eeba3e16224a7d77b46bd34b8f4fe" target="_top" xlink:title=" ">
<polygon fill="white" stroke="#666666" points="233,-19.25 161.5,-19.25 161.5,0 233,0 233,-19.25"/>
<text text-anchor="middle" x="197.25" y="-5.75" font-family="Helvetica,sans-Serif" font-size="10.00">arUtilMatMul</text>
</a>
</g>
</g>
<!-- Node1&#45;&gt;Node8 -->
<g id="edge7" class="edge">
<title>Node1&#45;&gt;Node8</title>
<path fill="none" stroke="#63b8ff" d="M78.06,-54.66C95.97,-46.98 121.54,-36.26 144.25,-27.62 148,-26.2 151.91,-24.76 155.84,-23.34"/>
<polygon fill="#63b8ff" stroke="#63b8ff" points="156.91,-26.33 165.17,-19.69 154.57,-19.73 156.91,-26.33"/>
</g>
<!-- Node3 -->
<g id="node3" class="node">
<title>Node3</title>
<g id="a_node3"><a xlink:href="ar_util_8c.html#adb4a9f8d233d3b954fd85bbb3deda173" target="_top" xlink:title=" ">
<polygon fill="white" stroke="#666666" points="385.5,-167.25 286.25,-167.25 286.25,-148 385.5,-148 385.5,-167.25"/>
<text text-anchor="middle" x="335.88" y="-153.75" font-family="Helvetica,sans-Serif" font-size="10.00">arUtilMat2QuatPos</text>
</a>
</g>
</g>
<!-- Node2&#45;&gt;Node3 -->
<g id="edge2" class="edge">
<title>Node2&#45;&gt;Node3</title>
<path fill="none" stroke="#63b8ff" d="M235.58,-130.74C251.55,-135.06 270.38,-140.16 287.32,-144.75"/>
<polygon fill="#63b8ff" stroke="#63b8ff" points="286.02,-148.29 296.59,-147.53 287.85,-141.53 286.02,-148.29"/>
</g>
<!-- Node4 -->
<g id="node4" class="node">
<title>Node4</title>
<g id="a_node4"><a xlink:href="ar_util_8c.html#aa543b10d8b401ccf5626aba7dfa12e09" target="_top" xlink:title=" ">
<polygon fill="white" stroke="#666666" points="378,-130.25 293.75,-130.25 293.75,-111 378,-111 378,-130.25"/>
<text text-anchor="middle" x="335.88" y="-116.75" font-family="Helvetica,sans-Serif" font-size="10.00">arUtilQuatNorm</text>
</a>
</g>
</g>
<!-- Node2&#45;&gt;Node4 -->
<g id="edge3" class="edge">
<title>Node2&#45;&gt;Node4</title>
<path fill="none" stroke="#63b8ff" d="M241.1,-120.62C254.32,-120.62 269.02,-120.62 282.78,-120.62"/>
<polygon fill="#63b8ff" stroke="#63b8ff" points="282.57,-124.13 292.57,-120.62 282.57,-117.13 282.57,-124.13"/>
</g>
<!-- Node5 -->
<g id="node5" class="node">
<title>Node5</title>
<g id="a_node5"><a xlink:href="ar_util_8c.html#a016bf9cc45eee7cd9eae471cecc68e9a" target="_top" xlink:title=" ">
<polygon fill="white" stroke="#666666" points="385.5,-93.25 286.25,-93.25 286.25,-74 385.5,-74 385.5,-93.25"/>
<text text-anchor="middle" x="335.88" y="-79.75" font-family="Helvetica,sans-Serif" font-size="10.00">arUtilQuatPos2Mat</text>
</a>
</g>
</g>
<!-- Node2&#45;&gt;Node5 -->
<g id="edge4" class="edge">
<title>Node2&#45;&gt;Node5</title>
<path fill="none" stroke="#63b8ff" d="M235.58,-110.51C251.55,-106.19 270.38,-101.09 287.32,-96.5"/>
<polygon fill="#63b8ff" stroke="#63b8ff" points="287.85,-99.72 296.59,-93.72 286.02,-92.96 287.85,-99.72"/>
</g>
</g>
</svg>
