<?xml version="1.0" encoding="UTF-8" standalone="no"?>
<!DOCTYPE svg PUBLIC "-//W3C//DTD SVG 1.1//EN"
 "http://www.w3.org/Graphics/SVG/1.1/DTD/svg11.dtd">
<!-- Generated by graphviz version 2.40.1 (20161225.0304)
 -->
<!-- Title: ARController::startRunningStereo Pages: 1 -->
<svg width="464pt" height="212pt"
 viewBox="0.00 0.00 463.92 212.00" xmlns="http://www.w3.org/2000/svg" xmlns:xlink="http://www.w3.org/1999/xlink">
<g id="graph0" class="graph" transform="scale(1 1) rotate(0) translate(4 208)">
<title>ARController::startRunningStereo</title>
<polygon fill="#ffffff" stroke="transparent" points="-4,4 -4,-208 459.918,-208 459.918,4 -4,4"/>
<!-- Node97 -->
<g id="node1" class="node">
<title>Node97</title>
<polygon fill="#bfbfbf" stroke="#000000" points="0,-87.5 0,-115.5 135.4971,-115.5 135.4971,-87.5 0,-87.5"/>
<text text-anchor="start" x="8" y="-103.5" font-family="Helvetica,sans-Serif" font-size="10.00" fill="#000000">ARController::startRunning</text>
<text text-anchor="middle" x="67.7485" y="-93.5" font-family="Helvetica,sans-Serif" font-size="10.00" fill="#000000">Stereo</text>
</g>
<!-- Node98 -->
<g id="node2" class="node">
<title>Node98</title>
<g id="a_node2"><a xlink:href="param_8h.html#abaeca294b2d34f2cfcfb9b54bc07ae03" target="_top" xlink:title="arParamLoadExt">
<polygon fill="#ffffff" stroke="#000000" points="196.4141,-185.5 196.4141,-203.5 287.4531,-203.5 287.4531,-185.5 196.4141,-185.5"/>
<text text-anchor="middle" x="241.9336" y="-191.5" font-family="Helvetica,sans-Serif" font-size="10.00" fill="#000000">arParamLoadExt</text>
</a>
</g>
</g>
<!-- Node97&#45;&gt;Node98 -->
<g id="edge1" class="edge">
<title>Node97&#45;&gt;Node98</title>
<path fill="none" stroke="#191970" d="M83.4231,-115.7792C102.7576,-132.6583 137.2815,-160.4729 171.4971,-176.5 176.2333,-178.7185 181.2817,-180.6904 186.4171,-182.4375"/>
<polygon fill="#191970" stroke="#191970" points="185.7527,-185.8962 196.341,-185.5256 187.8326,-179.2123 185.7527,-185.8962"/>
</g>
<!-- Node99 -->
<g id="node3" class="node">
<title>Node99</title>
<g id="a_node3"><a xlink:href="param_8h.html#a12d7c997888d92b56c2b40c6f4299fa3" target="_top" xlink:title="arParamLoadExtFromBuffer">
<polygon fill="#ffffff" stroke="#000000" points="171.4971,-148.5 171.4971,-166.5 312.3701,-166.5 312.3701,-148.5 171.4971,-148.5"/>
<text text-anchor="middle" x="241.9336" y="-154.5" font-family="Helvetica,sans-Serif" font-size="10.00" fill="#000000">arParamLoadExtFromBuffer</text>
</a>
</g>
</g>
<!-- Node97&#45;&gt;Node99 -->
<g id="edge2" class="edge">
<title>Node97&#45;&gt;Node99</title>
<path fill="none" stroke="#191970" d="M103.455,-115.5898C123.3226,-123.173 148.595,-132.3994 171.4971,-139.5 178.7058,-141.735 186.39,-143.908 193.9341,-145.926"/>
<polygon fill="#191970" stroke="#191970" points="193.1593,-149.341 203.7192,-148.4818 194.9283,-142.5682 193.1593,-149.341"/>
</g>
<!-- Node100 -->
<g id="node4" class="node">
<title>Node100</title>
<g id="a_node4"><a xlink:href="param_8h.html#a4ae807537d428a2732c6a8d55aee1e61" target="_top" xlink:title="arParamDispExt">
<polygon fill="#ffffff" stroke="#000000" points="197.5347,-111.5 197.5347,-129.5 286.3325,-129.5 286.3325,-111.5 197.5347,-111.5"/>
<text text-anchor="middle" x="241.9336" y="-117.5" font-family="Helvetica,sans-Serif" font-size="10.00" fill="#000000">arParamDispExt</text>
</a>
</g>
</g>
<!-- Node97&#45;&gt;Node100 -->
<g id="edge3" class="edge">
<title>Node97&#45;&gt;Node100</title>
<path fill="none" stroke="#191970" d="M135.5918,-108.9003C152.7577,-110.7728 170.9739,-112.7598 187.3884,-114.5502"/>
<polygon fill="#191970" stroke="#191970" points="187.0299,-118.0318 197.3505,-115.6369 187.789,-111.0731 187.0299,-118.0318"/>
</g>
<!-- Node101 -->
<g id="node5" class="node">
<title>Node101</title>
<g id="a_node5"><a xlink:href="class_a_r_video_source.html#aa385c7136b3d45c6efaa6604bf0a6d9a" target="_top" xlink:title="Sets initial parameters which will be used when the video source is opened. ">
<polygon fill="#ffffff" stroke="#000000" points="175.186,-74.5 175.186,-92.5 308.6812,-92.5 308.6812,-74.5 175.186,-74.5"/>
<text text-anchor="middle" x="241.9336" y="-80.5" font-family="Helvetica,sans-Serif" font-size="10.00" fill="#000000">ARVideoSource::configure</text>
</a>
</g>
</g>
<!-- Node97&#45;&gt;Node101 -->
<g id="edge4" class="edge">
<title>Node97&#45;&gt;Node101</title>
<path fill="none" stroke="#191970" d="M135.5918,-94.4892C145.2337,-93.4928 155.207,-92.4622 165.0063,-91.4495"/>
<polygon fill="#191970" stroke="#191970" points="165.5467,-94.9124 175.1339,-90.403 164.8271,-87.9495 165.5467,-94.9124"/>
</g>
<!-- Node102 -->
<g id="node6" class="node">
<title>Node102</title>
<g id="a_node6"><a xlink:href="class_a_r_video_source.html#ad6e81f0a07ddf8e844dfb867bc94de4b" target="_top" xlink:title="Opens the video source. ">
<polygon fill="#ffffff" stroke="#000000" points="184.6318,-37.5 184.6318,-55.5 299.2354,-55.5 299.2354,-37.5 184.6318,-37.5"/>
<text text-anchor="middle" x="241.9336" y="-43.5" font-family="Helvetica,sans-Serif" font-size="10.00" fill="#000000">ARVideoSource::open</text>
</a>
</g>
</g>
<!-- Node97&#45;&gt;Node102 -->
<g id="edge5" class="edge">
<title>Node97&#45;&gt;Node102</title>
<path fill="none" stroke="#191970" d="M106.4554,-87.3417C125.8715,-80.4257 149.814,-72.1773 171.4971,-65.5 179.5883,-63.0083 188.2563,-60.5224 196.6483,-58.2092"/>
<polygon fill="#191970" stroke="#191970" points="197.5882,-61.5808 206.3219,-55.5831 195.7542,-54.8254 197.5882,-61.5808"/>
</g>
<!-- Node105 -->
<g id="node9" class="node">
<title>Node105</title>
<g id="a_node9"><a xlink:href="class_a_r_video_source.html#a1d4e4cebdf413918427c39aa99a197cc" target="_top" xlink:title="ARVideoSource::getError">
<polygon fill="#ffffff" stroke="#000000" points="177.6934,-.5 177.6934,-18.5 306.1738,-18.5 306.1738,-.5 177.6934,-.5"/>
<text text-anchor="middle" x="241.9336" y="-6.5" font-family="Helvetica,sans-Serif" font-size="10.00" fill="#000000">ARVideoSource::getError</text>
</a>
</g>
</g>
<!-- Node97&#45;&gt;Node105 -->
<g id="edge8" class="edge">
<title>Node97&#45;&gt;Node105</title>
<path fill="none" stroke="#191970" d="M83.8742,-87.4106C103.3761,-71.0508 137.7953,-44.2968 171.4971,-28.5 177.1416,-25.8543 183.2194,-23.5235 189.3551,-21.4845"/>
<polygon fill="#191970" stroke="#191970" points="190.4638,-24.8054 198.9907,-18.5171 188.4035,-18.1154 190.4638,-24.8054"/>
</g>
<!-- Node103 -->
<g id="node7" class="node">
<title>Node103</title>
<g id="a_node7"><a xlink:href="video_8h.html#a6a911689abfaf33e8b1bea7c34f7c39a" target="_top" xlink:title="ar2VideoOpenAsync">
<polygon fill="#ffffff" stroke="#000000" points="348.3701,-55.5 348.3701,-73.5 455.918,-73.5 455.918,-55.5 348.3701,-55.5"/>
<text text-anchor="middle" x="402.144" y="-61.5" font-family="Helvetica,sans-Serif" font-size="10.00" fill="#000000">ar2VideoOpenAsync</text>
</a>
</g>
</g>
<!-- Node102&#45;&gt;Node103 -->
<g id="edge6" class="edge">
<title>Node102&#45;&gt;Node103</title>
<path fill="none" stroke="#191970" d="M299.3207,-52.9476C311.9315,-54.3644 325.3612,-55.8733 338.2115,-57.317"/>
<polygon fill="#191970" stroke="#191970" points="338.038,-60.8195 348.3663,-58.4579 338.8196,-53.8632 338.038,-60.8195"/>
</g>
<!-- Node104 -->
<g id="node8" class="node">
<title>Node104</title>
<g id="a_node8"><a xlink:href="video_8h.html#a266a574c77510cdde38998c94118611a" target="_top" xlink:title="ar2VideoOpen">
<polygon fill="#ffffff" stroke="#000000" points="361.9858,-18.5 361.9858,-36.5 442.3022,-36.5 442.3022,-18.5 361.9858,-18.5"/>
<text text-anchor="middle" x="402.144" y="-24.5" font-family="Helvetica,sans-Serif" font-size="10.00" fill="#000000">ar2VideoOpen</text>
</a>
</g>
</g>
<!-- Node102&#45;&gt;Node104 -->
<g id="edge7" class="edge">
<title>Node102&#45;&gt;Node104</title>
<path fill="none" stroke="#191970" d="M299.3207,-39.6942C316.4222,-37.6661 335.0297,-35.4594 351.656,-33.4876"/>
<polygon fill="#191970" stroke="#191970" points="352.2028,-36.9473 361.721,-32.2939 351.3784,-29.9961 352.2028,-36.9473"/>
</g>
</g>
</svg>
