<?xml version="1.0" encoding="UTF-8" standalone="no"?>
<!DOCTYPE svg PUBLIC "-//W3C//DTD SVG 1.1//EN"
 "http://www.w3.org/Graphics/SVG/1.1/DTD/svg11.dtd">
<!-- Generated by graphviz version 2.40.1 (20161225.0304)
 -->
<!-- Title: ARTrackerVideo Pages: 1 -->
<svg width="103pt" height="137pt"
 viewBox="0.00 0.00 103.49 137.00" xmlns="http://www.w3.org/2000/svg" xmlns:xlink="http://www.w3.org/1999/xlink">
<g id="graph0" class="graph" transform="scale(1 1) rotate(0) translate(4 133)">
<title>ARTrackerVideo</title>
<polygon fill="#ffffff" stroke="transparent" points="-4,4 -4,-133 99.4873,-133 99.4873,4 -4,4"/>
<!-- Node0 -->
<g id="node1" class="node">
<title>Node0</title>
<polygon fill="#bfbfbf" stroke="#000000" points="3.4229,-55.5 3.4229,-73.5 92.0645,-73.5 92.0645,-55.5 3.4229,-55.5"/>
<text text-anchor="middle" x="47.7437" y="-61.5" font-family="Helvetica,sans-Serif" font-size="10.00" fill="#000000">ARTrackerVideo</text>
</g>
<!-- Node2 -->
<g id="node3" class="node">
<title>Node2</title>
<g id="a_node3"><a xlink:href="class_a_r_tracker_square.html" target="_top" xlink:title="ARTrackerSquare">
<polygon fill="#ffffff" stroke="#000000" points="0,-.5 0,-18.5 95.4873,-18.5 95.4873,-.5 0,-.5"/>
<text text-anchor="middle" x="47.7437" y="-6.5" font-family="Helvetica,sans-Serif" font-size="10.00" fill="#000000">ARTrackerSquare</text>
</a>
</g>
</g>
<!-- Node0&#45;&gt;Node2 -->
<g id="edge2" class="edge">
<title>Node0&#45;&gt;Node2</title>
<path fill="none" stroke="#191970" d="M47.7437,-45.383C47.7437,-36.3738 47.7437,-26.0373 47.7437,-18.7795"/>
<polygon fill="#191970" stroke="#191970" points="44.2438,-45.4178 47.7437,-55.4179 51.2438,-45.4179 44.2438,-45.4178"/>
</g>
<!-- Node1 -->
<g id="node2" class="node">
<title>Node1</title>
<g id="a_node2"><a xlink:href="class_a_r_tracker.html" target="_top" xlink:title="ARTracker">
<polygon fill="#ffffff" stroke="#000000" points="16.123,-110.5 16.123,-128.5 79.3643,-128.5 79.3643,-110.5 16.123,-110.5"/>
<text text-anchor="middle" x="47.7437" y="-116.5" font-family="Helvetica,sans-Serif" font-size="10.00" fill="#000000">ARTracker</text>
</a>
</g>
</g>
<!-- Node1&#45;&gt;Node0 -->
<g id="edge1" class="edge">
<title>Node1&#45;&gt;Node0</title>
<path fill="none" stroke="#191970" d="M47.7437,-100.383C47.7437,-91.3738 47.7437,-81.0373 47.7437,-73.7795"/>
<polygon fill="#191970" stroke="#191970" points="44.2438,-100.4178 47.7437,-110.4179 51.2438,-100.4179 44.2438,-100.4178"/>
</g>
</g>
</svg>
