<?xml version="1.0" encoding="UTF-8" standalone="no"?>
<!DOCTYPE svg PUBLIC "-//W3C//DTD SVG 1.1//EN"
 "http://www.w3.org/Graphics/SVG/1.1/DTD/svg11.dtd">
<!-- Generated by graphviz version 8.0.5 (20230430.1635)
 -->
<!-- Title: ARVideoSource::videoPushFinal Pages: 1 -->
<svg width="449pt" height="39pt"
 viewBox="0.00 0.00 449.00 38.50" xmlns="http://www.w3.org/2000/svg" xmlns:xlink="http://www.w3.org/1999/xlink">
<g id="graph0" class="graph" transform="scale(1 1) rotate(0) translate(4 34.5)">
<title>ARVideoSource::videoPushFinal</title>
<!-- Node1 -->
<g id="node1" class="node">
<title>Node1</title>
<g id="a_node1"><a xlink:title=" ">
<polygon fill="#999999" stroke="#666666" points="137.5,-30.5 0,-30.5 0,0 137.5,0 137.5,-30.5"/>
<text text-anchor="start" x="8" y="-17" font-family="Helvetica,sans-Serif" font-size="10.00">ARVideoSource::videoPush</text>
<text text-anchor="middle" x="68.75" y="-5.75" font-family="Helvetica,sans-Serif" font-size="10.00">Final</text>
</a>
</g>
</g>
<!-- Node2 -->
<g id="node2" class="node">
<title>Node2</title>
<g id="a_node2"><a xlink:href="video2_8c.html#a27f96e291c2bf447fff911e457f11613" target="_top" xlink:title=" ">
<polygon fill="white" stroke="#666666" points="271.25,-24.88 173.5,-24.88 173.5,-5.63 271.25,-5.63 271.25,-24.88"/>
<text text-anchor="middle" x="222.38" y="-11.38" font-family="Helvetica,sans-Serif" font-size="10.00">ar2VideoPushFinal</text>
</a>
</g>
</g>
<!-- Node1&#45;&gt;Node2 -->
<g id="edge1" class="edge">
<title>Node1&#45;&gt;Node2</title>
<path fill="none" stroke="#63b8ff" d="M137.58,-15.25C145.82,-15.25 154.19,-15.25 162.29,-15.25"/>
<polygon fill="#63b8ff" stroke="#63b8ff" points="162.13,-18.75 172.13,-15.25 162.13,-11.75 162.13,-18.75"/>
</g>
<!-- Node3 -->
<g id="node3" class="node">
<title>Node3</title>
<g id="a_node3"><a xlink:href="video_external_8h.html#acab01dd172d4489e5ccd7503908970c2" target="_top" xlink:title=" ">
<polygon fill="white" stroke="#666666" points="441,-24.88 307.25,-24.88 307.25,-5.63 441,-5.63 441,-24.88"/>
<text text-anchor="middle" x="374.12" y="-11.38" font-family="Helvetica,sans-Serif" font-size="10.00">ar2VideoPushFinalExternal</text>
</a>
</g>
</g>
<!-- Node2&#45;&gt;Node3 -->
<g id="edge2" class="edge">
<title>Node2&#45;&gt;Node3</title>
<path fill="none" stroke="#63b8ff" d="M271.58,-15.25C279.43,-15.25 287.73,-15.25 296.06,-15.25"/>
<polygon fill="#63b8ff" stroke="#63b8ff" points="296,-18.75 306,-15.25 296,-11.75 296,-18.75"/>
</g>
</g>
</svg>
