<?xml version="1.0" encoding="UTF-8" standalone="no"?>
<!DOCTYPE svg PUBLIC "-//W3C//DTD SVG 1.1//EN"
 "http://www.w3.org/Graphics/SVG/1.1/DTD/svg11.dtd">
<!-- Generated by graphviz version 2.40.1 (20161225.0304)
 -->
<!-- Title: Media::WrlSealed Pages: 1 -->
<svg width="349pt" height="154pt"
 viewBox="0.00 0.00 349.26 154.00" xmlns="http://www.w3.org/2000/svg" xmlns:xlink="http://www.w3.org/1999/xlink">
<g id="graph0" class="graph" transform="scale(1 1) rotate(0) translate(4 150)">
<title>Media::WrlSealed</title>
<polygon fill="#ffffff" stroke="transparent" points="-4,4 -4,-150 345.2617,-150 345.2617,4 -4,4"/>
<!-- Node0 -->
<g id="node1" class="node">
<title>Node0</title>
<polygon fill="#bfbfbf" stroke="#000000" points="246.5166,-66.5 246.5166,-84.5 341.2617,-84.5 341.2617,-66.5 246.5166,-66.5"/>
<text text-anchor="middle" x="293.8892" y="-72.5" font-family="Helvetica,sans-Serif" font-size="10.00" fill="#000000">Media::WrlSealed</text>
</g>
<!-- Node1 -->
<g id="node2" class="node">
<title>Node1</title>
<polygon fill="#ffffff" stroke="#bfbfbf" points="0,-87.5 0,-145.5 210.5166,-145.5 210.5166,-87.5 0,-87.5"/>
<text text-anchor="start" x="8" y="-133.5" font-family="Helvetica,sans-Serif" font-size="10.00" fill="#000000">Microsoft::WRL::RuntimeClass</text>
<text text-anchor="start" x="8" y="-123.5" font-family="Helvetica,sans-Serif" font-size="10.00" fill="#000000">&lt; Microsoft::WRL::RuntimeClassFlags</text>
<text text-anchor="start" x="8" y="-113.5" font-family="Helvetica,sans-Serif" font-size="10.00" fill="#000000">&lt; Microsoft::WRL::ClassicCom &gt;,</text>
<text text-anchor="start" x="8" y="-103.5" font-family="Helvetica,sans-Serif" font-size="10.00" fill="#000000"> IMFStreamSink, IMFMediaEventGenerator,</text>
<text text-anchor="middle" x="105.2583" y="-93.5" font-family="Helvetica,sans-Serif" font-size="10.00" fill="#000000"> IMFMediaTypeHandler &gt;</text>
</g>
<!-- Node1&#45;&gt;Node0 -->
<g id="edge1" class="edge">
<title>Node1&#45;&gt;Node0</title>
<path fill="none" stroke="#191970" d="M220.5118,-91.449C231.6847,-89.0205 242.4447,-86.6817 252.1209,-84.5786"/>
<polygon fill="#191970" stroke="#191970" points="219.6323,-88.0584 210.6038,-93.6025 221.1191,-94.8986 219.6323,-88.0584"/>
</g>
<!-- Node2 -->
<g id="node3" class="node">
<title>Node2</title>
<polygon fill="#ffffff" stroke="#bfbfbf" points="9.8291,-.5 9.8291,-68.5 200.6875,-68.5 200.6875,-.5 9.8291,-.5"/>
<text text-anchor="start" x="17.8291" y="-56.5" font-family="Helvetica,sans-Serif" font-size="10.00" fill="#000000">Microsoft::WRL::RuntimeClass</text>
<text text-anchor="start" x="17.8291" y="-46.5" font-family="Helvetica,sans-Serif" font-size="10.00" fill="#000000">&lt; MW::RuntimeClassFlags&lt;</text>
<text text-anchor="start" x="17.8291" y="-36.5" font-family="Helvetica,sans-Serif" font-size="10.00" fill="#000000"> MW::RuntimeClassType::WinRtClassic</text>
<text text-anchor="start" x="17.8291" y="-26.5" font-family="Helvetica,sans-Serif" font-size="10.00" fill="#000000">ComMix &gt;, AWM::IMediaExtension,</text>
<text text-anchor="start" x="17.8291" y="-16.5" font-family="Helvetica,sans-Serif" font-size="10.00" fill="#000000"> IMFMediaSink, IMFClockStateSink,</text>
<text text-anchor="middle" x="105.2583" y="-6.5" font-family="Helvetica,sans-Serif" font-size="10.00" fill="#000000"> MW::FtmBase &gt;</text>
</g>
<!-- Node2&#45;&gt;Node0 -->
<g id="edge2" class="edge">
<title>Node2&#45;&gt;Node0</title>
<path fill="none" stroke="#191970" d="M211.0877,-57.5026C225.6628,-60.6706 239.8655,-63.7576 252.2753,-66.455"/>
<polygon fill="#191970" stroke="#191970" points="211.4705,-54.0042 200.9553,-55.3003 209.9837,-60.8445 211.4705,-54.0042"/>
</g>
</g>
</svg>
