<?xml version="1.0" encoding="UTF-8" standalone="no"?>
<!DOCTYPE svg PUBLIC "-//W3C//DTD SVG 1.1//EN"
 "http://www.w3.org/Graphics/SVG/1.1/DTD/svg11.dtd">
<!-- Generated by graphviz version 8.0.5 (20230430.1635)
 -->
<!-- Title: ARTrackableMultiSquareAuto::updateWithDetectedMarkersStereo Pages: 1 -->
<svg width="605pt" height="175pt"
 viewBox="0.00 0.00 604.50 175.25" xmlns="http://www.w3.org/2000/svg" xmlns:xlink="http://www.w3.org/1999/xlink">
<g id="graph0" class="graph" transform="scale(1 1) rotate(0) translate(4 171.25)">
<title>ARTrackableMultiSquareAuto::updateWithDetectedMarkersStereo</title>
<!-- Node1 -->
<g id="node1" class="node">
<title>Node1</title>
<g id="a_node1"><a xlink:title=" ">
<polygon fill="#999999" stroke="#666666" points="175,-79.88 0,-79.88 0,-49.38 175,-49.38 175,-79.88"/>
<text text-anchor="start" x="8" y="-66.38" font-family="Helvetica,sans-Serif" font-size="10.00">ARTrackableMultiSquareAuto</text>
<text text-anchor="middle" x="87.5" y="-55.12" font-family="Helvetica,sans-Serif" font-size="10.00">::updateWithDetectedMarkersStereo</text>
</a>
</g>
</g>
<!-- Node2 -->
<g id="node2" class="node">
<title>Node2</title>
<g id="a_node2"><a xlink:href="class_a_r_trackable.html#a445a8894d99c98bc966ebff530d58278" target="_top" xlink:title="Completes an update begun in the parent class, performing filtering, generating OpenGL view matrix an...">
<polygon fill="white" stroke="#666666" points="319.25,-74.25 211,-74.25 211,-55 319.25,-55 319.25,-74.25"/>
<text text-anchor="middle" x="265.12" y="-60.75" font-family="Helvetica,sans-Serif" font-size="10.00">ARTrackable::update</text>
</a>
</g>
</g>
<!-- Node1&#45;&gt;Node2 -->
<g id="edge1" class="edge">
<title>Node1&#45;&gt;Node2</title>
<path fill="none" stroke="#63b8ff" d="M175.28,-64.62C183.6,-64.62 191.93,-64.62 199.98,-64.62"/>
<polygon fill="#63b8ff" stroke="#63b8ff" points="199.74,-68.13 209.74,-64.62 199.74,-61.13 199.74,-68.13"/>
</g>
<!-- Node3 -->
<g id="node3" class="node">
<title>Node3</title>
<g id="a_node3"><a xlink:href="ar_filter_trans_mat_8c.html#a575d29079692c1af23b19f0477ee2123" target="_top" xlink:title="Filters the supplied pose estimate transformation matrix in&#45;place.">
<polygon fill="white" stroke="#666666" points="451.88,-130.25 364.62,-130.25 364.62,-111 451.88,-111 451.88,-130.25"/>
<text text-anchor="middle" x="408.25" y="-116.75" font-family="Helvetica,sans-Serif" font-size="10.00">arFilterTransMat</text>
</a>
</g>
</g>
<!-- Node2&#45;&gt;Node3 -->
<g id="edge2" class="edge">
<title>Node2&#45;&gt;Node3</title>
<path fill="none" stroke="#63b8ff" d="M288.66,-74.75C306.57,-82.67 332.34,-93.79 355.25,-102.62 358.94,-104.05 362.8,-105.48 366.68,-106.89"/>
<polygon fill="#63b8ff" stroke="#63b8ff" points="365.28,-110.46 375.87,-110.51 367.62,-103.86 365.28,-110.46"/>
</g>
<!-- Node7 -->
<g id="node7" class="node">
<title>Node7</title>
<g id="a_node7"><a xlink:href="param_g_l_8c.html#a21250f8dd05058fe653e4a0116e7f592" target="_top" xlink:title="Create an OpenGL viewing transformation matrix.">
<polygon fill="white" stroke="#666666" points="459.75,-93.25 356.75,-93.25 356.75,-74 459.75,-74 459.75,-93.25"/>
<text text-anchor="middle" x="408.25" y="-79.75" font-family="Helvetica,sans-Serif" font-size="10.00">arglCameraViewRH</text>
</a>
</g>
</g>
<!-- Node2&#45;&gt;Node7 -->
<g id="edge6" class="edge">
<title>Node2&#45;&gt;Node7</title>
<path fill="none" stroke="#63b8ff" d="M319.48,-71.81C328.14,-72.97 337.16,-74.19 345.99,-75.38"/>
<polygon fill="#63b8ff" stroke="#63b8ff" points="345.24,-78.94 355.62,-76.81 346.17,-72.01 345.24,-78.94"/>
</g>
<!-- Node8 -->
<g id="node8" class="node">
<title>Node8</title>
<g id="a_node8"><a xlink:href="param_g_l_8c.html#a069eee4b7a32208a45b8c438283e9a7f" target="_top" xlink:title=" ">
<polygon fill="white" stroke="#666666" points="461.25,-56.25 355.25,-56.25 355.25,-37 461.25,-37 461.25,-56.25"/>
<text text-anchor="middle" x="408.25" y="-42.75" font-family="Helvetica,sans-Serif" font-size="10.00">arglCameraViewRHf</text>
</a>
</g>
</g>
<!-- Node2&#45;&gt;Node8 -->
<g id="edge7" class="edge">
<title>Node2&#45;&gt;Node8</title>
<path fill="none" stroke="#63b8ff" d="M319.48,-57.82C327.51,-56.8 335.86,-55.73 344.07,-54.68"/>
<polygon fill="#63b8ff" stroke="#63b8ff" points="344.28,-58.06 353.76,-53.32 343.39,-51.11 344.28,-58.06"/>
</g>
<!-- Node9 -->
<g id="node9" class="node">
<title>Node9</title>
<g id="a_node9"><a xlink:href="ar_util_8c.html#ae28eeba3e16224a7d77b46bd34b8f4fe" target="_top" xlink:title=" ">
<polygon fill="white" stroke="#666666" points="444,-19.25 372.5,-19.25 372.5,0 444,0 444,-19.25"/>
<text text-anchor="middle" x="408.25" y="-5.75" font-family="Helvetica,sans-Serif" font-size="10.00">arUtilMatMul</text>
</a>
</g>
</g>
<!-- Node2&#45;&gt;Node9 -->
<g id="edge8" class="edge">
<title>Node2&#45;&gt;Node9</title>
<path fill="none" stroke="#63b8ff" d="M289.06,-54.66C306.97,-46.98 332.54,-36.26 355.25,-27.62 359,-26.2 362.91,-24.76 366.84,-23.34"/>
<polygon fill="#63b8ff" stroke="#63b8ff" points="367.91,-26.33 376.17,-19.69 365.57,-19.73 367.91,-26.33"/>
</g>
<!-- Node4 -->
<g id="node4" class="node">
<title>Node4</title>
<g id="a_node4"><a xlink:href="ar_util_8c.html#adb4a9f8d233d3b954fd85bbb3deda173" target="_top" xlink:title=" ">
<polygon fill="white" stroke="#666666" points="596.5,-167.25 497.25,-167.25 497.25,-148 596.5,-148 596.5,-167.25"/>
<text text-anchor="middle" x="546.88" y="-153.75" font-family="Helvetica,sans-Serif" font-size="10.00">arUtilMat2QuatPos</text>
</a>
</g>
</g>
<!-- Node3&#45;&gt;Node4 -->
<g id="edge3" class="edge">
<title>Node3&#45;&gt;Node4</title>
<path fill="none" stroke="#63b8ff" d="M446.58,-130.74C462.55,-135.06 481.38,-140.16 498.32,-144.75"/>
<polygon fill="#63b8ff" stroke="#63b8ff" points="497.02,-148.29 507.59,-147.53 498.85,-141.53 497.02,-148.29"/>
</g>
<!-- Node5 -->
<g id="node5" class="node">
<title>Node5</title>
<g id="a_node5"><a xlink:href="ar_util_8c.html#aa543b10d8b401ccf5626aba7dfa12e09" target="_top" xlink:title=" ">
<polygon fill="white" stroke="#666666" points="589,-130.25 504.75,-130.25 504.75,-111 589,-111 589,-130.25"/>
<text text-anchor="middle" x="546.88" y="-116.75" font-family="Helvetica,sans-Serif" font-size="10.00">arUtilQuatNorm</text>
</a>
</g>
</g>
<!-- Node3&#45;&gt;Node5 -->
<g id="edge4" class="edge">
<title>Node3&#45;&gt;Node5</title>
<path fill="none" stroke="#63b8ff" d="M452.1,-120.62C465.32,-120.62 480.02,-120.62 493.78,-120.62"/>
<polygon fill="#63b8ff" stroke="#63b8ff" points="493.57,-124.13 503.57,-120.62 493.57,-117.13 493.57,-124.13"/>
</g>
<!-- Node6 -->
<g id="node6" class="node">
<title>Node6</title>
<g id="a_node6"><a xlink:href="ar_util_8c.html#a016bf9cc45eee7cd9eae471cecc68e9a" target="_top" xlink:title=" ">
<polygon fill="white" stroke="#666666" points="596.5,-93.25 497.25,-93.25 497.25,-74 596.5,-74 596.5,-93.25"/>
<text text-anchor="middle" x="546.88" y="-79.75" font-family="Helvetica,sans-Serif" font-size="10.00">arUtilQuatPos2Mat</text>
</a>
</g>
</g>
<!-- Node3&#45;&gt;Node6 -->
<g id="edge5" class="edge">
<title>Node3&#45;&gt;Node6</title>
<path fill="none" stroke="#63b8ff" d="M446.58,-110.51C462.55,-106.19 481.38,-101.09 498.32,-96.5"/>
<polygon fill="#63b8ff" stroke="#63b8ff" points="498.85,-99.72 507.59,-93.72 497.02,-92.96 498.85,-99.72"/>
</g>
</g>
</svg>
