<?xml version="1.0" encoding="UTF-8" standalone="no"?>
<!DOCTYPE svg PUBLIC "-//W3C//DTD SVG 1.1//EN"
 "http://www.w3.org/Graphics/SVG/1.1/DTD/svg11.dtd">
<!-- Generated by graphviz version 2.40.1 (20161225.0304)
 -->
<!-- Title: ARController::drawVideoSettings Pages: 1 -->
<svg width="514pt" height="269pt"
 viewBox="0.00 0.00 514.20 269.00" xmlns="http://www.w3.org/2000/svg" xmlns:xlink="http://www.w3.org/1999/xlink">
<g id="graph0" class="graph" transform="scale(1 1) rotate(0) translate(4 265)">
<title>ARController::drawVideoSettings</title>
<polygon fill="#ffffff" stroke="transparent" points="-4,4 -4,-265 510.1963,-265 510.1963,4 -4,4"/>
<!-- Node31 -->
<g id="node1" class="node">
<title>Node31</title>
<polygon fill="#bfbfbf" stroke="#000000" points="0,-126.5 0,-144.5 162.0059,-144.5 162.0059,-126.5 0,-126.5"/>
<text text-anchor="middle" x="81.0029" y="-132.5" font-family="Helvetica,sans-Serif" font-size="10.00" fill="#000000">ARController::drawVideoSettings</text>
</g>
<!-- Node32 -->
<g id="node2" class="node">
<title>Node32</title>
<g id="a_node2"><a xlink:href="class_a_r_video_view.html#a25ffd610597c483020fd7e88e653fb78" target="_top" xlink:title="ARVideoView::setRotate90">
<polygon fill="#ffffff" stroke="#000000" points="206.6191,-242.5 206.6191,-260.5 342.7168,-260.5 342.7168,-242.5 206.6191,-242.5"/>
<text text-anchor="middle" x="274.668" y="-248.5" font-family="Helvetica,sans-Serif" font-size="10.00" fill="#000000">ARVideoView::setRotate90</text>
</a>
</g>
</g>
<!-- Node31&#45;&gt;Node32 -->
<g id="edge1" class="edge">
<title>Node31&#45;&gt;Node32</title>
<path fill="none" stroke="#191970" d="M89.0739,-144.6967C106.7541,-164.2383 151.0872,-210.0241 198.0059,-233.5 202.3615,-235.6794 206.9894,-237.6007 211.7296,-239.2937"/>
<polygon fill="#191970" stroke="#191970" points="210.9743,-242.7273 221.5657,-242.4575 213.1178,-236.0635 210.9743,-242.7273"/>
</g>
<!-- Node34 -->
<g id="node4" class="node">
<title>Node34</title>
<g id="a_node4"><a xlink:href="class_a_r_video_view.html#a128378e1e100251aa48159f50484dc79" target="_top" xlink:title="ARVideoView::setFlipH">
<polygon fill="#ffffff" stroke="#000000" points="215.2446,-205.5 215.2446,-223.5 334.0913,-223.5 334.0913,-205.5 215.2446,-205.5"/>
<text text-anchor="middle" x="274.668" y="-211.5" font-family="Helvetica,sans-Serif" font-size="10.00" fill="#000000">ARVideoView::setFlipH</text>
</a>
</g>
</g>
<!-- Node31&#45;&gt;Node34 -->
<g id="edge3" class="edge">
<title>Node31&#45;&gt;Node34</title>
<path fill="none" stroke="#191970" d="M95.5958,-144.6408C117.2103,-157.8187 159.3514,-182.1441 198.0059,-196.5 204.3778,-198.8665 211.1664,-200.9927 217.9693,-202.8827"/>
<polygon fill="#191970" stroke="#191970" points="217.3394,-206.3357 227.8999,-205.4833 219.1128,-199.5641 217.3394,-206.3357"/>
</g>
<!-- Node36 -->
<g id="node6" class="node">
<title>Node36</title>
<g id="a_node6"><a xlink:href="class_a_r_video_view.html#a4af1fe48c71a10461d23d71ced32ee12" target="_top" xlink:title="ARVideoView::setFlipV">
<polygon fill="#ffffff" stroke="#000000" points="215.5205,-168.5 215.5205,-186.5 333.8154,-186.5 333.8154,-168.5 215.5205,-168.5"/>
<text text-anchor="middle" x="274.668" y="-174.5" font-family="Helvetica,sans-Serif" font-size="10.00" fill="#000000">ARVideoView::setFlipV</text>
</a>
</g>
</g>
<!-- Node31&#45;&gt;Node36 -->
<g id="edge5" class="edge">
<title>Node31&#45;&gt;Node36</title>
<path fill="none" stroke="#191970" d="M122.5489,-144.5101C151.9336,-150.8827 191.5333,-159.4706 222.9629,-166.2868"/>
<polygon fill="#191970" stroke="#191970" points="222.3423,-169.7335 232.857,-168.4325 223.826,-162.8925 222.3423,-169.7335"/>
</g>
<!-- Node38 -->
<g id="node8" class="node">
<title>Node38</title>
<g id="a_node8"><a xlink:href="class_a_r_video_view.html#a4ff9d2658138c241024c96e47e91ef99" target="_top" xlink:title="ARVideoView::setHorizontal\lAlignment">
<polygon fill="#ffffff" stroke="#000000" points="204.4023,-121.5 204.4023,-149.5 344.9336,-149.5 344.9336,-121.5 204.4023,-121.5"/>
<text text-anchor="start" x="212.4023" y="-137.5" font-family="Helvetica,sans-Serif" font-size="10.00" fill="#000000">ARVideoView::setHorizontal</text>
<text text-anchor="middle" x="274.668" y="-127.5" font-family="Helvetica,sans-Serif" font-size="10.00" fill="#000000">Alignment</text>
</a>
</g>
</g>
<!-- Node31&#45;&gt;Node38 -->
<g id="edge7" class="edge">
<title>Node31&#45;&gt;Node38</title>
<path fill="none" stroke="#191970" d="M162.0122,-135.5C172.6162,-135.5 183.4804,-135.5 194.0774,-135.5"/>
<polygon fill="#191970" stroke="#191970" points="194.1384,-139.0001 204.1383,-135.5 194.1383,-132.0001 194.1384,-139.0001"/>
</g>
<!-- Node39 -->
<g id="node9" class="node">
<title>Node39</title>
<g id="a_node9"><a xlink:href="class_a_r_video_view.html#a7f3b8d64e4ae7fe284a6b8894deb859e" target="_top" xlink:title="ARVideoView::setVertical\lAlignment">
<polygon fill="#ffffff" stroke="#000000" points="210.5132,-74.5 210.5132,-102.5 338.8228,-102.5 338.8228,-74.5 210.5132,-74.5"/>
<text text-anchor="start" x="218.5132" y="-90.5" font-family="Helvetica,sans-Serif" font-size="10.00" fill="#000000">ARVideoView::setVertical</text>
<text text-anchor="middle" x="274.668" y="-80.5" font-family="Helvetica,sans-Serif" font-size="10.00" fill="#000000">Alignment</text>
</a>
</g>
</g>
<!-- Node31&#45;&gt;Node39 -->
<g id="edge8" class="edge">
<title>Node31&#45;&gt;Node39</title>
<path fill="none" stroke="#191970" d="M118.3435,-126.4379C143.4266,-120.3506 177.2051,-112.153 206.9448,-104.9355"/>
<polygon fill="#191970" stroke="#191970" points="207.9647,-108.2897 216.8572,-102.5299 206.3138,-101.4871 207.9647,-108.2897"/>
</g>
<!-- Node40 -->
<g id="node10" class="node">
<title>Node40</title>
<g id="a_node10"><a xlink:href="class_a_r_video_view.html#ab405e4937e0a64be4845fa7ba3e68e05" target="_top" xlink:title="ARVideoView::setScalingMode">
<polygon fill="#ffffff" stroke="#000000" points="198.0059,-37.5 198.0059,-55.5 351.3301,-55.5 351.3301,-37.5 198.0059,-37.5"/>
<text text-anchor="middle" x="274.668" y="-43.5" font-family="Helvetica,sans-Serif" font-size="10.00" fill="#000000">ARVideoView::setScalingMode</text>
</a>
</g>
</g>
<!-- Node31&#45;&gt;Node40 -->
<g id="edge9" class="edge">
<title>Node31&#45;&gt;Node40</title>
<path fill="none" stroke="#191970" d="M93.333,-126.4251C113.9808,-111.6299 157.3018,-82.2815 198.0059,-65.5 204.6296,-62.7692 211.743,-60.3616 218.8703,-58.2591"/>
<polygon fill="#191970" stroke="#191970" points="219.8491,-61.6198 228.5533,-55.5793 217.982,-54.8734 219.8491,-61.6198"/>
</g>
<!-- Node41 -->
<g id="node11" class="node">
<title>Node41</title>
<g id="a_node11"><a xlink:href="class_a_r_video_view.html#adca8d189a9a553d88632db91b9469bfa" target="_top" xlink:title="ARVideoView::getViewport">
<polygon fill="#ffffff" stroke="#000000" points="207.2661,-.5 207.2661,-18.5 342.0698,-18.5 342.0698,-.5 207.2661,-.5"/>
<text text-anchor="middle" x="274.668" y="-6.5" font-family="Helvetica,sans-Serif" font-size="10.00" fill="#000000">ARVideoView::getViewport</text>
</a>
</g>
</g>
<!-- Node31&#45;&gt;Node41 -->
<g id="edge10" class="edge">
<title>Node31&#45;&gt;Node41</title>
<path fill="none" stroke="#191970" d="M88.1309,-126.4238C104.9215,-105.6898 149.2366,-54.6295 198.0059,-28.5 202.8405,-25.9097 208.0359,-23.665 213.3614,-21.7212"/>
<polygon fill="#191970" stroke="#191970" points="214.6327,-24.9875 223.0378,-18.5375 212.4449,-18.3382 214.6327,-24.9875"/>
</g>
<!-- Node33 -->
<g id="node3" class="node">
<title>Node33</title>
<g id="a_node3"><a xlink:href="class_a_r_video_view.html#a1fd2ef182b3414370cafb069885c92c7" target="_top" xlink:title="Defaults to true. ">
<polygon fill="#ffffff" stroke="#000000" points="387.3301,-242.5 387.3301,-260.5 506.1963,-260.5 506.1963,-242.5 387.3301,-242.5"/>
<text text-anchor="middle" x="446.7632" y="-248.5" font-family="Helvetica,sans-Serif" font-size="10.00" fill="#000000">ARVideoView::rotate90</text>
</a>
</g>
</g>
<!-- Node32&#45;&gt;Node33 -->
<g id="edge2" class="edge">
<title>Node32&#45;&gt;Node33</title>
<path fill="none" stroke="#191970" d="M343.179,-251.5C354.3026,-251.5 365.8345,-251.5 376.9879,-251.5"/>
<polygon fill="#191970" stroke="#191970" points="377.1018,-255.0001 387.1018,-251.5 377.1018,-248.0001 377.1018,-255.0001"/>
</g>
<!-- Node35 -->
<g id="node5" class="node">
<title>Node35</title>
<g id="a_node5"><a xlink:href="class_a_r_video_view.html#a34d5b337ce0eec2744d73169b2e26211" target="_top" xlink:title="Defaults to false. ">
<polygon fill="#ffffff" stroke="#000000" points="395.6748,-205.5 395.6748,-223.5 497.8516,-223.5 497.8516,-205.5 395.6748,-205.5"/>
<text text-anchor="middle" x="446.7632" y="-211.5" font-family="Helvetica,sans-Serif" font-size="10.00" fill="#000000">ARVideoView::flipH</text>
</a>
</g>
</g>
<!-- Node34&#45;&gt;Node35 -->
<g id="edge4" class="edge">
<title>Node34&#45;&gt;Node35</title>
<path fill="none" stroke="#191970" d="M334.3755,-214.5C350.8565,-214.5 368.7641,-214.5 385.3405,-214.5"/>
<polygon fill="#191970" stroke="#191970" points="385.4649,-218.0001 395.4649,-214.5 385.4648,-211.0001 385.4649,-218.0001"/>
</g>
<!-- Node37 -->
<g id="node7" class="node">
<title>Node37</title>
<g id="a_node7"><a xlink:href="class_a_r_video_view.html#a92fd6ecb873b76246736c8dbc42c18d1" target="_top" xlink:title="Defaults to false. ">
<polygon fill="#ffffff" stroke="#000000" points="395.9507,-168.5 395.9507,-186.5 497.5757,-186.5 497.5757,-168.5 395.9507,-168.5"/>
<text text-anchor="middle" x="446.7632" y="-174.5" font-family="Helvetica,sans-Serif" font-size="10.00" fill="#000000">ARVideoView::flipV</text>
</a>
</g>
</g>
<!-- Node36&#45;&gt;Node37 -->
<g id="edge6" class="edge">
<title>Node36&#45;&gt;Node37</title>
<path fill="none" stroke="#191970" d="M333.8934,-177.5C350.5605,-177.5 368.7193,-177.5 385.5027,-177.5"/>
<polygon fill="#191970" stroke="#191970" points="385.7494,-181.0001 395.7494,-177.5 385.7493,-174.0001 385.7494,-181.0001"/>
</g>
</g>
</svg>
