<?xml version="1.0" encoding="UTF-8" standalone="no"?>
<!DOCTYPE svg PUBLIC "-//W3C//DTD SVG 1.1//EN"
 "http://www.w3.org/Graphics/SVG/1.1/DTD/svg11.dtd">
<!-- Generated by graphviz version 2.40.1 (20161225.0304)
 -->
<!-- Title: PlanarTracker::PlanarTrackerImpl::RunTemplateMatching Pages: 1 -->
<svg width="516pt" height="366pt"
 viewBox="0.00 0.00 515.95 366.00" xmlns="http://www.w3.org/2000/svg" xmlns:xlink="http://www.w3.org/1999/xlink">
<g id="graph0" class="graph" transform="scale(1 1) rotate(0) translate(4 362)">
<title>PlanarTracker::PlanarTrackerImpl::RunTemplateMatching</title>
<polygon fill="#ffffff" stroke="transparent" points="-4,4 -4,-362 511.9492,-362 511.9492,4 -4,4"/>
<!-- Node90 -->
<g id="node1" class="node">
<title>Node90</title>
<polygon fill="#bfbfbf" stroke="#000000" points="0,-164.5 0,-192.5 146.4199,-192.5 146.4199,-164.5 0,-164.5"/>
<text text-anchor="start" x="8" y="-180.5" font-family="Helvetica,sans-Serif" font-size="10.00" fill="#000000">PlanarTracker::PlanarTracker</text>
<text text-anchor="middle" x="73.21" y="-170.5" font-family="Helvetica,sans-Serif" font-size="10.00" fill="#000000">Impl::RunTemplateMatching</text>
</g>
<!-- Node91 -->
<g id="node2" class="node">
<title>Node91</title>
<g id="a_node2"><a xlink:href="class_planar_tracker_1_1_planar_tracker_impl.html#aace5e63679577c60230fd0829ac39720" target="_top" xlink:title="PlanarTracker::PlanarTracker\lImpl::GetTemplateRoi">
<polygon fill="#ffffff" stroke="#000000" points="195.9526,-329.5 195.9526,-357.5 342.3726,-357.5 342.3726,-329.5 195.9526,-329.5"/>
<text text-anchor="start" x="203.9526" y="-345.5" font-family="Helvetica,sans-Serif" font-size="10.00" fill="#000000">PlanarTracker::PlanarTracker</text>
<text text-anchor="middle" x="269.1626" y="-335.5" font-family="Helvetica,sans-Serif" font-size="10.00" fill="#000000">Impl::GetTemplateRoi</text>
</a>
</g>
</g>
<!-- Node90&#45;&gt;Node91 -->
<g id="edge1" class="edge">
<title>Node90&#45;&gt;Node91</title>
<path fill="none" stroke="#191970" d="M80.0323,-192.6791C94.6155,-221.4317 131.6731,-286.7283 182.4199,-320.5 184.8518,-322.1184 187.3929,-323.6232 190.0139,-325.0222"/>
<polygon fill="#191970" stroke="#191970" points="188.6574,-328.2526 199.1918,-329.3831 191.6617,-321.93 188.6574,-328.2526"/>
</g>
<!-- Node92 -->
<g id="node3" class="node">
<title>Node92</title>
<g id="a_node3"><a xlink:href="class_planar_tracker_1_1_planar_tracker_impl.html#a3fda737b66dff42b043010a8183fc792" target="_top" xlink:title="PlanarTracker::PlanarTracker\lImpl::IsRoiValidForFrame">
<polygon fill="#ffffff" stroke="#000000" points="195.9526,-282.5 195.9526,-310.5 342.3726,-310.5 342.3726,-282.5 195.9526,-282.5"/>
<text text-anchor="start" x="203.9526" y="-298.5" font-family="Helvetica,sans-Serif" font-size="10.00" fill="#000000">PlanarTracker::PlanarTracker</text>
<text text-anchor="middle" x="269.1626" y="-288.5" font-family="Helvetica,sans-Serif" font-size="10.00" fill="#000000">Impl::IsRoiValidForFrame</text>
</a>
</g>
</g>
<!-- Node90&#45;&gt;Node92 -->
<g id="edge2" class="edge">
<title>Node90&#45;&gt;Node92</title>
<path fill="none" stroke="#191970" d="M85.491,-192.6974C104.2807,-213.5249 142.2349,-252.1918 182.4199,-273.5 185.9578,-275.376 189.6597,-277.1071 193.4571,-278.7036"/>
<polygon fill="#191970" stroke="#191970" points="192.4638,-282.0716 203.0535,-282.4003 194.9801,-275.5395 192.4638,-282.0716"/>
</g>
<!-- Node93 -->
<g id="node4" class="node">
<title>Node93</title>
<g id="a_node4"><a xlink:href="class_planar_tracker_1_1_planar_tracker_impl.html#a94f3ee0c3400c374dda006d6ae1406f9" target="_top" xlink:title="PlanarTracker::PlanarTracker\lImpl::GetVerticesFromPoint">
<polygon fill="#ffffff" stroke="#000000" points="195.9526,-235.5 195.9526,-263.5 342.3726,-263.5 342.3726,-235.5 195.9526,-235.5"/>
<text text-anchor="start" x="203.9526" y="-251.5" font-family="Helvetica,sans-Serif" font-size="10.00" fill="#000000">PlanarTracker::PlanarTracker</text>
<text text-anchor="middle" x="269.1626" y="-241.5" font-family="Helvetica,sans-Serif" font-size="10.00" fill="#000000">Impl::GetVerticesFromPoint</text>
</a>
</g>
</g>
<!-- Node90&#45;&gt;Node93 -->
<g id="edge3" class="edge">
<title>Node90&#45;&gt;Node93</title>
<path fill="none" stroke="#191970" d="M101.9209,-192.5823C123.6656,-202.8862 154.4662,-216.7171 182.4199,-226.5 188.4032,-228.5939 194.6757,-230.6033 200.9943,-232.502"/>
<polygon fill="#191970" stroke="#191970" points="200.3472,-235.9587 210.9268,-235.3909 202.3022,-229.2373 200.3472,-235.9587"/>
</g>
<!-- Node94 -->
<g id="node5" class="node">
<title>Node94</title>
<g id="a_node5"><a xlink:href="class_planar_tracker_1_1_planar_tracker_impl.html#ada999156a2aff9866d9b81df2b8590c7" target="_top" xlink:title="PlanarTracker::PlanarTracker\lImpl::GetVerticesFromTopCorner">
<polygon fill="#ffffff" stroke="#000000" points="188.0815,-188.5 188.0815,-216.5 350.2437,-216.5 350.2437,-188.5 188.0815,-188.5"/>
<text text-anchor="start" x="196.0815" y="-204.5" font-family="Helvetica,sans-Serif" font-size="10.00" fill="#000000">PlanarTracker::PlanarTracker</text>
<text text-anchor="middle" x="269.1626" y="-194.5" font-family="Helvetica,sans-Serif" font-size="10.00" fill="#000000">Impl::GetVerticesFromTopCorner</text>
</a>
</g>
</g>
<!-- Node90&#45;&gt;Node94 -->
<g id="edge4" class="edge">
<title>Node90&#45;&gt;Node94</title>
<path fill="none" stroke="#191970" d="M146.4541,-187.4708C156.6691,-188.722 167.2679,-190.0201 177.7655,-191.3058"/>
<polygon fill="#191970" stroke="#191970" points="177.432,-194.791 187.7833,-192.5328 178.283,-187.843 177.432,-194.791"/>
</g>
<!-- Node95 -->
<g id="node6" class="node">
<title>Node95</title>
<g id="a_node6"><a xlink:href="class_planar_tracker_1_1_planar_tracker_impl.html#a344c4de330b09e69311b978fd716e504" target="_top" xlink:title="PlanarTracker::PlanarTracker\lImpl::FloorVertexPoints">
<polygon fill="#ffffff" stroke="#000000" points="195.9526,-141.5 195.9526,-169.5 342.3726,-169.5 342.3726,-141.5 195.9526,-141.5"/>
<text text-anchor="start" x="203.9526" y="-157.5" font-family="Helvetica,sans-Serif" font-size="10.00" fill="#000000">PlanarTracker::PlanarTracker</text>
<text text-anchor="middle" x="269.1626" y="-147.5" font-family="Helvetica,sans-Serif" font-size="10.00" fill="#000000">Impl::FloorVertexPoints</text>
</a>
</g>
</g>
<!-- Node90&#45;&gt;Node95 -->
<g id="edge5" class="edge">
<title>Node90&#45;&gt;Node95</title>
<path fill="none" stroke="#191970" d="M146.4541,-169.9029C159.149,-168.4129 172.4365,-166.8532 185.386,-165.3333"/>
<polygon fill="#191970" stroke="#191970" points="186.1572,-168.7669 195.681,-164.1249 185.3411,-161.8146 186.1572,-168.7669"/>
</g>
<!-- Node96 -->
<g id="node7" class="node">
<title>Node96</title>
<g id="a_node7"><a xlink:href="class_planar_tracker_1_1_planar_tracker_impl.html#a08ef0ac5b1da5887bc48f06eeb67ca16" target="_top" xlink:title="PlanarTracker::PlanarTracker\lImpl::InflateRoi">
<polygon fill="#ffffff" stroke="#000000" points="195.9526,-94.5 195.9526,-122.5 342.3726,-122.5 342.3726,-94.5 195.9526,-94.5"/>
<text text-anchor="start" x="203.9526" y="-110.5" font-family="Helvetica,sans-Serif" font-size="10.00" fill="#000000">PlanarTracker::PlanarTracker</text>
<text text-anchor="middle" x="269.1626" y="-100.5" font-family="Helvetica,sans-Serif" font-size="10.00" fill="#000000">Impl::InflateRoi</text>
</a>
</g>
</g>
<!-- Node90&#45;&gt;Node96 -->
<g id="edge6" class="edge">
<title>Node90&#45;&gt;Node96</title>
<path fill="none" stroke="#191970" d="M103.8656,-164.337C125.5308,-154.6378 155.406,-141.8826 182.4199,-132.5 189.5014,-130.0404 196.9752,-127.6598 204.4456,-125.4149"/>
<polygon fill="#191970" stroke="#191970" points="205.619,-128.7183 214.2308,-122.5468 203.6501,-122.0009 205.619,-128.7183"/>
</g>
<!-- Node97 -->
<g id="node8" class="node">
<title>Node97</title>
<g id="a_node8"><a xlink:href="class_planar_tracker_1_1_planar_tracker_impl.html#a78f2548808b2dbc02523d5b8bf20dc76" target="_top" xlink:title="PlanarTracker::PlanarTracker\lImpl::MatchTemplateToImage">
<polygon fill="#ffffff" stroke="#000000" points="195.8574,-47.5 195.8574,-75.5 342.4678,-75.5 342.4678,-47.5 195.8574,-47.5"/>
<text text-anchor="start" x="203.8574" y="-63.5" font-family="Helvetica,sans-Serif" font-size="10.00" fill="#000000">PlanarTracker::PlanarTracker</text>
<text text-anchor="middle" x="269.1626" y="-53.5" font-family="Helvetica,sans-Serif" font-size="10.00" fill="#000000">Impl::MatchTemplateToImage</text>
</a>
</g>
</g>
<!-- Node90&#45;&gt;Node97 -->
<g id="edge7" class="edge">
<title>Node90&#45;&gt;Node97</title>
<path fill="none" stroke="#191970" d="M85.9001,-164.3306C104.9154,-143.9488 142.8195,-106.5039 182.4199,-85.5 186.8781,-83.1354 191.5921,-80.9854 196.4262,-79.0336"/>
<polygon fill="#191970" stroke="#191970" points="197.6916,-82.2972 205.8353,-75.5199 195.2427,-75.7395 197.6916,-82.2972"/>
</g>
<!-- Node98 -->
<g id="node9" class="node">
<title>Node98</title>
<g id="a_node9"><a xlink:href="class_planar_tracker_1_1_planar_tracker_impl.html#ab33c6c9dfe6b1c7d06478328d20c6905" target="_top" xlink:title="PlanarTracker::PlanarTracker\lImpl::UpdateTrackableHomography">
<polygon fill="#ffffff" stroke="#000000" points="182.4199,-.5 182.4199,-28.5 355.9053,-28.5 355.9053,-.5 182.4199,-.5"/>
<text text-anchor="start" x="190.4199" y="-16.5" font-family="Helvetica,sans-Serif" font-size="10.00" fill="#000000">PlanarTracker::PlanarTracker</text>
<text text-anchor="middle" x="269.1626" y="-6.5" font-family="Helvetica,sans-Serif" font-size="10.00" fill="#000000">Impl::UpdateTrackableHomography</text>
</a>
</g>
</g>
<!-- Node90&#45;&gt;Node98 -->
<g id="edge8" class="edge">
<title>Node90&#45;&gt;Node98</title>
<path fill="none" stroke="#191970" d="M80.3442,-164.1305C95.2371,-135.6472 132.4423,-71.8997 182.4199,-38.5 185.5256,-36.4245 188.8078,-34.5273 192.2062,-32.7932"/>
<polygon fill="#191970" stroke="#191970" points="193.7943,-35.9157 201.4328,-28.5737 190.883,-29.5498 193.7943,-35.9157"/>
</g>
<!-- Node99 -->
<g id="node10" class="node">
<title>Node99</title>
<g id="a_node10"><a xlink:href="_o_c_v_utils_8h.html#a7fe5bf75dbdbdb3b864fd17f80e8129f" target="_top" xlink:title="GetHomographyInliers">
<polygon fill="#ffffff" stroke="#000000" points="391.9053,-5.5 391.9053,-23.5 507.9492,-23.5 507.9492,-5.5 391.9053,-5.5"/>
<text text-anchor="middle" x="449.9272" y="-11.5" font-family="Helvetica,sans-Serif" font-size="10.00" fill="#000000">GetHomographyInliers</text>
</a>
</g>
</g>
<!-- Node98&#45;&gt;Node99 -->
<g id="edge9" class="edge">
<title>Node98&#45;&gt;Node99</title>
<path fill="none" stroke="#191970" d="M356.1034,-14.5C364.7198,-14.5 373.3781,-14.5 381.7642,-14.5"/>
<polygon fill="#191970" stroke="#191970" points="381.8375,-18.0001 391.8374,-14.5 381.8374,-11.0001 381.8375,-18.0001"/>
</g>
</g>
</svg>
