<?xml version="1.0" encoding="UTF-8" standalone="no"?>
<!DOCTYPE svg PUBLIC "-//W3C//DTD SVG 1.1//EN"
 "http://www.w3.org/Graphics/SVG/1.1/DTD/svg11.dtd">
<!-- Generated by graphviz version 8.0.5 (20230430.1635)
 -->
<!-- Title: ARController::projectionMatrix Pages: 1 -->
<svg width="446pt" height="150pt"
 viewBox="0.00 0.00 446.00 150.25" xmlns="http://www.w3.org/2000/svg" xmlns:xlink="http://www.w3.org/1999/xlink">
<g id="graph0" class="graph" transform="scale(1 1) rotate(0) translate(4 146.25)">
<title>ARController::projectionMatrix</title>
<!-- Node1 -->
<g id="node1" class="node">
<title>Node1</title>
<g id="a_node1"><a xlink:title="Populates the provided array with the ARToolKit projection matrix.">
<polygon fill="#999999" stroke="#666666" points="120.25,-82.88 0,-82.88 0,-52.38 120.25,-52.38 120.25,-82.88"/>
<text text-anchor="start" x="8" y="-69.38" font-family="Helvetica,sans-Serif" font-size="10.00">ARController::projection</text>
<text text-anchor="middle" x="60.12" y="-58.12" font-family="Helvetica,sans-Serif" font-size="10.00">Matrix</text>
</a>
</g>
</g>
<!-- Node2 -->
<g id="node2" class="node">
<title>Node2</title>
<g id="a_node2"><a xlink:href="param_g_l_8c.html#a47cc5a7056c5638682a07acee44df9f4" target="_top" xlink:title="Create an OpenGL perspective projection matrix.">
<polygon fill="white" stroke="#666666" points="284.75,-142.25 167.5,-142.25 167.5,-123 284.75,-123 284.75,-142.25"/>
<text text-anchor="middle" x="226.12" y="-128.75" font-family="Helvetica,sans-Serif" font-size="10.00">arglCameraFrustumRH</text>
</a>
</g>
</g>
<!-- Node1&#45;&gt;Node2 -->
<g id="edge1" class="edge">
<title>Node1&#45;&gt;Node2</title>
<path fill="none" stroke="#63b8ff" d="M90.09,-83.33C108.63,-92.95 133.41,-105.03 156.25,-113.62 161.76,-115.7 167.6,-117.66 173.46,-119.47"/>
<polygon fill="#63b8ff" stroke="#63b8ff" points="172.36,-123.09 182.94,-122.58 174.35,-116.38 172.36,-123.09"/>
</g>
<!-- Node4 -->
<g id="node4" class="node">
<title>Node4</title>
<g id="a_node4"><a xlink:href="class_a_r_video_source.html#a5feeb630d5706513ba1d48ba7dcd2c31" target="_top" xlink:title="Returns the camera parameters for the video source.">
<polygon fill="white" stroke="#666666" points="296,-104.88 156.25,-104.88 156.25,-74.38 296,-74.38 296,-104.88"/>
<text text-anchor="start" x="164.25" y="-91.38" font-family="Helvetica,sans-Serif" font-size="10.00">ARVideoSource::getCamera</text>
<text text-anchor="middle" x="226.12" y="-80.12" font-family="Helvetica,sans-Serif" font-size="10.00">Parameters</text>
</a>
</g>
</g>
<!-- Node1&#45;&gt;Node4 -->
<g id="edge3" class="edge">
<title>Node1&#45;&gt;Node4</title>
<path fill="none" stroke="#63b8ff" d="M120.33,-75.57C128.46,-76.66 136.91,-77.79 145.34,-78.92"/>
<polygon fill="#63b8ff" stroke="#63b8ff" points="144.58,-82.49 154.96,-80.35 145.51,-75.55 144.58,-82.49"/>
</g>
<!-- Node5 -->
<g id="node5" class="node">
<title>Node5</title>
<g id="a_node5"><a xlink:href="class_a_r_video_source.html#a1e884eb3148cf3f996be7e7a0e79b546" target="_top" xlink:title="Returns true if the video source is open.">
<polygon fill="white" stroke="#666666" points="287.38,-56.25 164.88,-56.25 164.88,-37 287.38,-37 287.38,-56.25"/>
<text text-anchor="middle" x="226.12" y="-42.75" font-family="Helvetica,sans-Serif" font-size="10.00">ARVideoSource::isOpen</text>
</a>
</g>
</g>
<!-- Node1&#45;&gt;Node5 -->
<g id="edge4" class="edge">
<title>Node1&#45;&gt;Node5</title>
<path fill="none" stroke="#63b8ff" d="M120.33,-60.04C131.25,-58.65 142.75,-57.17 153.98,-55.74"/>
<polygon fill="#63b8ff" stroke="#63b8ff" points="154.15,-59.11 163.63,-54.37 153.26,-52.17 154.15,-59.11"/>
</g>
<!-- Node6 -->
<g id="node6" class="node">
<title>Node6</title>
<g id="a_node6"><a xlink:href="class_a_r_video_source.html#adcdfb6d6fcf844c7578bec2b3f978108" target="_top" xlink:title="Returns true if the video source is open and ready to be queried.">
<polygon fill="white" stroke="#666666" points="293.75,-19.25 158.5,-19.25 158.5,0 293.75,0 293.75,-19.25"/>
<text text-anchor="middle" x="226.12" y="-5.75" font-family="Helvetica,sans-Serif" font-size="10.00">ARVideoSource::isRunning</text>
</a>
</g>
</g>
<!-- Node1&#45;&gt;Node6 -->
<g id="edge5" class="edge">
<title>Node1&#45;&gt;Node6</title>
<path fill="none" stroke="#63b8ff" d="M95.01,-51.99C112.98,-44.06 135.55,-34.64 156.25,-27.62 161.39,-25.88 166.78,-24.21 172.2,-22.63"/>
<polygon fill="#63b8ff" stroke="#63b8ff" points="172.9,-25.79 181.59,-19.73 171.02,-19.05 172.9,-25.79"/>
</g>
<!-- Node3 -->
<g id="node3" class="node">
<title>Node3</title>
<g id="a_node3"><a xlink:href="param_decomp_8c.html#af8d8284f4489d90d4408f7514866dca1" target="_top" xlink:title=" ">
<polygon fill="white" stroke="#666666" points="438,-142.25 332,-142.25 332,-123 438,-123 438,-142.25"/>
<text text-anchor="middle" x="385" y="-128.75" font-family="Helvetica,sans-Serif" font-size="10.00">arParamDecompMat</text>
</a>
</g>
</g>
<!-- Node2&#45;&gt;Node3 -->
<g id="edge2" class="edge">
<title>Node2&#45;&gt;Node3</title>
<path fill="none" stroke="#63b8ff" d="M285.09,-132.62C296.79,-132.62 309.13,-132.62 320.99,-132.62"/>
<polygon fill="#63b8ff" stroke="#63b8ff" points="320.71,-136.13 330.71,-132.62 320.71,-129.13 320.71,-136.13"/>
</g>
</g>
</svg>
