<?xml version="1.0" encoding="UTF-8" standalone="no"?>
<!DOCTYPE svg PUBLIC "-//W3C//DTD SVG 1.1//EN"
 "http://www.w3.org/Graphics/SVG/1.1/DTD/svg11.dtd">
<!-- Generated by graphviz version 2.40.1 (20161225.0304)
 -->
<!-- Title: ARTrackableSquare Pages: 1 -->
<svg width="203pt" height="157pt"
 viewBox="0.00 0.00 202.67 157.00" xmlns="http://www.w3.org/2000/svg" xmlns:xlink="http://www.w3.org/1999/xlink">
<g id="graph0" class="graph" transform="scale(1 1) rotate(0) translate(4 153)">
<title>ARTrackableSquare</title>
<polygon fill="#ffffff" stroke="transparent" points="-4,4 -4,-153 198.667,-153 198.667,4 -4,4"/>
<!-- Node2 -->
<g id="node1" class="node">
<title>Node2</title>
<polygon fill="#bfbfbf" stroke="#000000" points="53.877,-.5 53.877,-18.5 159.3789,-18.5 159.3789,-.5 53.877,-.5"/>
<text text-anchor="middle" x="106.6279" y="-6.5" font-family="Helvetica,sans-Serif" font-size="10.00" fill="#000000">ARTrackableSquare</text>
</g>
<!-- Node3 -->
<g id="node2" class="node">
<title>Node3</title>
<g id="a_node2"><a xlink:href="class_a_r_trackable.html" target="_top" xlink:title="Base class for supported trackable types. ">
<polygon fill="#ffffff" stroke="#000000" points="0,-65.5 0,-83.5 73.2559,-83.5 73.2559,-65.5 0,-65.5"/>
<text text-anchor="middle" x="36.6279" y="-71.5" font-family="Helvetica,sans-Serif" font-size="10.00" fill="#000000">ARTrackable</text>
</a>
</g>
</g>
<!-- Node3&#45;&gt;Node2 -->
<g id="edge1" class="edge">
<title>Node3&#45;&gt;Node2</title>
<path fill="none" stroke="#191970" d="M53.9889,-58.3791C67.3731,-45.9509 85.4166,-29.1962 96.5241,-18.8821"/>
<polygon fill="#191970" stroke="#191970" points="51.3075,-56.0927 46.3611,-65.462 56.0707,-61.2223 51.3075,-56.0927"/>
</g>
<!-- Node4 -->
<g id="node3" class="node">
<title>Node4</title>
<g id="a_node3"><a xlink:href="class_a_r_pattern.html" target="_top" xlink:title="Encapsulates information about a sub&#45;component of a marker useful for presentation to a user...">
<polygon fill="#ffffff" stroke="#000000" points="5.5615,-130.5 5.5615,-148.5 67.6943,-148.5 67.6943,-130.5 5.5615,-130.5"/>
<text text-anchor="middle" x="36.6279" y="-136.5" font-family="Helvetica,sans-Serif" font-size="10.00" fill="#000000">ARPattern</text>
</a>
</g>
</g>
<!-- Node4&#45;&gt;Node3 -->
<g id="edge2" class="edge">
<title>Node4&#45;&gt;Node3</title>
<path fill="none" stroke="#9a32cd" stroke-dasharray="5,2" d="M36.6279,-120.1265C36.6279,-108.1522 36.6279,-93.3205 36.6279,-83.8821"/>
<polygon fill="#9a32cd" stroke="#9a32cd" points="33.128,-120.462 36.6279,-130.462 40.128,-120.4621 33.128,-120.462"/>
<text text-anchor="middle" x="56.0835" y="-104" font-family="Helvetica,sans-Serif" font-size="10.00" fill="#000000"> patterns</text>
</g>
<!-- Node5 -->
<g id="node4" class="node">
<title>Node5</title>
<g id="a_node4"><a xlink:href="struct_a_r_patt_handle.html" target="_top" xlink:title="A structure which holds descriptions of trained patterns for template matching. ">
<polygon fill="#ffffff" stroke="#000000" points="90.9434,-65.5 90.9434,-83.5 170.3125,-83.5 170.3125,-65.5 90.9434,-65.5"/>
<text text-anchor="middle" x="130.6279" y="-71.5" font-family="Helvetica,sans-Serif" font-size="10.00" fill="#000000">ARPattHandle</text>
</a>
</g>
</g>
<!-- Node5&#45;&gt;Node2 -->
<g id="edge3" class="edge">
<title>Node5&#45;&gt;Node2</title>
<path fill="none" stroke="#9a32cd" stroke-dasharray="5,2" d="M123.7467,-55.8634C119.28,-43.7661 113.6489,-28.5151 110.0921,-18.8821"/>
<polygon fill="#9a32cd" stroke="#9a32cd" points="120.5437,-57.2934 127.2908,-65.462 127.1104,-54.8687 120.5437,-57.2934"/>
<text text-anchor="middle" x="157.1475" y="-39" font-family="Helvetica,sans-Serif" font-size="10.00" fill="#000000"> m_arPattHandle</text>
</g>
</g>
</svg>
