<?xml version="1.0" encoding="UTF-8" standalone="no"?>
<!DOCTYPE svg PUBLIC "-//W3C//DTD SVG 1.1//EN"
 "http://www.w3.org/Graphics/SVG/1.1/DTD/svg11.dtd">
<!-- Generated by graphviz version 8.0.5 (20230430.1635)
 -->
<!-- Title: ARVideoSource::close Pages: 1 -->
<!--zoomable 841 -->
<svg id="main" version="1.1" xmlns="http://www.w3.org/2000/svg" xmlns:xlink="http://www.w3.org/1999/xlink" xml:space="preserve" onload="init(evt)">
<style type="text/css"><![CDATA[
.edge:hover path { stroke: red; }
.edge:hover polygon { stroke: red; fill: red; }
]]></style>
<script type="text/javascript"><![CDATA[
var edges = document.getElementsByTagName('g');
if (edges && edges.length) {
  for (var i=0;i<edges.length;i++) {
    if (edges[i].id.substr(0,4)=='edge') {
      edges[i].setAttribute('class','edge');
    }
  }
}
]]></script>
        <defs>
                <circle id="rim" cx="0" cy="0" r="7"/>
                <circle id="rim2" cx="0" cy="0" r="3.5"/>
                <g id="zoomPlus">
                        <use xlink:href="#rim" fill="#404040">
                                <set attributeName="fill" to="#808080" begin="zoomplus.mouseover" end="zoomplus.mouseout"/>
                        </use>
                        <path d="M-4,0h8M0,-4v8" fill="none" stroke="white" stroke-width="1.5" pointer-events="none"/>
                </g>
                <g id="zoomMin">
                        <use xlink:href="#rim" fill="#404040">
                                <set attributeName="fill" to="#808080" begin="zoomminus.mouseover" end="zoomminus.mouseout"/>
                        </use>
                        <path d="M-4,0h8" fill="none" stroke="white" stroke-width="1.5" pointer-events="none"/>
                </g>
                <g id="dirArrow">
                        <path fill="none" stroke="white" stroke-width="1.5" d="M0,-3.0v7 M-2.5,-0.5L0,-3.0L2.5,-0.5"/>
                </g>
               <g id="resetDef">
                       <use xlink:href="#rim2" fill="#404040">
                               <set attributeName="fill" to="#808080" begin="reset.mouseover" end="reset.mouseout"/>
                       </use>
               </g>
        </defs>

<script type="text/javascript">
var viewWidth = 440;
var viewHeight = 841;
var sectionId = 'dynsection-2';
</script>
<script xlink:href="svgpan.js"/>
<svg id="graph" class="graph">
<g id="viewport">
<title>ARVideoSource::close</title>
<!-- Node1 -->
<g id="node1" class="node">
<title>Node1</title>
<g id="a_node1"><a xlink:title="Closes the video source.">
<polygon fill="#999999" stroke="#666666" points="115,-241.25 0,-241.25 0,-222 115,-222 115,-241.25"/>
<text text-anchor="middle" x="57.5" y="-227.75" font-family="Helvetica,sans-Serif" font-size="10.00">ARVideoSource::close</text>
</a>
</g>
</g>
<!-- Node2 -->
<g id="node2" class="node">
<title>Node2</title>
<g id="a_node2"><a xlink:href="video2_8c.html#a76c9cee4e58dd8dd4940ed6af42cdba2" target="_top" xlink:title=" ">
<polygon fill="white" stroke="#666666" points="243.5,-629.25 151,-629.25 151,-610 243.5,-610 243.5,-629.25"/>
<text text-anchor="middle" x="197.25" y="-615.75" font-family="Helvetica,sans-Serif" font-size="10.00">ar2VideoCapStop</text>
</a>
</g>
</g>
<!-- Node1&#45;&gt;Node2 -->
<g id="edge1" class="edge">
<title>Node1&#45;&gt;Node2</title>
<path fill="none" stroke="#63b8ff" d="M62.04,-241.61C80.31,-293.07 163.98,-528.74 189.1,-599.49"/>
<polygon fill="#63b8ff" stroke="#63b8ff" points="186.09,-600.46 192.73,-608.71 192.68,-598.12 186.09,-600.46"/>
</g>
<!-- Node14 -->
<g id="node14" class="node">
<title>Node14</title>
<g id="a_node14"><a xlink:href="video2_8c.html#ad80147e1796fd8bfdd41d5adfb0c10dd" target="_top" xlink:title=" ">
<polygon fill="white" stroke="#666666" points="237.12,-241.25 157.38,-241.25 157.38,-222 237.12,-222 237.12,-241.25"/>
<text text-anchor="middle" x="197.25" y="-227.75" font-family="Helvetica,sans-Serif" font-size="10.00">ar2VideoClose</text>
</a>
</g>
</g>
<!-- Node1&#45;&gt;Node14 -->
<g id="edge13" class="edge">
<title>Node1&#45;&gt;Node14</title>
<path fill="none" stroke="#63b8ff" d="M115.32,-231.62C125.66,-231.62 136.38,-231.62 146.5,-231.62"/>
<polygon fill="#63b8ff" stroke="#63b8ff" points="146.19,-235.13 156.19,-231.62 146.19,-228.13 146.19,-235.13"/>
</g>
<!-- Node27 -->
<g id="node27" class="node">
<title>Node27</title>
<g id="a_node27"><a xlink:href="param_l_t_8c.html#a42d02aaf13cedaf0f2cd1b93a5d81643" target="_top" xlink:title="Dispose of a memory allocated to a lookup&#45;table camera parameter.">
<polygon fill="white" stroke="#666666" points="239,-204.25 155.5,-204.25 155.5,-185 239,-185 239,-204.25"/>
<text text-anchor="middle" x="197.25" y="-190.75" font-family="Helvetica,sans-Serif" font-size="10.00">arParamLTFree</text>
</a>
</g>
</g>
<!-- Node1&#45;&gt;Node27 -->
<g id="edge26" class="edge">
<title>Node1&#45;&gt;Node27</title>
<path fill="none" stroke="#63b8ff" d="M96.14,-221.51C112.24,-217.19 131.22,-212.09 148.31,-207.5"/>
<polygon fill="#63b8ff" stroke="#63b8ff" points="148.9,-210.7 157.65,-204.72 147.09,-203.94 148.9,-210.7"/>
</g>
<!-- Node3 -->
<g id="node3" class="node">
<title>Node3</title>
<g id="a_node3"><a xlink:href="video1394_8h.html#a23f653b38bb02af6d9050d02b0702f94" target="_top" xlink:title=" ">
<polygon fill="white" stroke="#666666" points="412.5,-833.25 299,-833.25 299,-814 412.5,-814 412.5,-833.25"/>
<text text-anchor="middle" x="355.75" y="-819.75" font-family="Helvetica,sans-Serif" font-size="10.00">ar2VideoCapStop1394</text>
</a>
</g>
</g>
<!-- Node2&#45;&gt;Node3 -->
<g id="edge2" class="edge">
<title>Node2&#45;&gt;Node3</title>
<path fill="none" stroke="#63b8ff" d="M199.49,-629.53C203.92,-660.68 221.94,-757.45 279.5,-805.62 282.37,-808.03 285.5,-810.12 288.81,-811.94"/>
<polygon fill="#63b8ff" stroke="#63b8ff" points="286.97,-815.4 297.52,-816.39 289.89,-809.04 286.97,-815.4"/>
</g>
<!-- Node4 -->
<g id="node4" class="node">
<title>Node4</title>
<g id="a_node4"><a xlink:href="video_android_8h.html#a0d13c2368b42b9e85c60830fb13fd04e" target="_top" xlink:title=" ">
<polygon fill="white" stroke="#666666" points="418.5,-796.25 293,-796.25 293,-777 418.5,-777 418.5,-796.25"/>
<text text-anchor="middle" x="355.75" y="-782.75" font-family="Helvetica,sans-Serif" font-size="10.00">ar2VideoCapStopAndroid</text>
</a>
</g>
</g>
<!-- Node2&#45;&gt;Node4 -->
<g id="edge3" class="edge">
<title>Node2&#45;&gt;Node4</title>
<path fill="none" stroke="#63b8ff" d="M200.61,-629.45C207.61,-656.3 230.83,-731.38 279.5,-768.62 280.8,-769.62 282.15,-770.56 283.53,-771.45"/>
<polygon fill="#63b8ff" stroke="#63b8ff" points="281.71,-774.98 292.18,-776.61 285.01,-768.81 281.71,-774.98"/>
</g>
<!-- Node5 -->
<g id="node5" class="node">
<title>Node5</title>
<g id="a_node5"><a xlink:href="video_a_v_foundation_8h.html#a80dffabb6c571245b002d91e9031ca64" target="_top" xlink:title=" ">
<polygon fill="white" stroke="#666666" points="432,-759.25 279.5,-759.25 279.5,-740 432,-740 432,-759.25"/>
<text text-anchor="middle" x="355.75" y="-745.75" font-family="Helvetica,sans-Serif" font-size="10.00">ar2VideoCapStopAVFoundation</text>
</a>
</g>
</g>
<!-- Node2&#45;&gt;Node5 -->
<g id="edge4" class="edge">
<title>Node2&#45;&gt;Node5</title>
<path fill="none" stroke="#63b8ff" d="M202.48,-629.53C212.43,-651.59 239.55,-704.94 279.5,-731.62 281.45,-732.93 283.49,-734.14 285.59,-735.26"/>
<polygon fill="#63b8ff" stroke="#63b8ff" points="283.58,-738.65 294.13,-739.64 286.5,-732.29 283.58,-738.65"/>
</g>
<!-- Node6 -->
<g id="node6" class="node">
<title>Node6</title>
<g id="a_node6"><a xlink:href="video_dummy_8h.html#a78fa5654276bc8d340ffe8182d0bcd6c" target="_top" xlink:title=" ">
<polygon fill="white" stroke="#666666" points="419.25,-722.25 292.25,-722.25 292.25,-703 419.25,-703 419.25,-722.25"/>
<text text-anchor="middle" x="355.75" y="-708.75" font-family="Helvetica,sans-Serif" font-size="10.00">ar2VideoCapStopDummy</text>
</a>
</g>
</g>
<!-- Node2&#45;&gt;Node6 -->
<g id="edge5" class="edge">
<title>Node2&#45;&gt;Node6</title>
<path fill="none" stroke="#63b8ff" d="M206.09,-629.61C219.38,-645.84 248,-677.82 279.5,-694.62 282.37,-696.16 285.37,-697.56 288.45,-698.84"/>
<polygon fill="#63b8ff" stroke="#63b8ff" points="286.91,-702.37 297.5,-702.56 289.34,-695.81 286.91,-702.37"/>
</g>
<!-- Node7 -->
<g id="node7" class="node">
<title>Node7</title>
<g id="a_node7"><a xlink:href="video_emscripten_8h.html#ada6b833e6406915a8351305b4ab63dc6" target="_top" xlink:title=" ">
<polygon fill="white" stroke="#666666" points="426.75,-685.25 284.75,-685.25 284.75,-666 426.75,-666 426.75,-685.25"/>
<text text-anchor="middle" x="355.75" y="-671.75" font-family="Helvetica,sans-Serif" font-size="10.00">ar2VideoCapStopEmscripten</text>
</a>
</g>
</g>
<!-- Node2&#45;&gt;Node7 -->
<g id="edge6" class="edge">
<title>Node2&#45;&gt;Node7</title>
<path fill="none" stroke="#63b8ff" d="M216.84,-629.64C233.02,-638.04 257.3,-649.87 279.5,-657.62 284.68,-659.43 290.12,-661.12 295.6,-662.69"/>
<polygon fill="#63b8ff" stroke="#63b8ff" points="294.59,-666.31 305.16,-665.53 296.41,-659.55 294.59,-666.31"/>
</g>
<!-- Node8 -->
<g id="node8" class="node">
<title>Node8</title>
<g id="a_node8"><a xlink:href="video_external_8h.html#a0165023800976ebf91a86d2c413dec60" target="_top" xlink:title=" ">
<polygon fill="white" stroke="#666666" points="420,-648.25 291.5,-648.25 291.5,-629 420,-629 420,-648.25"/>
<text text-anchor="middle" x="355.75" y="-634.75" font-family="Helvetica,sans-Serif" font-size="10.00">ar2VideoCapStopExternal</text>
</a>
</g>
</g>
<!-- Node2&#45;&gt;Node8 -->
<g id="edge7" class="edge">
<title>Node2&#45;&gt;Node8</title>
<path fill="none" stroke="#63b8ff" d="M243.94,-625.17C255.38,-626.56 267.96,-628.09 280.4,-629.6"/>
<polygon fill="#63b8ff" stroke="#63b8ff" points="279.92,-633.19 290.27,-630.92 280.76,-626.24 279.92,-633.19"/>
</g>
<!-- Node9 -->
<g id="node9" class="node">
<title>Node9</title>
<g id="a_node9"><a xlink:href="video_g_streamer_8h.html#a7742f3dc5f58756420a4f50e9f588432" target="_top" xlink:title=" ">
<polygon fill="white" stroke="#666666" points="425.62,-611.25 285.88,-611.25 285.88,-592 425.62,-592 425.62,-611.25"/>
<text text-anchor="middle" x="355.75" y="-597.75" font-family="Helvetica,sans-Serif" font-size="10.00">ar2VideoCapStopGStreamer</text>
</a>
</g>
</g>
<!-- Node2&#45;&gt;Node9 -->
<g id="edge8" class="edge">
<title>Node2&#45;&gt;Node9</title>
<path fill="none" stroke="#63b8ff" d="M243.94,-614.37C253.58,-613.26 264.02,-612.06 274.52,-610.85"/>
<polygon fill="#63b8ff" stroke="#63b8ff" points="274.9,-614.22 284.44,-609.6 274.1,-607.26 274.9,-614.22"/>
</g>
<!-- Node10 -->
<g id="node10" class="node">
<title>Node10</title>
<g id="a_node10"><a xlink:href="video_image_8h.html#af8b971aac579641ba46492cbd6394293" target="_top" xlink:title=" ">
<polygon fill="white" stroke="#666666" points="415.5,-574.25 296,-574.25 296,-555 415.5,-555 415.5,-574.25"/>
<text text-anchor="middle" x="355.75" y="-560.75" font-family="Helvetica,sans-Serif" font-size="10.00">ar2VideoCapStopImage</text>
</a>
</g>
</g>
<!-- Node2&#45;&gt;Node10 -->
<g id="edge9" class="edge">
<title>Node2&#45;&gt;Node10</title>
<path fill="none" stroke="#63b8ff" d="M217.52,-609.57C233.72,-601.43 257.66,-590.13 279.5,-582.62 284.9,-580.77 290.58,-579.03 296.3,-577.43"/>
<polygon fill="#63b8ff" stroke="#63b8ff" points="296.82,-580.65 305.58,-574.69 295.02,-573.88 296.82,-580.65"/>
</g>
<!-- Node11 -->
<g id="node11" class="node">
<title>Node11</title>
<g id="a_node11"><a xlink:href="video_v4_l2_8h.html#a530b43b034daf2f89586fb69e9de74aa" target="_top" xlink:title=" ">
<polygon fill="white" stroke="#666666" points="413.25,-537.25 298.25,-537.25 298.25,-518 413.25,-518 413.25,-537.25"/>
<text text-anchor="middle" x="355.75" y="-523.75" font-family="Helvetica,sans-Serif" font-size="10.00">ar2VideoCapStopV4L2</text>
</a>
</g>
</g>
<!-- Node2&#45;&gt;Node11 -->
<g id="edge10" class="edge">
<title>Node2&#45;&gt;Node11</title>
<path fill="none" stroke="#63b8ff" d="M206.33,-609.52C219.76,-593.43 248.3,-562.14 279.5,-545.62 282.38,-544.1 285.38,-542.71 288.46,-541.43"/>
<polygon fill="#63b8ff" stroke="#63b8ff" points="289.35,-544.47 297.52,-537.73 286.93,-537.9 289.35,-544.47"/>
</g>
<!-- Node12 -->
<g id="node12" class="node">
<title>Node12</title>
<g id="a_node12"><a xlink:href="video_windows_media_capture_8h.html#a7fb2e79c53df9853a1a61b16be3b8e80" target="_top" xlink:title=" ">
<polygon fill="white" stroke="#666666" points="418.5,-500.25 293,-500.25 293,-481 418.5,-481 418.5,-500.25"/>
<text text-anchor="middle" x="355.75" y="-486.75" font-family="Helvetica,sans-Serif" font-size="10.00">ar2VideoCapStopWinMC</text>
</a>
</g>
</g>
<!-- Node2&#45;&gt;Node12 -->
<g id="edge11" class="edge">
<title>Node2&#45;&gt;Node12</title>
<path fill="none" stroke="#63b8ff" d="M202.5,-609.81C212.51,-587.95 239.73,-535.07 279.5,-508.62 281.45,-507.33 283.49,-506.12 285.59,-505"/>
<polygon fill="#63b8ff" stroke="#63b8ff" points="286.51,-507.97 294.14,-500.63 283.6,-501.61 286.51,-507.97"/>
</g>
<!-- Node13 -->
<g id="node13" class="node">
<title>Node13</title>
<g id="a_node13"><a xlink:href="video_windows_media_foundation_8h.html#a76577330dd560a4785693d80f71d3919" target="_top" xlink:title=" ">
<polygon fill="white" stroke="#666666" points="417.75,-463.25 293.75,-463.25 293.75,-444 417.75,-444 417.75,-463.25"/>
<text text-anchor="middle" x="355.75" y="-449.75" font-family="Helvetica,sans-Serif" font-size="10.00">ar2VideoCapStopWinMF</text>
</a>
</g>
</g>
<!-- Node2&#45;&gt;Node13 -->
<g id="edge12" class="edge">
<title>Node2&#45;&gt;Node13</title>
<path fill="none" stroke="#63b8ff" d="M200.64,-609.87C207.69,-583.2 231.03,-508.61 279.5,-471.62 280.97,-470.5 282.5,-469.45 284.07,-468.47"/>
<polygon fill="#63b8ff" stroke="#63b8ff" points="285.33,-471.23 292.56,-463.48 282.08,-465.03 285.33,-471.23"/>
</g>
<!-- Node15 -->
<g id="node15" class="node">
<title>Node15</title>
<g id="a_node15"><a xlink:href="video1394_8h.html#aaea7efdd8dad25a42fe9b8f3bc3edf0b" target="_top" xlink:title=" ">
<polygon fill="white" stroke="#666666" points="406.12,-426.25 305.38,-426.25 305.38,-407 406.12,-407 406.12,-426.25"/>
<text text-anchor="middle" x="355.75" y="-412.75" font-family="Helvetica,sans-Serif" font-size="10.00">ar2VideoClose1394</text>
</a>
</g>
</g>
<!-- Node14&#45;&gt;Node15 -->
<g id="edge14" class="edge">
<title>Node14&#45;&gt;Node15</title>
<path fill="none" stroke="#63b8ff" d="M199.98,-241.34C205.65,-270.2 226.45,-356.04 279.5,-398.62 284.08,-402.3 289.3,-405.25 294.79,-407.61"/>
<polygon fill="#63b8ff" stroke="#63b8ff" points="293.32,-411.16 303.91,-411.25 295.69,-404.57 293.32,-411.16"/>
</g>
<!-- Node16 -->
<g id="node16" class="node">
<title>Node16</title>
<g id="a_node16"><a xlink:href="video_android_8h.html#afb5748a9176a3e1a8aee435726c18be2" target="_top" xlink:title=" ">
<polygon fill="white" stroke="#666666" points="412.12,-389.25 299.38,-389.25 299.38,-370 412.12,-370 412.12,-389.25"/>
<text text-anchor="middle" x="355.75" y="-375.75" font-family="Helvetica,sans-Serif" font-size="10.00">ar2VideoCloseAndroid</text>
</a>
</g>
</g>
<!-- Node14&#45;&gt;Node16 -->
<g id="edge15" class="edge">
<title>Node14&#45;&gt;Node16</title>
<path fill="none" stroke="#63b8ff" d="M201.49,-241.61C210,-266.2 235.42,-329.92 279.5,-361.62 282.54,-363.81 285.8,-365.73 289.21,-367.42"/>
<polygon fill="#63b8ff" stroke="#63b8ff" points="287.56,-370.94 298.13,-371.6 290.28,-364.49 287.56,-370.94"/>
</g>
<!-- Node17 -->
<g id="node17" class="node">
<title>Node17</title>
<g id="a_node17"><a xlink:href="video_a_v_foundation_8h.html#a2883b331cca58ccd1c036f2318041f03" target="_top" xlink:title=" ">
<polygon fill="white" stroke="#666666" points="425.62,-352.25 285.88,-352.25 285.88,-333 425.62,-333 425.62,-352.25"/>
<text text-anchor="middle" x="355.75" y="-338.75" font-family="Helvetica,sans-Serif" font-size="10.00">ar2VideoCloseAVFoundation</text>
</a>
</g>
</g>
<!-- Node14&#45;&gt;Node17 -->
<g id="edge16" class="edge">
<title>Node14&#45;&gt;Node17</title>
<path fill="none" stroke="#63b8ff" d="M203.98,-241.56C215.6,-260.79 243.91,-303.11 279.5,-324.62 281.73,-325.97 284.06,-327.22 286.45,-328.38"/>
<polygon fill="#63b8ff" stroke="#63b8ff" points="285.01,-331.99 295.59,-332.61 287.71,-325.53 285.01,-331.99"/>
</g>
<!-- Node18 -->
<g id="node18" class="node">
<title>Node18</title>
<g id="a_node18"><a xlink:href="video_dummy_8h.html#ae518c53d87b1320ba8cd80ed8a23bf0a" target="_top" xlink:title=" ">
<polygon fill="white" stroke="#666666" points="412.88,-315.25 298.62,-315.25 298.62,-296 412.88,-296 412.88,-315.25"/>
<text text-anchor="middle" x="355.75" y="-301.75" font-family="Helvetica,sans-Serif" font-size="10.00">ar2VideoCloseDummy</text>
</a>
</g>
</g>
<!-- Node14&#45;&gt;Node18 -->
<g id="edge17" class="edge">
<title>Node14&#45;&gt;Node18</title>
<path fill="none" stroke="#63b8ff" d="M209.8,-241.66C224.84,-254.23 252.43,-275.56 279.5,-287.62 283.32,-289.33 287.33,-290.89 291.43,-292.3"/>
<polygon fill="#63b8ff" stroke="#63b8ff" points="290.12,-295.88 300.71,-295.55 292.23,-289.2 290.12,-295.88"/>
</g>
<!-- Node19 -->
<g id="node19" class="node">
<title>Node19</title>
<g id="a_node19"><a xlink:href="video_emscripten_8h.html#a676c1a2ebe7188cbb7b816b717a8f07a" target="_top" xlink:title=" ">
<polygon fill="white" stroke="#666666" points="420.38,-278.25 291.12,-278.25 291.12,-259 420.38,-259 420.38,-278.25"/>
<text text-anchor="middle" x="355.75" y="-264.75" font-family="Helvetica,sans-Serif" font-size="10.00">ar2VideoCloseEmscripten</text>
</a>
</g>
</g>
<!-- Node14&#45;&gt;Node19 -->
<g id="edge18" class="edge">
<title>Node14&#45;&gt;Node19</title>
<path fill="none" stroke="#63b8ff" d="M237.34,-240.87C256.69,-245.44 280.35,-251.03 301.34,-256"/>
<polygon fill="#63b8ff" stroke="#63b8ff" points="300.5,-259.63 311.04,-258.53 302.11,-252.82 300.5,-259.63"/>
</g>
<!-- Node20 -->
<g id="node20" class="node">
<title>Node20</title>
<g id="a_node20"><a xlink:href="video_external_8h.html#a38b0ad7ce861ce3cb0ab187a345dfd85" target="_top" xlink:title=" ">
<polygon fill="white" stroke="#666666" points="413.62,-241.25 297.88,-241.25 297.88,-222 413.62,-222 413.62,-241.25"/>
<text text-anchor="middle" x="355.75" y="-227.75" font-family="Helvetica,sans-Serif" font-size="10.00">ar2VideoCloseExternal</text>
</a>
</g>
</g>
<!-- Node14&#45;&gt;Node20 -->
<g id="edge19" class="edge">
<title>Node14&#45;&gt;Node20</title>
<path fill="none" stroke="#63b8ff" d="M237.34,-231.62C252.27,-231.62 269.76,-231.62 286.61,-231.62"/>
<polygon fill="#63b8ff" stroke="#63b8ff" points="286.56,-235.13 296.56,-231.62 286.56,-228.13 286.56,-235.13"/>
</g>
<!-- Node21 -->
<g id="node21" class="node">
<title>Node21</title>
<g id="a_node21"><a xlink:href="video_g_streamer_8h.html#a2b535cabcc05dd8fd6927690db49a902" target="_top" xlink:title=" ">
<polygon fill="white" stroke="#666666" points="419.25,-204.25 292.25,-204.25 292.25,-185 419.25,-185 419.25,-204.25"/>
<text text-anchor="middle" x="355.75" y="-190.75" font-family="Helvetica,sans-Serif" font-size="10.00">ar2VideoCloseGStreamer</text>
</a>
</g>
</g>
<!-- Node14&#45;&gt;Node21 -->
<g id="edge20" class="edge">
<title>Node14&#45;&gt;Node21</title>
<path fill="none" stroke="#63b8ff" d="M237.34,-222.38C256.69,-217.81 280.35,-212.22 301.34,-207.25"/>
<polygon fill="#63b8ff" stroke="#63b8ff" points="302.11,-210.43 311.04,-204.72 300.5,-203.62 302.11,-210.43"/>
</g>
<!-- Node22 -->
<g id="node22" class="node">
<title>Node22</title>
<g id="a_node22"><a xlink:href="video_image_8h.html#a3ffc443b510b55d94d0aed46e4277388" target="_top" xlink:title=" ">
<polygon fill="white" stroke="#666666" points="409.12,-167.25 302.38,-167.25 302.38,-148 409.12,-148 409.12,-167.25"/>
<text text-anchor="middle" x="355.75" y="-153.75" font-family="Helvetica,sans-Serif" font-size="10.00">ar2VideoCloseImage</text>
</a>
</g>
</g>
<!-- Node14&#45;&gt;Node22 -->
<g id="edge21" class="edge">
<title>Node14&#45;&gt;Node22</title>
<path fill="none" stroke="#63b8ff" d="M228.87,-221.56C233.95,-219.3 239.02,-216.66 243.5,-213.62 262.76,-200.58 259.35,-187.26 279.5,-175.62 283.43,-173.36 287.63,-171.38 291.96,-169.64"/>
<polygon fill="#63b8ff" stroke="#63b8ff" points="292.96,-172.65 301.24,-166.04 290.64,-166.04 292.96,-172.65"/>
</g>
<!-- Node23 -->
<g id="node23" class="node">
<title>Node23</title>
<g id="a_node23"><a xlink:href="video_v4_l2_8h.html#a160602fb4d1827e9053166f051f4613d" target="_top" xlink:title=" ">
<polygon fill="white" stroke="#666666" points="406.88,-130.25 304.62,-130.25 304.62,-111 406.88,-111 406.88,-130.25"/>
<text text-anchor="middle" x="355.75" y="-116.75" font-family="Helvetica,sans-Serif" font-size="10.00">ar2VideoCloseV4L2</text>
</a>
</g>
</g>
<!-- Node14&#45;&gt;Node23 -->
<g id="edge22" class="edge">
<title>Node14&#45;&gt;Node23</title>
<path fill="none" stroke="#63b8ff" d="M232.08,-221.51C236.22,-219.34 240.16,-216.74 243.5,-213.62 270.53,-188.4 250.73,-161.85 279.5,-138.62 284.01,-134.99 289.13,-132.06 294.54,-129.72"/>
<polygon fill="#63b8ff" stroke="#63b8ff" points="295.3,-132.8 303.5,-126.09 292.9,-126.22 295.3,-132.8"/>
</g>
<!-- Node24 -->
<g id="node24" class="node">
<title>Node24</title>
<g id="a_node24"><a xlink:href="video_windows_media_capture_8h.html#ab22b3535389f49f07154d5b1dd5d302e" target="_top" xlink:title=" ">
<polygon fill="white" stroke="#666666" points="412.12,-93.25 299.38,-93.25 299.38,-74 412.12,-74 412.12,-93.25"/>
<text text-anchor="middle" x="355.75" y="-79.75" font-family="Helvetica,sans-Serif" font-size="10.00">ar2VideoCloseWinMC</text>
</a>
</g>
</g>
<!-- Node14&#45;&gt;Node24 -->
<g id="edge23" class="edge">
<title>Node14&#45;&gt;Node24</title>
<path fill="none" stroke="#63b8ff" d="M232.94,-221.67C236.85,-219.49 240.5,-216.84 243.5,-213.62 279.2,-175.42 241.15,-137.16 279.5,-101.62 282.48,-98.86 285.81,-96.5 289.37,-94.48"/>
<polygon fill="#63b8ff" stroke="#63b8ff" points="290.62,-97.3 298.21,-89.91 287.67,-90.95 290.62,-97.3"/>
</g>
<!-- Node25 -->
<g id="node25" class="node">
<title>Node25</title>
<g id="a_node25"><a xlink:href="video_windows_media_foundation_8h.html#a88f48eef52a6f3c3c94bc8cdd48a7e9a" target="_top" xlink:title=" ">
<polygon fill="white" stroke="#666666" points="411.38,-56.25 300.12,-56.25 300.12,-37 411.38,-37 411.38,-56.25"/>
<text text-anchor="middle" x="355.75" y="-42.75" font-family="Helvetica,sans-Serif" font-size="10.00">ar2VideoCloseWinMF</text>
</a>
</g>
</g>
<!-- Node14&#45;&gt;Node25 -->
<g id="edge24" class="edge">
<title>Node14&#45;&gt;Node25</title>
<path fill="none" stroke="#63b8ff" d="M233.61,-221.62C237.32,-219.45 240.73,-216.82 243.5,-213.62 288.15,-162.17 231.27,-112.74 279.5,-64.62 282.62,-61.51 286.18,-58.9 290.01,-56.71"/>
<polygon fill="#63b8ff" stroke="#63b8ff" points="291.38,-59.48 299,-52.11 288.45,-53.12 291.38,-59.48"/>
</g>
<!-- Node26 -->
<g id="node26" class="node">
<title>Node26</title>
<g id="a_node26"><a xlink:href="video_luma_8c.html#af73e0e884452c46682458a136539792b" target="_top" xlink:title=" ">
<polygon fill="white" stroke="#666666" points="402.75,-19.25 308.75,-19.25 308.75,0 402.75,0 402.75,-19.25"/>
<text text-anchor="middle" x="355.75" y="-5.75" font-family="Helvetica,sans-Serif" font-size="10.00">arVideoLumaFinal</text>
</a>
</g>
</g>
<!-- Node14&#45;&gt;Node26 -->
<g id="edge25" class="edge">
<title>Node14&#45;&gt;Node26</title>
<path fill="none" stroke="#63b8ff" d="M233.76,-221.74C237.43,-219.55 240.8,-216.88 243.5,-213.62 297.21,-148.78 221.27,-88.45 279.5,-27.62 284.62,-22.28 291.02,-18.4 297.91,-15.61"/>
<polygon fill="#63b8ff" stroke="#63b8ff" points="298.84,-18.66 307.27,-12.24 296.68,-12 298.84,-18.66"/>
</g>
</g>
</svg>
        <g id="navigator" transform="translate(0 0)" fill="#404254">
                <rect fill="#f2f5e9" fill-opacity="0.5" stroke="#606060" stroke-width=".5" x="0" y="0" width="60" height="60"/>
                <use id="zoomplus" xlink:href="#zoomPlus" x="17" y="9" onmousedown="handleZoom(evt,'in')"/>
                <use id="zoomminus" xlink:href="#zoomMin" x="42" y="9" onmousedown="handleZoom(evt,'out')"/>
                <use id="reset" xlink:href="#resetDef" x="30" y="36" onmousedown="handleReset()"/>
                <g id="arrowUp" xlink:href="#dirArrow" transform="translate(30 24)" onmousedown="handlePan(0,-1)">
                  <use xlink:href="#rim" fill="#404040">
                        <set attributeName="fill" to="#808080" begin="arrowUp.mouseover" end="arrowUp.mouseout"/>
                  </use>
                  <path fill="none" stroke="white" stroke-width="1.5" d="M0,-3.0v7 M-2.5,-0.5L0,-3.0L2.5,-0.5"/>
                </g>
                <g id="arrowRight" xlink:href="#dirArrow" transform="rotate(90) translate(36 -43)" onmousedown="handlePan(1,0)">
                  <use xlink:href="#rim" fill="#404040">
                        <set attributeName="fill" to="#808080" begin="arrowRight.mouseover" end="arrowRight.mouseout"/>
                  </use>
                  <path fill="none" stroke="white" stroke-width="1.5" d="M0,-3.0v7 M-2.5,-0.5L0,-3.0L2.5,-0.5"/>
                </g>
                <g id="arrowDown" xlink:href="#dirArrow" transform="rotate(180) translate(-30 -48)" onmousedown="handlePan(0,1)">
                  <use xlink:href="#rim" fill="#404040">
                        <set attributeName="fill" to="#808080" begin="arrowDown.mouseover" end="arrowDown.mouseout"/>
                  </use>
                  <path fill="none" stroke="white" stroke-width="1.5" d="M0,-3.0v7 M-2.5,-0.5L0,-3.0L2.5,-0.5"/>
                </g>
                <g id="arrowLeft" xlink:href="#dirArrow" transform="rotate(270) translate(-36 17)" onmousedown="handlePan(-1,0)">
                  <use xlink:href="#rim" fill="#404040">
                        <set attributeName="fill" to="#808080" begin="arrowLeft.mouseover" end="arrowLeft.mouseout"/>
                  </use>
                  <path fill="none" stroke="white" stroke-width="1.5" d="M0,-3.0v7 M-2.5,-0.5L0,-3.0L2.5,-0.5"/>
                </g>
        </g>
        <svg viewBox="0 0 15 15" width="100%" height="30px" preserveAspectRatio="xMaxYMin meet">
         <g id="arrow_out" transform="scale(0.3 0.3)">
          <a xlink:href="class_a_r_video_source_ae67083e64b2b3c6d7aa6d8cbe33ef95f_cgraph_org.svg" target="_base">
           <rect id="button" ry="5" rx="5" y="6" x="6" height="38" width="38"
                fill="#f2f5e9" fill-opacity="0.5" stroke="#606060" stroke-width="1.0"/>
           <path id="arrow"
             d="M 11.500037,31.436501 C 11.940474,20.09759 22.043105,11.32322 32.158766,21.979434 L 37.068811,17.246167 C 37.068811,17.246167 37.088388,32 37.088388,32 L 22.160133,31.978069 C 22.160133,31.978069 26.997745,27.140456 26.997745,27.140456 C 18.528582,18.264221 13.291696,25.230495 11.500037,31.436501 z"
             style="fill:#404040;"/>
          </a>
         </g>
        </svg>
</svg>
