<?xml version="1.0" encoding="UTF-8" standalone="no"?>
<!DOCTYPE svg PUBLIC "-//W3C//DTD SVG 1.1//EN"
 "http://www.w3.org/Graphics/SVG/1.1/DTD/svg11.dtd">
<!-- Generated by graphviz version 8.0.5 (20230430.1635)
 -->
<!-- Title: ARController::loadOpticalParams Pages: 1 -->
<svg width="444pt" height="249pt"
 viewBox="0.00 0.00 443.75 249.25" xmlns="http://www.w3.org/2000/svg" xmlns:xlink="http://www.w3.org/1999/xlink">
<g id="graph0" class="graph" transform="scale(1 1) rotate(0) translate(4 245.25)">
<title>ARController::loadOpticalParams</title>
<!-- Node1 -->
<g id="node1" class="node">
<title>Node1</title>
<g id="a_node1"><a xlink:title="Loads an optical parameters structure from file or from buffer.">
<polygon fill="#999999" stroke="#666666" points="127,-135.88 0,-135.88 0,-105.38 127,-105.38 127,-135.88"/>
<text text-anchor="start" x="8" y="-122.38" font-family="Helvetica,sans-Serif" font-size="10.00">ARController::loadOptical</text>
<text text-anchor="middle" x="63.5" y="-111.12" font-family="Helvetica,sans-Serif" font-size="10.00">Params</text>
</a>
</g>
</g>
<!-- Node2 -->
<g id="node2" class="node">
<title>Node2</title>
<g id="a_node2"><a xlink:href="param_disp_8c.html#a0604643c0501b3d470a916630a9e46c4" target="_top" xlink:title=" ">
<polygon fill="white" stroke="#666666" points="291.5,-241.25 187.75,-241.25 187.75,-222 291.5,-222 291.5,-241.25"/>
<text text-anchor="middle" x="239.62" y="-227.75" font-family="Helvetica,sans-Serif" font-size="10.00">arParamDispOptical</text>
</a>
</g>
</g>
<!-- Node1&#45;&gt;Node2 -->
<g id="edge1" class="edge">
<title>Node1&#45;&gt;Node2</title>
<path fill="none" stroke="#63b8ff" d="M76.39,-136.08C93.31,-156.96 126.37,-193.84 163,-213.62 167.51,-216.06 172.35,-218.17 177.32,-220"/>
<polygon fill="#63b8ff" stroke="#63b8ff" points="176.05,-223.59 186.64,-223.36 178.22,-216.94 176.05,-223.59"/>
</g>
<!-- Node3 -->
<g id="node3" class="node">
<title>Node3</title>
<g id="a_node3"><a xlink:href="param_file_8c.html#a5b862ef9ae735da35be433c83b7c11f5" target="_top" xlink:title=" ">
<polygon fill="white" stroke="#666666" points="291.88,-204.25 187.38,-204.25 187.38,-185 291.88,-185 291.88,-204.25"/>
<text text-anchor="middle" x="239.62" y="-190.75" font-family="Helvetica,sans-Serif" font-size="10.00">arParamLoadOptical</text>
</a>
</g>
</g>
<!-- Node1&#45;&gt;Node3 -->
<g id="edge2" class="edge">
<title>Node1&#45;&gt;Node3</title>
<path fill="none" stroke="#63b8ff" d="M87.45,-136.17C106.84,-148.67 135.73,-165.88 163,-176.62 167.5,-178.4 172.22,-180.03 177.02,-181.52"/>
<polygon fill="#63b8ff" stroke="#63b8ff" points="175.99,-185.15 186.57,-184.57 177.93,-178.43 175.99,-185.15"/>
</g>
<!-- Node4 -->
<g id="node4" class="node">
<title>Node4</title>
<g id="a_node4"><a xlink:href="param_file_8c.html#a24e7c85eaa5dc6d4a5cbe57d749f035f" target="_top" xlink:title=" ">
<polygon fill="white" stroke="#666666" points="316.25,-167.25 163,-167.25 163,-148 316.25,-148 316.25,-167.25"/>
<text text-anchor="middle" x="239.62" y="-153.75" font-family="Helvetica,sans-Serif" font-size="10.00">arParamLoadOpticalFromBuffer</text>
</a>
</g>
</g>
<!-- Node1&#45;&gt;Node4 -->
<g id="edge3" class="edge">
<title>Node1&#45;&gt;Node4</title>
<path fill="none" stroke="#63b8ff" d="M127.36,-133.98C144.79,-137.69 163.62,-141.69 180.74,-145.33"/>
<polygon fill="#63b8ff" stroke="#63b8ff" points="179.65,-148.88 190.16,-147.54 181.11,-142.04 179.65,-148.88"/>
</g>
<!-- Node5 -->
<g id="node5" class="node">
<title>Node5</title>
<g id="a_node5"><a xlink:href="mtx_8c.html#ac8b4aaa900bcedbfc9f492199c235015" target="_top" xlink:title=" ">
<polygon fill="white" stroke="#666666" points="285.12,-130.25 194.12,-130.25 194.12,-111 285.12,-111 285.12,-130.25"/>
<text text-anchor="middle" x="239.62" y="-116.75" font-family="Helvetica,sans-Serif" font-size="10.00">mtxLoadIdentityd</text>
</a>
</g>
</g>
<!-- Node1&#45;&gt;Node5 -->
<g id="edge4" class="edge">
<title>Node1&#45;&gt;Node5</title>
<path fill="none" stroke="#63b8ff" d="M127.36,-120.62C145.59,-120.62 165.36,-120.62 183.11,-120.62"/>
<polygon fill="#63b8ff" stroke="#63b8ff" points="182.87,-124.13 192.87,-120.62 182.87,-117.13 182.87,-124.13"/>
</g>
<!-- Node6 -->
<g id="node6" class="node">
<title>Node6</title>
<g id="a_node6"><a xlink:href="mtx_8c.html#afd59713c9486a0d4bb339eb0a1e398dc" target="_top" xlink:title=" ">
<polygon fill="white" stroke="#666666" points="284,-93.25 195.25,-93.25 195.25,-74 284,-74 284,-93.25"/>
<text text-anchor="middle" x="239.62" y="-79.75" font-family="Helvetica,sans-Serif" font-size="10.00">mtxLoadIdentityf</text>
</a>
</g>
</g>
<!-- Node1&#45;&gt;Node6 -->
<g id="edge5" class="edge">
<title>Node1&#45;&gt;Node6</title>
<path fill="none" stroke="#63b8ff" d="M127.36,-107.27C146,-103.31 166.25,-99 184.31,-95.17"/>
<polygon fill="#63b8ff" stroke="#63b8ff" points="184.88,-98.41 193.94,-92.91 183.43,-91.56 184.88,-98.41"/>
</g>
<!-- Node7 -->
<g id="node7" class="node">
<title>Node7</title>
<g id="a_node7"><a xlink:href="mtx_8c.html#a081977b51ec651b945f3b97e68196340" target="_top" xlink:title=" ">
<polygon fill="white" stroke="#666666" points="284.38,-56.25 194.88,-56.25 194.88,-37 284.38,-37 284.38,-56.25"/>
<text text-anchor="middle" x="239.62" y="-42.75" font-family="Helvetica,sans-Serif" font-size="10.00">mtxPerspectived</text>
</a>
</g>
</g>
<!-- Node1&#45;&gt;Node7 -->
<g id="edge6" class="edge">
<title>Node1&#45;&gt;Node7</title>
<path fill="none" stroke="#63b8ff" d="M87.45,-105.08C106.84,-92.58 135.73,-75.37 163,-64.62 169.66,-62 176.82,-59.69 183.97,-57.67"/>
<polygon fill="#63b8ff" stroke="#63b8ff" points="184.61,-60.86 193.39,-54.94 182.83,-54.09 184.61,-60.86"/>
</g>
<!-- Node9 -->
<g id="node9" class="node">
<title>Node9</title>
<g id="a_node9"><a xlink:href="mtx_8c.html#ae6825ad9d44cfedf48accca9d7d77208" target="_top" xlink:title=" ">
<polygon fill="white" stroke="#666666" points="283.25,-19.25 196,-19.25 196,0 283.25,0 283.25,-19.25"/>
<text text-anchor="middle" x="239.62" y="-5.75" font-family="Helvetica,sans-Serif" font-size="10.00">mtxPerspectivef</text>
</a>
</g>
</g>
<!-- Node1&#45;&gt;Node9 -->
<g id="edge8" class="edge">
<title>Node1&#45;&gt;Node9</title>
<path fill="none" stroke="#63b8ff" d="M76.39,-105.17C93.31,-84.29 126.37,-47.41 163,-27.62 169.86,-23.92 177.47,-20.97 185.15,-18.63"/>
<polygon fill="#63b8ff" stroke="#63b8ff" points="185.86,-21.79 194.59,-15.79 184.02,-15.03 185.86,-21.79"/>
</g>
<!-- Node8 -->
<g id="node8" class="node">
<title>Node8</title>
<g id="a_node8"><a xlink:href="mtx_8c.html#a46f08e4d7a5d5cc03290d3a166b723d0" target="_top" xlink:title=" ">
<polygon fill="white" stroke="#666666" points="435.75,-56.25 352.25,-56.25 352.25,-37 435.75,-37 435.75,-56.25"/>
<text text-anchor="middle" x="394" y="-42.75" font-family="Helvetica,sans-Serif" font-size="10.00">mtxMultMatrixd</text>
</a>
</g>
</g>
<!-- Node7&#45;&gt;Node8 -->
<g id="edge7" class="edge">
<title>Node7&#45;&gt;Node8</title>
<path fill="none" stroke="#63b8ff" d="M284.7,-46.62C302.32,-46.62 322.75,-46.62 341.09,-46.62"/>
<polygon fill="#63b8ff" stroke="#63b8ff" points="340.9,-50.13 350.9,-46.62 340.9,-43.13 340.9,-50.13"/>
</g>
<!-- Node10 -->
<g id="node10" class="node">
<title>Node10</title>
<g id="a_node10"><a xlink:href="mtx_8c.html#af377adb88126f1b018b6be776c49cf35" target="_top" xlink:title=" ">
<polygon fill="white" stroke="#666666" points="434.62,-19.25 353.38,-19.25 353.38,0 434.62,0 434.62,-19.25"/>
<text text-anchor="middle" x="394" y="-5.75" font-family="Helvetica,sans-Serif" font-size="10.00">mtxMultMatrixf</text>
</a>
</g>
</g>
<!-- Node9&#45;&gt;Node10 -->
<g id="edge9" class="edge">
<title>Node9&#45;&gt;Node10</title>
<path fill="none" stroke="#63b8ff" d="M283.48,-9.62C301.72,-9.62 323.15,-9.62 342.19,-9.62"/>
<polygon fill="#63b8ff" stroke="#63b8ff" points="342.08,-13.13 352.08,-9.62 342.08,-6.13 342.08,-13.13"/>
</g>
</g>
</svg>
