<?xml version="1.0" encoding="UTF-8" standalone="no"?>
<!DOCTYPE svg PUBLIC "-//W3C//DTD SVG 1.1//EN"
 "http://www.w3.org/Graphics/SVG/1.1/DTD/svg11.dtd">
<!-- Generated by graphviz version 8.0.5 (20230430.1635)
 -->
<!-- Title: ARTrackable::setFiltered Pages: 1 -->
<svg width="449pt" height="64pt"
 viewBox="0.00 0.00 449.00 64.25" xmlns="http://www.w3.org/2000/svg" xmlns:xlink="http://www.w3.org/1999/xlink">
<g id="graph0" class="graph" transform="scale(1 1) rotate(0) translate(4 60.25)">
<title>ARTrackable::setFiltered</title>
<!-- Node1 -->
<g id="node1" class="node">
<title>Node1</title>
<g id="a_node1"><a xlink:title=" ">
<polygon fill="#999999" stroke="#666666" points="124.75,-37.25 0,-37.25 0,-18 124.75,-18 124.75,-37.25"/>
<text text-anchor="middle" x="62.38" y="-23.75" font-family="Helvetica,sans-Serif" font-size="10.00">ARTrackable::setFiltered</text>
</a>
</g>
</g>
<!-- Node2 -->
<g id="node2" class="node">
<title>Node2</title>
<g id="a_node2"><a xlink:href="ar_filter_trans_mat_8c.html#a52813489717ce82b433e44adfd3bc3dd" target="_top" xlink:title="Finalise a filter.">
<polygon fill="white" stroke="#666666" points="269,-56.25 160.75,-56.25 160.75,-37 269,-37 269,-56.25"/>
<text text-anchor="middle" x="214.88" y="-42.75" font-family="Helvetica,sans-Serif" font-size="10.00">arFilterTransMatFinal</text>
</a>
</g>
</g>
<!-- Node1&#45;&gt;Node2 -->
<g id="edge1" class="edge">
<title>Node1&#45;&gt;Node2</title>
<path fill="none" stroke="#63b8ff" d="M125.02,-35.41C133.06,-36.42 141.31,-37.46 149.39,-38.48"/>
<polygon fill="#63b8ff" stroke="#63b8ff" points="148.91,-42.08 159.27,-39.86 149.79,-35.13 148.91,-42.08"/>
</g>
<!-- Node3 -->
<g id="node3" class="node">
<title>Node3</title>
<g id="a_node3"><a xlink:href="ar_filter_trans_mat_8c.html#a9c87432e371ffb1716e4ee6712a5c0ba" target="_top" xlink:title="Initialise a filter for a single transformation matrix (pose estimate).">
<polygon fill="white" stroke="#666666" points="265.25,-19.25 164.5,-19.25 164.5,0 265.25,0 265.25,-19.25"/>
<text text-anchor="middle" x="214.88" y="-5.75" font-family="Helvetica,sans-Serif" font-size="10.00">arFilterTransMatInit</text>
</a>
</g>
</g>
<!-- Node1&#45;&gt;Node3 -->
<g id="edge2" class="edge">
<title>Node1&#45;&gt;Node3</title>
<path fill="none" stroke="#63b8ff" d="M125.02,-20.25C134.36,-19.14 143.98,-17.98 153.3,-16.87"/>
<polygon fill="#63b8ff" stroke="#63b8ff" points="153.53,-20.25 163.05,-15.58 152.7,-13.3 153.53,-20.25"/>
</g>
<!-- Node4 -->
<g id="node4" class="node">
<title>Node4</title>
<g id="a_node4"><a xlink:href="ar_filter_trans_mat_8c.html#ae82377e0d7286e5808b319a38c13c02c" target="_top" xlink:title="Set the filter parameters.">
<polygon fill="white" stroke="#666666" points="441,-19.25 305,-19.25 305,0 441,0 441,-19.25"/>
<text text-anchor="middle" x="373" y="-5.75" font-family="Helvetica,sans-Serif" font-size="10.00">arFilterTransMatSetParams</text>
</a>
</g>
</g>
<!-- Node3&#45;&gt;Node4 -->
<g id="edge3" class="edge">
<title>Node3&#45;&gt;Node4</title>
<path fill="none" stroke="#63b8ff" d="M265.7,-9.62C274.72,-9.62 284.31,-9.62 293.9,-9.62"/>
<polygon fill="#63b8ff" stroke="#63b8ff" points="293.7,-13.13 303.7,-9.62 293.7,-6.13 293.7,-13.13"/>
</g>
</g>
</svg>
