<?xml version="1.0" encoding="UTF-8" standalone="no"?>
<!DOCTYPE svg PUBLIC "-//W3C//DTD SVG 1.1//EN"
 "http://www.w3.org/Graphics/SVG/1.1/DTD/svg11.dtd">
<!-- Generated by graphviz version 2.40.1 (20161225.0304)
 -->
<!-- Title: TrackingPointSelector Pages: 1 -->
<svg width="737pt" height="121pt"
 viewBox="0.00 0.00 736.51 121.00" xmlns="http://www.w3.org/2000/svg" xmlns:xlink="http://www.w3.org/1999/xlink">
<g id="graph0" class="graph" transform="scale(1 1) rotate(0) translate(4 117)">
<title>TrackingPointSelector</title>
<polygon fill="#ffffff" stroke="transparent" points="-4,4 -4,-117 732.5088,-117 732.5088,4 -4,4"/>
<!-- Node1 -->
<g id="node1" class="node">
<title>Node1</title>
<polygon fill="#bfbfbf" stroke="#000000" points="615.0527,-56.5 615.0527,-74.5 728.5088,-74.5 728.5088,-56.5 615.0527,-56.5"/>
<text text-anchor="middle" x="671.7808" y="-62.5" font-family="Helvetica,sans-Serif" font-size="10.00" fill="#000000">TrackingPointSelector</text>
</g>
<!-- Node2 -->
<g id="node2" class="node">
<title>Node2</title>
<polygon fill="#ffffff" stroke="#bfbfbf" points="374.4785,-94.5 374.4785,-112.5 500.5322,-112.5 500.5322,-94.5 374.4785,-94.5"/>
<text text-anchor="middle" x="437.5054" y="-100.5" font-family="Helvetica,sans-Serif" font-size="10.00" fill="#000000">std::vector&lt; cv::Point2f &gt;</text>
</g>
<!-- Node2&#45;&gt;Node1 -->
<g id="edge1" class="edge">
<title>Node2&#45;&gt;Node1</title>
<path fill="none" stroke="#9a32cd" stroke-dasharray="5,2" d="M511.0423,-93.0019C538.1159,-88.9884 569.0104,-84.2344 597.0527,-79.5 606.0332,-77.9838 615.6014,-76.2679 624.7881,-74.5701"/>
<polygon fill="#9a32cd" stroke="#9a32cd" points="510.2495,-89.5809 500.8671,-94.5022 511.2707,-96.506 510.2495,-89.5809"/>
<text text-anchor="middle" x="559.5332" y="-92.5" font-family="Helvetica,sans-Serif" font-size="10.00" fill="#000000"> _pts</text>
</g>
<!-- Node3 -->
<g id="node3" class="node">
<title>Node3</title>
<polygon fill="#ffffff" stroke="#bfbfbf" points="370.9971,-.5 370.9971,-28.5 504.0137,-28.5 504.0137,-.5 370.9971,-.5"/>
<text text-anchor="start" x="378.9971" y="-16.5" font-family="Helvetica,sans-Serif" font-size="10.00" fill="#000000">std::map&lt; int, std</text>
<text text-anchor="middle" x="437.5054" y="-6.5" font-family="Helvetica,sans-Serif" font-size="10.00" fill="#000000">::vector&lt; TrackedPoint &gt; &gt;</text>
</g>
<!-- Node3&#45;&gt;Node1 -->
<g id="edge2" class="edge">
<title>Node3&#45;&gt;Node1</title>
<path fill="none" stroke="#9a32cd" stroke-dasharray="5,2" d="M514.2594,-25.2075C540.6662,-29.4936 570.3102,-34.9783 597.0527,-41.5 613.8654,-45.6001 632.388,-51.5387 646.7862,-56.4827"/>
<polygon fill="#9a32cd" stroke="#9a32cd" points="514.7359,-21.7393 504.31,-23.6238 513.6355,-28.6523 514.7359,-21.7393"/>
<text text-anchor="middle" x="559.5332" y="-43.5" font-family="Helvetica,sans-Serif" font-size="10.00" fill="#000000"> trackingPointBin</text>
</g>
<!-- Node4 -->
<g id="node4" class="node">
<title>Node4</title>
<polygon fill="#ffffff" stroke="#bfbfbf" points="153.9043,-30.5 153.9043,-48.5 291.6426,-48.5 291.6426,-30.5 153.9043,-30.5"/>
<text text-anchor="middle" x="222.7734" y="-36.5" font-family="Helvetica,sans-Serif" font-size="10.00" fill="#000000">std::vector&lt; TrackedPoint &gt;</text>
</g>
<!-- Node4&#45;&gt;Node1 -->
<g id="edge5" class="edge">
<title>Node4&#45;&gt;Node1</title>
<path fill="none" stroke="#9a32cd" stroke-dasharray="5,2" d="M302.0748,-44.092C391.8214,-49.2888 535.7868,-57.6252 614.9857,-62.2113"/>
<polygon fill="#9a32cd" stroke="#9a32cd" points="302.1325,-40.5896 291.9468,-43.5055 301.7277,-47.5778 302.1325,-40.5896"/>
<text text-anchor="middle" x="437.5054" y="-58.5" font-family="Helvetica,sans-Serif" font-size="10.00" fill="#000000"> _selectedPts</text>
</g>
<!-- Node4&#45;&gt;Node3 -->
<g id="edge3" class="edge">
<title>Node4&#45;&gt;Node3</title>
<path fill="none" stroke="#9a32cd" stroke-dasharray="5,2" d="M302.1172,-30.2625C324.6647,-27.6374 348.985,-24.8059 370.7078,-22.2769"/>
<polygon fill="#9a32cd" stroke="#9a32cd" points="301.4261,-26.8192 291.898,-31.4522 302.2356,-33.7722 301.4261,-26.8192"/>
<text text-anchor="middle" x="331.3198" y="-31.5" font-family="Helvetica,sans-Serif" font-size="10.00" fill="#000000"> elements</text>
</g>
<!-- Node5 -->
<g id="node5" class="node">
<title>Node5</title>
<g id="a_node5"><a xlink:href="class_tracked_point.html" target="_top" xlink:title="TrackedPoint">
<polygon fill="#ffffff" stroke="#000000" points="0,-30.5 0,-48.5 74.5498,-48.5 74.5498,-30.5 0,-30.5"/>
<text text-anchor="middle" x="37.2749" y="-36.5" font-family="Helvetica,sans-Serif" font-size="10.00" fill="#000000">TrackedPoint</text>
</a>
</g>
</g>
<!-- Node5&#45;&gt;Node4 -->
<g id="edge4" class="edge">
<title>Node5&#45;&gt;Node4</title>
<path fill="none" stroke="#9a32cd" stroke-dasharray="5,2" d="M85.0401,-39.5C105.9557,-39.5 130.8987,-39.5 153.7748,-39.5"/>
<polygon fill="#9a32cd" stroke="#9a32cd" points="84.8133,-36.0001 74.8133,-39.5 84.8133,-43.0001 84.8133,-36.0001"/>
<text text-anchor="middle" x="114.2271" y="-41.5" font-family="Helvetica,sans-Serif" font-size="10.00" fill="#000000"> elements</text>
</g>
</g>
</svg>
