<?xml version="1.0" encoding="UTF-8" standalone="no"?>
<!DOCTYPE svg PUBLIC "-//W3C//DTD SVG 1.1//EN"
 "http://www.w3.org/Graphics/SVG/1.1/DTD/svg11.dtd">
<!-- Generated by graphviz version 8.0.5 (20230430.1635)
 -->
<!-- Title: ARController::drawVideo Pages: 1 -->
<svg width="467pt" height="310pt"
 viewBox="0.00 0.00 467.00 310.25" xmlns="http://www.w3.org/2000/svg" xmlns:xlink="http://www.w3.org/1999/xlink">
<g id="graph0" class="graph" transform="scale(1 1) rotate(0) translate(4 306.25)">
<title>ARController::drawVideo</title>
<!-- Node1 -->
<g id="node1" class="node">
<title>Node1</title>
<g id="a_node1"><a xlink:title=" ">
<polygon fill="#999999" stroke="#666666" points="124,-160.25 0,-160.25 0,-141 124,-141 124,-160.25"/>
<text text-anchor="middle" x="62" y="-146.75" font-family="Helvetica,sans-Serif" font-size="10.00">ARController::drawVideo</text>
</a>
</g>
</g>
<!-- Node2 -->
<g id="node2" class="node">
<title>Node2</title>
<g id="a_node2"><a xlink:href="class_a_r_video_view.html#a6bb7a8fb1d3f71a384917c5fd3be55fe" target="_top" xlink:title=" ">
<polygon fill="white" stroke="#666666" points="263.75,-160.25 160,-160.25 160,-141 263.75,-141 263.75,-160.25"/>
<text text-anchor="middle" x="211.88" y="-146.75" font-family="Helvetica,sans-Serif" font-size="10.00">ARVideoView::draw</text>
</a>
</g>
</g>
<!-- Node1&#45;&gt;Node2 -->
<g id="edge1" class="edge">
<title>Node1&#45;&gt;Node2</title>
<path fill="none" stroke="#63b8ff" d="M124.43,-150.62C132.5,-150.62 140.78,-150.62 148.86,-150.62"/>
<polygon fill="#63b8ff" stroke="#63b8ff" points="148.73,-154.13 158.73,-150.62 148.73,-147.13 148.73,-154.13"/>
</g>
<!-- Node3 -->
<g id="node3" class="node">
<title>Node3</title>
<g id="a_node3"><a xlink:href="arg_8c.html#afdd586c0ba2cc7df1347cc0522c6777b" target="_top" xlink:title="Display an ARVideo image, by drawing it using OpenGL.">
<polygon fill="white" stroke="#666666" points="418.88,-302.25 339.88,-302.25 339.88,-283 418.88,-283 418.88,-302.25"/>
<text text-anchor="middle" x="379.38" y="-288.75" font-family="Helvetica,sans-Serif" font-size="10.00">arglDispImage</text>
</a>
</g>
</g>
<!-- Node2&#45;&gt;Node3 -->
<g id="edge2" class="edge">
<title>Node2&#45;&gt;Node3</title>
<path fill="none" stroke="#63b8ff" d="M216.86,-160.42C226.94,-183.94 255.84,-243.81 299.75,-273.62 308.46,-279.54 318.81,-283.62 329.09,-286.43"/>
<polygon fill="#63b8ff" stroke="#63b8ff" points="328.18,-290.05 338.71,-288.93 329.78,-283.23 328.18,-290.05"/>
</g>
<!-- Node4 -->
<g id="node4" class="node">
<title>Node4</title>
<g id="a_node4"><a xlink:href="arg_8c.html#a25cc1097132fc11d1acb6b37694b5d2a" target="_top" xlink:title="Upload a buffer of pixel data to an OpenGL texture for later use by arglDispImage().">
<polygon fill="white" stroke="#666666" points="445.12,-264.88 313.62,-264.88 313.62,-234.38 445.12,-234.38 445.12,-264.88"/>
<text text-anchor="start" x="321.62" y="-251.38" font-family="Helvetica,sans-Serif" font-size="10.00">arglPixelBufferDataUpload</text>
<text text-anchor="middle" x="379.38" y="-240.12" font-family="Helvetica,sans-Serif" font-size="10.00">BiPlanar</text>
</a>
</g>
</g>
<!-- Node2&#45;&gt;Node4 -->
<g id="edge3" class="edge">
<title>Node2&#45;&gt;Node4</title>
<path fill="none" stroke="#63b8ff" d="M221.77,-160.62C236.48,-176.58 267.48,-207.82 299.75,-225.62 302.3,-227.03 304.94,-228.37 307.64,-229.63"/>
<polygon fill="#63b8ff" stroke="#63b8ff" points="306.07,-233.19 316.64,-233.91 308.83,-226.76 306.07,-233.19"/>
</g>
<!-- Node5 -->
<g id="node5" class="node">
<title>Node5</title>
<g id="a_node5"><a xlink:href="arg_8c.html#a6b7919e1a7ade7c23394eeb964be17f6" target="_top" xlink:title="Specify a desired pixel buffer size larger than the camera image size.">
<polygon fill="white" stroke="#666666" points="436.5,-216.25 322.25,-216.25 322.25,-197 436.5,-197 436.5,-216.25"/>
<text text-anchor="middle" x="379.38" y="-202.75" font-family="Helvetica,sans-Serif" font-size="10.00">arglPixelBufferSizeSet</text>
</a>
</g>
</g>
<!-- Node2&#45;&gt;Node5 -->
<g id="edge4" class="edge">
<title>Node2&#45;&gt;Node5</title>
<path fill="none" stroke="#63b8ff" d="M232.82,-160.63C250.16,-169.02 276.14,-180.84 299.75,-188.62 305.54,-190.54 311.64,-192.32 317.77,-193.96"/>
<polygon fill="#63b8ff" stroke="#63b8ff" points="316.52,-197.51 327.08,-196.59 318.25,-190.72 316.52,-197.51"/>
</g>
<!-- Node6 -->
<g id="node6" class="node">
<title>Node6</title>
<g id="a_node6"><a xlink:href="arg_8c.html#aab881f83622055d786e2f42086220b94" target="_top" xlink:title="Set the format of pixel data which will be passed to arglDispImage*()">
<polygon fill="white" stroke="#666666" points="429,-179.25 329.75,-179.25 329.75,-160 429,-160 429,-179.25"/>
<text text-anchor="middle" x="379.38" y="-165.75" font-family="Helvetica,sans-Serif" font-size="10.00">arglPixelFormatSet</text>
</a>
</g>
</g>
<!-- Node2&#45;&gt;Node6 -->
<g id="edge5" class="edge">
<title>Node2&#45;&gt;Node6</title>
<path fill="none" stroke="#63b8ff" d="M263.88,-156.48C281.18,-158.47 300.67,-160.7 318.6,-162.76"/>
<polygon fill="#63b8ff" stroke="#63b8ff" points="318.19,-166.35 328.52,-164.02 318.98,-159.4 318.19,-166.35"/>
</g>
<!-- Node7 -->
<g id="node7" class="node">
<title>Node7</title>
<g id="a_node7"><a xlink:href="arg_8c.html#a60f8657d50e21a7d8213a628bda888a9" target="_top" xlink:title="Set the current video image drawing scalefactor.">
<polygon fill="white" stroke="#666666" points="426,-142.25 332.75,-142.25 332.75,-123 426,-123 426,-142.25"/>
<text text-anchor="middle" x="379.38" y="-128.75" font-family="Helvetica,sans-Serif" font-size="10.00">arglSetPixelZoom</text>
</a>
</g>
</g>
<!-- Node2&#45;&gt;Node7 -->
<g id="edge6" class="edge">
<title>Node2&#45;&gt;Node7</title>
<path fill="none" stroke="#63b8ff" d="M263.88,-145.08C282.14,-143.09 302.83,-140.84 321.55,-138.8"/>
<polygon fill="#63b8ff" stroke="#63b8ff" points="321.75,-142.2 331.32,-137.63 321,-135.24 321.75,-142.2"/>
</g>
<!-- Node8 -->
<g id="node8" class="node">
<title>Node8</title>
<g id="a_node8"><a xlink:href="class_a_r_video_source.html#a3d4b14784d083ae76f43c8942cb9076b" target="_top" xlink:title="Checkin a locked video frame.">
<polygon fill="white" stroke="#666666" points="456,-105.25 302.75,-105.25 302.75,-86 456,-86 456,-105.25"/>
<text text-anchor="middle" x="379.38" y="-91.75" font-family="Helvetica,sans-Serif" font-size="10.00">ARVideoSource::checkinFrame</text>
</a>
</g>
</g>
<!-- Node2&#45;&gt;Node8 -->
<g id="edge7" class="edge">
<title>Node2&#45;&gt;Node8</title>
<path fill="none" stroke="#63b8ff" d="M233.54,-140.59C250.9,-132.46 276.52,-121.17 299.75,-113.62 305.55,-111.74 311.66,-109.98 317.79,-108.35"/>
<polygon fill="#63b8ff" stroke="#63b8ff" points="318.27,-111.59 327.1,-105.73 316.55,-104.8 318.27,-111.59"/>
</g>
<!-- Node9 -->
<g id="node9" class="node">
<title>Node9</title>
<g id="a_node9"><a xlink:href="class_a_r_video_source.html#a0870e3e3099fe2bede89980bc89c5e70" target="_top" xlink:title="Checkout a locked video frame if the frame&#39;s timestamp is newer than &#39;time&#39;.">
<polygon fill="white" stroke="#666666" points="459,-67.88 299.75,-67.88 299.75,-37.38 459,-37.38 459,-67.88"/>
<text text-anchor="start" x="307.75" y="-54.38" font-family="Helvetica,sans-Serif" font-size="10.00">ARVideoSource::checkoutFrame</text>
<text text-anchor="middle" x="379.38" y="-43.12" font-family="Helvetica,sans-Serif" font-size="10.00">IfNewerThan</text>
</a>
</g>
</g>
<!-- Node2&#45;&gt;Node9 -->
<g id="edge8" class="edge">
<title>Node2&#45;&gt;Node9</title>
<path fill="none" stroke="#63b8ff" d="M222.04,-140.51C236.88,-124.7 267.77,-94.13 299.75,-76.62 302.45,-75.15 305.25,-73.75 308.12,-72.42"/>
<polygon fill="#63b8ff" stroke="#63b8ff" points="309.23,-75.33 317.08,-68.21 306.5,-68.89 309.23,-75.33"/>
</g>
<!-- Node10 -->
<g id="node10" class="node">
<title>Node10</title>
<g id="a_node10"><a xlink:href="class_a_r_video_source.html#a4328e4435cfcff995216fb77ddb93619" target="_top" xlink:title="Returns the pixel format of the video.">
<polygon fill="white" stroke="#666666" points="458.25,-19.25 300.5,-19.25 300.5,0 458.25,0 458.25,-19.25"/>
<text text-anchor="middle" x="379.38" y="-5.75" font-family="Helvetica,sans-Serif" font-size="10.00">ARVideoSource::getPixelFormat</text>
</a>
</g>
</g>
<!-- Node2&#45;&gt;Node10 -->
<g id="edge9" class="edge">
<title>Node2&#45;&gt;Node10</title>
<path fill="none" stroke="#63b8ff" d="M217.03,-140.56C227.3,-117 256.24,-58.05 299.75,-28.62 302.17,-26.99 304.73,-25.49 307.37,-24.12"/>
<polygon fill="#63b8ff" stroke="#63b8ff" points="308.55,-26.97 316.26,-19.7 305.7,-20.58 308.55,-26.97"/>
</g>
</g>
</svg>
