<?xml version="1.0" encoding="UTF-8" standalone="no"?>
<!DOCTYPE svg PUBLIC "-//W3C//DTD SVG 1.1//EN"
 "http://www.w3.org/Graphics/SVG/1.1/DTD/svg11.dtd">
<!-- Generated by graphviz version 7.0.5 (20221223.1930)
 -->
<!-- Title: ARTrackable::~ARTrackable Pages: 1 -->
<svg width="320pt" height="64pt"
 viewBox="0.00 0.00 320.00 64.00" xmlns="http://www.w3.org/2000/svg" xmlns:xlink="http://www.w3.org/1999/xlink">
<g id="graph0" class="graph" transform="scale(1 1) rotate(0) translate(4 60)">
<title>ARTrackable::~ARTrackable</title>
<!-- Node1 -->
<g id="node1" class="node">
<title>Node1</title>
<g id="a_node1"><a xlink:title=" ">
<polygon fill="#999999" stroke="#666666" points="143,-37 0,-37 0,-18 143,-18 143,-37"/>
<text text-anchor="middle" x="71.5" y="-25" font-family="Helvetica,sans-Serif" font-size="10.00">ARTrackable::~ARTrackable</text>
</a>
</g>
</g>
<!-- Node2 -->
<g id="node2" class="node">
<title>Node2</title>
<g id="a_node2"><a xlink:href="ar_filter_trans_mat_8c.html#a52813489717ce82b433e44adfd3bc3dd" target="_top" xlink:title="Finalise a filter.">
<polygon fill="white" stroke="#666666" points="300,-56 191,-56 191,-37 300,-37 300,-56"/>
<text text-anchor="middle" x="245.5" y="-44" font-family="Helvetica,sans-Serif" font-size="10.00">arFilterTransMatFinal</text>
</a>
</g>
</g>
<!-- Node1&#45;&gt;Node2 -->
<g id="edge1" class="edge">
<title>Node1&#45;&gt;Node2</title>
<path fill="none" stroke="#63b8ff" d="M143.45,-35.34C155.25,-36.64 167.44,-37.99 179.09,-39.27"/>
<polygon fill="#63b8ff" stroke="#63b8ff" points="178.7,-42.75 189.03,-40.37 179.47,-35.8 178.7,-42.75"/>
</g>
<!-- Node3 -->
<g id="node3" class="node">
<title>Node3</title>
<g id="a_node3"><a xlink:href="class_a_r_trackable.html#aa425f1e3e1ba8d8b39ec6a34f8e2f403" target="_top" xlink:title="Frees allocated patterns and resets the pattern count to zero.">
<polygon fill="white" stroke="#666666" points="312,-19 179,-19 179,0 312,0 312,-19"/>
<text text-anchor="middle" x="245.5" y="-7" font-family="Helvetica,sans-Serif" font-size="10.00">ARTrackable::freePatterns</text>
</a>
</g>
</g>
<!-- Node1&#45;&gt;Node3 -->
<g id="edge2" class="edge">
<title>Node1&#45;&gt;Node3</title>
<path fill="none" stroke="#63b8ff" d="M143.45,-20.07C151.38,-19.25 159.48,-18.4 167.47,-17.56"/>
<polygon fill="#63b8ff" stroke="#63b8ff" points="167.59,-21.07 177.18,-16.55 166.87,-14.11 167.59,-21.07"/>
</g>
</g>
</svg>
