<?xml version="1.0" encoding="UTF-8" standalone="no"?>
<!DOCTYPE svg PUBLIC "-//W3C//DTD SVG 1.1//EN"
 "http://www.w3.org/Graphics/SVG/1.1/DTD/svg11.dtd">
<!-- Generated by graphviz version 2.40.1 (20161225.0304)
 -->
<!-- Title: PlanarTracker::PlanarTrackerImpl::PlanarTrackerImpl Pages: 1 -->
<svg width="483pt" height="37pt"
 viewBox="0.00 0.00 482.77 37.00" xmlns="http://www.w3.org/2000/svg" xmlns:xlink="http://www.w3.org/1999/xlink">
<g id="graph0" class="graph" transform="scale(1 1) rotate(0) translate(4 33)">
<title>PlanarTracker::PlanarTrackerImpl::PlanarTrackerImpl</title>
<polygon fill="#ffffff" stroke="transparent" points="-4,4 -4,-33 478.7656,-33 478.7656,4 -4,4"/>
<!-- Node0 -->
<g id="node1" class="node">
<title>Node0</title>
<polygon fill="#bfbfbf" stroke="#000000" points="0,-.5 0,-28.5 146.4199,-28.5 146.4199,-.5 0,-.5"/>
<text text-anchor="start" x="8" y="-16.5" font-family="Helvetica,sans-Serif" font-size="10.00" fill="#000000">PlanarTracker::PlanarTracker</text>
<text text-anchor="middle" x="73.21" y="-6.5" font-family="Helvetica,sans-Serif" font-size="10.00" fill="#000000">Impl::PlanarTrackerImpl</text>
</g>
<!-- Node1 -->
<g id="node2" class="node">
<title>Node1</title>
<g id="a_node2"><a xlink:href="class_planar_tracker_1_1_planar_tracker_impl.html#af0715bf1af4a09d2a942d48a9937d159" target="_top" xlink:title="PlanarTracker::PlanarTracker\lImpl::SetFeatureDetector">
<polygon fill="#ffffff" stroke="#000000" points="182.4199,-.5 182.4199,-28.5 328.8398,-28.5 328.8398,-.5 182.4199,-.5"/>
<text text-anchor="start" x="190.4199" y="-16.5" font-family="Helvetica,sans-Serif" font-size="10.00" fill="#000000">PlanarTracker::PlanarTracker</text>
<text text-anchor="middle" x="255.6299" y="-6.5" font-family="Helvetica,sans-Serif" font-size="10.00" fill="#000000">Impl::SetFeatureDetector</text>
</a>
</g>
</g>
<!-- Node0&#45;&gt;Node1 -->
<g id="edge1" class="edge">
<title>Node0&#45;&gt;Node1</title>
<path fill="none" stroke="#191970" d="M146.6186,-14.5C155.0865,-14.5 163.7673,-14.5 172.3537,-14.5"/>
<polygon fill="#191970" stroke="#191970" points="172.3716,-18.0001 182.3715,-14.5 172.3715,-11.0001 172.3716,-18.0001"/>
</g>
<!-- Node2 -->
<g id="node3" class="node">
<title>Node2</title>
<g id="a_node3"><a xlink:href="class_o_c_v_feature_detector.html#acde63c94749b067c846a3cd7db72dbcd" target="_top" xlink:title="OCVFeatureDetector\l::SetFeatureDetector">
<polygon fill="#ffffff" stroke="#000000" points="364.8398,-.5 364.8398,-28.5 474.7656,-28.5 474.7656,-.5 364.8398,-.5"/>
<text text-anchor="start" x="372.8398" y="-16.5" font-family="Helvetica,sans-Serif" font-size="10.00" fill="#000000">OCVFeatureDetector</text>
<text text-anchor="middle" x="419.8027" y="-6.5" font-family="Helvetica,sans-Serif" font-size="10.00" fill="#000000">::SetFeatureDetector</text>
</a>
</g>
</g>
<!-- Node1&#45;&gt;Node2 -->
<g id="edge2" class="edge">
<title>Node1&#45;&gt;Node2</title>
<path fill="none" stroke="#191970" d="M329.073,-14.5C337.5705,-14.5 346.1929,-14.5 354.5705,-14.5"/>
<polygon fill="#191970" stroke="#191970" points="354.6432,-18.0001 364.6431,-14.5 354.6431,-11.0001 354.6432,-18.0001"/>
</g>
</g>
</svg>
