<?xml version="1.0" encoding="UTF-8" standalone="no"?>
<!DOCTYPE svg PUBLIC "-//W3C//DTD SVG 1.1//EN"
 "http://www.w3.org/Graphics/SVG/1.1/DTD/svg11.dtd">
<!-- Generated by graphviz version 8.0.5 (20230430.1635)
 -->
<!-- Title: ARController::addTrackable Pages: 1 -->
<svg width="331pt" height="64pt"
 viewBox="0.00 0.00 331.00 64.25" xmlns="http://www.w3.org/2000/svg" xmlns:xlink="http://www.w3.org/1999/xlink">
<g id="graph0" class="graph" transform="scale(1 1) rotate(0) translate(4 60.25)">
<title>ARController::addTrackable</title>
<!-- Node1 -->
<g id="node1" class="node">
<title>Node1</title>
<g id="a_node1"><a xlink:title="Adds a trackable as specified in the given configuration string.">
<polygon fill="#999999" stroke="#666666" points="136.75,-37.25 0,-37.25 0,-18 136.75,-18 136.75,-37.25"/>
<text text-anchor="middle" x="68.38" y="-23.75" font-family="Helvetica,sans-Serif" font-size="10.00">ARController::addTrackable</text>
</a>
</g>
</g>
<!-- Node2 -->
<g id="node2" class="node">
<title>Node2</title>
<g id="a_node2"><a xlink:href="class_a_r_controller.html#ac2961fa58ba3a2e10dbde637571efb91" target="_top" xlink:title="Returns the number of currently loaded trackables.">
<polygon fill="white" stroke="#666666" points="323,-56.25 172.75,-56.25 172.75,-37 323,-37 323,-56.25"/>
<text text-anchor="middle" x="247.88" y="-42.75" font-family="Helvetica,sans-Serif" font-size="10.00">ARController::countTrackables</text>
</a>
</g>
</g>
<!-- Node1&#45;&gt;Node2 -->
<g id="edge1" class="edge">
<title>Node1&#45;&gt;Node2</title>
<path fill="none" stroke="#63b8ff" d="M137.24,-34.89C145.27,-35.75 153.54,-36.63 161.77,-37.52"/>
<polygon fill="#63b8ff" stroke="#63b8ff" points="161.23,-41.08 171.54,-38.67 161.97,-34.12 161.23,-41.08"/>
</g>
<!-- Node3 -->
<g id="node3" class="node">
<title>Node3</title>
<g id="a_node3"><a xlink:href="class_a_r_controller.html#a90d60be654e735ff2c5718af543dc8e9" target="_top" xlink:title="Report whether artoolkit was initialized and a trackable can be added.">
<polygon fill="white" stroke="#666666" points="302.75,-19.25 193,-19.25 193,0 302.75,0 302.75,-19.25"/>
<text text-anchor="middle" x="247.88" y="-5.75" font-family="Helvetica,sans-Serif" font-size="10.00">ARController::isInited</text>
</a>
</g>
</g>
<!-- Node1&#45;&gt;Node3 -->
<g id="edge2" class="edge">
<title>Node1&#45;&gt;Node3</title>
<path fill="none" stroke="#63b8ff" d="M137.24,-20.74C151.82,-19.26 167.21,-17.7 181.69,-16.24"/>
<polygon fill="#63b8ff" stroke="#63b8ff" points="181.96,-19.62 191.55,-15.13 181.25,-12.66 181.96,-19.62"/>
</g>
</g>
</svg>
