<?xml version="1.0" encoding="UTF-8" standalone="no"?>
<!DOCTYPE svg PUBLIC "-//W3C//DTD SVG 1.1//EN"
 "http://www.w3.org/Graphics/SVG/1.1/DTD/svg11.dtd">
<!-- Generated by graphviz version 2.40.1 (20161225.0304)
 -->
<!-- Title: ARTrackerSquare::stop Pages: 1 -->
<svg width="447pt" height="138pt"
 viewBox="0.00 0.00 446.52 138.00" xmlns="http://www.w3.org/2000/svg" xmlns:xlink="http://www.w3.org/1999/xlink">
<g id="graph0" class="graph" transform="scale(1 1) rotate(0) translate(4 134)">
<title>ARTrackerSquare::stop</title>
<polygon fill="#ffffff" stroke="transparent" points="-4,4 -4,-134 442.5205,-134 442.5205,4 -4,4"/>
<!-- Node85 -->
<g id="node1" class="node">
<title>Node85</title>
<polygon fill="#bfbfbf" stroke="#000000" points="0,-55.5 0,-73.5 119.9453,-73.5 119.9453,-55.5 0,-55.5"/>
<text text-anchor="middle" x="59.9727" y="-61.5" font-family="Helvetica,sans-Serif" font-size="10.00" fill="#000000">ARTrackerSquare::stop</text>
</g>
<!-- Node86 -->
<g id="node2" class="node">
<title>Node86</title>
<g id="a_node2"><a xlink:href="ar3_d_create_handle_8c.html#a495937d4d91ba2f68c51e5a9b7a87ccd" target="_top" xlink:title="Delete handle used for 3D calculation. ">
<polygon fill="#ffffff" stroke="#000000" points="170.6768,-111.5 170.6768,-129.5 268.9473,-129.5 268.9473,-111.5 170.6768,-111.5"/>
<text text-anchor="middle" x="219.812" y="-117.5" font-family="Helvetica,sans-Serif" font-size="10.00" fill="#000000">ar3DDeleteHandle</text>
</a>
</g>
</g>
<!-- Node85&#45;&gt;Node86 -->
<g id="edge1" class="edge">
<title>Node85&#45;&gt;Node86</title>
<path fill="none" stroke="#191970" d="M81.0874,-73.583C100.3805,-81.7086 129.8001,-93.6654 155.9453,-102.5 162.1047,-104.5813 168.6524,-106.6198 175.1178,-108.5331"/>
<polygon fill="#191970" stroke="#191970" points="174.564,-112.016 185.1423,-111.425 176.5043,-105.2903 174.564,-112.016"/>
</g>
<!-- Node88 -->
<g id="node4" class="node">
<title>Node88</title>
<g id="a_node4"><a xlink:href="ar3_d_create_handle_8c.html#afaaeefd020123a3c3758bd039f06b1ea" target="_top" xlink:title="ar3DStereoDeleteHandle">
<polygon fill="#ffffff" stroke="#000000" points="155.9453,-74.5 155.9453,-92.5 283.6787,-92.5 283.6787,-74.5 155.9453,-74.5"/>
<text text-anchor="middle" x="219.812" y="-80.5" font-family="Helvetica,sans-Serif" font-size="10.00" fill="#000000">ar3DStereoDeleteHandle</text>
</a>
</g>
</g>
<!-- Node85&#45;&gt;Node88 -->
<g id="edge3" class="edge">
<title>Node85&#45;&gt;Node88</title>
<path fill="none" stroke="#191970" d="M119.9457,-71.629C128.3501,-72.628 137.0689,-73.6644 145.697,-74.69"/>
<polygon fill="#191970" stroke="#191970" points="145.4165,-78.1812 155.7597,-75.8861 146.2428,-71.2301 145.4165,-78.1812"/>
</g>
<!-- Node90 -->
<g id="node6" class="node">
<title>Node90</title>
<g id="a_node6"><a xlink:href="ar_patt_attach_8c.html#ae9eebe71b3b73edf6f674d847fbab6bc" target="_top" xlink:title="Reset an ARHandle to no pattern association. ">
<polygon fill="#ffffff" stroke="#000000" points="182.6299,-37.5 182.6299,-55.5 256.9941,-55.5 256.9941,-37.5 182.6299,-37.5"/>
<text text-anchor="middle" x="219.812" y="-43.5" font-family="Helvetica,sans-Serif" font-size="10.00" fill="#000000">arPattDetach</text>
</a>
</g>
</g>
<!-- Node85&#45;&gt;Node90 -->
<g id="edge5" class="edge">
<title>Node85&#45;&gt;Node90</title>
<path fill="none" stroke="#191970" d="M119.9457,-57.7463C137.095,-55.815 155.5534,-53.7364 171.8791,-51.8979"/>
<polygon fill="#191970" stroke="#191970" points="172.7187,-55.3255 182.2642,-50.7284 171.9353,-48.3695 172.7187,-55.3255"/>
</g>
<!-- Node91 -->
<g id="node7" class="node">
<title>Node91</title>
<g id="a_node7"><a xlink:href="ar_create_handle_8c.html#ac044da75a479ba275db558f8e3b1d6fd" target="_top" xlink:title="Delete a handle which holds settings for an artoolkitX tracker instance. ">
<polygon fill="#ffffff" stroke="#000000" points="177.0684,-.5 177.0684,-18.5 262.5557,-18.5 262.5557,-.5 177.0684,-.5"/>
<text text-anchor="middle" x="219.812" y="-6.5" font-family="Helvetica,sans-Serif" font-size="10.00" fill="#000000">arDeleteHandle</text>
</a>
</g>
</g>
<!-- Node85&#45;&gt;Node91 -->
<g id="edge6" class="edge">
<title>Node85&#45;&gt;Node91</title>
<path fill="none" stroke="#191970" d="M82.6942,-55.466C102.0405,-47.8973 130.6409,-36.9984 155.9453,-28.5 163.1128,-26.0928 170.7835,-23.6763 178.2332,-21.4122"/>
<polygon fill="#191970" stroke="#191970" points="179.262,-24.7577 187.8384,-18.537 177.2547,-18.0517 179.262,-24.7577"/>
</g>
<!-- Node87 -->
<g id="node3" class="node">
<title>Node87</title>
<g id="a_node3"><a xlink:href="icp_handle_8c.html#a510dee7e69010b7aa075d90f27a8e9da" target="_top" xlink:title="icpDeleteHandle">
<polygon fill="#ffffff" stroke="#000000" points="334.4102,-111.5 334.4102,-129.5 423.7891,-129.5 423.7891,-111.5 334.4102,-111.5"/>
<text text-anchor="middle" x="379.0996" y="-117.5" font-family="Helvetica,sans-Serif" font-size="10.00" fill="#000000">icpDeleteHandle</text>
</a>
</g>
</g>
<!-- Node86&#45;&gt;Node87 -->
<g id="edge2" class="edge">
<title>Node86&#45;&gt;Node87</title>
<path fill="none" stroke="#191970" d="M269.3385,-120.5C286.6684,-120.5 306.2294,-120.5 323.9873,-120.5"/>
<polygon fill="#191970" stroke="#191970" points="324.2041,-124.0001 334.2041,-120.5 324.204,-117.0001 324.2041,-124.0001"/>
</g>
<!-- Node89 -->
<g id="node5" class="node">
<title>Node89</title>
<g id="a_node5"><a xlink:href="icp_stereo_handle_8c.html#af6e27da4185576f1dd236e3a4f718e6e" target="_top" xlink:title="icpStereoDeleteHandle">
<polygon fill="#ffffff" stroke="#000000" points="319.6787,-74.5 319.6787,-92.5 438.5205,-92.5 438.5205,-74.5 319.6787,-74.5"/>
<text text-anchor="middle" x="379.0996" y="-80.5" font-family="Helvetica,sans-Serif" font-size="10.00" fill="#000000">icpStereoDeleteHandle</text>
</a>
</g>
</g>
<!-- Node88&#45;&gt;Node89 -->
<g id="edge4" class="edge">
<title>Node88&#45;&gt;Node89</title>
<path fill="none" stroke="#191970" d="M283.6826,-83.5C292.2053,-83.5 300.9791,-83.5 309.5921,-83.5"/>
<polygon fill="#191970" stroke="#191970" points="309.6046,-87.0001 319.6045,-83.5 309.6045,-80.0001 309.6046,-87.0001"/>
</g>
<!-- Node92 -->
<g id="node8" class="node">
<title>Node92</title>
<g id="a_node8"><a xlink:href="ar_image_proc_8c.html#a99a7b2bbb653be2ecc772ceed7159ce1" target="_top" xlink:title="Finish image processing and free memory. ">
<polygon fill="#ffffff" stroke="#000000" points="331.6392,-.5 331.6392,-18.5 426.5601,-18.5 426.5601,-.5 331.6392,-.5"/>
<text text-anchor="middle" x="379.0996" y="-6.5" font-family="Helvetica,sans-Serif" font-size="10.00" fill="#000000">arImageProcFinal</text>
</a>
</g>
</g>
<!-- Node91&#45;&gt;Node92 -->
<g id="edge7" class="edge">
<title>Node91&#45;&gt;Node92</title>
<path fill="none" stroke="#191970" d="M262.9175,-9.5C280.8805,-9.5 302.0094,-9.5 321.2886,-9.5"/>
<polygon fill="#191970" stroke="#191970" points="321.475,-13.0001 331.475,-9.5 321.4749,-6.0001 321.475,-13.0001"/>
</g>
</g>
</svg>
