<?xml version="1.0" encoding="UTF-8" standalone="no"?>
<!DOCTYPE svg PUBLIC "-//W3C//DTD SVG 1.1//EN"
 "http://www.w3.org/Graphics/SVG/1.1/DTD/svg11.dtd">
<!-- Generated by graphviz version 8.0.5 (20230430.1635)
 -->
<!-- Title: ARController::projectionForViewportSizeAndFittingMode Pages: 1 -->
<!--zoomable 199 -->
<svg id="main" version="1.1" xmlns="http://www.w3.org/2000/svg" xmlns:xlink="http://www.w3.org/1999/xlink" xml:space="preserve" onload="init(evt)">
<style type="text/css"><![CDATA[
.edge:hover path { stroke: red; }
.edge:hover polygon { stroke: red; fill: red; }
]]></style>
<script type="text/javascript"><![CDATA[
var edges = document.getElementsByTagName('g');
if (edges && edges.length) {
  for (var i=0;i<edges.length;i++) {
    if (edges[i].id.substr(0,4)=='edge') {
      edges[i].setAttribute('class','edge');
    }
  }
}
]]></script>
        <defs>
                <circle id="rim" cx="0" cy="0" r="7"/>
                <circle id="rim2" cx="0" cy="0" r="3.5"/>
                <g id="zoomPlus">
                        <use xlink:href="#rim" fill="#404040">
                                <set attributeName="fill" to="#808080" begin="zoomplus.mouseover" end="zoomplus.mouseout"/>
                        </use>
                        <path d="M-4,0h8M0,-4v8" fill="none" stroke="white" stroke-width="1.5" pointer-events="none"/>
                </g>
                <g id="zoomMin">
                        <use xlink:href="#rim" fill="#404040">
                                <set attributeName="fill" to="#808080" begin="zoomminus.mouseover" end="zoomminus.mouseout"/>
                        </use>
                        <path d="M-4,0h8" fill="none" stroke="white" stroke-width="1.5" pointer-events="none"/>
                </g>
                <g id="dirArrow">
                        <path fill="none" stroke="white" stroke-width="1.5" d="M0,-3.0v7 M-2.5,-0.5L0,-3.0L2.5,-0.5"/>
                </g>
               <g id="resetDef">
                       <use xlink:href="#rim2" fill="#404040">
                               <set attributeName="fill" to="#808080" begin="reset.mouseover" end="reset.mouseout"/>
                       </use>
               </g>
        </defs>

<script type="text/javascript">
var viewWidth = 562;
var viewHeight = 199;
var sectionId = 'dynsection-8';
</script>
<script xlink:href="svgpan.js"/>
<svg id="graph" class="graph">
<g id="viewport">
<title>ARController::projectionForViewportSizeAndFittingMode</title>
<!-- Node1 -->
<g id="node1" class="node">
<title>Node1</title>
<g id="a_node1"><a xlink:title="Populates the provided array with the ARToolKit projection matrix, so that the projection maps to the...">
<polygon fill="#999999" stroke="#666666" points="156.25,-98.88 0,-98.88 0,-68.38 156.25,-68.38 156.25,-98.88"/>
<text text-anchor="start" x="8" y="-85.38" font-family="Helvetica,sans-Serif" font-size="10.00">ARController::projection</text>
<text text-anchor="middle" x="78.12" y="-74.12" font-family="Helvetica,sans-Serif" font-size="10.00">ForViewportSizeAndFittingMode</text>
</a>
</g>
</g>
<!-- Node2 -->
<g id="node2" class="node">
<title>Node2</title>
<g id="a_node2"><a xlink:href="param_g_l_8c.html#a47cc5a7056c5638682a07acee44df9f4" target="_top" xlink:title="Create an OpenGL perspective projection matrix.">
<polygon fill="white" stroke="#666666" points="338,-191.25 220.75,-191.25 220.75,-172 338,-172 338,-191.25"/>
<text text-anchor="middle" x="279.38" y="-177.75" font-family="Helvetica,sans-Serif" font-size="10.00">arglCameraFrustumRH</text>
</a>
</g>
</g>
<!-- Node1&#45;&gt;Node2 -->
<g id="edge1" class="edge">
<title>Node1&#45;&gt;Node2</title>
<path fill="none" stroke="#63b8ff" d="M96.6,-99.16C117.75,-117.14 155.18,-146.36 192.25,-162.62 197.91,-165.11 203.92,-167.28 210.04,-169.18"/>
<polygon fill="#63b8ff" stroke="#63b8ff" points="208.82,-172.75 219.39,-172.12 210.73,-166.02 208.82,-172.75"/>
</g>
<!-- Node4 -->
<g id="node4" class="node">
<title>Node4</title>
<g id="a_node4"><a xlink:href="class_a_r_video_source.html#a7f1590c1740fcc1a15e5b3c3d5277353" target="_top" xlink:title="Adjust camera parameters to fit an output viewport of given size, using fitting and alignment.">
<polygon fill="white" stroke="#666666" points="357.12,-153.5 201.62,-153.5 201.62,-111.75 357.12,-111.75 357.12,-153.5"/>
<text text-anchor="start" x="209.62" y="-140" font-family="Helvetica,sans-Serif" font-size="10.00">ARVideoSource::getCamera</text>
<text text-anchor="start" x="209.62" y="-128.75" font-family="Helvetica,sans-Serif" font-size="10.00">ParametersForViewportSizeAnd</text>
<text text-anchor="middle" x="279.38" y="-117.5" font-family="Helvetica,sans-Serif" font-size="10.00">FittingMode</text>
</a>
</g>
</g>
<!-- Node1&#45;&gt;Node4 -->
<g id="edge3" class="edge">
<title>Node1&#45;&gt;Node4</title>
<path fill="none" stroke="#63b8ff" d="M142.99,-99.33C158.21,-103.07 174.71,-107.13 190.79,-111.09"/>
<polygon fill="#63b8ff" stroke="#63b8ff" points="189.73,-114.68 200.28,-113.67 191.41,-107.88 189.73,-114.68"/>
</g>
<!-- Node6 -->
<g id="node6" class="node">
<title>Node6</title>
<g id="a_node6"><a xlink:href="class_a_r_video_source.html#a1e884eb3148cf3f996be7e7a0e79b546" target="_top" xlink:title="Returns true if the video source is open.">
<polygon fill="white" stroke="#666666" points="340.62,-93.25 218.12,-93.25 218.12,-74 340.62,-74 340.62,-93.25"/>
<text text-anchor="middle" x="279.38" y="-79.75" font-family="Helvetica,sans-Serif" font-size="10.00">ARVideoSource::isOpen</text>
</a>
</g>
</g>
<!-- Node1&#45;&gt;Node6 -->
<g id="edge5" class="edge">
<title>Node1&#45;&gt;Node6</title>
<path fill="none" stroke="#63b8ff" d="M156.73,-83.62C173.31,-83.62 190.75,-83.62 207.08,-83.62"/>
<polygon fill="#63b8ff" stroke="#63b8ff" points="206.64,-87.13 216.64,-83.62 206.64,-80.13 206.64,-87.13"/>
</g>
<!-- Node7 -->
<g id="node7" class="node">
<title>Node7</title>
<g id="a_node7"><a xlink:href="class_a_r_video_source.html#adcdfb6d6fcf844c7578bec2b3f978108" target="_top" xlink:title="Returns true if the video source is open and ready to be queried.">
<polygon fill="white" stroke="#666666" points="347,-56.25 211.75,-56.25 211.75,-37 347,-37 347,-56.25"/>
<text text-anchor="middle" x="279.38" y="-42.75" font-family="Helvetica,sans-Serif" font-size="10.00">ARVideoSource::isRunning</text>
</a>
</g>
</g>
<!-- Node1&#45;&gt;Node7 -->
<g id="edge6" class="edge">
<title>Node1&#45;&gt;Node7</title>
<path fill="none" stroke="#63b8ff" d="M156.73,-69.21C175.46,-65.74 195.28,-62.06 213.36,-58.7"/>
<polygon fill="#63b8ff" stroke="#63b8ff" points="213.89,-61.97 223.08,-56.71 212.61,-55.09 213.89,-61.97"/>
</g>
<!-- Node8 -->
<g id="node8" class="node">
<title>Node8</title>
<g id="a_node8"><a xlink:href="class_a_r_video_source.html#a0cbb8805bc426c30af2311a9e225f34b" target="_top" xlink:title=" ">
<polygon fill="white" stroke="#666666" points="366.5,-19.25 192.25,-19.25 192.25,0 366.5,0 366.5,-19.25"/>
<text text-anchor="middle" x="279.38" y="-5.75" font-family="Helvetica,sans-Serif" font-size="10.00">ARVideoSource::ScalingModeName</text>
</a>
</g>
</g>
<!-- Node1&#45;&gt;Node8 -->
<g id="edge7" class="edge">
<title>Node1&#45;&gt;Node8</title>
<path fill="none" stroke="#63b8ff" d="M105.72,-68.05C128.13,-55.51 161.39,-38.29 192.25,-27.62 197.75,-25.72 203.53,-23.99 209.37,-22.41"/>
<polygon fill="#63b8ff" stroke="#63b8ff" points="210.08,-25.59 218.92,-19.75 208.37,-18.8 210.08,-25.59"/>
</g>
<!-- Node3 -->
<g id="node3" class="node">
<title>Node3</title>
<g id="a_node3"><a xlink:href="param_decomp_8c.html#af8d8284f4489d90d4408f7514866dca1" target="_top" xlink:title=" ">
<polygon fill="white" stroke="#666666" points="531,-191.25 425,-191.25 425,-172 531,-172 531,-191.25"/>
<text text-anchor="middle" x="478" y="-177.75" font-family="Helvetica,sans-Serif" font-size="10.00">arParamDecompMat</text>
</a>
</g>
</g>
<!-- Node2&#45;&gt;Node3 -->
<g id="edge2" class="edge">
<title>Node2&#45;&gt;Node3</title>
<path fill="none" stroke="#63b8ff" d="M338.31,-181.62C361.98,-181.62 389.44,-181.62 413.64,-181.62"/>
<polygon fill="#63b8ff" stroke="#63b8ff" points="413.51,-185.13 423.51,-181.62 413.51,-178.13 413.51,-185.13"/>
</g>
<!-- Node5 -->
<g id="node5" class="node">
<title>Node5</title>
<g id="a_node5"><a xlink:href="param_change_size_8c.html#a52ca3c9c652eee8efb9e968360cc4493" target="_top" xlink:title=" ">
<polygon fill="white" stroke="#666666" points="553.5,-142.25 402.5,-142.25 402.5,-123 553.5,-123 553.5,-142.25"/>
<text text-anchor="middle" x="478" y="-128.75" font-family="Helvetica,sans-Serif" font-size="10.00">arParamChangeSizeWithZoom</text>
</a>
</g>
</g>
<!-- Node4&#45;&gt;Node5 -->
<g id="edge4" class="edge">
<title>Node4&#45;&gt;Node5</title>
<path fill="none" stroke="#63b8ff" d="M357.52,-132.62C368.61,-132.62 380.08,-132.62 391.32,-132.62"/>
<polygon fill="#63b8ff" stroke="#63b8ff" points="391.01,-136.13 401.01,-132.62 391.01,-129.13 391.01,-136.13"/>
</g>
</g>
</svg>
        <g id="navigator" transform="translate(0 0)" fill="#404254">
                <rect fill="#f2f5e9" fill-opacity="0.5" stroke="#606060" stroke-width=".5" x="0" y="0" width="60" height="60"/>
                <use id="zoomplus" xlink:href="#zoomPlus" x="17" y="9" onmousedown="handleZoom(evt,'in')"/>
                <use id="zoomminus" xlink:href="#zoomMin" x="42" y="9" onmousedown="handleZoom(evt,'out')"/>
                <use id="reset" xlink:href="#resetDef" x="30" y="36" onmousedown="handleReset()"/>
                <g id="arrowUp" xlink:href="#dirArrow" transform="translate(30 24)" onmousedown="handlePan(0,-1)">
                  <use xlink:href="#rim" fill="#404040">
                        <set attributeName="fill" to="#808080" begin="arrowUp.mouseover" end="arrowUp.mouseout"/>
                  </use>
                  <path fill="none" stroke="white" stroke-width="1.5" d="M0,-3.0v7 M-2.5,-0.5L0,-3.0L2.5,-0.5"/>
                </g>
                <g id="arrowRight" xlink:href="#dirArrow" transform="rotate(90) translate(36 -43)" onmousedown="handlePan(1,0)">
                  <use xlink:href="#rim" fill="#404040">
                        <set attributeName="fill" to="#808080" begin="arrowRight.mouseover" end="arrowRight.mouseout"/>
                  </use>
                  <path fill="none" stroke="white" stroke-width="1.5" d="M0,-3.0v7 M-2.5,-0.5L0,-3.0L2.5,-0.5"/>
                </g>
                <g id="arrowDown" xlink:href="#dirArrow" transform="rotate(180) translate(-30 -48)" onmousedown="handlePan(0,1)">
                  <use xlink:href="#rim" fill="#404040">
                        <set attributeName="fill" to="#808080" begin="arrowDown.mouseover" end="arrowDown.mouseout"/>
                  </use>
                  <path fill="none" stroke="white" stroke-width="1.5" d="M0,-3.0v7 M-2.5,-0.5L0,-3.0L2.5,-0.5"/>
                </g>
                <g id="arrowLeft" xlink:href="#dirArrow" transform="rotate(270) translate(-36 17)" onmousedown="handlePan(-1,0)">
                  <use xlink:href="#rim" fill="#404040">
                        <set attributeName="fill" to="#808080" begin="arrowLeft.mouseover" end="arrowLeft.mouseout"/>
                  </use>
                  <path fill="none" stroke="white" stroke-width="1.5" d="M0,-3.0v7 M-2.5,-0.5L0,-3.0L2.5,-0.5"/>
                </g>
        </g>
        <svg viewBox="0 0 15 15" width="100%" height="30px" preserveAspectRatio="xMaxYMin meet">
         <g id="arrow_out" transform="scale(0.3 0.3)">
          <a xlink:href="class_a_r_controller_a60a5bb0bf5a3b5865a426a8c751e8dfc_cgraph_org.svg" target="_base">
           <rect id="button" ry="5" rx="5" y="6" x="6" height="38" width="38"
                fill="#f2f5e9" fill-opacity="0.5" stroke="#606060" stroke-width="1.0"/>
           <path id="arrow"
             d="M 11.500037,31.436501 C 11.940474,20.09759 22.043105,11.32322 32.158766,21.979434 L 37.068811,17.246167 C 37.068811,17.246167 37.088388,32 37.088388,32 L 22.160133,31.978069 C 22.160133,31.978069 26.997745,27.140456 26.997745,27.140456 C 18.528582,18.264221 13.291696,25.230495 11.500037,31.436501 z"
             style="fill:#404040;"/>
          </a>
         </g>
        </svg>
</svg>
