<?xml version="1.0" encoding="UTF-8" standalone="no"?>
<!DOCTYPE svg PUBLIC "-//W3C//DTD SVG 1.1//EN"
 "http://www.w3.org/Graphics/SVG/1.1/DTD/svg11.dtd">
<!-- Generated by graphviz version 8.0.5 (20230430.1635)
 -->
<!-- Title: ARController::videoPush Pages: 1 -->
<svg width="567pt" height="64pt"
 viewBox="0.00 0.00 567.00 64.25" xmlns="http://www.w3.org/2000/svg" xmlns:xlink="http://www.w3.org/1999/xlink">
<g id="graph0" class="graph" transform="scale(1 1) rotate(0) translate(4 60.25)">
<title>ARController::videoPush</title>
<!-- Node1 -->
<g id="node1" class="node">
<title>Node1</title>
<g id="a_node1"><a xlink:title=" ">
<polygon fill="#999999" stroke="#666666" points="124,-37.25 0,-37.25 0,-18 124,-18 124,-37.25"/>
<text text-anchor="middle" x="62" y="-23.75" font-family="Helvetica,sans-Serif" font-size="10.00">ARController::videoPush</text>
</a>
</g>
</g>
<!-- Node2 -->
<g id="node2" class="node">
<title>Node2</title>
<g id="a_node2"><a xlink:href="class_a_r_video_source.html#a1e884eb3148cf3f996be7e7a0e79b546" target="_top" xlink:title="Returns true if the video source is open.">
<polygon fill="white" stroke="#666666" points="290,-56.25 167.5,-56.25 167.5,-37 290,-37 290,-56.25"/>
<text text-anchor="middle" x="228.75" y="-42.75" font-family="Helvetica,sans-Serif" font-size="10.00">ARVideoSource::isOpen</text>
</a>
</g>
</g>
<!-- Node1&#45;&gt;Node2 -->
<g id="edge1" class="edge">
<title>Node1&#45;&gt;Node2</title>
<path fill="none" stroke="#63b8ff" d="M124.35,-34.7C134.84,-35.91 145.83,-37.18 156.56,-38.41"/>
<polygon fill="#63b8ff" stroke="#63b8ff" points="155.84,-41.97 166.17,-39.64 156.64,-35.02 155.84,-41.97"/>
</g>
<!-- Node3 -->
<g id="node3" class="node">
<title>Node3</title>
<g id="a_node3"><a xlink:href="class_a_r_video_source.html#a8df14d6f55b1911b1c863eb37038ceb3" target="_top" xlink:title=" ">
<polygon fill="white" stroke="#666666" points="297.5,-19.25 160,-19.25 160,0 297.5,0 297.5,-19.25"/>
<text text-anchor="middle" x="228.75" y="-5.75" font-family="Helvetica,sans-Serif" font-size="10.00">ARVideoSource::videoPush</text>
</a>
</g>
</g>
<!-- Node1&#45;&gt;Node3 -->
<g id="edge2" class="edge">
<title>Node1&#45;&gt;Node3</title>
<path fill="none" stroke="#63b8ff" d="M124.35,-20.92C132.36,-20.05 140.66,-19.14 148.91,-18.24"/>
<polygon fill="#63b8ff" stroke="#63b8ff" points="149.15,-21.62 158.71,-17.06 148.39,-14.67 149.15,-21.62"/>
</g>
<!-- Node4 -->
<g id="node4" class="node">
<title>Node4</title>
<g id="a_node4"><a xlink:href="video2_8c.html#a9bf0ed096895994e6159dc9b9e5f4e2e" target="_top" xlink:title=" ">
<polygon fill="white" stroke="#666666" points="410.25,-19.25 333.5,-19.25 333.5,0 410.25,0 410.25,-19.25"/>
<text text-anchor="middle" x="371.88" y="-5.75" font-family="Helvetica,sans-Serif" font-size="10.00">ar2VideoPush</text>
</a>
</g>
</g>
<!-- Node3&#45;&gt;Node4 -->
<g id="edge3" class="edge">
<title>Node3&#45;&gt;Node4</title>
<path fill="none" stroke="#63b8ff" d="M297.83,-9.62C306.07,-9.62 314.36,-9.62 322.24,-9.62"/>
<polygon fill="#63b8ff" stroke="#63b8ff" points="322.06,-13.13 332.06,-9.62 322.06,-6.13 322.06,-13.13"/>
</g>
<!-- Node5 -->
<g id="node5" class="node">
<title>Node5</title>
<g id="a_node5"><a xlink:href="video_external_8h.html#a0f3a7382f25a67ff2b263c265290b785" target="_top" xlink:title=" ">
<polygon fill="white" stroke="#666666" points="559,-19.25 446.25,-19.25 446.25,0 559,0 559,-19.25"/>
<text text-anchor="middle" x="502.62" y="-5.75" font-family="Helvetica,sans-Serif" font-size="10.00">ar2VideoPushExternal</text>
</a>
</g>
</g>
<!-- Node4&#45;&gt;Node5 -->
<g id="edge4" class="edge">
<title>Node4&#45;&gt;Node5</title>
<path fill="none" stroke="#63b8ff" d="M410.46,-9.62C418.29,-9.62 426.76,-9.62 435.28,-9.62"/>
<polygon fill="#63b8ff" stroke="#63b8ff" points="435.05,-13.13 445.05,-9.62 435.05,-6.13 435.05,-13.13"/>
</g>
</g>
</svg>
