<?xml version="1.0" encoding="UTF-8" standalone="no"?>
<!DOCTYPE svg PUBLIC "-//W3C//DTD SVG 1.1//EN"
 "http://www.w3.org/Graphics/SVG/1.1/DTD/svg11.dtd">
<!-- Generated by graphviz version 2.40.1 (20161225.0304)
 -->
<!-- Title: ARVideoView::initWithVideoSource Pages: 1 -->
<svg width="505pt" height="259pt"
 viewBox="0.00 0.00 504.72 259.00" xmlns="http://www.w3.org/2000/svg" xmlns:xlink="http://www.w3.org/1999/xlink">
<g id="graph0" class="graph" transform="scale(1 1) rotate(0) translate(4 255)">
<title>ARVideoView::initWithVideoSource</title>
<polygon fill="#ffffff" stroke="transparent" points="-4,4 -4,-255 500.7236,-255 500.7236,4 -4,4"/>
<!-- Node24 -->
<g id="node1" class="node">
<title>Node24</title>
<polygon fill="#bfbfbf" stroke="#000000" points="0,-106.5 0,-134.5 140.3555,-134.5 140.3555,-106.5 0,-106.5"/>
<text text-anchor="start" x="8" y="-122.5" font-family="Helvetica,sans-Serif" font-size="10.00" fill="#000000">ARVideoView::initWithVideo</text>
<text text-anchor="middle" x="70.1777" y="-112.5" font-family="Helvetica,sans-Serif" font-size="10.00" fill="#000000">Source</text>
</g>
<!-- Node25 -->
<g id="node2" class="node">
<title>Node25</title>
<g id="a_node2"><a xlink:href="arg_8c.html#a85f626e83b50240007e8b8cc349f1ddf" target="_top" xlink:title="Free memory used by arg associated with the specified context. ">
<polygon fill="#ffffff" stroke="#000000" points="221.6753,-232.5 221.6753,-250.5 291.6011,-250.5 291.6011,-232.5 221.6753,-232.5"/>
<text text-anchor="middle" x="256.6382" y="-238.5" font-family="Helvetica,sans-Serif" font-size="10.00" fill="#000000">arglCleanup</text>
</a>
</g>
</g>
<!-- Node24&#45;&gt;Node25 -->
<g id="edge1" class="edge">
<title>Node24&#45;&gt;Node25</title>
<path fill="none" stroke="#191970" d="M80.5032,-134.6617C97.7201,-157.1822 134.5554,-200.9144 176.3555,-223.5 187.1551,-229.3353 199.7511,-233.2813 211.7203,-235.9488"/>
<polygon fill="#191970" stroke="#191970" points="211.0842,-239.3908 221.5739,-237.9023 212.4455,-232.5244 211.0842,-239.3908"/>
</g>
<!-- Node26 -->
<g id="node3" class="node">
<title>Node26</title>
<g id="a_node3"><a xlink:href="class_a_r_video_source.html#a5feeb630d5706513ba1d48ba7dcd2c31" target="_top" xlink:title="Returns the camera parameters for the video source. ">
<polygon fill="#ffffff" stroke="#000000" points="185.7256,-185.5 185.7256,-213.5 327.5508,-213.5 327.5508,-185.5 185.7256,-185.5"/>
<text text-anchor="start" x="193.7256" y="-201.5" font-family="Helvetica,sans-Serif" font-size="10.00" fill="#000000">ARVideoSource::getCamera</text>
<text text-anchor="middle" x="256.6382" y="-191.5" font-family="Helvetica,sans-Serif" font-size="10.00" fill="#000000">Parameters</text>
</a>
</g>
</g>
<!-- Node24&#45;&gt;Node26 -->
<g id="edge2" class="edge">
<title>Node24&#45;&gt;Node26</title>
<path fill="none" stroke="#191970" d="M93.5431,-134.6262C114.6226,-146.9282 146.7701,-164.6085 176.3555,-176.5 181.4002,-178.5277 186.6897,-180.4548 192.0439,-182.2674"/>
<polygon fill="#191970" stroke="#191970" points="191.1207,-185.6474 201.7127,-185.4033 193.2803,-178.9889 191.1207,-185.6474"/>
</g>
<!-- Node27 -->
<g id="node4" class="node">
<title>Node27</title>
<g id="a_node4"><a xlink:href="arg_8c.html#ad95c0c2dafc0b081fde74cb34f8cf7ce" target="_top" xlink:title="Initialise the arg library for the current OpenGL context. ">
<polygon fill="#ffffff" stroke="#000000" points="185.8306,-148.5 185.8306,-166.5 327.4458,-166.5 327.4458,-148.5 185.8306,-148.5"/>
<text text-anchor="middle" x="256.6382" y="-154.5" font-family="Helvetica,sans-Serif" font-size="10.00" fill="#000000">arglSetupForCurrentContext</text>
</a>
</g>
</g>
<!-- Node24&#45;&gt;Node27 -->
<g id="edge3" class="edge">
<title>Node24&#45;&gt;Node27</title>
<path fill="none" stroke="#191970" d="M140.4047,-134.4354C160.4439,-138.4118 181.9953,-142.6884 201.0321,-146.4659"/>
<polygon fill="#191970" stroke="#191970" points="200.539,-149.9362 211.029,-148.4496 201.9015,-143.0701 200.539,-149.9362"/>
</g>
<!-- Node29 -->
<g id="node6" class="node">
<title>Node29</title>
<g id="a_node6"><a xlink:href="class_a_r_video_source.html#a4328e4435cfcff995216fb77ddb93619" target="_top" xlink:title="Returns the pixel format of the video. ">
<polygon fill="#ffffff" stroke="#000000" points="176.8364,-111.5 176.8364,-129.5 336.4399,-129.5 336.4399,-111.5 176.8364,-111.5"/>
<text text-anchor="middle" x="256.6382" y="-117.5" font-family="Helvetica,sans-Serif" font-size="10.00" fill="#000000">ARVideoSource::getPixelFormat</text>
</a>
</g>
</g>
<!-- Node24&#45;&gt;Node29 -->
<g id="edge5" class="edge">
<title>Node24&#45;&gt;Node29</title>
<path fill="none" stroke="#191970" d="M140.4047,-120.5C148.9377,-120.5 157.7449,-120.5 166.5153,-120.5"/>
<polygon fill="#191970" stroke="#191970" points="166.7756,-124.0001 176.7756,-120.5 166.7755,-117.0001 166.7756,-124.0001"/>
</g>
<!-- Node30 -->
<g id="node7" class="node">
<title>Node30</title>
<g id="a_node7"><a xlink:href="param_8h.html#ae0808053889bfcedb81b476d02a177fd" target="_top" xlink:title="Create a camera parameter structure representing an idealised lens. ">
<polygon fill="#ffffff" stroke="#000000" points="217.5176,-74.5 217.5176,-92.5 295.7588,-92.5 295.7588,-74.5 217.5176,-74.5"/>
<text text-anchor="middle" x="256.6382" y="-80.5" font-family="Helvetica,sans-Serif" font-size="10.00" fill="#000000">arParamClear</text>
</a>
</g>
</g>
<!-- Node24&#45;&gt;Node30 -->
<g id="edge6" class="edge">
<title>Node24&#45;&gt;Node30</title>
<path fill="none" stroke="#191970" d="M140.4047,-106.5646C162.6598,-102.1485 186.7801,-97.3622 207.2495,-93.3004"/>
<polygon fill="#191970" stroke="#191970" points="208.1577,-96.6885 217.2852,-91.3089 206.7952,-89.8223 208.1577,-96.6885"/>
</g>
<!-- Node32 -->
<g id="node9" class="node">
<title>Node32</title>
<g id="a_node9"><a xlink:href="class_a_r_video_source.html#adaa6982dd82839f798c878a923be461c" target="_top" xlink:title="Returns the width of the video in pixels. ">
<polygon fill="#ffffff" stroke="#000000" points="178.0278,-37.5 178.0278,-55.5 335.2485,-55.5 335.2485,-37.5 178.0278,-37.5"/>
<text text-anchor="middle" x="256.6382" y="-43.5" font-family="Helvetica,sans-Serif" font-size="10.00" fill="#000000">ARVideoSource::getVideoWidth</text>
</a>
</g>
</g>
<!-- Node24&#45;&gt;Node32 -->
<g id="edge8" class="edge">
<title>Node24&#45;&gt;Node32</title>
<path fill="none" stroke="#191970" d="M93.4484,-106.3183C114.4656,-94.0337 146.5751,-76.5453 176.3555,-65.5 183.8978,-62.7026 191.9949,-60.2181 200.0403,-58.0439"/>
<polygon fill="#191970" stroke="#191970" points="200.9696,-61.419 209.7875,-55.5456 199.2316,-54.6381 200.9696,-61.419"/>
</g>
<!-- Node33 -->
<g id="node10" class="node">
<title>Node33</title>
<g id="a_node10"><a xlink:href="class_a_r_video_source.html#adb306d10f6994abd0d03e1fae66a816a" target="_top" xlink:title="Returns the height of the video in pixels. ">
<polygon fill="#ffffff" stroke="#000000" points="176.3555,-.5 176.3555,-18.5 336.9209,-18.5 336.9209,-.5 176.3555,-.5"/>
<text text-anchor="middle" x="256.6382" y="-6.5" font-family="Helvetica,sans-Serif" font-size="10.00" fill="#000000">ARVideoSource::getVideoHeight</text>
</a>
</g>
</g>
<!-- Node24&#45;&gt;Node33 -->
<g id="edge9" class="edge">
<title>Node24&#45;&gt;Node33</title>
<path fill="none" stroke="#191970" d="M82.3625,-106.2793C100.6594,-85.863 137.2761,-48.5078 176.3555,-28.5 181.501,-25.8656 187.0195,-23.5896 192.6654,-21.6245"/>
<polygon fill="#191970" stroke="#191970" points="193.7607,-24.9491 202.2442,-18.6025 191.6545,-18.2735 193.7607,-24.9491"/>
</g>
<!-- Node28 -->
<g id="node5" class="node">
<title>Node28</title>
<g id="a_node5"><a xlink:href="arg_8c.html#a70f432550d41765bc7b7b13a53e6015d" target="_top" xlink:title="arglOpenGLVersion">
<polygon fill="#ffffff" stroke="#000000" points="383.2725,-148.5 383.2725,-166.5 486.3721,-166.5 486.3721,-148.5 383.2725,-148.5"/>
<text text-anchor="middle" x="434.8223" y="-154.5" font-family="Helvetica,sans-Serif" font-size="10.00" fill="#000000">arglOpenGLVersion</text>
</a>
</g>
</g>
<!-- Node27&#45;&gt;Node28 -->
<g id="edge4" class="edge">
<title>Node27&#45;&gt;Node28</title>
<path fill="none" stroke="#191970" d="M327.5732,-157.5C342.4894,-157.5 358.1147,-157.5 372.6793,-157.5"/>
<polygon fill="#191970" stroke="#191970" points="373.0719,-161.0001 383.0718,-157.5 373.0718,-154.0001 373.0719,-161.0001"/>
</g>
<!-- Node31 -->
<g id="node8" class="node">
<title>Node31</title>
<g id="a_node8"><a xlink:href="param_clear_8c.html#a3a67c8e9b71679e2f01173cfdb2b950a" target="_top" xlink:title="arParamDistFactorClear">
<polygon fill="#ffffff" stroke="#000000" points="372.9209,-74.5 372.9209,-92.5 496.7236,-92.5 496.7236,-74.5 372.9209,-74.5"/>
<text text-anchor="middle" x="434.8223" y="-80.5" font-family="Helvetica,sans-Serif" font-size="10.00" fill="#000000">arParamDistFactorClear</text>
</a>
</g>
</g>
<!-- Node30&#45;&gt;Node31 -->
<g id="edge7" class="edge">
<title>Node30&#45;&gt;Node31</title>
<path fill="none" stroke="#191970" d="M296.183,-83.5C315.6546,-83.5 339.7559,-83.5 362.3735,-83.5"/>
<polygon fill="#191970" stroke="#191970" points="362.639,-87.0001 372.6389,-83.5 362.6389,-80.0001 362.639,-87.0001"/>
</g>
</g>
</svg>
