<?xml version="1.0" encoding="UTF-8" standalone="no"?>
<!DOCTYPE svg PUBLIC "-//W3C//DTD SVG 1.1//EN"
 "http://www.w3.org/Graphics/SVG/1.1/DTD/svg11.dtd">
<!-- Generated by graphviz version 7.0.5 (20221223.1930)
 -->
<!-- Title: Source/ARX/AR2/include/ARX/AR2/config.h Pages: 1 -->
<svg width="1920pt" height="357pt"
 viewBox="0.00 0.00 1920.00 357.00" xmlns="http://www.w3.org/2000/svg" xmlns:xlink="http://www.w3.org/1999/xlink">
<g id="graph0" class="graph" transform="scale(1 1) rotate(0) translate(4 353)">
<title>Source/ARX/AR2/include/ARX/AR2/config.h</title>
<!-- Node1 -->
<g id="node1" class="node">
<title>Node1</title>
<g id="a_node1"><a xlink:title=" ">
<polygon fill="#999999" stroke="#666666" points="1031,-349 903,-349 903,-319 1031,-319 1031,-349"/>
<text text-anchor="start" x="911" y="-337" font-family="Helvetica,sans-Serif" font-size="10.00">Source/ARX/AR2/include</text>
<text text-anchor="middle" x="967" y="-326" font-family="Helvetica,sans-Serif" font-size="10.00">/ARX/AR2/config.h</text>
</a>
</g>
</g>
<!-- Node2 -->
<g id="node2" class="node">
<title>Node2</title>
<g id="a_node2"><a xlink:href="feature_map_8c.html" target="_top" xlink:title=" ">
<polygon fill="white" stroke="#666666" points="220,-145.5 66,-145.5 66,-126.5 220,-126.5 220,-145.5"/>
<text text-anchor="middle" x="143" y="-133.5" font-family="Helvetica,sans-Serif" font-size="10.00">Source/ARX/AR2/featureMap.c</text>
</a>
</g>
</g>
<!-- Node1&#45;&gt;Node2 -->
<g id="edge1" class="edge">
<title>Node1&#45;&gt;Node2</title>
<path fill="none" stroke="#63b8ff" d="M891.36,-326.88C815.5,-319.81 695.66,-306.07 594,-283 425.86,-244.84 230.88,-171.36 165.59,-145.92"/>
<polygon fill="#63b8ff" stroke="#63b8ff" points="890.9,-330.35 901.18,-327.78 891.54,-323.38 890.9,-330.35"/>
</g>
<!-- Node3 -->
<g id="node3" class="node">
<title>Node3</title>
<g id="a_node3"><a xlink:href="coord_8h.html" target="_top" xlink:title=" ">
<polygon fill="white" stroke="#666666" points="832,-151 704,-151 704,-121 832,-121 832,-151"/>
<text text-anchor="start" x="712" y="-139" font-family="Helvetica,sans-Serif" font-size="10.00">Source/ARX/AR2/include</text>
<text text-anchor="middle" x="768" y="-128" font-family="Helvetica,sans-Serif" font-size="10.00">/ARX/AR2/coord.h</text>
</a>
</g>
</g>
<!-- Node1&#45;&gt;Node3 -->
<g id="edge2" class="edge">
<title>Node1&#45;&gt;Node3</title>
<path fill="none" stroke="#63b8ff" d="M891.96,-321.24C866.39,-313.94 839.4,-302.13 820,-283 782.44,-245.98 771.91,-180.06 769.04,-151.2"/>
<polygon fill="#63b8ff" stroke="#63b8ff" points="890.78,-324.55 901.34,-323.72 892.56,-317.78 890.78,-324.55"/>
</g>
<!-- Node7 -->
<g id="node7" class="node">
<title>Node7</title>
<g id="a_node7"><a xlink:href="template_8c.html" target="_top" xlink:title=" ">
<polygon fill="white" stroke="#666666" points="669.5,-19 526.5,-19 526.5,0 669.5,0 669.5,-19"/>
<text text-anchor="middle" x="598" y="-7" font-family="Helvetica,sans-Serif" font-size="10.00">Source/ARX/AR2/template.c</text>
</a>
</g>
</g>
<!-- Node1&#45;&gt;Node7 -->
<g id="edge60" class="edge">
<title>Node1&#45;&gt;Node7</title>
<path fill="none" stroke="#63b8ff" d="M891.28,-330.34C669.69,-321.55 38,-288.95 38,-203 38,-203 38,-203 38,-135 38,-85.54 375.11,-37.88 526.22,-19.01"/>
<polygon fill="#63b8ff" stroke="#63b8ff" points="891.14,-333.83 901.27,-330.73 891.41,-326.84 891.14,-333.83"/>
</g>
<!-- Node9 -->
<g id="node9" class="node">
<title>Node9</title>
<g id="a_node9"><a xlink:href="feature_set_8h.html" target="_top" xlink:title=" ">
<polygon fill="white" stroke="#666666" points="675,-217 547,-217 547,-187 675,-187 675,-217"/>
<text text-anchor="start" x="555" y="-205" font-family="Helvetica,sans-Serif" font-size="10.00">Source/ARX/AR2/include</text>
<text text-anchor="middle" x="611" y="-194" font-family="Helvetica,sans-Serif" font-size="10.00">/ARX/AR2/featureSet.h</text>
</a>
</g>
</g>
<!-- Node1&#45;&gt;Node9 -->
<g id="edge8" class="edge">
<title>Node1&#45;&gt;Node9</title>
<path fill="none" stroke="#63b8ff" d="M891.46,-319.94C851.08,-311.71 800.98,-299.5 758,-283 711.35,-265.09 661.02,-235.13 633.03,-217.4"/>
<polygon fill="#63b8ff" stroke="#63b8ff" points="890.6,-323.33 901.09,-321.85 891.97,-316.47 890.6,-323.33"/>
</g>
<!-- Node11 -->
<g id="node11" class="node">
<title>Node11</title>
<g id="a_node11"><a xlink:href="search_point_8h.html" target="_top" xlink:title=" ">
<polygon fill="white" stroke="#666666" points="366,-151 238,-151 238,-121 366,-121 366,-151"/>
<text text-anchor="start" x="246" y="-139" font-family="Helvetica,sans-Serif" font-size="10.00">Source/ARX/AR2/include</text>
<text text-anchor="middle" x="302" y="-128" font-family="Helvetica,sans-Serif" font-size="10.00">/ARX/AR2/searchPoint.h</text>
</a>
</g>
</g>
<!-- Node1&#45;&gt;Node11 -->
<g id="edge50" class="edge">
<title>Node1&#45;&gt;Node11</title>
<path fill="none" stroke="#63b8ff" d="M891.45,-323.06C835.51,-314.8 757.76,-301.41 691,-283 555.23,-245.55 400.28,-180.3 334.38,-151.44"/>
<polygon fill="#63b8ff" stroke="#63b8ff" points="890.79,-326.5 901.19,-324.48 891.8,-319.57 890.79,-326.5"/>
</g>
<!-- Node12 -->
<g id="node12" class="node">
<title>Node12</title>
<g id="a_node12"><a xlink:href="tracking2d_8c.html" target="_top" xlink:title=" ">
<polygon fill="white" stroke="#666666" points="383,-19 233,-19 233,0 383,0 383,-19"/>
<text text-anchor="middle" x="308" y="-7" font-family="Helvetica,sans-Serif" font-size="10.00">Source/ARX/AR2/tracking2d.c</text>
</a>
</g>
</g>
<!-- Node1&#45;&gt;Node12 -->
<g id="edge61" class="edge">
<title>Node1&#45;&gt;Node12</title>
<path fill="none" stroke="#63b8ff" d="M891.27,-333.14C713.03,-332.71 271.5,-327.08 131,-283 65.91,-262.58 0,-271.22 0,-203 0,-203 0,-203 0,-135 0,-79.49 174.15,-37.06 260.55,-19.43"/>
<polygon fill="#63b8ff" stroke="#63b8ff" points="891.1,-336.64 901.11,-333.15 891.12,-329.64 891.1,-336.64"/>
</g>
<!-- Node13 -->
<g id="node13" class="node">
<title>Node13</title>
<g id="a_node13"><a xlink:href="template_8h.html" target="_top" xlink:title=" ">
<polygon fill="white" stroke="#666666" points="1190,-151 1062,-151 1062,-121 1190,-121 1190,-151"/>
<text text-anchor="start" x="1070" y="-139" font-family="Helvetica,sans-Serif" font-size="10.00">Source/ARX/AR2/include</text>
<text text-anchor="middle" x="1126" y="-128" font-family="Helvetica,sans-Serif" font-size="10.00">/ARX/AR2/template.h</text>
</a>
</g>
</g>
<!-- Node1&#45;&gt;Node13 -->
<g id="edge51" class="edge">
<title>Node1&#45;&gt;Node13</title>
<path fill="none" stroke="#63b8ff" d="M1042.26,-327.12C1112.73,-317.1 1214,-290.03 1261,-217 1282.67,-183.32 1234.94,-161.94 1190.37,-149.84"/>
<polygon fill="#63b8ff" stroke="#63b8ff" points="1042.18,-323.6 1032.73,-328.39 1043.11,-330.54 1042.18,-323.6"/>
</g>
<!-- Node14 -->
<g id="node14" class="node">
<title>Node14</title>
<g id="a_node14"><a xlink:href="tracking_8h.html" target="_top" xlink:title=" ">
<polygon fill="white" stroke="#666666" points="1434,-85 1306,-85 1306,-55 1434,-55 1434,-85"/>
<text text-anchor="start" x="1314" y="-73" font-family="Helvetica,sans-Serif" font-size="10.00">Source/ARX/AR2/include</text>
<text text-anchor="middle" x="1370" y="-62" font-family="Helvetica,sans-Serif" font-size="10.00">/ARX/AR2/tracking.h</text>
</a>
</g>
</g>
<!-- Node1&#45;&gt;Node14 -->
<g id="edge52" class="edge">
<title>Node1&#45;&gt;Node14</title>
<path fill="none" stroke="#63b8ff" d="M1042.91,-331.35C1096.28,-327.16 1167.58,-315.24 1222,-283 1297.97,-237.99 1289.28,-195.29 1337,-121 1344.76,-108.92 1353.74,-95.34 1360.37,-85.38"/>
<polygon fill="#63b8ff" stroke="#63b8ff" points="1042.71,-327.86 1032.98,-332.05 1043.2,-334.84 1042.71,-327.86"/>
</g>
<!-- Node16 -->
<g id="node16" class="node">
<title>Node16</title>
<g id="a_node16"><a xlink:href="matching_8c.html" target="_top" xlink:title=" ">
<polygon fill="white" stroke="#666666" points="1442.5,-19 1297.5,-19 1297.5,0 1442.5,0 1442.5,-19"/>
<text text-anchor="middle" x="1370" y="-7" font-family="Helvetica,sans-Serif" font-size="10.00">Source/ARX/AR2/matching.c</text>
</a>
</g>
</g>
<!-- Node1&#45;&gt;Node16 -->
<g id="edge58" class="edge">
<title>Node1&#45;&gt;Node16</title>
<path fill="none" stroke="#63b8ff" d="M1042.81,-326.5C1221.09,-310.2 1652,-264.44 1652,-203 1652,-203 1652,-203 1652,-135 1652,-98.46 1659.67,-79.98 1633,-55 1619.18,-42.06 1515.74,-27.5 1442.79,-18.66"/>
<polygon fill="#63b8ff" stroke="#63b8ff" points="1042.59,-323.01 1032.95,-327.39 1043.23,-329.98 1042.59,-323.01"/>
</g>
<!-- Node17 -->
<g id="node17" class="node">
<title>Node17</title>
<g id="a_node17"><a xlink:href="matching2_8c.html" target="_top" xlink:title=" ">
<polygon fill="white" stroke="#666666" points="1611,-19 1461,-19 1461,0 1611,0 1611,-19"/>
<text text-anchor="middle" x="1536" y="-7" font-family="Helvetica,sans-Serif" font-size="10.00">Source/ARX/AR2/matching2.c</text>
</a>
</g>
</g>
<!-- Node1&#45;&gt;Node17 -->
<g id="edge59" class="edge">
<title>Node1&#45;&gt;Node17</title>
<path fill="none" stroke="#63b8ff" d="M1042.94,-332.98C1207.98,-331.06 1590.33,-315.82 1662,-217 1704.3,-158.68 1701.47,-110.89 1656,-55 1640.99,-36.56 1617.57,-25.76 1595.38,-19.43"/>
<polygon fill="#63b8ff" stroke="#63b8ff" points="1042.91,-329.48 1032.95,-333.08 1042.99,-336.48 1042.91,-329.48"/>
</g>
<!-- Node19 -->
<g id="node19" class="node">
<title>Node19</title>
<g id="a_node19"><a xlink:href="image_format_8h.html" target="_top" xlink:title=" ">
<polygon fill="white" stroke="#666666" points="1106.5,-283 975.5,-283 975.5,-253 1106.5,-253 1106.5,-283"/>
<text text-anchor="start" x="983.5" y="-271" font-family="Helvetica,sans-Serif" font-size="10.00">Source/ARX/AR2/include</text>
<text text-anchor="middle" x="1041" y="-260" font-family="Helvetica,sans-Serif" font-size="10.00">/ARX/AR2/imageFormat.h</text>
</a>
</g>
</g>
<!-- Node1&#45;&gt;Node19 -->
<g id="edge37" class="edge">
<title>Node1&#45;&gt;Node19</title>
<path fill="none" stroke="#63b8ff" d="M991.95,-311.42C1002.63,-302.18 1014.81,-291.65 1024.37,-283.39"/>
<polygon fill="#63b8ff" stroke="#63b8ff" points="989.84,-308.62 984.57,-317.81 994.42,-313.91 989.84,-308.62"/>
</g>
<!-- Node22 -->
<g id="node22" class="node">
<title>Node22</title>
<g id="a_node22"><a xlink:href="image_set_8h.html" target="_top" xlink:title=" ">
<polygon fill="white" stroke="#666666" points="957,-283 829,-283 829,-253 957,-253 957,-283"/>
<text text-anchor="start" x="837" y="-271" font-family="Helvetica,sans-Serif" font-size="10.00">Source/ARX/AR2/include</text>
<text text-anchor="middle" x="893" y="-260" font-family="Helvetica,sans-Serif" font-size="10.00">/ARX/AR2/imageSet.h</text>
</a>
</g>
</g>
<!-- Node1&#45;&gt;Node22 -->
<g id="edge40" class="edge">
<title>Node1&#45;&gt;Node22</title>
<path fill="none" stroke="#63b8ff" d="M942.05,-311.42C931.37,-302.18 919.19,-291.65 909.63,-283.39"/>
<polygon fill="#63b8ff" stroke="#63b8ff" points="939.58,-313.91 949.43,-317.81 944.16,-308.62 939.58,-313.91"/>
</g>
<!-- Node23 -->
<g id="node23" class="node">
<title>Node23</title>
<g id="a_node23"><a xlink:href="marker_8h.html" target="_top" xlink:title=" ">
<polygon fill="white" stroke="#666666" points="1474,-151 1346,-151 1346,-121 1474,-121 1474,-151"/>
<text text-anchor="start" x="1354" y="-139" font-family="Helvetica,sans-Serif" font-size="10.00">Source/ARX/AR2/include</text>
<text text-anchor="middle" x="1410" y="-128" font-family="Helvetica,sans-Serif" font-size="10.00">/ARX/AR2/marker.h</text>
</a>
</g>
</g>
<!-- Node1&#45;&gt;Node23 -->
<g id="edge47" class="edge">
<title>Node1&#45;&gt;Node23</title>
<path fill="none" stroke="#63b8ff" d="M1042.47,-330.63C1135.39,-326.37 1286.52,-314.66 1332,-283 1378.7,-250.49 1399.82,-180.93 1406.99,-151.08"/>
<polygon fill="#63b8ff" stroke="#63b8ff" points="1042.5,-327.12 1032.67,-331.06 1042.81,-334.12 1042.5,-327.12"/>
</g>
<!-- Node25 -->
<g id="node25" class="node">
<title>Node25</title>
<g id="a_node25"><a xlink:href="util_8h.html" target="_top" xlink:title=" ">
<polygon fill="white" stroke="#666666" points="1865,-151 1737,-151 1737,-121 1865,-121 1865,-151"/>
<text text-anchor="start" x="1745" y="-139" font-family="Helvetica,sans-Serif" font-size="10.00">Source/ARX/AR2/include</text>
<text text-anchor="middle" x="1801" y="-128" font-family="Helvetica,sans-Serif" font-size="10.00">/ARX/AR2/util.h</text>
</a>
</g>
</g>
<!-- Node1&#45;&gt;Node25 -->
<g id="edge53" class="edge">
<title>Node1&#45;&gt;Node25</title>
<path fill="none" stroke="#63b8ff" d="M1042.82,-332.12C1223.15,-329.46 1666.83,-319.25 1723,-283 1770.81,-252.15 1791.32,-181.68 1798.17,-151.34"/>
<polygon fill="#63b8ff" stroke="#63b8ff" points="1042.79,-328.62 1032.84,-332.27 1042.89,-335.62 1042.79,-328.62"/>
</g>
<!-- Node4 -->
<g id="node4" class="node">
<title>Node4</title>
<g id="a_node4"><a xlink:href="coord_8c.html" target="_top" xlink:title=" ">
<polygon fill="white" stroke="#666666" points="831.5,-79.5 702.5,-79.5 702.5,-60.5 831.5,-60.5 831.5,-79.5"/>
<text text-anchor="middle" x="767" y="-67.5" font-family="Helvetica,sans-Serif" font-size="10.00">Source/ARX/AR2/coord.c</text>
</a>
</g>
</g>
<!-- Node3&#45;&gt;Node4 -->
<g id="edge3" class="edge">
<title>Node3&#45;&gt;Node4</title>
<path fill="none" stroke="#63b8ff" d="M767.6,-109.59C767.44,-99.06 767.26,-87.53 767.14,-79.84"/>
<polygon fill="#63b8ff" stroke="#63b8ff" points="764.1,-109.34 767.75,-119.28 771.1,-109.23 764.1,-109.34"/>
</g>
<!-- Node5 -->
<g id="node5" class="node">
<title>Node5</title>
<g id="a_node5"><a xlink:href="search_point_8c.html" target="_top" xlink:title=" ">
<polygon fill="white" stroke="#666666" points="493.5,-79.5 336.5,-79.5 336.5,-60.5 493.5,-60.5 493.5,-79.5"/>
<text text-anchor="middle" x="415" y="-67.5" font-family="Helvetica,sans-Serif" font-size="10.00">Source/ARX/AR2/searchPoint.c</text>
</a>
</g>
</g>
<!-- Node3&#45;&gt;Node5 -->
<g id="edge4" class="edge">
<title>Node3&#45;&gt;Node5</title>
<path fill="none" stroke="#63b8ff" d="M692.38,-120.53C607.53,-104.87 520.21,-89.42 466.39,-79.97"/>
<polygon fill="#63b8ff" stroke="#63b8ff" points="691.56,-123.94 702.03,-122.31 692.84,-117.05 691.56,-123.94"/>
</g>
<!-- Node6 -->
<g id="node6" class="node">
<title>Node6</title>
<g id="a_node6"><a xlink:href="surface_8c.html" target="_top" xlink:title=" ">
<polygon fill="white" stroke="#666666" points="1279.5,-19 1142.5,-19 1142.5,0 1279.5,0 1279.5,-19"/>
<text text-anchor="middle" x="1211" y="-7" font-family="Helvetica,sans-Serif" font-size="10.00">Source/ARX/AR2/surface.c</text>
</a>
</g>
</g>
<!-- Node3&#45;&gt;Node6 -->
<g id="edge5" class="edge">
<title>Node3&#45;&gt;Node6</title>
<path fill="none" stroke="#63b8ff" d="M728.93,-114.97C702.37,-98.81 675.2,-75.49 694,-55 708.94,-38.72 1004.8,-21.25 1142.1,-13.98"/>
<polygon fill="#63b8ff" stroke="#63b8ff" points="726.88,-117.83 737.29,-119.82 730.39,-111.77 726.88,-117.83"/>
</g>
<!-- Node3&#45;&gt;Node7 -->
<g id="edge6" class="edge">
<title>Node3&#45;&gt;Node7</title>
<path fill="none" stroke="#63b8ff" d="M705.53,-116.49C686.11,-108.79 665.48,-98.44 649,-85 625.92,-66.18 609.01,-34.26 601.82,-19.05"/>
<polygon fill="#63b8ff" stroke="#63b8ff" points="704.15,-119.71 714.75,-119.97 706.62,-113.16 704.15,-119.71"/>
</g>
<!-- Node8 -->
<g id="node8" class="node">
<title>Node8</title>
<g id="a_node8"><a xlink:href="tracking_8c.html" target="_top" xlink:title=" ">
<polygon fill="white" stroke="#666666" points="968,-19 828,-19 828,0 968,0 968,-19"/>
<text text-anchor="middle" x="898" y="-7" font-family="Helvetica,sans-Serif" font-size="10.00">Source/ARX/AR2/tracking.c</text>
</a>
</g>
</g>
<!-- Node3&#45;&gt;Node8 -->
<g id="edge7" class="edge">
<title>Node3&#45;&gt;Node8</title>
<path fill="none" stroke="#63b8ff" d="M709.88,-116.56C674.14,-102.17 638.9,-80.41 660,-55 681.01,-29.69 765.28,-18.7 827.61,-13.97"/>
<polygon fill="#63b8ff" stroke="#63b8ff" points="708.41,-119.75 719,-120.06 710.92,-113.21 708.41,-119.75"/>
</g>
<!-- Node9&#45;&gt;Node2 -->
<g id="edge9" class="edge">
<title>Node9&#45;&gt;Node2</title>
<path fill="none" stroke="#63b8ff" d="M535.67,-191.84C458.55,-182.31 335.28,-166.6 229,-151 218.52,-149.46 207.35,-147.72 196.63,-146"/>
<polygon fill="#63b8ff" stroke="#63b8ff" points="534.85,-195.27 545.2,-193.02 535.71,-188.32 534.85,-195.27"/>
</g>
<!-- Node9&#45;&gt;Node3 -->
<g id="edge11" class="edge">
<title>Node9&#45;&gt;Node3</title>
<path fill="none" stroke="#63b8ff" d="M656.61,-182.41C680.82,-172.54 710.14,-160.59 732.61,-151.43"/>
<polygon fill="#63b8ff" stroke="#63b8ff" points="655.57,-179.05 647.64,-186.07 658.22,-185.53 655.57,-179.05"/>
</g>
<!-- Node9&#45;&gt;Node5 -->
<g id="edge32" class="edge">
<title>Node9&#45;&gt;Node5</title>
<path fill="none" stroke="#63b8ff" d="M535.42,-189.14C508.02,-181.81 478.34,-169.99 456,-151 433.17,-131.59 421.52,-96.3 417.13,-79.86"/>
<polygon fill="#63b8ff" stroke="#63b8ff" points="534.58,-192.53 545.13,-191.55 536.27,-185.74 534.58,-192.53"/>
</g>
<!-- Node9&#45;&gt;Node6 -->
<g id="edge33" class="edge">
<title>Node9&#45;&gt;Node6</title>
<path fill="none" stroke="#63b8ff" d="M686.44,-189.54C731.99,-181.41 790.75,-168.77 841,-151 930.57,-119.32 942.91,-88 1032,-55 1075.09,-39.04 1126.12,-26.99 1162.64,-19.48"/>
<polygon fill="#63b8ff" stroke="#63b8ff" points="685.9,-186.08 676.65,-191.25 687.1,-192.98 685.9,-186.08"/>
</g>
<!-- Node9&#45;&gt;Node7 -->
<g id="edge34" class="edge">
<title>Node9&#45;&gt;Node7</title>
<path fill="none" stroke="#63b8ff" d="M536.14,-184.05C519.56,-176.68 503.98,-166.11 494,-151 460.06,-99.59 545.34,-41.37 582.11,-19.46"/>
<polygon fill="#63b8ff" stroke="#63b8ff" points="534.57,-187.19 545.15,-187.68 537.18,-180.69 534.57,-187.19"/>
</g>
<!-- Node9&#45;&gt;Node8 -->
<g id="edge35" class="edge">
<title>Node9&#45;&gt;Node8</title>
<path fill="none" stroke="#63b8ff" d="M559.34,-181.35C546.52,-173.87 534.35,-163.93 527,-151 520.41,-139.41 520.17,-132.45 527,-121 558.56,-68.04 590.81,-75.35 649,-55 707.35,-34.6 776.8,-23.18 827.52,-17.03"/>
<polygon fill="#63b8ff" stroke="#63b8ff" points="557.39,-184.28 567.87,-185.89 560.68,-178.1 557.39,-184.28"/>
</g>
<!-- Node10 -->
<g id="node10" class="node">
<title>Node10</title>
<g id="a_node10"><a xlink:href="feature_set_8c.html" target="_top" xlink:title=" ">
<polygon fill="white" stroke="#666666" points="686,-145.5 536,-145.5 536,-126.5 686,-126.5 686,-145.5"/>
<text text-anchor="middle" x="611" y="-133.5" font-family="Helvetica,sans-Serif" font-size="10.00">Source/ARX/AR2/featureSet.c</text>
</a>
</g>
</g>
<!-- Node9&#45;&gt;Node10 -->
<g id="edge10" class="edge">
<title>Node9&#45;&gt;Node10</title>
<path fill="none" stroke="#63b8ff" d="M611,-175.59C611,-165.06 611,-153.53 611,-145.84"/>
<polygon fill="#63b8ff" stroke="#63b8ff" points="607.5,-175.28 611,-185.28 614.5,-175.28 607.5,-175.28"/>
</g>
<!-- Node9&#45;&gt;Node11 -->
<g id="edge12" class="edge">
<title>Node9&#45;&gt;Node11</title>
<path fill="none" stroke="#63b8ff" d="M535.46,-185.36C483.63,-174.62 415.57,-160.52 366.32,-150.32"/>
<polygon fill="#63b8ff" stroke="#63b8ff" points="534.62,-188.75 545.12,-187.35 536.04,-181.9 534.62,-188.75"/>
</g>
<!-- Node9&#45;&gt;Node12 -->
<g id="edge36" class="edge">
<title>Node9&#45;&gt;Node12</title>
<path fill="none" stroke="#63b8ff" d="M535.54,-185.53C502.37,-177.37 463.43,-165.92 430,-151 417.59,-145.46 334.96,-96.02 327,-85 312.31,-64.65 308.95,-34.01 308.2,-19.17"/>
<polygon fill="#63b8ff" stroke="#63b8ff" points="534.54,-188.89 545.08,-187.81 536.17,-182.08 534.54,-188.89"/>
</g>
<!-- Node9&#45;&gt;Node13 -->
<g id="edge15" class="edge">
<title>Node9&#45;&gt;Node13</title>
<path fill="none" stroke="#63b8ff" d="M686.83,-191.58C788.37,-178.96 966.71,-156.8 1061.89,-144.97"/>
<polygon fill="#63b8ff" stroke="#63b8ff" points="686.44,-188.1 676.95,-192.8 687.3,-195.04 686.44,-188.1"/>
</g>
<!-- Node9&#45;&gt;Node14 -->
<g id="edge31" class="edge">
<title>Node9&#45;&gt;Node14</title>
<path fill="none" stroke="#63b8ff" d="M686.4,-197.89C822.6,-191.72 1104.29,-176.32 1199,-151 1254.57,-136.15 1314.31,-104.06 1346.39,-85.35"/>
<polygon fill="#63b8ff" stroke="#63b8ff" points="686.61,-194.38 676.78,-198.32 686.92,-201.37 686.61,-194.38"/>
</g>
<!-- Node11&#45;&gt;Node5 -->
<g id="edge13" class="edge">
<title>Node11&#45;&gt;Node5</title>
<path fill="none" stroke="#63b8ff" d="M337.12,-115.11C357.87,-103.36 383.12,-89.05 399.13,-79.99"/>
<polygon fill="#63b8ff" stroke="#63b8ff" points="335.65,-111.92 328.68,-119.89 339.1,-118.01 335.65,-111.92"/>
</g>
<!-- Node11&#45;&gt;Node12 -->
<g id="edge14" class="edge">
<title>Node11&#45;&gt;Node12</title>
<path fill="none" stroke="#63b8ff" d="M296.24,-109.79C293.43,-94 291.2,-73.25 294,-55 295.97,-42.19 300.94,-28.01 304.4,-19.18"/>
<polygon fill="#63b8ff" stroke="#63b8ff" points="292.74,-110.17 298.13,-119.3 299.61,-108.81 292.74,-110.17"/>
</g>
<!-- Node13&#45;&gt;Node6 -->
<g id="edge27" class="edge">
<title>Node13&#45;&gt;Node6</title>
<path fill="none" stroke="#63b8ff" d="M1186.22,-115.69C1200,-108.32 1212.94,-98.35 1221,-85 1233.68,-64 1222.34,-33.66 1215.43,-19.03"/>
<polygon fill="#63b8ff" stroke="#63b8ff" points="1184.93,-112.42 1177.47,-119.94 1187.99,-118.72 1184.93,-112.42"/>
</g>
<!-- Node13&#45;&gt;Node7 -->
<g id="edge28" class="edge">
<title>Node13&#45;&gt;Node7</title>
<path fill="none" stroke="#63b8ff" d="M1076.2,-116.79C1025.8,-98.93 945.35,-71.98 874,-55 805.42,-38.68 725.81,-26.55 669.77,-19.12"/>
<polygon fill="#63b8ff" stroke="#63b8ff" points="1074.77,-119.99 1085.36,-120.05 1077.12,-113.4 1074.77,-119.99"/>
</g>
<!-- Node13&#45;&gt;Node8 -->
<g id="edge29" class="edge">
<title>Node13&#45;&gt;Node8</title>
<path fill="none" stroke="#63b8ff" d="M1086.96,-115.45C1069.85,-106.58 1049.69,-95.69 1032,-85 1011.74,-72.76 1008.44,-66.94 988,-55 964.67,-41.37 936.6,-27.93 918.08,-19.45"/>
<polygon fill="#63b8ff" stroke="#63b8ff" points="1085.32,-118.55 1095.82,-120.01 1088.53,-112.32 1085.32,-118.55"/>
</g>
<!-- Node13&#45;&gt;Node12 -->
<g id="edge30" class="edge">
<title>Node13&#45;&gt;Node12</title>
<path fill="none" stroke="#63b8ff" d="M1050.42,-130.65C998.48,-125.17 929.2,-112.82 874,-85 856.3,-76.08 859.17,-62.91 841,-55 800.11,-37.2 520.39,-21.05 383.35,-14.1"/>
<polygon fill="#63b8ff" stroke="#63b8ff" points="1049.77,-134.1 1060.06,-131.6 1050.45,-127.14 1049.77,-134.1"/>
</g>
<!-- Node13&#45;&gt;Node14 -->
<g id="edge16" class="edge">
<title>Node13&#45;&gt;Node14</title>
<path fill="none" stroke="#63b8ff" d="M1192.18,-117.64C1230.71,-107.53 1278.72,-94.94 1315.14,-85.39"/>
<polygon fill="#63b8ff" stroke="#63b8ff" points="1191.31,-114.25 1182.53,-120.17 1193.09,-121.02 1191.31,-114.25"/>
</g>
<!-- Node13&#45;&gt;Node16 -->
<g id="edge24" class="edge">
<title>Node13&#45;&gt;Node16</title>
<path fill="none" stroke="#63b8ff" d="M1170.19,-116.15C1190.71,-107.13 1215.3,-95.94 1237,-85 1280.72,-62.96 1330.71,-33.87 1355.07,-19.43"/>
<polygon fill="#63b8ff" stroke="#63b8ff" points="1169.03,-112.84 1161.26,-120.05 1171.83,-119.26 1169.03,-112.84"/>
</g>
<!-- Node13&#45;&gt;Node17 -->
<g id="edge25" class="edge">
<title>Node13&#45;&gt;Node17</title>
<path fill="none" stroke="#63b8ff" d="M1201.53,-133.92C1267.75,-130.49 1365.31,-119.31 1443,-85 1445.37,-83.96 1500.8,-39.07 1524.94,-19.49"/>
<polygon fill="#63b8ff" stroke="#63b8ff" points="1201.69,-130.41 1191.87,-134.37 1202.02,-137.4 1201.69,-130.41"/>
</g>
<!-- Node18 -->
<g id="node18" class="node">
<title>Node18</title>
<g id="a_node18"><a xlink:href="select_template_8c.html" target="_top" xlink:title=" ">
<polygon fill="white" stroke="#666666" points="1211.5,-79.5 1040.5,-79.5 1040.5,-60.5 1211.5,-60.5 1211.5,-79.5"/>
<text text-anchor="middle" x="1126" y="-67.5" font-family="Helvetica,sans-Serif" font-size="10.00">Source/ARX/AR2/selectTemplate.c</text>
</a>
</g>
</g>
<!-- Node13&#45;&gt;Node18 -->
<g id="edge26" class="edge">
<title>Node13&#45;&gt;Node18</title>
<path fill="none" stroke="#63b8ff" d="M1126,-109.59C1126,-99.06 1126,-87.53 1126,-79.84"/>
<polygon fill="#63b8ff" stroke="#63b8ff" points="1122.5,-109.28 1126,-119.28 1129.5,-109.28 1122.5,-109.28"/>
</g>
<!-- Node14&#45;&gt;Node6 -->
<g id="edge20" class="edge">
<title>Node14&#45;&gt;Node6</title>
<path fill="none" stroke="#63b8ff" d="M1320.15,-50.66C1291.77,-40.22 1257.52,-27.61 1235.04,-19.35"/>
<polygon fill="#63b8ff" stroke="#63b8ff" points="1318.68,-53.85 1329.28,-54.02 1321.1,-47.28 1318.68,-53.85"/>
</g>
<!-- Node14&#45;&gt;Node7 -->
<g id="edge21" class="edge">
<title>Node14&#45;&gt;Node7</title>
<path fill="none" stroke="#63b8ff" d="M1294.52,-61.58C1270.98,-59.35 1244.92,-56.98 1221,-55 1021.62,-38.51 786.03,-22.68 669.99,-15.12"/>
<polygon fill="#63b8ff" stroke="#63b8ff" points="1294.06,-65.05 1304.35,-62.51 1294.72,-58.08 1294.06,-65.05"/>
</g>
<!-- Node14&#45;&gt;Node8 -->
<g id="edge22" class="edge">
<title>Node14&#45;&gt;Node8</title>
<path fill="none" stroke="#63b8ff" d="M1294.65,-59.66C1204.77,-48.52 1055.69,-30.04 968.16,-19.2"/>
<polygon fill="#63b8ff" stroke="#63b8ff" points="1294,-63.11 1304.35,-60.86 1294.86,-56.16 1294,-63.11"/>
</g>
<!-- Node14&#45;&gt;Node12 -->
<g id="edge23" class="edge">
<title>Node14&#45;&gt;Node12</title>
<path fill="none" stroke="#63b8ff" d="M1294.22,-61.21C1270.77,-58.98 1244.83,-56.7 1221,-55 1058.85,-43.44 571.49,-21.88 383.29,-13.73"/>
<polygon fill="#63b8ff" stroke="#63b8ff" points="1293.72,-64.68 1304.01,-62.16 1294.39,-57.71 1293.72,-64.68"/>
</g>
<!-- Node15 -->
<g id="node15" class="node">
<title>Node15</title>
<g id="a_node15"><a xlink:href="handle_8c.html" target="_top" xlink:title=" ">
<polygon fill="white" stroke="#666666" points="1798,-19 1664,-19 1664,0 1798,0 1798,-19"/>
<text text-anchor="middle" x="1731" y="-7" font-family="Helvetica,sans-Serif" font-size="10.00">Source/ARX/AR2/handle.c</text>
</a>
</g>
</g>
<!-- Node14&#45;&gt;Node15 -->
<g id="edge17" class="edge">
<title>Node14&#45;&gt;Node15</title>
<path fill="none" stroke="#63b8ff" d="M1445.3,-56.8C1514.07,-45.65 1614.12,-29.44 1675.75,-19.45"/>
<polygon fill="#63b8ff" stroke="#63b8ff" points="1444.93,-53.31 1435.62,-58.37 1446.05,-60.22 1444.93,-53.31"/>
</g>
<!-- Node14&#45;&gt;Node16 -->
<g id="edge18" class="edge">
<title>Node14&#45;&gt;Node16</title>
<path fill="none" stroke="#63b8ff" d="M1370,-43.3C1370,-34.65 1370,-25.58 1370,-19.18"/>
<polygon fill="#63b8ff" stroke="#63b8ff" points="1366.5,-43.03 1370,-53.03 1373.5,-43.03 1366.5,-43.03"/>
</g>
<!-- Node14&#45;&gt;Node17 -->
<g id="edge19" class="edge">
<title>Node14&#45;&gt;Node17</title>
<path fill="none" stroke="#63b8ff" d="M1421.66,-50.8C1451.36,-40.33 1487.33,-27.65 1510.9,-19.35"/>
<polygon fill="#63b8ff" stroke="#63b8ff" points="1420.73,-47.41 1412.46,-54.04 1423.06,-54.01 1420.73,-47.41"/>
</g>
<!-- Node20 -->
<g id="node20" class="node">
<title>Node20</title>
<g id="a_node20"><a xlink:href="image_set_8c.html" target="_top" xlink:title=" ">
<polygon fill="white" stroke="#666666" points="1110,-211.5 964,-211.5 964,-192.5 1110,-192.5 1110,-211.5"/>
<text text-anchor="middle" x="1037" y="-199.5" font-family="Helvetica,sans-Serif" font-size="10.00">Source/ARX/AR2/imageSet.c</text>
</a>
</g>
</g>
<!-- Node19&#45;&gt;Node20 -->
<g id="edge38" class="edge">
<title>Node19&#45;&gt;Node20</title>
<path fill="none" stroke="#63b8ff" d="M1039.41,-241.59C1038.75,-231.06 1038.03,-219.53 1037.55,-211.84"/>
<polygon fill="#63b8ff" stroke="#63b8ff" points="1035.9,-241.52 1040.02,-251.29 1042.89,-241.09 1035.9,-241.52"/>
</g>
<!-- Node21 -->
<g id="node21" class="node">
<title>Node21</title>
<g id="a_node21"><a xlink:href="jpeg_8c.html" target="_top" xlink:title=" ">
<polygon fill="white" stroke="#666666" points="1251.5,-211.5 1128.5,-211.5 1128.5,-192.5 1251.5,-192.5 1251.5,-211.5"/>
<text text-anchor="middle" x="1190" y="-199.5" font-family="Helvetica,sans-Serif" font-size="10.00">Source/ARX/AR2/jpeg.c</text>
</a>
</g>
</g>
<!-- Node19&#45;&gt;Node21 -->
<g id="edge39" class="edge">
<title>Node19&#45;&gt;Node21</title>
<path fill="none" stroke="#63b8ff" d="M1084.72,-248.22C1112.53,-236.27 1147.3,-221.34 1169.08,-211.99"/>
<polygon fill="#63b8ff" stroke="#63b8ff" points="1083.64,-244.88 1075.83,-252.04 1086.4,-251.31 1083.64,-244.88"/>
</g>
<!-- Node22&#45;&gt;Node3 -->
<g id="edge43" class="edge">
<title>Node22&#45;&gt;Node3</title>
<path fill="none" stroke="#63b8ff" d="M871.43,-244.57C845.76,-217.87 803.64,-174.06 781.92,-151.47"/>
<polygon fill="#63b8ff" stroke="#63b8ff" points="868.64,-246.72 878.1,-251.5 873.69,-241.87 868.64,-246.72"/>
</g>
<!-- Node22&#45;&gt;Node4 -->
<g id="edge41" class="edge">
<title>Node22&#45;&gt;Node4</title>
<path fill="none" stroke="#63b8ff" d="M888.96,-241.57C882.96,-210.46 869.23,-157.42 841,-121 826.66,-102.5 803.49,-88.42 786.9,-80"/>
<polygon fill="#63b8ff" stroke="#63b8ff" points="885.48,-242 890.69,-251.23 892.37,-240.77 885.48,-242"/>
</g>
<!-- Node22&#45;&gt;Node8 -->
<g id="edge46" class="edge">
<title>Node22&#45;&gt;Node8</title>
<path fill="none" stroke="#63b8ff" d="M893.5,-241.55C894.58,-185.76 897.14,-54.87 897.83,-19.46"/>
<polygon fill="#63b8ff" stroke="#63b8ff" points="890,-241.26 893.31,-251.33 897,-241.4 890,-241.26"/>
</g>
<!-- Node22&#45;&gt;Node9 -->
<g id="edge44" class="edge">
<title>Node22&#45;&gt;Node9</title>
<path fill="none" stroke="#63b8ff" d="M818.23,-250.03C773.41,-239.86 717.04,-227.07 674.41,-217.39"/>
<polygon fill="#63b8ff" stroke="#63b8ff" points="817.36,-253.42 827.89,-252.22 818.91,-246.6 817.36,-253.42"/>
</g>
<!-- Node22&#45;&gt;Node13 -->
<g id="edge45" class="edge">
<title>Node22&#45;&gt;Node13</title>
<path fill="none" stroke="#63b8ff" d="M906.07,-242.87C916.94,-224.98 934,-201.31 955,-187 986.7,-165.41 1027.81,-153 1061.78,-145.95"/>
<polygon fill="#63b8ff" stroke="#63b8ff" points="903.16,-240.91 901.16,-251.31 909.21,-244.43 903.16,-240.91"/>
</g>
<!-- Node22&#45;&gt;Node20 -->
<g id="edge42" class="edge">
<title>Node22&#45;&gt;Node20</title>
<path fill="none" stroke="#63b8ff" d="M935.61,-248.06C962.43,-236.14 995.82,-221.3 1016.78,-211.99"/>
<polygon fill="#63b8ff" stroke="#63b8ff" points="934.42,-244.76 926.7,-252.02 937.26,-251.16 934.42,-244.76"/>
</g>
<!-- Node23&#45;&gt;Node14 -->
<g id="edge48" class="edge">
<title>Node23&#45;&gt;Node14</title>
<path fill="none" stroke="#63b8ff" d="M1395.07,-111.11C1389.61,-102.38 1383.61,-92.78 1378.85,-85.16"/>
<polygon fill="#63b8ff" stroke="#63b8ff" points="1392.05,-112.89 1400.32,-119.51 1397.99,-109.18 1392.05,-112.89"/>
</g>
<!-- Node24 -->
<g id="node24" class="node">
<title>Node24</title>
<g id="a_node24"><a xlink:href="marker_8c.html" target="_top" xlink:title=" ">
<polygon fill="white" stroke="#666666" points="1624,-79.5 1490,-79.5 1490,-60.5 1624,-60.5 1624,-79.5"/>
<text text-anchor="middle" x="1557" y="-67.5" font-family="Helvetica,sans-Serif" font-size="10.00">Source/ARX/AR2/marker.c</text>
</a>
</g>
</g>
<!-- Node23&#45;&gt;Node24 -->
<g id="edge49" class="edge">
<title>Node23&#45;&gt;Node24</title>
<path fill="none" stroke="#63b8ff" d="M1453.49,-116.06C1480.87,-104.14 1514.96,-89.3 1536.36,-79.99"/>
<polygon fill="#63b8ff" stroke="#63b8ff" points="1452.15,-112.83 1444.38,-120.03 1454.94,-119.25 1452.15,-112.83"/>
</g>
<!-- Node25&#45;&gt;Node6 -->
<g id="edge56" class="edge">
<title>Node25&#45;&gt;Node6</title>
<path fill="none" stroke="#63b8ff" d="M1767.96,-115.1C1735.01,-96.27 1682.32,-68.88 1633,-55 1485.03,-13.35 1441.85,-35.33 1289,-19 1286.02,-18.68 1282.98,-18.36 1279.9,-18.02"/>
<polygon fill="#63b8ff" stroke="#63b8ff" points="1765.81,-117.9 1776.22,-119.88 1769.32,-111.84 1765.81,-117.9"/>
</g>
<!-- Node25&#45;&gt;Node15 -->
<g id="edge54" class="edge">
<title>Node25&#45;&gt;Node15</title>
<path fill="none" stroke="#63b8ff" d="M1787.46,-110.91C1771.73,-82.95 1746.61,-38.26 1735.99,-19.38"/>
<polygon fill="#63b8ff" stroke="#63b8ff" points="1784.28,-112.4 1792.23,-119.4 1790.38,-108.97 1784.28,-112.4"/>
</g>
<!-- Node25&#45;&gt;Node24 -->
<g id="edge55" class="edge">
<title>Node25&#45;&gt;Node24</title>
<path fill="none" stroke="#63b8ff" d="M1735.05,-117.7C1688.61,-105.52 1628.33,-89.71 1591.17,-79.96"/>
<polygon fill="#63b8ff" stroke="#63b8ff" points="1733.91,-121.02 1744.47,-120.17 1735.69,-114.25 1733.91,-121.02"/>
</g>
<!-- Node26 -->
<g id="node26" class="node">
<title>Node26</title>
<g id="a_node26"><a xlink:href="util_8c.html" target="_top" xlink:title=" ">
<polygon fill="white" stroke="#666666" points="1912,-79.5 1794,-79.5 1794,-60.5 1912,-60.5 1912,-79.5"/>
<text text-anchor="middle" x="1853" y="-67.5" font-family="Helvetica,sans-Serif" font-size="10.00">Source/ARX/AR2/util.c</text>
</a>
</g>
</g>
<!-- Node25&#45;&gt;Node26 -->
<g id="edge57" class="edge">
<title>Node25&#45;&gt;Node26</title>
<path fill="none" stroke="#63b8ff" d="M1819.73,-111.95C1828.78,-100.81 1839.1,-88.11 1845.81,-79.84"/>
<polygon fill="#63b8ff" stroke="#63b8ff" points="1817.08,-109.65 1813.49,-119.62 1822.52,-114.07 1817.08,-109.65"/>
</g>
</g>
</svg>
