<?xml version="1.0" encoding="UTF-8" standalone="no"?>
<!DOCTYPE svg PUBLIC "-//W3C//DTD SVG 1.1//EN"
 "http://www.w3.org/Graphics/SVG/1.1/DTD/svg11.dtd">
<!-- Generated by graphviz version 7.0.5 (20221223.1930)
 -->
<!-- Title: ar2MarkerCoord2ScreenCoord2 Pages: 1 -->
<svg width="323pt" height="101pt"
 viewBox="0.00 0.00 323.00 101.00" xmlns="http://www.w3.org/2000/svg" xmlns:xlink="http://www.w3.org/1999/xlink">
<g id="graph0" class="graph" transform="scale(1 1) rotate(0) translate(4 97)">
<title>ar2MarkerCoord2ScreenCoord2</title>
<!-- Node1 -->
<g id="node1" class="node">
<title>Node1</title>
<g id="a_node1"><a xlink:title=" ">
<polygon fill="#999999" stroke="#666666" points="154,-56 0,-56 0,-37 154,-37 154,-56"/>
<text text-anchor="middle" x="77" y="-44" font-family="Helvetica,sans-Serif" font-size="10.00">ar2MarkerCoord2ScreenCoord2</text>
</a>
</g>
</g>
<!-- Node2 -->
<g id="node2" class="node">
<title>Node2</title>
<g id="a_node2"><a xlink:href="param_l_t_8c.html#af28ec15693678c1e60242cf44e1c1a3f" target="_top" xlink:title="Use a lookup&#45;table camera parameter to convert idealised (zero&#45;distortion) window coordinates to obse...">
<polygon fill="white" stroke="#666666" points="315,-93 190,-93 190,-74 315,-74 315,-93"/>
<text text-anchor="middle" x="252.5" y="-81" font-family="Helvetica,sans-Serif" font-size="10.00">arParamIdeal2ObservLTf</text>
</a>
</g>
</g>
<!-- Node1&#45;&gt;Node2 -->
<g id="edge1" class="edge">
<title>Node1&#45;&gt;Node2</title>
<path fill="none" stroke="#63b8ff" d="M124.49,-56.42C145.79,-60.96 171.24,-66.38 193.75,-71.19"/>
<polygon fill="#63b8ff" stroke="#63b8ff" points="192.89,-74.58 203.4,-73.24 194.35,-67.73 192.89,-74.58"/>
</g>
<!-- Node3 -->
<g id="node3" class="node">
<title>Node3</title>
<g id="a_node3"><a xlink:href="param_l_t_8c.html#a7929844b3a3b321f49d5aca138bd3d0c" target="_top" xlink:title="Use a lookup&#45;table camera parameter to convert observed (distorted) window coordinates to idealised (...">
<polygon fill="white" stroke="#666666" points="315,-56 190,-56 190,-37 315,-37 315,-56"/>
<text text-anchor="middle" x="252.5" y="-44" font-family="Helvetica,sans-Serif" font-size="10.00">arParamObserv2IdealLTf</text>
</a>
</g>
</g>
<!-- Node1&#45;&gt;Node3 -->
<g id="edge2" class="edge">
<title>Node1&#45;&gt;Node3</title>
<path fill="none" stroke="#63b8ff" d="M154.35,-46.5C162.29,-46.5 170.35,-46.5 178.26,-46.5"/>
<polygon fill="#63b8ff" stroke="#63b8ff" points="178.18,-50 188.18,-46.5 178.18,-43 178.18,-50"/>
</g>
<!-- Node4 -->
<g id="node4" class="node">
<title>Node4</title>
<g id="a_node4"><a xlink:href="ar_util_8c.html#a6233399e2a35a97e62b18e41c3cbc204" target="_top" xlink:title=" ">
<polygon fill="white" stroke="#666666" points="294,-19 211,-19 211,0 294,0 294,-19"/>
<text text-anchor="middle" x="252.5" y="-7" font-family="Helvetica,sans-Serif" font-size="10.00">arUtilMatMuldff</text>
</a>
</g>
</g>
<!-- Node1&#45;&gt;Node4 -->
<g id="edge3" class="edge">
<title>Node1&#45;&gt;Node4</title>
<path fill="none" stroke="#63b8ff" d="M124.49,-36.58C147.72,-31.63 175.89,-25.63 199.79,-20.53"/>
<polygon fill="#63b8ff" stroke="#63b8ff" points="200.26,-24.01 209.31,-18.5 198.8,-17.16 200.26,-24.01"/>
</g>
</g>
</svg>
