<?xml version="1.0" encoding="UTF-8" standalone="no"?>
<!DOCTYPE svg PUBLIC "-//W3C//DTD SVG 1.1//EN"
 "http://www.w3.org/Graphics/SVG/1.1/DTD/svg11.dtd">
<!-- Generated by graphviz version 8.0.5 (20230430.1635)
 -->
<!-- Title: Source/ARX/AR2/include/ARX/AR2/coord.h Pages: 1 -->
<svg width="783pt" height="94pt"
 viewBox="0.00 0.00 782.75 93.75" xmlns="http://www.w3.org/2000/svg" xmlns:xlink="http://www.w3.org/1999/xlink">
<g id="graph0" class="graph" transform="scale(1 1) rotate(0) translate(4 89.75)">
<title>Source/ARX/AR2/include/ARX/AR2/coord.h</title>
<!-- Node1 -->
<g id="node1" class="node">
<title>Node1</title>
<g id="a_node1"><a xlink:title=" ">
<polygon fill="#999999" stroke="#666666" points="452.75,-85.75 325.75,-85.75 325.75,-55.25 452.75,-55.25 452.75,-85.75"/>
<text text-anchor="start" x="333.75" y="-72.25" font-family="Helvetica,sans-Serif" font-size="10.00">Source/ARX/AR2/include</text>
<text text-anchor="middle" x="389.25" y="-61" font-family="Helvetica,sans-Serif" font-size="10.00">/ARX/AR2/coord.h</text>
</a>
</g>
</g>
<!-- Node2 -->
<g id="node2" class="node">
<title>Node2</title>
<g id="a_node2"><a xlink:href="coord_8c.html" target="_top" xlink:title=" ">
<polygon fill="white" stroke="#666666" points="128.5,-19.25 0,-19.25 0,0 128.5,0 128.5,-19.25"/>
<text text-anchor="middle" x="64.25" y="-5.75" font-family="Helvetica,sans-Serif" font-size="10.00">Source/ARX/AR2/coord.c</text>
</a>
</g>
</g>
<!-- Node1&#45;&gt;Node2 -->
<g id="edge1" class="edge">
<title>Node1&#45;&gt;Node2</title>
<path fill="none" stroke="#63b8ff" d="M314.65,-55.99C253.34,-44.88 168.14,-29.44 114.61,-19.75"/>
<polygon fill="#63b8ff" stroke="#63b8ff" points="313.96,-59.6 324.43,-57.94 315.21,-52.71 313.96,-59.6"/>
</g>
<!-- Node3 -->
<g id="node3" class="node">
<title>Node3</title>
<g id="a_node3"><a xlink:href="search_point_8c.html" target="_top" xlink:title=" ">
<polygon fill="white" stroke="#666666" points="302.38,-19.25 146.12,-19.25 146.12,0 302.38,0 302.38,-19.25"/>
<text text-anchor="middle" x="224.25" y="-5.75" font-family="Helvetica,sans-Serif" font-size="10.00">Source/ARX/AR2/searchPoint.c</text>
</a>
</g>
</g>
<!-- Node1&#45;&gt;Node3 -->
<g id="edge2" class="edge">
<title>Node1&#45;&gt;Node3</title>
<path fill="none" stroke="#63b8ff" d="M337.94,-51.19C308.56,-40.71 272.99,-28.02 249.55,-19.65"/>
<polygon fill="#63b8ff" stroke="#63b8ff" points="336.44,-54.73 347.04,-54.8 338.8,-48.14 336.44,-54.73"/>
</g>
<!-- Node4 -->
<g id="node4" class="node">
<title>Node4</title>
<g id="a_node4"><a xlink:href="surface_8c.html" target="_top" xlink:title=" ">
<polygon fill="white" stroke="#666666" points="457.62,-19.25 320.88,-19.25 320.88,0 457.62,0 457.62,-19.25"/>
<text text-anchor="middle" x="389.25" y="-5.75" font-family="Helvetica,sans-Serif" font-size="10.00">Source/ARX/AR2/surface.c</text>
</a>
</g>
</g>
<!-- Node1&#45;&gt;Node4 -->
<g id="edge3" class="edge">
<title>Node1&#45;&gt;Node4</title>
<path fill="none" stroke="#63b8ff" d="M389.25,-44.07C389.25,-35.39 389.25,-26.23 389.25,-19.7"/>
<polygon fill="#63b8ff" stroke="#63b8ff" points="385.75,-43.95 389.25,-53.95 392.75,-43.95 385.75,-43.95"/>
</g>
<!-- Node5 -->
<g id="node5" class="node">
<title>Node5</title>
<g id="a_node5"><a xlink:href="template_8c.html" target="_top" xlink:title=" ">
<polygon fill="white" stroke="#666666" points="617.25,-19.25 475.25,-19.25 475.25,0 617.25,0 617.25,-19.25"/>
<text text-anchor="middle" x="546.25" y="-5.75" font-family="Helvetica,sans-Serif" font-size="10.00">Source/ARX/AR2/template.c</text>
</a>
</g>
</g>
<!-- Node1&#45;&gt;Node5 -->
<g id="edge4" class="edge">
<title>Node1&#45;&gt;Node5</title>
<path fill="none" stroke="#63b8ff" d="M438.44,-51.05C466.33,-40.6 499.97,-27.98 522.17,-19.65"/>
<polygon fill="#63b8ff" stroke="#63b8ff" points="437.6,-48.01 429.46,-54.8 440.05,-54.56 437.6,-48.01"/>
</g>
<!-- Node6 -->
<g id="node6" class="node">
<title>Node6</title>
<g id="a_node6"><a xlink:href="tracking_8c.html" target="_top" xlink:title=" ">
<polygon fill="white" stroke="#666666" points="774.75,-19.25 635.75,-19.25 635.75,0 774.75,0 774.75,-19.25"/>
<text text-anchor="middle" x="705.25" y="-5.75" font-family="Helvetica,sans-Serif" font-size="10.00">Source/ARX/AR2/tracking.c</text>
</a>
</g>
</g>
<!-- Node1&#45;&gt;Node6 -->
<g id="edge5" class="edge">
<title>Node1&#45;&gt;Node6</title>
<path fill="none" stroke="#63b8ff" d="M463.66,-55.64C523.17,-44.55 604.9,-29.32 656.39,-19.73"/>
<polygon fill="#63b8ff" stroke="#63b8ff" points="463.39,-52.31 454.2,-57.59 464.67,-59.19 463.39,-52.31"/>
</g>
</g>
</svg>
