<?xml version="1.0" encoding="UTF-8" standalone="no"?>
<!DOCTYPE svg PUBLIC "-//W3C//DTD SVG 1.1//EN"
 "http://www.w3.org/Graphics/SVG/1.1/DTD/svg11.dtd">
<!-- Generated by graphviz version 7.0.5 (20221223.1930)
 -->
<!-- Title: Source/ARX/AR2/coord.c Pages: 1 -->
<!--zoomable 357 -->
<svg id="main" version="1.1" xmlns="http://www.w3.org/2000/svg" xmlns:xlink="http://www.w3.org/1999/xlink" xml:space="preserve" onload="init(evt)">
<style type="text/css"><![CDATA[
.edge:hover path { stroke: red; }
.edge:hover polygon { stroke: red; fill: red; }
]]></style>
<script type="text/javascript"><![CDATA[
var edges = document.getElementsByTagName('g');
if (edges && edges.length) {
  for (var i=0;i<edges.length;i++) {
    if (edges[i].id.substr(0,4)=='edge') {
      edges[i].setAttribute('class','edge');
    }
  }
}
]]></script>
        <defs>
                <circle id="rim" cx="0" cy="0" r="7"/>
                <circle id="rim2" cx="0" cy="0" r="3.5"/>
                <g id="zoomPlus">
                        <use xlink:href="#rim" fill="#404040">
                                <set attributeName="fill" to="#808080" begin="zoomplus.mouseover" end="zoomplus.mouseout"/>
                        </use>
                        <path d="M-4,0h8M0,-4v8" fill="none" stroke="white" stroke-width="1.5" pointer-events="none"/>
                </g>
                <g id="zoomMin">
                        <use xlink:href="#rim" fill="#404040">
                                <set attributeName="fill" to="#808080" begin="zoomminus.mouseover" end="zoomminus.mouseout"/>
                        </use>
                        <path d="M-4,0h8" fill="none" stroke="white" stroke-width="1.5" pointer-events="none"/>
                </g>
                <g id="dirArrow">
                        <path fill="none" stroke="white" stroke-width="1.5" d="M0,-3.0v7 M-2.5,-0.5L0,-3.0L2.5,-0.5"/>
                </g>
               <g id="resetDef">
                       <use xlink:href="#rim2" fill="#404040">
                               <set attributeName="fill" to="#808080" begin="reset.mouseover" end="reset.mouseout"/>
                       </use>
               </g>
        </defs>

<script type="text/javascript">
var viewWidth = 960;
var viewHeight = 357;
var sectionId = 'dynsection-0';
</script>
<script xlink:href="svgpan.js"/>
<svg id="graph" class="graph">
<g id="viewport">
<title>Source/ARX/AR2/coord.c</title>
<!-- Node1 -->
<g id="node1" class="node">
<title>Node1</title>
<g id="a_node1"><a xlink:title=" ">
<polygon fill="#999999" stroke="#666666" points="612.5,-349 483.5,-349 483.5,-330 612.5,-330 612.5,-349"/>
<text text-anchor="middle" x="548" y="-337" font-family="Helvetica,sans-Serif" font-size="10.00">Source/ARX/AR2/coord.c</text>
</a>
</g>
</g>
<!-- Node2 -->
<g id="node2" class="node">
<title>Node2</title>
<g id="a_node2"><a xlink:href="ar_8h.html" target="_top" xlink:title="artoolkitX core routines.">
<polygon fill="white" stroke="#666666" points="576,-129 502,-129 502,-110 576,-110 576,-129"/>
<text text-anchor="middle" x="539" y="-117" font-family="Helvetica,sans-Serif" font-size="10.00">ARX/AR/ar.h</text>
</a>
</g>
</g>
<!-- Node1&#45;&gt;Node2 -->
<g id="edge1" class="edge">
<title>Node1&#45;&gt;Node2</title>
<path fill="none" stroke="#63b8ff" d="M545.1,-329.82C537,-304.42 515.31,-228.07 525,-165 526.29,-156.59 528.88,-147.6 531.48,-139.91"/>
<polygon fill="#63b8ff" stroke="#63b8ff" points="534.74,-141.19 534.88,-130.6 528.16,-138.79 534.74,-141.19"/>
</g>
<!-- Node3 -->
<g id="node3" class="node">
<title>Node3</title>
<g id="a_node3"><a xlink:title=" ">
<polygon fill="#e0e0e0" stroke="#999999" points="61,-19 15,-19 15,0 61,0 61,-19"/>
<text text-anchor="middle" x="38" y="-7" font-family="Helvetica,sans-Serif" font-size="10.00">stdio.h</text>
</a>
</g>
</g>
<!-- Node1&#45;&gt;Node3 -->
<g id="edge25" class="edge">
<title>Node1&#45;&gt;Node3</title>
<path fill="none" stroke="#63b8ff" d="M483.26,-339.18C338.25,-338.97 0,-328.01 0,-230.5 0,-230.5 0,-230.5 0,-118.5 0,-85.65 15.84,-50.19 27.07,-29.19"/>
<polygon fill="#63b8ff" stroke="#63b8ff" points="30,-31.13 31.82,-20.69 23.88,-27.72 30,-31.13"/>
</g>
<!-- Node4 -->
<g id="node4" class="node">
<title>Node4</title>
<g id="a_node4"><a xlink:title=" ">
<polygon fill="#e0e0e0" stroke="#999999" points="855,-19 807,-19 807,0 855,0 855,-19"/>
<text text-anchor="middle" x="831" y="-7" font-family="Helvetica,sans-Serif" font-size="10.00">stdlib.h</text>
</a>
</g>
</g>
<!-- Node1&#45;&gt;Node4 -->
<g id="edge26" class="edge">
<title>Node1&#45;&gt;Node4</title>
<path fill="none" stroke="#63b8ff" d="M612.91,-334.56C727.11,-325.83 952,-299.83 952,-230.5 952,-230.5 952,-230.5 952,-118.5 952,-89.04 952.54,-77.05 933,-55 923.58,-44.37 891.35,-31.28 865.61,-22.05"/>
<polygon fill="#63b8ff" stroke="#63b8ff" points="867.08,-18.86 856.48,-18.85 864.76,-25.47 867.08,-18.86"/>
</g>
<!-- Node19 -->
<g id="node19" class="node">
<title>Node19</title>
<g id="a_node19"><a xlink:href="image_set_8h.html" target="_top" xlink:title=" ">
<polygon fill="white" stroke="#666666" points="647.5,-184 534.5,-184 534.5,-165 647.5,-165 647.5,-184"/>
<text text-anchor="middle" x="591" y="-172" font-family="Helvetica,sans-Serif" font-size="10.00">ARX/AR2/imageSet.h</text>
</a>
</g>
</g>
<!-- Node1&#45;&gt;Node19 -->
<g id="edge27" class="edge">
<title>Node1&#45;&gt;Node19</title>
<path fill="none" stroke="#63b8ff" d="M550.31,-329.74C556.99,-304.42 576.43,-230.72 585.81,-195.16"/>
<polygon fill="#63b8ff" stroke="#63b8ff" points="589.12,-196.33 588.29,-185.77 582.36,-194.55 589.12,-196.33"/>
</g>
<!-- Node21 -->
<g id="node21" class="node">
<title>Node21</title>
<g id="a_node21"><a xlink:href="coord_8h.html" target="_top" xlink:title=" ">
<polygon fill="white" stroke="#666666" points="695.5,-294 600.5,-294 600.5,-275 695.5,-275 695.5,-294"/>
<text text-anchor="middle" x="648" y="-282" font-family="Helvetica,sans-Serif" font-size="10.00">ARX/AR2/coord.h</text>
</a>
</g>
</g>
<!-- Node1&#45;&gt;Node21 -->
<g id="edge30" class="edge">
<title>Node1&#45;&gt;Node21</title>
<path fill="none" stroke="#63b8ff" d="M564.96,-329.51C580.36,-321.35 603.31,-309.19 621.19,-299.71"/>
<polygon fill="#63b8ff" stroke="#63b8ff" points="622.75,-302.84 629.95,-295.07 619.47,-296.66 622.75,-302.84"/>
</g>
<!-- Node2&#45;&gt;Node3 -->
<g id="edge2" class="edge">
<title>Node2&#45;&gt;Node3</title>
<path fill="none" stroke="#63b8ff" d="M501.6,-117.43C394.33,-114.02 91.18,-101.98 57,-74 44.19,-63.51 39.78,-44.76 38.37,-30.34"/>
<polygon fill="#63b8ff" stroke="#63b8ff" points="41.88,-30.42 37.85,-20.62 34.89,-30.79 41.88,-30.42"/>
</g>
<!-- Node2&#45;&gt;Node4 -->
<g id="edge3" class="edge">
<title>Node2&#45;&gt;Node4</title>
<path fill="none" stroke="#63b8ff" d="M576.46,-113.66C631.67,-106.11 731.81,-90.63 764,-74 785.72,-62.78 805.35,-42.37 817.67,-27.72"/>
<polygon fill="#63b8ff" stroke="#63b8ff" points="820.14,-30.23 823.7,-20.25 814.69,-25.83 820.14,-30.23"/>
</g>
<!-- Node5 -->
<g id="node5" class="node">
<title>Node5</title>
<g id="a_node5"><a xlink:title=" ">
<polygon fill="#e0e0e0" stroke="#999999" points="212.5,-74 163.5,-74 163.5,-55 212.5,-55 212.5,-74"/>
<text text-anchor="middle" x="188" y="-62" font-family="Helvetica,sans-Serif" font-size="10.00">stdint.h</text>
</a>
</g>
</g>
<!-- Node2&#45;&gt;Node5 -->
<g id="edge4" class="edge">
<title>Node2&#45;&gt;Node5</title>
<path fill="none" stroke="#63b8ff" d="M501.7,-114.56C444.26,-108.2 330.5,-94.51 224.08,-74.21"/>
<polygon fill="#63b8ff" stroke="#63b8ff" points="224.78,-70.78 214.3,-72.31 223.45,-77.65 224.78,-70.78"/>
</g>
<!-- Node6 -->
<g id="node6" class="node">
<title>Node6</title>
<g id="a_node6"><a xlink:title=" ">
<polygon fill="#e0e0e0" stroke="#999999" points="788.5,-19 739.5,-19 739.5,0 788.5,0 788.5,-19"/>
<text text-anchor="middle" x="764" y="-7" font-family="Helvetica,sans-Serif" font-size="10.00">string.h</text>
</a>
</g>
</g>
<!-- Node2&#45;&gt;Node6 -->
<g id="edge5" class="edge">
<title>Node2&#45;&gt;Node6</title>
<path fill="none" stroke="#63b8ff" d="M576.3,-114.97C628.8,-109.28 720.83,-96.36 745,-74 756.9,-62.99 761.46,-44.87 763.15,-30.8"/>
<polygon fill="#63b8ff" stroke="#63b8ff" points="766.64,-31.08 763.91,-20.84 759.66,-30.55 766.64,-31.08"/>
</g>
<!-- Node7 -->
<g id="node7" class="node">
<title>Node7</title>
<g id="a_node7"><a xlink:title=" ">
<polygon fill="#e0e0e0" stroke="#999999" points="391,-19 299,-19 299,0 391,0 391,-19"/>
<text text-anchor="middle" x="345" y="-7" font-family="Helvetica,sans-Serif" font-size="10.00">ARX/AR/config.h</text>
</a>
</g>
</g>
<!-- Node2&#45;&gt;Node7 -->
<g id="edge6" class="edge">
<title>Node2&#45;&gt;Node7</title>
<path fill="none" stroke="#63b8ff" d="M556.86,-109.58C578.91,-97.41 611.61,-74.83 595,-55 582.73,-40.35 472.45,-25.14 402.51,-16.84"/>
<polygon fill="#63b8ff" stroke="#63b8ff" points="403.07,-13.38 392.74,-15.7 402.26,-20.34 403.07,-13.38"/>
</g>
<!-- Node8 -->
<g id="node8" class="node">
<title>Node8</title>
<g id="a_node8"><a xlink:href="ar_config_8h.html" target="_top" xlink:title=" ">
<polygon fill="white" stroke="#666666" points="474.5,-74 371.5,-74 371.5,-55 474.5,-55 474.5,-74"/>
<text text-anchor="middle" x="423" y="-62" font-family="Helvetica,sans-Serif" font-size="10.00">ARX/AR/arConfig.h</text>
</a>
</g>
</g>
<!-- Node2&#45;&gt;Node8 -->
<g id="edge7" class="edge">
<title>Node2&#45;&gt;Node8</title>
<path fill="none" stroke="#63b8ff" d="M519.32,-109.51C501.05,-101.16 473.59,-88.61 452.65,-79.05"/>
<polygon fill="#63b8ff" stroke="#63b8ff" points="454.31,-75.96 443.76,-74.99 451.4,-82.33 454.31,-75.96"/>
</g>
<!-- Node9 -->
<g id="node9" class="node">
<title>Node9</title>
<g id="a_node9"><a xlink:href="log_8h.html" target="_top" xlink:title="Logging utilities.">
<polygon fill="white" stroke="#666666" points="736,-74 642,-74 642,-55 736,-55 736,-74"/>
<text text-anchor="middle" x="689" y="-62" font-family="Helvetica,sans-Serif" font-size="10.00">ARX/ARUtil/log.h</text>
</a>
</g>
</g>
<!-- Node2&#45;&gt;Node9 -->
<g id="edge8" class="edge">
<title>Node2&#45;&gt;Node9</title>
<path fill="none" stroke="#63b8ff" d="M564.45,-109.51C588.76,-100.92 625.66,-87.88 652.99,-78.22"/>
<polygon fill="#63b8ff" stroke="#63b8ff" points="653.99,-81.58 662.25,-74.95 651.66,-74.98 653.99,-81.58"/>
</g>
<!-- Node13 -->
<g id="node13" class="node">
<title>Node13</title>
<g id="a_node13"><a xlink:href="matrix_8h.html" target="_top" xlink:title=" ">
<polygon fill="white" stroke="#666666" points="923.5,-74 830.5,-74 830.5,-55 923.5,-55 923.5,-74"/>
<text text-anchor="middle" x="877" y="-62" font-family="Helvetica,sans-Serif" font-size="10.00">ARX/AR/matrix.h</text>
</a>
</g>
</g>
<!-- Node2&#45;&gt;Node13 -->
<g id="edge15" class="edge">
<title>Node2&#45;&gt;Node13</title>
<path fill="none" stroke="#63b8ff" d="M576.46,-112.63C635.24,-103.41 749.57,-85.48 819.02,-74.59"/>
<polygon fill="#63b8ff" stroke="#63b8ff" points="819.36,-78.08 828.69,-73.07 818.27,-71.17 819.36,-78.08"/>
</g>
<!-- Node15 -->
<g id="node15" class="node">
<title>Node15</title>
<g id="a_node15"><a xlink:href="icp_8h.html" target="_top" xlink:title=" ">
<polygon fill="white" stroke="#666666" points="145.5,-74 66.5,-74 66.5,-55 145.5,-55 145.5,-74"/>
<text text-anchor="middle" x="106" y="-62" font-family="Helvetica,sans-Serif" font-size="10.00">ARX/AR/icp.h</text>
</a>
</g>
</g>
<!-- Node2&#45;&gt;Node15 -->
<g id="edge17" class="edge">
<title>Node2&#45;&gt;Node15</title>
<path fill="none" stroke="#63b8ff" d="M501.74,-114.95C434.77,-108.4 289.4,-93.44 156.92,-74.35"/>
<polygon fill="#63b8ff" stroke="#63b8ff" points="157.68,-70.93 147.28,-72.95 156.67,-77.85 157.68,-70.93"/>
</g>
<!-- Node17 -->
<g id="node17" class="node">
<title>Node17</title>
<g id="a_node17"><a xlink:href="param_8h.html" target="_top" xlink:title="artoolkitX functions for handling calibrated camera parameters.">
<polygon fill="white" stroke="#666666" points="585.5,-74 492.5,-74 492.5,-55 585.5,-55 585.5,-74"/>
<text text-anchor="middle" x="539" y="-62" font-family="Helvetica,sans-Serif" font-size="10.00">ARX/AR/param.h</text>
</a>
</g>
</g>
<!-- Node2&#45;&gt;Node17 -->
<g id="edge20" class="edge">
<title>Node2&#45;&gt;Node17</title>
<path fill="none" stroke="#63b8ff" d="M533.83,-109.75C532.42,-103.19 531.96,-93.95 532.43,-85.6"/>
<polygon fill="#63b8ff" stroke="#63b8ff" points="535.87,-86.3 533.61,-75.94 528.92,-85.45 535.87,-86.3"/>
</g>
<!-- Node18 -->
<g id="node18" class="node">
<title>Node18</title>
<g id="a_node18"><a xlink:href="ar_image_proc_8h.html" target="_top" xlink:title="artoolkitX functions for 2D luminance image processing.">
<polygon fill="white" stroke="#666666" points="353,-74 231,-74 231,-55 353,-55 353,-74"/>
<text text-anchor="middle" x="292" y="-62" font-family="Helvetica,sans-Serif" font-size="10.00">ARX/AR/arImageProc.h</text>
</a>
</g>
</g>
<!-- Node2&#45;&gt;Node18 -->
<g id="edge22" class="edge">
<title>Node2&#45;&gt;Node18</title>
<path fill="none" stroke="#63b8ff" d="M501.71,-111.52C458.37,-102.71 386.98,-87.46 339.67,-76.95"/>
<polygon fill="#63b8ff" stroke="#63b8ff" points="340.49,-73.54 329.97,-74.78 338.96,-80.37 340.49,-73.54"/>
</g>
<!-- Node9&#45;&gt;Node3 -->
<g id="edge9" class="edge">
<title>Node9&#45;&gt;Node3</title>
<path fill="none" stroke="#63b8ff" d="M641.68,-59.02C626.75,-57.66 610.19,-56.21 595,-55 365.5,-36.76 302.69,-56.56 72.4,-19.07"/>
<polygon fill="#63b8ff" stroke="#63b8ff" points="73.24,-15.66 62.8,-17.49 72.1,-22.57 73.24,-15.66"/>
</g>
<!-- Node9&#45;&gt;Node4 -->
<g id="edge10" class="edge">
<title>Node9&#45;&gt;Node4</title>
<path fill="none" stroke="#63b8ff" d="M713.09,-54.51C736.07,-45.93 770.94,-32.92 796.8,-23.27"/>
<polygon fill="#63b8ff" stroke="#63b8ff" points="797.7,-26.66 805.85,-19.89 795.26,-20.1 797.7,-26.66"/>
</g>
<!-- Node9&#45;&gt;Node6 -->
<g id="edge11" class="edge">
<title>Node9&#45;&gt;Node6</title>
<path fill="none" stroke="#63b8ff" d="M701.72,-54.51C712.78,-46.7 729.04,-35.21 742.17,-25.93"/>
<polygon fill="#63b8ff" stroke="#63b8ff" points="744.08,-28.86 750.23,-20.23 740.04,-23.14 744.08,-28.86"/>
</g>
<!-- Node10 -->
<g id="node10" class="node">
<title>Node10</title>
<g id="a_node10"><a xlink:title=" ">
<polygon fill="#e0e0e0" stroke="#999999" points="638,-19 586,-19 586,0 638,0 638,-19"/>
<text text-anchor="middle" x="612" y="-7" font-family="Helvetica,sans-Serif" font-size="10.00">stdarg.h</text>
</a>
</g>
</g>
<!-- Node9&#45;&gt;Node10 -->
<g id="edge12" class="edge">
<title>Node9&#45;&gt;Node10</title>
<path fill="none" stroke="#63b8ff" d="M675.94,-54.51C664.48,-46.62 647.57,-34.98 634.02,-25.65"/>
<polygon fill="#63b8ff" stroke="#63b8ff" points="636.34,-23 626.12,-20.22 632.37,-28.77 636.34,-23"/>
</g>
<!-- Node11 -->
<g id="node11" class="node">
<title>Node11</title>
<g id="a_node11"><a xlink:title=" ">
<polygon fill="#e0e0e0" stroke="#999999" points="721.5,-19 656.5,-19 656.5,0 721.5,0 721.5,-19"/>
<text text-anchor="middle" x="689" y="-7" font-family="Helvetica,sans-Serif" font-size="10.00">sys/errno.h</text>
</a>
</g>
</g>
<!-- Node9&#45;&gt;Node11 -->
<g id="edge13" class="edge">
<title>Node9&#45;&gt;Node11</title>
<path fill="none" stroke="#63b8ff" d="M689,-54.75C689,-48.27 689,-39.16 689,-30.9"/>
<polygon fill="#63b8ff" stroke="#63b8ff" points="692.5,-30.96 689,-20.96 685.5,-30.96 692.5,-30.96"/>
</g>
<!-- Node12 -->
<g id="node12" class="node">
<title>Node12</title>
<g id="a_node12"><a xlink:href="types_8h.html" target="_top" xlink:title=" ">
<polygon fill="white" stroke="#666666" points="567.5,-19 462.5,-19 462.5,0 567.5,0 567.5,-19"/>
<text text-anchor="middle" x="515" y="-7" font-family="Helvetica,sans-Serif" font-size="10.00">ARX/ARUtil/types.h</text>
</a>
</g>
</g>
<!-- Node9&#45;&gt;Node12 -->
<g id="edge14" class="edge">
<title>Node9&#45;&gt;Node12</title>
<path fill="none" stroke="#63b8ff" d="M659.48,-54.51C630.77,-45.76 586.95,-32.42 555.09,-22.71"/>
<polygon fill="#63b8ff" stroke="#63b8ff" points="556.4,-19.45 545.82,-19.89 554.36,-26.15 556.4,-19.45"/>
</g>
<!-- Node14 -->
<g id="node14" class="node">
<title>Node14</title>
<g id="a_node14"><a xlink:title=" ">
<polygon fill="#e0e0e0" stroke="#999999" points="920.5,-19 873.5,-19 873.5,0 920.5,0 920.5,-19"/>
<text text-anchor="middle" x="897" y="-7" font-family="Helvetica,sans-Serif" font-size="10.00">math.h</text>
</a>
</g>
</g>
<!-- Node13&#45;&gt;Node14 -->
<g id="edge16" class="edge">
<title>Node13&#45;&gt;Node14</title>
<path fill="none" stroke="#63b8ff" d="M880.3,-54.75C882.83,-48.04 886.43,-38.52 889.63,-30.02"/>
<polygon fill="#63b8ff" stroke="#63b8ff" points="892.84,-31.45 893.09,-20.86 886.29,-28.98 892.84,-31.45"/>
</g>
<!-- Node15&#45;&gt;Node3 -->
<g id="edge18" class="edge">
<title>Node15&#45;&gt;Node3</title>
<path fill="none" stroke="#63b8ff" d="M94.46,-54.51C84.54,-46.77 69.99,-35.43 58.14,-26.2"/>
<polygon fill="#63b8ff" stroke="#63b8ff" points="60.6,-23.68 50.56,-20.29 56.29,-29.2 60.6,-23.68"/>
</g>
<!-- Node16 -->
<g id="node16" class="node">
<title>Node16</title>
<g id="a_node16"><a xlink:href="icp_core_8h.html" target="_top" xlink:title=" ">
<polygon fill="white" stroke="#666666" points="179,-19 79,-19 79,0 179,0 179,-19"/>
<text text-anchor="middle" x="129" y="-7" font-family="Helvetica,sans-Serif" font-size="10.00">ARX/AR/icpCore.h</text>
</a>
</g>
</g>
<!-- Node15&#45;&gt;Node16 -->
<g id="edge19" class="edge">
<title>Node15&#45;&gt;Node16</title>
<path fill="none" stroke="#63b8ff" d="M109.8,-54.75C112.74,-47.96 116.94,-38.3 120.65,-29.73"/>
<polygon fill="#63b8ff" stroke="#63b8ff" points="123.75,-31.4 124.52,-20.83 117.33,-28.61 123.75,-31.4"/>
</g>
<!-- Node17&#45;&gt;Node2 -->
<g id="edge21" class="edge">
<title>Node17&#45;&gt;Node2</title>
<path fill="none" stroke="#63b8ff" d="M544.21,-74.44C545.58,-80.97 546.04,-90.1 545.57,-98.35"/>
<polygon fill="#63b8ff" stroke="#63b8ff" points="542.1,-97.89 544.35,-108.25 549.05,-98.75 542.1,-97.89"/>
</g>
<!-- Node18&#45;&gt;Node2 -->
<g id="edge24" class="edge">
<title>Node18&#45;&gt;Node2</title>
<path fill="none" stroke="#63b8ff" d="M338.9,-74.45C382.62,-83.42 447.37,-97.28 491.34,-107.06"/>
<polygon fill="#63b8ff" stroke="#63b8ff" points="490.32,-110.41 500.84,-109.18 491.84,-103.58 490.32,-110.41"/>
</g>
<!-- Node18&#45;&gt;Node7 -->
<g id="edge23" class="edge">
<title>Node18&#45;&gt;Node7</title>
<path fill="none" stroke="#63b8ff" d="M300.75,-54.75C308.15,-47.35 318.96,-36.54 328.05,-27.45"/>
<polygon fill="#63b8ff" stroke="#63b8ff" points="330.39,-30.06 334.99,-20.51 325.44,-25.11 330.39,-30.06"/>
</g>
<!-- Node19&#45;&gt;Node2 -->
<g id="edge28" class="edge">
<title>Node19&#45;&gt;Node2</title>
<path fill="none" stroke="#63b8ff" d="M582.41,-164.75C575.16,-157.35 564.55,-146.54 555.63,-137.45"/>
<polygon fill="#63b8ff" stroke="#63b8ff" points="558.34,-135.21 548.83,-130.52 553.34,-140.11 558.34,-135.21"/>
</g>
<!-- Node20 -->
<g id="node20" class="node">
<title>Node20</title>
<g id="a_node20"><a xlink:href="config_8h.html" target="_top" xlink:title=" ">
<polygon fill="white" stroke="#666666" points="725,-129 627,-129 627,-110 725,-110 725,-129"/>
<text text-anchor="middle" x="676" y="-117" font-family="Helvetica,sans-Serif" font-size="10.00">ARX/AR2/config.h</text>
</a>
</g>
</g>
<!-- Node19&#45;&gt;Node20 -->
<g id="edge29" class="edge">
<title>Node19&#45;&gt;Node20</title>
<path fill="none" stroke="#63b8ff" d="M605.42,-164.51C618.2,-156.54 637.1,-144.75 652.13,-135.38"/>
<polygon fill="#63b8ff" stroke="#63b8ff" points="653.88,-138.42 660.51,-130.16 650.17,-132.48 653.88,-138.42"/>
</g>
<!-- Node21&#45;&gt;Node19 -->
<g id="edge32" class="edge">
<title>Node21&#45;&gt;Node19</title>
<path fill="none" stroke="#63b8ff" d="M636.3,-274.56C626.43,-266.38 612.72,-253.39 605,-239 597.79,-225.57 594.29,-208.65 592.6,-195.65"/>
<polygon fill="#63b8ff" stroke="#63b8ff" points="596.08,-195.33 591.58,-185.74 589.12,-196.04 596.08,-195.33"/>
</g>
<!-- Node21&#45;&gt;Node20 -->
<g id="edge31" class="edge">
<title>Node21&#45;&gt;Node20</title>
<path fill="none" stroke="#63b8ff" d="M687.36,-274.65C706.44,-268.16 727.64,-257.2 739,-239 761.07,-203.64 721.52,-159.83 695.7,-136.65"/>
<polygon fill="#63b8ff" stroke="#63b8ff" points="698.27,-134.24 688.41,-130.35 693.69,-139.53 698.27,-134.24"/>
</g>
<!-- Node22 -->
<g id="node22" class="node">
<title>Node22</title>
<g id="a_node22"><a xlink:href="feature_set_8h.html" target="_top" xlink:title=" ">
<polygon fill="white" stroke="#666666" points="730,-239 614,-239 614,-220 730,-220 730,-239"/>
<text text-anchor="middle" x="672" y="-227" font-family="Helvetica,sans-Serif" font-size="10.00">ARX/AR2/featureSet.h</text>
</a>
</g>
</g>
<!-- Node21&#45;&gt;Node22 -->
<g id="edge33" class="edge">
<title>Node21&#45;&gt;Node22</title>
<path fill="none" stroke="#63b8ff" d="M651.96,-274.75C655.04,-267.96 659.41,-258.3 663.29,-249.73"/>
<polygon fill="#63b8ff" stroke="#63b8ff" points="666.39,-251.37 667.33,-240.82 660.01,-248.49 666.39,-251.37"/>
</g>
<!-- Node22&#45;&gt;Node19 -->
<g id="edge35" class="edge">
<title>Node22&#45;&gt;Node19</title>
<path fill="none" stroke="#63b8ff" d="M658.26,-219.51C646.2,-211.62 628.41,-199.98 614.16,-190.65"/>
<polygon fill="#63b8ff" stroke="#63b8ff" points="616.09,-187.73 605.8,-185.19 612.26,-193.59 616.09,-187.73"/>
</g>
<!-- Node22&#45;&gt;Node20 -->
<g id="edge34" class="edge">
<title>Node22&#45;&gt;Node20</title>
<path fill="none" stroke="#63b8ff" d="M672.33,-219.66C672.96,-202.57 674.37,-164.61 675.24,-140.92"/>
<polygon fill="#63b8ff" stroke="#63b8ff" points="678.74,-141.1 675.61,-130.97 671.74,-140.84 678.74,-141.1"/>
</g>
</g>
</svg>
        <g id="navigator" transform="translate(0 0)" fill="#404254">
                <rect fill="#f2f5e9" fill-opacity="0.5" stroke="#606060" stroke-width=".5" x="0" y="0" width="60" height="60"/>
                <use id="zoomplus" xlink:href="#zoomPlus" x="17" y="9" onmousedown="handleZoom(evt,'in')"/>
                <use id="zoomminus" xlink:href="#zoomMin" x="42" y="9" onmousedown="handleZoom(evt,'out')"/>
                <use id="reset" xlink:href="#resetDef" x="30" y="36" onmousedown="handleReset()"/>
                <g id="arrowUp" xlink:href="#dirArrow" transform="translate(30 24)" onmousedown="handlePan(0,-1)">
                  <use xlink:href="#rim" fill="#404040">
                        <set attributeName="fill" to="#808080" begin="arrowUp.mouseover" end="arrowUp.mouseout"/>
                  </use>
                  <path fill="none" stroke="white" stroke-width="1.5" d="M0,-3.0v7 M-2.5,-0.5L0,-3.0L2.5,-0.5"/>
                </g>
                <g id="arrowRight" xlink:href="#dirArrow" transform="rotate(90) translate(36 -43)" onmousedown="handlePan(1,0)">
                  <use xlink:href="#rim" fill="#404040">
                        <set attributeName="fill" to="#808080" begin="arrowRight.mouseover" end="arrowRight.mouseout"/>
                  </use>
                  <path fill="none" stroke="white" stroke-width="1.5" d="M0,-3.0v7 M-2.5,-0.5L0,-3.0L2.5,-0.5"/>
                </g>
                <g id="arrowDown" xlink:href="#dirArrow" transform="rotate(180) translate(-30 -48)" onmousedown="handlePan(0,1)">
                  <use xlink:href="#rim" fill="#404040">
                        <set attributeName="fill" to="#808080" begin="arrowDown.mouseover" end="arrowDown.mouseout"/>
                  </use>
                  <path fill="none" stroke="white" stroke-width="1.5" d="M0,-3.0v7 M-2.5,-0.5L0,-3.0L2.5,-0.5"/>
                </g>
                <g id="arrowLeft" xlink:href="#dirArrow" transform="rotate(270) translate(-36 17)" onmousedown="handlePan(-1,0)">
                  <use xlink:href="#rim" fill="#404040">
                        <set attributeName="fill" to="#808080" begin="arrowLeft.mouseover" end="arrowLeft.mouseout"/>
                  </use>
                  <path fill="none" stroke="white" stroke-width="1.5" d="M0,-3.0v7 M-2.5,-0.5L0,-3.0L2.5,-0.5"/>
                </g>
        </g>
        <svg viewBox="0 0 15 15" width="100%" height="30px" preserveAspectRatio="xMaxYMin meet">
         <g id="arrow_out" transform="scale(0.3 0.3)">
          <a xlink:href="coord_8c__incl_org.svg" target="_base">
           <rect id="button" ry="5" rx="5" y="6" x="6" height="38" width="38"
                fill="#f2f5e9" fill-opacity="0.5" stroke="#606060" stroke-width="1.0"/>
           <path id="arrow"
             d="M 11.500037,31.436501 C 11.940474,20.09759 22.043105,11.32322 32.158766,21.979434 L 37.068811,17.246167 C 37.068811,17.246167 37.088388,32 37.088388,32 L 22.160133,31.978069 C 22.160133,31.978069 26.997745,27.140456 26.997745,27.140456 C 18.528582,18.264221 13.291696,25.230495 11.500037,31.436501 z"
             style="fill:#404040;"/>
          </a>
         </g>
        </svg>
</svg>
