<?xml version="1.0" encoding="UTF-8" standalone="no"?>
<!DOCTYPE svg PUBLIC "-//W3C//DTD SVG 1.1//EN"
 "http://www.w3.org/Graphics/SVG/1.1/DTD/svg11.dtd">
<!-- Generated by graphviz version 2.40.1 (20161225.0304)
 -->
<!-- Title: Source/ARX/ARVideo/AVFoundation/cparams.c Pages: 1 -->
<svg width="138pt" height="147pt"
 viewBox="0.00 0.00 138.32 147.00" xmlns="http://www.w3.org/2000/svg" xmlns:xlink="http://www.w3.org/1999/xlink">
<g id="graph0" class="graph" transform="scale(1 1) rotate(0) translate(4 143)">
<title>Source/ARX/ARVideo/AVFoundation/cparams.c</title>
<polygon fill="#ffffff" stroke="transparent" points="-4,4 -4,-143 134.3213,-143 134.3213,4 -4,4"/>
<!-- Node0 -->
<g id="node1" class="node">
<title>Node0</title>
<polygon fill="#bfbfbf" stroke="#000000" points="0,-110.5 0,-138.5 130.3213,-138.5 130.3213,-110.5 0,-110.5"/>
<text text-anchor="start" x="8" y="-126.5" font-family="Helvetica,sans-Serif" font-size="10.00" fill="#000000">Source/ARX/ARVideo</text>
<text text-anchor="middle" x="65.1606" y="-116.5" font-family="Helvetica,sans-Serif" font-size="10.00" fill="#000000">/AVFoundation/cparams.c</text>
</g>
<!-- Node1 -->
<g id="node2" class="node">
<title>Node1</title>
<g id="a_node2"><a xlink:href="cparams_8h.html" target="_top" xlink:title="cparams.h">
<polygon fill="#ffffff" stroke="#000000" points="33.8184,-55.5 33.8184,-73.5 96.5029,-73.5 96.5029,-55.5 33.8184,-55.5"/>
<text text-anchor="middle" x="65.1606" y="-61.5" font-family="Helvetica,sans-Serif" font-size="10.00" fill="#000000">cparams.h</text>
</a>
</g>
</g>
<!-- Node0&#45;&gt;Node1 -->
<g id="edge1" class="edge">
<title>Node0&#45;&gt;Node1</title>
<path fill="none" stroke="#191970" d="M65.1606,-110.2808C65.1606,-102.3776 65.1606,-92.4316 65.1606,-83.8308"/>
<polygon fill="#191970" stroke="#191970" points="68.6607,-83.5842 65.1606,-73.5842 61.6607,-83.5842 68.6607,-83.5842"/>
</g>
<!-- Node2 -->
<g id="node3" class="node">
<title>Node2</title>
<polygon fill="#ffffff" stroke="#bfbfbf" points="19.6436,-.5 19.6436,-18.5 110.6777,-18.5 110.6777,-.5 19.6436,-.5"/>
<text text-anchor="middle" x="65.1606" y="-6.5" font-family="Helvetica,sans-Serif" font-size="10.00" fill="#000000">ARX/AR/config.h</text>
</g>
<!-- Node1&#45;&gt;Node2 -->
<g id="edge2" class="edge">
<title>Node1&#45;&gt;Node2</title>
<path fill="none" stroke="#191970" d="M65.1606,-55.4179C65.1606,-48.2164 65.1606,-37.8962 65.1606,-28.8632"/>
<polygon fill="#191970" stroke="#191970" points="68.6607,-28.7794 65.1606,-18.7795 61.6607,-28.7795 68.6607,-28.7794"/>
</g>
</g>
</svg>
