<?xml version="1.0" encoding="UTF-8" standalone="no"?>
<!DOCTYPE svg PUBLIC "-//W3C//DTD SVG 1.1//EN"
 "http://www.w3.org/Graphics/SVG/1.1/DTD/svg11.dtd">
<!-- Generated by graphviz version 2.40.1 (20161225.0304)
 -->
<!-- Title: Source/ARX/ARVideo/cparamSearch.h Pages: 1 -->
<svg width="121pt" height="102pt"
 viewBox="0.00 0.00 120.92 102.00" xmlns="http://www.w3.org/2000/svg" xmlns:xlink="http://www.w3.org/1999/xlink">
<g id="graph0" class="graph" transform="scale(1 1) rotate(0) translate(4 98)">
<title>Source/ARX/ARVideo/cparamSearch.h</title>
<polygon fill="#ffffff" stroke="transparent" points="-4,4 -4,-98 116.9189,-98 116.9189,4 -4,4"/>
<!-- Node22 -->
<g id="node1" class="node">
<title>Node22</title>
<polygon fill="#bfbfbf" stroke="#000000" points="0,-65.5 0,-93.5 112.9189,-93.5 112.9189,-65.5 0,-65.5"/>
<text text-anchor="start" x="8" y="-81.5" font-family="Helvetica,sans-Serif" font-size="10.00" fill="#000000">Source/ARX/ARVideo</text>
<text text-anchor="middle" x="56.4595" y="-71.5" font-family="Helvetica,sans-Serif" font-size="10.00" fill="#000000">/cparamSearch.h</text>
</g>
<!-- Node23 -->
<g id="node2" class="node">
<title>Node23</title>
<g id="a_node2"><a xlink:href="cparam_search_8c.html" target="_top" xlink:title="Source/ARX/ARVideo\l/cparamSearch.c">
<polygon fill="#ffffff" stroke="#000000" points="0,-.5 0,-28.5 112.9189,-28.5 112.9189,-.5 0,-.5"/>
<text text-anchor="start" x="8" y="-16.5" font-family="Helvetica,sans-Serif" font-size="10.00" fill="#000000">Source/ARX/ARVideo</text>
<text text-anchor="middle" x="56.4595" y="-6.5" font-family="Helvetica,sans-Serif" font-size="10.00" fill="#000000">/cparamSearch.c</text>
</a>
</g>
</g>
<!-- Node22&#45;&gt;Node23 -->
<g id="edge1" class="edge">
<title>Node22&#45;&gt;Node23</title>
<path fill="none" stroke="#191970" d="M56.4595,-55.1081C56.4595,-46.1539 56.4595,-36.3227 56.4595,-28.5765"/>
<polygon fill="#191970" stroke="#191970" points="52.9596,-55.3959 56.4595,-65.396 59.9596,-55.396 52.9596,-55.3959"/>
</g>
</g>
</svg>
