<?xml version="1.0" encoding="UTF-8" standalone="no"?>
<!DOCTYPE svg PUBLIC "-//W3C//DTD SVG 1.1//EN"
 "http://www.w3.org/Graphics/SVG/1.1/DTD/svg11.dtd">
<!-- Generated by graphviz version 2.40.1 (20161225.0304)
 -->
<!-- Title: /Users/phil/r/artoolkitx/Source/ARX/ARVideo/AVFoundation/cparams.h Pages: 1 -->
<svg width="189pt" height="122pt"
 viewBox="0.00 0.00 189.12 122.00" xmlns="http://www.w3.org/2000/svg" xmlns:xlink="http://www.w3.org/1999/xlink">
<g id="graph0" class="graph" transform="scale(1 1) rotate(0) translate(4 118)">
<title>/Users/phil/r/artoolkitx/Source/ARX/ARVideo/AVFoundation/cparams.h</title>
<polygon fill="#ffffff" stroke="transparent" points="-4,4 -4,-118 185.1172,-118 185.1172,4 -4,4"/>
<!-- Node2 -->
<g id="node1" class="node">
<title>Node2</title>
<polygon fill="#bfbfbf" stroke="#000000" points="0,-75.5 0,-113.5 181.1172,-113.5 181.1172,-75.5 0,-75.5"/>
<text text-anchor="start" x="8" y="-101.5" font-family="Helvetica,sans-Serif" font-size="10.00" fill="#000000">/Users/phil/r/artoolkitx</text>
<text text-anchor="start" x="8" y="-91.5" font-family="Helvetica,sans-Serif" font-size="10.00" fill="#000000">/Source/ARX/ARVideo/AVFoundation</text>
<text text-anchor="middle" x="90.5586" y="-81.5" font-family="Helvetica,sans-Serif" font-size="10.00" fill="#000000">/cparams.h</text>
</g>
<!-- Node3 -->
<g id="node2" class="node">
<title>Node3</title>
<g id="a_node2"><a xlink:href="cparams_8c.html" target="_top" xlink:title="/Users/phil/r/artoolkitx\l/Source/ARX/ARVideo/AVFoundation\l/cparams.c">
<polygon fill="#ffffff" stroke="#000000" points="0,-.5 0,-38.5 181.1172,-38.5 181.1172,-.5 0,-.5"/>
<text text-anchor="start" x="8" y="-26.5" font-family="Helvetica,sans-Serif" font-size="10.00" fill="#000000">/Users/phil/r/artoolkitx</text>
<text text-anchor="start" x="8" y="-16.5" font-family="Helvetica,sans-Serif" font-size="10.00" fill="#000000">/Source/ARX/ARVideo/AVFoundation</text>
<text text-anchor="middle" x="90.5586" y="-6.5" font-family="Helvetica,sans-Serif" font-size="10.00" fill="#000000">/cparams.c</text>
</a>
</g>
</g>
<!-- Node2&#45;&gt;Node3 -->
<g id="edge1" class="edge">
<title>Node2&#45;&gt;Node3</title>
<path fill="none" stroke="#191970" d="M90.5586,-64.8977C90.5586,-56.1033 90.5586,-46.7019 90.5586,-38.7489"/>
<polygon fill="#191970" stroke="#191970" points="87.0587,-65.1856 90.5586,-75.1856 94.0587,-65.1857 87.0587,-65.1856"/>
</g>
</g>
</svg>
