<?xml version="1.0" encoding="UTF-8" standalone="no"?>
<!DOCTYPE svg PUBLIC "-//W3C//DTD SVG 1.1//EN"
 "http://www.w3.org/Graphics/SVG/1.1/DTD/svg11.dtd">
<!-- Generated by graphviz version 2.40.1 (20161225.0304)
 -->
<!-- Title: /Users/phil/r/artoolkitx/Source/ARX/ARUtil/crypt.h Pages: 1 -->
<svg width="449pt" height="102pt"
 viewBox="0.00 0.00 448.70 102.00" xmlns="http://www.w3.org/2000/svg" xmlns:xlink="http://www.w3.org/1999/xlink">
<g id="graph0" class="graph" transform="scale(1 1) rotate(0) translate(4 98)">
<title>/Users/phil/r/artoolkitx/Source/ARX/ARUtil/crypt.h</title>
<polygon fill="#ffffff" stroke="transparent" points="-4,4 -4,-98 444.6992,-98 444.6992,4 -4,4"/>
<!-- Node1 -->
<g id="node1" class="node">
<title>Node1</title>
<polygon fill="#bfbfbf" stroke="#000000" points="155.7192,-65.5 155.7192,-93.5 293.4233,-93.5 293.4233,-65.5 155.7192,-65.5"/>
<text text-anchor="start" x="163.7192" y="-81.5" font-family="Helvetica,sans-Serif" font-size="10.00" fill="#000000">/Users/phil/r/artoolkitx</text>
<text text-anchor="middle" x="224.5713" y="-71.5" font-family="Helvetica,sans-Serif" font-size="10.00" fill="#000000">/Source/ARX/ARUtil/crypt.h</text>
</g>
<!-- Node2 -->
<g id="node2" class="node">
<title>Node2</title>
<g id="a_node2"><a xlink:href="crypt_8c.html" target="_top" xlink:title="/Users/phil/r/artoolkitx\l/Source/ARX/ARUtil/crypt.c">
<polygon fill="#ffffff" stroke="#000000" points="0,-.5 0,-28.5 137.1426,-28.5 137.1426,-.5 0,-.5"/>
<text text-anchor="start" x="8" y="-16.5" font-family="Helvetica,sans-Serif" font-size="10.00" fill="#000000">/Users/phil/r/artoolkitx</text>
<text text-anchor="middle" x="68.5713" y="-6.5" font-family="Helvetica,sans-Serif" font-size="10.00" fill="#000000">/Source/ARX/ARUtil/crypt.c</text>
</a>
</g>
</g>
<!-- Node1&#45;&gt;Node2 -->
<g id="edge1" class="edge">
<title>Node1&#45;&gt;Node2</title>
<path fill="none" stroke="#191970" d="M181.4774,-61.5442C156.5145,-51.143 125.5424,-38.238 102.3549,-28.5765"/>
<polygon fill="#191970" stroke="#191970" points="180.1447,-64.7805 190.7216,-65.396 182.837,-58.319 180.1447,-64.7805"/>
</g>
<!-- Node3 -->
<g id="node3" class="node">
<title>Node3</title>
<g id="a_node3"><a xlink:href="unzip_8c.html" target="_top" xlink:title="/Users/phil/r/artoolkitx\l/Source/ARX/ARUtil/unzip.c">
<polygon fill="#ffffff" stroke="#000000" points="154.8818,-.5 154.8818,-28.5 294.2607,-28.5 294.2607,-.5 154.8818,-.5"/>
<text text-anchor="start" x="162.8818" y="-16.5" font-family="Helvetica,sans-Serif" font-size="10.00" fill="#000000">/Users/phil/r/artoolkitx</text>
<text text-anchor="middle" x="224.5713" y="-6.5" font-family="Helvetica,sans-Serif" font-size="10.00" fill="#000000">/Source/ARX/ARUtil/unzip.c</text>
</a>
</g>
</g>
<!-- Node1&#45;&gt;Node3 -->
<g id="edge2" class="edge">
<title>Node1&#45;&gt;Node3</title>
<path fill="none" stroke="#191970" d="M224.5713,-55.1081C224.5713,-46.1539 224.5713,-36.3227 224.5713,-28.5765"/>
<polygon fill="#191970" stroke="#191970" points="221.0714,-55.3959 224.5713,-65.396 228.0714,-55.396 221.0714,-55.3959"/>
</g>
<!-- Node4 -->
<g id="node4" class="node">
<title>Node4</title>
<g id="a_node4"><a xlink:href="zip_8c.html" target="_top" xlink:title="/Users/phil/r/artoolkitx\l/Source/ARX/ARUtil/zip.c">
<polygon fill="#ffffff" stroke="#000000" points="312.4434,-.5 312.4434,-28.5 440.6992,-28.5 440.6992,-.5 312.4434,-.5"/>
<text text-anchor="start" x="320.4434" y="-16.5" font-family="Helvetica,sans-Serif" font-size="10.00" fill="#000000">/Users/phil/r/artoolkitx</text>
<text text-anchor="middle" x="376.5713" y="-6.5" font-family="Helvetica,sans-Serif" font-size="10.00" fill="#000000">/Source/ARX/ARUtil/zip.c</text>
</a>
</g>
</g>
<!-- Node1&#45;&gt;Node4 -->
<g id="edge3" class="edge">
<title>Node1&#45;&gt;Node4</title>
<path fill="none" stroke="#191970" d="M266.882,-61.4066C291.1487,-51.0294 321.1605,-38.1954 343.6539,-28.5765"/>
<polygon fill="#191970" stroke="#191970" points="265.3714,-58.2459 257.553,-65.396 268.1238,-64.6821 265.3714,-58.2459"/>
</g>
</g>
</svg>
