<?xml version="1.0" encoding="UTF-8" standalone="no"?>
<!DOCTYPE svg PUBLIC "-//W3C//DTD SVG 1.1//EN"
 "http://www.w3.org/Graphics/SVG/1.1/DTD/svg11.dtd">
<!-- Generated by graphviz version 7.0.5 (20221223.1930)
 -->
<!-- Title: Source/ARX/ARUtil/crypt.c Pages: 1 -->
<svg width="554pt" height="137pt"
 viewBox="0.00 0.00 553.50 137.00" xmlns="http://www.w3.org/2000/svg" xmlns:xlink="http://www.w3.org/1999/xlink">
<g id="graph0" class="graph" transform="scale(1 1) rotate(0) translate(4 133)">
<title>Source/ARX/ARUtil/crypt.c</title>
<!-- Node1 -->
<g id="node1" class="node">
<title>Node1</title>
<g id="a_node1"><a xlink:title=" ">
<polygon fill="#999999" stroke="#666666" points="328.5,-129 191.5,-129 191.5,-110 328.5,-110 328.5,-129"/>
<text text-anchor="middle" x="260" y="-117" font-family="Helvetica,sans-Serif" font-size="10.00">Source/ARX/ARUtil/crypt.c</text>
</a>
</g>
</g>
<!-- Node2 -->
<g id="node2" class="node">
<title>Node2</title>
<g id="a_node2"><a xlink:title=" ">
<polygon fill="#e0e0e0" stroke="#999999" points="46,-74 0,-74 0,-55 46,-55 46,-74"/>
<text text-anchor="middle" x="23" y="-62" font-family="Helvetica,sans-Serif" font-size="10.00">stdio.h</text>
</a>
</g>
</g>
<!-- Node1&#45;&gt;Node2 -->
<g id="edge1" class="edge">
<title>Node1&#45;&gt;Node2</title>
<path fill="none" stroke="#63b8ff" d="M215.88,-109.53C176.63,-101.42 117.41,-88.85 57.23,-74.46"/>
<polygon fill="#63b8ff" stroke="#63b8ff" points="58.4,-71.14 47.86,-72.2 56.76,-77.94 58.4,-71.14"/>
</g>
<!-- Node3 -->
<g id="node3" class="node">
<title>Node3</title>
<g id="a_node3"><a xlink:title=" ">
<polygon fill="#e0e0e0" stroke="#999999" points="112,-74 64,-74 64,-55 112,-55 112,-74"/>
<text text-anchor="middle" x="88" y="-62" font-family="Helvetica,sans-Serif" font-size="10.00">stdlib.h</text>
</a>
</g>
</g>
<!-- Node1&#45;&gt;Node3 -->
<g id="edge2" class="edge">
<title>Node1&#45;&gt;Node3</title>
<path fill="none" stroke="#63b8ff" d="M230.82,-109.51C201.12,-100.36 155.04,-86.16 123.3,-76.38"/>
<polygon fill="#63b8ff" stroke="#63b8ff" points="124.34,-73.04 113.75,-73.44 122.28,-79.73 124.34,-73.04"/>
</g>
<!-- Node4 -->
<g id="node4" class="node">
<title>Node4</title>
<g id="a_node4"><a xlink:title=" ">
<polygon fill="#e0e0e0" stroke="#999999" points="164.5,-19 115.5,-19 115.5,0 164.5,0 164.5,-19"/>
<text text-anchor="middle" x="140" y="-7" font-family="Helvetica,sans-Serif" font-size="10.00">stdint.h</text>
</a>
</g>
</g>
<!-- Node1&#45;&gt;Node4 -->
<g id="edge3" class="edge">
<title>Node1&#45;&gt;Node4</title>
<path fill="none" stroke="#63b8ff" d="M220.18,-109.57C199.3,-102.99 174.85,-91.96 159,-74 148.39,-61.98 143.7,-44.23 141.63,-30.55"/>
<polygon fill="#63b8ff" stroke="#63b8ff" points="145.14,-30.46 140.54,-20.92 138.19,-31.25 145.14,-30.46"/>
</g>
<!-- Node5 -->
<g id="node5" class="node">
<title>Node5</title>
<g id="a_node5"><a xlink:href="time_8h.html" target="_top" xlink:title=" ">
<polygon fill="white" stroke="#666666" points="212,-74 168,-74 168,-55 212,-55 212,-74"/>
<text text-anchor="middle" x="190" y="-62" font-family="Helvetica,sans-Serif" font-size="10.00">time.h</text>
</a>
</g>
</g>
<!-- Node1&#45;&gt;Node5 -->
<g id="edge4" class="edge">
<title>Node1&#45;&gt;Node5</title>
<path fill="none" stroke="#63b8ff" d="M248.13,-109.51C237.91,-101.77 222.93,-90.43 210.74,-81.2"/>
<polygon fill="#63b8ff" stroke="#63b8ff" points="212.99,-78.52 202.91,-75.27 208.77,-84.1 212.99,-78.52"/>
</g>
<!-- Node7 -->
<g id="node7" class="node">
<title>Node7</title>
<g id="a_node7"><a xlink:title=" ">
<polygon fill="#e0e0e0" stroke="#999999" points="290,-74 230,-74 230,-55 290,-55 290,-74"/>
<text text-anchor="middle" x="260" y="-62" font-family="Helvetica,sans-Serif" font-size="10.00">sys/stat.h</text>
</a>
</g>
</g>
<!-- Node1&#45;&gt;Node7 -->
<g id="edge7" class="edge">
<title>Node1&#45;&gt;Node7</title>
<path fill="none" stroke="#63b8ff" d="M260,-109.75C260,-103.27 260,-94.16 260,-85.9"/>
<polygon fill="#63b8ff" stroke="#63b8ff" points="263.5,-85.96 260,-75.96 256.5,-85.96 263.5,-85.96"/>
</g>
<!-- Node8 -->
<g id="node8" class="node">
<title>Node8</title>
<g id="a_node8"><a xlink:title=" ">
<polygon fill="#e0e0e0" stroke="#999999" points="352,-74 308,-74 308,-55 352,-55 352,-74"/>
<text text-anchor="middle" x="330" y="-62" font-family="Helvetica,sans-Serif" font-size="10.00">fcntl.h</text>
</a>
</g>
</g>
<!-- Node1&#45;&gt;Node8 -->
<g id="edge8" class="edge">
<title>Node1&#45;&gt;Node8</title>
<path fill="none" stroke="#63b8ff" d="M271.87,-109.51C282.09,-101.77 297.07,-90.43 309.26,-81.2"/>
<polygon fill="#63b8ff" stroke="#63b8ff" points="311.23,-84.1 317.09,-75.27 307.01,-78.52 311.23,-84.1"/>
</g>
<!-- Node9 -->
<g id="node9" class="node">
<title>Node9</title>
<g id="a_node9"><a xlink:title=" ">
<polygon fill="#e0e0e0" stroke="#999999" points="421.5,-74 370.5,-74 370.5,-55 421.5,-55 421.5,-74"/>
<text text-anchor="middle" x="396" y="-62" font-family="Helvetica,sans-Serif" font-size="10.00">unistd.h</text>
</a>
</g>
</g>
<!-- Node1&#45;&gt;Node9 -->
<g id="edge9" class="edge">
<title>Node1&#45;&gt;Node9</title>
<path fill="none" stroke="#63b8ff" d="M283.07,-109.51C304.89,-101.01 337.88,-88.15 362.58,-78.53"/>
<polygon fill="#63b8ff" stroke="#63b8ff" points="363.81,-81.8 371.86,-74.91 361.27,-75.28 363.81,-81.8"/>
</g>
<!-- Node10 -->
<g id="node10" class="node">
<title>Node10</title>
<g id="a_node10"><a xlink:title=" ">
<polygon fill="#e0e0e0" stroke="#999999" points="480,-74 440,-74 440,-55 480,-55 480,-74"/>
<text text-anchor="middle" x="460" y="-62" font-family="Helvetica,sans-Serif" font-size="10.00">zlib.h</text>
</a>
</g>
</g>
<!-- Node1&#45;&gt;Node10 -->
<g id="edge10" class="edge">
<title>Node1&#45;&gt;Node10</title>
<path fill="none" stroke="#63b8ff" d="M295.78,-109.53C328.14,-101.34 377.35,-88.7 428.75,-74.56"/>
<polygon fill="#63b8ff" stroke="#63b8ff" points="429.58,-77.96 438.28,-71.93 427.71,-71.22 429.58,-77.96"/>
</g>
<!-- Node11 -->
<g id="node11" class="node">
<title>Node11</title>
<g id="a_node11"><a xlink:href="crypt_8h.html" target="_top" xlink:title=" ">
<polygon fill="white" stroke="#666666" points="545.5,-74 498.5,-74 498.5,-55 545.5,-55 545.5,-74"/>
<text text-anchor="middle" x="522" y="-62" font-family="Helvetica,sans-Serif" font-size="10.00">crypt.h</text>
</a>
</g>
</g>
<!-- Node1&#45;&gt;Node11 -->
<g id="edge11" class="edge">
<title>Node1&#45;&gt;Node11</title>
<path fill="none" stroke="#63b8ff" d="M310.67,-109.56C354.74,-101.58 420.57,-89.17 487.13,-74.31"/>
<polygon fill="#63b8ff" stroke="#63b8ff" points="487.79,-77.75 496.77,-72.13 486.25,-70.92 487.79,-77.75"/>
</g>
<!-- Node5&#45;&gt;Node4 -->
<g id="edge5" class="edge">
<title>Node5&#45;&gt;Node4</title>
<path fill="none" stroke="#63b8ff" d="M181.74,-54.75C174.84,-47.43 164.78,-36.76 156.26,-27.74"/>
<polygon fill="#63b8ff" stroke="#63b8ff" points="158.88,-25.42 149.47,-20.54 153.79,-30.22 158.88,-25.42"/>
</g>
<!-- Node6 -->
<g id="node6" class="node">
<title>Node6</title>
<g id="a_node6"><a xlink:href="types_8h.html" target="_top" xlink:title=" ">
<polygon fill="white" stroke="#666666" points="287.5,-19 182.5,-19 182.5,0 287.5,0 287.5,-19"/>
<text text-anchor="middle" x="235" y="-7" font-family="Helvetica,sans-Serif" font-size="10.00">ARX/ARUtil/types.h</text>
</a>
</g>
</g>
<!-- Node5&#45;&gt;Node6 -->
<g id="edge6" class="edge">
<title>Node5&#45;&gt;Node6</title>
<path fill="none" stroke="#63b8ff" d="M197.43,-54.75C203.58,-47.5 212.51,-36.98 220.13,-28.02"/>
<polygon fill="#63b8ff" stroke="#63b8ff" points="222.62,-30.48 226.43,-20.6 217.29,-25.95 222.62,-30.48"/>
</g>
</g>
</svg>
