<?xml version="1.0" encoding="UTF-8" standalone="no"?>
<!DOCTYPE svg PUBLIC "-//W3C//DTD SVG 1.1//EN"
 "http://www.w3.org/Graphics/SVG/1.1/DTD/svg11.dtd">
<!-- Generated by graphviz version 2.40.1 (20161225.0304)
 -->
<!-- Title: Source/ARX/ARUtil/crypt.c Pages: 1 -->
<!--zoomable 137 -->
<svg id="main" version="1.1" xmlns="http://www.w3.org/2000/svg" xmlns:xlink="http://www.w3.org/1999/xlink" xml:space="preserve" onload="init(evt)">
<style type="text/css"><![CDATA[
.edge:hover path { stroke: red; }
.edge:hover polygon { stroke: red; fill: red; }
]]></style>
<script type="text/javascript"><![CDATA[
var edges = document.getElementsByTagName('g');
if (edges && edges.length) {
  for (var i=0;i<edges.length;i++) {
    if (edges[i].id.substr(0,4)=='edge') {
      edges[i].setAttribute('class','edge');
    }
  }
}
]]></script>
        <defs>
                <circle id="rim" cx="0" cy="0" r="7"/>
                <circle id="rim2" cx="0" cy="0" r="3.5"/>
                <g id="zoomPlus">
                        <use xlink:href="#rim" fill="#404040">
                                <set attributeName="fill" to="#808080" begin="zoomplus.mouseover" end="zoomplus.mouseout"/>
                        </use>
                        <path d="M-4,0h8M0,-4v8" fill="none" stroke="white" stroke-width="1.5" pointer-events="none"/>
                </g>
                <g id="zoomMin">
                        <use xlink:href="#rim" fill="#404040">
                                <set attributeName="fill" to="#808080" begin="zoomminus.mouseover" end="zoomminus.mouseout"/>
                        </use>
                        <path d="M-4,0h8" fill="none" stroke="white" stroke-width="1.5" pointer-events="none"/>
                </g>
                <g id="dirArrow">
                        <path fill="none" stroke="white" stroke-width="1.5" d="M0,-3.0v7 M-2.5,-0.5L0,-3.0L2.5,-0.5"/>
                </g>
               <g id="resetDef">
                       <use xlink:href="#rim2" fill="#404040">
                               <set attributeName="fill" to="#808080" begin="reset.mouseover" end="reset.mouseout"/>
                       </use>
               </g>
        </defs>

<script type="text/javascript">
var viewWidth = 547;
var viewHeight = 137;
var sectionId = 'dynsection-0';
</script>
<script xlink:href="svgpan.js"/>
<svg id="graph" class="graph">
<g id="viewport">
<title>Source/ARX/ARUtil/crypt.c</title>
<polygon fill="#ffffff" stroke="transparent" points="-4,4 -4,-133 542.7363,-133 542.7363,4 -4,4"/>
<!-- Node0 -->
<g id="node1" class="node">
<title>Node0</title>
<polygon fill="#bfbfbf" stroke="#000000" points="191.5493,-110.5 191.5493,-128.5 325.9136,-128.5 325.9136,-110.5 191.5493,-110.5"/>
<text text-anchor="middle" x="258.7314" y="-116.5" font-family="Helvetica,sans-Serif" font-size="10.00" fill="#000000">Source/ARX/ARUtil/crypt.c</text>
</g>
<!-- Node1 -->
<g id="node2" class="node">
<title>Node1</title>
<polygon fill="#ffffff" stroke="#bfbfbf" points="0,-55.5 0,-73.5 45.4629,-73.5 45.4629,-55.5 0,-55.5"/>
<text text-anchor="middle" x="22.7314" y="-61.5" font-family="Helvetica,sans-Serif" font-size="10.00" fill="#000000">stdio.h</text>
</g>
<!-- Node0&#45;&gt;Node1 -->
<g id="edge1" class="edge">
<title>Node0&#45;&gt;Node1</title>
<path fill="none" stroke="#191970" d="M213.9477,-110.4416C174.6599,-102.2865 115.7869,-89.5646 55.7795,-74.1413"/>
<polygon fill="#191970" stroke="#191970" points="56.3087,-70.6629 45.7503,-71.5407 54.5516,-77.4388 56.3087,-70.6629"/>
</g>
<!-- Node2 -->
<g id="node3" class="node">
<title>Node2</title>
<polygon fill="#ffffff" stroke="#bfbfbf" points="63.8892,-55.5 63.8892,-73.5 111.5737,-73.5 111.5737,-55.5 63.8892,-55.5"/>
<text text-anchor="middle" x="87.7314" y="-61.5" font-family="Helvetica,sans-Serif" font-size="10.00" fill="#000000">stdlib.h</text>
</g>
<!-- Node0&#45;&gt;Node2 -->
<g id="edge2" class="edge">
<title>Node0&#45;&gt;Node2</title>
<path fill="none" stroke="#191970" d="M230.4943,-110.4179C200.5353,-100.7819 153.2164,-85.5624 121.3531,-75.314"/>
<polygon fill="#191970" stroke="#191970" points="122.184,-71.9047 111.5926,-72.1746 120.0406,-78.5685 122.184,-71.9047"/>
</g>
<!-- Node3 -->
<g id="node4" class="node">
<title>Node3</title>
<polygon fill="#ffffff" stroke="#bfbfbf" points="115.6108,-.5 115.6108,-18.5 163.8521,-18.5 163.8521,-.5 115.6108,-.5"/>
<text text-anchor="middle" x="139.7314" y="-6.5" font-family="Helvetica,sans-Serif" font-size="10.00" fill="#000000">stdint.h</text>
</g>
<!-- Node0&#45;&gt;Node3 -->
<g id="edge3" class="edge">
<title>Node0&#45;&gt;Node3</title>
<path fill="none" stroke="#191970" d="M220.2453,-110.4153C199.3503,-103.6299 174.6153,-92.289 158.7314,-74 147.7387,-61.3427 143.1001,-42.5886 141.146,-28.5612"/>
<polygon fill="#191970" stroke="#191970" points="144.6176,-28.1075 140.0842,-18.5315 137.6565,-28.8445 144.6176,-28.1075"/>
</g>
<!-- Node4 -->
<g id="node5" class="node">
<title>Node4</title>
<g id="a_node5"><a xlink:href="time_8h.html" target="_top" xlink:title="time.h">
<polygon fill="#ffffff" stroke="#000000" points="168.1157,-55.5 168.1157,-73.5 211.3472,-73.5 211.3472,-55.5 168.1157,-55.5"/>
<text text-anchor="middle" x="189.7314" y="-61.5" font-family="Helvetica,sans-Serif" font-size="10.00" fill="#000000">time.h</text>
</a>
</g>
</g>
<!-- Node0&#45;&gt;Node4 -->
<g id="edge4" class="edge">
<title>Node0&#45;&gt;Node4</title>
<path fill="none" stroke="#191970" d="M247.3375,-110.4179C237.0122,-102.1876 221.5767,-89.8839 209.2817,-80.0836"/>
<polygon fill="#191970" stroke="#191970" points="211.3743,-77.2757 201.3729,-73.7795 207.0111,-82.7495 211.3743,-77.2757"/>
</g>
<!-- Node6 -->
<g id="node7" class="node">
<title>Node6</title>
<polygon fill="#ffffff" stroke="#bfbfbf" points="229.6133,-55.5 229.6133,-73.5 287.8496,-73.5 287.8496,-55.5 229.6133,-55.5"/>
<text text-anchor="middle" x="258.7314" y="-61.5" font-family="Helvetica,sans-Serif" font-size="10.00" fill="#000000">sys/stat.h</text>
</g>
<!-- Node0&#45;&gt;Node6 -->
<g id="edge7" class="edge">
<title>Node0&#45;&gt;Node6</title>
<path fill="none" stroke="#191970" d="M258.7314,-110.4179C258.7314,-103.2164 258.7314,-92.8962 258.7314,-83.8632"/>
<polygon fill="#191970" stroke="#191970" points="262.2315,-83.7794 258.7314,-73.7795 255.2315,-83.7795 262.2315,-83.7794"/>
</g>
<!-- Node7 -->
<g id="node8" class="node">
<title>Node7</title>
<polygon fill="#ffffff" stroke="#bfbfbf" points="305.3916,-55.5 305.3916,-73.5 348.0713,-73.5 348.0713,-55.5 305.3916,-55.5"/>
<text text-anchor="middle" x="326.7314" y="-61.5" font-family="Helvetica,sans-Serif" font-size="10.00" fill="#000000">fcntl.h</text>
</g>
<!-- Node0&#45;&gt;Node7 -->
<g id="edge8" class="edge">
<title>Node0&#45;&gt;Node7</title>
<path fill="none" stroke="#191970" d="M269.9603,-110.4179C280.1359,-102.1876 295.3477,-89.8839 307.4645,-80.0836"/>
<polygon fill="#191970" stroke="#191970" points="309.6846,-82.7895 315.2587,-73.7795 305.2825,-77.3469 309.6846,-82.7895"/>
</g>
<!-- Node8 -->
<g id="node9" class="node">
<title>Node8</title>
<polygon fill="#ffffff" stroke="#bfbfbf" points="366.2192,-55.5 366.2192,-73.5 417.2437,-73.5 417.2437,-55.5 366.2192,-55.5"/>
<text text-anchor="middle" x="391.7314" y="-61.5" font-family="Helvetica,sans-Serif" font-size="10.00" fill="#000000">unistd.h</text>
</g>
<!-- Node0&#45;&gt;Node8 -->
<g id="edge9" class="edge">
<title>Node0&#45;&gt;Node8</title>
<path fill="none" stroke="#191970" d="M280.6937,-110.4179C302.4486,-101.4215 335.9729,-87.5581 360.4954,-77.4172"/>
<polygon fill="#191970" stroke="#191970" points="361.8331,-80.6515 369.7366,-73.5956 359.158,-74.1828 361.8331,-80.6515"/>
</g>
<!-- Node9 -->
<g id="node10" class="node">
<title>Node9</title>
<polygon fill="#ffffff" stroke="#bfbfbf" points="435.0591,-55.5 435.0591,-73.5 474.4038,-73.5 474.4038,-55.5 435.0591,-55.5"/>
<text text-anchor="middle" x="454.7314" y="-61.5" font-family="Helvetica,sans-Serif" font-size="10.00" fill="#000000">zlib.h</text>
</g>
<!-- Node0&#45;&gt;Node9 -->
<g id="edge10" class="edge">
<title>Node0&#45;&gt;Node9</title>
<path fill="none" stroke="#191970" d="M294.6393,-110.4699C326.7146,-102.2499 375.1798,-89.4535 425.2079,-74.3494"/>
<polygon fill="#191970" stroke="#191970" points="426.3485,-77.6609 434.8962,-71.4009 424.3104,-70.9641 426.3485,-77.6609"/>
</g>
<!-- Node10 -->
<g id="node11" class="node">
<title>Node10</title>
<g id="a_node11"><a xlink:href="crypt_8h.html" target="_top" xlink:title="crypt.h">
<polygon fill="#ffffff" stroke="#000000" points="492.7266,-55.5 492.7266,-73.5 538.7363,-73.5 538.7363,-55.5 492.7266,-55.5"/>
<text text-anchor="middle" x="515.7314" y="-61.5" font-family="Helvetica,sans-Serif" font-size="10.00" fill="#000000">crypt.h</text>
</a>
</g>
</g>
<!-- Node0&#45;&gt;Node10 -->
<g id="edge11" class="edge">
<title>Node0&#45;&gt;Node10</title>
<path fill="none" stroke="#191970" d="M309.9569,-110.4859C353.5149,-102.5178 417.898,-90.0285 482.4404,-74.1639"/>
<polygon fill="#191970" stroke="#191970" points="483.518,-77.5027 492.3787,-71.6942 481.8297,-70.7093 483.518,-77.5027"/>
</g>
<!-- Node4&#45;&gt;Node3 -->
<g id="edge5" class="edge">
<title>Node4&#45;&gt;Node3</title>
<path fill="none" stroke="#191970" d="M181.475,-55.4179C174.2806,-47.5041 163.6626,-35.8243 154.9361,-26.2251"/>
<polygon fill="#191970" stroke="#191970" points="157.4839,-23.8245 148.1673,-18.7795 152.3043,-28.5332 157.4839,-23.8245"/>
</g>
<!-- Node5 -->
<g id="node6" class="node">
<title>Node5</title>
<g id="a_node6"><a xlink:href="types_8h.html" target="_top" xlink:title="ARX/ARUtil/types.h">
<polygon fill="#ffffff" stroke="#000000" points="181.3843,-.5 181.3843,-18.5 284.0786,-18.5 284.0786,-.5 181.3843,-.5"/>
<text text-anchor="middle" x="232.7314" y="-6.5" font-family="Helvetica,sans-Serif" font-size="10.00" fill="#000000">ARX/ARUtil/types.h</text>
</a>
</g>
</g>
<!-- Node4&#45;&gt;Node5 -->
<g id="edge6" class="edge">
<title>Node4&#45;&gt;Node5</title>
<path fill="none" stroke="#191970" d="M196.832,-55.4179C202.8954,-47.6624 211.7865,-36.29 219.2033,-26.8035"/>
<polygon fill="#191970" stroke="#191970" points="222.0747,-28.8133 225.4766,-18.7795 216.56,-24.5018 222.0747,-28.8133"/>
</g>
</g>
</svg>
        <g id="navigator" transform="translate(0 0)" fill="#404254">
                <rect fill="#f2f5e9" fill-opacity="0.5" stroke="#606060" stroke-width=".5" x="0" y="0" width="60" height="60"/>
                <use id="zoomplus" xlink:href="#zoomPlus" x="17" y="9" onmousedown="handleZoom(evt,'in')"/>
                <use id="zoomminus" xlink:href="#zoomMin" x="42" y="9" onmousedown="handleZoom(evt,'out')"/>
                <use id="reset" xlink:href="#resetDef" x="30" y="36" onmousedown="handleReset()"/>
                <g id="arrowUp" xlink:href="#dirArrow" transform="translate(30 24)" onmousedown="handlePan(0,-1)">
                  <use xlink:href="#rim" fill="#404040">
                        <set attributeName="fill" to="#808080" begin="arrowUp.mouseover" end="arrowUp.mouseout"/>
                  </use>
                  <path fill="none" stroke="white" stroke-width="1.5" d="M0,-3.0v7 M-2.5,-0.5L0,-3.0L2.5,-0.5"/>
                </g>
                <g id="arrowRight" xlink:href="#dirArrow" transform="rotate(90) translate(36 -43)" onmousedown="handlePan(1,0)">
                  <use xlink:href="#rim" fill="#404040">
                        <set attributeName="fill" to="#808080" begin="arrowRight.mouseover" end="arrowRight.mouseout"/>
                  </use>
                  <path fill="none" stroke="white" stroke-width="1.5" d="M0,-3.0v7 M-2.5,-0.5L0,-3.0L2.5,-0.5"/>
                </g>
                <g id="arrowDown" xlink:href="#dirArrow" transform="rotate(180) translate(-30 -48)" onmousedown="handlePan(0,1)">
                  <use xlink:href="#rim" fill="#404040">
                        <set attributeName="fill" to="#808080" begin="arrowDown.mouseover" end="arrowDown.mouseout"/>
                  </use>
                  <path fill="none" stroke="white" stroke-width="1.5" d="M0,-3.0v7 M-2.5,-0.5L0,-3.0L2.5,-0.5"/>
                </g>
                <g id="arrowLeft" xlink:href="#dirArrow" transform="rotate(270) translate(-36 17)" onmousedown="handlePan(-1,0)">
                  <use xlink:href="#rim" fill="#404040">
                        <set attributeName="fill" to="#808080" begin="arrowLeft.mouseover" end="arrowLeft.mouseout"/>
                  </use>
                  <path fill="none" stroke="white" stroke-width="1.5" d="M0,-3.0v7 M-2.5,-0.5L0,-3.0L2.5,-0.5"/>
                </g>
        </g>
        <svg viewBox="0 0 15 15" width="100%" height="30px" preserveAspectRatio="xMaxYMin meet">
         <g id="arrow_out" transform="scale(0.3 0.3)">
          <a xlink:href="crypt_8c__incl_org.svg" target="_base">
           <rect id="button" ry="5" rx="5" y="6" x="6" height="38" width="38"
                fill="#f2f5e9" fill-opacity="0.5" stroke="#606060" stroke-width="1.0"/>
           <path id="arrow"
             d="M 11.500037,31.436501 C 11.940474,20.09759 22.043105,11.32322 32.158766,21.979434 L 37.068811,17.246167 C 37.068811,17.246167 37.088388,32 37.088388,32 L 22.160133,31.978069 C 22.160133,31.978069 26.997745,27.140456 26.997745,27.140456 C 18.528582,18.264221 13.291696,25.230495 11.500037,31.436501 z"
             style="fill:#404040;"/>
          </a>
         </g>
        </svg>
</svg>
