<?xml version="1.0" encoding="UTF-8" standalone="no"?>
<!DOCTYPE svg PUBLIC "-//W3C//DTD SVG 1.1//EN"
 "http://www.w3.org/Graphics/SVG/1.1/DTD/svg11.dtd">
<!-- Generated by graphviz version 2.40.1 (20161225.0304)
 -->
<!-- Title: crypthead Pages: 1 -->
<svg width="270pt" height="64pt"
 viewBox="0.00 0.00 270.31 64.00" xmlns="http://www.w3.org/2000/svg" xmlns:xlink="http://www.w3.org/1999/xlink">
<g id="graph0" class="graph" transform="scale(1 1) rotate(0) translate(4 60)">
<title>crypthead</title>
<polygon fill="#ffffff" stroke="transparent" points="-4,4 -4,-60 266.3096,-60 266.3096,4 -4,4"/>
<!-- Node0 -->
<g id="node1" class="node">
<title>Node0</title>
<polygon fill="#bfbfbf" stroke="#000000" points="0,-18.5 0,-36.5 59.916,-36.5 59.916,-18.5 0,-18.5"/>
<text text-anchor="middle" x="29.958" y="-24.5" font-family="Helvetica,sans-Serif" font-size="10.00" fill="#000000">crypthead</text>
</g>
<!-- Node1 -->
<g id="node2" class="node">
<title>Node1</title>
<g id="a_node2"><a xlink:href="crypt_8c.html#af7f8340e687fdf86775997a8b047b407" target="_top" xlink:title="init_keys">
<polygon fill="#ffffff" stroke="#000000" points="97.3052,-37.5 97.3052,-55.5 152.2114,-55.5 152.2114,-37.5 97.3052,-37.5"/>
<text text-anchor="middle" x="124.7583" y="-43.5" font-family="Helvetica,sans-Serif" font-size="10.00" fill="#000000">init_keys</text>
</a>
</g>
</g>
<!-- Node0&#45;&gt;Node1 -->
<g id="edge1" class="edge">
<title>Node0&#45;&gt;Node1</title>
<path fill="none" stroke="#191970" d="M59.9534,-33.5117C68.6242,-35.2495 78.1972,-37.1682 87.2641,-38.9854"/>
<polygon fill="#191970" stroke="#191970" points="86.7179,-42.4454 97.2108,-40.9789 88.0936,-35.5819 86.7179,-42.4454"/>
</g>
<!-- Node3 -->
<g id="node4" class="node">
<title>Node3</title>
<g id="a_node4"><a xlink:href="crypt_8c.html#ac5349111b2860fe3e63daaa442e196a8" target="_top" xlink:title="cryptrand">
<polygon fill="#ffffff" stroke="#000000" points="95.916,-.5 95.916,-18.5 153.6006,-18.5 153.6006,-.5 95.916,-.5"/>
<text text-anchor="middle" x="124.7583" y="-6.5" font-family="Helvetica,sans-Serif" font-size="10.00" fill="#000000">cryptrand</text>
</a>
</g>
</g>
<!-- Node0&#45;&gt;Node3 -->
<g id="edge3" class="edge">
<title>Node0&#45;&gt;Node3</title>
<path fill="none" stroke="#191970" d="M59.9534,-21.8047C68.141,-20.2501 77.1332,-18.5427 85.7441,-16.9077"/>
<polygon fill="#191970" stroke="#191970" points="86.4347,-20.3392 95.6062,-15.0352 85.1288,-13.4621 86.4347,-20.3392"/>
</g>
<!-- Node2 -->
<g id="node3" class="node">
<title>Node2</title>
<g id="a_node3"><a xlink:href="crypt_8c.html#ab5d0ab24efa196a08ac9ffa7c50e18cc" target="_top" xlink:title="update_keys">
<polygon fill="#ffffff" stroke="#000000" points="189.6006,-37.5 189.6006,-55.5 262.3096,-55.5 262.3096,-37.5 189.6006,-37.5"/>
<text text-anchor="middle" x="225.9551" y="-43.5" font-family="Helvetica,sans-Serif" font-size="10.00" fill="#000000">update_keys</text>
</a>
</g>
</g>
<!-- Node1&#45;&gt;Node2 -->
<g id="edge2" class="edge">
<title>Node1&#45;&gt;Node2</title>
<path fill="none" stroke="#191970" d="M152.4108,-46.5C160.7445,-46.5 170.1317,-46.5 179.3418,-46.5"/>
<polygon fill="#191970" stroke="#191970" points="179.5995,-50.0001 189.5994,-46.5 179.5994,-43.0001 179.5995,-50.0001"/>
</g>
</g>
</svg>
