<?xml version="1.0" encoding="UTF-8" standalone="no"?>
<!DOCTYPE svg PUBLIC "-//W3C//DTD SVG 1.1//EN"
 "http://www.w3.org/Graphics/SVG/1.1/DTD/svg11.dtd">
<!-- Generated by graphviz version 7.0.5 (20221223.1930)
 -->
<!-- Title: Source/ARX/ARVideo Pages: 1 -->
<!--zoomable 196 -->
<svg id="main" version="1.1" xmlns="http://www.w3.org/2000/svg" xmlns:xlink="http://www.w3.org/1999/xlink" xml:space="preserve" onload="init(evt)">
<style type="text/css"><![CDATA[
.edge:hover path { stroke: red; }
.edge:hover polygon { stroke: red; fill: red; }
]]></style>
<script type="text/javascript"><![CDATA[
var edges = document.getElementsByTagName('g');
if (edges && edges.length) {
  for (var i=0;i<edges.length;i++) {
    if (edges[i].id.substr(0,4)=='edge') {
      edges[i].setAttribute('class','edge');
    }
  }
}
]]></script>
        <defs>
                <circle id="rim" cx="0" cy="0" r="7"/>
                <circle id="rim2" cx="0" cy="0" r="3.5"/>
                <g id="zoomPlus">
                        <use xlink:href="#rim" fill="#404040">
                                <set attributeName="fill" to="#808080" begin="zoomplus.mouseover" end="zoomplus.mouseout"/>
                        </use>
                        <path d="M-4,0h8M0,-4v8" fill="none" stroke="white" stroke-width="1.5" pointer-events="none"/>
                </g>
                <g id="zoomMin">
                        <use xlink:href="#rim" fill="#404040">
                                <set attributeName="fill" to="#808080" begin="zoomminus.mouseover" end="zoomminus.mouseout"/>
                        </use>
                        <path d="M-4,0h8" fill="none" stroke="white" stroke-width="1.5" pointer-events="none"/>
                </g>
                <g id="dirArrow">
                        <path fill="none" stroke="white" stroke-width="1.5" d="M0,-3.0v7 M-2.5,-0.5L0,-3.0L2.5,-0.5"/>
                </g>
               <g id="resetDef">
                       <use xlink:href="#rim2" fill="#404040">
                               <set attributeName="fill" to="#808080" begin="reset.mouseover" end="reset.mouseout"/>
                       </use>
               </g>
        </defs>

<script type="text/javascript">
var viewWidth = 1122;
var viewHeight = 196;
var sectionId = 'dynsection-0';
</script>
<script xlink:href="svgpan.js"/>
<svg id="graph" class="graph">
<g id="viewport">
<title>Source/ARX/ARVideo</title>
<g id="clust1" class="cluster">
<title>clusterdir_dc44baef7bc94ffdfef1a873a6db1f1f</title>
<g id="a_clust1"><a xlink:href="dir_dc44baef7bc94ffdfef1a873a6db1f1f.html" target="_top" xlink:title="ARX">
<polygon fill="#edf0f7" stroke="#7f7f7f" stroke-dasharray="5,2" points="8,-8 8,-180 1106,-180 1106,-8 8,-8"/>
<text text-anchor="middle" x="557" y="-168" font-family="Helvetica,sans-Serif" font-size="10.00">ARX</text>
</a>
</g>
</g>
<g id="clust2" class="cluster">
<title>clusterdir_df79bfc4b68694d3a61dbd3a00e6107b</title>
<g id="a_clust2"><a xlink:href="dir_df79bfc4b68694d3a61dbd3a00e6107b.html" target="_top">
<polygon fill="#edf0f7" stroke="#404040" stroke-width="2" points="16,-63 16,-153 1004,-153 1004,-63 16,-63"/>
</a>
</g>
</g>
<!-- dir_602dff985649e28cdaf3ea8207bc53f5 -->
<g id="node1" class="node">
<title>dir_602dff985649e28cdaf3ea8207bc53f5</title>
<g id="a_node1"><a xlink:href="dir_602dff985649e28cdaf3ea8207bc53f5.html" target="_top" xlink:title="ARUtil">
<polygon fill="#a2b4d6" stroke="red" points="1058,-90 1012,-90 1012,-71 1058,-71 1058,-90"/>
<text text-anchor="middle" x="1035" y="-78" font-family="Helvetica,sans-Serif" font-size="10.00">ARUtil</text>
</a>
</g>
</g>
<!-- dir_9d6768fa183d205dc506d630bc6d6ed5 -->
<g id="node2" class="node">
<title>dir_9d6768fa183d205dc506d630bc6d6ed5</title>
<g id="a_node2"><a xlink:href="dir_9d6768fa183d205dc506d630bc6d6ed5.html" target="_top" xlink:title="AR">
<polygon fill="#a2b4d6" stroke="red" points="1092.5,-35 1061.5,-35 1061.5,-16 1092.5,-16 1092.5,-35"/>
<text text-anchor="middle" x="1077" y="-23" font-family="Helvetica,sans-Serif" font-size="10.00">AR</text>
</a>
</g>
</g>
<!-- dir_df79bfc4b68694d3a61dbd3a00e6107b -->
<g id="node3" class="node">
<title>dir_df79bfc4b68694d3a61dbd3a00e6107b</title>
<text text-anchor="middle" x="682" y="-133" font-family="Helvetica,sans-Serif" font-size="10.00">ARVideo</text>
</g>
<!-- dir_df79bfc4b68694d3a61dbd3a00e6107b&#45;&gt;dir_602dff985649e28cdaf3ea8207bc53f5 -->
<g id="edge2" class="edge">
<title>dir_df79bfc4b68694d3a61dbd3a00e6107b&#45;&gt;dir_602dff985649e28cdaf3ea8207bc53f5</title>
<path fill="none" stroke="#63b8ff" d="M709.82,-127.79C712.91,-127.14 716.01,-126.53 719,-126 842.73,-104.14 879.39,-116.75 1000.32,-91.56"/>
<polygon fill="#63b8ff" stroke="#63b8ff" points="1000.98,-95 1010.03,-89.49 999.52,-88.15 1000.98,-95"/>
<g id="a_edge2&#45;headlabel"><a xlink:href="dir_000010_000008.html" target="_top" xlink:title="2">
<text text-anchor="middle" x="999.53" y="-95.71" font-family="Helvetica,sans-Serif" font-size="10.00" fill="#63b8ff">2</text>
</a>
</g>
</g>
<!-- dir_57de4852568d3cfc872fe1c4586bb183 -->
<g id="node10" class="node">
<title>dir_57de4852568d3cfc872fe1c4586bb183</title>
<g id="a_node10"><a xlink:href="dir_57de4852568d3cfc872fe1c4586bb183.html" target="_top" xlink:title="include">
<polygon fill="#a2b4d6" stroke="#404040" points="519.5,-90 472.5,-90 472.5,-71 519.5,-71 519.5,-90"/>
<text text-anchor="middle" x="496" y="-78" font-family="Helvetica,sans-Serif" font-size="10.00">include</text>
</a>
</g>
</g>
<!-- dir_df79bfc4b68694d3a61dbd3a00e6107b&#45;&gt;dir_57de4852568d3cfc872fe1c4586bb183 -->
<g id="edge1" class="edge">
<title>dir_df79bfc4b68694d3a61dbd3a00e6107b&#45;&gt;dir_57de4852568d3cfc872fe1c4586bb183</title>
<path fill="none" stroke="#63b8ff" d="M654.27,-126.87C624.96,-118.77 577.11,-105.43 530.64,-91.92"/>
<polygon fill="#63b8ff" stroke="#63b8ff" points="531.85,-88.63 521.27,-89.19 529.89,-95.35 531.85,-88.63"/>
<g id="a_edge1&#45;headlabel"><a xlink:href="dir_000010_000031.html" target="_top" xlink:title="23">
<text text-anchor="middle" x="534.65" y="-83.99" font-family="Helvetica,sans-Serif" font-size="10.00" fill="#63b8ff">23</text>
</a>
</g>
</g>
<!-- dir_e9b538b8d012410f1ebfb19bb9367abb -->
<g id="node4" class="node">
<title>dir_e9b538b8d012410f1ebfb19bb9367abb</title>
<g id="a_node4"><a xlink:href="dir_e9b538b8d012410f1ebfb19bb9367abb.html" target="_top" xlink:title="Android">
<polygon fill="#a2b4d6" stroke="#404040" points="636,-145 586,-145 586,-126 636,-126 636,-145"/>
<text text-anchor="middle" x="611" y="-133" font-family="Helvetica,sans-Serif" font-size="10.00">Android</text>
</a>
</g>
</g>
<!-- dir_e9b538b8d012410f1ebfb19bb9367abb&#45;&gt;dir_602dff985649e28cdaf3ea8207bc53f5 -->
<g id="edge4" class="edge">
<title>dir_e9b538b8d012410f1ebfb19bb9367abb&#45;&gt;dir_602dff985649e28cdaf3ea8207bc53f5</title>
<path fill="none" stroke="#63b8ff" d="M636.16,-127.77C639.13,-127.11 642.12,-126.5 645,-126 800.99,-98.92 847.02,-121.41 1000.29,-91.46"/>
<polygon fill="#63b8ff" stroke="#63b8ff" points="1000.91,-94.9 1010.03,-89.5 999.54,-88.04 1000.91,-94.9"/>
<g id="a_edge4&#45;headlabel"><a xlink:href="dir_000000_000008.html" target="_top" xlink:title="1">
<text text-anchor="middle" x="999.43" y="-95.59" font-family="Helvetica,sans-Serif" font-size="10.00" fill="#63b8ff">1</text>
</a>
</g>
</g>
<!-- dir_e9b538b8d012410f1ebfb19bb9367abb&#45;&gt;dir_57de4852568d3cfc872fe1c4586bb183 -->
<g id="edge3" class="edge">
<title>dir_e9b538b8d012410f1ebfb19bb9367abb&#45;&gt;dir_57de4852568d3cfc872fe1c4586bb183</title>
<path fill="none" stroke="#63b8ff" d="M591.49,-125.51C573.37,-117.16 546.15,-104.61 525.4,-95.05"/>
<polygon fill="#63b8ff" stroke="#63b8ff" points="527.14,-92 516.59,-90.99 524.21,-98.36 527.14,-92"/>
<g id="a_edge3&#45;headlabel"><a xlink:href="dir_000000_000031.html" target="_top" xlink:title="2">
<text text-anchor="middle" x="530.22" y="-87.79" font-family="Helvetica,sans-Serif" font-size="10.00" fill="#63b8ff">2</text>
</a>
</g>
</g>
<!-- dir_c2be599af1ac03415d5f20cfbd40ae17 -->
<g id="node5" class="node">
<title>dir_c2be599af1ac03415d5f20cfbd40ae17</title>
<g id="a_node5"><a xlink:href="dir_c2be599af1ac03415d5f20cfbd40ae17.html" target="_top" xlink:title="AVFoundation">
<polygon fill="#a2b4d6" stroke="#404040" points="398.5,-145 321.5,-145 321.5,-126 398.5,-126 398.5,-145"/>
<text text-anchor="middle" x="360" y="-133" font-family="Helvetica,sans-Serif" font-size="10.00">AVFoundation</text>
</a>
</g>
</g>
<!-- dir_c2be599af1ac03415d5f20cfbd40ae17&#45;&gt;dir_57de4852568d3cfc872fe1c4586bb183 -->
<g id="edge5" class="edge">
<title>dir_c2be599af1ac03415d5f20cfbd40ae17&#45;&gt;dir_57de4852568d3cfc872fe1c4586bb183</title>
<path fill="none" stroke="#63b8ff" d="M383.07,-125.51C404.89,-117.01 437.88,-104.15 462.58,-94.53"/>
<polygon fill="#63b8ff" stroke="#63b8ff" points="463.81,-97.8 471.86,-90.91 461.27,-91.28 463.81,-97.8"/>
<g id="a_edge5&#45;headlabel"><a xlink:href="dir_000021_000031.html" target="_top" xlink:title="4">
<text text-anchor="middle" x="462.91" y="-98.7" font-family="Helvetica,sans-Serif" font-size="10.00" fill="#63b8ff">4</text>
</a>
</g>
</g>
<!-- dir_e3c7354f1f0d84bbd3104cd79d680eb7 -->
<g id="node6" class="node">
<title>dir_e3c7354f1f0d84bbd3104cd79d680eb7</title>
<g id="a_node6"><a xlink:href="dir_e3c7354f1f0d84bbd3104cd79d680eb7.html" target="_top" xlink:title="Dummy">
<polygon fill="#a2b4d6" stroke="#404040" points="303.5,-145 252.5,-145 252.5,-126 303.5,-126 303.5,-145"/>
<text text-anchor="middle" x="278" y="-133" font-family="Helvetica,sans-Serif" font-size="10.00">Dummy</text>
</a>
</g>
</g>
<!-- dir_e3c7354f1f0d84bbd3104cd79d680eb7&#45;&gt;dir_57de4852568d3cfc872fe1c4586bb183 -->
<g id="edge6" class="edge">
<title>dir_e3c7354f1f0d84bbd3104cd79d680eb7&#45;&gt;dir_57de4852568d3cfc872fe1c4586bb183</title>
<path fill="none" stroke="#63b8ff" d="M303.86,-128.21C343,-118.7 417.34,-100.62 461.19,-89.96"/>
<polygon fill="#63b8ff" stroke="#63b8ff" points="461.81,-93.42 470.7,-87.65 460.15,-86.61 461.81,-93.42"/>
<g id="a_edge6&#45;headlabel"><a xlink:href="dir_000023_000031.html" target="_top" xlink:title="1">
<text text-anchor="middle" x="460.46" y="-94.17" font-family="Helvetica,sans-Serif" font-size="10.00" fill="#63b8ff">1</text>
</a>
</g>
</g>
<!-- dir_6dd3f689ddbfef07def8b963a76d71fc -->
<g id="node7" class="node">
<title>dir_6dd3f689ddbfef07def8b963a76d71fc</title>
<g id="a_node7"><a xlink:href="dir_6dd3f689ddbfef07def8b963a76d71fc.html" target="_top" xlink:title="Emscripten">
<polygon fill="#a2b4d6" stroke="#404040" points="234,-145 168,-145 168,-126 234,-126 234,-145"/>
<text text-anchor="middle" x="201" y="-133" font-family="Helvetica,sans-Serif" font-size="10.00">Emscripten</text>
</a>
</g>
</g>
<!-- dir_6dd3f689ddbfef07def8b963a76d71fc&#45;&gt;dir_57de4852568d3cfc872fe1c4586bb183 -->
<g id="edge7" class="edge">
<title>dir_6dd3f689ddbfef07def8b963a76d71fc&#45;&gt;dir_57de4852568d3cfc872fe1c4586bb183</title>
<path fill="none" stroke="#63b8ff" d="M234.32,-127.84C237.59,-127.21 240.86,-126.59 244,-126 321.46,-111.51 412.56,-95.73 461.21,-87.41"/>
<polygon fill="#63b8ff" stroke="#63b8ff" points="461.59,-90.9 470.85,-85.77 460.41,-84 461.59,-90.9"/>
<g id="a_edge7&#45;headlabel"><a xlink:href="dir_000024_000031.html" target="_top" xlink:title="1">
<text text-anchor="middle" x="460.01" y="-91.55" font-family="Helvetica,sans-Serif" font-size="10.00" fill="#63b8ff">1</text>
</a>
</g>
</g>
<!-- dir_a957f3b6e799ddc28232df8aaf2e44b2 -->
<g id="node8" class="node">
<title>dir_a957f3b6e799ddc28232df8aaf2e44b2</title>
<g id="a_node8"><a xlink:href="dir_a957f3b6e799ddc28232df8aaf2e44b2.html" target="_top" xlink:title="GStreamer">
<polygon fill="#a2b4d6" stroke="#404040" points="150,-145 86,-145 86,-126 150,-126 150,-145"/>
<text text-anchor="middle" x="118" y="-133" font-family="Helvetica,sans-Serif" font-size="10.00">GStreamer</text>
</a>
</g>
</g>
<!-- dir_a957f3b6e799ddc28232df8aaf2e44b2&#45;&gt;dir_57de4852568d3cfc872fe1c4586bb183 -->
<g id="edge8" class="edge">
<title>dir_a957f3b6e799ddc28232df8aaf2e44b2&#45;&gt;dir_57de4852568d3cfc872fe1c4586bb183</title>
<path fill="none" stroke="#63b8ff" d="M150.19,-127.6C153.16,-127.03 156.13,-126.49 159,-126 268.64,-107.42 399.47,-92.08 460.88,-85.28"/>
<polygon fill="#63b8ff" stroke="#63b8ff" points="461.15,-88.77 470.71,-84.2 460.39,-81.81 461.15,-88.77"/>
<g id="a_edge8&#45;headlabel"><a xlink:href="dir_000025_000031.html" target="_top" xlink:title="1">
<text text-anchor="middle" x="459.39" y="-89.32" font-family="Helvetica,sans-Serif" font-size="10.00" fill="#63b8ff">1</text>
</a>
</g>
</g>
<!-- dir_2d566242dc85b0c419978e9a06736fc9 -->
<g id="node9" class="node">
<title>dir_2d566242dc85b0c419978e9a06736fc9</title>
<g id="a_node9"><a xlink:href="dir_2d566242dc85b0c419978e9a06736fc9.html" target="_top" xlink:title="Image">
<polygon fill="#a2b4d6" stroke="#404040" points="68,-145 24,-145 24,-126 68,-126 68,-145"/>
<text text-anchor="middle" x="46" y="-133" font-family="Helvetica,sans-Serif" font-size="10.00">Image</text>
</a>
</g>
</g>
<!-- dir_2d566242dc85b0c419978e9a06736fc9&#45;&gt;dir_57de4852568d3cfc872fe1c4586bb183 -->
<g id="edge9" class="edge">
<title>dir_2d566242dc85b0c419978e9a06736fc9&#45;&gt;dir_57de4852568d3cfc872fe1c4586bb183</title>
<path fill="none" stroke="#63b8ff" d="M68.25,-127.94C71.18,-127.21 74.15,-126.54 77,-126 217.95,-99.37 388.8,-87.43 461.05,-83.3"/>
<polygon fill="#63b8ff" stroke="#63b8ff" points="460.88,-86.81 470.67,-82.76 460.49,-79.82 460.88,-86.81"/>
<g id="a_edge9&#45;headlabel"><a xlink:href="dir_000026_000031.html" target="_top" xlink:title="1">
<text text-anchor="middle" x="458.96" y="-87.26" font-family="Helvetica,sans-Serif" font-size="10.00" fill="#63b8ff">1</text>
</a>
</g>
</g>
<!-- dir_57de4852568d3cfc872fe1c4586bb183&#45;&gt;dir_9d6768fa183d205dc506d630bc6d6ed5 -->
<g id="edge10" class="edge">
<title>dir_57de4852568d3cfc872fe1c4586bb183&#45;&gt;dir_9d6768fa183d205dc506d630bc6d6ed5</title>
<path fill="none" stroke="#63b8ff" d="M508.24,-70.61C512.94,-67.66 518.5,-64.7 524,-63 623.86,-32.2 952.43,-27.39 1049.66,-26.64"/>
<polygon fill="#63b8ff" stroke="#63b8ff" points="1049.58,-30.14 1059.56,-26.57 1049.54,-23.14 1049.58,-30.14"/>
<g id="a_edge10&#45;headlabel"><a xlink:href="dir_000031_000001.html" target="_top" xlink:title="1">
<text text-anchor="middle" x="1047.52" y="-30.49" font-family="Helvetica,sans-Serif" font-size="10.00" fill="#63b8ff">1</text>
</a>
</g>
</g>
<!-- dir_77ef54747136831f99816c9c6920e567 -->
<g id="node11" class="node">
<title>dir_77ef54747136831f99816c9c6920e567</title>
<g id="a_node11"><a xlink:href="dir_77ef54747136831f99816c9c6920e567.html" target="_top" xlink:title="libdc1394">
<polygon fill="#a2b4d6" stroke="#404040" points="568,-145 510,-145 510,-126 568,-126 568,-145"/>
<text text-anchor="middle" x="539" y="-133" font-family="Helvetica,sans-Serif" font-size="10.00">libdc1394</text>
</a>
</g>
</g>
<!-- dir_77ef54747136831f99816c9c6920e567&#45;&gt;dir_57de4852568d3cfc872fe1c4586bb183 -->
<g id="edge11" class="edge">
<title>dir_77ef54747136831f99816c9c6920e567&#45;&gt;dir_57de4852568d3cfc872fe1c4586bb183</title>
<path fill="none" stroke="#63b8ff" d="M531.9,-125.75C526.08,-118.58 517.67,-108.2 510.44,-99.3"/>
<polygon fill="#63b8ff" stroke="#63b8ff" points="513.23,-97.18 504.21,-91.62 507.79,-101.59 513.23,-97.18"/>
<g id="a_edge11&#45;headlabel"><a xlink:href="dir_000037_000031.html" target="_top" xlink:title="2">
<text text-anchor="middle" x="516.74" y="-94.51" font-family="Helvetica,sans-Serif" font-size="10.00" fill="#63b8ff">2</text>
</a>
</g>
</g>
<!-- dir_d2743fe0bcf0b8e1dbf99f26c376d8b5 -->
<g id="node12" class="node">
<title>dir_d2743fe0bcf0b8e1dbf99f26c376d8b5</title>
<g id="a_node12"><a xlink:href="dir_d2743fe0bcf0b8e1dbf99f26c376d8b5.html" target="_top" xlink:title="Video4Linux2">
<polygon fill="#a2b4d6" stroke="#404040" points="491.5,-145 416.5,-145 416.5,-126 491.5,-126 491.5,-145"/>
<text text-anchor="middle" x="454" y="-133" font-family="Helvetica,sans-Serif" font-size="10.00">Video4Linux2</text>
</a>
</g>
</g>
<!-- dir_d2743fe0bcf0b8e1dbf99f26c376d8b5&#45;&gt;dir_57de4852568d3cfc872fe1c4586bb183 -->
<g id="edge12" class="edge">
<title>dir_d2743fe0bcf0b8e1dbf99f26c376d8b5&#45;&gt;dir_57de4852568d3cfc872fe1c4586bb183</title>
<path fill="none" stroke="#63b8ff" d="M460.94,-125.75C466.62,-118.58 474.84,-108.2 481.89,-99.3"/>
<polygon fill="#63b8ff" stroke="#63b8ff" points="484.51,-101.64 487.97,-91.63 479.02,-97.29 484.51,-101.64"/>
<g id="a_edge12&#45;headlabel"><a xlink:href="dir_000041_000031.html" target="_top" xlink:title="1">
<text text-anchor="middle" x="485.44" y="-102.53" font-family="Helvetica,sans-Serif" font-size="10.00" fill="#63b8ff">1</text>
</a>
</g>
</g>
<!-- dir_50a2f93c4ca68aa17422772f15da3b3b -->
<g id="node13" class="node">
<title>dir_50a2f93c4ca68aa17422772f15da3b3b</title>
<g id="a_node13"><a xlink:href="dir_50a2f93c4ca68aa17422772f15da3b3b.html" target="_top" xlink:title="WindowsMediaCapture">
<polygon fill="#a2b4d6" stroke="#404040" points="846,-145 728,-145 728,-126 846,-126 846,-145"/>
<text text-anchor="middle" x="787" y="-133" font-family="Helvetica,sans-Serif" font-size="10.00">WindowsMediaCapture</text>
</a>
</g>
</g>
<!-- dir_50a2f93c4ca68aa17422772f15da3b3b&#45;&gt;dir_9d6768fa183d205dc506d630bc6d6ed5 -->
<g id="edge14" class="edge">
<title>dir_50a2f93c4ca68aa17422772f15da3b3b&#45;&gt;dir_9d6768fa183d205dc506d630bc6d6ed5</title>
<path fill="none" stroke="#63b8ff" d="M846.31,-126.87C926.17,-116.34 1059.24,-97.77 1067,-90 1078.11,-78.88 1080.02,-60.76 1079.49,-46.73"/>
<polygon fill="#63b8ff" stroke="#63b8ff" points="1082.98,-46.47 1078.64,-36.8 1076.01,-47.07 1082.98,-46.47"/>
<g id="a_edge14&#45;headlabel"><a xlink:href="dir_000042_000001.html" target="_top" xlink:title="3">
<text text-anchor="middle" x="1085.99" y="-45.8" font-family="Helvetica,sans-Serif" font-size="10.00" fill="#63b8ff">3</text>
</a>
</g>
</g>
<!-- dir_50a2f93c4ca68aa17422772f15da3b3b&#45;&gt;dir_57de4852568d3cfc872fe1c4586bb183 -->
<g id="edge13" class="edge">
<title>dir_50a2f93c4ca68aa17422772f15da3b3b&#45;&gt;dir_57de4852568d3cfc872fe1c4586bb183</title>
<path fill="none" stroke="#63b8ff" d="M727.55,-126.64C676.58,-119.41 601.02,-107.52 530.58,-91.45"/>
<polygon fill="#63b8ff" stroke="#63b8ff" points="531.78,-88.14 521.25,-89.28 530.2,-94.95 531.78,-88.14"/>
<g id="a_edge13&#45;headlabel"><a xlink:href="dir_000042_000031.html" target="_top" xlink:title="1">
<text text-anchor="middle" x="534.45" y="-83.34" font-family="Helvetica,sans-Serif" font-size="10.00" fill="#63b8ff">1</text>
</a>
</g>
</g>
<!-- dir_1d625217ed07c09f89fd1f50fea8d800 -->
<g id="node14" class="node">
<title>dir_1d625217ed07c09f89fd1f50fea8d800</title>
<g id="a_node14"><a xlink:href="dir_1d625217ed07c09f89fd1f50fea8d800.html" target="_top" xlink:title="WindowsMediaFoundation">
<polygon fill="#a2b4d6" stroke="#404040" points="995.5,-145 864.5,-145 864.5,-126 995.5,-126 995.5,-145"/>
<text text-anchor="middle" x="930" y="-133" font-family="Helvetica,sans-Serif" font-size="10.00">WindowsMediaFoundation</text>
</a>
</g>
</g>
<!-- dir_1d625217ed07c09f89fd1f50fea8d800&#45;&gt;dir_9d6768fa183d205dc506d630bc6d6ed5 -->
<g id="edge16" class="edge">
<title>dir_1d625217ed07c09f89fd1f50fea8d800&#45;&gt;dir_9d6768fa183d205dc506d630bc6d6ed5</title>
<path fill="none" stroke="#63b8ff" d="M984.61,-125.58C1023.2,-118.03 1070.09,-105.9 1082,-90 1091.33,-77.54 1088.89,-59.59 1084.8,-45.94"/>
<polygon fill="#63b8ff" stroke="#63b8ff" points="1088.18,-45 1081.54,-36.74 1081.58,-47.33 1088.18,-45"/>
<g id="a_edge16&#45;headlabel"><a xlink:href="dir_000043_000001.html" target="_top" xlink:title="1">
<text text-anchor="middle" x="1091.55" y="-43.51" font-family="Helvetica,sans-Serif" font-size="10.00" fill="#63b8ff">1</text>
</a>
</g>
</g>
<!-- dir_1d625217ed07c09f89fd1f50fea8d800&#45;&gt;dir_57de4852568d3cfc872fe1c4586bb183 -->
<g id="edge15" class="edge">
<title>dir_1d625217ed07c09f89fd1f50fea8d800&#45;&gt;dir_57de4852568d3cfc872fe1c4586bb183</title>
<path fill="none" stroke="#63b8ff" d="M864.15,-127.02C861.06,-126.67 858,-126.33 855,-126 711.66,-110.08 671.03,-119.13 530.91,-91.29"/>
<polygon fill="#63b8ff" stroke="#63b8ff" points="531.73,-87.89 521.24,-89.34 530.35,-94.75 531.73,-87.89"/>
<g id="a_edge15&#45;headlabel"><a xlink:href="dir_000043_000031.html" target="_top" xlink:title="1">
<text text-anchor="middle" x="534.33" y="-83.02" font-family="Helvetica,sans-Serif" font-size="10.00" fill="#63b8ff">1</text>
</a>
</g>
</g>
</g>
</svg>
        <g id="navigator" transform="translate(0 0)" fill="#404254">
                <rect fill="#f2f5e9" fill-opacity="0.5" stroke="#606060" stroke-width=".5" x="0" y="0" width="60" height="60"/>
                <use id="zoomplus" xlink:href="#zoomPlus" x="17" y="9" onmousedown="handleZoom(evt,'in')"/>
                <use id="zoomminus" xlink:href="#zoomMin" x="42" y="9" onmousedown="handleZoom(evt,'out')"/>
                <use id="reset" xlink:href="#resetDef" x="30" y="36" onmousedown="handleReset()"/>
                <g id="arrowUp" xlink:href="#dirArrow" transform="translate(30 24)" onmousedown="handlePan(0,-1)">
                  <use xlink:href="#rim" fill="#404040">
                        <set attributeName="fill" to="#808080" begin="arrowUp.mouseover" end="arrowUp.mouseout"/>
                  </use>
                  <path fill="none" stroke="white" stroke-width="1.5" d="M0,-3.0v7 M-2.5,-0.5L0,-3.0L2.5,-0.5"/>
                </g>
                <g id="arrowRight" xlink:href="#dirArrow" transform="rotate(90) translate(36 -43)" onmousedown="handlePan(1,0)">
                  <use xlink:href="#rim" fill="#404040">
                        <set attributeName="fill" to="#808080" begin="arrowRight.mouseover" end="arrowRight.mouseout"/>
                  </use>
                  <path fill="none" stroke="white" stroke-width="1.5" d="M0,-3.0v7 M-2.5,-0.5L0,-3.0L2.5,-0.5"/>
                </g>
                <g id="arrowDown" xlink:href="#dirArrow" transform="rotate(180) translate(-30 -48)" onmousedown="handlePan(0,1)">
                  <use xlink:href="#rim" fill="#404040">
                        <set attributeName="fill" to="#808080" begin="arrowDown.mouseover" end="arrowDown.mouseout"/>
                  </use>
                  <path fill="none" stroke="white" stroke-width="1.5" d="M0,-3.0v7 M-2.5,-0.5L0,-3.0L2.5,-0.5"/>
                </g>
                <g id="arrowLeft" xlink:href="#dirArrow" transform="rotate(270) translate(-36 17)" onmousedown="handlePan(-1,0)">
                  <use xlink:href="#rim" fill="#404040">
                        <set attributeName="fill" to="#808080" begin="arrowLeft.mouseover" end="arrowLeft.mouseout"/>
                  </use>
                  <path fill="none" stroke="white" stroke-width="1.5" d="M0,-3.0v7 M-2.5,-0.5L0,-3.0L2.5,-0.5"/>
                </g>
        </g>
        <svg viewBox="0 0 15 15" width="100%" height="30px" preserveAspectRatio="xMaxYMin meet">
         <g id="arrow_out" transform="scale(0.3 0.3)">
          <a xlink:href="dir_df79bfc4b68694d3a61dbd3a00e6107b_dep_org.svg" target="_base">
           <rect id="button" ry="5" rx="5" y="6" x="6" height="38" width="38"
                fill="#f2f5e9" fill-opacity="0.5" stroke="#606060" stroke-width="1.0"/>
           <path id="arrow"
             d="M 11.500037,31.436501 C 11.940474,20.09759 22.043105,11.32322 32.158766,21.979434 L 37.068811,17.246167 C 37.068811,17.246167 37.088388,32 37.088388,32 L 22.160133,31.978069 C 22.160133,31.978069 26.997745,27.140456 26.997745,27.140456 C 18.528582,18.264221 13.291696,25.230495 11.500037,31.436501 z"
             style="fill:#404040;"/>
          </a>
         </g>
        </svg>
</svg>
