<?xml version="1.0" encoding="UTF-8" standalone="no"?>
<!DOCTYPE svg PUBLIC "-//W3C//DTD SVG 1.1//EN"
 "http://www.w3.org/Graphics/SVG/1.1/DTD/svg11.dtd">
<!-- Generated by graphviz version 2.40.1 (20161225.0304)
 -->
<!-- Title: Source/ARX/ARVideo/WindowsMediaCapture Pages: 1 -->
<svg width="230pt" height="230pt"
 viewBox="0.00 0.00 230.00 230.00" xmlns="http://www.w3.org/2000/svg" xmlns:xlink="http://www.w3.org/1999/xlink">
<g id="graph0" class="graph" transform="scale(1 1) rotate(0) translate(4 226)">
<title>Source/ARX/ARVideo/WindowsMediaCapture</title>
<polygon fill="#ffffff" stroke="transparent" points="-4,4 -4,-226 226,-226 226,4 -4,4"/>
<g id="clust1" class="cluster">
<title>clusterdir_df79bfc4b68694d3a61dbd3a00e6107b</title>
<g id="a_clust1"><a xlink:href="dir_df79bfc4b68694d3a61dbd3a00e6107b.html" target="_top" xlink:title="ARVideo">
<polygon fill="#ddddee" stroke="#000000" points="8,-56 8,-214 160,-214 160,-56 8,-56"/>
<text text-anchor="middle" x="84" y="-202" font-family="Helvetica,sans-Serif" font-size="10.00" fill="#000000">ARVideo</text>
</a>
</g>
</g>
<g id="clust2" class="cluster">
<title>clusterdir_50a2f93c4ca68aa17422772f15da3b3b</title>
<g id="a_clust2"><a xlink:href="dir_50a2f93c4ca68aa17422772f15da3b3b.html" target="_top">
<polygon fill="#eeeeff" stroke="#000000" points="16,-64 16,-188 152,-188 152,-64 16,-64"/>
</a>
</g>
</g>
<!-- dir_50a2f93c4ca68aa17422772f15da3b3b -->
<g id="node1" class="node">
<title>dir_50a2f93c4ca68aa17422772f15da3b3b</title>
<text text-anchor="middle" x="84" y="-159" font-family="Helvetica,sans-Serif" font-size="10.00" fill="#000000">WindowsMediaCapture</text>
</g>
<!-- dir_624dedb41d00a80ce01cc287f788ae76 -->
<g id="node2" class="node">
<title>dir_624dedb41d00a80ce01cc287f788ae76</title>
<g id="a_node2"><a xlink:href="dir_624dedb41d00a80ce01cc287f788ae76.html" target="_top" xlink:title="CaptureFrameGrabber">
<polygon fill="#ffffff" stroke="#000000" points="142.6524,-108 25.3476,-108 25.3476,-72 142.6524,-72 142.6524,-108"/>
<text text-anchor="middle" x="84" y="-87" font-family="Helvetica,sans-Serif" font-size="10.00" fill="#000000">CaptureFrameGrabber</text>
</a>
</g>
</g>
<!-- dir_50a2f93c4ca68aa17422772f15da3b3b&#45;&gt;dir_624dedb41d00a80ce01cc287f788ae76 -->
<g id="edge2" class="edge">
<title>dir_50a2f93c4ca68aa17422772f15da3b3b&#45;&gt;dir_624dedb41d00a80ce01cc287f788ae76</title>
<path fill="none" stroke="#000000" d="M84,-143.8314C84,-136.131 84,-126.9743 84,-118.4166"/>
<polygon fill="#000000" stroke="#000000" points="87.5001,-118.4132 84,-108.4133 80.5001,-118.4133 87.5001,-118.4132"/>
<g id="a_edge2&#45;headlabel"><a xlink:href="dir_000030_000031.html" target="_top" xlink:title="1">
<text text-anchor="middle" x="90.3393" y="-119.0079" font-family="Helvetica,sans-Serif" font-size="10.00" fill="#000000">1</text>
</a>
</g>
</g>
<!-- dir_57de4852568d3cfc872fe1c4586bb183 -->
<g id="node3" class="node">
<title>dir_57de4852568d3cfc872fe1c4586bb183</title>
<g id="a_node3"><a xlink:href="dir_57de4852568d3cfc872fe1c4586bb183.html" target="_top" xlink:title="include">
<polygon fill="#ffffff" stroke="#ff0000" points="222,-108 168,-108 168,-72 222,-72 222,-108"/>
<text text-anchor="middle" x="195" y="-87" font-family="Helvetica,sans-Serif" font-size="10.00" fill="#000000">include</text>
</a>
</g>
</g>
<!-- dir_50a2f93c4ca68aa17422772f15da3b3b&#45;&gt;dir_57de4852568d3cfc872fe1c4586bb183 -->
<g id="edge3" class="edge">
<title>dir_50a2f93c4ca68aa17422772f15da3b3b&#45;&gt;dir_57de4852568d3cfc872fe1c4586bb183</title>
<path fill="none" stroke="#000000" d="M112.01,-143.8314C126.2909,-134.5681 143.8205,-123.1975 159.0834,-113.2972"/>
<polygon fill="#000000" stroke="#000000" points="161.2815,-116.0434 167.7664,-107.665 157.4721,-110.1706 161.2815,-116.0434"/>
<g id="a_edge3&#45;headlabel"><a xlink:href="dir_000030_000025.html" target="_top" xlink:title="1">
<text text-anchor="middle" x="159.8108" y="-117.3815" font-family="Helvetica,sans-Serif" font-size="10.00" fill="#000000">1</text>
</a>
</g>
</g>
<!-- dir_9d6768fa183d205dc506d630bc6d6ed5 -->
<g id="node4" class="node">
<title>dir_9d6768fa183d205dc506d630bc6d6ed5</title>
<g id="a_node4"><a xlink:href="dir_9d6768fa183d205dc506d630bc6d6ed5.html" target="_top" xlink:title="AR">
<polygon fill="#ffffff" stroke="#ff0000" points="166,-36 112,-36 112,0 166,0 166,-36"/>
<text text-anchor="middle" x="139" y="-15" font-family="Helvetica,sans-Serif" font-size="10.00" fill="#000000">AR</text>
</a>
</g>
</g>
<!-- dir_624dedb41d00a80ce01cc287f788ae76&#45;&gt;dir_9d6768fa183d205dc506d630bc6d6ed5 -->
<g id="edge1" class="edge">
<title>dir_624dedb41d00a80ce01cc287f788ae76&#45;&gt;dir_9d6768fa183d205dc506d630bc6d6ed5</title>
<path fill="none" stroke="#000000" d="M97.8788,-71.8314C104.2136,-63.5386 111.8384,-53.557 118.7926,-44.4533"/>
<polygon fill="#000000" stroke="#000000" points="121.6452,-46.4847 124.9343,-36.4133 116.0825,-42.2353 121.6452,-46.4847"/>
<g id="a_edge1&#45;headlabel"><a xlink:href="dir_000031_000002.html" target="_top" xlink:title="1">
<text text-anchor="middle" x="121.7195" y="-48.0647" font-family="Helvetica,sans-Serif" font-size="10.00" fill="#000000">1</text>
</a>
</g>
</g>
<!-- dir_57de4852568d3cfc872fe1c4586bb183&#45;&gt;dir_9d6768fa183d205dc506d630bc6d6ed5 -->
<g id="edge4" class="edge">
<title>dir_57de4852568d3cfc872fe1c4586bb183&#45;&gt;dir_9d6768fa183d205dc506d630bc6d6ed5</title>
<path fill="none" stroke="#000000" d="M180.8688,-71.8314C174.4189,-63.5386 166.6555,-53.557 159.5748,-44.4533"/>
<polygon fill="#000000" stroke="#000000" points="162.2236,-42.158 153.3214,-36.4133 156.6981,-46.4556 162.2236,-42.158"/>
<g id="a_edge4&#45;headlabel"><a xlink:href="dir_000025_000002.html" target="_top" xlink:title="1">
<text text-anchor="middle" x="166.6716" y="-40.2523" font-family="Helvetica,sans-Serif" font-size="10.00" fill="#000000">1</text>
</a>
</g>
</g>
</g>
</svg>
