<?xml version="1.0" encoding="UTF-8" standalone="no"?>
<!DOCTYPE svg PUBLIC "-//W3C//DTD SVG 1.1//EN"
 "http://www.w3.org/Graphics/SVG/1.1/DTD/svg11.dtd">
<!-- Generated by graphviz version 8.0.5 (20230430.1635)
 -->
<!-- Title: Source/ARX/KPM Pages: 1 -->
<svg width="114pt" height="197pt"
 viewBox="0.00 0.00 114.00 197.00" xmlns="http://www.w3.org/2000/svg" xmlns:xlink="http://www.w3.org/1999/xlink">
<g id="graph0" class="graph" transform="scale(1 1) rotate(0) translate(4 193)">
<title>Source/ARX/KPM</title>
<g id="clust1" class="cluster">
<title>clusterdir_dc44baef7bc94ffdfef1a873a6db1f1f</title>
<g id="a_clust1"><a xlink:href="dir_dc44baef7bc94ffdfef1a873a6db1f1f.html" target="_top" xlink:title="ARX">
<polygon fill="#edf0f7" stroke="#7f7f7f" stroke-dasharray="5,2" points="8,-8 8,-181 98,-181 98,-8 8,-8"/>
<text text-anchor="middle" x="53" y="-167.5" font-family="Helvetica,sans-Serif" font-size="10.00">ARX</text>
</a>
</g>
</g>
<g id="clust2" class="cluster">
<title>clusterdir_3838e22be1e872cdd0079e23b928b29f</title>
<g id="a_clust2"><a xlink:href="dir_3838e22be1e872cdd0079e23b928b29f.html" target="_top">
<polygon fill="#edf0f7" stroke="#404040" stroke-width="2" points="16,-63.25 16,-153.75 78,-153.75 78,-63.25 16,-63.25"/>
</a>
</g>
</g>
<!-- dir_9d6768fa183d205dc506d630bc6d6ed5 -->
<g id="node1" class="node">
<title>dir_9d6768fa183d205dc506d630bc6d6ed5</title>
<g id="a_node1"><a xlink:href="dir_9d6768fa183d205dc506d630bc6d6ed5.html" target="_top" xlink:title="AR">
<polygon fill="#a2b4d6" stroke="red" points="76.12,-35.25 45.88,-35.25 45.88,-16 76.12,-16 76.12,-35.25"/>
<text text-anchor="middle" x="61" y="-21.75" font-family="Helvetica,sans-Serif" font-size="10.00">AR</text>
</a>
</g>
</g>
<!-- dir_3838e22be1e872cdd0079e23b928b29f -->
<g id="node2" class="node">
<title>dir_3838e22be1e872cdd0079e23b928b29f</title>
<text text-anchor="middle" x="49" y="-132.25" font-family="Helvetica,sans-Serif" font-size="10.00">KPM</text>
</g>
<!-- dir_3838e22be1e872cdd0079e23b928b29f&#45;&gt;dir_9d6768fa183d205dc506d630bc6d6ed5 -->
<g id="edge2" class="edge">
<title>dir_3838e22be1e872cdd0079e23b928b29f&#45;&gt;dir_9d6768fa183d205dc506d630bc6d6ed5</title>
<path fill="none" stroke="#63b8ff" d="M56.93,-126.72C64.28,-118.3 74.7,-104.61 79,-90.5 82.53,-78.92 81.74,-75.05 79,-63.25 77.54,-56.95 74.83,-50.49 71.95,-44.78"/>
<polygon fill="#63b8ff" stroke="#63b8ff" points="74.73,-43.57 66.82,-36.52 68.6,-46.96 74.73,-43.57"/>
<g id="a_edge2&#45;headlabel"><a xlink:href="dir_000036_000001.html" target="_top" xlink:title="7">
<text text-anchor="middle" x="78.95" y="-40.46" font-family="Helvetica,sans-Serif" font-size="10.00" fill="#63b8ff">7</text>
</a>
</g>
</g>
<!-- dir_1d6dac41e4112e7e09da89e499a13477 -->
<g id="node3" class="node">
<title>dir_1d6dac41e4112e7e09da89e499a13477</title>
<g id="a_node3"><a xlink:href="dir_1d6dac41e4112e7e09da89e499a13477.html" target="_top" xlink:title="include">
<polygon fill="#a2b4d6" stroke="#404040" points="70.38,-90.5 23.62,-90.5 23.62,-71.25 70.38,-71.25 70.38,-90.5"/>
<text text-anchor="middle" x="47" y="-77" font-family="Helvetica,sans-Serif" font-size="10.00">include</text>
</a>
</g>
</g>
<!-- dir_3838e22be1e872cdd0079e23b928b29f&#45;&gt;dir_1d6dac41e4112e7e09da89e499a13477 -->
<g id="edge1" class="edge">
<title>dir_3838e22be1e872cdd0079e23b928b29f&#45;&gt;dir_1d6dac41e4112e7e09da89e499a13477</title>
<path fill="none" stroke="#63b8ff" d="M48.69,-126.8C48.43,-120.05 48.07,-110.24 47.74,-101.51"/>
<polygon fill="#63b8ff" stroke="#63b8ff" points="51.2,-101.53 47.33,-91.67 44.21,-101.79 51.2,-101.53"/>
<g id="a_edge1&#45;headlabel"><a xlink:href="dir_000036_000034.html" target="_top" xlink:title="8">
<text text-anchor="middle" x="54.18" y="-100.14" font-family="Helvetica,sans-Serif" font-size="10.00" fill="#63b8ff">8</text>
</a>
</g>
</g>
<!-- dir_1d6dac41e4112e7e09da89e499a13477&#45;&gt;dir_9d6768fa183d205dc506d630bc6d6ed5 -->
<g id="edge3" class="edge">
<title>dir_1d6dac41e4112e7e09da89e499a13477&#45;&gt;dir_9d6768fa183d205dc506d630bc6d6ed5</title>
<path fill="none" stroke="#63b8ff" d="M49.31,-71.08C51.08,-64.34 53.6,-54.77 55.84,-46.24"/>
<polygon fill="#63b8ff" stroke="#63b8ff" points="59.48,-47.17 58.64,-36.61 52.71,-45.39 59.48,-47.17"/>
<g id="a_edge3&#45;headlabel"><a xlink:href="dir_000034_000001.html" target="_top" xlink:title="1">
<text text-anchor="middle" x="61.31" y="-46.49" font-family="Helvetica,sans-Serif" font-size="10.00" fill="#63b8ff">1</text>
</a>
</g>
</g>
</g>
</svg>
