<?xml version="1.0" encoding="UTF-8" standalone="no"?>
<!DOCTYPE svg PUBLIC "-//W3C//DTD SVG 1.1//EN"
 "http://www.w3.org/Graphics/SVG/1.1/DTD/svg11.dtd">
<!-- Generated by graphviz version 2.40.1 (20161225.0304)
 -->
<!-- Title: Source/ARX Pages: 1 -->
<svg width="420pt" height="398pt"
 viewBox="0.00 0.00 420.00 398.00" xmlns="http://www.w3.org/2000/svg" xmlns:xlink="http://www.w3.org/1999/xlink">
<g id="graph0" class="graph" transform="scale(1 1) rotate(0) translate(4 394)">
<title>Source/ARX</title>
<polygon fill="#ffffff" stroke="transparent" points="-4,4 -4,-394 416,-394 416,4 -4,4"/>
<g id="clust1" class="cluster">
<title>clusterdir_74389ed8173ad57b461b9d623a1f3867</title>
<g id="a_clust1"><a xlink:href="dir_74389ed8173ad57b461b9d623a1f3867.html" target="_top" xlink:title="Source">
<polygon fill="#ddddee" stroke="#000000" points="8,-8 8,-382 404,-382 404,-8 8,-8"/>
<text text-anchor="middle" x="206" y="-370" font-family="Helvetica,sans-Serif" font-size="10.00" fill="#000000">Source</text>
</a>
</g>
</g>
<g id="clust2" class="cluster">
<title>clusterdir_dc44baef7bc94ffdfef1a873a6db1f1f</title>
<g id="a_clust2"><a xlink:href="dir_dc44baef7bc94ffdfef1a873a6db1f1f.html" target="_top">
<polygon fill="#eeeeff" stroke="#000000" points="16,-16 16,-356 396,-356 396,-16 16,-16"/>
</a>
</g>
</g>
<!-- dir_dc44baef7bc94ffdfef1a873a6db1f1f -->
<g id="node1" class="node">
<title>dir_dc44baef7bc94ffdfef1a873a6db1f1f</title>
<text text-anchor="middle" x="287" y="-327" font-family="Helvetica,sans-Serif" font-size="10.00" fill="#000000">ARX</text>
</g>
<!-- dir_c9760e1f38ce245abe5a140a436a0240 -->
<g id="node7" class="node">
<title>dir_c9760e1f38ce245abe5a140a436a0240</title>
<g id="a_node7"><a xlink:href="dir_c9760e1f38ce245abe5a140a436a0240.html" target="_top" xlink:title="include">
<polygon fill="#ffffff" stroke="#ff0000" points="314,-276 260,-276 260,-240 314,-240 314,-276"/>
<text text-anchor="middle" x="287" y="-255" font-family="Helvetica,sans-Serif" font-size="10.00" fill="#000000">include</text>
</a>
</g>
</g>
<!-- dir_dc44baef7bc94ffdfef1a873a6db1f1f&#45;&gt;dir_c9760e1f38ce245abe5a140a436a0240 -->
<g id="edge12" class="edge">
<title>dir_dc44baef7bc94ffdfef1a873a6db1f1f&#45;&gt;dir_c9760e1f38ce245abe5a140a436a0240</title>
<path fill="none" stroke="#000000" d="M287,-311.8314C287,-304.131 287,-294.9743 287,-286.4166"/>
<polygon fill="#000000" stroke="#000000" points="290.5001,-286.4132 287,-276.4133 283.5001,-286.4133 290.5001,-286.4132"/>
<g id="a_edge12&#45;headlabel"><a xlink:href="dir_000001_000033.html" target="_top" xlink:title="28">
<text text-anchor="middle" x="293.3393" y="-287.0079" font-family="Helvetica,sans-Serif" font-size="10.00" fill="#000000">28</text>
</a>
</g>
</g>
<!-- dir_9d6768fa183d205dc506d630bc6d6ed5 -->
<g id="node2" class="node">
<title>dir_9d6768fa183d205dc506d630bc6d6ed5</title>
<g id="a_node2"><a xlink:href="dir_9d6768fa183d205dc506d630bc6d6ed5.html" target="_top" xlink:title="AR">
<polygon fill="#ffffff" stroke="#ff0000" points="245,-132 191,-132 191,-96 245,-96 245,-132"/>
<text text-anchor="middle" x="218" y="-111" font-family="Helvetica,sans-Serif" font-size="10.00" fill="#000000">AR</text>
</a>
</g>
</g>
<!-- dir_602dff985649e28cdaf3ea8207bc53f5 -->
<g id="node5" class="node">
<title>dir_602dff985649e28cdaf3ea8207bc53f5</title>
<g id="a_node5"><a xlink:href="dir_602dff985649e28cdaf3ea8207bc53f5.html" target="_top" xlink:title="ARUtil">
<polygon fill="#ffffff" stroke="#ff0000" points="245,-60 191,-60 191,-24 245,-24 245,-60"/>
<text text-anchor="middle" x="218" y="-39" font-family="Helvetica,sans-Serif" font-size="10.00" fill="#000000">ARUtil</text>
</a>
</g>
</g>
<!-- dir_9d6768fa183d205dc506d630bc6d6ed5&#45;&gt;dir_602dff985649e28cdaf3ea8207bc53f5 -->
<g id="edge9" class="edge">
<title>dir_9d6768fa183d205dc506d630bc6d6ed5&#45;&gt;dir_602dff985649e28cdaf3ea8207bc53f5</title>
<path fill="none" stroke="#000000" d="M218,-95.8314C218,-88.131 218,-78.9743 218,-70.4166"/>
<polygon fill="#000000" stroke="#000000" points="221.5001,-70.4132 218,-60.4133 214.5001,-70.4133 221.5001,-70.4132"/>
<g id="a_edge9&#45;headlabel"><a xlink:href="dir_000002_000015.html" target="_top" xlink:title="3">
<text text-anchor="middle" x="224.3393" y="-71.0079" font-family="Helvetica,sans-Serif" font-size="10.00" fill="#000000">3</text>
</a>
</g>
</g>
<!-- dir_0849c63ba2936a40dcc61cc80bbd89ab -->
<g id="node3" class="node">
<title>dir_0849c63ba2936a40dcc61cc80bbd89ab</title>
<g id="a_node3"><a xlink:href="dir_0849c63ba2936a40dcc61cc80bbd89ab.html" target="_top" xlink:title="AR2">
<polygon fill="#ffffff" stroke="#ff0000" points="78,-204 24,-204 24,-168 78,-168 78,-204"/>
<text text-anchor="middle" x="51" y="-183" font-family="Helvetica,sans-Serif" font-size="10.00" fill="#000000">AR2</text>
</a>
</g>
</g>
<!-- dir_0849c63ba2936a40dcc61cc80bbd89ab&#45;&gt;dir_9d6768fa183d205dc506d630bc6d6ed5 -->
<g id="edge11" class="edge">
<title>dir_0849c63ba2936a40dcc61cc80bbd89ab&#45;&gt;dir_9d6768fa183d205dc506d630bc6d6ed5</title>
<path fill="none" stroke="#000000" d="M78.0252,-172.2239C81.0383,-170.7667 84.0747,-169.3321 87,-168 118.4646,-153.6717 154.8649,-138.8001 181.2978,-128.3004"/>
<polygon fill="#000000" stroke="#000000" points="182.8966,-131.432 190.9094,-124.5005 180.323,-124.9222 182.8966,-131.432"/>
<g id="a_edge11&#45;headlabel"><a xlink:href="dir_000007_000002.html" target="_top" xlink:title="24">
<text text-anchor="middle" x="180.5975" y="-132.3939" font-family="Helvetica,sans-Serif" font-size="10.00" fill="#000000">24</text>
</a>
</g>
</g>
<!-- dir_0849c63ba2936a40dcc61cc80bbd89ab&#45;&gt;dir_602dff985649e28cdaf3ea8207bc53f5 -->
<g id="edge10" class="edge">
<title>dir_0849c63ba2936a40dcc61cc80bbd89ab&#45;&gt;dir_602dff985649e28cdaf3ea8207bc53f5</title>
<path fill="none" stroke="#000000" d="M72.1507,-167.7623C101.8897,-142.119 156.1437,-95.3372 189.4405,-66.6262"/>
<polygon fill="#000000" stroke="#000000" points="191.7333,-69.2706 197.0211,-60.0896 187.1621,-63.9693 191.7333,-69.2706"/>
<g id="a_edge10&#45;headlabel"><a xlink:href="dir_000007_000015.html" target="_top" xlink:title="2">
<text text-anchor="middle" x="190.8652" y="-70.7682" font-family="Helvetica,sans-Serif" font-size="10.00" fill="#000000">2</text>
</a>
</g>
</g>
<!-- dir_3c2f10e2ca97f50000e12f487029c4eb -->
<g id="node4" class="node">
<title>dir_3c2f10e2ca97f50000e12f487029c4eb</title>
<g id="a_node4"><a xlink:href="dir_3c2f10e2ca97f50000e12f487029c4eb.html" target="_top" xlink:title="ARG">
<polygon fill="#ffffff" stroke="#ff0000" points="314,-204 260,-204 260,-168 314,-168 314,-204"/>
<text text-anchor="middle" x="287" y="-183" font-family="Helvetica,sans-Serif" font-size="10.00" fill="#000000">ARG</text>
</a>
</g>
</g>
<!-- dir_3c2f10e2ca97f50000e12f487029c4eb&#45;&gt;dir_9d6768fa183d205dc506d630bc6d6ed5 -->
<g id="edge1" class="edge">
<title>dir_3c2f10e2ca97f50000e12f487029c4eb&#45;&gt;dir_9d6768fa183d205dc506d630bc6d6ed5</title>
<path fill="none" stroke="#000000" d="M269.5884,-167.8314C261.479,-159.3694 251.6844,-149.1489 242.818,-139.8971"/>
<polygon fill="#000000" stroke="#000000" points="245.0921,-137.2115 235.646,-132.4133 240.0382,-142.0549 245.0921,-137.2115"/>
<g id="a_edge1&#45;headlabel"><a xlink:href="dir_000011_000002.html" target="_top" xlink:title="1">
<text text-anchor="middle" x="249.6291" y="-134.8422" font-family="Helvetica,sans-Serif" font-size="10.00" fill="#000000">1</text>
</a>
</g>
</g>
<!-- dir_df79bfc4b68694d3a61dbd3a00e6107b -->
<g id="node6" class="node">
<title>dir_df79bfc4b68694d3a61dbd3a00e6107b</title>
<g id="a_node6"><a xlink:href="dir_df79bfc4b68694d3a61dbd3a00e6107b.html" target="_top" xlink:title="ARVideo">
<polygon fill="#ffffff" stroke="#ff0000" points="387.6163,-204 332.3837,-204 332.3837,-168 387.6163,-168 387.6163,-204"/>
<text text-anchor="middle" x="360" y="-183" font-family="Helvetica,sans-Serif" font-size="10.00" fill="#000000">ARVideo</text>
</a>
</g>
</g>
<!-- dir_df79bfc4b68694d3a61dbd3a00e6107b&#45;&gt;dir_9d6768fa183d205dc506d630bc6d6ed5 -->
<g id="edge8" class="edge">
<title>dir_df79bfc4b68694d3a61dbd3a00e6107b&#45;&gt;dir_9d6768fa183d205dc506d630bc6d6ed5</title>
<path fill="none" stroke="#000000" d="M332.2839,-171.9468C309.9544,-160.6248 278.3884,-144.6195 254.0873,-132.2978"/>
<polygon fill="#000000" stroke="#000000" points="255.6657,-129.1739 245.1638,-127.7732 252.5,-135.4172 255.6657,-129.1739"/>
<g id="a_edge8&#45;headlabel"><a xlink:href="dir_000019_000002.html" target="_top" xlink:title="5">
<text text-anchor="middle" x="260.1557" y="-125.2671" font-family="Helvetica,sans-Serif" font-size="10.00" fill="#000000">5</text>
</a>
</g>
</g>
<!-- dir_df79bfc4b68694d3a61dbd3a00e6107b&#45;&gt;dir_602dff985649e28cdaf3ea8207bc53f5 -->
<g id="edge7" class="edge">
<title>dir_df79bfc4b68694d3a61dbd3a00e6107b&#45;&gt;dir_602dff985649e28cdaf3ea8207bc53f5</title>
<path fill="none" stroke="#000000" d="M342.0156,-167.7623C316.9419,-142.3354 271.3735,-96.1253 243.0047,-67.3569"/>
<polygon fill="#000000" stroke="#000000" points="245.352,-64.7525 235.8384,-60.0896 240.3677,-69.6675 245.352,-64.7525"/>
<g id="a_edge7&#45;headlabel"><a xlink:href="dir_000019_000015.html" target="_top" xlink:title="1">
<text text-anchor="middle" x="249.8975" y="-62.3184" font-family="Helvetica,sans-Serif" font-size="10.00" fill="#000000">1</text>
</a>
</g>
</g>
<!-- dir_c9760e1f38ce245abe5a140a436a0240&#45;&gt;dir_9d6768fa183d205dc506d630bc6d6ed5 -->
<g id="edge6" class="edge">
<title>dir_c9760e1f38ce245abe5a140a436a0240&#45;&gt;dir_9d6768fa183d205dc506d630bc6d6ed5</title>
<path fill="none" stroke="#000000" d="M273.2006,-239.6716C265.968,-229.5171 257.3241,-216.4583 251,-204 240.8143,-183.9344 232.1822,-159.9575 226.3041,-141.7989"/>
<polygon fill="#000000" stroke="#000000" points="229.5952,-140.5973 223.25,-132.1127 222.9192,-142.7023 229.5952,-140.5973"/>
<g id="a_edge6&#45;headlabel"><a xlink:href="dir_000033_000002.html" target="_top" xlink:title="8">
<text text-anchor="middle" x="233.3839" y="-140.1718" font-family="Helvetica,sans-Serif" font-size="10.00" fill="#000000">8</text>
</a>
</g>
</g>
<!-- dir_c9760e1f38ce245abe5a140a436a0240&#45;&gt;dir_3c2f10e2ca97f50000e12f487029c4eb -->
<g id="edge4" class="edge">
<title>dir_c9760e1f38ce245abe5a140a436a0240&#45;&gt;dir_3c2f10e2ca97f50000e12f487029c4eb</title>
<path fill="none" stroke="#000000" d="M287,-239.8314C287,-232.131 287,-222.9743 287,-214.4166"/>
<polygon fill="#000000" stroke="#000000" points="290.5001,-214.4132 287,-204.4133 283.5001,-214.4133 290.5001,-214.4132"/>
<g id="a_edge4&#45;headlabel"><a xlink:href="dir_000033_000011.html" target="_top" xlink:title="1">
<text text-anchor="middle" x="293.3393" y="-215.0079" font-family="Helvetica,sans-Serif" font-size="10.00" fill="#000000">1</text>
</a>
</g>
</g>
<!-- dir_c9760e1f38ce245abe5a140a436a0240&#45;&gt;dir_df79bfc4b68694d3a61dbd3a00e6107b -->
<g id="edge5" class="edge">
<title>dir_c9760e1f38ce245abe5a140a436a0240&#45;&gt;dir_df79bfc4b68694d3a61dbd3a00e6107b</title>
<path fill="none" stroke="#000000" d="M305.421,-239.8314C314.1529,-231.219 324.7317,-220.7851 334.2423,-211.4048"/>
<polygon fill="#000000" stroke="#000000" points="336.923,-213.6769 341.5849,-204.1628 332.0075,-208.6931 336.923,-213.6769"/>
<g id="a_edge5&#45;headlabel"><a xlink:href="dir_000033_000019.html" target="_top" xlink:title="1">
<text text-anchor="middle" x="336.3575" y="-215.2225" font-family="Helvetica,sans-Serif" font-size="10.00" fill="#000000">1</text>
</a>
</g>
</g>
<!-- dir_3838e22be1e872cdd0079e23b928b29f -->
<g id="node8" class="node">
<title>dir_3838e22be1e872cdd0079e23b928b29f</title>
<g id="a_node8"><a xlink:href="dir_3838e22be1e872cdd0079e23b928b29f.html" target="_top" xlink:title="KPM">
<polygon fill="#ffffff" stroke="#ff0000" points="222,-204 168,-204 168,-168 222,-168 222,-204"/>
<text text-anchor="middle" x="195" y="-183" font-family="Helvetica,sans-Serif" font-size="10.00" fill="#000000">KPM</text>
</a>
</g>
</g>
<!-- dir_3838e22be1e872cdd0079e23b928b29f&#45;&gt;dir_9d6768fa183d205dc506d630bc6d6ed5 -->
<g id="edge2" class="edge">
<title>dir_3838e22be1e872cdd0079e23b928b29f&#45;&gt;dir_9d6768fa183d205dc506d630bc6d6ed5</title>
<path fill="none" stroke="#000000" d="M200.8039,-167.8314C203.2908,-160.0463 206.2531,-150.7729 209.0125,-142.1347"/>
<polygon fill="#000000" stroke="#000000" points="212.409,-143.0041 212.118,-132.4133 205.7409,-140.874 212.409,-143.0041"/>
<g id="a_edge2&#45;headlabel"><a xlink:href="dir_000035_000002.html" target="_top" xlink:title="7">
<text text-anchor="middle" x="214.0199" y="-144.2922" font-family="Helvetica,sans-Serif" font-size="10.00" fill="#000000">7</text>
</a>
</g>
</g>
<!-- dir_f27116b27ab9f41391837a23c69e65ed -->
<g id="node9" class="node">
<title>dir_f27116b27ab9f41391837a23c69e65ed</title>
<g id="a_node9"><a xlink:href="dir_f27116b27ab9f41391837a23c69e65ed.html" target="_top" xlink:title="OCVT">
<polygon fill="#ffffff" stroke="#ff0000" points="150,-204 96,-204 96,-168 150,-168 150,-204"/>
<text text-anchor="middle" x="123" y="-183" font-family="Helvetica,sans-Serif" font-size="10.00" fill="#000000">OCVT</text>
</a>
</g>
</g>
<!-- dir_f27116b27ab9f41391837a23c69e65ed&#45;&gt;dir_9d6768fa183d205dc506d630bc6d6ed5 -->
<g id="edge3" class="edge">
<title>dir_f27116b27ab9f41391837a23c69e65ed&#45;&gt;dir_9d6768fa183d205dc506d630bc6d6ed5</title>
<path fill="none" stroke="#000000" d="M146.9725,-167.8314C158.7861,-158.8779 173.1972,-147.9558 185.9435,-138.2955"/>
<polygon fill="#000000" stroke="#000000" points="188.1795,-140.9925 194.0352,-132.1628 183.9514,-135.4137 188.1795,-140.9925"/>
<g id="a_edge3&#45;headlabel"><a xlink:href="dir_000039_000002.html" target="_top" xlink:title="1">
<text text-anchor="middle" x="187.0297" y="-142.4264" font-family="Helvetica,sans-Serif" font-size="10.00" fill="#000000">1</text>
</a>
</g>
</g>
</g>
</svg>
