<?xml version="1.0" encoding="UTF-8" standalone="no"?>
<!DOCTYPE svg PUBLIC "-//W3C//DTD SVG 1.1//EN"
 "http://www.w3.org/Graphics/SVG/1.1/DTD/svg11.dtd">
<!-- Generated by graphviz version 2.40.1 (20161225.0304)
 -->
<!-- Title: Source/ARX/ARVideo/WindowsMediaFoundation Pages: 1 -->
<svg width="174pt" height="222pt"
 viewBox="0.00 0.00 174.00 222.00" xmlns="http://www.w3.org/2000/svg" xmlns:xlink="http://www.w3.org/1999/xlink">
<g id="graph0" class="graph" transform="scale(1 1) rotate(0) translate(4 218)">
<title>Source/ARX/ARVideo/WindowsMediaFoundation</title>
<polygon fill="#ffffff" stroke="transparent" points="-4,4 -4,-218 170,-218 170,4 -4,4"/>
<g id="clust1" class="cluster">
<title>clusterdir_df79bfc4b68694d3a61dbd3a00e6107b</title>
<g id="a_clust1"><a xlink:href="dir_df79bfc4b68694d3a61dbd3a00e6107b.html" target="_top" xlink:title="ARVideo">
<polygon fill="#ddddee" stroke="#000000" points="8,-136 8,-206 158,-206 158,-136 8,-136"/>
<text text-anchor="middle" x="83" y="-194" font-family="Helvetica,sans-Serif" font-size="10.00" fill="#000000">ARVideo</text>
</a>
</g>
</g>
<!-- dir_1d625217ed07c09f89fd1f50fea8d800 -->
<g id="node1" class="node">
<title>dir_1d625217ed07c09f89fd1f50fea8d800</title>
<g id="a_node1"><a xlink:href="dir_1d625217ed07c09f89fd1f50fea8d800.html" target="_top" xlink:title="WindowsMediaFoundation">
<polygon fill="#eeeeff" stroke="#000000" points="149.8419,-180 16.1581,-180 16.1581,-144 149.8419,-144 149.8419,-180"/>
<text text-anchor="middle" x="83" y="-159" font-family="Helvetica,sans-Serif" font-size="10.00" fill="#000000">WindowsMediaFoundation</text>
</a>
</g>
</g>
<!-- dir_57de4852568d3cfc872fe1c4586bb183 -->
<g id="node2" class="node">
<title>dir_57de4852568d3cfc872fe1c4586bb183</title>
<g id="a_node2"><a xlink:href="dir_57de4852568d3cfc872fe1c4586bb183.html" target="_top" xlink:title="include">
<polygon fill="#ffffff" stroke="#ff0000" points="82,-108 28,-108 28,-72 82,-72 82,-108"/>
<text text-anchor="middle" x="55" y="-87" font-family="Helvetica,sans-Serif" font-size="10.00" fill="#000000">include</text>
</a>
</g>
</g>
<!-- dir_1d625217ed07c09f89fd1f50fea8d800&#45;&gt;dir_57de4852568d3cfc872fe1c4586bb183 -->
<g id="edge1" class="edge">
<title>dir_1d625217ed07c09f89fd1f50fea8d800&#45;&gt;dir_57de4852568d3cfc872fe1c4586bb183</title>
<path fill="none" stroke="#000000" d="M75.9344,-143.8314C72.874,-135.9617 69.2221,-126.5712 65.8318,-117.8533"/>
<polygon fill="#000000" stroke="#000000" points="69.0473,-116.4647 62.1607,-108.4133 62.5232,-119.0019 69.0473,-116.4647"/>
<g id="a_edge1&#45;headlabel"><a xlink:href="dir_000032_000025.html" target="_top" xlink:title="1">
<text text-anchor="middle" x="72.9963" y="-115.7859" font-family="Helvetica,sans-Serif" font-size="10.00" fill="#000000">1</text>
</a>
</g>
</g>
<!-- dir_9d6768fa183d205dc506d630bc6d6ed5 -->
<g id="node3" class="node">
<title>dir_9d6768fa183d205dc506d630bc6d6ed5</title>
<g id="a_node3"><a xlink:href="dir_9d6768fa183d205dc506d630bc6d6ed5.html" target="_top" xlink:title="AR">
<polygon fill="#ffffff" stroke="#ff0000" points="109,-36 55,-36 55,0 109,0 109,-36"/>
<text text-anchor="middle" x="82" y="-15" font-family="Helvetica,sans-Serif" font-size="10.00" fill="#000000">AR</text>
</a>
</g>
</g>
<!-- dir_1d625217ed07c09f89fd1f50fea8d800&#45;&gt;dir_9d6768fa183d205dc506d630bc6d6ed5 -->
<g id="edge2" class="edge">
<title>dir_1d625217ed07c09f89fd1f50fea8d800&#45;&gt;dir_9d6768fa183d205dc506d630bc6d6ed5</title>
<path fill="none" stroke="#000000" d="M86.415,-143.5804C88.1709,-133.1767 90.1226,-119.9092 91,-108 92.1756,-92.0432 92.3197,-87.9455 91,-72 90.3055,-63.6085 89.0138,-54.5578 87.6214,-46.3092"/>
<polygon fill="#000000" stroke="#000000" points="91.0544,-45.6235 85.8413,-36.3999 84.1647,-46.8612 91.0544,-45.6235"/>
<g id="a_edge2&#45;headlabel"><a xlink:href="dir_000032_000002.html" target="_top" xlink:title="1">
<text text-anchor="middle" x="94.4844" y="-45.6595" font-family="Helvetica,sans-Serif" font-size="10.00" fill="#000000">1</text>
</a>
</g>
</g>
<!-- dir_57de4852568d3cfc872fe1c4586bb183&#45;&gt;dir_9d6768fa183d205dc506d630bc6d6ed5 -->
<g id="edge3" class="edge">
<title>dir_57de4852568d3cfc872fe1c4586bb183&#45;&gt;dir_9d6768fa183d205dc506d630bc6d6ed5</title>
<path fill="none" stroke="#000000" d="M61.8132,-71.8314C64.7644,-63.9617 68.2858,-54.5712 71.555,-45.8533"/>
<polygon fill="#000000" stroke="#000000" points="74.8609,-47.0055 75.095,-36.4133 68.3066,-44.5476 74.8609,-47.0055"/>
<g id="a_edge3&#45;headlabel"><a xlink:href="dir_000025_000002.html" target="_top" xlink:title="1">
<text text-anchor="middle" x="76.2573" y="-48.3682" font-family="Helvetica,sans-Serif" font-size="10.00" fill="#000000">1</text>
</a>
</g>
</g>
</g>
</svg>
