<?xml version="1.0" encoding="UTF-8" standalone="no"?>
<!DOCTYPE svg PUBLIC "-//W3C//DTD SVG 1.1//EN"
 "http://www.w3.org/Graphics/SVG/1.1/DTD/svg11.dtd">
<!-- Generated by graphviz version 2.40.1 (20161225.0304)
 -->
<!-- Title: Source/ARX/KPM/include/ARX/KPM Pages: 1 -->
<svg width="94pt" height="150pt"
 viewBox="0.00 0.00 94.00 150.00" xmlns="http://www.w3.org/2000/svg" xmlns:xlink="http://www.w3.org/1999/xlink">
<g id="graph0" class="graph" transform="scale(1 1) rotate(0) translate(4 146)">
<title>Source/ARX/KPM/include/ARX/KPM</title>
<polygon fill="#ffffff" stroke="transparent" points="-4,4 -4,-146 90,-146 90,4 -4,4"/>
<g id="clust1" class="cluster">
<title>clusterdir_6b01824d5fa541611377a2c2cfcf9294</title>
<g id="a_clust1"><a xlink:href="dir_6b01824d5fa541611377a2c2cfcf9294.html" target="_top" xlink:title="ARX">
<polygon fill="#ddddee" stroke="#000000" points="8,-64 8,-134 78,-134 78,-64 8,-64"/>
<text text-anchor="middle" x="43" y="-122" font-family="Helvetica,sans-Serif" font-size="10.00" fill="#000000">ARX</text>
</a>
</g>
</g>
<!-- dir_55bfcecf0a37d99785338ed7e21c7de8 -->
<g id="node1" class="node">
<title>dir_55bfcecf0a37d99785338ed7e21c7de8</title>
<g id="a_node1"><a xlink:href="dir_55bfcecf0a37d99785338ed7e21c7de8.html" target="_top" xlink:title="KPM">
<polygon fill="#eeeeff" stroke="#000000" points="70,-108 16,-108 16,-72 70,-72 70,-108"/>
<text text-anchor="middle" x="43" y="-87" font-family="Helvetica,sans-Serif" font-size="10.00" fill="#000000">KPM</text>
</a>
</g>
</g>
<!-- dir_9d6768fa183d205dc506d630bc6d6ed5 -->
<g id="node2" class="node">
<title>dir_9d6768fa183d205dc506d630bc6d6ed5</title>
<g id="a_node2"><a xlink:href="dir_9d6768fa183d205dc506d630bc6d6ed5.html" target="_top" xlink:title="AR">
<polygon fill="#ffffff" stroke="#ff0000" points="70,-36 16,-36 16,0 70,0 70,-36"/>
<text text-anchor="middle" x="43" y="-15" font-family="Helvetica,sans-Serif" font-size="10.00" fill="#000000">AR</text>
</a>
</g>
</g>
<!-- dir_55bfcecf0a37d99785338ed7e21c7de8&#45;&gt;dir_9d6768fa183d205dc506d630bc6d6ed5 -->
<g id="edge1" class="edge">
<title>dir_55bfcecf0a37d99785338ed7e21c7de8&#45;&gt;dir_9d6768fa183d205dc506d630bc6d6ed5</title>
<path fill="none" stroke="#000000" d="M43,-71.8314C43,-64.131 43,-54.9743 43,-46.4166"/>
<polygon fill="#000000" stroke="#000000" points="46.5001,-46.4132 43,-36.4133 39.5001,-46.4133 46.5001,-46.4132"/>
<g id="a_edge1&#45;headlabel"><a xlink:href="dir_000038_000002.html" target="_top" xlink:title="1">
<text text-anchor="middle" x="49.3393" y="-47.0079" font-family="Helvetica,sans-Serif" font-size="10.00" fill="#000000">1</text>
</a>
</g>
</g>
</g>
</svg>
