<?xml version="1.0" encoding="UTF-8" standalone="no"?>
<!DOCTYPE svg PUBLIC "-//W3C//DTD SVG 1.1//EN"
 "http://www.w3.org/Graphics/SVG/1.1/DTD/svg11.dtd">
<!-- Generated by graphviz version 2.40.1 (20161225.0304)
 -->
<!-- Title: Source/ARX/ARG Pages: 1 -->
<svg width="110pt" height="230pt"
 viewBox="0.00 0.00 110.00 230.00" xmlns="http://www.w3.org/2000/svg" xmlns:xlink="http://www.w3.org/1999/xlink">
<g id="graph0" class="graph" transform="scale(1 1) rotate(0) translate(4 226)">
<title>Source/ARX/ARG</title>
<polygon fill="#ffffff" stroke="transparent" points="-4,4 -4,-226 106,-226 106,4 -4,4"/>
<g id="clust1" class="cluster">
<title>clusterdir_dc44baef7bc94ffdfef1a873a6db1f1f</title>
<g id="a_clust1"><a xlink:href="dir_dc44baef7bc94ffdfef1a873a6db1f1f.html" target="_top" xlink:title="ARX">
<polygon fill="#ddddee" stroke="#000000" points="8,-56 8,-214 94,-214 94,-56 8,-56"/>
<text text-anchor="middle" x="51" y="-202" font-family="Helvetica,sans-Serif" font-size="10.00" fill="#000000">ARX</text>
</a>
</g>
</g>
<g id="clust2" class="cluster">
<title>clusterdir_3c2f10e2ca97f50000e12f487029c4eb</title>
<g id="a_clust2"><a xlink:href="dir_3c2f10e2ca97f50000e12f487029c4eb.html" target="_top">
<polygon fill="#eeeeff" stroke="#000000" points="16,-64 16,-188 86,-188 86,-64 16,-64"/>
</a>
</g>
</g>
<!-- dir_3c2f10e2ca97f50000e12f487029c4eb -->
<g id="node1" class="node">
<title>dir_3c2f10e2ca97f50000e12f487029c4eb</title>
<text text-anchor="middle" x="51" y="-159" font-family="Helvetica,sans-Serif" font-size="10.00" fill="#000000">ARG</text>
</g>
<!-- dir_63b3c3e24422db7b0177bddb1cbecb72 -->
<g id="node2" class="node">
<title>dir_63b3c3e24422db7b0177bddb1cbecb72</title>
<g id="a_node2"><a xlink:href="dir_63b3c3e24422db7b0177bddb1cbecb72.html" target="_top" xlink:title="include">
<polygon fill="#ffffff" stroke="#ff0000" points="78,-108 24,-108 24,-72 78,-72 78,-108"/>
<text text-anchor="middle" x="51" y="-87" font-family="Helvetica,sans-Serif" font-size="10.00" fill="#000000">include</text>
</a>
</g>
</g>
<!-- dir_3c2f10e2ca97f50000e12f487029c4eb&#45;&gt;dir_63b3c3e24422db7b0177bddb1cbecb72 -->
<g id="edge1" class="edge">
<title>dir_3c2f10e2ca97f50000e12f487029c4eb&#45;&gt;dir_63b3c3e24422db7b0177bddb1cbecb72</title>
<path fill="none" stroke="#000000" d="M51,-143.8314C51,-136.131 51,-126.9743 51,-118.4166"/>
<polygon fill="#000000" stroke="#000000" points="54.5001,-118.4132 51,-108.4133 47.5001,-118.4133 54.5001,-118.4132"/>
<g id="a_edge1&#45;headlabel"><a xlink:href="dir_000011_000012.html" target="_top" xlink:title="5">
<text text-anchor="middle" x="57.3393" y="-119.0079" font-family="Helvetica,sans-Serif" font-size="10.00" fill="#000000">5</text>
</a>
</g>
</g>
<!-- dir_9d6768fa183d205dc506d630bc6d6ed5 -->
<g id="node3" class="node">
<title>dir_9d6768fa183d205dc506d630bc6d6ed5</title>
<g id="a_node3"><a xlink:href="dir_9d6768fa183d205dc506d630bc6d6ed5.html" target="_top" xlink:title="AR">
<polygon fill="#ffffff" stroke="#ff0000" points="78,-36 24,-36 24,0 78,0 78,-36"/>
<text text-anchor="middle" x="51" y="-15" font-family="Helvetica,sans-Serif" font-size="10.00" fill="#000000">AR</text>
</a>
</g>
</g>
<!-- dir_63b3c3e24422db7b0177bddb1cbecb72&#45;&gt;dir_9d6768fa183d205dc506d630bc6d6ed5 -->
<g id="edge2" class="edge">
<title>dir_63b3c3e24422db7b0177bddb1cbecb72&#45;&gt;dir_9d6768fa183d205dc506d630bc6d6ed5</title>
<path fill="none" stroke="#000000" d="M51,-71.8314C51,-64.131 51,-54.9743 51,-46.4166"/>
<polygon fill="#000000" stroke="#000000" points="54.5001,-46.4132 51,-36.4133 47.5001,-46.4133 54.5001,-46.4132"/>
<g id="a_edge2&#45;headlabel"><a xlink:href="dir_000012_000002.html" target="_top" xlink:title="1">
<text text-anchor="middle" x="57.3393" y="-47.0079" font-family="Helvetica,sans-Serif" font-size="10.00" fill="#000000">1</text>
</a>
</g>
</g>
</g>
</svg>
