<?xml version="1.0" encoding="UTF-8" standalone="no"?>
<!DOCTYPE svg PUBLIC "-//W3C//DTD SVG 1.1//EN"
 "http://www.w3.org/Graphics/SVG/1.1/DTD/svg11.dtd">
<!-- Generated by graphviz version 2.40.1 (20161225.0304)
 -->
<!-- Title: Source/ARX/AR2/include/ARX Pages: 1 -->
<svg width="182pt" height="230pt"
 viewBox="0.00 0.00 182.00 230.00" xmlns="http://www.w3.org/2000/svg" xmlns:xlink="http://www.w3.org/1999/xlink">
<g id="graph0" class="graph" transform="scale(1 1) rotate(0) translate(4 226)">
<title>Source/ARX/AR2/include/ARX</title>
<polygon fill="#ffffff" stroke="transparent" points="-4,4 -4,-226 178,-226 178,4 -4,4"/>
<g id="clust1" class="cluster">
<title>clusterdir_81d8cee220998432eb9f3cef558da1f3</title>
<g id="a_clust1"><a xlink:href="dir_81d8cee220998432eb9f3cef558da1f3.html" target="_top" xlink:title="include">
<polygon fill="#ddddee" stroke="#000000" points="8,-128 8,-214 166,-214 166,-128 8,-128"/>
<text text-anchor="middle" x="87" y="-202" font-family="Helvetica,sans-Serif" font-size="10.00" fill="#000000">include</text>
</a>
</g>
</g>
<g id="clust2" class="cluster">
<title>clusterdir_d9bb24945f7501e513da028a4ec0ed36</title>
<g id="a_clust2"><a xlink:href="dir_d9bb24945f7501e513da028a4ec0ed36.html" target="_top">
<polygon fill="#eeeeff" stroke="#000000" points="16,-136 16,-188 158,-188 158,-136 16,-136"/>
</a>
</g>
</g>
<!-- dir_d9bb24945f7501e513da028a4ec0ed36 -->
<g id="node1" class="node">
<title>dir_d9bb24945f7501e513da028a4ec0ed36</title>
<text text-anchor="middle" x="123" y="-159" font-family="Helvetica,sans-Serif" font-size="10.00" fill="#000000">ARX</text>
</g>
<!-- dir_5f0ef7b63d7454cf04ec73b7e3c326d4 -->
<g id="node2" class="node">
<title>dir_5f0ef7b63d7454cf04ec73b7e3c326d4</title>
<g id="a_node2"><a xlink:href="dir_5f0ef7b63d7454cf04ec73b7e3c326d4.html" target="_top" xlink:title="AR2">
<polygon fill="#ffffff" stroke="#000000" points="78,-180 24,-180 24,-144 78,-144 78,-180"/>
<text text-anchor="middle" x="51" y="-159" font-family="Helvetica,sans-Serif" font-size="10.00" fill="#000000">AR2</text>
</a>
</g>
</g>
<!-- dir_602dff985649e28cdaf3ea8207bc53f5 -->
<g id="node3" class="node">
<title>dir_602dff985649e28cdaf3ea8207bc53f5</title>
<g id="a_node3"><a xlink:href="dir_602dff985649e28cdaf3ea8207bc53f5.html" target="_top" xlink:title="ARUtil">
<polygon fill="#ffffff" stroke="#ff0000" points="77,-36 23,-36 23,0 77,0 77,-36"/>
<text text-anchor="middle" x="50" y="-15" font-family="Helvetica,sans-Serif" font-size="10.00" fill="#000000">ARUtil</text>
</a>
</g>
</g>
<!-- dir_5f0ef7b63d7454cf04ec73b7e3c326d4&#45;&gt;dir_602dff985649e28cdaf3ea8207bc53f5 -->
<g id="edge2" class="edge">
<title>dir_5f0ef7b63d7454cf04ec73b7e3c326d4&#45;&gt;dir_602dff985649e28cdaf3ea8207bc53f5</title>
<path fill="none" stroke="#000000" d="M47.1587,-143.6001C45.1834,-133.2025 42.9877,-119.9346 42,-108 40.6803,-92.0545 40.8244,-87.9568 42,-72 42.6169,-63.6264 43.7649,-54.5812 45.0026,-46.3322"/>
<polygon fill="#000000" stroke="#000000" points="48.4648,-46.8463 46.585,-36.4196 41.5523,-45.7428 48.4648,-46.8463"/>
<g id="a_edge2&#45;headlabel"><a xlink:href="dir_000010_000015.html" target="_top" xlink:title="1">
<text text-anchor="middle" x="50.702" y="-47.8436" font-family="Helvetica,sans-Serif" font-size="10.00" fill="#000000">1</text>
</a>
</g>
</g>
<!-- dir_9d6768fa183d205dc506d630bc6d6ed5 -->
<g id="node4" class="node">
<title>dir_9d6768fa183d205dc506d630bc6d6ed5</title>
<g id="a_node4"><a xlink:href="dir_9d6768fa183d205dc506d630bc6d6ed5.html" target="_top" xlink:title="AR">
<polygon fill="#ffffff" stroke="#ff0000" points="105,-108 51,-108 51,-72 105,-72 105,-108"/>
<text text-anchor="middle" x="78" y="-87" font-family="Helvetica,sans-Serif" font-size="10.00" fill="#000000">AR</text>
</a>
</g>
</g>
<!-- dir_5f0ef7b63d7454cf04ec73b7e3c326d4&#45;&gt;dir_9d6768fa183d205dc506d630bc6d6ed5 -->
<g id="edge3" class="edge">
<title>dir_5f0ef7b63d7454cf04ec73b7e3c326d4&#45;&gt;dir_9d6768fa183d205dc506d630bc6d6ed5</title>
<path fill="none" stroke="#000000" d="M57.8132,-143.8314C60.7644,-135.9617 64.2858,-126.5712 67.555,-117.8533"/>
<polygon fill="#000000" stroke="#000000" points="70.8609,-119.0055 71.095,-108.4133 64.3066,-116.5476 70.8609,-119.0055"/>
<g id="a_edge3&#45;headlabel"><a xlink:href="dir_000010_000002.html" target="_top" xlink:title="6">
<text text-anchor="middle" x="72.2573" y="-120.3682" font-family="Helvetica,sans-Serif" font-size="10.00" fill="#000000">6</text>
</a>
</g>
</g>
<!-- dir_9d6768fa183d205dc506d630bc6d6ed5&#45;&gt;dir_602dff985649e28cdaf3ea8207bc53f5 -->
<g id="edge1" class="edge">
<title>dir_9d6768fa183d205dc506d630bc6d6ed5&#45;&gt;dir_602dff985649e28cdaf3ea8207bc53f5</title>
<path fill="none" stroke="#000000" d="M70.9344,-71.8314C67.874,-63.9617 64.2221,-54.5712 60.8318,-45.8533"/>
<polygon fill="#000000" stroke="#000000" points="64.0473,-44.4647 57.1607,-36.4133 57.5232,-47.0019 64.0473,-44.4647"/>
<g id="a_edge1&#45;headlabel"><a xlink:href="dir_000002_000015.html" target="_top" xlink:title="3">
<text text-anchor="middle" x="67.9963" y="-43.7859" font-family="Helvetica,sans-Serif" font-size="10.00" fill="#000000">3</text>
</a>
</g>
</g>
</g>
</svg>
