<?xml version="1.0" encoding="UTF-8" standalone="no"?>
<!DOCTYPE svg PUBLIC "-//W3C//DTD SVG 1.1//EN"
 "http://www.w3.org/Graphics/SVG/1.1/DTD/svg11.dtd">
<!-- Generated by graphviz version 2.40.1 (20161225.0304)
 -->
<!-- Title: Source/ARX/ARVideo/GStreamer Pages: 1 -->
<svg width="104pt" height="150pt"
 viewBox="0.00 0.00 104.00 150.00" xmlns="http://www.w3.org/2000/svg" xmlns:xlink="http://www.w3.org/1999/xlink">
<g id="graph0" class="graph" transform="scale(1 1) rotate(0) translate(4 146)">
<title>Source/ARX/ARVideo/GStreamer</title>
<polygon fill="#ffffff" stroke="transparent" points="-4,4 -4,-146 100,-146 100,4 -4,4"/>
<g id="clust1" class="cluster">
<title>clusterdir_df79bfc4b68694d3a61dbd3a00e6107b</title>
<g id="a_clust1"><a xlink:href="dir_df79bfc4b68694d3a61dbd3a00e6107b.html" target="_top" xlink:title="ARVideo">
<polygon fill="#ddddee" stroke="#000000" points="8,-64 8,-134 88,-134 88,-64 8,-64"/>
<text text-anchor="middle" x="48" y="-122" font-family="Helvetica,sans-Serif" font-size="10.00" fill="#000000">ARVideo</text>
</a>
</g>
</g>
<!-- dir_a957f3b6e799ddc28232df8aaf2e44b2 -->
<g id="node1" class="node">
<title>dir_a957f3b6e799ddc28232df8aaf2e44b2</title>
<g id="a_node1"><a xlink:href="dir_a957f3b6e799ddc28232df8aaf2e44b2.html" target="_top" xlink:title="GStreamer">
<polygon fill="#eeeeff" stroke="#000000" points="80.4014,-108 15.5986,-108 15.5986,-72 80.4014,-72 80.4014,-108"/>
<text text-anchor="middle" x="48" y="-87" font-family="Helvetica,sans-Serif" font-size="10.00" fill="#000000">GStreamer</text>
</a>
</g>
</g>
<!-- dir_57de4852568d3cfc872fe1c4586bb183 -->
<g id="node2" class="node">
<title>dir_57de4852568d3cfc872fe1c4586bb183</title>
<g id="a_node2"><a xlink:href="dir_57de4852568d3cfc872fe1c4586bb183.html" target="_top" xlink:title="include">
<polygon fill="#ffffff" stroke="#ff0000" points="75,-36 21,-36 21,0 75,0 75,-36"/>
<text text-anchor="middle" x="48" y="-15" font-family="Helvetica,sans-Serif" font-size="10.00" fill="#000000">include</text>
</a>
</g>
</g>
<!-- dir_a957f3b6e799ddc28232df8aaf2e44b2&#45;&gt;dir_57de4852568d3cfc872fe1c4586bb183 -->
<g id="edge1" class="edge">
<title>dir_a957f3b6e799ddc28232df8aaf2e44b2&#45;&gt;dir_57de4852568d3cfc872fe1c4586bb183</title>
<path fill="none" stroke="#000000" d="M48,-71.8314C48,-64.131 48,-54.9743 48,-46.4166"/>
<polygon fill="#000000" stroke="#000000" points="51.5001,-46.4132 48,-36.4133 44.5001,-46.4133 51.5001,-46.4132"/>
<g id="a_edge1&#45;headlabel"><a xlink:href="dir_000023_000025.html" target="_top" xlink:title="1">
<text text-anchor="middle" x="54.3393" y="-47.0079" font-family="Helvetica,sans-Serif" font-size="10.00" fill="#000000">1</text>
</a>
</g>
</g>
</g>
</svg>
