<?xml version="1.0" encoding="UTF-8" standalone="no"?>
<!DOCTYPE svg PUBLIC "-//W3C//DTD SVG 1.1//EN"
 "http://www.w3.org/Graphics/SVG/1.1/DTD/svg11.dtd">
<!-- Generated by graphviz version 2.40.1 (20161225.0304)
 -->
<!-- Title: Source/ARX/ARVideo/libdc1394 Pages: 1 -->
<svg width="98pt" height="150pt"
 viewBox="0.00 0.00 98.00 150.00" xmlns="http://www.w3.org/2000/svg" xmlns:xlink="http://www.w3.org/1999/xlink">
<g id="graph0" class="graph" transform="scale(1 1) rotate(0) translate(4 146)">
<title>Source/ARX/ARVideo/libdc1394</title>
<polygon fill="#ffffff" stroke="transparent" points="-4,4 -4,-146 94,-146 94,4 -4,4"/>
<g id="clust1" class="cluster">
<title>clusterdir_df79bfc4b68694d3a61dbd3a00e6107b</title>
<g id="a_clust1"><a xlink:href="dir_df79bfc4b68694d3a61dbd3a00e6107b.html" target="_top" xlink:title="ARVideo">
<polygon fill="#ddddee" stroke="#000000" points="8,-64 8,-134 82,-134 82,-64 8,-64"/>
<text text-anchor="middle" x="45" y="-122" font-family="Helvetica,sans-Serif" font-size="10.00" fill="#000000">ARVideo</text>
</a>
</g>
</g>
<!-- dir_77ef54747136831f99816c9c6920e567 -->
<g id="node1" class="node">
<title>dir_77ef54747136831f99816c9c6920e567</title>
<g id="a_node1"><a xlink:href="dir_77ef54747136831f99816c9c6920e567.html" target="_top" xlink:title="libdc1394">
<polygon fill="#eeeeff" stroke="#000000" points="74.3128,-108 15.6872,-108 15.6872,-72 74.3128,-72 74.3128,-108"/>
<text text-anchor="middle" x="45" y="-87" font-family="Helvetica,sans-Serif" font-size="10.00" fill="#000000">libdc1394</text>
</a>
</g>
</g>
<!-- dir_57de4852568d3cfc872fe1c4586bb183 -->
<g id="node2" class="node">
<title>dir_57de4852568d3cfc872fe1c4586bb183</title>
<g id="a_node2"><a xlink:href="dir_57de4852568d3cfc872fe1c4586bb183.html" target="_top" xlink:title="include">
<polygon fill="#ffffff" stroke="#ff0000" points="72,-36 18,-36 18,0 72,0 72,-36"/>
<text text-anchor="middle" x="45" y="-15" font-family="Helvetica,sans-Serif" font-size="10.00" fill="#000000">include</text>
</a>
</g>
</g>
<!-- dir_77ef54747136831f99816c9c6920e567&#45;&gt;dir_57de4852568d3cfc872fe1c4586bb183 -->
<g id="edge1" class="edge">
<title>dir_77ef54747136831f99816c9c6920e567&#45;&gt;dir_57de4852568d3cfc872fe1c4586bb183</title>
<path fill="none" stroke="#000000" d="M45,-71.8314C45,-64.131 45,-54.9743 45,-46.4166"/>
<polygon fill="#000000" stroke="#000000" points="48.5001,-46.4132 45,-36.4133 41.5001,-46.4133 48.5001,-46.4132"/>
<g id="a_edge1&#45;headlabel"><a xlink:href="dir_000028_000025.html" target="_top" xlink:title="2">
<text text-anchor="middle" x="51.3393" y="-47.0079" font-family="Helvetica,sans-Serif" font-size="10.00" fill="#000000">2</text>
</a>
</g>
</g>
</g>
</svg>
