<?xml version="1.0" encoding="UTF-8" standalone="no"?>
<!DOCTYPE svg PUBLIC "-//W3C//DTD SVG 1.1//EN"
 "http://www.w3.org/Graphics/SVG/1.1/DTD/svg11.dtd">
<!-- Generated by graphviz version 7.0.5 (20221223.1930)
 -->
<!-- Title: Source/ARX/AR2/include/ARX/AR2/featureSet.h Pages: 1 -->
<!--zoomable 225 -->
<svg id="main" version="1.1" xmlns="http://www.w3.org/2000/svg" xmlns:xlink="http://www.w3.org/1999/xlink" xml:space="preserve" onload="init(evt)">
<style type="text/css"><![CDATA[
.edge:hover path { stroke: red; }
.edge:hover polygon { stroke: red; fill: red; }
]]></style>
<script type="text/javascript"><![CDATA[
var edges = document.getElementsByTagName('g');
if (edges && edges.length) {
  for (var i=0;i<edges.length;i++) {
    if (edges[i].id.substr(0,4)=='edge') {
      edges[i].setAttribute('class','edge');
    }
  }
}
]]></script>
        <defs>
                <circle id="rim" cx="0" cy="0" r="7"/>
                <circle id="rim2" cx="0" cy="0" r="3.5"/>
                <g id="zoomPlus">
                        <use xlink:href="#rim" fill="#404040">
                                <set attributeName="fill" to="#808080" begin="zoomplus.mouseover" end="zoomplus.mouseout"/>
                        </use>
                        <path d="M-4,0h8M0,-4v8" fill="none" stroke="white" stroke-width="1.5" pointer-events="none"/>
                </g>
                <g id="zoomMin">
                        <use xlink:href="#rim" fill="#404040">
                                <set attributeName="fill" to="#808080" begin="zoomminus.mouseover" end="zoomminus.mouseout"/>
                        </use>
                        <path d="M-4,0h8" fill="none" stroke="white" stroke-width="1.5" pointer-events="none"/>
                </g>
                <g id="dirArrow">
                        <path fill="none" stroke="white" stroke-width="1.5" d="M0,-3.0v7 M-2.5,-0.5L0,-3.0L2.5,-0.5"/>
                </g>
               <g id="resetDef">
                       <use xlink:href="#rim2" fill="#404040">
                               <set attributeName="fill" to="#808080" begin="reset.mouseover" end="reset.mouseout"/>
                       </use>
               </g>
        </defs>

<script type="text/javascript">
var viewWidth = 1630;
var viewHeight = 225;
var sectionId = 'dynsection-1';
</script>
<script xlink:href="svgpan.js"/>
<svg id="graph" class="graph">
<g id="viewport">
<title>Source/ARX/AR2/include/ARX/AR2/featureSet.h</title>
<!-- Node1 -->
<g id="node1" class="node">
<title>Node1</title>
<g id="a_node1"><a xlink:title=" ">
<polygon fill="#999999" stroke="#666666" points="636,-217 508,-217 508,-187 636,-187 636,-217"/>
<text text-anchor="start" x="516" y="-205" font-family="Helvetica,sans-Serif" font-size="10.00">Source/ARX/AR2/include</text>
<text text-anchor="middle" x="572" y="-194" font-family="Helvetica,sans-Serif" font-size="10.00">/ARX/AR2/featureSet.h</text>
</a>
</g>
</g>
<!-- Node2 -->
<g id="node2" class="node">
<title>Node2</title>
<g id="a_node2"><a xlink:href="feature_map_8c.html" target="_top" xlink:title=" ">
<polygon fill="white" stroke="#666666" points="154,-145.5 0,-145.5 0,-126.5 154,-126.5 154,-145.5"/>
<text text-anchor="middle" x="77" y="-133.5" font-family="Helvetica,sans-Serif" font-size="10.00">Source/ARX/AR2/featureMap.c</text>
</a>
</g>
</g>
<!-- Node1&#45;&gt;Node2 -->
<g id="edge1" class="edge">
<title>Node1&#45;&gt;Node2</title>
<path fill="none" stroke="#63b8ff" d="M496.55,-192.69C414.39,-183.42 279.17,-167.55 163,-151 152.37,-149.49 141.02,-147.73 130.17,-145.99"/>
<polygon fill="#63b8ff" stroke="#63b8ff" points="495.95,-196.14 506.28,-193.78 496.73,-189.18 495.95,-196.14"/>
</g>
<!-- Node3 -->
<g id="node3" class="node">
<title>Node3</title>
<g id="a_node3"><a xlink:href="feature_set_8c.html" target="_top" xlink:title=" ">
<polygon fill="white" stroke="#666666" points="322,-145.5 172,-145.5 172,-126.5 322,-126.5 322,-145.5"/>
<text text-anchor="middle" x="247" y="-133.5" font-family="Helvetica,sans-Serif" font-size="10.00">Source/ARX/AR2/featureSet.c</text>
</a>
</g>
</g>
<!-- Node1&#45;&gt;Node3 -->
<g id="edge2" class="edge">
<title>Node1&#45;&gt;Node3</title>
<path fill="none" stroke="#63b8ff" d="M496.68,-186.17C433.42,-173.71 345.13,-156.32 292.25,-145.91"/>
<polygon fill="#63b8ff" stroke="#63b8ff" points="495.82,-189.57 506.31,-188.06 497.17,-182.7 495.82,-189.57"/>
</g>
<!-- Node4 -->
<g id="node4" class="node">
<title>Node4</title>
<g id="a_node4"><a xlink:href="coord_8h.html" target="_top" xlink:title=" ">
<polygon fill="white" stroke="#666666" points="766,-85 638,-85 638,-55 766,-55 766,-85"/>
<text text-anchor="start" x="646" y="-73" font-family="Helvetica,sans-Serif" font-size="10.00">Source/ARX/AR2/include</text>
<text text-anchor="middle" x="702" y="-62" font-family="Helvetica,sans-Serif" font-size="10.00">/ARX/AR2/coord.h</text>
</a>
</g>
</g>
<!-- Node1&#45;&gt;Node4 -->
<g id="edge3" class="edge">
<title>Node1&#45;&gt;Node4</title>
<path fill="none" stroke="#63b8ff" d="M594.43,-178.57C621.13,-151.87 664.94,-108.06 687.53,-85.47"/>
<polygon fill="#63b8ff" stroke="#63b8ff" points="592.08,-175.97 587.48,-185.52 597.03,-180.92 592.08,-175.97"/>
</g>
<!-- Node6 -->
<g id="node6" class="node">
<title>Node6</title>
<g id="a_node6"><a xlink:href="search_point_8c.html" target="_top" xlink:title=" ">
<polygon fill="white" stroke="#666666" points="348.5,-19 191.5,-19 191.5,0 348.5,0 348.5,-19"/>
<text text-anchor="middle" x="270" y="-7" font-family="Helvetica,sans-Serif" font-size="10.00">Source/ARX/AR2/searchPoint.c</text>
</a>
</g>
</g>
<!-- Node1&#45;&gt;Node6 -->
<g id="edge29" class="edge">
<title>Node1&#45;&gt;Node6</title>
<path fill="none" stroke="#63b8ff" d="M534.5,-181.41C493.12,-159.38 424.95,-121.83 369,-85 335.76,-63.12 298.86,-33.96 280.95,-19.46"/>
<polygon fill="#63b8ff" stroke="#63b8ff" points="532.61,-184.37 543.09,-185.96 535.89,-178.19 532.61,-184.37"/>
</g>
<!-- Node7 -->
<g id="node7" class="node">
<title>Node7</title>
<g id="a_node7"><a xlink:href="surface_8c.html" target="_top" xlink:title=" ">
<polygon fill="white" stroke="#666666" points="819.5,-19 682.5,-19 682.5,0 819.5,0 819.5,-19"/>
<text text-anchor="middle" x="751" y="-7" font-family="Helvetica,sans-Serif" font-size="10.00">Source/ARX/AR2/surface.c</text>
</a>
</g>
</g>
<!-- Node1&#45;&gt;Node7 -->
<g id="edge30" class="edge">
<title>Node1&#45;&gt;Node7</title>
<path fill="none" stroke="#63b8ff" d="M575.4,-175.73C581.01,-143.52 595.19,-88.06 629,-55 647.7,-36.72 674.5,-25.86 698.22,-19.46"/>
<polygon fill="#63b8ff" stroke="#63b8ff" points="571.98,-174.93 573.88,-185.35 578.9,-176.02 571.98,-174.93"/>
</g>
<!-- Node8 -->
<g id="node8" class="node">
<title>Node8</title>
<g id="a_node8"><a xlink:href="template_8c.html" target="_top" xlink:title=" ">
<polygon fill="white" stroke="#666666" points="980.5,-19 837.5,-19 837.5,0 980.5,0 980.5,-19"/>
<text text-anchor="middle" x="909" y="-7" font-family="Helvetica,sans-Serif" font-size="10.00">Source/ARX/AR2/template.c</text>
</a>
</g>
</g>
<!-- Node1&#45;&gt;Node8 -->
<g id="edge31" class="edge">
<title>Node1&#45;&gt;Node8</title>
<path fill="none" stroke="#63b8ff" d="M607.19,-181.11C679.53,-140.21 842.43,-48.13 893.43,-19.3"/>
<polygon fill="#63b8ff" stroke="#63b8ff" points="605.91,-177.81 598.92,-185.78 609.35,-183.91 605.91,-177.81"/>
</g>
<!-- Node9 -->
<g id="node9" class="node">
<title>Node9</title>
<g id="a_node9"><a xlink:href="tracking_8c.html" target="_top" xlink:title=" ">
<polygon fill="white" stroke="#666666" points="1622,-19 1482,-19 1482,0 1622,0 1622,-19"/>
<text text-anchor="middle" x="1552" y="-7" font-family="Helvetica,sans-Serif" font-size="10.00">Source/ARX/AR2/tracking.c</text>
</a>
</g>
</g>
<!-- Node1&#45;&gt;Node9 -->
<g id="edge32" class="edge">
<title>Node1&#45;&gt;Node9</title>
<path fill="none" stroke="#63b8ff" d="M647.52,-197.28C750.57,-191.44 940.74,-177.87 1101,-151 1223.68,-130.43 1254.77,-123.68 1373,-85 1432.98,-65.37 1501.12,-34.53 1533.29,-19.43"/>
<polygon fill="#63b8ff" stroke="#63b8ff" points="647.61,-193.77 637.82,-197.83 648,-200.76 647.61,-193.77"/>
</g>
<!-- Node10 -->
<g id="node10" class="node">
<title>Node10</title>
<g id="a_node10"><a xlink:href="search_point_8h.html" target="_top" xlink:title=" ">
<polygon fill="white" stroke="#666666" points="506,-85 378,-85 378,-55 506,-55 506,-85"/>
<text text-anchor="start" x="386" y="-73" font-family="Helvetica,sans-Serif" font-size="10.00">Source/ARX/AR2/include</text>
<text text-anchor="middle" x="442" y="-62" font-family="Helvetica,sans-Serif" font-size="10.00">/ARX/AR2/searchPoint.h</text>
</a>
</g>
</g>
<!-- Node1&#45;&gt;Node10 -->
<g id="edge9" class="edge">
<title>Node1&#45;&gt;Node10</title>
<path fill="none" stroke="#63b8ff" d="M548.7,-178.9C539.67,-170.26 529.29,-160.23 520,-151 497.15,-128.31 471.14,-101.41 455.67,-85.3"/>
<polygon fill="#63b8ff" stroke="#63b8ff" points="546.11,-181.27 555.76,-185.64 550.94,-176.21 546.11,-181.27"/>
</g>
<!-- Node11 -->
<g id="node11" class="node">
<title>Node11</title>
<g id="a_node11"><a xlink:href="tracking2d_8c.html" target="_top" xlink:title=" ">
<polygon fill="white" stroke="#666666" points="517,-19 367,-19 367,0 517,0 517,-19"/>
<text text-anchor="middle" x="442" y="-7" font-family="Helvetica,sans-Serif" font-size="10.00">Source/ARX/AR2/tracking2d.c</text>
</a>
</g>
</g>
<!-- Node1&#45;&gt;Node11 -->
<g id="edge33" class="edge">
<title>Node1&#45;&gt;Node11</title>
<path fill="none" stroke="#63b8ff" d="M564.33,-175.83C552.85,-139.31 530.85,-73.91 515,-55 501.36,-38.74 480.18,-26.76 464.14,-19.35"/>
<polygon fill="#63b8ff" stroke="#63b8ff" points="560.91,-176.62 567.22,-185.13 567.6,-174.55 560.91,-176.62"/>
</g>
<!-- Node12 -->
<g id="node12" class="node">
<title>Node12</title>
<g id="a_node12"><a xlink:href="template_8h.html" target="_top" xlink:title=" ">
<polygon fill="white" stroke="#666666" points="1048,-151 920,-151 920,-121 1048,-121 1048,-151"/>
<text text-anchor="start" x="928" y="-139" font-family="Helvetica,sans-Serif" font-size="10.00">Source/ARX/AR2/include</text>
<text text-anchor="middle" x="984" y="-128" font-family="Helvetica,sans-Serif" font-size="10.00">/ARX/AR2/template.h</text>
</a>
</g>
</g>
<!-- Node1&#45;&gt;Node12 -->
<g id="edge12" class="edge">
<title>Node1&#45;&gt;Node12</title>
<path fill="none" stroke="#63b8ff" d="M647.57,-189.26C725.63,-177.14 846.12,-158.42 919.74,-146.98"/>
<polygon fill="#63b8ff" stroke="#63b8ff" points="647.21,-185.77 637.87,-190.77 648.29,-192.69 647.21,-185.77"/>
</g>
<!-- Node13 -->
<g id="node13" class="node">
<title>Node13</title>
<g id="a_node13"><a xlink:href="tracking_8h.html" target="_top" xlink:title=" ">
<polygon fill="white" stroke="#666666" points="1254,-85 1126,-85 1126,-55 1254,-55 1254,-85"/>
<text text-anchor="start" x="1134" y="-73" font-family="Helvetica,sans-Serif" font-size="10.00">Source/ARX/AR2/include</text>
<text text-anchor="middle" x="1190" y="-62" font-family="Helvetica,sans-Serif" font-size="10.00">/ARX/AR2/tracking.h</text>
</a>
</g>
</g>
<!-- Node1&#45;&gt;Node13 -->
<g id="edge28" class="edge">
<title>Node1&#45;&gt;Node13</title>
<path fill="none" stroke="#63b8ff" d="M647.76,-197.22C764.61,-190.72 983.08,-175.67 1057,-151 1101.73,-136.07 1147.46,-104.17 1171.91,-85.48"/>
<polygon fill="#63b8ff" stroke="#63b8ff" points="647.73,-193.72 637.94,-197.76 648.12,-200.71 647.73,-193.72"/>
</g>
<!-- Node5 -->
<g id="node5" class="node">
<title>Node5</title>
<g id="a_node5"><a xlink:href="coord_8c.html" target="_top" xlink:title=" ">
<polygon fill="white" stroke="#666666" points="664.5,-19 535.5,-19 535.5,0 664.5,0 664.5,-19"/>
<text text-anchor="middle" x="600" y="-7" font-family="Helvetica,sans-Serif" font-size="10.00">Source/ARX/AR2/coord.c</text>
</a>
</g>
</g>
<!-- Node4&#45;&gt;Node5 -->
<g id="edge4" class="edge">
<title>Node4&#45;&gt;Node5</title>
<path fill="none" stroke="#63b8ff" d="M666.86,-48.84C649.32,-38.79 629.02,-27.14 615.42,-19.35"/>
<polygon fill="#63b8ff" stroke="#63b8ff" points="665.06,-51.85 675.47,-53.79 668.54,-45.78 665.06,-51.85"/>
</g>
<!-- Node4&#45;&gt;Node6 -->
<g id="edge5" class="edge">
<title>Node4&#45;&gt;Node6</title>
<path fill="none" stroke="#63b8ff" d="M626.54,-58.78C544.49,-47.67 414.62,-30.08 336.34,-19.48"/>
<polygon fill="#63b8ff" stroke="#63b8ff" points="625.91,-62.23 636.29,-60.1 626.85,-55.29 625.91,-62.23"/>
</g>
<!-- Node4&#45;&gt;Node7 -->
<g id="edge6" class="edge">
<title>Node4&#45;&gt;Node7</title>
<path fill="none" stroke="#63b8ff" d="M721.32,-45.93C729.2,-36.53 737.82,-26.23 743.73,-19.18"/>
<polygon fill="#63b8ff" stroke="#63b8ff" points="718.82,-43.47 715.08,-53.38 724.19,-47.96 718.82,-43.47"/>
</g>
<!-- Node4&#45;&gt;Node8 -->
<g id="edge7" class="edge">
<title>Node4&#45;&gt;Node8</title>
<path fill="none" stroke="#63b8ff" d="M763.96,-51.49C801.32,-40.93 847.35,-27.92 877.39,-19.43"/>
<polygon fill="#63b8ff" stroke="#63b8ff" points="763.3,-48.04 754.63,-54.13 765.2,-54.78 763.3,-48.04"/>
</g>
<!-- Node4&#45;&gt;Node9 -->
<g id="edge8" class="edge">
<title>Node4&#45;&gt;Node9</title>
<path fill="none" stroke="#63b8ff" d="M777.72,-63.14C812,-60.55 853.04,-57.52 890,-55 1149,-37.36 1214.32,-40.89 1473,-19 1475.89,-18.76 1478.83,-18.49 1481.8,-18.22"/>
<polygon fill="#63b8ff" stroke="#63b8ff" points="777.59,-59.64 767.88,-63.89 778.12,-66.62 777.59,-59.64"/>
</g>
<!-- Node10&#45;&gt;Node6 -->
<g id="edge10" class="edge">
<title>Node10&#45;&gt;Node6</title>
<path fill="none" stroke="#63b8ff" d="M388.91,-50.94C358.16,-40.49 320.8,-27.78 296.26,-19.43"/>
<polygon fill="#63b8ff" stroke="#63b8ff" points="387.46,-54.15 398.05,-54.05 389.71,-47.52 387.46,-54.15"/>
</g>
<!-- Node10&#45;&gt;Node11 -->
<g id="edge11" class="edge">
<title>Node10&#45;&gt;Node11</title>
<path fill="none" stroke="#63b8ff" d="M442,-43.3C442,-34.65 442,-25.58 442,-19.18"/>
<polygon fill="#63b8ff" stroke="#63b8ff" points="438.5,-43.03 442,-53.03 445.5,-43.03 438.5,-43.03"/>
</g>
<!-- Node12&#45;&gt;Node7 -->
<g id="edge24" class="edge">
<title>Node12&#45;&gt;Node7</title>
<path fill="none" stroke="#63b8ff" d="M942.69,-115.74C923.74,-106.7 901.07,-95.61 881,-85 838.45,-62.51 789.51,-33.62 765.63,-19.32"/>
<polygon fill="#63b8ff" stroke="#63b8ff" points="941.17,-118.9 951.71,-120.02 944.17,-112.57 941.17,-118.9"/>
</g>
<!-- Node12&#45;&gt;Node8 -->
<g id="edge25" class="edge">
<title>Node12&#45;&gt;Node8</title>
<path fill="none" stroke="#63b8ff" d="M924.79,-115.77C911.02,-108.39 898.04,-98.39 890,-85 877.21,-63.72 893.04,-34.03 902.65,-19.39"/>
<polygon fill="#63b8ff" stroke="#63b8ff" points="923.02,-118.8 933.54,-120.04 926.08,-112.51 923.02,-118.8"/>
</g>
<!-- Node12&#45;&gt;Node9 -->
<g id="edge26" class="edge">
<title>Node12&#45;&gt;Node9</title>
<path fill="none" stroke="#63b8ff" d="M1059.47,-126.24C1124.88,-117.94 1221.82,-103.93 1305,-85 1387.32,-66.27 1482.33,-34.73 1526.71,-19.4"/>
<polygon fill="#63b8ff" stroke="#63b8ff" points="1059.43,-122.72 1049.95,-127.44 1060.3,-129.67 1059.43,-122.72"/>
</g>
<!-- Node12&#45;&gt;Node11 -->
<g id="edge27" class="edge">
<title>Node12&#45;&gt;Node11</title>
<path fill="none" stroke="#63b8ff" d="M908.3,-129.61C835.7,-123.22 723.5,-110.09 629,-85 612.24,-80.55 509.04,-38.21 463.53,-19.41"/>
<polygon fill="#63b8ff" stroke="#63b8ff" points="907.83,-133.09 918.09,-130.45 908.43,-126.11 907.83,-133.09"/>
</g>
<!-- Node12&#45;&gt;Node13 -->
<g id="edge13" class="edge">
<title>Node12&#45;&gt;Node13</title>
<path fill="none" stroke="#63b8ff" d="M1041.13,-117.25C1073.45,-107.21 1113.33,-94.82 1143.68,-85.39"/>
<polygon fill="#63b8ff" stroke="#63b8ff" points="1040.44,-113.8 1031.93,-120.11 1042.52,-120.48 1040.44,-113.8"/>
</g>
<!-- Node15 -->
<g id="node15" class="node">
<title>Node15</title>
<g id="a_node15"><a xlink:href="matching_8c.html" target="_top" xlink:title=" ">
<polygon fill="white" stroke="#666666" points="1143.5,-19 998.5,-19 998.5,0 1143.5,0 1143.5,-19"/>
<text text-anchor="middle" x="1071" y="-7" font-family="Helvetica,sans-Serif" font-size="10.00">Source/ARX/AR2/matching.c</text>
</a>
</g>
</g>
<!-- Node12&#45;&gt;Node15 -->
<g id="edge21" class="edge">
<title>Node12&#45;&gt;Node15</title>
<path fill="none" stroke="#63b8ff" d="M1044.22,-115.69C1058,-108.32 1070.94,-98.35 1079,-85 1091.64,-64.06 1081.4,-33.7 1075.07,-19.05"/>
<polygon fill="#63b8ff" stroke="#63b8ff" points="1042.93,-112.42 1035.47,-119.94 1045.99,-118.72 1042.93,-112.42"/>
</g>
<!-- Node16 -->
<g id="node16" class="node">
<title>Node16</title>
<g id="a_node16"><a xlink:href="matching2_8c.html" target="_top" xlink:title=" ">
<polygon fill="white" stroke="#666666" points="1464,-19 1314,-19 1314,0 1464,0 1464,-19"/>
<text text-anchor="middle" x="1389" y="-7" font-family="Helvetica,sans-Serif" font-size="10.00">Source/ARX/AR2/matching2.c</text>
</a>
</g>
</g>
<!-- Node12&#45;&gt;Node16 -->
<g id="edge22" class="edge">
<title>Node12&#45;&gt;Node16</title>
<path fill="none" stroke="#63b8ff" d="M1059.45,-128.82C1116.7,-122.39 1196.62,-109.66 1263,-85 1308.26,-68.19 1355.74,-35.29 1377.22,-19.45"/>
<polygon fill="#63b8ff" stroke="#63b8ff" points="1059.38,-125.31 1049.82,-129.86 1060.13,-132.27 1059.38,-125.31"/>
</g>
<!-- Node17 -->
<g id="node17" class="node">
<title>Node17</title>
<g id="a_node17"><a xlink:href="select_template_8c.html" target="_top" xlink:title=" ">
<polygon fill="white" stroke="#666666" points="1069.5,-79.5 898.5,-79.5 898.5,-60.5 1069.5,-60.5 1069.5,-79.5"/>
<text text-anchor="middle" x="984" y="-67.5" font-family="Helvetica,sans-Serif" font-size="10.00">Source/ARX/AR2/selectTemplate.c</text>
</a>
</g>
</g>
<!-- Node12&#45;&gt;Node17 -->
<g id="edge23" class="edge">
<title>Node12&#45;&gt;Node17</title>
<path fill="none" stroke="#63b8ff" d="M984,-109.59C984,-99.06 984,-87.53 984,-79.84"/>
<polygon fill="#63b8ff" stroke="#63b8ff" points="980.5,-109.28 984,-119.28 987.5,-109.28 980.5,-109.28"/>
</g>
<!-- Node13&#45;&gt;Node7 -->
<g id="edge17" class="edge">
<title>Node13&#45;&gt;Node7</title>
<path fill="none" stroke="#63b8ff" d="M1114.53,-58.94C1031.2,-47.84 898.29,-30.13 818.36,-19.48"/>
<polygon fill="#63b8ff" stroke="#63b8ff" points="1113.82,-62.38 1124.2,-60.23 1114.75,-55.44 1113.82,-62.38"/>
</g>
<!-- Node13&#45;&gt;Node8 -->
<g id="edge18" class="edge">
<title>Node13&#45;&gt;Node8</title>
<path fill="none" stroke="#63b8ff" d="M1114.36,-53.25C1062.41,-42.44 995.31,-28.47 952.2,-19.49"/>
<polygon fill="#63b8ff" stroke="#63b8ff" points="1113.55,-56.66 1124.05,-55.27 1114.97,-49.81 1113.55,-56.66"/>
</g>
<!-- Node13&#45;&gt;Node9 -->
<g id="edge19" class="edge">
<title>Node13&#45;&gt;Node9</title>
<path fill="none" stroke="#63b8ff" d="M1265.51,-56.8C1334.47,-45.65 1434.79,-29.44 1496.59,-19.45"/>
<polygon fill="#63b8ff" stroke="#63b8ff" points="1265.11,-53.32 1255.8,-58.37 1266.23,-60.23 1265.11,-53.32"/>
</g>
<!-- Node13&#45;&gt;Node11 -->
<g id="edge20" class="edge">
<title>Node13&#45;&gt;Node11</title>
<path fill="none" stroke="#63b8ff" d="M1114.3,-58.83C1102.5,-57.43 1090.43,-56.09 1079,-55 833.82,-31.58 771.45,-39.4 526,-19 523.08,-18.76 520.1,-18.5 517.09,-18.23"/>
<polygon fill="#63b8ff" stroke="#63b8ff" points="1113.66,-62.28 1124.01,-60.01 1114.5,-55.33 1113.66,-62.28"/>
</g>
<!-- Node14 -->
<g id="node14" class="node">
<title>Node14</title>
<g id="a_node14"><a xlink:href="handle_8c.html" target="_top" xlink:title=" ">
<polygon fill="white" stroke="#666666" points="1296,-19 1162,-19 1162,0 1296,0 1296,-19"/>
<text text-anchor="middle" x="1229" y="-7" font-family="Helvetica,sans-Serif" font-size="10.00">Source/ARX/AR2/handle.c</text>
</a>
</g>
</g>
<!-- Node13&#45;&gt;Node14 -->
<g id="edge14" class="edge">
<title>Node13&#45;&gt;Node14</title>
<path fill="none" stroke="#63b8ff" d="M1205.96,-45.06C1212.07,-35.9 1218.66,-26.01 1223.22,-19.18"/>
<polygon fill="#63b8ff" stroke="#63b8ff" points="1203.11,-43.02 1200.48,-53.28 1208.94,-46.9 1203.11,-43.02"/>
</g>
<!-- Node13&#45;&gt;Node15 -->
<g id="edge15" class="edge">
<title>Node13&#45;&gt;Node15</title>
<path fill="none" stroke="#63b8ff" d="M1150.43,-49.55C1129.66,-39.34 1105.22,-27.32 1088.99,-19.35"/>
<polygon fill="#63b8ff" stroke="#63b8ff" points="1148.71,-52.6 1159.23,-53.87 1151.8,-46.32 1148.71,-52.6"/>
</g>
<!-- Node13&#45;&gt;Node16 -->
<g id="edge16" class="edge">
<title>Node13&#45;&gt;Node16</title>
<path fill="none" stroke="#63b8ff" d="M1250.03,-51.35C1285.86,-40.82 1329.85,-27.89 1358.62,-19.43"/>
<polygon fill="#63b8ff" stroke="#63b8ff" points="1249.25,-47.93 1240.64,-54.11 1251.22,-54.65 1249.25,-47.93"/>
</g>
</g>
</svg>
        <g id="navigator" transform="translate(0 0)" fill="#404254">
                <rect fill="#f2f5e9" fill-opacity="0.5" stroke="#606060" stroke-width=".5" x="0" y="0" width="60" height="60"/>
                <use id="zoomplus" xlink:href="#zoomPlus" x="17" y="9" onmousedown="handleZoom(evt,'in')"/>
                <use id="zoomminus" xlink:href="#zoomMin" x="42" y="9" onmousedown="handleZoom(evt,'out')"/>
                <use id="reset" xlink:href="#resetDef" x="30" y="36" onmousedown="handleReset()"/>
                <g id="arrowUp" xlink:href="#dirArrow" transform="translate(30 24)" onmousedown="handlePan(0,-1)">
                  <use xlink:href="#rim" fill="#404040">
                        <set attributeName="fill" to="#808080" begin="arrowUp.mouseover" end="arrowUp.mouseout"/>
                  </use>
                  <path fill="none" stroke="white" stroke-width="1.5" d="M0,-3.0v7 M-2.5,-0.5L0,-3.0L2.5,-0.5"/>
                </g>
                <g id="arrowRight" xlink:href="#dirArrow" transform="rotate(90) translate(36 -43)" onmousedown="handlePan(1,0)">
                  <use xlink:href="#rim" fill="#404040">
                        <set attributeName="fill" to="#808080" begin="arrowRight.mouseover" end="arrowRight.mouseout"/>
                  </use>
                  <path fill="none" stroke="white" stroke-width="1.5" d="M0,-3.0v7 M-2.5,-0.5L0,-3.0L2.5,-0.5"/>
                </g>
                <g id="arrowDown" xlink:href="#dirArrow" transform="rotate(180) translate(-30 -48)" onmousedown="handlePan(0,1)">
                  <use xlink:href="#rim" fill="#404040">
                        <set attributeName="fill" to="#808080" begin="arrowDown.mouseover" end="arrowDown.mouseout"/>
                  </use>
                  <path fill="none" stroke="white" stroke-width="1.5" d="M0,-3.0v7 M-2.5,-0.5L0,-3.0L2.5,-0.5"/>
                </g>
                <g id="arrowLeft" xlink:href="#dirArrow" transform="rotate(270) translate(-36 17)" onmousedown="handlePan(-1,0)">
                  <use xlink:href="#rim" fill="#404040">
                        <set attributeName="fill" to="#808080" begin="arrowLeft.mouseover" end="arrowLeft.mouseout"/>
                  </use>
                  <path fill="none" stroke="white" stroke-width="1.5" d="M0,-3.0v7 M-2.5,-0.5L0,-3.0L2.5,-0.5"/>
                </g>
        </g>
        <svg viewBox="0 0 15 15" width="100%" height="30px" preserveAspectRatio="xMaxYMin meet">
         <g id="arrow_out" transform="scale(0.3 0.3)">
          <a xlink:href="feature_set_8h__dep__incl_org.svg" target="_base">
           <rect id="button" ry="5" rx="5" y="6" x="6" height="38" width="38"
                fill="#f2f5e9" fill-opacity="0.5" stroke="#606060" stroke-width="1.0"/>
           <path id="arrow"
             d="M 11.500037,31.436501 C 11.940474,20.09759 22.043105,11.32322 32.158766,21.979434 L 37.068811,17.246167 C 37.068811,17.246167 37.088388,32 37.088388,32 L 22.160133,31.978069 C 22.160133,31.978069 26.997745,27.140456 26.997745,27.140456 C 18.528582,18.264221 13.291696,25.230495 11.500037,31.436501 z"
             style="fill:#404040;"/>
          </a>
         </g>
        </svg>
</svg>
