<?xml version="1.0" encoding="UTF-8" standalone="no"?>
<!DOCTYPE svg PUBLIC "-//W3C//DTD SVG 1.1//EN"
 "http://www.w3.org/Graphics/SVG/1.1/DTD/svg11.dtd">
<!-- Generated by graphviz version 8.0.5 (20230430.1635)
 -->
<!-- Title: sha1 Pages: 1 -->
<svg width="256pt" height="156pt"
 viewBox="0.00 0.00 255.50 155.85" xmlns="http://www.w3.org/2000/svg" xmlns:xlink="http://www.w3.org/1999/xlink">
<g id="graph0" class="graph" transform="scale(1 1) rotate(0) translate(4 151.85)">
<title>sha1</title>
<!-- Node1 -->
<g id="node1" class="node">
<title>Node1</title>
<g id="a_node1"><a xlink:title=" ">
<polygon fill="#999999" stroke="#666666" points="37,-73.85 0,-73.85 0,-54.6 37,-54.6 37,-73.85"/>
<text text-anchor="middle" x="18.5" y="-60.35" font-family="Helvetica,sans-Serif" font-size="10.00">sha1</text>
</a>
</g>
</g>
<!-- Node1&#45;&gt;Node1 -->
<g id="edge1" class="edge">
<title>Node1&#45;&gt;Node1</title>
<path fill="none" stroke="#63b8ff" d="M4.14,-74.14C-2.42,-82.74 2.37,-91.85 18.5,-91.85 27.57,-91.85 33.06,-88.97 34.95,-84.92"/>
<polygon fill="#63b8ff" stroke="#63b8ff" points="38.2,-84.29 32.86,-75.14 31.33,-85.62 38.2,-84.29"/>
</g>
<!-- Node2 -->
<g id="node2" class="node">
<title>Node2</title>
<g id="a_node2"><a xlink:href="uuid__sha1_8c.html#ab67a9bfa1bf1efee5bbf35328e57ea3f" target="_top" xlink:title=" ">
<polygon fill="white" stroke="#666666" points="144.88,-147.85 75.62,-147.85 75.62,-128.6 144.88,-128.6 144.88,-147.85"/>
<text text-anchor="middle" x="110.25" y="-134.35" font-family="Helvetica,sans-Serif" font-size="10.00">sha1_create</text>
</a>
</g>
</g>
<!-- Node1&#45;&gt;Node2 -->
<g id="edge2" class="edge">
<title>Node1&#45;&gt;Node2</title>
<path fill="none" stroke="#63b8ff" d="M33.6,-74.35C43.68,-84.81 58.06,-100.22 73,-111.22 78.79,-115.49 85.75,-119.22 92.01,-122.74"/>
<polygon fill="#63b8ff" stroke="#63b8ff" points="89.64,-126 100.02,-128.14 93.24,-120 89.64,-126"/>
</g>
<!-- Node3 -->
<g id="node3" class="node">
<title>Node3</title>
<g id="a_node3"><a xlink:href="uuid__sha1_8c.html#aede70db5174811e6e0ada2cbb5a0d55f" target="_top" xlink:title=" ">
<polygon fill="white" stroke="#666666" points="147.5,-110.85 73,-110.85 73,-91.6 147.5,-91.6 147.5,-110.85"/>
<text text-anchor="middle" x="110.25" y="-97.35" font-family="Helvetica,sans-Serif" font-size="10.00">sha1_destroy</text>
</a>
</g>
</g>
<!-- Node1&#45;&gt;Node3 -->
<g id="edge4" class="edge">
<title>Node1&#45;&gt;Node3</title>
<path fill="none" stroke="#63b8ff" d="M37.23,-66.03C51.51,-70.41 71.66,-78.58 87.02,-86.14"/>
<polygon fill="#63b8ff" stroke="#63b8ff" points="85.27,-89.7 95.75,-91.22 88.51,-83.49 85.27,-89.7"/>
</g>
<!-- Node4 -->
<g id="node4" class="node">
<title>Node4</title>
<g id="a_node4"><a xlink:href="uuid__sha1_8c.html#a0e60ab6c0f20b8aa05daf5cae62e3eff" target="_top" xlink:title=" ">
<polygon fill="white" stroke="#666666" points="145.25,-73.85 75.25,-73.85 75.25,-54.6 145.25,-54.6 145.25,-73.85"/>
<text text-anchor="middle" x="110.25" y="-60.35" font-family="Helvetica,sans-Serif" font-size="10.00">sha1_format</text>
</a>
</g>
</g>
<!-- Node1&#45;&gt;Node4 -->
<g id="edge6" class="edge">
<title>Node1&#45;&gt;Node4</title>
<path fill="none" stroke="#63b8ff" d="M37.23,-58.72C45.03,-57.9 54.57,-57.48 64.13,-57.47"/>
<polygon fill="#63b8ff" stroke="#63b8ff" points="63.78,-60.98 73.84,-57.64 63.89,-53.99 63.78,-60.98"/>
</g>
<!-- Node6 -->
<g id="node6" class="node">
<title>Node6</title>
<g id="a_node6"><a xlink:href="uuid__sha1_8c.html#a152fc0706a85a3cece272dc068899c8f" target="_top" xlink:title=" ">
<polygon fill="white" stroke="#666666" points="146,-36.85 74.5,-36.85 74.5,-17.6 146,-17.6 146,-36.85"/>
<text text-anchor="middle" x="110.25" y="-23.35" font-family="Helvetica,sans-Serif" font-size="10.00">sha1_update</text>
</a>
</g>
</g>
<!-- Node1&#45;&gt;Node6 -->
<g id="edge10" class="edge">
<title>Node1&#45;&gt;Node6</title>
<path fill="none" stroke="#63b8ff" d="M31.98,-54.23C40.48,-49.47 52.31,-43.95 64.16,-39.06"/>
<polygon fill="#63b8ff" stroke="#63b8ff" points="65.05,-42.08 73.04,-35.13 62.46,-35.57 65.05,-42.08"/>
</g>
<!-- Node2&#45;&gt;Node1 -->
<g id="edge3" class="edge">
<title>Node2&#45;&gt;Node1</title>
<path fill="none" stroke="#63b8ff" d="M75.44,-130.94C74.61,-130.38 73.79,-129.81 73,-129.22 55.58,-116.4 38.93,-97.58 28.96,-83.13"/>
<polygon fill="#63b8ff" stroke="#63b8ff" points="31.47,-81.56 23.19,-74.95 25.55,-85.28 31.47,-81.56"/>
</g>
<!-- Node3&#45;&gt;Node1 -->
<g id="edge5" class="edge">
<title>Node3&#45;&gt;Node1</title>
<path fill="none" stroke="#63b8ff" d="M72.86,-92.86C62.3,-88.78 51.1,-83.92 41.7,-79.29"/>
<polygon fill="#63b8ff" stroke="#63b8ff" points="43.46,-75.74 32.98,-74.21 40.22,-81.95 43.46,-75.74"/>
</g>
<!-- Node4&#45;&gt;Node1 -->
<g id="edge7" class="edge">
<title>Node4&#45;&gt;Node1</title>
<path fill="none" stroke="#63b8ff" d="M74.84,-70.81C66.01,-71.09 56.62,-71.01 48.12,-70.56"/>
<polygon fill="#63b8ff" stroke="#63b8ff" points="48.47,-67 38.23,-69.73 47.93,-73.98 48.47,-67"/>
</g>
<!-- Node5 -->
<g id="node5" class="node">
<title>Node5</title>
<g id="a_node5"><a xlink:href="uuid__sha1_8c.html#a7e666253d64563cacddb6b464a0c0d9e" target="_top" xlink:title=" ">
<polygon fill="white" stroke="#666666" points="247.5,-35.85 183.5,-35.85 183.5,-16.6 247.5,-16.6 247.5,-35.85"/>
<text text-anchor="middle" x="215.5" y="-22.35" font-family="Helvetica,sans-Serif" font-size="10.00">sha1_store</text>
</a>
</g>
</g>
<!-- Node4&#45;&gt;Node5 -->
<g id="edge8" class="edge">
<title>Node4&#45;&gt;Node5</title>
<path fill="none" stroke="#63b8ff" d="M138.65,-54.14C150.41,-49.81 164.34,-44.68 177.04,-40.01"/>
<polygon fill="#63b8ff" stroke="#63b8ff" points="178.16,-42.96 186.33,-36.22 175.74,-36.39 178.16,-42.96"/>
</g>
<!-- Node5&#45;&gt;Node1 -->
<g id="edge9" class="edge">
<title>Node5&#45;&gt;Node1</title>
<path fill="none" stroke="#63b8ff" d="M191.19,-16.18C162.28,-5.28 112.05,8.48 73,-8.22 55.29,-15.8 40.65,-32.43 31.19,-45.61"/>
<polygon fill="#63b8ff" stroke="#63b8ff" points="27.94,-43.17 25.24,-53.42 33.74,-47.08 27.94,-43.17"/>
</g>
<!-- Node6&#45;&gt;Node1 -->
<g id="edge11" class="edge">
<title>Node6&#45;&gt;Node1</title>
<path fill="none" stroke="#63b8ff" d="M96.75,-37.22C84.06,-44.34 63.96,-53.11 47.45,-59"/>
<polygon fill="#63b8ff" stroke="#63b8ff" points="46.61,-55.93 38.23,-62.42 48.83,-62.57 46.61,-55.93"/>
</g>
</g>
</svg>
