<?xml version="1.0" encoding="UTF-8" standalone="no"?>
<!DOCTYPE svg PUBLIC "-//W3C//DTD SVG 1.1//EN"
 "http://www.w3.org/Graphics/SVG/1.1/DTD/svg11.dtd">
<!-- Generated by graphviz version 7.0.5 (20221223.1930)
 -->
<!-- Title: zip_od Pages: 1 -->
<!--zoomable 204 -->
<svg id="main" version="1.1" xmlns="http://www.w3.org/2000/svg" xmlns:xlink="http://www.w3.org/1999/xlink" xml:space="preserve" onload="init(evt)">
<style type="text/css"><![CDATA[
.edge:hover path { stroke: red; }
.edge:hover polygon { stroke: red; fill: red; }
]]></style>
<script type="text/javascript"><![CDATA[
var edges = document.getElementsByTagName('g');
if (edges && edges.length) {
  for (var i=0;i<edges.length;i++) {
    if (edges[i].id.substr(0,4)=='edge') {
      edges[i].setAttribute('class','edge');
    }
  }
}
]]></script>
        <defs>
                <circle id="rim" cx="0" cy="0" r="7"/>
                <circle id="rim2" cx="0" cy="0" r="3.5"/>
                <g id="zoomPlus">
                        <use xlink:href="#rim" fill="#404040">
                                <set attributeName="fill" to="#808080" begin="zoomplus.mouseover" end="zoomplus.mouseout"/>
                        </use>
                        <path d="M-4,0h8M0,-4v8" fill="none" stroke="white" stroke-width="1.5" pointer-events="none"/>
                </g>
                <g id="zoomMin">
                        <use xlink:href="#rim" fill="#404040">
                                <set attributeName="fill" to="#808080" begin="zoomminus.mouseover" end="zoomminus.mouseout"/>
                        </use>
                        <path d="M-4,0h8" fill="none" stroke="white" stroke-width="1.5" pointer-events="none"/>
                </g>
                <g id="dirArrow">
                        <path fill="none" stroke="white" stroke-width="1.5" d="M0,-3.0v7 M-2.5,-0.5L0,-3.0L2.5,-0.5"/>
                </g>
               <g id="resetDef">
                       <use xlink:href="#rim2" fill="#404040">
                               <set attributeName="fill" to="#808080" begin="reset.mouseover" end="reset.mouseout"/>
                       </use>
               </g>
        </defs>

<script type="text/javascript">
var viewWidth = 972;
var viewHeight = 204;
var sectionId = 'dynsection-5';
</script>
<script xlink:href="svgpan.js"/>
<svg id="graph" class="graph">
<g id="viewport">
<title>zip_od</title>
<!-- Node1 -->
<g id="node1" class="node">
<title>Node1</title>
<g id="a_node1"><a xlink:title=" ">
<polygon fill="#999999" stroke="#666666" points="45,-112 0,-112 0,-93 45,-93 45,-112"/>
<text text-anchor="middle" x="22.5" y="-100" font-family="Helvetica,sans-Serif" font-size="10.00">zip_od</text>
</a>
</g>
</g>
<!-- Node2 -->
<g id="node2" class="node">
<title>Node2</title>
<g id="a_node2"><a xlink:href="zip_8c.html#a4fda7a41fa2f57d105ffc7d1cbcf53cc" target="_top" xlink:title=" ">
<polygon fill="white" stroke="#666666" points="163.5,-150 108.5,-150 108.5,-131 163.5,-131 163.5,-150"/>
<text text-anchor="middle" x="136" y="-138" font-family="Helvetica,sans-Serif" font-size="10.00">zipClose</text>
</a>
</g>
</g>
<!-- Node1&#45;&gt;Node2 -->
<g id="edge1" class="edge">
<title>Node1&#45;&gt;Node2</title>
<path fill="none" stroke="#63b8ff" d="M45.26,-109.92C60.17,-115 80.31,-121.86 97.74,-127.8"/>
<polygon fill="#63b8ff" stroke="#63b8ff" points="96.14,-130.96 106.74,-130.87 98.4,-124.33 96.14,-130.96"/>
</g>
<!-- Node5 -->
<g id="node5" class="node">
<title>Node5</title>
<g id="a_node5"><a xlink:href="zip_8c.html#ae470f753aef4cffe4f77a5ec2bcfbde1" target="_top" xlink:title=" ">
<polygon fill="white" stroke="#666666" points="650.5,-153 558.5,-153 558.5,-134 650.5,-134 650.5,-153"/>
<text text-anchor="middle" x="604.5" y="-141" font-family="Helvetica,sans-Serif" font-size="10.00">zipCloseFileInZip</text>
</a>
</g>
</g>
<!-- Node1&#45;&gt;Node5 -->
<g id="edge7" class="edge">
<title>Node1&#45;&gt;Node5</title>
<path fill="none" stroke="#63b8ff" d="M29.85,-112.43C39.16,-125.99 57.96,-149.74 81,-159.5 246.25,-229.52 467.98,-181.82 560.32,-156.48"/>
<polygon fill="#63b8ff" stroke="#63b8ff" points="561.05,-159.91 569.73,-153.85 559.16,-153.17 561.05,-159.91"/>
</g>
<!-- Node8 -->
<g id="node8" class="node">
<title>Node8</title>
<g id="a_node8"><a xlink:href="zip_8c.html#a0370a21cb99a27cf66468e32fb22620f" target="_top" xlink:title=" ">
<polygon fill="white" stroke="#666666" points="162.5,-75 109.5,-75 109.5,-56 162.5,-56 162.5,-75"/>
<text text-anchor="middle" x="136" y="-63" font-family="Helvetica,sans-Serif" font-size="10.00">zipOpen</text>
</a>
</g>
</g>
<!-- Node1&#45;&gt;Node8 -->
<g id="edge8" class="edge">
<title>Node1&#45;&gt;Node8</title>
<path fill="none" stroke="#63b8ff" d="M45.26,-95.28C60.41,-90.25 80.97,-83.43 98.59,-77.58"/>
<polygon fill="#63b8ff" stroke="#63b8ff" points="99.56,-80.95 107.95,-74.48 97.35,-74.3 99.56,-80.95"/>
</g>
<!-- Node13 -->
<g id="node13" class="node">
<title>Node13</title>
<g id="a_node13"><a xlink:href="zip_8c.html#a5c9334b17b8edf2f11e4c2e11135f7ea" target="_top" xlink:title=" ">
<polygon fill="white" stroke="#666666" points="191,-112 81,-112 81,-93 191,-93 191,-112"/>
<text text-anchor="middle" x="136" y="-100" font-family="Helvetica,sans-Serif" font-size="10.00">zipOpenNewFileInZip</text>
</a>
</g>
</g>
<!-- Node1&#45;&gt;Node13 -->
<g id="edge13" class="edge">
<title>Node1&#45;&gt;Node13</title>
<path fill="none" stroke="#63b8ff" d="M45.26,-102.5C52.4,-102.5 60.74,-102.5 69.41,-102.5"/>
<polygon fill="#63b8ff" stroke="#63b8ff" points="69.41,-106 79.41,-102.5 69.41,-99 69.41,-106"/>
</g>
<!-- Node20 -->
<g id="node20" class="node">
<title>Node20</title>
<g id="a_node20"><a xlink:href="zip_8c.html#a1a39e7f39496c5f7a6ae1acde29571ce" target="_top" xlink:title=" ">
<polygon fill="white" stroke="#666666" points="185,-38 87,-38 87,-19 185,-19 185,-38"/>
<text text-anchor="middle" x="136" y="-26" font-family="Helvetica,sans-Serif" font-size="10.00">zipWriteInFileInZip</text>
</a>
</g>
</g>
<!-- Node1&#45;&gt;Node20 -->
<g id="edge22" class="edge">
<title>Node1&#45;&gt;Node20</title>
<path fill="none" stroke="#63b8ff" d="M31.04,-92.83C41.17,-80.45 60.29,-59.11 81,-46.5 83.01,-45.28 85.12,-44.12 87.28,-43.04"/>
<polygon fill="#63b8ff" stroke="#63b8ff" points="88.56,-46.3 96.31,-39.07 85.75,-39.89 88.56,-46.3"/>
</g>
<!-- Node3 -->
<g id="node3" class="node">
<title>Node3</title>
<g id="a_node3"><a xlink:href="zip_8c.html#a18716652c41032ddf0dc2d0042edfcf9" target="_top" xlink:title=" ">
<polygon fill="white" stroke="#666666" points="328,-153 257,-153 257,-134 328,-134 328,-153"/>
<text text-anchor="middle" x="292.5" y="-141" font-family="Helvetica,sans-Serif" font-size="10.00">zipClose_64</text>
</a>
</g>
</g>
<!-- Node2&#45;&gt;Node3 -->
<g id="edge2" class="edge">
<title>Node2&#45;&gt;Node3</title>
<path fill="none" stroke="#63b8ff" d="M163.91,-141.02C186.35,-141.46 218.84,-142.09 245.41,-142.61"/>
<polygon fill="#63b8ff" stroke="#63b8ff" points="245.19,-146.1 255.25,-142.8 245.32,-139.1 245.19,-146.1"/>
</g>
<!-- Node4 -->
<g id="node4" class="node">
<title>Node4</title>
<g id="a_node4"><a xlink:href="zip_8c.html#a196f81458eca5e5951085bdf1399a4c9" target="_top" xlink:title=" ">
<polygon fill="white" stroke="#666666" points="493.5,-153 417.5,-153 417.5,-134 493.5,-134 493.5,-153"/>
<text text-anchor="middle" x="455.5" y="-141" font-family="Helvetica,sans-Serif" font-size="10.00">zipClose2_64</text>
</a>
</g>
</g>
<!-- Node3&#45;&gt;Node4 -->
<g id="edge3" class="edge">
<title>Node3&#45;&gt;Node4</title>
<path fill="none" stroke="#63b8ff" d="M328.43,-143.5C351.03,-143.5 380.76,-143.5 405.68,-143.5"/>
<polygon fill="#63b8ff" stroke="#63b8ff" points="405.6,-147 415.6,-143.5 405.6,-140 405.6,-147"/>
</g>
<!-- Node4&#45;&gt;Node5 -->
<g id="edge4" class="edge">
<title>Node4&#45;&gt;Node5</title>
<path fill="none" stroke="#63b8ff" d="M493.97,-143.5C510.02,-143.5 529.12,-143.5 546.83,-143.5"/>
<polygon fill="#63b8ff" stroke="#63b8ff" points="546.72,-147 556.72,-143.5 546.72,-140 546.72,-147"/>
</g>
<!-- Node6 -->
<g id="node6" class="node">
<title>Node6</title>
<g id="a_node6"><a xlink:href="zip_8c.html#ac90ee507f85e5f6586a2bfe90aad5ddc" target="_top" xlink:title=" ">
<polygon fill="white" stroke="#666666" points="805,-153 692,-153 692,-134 805,-134 805,-153"/>
<text text-anchor="middle" x="748.5" y="-141" font-family="Helvetica,sans-Serif" font-size="10.00">zipCloseFileInZipRaw</text>
</a>
</g>
</g>
<!-- Node5&#45;&gt;Node6 -->
<g id="edge5" class="edge">
<title>Node5&#45;&gt;Node6</title>
<path fill="none" stroke="#63b8ff" d="M650.82,-143.5C660.26,-143.5 670.39,-143.5 680.42,-143.5"/>
<polygon fill="#63b8ff" stroke="#63b8ff" points="680.14,-147 690.14,-143.5 680.14,-140 680.14,-147"/>
</g>
<!-- Node7 -->
<g id="node7" class="node">
<title>Node7</title>
<g id="a_node7"><a xlink:href="zip_8c.html#abed3466e1d5d1e4af5c0fdb68fec9fd2" target="_top" xlink:title=" ">
<polygon fill="white" stroke="#666666" points="964,-153 841,-153 841,-134 964,-134 964,-153"/>
<text text-anchor="middle" x="902.5" y="-141" font-family="Helvetica,sans-Serif" font-size="10.00">zipCloseFileInZipRaw64</text>
</a>
</g>
</g>
<!-- Node6&#45;&gt;Node7 -->
<g id="edge6" class="edge">
<title>Node6&#45;&gt;Node7</title>
<path fill="none" stroke="#63b8ff" d="M805.24,-143.5C813.07,-143.5 821.21,-143.5 829.29,-143.5"/>
<polygon fill="#63b8ff" stroke="#63b8ff" points="829.13,-147 839.13,-143.5 829.13,-140 829.13,-147"/>
</g>
<!-- Node9 -->
<g id="node9" class="node">
<title>Node9</title>
<g id="a_node9"><a xlink:href="zip_8c.html#aa1b472c66e7ac205fbb86ac0950cebe1" target="_top" xlink:title=" ">
<polygon fill="white" stroke="#666666" points="321.5,-62 263.5,-62 263.5,-43 321.5,-43 321.5,-62"/>
<text text-anchor="middle" x="292.5" y="-50" font-family="Helvetica,sans-Serif" font-size="10.00">zipOpen3</text>
</a>
</g>
</g>
<!-- Node8&#45;&gt;Node9 -->
<g id="edge9" class="edge">
<title>Node8&#45;&gt;Node9</title>
<path fill="none" stroke="#63b8ff" d="M162.86,-63.32C187.14,-61.28 223.81,-58.2 251.8,-55.84"/>
<polygon fill="#63b8ff" stroke="#63b8ff" points="252.02,-59.33 261.69,-55.01 251.43,-52.36 252.02,-59.33"/>
</g>
<!-- Node10 -->
<g id="node10" class="node">
<title>Node10</title>
<g id="a_node10"><a xlink:href="ioapi_8c.html#a0c90747a8b732158bc3666411776affe" target="_top" xlink:title=" ">
<polygon fill="white" stroke="#666666" points="517,-67.5 394,-67.5 394,-37.5 517,-37.5 517,-67.5"/>
<text text-anchor="start" x="402" y="-55.5" font-family="Helvetica,sans-Serif" font-size="10.00">fill_zlib_filefunc64</text>
<text text-anchor="middle" x="455.5" y="-44.5" font-family="Helvetica,sans-Serif" font-size="10.00">_32_def_from_filefunc32</text>
</a>
</g>
</g>
<!-- Node9&#45;&gt;Node10 -->
<g id="edge10" class="edge">
<title>Node9&#45;&gt;Node10</title>
<path fill="none" stroke="#63b8ff" d="M321.91,-52.5C338.75,-52.5 360.91,-52.5 382.28,-52.5"/>
<polygon fill="#63b8ff" stroke="#63b8ff" points="382.18,-56 392.18,-52.5 382.18,-49 382.18,-56"/>
</g>
<!-- Node11 -->
<g id="node11" class="node">
<title>Node11</title>
<g id="a_node11"><a xlink:href="zip_8c.html#addcccf3eebcef825f7f46a5a5cdda18a" target="_top" xlink:title=" ">
<polygon fill="white" stroke="#666666" points="484.5,-19 426.5,-19 426.5,0 484.5,0 484.5,-19"/>
<text text-anchor="middle" x="455.5" y="-7" font-family="Helvetica,sans-Serif" font-size="10.00">zipOpen4</text>
</a>
</g>
</g>
<!-- Node9&#45;&gt;Node11 -->
<g id="edge11" class="edge">
<title>Node9&#45;&gt;Node11</title>
<path fill="none" stroke="#63b8ff" d="M321.91,-44.91C347.81,-37.99 386.32,-27.71 415.17,-20"/>
<polygon fill="#63b8ff" stroke="#63b8ff" points="415.88,-23.44 424.64,-17.48 414.07,-16.67 415.88,-23.44"/>
</g>
<!-- Node12 -->
<g id="node12" class="node">
<title>Node12</title>
<g id="a_node12"><a xlink:href="ioapi_8c.html#aa67e4de04de04bf2d1694febd74bd16f" target="_top" xlink:title=" ">
<polygon fill="white" stroke="#666666" points="656,-19 553,-19 553,0 656,0 656,-19"/>
<text text-anchor="middle" x="604.5" y="-7" font-family="Helvetica,sans-Serif" font-size="10.00">fill_fopen64_filefunc</text>
</a>
</g>
</g>
<!-- Node11&#45;&gt;Node12 -->
<g id="edge12" class="edge">
<title>Node11&#45;&gt;Node12</title>
<path fill="none" stroke="#63b8ff" d="M484.84,-9.5C500.88,-9.5 521.61,-9.5 541.24,-9.5"/>
<polygon fill="#63b8ff" stroke="#63b8ff" points="541.11,-13 551.11,-9.5 541.11,-6 541.11,-13"/>
</g>
<!-- Node14 -->
<g id="node14" class="node">
<title>Node14</title>
<g id="a_node14"><a xlink:href="zip_8c.html#a7917960fac517a601d5b9705cd5bab96" target="_top" xlink:title=" ">
<polygon fill="white" stroke="#666666" points="358,-111 227,-111 227,-92 358,-92 358,-111"/>
<text text-anchor="middle" x="292.5" y="-99" font-family="Helvetica,sans-Serif" font-size="10.00">zipOpenNewFileInZip4_64</text>
</a>
</g>
</g>
<!-- Node13&#45;&gt;Node14 -->
<g id="edge14" class="edge">
<title>Node13&#45;&gt;Node14</title>
<path fill="none" stroke="#63b8ff" d="M191.47,-102.15C199.21,-102.1 207.28,-102.05 215.33,-101.99"/>
<polygon fill="#63b8ff" stroke="#63b8ff" points="215.18,-105.49 225.16,-101.93 215.14,-98.49 215.18,-105.49"/>
</g>
<!-- Node15 -->
<g id="node15" class="node">
<title>Node15</title>
<g id="a_node15"><a xlink:href="zip_8c.html#a78566dab77b01784411c7812a49b8f5f" target="_top" xlink:title=" ">
<polygon fill="white" stroke="#666666" points="510.5,-115.5 400.5,-115.5 400.5,-85.5 510.5,-85.5 510.5,-115.5"/>
<text text-anchor="start" x="408.5" y="-103.5" font-family="Helvetica,sans-Serif" font-size="10.00">zipOpenNewFileInZip</text>
<text text-anchor="middle" x="455.5" y="-92.5" font-family="Helvetica,sans-Serif" font-size="10.00">_internal</text>
</a>
</g>
</g>
<!-- Node14&#45;&gt;Node15 -->
<g id="edge15" class="edge">
<title>Node14&#45;&gt;Node15</title>
<path fill="none" stroke="#63b8ff" d="M358.06,-101.1C368.16,-101.04 378.62,-100.97 388.75,-100.91"/>
<polygon fill="#63b8ff" stroke="#63b8ff" points="388.53,-104.41 398.51,-100.85 388.48,-97.41 388.53,-104.41"/>
</g>
<!-- Node15&#45;&gt;Node5 -->
<g id="edge21" class="edge">
<title>Node15&#45;&gt;Node5</title>
<path fill="none" stroke="#63b8ff" d="M509.16,-115.9C525.33,-120.63 542.97,-125.8 558.58,-130.36"/>
<polygon fill="#63b8ff" stroke="#63b8ff" points="557.5,-133.69 568.08,-133.14 559.47,-126.97 557.5,-133.69"/>
</g>
<!-- Node16 -->
<g id="node16" class="node">
<title>Node16</title>
<g id="a_node16"><a xlink:href="crypt_8c.html#a953a11931a423879e848cdebd3f2028e" target="_top" xlink:title=" ">
<polygon fill="white" stroke="#666666" points="634,-74 575,-74 575,-55 634,-55 634,-74"/>
<text text-anchor="middle" x="604.5" y="-62" font-family="Helvetica,sans-Serif" font-size="10.00">crypthead</text>
</a>
</g>
</g>
<!-- Node15&#45;&gt;Node16 -->
<g id="edge16" class="edge">
<title>Node15&#45;&gt;Node16</title>
<path fill="none" stroke="#63b8ff" d="M510.82,-87.2C528.36,-82.9 547.47,-78.22 563.76,-74.23"/>
<polygon fill="#63b8ff" stroke="#63b8ff" points="564.18,-77.73 573.06,-71.96 562.51,-70.93 564.18,-77.73"/>
</g>
<!-- Node17 -->
<g id="node17" class="node">
<title>Node17</title>
<g id="a_node17"><a xlink:href="crypt_8c.html#ac5349111b2860fe3e63daaa442e196a8" target="_top" xlink:title=" ">
<polygon fill="white" stroke="#666666" points="777,-112 720,-112 720,-93 777,-93 777,-112"/>
<text text-anchor="middle" x="748.5" y="-100" font-family="Helvetica,sans-Serif" font-size="10.00">cryptrand</text>
</a>
</g>
</g>
<!-- Node15&#45;&gt;Node17 -->
<g id="edge20" class="edge">
<title>Node15&#45;&gt;Node17</title>
<path fill="none" stroke="#63b8ff" d="M510.89,-100.87C568.31,-101.27 657.39,-101.88 708.29,-102.23"/>
<polygon fill="#63b8ff" stroke="#63b8ff" points="708.22,-105.73 718.25,-102.3 708.27,-98.73 708.22,-105.73"/>
</g>
<!-- Node16&#45;&gt;Node17 -->
<g id="edge17" class="edge">
<title>Node16&#45;&gt;Node17</title>
<path fill="none" stroke="#63b8ff" d="M634.24,-72.19C655.69,-77.93 685.23,-85.84 708.76,-92.13"/>
<polygon fill="#63b8ff" stroke="#63b8ff" points="707.75,-95.48 718.31,-94.69 709.56,-88.72 707.75,-95.48"/>
</g>
<!-- Node18 -->
<g id="node18" class="node">
<title>Node18</title>
<g id="a_node18"><a xlink:href="crypt_8c.html#af7f8340e687fdf86775997a8b047b407" target="_top" xlink:title=" ">
<polygon fill="white" stroke="#666666" points="776.5,-74 720.5,-74 720.5,-55 776.5,-55 776.5,-74"/>
<text text-anchor="middle" x="748.5" y="-62" font-family="Helvetica,sans-Serif" font-size="10.00">init_keys</text>
</a>
</g>
</g>
<!-- Node16&#45;&gt;Node18 -->
<g id="edge18" class="edge">
<title>Node16&#45;&gt;Node18</title>
<path fill="none" stroke="#63b8ff" d="M634.24,-64.5C655.73,-64.5 685.34,-64.5 708.9,-64.5"/>
<polygon fill="#63b8ff" stroke="#63b8ff" points="708.74,-68 718.74,-64.5 708.74,-61 708.74,-68"/>
</g>
<!-- Node19 -->
<g id="node19" class="node">
<title>Node19</title>
<g id="a_node19"><a xlink:href="crypt_8c.html#ab5d0ab24efa196a08ac9ffa7c50e18cc" target="_top" xlink:title=" ">
<polygon fill="white" stroke="#666666" points="938.5,-74 866.5,-74 866.5,-55 938.5,-55 938.5,-74"/>
<text text-anchor="middle" x="902.5" y="-62" font-family="Helvetica,sans-Serif" font-size="10.00">update_keys</text>
</a>
</g>
</g>
<!-- Node18&#45;&gt;Node19 -->
<g id="edge19" class="edge">
<title>Node18&#45;&gt;Node19</title>
<path fill="none" stroke="#63b8ff" d="M776.67,-64.5C798.37,-64.5 829.28,-64.5 854.9,-64.5"/>
<polygon fill="#63b8ff" stroke="#63b8ff" points="854.74,-68 864.74,-64.5 854.74,-61 854.74,-68"/>
</g>
</g>
</svg>
        <g id="navigator" transform="translate(0 0)" fill="#404254">
                <rect fill="#f2f5e9" fill-opacity="0.5" stroke="#606060" stroke-width=".5" x="0" y="0" width="60" height="60"/>
                <use id="zoomplus" xlink:href="#zoomPlus" x="17" y="9" onmousedown="handleZoom(evt,'in')"/>
                <use id="zoomminus" xlink:href="#zoomMin" x="42" y="9" onmousedown="handleZoom(evt,'out')"/>
                <use id="reset" xlink:href="#resetDef" x="30" y="36" onmousedown="handleReset()"/>
                <g id="arrowUp" xlink:href="#dirArrow" transform="translate(30 24)" onmousedown="handlePan(0,-1)">
                  <use xlink:href="#rim" fill="#404040">
                        <set attributeName="fill" to="#808080" begin="arrowUp.mouseover" end="arrowUp.mouseout"/>
                  </use>
                  <path fill="none" stroke="white" stroke-width="1.5" d="M0,-3.0v7 M-2.5,-0.5L0,-3.0L2.5,-0.5"/>
                </g>
                <g id="arrowRight" xlink:href="#dirArrow" transform="rotate(90) translate(36 -43)" onmousedown="handlePan(1,0)">
                  <use xlink:href="#rim" fill="#404040">
                        <set attributeName="fill" to="#808080" begin="arrowRight.mouseover" end="arrowRight.mouseout"/>
                  </use>
                  <path fill="none" stroke="white" stroke-width="1.5" d="M0,-3.0v7 M-2.5,-0.5L0,-3.0L2.5,-0.5"/>
                </g>
                <g id="arrowDown" xlink:href="#dirArrow" transform="rotate(180) translate(-30 -48)" onmousedown="handlePan(0,1)">
                  <use xlink:href="#rim" fill="#404040">
                        <set attributeName="fill" to="#808080" begin="arrowDown.mouseover" end="arrowDown.mouseout"/>
                  </use>
                  <path fill="none" stroke="white" stroke-width="1.5" d="M0,-3.0v7 M-2.5,-0.5L0,-3.0L2.5,-0.5"/>
                </g>
                <g id="arrowLeft" xlink:href="#dirArrow" transform="rotate(270) translate(-36 17)" onmousedown="handlePan(-1,0)">
                  <use xlink:href="#rim" fill="#404040">
                        <set attributeName="fill" to="#808080" begin="arrowLeft.mouseover" end="arrowLeft.mouseout"/>
                  </use>
                  <path fill="none" stroke="white" stroke-width="1.5" d="M0,-3.0v7 M-2.5,-0.5L0,-3.0L2.5,-0.5"/>
                </g>
        </g>
        <svg viewBox="0 0 15 15" width="100%" height="30px" preserveAspectRatio="xMaxYMin meet">
         <g id="arrow_out" transform="scale(0.3 0.3)">
          <a xlink:href="file__utils_8h_ab86303621cb3f0e75eb4d9c508744f14_cgraph_org.svg" target="_base">
           <rect id="button" ry="5" rx="5" y="6" x="6" height="38" width="38"
                fill="#f2f5e9" fill-opacity="0.5" stroke="#606060" stroke-width="1.0"/>
           <path id="arrow"
             d="M 11.500037,31.436501 C 11.940474,20.09759 22.043105,11.32322 32.158766,21.979434 L 37.068811,17.246167 C 37.068811,17.246167 37.088388,32 37.088388,32 L 22.160133,31.978069 C 22.160133,31.978069 26.997745,27.140456 26.997745,27.140456 C 18.528582,18.264221 13.291696,25.230495 11.500037,31.436501 z"
             style="fill:#404040;"/>
          </a>
         </g>
        </svg>
</svg>
