<?xml version="1.0" encoding="UTF-8" standalone="no"?>
<!DOCTYPE svg PUBLIC "-//W3C//DTD SVG 1.1//EN"
 "http://www.w3.org/Graphics/SVG/1.1/DTD/svg11.dtd">
<!-- Generated by graphviz version 2.40.1 (20161225.0304)
 -->
<!-- Title: /Users/phil/r/artoolkitx/Source/ARX/ARUtil/include/ARX/ARUtil/file_utils.h Pages: 1 -->
<svg width="246pt" height="102pt"
 viewBox="0.00 0.00 246.14 102.00" xmlns="http://www.w3.org/2000/svg" xmlns:xlink="http://www.w3.org/1999/xlink">
<g id="graph0" class="graph" transform="scale(1 1) rotate(0) translate(4 98)">
<title>/Users/phil/r/artoolkitx/Source/ARX/ARUtil/include/ARX/ARUtil/file_utils.h</title>
<polygon fill="#ffffff" stroke="transparent" points="-4,4 -4,-98 242.1377,-98 242.1377,4 -4,4"/>
<!-- Node0 -->
<g id="node1" class="node">
<title>Node0</title>
<polygon fill="#bfbfbf" stroke="#000000" points="24.0986,-55.5 24.0986,-93.5 163.4824,-93.5 163.4824,-55.5 24.0986,-55.5"/>
<text text-anchor="start" x="32.0986" y="-81.5" font-family="Helvetica,sans-Serif" font-size="10.00" fill="#000000">/Users/phil/r/artoolkitx</text>
<text text-anchor="start" x="32.0986" y="-71.5" font-family="Helvetica,sans-Serif" font-size="10.00" fill="#000000">/Source/ARX/ARUtil/include</text>
<text text-anchor="middle" x="93.7905" y="-61.5" font-family="Helvetica,sans-Serif" font-size="10.00" fill="#000000">/ARX/ARUtil/file_utils.h</text>
</g>
<!-- Node1 -->
<g id="node2" class="node">
<title>Node1</title>
<polygon fill="#ffffff" stroke="#bfbfbf" points="0,-.5 0,-18.5 51.5811,-18.5 51.5811,-.5 0,-.5"/>
<text text-anchor="middle" x="25.7905" y="-6.5" font-family="Helvetica,sans-Serif" font-size="10.00" fill="#000000">stddef.h</text>
</g>
<!-- Node0&#45;&gt;Node1 -->
<g id="edge1" class="edge">
<title>Node0&#45;&gt;Node1</title>
<path fill="none" stroke="#191970" d="M73.7561,-55.3494C63.8395,-45.8704 52.0046,-34.5576 42.5719,-25.541"/>
<polygon fill="#191970" stroke="#191970" points="44.9555,-22.9776 35.3083,-18.5978 40.1186,-28.0378 44.9555,-22.9776"/>
</g>
<!-- Node2 -->
<g id="node3" class="node">
<title>Node2</title>
<polygon fill="#ffffff" stroke="#bfbfbf" points="69.6699,-.5 69.6699,-18.5 117.9111,-18.5 117.9111,-.5 69.6699,-.5"/>
<text text-anchor="middle" x="93.7905" y="-6.5" font-family="Helvetica,sans-Serif" font-size="10.00" fill="#000000">stdint.h</text>
</g>
<!-- Node0&#45;&gt;Node2 -->
<g id="edge2" class="edge">
<title>Node0&#45;&gt;Node2</title>
<path fill="none" stroke="#191970" d="M93.7905,-55.3494C93.7905,-47.0079 93.7905,-37.2463 93.7905,-28.879"/>
<polygon fill="#191970" stroke="#191970" points="97.2906,-28.5978 93.7905,-18.5978 90.2906,-28.5979 97.2906,-28.5978"/>
</g>
<!-- Node3 -->
<g id="node4" class="node">
<title>Node3</title>
<g id="a_node4"><a xlink:href="types_8h.html" target="_top" xlink:title="ARX/ARUtil/types.h">
<polygon fill="#ffffff" stroke="#000000" points="135.4434,-.5 135.4434,-18.5 238.1377,-18.5 238.1377,-.5 135.4434,-.5"/>
<text text-anchor="middle" x="186.7905" y="-6.5" font-family="Helvetica,sans-Serif" font-size="10.00" fill="#000000">ARX/ARUtil/types.h</text>
</a>
</g>
</g>
<!-- Node0&#45;&gt;Node3 -->
<g id="edge3" class="edge">
<title>Node0&#45;&gt;Node3</title>
<path fill="none" stroke="#191970" d="M121.1906,-55.3494C135.2954,-45.4912 152.238,-33.6496 165.3715,-24.4703"/>
<polygon fill="#191970" stroke="#191970" points="167.5822,-27.1954 173.7736,-18.5978 163.5721,-21.4578 167.5822,-27.1954"/>
</g>
</g>
</svg>
