<?xml version="1.0" encoding="UTF-8" standalone="no"?>
<!DOCTYPE svg PUBLIC "-//W3C//DTD SVG 1.1//EN"
 "http://www.w3.org/Graphics/SVG/1.1/DTD/svg11.dtd">
<!-- Generated by graphviz version 8.0.5 (20230430.1635)
 -->
<!-- Title: Source/ARX/ARUtil/include/ARX/ARUtil/file_utils.h Pages: 1 -->
<svg width="433pt" height="105pt"
 viewBox="0.00 0.00 432.62 105.00" xmlns="http://www.w3.org/2000/svg" xmlns:xlink="http://www.w3.org/1999/xlink">
<g id="graph0" class="graph" transform="scale(1 1) rotate(0) translate(4 101)">
<title>Source/ARX/ARUtil/include/ARX/ARUtil/file_utils.h</title>
<!-- Node1 -->
<g id="node1" class="node">
<title>Node1</title>
<g id="a_node1"><a xlink:title=" ">
<polygon fill="#999999" stroke="#666666" points="294.62,-97 157.88,-97 157.88,-66.5 294.62,-66.5 294.62,-97"/>
<text text-anchor="start" x="165.88" y="-83.5" font-family="Helvetica,sans-Serif" font-size="10.00">Source/ARX/ARUtil/include</text>
<text text-anchor="middle" x="226.25" y="-72.25" font-family="Helvetica,sans-Serif" font-size="10.00">/ARX/ARUtil/file_utils.h</text>
</a>
</g>
</g>
<!-- Node2 -->
<g id="node2" class="node">
<title>Node2</title>
<g id="a_node2"><a xlink:href="ar_patt_load_8c.html" target="_top" xlink:title=" ">
<polygon fill="white" stroke="#666666" points="146.5,-24.88 0,-24.88 0,-5.63 146.5,-5.63 146.5,-24.88"/>
<text text-anchor="middle" x="73.25" y="-11.38" font-family="Helvetica,sans-Serif" font-size="10.00">Source/ARX/AR/arPattLoad.c</text>
</a>
</g>
</g>
<!-- Node1&#45;&gt;Node2 -->
<g id="edge1" class="edge">
<title>Node1&#45;&gt;Node2</title>
<path fill="none" stroke="#63b8ff" d="M181.73,-61.98C153.06,-49.9 117.08,-34.73 94.62,-25.26"/>
<polygon fill="#63b8ff" stroke="#63b8ff" points="179.96,-65.45 190.53,-66.11 182.68,-59 179.96,-65.45"/>
</g>
<!-- Node3 -->
<g id="node3" class="node">
<title>Node3</title>
<g id="a_node3"><a xlink:href="ar_util_8c.html" target="_top" xlink:title=" ">
<polygon fill="white" stroke="#666666" points="287.5,-24.88 165,-24.88 165,-5.63 287.5,-5.63 287.5,-24.88"/>
<text text-anchor="middle" x="226.25" y="-11.38" font-family="Helvetica,sans-Serif" font-size="10.00">Source/ARX/AR/arUtil.c</text>
</a>
</g>
</g>
<!-- Node1&#45;&gt;Node3 -->
<g id="edge2" class="edge">
<title>Node1&#45;&gt;Node3</title>
<path fill="none" stroke="#63b8ff" d="M226.25,-55.18C226.25,-44.51 226.25,-32.83 226.25,-25.07"/>
<polygon fill="#63b8ff" stroke="#63b8ff" points="222.75,-55.11 226.25,-65.11 229.75,-55.11 222.75,-55.11"/>
</g>
<!-- Node4 -->
<g id="node4" class="node">
<title>Node4</title>
<g id="a_node4"><a xlink:href="file__utils_8c.html" target="_top" xlink:title=" ">
<polygon fill="white" stroke="#666666" points="424.62,-30.5 305.88,-30.5 305.88,0 424.62,0 424.62,-30.5"/>
<text text-anchor="start" x="313.88" y="-17" font-family="Helvetica,sans-Serif" font-size="10.00">Source/ARX/ARUtil/file</text>
<text text-anchor="middle" x="365.25" y="-5.75" font-family="Helvetica,sans-Serif" font-size="10.00">_utils.c</text>
</a>
</g>
</g>
<!-- Node1&#45;&gt;Node4 -->
<g id="edge3" class="edge">
<title>Node1&#45;&gt;Node4</title>
<path fill="none" stroke="#63b8ff" d="M267.52,-61.6C288.75,-51.75 314.22,-39.93 333.83,-30.83"/>
<polygon fill="#63b8ff" stroke="#63b8ff" points="266.39,-58.73 258.79,-66.11 269.34,-65.08 266.39,-58.73"/>
</g>
</g>
</svg>
