<?xml version="1.0" encoding="UTF-8" standalone="no"?>
<!DOCTYPE svg PUBLIC "-//W3C//DTD SVG 1.1//EN"
 "http://www.w3.org/Graphics/SVG/1.1/DTD/svg11.dtd">
<!-- Generated by graphviz version 2.40.1 (20161225.0304)
 -->
<!-- Title: Source/ARX/ARUtil/include/ARX/ARUtil/file_utils.h Pages: 1 -->
<svg width="246pt" height="92pt"
 viewBox="0.00 0.00 246.14 92.00" xmlns="http://www.w3.org/2000/svg" xmlns:xlink="http://www.w3.org/1999/xlink">
<g id="graph0" class="graph" transform="scale(1 1) rotate(0) translate(4 88)">
<title>Source/ARX/ARUtil/include/ARX/ARUtil/file_utils.h</title>
<polygon fill="#ffffff" stroke="transparent" points="-4,4 -4,-88 242.1377,-88 242.1377,4 -4,4"/>
<!-- Node0 -->
<g id="node1" class="node">
<title>Node0</title>
<polygon fill="#bfbfbf" stroke="#000000" points="25.4878,-55.5 25.4878,-83.5 162.0933,-83.5 162.0933,-55.5 25.4878,-55.5"/>
<text text-anchor="start" x="33.4878" y="-71.5" font-family="Helvetica,sans-Serif" font-size="10.00" fill="#000000">Source/ARX/ARUtil/include</text>
<text text-anchor="middle" x="93.7905" y="-61.5" font-family="Helvetica,sans-Serif" font-size="10.00" fill="#000000">/ARX/ARUtil/file_utils.h</text>
</g>
<!-- Node1 -->
<g id="node2" class="node">
<title>Node1</title>
<polygon fill="#ffffff" stroke="#bfbfbf" points="0,-.5 0,-18.5 51.5811,-18.5 51.5811,-.5 0,-.5"/>
<text text-anchor="middle" x="25.7905" y="-6.5" font-family="Helvetica,sans-Serif" font-size="10.00" fill="#000000">stddef.h</text>
</g>
<!-- Node0&#45;&gt;Node1 -->
<g id="edge1" class="edge">
<title>Node0&#45;&gt;Node1</title>
<path fill="none" stroke="#191970" d="M77.6755,-55.2808C67.5108,-46.312 54.3646,-34.7124 43.8485,-25.4335"/>
<polygon fill="#191970" stroke="#191970" points="45.9,-22.576 36.0859,-18.5842 41.2687,-27.8249 45.9,-22.576"/>
</g>
<!-- Node2 -->
<g id="node3" class="node">
<title>Node2</title>
<polygon fill="#ffffff" stroke="#bfbfbf" points="69.6699,-.5 69.6699,-18.5 117.9111,-18.5 117.9111,-.5 69.6699,-.5"/>
<text text-anchor="middle" x="93.7905" y="-6.5" font-family="Helvetica,sans-Serif" font-size="10.00" fill="#000000">stdint.h</text>
</g>
<!-- Node0&#45;&gt;Node2 -->
<g id="edge2" class="edge">
<title>Node0&#45;&gt;Node2</title>
<path fill="none" stroke="#191970" d="M93.7905,-55.2808C93.7905,-47.3776 93.7905,-37.4316 93.7905,-28.8308"/>
<polygon fill="#191970" stroke="#191970" points="97.2906,-28.5842 93.7905,-18.5842 90.2906,-28.5842 97.2906,-28.5842"/>
</g>
<!-- Node3 -->
<g id="node4" class="node">
<title>Node3</title>
<g id="a_node4"><a xlink:href="types_8h.html" target="_top" xlink:title="ARX/ARUtil/types.h">
<polygon fill="#ffffff" stroke="#000000" points="135.4434,-.5 135.4434,-18.5 238.1377,-18.5 238.1377,-.5 135.4434,-.5"/>
<text text-anchor="middle" x="186.7905" y="-6.5" font-family="Helvetica,sans-Serif" font-size="10.00" fill="#000000">ARX/ARUtil/types.h</text>
</a>
</g>
</g>
<!-- Node0&#45;&gt;Node3 -->
<g id="edge3" class="edge">
<title>Node0&#45;&gt;Node3</title>
<path fill="none" stroke="#191970" d="M115.8302,-55.2808C130.4202,-45.868 149.5014,-33.5575 164.2021,-24.0732"/>
<polygon fill="#191970" stroke="#191970" points="166.2045,-26.9465 172.71,-18.5842 162.4096,-21.0645 166.2045,-26.9465"/>
</g>
</g>
</svg>
