<?xml version="1.0" encoding="UTF-8" standalone="no"?>
<!DOCTYPE svg PUBLIC "-//W3C//DTD SVG 1.1//EN"
 "http://www.w3.org/Graphics/SVG/1.1/DTD/svg11.dtd">
<!-- Generated by graphviz version 2.40.1 (20161225.0304)
 -->
<!-- Title: Source/ARX/ARUtil/ftw.h Pages: 1 -->
<svg width="150pt" height="82pt"
 viewBox="0.00 0.00 150.13 82.00" xmlns="http://www.w3.org/2000/svg" xmlns:xlink="http://www.w3.org/1999/xlink">
<g id="graph0" class="graph" transform="scale(1 1) rotate(0) translate(4 78)">
<title>Source/ARX/ARUtil/ftw.h</title>
<polygon fill="#ffffff" stroke="transparent" points="-4,4 -4,-78 146.1279,-78 146.1279,4 -4,4"/>
<!-- Node0 -->
<g id="node1" class="node">
<title>Node0</title>
<polygon fill="#bfbfbf" stroke="#000000" points="10.2661,-55.5 10.2661,-73.5 135.7534,-73.5 135.7534,-55.5 10.2661,-55.5"/>
<text text-anchor="middle" x="73.0098" y="-61.5" font-family="Helvetica,sans-Serif" font-size="10.00" fill="#000000">Source/ARX/ARUtil/ftw.h</text>
</g>
<!-- Node1 -->
<g id="node2" class="node">
<title>Node1</title>
<polygon fill="#ffffff" stroke="#bfbfbf" points="0,-.5 0,-18.5 66.0195,-18.5 66.0195,-.5 0,-.5"/>
<text text-anchor="middle" x="33.0098" y="-6.5" font-family="Helvetica,sans-Serif" font-size="10.00" fill="#000000">sys/types.h</text>
</g>
<!-- Node0&#45;&gt;Node1 -->
<g id="edge1" class="edge">
<title>Node0&#45;&gt;Node1</title>
<path fill="none" stroke="#191970" d="M66.4046,-55.4179C60.8218,-47.7415 52.6619,-36.5217 45.8058,-27.0945"/>
<polygon fill="#191970" stroke="#191970" points="48.4708,-24.8082 39.7585,-18.7795 42.8096,-28.9255 48.4708,-24.8082"/>
</g>
<!-- Node2 -->
<g id="node3" class="node">
<title>Node2</title>
<polygon fill="#ffffff" stroke="#bfbfbf" points="83.8916,-.5 83.8916,-18.5 142.1279,-18.5 142.1279,-.5 83.8916,-.5"/>
<text text-anchor="middle" x="113.0098" y="-6.5" font-family="Helvetica,sans-Serif" font-size="10.00" fill="#000000">sys/stat.h</text>
</g>
<!-- Node0&#45;&gt;Node2 -->
<g id="edge2" class="edge">
<title>Node0&#45;&gt;Node2</title>
<path fill="none" stroke="#191970" d="M79.615,-55.4179C85.1977,-47.7415 93.3576,-36.5217 100.2138,-27.0945"/>
<polygon fill="#191970" stroke="#191970" points="103.2099,-28.9255 106.2611,-18.7795 97.5487,-24.8082 103.2099,-28.9255"/>
</g>
</g>
</svg>
