<?xml version="1.0" encoding="UTF-8" standalone="no"?>
<!DOCTYPE svg PUBLIC "-//W3C//DTD SVG 1.1//EN"
 "http://www.w3.org/Graphics/SVG/1.1/DTD/svg11.dtd">
<!-- Generated by graphviz version 2.40.1 (20161225.0304)
 -->
<!-- Title: /Users/phil/r/artoolkitx/Source/ARX/ARG/include/ARX/ARG/glStateCache2.h Pages: 1 -->
<svg width="182pt" height="112pt"
 viewBox="0.00 0.00 182.41 112.00" xmlns="http://www.w3.org/2000/svg" xmlns:xlink="http://www.w3.org/1999/xlink">
<g id="graph0" class="graph" transform="scale(1 1) rotate(0) translate(4 108)">
<title>/Users/phil/r/artoolkitx/Source/ARX/ARG/include/ARX/ARG/glStateCache2.h</title>
<polygon fill="#ffffff" stroke="transparent" points="-4,4 -4,-108 178.4082,-108 178.4082,4 -4,4"/>
<!-- Node2 -->
<g id="node1" class="node">
<title>Node2</title>
<polygon fill="#bfbfbf" stroke="#000000" points="16.9507,-65.5 16.9507,-103.5 157.4575,-103.5 157.4575,-65.5 16.9507,-65.5"/>
<text text-anchor="start" x="24.9507" y="-91.5" font-family="Helvetica,sans-Serif" font-size="10.00" fill="#000000">/Users/phil/r/artoolkitx</text>
<text text-anchor="start" x="24.9507" y="-81.5" font-family="Helvetica,sans-Serif" font-size="10.00" fill="#000000">/Source/ARX/ARG/include</text>
<text text-anchor="middle" x="87.2041" y="-71.5" font-family="Helvetica,sans-Serif" font-size="10.00" fill="#000000">/ARX/ARG/glStateCache2.h</text>
</g>
<!-- Node3 -->
<g id="node2" class="node">
<title>Node3</title>
<g id="a_node2"><a xlink:href="gl_state_cache2_8c.html" target="_top" xlink:title="/Users/phil/r/artoolkitx\l/Source/ARX/ARG/glStateCache2.c">
<polygon fill="#ffffff" stroke="#000000" points="0,-.5 0,-28.5 174.4082,-28.5 174.4082,-.5 0,-.5"/>
<text text-anchor="start" x="8" y="-16.5" font-family="Helvetica,sans-Serif" font-size="10.00" fill="#000000">/Users/phil/r/artoolkitx</text>
<text text-anchor="middle" x="87.2041" y="-6.5" font-family="Helvetica,sans-Serif" font-size="10.00" fill="#000000">/Source/ARX/ARG/glStateCache2.c</text>
</a>
</g>
</g>
<!-- Node2&#45;&gt;Node3 -->
<g id="edge1" class="edge">
<title>Node2&#45;&gt;Node3</title>
<path fill="none" stroke="#191970" d="M87.2041,-55.1346C87.2041,-46.0837 87.2041,-36.5165 87.2041,-28.9404"/>
<polygon fill="#191970" stroke="#191970" points="83.7042,-55.3722 87.2041,-65.3722 90.7042,-55.3722 83.7042,-55.3722"/>
</g>
</g>
</svg>
