<?xml version="1.0" encoding="UTF-8" standalone="no"?>
<!DOCTYPE svg PUBLIC "-//W3C//DTD SVG 1.1//EN"
 "http://www.w3.org/Graphics/SVG/1.1/DTD/svg11.dtd">
<!-- Generated by graphviz version 8.0.5 (20230430.1635)
 -->
<!-- Title: Source/ARX/AR2/handle.c Pages: 1 -->
<!--zoomable 414 -->
<svg id="main" version="1.1" xmlns="http://www.w3.org/2000/svg" xmlns:xlink="http://www.w3.org/1999/xlink" xml:space="preserve" onload="init(evt)">
<style type="text/css"><![CDATA[
.edge:hover path { stroke: red; }
.edge:hover polygon { stroke: red; fill: red; }
]]></style>
<script type="text/javascript"><![CDATA[
var edges = document.getElementsByTagName('g');
if (edges && edges.length) {
  for (var i=0;i<edges.length;i++) {
    if (edges[i].id.substr(0,4)=='edge') {
      edges[i].setAttribute('class','edge');
    }
  }
}
]]></script>
        <defs>
                <circle id="rim" cx="0" cy="0" r="7"/>
                <circle id="rim2" cx="0" cy="0" r="3.5"/>
                <g id="zoomPlus">
                        <use xlink:href="#rim" fill="#404040">
                                <set attributeName="fill" to="#808080" begin="zoomplus.mouseover" end="zoomplus.mouseout"/>
                        </use>
                        <path d="M-4,0h8M0,-4v8" fill="none" stroke="white" stroke-width="1.5" pointer-events="none"/>
                </g>
                <g id="zoomMin">
                        <use xlink:href="#rim" fill="#404040">
                                <set attributeName="fill" to="#808080" begin="zoomminus.mouseover" end="zoomminus.mouseout"/>
                        </use>
                        <path d="M-4,0h8" fill="none" stroke="white" stroke-width="1.5" pointer-events="none"/>
                </g>
                <g id="dirArrow">
                        <path fill="none" stroke="white" stroke-width="1.5" d="M0,-3.0v7 M-2.5,-0.5L0,-3.0L2.5,-0.5"/>
                </g>
               <g id="resetDef">
                       <use xlink:href="#rim2" fill="#404040">
                               <set attributeName="fill" to="#808080" begin="reset.mouseover" end="reset.mouseout"/>
                       </use>
               </g>
        </defs>

<script type="text/javascript">
var viewWidth = 1096;
var viewHeight = 414;
var sectionId = 'dynsection-0';
</script>
<script xlink:href="svgpan.js"/>
<svg id="graph" class="graph">
<g id="viewport">
<title>Source/ARX/AR2/handle.c</title>
<!-- Node1 -->
<g id="node1" class="node">
<title>Node1</title>
<g id="a_node1"><a xlink:title=" ">
<polygon fill="#999999" stroke="#666666" points="436.12,-406 303.12,-406 303.12,-386.75 436.12,-386.75 436.12,-406"/>
<text text-anchor="middle" x="369.62" y="-392.5" font-family="Helvetica,sans-Serif" font-size="10.00">Source/ARX/AR2/handle.c</text>
</a>
</g>
</g>
<!-- Node2 -->
<g id="node2" class="node">
<title>Node2</title>
<g id="a_node2"><a xlink:href="ar_8h.html" target="_top" xlink:title="artoolkitX core routines.">
<polygon fill="white" stroke="#666666" points="715.12,-129.75 642.12,-129.75 642.12,-110.5 715.12,-110.5 715.12,-129.75"/>
<text text-anchor="middle" x="678.62" y="-116.25" font-family="Helvetica,sans-Serif" font-size="10.00">ARX/AR/ar.h</text>
</a>
</g>
</g>
<!-- Node1&#45;&gt;Node2 -->
<g id="edge1" class="edge">
<title>Node1&#45;&gt;Node2</title>
<path fill="none" stroke="#63b8ff" d="M436.55,-392.95C561.24,-386.59 816.62,-364.14 816.62,-286.88 816.62,-286.88 816.62,-286.88 816.62,-229.62 816.62,-179.86 760.48,-149.44 719.82,-133.93"/>
<polygon fill="#63b8ff" stroke="#63b8ff" points="721.19,-130.34 710.59,-130.21 718.8,-136.92 721.19,-130.34"/>
</g>
<!-- Node3 -->
<g id="node3" class="node">
<title>Node3</title>
<g id="a_node3"><a xlink:title=" ">
<polygon fill="#e0e0e0" stroke="#999999" points="162.25,-19.25 117,-19.25 117,0 162.25,0 162.25,-19.25"/>
<text text-anchor="middle" x="139.62" y="-5.75" font-family="Helvetica,sans-Serif" font-size="10.00">stdio.h</text>
</a>
</g>
</g>
<!-- Node1&#45;&gt;Node3 -->
<g id="edge25" class="edge">
<title>Node1&#45;&gt;Node3</title>
<path fill="none" stroke="#63b8ff" d="M302.78,-389.4C237.79,-382.59 144.5,-369.87 113.62,-350.75 83.66,-332.19 66.62,-322.12 66.62,-286.88 66.62,-286.88 66.62,-286.88 66.62,-119.12 66.62,-89.51 69.28,-79.95 85.62,-55.25 93.31,-43.64 104.92,-33.49 115.4,-25.82"/>
<polygon fill="#63b8ff" stroke="#63b8ff" points="116.97,-28.3 123.21,-19.74 112.99,-22.54 116.97,-28.3"/>
</g>
<!-- Node4 -->
<g id="node4" class="node">
<title>Node4</title>
<g id="a_node4"><a xlink:title=" ">
<polygon fill="#e0e0e0" stroke="#999999" points="502.38,-19.25 454.88,-19.25 454.88,0 502.38,0 502.38,-19.25"/>
<text text-anchor="middle" x="478.62" y="-5.75" font-family="Helvetica,sans-Serif" font-size="10.00">stdlib.h</text>
</a>
</g>
</g>
<!-- Node1&#45;&gt;Node4 -->
<g id="edge27" class="edge">
<title>Node1&#45;&gt;Node4</title>
<path fill="none" stroke="#63b8ff" d="M330.38,-386.29C274.53,-371.1 181.28,-336.17 204.62,-276.25 252.94,-152.24 394.14,-59.29 452.71,-25.02"/>
<polygon fill="#63b8ff" stroke="#63b8ff" points="454.09,-27.69 461.01,-19.66 450.59,-21.62 454.09,-27.69"/>
</g>
<!-- Node6 -->
<g id="node6" class="node">
<title>Node6</title>
<g id="a_node6"><a xlink:title=" ">
<polygon fill="#e0e0e0" stroke="#999999" points="718.75,-19.25 670.5,-19.25 670.5,0 718.75,0 718.75,-19.25"/>
<text text-anchor="middle" x="694.62" y="-5.75" font-family="Helvetica,sans-Serif" font-size="10.00">string.h</text>
</a>
</g>
</g>
<!-- Node1&#45;&gt;Node6 -->
<g id="edge26" class="edge">
<title>Node1&#45;&gt;Node6</title>
<path fill="none" stroke="#63b8ff" d="M436.43,-392.23C614.43,-382.98 1086.62,-352.26 1086.62,-286.88 1086.62,-286.88 1086.62,-286.88 1086.62,-119.12 1086.62,-89.51 1090.27,-74.34 1067.62,-55.25 1054.77,-44.42 820.67,-22.09 730.04,-13.81"/>
<polygon fill="#63b8ff" stroke="#63b8ff" points="730.51,-10.24 720.23,-12.82 729.87,-17.21 730.51,-10.24"/>
</g>
<!-- Node15 -->
<g id="node15" class="node">
<title>Node15</title>
<g id="a_node15"><a xlink:href="icp_8h.html" target="_top" xlink:title=" ">
<polygon fill="white" stroke="#666666" points="172.75,-74.5 94.5,-74.5 94.5,-55.25 172.75,-55.25 172.75,-74.5"/>
<text text-anchor="middle" x="133.62" y="-61" font-family="Helvetica,sans-Serif" font-size="10.00">ARX/AR/icp.h</text>
</a>
</g>
</g>
<!-- Node1&#45;&gt;Node15 -->
<g id="edge28" class="edge">
<title>Node1&#45;&gt;Node15</title>
<path fill="none" stroke="#63b8ff" d="M302.86,-390.03C242.3,-383.9 158.76,-371.88 133.62,-350.75 110.41,-331.23 109.62,-317.2 109.62,-286.88 109.62,-286.88 109.62,-286.88 109.62,-174.38 109.62,-142.47 119.64,-106.51 126.73,-85.04"/>
<polygon fill="#63b8ff" stroke="#63b8ff" points="130.34,-86.32 130.29,-75.73 123.72,-84.04 130.34,-86.32"/>
</g>
<!-- Node19 -->
<g id="node19" class="node">
<title>Node19</title>
<g id="a_node19"><a xlink:href="tracking_8h.html" target="_top" xlink:title=" ">
<polygon fill="white" stroke="#666666" points="505.25,-350.75 400,-350.75 400,-331.5 505.25,-331.5 505.25,-350.75"/>
<text text-anchor="middle" x="452.62" y="-337.25" font-family="Helvetica,sans-Serif" font-size="10.00">ARX/AR2/tracking.h</text>
</a>
</g>
</g>
<!-- Node1&#45;&gt;Node19 -->
<g id="edge29" class="edge">
<title>Node1&#45;&gt;Node19</title>
<path fill="none" stroke="#63b8ff" d="M383.7,-386.34C396.22,-378.31 414.77,-366.41 429.47,-356.98"/>
<polygon fill="#63b8ff" stroke="#63b8ff" points="430.95,-359.55 437.48,-351.2 427.17,-353.66 430.95,-359.55"/>
</g>
<!-- Node26 -->
<g id="node26" class="node">
<title>Node26</title>
<g id="a_node26"><a xlink:href="util_8h.html" target="_top" xlink:title=" ">
<polygon fill="white" stroke="#666666" points="350.38,-240.25 266.88,-240.25 266.88,-221 350.38,-221 350.38,-240.25"/>
<text text-anchor="middle" x="308.62" y="-226.75" font-family="Helvetica,sans-Serif" font-size="10.00">ARX/AR2/util.h</text>
</a>
</g>
</g>
<!-- Node1&#45;&gt;Node26 -->
<g id="edge48" class="edge">
<title>Node1&#45;&gt;Node26</title>
<path fill="none" stroke="#63b8ff" d="M369.94,-386.47C370.31,-365.92 369.19,-314.03 350.62,-276.25 345.33,-265.48 336.55,-255.53 328.38,-247.78"/>
<polygon fill="#63b8ff" stroke="#63b8ff" points="331.05,-245.59 321.26,-241.55 326.4,-250.81 331.05,-245.59"/>
</g>
<!-- Node2&#45;&gt;Node3 -->
<g id="edge2" class="edge">
<title>Node2&#45;&gt;Node3</title>
<path fill="none" stroke="#63b8ff" d="M641.78,-117.06C552.95,-111.79 329.05,-96.66 257.62,-74.5 221.61,-63.32 183.96,-40.74 161.14,-25.65"/>
<polygon fill="#63b8ff" stroke="#63b8ff" points="163.57,-22.39 153.32,-19.69 159.65,-28.19 163.57,-22.39"/>
</g>
<!-- Node2&#45;&gt;Node4 -->
<g id="edge3" class="edge">
<title>Node2&#45;&gt;Node4</title>
<path fill="none" stroke="#63b8ff" d="M675.35,-110.23C669.77,-96.36 657.12,-69.67 637.62,-55.25 600.71,-27.94 547.75,-17.34 513.27,-13.22"/>
<polygon fill="#63b8ff" stroke="#63b8ff" points="514.08,-9.68 503.77,-12.1 513.34,-16.64 514.08,-9.68"/>
</g>
<!-- Node5 -->
<g id="node5" class="node">
<title>Node5</title>
<g id="a_node5"><a xlink:title=" ">
<polygon fill="#e0e0e0" stroke="#999999" points="770.75,-74.5 722.5,-74.5 722.5,-55.25 770.75,-55.25 770.75,-74.5"/>
<text text-anchor="middle" x="746.62" y="-61" font-family="Helvetica,sans-Serif" font-size="10.00">stdint.h</text>
</a>
</g>
</g>
<!-- Node2&#45;&gt;Node5 -->
<g id="edge4" class="edge">
<title>Node2&#45;&gt;Node5</title>
<path fill="none" stroke="#63b8ff" d="M690.16,-110.09C700.19,-102.24 714.93,-90.7 726.83,-81.37"/>
<polygon fill="#63b8ff" stroke="#63b8ff" points="728.54,-83.7 734.26,-74.77 724.23,-78.18 728.54,-83.7"/>
</g>
<!-- Node2&#45;&gt;Node6 -->
<g id="edge5" class="edge">
<title>Node2&#45;&gt;Node6</title>
<path fill="none" stroke="#63b8ff" d="M679.93,-110.25C682.49,-92.92 688.2,-54.23 691.7,-30.49"/>
<polygon fill="#63b8ff" stroke="#63b8ff" points="695.3,-31.03 693.3,-20.63 688.38,-30.01 695.3,-31.03"/>
</g>
<!-- Node7 -->
<g id="node7" class="node">
<title>Node7</title>
<g id="a_node7"><a xlink:title=" ">
<polygon fill="#e0e0e0" stroke="#999999" points="889.5,-19.25 797.75,-19.25 797.75,0 889.5,0 889.5,-19.25"/>
<text text-anchor="middle" x="843.62" y="-5.75" font-family="Helvetica,sans-Serif" font-size="10.00">ARX/AR/config.h</text>
</a>
</g>
</g>
<!-- Node2&#45;&gt;Node7 -->
<g id="edge6" class="edge">
<title>Node2&#45;&gt;Node7</title>
<path fill="none" stroke="#63b8ff" d="M706.19,-110.09C727.33,-102.43 756.69,-90.2 779.62,-74.5 798.97,-61.26 817.51,-41.74 829.62,-27.77"/>
<polygon fill="#63b8ff" stroke="#63b8ff" points="832.81,-30.41 836.58,-20.51 827.46,-25.89 832.81,-30.41"/>
</g>
<!-- Node8 -->
<g id="node8" class="node">
<title>Node8</title>
<g id="a_node8"><a xlink:href="ar_config_8h.html" target="_top" xlink:title=" ">
<polygon fill="white" stroke="#666666" points="518.75,-74.5 416.5,-74.5 416.5,-55.25 518.75,-55.25 518.75,-74.5"/>
<text text-anchor="middle" x="467.62" y="-61" font-family="Helvetica,sans-Serif" font-size="10.00">ARX/AR/arConfig.h</text>
</a>
</g>
</g>
<!-- Node2&#45;&gt;Node8 -->
<g id="edge7" class="edge">
<title>Node2&#45;&gt;Node8</title>
<path fill="none" stroke="#63b8ff" d="M642.83,-110.09C607.37,-101.14 552.88,-87.39 514.09,-77.6"/>
<polygon fill="#63b8ff" stroke="#63b8ff" points="515.15,-74.01 504.59,-74.95 513.43,-80.79 515.15,-74.01"/>
</g>
<!-- Node9 -->
<g id="node9" class="node">
<title>Node9</title>
<g id="a_node9"><a xlink:href="log_8h.html" target="_top" xlink:title="Logging utilities.">
<polygon fill="white" stroke="#666666" points="360.25,-74.5 267,-74.5 267,-55.25 360.25,-55.25 360.25,-74.5"/>
<text text-anchor="middle" x="313.62" y="-61" font-family="Helvetica,sans-Serif" font-size="10.00">ARX/ARUtil/log.h</text>
</a>
</g>
</g>
<!-- Node2&#45;&gt;Node9 -->
<g id="edge8" class="edge">
<title>Node2&#45;&gt;Node9</title>
<path fill="none" stroke="#63b8ff" d="M641.96,-113.78C578.38,-104.5 447.22,-85.37 371.33,-74.29"/>
<polygon fill="#63b8ff" stroke="#63b8ff" points="371.94,-70.7 361.54,-72.72 370.93,-77.63 371.94,-70.7"/>
</g>
<!-- Node13 -->
<g id="node13" class="node">
<title>Node13</title>
<g id="a_node13"><a xlink:href="matrix_8h.html" target="_top" xlink:title=" ">
<polygon fill="white" stroke="#666666" points="1058.88,-74.5 966.38,-74.5 966.38,-55.25 1058.88,-55.25 1058.88,-74.5"/>
<text text-anchor="middle" x="1012.62" y="-61" font-family="Helvetica,sans-Serif" font-size="10.00">ARX/AR/matrix.h</text>
</a>
</g>
</g>
<!-- Node2&#45;&gt;Node13 -->
<g id="edge15" class="edge">
<title>Node2&#45;&gt;Node13</title>
<path fill="none" stroke="#63b8ff" d="M715.32,-113.27C773.31,-104.03 886.59,-85.97 955.35,-75.01"/>
<polygon fill="#63b8ff" stroke="#63b8ff" points="955.66,-78.34 964.99,-73.31 954.56,-71.43 955.66,-78.34"/>
</g>
<!-- Node2&#45;&gt;Node15 -->
<g id="edge17" class="edge">
<title>Node2&#45;&gt;Node15</title>
<path fill="none" stroke="#63b8ff" d="M641.81,-116.68C559.84,-111.05 356.16,-95.96 186.62,-74.5 185.67,-74.38 184.71,-74.26 183.75,-74.13"/>
<polygon fill="#63b8ff" stroke="#63b8ff" points="184.62,-70.57 174.23,-72.63 183.64,-77.5 184.62,-70.57"/>
</g>
<!-- Node17 -->
<g id="node17" class="node">
<title>Node17</title>
<g id="a_node17"><a xlink:href="param_8h.html" target="_top" xlink:title="artoolkitX functions for handling calibrated camera parameters.">
<polygon fill="white" stroke="#666666" points="628.88,-74.5 536.38,-74.5 536.38,-55.25 628.88,-55.25 628.88,-74.5"/>
<text text-anchor="middle" x="582.62" y="-61" font-family="Helvetica,sans-Serif" font-size="10.00">ARX/AR/param.h</text>
</a>
</g>
</g>
<!-- Node2&#45;&gt;Node17 -->
<g id="edge20" class="edge">
<title>Node2&#45;&gt;Node17</title>
<path fill="none" stroke="#63b8ff" d="M657.12,-110.09C640.81,-101.98 618.8,-89.93 602.82,-80.46"/>
<polygon fill="#63b8ff" stroke="#63b8ff" points="605.13,-77.16 594.76,-74.95 601.49,-83.14 605.13,-77.16"/>
</g>
<!-- Node18 -->
<g id="node18" class="node">
<title>Node18</title>
<g id="a_node18"><a xlink:href="ar_image_proc_8h.html" target="_top" xlink:title="artoolkitX functions for 2D luminance image processing.">
<polygon fill="white" stroke="#666666" points="948.12,-74.5 827.12,-74.5 827.12,-55.25 948.12,-55.25 948.12,-74.5"/>
<text text-anchor="middle" x="887.62" y="-61" font-family="Helvetica,sans-Serif" font-size="10.00">ARX/AR/arImageProc.h</text>
</a>
</g>
</g>
<!-- Node2&#45;&gt;Node18 -->
<g id="edge22" class="edge">
<title>Node2&#45;&gt;Node18</title>
<path fill="none" stroke="#63b8ff" d="M708.86,-110.09C742.2,-101.12 796.17,-87.33 836.15,-77.54"/>
<polygon fill="#63b8ff" stroke="#63b8ff" points="836.88,-80.72 845.77,-74.95 835.23,-73.92 836.88,-80.72"/>
</g>
<!-- Node9&#45;&gt;Node3 -->
<g id="edge9" class="edge">
<title>Node9&#45;&gt;Node3</title>
<path fill="none" stroke="#63b8ff" d="M284.11,-54.84C253.27,-45.4 204.99,-30.63 172.84,-20.79"/>
<polygon fill="#63b8ff" stroke="#63b8ff" points="174.19,-17.24 163.6,-17.66 172.14,-23.93 174.19,-17.24"/>
</g>
<!-- Node9&#45;&gt;Node4 -->
<g id="edge10" class="edge">
<title>Node9&#45;&gt;Node4</title>
<path fill="none" stroke="#63b8ff" d="M341.62,-54.84C369.99,-45.68 413.94,-31.5 444.37,-21.68"/>
<polygon fill="#63b8ff" stroke="#63b8ff" points="445.09,-24.8 453.53,-18.4 442.94,-18.14 445.09,-24.8"/>
</g>
<!-- Node9&#45;&gt;Node6 -->
<g id="edge11" class="edge">
<title>Node9&#45;&gt;Node6</title>
<path fill="none" stroke="#63b8ff" d="M360.73,-57.29C438.24,-46.46 590.93,-25.12 659.66,-15.51"/>
<polygon fill="#63b8ff" stroke="#63b8ff" points="659.9,-18.87 669.32,-14.02 658.94,-11.94 659.9,-18.87"/>
</g>
<!-- Node10 -->
<g id="node10" class="node">
<title>Node10</title>
<g id="a_node10"><a xlink:title=" ">
<polygon fill="#e0e0e0" stroke="#999999" points="437.25,-19.25 386,-19.25 386,0 437.25,0 437.25,-19.25"/>
<text text-anchor="middle" x="411.62" y="-5.75" font-family="Helvetica,sans-Serif" font-size="10.00">stdarg.h</text>
</a>
</g>
</g>
<!-- Node9&#45;&gt;Node10 -->
<g id="edge12" class="edge">
<title>Node9&#45;&gt;Node10</title>
<path fill="none" stroke="#63b8ff" d="M330.25,-54.84C345.31,-46.66 367.77,-34.46 385.28,-24.94"/>
<polygon fill="#63b8ff" stroke="#63b8ff" points="386.8,-27.55 393.92,-19.7 383.46,-21.4 386.8,-27.55"/>
</g>
<!-- Node11 -->
<g id="node11" class="node">
<title>Node11</title>
<g id="a_node11"><a xlink:title=" ">
<polygon fill="#e0e0e0" stroke="#999999" points="368,-19.25 303.25,-19.25 303.25,0 368,0 368,-19.25"/>
<text text-anchor="middle" x="335.62" y="-5.75" font-family="Helvetica,sans-Serif" font-size="10.00">sys/errno.h</text>
</a>
</g>
</g>
<!-- Node9&#45;&gt;Node11 -->
<g id="edge13" class="edge">
<title>Node9&#45;&gt;Node11</title>
<path fill="none" stroke="#63b8ff" d="M317.26,-55.08C320.11,-48.19 324.18,-38.34 327.76,-29.66"/>
<polygon fill="#63b8ff" stroke="#63b8ff" points="331.33,-31.19 331.91,-20.61 324.86,-28.52 331.33,-31.19"/>
</g>
<!-- Node12 -->
<g id="node12" class="node">
<title>Node12</title>
<g id="a_node12"><a xlink:href="types_8h.html" target="_top" xlink:title=" ">
<polygon fill="white" stroke="#666666" points="284.88,-19.25 180.38,-19.25 180.38,0 284.88,0 284.88,-19.25"/>
<text text-anchor="middle" x="232.62" y="-5.75" font-family="Helvetica,sans-Serif" font-size="10.00">ARX/ARUtil/types.h</text>
</a>
</g>
</g>
<!-- Node9&#45;&gt;Node12 -->
<g id="edge14" class="edge">
<title>Node9&#45;&gt;Node12</title>
<path fill="none" stroke="#63b8ff" d="M299.88,-54.84C287.67,-46.81 269.57,-34.91 255.22,-25.48"/>
<polygon fill="#63b8ff" stroke="#63b8ff" points="257.71,-22.27 247.43,-19.7 253.87,-28.12 257.71,-22.27"/>
</g>
<!-- Node14 -->
<g id="node14" class="node">
<title>Node14</title>
<g id="a_node14"><a xlink:title=" ">
<polygon fill="#e0e0e0" stroke="#999999" points="1035.62,-19.25 989.62,-19.25 989.62,0 1035.62,0 1035.62,-19.25"/>
<text text-anchor="middle" x="1012.62" y="-5.75" font-family="Helvetica,sans-Serif" font-size="10.00">math.h</text>
</a>
</g>
</g>
<!-- Node13&#45;&gt;Node14 -->
<g id="edge16" class="edge">
<title>Node13&#45;&gt;Node14</title>
<path fill="none" stroke="#63b8ff" d="M1012.62,-55.08C1012.62,-48.42 1012.62,-38.99 1012.62,-30.53"/>
<polygon fill="#63b8ff" stroke="#63b8ff" points="1016.13,-30.61 1012.62,-20.61 1009.13,-30.61 1016.13,-30.61"/>
</g>
<!-- Node15&#45;&gt;Node3 -->
<g id="edge18" class="edge">
<title>Node15&#45;&gt;Node3</title>
<path fill="none" stroke="#63b8ff" d="M134.62,-55.08C135.37,-48.42 136.43,-38.99 137.38,-30.53"/>
<polygon fill="#63b8ff" stroke="#63b8ff" points="140.97,-30.94 138.61,-20.61 134.01,-30.15 140.97,-30.94"/>
</g>
<!-- Node16 -->
<g id="node16" class="node">
<title>Node16</title>
<g id="a_node16"><a xlink:href="icp_core_8h.html" target="_top" xlink:title=" ">
<polygon fill="white" stroke="#666666" points="99.25,-19.25 0,-19.25 0,0 99.25,0 99.25,-19.25"/>
<text text-anchor="middle" x="49.62" y="-5.75" font-family="Helvetica,sans-Serif" font-size="10.00">ARX/AR/icpCore.h</text>
</a>
</g>
</g>
<!-- Node15&#45;&gt;Node16 -->
<g id="edge19" class="edge">
<title>Node15&#45;&gt;Node16</title>
<path fill="none" stroke="#63b8ff" d="M119.38,-54.84C106.7,-46.81 87.93,-34.91 73.06,-25.48"/>
<polygon fill="#63b8ff" stroke="#63b8ff" points="75.26,-22.1 64.94,-19.7 71.52,-28.01 75.26,-22.1"/>
</g>
<!-- Node17&#45;&gt;Node2 -->
<g id="edge21" class="edge">
<title>Node17&#45;&gt;Node2</title>
<path fill="none" stroke="#63b8ff" d="M604.22,-74.95C620.55,-83.08 642.56,-95.13 658.51,-104.59"/>
<polygon fill="#63b8ff" stroke="#63b8ff" points="656.19,-107.89 666.56,-110.09 659.83,-101.91 656.19,-107.89"/>
</g>
<!-- Node18&#45;&gt;Node2 -->
<g id="edge24" class="edge">
<title>Node18&#45;&gt;Node2</title>
<path fill="none" stroke="#63b8ff" d="M857.3,-74.93C822.81,-84.21 766.31,-98.63 726.02,-108.46"/>
<polygon fill="#63b8ff" stroke="#63b8ff" points="725.27,-105.28 716.38,-111.04 726.92,-112.08 725.27,-105.28"/>
</g>
<!-- Node18&#45;&gt;Node7 -->
<g id="edge23" class="edge">
<title>Node18&#45;&gt;Node7</title>
<path fill="none" stroke="#63b8ff" d="M880.36,-55.08C874.28,-47.73 865.43,-37.01 857.93,-27.94"/>
<polygon fill="#63b8ff" stroke="#63b8ff" points="860.12,-26.09 851.05,-20.61 854.72,-30.55 860.12,-26.09"/>
</g>
<!-- Node19&#45;&gt;Node2 -->
<g id="edge32" class="edge">
<title>Node19&#45;&gt;Node2</title>
<path fill="none" stroke="#63b8ff" d="M505.69,-335.59C544.23,-330.39 596.45,-319.26 636.62,-295.5 693.89,-261.63 713.55,-247.03 737.62,-185 740.72,-177.02 741.44,-173.41 737.62,-165.75 731.32,-153.08 719.52,-143.06 708.12,-135.74"/>
<polygon fill="#63b8ff" stroke="#63b8ff" points="710.16,-132.29 699.76,-130.23 706.61,-138.32 710.16,-132.29"/>
</g>
<!-- Node19&#45;&gt;Node15 -->
<g id="edge33" class="edge">
<title>Node19&#45;&gt;Node15</title>
<path fill="none" stroke="#63b8ff" d="M399.7,-336.96C335.66,-332.07 232.88,-320.51 204.62,-295.5 141.79,-239.89 133.86,-129.96 133.35,-85.36"/>
<polygon fill="#63b8ff" stroke="#63b8ff" points="136.85,-85.62 133.36,-75.61 129.85,-85.61 136.85,-85.62"/>
</g>
<!-- Node20 -->
<g id="node20" class="node">
<title>Node20</title>
<g id="a_node20"><a xlink:href="thread__sub_8h.html" target="_top" xlink:title=" ">
<polygon fill="white" stroke="#666666" points="341.88,-295.5 213.38,-295.5 213.38,-276.25 341.88,-276.25 341.88,-295.5"/>
<text text-anchor="middle" x="277.62" y="-282" font-family="Helvetica,sans-Serif" font-size="10.00">ARX/ARUtil/thread_sub.h</text>
</a>
</g>
</g>
<!-- Node19&#45;&gt;Node20 -->
<g id="edge30" class="edge">
<title>Node19&#45;&gt;Node20</title>
<path fill="none" stroke="#63b8ff" d="M422.94,-331.09C394.03,-322.29 349.87,-308.86 317.82,-299.11"/>
<polygon fill="#63b8ff" stroke="#63b8ff" points="319.04,-295.52 308.46,-295.95 317.01,-302.21 319.04,-295.52"/>
</g>
<!-- Node21 -->
<g id="node21" class="node">
<title>Node21</title>
<g id="a_node21"><a xlink:href="config_8h.html" target="_top" xlink:title=" ">
<polygon fill="white" stroke="#666666" points="484.12,-129.75 387.12,-129.75 387.12,-110.5 484.12,-110.5 484.12,-129.75"/>
<text text-anchor="middle" x="435.62" y="-116.25" font-family="Helvetica,sans-Serif" font-size="10.00">ARX/AR2/config.h</text>
</a>
</g>
</g>
<!-- Node19&#45;&gt;Node21 -->
<g id="edge34" class="edge">
<title>Node19&#45;&gt;Node21</title>
<path fill="none" stroke="#63b8ff" d="M445.61,-331.16C433.02,-314.44 407.04,-276.87 397.62,-240.25 388.25,-203.8 409,-162.1 423.37,-138.96"/>
<polygon fill="#63b8ff" stroke="#63b8ff" points="426.69,-141.28 429.21,-130.99 420.82,-137.46 426.69,-141.28"/>
</g>
<!-- Node22 -->
<g id="node22" class="node">
<title>Node22</title>
<g id="a_node22"><a xlink:href="feature_set_8h.html" target="_top" xlink:title=" ">
<polygon fill="white" stroke="#666666" points="522.5,-240.25 406.75,-240.25 406.75,-221 522.5,-221 522.5,-240.25"/>
<text text-anchor="middle" x="464.62" y="-226.75" font-family="Helvetica,sans-Serif" font-size="10.00">ARX/AR2/featureSet.h</text>
</a>
</g>
</g>
<!-- Node19&#45;&gt;Node22 -->
<g id="edge35" class="edge">
<title>Node19&#45;&gt;Node22</title>
<path fill="none" stroke="#63b8ff" d="M453.61,-331.25C455.52,-313.92 459.8,-275.23 462.43,-251.49"/>
<polygon fill="#63b8ff" stroke="#63b8ff" points="466.01,-251.95 463.63,-241.63 459.05,-251.18 466.01,-251.95"/>
</g>
<!-- Node24 -->
<g id="node24" class="node">
<title>Node24</title>
<g id="a_node24"><a xlink:href="template_8h.html" target="_top" xlink:title=" ">
<polygon fill="white" stroke="#666666" points="604.75,-295.5 496.5,-295.5 496.5,-276.25 604.75,-276.25 604.75,-295.5"/>
<text text-anchor="middle" x="550.62" y="-282" font-family="Helvetica,sans-Serif" font-size="10.00">ARX/AR2/template.h</text>
</a>
</g>
</g>
<!-- Node19&#45;&gt;Node24 -->
<g id="edge40" class="edge">
<title>Node19&#45;&gt;Node24</title>
<path fill="none" stroke="#63b8ff" d="M469.25,-331.09C484.31,-322.91 506.77,-310.71 524.28,-301.19"/>
<polygon fill="#63b8ff" stroke="#63b8ff" points="525.8,-303.8 532.92,-295.95 522.46,-297.65 525.8,-303.8"/>
</g>
<!-- Node25 -->
<g id="node25" class="node">
<title>Node25</title>
<g id="a_node25"><a xlink:href="marker_8h.html" target="_top" xlink:title=" ">
<polygon fill="white" stroke="#666666" points="712.62,-185 612.62,-185 612.62,-165.75 712.62,-165.75 712.62,-185"/>
<text text-anchor="middle" x="662.62" y="-171.5" font-family="Helvetica,sans-Serif" font-size="10.00">ARX/AR2/marker.h</text>
</a>
</g>
</g>
<!-- Node19&#45;&gt;Node25 -->
<g id="edge45" class="edge">
<title>Node19&#45;&gt;Node25</title>
<path fill="none" stroke="#63b8ff" d="M505.38,-337.25C539.88,-332.79 583.89,-321.87 613.62,-295.5 643.22,-269.25 655.31,-222.39 659.96,-195.95"/>
<polygon fill="#63b8ff" stroke="#63b8ff" points="663.52,-196.8 661.61,-186.38 656.61,-195.72 663.52,-196.8"/>
</g>
<!-- Node20&#45;&gt;Node12 -->
<g id="edge31" class="edge">
<title>Node20&#45;&gt;Node12</title>
<path fill="none" stroke="#63b8ff" d="M272.04,-275.98C261.25,-257.93 238.62,-215.41 238.62,-176.38 238.62,-176.38 238.62,-176.38 238.62,-119.12 238.62,-88.07 236.14,-52.09 234.37,-30.36"/>
<polygon fill="#63b8ff" stroke="#63b8ff" points="237.79,-30.29 233.46,-20.62 230.82,-30.88 237.79,-30.29"/>
</g>
<!-- Node22&#45;&gt;Node21 -->
<g id="edge36" class="edge">
<title>Node22&#45;&gt;Node21</title>
<path fill="none" stroke="#63b8ff" d="M458.27,-220.54C452.56,-211.86 444.49,-198.17 440.62,-185 436.4,-170.6 435.23,-153.64 435.08,-140.82"/>
<polygon fill="#63b8ff" stroke="#63b8ff" points="438.59,-141.04 435.18,-131.01 431.59,-140.98 438.59,-141.04"/>
</g>
<!-- Node23 -->
<g id="node23" class="node">
<title>Node23</title>
<g id="a_node23"><a xlink:href="image_set_8h.html" target="_top" xlink:title=" ">
<polygon fill="white" stroke="#666666" points="594.62,-185 482.62,-185 482.62,-165.75 594.62,-165.75 594.62,-185"/>
<text text-anchor="middle" x="538.62" y="-171.5" font-family="Helvetica,sans-Serif" font-size="10.00">ARX/AR2/imageSet.h</text>
</a>
</g>
</g>
<!-- Node22&#45;&gt;Node23 -->
<g id="edge37" class="edge">
<title>Node22&#45;&gt;Node23</title>
<path fill="none" stroke="#63b8ff" d="M477.18,-220.59C488.19,-212.66 504.44,-200.97 517.47,-191.6"/>
<polygon fill="#63b8ff" stroke="#63b8ff" points="519.18,-193.96 525.26,-185.27 515.1,-188.27 519.18,-193.96"/>
</g>
<!-- Node23&#45;&gt;Node2 -->
<g id="edge38" class="edge">
<title>Node23&#45;&gt;Node2</title>
<path fill="none" stroke="#63b8ff" d="M562.37,-165.34C585,-156.74 619.3,-143.69 644.78,-134"/>
<polygon fill="#63b8ff" stroke="#63b8ff" points="645.66,-137.03 653.76,-130.2 643.17,-130.49 645.66,-137.03"/>
</g>
<!-- Node23&#45;&gt;Node21 -->
<g id="edge39" class="edge">
<title>Node23&#45;&gt;Node21</title>
<path fill="none" stroke="#63b8ff" d="M521.15,-165.34C505.17,-157.08 481.28,-144.73 462.8,-135.18"/>
<polygon fill="#63b8ff" stroke="#63b8ff" points="464.67,-131.69 454.18,-130.2 461.46,-137.9 464.67,-131.69"/>
</g>
<!-- Node24&#45;&gt;Node2 -->
<g id="edge41" class="edge">
<title>Node24&#45;&gt;Node2</title>
<path fill="none" stroke="#63b8ff" d="M585.7,-275.8C626.67,-263.1 692.53,-235.69 721.62,-185 731.36,-168.04 715.93,-149.6 700.91,-136.92"/>
<polygon fill="#63b8ff" stroke="#63b8ff" points="703.34,-133.59 693.31,-130.17 699.02,-139.1 703.34,-133.59"/>
</g>
<!-- Node24&#45;&gt;Node21 -->
<g id="edge42" class="edge">
<title>Node24&#45;&gt;Node21</title>
<path fill="none" stroke="#63b8ff" d="M549.98,-276.14C548.62,-262.96 544.41,-237.73 531.62,-221 513.21,-196.89 494.88,-206.65 473.62,-185 460.65,-171.77 450.27,-153.29 443.66,-139.6"/>
<polygon fill="#63b8ff" stroke="#63b8ff" points="446.54,-138.48 439.19,-130.85 440.18,-141.4 446.54,-138.48"/>
</g>
<!-- Node24&#45;&gt;Node22 -->
<g id="edge44" class="edge">
<title>Node24&#45;&gt;Node22</title>
<path fill="none" stroke="#63b8ff" d="M536.04,-275.84C523.06,-267.81 503.85,-255.91 488.61,-246.48"/>
<polygon fill="#63b8ff" stroke="#63b8ff" points="490.63,-242.99 480.29,-240.7 486.94,-248.94 490.63,-242.99"/>
</g>
<!-- Node24&#45;&gt;Node23 -->
<g id="edge43" class="edge">
<title>Node24&#45;&gt;Node23</title>
<path fill="none" stroke="#63b8ff" d="M555.2,-276.13C561.07,-263.77 569.89,-240.51 564.62,-221 562.06,-211.51 556.92,-201.95 551.88,-194.14"/>
<polygon fill="#63b8ff" stroke="#63b8ff" points="554.33,-192.53 545.76,-186.3 548.58,-196.51 554.33,-192.53"/>
</g>
<!-- Node25&#45;&gt;Node2 -->
<g id="edge46" class="edge">
<title>Node25&#45;&gt;Node2</title>
<path fill="none" stroke="#63b8ff" d="M665.27,-165.58C667.32,-158.76 670.23,-149.06 672.82,-140.45"/>
<polygon fill="#63b8ff" stroke="#63b8ff" points="676.4,-141.69 675.93,-131.11 669.7,-139.68 676.4,-141.69"/>
</g>
<!-- Node25&#45;&gt;Node21 -->
<g id="edge47" class="edge">
<title>Node25&#45;&gt;Node21</title>
<path fill="none" stroke="#63b8ff" d="M623.86,-165.28C585.42,-156.26 526.39,-142.42 484.7,-132.64"/>
<polygon fill="#63b8ff" stroke="#63b8ff" points="485.76,-129.06 475.23,-130.18 484.17,-135.87 485.76,-129.06"/>
</g>
<!-- Node26&#45;&gt;Node21 -->
<g id="edge49" class="edge">
<title>Node26&#45;&gt;Node21</title>
<path fill="none" stroke="#63b8ff" d="M315.16,-220.63C324.95,-207.56 344.43,-182.97 364.62,-165.75 378.18,-154.2 394.98,-143.5 408.85,-135.47"/>
<polygon fill="#63b8ff" stroke="#63b8ff" points="410.34,-138.09 417.33,-130.13 406.9,-131.99 410.34,-138.09"/>
</g>
</g>
</svg>
        <g id="navigator" transform="translate(0 0)" fill="#404254">
                <rect fill="#f2f5e9" fill-opacity="0.5" stroke="#606060" stroke-width=".5" x="0" y="0" width="60" height="60"/>
                <use id="zoomplus" xlink:href="#zoomPlus" x="17" y="9" onmousedown="handleZoom(evt,'in')"/>
                <use id="zoomminus" xlink:href="#zoomMin" x="42" y="9" onmousedown="handleZoom(evt,'out')"/>
                <use id="reset" xlink:href="#resetDef" x="30" y="36" onmousedown="handleReset()"/>
                <g id="arrowUp" xlink:href="#dirArrow" transform="translate(30 24)" onmousedown="handlePan(0,-1)">
                  <use xlink:href="#rim" fill="#404040">
                        <set attributeName="fill" to="#808080" begin="arrowUp.mouseover" end="arrowUp.mouseout"/>
                  </use>
                  <path fill="none" stroke="white" stroke-width="1.5" d="M0,-3.0v7 M-2.5,-0.5L0,-3.0L2.5,-0.5"/>
                </g>
                <g id="arrowRight" xlink:href="#dirArrow" transform="rotate(90) translate(36 -43)" onmousedown="handlePan(1,0)">
                  <use xlink:href="#rim" fill="#404040">
                        <set attributeName="fill" to="#808080" begin="arrowRight.mouseover" end="arrowRight.mouseout"/>
                  </use>
                  <path fill="none" stroke="white" stroke-width="1.5" d="M0,-3.0v7 M-2.5,-0.5L0,-3.0L2.5,-0.5"/>
                </g>
                <g id="arrowDown" xlink:href="#dirArrow" transform="rotate(180) translate(-30 -48)" onmousedown="handlePan(0,1)">
                  <use xlink:href="#rim" fill="#404040">
                        <set attributeName="fill" to="#808080" begin="arrowDown.mouseover" end="arrowDown.mouseout"/>
                  </use>
                  <path fill="none" stroke="white" stroke-width="1.5" d="M0,-3.0v7 M-2.5,-0.5L0,-3.0L2.5,-0.5"/>
                </g>
                <g id="arrowLeft" xlink:href="#dirArrow" transform="rotate(270) translate(-36 17)" onmousedown="handlePan(-1,0)">
                  <use xlink:href="#rim" fill="#404040">
                        <set attributeName="fill" to="#808080" begin="arrowLeft.mouseover" end="arrowLeft.mouseout"/>
                  </use>
                  <path fill="none" stroke="white" stroke-width="1.5" d="M0,-3.0v7 M-2.5,-0.5L0,-3.0L2.5,-0.5"/>
                </g>
        </g>
        <svg viewBox="0 0 15 15" width="100%" height="30px" preserveAspectRatio="xMaxYMin meet">
         <g id="arrow_out" transform="scale(0.3 0.3)">
          <a xlink:href="handle_8c__incl_org.svg" target="_base">
           <rect id="button" ry="5" rx="5" y="6" x="6" height="38" width="38"
                fill="#f2f5e9" fill-opacity="0.5" stroke="#606060" stroke-width="1.0"/>
           <path id="arrow"
             d="M 11.500037,31.436501 C 11.940474,20.09759 22.043105,11.32322 32.158766,21.979434 L 37.068811,17.246167 C 37.068811,17.246167 37.088388,32 37.088388,32 L 22.160133,31.978069 C 22.160133,31.978069 26.997745,27.140456 26.997745,27.140456 C 18.528582,18.264221 13.291696,25.230495 11.500037,31.436501 z"
             style="fill:#404040;"/>
          </a>
         </g>
        </svg>
</svg>
