<?xml version="1.0" encoding="UTF-8" standalone="no"?>
<!DOCTYPE svg PUBLIC "-//W3C//DTD SVG 1.1//EN"
 "http://www.w3.org/Graphics/SVG/1.1/DTD/svg11.dtd">
<!-- Generated by graphviz version 8.0.5 (20230430.1635)
 -->
<!-- Title: ar2CreateHandle Pages: 1 -->
<svg width="244pt" height="64pt"
 viewBox="0.00 0.00 244.00 64.25" xmlns="http://www.w3.org/2000/svg" xmlns:xlink="http://www.w3.org/1999/xlink">
<g id="graph0" class="graph" transform="scale(1 1) rotate(0) translate(4 60.25)">
<title>ar2CreateHandle</title>
<!-- Node1 -->
<g id="node1" class="node">
<title>Node1</title>
<g id="a_node1"><a xlink:title=" ">
<polygon fill="#999999" stroke="#666666" points="89.5,-37.25 0,-37.25 0,-18 89.5,-18 89.5,-37.25"/>
<text text-anchor="middle" x="44.75" y="-23.75" font-family="Helvetica,sans-Serif" font-size="10.00">ar2CreateHandle</text>
</a>
</g>
</g>
<!-- Node2 -->
<g id="node2" class="node">
<title>Node2</title>
<g id="a_node2"><a xlink:href="icp_handle_8c.html#acc980d46da2fee551179fe0eb8853587" target="_top" xlink:title=" ">
<polygon fill="white" stroke="#666666" points="225.12,-56.25 136.38,-56.25 136.38,-37 225.12,-37 225.12,-56.25"/>
<text text-anchor="middle" x="180.75" y="-42.75" font-family="Helvetica,sans-Serif" font-size="10.00">icpCreateHandle</text>
</a>
</g>
</g>
<!-- Node1&#45;&gt;Node2 -->
<g id="edge1" class="edge">
<title>Node1&#45;&gt;Node2</title>
<path fill="none" stroke="#63b8ff" d="M90,-33.9C101.32,-35.5 113.63,-37.25 125.39,-38.92"/>
<polygon fill="#63b8ff" stroke="#63b8ff" points="124.61,-42.48 135.01,-40.42 125.6,-35.55 124.61,-42.48"/>
</g>
<!-- Node3 -->
<g id="node3" class="node">
<title>Node3</title>
<g id="a_node3"><a xlink:href="icp_handle_8c.html#a9515de22165e8248a8742e1f5b9e4bef" target="_top" xlink:title=" ">
<polygon fill="white" stroke="#666666" points="236,-19.25 125.5,-19.25 125.5,0 236,0 236,-19.25"/>
<text text-anchor="middle" x="180.75" y="-5.75" font-family="Helvetica,sans-Serif" font-size="10.00">icpSetInlierProbability</text>
</a>
</g>
</g>
<!-- Node1&#45;&gt;Node3 -->
<g id="edge2" class="edge">
<title>Node1&#45;&gt;Node3</title>
<path fill="none" stroke="#63b8ff" d="M90,-21.68C97.84,-20.63 106.16,-19.51 114.44,-18.4"/>
<polygon fill="#63b8ff" stroke="#63b8ff" points="114.82,-21.74 124.27,-16.94 113.89,-14.81 114.82,-21.74"/>
</g>
</g>
</svg>
