<?xml version="1.0" encoding="UTF-8" standalone="no"?>
<!DOCTYPE svg PUBLIC "-//W3C//DTD SVG 1.1//EN"
 "http://www.w3.org/Graphics/SVG/1.1/DTD/svg11.dtd">
<!-- Generated by graphviz version 8.0.5 (20230430.1635)
 -->
<!-- Title: Source/ARX/AR/icpPointRobust.c Pages: 1 -->
<!--zoomable 193 -->
<svg id="main" version="1.1" xmlns="http://www.w3.org/2000/svg" xmlns:xlink="http://www.w3.org/1999/xlink" xml:space="preserve" onload="init(evt)">
<style type="text/css"><![CDATA[
.edge:hover path { stroke: red; }
.edge:hover polygon { stroke: red; fill: red; }
]]></style>
<script type="text/javascript"><![CDATA[
var edges = document.getElementsByTagName('g');
if (edges && edges.length) {
  for (var i=0;i<edges.length;i++) {
    if (edges[i].id.substr(0,4)=='edge') {
      edges[i].setAttribute('class','edge');
    }
  }
}
]]></script>
        <defs>
                <circle id="rim" cx="0" cy="0" r="7"/>
                <circle id="rim2" cx="0" cy="0" r="3.5"/>
                <g id="zoomPlus">
                        <use xlink:href="#rim" fill="#404040">
                                <set attributeName="fill" to="#808080" begin="zoomplus.mouseover" end="zoomplus.mouseout"/>
                        </use>
                        <path d="M-4,0h8M0,-4v8" fill="none" stroke="white" stroke-width="1.5" pointer-events="none"/>
                </g>
                <g id="zoomMin">
                        <use xlink:href="#rim" fill="#404040">
                                <set attributeName="fill" to="#808080" begin="zoomminus.mouseover" end="zoomminus.mouseout"/>
                        </use>
                        <path d="M-4,0h8" fill="none" stroke="white" stroke-width="1.5" pointer-events="none"/>
                </g>
                <g id="dirArrow">
                        <path fill="none" stroke="white" stroke-width="1.5" d="M0,-3.0v7 M-2.5,-0.5L0,-3.0L2.5,-0.5"/>
                </g>
               <g id="resetDef">
                       <use xlink:href="#rim2" fill="#404040">
                               <set attributeName="fill" to="#808080" begin="reset.mouseover" end="reset.mouseout"/>
                       </use>
               </g>
        </defs>

<script type="text/javascript">
var viewWidth = 1038;
var viewHeight = 193;
var sectionId = 'dynsection-0';
</script>
<script xlink:href="svgpan.js"/>
<svg id="graph" class="graph">
<g id="viewport">
<title>Source/ARX/AR/icpPointRobust.c</title>
<!-- Node1 -->
<g id="node1" class="node">
<title>Node1</title>
<g id="a_node1"><a xlink:title=" ">
<polygon fill="#999999" stroke="#666666" points="578.27,-185 412.27,-185 412.27,-165.75 578.27,-165.75 578.27,-185"/>
<text text-anchor="middle" x="495.27" y="-171.5" font-family="Helvetica,sans-Serif" font-size="10.00">Source/ARX/AR/icpPointRobust.c</text>
</a>
</g>
</g>
<!-- Node2 -->
<g id="node2" class="node">
<title>Node2</title>
<g id="a_node2"><a xlink:title=" ">
<polygon fill="#e0e0e0" stroke="#999999" points="912.9,-19.25 867.65,-19.25 867.65,0 912.9,0 912.9,-19.25"/>
<text text-anchor="middle" x="890.27" y="-5.75" font-family="Helvetica,sans-Serif" font-size="10.00">stdio.h</text>
</a>
</g>
</g>
<!-- Node1&#45;&gt;Node2 -->
<g id="edge1" class="edge">
<title>Node1&#45;&gt;Node2</title>
<path fill="none" stroke="#63b8ff" d="M578.42,-166.18C653.63,-155.36 764.48,-130.59 844.27,-74.5 860.83,-62.86 873.62,-43.32 881.46,-28.91"/>
<polygon fill="#63b8ff" stroke="#63b8ff" points="884.84,-31 886.28,-20.51 878.61,-27.81 884.84,-31"/>
</g>
<!-- Node3 -->
<g id="node3" class="node">
<title>Node3</title>
<g id="a_node3"><a xlink:title=" ">
<polygon fill="#e0e0e0" stroke="#999999" points="440.02,-19.25 392.52,-19.25 392.52,0 440.02,0 440.02,-19.25"/>
<text text-anchor="middle" x="416.27" y="-5.75" font-family="Helvetica,sans-Serif" font-size="10.00">stdlib.h</text>
</a>
</g>
</g>
<!-- Node1&#45;&gt;Node3 -->
<g id="edge2" class="edge">
<title>Node1&#45;&gt;Node3</title>
<path fill="none" stroke="#63b8ff" d="M433.42,-165.27C344.35,-150.76 186.9,-119.35 153.27,-74.5 148.14,-67.65 147.75,-61.79 153.27,-55.25 167.89,-37.95 313.72,-21.03 381.71,-14.01"/>
<polygon fill="#63b8ff" stroke="#63b8ff" points="381.71,-17.43 391.31,-12.94 381,-10.47 381.71,-17.43"/>
</g>
<!-- Node4 -->
<g id="node4" class="node">
<title>Node4</title>
<g id="a_node4"><a xlink:title=" ">
<polygon fill="#e0e0e0" stroke="#999999" points="46.27,-19.25 0.27,-19.25 0.27,0 46.27,0 46.27,-19.25"/>
<text text-anchor="middle" x="23.27" y="-5.75" font-family="Helvetica,sans-Serif" font-size="10.00">math.h</text>
</a>
</g>
</g>
<!-- Node1&#45;&gt;Node4 -->
<g id="edge3" class="edge">
<title>Node1&#45;&gt;Node4</title>
<path fill="none" stroke="#63b8ff" d="M411.8,-170.14C285.08,-161.71 53.74,-137.85 5.27,-74.5 -4.98,-61.1 2.39,-42.13 10.57,-28.34"/>
<polygon fill="#63b8ff" stroke="#63b8ff" points="13.89,-30.66 16.44,-20.38 8.03,-26.83 13.89,-30.66"/>
</g>
<!-- Node5 -->
<g id="node5" class="node">
<title>Node5</title>
<g id="a_node5"><a xlink:href="ar_8h.html" target="_top" xlink:title="artoolkitX core routines.">
<polygon fill="white" stroke="#666666" points="531.77,-129.75 458.77,-129.75 458.77,-110.5 531.77,-110.5 531.77,-129.75"/>
<text text-anchor="middle" x="495.27" y="-116.25" font-family="Helvetica,sans-Serif" font-size="10.00">ARX/AR/ar.h</text>
</a>
</g>
</g>
<!-- Node1&#45;&gt;Node5 -->
<g id="edge4" class="edge">
<title>Node1&#45;&gt;Node5</title>
<path fill="none" stroke="#63b8ff" d="M495.27,-165.58C495.27,-158.92 495.27,-149.49 495.27,-141.03"/>
<polygon fill="#63b8ff" stroke="#63b8ff" points="498.77,-141.11 495.27,-131.11 491.77,-141.11 498.77,-141.11"/>
</g>
<!-- Node15 -->
<g id="node15" class="node">
<title>Node15</title>
<g id="a_node15"><a xlink:href="icp_8h.html" target="_top" xlink:title=" ">
<polygon fill="white" stroke="#666666" points="978.4,-74.5 900.15,-74.5 900.15,-55.25 978.4,-55.25 978.4,-74.5"/>
<text text-anchor="middle" x="939.27" y="-61" font-family="Helvetica,sans-Serif" font-size="10.00">ARX/AR/icp.h</text>
</a>
</g>
</g>
<!-- Node1&#45;&gt;Node15 -->
<g id="edge28" class="edge">
<title>Node1&#45;&gt;Node15</title>
<path fill="none" stroke="#63b8ff" d="M578.54,-172.09C677.24,-168.15 834.82,-157.59 886.27,-129.75 905.43,-119.39 920.44,-99 929.52,-84.03"/>
<polygon fill="#63b8ff" stroke="#63b8ff" points="932.91,-86.15 934.84,-75.73 926.84,-82.67 932.91,-86.15"/>
</g>
<!-- Node5&#45;&gt;Node2 -->
<g id="edge5" class="edge">
<title>Node5&#45;&gt;Node2</title>
<path fill="none" stroke="#63b8ff" d="M532.06,-116.59C605.01,-111.14 765.25,-96.96 815.27,-74.5 839.53,-63.61 861.99,-42.38 875.88,-27.4"/>
<polygon fill="#63b8ff" stroke="#63b8ff" points="877.96,-30.2 882.03,-20.42 872.75,-25.54 877.96,-30.2"/>
</g>
<!-- Node5&#45;&gt;Node3 -->
<g id="edge6" class="edge">
<title>Node5&#45;&gt;Node3</title>
<path fill="none" stroke="#63b8ff" d="M477.57,-110.09C464.12,-102.36 446.13,-90.03 435.27,-74.5 426.04,-61.3 421.23,-43.57 418.76,-30.13"/>
<polygon fill="#63b8ff" stroke="#63b8ff" points="422.13,-30.01 417.15,-20.66 415.21,-31.08 422.13,-30.01"/>
</g>
<!-- Node6 -->
<g id="node6" class="node">
<title>Node6</title>
<g id="a_node6"><a xlink:title=" ">
<polygon fill="#e0e0e0" stroke="#999999" points="388.4,-74.5 340.15,-74.5 340.15,-55.25 388.4,-55.25 388.4,-74.5"/>
<text text-anchor="middle" x="364.27" y="-61" font-family="Helvetica,sans-Serif" font-size="10.00">stdint.h</text>
</a>
</g>
</g>
<!-- Node5&#45;&gt;Node6 -->
<g id="edge7" class="edge">
<title>Node5&#45;&gt;Node6</title>
<path fill="none" stroke="#63b8ff" d="M473.05,-110.09C452.07,-101.56 420.36,-88.67 396.58,-79.01"/>
<polygon fill="#63b8ff" stroke="#63b8ff" points="398.19,-75.48 387.6,-74.95 395.55,-81.96 398.19,-75.48"/>
</g>
<!-- Node7 -->
<g id="node7" class="node">
<title>Node7</title>
<g id="a_node7"><a xlink:title=" ">
<polygon fill="#e0e0e0" stroke="#999999" points="575.4,-19.25 527.15,-19.25 527.15,0 575.4,0 575.4,-19.25"/>
<text text-anchor="middle" x="551.27" y="-5.75" font-family="Helvetica,sans-Serif" font-size="10.00">string.h</text>
</a>
</g>
</g>
<!-- Node5&#45;&gt;Node7 -->
<g id="edge8" class="edge">
<title>Node5&#45;&gt;Node7</title>
<path fill="none" stroke="#63b8ff" d="M515.74,-110.1C529.69,-102.73 547.05,-90.86 555.27,-74.5 562.22,-60.68 560.43,-43 557.35,-29.75"/>
<polygon fill="#63b8ff" stroke="#63b8ff" points="560.54,-29.15 554.49,-20.45 553.79,-31.02 560.54,-29.15"/>
</g>
<!-- Node8 -->
<g id="node8" class="node">
<title>Node8</title>
<g id="a_node8"><a xlink:title=" ">
<polygon fill="#e0e0e0" stroke="#999999" points="313.15,-19.25 221.4,-19.25 221.4,0 313.15,0 313.15,-19.25"/>
<text text-anchor="middle" x="267.27" y="-5.75" font-family="Helvetica,sans-Serif" font-size="10.00">ARX/AR/config.h</text>
</a>
</g>
</g>
<!-- Node5&#45;&gt;Node8 -->
<g id="edge9" class="edge">
<title>Node5&#45;&gt;Node8</title>
<path fill="none" stroke="#63b8ff" d="M458.32,-114.63C423.62,-109.17 371.23,-97.65 331.27,-74.5 310.77,-62.62 292.19,-42.55 280.4,-28.07"/>
<polygon fill="#63b8ff" stroke="#63b8ff" points="282.61,-26.21 273.68,-20.5 277.1,-30.53 282.61,-26.21"/>
</g>
<!-- Node9 -->
<g id="node9" class="node">
<title>Node9</title>
<g id="a_node9"><a xlink:href="ar_config_8h.html" target="_top" xlink:title=" ">
<polygon fill="white" stroke="#666666" points="546.4,-74.5 444.15,-74.5 444.15,-55.25 546.4,-55.25 546.4,-74.5"/>
<text text-anchor="middle" x="495.27" y="-61" font-family="Helvetica,sans-Serif" font-size="10.00">ARX/AR/arConfig.h</text>
</a>
</g>
</g>
<!-- Node5&#45;&gt;Node9 -->
<g id="edge10" class="edge">
<title>Node5&#45;&gt;Node9</title>
<path fill="none" stroke="#63b8ff" d="M495.27,-110.33C495.27,-103.67 495.27,-94.24 495.27,-85.78"/>
<polygon fill="#63b8ff" stroke="#63b8ff" points="498.77,-85.86 495.27,-75.86 491.77,-85.86 498.77,-85.86"/>
</g>
<!-- Node10 -->
<g id="node10" class="node">
<title>Node10</title>
<g id="a_node10"><a xlink:href="log_8h.html" target="_top" xlink:title="Logging utilities.">
<polygon fill="white" stroke="#666666" points="805.9,-74.5 712.65,-74.5 712.65,-55.25 805.9,-55.25 805.9,-74.5"/>
<text text-anchor="middle" x="759.27" y="-61" font-family="Helvetica,sans-Serif" font-size="10.00">ARX/ARUtil/log.h</text>
</a>
</g>
</g>
<!-- Node5&#45;&gt;Node10 -->
<g id="edge11" class="edge">
<title>Node5&#45;&gt;Node10</title>
<path fill="none" stroke="#63b8ff" d="M532.26,-111.66C576.77,-102.69 651.95,-87.52 703.52,-77.12"/>
<polygon fill="#63b8ff" stroke="#63b8ff" points="704.03,-80.39 713.14,-74.98 702.65,-73.52 704.03,-80.39"/>
</g>
<!-- Node14 -->
<g id="node14" class="node">
<title>Node14</title>
<g id="a_node14"><a xlink:href="matrix_8h.html" target="_top" xlink:title=" ">
<polygon fill="white" stroke="#666666" points="106.52,-74.5 14.02,-74.5 14.02,-55.25 106.52,-55.25 106.52,-74.5"/>
<text text-anchor="middle" x="60.27" y="-61" font-family="Helvetica,sans-Serif" font-size="10.00">ARX/AR/matrix.h</text>
</a>
</g>
</g>
<!-- Node5&#45;&gt;Node14 -->
<g id="edge18" class="edge">
<title>Node5&#45;&gt;Node14</title>
<path fill="none" stroke="#63b8ff" d="M458.56,-114.63C382.76,-105.35 208.46,-84.02 117.65,-72.9"/>
<polygon fill="#63b8ff" stroke="#63b8ff" points="118.09,-69.3 107.74,-71.56 117.24,-76.25 118.09,-69.3"/>
</g>
<!-- Node5&#45;&gt;Node15 -->
<g id="edge20" class="edge">
<title>Node5&#45;&gt;Node15</title>
<path fill="none" stroke="#63b8ff" d="M531.98,-114.72C611.26,-105.21 798.6,-82.75 888.89,-71.92"/>
<polygon fill="#63b8ff" stroke="#63b8ff" points="889.15,-75.29 898.67,-70.63 888.32,-68.34 889.15,-75.29"/>
</g>
<!-- Node17 -->
<g id="node17" class="node">
<title>Node17</title>
<g id="a_node17"><a xlink:href="param_8h.html" target="_top" xlink:title="artoolkitX functions for handling calibrated camera parameters.">
<polygon fill="white" stroke="#666666" points="694.52,-74.5 602.02,-74.5 602.02,-55.25 694.52,-55.25 694.52,-74.5"/>
<text text-anchor="middle" x="648.27" y="-61" font-family="Helvetica,sans-Serif" font-size="10.00">ARX/AR/param.h</text>
</a>
</g>
</g>
<!-- Node5&#45;&gt;Node17 -->
<g id="edge23" class="edge">
<title>Node5&#45;&gt;Node17</title>
<path fill="none" stroke="#63b8ff" d="M516.01,-110.09C539.25,-101.37 577.2,-88.09 606.57,-78.36"/>
<polygon fill="#63b8ff" stroke="#63b8ff" points="607.55,-81.4 615.96,-74.95 605.37,-74.74 607.55,-81.4"/>
</g>
<!-- Node18 -->
<g id="node18" class="node">
<title>Node18</title>
<g id="a_node18"><a xlink:href="ar_image_proc_8h.html" target="_top" xlink:title="artoolkitX functions for 2D luminance image processing.">
<polygon fill="white" stroke="#666666" points="283.77,-74.5 162.77,-74.5 162.77,-55.25 283.77,-55.25 283.77,-74.5"/>
<text text-anchor="middle" x="223.27" y="-61" font-family="Helvetica,sans-Serif" font-size="10.00">ARX/AR/arImageProc.h</text>
</a>
</g>
</g>
<!-- Node5&#45;&gt;Node18 -->
<g id="edge25" class="edge">
<title>Node5&#45;&gt;Node18</title>
<path fill="none" stroke="#63b8ff" d="M458.45,-112.81C411.04,-104.02 328.66,-87.96 275.01,-77.11"/>
<polygon fill="#63b8ff" stroke="#63b8ff" points="275.85,-73.5 265.35,-74.94 274.45,-80.36 275.85,-73.5"/>
</g>
<!-- Node10&#45;&gt;Node2 -->
<g id="edge12" class="edge">
<title>Node10&#45;&gt;Node2</title>
<path fill="none" stroke="#63b8ff" d="M781.49,-54.84C802.48,-46.31 834.19,-33.42 857.97,-23.76"/>
<polygon fill="#63b8ff" stroke="#63b8ff" points="858.99,-26.71 866.94,-19.7 856.36,-20.23 858.99,-26.71"/>
</g>
<!-- Node10&#45;&gt;Node3 -->
<g id="edge13" class="edge">
<title>Node10&#45;&gt;Node3</title>
<path fill="none" stroke="#63b8ff" d="M712.3,-56.58C642.52,-45.75 513.06,-25.65 451.09,-16.03"/>
<polygon fill="#63b8ff" stroke="#63b8ff" points="451.75,-12.44 441.34,-14.36 450.68,-19.35 451.75,-12.44"/>
</g>
<!-- Node10&#45;&gt;Node7 -->
<g id="edge14" class="edge">
<title>Node10&#45;&gt;Node7</title>
<path fill="none" stroke="#63b8ff" d="M723.39,-54.79C690.22,-46.38 639.26,-33.42 586.37,-19.78"/>
<polygon fill="#63b8ff" stroke="#63b8ff" points="587.33,-16.16 576.78,-17.05 585.58,-22.94 587.33,-16.16"/>
</g>
<!-- Node11 -->
<g id="node11" class="node">
<title>Node11</title>
<g id="a_node11"><a xlink:title=" ">
<polygon fill="#e0e0e0" stroke="#999999" points="766.9,-19.25 715.65,-19.25 715.65,0 766.9,0 766.9,-19.25"/>
<text text-anchor="middle" x="741.27" y="-5.75" font-family="Helvetica,sans-Serif" font-size="10.00">stdarg.h</text>
</a>
</g>
</g>
<!-- Node10&#45;&gt;Node11 -->
<g id="edge15" class="edge">
<title>Node10&#45;&gt;Node11</title>
<path fill="none" stroke="#63b8ff" d="M756.3,-55.08C753.99,-48.26 750.71,-38.56 747.8,-29.95"/>
<polygon fill="#63b8ff" stroke="#63b8ff" points="750.83,-28.96 744.31,-20.61 744.2,-31.2 750.83,-28.96"/>
</g>
<!-- Node12 -->
<g id="node12" class="node">
<title>Node12</title>
<g id="a_node12"><a xlink:title=" ">
<polygon fill="#e0e0e0" stroke="#999999" points="849.65,-19.25 784.9,-19.25 784.9,0 849.65,0 849.65,-19.25"/>
<text text-anchor="middle" x="817.27" y="-5.75" font-family="Helvetica,sans-Serif" font-size="10.00">sys/errno.h</text>
</a>
</g>
</g>
<!-- Node10&#45;&gt;Node12 -->
<g id="edge16" class="edge">
<title>Node10&#45;&gt;Node12</title>
<path fill="none" stroke="#63b8ff" d="M769.11,-54.84C777.41,-47.22 789.5,-36.12 799.49,-26.95"/>
<polygon fill="#63b8ff" stroke="#63b8ff" points="801.58,-29.87 806.58,-20.52 796.84,-24.71 801.58,-29.87"/>
</g>
<!-- Node13 -->
<g id="node13" class="node">
<title>Node13</title>
<g id="a_node13"><a xlink:href="types_8h.html" target="_top" xlink:title=" ">
<polygon fill="white" stroke="#666666" points="697.52,-19.25 593.02,-19.25 593.02,0 697.52,0 697.52,-19.25"/>
<text text-anchor="middle" x="645.27" y="-5.75" font-family="Helvetica,sans-Serif" font-size="10.00">ARX/ARUtil/types.h</text>
</a>
</g>
</g>
<!-- Node10&#45;&gt;Node13 -->
<g id="edge17" class="edge">
<title>Node10&#45;&gt;Node13</title>
<path fill="none" stroke="#63b8ff" d="M739.93,-54.84C722,-46.47 695.06,-33.88 674.51,-24.28"/>
<polygon fill="#63b8ff" stroke="#63b8ff" points="676.25,-20.76 665.71,-19.7 673.28,-27.11 676.25,-20.76"/>
</g>
<!-- Node14&#45;&gt;Node4 -->
<g id="edge19" class="edge">
<title>Node14&#45;&gt;Node4</title>
<path fill="none" stroke="#63b8ff" d="M54.16,-55.08C49.16,-47.88 41.91,-37.46 35.7,-28.51"/>
<polygon fill="#63b8ff" stroke="#63b8ff" points="38.09,-26.82 29.51,-20.61 32.35,-30.82 38.09,-26.82"/>
</g>
<!-- Node15&#45;&gt;Node2 -->
<g id="edge21" class="edge">
<title>Node15&#45;&gt;Node2</title>
<path fill="none" stroke="#63b8ff" d="M931.18,-55.08C924.34,-47.65 914.35,-36.79 905.95,-27.66"/>
<polygon fill="#63b8ff" stroke="#63b8ff" points="908.89,-25.6 899.54,-20.61 903.73,-30.34 908.89,-25.6"/>
</g>
<!-- Node16 -->
<g id="node16" class="node">
<title>Node16</title>
<g id="a_node16"><a xlink:href="icp_core_8h.html" target="_top" xlink:title=" ">
<polygon fill="white" stroke="#666666" points="1029.9,-19.25 930.65,-19.25 930.65,0 1029.9,0 1029.9,-19.25"/>
<text text-anchor="middle" x="980.27" y="-5.75" font-family="Helvetica,sans-Serif" font-size="10.00">ARX/AR/icpCore.h</text>
</a>
</g>
</g>
<!-- Node15&#45;&gt;Node16 -->
<g id="edge22" class="edge">
<title>Node15&#45;&gt;Node16</title>
<path fill="none" stroke="#63b8ff" d="M946.04,-55.08C951.65,-47.8 959.78,-37.23 966.72,-28.23"/>
<polygon fill="#63b8ff" stroke="#63b8ff" points="970.03,-30.67 973.35,-20.61 964.48,-26.4 970.03,-30.67"/>
</g>
<!-- Node17&#45;&gt;Node5 -->
<g id="edge24" class="edge">
<title>Node17&#45;&gt;Node5</title>
<path fill="none" stroke="#63b8ff" d="M627.42,-74.95C604.13,-83.69 566.16,-96.97 536.82,-106.69"/>
<polygon fill="#63b8ff" stroke="#63b8ff" points="535.85,-103.65 527.44,-110.09 538.04,-110.3 535.85,-103.65"/>
</g>
<!-- Node18&#45;&gt;Node5 -->
<g id="edge27" class="edge">
<title>Node18&#45;&gt;Node5</title>
<path fill="none" stroke="#63b8ff" d="M275.01,-74.98C324.89,-84.36 399.56,-98.97 447.91,-108.78"/>
<polygon fill="#63b8ff" stroke="#63b8ff" points="446.91,-112.35 457.4,-110.92 448.3,-105.49 446.91,-112.35"/>
</g>
<!-- Node18&#45;&gt;Node8 -->
<g id="edge26" class="edge">
<title>Node18&#45;&gt;Node8</title>
<path fill="none" stroke="#63b8ff" d="M230.54,-55.08C236.62,-47.73 245.47,-37.01 252.96,-27.94"/>
<polygon fill="#63b8ff" stroke="#63b8ff" points="256.18,-30.55 259.85,-20.61 250.78,-26.09 256.18,-30.55"/>
</g>
</g>
</svg>
        <g id="navigator" transform="translate(0 0)" fill="#404254">
                <rect fill="#f2f5e9" fill-opacity="0.5" stroke="#606060" stroke-width=".5" x="0" y="0" width="60" height="60"/>
                <use id="zoomplus" xlink:href="#zoomPlus" x="17" y="9" onmousedown="handleZoom(evt,'in')"/>
                <use id="zoomminus" xlink:href="#zoomMin" x="42" y="9" onmousedown="handleZoom(evt,'out')"/>
                <use id="reset" xlink:href="#resetDef" x="30" y="36" onmousedown="handleReset()"/>
                <g id="arrowUp" xlink:href="#dirArrow" transform="translate(30 24)" onmousedown="handlePan(0,-1)">
                  <use xlink:href="#rim" fill="#404040">
                        <set attributeName="fill" to="#808080" begin="arrowUp.mouseover" end="arrowUp.mouseout"/>
                  </use>
                  <path fill="none" stroke="white" stroke-width="1.5" d="M0,-3.0v7 M-2.5,-0.5L0,-3.0L2.5,-0.5"/>
                </g>
                <g id="arrowRight" xlink:href="#dirArrow" transform="rotate(90) translate(36 -43)" onmousedown="handlePan(1,0)">
                  <use xlink:href="#rim" fill="#404040">
                        <set attributeName="fill" to="#808080" begin="arrowRight.mouseover" end="arrowRight.mouseout"/>
                  </use>
                  <path fill="none" stroke="white" stroke-width="1.5" d="M0,-3.0v7 M-2.5,-0.5L0,-3.0L2.5,-0.5"/>
                </g>
                <g id="arrowDown" xlink:href="#dirArrow" transform="rotate(180) translate(-30 -48)" onmousedown="handlePan(0,1)">
                  <use xlink:href="#rim" fill="#404040">
                        <set attributeName="fill" to="#808080" begin="arrowDown.mouseover" end="arrowDown.mouseout"/>
                  </use>
                  <path fill="none" stroke="white" stroke-width="1.5" d="M0,-3.0v7 M-2.5,-0.5L0,-3.0L2.5,-0.5"/>
                </g>
                <g id="arrowLeft" xlink:href="#dirArrow" transform="rotate(270) translate(-36 17)" onmousedown="handlePan(-1,0)">
                  <use xlink:href="#rim" fill="#404040">
                        <set attributeName="fill" to="#808080" begin="arrowLeft.mouseover" end="arrowLeft.mouseout"/>
                  </use>
                  <path fill="none" stroke="white" stroke-width="1.5" d="M0,-3.0v7 M-2.5,-0.5L0,-3.0L2.5,-0.5"/>
                </g>
        </g>
        <svg viewBox="0 0 15 15" width="100%" height="30px" preserveAspectRatio="xMaxYMin meet">
         <g id="arrow_out" transform="scale(0.3 0.3)">
          <a xlink:href="icp_point_robust_8c__incl_org.svg" target="_base">
           <rect id="button" ry="5" rx="5" y="6" x="6" height="38" width="38"
                fill="#f2f5e9" fill-opacity="0.5" stroke="#606060" stroke-width="1.0"/>
           <path id="arrow"
             d="M 11.500037,31.436501 C 11.940474,20.09759 22.043105,11.32322 32.158766,21.979434 L 37.068811,17.246167 C 37.068811,17.246167 37.088388,32 37.088388,32 L 22.160133,31.978069 C 22.160133,31.978069 26.997745,27.140456 26.997745,27.140456 C 18.528582,18.264221 13.291696,25.230495 11.500037,31.436501 z"
             style="fill:#404040;"/>
          </a>
         </g>
        </svg>
</svg>
