<?xml version="1.0" encoding="UTF-8" standalone="no"?>
<!DOCTYPE svg PUBLIC "-//W3C//DTD SVG 1.1//EN"
 "http://www.w3.org/Graphics/SVG/1.1/DTD/svg11.dtd">
<!-- Generated by graphviz version 8.0.5 (20230430.1635)
 -->
<!-- Title: Source/ARX/AR/icpCalibStereo.c Pages: 1 -->
<svg width="1143pt" height="193pt"
 viewBox="0.00 0.00 1142.64 193.00" xmlns="http://www.w3.org/2000/svg" xmlns:xlink="http://www.w3.org/1999/xlink">
<g id="graph0" class="graph" transform="scale(1 1) rotate(0) translate(4 189)">
<title>Source/ARX/AR/icpCalibStereo.c</title>
<!-- Node1 -->
<g id="node1" class="node">
<title>Node1</title>
<g id="a_node1"><a xlink:title=" ">
<polygon fill="#999999" stroke="#666666" points="812.77,-185 649.77,-185 649.77,-165.75 812.77,-165.75 812.77,-185"/>
<text text-anchor="middle" x="731.27" y="-171.5" font-family="Helvetica,sans-Serif" font-size="10.00">Source/ARX/AR/icpCalibStereo.c</text>
</a>
</g>
</g>
<!-- Node2 -->
<g id="node2" class="node">
<title>Node2</title>
<g id="a_node2"><a xlink:title=" ">
<polygon fill="#e0e0e0" stroke="#999999" points="646.89,-19.25 601.64,-19.25 601.64,0 646.89,0 646.89,-19.25"/>
<text text-anchor="middle" x="624.27" y="-5.75" font-family="Helvetica,sans-Serif" font-size="10.00">stdio.h</text>
</a>
</g>
</g>
<!-- Node1&#45;&gt;Node2 -->
<g id="edge1" class="edge">
<title>Node1&#45;&gt;Node2</title>
<path fill="none" stroke="#63b8ff" d="M745.94,-165.44C777.3,-145.25 845.57,-94.76 814.27,-55.25 795.13,-31.1 707.32,-18.75 658.05,-13.61"/>
<polygon fill="#63b8ff" stroke="#63b8ff" points="658.58,-10.05 648.29,-12.54 657.89,-17.01 658.58,-10.05"/>
</g>
<!-- Node3 -->
<g id="node3" class="node">
<title>Node3</title>
<g id="a_node3"><a xlink:title=" ">
<polygon fill="#e0e0e0" stroke="#999999" points="186.02,-19.25 138.52,-19.25 138.52,0 186.02,0 186.02,-19.25"/>
<text text-anchor="middle" x="162.27" y="-5.75" font-family="Helvetica,sans-Serif" font-size="10.00">stdlib.h</text>
</a>
</g>
</g>
<!-- Node1&#45;&gt;Node3 -->
<g id="edge2" class="edge">
<title>Node1&#45;&gt;Node3</title>
<path fill="none" stroke="#63b8ff" d="M649.38,-172.68C505.3,-167.77 215.74,-148.7 153.27,-74.5 142.91,-62.2 147,-43.6 152.6,-29.64"/>
<polygon fill="#63b8ff" stroke="#63b8ff" points="156.19,-31.19 157.15,-20.64 149.82,-28.29 156.19,-31.19"/>
</g>
<!-- Node4 -->
<g id="node4" class="node">
<title>Node4</title>
<g id="a_node4"><a xlink:title=" ">
<polygon fill="#e0e0e0" stroke="#999999" points="46.27,-19.25 0.27,-19.25 0.27,0 46.27,0 46.27,-19.25"/>
<text text-anchor="middle" x="23.27" y="-5.75" font-family="Helvetica,sans-Serif" font-size="10.00">math.h</text>
</a>
</g>
</g>
<!-- Node1&#45;&gt;Node4 -->
<g id="edge3" class="edge">
<title>Node1&#45;&gt;Node4</title>
<path fill="none" stroke="#63b8ff" d="M649.59,-171.97C546.17,-167.88 362.83,-157.15 208.27,-129.75 116.2,-113.43 62.04,-148.79 5.27,-74.5 -4.98,-61.09 2.39,-42.12 10.57,-28.34"/>
<polygon fill="#63b8ff" stroke="#63b8ff" points="13.89,-30.66 16.43,-20.37 8.03,-26.83 13.89,-30.66"/>
</g>
<!-- Node5 -->
<g id="node5" class="node">
<title>Node5</title>
<g id="a_node5"><a xlink:href="ar_8h.html" target="_top" xlink:title="artoolkitX core routines.">
<polygon fill="white" stroke="#666666" points="589.77,-129.75 516.77,-129.75 516.77,-110.5 589.77,-110.5 589.77,-129.75"/>
<text text-anchor="middle" x="553.27" y="-116.25" font-family="Helvetica,sans-Serif" font-size="10.00">ARX/AR/ar.h</text>
</a>
</g>
</g>
<!-- Node1&#45;&gt;Node5 -->
<g id="edge4" class="edge">
<title>Node1&#45;&gt;Node5</title>
<path fill="none" stroke="#63b8ff" d="M701.07,-165.34C671.54,-156.51 626.36,-142.99 593.73,-133.23"/>
<polygon fill="#63b8ff" stroke="#63b8ff" points="595.19,-129.72 584.61,-130.2 593.19,-136.42 595.19,-129.72"/>
</g>
<!-- Node16 -->
<g id="node16" class="node">
<title>Node16</title>
<g id="a_node16"><a xlink:href="icp_core_8h.html" target="_top" xlink:title=" ">
<polygon fill="white" stroke="#666666" points="1055.89,-19.25 956.64,-19.25 956.64,0 1055.89,0 1055.89,-19.25"/>
<text text-anchor="middle" x="1006.27" y="-5.75" font-family="Helvetica,sans-Serif" font-size="10.00">ARX/AR/icpCore.h</text>
</a>
</g>
</g>
<!-- Node1&#45;&gt;Node16 -->
<g id="edge28" class="edge">
<title>Node1&#45;&gt;Node16</title>
<path fill="none" stroke="#63b8ff" d="M796.54,-165.3C854.44,-153.88 937.35,-128.73 987.27,-74.5 998.3,-62.52 1002.94,-44.4 1004.89,-30.52"/>
<polygon fill="#63b8ff" stroke="#63b8ff" points="1008.46,-30.97 1006,-20.67 1001.5,-30.26 1008.46,-30.97"/>
</g>
<!-- Node19 -->
<g id="node19" class="node">
<title>Node19</title>
<g id="a_node19"><a xlink:href="icp_calib_8h.html" target="_top" xlink:title=" ">
<polygon fill="white" stroke="#666666" points="1134.64,-129.75 1033.89,-129.75 1033.89,-110.5 1134.64,-110.5 1134.64,-129.75"/>
<text text-anchor="middle" x="1084.27" y="-116.25" font-family="Helvetica,sans-Serif" font-size="10.00">ARX/AR/icpCalib.h</text>
</a>
</g>
</g>
<!-- Node1&#45;&gt;Node19 -->
<g id="edge29" class="edge">
<title>Node1&#45;&gt;Node19</title>
<path fill="none" stroke="#63b8ff" d="M791.55,-165.28C856.09,-155.55 957.95,-140.18 1022.9,-130.38"/>
<polygon fill="#63b8ff" stroke="#63b8ff" points="1023.03,-133.75 1032.39,-128.8 1021.98,-126.83 1023.03,-133.75"/>
</g>
<!-- Node5&#45;&gt;Node2 -->
<g id="edge5" class="edge">
<title>Node5&#45;&gt;Node2</title>
<path fill="none" stroke="#63b8ff" d="M559.08,-110.25C570.73,-92.44 597.14,-52.08 612.53,-28.56"/>
<polygon fill="#63b8ff" stroke="#63b8ff" points="615.83,-30.91 618.38,-20.63 609.97,-27.08 615.83,-30.91"/>
</g>
<!-- Node5&#45;&gt;Node3 -->
<g id="edge6" class="edge">
<title>Node5&#45;&gt;Node3</title>
<path fill="none" stroke="#63b8ff" d="M516.36,-115.64C468.18,-110.35 381.7,-98.28 311.27,-74.5 293.33,-68.44 290.51,-63.07 273.27,-55.25 247.91,-43.75 218.67,-32.06 196.56,-23.53"/>
<polygon fill="#63b8ff" stroke="#63b8ff" points="197.93,-19.92 187.34,-19.61 195.42,-26.46 197.93,-19.92"/>
</g>
<!-- Node6 -->
<g id="node6" class="node">
<title>Node6</title>
<g id="a_node6"><a xlink:title=" ">
<polygon fill="#e0e0e0" stroke="#999999" points="666.39,-74.5 618.14,-74.5 618.14,-55.25 666.39,-55.25 666.39,-74.5"/>
<text text-anchor="middle" x="642.27" y="-61" font-family="Helvetica,sans-Serif" font-size="10.00">stdint.h</text>
</a>
</g>
</g>
<!-- Node5&#45;&gt;Node6 -->
<g id="edge7" class="edge">
<title>Node5&#45;&gt;Node6</title>
<path fill="none" stroke="#63b8ff" d="M568.36,-110.09C581.92,-101.98 602.06,-89.93 617.89,-80.46"/>
<polygon fill="#63b8ff" stroke="#63b8ff" points="619.31,-83.09 626.09,-74.95 615.72,-77.08 619.31,-83.09"/>
</g>
<!-- Node7 -->
<g id="node7" class="node">
<title>Node7</title>
<g id="a_node7"><a xlink:title=" ">
<polygon fill="#e0e0e0" stroke="#999999" points="527.39,-19.25 479.14,-19.25 479.14,0 527.39,0 527.39,-19.25"/>
<text text-anchor="middle" x="503.27" y="-5.75" font-family="Helvetica,sans-Serif" font-size="10.00">string.h</text>
</a>
</g>
</g>
<!-- Node5&#45;&gt;Node7 -->
<g id="edge8" class="edge">
<title>Node5&#45;&gt;Node7</title>
<path fill="none" stroke="#63b8ff" d="M516.31,-111.26C496.33,-104.91 473.33,-93.76 461.27,-74.5 450.9,-57.95 466.32,-39.33 481.31,-26.48"/>
<polygon fill="#63b8ff" stroke="#63b8ff" points="483.25,-28.61 488.89,-19.64 478.89,-23.14 483.25,-28.61"/>
</g>
<!-- Node8 -->
<g id="node8" class="node">
<title>Node8</title>
<g id="a_node8"><a xlink:title=" ">
<polygon fill="#e0e0e0" stroke="#999999" points="835.14,-19.25 743.39,-19.25 743.39,0 835.14,0 835.14,-19.25"/>
<text text-anchor="middle" x="789.27" y="-5.75" font-family="Helvetica,sans-Serif" font-size="10.00">ARX/AR/config.h</text>
</a>
</g>
</g>
<!-- Node5&#45;&gt;Node8 -->
<g id="edge9" class="edge">
<title>Node5&#45;&gt;Node8</title>
<path fill="none" stroke="#63b8ff" d="M590.24,-118.43C655.29,-116.34 786.03,-107.97 814.27,-74.5 825.73,-60.91 815.32,-41.45 804.65,-27.58"/>
<polygon fill="#63b8ff" stroke="#63b8ff" points="806.92,-25.84 797.83,-20.4 801.54,-30.32 806.92,-25.84"/>
</g>
<!-- Node9 -->
<g id="node9" class="node">
<title>Node9</title>
<g id="a_node9"><a xlink:href="ar_config_8h.html" target="_top" xlink:title=" ">
<polygon fill="white" stroke="#666666" points="264.39,-74.5 162.14,-74.5 162.14,-55.25 264.39,-55.25 264.39,-74.5"/>
<text text-anchor="middle" x="213.27" y="-61" font-family="Helvetica,sans-Serif" font-size="10.00">ARX/AR/arConfig.h</text>
</a>
</g>
</g>
<!-- Node5&#45;&gt;Node9 -->
<g id="edge10" class="edge">
<title>Node5&#45;&gt;Node9</title>
<path fill="none" stroke="#63b8ff" d="M516.56,-113.38C458.74,-104.32 345.8,-86.63 275.24,-75.58"/>
<polygon fill="#63b8ff" stroke="#63b8ff" points="276.14,-72.02 265.72,-73.93 275.06,-78.94 276.14,-72.02"/>
</g>
<!-- Node10 -->
<g id="node10" class="node">
<title>Node10</title>
<g id="a_node10"><a xlink:href="log_8h.html" target="_top" xlink:title="Logging utilities.">
<polygon fill="white" stroke="#666666" points="413.89,-74.5 320.64,-74.5 320.64,-55.25 413.89,-55.25 413.89,-74.5"/>
<text text-anchor="middle" x="367.27" y="-61" font-family="Helvetica,sans-Serif" font-size="10.00">ARX/ARUtil/log.h</text>
</a>
</g>
</g>
<!-- Node5&#45;&gt;Node10 -->
<g id="edge11" class="edge">
<title>Node5&#45;&gt;Node10</title>
<path fill="none" stroke="#63b8ff" d="M521.71,-110.09C490.85,-101.26 443.65,-87.74 409.55,-77.98"/>
<polygon fill="#63b8ff" stroke="#63b8ff" points="410.55,-74.34 399.97,-74.95 408.62,-81.07 410.55,-74.34"/>
</g>
<!-- Node14 -->
<g id="node14" class="node">
<title>Node14</title>
<g id="a_node14"><a xlink:href="matrix_8h.html" target="_top" xlink:title=" ">
<polygon fill="white" stroke="#666666" points="106.52,-74.5 14.02,-74.5 14.02,-55.25 106.52,-55.25 106.52,-74.5"/>
<text text-anchor="middle" x="60.27" y="-61" font-family="Helvetica,sans-Serif" font-size="10.00">ARX/AR/matrix.h</text>
</a>
</g>
</g>
<!-- Node5&#45;&gt;Node14 -->
<g id="edge18" class="edge">
<title>Node5&#45;&gt;Node14</title>
<path fill="none" stroke="#63b8ff" d="M516.61,-115.17C431.46,-105.97 219.75,-83.1 117.42,-72.05"/>
<polygon fill="#63b8ff" stroke="#63b8ff" points="118,-68.48 107.69,-70.89 117.25,-75.44 118,-68.48"/>
</g>
<!-- Node15 -->
<g id="node15" class="node">
<title>Node15</title>
<g id="a_node15"><a xlink:href="icp_8h.html" target="_top" xlink:title=" ">
<polygon fill="white" stroke="#666666" points="978.39,-74.5 900.14,-74.5 900.14,-55.25 978.39,-55.25 978.39,-74.5"/>
<text text-anchor="middle" x="939.27" y="-61" font-family="Helvetica,sans-Serif" font-size="10.00">ARX/AR/icp.h</text>
</a>
</g>
</g>
<!-- Node5&#45;&gt;Node15 -->
<g id="edge20" class="edge">
<title>Node5&#45;&gt;Node15</title>
<path fill="none" stroke="#63b8ff" d="M589.93,-114.07C659.4,-104.48 810.28,-83.67 889.08,-72.8"/>
<polygon fill="#63b8ff" stroke="#63b8ff" points="889.27,-76.17 898.7,-71.33 888.31,-69.23 889.27,-76.17"/>
</g>
<!-- Node17 -->
<g id="node17" class="node">
<title>Node17</title>
<g id="a_node17"><a xlink:href="param_8h.html" target="_top" xlink:title="artoolkitX functions for handling calibrated camera parameters.">
<polygon fill="white" stroke="#666666" points="562.52,-74.5 470.02,-74.5 470.02,-55.25 562.52,-55.25 562.52,-74.5"/>
<text text-anchor="middle" x="516.27" y="-61" font-family="Helvetica,sans-Serif" font-size="10.00">ARX/AR/param.h</text>
</a>
</g>
</g>
<!-- Node5&#45;&gt;Node17 -->
<g id="edge23" class="edge">
<title>Node5&#45;&gt;Node17</title>
<path fill="none" stroke="#63b8ff" d="M541.99,-110.33C535.58,-103.28 528.11,-93.15 522.63,-84.33"/>
<polygon fill="#63b8ff" stroke="#63b8ff" points="525.26,-82.86 517.3,-75.86 519.16,-86.29 525.26,-82.86"/>
</g>
<!-- Node18 -->
<g id="node18" class="node">
<title>Node18</title>
<g id="a_node18"><a xlink:href="ar_image_proc_8h.html" target="_top" xlink:title="artoolkitX functions for 2D luminance image processing.">
<polygon fill="white" stroke="#666666" points="805.77,-74.5 684.77,-74.5 684.77,-55.25 805.77,-55.25 805.77,-74.5"/>
<text text-anchor="middle" x="745.27" y="-61" font-family="Helvetica,sans-Serif" font-size="10.00">ARX/AR/arImageProc.h</text>
</a>
</g>
</g>
<!-- Node5&#45;&gt;Node18 -->
<g id="edge25" class="edge">
<title>Node5&#45;&gt;Node18</title>
<path fill="none" stroke="#63b8ff" d="M580.62,-110.09C610.9,-101.18 660.02,-87.51 696.81,-77.73"/>
<polygon fill="#63b8ff" stroke="#63b8ff" points="697.54,-80.89 706.31,-74.95 695.75,-74.12 697.54,-80.89"/>
</g>
<!-- Node10&#45;&gt;Node2 -->
<g id="edge12" class="edge">
<title>Node10&#45;&gt;Node2</title>
<path fill="none" stroke="#63b8ff" d="M411.15,-54.78C462.01,-44.24 544.7,-27.11 590.7,-17.58"/>
<polygon fill="#63b8ff" stroke="#63b8ff" points="591.21,-20.84 600.29,-15.39 589.79,-13.99 591.21,-20.84"/>
</g>
<!-- Node10&#45;&gt;Node3 -->
<g id="edge13" class="edge">
<title>Node10&#45;&gt;Node3</title>
<path fill="none" stroke="#63b8ff" d="M332.34,-54.83C299.76,-46.39 249.51,-33.37 196.95,-19.69"/>
<polygon fill="#63b8ff" stroke="#63b8ff" points="197.97,-16.07 187.42,-16.94 196.21,-22.85 197.97,-16.07"/>
</g>
<!-- Node10&#45;&gt;Node7 -->
<g id="edge14" class="edge">
<title>Node10&#45;&gt;Node7</title>
<path fill="none" stroke="#63b8ff" d="M390.34,-54.84C412.22,-46.27 445.34,-33.31 470.06,-23.63"/>
<polygon fill="#63b8ff" stroke="#63b8ff" points="471.05,-26.61 479.08,-19.7 468.49,-20.09 471.05,-26.61"/>
</g>
<!-- Node11 -->
<g id="node11" class="node">
<title>Node11</title>
<g id="a_node11"><a xlink:title=" ">
<polygon fill="#e0e0e0" stroke="#999999" points="460.89,-19.25 409.64,-19.25 409.64,0 460.89,0 460.89,-19.25"/>
<text text-anchor="middle" x="435.27" y="-5.75" font-family="Helvetica,sans-Serif" font-size="10.00">stdarg.h</text>
</a>
</g>
</g>
<!-- Node10&#45;&gt;Node11 -->
<g id="edge15" class="edge">
<title>Node10&#45;&gt;Node11</title>
<path fill="none" stroke="#63b8ff" d="M378.8,-54.84C388.83,-46.99 403.57,-35.45 415.47,-26.12"/>
<polygon fill="#63b8ff" stroke="#63b8ff" points="417.19,-28.45 422.9,-19.52 412.87,-22.93 417.19,-28.45"/>
</g>
<!-- Node12 -->
<g id="node12" class="node">
<title>Node12</title>
<g id="a_node12"><a xlink:title=" ">
<polygon fill="#e0e0e0" stroke="#999999" points="268.64,-19.25 203.89,-19.25 203.89,0 268.64,0 268.64,-19.25"/>
<text text-anchor="middle" x="236.27" y="-5.75" font-family="Helvetica,sans-Serif" font-size="10.00">sys/errno.h</text>
</a>
</g>
</g>
<!-- Node10&#45;&gt;Node12 -->
<g id="edge16" class="edge">
<title>Node10&#45;&gt;Node12</title>
<path fill="none" stroke="#63b8ff" d="M345.04,-54.84C324.06,-46.31 292.35,-33.42 268.57,-23.76"/>
<polygon fill="#63b8ff" stroke="#63b8ff" points="270.18,-20.23 259.6,-19.7 267.54,-26.71 270.18,-20.23"/>
</g>
<!-- Node13 -->
<g id="node13" class="node">
<title>Node13</title>
<g id="a_node13"><a xlink:href="types_8h.html" target="_top" xlink:title=" ">
<polygon fill="white" stroke="#666666" points="391.52,-19.25 287.02,-19.25 287.02,0 391.52,0 391.52,-19.25"/>
<text text-anchor="middle" x="339.27" y="-5.75" font-family="Helvetica,sans-Serif" font-size="10.00">ARX/ARUtil/types.h</text>
</a>
</g>
</g>
<!-- Node10&#45;&gt;Node13 -->
<g id="edge17" class="edge">
<title>Node10&#45;&gt;Node13</title>
<path fill="none" stroke="#63b8ff" d="M362.64,-55.08C358.94,-48.03 353.61,-37.9 348.97,-29.08"/>
<polygon fill="#63b8ff" stroke="#63b8ff" points="351.74,-27.83 343.99,-20.61 345.55,-31.09 351.74,-27.83"/>
</g>
<!-- Node14&#45;&gt;Node4 -->
<g id="edge19" class="edge">
<title>Node14&#45;&gt;Node4</title>
<path fill="none" stroke="#63b8ff" d="M54.16,-55.08C49.15,-47.88 41.91,-37.46 35.69,-28.51"/>
<polygon fill="#63b8ff" stroke="#63b8ff" points="38.09,-26.82 29.51,-20.61 32.34,-30.82 38.09,-26.82"/>
</g>
<!-- Node15&#45;&gt;Node2 -->
<g id="edge21" class="edge">
<title>Node15&#45;&gt;Node2</title>
<path fill="none" stroke="#63b8ff" d="M899.69,-57.18C837.13,-46.61 716.49,-26.22 657.87,-16.31"/>
<polygon fill="#63b8ff" stroke="#63b8ff" points="658.79,-12.74 648.35,-14.53 657.62,-19.64 658.79,-12.74"/>
</g>
<!-- Node15&#45;&gt;Node16 -->
<g id="edge22" class="edge">
<title>Node15&#45;&gt;Node16</title>
<path fill="none" stroke="#63b8ff" d="M950.63,-54.84C960.51,-46.99 975.03,-35.45 986.76,-26.12"/>
<polygon fill="#63b8ff" stroke="#63b8ff" points="988.42,-28.49 994.07,-19.52 984.06,-23.01 988.42,-28.49"/>
</g>
<!-- Node17&#45;&gt;Node5 -->
<g id="edge24" class="edge">
<title>Node17&#45;&gt;Node5</title>
<path fill="none" stroke="#63b8ff" d="M527.72,-74.86C534.14,-81.96 541.61,-92.11 547.05,-100.9"/>
<polygon fill="#63b8ff" stroke="#63b8ff" points="544.39,-102.31 552.32,-109.33 550.49,-98.9 544.39,-102.31"/>
</g>
<!-- Node18&#45;&gt;Node5 -->
<g id="edge27" class="edge">
<title>Node18&#45;&gt;Node5</title>
<path fill="none" stroke="#63b8ff" d="M717.78,-74.95C687.19,-83.95 637.48,-97.78 600.64,-107.56"/>
<polygon fill="#63b8ff" stroke="#63b8ff" points="599.91,-104.4 591.14,-110.33 601.7,-111.17 599.91,-104.4"/>
</g>
<!-- Node18&#45;&gt;Node8 -->
<g id="edge26" class="edge">
<title>Node18&#45;&gt;Node8</title>
<path fill="none" stroke="#63b8ff" d="M752.53,-55.08C758.61,-47.73 767.46,-37.01 774.96,-27.94"/>
<polygon fill="#63b8ff" stroke="#63b8ff" points="778.17,-30.55 781.84,-20.61 772.77,-26.09 778.17,-30.55"/>
</g>
<!-- Node19&#45;&gt;Node16 -->
<g id="edge30" class="edge">
<title>Node19&#45;&gt;Node16</title>
<path fill="none" stroke="#63b8ff" d="M1077.88,-110.25C1065.03,-92.36 1035.81,-51.72 1018.93,-28.25"/>
<polygon fill="#63b8ff" stroke="#63b8ff" points="1021.42,-26.7 1012.74,-20.63 1015.73,-30.79 1021.42,-26.7"/>
</g>
</g>
</svg>
