<?xml version="1.0" encoding="UTF-8" standalone="no"?>
<!DOCTYPE svg PUBLIC "-//W3C//DTD SVG 1.1//EN"
 "http://www.w3.org/Graphics/SVG/1.1/DTD/svg11.dtd">
<!-- Generated by graphviz version 8.0.5 (20230430.1635)
 -->
<!-- Title: Source/ARX/AR/include/ARX/AR/icp.h Pages: 1 -->
<svg width="170pt" height="94pt"
 viewBox="0.00 0.00 170.25 93.75" xmlns="http://www.w3.org/2000/svg" xmlns:xlink="http://www.w3.org/1999/xlink">
<g id="graph0" class="graph" transform="scale(1 1) rotate(0) translate(4 89.75)">
<title>Source/ARX/AR/include/ARX/AR/icp.h</title>
<!-- Node1 -->
<g id="node1" class="node">
<title>Node1</title>
<g id="a_node1"><a xlink:title=" ">
<polygon fill="#999999" stroke="#666666" points="128.5,-85.75 6.75,-85.75 6.75,-55.25 128.5,-55.25 128.5,-85.75"/>
<text text-anchor="start" x="14.75" y="-72.25" font-family="Helvetica,sans-Serif" font-size="10.00">Source/ARX/AR/include</text>
<text text-anchor="middle" x="67.62" y="-61" font-family="Helvetica,sans-Serif" font-size="10.00">/ARX/AR/icp.h</text>
</a>
</g>
</g>
<!-- Node2 -->
<g id="node2" class="node">
<title>Node2</title>
<g id="a_node2"><a xlink:title=" ">
<polygon fill="#e0e0e0" stroke="#999999" points="45.25,-19.25 0,-19.25 0,0 45.25,0 45.25,-19.25"/>
<text text-anchor="middle" x="22.62" y="-5.75" font-family="Helvetica,sans-Serif" font-size="10.00">stdio.h</text>
</a>
</g>
</g>
<!-- Node1&#45;&gt;Node2 -->
<g id="edge1" class="edge">
<title>Node1&#45;&gt;Node2</title>
<path fill="none" stroke="#63b8ff" d="M56.5,-54.95C50.37,-46.93 42.72,-36.92 36.24,-28.44"/>
<polygon fill="#63b8ff" stroke="#63b8ff" points="38.42,-26.52 29.56,-20.7 32.85,-30.77 38.42,-26.52"/>
</g>
<!-- Node3 -->
<g id="node3" class="node">
<title>Node3</title>
<g id="a_node3"><a xlink:href="icp_core_8h.html" target="_top" xlink:title=" ">
<polygon fill="white" stroke="#666666" points="162.25,-19.25 63,-19.25 63,0 162.25,0 162.25,-19.25"/>
<text text-anchor="middle" x="112.62" y="-5.75" font-family="Helvetica,sans-Serif" font-size="10.00">ARX/AR/icpCore.h</text>
</a>
</g>
</g>
<!-- Node1&#45;&gt;Node3 -->
<g id="edge2" class="edge">
<title>Node1&#45;&gt;Node3</title>
<path fill="none" stroke="#63b8ff" d="M78.75,-54.95C84.88,-46.93 92.53,-36.92 99.01,-28.44"/>
<polygon fill="#63b8ff" stroke="#63b8ff" points="102.4,-30.77 105.69,-20.7 96.83,-26.52 102.4,-30.77"/>
</g>
</g>
</svg>
