<?xml version="1.0" encoding="UTF-8" standalone="no"?>
<!DOCTYPE svg PUBLIC "-//W3C//DTD SVG 1.1//EN"
 "http://www.w3.org/Graphics/SVG/1.1/DTD/svg11.dtd">
<!-- Generated by graphviz version 8.0.5 (20230430.1635)
 -->
<!-- Title: icpPointRobust Pages: 1 -->
<!--zoomable 233 -->
<svg id="main" version="1.1" xmlns="http://www.w3.org/2000/svg" xmlns:xlink="http://www.w3.org/1999/xlink" xml:space="preserve" onload="init(evt)">
<style type="text/css"><![CDATA[
.edge:hover path { stroke: red; }
.edge:hover polygon { stroke: red; fill: red; }
]]></style>
<script type="text/javascript"><![CDATA[
var edges = document.getElementsByTagName('g');
if (edges && edges.length) {
  for (var i=0;i<edges.length;i++) {
    if (edges[i].id.substr(0,4)=='edge') {
      edges[i].setAttribute('class','edge');
    }
  }
}
]]></script>
        <defs>
                <circle id="rim" cx="0" cy="0" r="7"/>
                <circle id="rim2" cx="0" cy="0" r="3.5"/>
                <g id="zoomPlus">
                        <use xlink:href="#rim" fill="#404040">
                                <set attributeName="fill" to="#808080" begin="zoomplus.mouseover" end="zoomplus.mouseout"/>
                        </use>
                        <path d="M-4,0h8M0,-4v8" fill="none" stroke="white" stroke-width="1.5" pointer-events="none"/>
                </g>
                <g id="zoomMin">
                        <use xlink:href="#rim" fill="#404040">
                                <set attributeName="fill" to="#808080" begin="zoomminus.mouseover" end="zoomminus.mouseout"/>
                        </use>
                        <path d="M-4,0h8" fill="none" stroke="white" stroke-width="1.5" pointer-events="none"/>
                </g>
                <g id="dirArrow">
                        <path fill="none" stroke="white" stroke-width="1.5" d="M0,-3.0v7 M-2.5,-0.5L0,-3.0L2.5,-0.5"/>
                </g>
               <g id="resetDef">
                       <use xlink:href="#rim2" fill="#404040">
                               <set attributeName="fill" to="#808080" begin="reset.mouseover" end="reset.mouseout"/>
                       </use>
               </g>
        </defs>

<script type="text/javascript">
var viewWidth = 518;
var viewHeight = 233;
var sectionId = 'dynsection-4';
</script>
<script xlink:href="svgpan.js"/>
<svg id="graph" class="graph">
<g id="viewport">
<title>icpPointRobust</title>
<!-- Node1 -->
<g id="node1" class="node">
<title>Node1</title>
<g id="a_node1"><a xlink:title=" ">
<polygon fill="#999999" stroke="#666666" points="82.75,-93.25 0,-93.25 0,-74 82.75,-74 82.75,-93.25"/>
<text text-anchor="middle" x="41.38" y="-79.75" font-family="Helvetica,sans-Serif" font-size="10.00">icpPointRobust</text>
</a>
</g>
</g>
<!-- Node2 -->
<g id="node2" class="node">
<title>Node2</title>
<g id="a_node2"><a xlink:href="ar_util_8c.html#ae28eeba3e16224a7d77b46bd34b8f4fe" target="_top" xlink:title=" ">
<polygon fill="white" stroke="#666666" points="227.38,-167.25 155.88,-167.25 155.88,-148 227.38,-148 227.38,-167.25"/>
<text text-anchor="middle" x="191.62" y="-153.75" font-family="Helvetica,sans-Serif" font-size="10.00">arUtilMatMul</text>
</a>
</g>
</g>
<!-- Node1&#45;&gt;Node2 -->
<g id="edge1" class="edge">
<title>Node1&#45;&gt;Node2</title>
<path fill="none" stroke="#63b8ff" d="M52.89,-93.44C66.88,-105.96 92.85,-127.46 118.75,-139.62 127.04,-143.52 136.27,-146.63 145.28,-149.11"/>
<polygon fill="#63b8ff" stroke="#63b8ff" points="144.14,-152.68 154.69,-151.73 145.85,-145.89 144.14,-152.68"/>
</g>
<!-- Node3 -->
<g id="node3" class="node">
<title>Node3</title>
<g id="a_node3"><a xlink:href="icp_core_8c.html#a4906398b4594d29ab8035b4016a7e9de" target="_top" xlink:title=" ">
<polygon fill="white" stroke="#666666" points="228.88,-130.25 154.38,-130.25 154.38,-111 228.88,-111 228.88,-130.25"/>
<text text-anchor="middle" x="191.62" y="-116.75" font-family="Helvetica,sans-Serif" font-size="10.00">icpGetDeltaS</text>
</a>
</g>
</g>
<!-- Node1&#45;&gt;Node3 -->
<g id="edge2" class="edge">
<title>Node1&#45;&gt;Node3</title>
<path fill="none" stroke="#63b8ff" d="M82.88,-93.74C101.69,-98.43 124.16,-104.04 143.7,-108.91"/>
<polygon fill="#63b8ff" stroke="#63b8ff" points="142.67,-112.51 153.22,-111.54 144.36,-105.72 142.67,-112.51"/>
</g>
<!-- Node12 -->
<g id="node12" class="node">
<title>Node12</title>
<g id="a_node12"><a xlink:href="icp_core_8c.html#ac384ca6737fdee325d58740d665eda0a" target="_top" xlink:title=" ">
<polygon fill="white" stroke="#666666" points="228.88,-93.25 154.38,-93.25 154.38,-74 228.88,-74 228.88,-93.25"/>
<text text-anchor="middle" x="191.62" y="-79.75" font-family="Helvetica,sans-Serif" font-size="10.00">icpGetJ_U_S</text>
</a>
</g>
</g>
<!-- Node1&#45;&gt;Node12 -->
<g id="edge15" class="edge">
<title>Node1&#45;&gt;Node12</title>
<path fill="none" stroke="#63b8ff" d="M82.88,-83.62C101.61,-83.62 123.95,-83.62 143.43,-83.62"/>
<polygon fill="#63b8ff" stroke="#63b8ff" points="143.22,-87.13 153.22,-83.62 143.22,-80.13 143.22,-87.13"/>
</g>
<!-- Node13 -->
<g id="node13" class="node">
<title>Node13</title>
<g id="a_node13"><a xlink:href="icp_core_8c.html#aceeb3fd72a762c2078d8fb88ec03ccfb" target="_top" xlink:title=" ">
<polygon fill="white" stroke="#666666" points="264.5,-56.25 118.75,-56.25 118.75,-37 264.5,-37 264.5,-56.25"/>
<text text-anchor="middle" x="191.62" y="-42.75" font-family="Helvetica,sans-Serif" font-size="10.00">icpGetU_from_X_by_MatX2U</text>
</a>
</g>
</g>
<!-- Node1&#45;&gt;Node13 -->
<g id="edge16" class="edge">
<title>Node1&#45;&gt;Node13</title>
<path fill="none" stroke="#63b8ff" d="M82.88,-73.51C100.37,-69.15 121.02,-64 139.55,-59.37"/>
<polygon fill="#63b8ff" stroke="#63b8ff" points="140.31,-62.54 149.16,-56.72 138.61,-55.75 140.31,-62.54"/>
</g>
<!-- Node14 -->
<g id="node14" class="node">
<title>Node14</title>
<g id="a_node14"><a xlink:href="icp_core_8c.html#a94201124387610a46b975cdb9d8a1db6" target="_top" xlink:title=" ">
<polygon fill="white" stroke="#666666" points="230,-19.25 153.25,-19.25 153.25,0 230,0 230,-19.25"/>
<text text-anchor="middle" x="191.62" y="-5.75" font-family="Helvetica,sans-Serif" font-size="10.00">icpUpdateMat</text>
</a>
</g>
</g>
<!-- Node1&#45;&gt;Node14 -->
<g id="edge17" class="edge">
<title>Node1&#45;&gt;Node14</title>
<path fill="none" stroke="#63b8ff" d="M52.89,-73.81C66.88,-61.29 92.85,-39.79 118.75,-27.62 126.2,-24.13 134.41,-21.25 142.54,-18.91"/>
<polygon fill="#63b8ff" stroke="#63b8ff" points="143.34,-22.06 152.12,-16.13 141.55,-15.29 143.34,-22.06"/>
</g>
<!-- Node4 -->
<g id="node4" class="node">
<title>Node4</title>
<g id="a_node4"><a xlink:href="m_alloc_mul_8c.html#a8e99293b68c38ce8a8d1920884d69f73" target="_top" xlink:title=" ">
<polygon fill="white" stroke="#666666" points="393.75,-149.25 305,-149.25 305,-130 393.75,-130 393.75,-149.25"/>
<text text-anchor="middle" x="349.38" y="-135.75" font-family="Helvetica,sans-Serif" font-size="10.00">arMatrixAllocMul</text>
</a>
</g>
</g>
<!-- Node3&#45;&gt;Node4 -->
<g id="edge3" class="edge">
<title>Node3&#45;&gt;Node4</title>
<path fill="none" stroke="#63b8ff" d="M229.14,-125.08C248.36,-127.42 272.31,-130.35 293.7,-132.95"/>
<polygon fill="#63b8ff" stroke="#63b8ff" points="293.26,-136.55 303.61,-134.29 294.1,-129.6 293.26,-136.55"/>
</g>
<!-- Node6 -->
<g id="node6" class="node">
<title>Node6</title>
<g id="a_node6"><a xlink:href="m_free_8c.html#ac4b7a714cce9fffda773d86363380454" target="_top" xlink:title=" ">
<polygon fill="white" stroke="#666666" points="507.62,-187.25 436.88,-187.25 436.88,-168 507.62,-168 507.62,-187.25"/>
<text text-anchor="middle" x="472.25" y="-173.75" font-family="Helvetica,sans-Serif" font-size="10.00">arMatrixFree</text>
</a>
</g>
</g>
<!-- Node3&#45;&gt;Node6 -->
<g id="edge12" class="edge">
<title>Node3&#45;&gt;Node6</title>
<path fill="none" stroke="#63b8ff" d="M229.03,-127.79C240.58,-130.58 253.25,-134.18 264.5,-138.62 281.52,-145.35 283.06,-153.06 300.5,-158.62 341.52,-171.72 390.58,-176.09 425.57,-177.41"/>
<polygon fill="#63b8ff" stroke="#63b8ff" points="425.3,-180.93 435.4,-177.74 425.51,-173.93 425.3,-180.93"/>
</g>
<!-- Node7 -->
<g id="node7" class="node">
<title>Node7</title>
<g id="a_node7"><a xlink:href="m_mul_8c.html#a202bc2db43d563792c99e852ea0b7ba4" target="_top" xlink:title=" ">
<polygon fill="white" stroke="#666666" points="505.75,-112.25 438.75,-112.25 438.75,-93 505.75,-93 505.75,-112.25"/>
<text text-anchor="middle" x="472.25" y="-98.75" font-family="Helvetica,sans-Serif" font-size="10.00">arMatrixMul</text>
</a>
</g>
</g>
<!-- Node3&#45;&gt;Node7 -->
<g id="edge13" class="edge">
<title>Node3&#45;&gt;Node7</title>
<path fill="none" stroke="#63b8ff" d="M229.34,-118.25C280.49,-114.95 373.05,-108.97 427.65,-105.44"/>
<polygon fill="#63b8ff" stroke="#63b8ff" points="427.61,-108.89 437.36,-104.75 427.16,-101.9 427.61,-108.89"/>
</g>
<!-- Node8 -->
<g id="node8" class="node">
<title>Node8</title>
<g id="a_node8"><a xlink:href="m_alloc_trans_8c.html#a4e2bf8cd529487fb1ff4d0bbc52eee1e" target="_top" xlink:title=" ">
<polygon fill="white" stroke="#666666" points="398.25,-225.25 300.5,-225.25 300.5,-206 398.25,-206 398.25,-225.25"/>
<text text-anchor="middle" x="349.38" y="-211.75" font-family="Helvetica,sans-Serif" font-size="10.00">arMatrixAllocTrans</text>
</a>
</g>
</g>
<!-- Node3&#45;&gt;Node8 -->
<g id="edge7" class="edge">
<title>Node3&#45;&gt;Node8</title>
<path fill="none" stroke="#63b8ff" d="M229.16,-124.48C241.21,-127.08 254.17,-131.41 264.5,-138.62 287.84,-154.93 279.08,-172.86 300.5,-191.62 304.22,-194.88 308.46,-197.82 312.84,-200.44"/>
<polygon fill="#63b8ff" stroke="#63b8ff" points="311.06,-203.99 321.53,-205.64 314.37,-197.82 311.06,-203.99"/>
</g>
<!-- Node10 -->
<g id="node10" class="node">
<title>Node10</title>
<g id="a_node10"><a xlink:href="m_disp_8c.html#a60f36997579d355f6030f872faad84a2" target="_top" xlink:title=" ">
<polygon fill="white" stroke="#666666" points="385.12,-73.25 313.62,-73.25 313.62,-54 385.12,-54 385.12,-73.25"/>
<text text-anchor="middle" x="349.38" y="-59.75" font-family="Helvetica,sans-Serif" font-size="10.00">arMatrixDisp</text>
</a>
</g>
</g>
<!-- Node3&#45;&gt;Node10 -->
<g id="edge11" class="edge">
<title>Node3&#45;&gt;Node10</title>
<path fill="none" stroke="#63b8ff" d="M229.22,-112.88C240.65,-110.09 253.22,-106.62 264.5,-102.62 275.01,-98.9 298.78,-87.75 318.34,-78.32"/>
<polygon fill="#63b8ff" stroke="#63b8ff" points="319.62,-81.11 327.09,-73.6 316.57,-74.81 319.62,-81.11"/>
</g>
<!-- Node11 -->
<g id="node11" class="node">
<title>Node11</title>
<g id="a_node11"><a xlink:href="m_self_inv_8c.html#a929738025b539a0c1bbd2f395ad4d981" target="_top" xlink:title=" ">
<polygon fill="white" stroke="#666666" points="390.38,-36.25 308.38,-36.25 308.38,-17 390.38,-17 390.38,-36.25"/>
<text text-anchor="middle" x="349.38" y="-22.75" font-family="Helvetica,sans-Serif" font-size="10.00">arMatrixSelfInv</text>
</a>
</g>
</g>
<!-- Node3&#45;&gt;Node11 -->
<g id="edge14" class="edge">
<title>Node3&#45;&gt;Node11</title>
<path fill="none" stroke="#63b8ff" d="M229.33,-117.01C241.4,-114.43 254.32,-110.06 264.5,-102.62 289.01,-84.74 277.05,-63.88 300.5,-44.62 301.58,-43.74 302.71,-42.89 303.88,-42.08"/>
<polygon fill="#63b8ff" stroke="#63b8ff" points="305.46,-44.64 312.41,-36.64 301.99,-38.56 305.46,-44.64"/>
</g>
<!-- Node5 -->
<g id="node5" class="node">
<title>Node5</title>
<g id="a_node5"><a xlink:href="m_alloc_8c.html#a69c9a974dc5a3963148ebb2c4a80f969" target="_top" xlink:title=" ">
<polygon fill="white" stroke="#666666" points="508.75,-149.25 435.75,-149.25 435.75,-130 508.75,-130 508.75,-149.25"/>
<text text-anchor="middle" x="472.25" y="-135.75" font-family="Helvetica,sans-Serif" font-size="10.00">arMatrixAlloc</text>
</a>
</g>
</g>
<!-- Node4&#45;&gt;Node5 -->
<g id="edge4" class="edge">
<title>Node4&#45;&gt;Node5</title>
<path fill="none" stroke="#63b8ff" d="M394.01,-139.62C404.05,-139.62 414.75,-139.62 424.89,-139.62"/>
<polygon fill="#63b8ff" stroke="#63b8ff" points="424.62,-143.13 434.62,-139.62 424.62,-136.13 424.62,-143.13"/>
</g>
<!-- Node4&#45;&gt;Node6 -->
<g id="edge5" class="edge">
<title>Node4&#45;&gt;Node6</title>
<path fill="none" stroke="#63b8ff" d="M382.45,-149.71C396.77,-154.21 413.84,-159.58 429.17,-164.39"/>
<polygon fill="#63b8ff" stroke="#63b8ff" points="427.86,-167.97 438.44,-167.63 429.95,-161.29 427.86,-167.97"/>
</g>
<!-- Node4&#45;&gt;Node7 -->
<g id="edge6" class="edge">
<title>Node4&#45;&gt;Node7</title>
<path fill="none" stroke="#63b8ff" d="M383.4,-129.51C397.13,-125.31 413.25,-120.38 427.9,-115.89"/>
<polygon fill="#63b8ff" stroke="#63b8ff" points="428.72,-119 437.26,-112.72 426.67,-112.3 428.72,-119"/>
</g>
<!-- Node8&#45;&gt;Node5 -->
<g id="edge8" class="edge">
<title>Node8&#45;&gt;Node5</title>
<path fill="none" stroke="#63b8ff" d="M363.99,-205.61C380.31,-193.79 408.66,-173.81 434.25,-158.62 436.45,-157.32 438.75,-156.01 441.08,-154.73"/>
<polygon fill="#63b8ff" stroke="#63b8ff" points="442.46,-157.42 449.65,-149.64 439.18,-151.24 442.46,-157.42"/>
</g>
<!-- Node8&#45;&gt;Node6 -->
<g id="edge9" class="edge">
<title>Node8&#45;&gt;Node6</title>
<path fill="none" stroke="#63b8ff" d="M382.45,-205.54C396.77,-201.04 413.84,-195.67 429.17,-190.86"/>
<polygon fill="#63b8ff" stroke="#63b8ff" points="429.95,-193.96 438.44,-187.62 427.86,-187.28 429.95,-193.96"/>
</g>
<!-- Node9 -->
<g id="node9" class="node">
<title>Node9</title>
<g id="a_node9"><a xlink:href="m_trans_8c.html#ad3d9712dd27f655902a8a3315e623d85" target="_top" xlink:title=" ">
<polygon fill="white" stroke="#666666" points="510.25,-225.25 434.25,-225.25 434.25,-206 510.25,-206 510.25,-225.25"/>
<text text-anchor="middle" x="472.25" y="-211.75" font-family="Helvetica,sans-Serif" font-size="10.00">arMatrixTrans</text>
</a>
</g>
</g>
<!-- Node8&#45;&gt;Node9 -->
<g id="edge10" class="edge">
<title>Node8&#45;&gt;Node9</title>
<path fill="none" stroke="#63b8ff" d="M398.5,-215.62C406.64,-215.62 415.1,-215.62 423.25,-215.62"/>
<polygon fill="#63b8ff" stroke="#63b8ff" points="423.1,-219.13 433.1,-215.62 423.1,-212.13 423.1,-219.13"/>
</g>
</g>
</svg>
        <g id="navigator" transform="translate(0 0)" fill="#404254">
                <rect fill="#f2f5e9" fill-opacity="0.5" stroke="#606060" stroke-width=".5" x="0" y="0" width="60" height="60"/>
                <use id="zoomplus" xlink:href="#zoomPlus" x="17" y="9" onmousedown="handleZoom(evt,'in')"/>
                <use id="zoomminus" xlink:href="#zoomMin" x="42" y="9" onmousedown="handleZoom(evt,'out')"/>
                <use id="reset" xlink:href="#resetDef" x="30" y="36" onmousedown="handleReset()"/>
                <g id="arrowUp" xlink:href="#dirArrow" transform="translate(30 24)" onmousedown="handlePan(0,-1)">
                  <use xlink:href="#rim" fill="#404040">
                        <set attributeName="fill" to="#808080" begin="arrowUp.mouseover" end="arrowUp.mouseout"/>
                  </use>
                  <path fill="none" stroke="white" stroke-width="1.5" d="M0,-3.0v7 M-2.5,-0.5L0,-3.0L2.5,-0.5"/>
                </g>
                <g id="arrowRight" xlink:href="#dirArrow" transform="rotate(90) translate(36 -43)" onmousedown="handlePan(1,0)">
                  <use xlink:href="#rim" fill="#404040">
                        <set attributeName="fill" to="#808080" begin="arrowRight.mouseover" end="arrowRight.mouseout"/>
                  </use>
                  <path fill="none" stroke="white" stroke-width="1.5" d="M0,-3.0v7 M-2.5,-0.5L0,-3.0L2.5,-0.5"/>
                </g>
                <g id="arrowDown" xlink:href="#dirArrow" transform="rotate(180) translate(-30 -48)" onmousedown="handlePan(0,1)">
                  <use xlink:href="#rim" fill="#404040">
                        <set attributeName="fill" to="#808080" begin="arrowDown.mouseover" end="arrowDown.mouseout"/>
                  </use>
                  <path fill="none" stroke="white" stroke-width="1.5" d="M0,-3.0v7 M-2.5,-0.5L0,-3.0L2.5,-0.5"/>
                </g>
                <g id="arrowLeft" xlink:href="#dirArrow" transform="rotate(270) translate(-36 17)" onmousedown="handlePan(-1,0)">
                  <use xlink:href="#rim" fill="#404040">
                        <set attributeName="fill" to="#808080" begin="arrowLeft.mouseover" end="arrowLeft.mouseout"/>
                  </use>
                  <path fill="none" stroke="white" stroke-width="1.5" d="M0,-3.0v7 M-2.5,-0.5L0,-3.0L2.5,-0.5"/>
                </g>
        </g>
        <svg viewBox="0 0 15 15" width="100%" height="30px" preserveAspectRatio="xMaxYMin meet">
         <g id="arrow_out" transform="scale(0.3 0.3)">
          <a xlink:href="icp_8h_a34b02ccedd9db2360adeccaea4fca916_cgraph_org.svg" target="_base">
           <rect id="button" ry="5" rx="5" y="6" x="6" height="38" width="38"
                fill="#f2f5e9" fill-opacity="0.5" stroke="#606060" stroke-width="1.0"/>
           <path id="arrow"
             d="M 11.500037,31.436501 C 11.940474,20.09759 22.043105,11.32322 32.158766,21.979434 L 37.068811,17.246167 C 37.068811,17.246167 37.088388,32 37.088388,32 L 22.160133,31.978069 C 22.160133,31.978069 26.997745,27.140456 26.997745,27.140456 C 18.528582,18.264221 13.291696,25.230495 11.500037,31.436501 z"
             style="fill:#404040;"/>
          </a>
         </g>
        </svg>
</svg>
