<?xml version="1.0" encoding="UTF-8" standalone="no"?>
<!DOCTYPE svg PUBLIC "-//W3C//DTD SVG 1.1//EN"
 "http://www.w3.org/Graphics/SVG/1.1/DTD/svg11.dtd">
<!-- Generated by graphviz version 8.0.5 (20230430.1635)
 -->
<!-- Title: icpGetInitXw2Xc_from_PlanarData Pages: 1 -->
<svg width="368pt" height="179pt"
 viewBox="0.00 0.00 368.00 179.25" xmlns="http://www.w3.org/2000/svg" xmlns:xlink="http://www.w3.org/1999/xlink">
<g id="graph0" class="graph" transform="scale(1 1) rotate(0) translate(4 175.25)">
<title>icpGetInitXw2Xc_from_PlanarData</title>
<!-- Node1 -->
<g id="node1" class="node">
<title>Node1</title>
<g id="a_node1"><a xlink:title=" ">
<polygon fill="#999999" stroke="#666666" points="114.25,-100.88 0,-100.88 0,-70.38 114.25,-70.38 114.25,-100.88"/>
<text text-anchor="start" x="8" y="-87.38" font-family="Helvetica,sans-Serif" font-size="10.00">icpGetInitXw2Xc_from</text>
<text text-anchor="middle" x="57.12" y="-76.12" font-family="Helvetica,sans-Serif" font-size="10.00">_PlanarData</text>
</a>
</g>
</g>
<!-- Node2 -->
<g id="node2" class="node">
<title>Node2</title>
<g id="a_node2"><a xlink:href="m_alloc_8c.html#a69c9a974dc5a3963148ebb2c4a80f969" target="_top" xlink:title=" ">
<polygon fill="white" stroke="#666666" points="358.5,-133.25 285.5,-133.25 285.5,-114 358.5,-114 358.5,-133.25"/>
<text text-anchor="middle" x="322" y="-119.75" font-family="Helvetica,sans-Serif" font-size="10.00">arMatrixAlloc</text>
</a>
</g>
</g>
<!-- Node1&#45;&gt;Node2 -->
<g id="edge1" class="edge">
<title>Node1&#45;&gt;Node2</title>
<path fill="none" stroke="#63b8ff" d="M114.49,-98.11C126.27,-100.48 138.64,-102.79 150.25,-104.62 192.12,-111.26 240.12,-116.38 274.55,-119.63"/>
<polygon fill="#63b8ff" stroke="#63b8ff" points="273.94,-123.18 284.22,-120.62 274.59,-116.21 273.94,-123.18"/>
</g>
<!-- Node3 -->
<g id="node3" class="node">
<title>Node3</title>
<g id="a_node3"><a xlink:href="m_alloc_mul_8c.html#a8e99293b68c38ce8a8d1920884d69f73" target="_top" xlink:title=" ">
<polygon fill="white" stroke="#666666" points="243.5,-95.25 154.75,-95.25 154.75,-76 243.5,-76 243.5,-95.25"/>
<text text-anchor="middle" x="199.12" y="-81.75" font-family="Helvetica,sans-Serif" font-size="10.00">arMatrixAllocMul</text>
</a>
</g>
</g>
<!-- Node1&#45;&gt;Node3 -->
<g id="edge2" class="edge">
<title>Node1&#45;&gt;Node3</title>
<path fill="none" stroke="#63b8ff" d="M114.66,-85.62C124.16,-85.62 133.99,-85.62 143.43,-85.62"/>
<polygon fill="#63b8ff" stroke="#63b8ff" points="143.29,-89.13 153.29,-85.62 143.29,-82.13 143.29,-89.13"/>
</g>
<!-- Node4 -->
<g id="node4" class="node">
<title>Node4</title>
<g id="a_node4"><a xlink:href="m_free_8c.html#ac4b7a714cce9fffda773d86363380454" target="_top" xlink:title=" ">
<polygon fill="white" stroke="#666666" points="357.38,-95.25 286.62,-95.25 286.62,-76 357.38,-76 357.38,-95.25"/>
<text text-anchor="middle" x="322" y="-81.75" font-family="Helvetica,sans-Serif" font-size="10.00">arMatrixFree</text>
</a>
</g>
</g>
<!-- Node1&#45;&gt;Node4 -->
<g id="edge10" class="edge">
<title>Node1&#45;&gt;Node4</title>
<path fill="none" stroke="#63b8ff" d="M114.36,-72.14C126.15,-69.84 138.55,-67.82 150.25,-66.62 193.47,-62.21 204.91,-61.11 248,-66.62 258.11,-67.92 268.82,-70.18 278.84,-72.71"/>
<polygon fill="#63b8ff" stroke="#63b8ff" points="277.8,-76.32 288.36,-75.52 279.6,-69.56 277.8,-76.32"/>
</g>
<!-- Node6 -->
<g id="node6" class="node">
<title>Node6</title>
<g id="a_node6"><a xlink:href="m_alloc_trans_8c.html#a4e2bf8cd529487fb1ff4d0bbc52eee1e" target="_top" xlink:title=" ">
<polygon fill="white" stroke="#666666" points="248,-171.25 150.25,-171.25 150.25,-152 248,-152 248,-171.25"/>
<text text-anchor="middle" x="199.12" y="-157.75" font-family="Helvetica,sans-Serif" font-size="10.00">arMatrixAllocTrans</text>
</a>
</g>
</g>
<!-- Node1&#45;&gt;Node6 -->
<g id="edge6" class="edge">
<title>Node1&#45;&gt;Node6</title>
<path fill="none" stroke="#63b8ff" d="M84.94,-101.22C103.22,-111.74 128.04,-125.8 150.25,-137.62 155.93,-140.65 162.03,-143.79 167.92,-146.77"/>
<polygon fill="#63b8ff" stroke="#63b8ff" points="166,-150.22 176.51,-151.57 169.14,-143.96 166,-150.22"/>
</g>
<!-- Node8 -->
<g id="node8" class="node">
<title>Node8</title>
<g id="a_node8"><a xlink:href="m_self_inv_8c.html#a929738025b539a0c1bbd2f395ad4d981" target="_top" xlink:title=" ">
<polygon fill="white" stroke="#666666" points="240.12,-19.25 158.12,-19.25 158.12,0 240.12,0 240.12,-19.25"/>
<text text-anchor="middle" x="199.12" y="-5.75" font-family="Helvetica,sans-Serif" font-size="10.00">arMatrixSelfInv</text>
</a>
</g>
</g>
<!-- Node1&#45;&gt;Node8 -->
<g id="edge11" class="edge">
<title>Node1&#45;&gt;Node8</title>
<path fill="none" stroke="#63b8ff" d="M84.94,-70.03C103.22,-59.51 128.04,-45.45 150.25,-33.62 155.93,-30.6 162.03,-27.46 167.92,-24.48"/>
<polygon fill="#63b8ff" stroke="#63b8ff" points="169.14,-27.29 176.51,-19.68 166,-21.03 169.14,-27.29"/>
</g>
<!-- Node3&#45;&gt;Node2 -->
<g id="edge3" class="edge">
<title>Node3&#45;&gt;Node2</title>
<path fill="none" stroke="#63b8ff" d="M232.2,-95.71C246.52,-100.21 263.59,-105.58 278.92,-110.39"/>
<polygon fill="#63b8ff" stroke="#63b8ff" points="277.61,-113.97 288.19,-113.63 279.7,-107.29 277.61,-113.97"/>
</g>
<!-- Node3&#45;&gt;Node4 -->
<g id="edge4" class="edge">
<title>Node3&#45;&gt;Node4</title>
<path fill="none" stroke="#63b8ff" d="M243.76,-85.62C253.99,-85.62 264.92,-85.62 275.24,-85.62"/>
<polygon fill="#63b8ff" stroke="#63b8ff" points="275.14,-89.13 285.14,-85.62 275.14,-82.13 275.14,-89.13"/>
</g>
<!-- Node5 -->
<g id="node5" class="node">
<title>Node5</title>
<g id="a_node5"><a xlink:href="m_mul_8c.html#a202bc2db43d563792c99e852ea0b7ba4" target="_top" xlink:title=" ">
<polygon fill="white" stroke="#666666" points="355.5,-58.25 288.5,-58.25 288.5,-39 355.5,-39 355.5,-58.25"/>
<text text-anchor="middle" x="322" y="-44.75" font-family="Helvetica,sans-Serif" font-size="10.00">arMatrixMul</text>
</a>
</g>
</g>
<!-- Node3&#45;&gt;Node5 -->
<g id="edge5" class="edge">
<title>Node3&#45;&gt;Node5</title>
<path fill="none" stroke="#63b8ff" d="M233.15,-75.51C246.88,-71.31 263,-66.38 277.65,-61.89"/>
<polygon fill="#63b8ff" stroke="#63b8ff" points="278.47,-65 287.01,-58.72 276.42,-58.3 278.47,-65"/>
</g>
<!-- Node6&#45;&gt;Node2 -->
<g id="edge7" class="edge">
<title>Node6&#45;&gt;Node2</title>
<path fill="none" stroke="#63b8ff" d="M232.2,-151.54C246.52,-147.04 263.59,-141.67 278.92,-136.86"/>
<polygon fill="#63b8ff" stroke="#63b8ff" points="279.7,-139.96 288.19,-133.62 277.61,-133.28 279.7,-139.96"/>
</g>
<!-- Node6&#45;&gt;Node4 -->
<g id="edge8" class="edge">
<title>Node6&#45;&gt;Node4</title>
<path fill="none" stroke="#63b8ff" d="M213.74,-151.61C230.06,-139.79 258.41,-119.81 284,-104.62 286.2,-103.32 288.5,-102.01 290.83,-100.73"/>
<polygon fill="#63b8ff" stroke="#63b8ff" points="292.21,-103.42 299.4,-95.64 288.93,-97.24 292.21,-103.42"/>
</g>
<!-- Node7 -->
<g id="node7" class="node">
<title>Node7</title>
<g id="a_node7"><a xlink:href="m_trans_8c.html#ad3d9712dd27f655902a8a3315e623d85" target="_top" xlink:title=" ">
<polygon fill="white" stroke="#666666" points="360,-171.25 284,-171.25 284,-152 360,-152 360,-171.25"/>
<text text-anchor="middle" x="322" y="-157.75" font-family="Helvetica,sans-Serif" font-size="10.00">arMatrixTrans</text>
</a>
</g>
</g>
<!-- Node6&#45;&gt;Node7 -->
<g id="edge9" class="edge">
<title>Node6&#45;&gt;Node7</title>
<path fill="none" stroke="#63b8ff" d="M248.25,-161.62C256.39,-161.62 264.85,-161.62 273,-161.62"/>
<polygon fill="#63b8ff" stroke="#63b8ff" points="272.85,-165.13 282.85,-161.62 272.85,-158.13 272.85,-165.13"/>
</g>
</g>
</svg>
