<?xml version="1.0" encoding="UTF-8" standalone="no"?>
<!DOCTYPE svg PUBLIC "-//W3C//DTD SVG 1.1//EN"
 "http://www.w3.org/Graphics/SVG/1.1/DTD/svg11.dtd">
<!-- Generated by graphviz version 8.0.5 (20230430.1635)
 -->
<!-- Title: icpStereoPointRobust Pages: 1 -->
<!--zoomable 233 -->
<svg id="main" version="1.1" xmlns="http://www.w3.org/2000/svg" xmlns:xlink="http://www.w3.org/1999/xlink" xml:space="preserve" onload="init(evt)">
<style type="text/css"><![CDATA[
.edge:hover path { stroke: red; }
.edge:hover polygon { stroke: red; fill: red; }
]]></style>
<script type="text/javascript"><![CDATA[
var edges = document.getElementsByTagName('g');
if (edges && edges.length) {
  for (var i=0;i<edges.length;i++) {
    if (edges[i].id.substr(0,4)=='edge') {
      edges[i].setAttribute('class','edge');
    }
  }
}
]]></script>
        <defs>
                <circle id="rim" cx="0" cy="0" r="7"/>
                <circle id="rim2" cx="0" cy="0" r="3.5"/>
                <g id="zoomPlus">
                        <use xlink:href="#rim" fill="#404040">
                                <set attributeName="fill" to="#808080" begin="zoomplus.mouseover" end="zoomplus.mouseout"/>
                        </use>
                        <path d="M-4,0h8M0,-4v8" fill="none" stroke="white" stroke-width="1.5" pointer-events="none"/>
                </g>
                <g id="zoomMin">
                        <use xlink:href="#rim" fill="#404040">
                                <set attributeName="fill" to="#808080" begin="zoomminus.mouseover" end="zoomminus.mouseout"/>
                        </use>
                        <path d="M-4,0h8" fill="none" stroke="white" stroke-width="1.5" pointer-events="none"/>
                </g>
                <g id="dirArrow">
                        <path fill="none" stroke="white" stroke-width="1.5" d="M0,-3.0v7 M-2.5,-0.5L0,-3.0L2.5,-0.5"/>
                </g>
               <g id="resetDef">
                       <use xlink:href="#rim2" fill="#404040">
                               <set attributeName="fill" to="#808080" begin="reset.mouseover" end="reset.mouseout"/>
                       </use>
               </g>
        </defs>

<script type="text/javascript">
var viewWidth = 547;
var viewHeight = 233;
var sectionId = 'dynsection-6';
</script>
<script xlink:href="svgpan.js"/>
<svg id="graph" class="graph">
<g id="viewport">
<title>icpStereoPointRobust</title>
<!-- Node1 -->
<g id="node1" class="node">
<title>Node1</title>
<g id="a_node1"><a xlink:title=" ">
<polygon fill="#999999" stroke="#666666" points="111.25,-93.25 0,-93.25 0,-74 111.25,-74 111.25,-93.25"/>
<text text-anchor="middle" x="55.62" y="-79.75" font-family="Helvetica,sans-Serif" font-size="10.00">icpStereoPointRobust</text>
</a>
</g>
</g>
<!-- Node2 -->
<g id="node2" class="node">
<title>Node2</title>
<g id="a_node2"><a xlink:href="ar_util_8c.html#ae28eeba3e16224a7d77b46bd34b8f4fe" target="_top" xlink:title=" ">
<polygon fill="white" stroke="#666666" points="255.88,-167.25 184.38,-167.25 184.38,-148 255.88,-148 255.88,-167.25"/>
<text text-anchor="middle" x="220.12" y="-153.75" font-family="Helvetica,sans-Serif" font-size="10.00">arUtilMatMul</text>
</a>
</g>
</g>
<!-- Node1&#45;&gt;Node2 -->
<g id="edge1" class="edge">
<title>Node1&#45;&gt;Node2</title>
<path fill="none" stroke="#63b8ff" d="M69.73,-93.54C86.75,-105.98 117.77,-127.18 147.25,-139.62 155.51,-143.11 164.59,-146.03 173.45,-148.44"/>
<polygon fill="#63b8ff" stroke="#63b8ff" points="172.5,-152.06 183.06,-151.12 174.22,-145.28 172.5,-152.06"/>
</g>
<!-- Node3 -->
<g id="node3" class="node">
<title>Node3</title>
<g id="a_node3"><a xlink:href="icp_core_8c.html#a4906398b4594d29ab8035b4016a7e9de" target="_top" xlink:title=" ">
<polygon fill="white" stroke="#666666" points="257.38,-130.25 182.88,-130.25 182.88,-111 257.38,-111 257.38,-130.25"/>
<text text-anchor="middle" x="220.12" y="-116.75" font-family="Helvetica,sans-Serif" font-size="10.00">icpGetDeltaS</text>
</a>
</g>
</g>
<!-- Node1&#45;&gt;Node3 -->
<g id="edge2" class="edge">
<title>Node1&#45;&gt;Node3</title>
<path fill="none" stroke="#63b8ff" d="M101.03,-93.74C122.99,-98.74 149.52,-104.78 171.86,-109.86"/>
<polygon fill="#63b8ff" stroke="#63b8ff" points="170.93,-113.47 181.45,-112.28 172.48,-106.64 170.93,-113.47"/>
</g>
<!-- Node12 -->
<g id="node12" class="node">
<title>Node12</title>
<g id="a_node12"><a xlink:href="icp_core_8c.html#ac384ca6737fdee325d58740d665eda0a" target="_top" xlink:title=" ">
<polygon fill="white" stroke="#666666" points="257.38,-93.25 182.88,-93.25 182.88,-74 257.38,-74 257.38,-93.25"/>
<text text-anchor="middle" x="220.12" y="-79.75" font-family="Helvetica,sans-Serif" font-size="10.00">icpGetJ_U_S</text>
</a>
</g>
</g>
<!-- Node1&#45;&gt;Node12 -->
<g id="edge15" class="edge">
<title>Node1&#45;&gt;Node12</title>
<path fill="none" stroke="#63b8ff" d="M111.64,-83.62C131.1,-83.62 152.81,-83.62 171.59,-83.62"/>
<polygon fill="#63b8ff" stroke="#63b8ff" points="171.57,-87.13 181.57,-83.62 171.57,-80.13 171.57,-87.13"/>
</g>
<!-- Node13 -->
<g id="node13" class="node">
<title>Node13</title>
<g id="a_node13"><a xlink:href="icp_core_8c.html#aceeb3fd72a762c2078d8fb88ec03ccfb" target="_top" xlink:title=" ">
<polygon fill="white" stroke="#666666" points="293,-56.25 147.25,-56.25 147.25,-37 293,-37 293,-56.25"/>
<text text-anchor="middle" x="220.12" y="-42.75" font-family="Helvetica,sans-Serif" font-size="10.00">icpGetU_from_X_by_MatX2U</text>
</a>
</g>
</g>
<!-- Node1&#45;&gt;Node13 -->
<g id="edge16" class="edge">
<title>Node1&#45;&gt;Node13</title>
<path fill="none" stroke="#63b8ff" d="M101.03,-73.51C120.55,-69.07 143.68,-63.8 164.27,-59.11"/>
<polygon fill="#63b8ff" stroke="#63b8ff" points="164.8,-62.36 173.77,-56.72 163.25,-55.53 164.8,-62.36"/>
</g>
<!-- Node14 -->
<g id="node14" class="node">
<title>Node14</title>
<g id="a_node14"><a xlink:href="icp_core_8c.html#a94201124387610a46b975cdb9d8a1db6" target="_top" xlink:title=" ">
<polygon fill="white" stroke="#666666" points="258.5,-19.25 181.75,-19.25 181.75,0 258.5,0 258.5,-19.25"/>
<text text-anchor="middle" x="220.12" y="-5.75" font-family="Helvetica,sans-Serif" font-size="10.00">icpUpdateMat</text>
</a>
</g>
</g>
<!-- Node1&#45;&gt;Node14 -->
<g id="edge17" class="edge">
<title>Node1&#45;&gt;Node14</title>
<path fill="none" stroke="#63b8ff" d="M69.73,-73.71C86.75,-61.27 117.77,-40.07 147.25,-27.62 154.75,-24.46 162.93,-21.76 171,-19.49"/>
<polygon fill="#63b8ff" stroke="#63b8ff" points="171.69,-22.66 180.48,-16.75 169.92,-15.89 171.69,-22.66"/>
</g>
<!-- Node4 -->
<g id="node4" class="node">
<title>Node4</title>
<g id="a_node4"><a xlink:href="m_alloc_mul_8c.html#a8e99293b68c38ce8a8d1920884d69f73" target="_top" xlink:title=" ">
<polygon fill="white" stroke="#666666" points="422.25,-149.25 333.5,-149.25 333.5,-130 422.25,-130 422.25,-149.25"/>
<text text-anchor="middle" x="377.88" y="-135.75" font-family="Helvetica,sans-Serif" font-size="10.00">arMatrixAllocMul</text>
</a>
</g>
</g>
<!-- Node3&#45;&gt;Node4 -->
<g id="edge3" class="edge">
<title>Node3&#45;&gt;Node4</title>
<path fill="none" stroke="#63b8ff" d="M257.64,-125.08C276.86,-127.42 300.81,-130.35 322.2,-132.95"/>
<polygon fill="#63b8ff" stroke="#63b8ff" points="321.76,-136.55 332.11,-134.29 322.6,-129.6 321.76,-136.55"/>
</g>
<!-- Node6 -->
<g id="node6" class="node">
<title>Node6</title>
<g id="a_node6"><a xlink:href="m_free_8c.html#ac4b7a714cce9fffda773d86363380454" target="_top" xlink:title=" ">
<polygon fill="white" stroke="#666666" points="536.12,-187.25 465.38,-187.25 465.38,-168 536.12,-168 536.12,-187.25"/>
<text text-anchor="middle" x="500.75" y="-173.75" font-family="Helvetica,sans-Serif" font-size="10.00">arMatrixFree</text>
</a>
</g>
</g>
<!-- Node3&#45;&gt;Node6 -->
<g id="edge12" class="edge">
<title>Node3&#45;&gt;Node6</title>
<path fill="none" stroke="#63b8ff" d="M257.53,-127.79C269.08,-130.58 281.75,-134.18 293,-138.62 310.02,-145.35 311.56,-153.06 329,-158.62 370.02,-171.72 419.08,-176.09 454.07,-177.41"/>
<polygon fill="#63b8ff" stroke="#63b8ff" points="453.8,-180.93 463.9,-177.74 454.01,-173.93 453.8,-180.93"/>
</g>
<!-- Node7 -->
<g id="node7" class="node">
<title>Node7</title>
<g id="a_node7"><a xlink:href="m_mul_8c.html#a202bc2db43d563792c99e852ea0b7ba4" target="_top" xlink:title=" ">
<polygon fill="white" stroke="#666666" points="534.25,-112.25 467.25,-112.25 467.25,-93 534.25,-93 534.25,-112.25"/>
<text text-anchor="middle" x="500.75" y="-98.75" font-family="Helvetica,sans-Serif" font-size="10.00">arMatrixMul</text>
</a>
</g>
</g>
<!-- Node3&#45;&gt;Node7 -->
<g id="edge13" class="edge">
<title>Node3&#45;&gt;Node7</title>
<path fill="none" stroke="#63b8ff" d="M257.84,-118.25C308.99,-114.95 401.55,-108.97 456.15,-105.44"/>
<polygon fill="#63b8ff" stroke="#63b8ff" points="456.11,-108.89 465.86,-104.75 455.66,-101.9 456.11,-108.89"/>
</g>
<!-- Node8 -->
<g id="node8" class="node">
<title>Node8</title>
<g id="a_node8"><a xlink:href="m_alloc_trans_8c.html#a4e2bf8cd529487fb1ff4d0bbc52eee1e" target="_top" xlink:title=" ">
<polygon fill="white" stroke="#666666" points="426.75,-225.25 329,-225.25 329,-206 426.75,-206 426.75,-225.25"/>
<text text-anchor="middle" x="377.88" y="-211.75" font-family="Helvetica,sans-Serif" font-size="10.00">arMatrixAllocTrans</text>
</a>
</g>
</g>
<!-- Node3&#45;&gt;Node8 -->
<g id="edge7" class="edge">
<title>Node3&#45;&gt;Node8</title>
<path fill="none" stroke="#63b8ff" d="M257.66,-124.48C269.71,-127.08 282.67,-131.41 293,-138.62 316.34,-154.93 307.58,-172.86 329,-191.62 332.72,-194.88 336.96,-197.82 341.34,-200.44"/>
<polygon fill="#63b8ff" stroke="#63b8ff" points="339.56,-203.99 350.03,-205.64 342.87,-197.82 339.56,-203.99"/>
</g>
<!-- Node10 -->
<g id="node10" class="node">
<title>Node10</title>
<g id="a_node10"><a xlink:href="m_disp_8c.html#a60f36997579d355f6030f872faad84a2" target="_top" xlink:title=" ">
<polygon fill="white" stroke="#666666" points="413.62,-73.25 342.12,-73.25 342.12,-54 413.62,-54 413.62,-73.25"/>
<text text-anchor="middle" x="377.88" y="-59.75" font-family="Helvetica,sans-Serif" font-size="10.00">arMatrixDisp</text>
</a>
</g>
</g>
<!-- Node3&#45;&gt;Node10 -->
<g id="edge11" class="edge">
<title>Node3&#45;&gt;Node10</title>
<path fill="none" stroke="#63b8ff" d="M257.72,-112.88C269.15,-110.09 281.72,-106.62 293,-102.62 303.51,-98.9 327.28,-87.75 346.84,-78.32"/>
<polygon fill="#63b8ff" stroke="#63b8ff" points="348.12,-81.11 355.59,-73.6 345.07,-74.81 348.12,-81.11"/>
</g>
<!-- Node11 -->
<g id="node11" class="node">
<title>Node11</title>
<g id="a_node11"><a xlink:href="m_self_inv_8c.html#a929738025b539a0c1bbd2f395ad4d981" target="_top" xlink:title=" ">
<polygon fill="white" stroke="#666666" points="418.88,-36.25 336.88,-36.25 336.88,-17 418.88,-17 418.88,-36.25"/>
<text text-anchor="middle" x="377.88" y="-22.75" font-family="Helvetica,sans-Serif" font-size="10.00">arMatrixSelfInv</text>
</a>
</g>
</g>
<!-- Node3&#45;&gt;Node11 -->
<g id="edge14" class="edge">
<title>Node3&#45;&gt;Node11</title>
<path fill="none" stroke="#63b8ff" d="M257.83,-117.01C269.9,-114.43 282.82,-110.06 293,-102.62 317.51,-84.74 305.55,-63.88 329,-44.62 330.08,-43.74 331.21,-42.89 332.38,-42.08"/>
<polygon fill="#63b8ff" stroke="#63b8ff" points="333.96,-44.64 340.91,-36.64 330.49,-38.56 333.96,-44.64"/>
</g>
<!-- Node5 -->
<g id="node5" class="node">
<title>Node5</title>
<g id="a_node5"><a xlink:href="m_alloc_8c.html#a69c9a974dc5a3963148ebb2c4a80f969" target="_top" xlink:title=" ">
<polygon fill="white" stroke="#666666" points="537.25,-149.25 464.25,-149.25 464.25,-130 537.25,-130 537.25,-149.25"/>
<text text-anchor="middle" x="500.75" y="-135.75" font-family="Helvetica,sans-Serif" font-size="10.00">arMatrixAlloc</text>
</a>
</g>
</g>
<!-- Node4&#45;&gt;Node5 -->
<g id="edge4" class="edge">
<title>Node4&#45;&gt;Node5</title>
<path fill="none" stroke="#63b8ff" d="M422.51,-139.62C432.55,-139.62 443.25,-139.62 453.39,-139.62"/>
<polygon fill="#63b8ff" stroke="#63b8ff" points="453.12,-143.13 463.12,-139.62 453.12,-136.13 453.12,-143.13"/>
</g>
<!-- Node4&#45;&gt;Node6 -->
<g id="edge5" class="edge">
<title>Node4&#45;&gt;Node6</title>
<path fill="none" stroke="#63b8ff" d="M410.95,-149.71C425.27,-154.21 442.34,-159.58 457.67,-164.39"/>
<polygon fill="#63b8ff" stroke="#63b8ff" points="456.36,-167.97 466.94,-167.63 458.45,-161.29 456.36,-167.97"/>
</g>
<!-- Node4&#45;&gt;Node7 -->
<g id="edge6" class="edge">
<title>Node4&#45;&gt;Node7</title>
<path fill="none" stroke="#63b8ff" d="M411.9,-129.51C425.63,-125.31 441.75,-120.38 456.4,-115.89"/>
<polygon fill="#63b8ff" stroke="#63b8ff" points="457.22,-119 465.76,-112.72 455.17,-112.3 457.22,-119"/>
</g>
<!-- Node8&#45;&gt;Node5 -->
<g id="edge8" class="edge">
<title>Node8&#45;&gt;Node5</title>
<path fill="none" stroke="#63b8ff" d="M392.49,-205.61C408.81,-193.79 437.16,-173.81 462.75,-158.62 464.95,-157.32 467.25,-156.01 469.58,-154.73"/>
<polygon fill="#63b8ff" stroke="#63b8ff" points="470.96,-157.42 478.15,-149.64 467.68,-151.24 470.96,-157.42"/>
</g>
<!-- Node8&#45;&gt;Node6 -->
<g id="edge9" class="edge">
<title>Node8&#45;&gt;Node6</title>
<path fill="none" stroke="#63b8ff" d="M410.95,-205.54C425.27,-201.04 442.34,-195.67 457.67,-190.86"/>
<polygon fill="#63b8ff" stroke="#63b8ff" points="458.45,-193.96 466.94,-187.62 456.36,-187.28 458.45,-193.96"/>
</g>
<!-- Node9 -->
<g id="node9" class="node">
<title>Node9</title>
<g id="a_node9"><a xlink:href="m_trans_8c.html#ad3d9712dd27f655902a8a3315e623d85" target="_top" xlink:title=" ">
<polygon fill="white" stroke="#666666" points="538.75,-225.25 462.75,-225.25 462.75,-206 538.75,-206 538.75,-225.25"/>
<text text-anchor="middle" x="500.75" y="-211.75" font-family="Helvetica,sans-Serif" font-size="10.00">arMatrixTrans</text>
</a>
</g>
</g>
<!-- Node8&#45;&gt;Node9 -->
<g id="edge10" class="edge">
<title>Node8&#45;&gt;Node9</title>
<path fill="none" stroke="#63b8ff" d="M427,-215.62C435.14,-215.62 443.6,-215.62 451.75,-215.62"/>
<polygon fill="#63b8ff" stroke="#63b8ff" points="451.6,-219.13 461.6,-215.62 451.6,-212.13 451.6,-219.13"/>
</g>
</g>
</svg>
        <g id="navigator" transform="translate(0 0)" fill="#404254">
                <rect fill="#f2f5e9" fill-opacity="0.5" stroke="#606060" stroke-width=".5" x="0" y="0" width="60" height="60"/>
                <use id="zoomplus" xlink:href="#zoomPlus" x="17" y="9" onmousedown="handleZoom(evt,'in')"/>
                <use id="zoomminus" xlink:href="#zoomMin" x="42" y="9" onmousedown="handleZoom(evt,'out')"/>
                <use id="reset" xlink:href="#resetDef" x="30" y="36" onmousedown="handleReset()"/>
                <g id="arrowUp" xlink:href="#dirArrow" transform="translate(30 24)" onmousedown="handlePan(0,-1)">
                  <use xlink:href="#rim" fill="#404040">
                        <set attributeName="fill" to="#808080" begin="arrowUp.mouseover" end="arrowUp.mouseout"/>
                  </use>
                  <path fill="none" stroke="white" stroke-width="1.5" d="M0,-3.0v7 M-2.5,-0.5L0,-3.0L2.5,-0.5"/>
                </g>
                <g id="arrowRight" xlink:href="#dirArrow" transform="rotate(90) translate(36 -43)" onmousedown="handlePan(1,0)">
                  <use xlink:href="#rim" fill="#404040">
                        <set attributeName="fill" to="#808080" begin="arrowRight.mouseover" end="arrowRight.mouseout"/>
                  </use>
                  <path fill="none" stroke="white" stroke-width="1.5" d="M0,-3.0v7 M-2.5,-0.5L0,-3.0L2.5,-0.5"/>
                </g>
                <g id="arrowDown" xlink:href="#dirArrow" transform="rotate(180) translate(-30 -48)" onmousedown="handlePan(0,1)">
                  <use xlink:href="#rim" fill="#404040">
                        <set attributeName="fill" to="#808080" begin="arrowDown.mouseover" end="arrowDown.mouseout"/>
                  </use>
                  <path fill="none" stroke="white" stroke-width="1.5" d="M0,-3.0v7 M-2.5,-0.5L0,-3.0L2.5,-0.5"/>
                </g>
                <g id="arrowLeft" xlink:href="#dirArrow" transform="rotate(270) translate(-36 17)" onmousedown="handlePan(-1,0)">
                  <use xlink:href="#rim" fill="#404040">
                        <set attributeName="fill" to="#808080" begin="arrowLeft.mouseover" end="arrowLeft.mouseout"/>
                  </use>
                  <path fill="none" stroke="white" stroke-width="1.5" d="M0,-3.0v7 M-2.5,-0.5L0,-3.0L2.5,-0.5"/>
                </g>
        </g>
        <svg viewBox="0 0 15 15" width="100%" height="30px" preserveAspectRatio="xMaxYMin meet">
         <g id="arrow_out" transform="scale(0.3 0.3)">
          <a xlink:href="icp_8h_a4b6d126a648aed158a8cc1a495b83405_cgraph_org.svg" target="_base">
           <rect id="button" ry="5" rx="5" y="6" x="6" height="38" width="38"
                fill="#f2f5e9" fill-opacity="0.5" stroke="#606060" stroke-width="1.0"/>
           <path id="arrow"
             d="M 11.500037,31.436501 C 11.940474,20.09759 22.043105,11.32322 32.158766,21.979434 L 37.068811,17.246167 C 37.068811,17.246167 37.088388,32 37.088388,32 L 22.160133,31.978069 C 22.160133,31.978069 26.997745,27.140456 26.997745,27.140456 C 18.528582,18.264221 13.291696,25.230495 11.500037,31.436501 z"
             style="fill:#404040;"/>
          </a>
         </g>
        </svg>
</svg>
