<?xml version="1.0" encoding="UTF-8" standalone="no"?>
<!DOCTYPE svg PUBLIC "-//W3C//DTD SVG 1.1//EN"
 "http://www.w3.org/Graphics/SVG/1.1/DTD/svg11.dtd">
<!-- Generated by graphviz version 7.0.5 (20221223.1930)
 -->
<!-- Title: Source/ARX/AR/icpPointRobust.c Pages: 1 -->
<svg width="1048pt" height="192pt"
 viewBox="0.00 0.00 1048.18 192.00" xmlns="http://www.w3.org/2000/svg" xmlns:xlink="http://www.w3.org/1999/xlink">
<g id="graph0" class="graph" transform="scale(1 1) rotate(0) translate(4 188)">
<title>Source/ARX/AR/icpPointRobust.c</title>
<!-- Node1 -->
<g id="node1" class="node">
<title>Node1</title>
<g id="a_node1"><a xlink:title=" ">
<polygon fill="#999999" stroke="#666666" points="583.68,-184 416.68,-184 416.68,-165 583.68,-165 583.68,-184"/>
<text text-anchor="middle" x="500.18" y="-172" font-family="Helvetica,sans-Serif" font-size="10.00">Source/ARX/AR/icpPointRobust.c</text>
</a>
</g>
</g>
<!-- Node2 -->
<g id="node2" class="node">
<title>Node2</title>
<g id="a_node2"><a xlink:title=" ">
<polygon fill="#e0e0e0" stroke="#999999" points="922.18,-19 876.18,-19 876.18,0 922.18,0 922.18,-19"/>
<text text-anchor="middle" x="899.18" y="-7" font-family="Helvetica,sans-Serif" font-size="10.00">stdio.h</text>
</a>
</g>
</g>
<!-- Node1&#45;&gt;Node2 -->
<g id="edge1" class="edge">
<title>Node1&#45;&gt;Node2</title>
<path fill="none" stroke="#63b8ff" d="M583.87,-165.33C659.6,-154.54 771.33,-129.86 852.18,-74 868.73,-62.57 881.74,-43.4 889.84,-29.11"/>
<polygon fill="#63b8ff" stroke="#63b8ff" points="892.72,-31.15 894.34,-20.67 886.54,-27.85 892.72,-31.15"/>
</g>
<!-- Node3 -->
<g id="node3" class="node">
<title>Node3</title>
<g id="a_node3"><a xlink:title=" ">
<polygon fill="#e0e0e0" stroke="#999999" points="444.18,-19 396.18,-19 396.18,0 444.18,0 444.18,-19"/>
<text text-anchor="middle" x="420.18" y="-7" font-family="Helvetica,sans-Serif" font-size="10.00">stdlib.h</text>
</a>
</g>
</g>
<!-- Node1&#45;&gt;Node3 -->
<g id="edge2" class="edge">
<title>Node1&#45;&gt;Node3</title>
<path fill="none" stroke="#63b8ff" d="M437.8,-164.55C347.96,-150.24 189.15,-119.14 155.18,-74 150.11,-67.25 149.73,-61.45 155.18,-55 169.89,-37.62 316.25,-20.87 384.94,-13.9"/>
<polygon fill="#63b8ff" stroke="#63b8ff" points="384.93,-17.41 394.53,-12.94 384.23,-10.45 384.93,-17.41"/>
</g>
<!-- Node4 -->
<g id="node4" class="node">
<title>Node4</title>
<g id="a_node4"><a xlink:title=" ">
<polygon fill="#e0e0e0" stroke="#999999" points="47.68,-19 0.68,-19 0.68,0 47.68,0 47.68,-19"/>
<text text-anchor="middle" x="24.18" y="-7" font-family="Helvetica,sans-Serif" font-size="10.00">math.h</text>
</a>
</g>
</g>
<!-- Node1&#45;&gt;Node4 -->
<g id="edge3" class="edge">
<title>Node1&#45;&gt;Node4</title>
<path fill="none" stroke="#63b8ff" d="M416.4,-169.49C288.53,-161.38 54.3,-137.96 5.18,-74 -4.98,-60.76 2.47,-42.14 10.84,-28.49"/>
<polygon fill="#63b8ff" stroke="#63b8ff" points="13.58,-30.68 16.29,-20.44 7.78,-26.76 13.58,-30.68"/>
</g>
<!-- Node5 -->
<g id="node5" class="node">
<title>Node5</title>
<g id="a_node5"><a xlink:href="ar_8h.html" target="_top" xlink:title="artoolkitX core routines.">
<polygon fill="white" stroke="#666666" points="537.18,-129 463.18,-129 463.18,-110 537.18,-110 537.18,-129"/>
<text text-anchor="middle" x="500.18" y="-117" font-family="Helvetica,sans-Serif" font-size="10.00">ARX/AR/ar.h</text>
</a>
</g>
</g>
<!-- Node1&#45;&gt;Node5 -->
<g id="edge4" class="edge">
<title>Node1&#45;&gt;Node5</title>
<path fill="none" stroke="#63b8ff" d="M500.18,-164.75C500.18,-158.27 500.18,-149.16 500.18,-140.9"/>
<polygon fill="#63b8ff" stroke="#63b8ff" points="503.68,-140.96 500.18,-130.96 496.68,-140.96 503.68,-140.96"/>
</g>
<!-- Node15 -->
<g id="node15" class="node">
<title>Node15</title>
<g id="a_node15"><a xlink:href="icp_8h.html" target="_top" xlink:title=" ">
<polygon fill="white" stroke="#666666" points="987.68,-74 908.68,-74 908.68,-55 987.68,-55 987.68,-74"/>
<text text-anchor="middle" x="948.18" y="-62" font-family="Helvetica,sans-Serif" font-size="10.00">ARX/AR/icp.h</text>
</a>
</g>
</g>
<!-- Node1&#45;&gt;Node15 -->
<g id="edge28" class="edge">
<title>Node1&#45;&gt;Node15</title>
<path fill="none" stroke="#63b8ff" d="M584.03,-171.21C683.42,-167.25 842.16,-156.7 894.18,-129 913.3,-118.82 928.52,-98.84 937.87,-84"/>
<polygon fill="#63b8ff" stroke="#63b8ff" points="940.75,-86 942.84,-75.61 934.73,-82.43 940.75,-86"/>
</g>
<!-- Node5&#45;&gt;Node2 -->
<g id="edge5" class="edge">
<title>Node5&#45;&gt;Node2</title>
<path fill="none" stroke="#63b8ff" d="M537.58,-115.95C611.31,-110.5 772.64,-96.36 823.18,-74 847.4,-63.29 869.99,-42.48 884.14,-27.6"/>
<polygon fill="#63b8ff" stroke="#63b8ff" points="886.6,-30.1 890.78,-20.36 881.44,-25.37 886.6,-30.1"/>
</g>
<!-- Node5&#45;&gt;Node3 -->
<g id="edge6" class="edge">
<title>Node5&#45;&gt;Node3</title>
<path fill="none" stroke="#63b8ff" d="M482.2,-109.57C468.52,-101.9 450.23,-89.63 439.18,-74 430.12,-61.19 425.32,-44 422.81,-30.74"/>
<polygon fill="#63b8ff" stroke="#63b8ff" points="426.29,-30.33 421.28,-20.99 419.38,-31.41 426.29,-30.33"/>
</g>
<!-- Node6 -->
<g id="node6" class="node">
<title>Node6</title>
<g id="a_node6"><a xlink:title=" ">
<polygon fill="#e0e0e0" stroke="#999999" points="391.68,-74 342.68,-74 342.68,-55 391.68,-55 391.68,-74"/>
<text text-anchor="middle" x="367.18" y="-62" font-family="Helvetica,sans-Serif" font-size="10.00">stdint.h</text>
</a>
</g>
</g>
<!-- Node5&#45;&gt;Node6 -->
<g id="edge7" class="edge">
<title>Node5&#45;&gt;Node6</title>
<path fill="none" stroke="#63b8ff" d="M477.62,-109.51C456.28,-101.01 424.02,-88.15 399.87,-78.53"/>
<polygon fill="#63b8ff" stroke="#63b8ff" points="401.4,-75.37 390.82,-74.92 398.81,-81.87 401.4,-75.37"/>
</g>
<!-- Node7 -->
<g id="node7" class="node">
<title>Node7</title>
<g id="a_node7"><a xlink:title=" ">
<polygon fill="#e0e0e0" stroke="#999999" points="580.68,-19 531.68,-19 531.68,0 580.68,0 580.68,-19"/>
<text text-anchor="middle" x="556.18" y="-7" font-family="Helvetica,sans-Serif" font-size="10.00">string.h</text>
</a>
</g>
</g>
<!-- Node5&#45;&gt;Node7 -->
<g id="edge8" class="edge">
<title>Node5&#45;&gt;Node7</title>
<path fill="none" stroke="#63b8ff" d="M520.65,-109.52C534.59,-102.17 551.96,-90.33 560.18,-74 566.96,-60.54 565.38,-43.4 562.42,-30.31"/>
<polygon fill="#63b8ff" stroke="#63b8ff" points="565.81,-29.45 559.79,-20.73 559.06,-31.3 565.81,-29.45"/>
</g>
<!-- Node8 -->
<g id="node8" class="node">
<title>Node8</title>
<g id="a_node8"><a xlink:title=" ">
<polygon fill="#e0e0e0" stroke="#999999" points="315.18,-19 223.18,-19 223.18,0 315.18,0 315.18,-19"/>
<text text-anchor="middle" x="269.18" y="-7" font-family="Helvetica,sans-Serif" font-size="10.00">ARX/AR/config.h</text>
</a>
</g>
</g>
<!-- Node5&#45;&gt;Node8 -->
<g id="edge9" class="edge">
<title>Node5&#45;&gt;Node8</title>
<path fill="none" stroke="#63b8ff" d="M462.91,-114.2C427.59,-108.87 374.04,-97.45 333.18,-74 312.89,-62.35 294.47,-42.65 282.66,-28.28"/>
<polygon fill="#63b8ff" stroke="#63b8ff" points="285.48,-26.2 276.53,-20.53 279.99,-30.55 285.48,-26.2"/>
</g>
<!-- Node9 -->
<g id="node9" class="node">
<title>Node9</title>
<g id="a_node9"><a xlink:href="ar_config_8h.html" target="_top" xlink:title=" ">
<polygon fill="white" stroke="#666666" points="551.68,-74 448.68,-74 448.68,-55 551.68,-55 551.68,-74"/>
<text text-anchor="middle" x="500.18" y="-62" font-family="Helvetica,sans-Serif" font-size="10.00">ARX/AR/arConfig.h</text>
</a>
</g>
</g>
<!-- Node5&#45;&gt;Node9 -->
<g id="edge10" class="edge">
<title>Node5&#45;&gt;Node9</title>
<path fill="none" stroke="#63b8ff" d="M500.18,-109.75C500.18,-103.27 500.18,-94.16 500.18,-85.9"/>
<polygon fill="#63b8ff" stroke="#63b8ff" points="503.68,-85.96 500.18,-75.96 496.68,-85.96 503.68,-85.96"/>
</g>
<!-- Node10 -->
<g id="node10" class="node">
<title>Node10</title>
<g id="a_node10"><a xlink:href="log_8h.html" target="_top" xlink:title="Logging utilities.">
<polygon fill="white" stroke="#666666" points="814.18,-74 720.18,-74 720.18,-55 814.18,-55 814.18,-74"/>
<text text-anchor="middle" x="767.18" y="-62" font-family="Helvetica,sans-Serif" font-size="10.00">ARX/ARUtil/log.h</text>
</a>
</g>
</g>
<!-- Node5&#45;&gt;Node10 -->
<g id="edge11" class="edge">
<title>Node5&#45;&gt;Node10</title>
<path fill="none" stroke="#63b8ff" d="M537.59,-111.07C582.65,-102.13 658.78,-87.02 710.93,-76.67"/>
<polygon fill="#63b8ff" stroke="#63b8ff" points="711.39,-80.14 720.52,-74.76 710.03,-73.28 711.39,-80.14"/>
</g>
<!-- Node14 -->
<g id="node14" class="node">
<title>Node14</title>
<g id="a_node14"><a xlink:href="matrix_8h.html" target="_top" xlink:title=" ">
<polygon fill="white" stroke="#666666" points="107.68,-74 14.68,-74 14.68,-55 107.68,-55 107.68,-74"/>
<text text-anchor="middle" x="61.18" y="-62" font-family="Helvetica,sans-Serif" font-size="10.00">ARX/AR/matrix.h</text>
</a>
</g>
</g>
<!-- Node5&#45;&gt;Node14 -->
<g id="edge18" class="edge">
<title>Node5&#45;&gt;Node14</title>
<path fill="none" stroke="#63b8ff" d="M462.75,-113.98C386.1,-104.73 210.78,-83.56 119.24,-72.51"/>
<polygon fill="#63b8ff" stroke="#63b8ff" points="119.82,-69.05 109.47,-71.33 118.98,-76 119.82,-69.05"/>
</g>
<!-- Node5&#45;&gt;Node15 -->
<g id="edge20" class="edge">
<title>Node5&#45;&gt;Node15</title>
<path fill="none" stroke="#63b8ff" d="M537.61,-114.07C617.69,-104.6 805.77,-82.35 896.9,-71.57"/>
<polygon fill="#63b8ff" stroke="#63b8ff" points="897.29,-75.05 906.8,-70.4 896.46,-68.09 897.29,-75.05"/>
</g>
<!-- Node17 -->
<g id="node17" class="node">
<title>Node17</title>
<g id="a_node17"><a xlink:href="param_8h.html" target="_top" xlink:title="artoolkitX functions for handling calibrated camera parameters.">
<polygon fill="white" stroke="#666666" points="701.68,-74 608.68,-74 608.68,-55 701.68,-55 701.68,-74"/>
<text text-anchor="middle" x="655.18" y="-62" font-family="Helvetica,sans-Serif" font-size="10.00">ARX/AR/param.h</text>
</a>
</g>
</g>
<!-- Node5&#45;&gt;Node17 -->
<g id="edge23" class="edge">
<title>Node5&#45;&gt;Node17</title>
<path fill="none" stroke="#63b8ff" d="M521.26,-109.51C544.79,-100.84 583.17,-87.65 612.89,-77.97"/>
<polygon fill="#63b8ff" stroke="#63b8ff" points="613.93,-81.31 622.37,-74.91 611.78,-74.65 613.93,-81.31"/>
</g>
<!-- Node18 -->
<g id="node18" class="node">
<title>Node18</title>
<g id="a_node18"><a xlink:href="ar_image_proc_8h.html" target="_top" xlink:title="artoolkitX functions for 2D luminance image processing.">
<polygon fill="white" stroke="#666666" points="286.18,-74 164.18,-74 164.18,-55 286.18,-55 286.18,-74"/>
<text text-anchor="middle" x="225.18" y="-62" font-family="Helvetica,sans-Serif" font-size="10.00">ARX/AR/arImageProc.h</text>
</a>
</g>
</g>
<!-- Node5&#45;&gt;Node18 -->
<g id="edge25" class="edge">
<title>Node5&#45;&gt;Node18</title>
<path fill="none" stroke="#63b8ff" d="M462.71,-112.16C414.69,-103.39 331.45,-87.41 277.29,-76.63"/>
<polygon fill="#63b8ff" stroke="#63b8ff" points="278.18,-73.23 267.69,-74.7 276.81,-80.1 278.18,-73.23"/>
</g>
<!-- Node10&#45;&gt;Node2 -->
<g id="edge12" class="edge">
<title>Node10&#45;&gt;Node2</title>
<path fill="none" stroke="#63b8ff" d="M789.57,-54.51C810.75,-46.01 842.77,-33.15 866.74,-23.53"/>
<polygon fill="#63b8ff" stroke="#63b8ff" points="867.74,-26.9 875.72,-19.92 865.13,-20.4 867.74,-26.9"/>
</g>
<!-- Node10&#45;&gt;Node3 -->
<g id="edge13" class="edge">
<title>Node10&#45;&gt;Node3</title>
<path fill="none" stroke="#63b8ff" d="M720.02,-56.3C649.69,-45.55 518.87,-25.57 455.88,-15.95"/>
<polygon fill="#63b8ff" stroke="#63b8ff" points="456.49,-12.51 446.08,-14.46 455.44,-19.43 456.49,-12.51"/>
</g>
<!-- Node10&#45;&gt;Node7 -->
<g id="edge14" class="edge">
<title>Node10&#45;&gt;Node7</title>
<path fill="none" stroke="#63b8ff" d="M731.03,-54.54C697.37,-46.18 645.51,-33.26 592.1,-19.73"/>
<polygon fill="#63b8ff" stroke="#63b8ff" points="593.06,-16.36 582.51,-17.3 591.34,-23.15 593.06,-16.36"/>
</g>
<!-- Node11 -->
<g id="node11" class="node">
<title>Node11</title>
<g id="a_node11"><a xlink:title=" ">
<polygon fill="#e0e0e0" stroke="#999999" points="774.18,-19 722.18,-19 722.18,0 774.18,0 774.18,-19"/>
<text text-anchor="middle" x="748.18" y="-7" font-family="Helvetica,sans-Serif" font-size="10.00">stdarg.h</text>
</a>
</g>
</g>
<!-- Node10&#45;&gt;Node11 -->
<g id="edge15" class="edge">
<title>Node10&#45;&gt;Node11</title>
<path fill="none" stroke="#63b8ff" d="M764.04,-54.75C761.64,-48.04 758.23,-38.52 755.18,-30.02"/>
<polygon fill="#63b8ff" stroke="#63b8ff" points="758.57,-29.1 751.9,-20.87 751.98,-31.46 758.57,-29.1"/>
</g>
<!-- Node12 -->
<g id="node12" class="node">
<title>Node12</title>
<g id="a_node12"><a xlink:title=" ">
<polygon fill="#e0e0e0" stroke="#999999" points="857.68,-19 792.68,-19 792.68,0 857.68,0 857.68,-19"/>
<text text-anchor="middle" x="825.18" y="-7" font-family="Helvetica,sans-Serif" font-size="10.00">sys/errno.h</text>
</a>
</g>
</g>
<!-- Node10&#45;&gt;Node12 -->
<g id="edge16" class="edge">
<title>Node10&#45;&gt;Node12</title>
<path fill="none" stroke="#63b8ff" d="M777.02,-54.51C785.24,-47 797.16,-36.1 807.09,-27.03"/>
<polygon fill="#63b8ff" stroke="#63b8ff" points="809.35,-29.71 814.37,-20.38 804.63,-24.54 809.35,-29.71"/>
</g>
<!-- Node13 -->
<g id="node13" class="node">
<title>Node13</title>
<g id="a_node13"><a xlink:href="types_8h.html" target="_top" xlink:title=" ">
<polygon fill="white" stroke="#666666" points="703.68,-19 598.68,-19 598.68,0 703.68,0 703.68,-19"/>
<text text-anchor="middle" x="651.18" y="-7" font-family="Helvetica,sans-Serif" font-size="10.00">ARX/ARUtil/types.h</text>
</a>
</g>
</g>
<!-- Node10&#45;&gt;Node13 -->
<g id="edge17" class="edge">
<title>Node10&#45;&gt;Node13</title>
<path fill="none" stroke="#63b8ff" d="M747.5,-54.51C729.23,-46.16 701.77,-33.61 680.84,-24.05"/>
<polygon fill="#63b8ff" stroke="#63b8ff" points="682.5,-20.96 671.95,-19.99 679.59,-27.33 682.5,-20.96"/>
</g>
<!-- Node14&#45;&gt;Node4 -->
<g id="edge19" class="edge">
<title>Node14&#45;&gt;Node4</title>
<path fill="none" stroke="#63b8ff" d="M55.07,-54.75C50.17,-47.73 43.13,-37.64 37.01,-28.87"/>
<polygon fill="#63b8ff" stroke="#63b8ff" points="39.89,-26.88 31.29,-20.68 34.15,-30.89 39.89,-26.88"/>
</g>
<!-- Node15&#45;&gt;Node2 -->
<g id="edge21" class="edge">
<title>Node15&#45;&gt;Node2</title>
<path fill="none" stroke="#63b8ff" d="M940.09,-54.75C933.32,-47.43 923.46,-36.76 915.12,-27.74"/>
<polygon fill="#63b8ff" stroke="#63b8ff" points="917.84,-25.52 908.48,-20.55 912.7,-30.27 917.84,-25.52"/>
</g>
<!-- Node16 -->
<g id="node16" class="node">
<title>Node16</title>
<g id="a_node16"><a xlink:href="icp_core_8h.html" target="_top" xlink:title=" ">
<polygon fill="white" stroke="#666666" points="1040.18,-19 940.18,-19 940.18,0 1040.18,0 1040.18,-19"/>
<text text-anchor="middle" x="990.18" y="-7" font-family="Helvetica,sans-Serif" font-size="10.00">ARX/AR/icpCore.h</text>
</a>
</g>
</g>
<!-- Node15&#45;&gt;Node16 -->
<g id="edge22" class="edge">
<title>Node15&#45;&gt;Node16</title>
<path fill="none" stroke="#63b8ff" d="M955.12,-54.75C960.8,-47.58 969.02,-37.2 976.07,-28.3"/>
<polygon fill="#63b8ff" stroke="#63b8ff" points="978.69,-30.64 982.16,-20.63 973.2,-26.29 978.69,-30.64"/>
</g>
<!-- Node17&#45;&gt;Node5 -->
<g id="edge24" class="edge">
<title>Node17&#45;&gt;Node5</title>
<path fill="none" stroke="#63b8ff" d="M634.47,-74.36C610.91,-83.04 572.17,-96.36 542.26,-106.1"/>
<polygon fill="#63b8ff" stroke="#63b8ff" points="541.58,-102.64 533.13,-109.04 543.72,-109.31 541.58,-102.64"/>
</g>
<!-- Node18&#45;&gt;Node5 -->
<g id="edge27" class="edge">
<title>Node18&#45;&gt;Node5</title>
<path fill="none" stroke="#63b8ff" d="M276.95,-74.47C327.13,-83.77 402.51,-98.28 451.58,-108.07"/>
<polygon fill="#63b8ff" stroke="#63b8ff" points="450.88,-111.5 461.37,-110.04 452.25,-104.64 450.88,-111.5"/>
</g>
<!-- Node18&#45;&gt;Node8 -->
<g id="edge26" class="edge">
<title>Node18&#45;&gt;Node8</title>
<path fill="none" stroke="#63b8ff" d="M232.45,-54.75C238.46,-47.5 247.2,-36.98 254.64,-28.02"/>
<polygon fill="#63b8ff" stroke="#63b8ff" points="257.1,-30.54 260.79,-20.61 251.71,-26.07 257.1,-30.54"/>
</g>
</g>
</svg>
