<?xml version="1.0" encoding="UTF-8" standalone="no"?>
<!DOCTYPE svg PUBLIC "-//W3C//DTD SVG 1.1//EN"
 "http://www.w3.org/Graphics/SVG/1.1/DTD/svg11.dtd">
<!-- Generated by graphviz version 2.40.1 (20161225.0304)
 -->
<!-- Title: icpGetDeltaS Pages: 1 -->
<svg width="331pt" height="216pt"
 viewBox="0.00 0.00 331.21 216.00" xmlns="http://www.w3.org/2000/svg" xmlns:xlink="http://www.w3.org/1999/xlink">
<g id="graph0" class="graph" transform="scale(1 1) rotate(0) translate(4 212)">
<title>icpGetDeltaS</title>
<polygon fill="#ffffff" stroke="transparent" points="-4,4 -4,-212 327.208,-212 327.208,4 -4,4"/>
<!-- Node0 -->
<g id="node1" class="node">
<title>Node0</title>
<polygon fill="#bfbfbf" stroke="#000000" points="0,-95.5 0,-113.5 74.916,-113.5 74.916,-95.5 0,-95.5"/>
<text text-anchor="middle" x="37.458" y="-101.5" font-family="Helvetica,sans-Serif" font-size="10.00" fill="#000000">icpGetDeltaS</text>
</g>
<!-- Node1 -->
<g id="node2" class="node">
<title>Node1</title>
<g id="a_node2"><a xlink:href="matrix_8h.html#a10f7e09e6c5f9c853e5bb8104aa3a18e" target="_top" xlink:title="arMatrixDisp">
<polygon fill="#ffffff" stroke="#000000" points="124.3486,-189.5 124.3486,-207.5 196.4668,-207.5 196.4668,-189.5 124.3486,-189.5"/>
<text text-anchor="middle" x="160.4077" y="-195.5" font-family="Helvetica,sans-Serif" font-size="10.00" fill="#000000">arMatrixDisp</text>
</a>
</g>
</g>
<!-- Node0&#45;&gt;Node1 -->
<g id="edge1" class="edge">
<title>Node0&#45;&gt;Node1</title>
<path fill="none" stroke="#191970" d="M44.1278,-113.7632C55.9255,-129.5362 81.9765,-161.7206 110.916,-180.5 113.6387,-182.2668 116.558,-183.8898 119.5671,-185.3748"/>
<polygon fill="#191970" stroke="#191970" points="118.1939,-188.5944 128.7564,-189.4218 121.0153,-182.1881 118.1939,-188.5944"/>
</g>
<!-- Node2 -->
<g id="node3" class="node">
<title>Node2</title>
<g id="a_node3"><a xlink:href="matrix_8h.html#a9219f180afc943a324497025655bc9ba" target="_top" xlink:title="arMatrixAllocTrans">
<polygon fill="#ffffff" stroke="#000000" points="110.916,-152.5 110.916,-170.5 209.8994,-170.5 209.8994,-152.5 110.916,-152.5"/>
<text text-anchor="middle" x="160.4077" y="-158.5" font-family="Helvetica,sans-Serif" font-size="10.00" fill="#000000">arMatrixAllocTrans</text>
</a>
</g>
</g>
<!-- Node0&#45;&gt;Node2 -->
<g id="edge2" class="edge">
<title>Node0&#45;&gt;Node2</title>
<path fill="none" stroke="#191970" d="M56.9398,-113.5318C76.9655,-122.8159 108.3796,-137.3796 131.3435,-148.0257"/>
<polygon fill="#191970" stroke="#191970" points="130.0654,-151.291 140.61,-152.3217 133.0097,-144.9402 130.0654,-151.291"/>
</g>
<!-- Node5 -->
<g id="node6" class="node">
<title>Node5</title>
<g id="a_node6"><a xlink:href="matrix_8h.html#a7b6cca2930147818bd060cddd5c5a28a" target="_top" xlink:title="arMatrixFree">
<polygon fill="#ffffff" stroke="#000000" points="248.2163,-114.5 248.2163,-132.5 320.8911,-132.5 320.8911,-114.5 248.2163,-114.5"/>
<text text-anchor="middle" x="284.5537" y="-120.5" font-family="Helvetica,sans-Serif" font-size="10.00" fill="#000000">arMatrixFree</text>
</a>
</g>
</g>
<!-- Node0&#45;&gt;Node5 -->
<g id="edge10" class="edge">
<title>Node0&#45;&gt;Node5</title>
<path fill="none" stroke="#191970" d="M74.9865,-107.3857C118.5404,-110.7347 190.408,-116.2608 237.6184,-119.891"/>
<polygon fill="#191970" stroke="#191970" points="237.6451,-123.4033 247.884,-120.6803 238.1818,-116.4239 237.6451,-123.4033"/>
</g>
<!-- Node6 -->
<g id="node7" class="node">
<title>Node6</title>
<g id="a_node7"><a xlink:href="matrix_8h.html#aa0d22d0a5dde942ef5a7042da7079a6e" target="_top" xlink:title="arMatrixAllocMul">
<polygon fill="#ffffff" stroke="#000000" points="115.457,-76.5 115.457,-94.5 205.3584,-94.5 205.3584,-76.5 115.457,-76.5"/>
<text text-anchor="middle" x="160.4077" y="-82.5" font-family="Helvetica,sans-Serif" font-size="10.00" fill="#000000">arMatrixAllocMul</text>
</a>
</g>
</g>
<!-- Node0&#45;&gt;Node6 -->
<g id="edge6" class="edge">
<title>Node0&#45;&gt;Node6</title>
<path fill="none" stroke="#191970" d="M75.015,-98.6961C84.5487,-97.2229 94.9916,-95.6091 105.2014,-94.0313"/>
<polygon fill="#191970" stroke="#191970" points="105.9431,-97.4583 115.2912,-92.4721 104.874,-90.5404 105.9431,-97.4583"/>
</g>
<!-- Node7 -->
<g id="node8" class="node">
<title>Node7</title>
<g id="a_node8"><a xlink:href="matrix_8h.html#a300a2264cc3ee92f56829c9e28dd6579" target="_top" xlink:title="arMatrixMul">
<polygon fill="#ffffff" stroke="#000000" points="250.4404,-39.5 250.4404,-57.5 318.667,-57.5 318.667,-39.5 250.4404,-39.5"/>
<text text-anchor="middle" x="284.5537" y="-45.5" font-family="Helvetica,sans-Serif" font-size="10.00" fill="#000000">arMatrixMul</text>
</a>
</g>
</g>
<!-- Node0&#45;&gt;Node7 -->
<g id="edge12" class="edge">
<title>Node0&#45;&gt;Node7</title>
<path fill="none" stroke="#191970" d="M51.1472,-95.419C65.4225,-86.4417 88.7664,-73.118 110.916,-66.5 153.5998,-53.7466 204.5126,-49.7044 240.1325,-48.5744"/>
<polygon fill="#191970" stroke="#191970" points="240.3029,-52.0713 250.2111,-48.3193 240.1258,-45.0736 240.3029,-52.0713"/>
</g>
<!-- Node8 -->
<g id="node9" class="node">
<title>Node8</title>
<g id="a_node9"><a xlink:href="matrix_8h.html#a979db815d3f7ed81b0375ee39da3057a" target="_top" xlink:title="arMatrixSelfInv">
<polygon fill="#ffffff" stroke="#000000" points="119.0654,-.5 119.0654,-18.5 201.75,-18.5 201.75,-.5 119.0654,-.5"/>
<text text-anchor="middle" x="160.4077" y="-6.5" font-family="Helvetica,sans-Serif" font-size="10.00" fill="#000000">arMatrixSelfInv</text>
</a>
</g>
</g>
<!-- Node0&#45;&gt;Node8 -->
<g id="edge11" class="edge">
<title>Node0&#45;&gt;Node8</title>
<path fill="none" stroke="#191970" d="M45.2735,-95.2467C57.9205,-80.6942 84.1658,-52.1943 110.916,-33.5 116.3609,-29.6949 122.501,-26.1856 128.5565,-23.0923"/>
<polygon fill="#191970" stroke="#191970" points="130.4034,-26.0875 137.8905,-18.5912 127.3628,-19.7823 130.4034,-26.0875"/>
</g>
<!-- Node3 -->
<g id="node4" class="node">
<title>Node3</title>
<g id="a_node4"><a xlink:href="matrix_8h.html#a4ab6ed1bcea1368a2040e9779ab28b9b" target="_top" xlink:title="arMatrixAlloc">
<polygon fill="#ffffff" stroke="#000000" points="247.6597,-76.5 247.6597,-94.5 321.4478,-94.5 321.4478,-76.5 247.6597,-76.5"/>
<text text-anchor="middle" x="284.5537" y="-82.5" font-family="Helvetica,sans-Serif" font-size="10.00" fill="#000000">arMatrixAlloc</text>
</a>
</g>
</g>
<!-- Node2&#45;&gt;Node3 -->
<g id="edge3" class="edge">
<title>Node2&#45;&gt;Node3</title>
<path fill="none" stroke="#191970" d="M172.8234,-152.4694C189.1724,-140.7551 219.0007,-119.9889 245.8994,-104.5 248.9734,-102.7299 252.2355,-100.9634 255.5103,-99.26"/>
<polygon fill="#191970" stroke="#191970" points="257.2661,-102.2948 264.628,-94.6756 254.1215,-96.0408 257.2661,-102.2948"/>
</g>
<!-- Node4 -->
<g id="node5" class="node">
<title>Node4</title>
<g id="a_node5"><a xlink:href="matrix_8h.html#adc9ca82a56c93dba3b6a4bc335f54ca8" target="_top" xlink:title="arMatrixTrans">
<polygon fill="#ffffff" stroke="#000000" points="245.8994,-152.5 245.8994,-170.5 323.208,-170.5 323.208,-152.5 245.8994,-152.5"/>
<text text-anchor="middle" x="284.5537" y="-158.5" font-family="Helvetica,sans-Serif" font-size="10.00" fill="#000000">arMatrixTrans</text>
</a>
</g>
</g>
<!-- Node2&#45;&gt;Node4 -->
<g id="edge4" class="edge">
<title>Node2&#45;&gt;Node4</title>
<path fill="none" stroke="#191970" d="M210.1873,-161.5C218.628,-161.5 227.3845,-161.5 235.7985,-161.5"/>
<polygon fill="#191970" stroke="#191970" points="235.8476,-165.0001 245.8475,-161.5 235.8475,-158.0001 235.8476,-165.0001"/>
</g>
<!-- Node2&#45;&gt;Node5 -->
<g id="edge5" class="edge">
<title>Node2&#45;&gt;Node5</title>
<path fill="none" stroke="#191970" d="M189.8286,-152.4945C206.4053,-147.4205 227.3252,-141.0172 245.2862,-135.5194"/>
<polygon fill="#191970" stroke="#191970" points="246.3761,-138.8462 254.9138,-132.5725 244.3273,-132.1527 246.3761,-138.8462"/>
</g>
<!-- Node6&#45;&gt;Node3 -->
<g id="edge7" class="edge">
<title>Node6&#45;&gt;Node3</title>
<path fill="none" stroke="#191970" d="M205.5785,-85.5C215.8738,-85.5 226.8406,-85.5 237.2234,-85.5"/>
<polygon fill="#191970" stroke="#191970" points="237.365,-89.0001 247.365,-85.5 237.3649,-82.0001 237.365,-89.0001"/>
</g>
<!-- Node6&#45;&gt;Node5 -->
<g id="edge9" class="edge">
<title>Node6&#45;&gt;Node5</title>
<path fill="none" stroke="#191970" d="M189.8286,-94.5055C206.4053,-99.5795 227.3252,-105.9828 245.2862,-111.4806"/>
<polygon fill="#191970" stroke="#191970" points="244.3273,-114.8473 254.9138,-114.4275 246.3761,-108.1538 244.3273,-114.8473"/>
</g>
<!-- Node6&#45;&gt;Node7 -->
<g id="edge8" class="edge">
<title>Node6&#45;&gt;Node7</title>
<path fill="none" stroke="#191970" d="M190.7772,-76.4488C206.859,-71.6558 226.8217,-65.7062 244.19,-60.5298"/>
<polygon fill="#191970" stroke="#191970" points="245.4837,-63.7965 254.0674,-57.586 243.4843,-57.0881 245.4837,-63.7965"/>
</g>
</g>
</svg>
