<?xml version="1.0" encoding="UTF-8" standalone="no"?>
<!DOCTYPE svg PUBLIC "-//W3C//DTD SVG 1.1//EN"
 "http://www.w3.org/Graphics/SVG/1.1/DTD/svg11.dtd">
<!-- Generated by graphviz version 2.40.1 (20161225.0304)
 -->
<!-- Title: icpPoint Pages: 1 -->
<svg width="243pt" height="64pt"
 viewBox="0.00 0.00 243.30 64.00" xmlns="http://www.w3.org/2000/svg" xmlns:xlink="http://www.w3.org/1999/xlink">
<g id="graph0" class="graph" transform="scale(1 1) rotate(0) translate(4 60)">
<title>icpPoint</title>
<polygon fill="#ffffff" stroke="transparent" points="-4,4 -4,-60 239.2998,-60 239.2998,4 -4,4"/>
<!-- Node9 -->
<g id="node1" class="node">
<title>Node9</title>
<polygon fill="#bfbfbf" stroke="#000000" points="0,-18.5 0,-36.5 51.5762,-36.5 51.5762,-18.5 0,-18.5"/>
<text text-anchor="middle" x="25.7881" y="-24.5" font-family="Helvetica,sans-Serif" font-size="10.00" fill="#000000">icpPoint</text>
</g>
<!-- Node10 -->
<g id="node2" class="node">
<title>Node10</title>
<g id="a_node2"><a xlink:href="ar_util_8c.html#ae28eeba3e16224a7d77b46bd34b8f4fe" target="_top" xlink:title="arUtilMatMul">
<polygon fill="#ffffff" stroke="#000000" points="125.3789,-37.5 125.3789,-55.5 197.4971,-55.5 197.4971,-37.5 125.3789,-37.5"/>
<text text-anchor="middle" x="161.438" y="-43.5" font-family="Helvetica,sans-Serif" font-size="10.00" fill="#000000">arUtilMatMul</text>
</a>
</g>
</g>
<!-- Node9&#45;&gt;Node10 -->
<g id="edge1" class="edge">
<title>Node9&#45;&gt;Node10</title>
<path fill="none" stroke="#191970" d="M51.6221,-31.1185C69.5245,-33.626 93.8616,-37.0348 115.0756,-40.0062"/>
<polygon fill="#191970" stroke="#191970" points="114.8082,-43.5028 125.197,-41.4239 115.7792,-36.5705 114.8082,-43.5028"/>
</g>
<!-- Node11 -->
<g id="node3" class="node">
<title>Node11</title>
<g id="a_node3"><a xlink:href="icp_core_8c.html#aceeb3fd72a762c2078d8fb88ec03ccfb" target="_top" xlink:title="icpGetU_from_X_by_MatX2U">
<polygon fill="#ffffff" stroke="#000000" points="87.5762,-.5 87.5762,-18.5 235.2998,-18.5 235.2998,-.5 87.5762,-.5"/>
<text text-anchor="middle" x="161.438" y="-6.5" font-family="Helvetica,sans-Serif" font-size="10.00" fill="#000000">icpGetU_from_X_by_MatX2U</text>
</a>
</g>
</g>
<!-- Node9&#45;&gt;Node11 -->
<g id="edge2" class="edge">
<title>Node9&#45;&gt;Node11</title>
<path fill="none" stroke="#191970" d="M51.6221,-24.072C60.897,-22.8412 71.899,-21.3813 83.2991,-19.8686"/>
<polygon fill="#191970" stroke="#191970" points="83.9337,-23.3152 93.3864,-18.5301 83.0129,-16.376 83.9337,-23.3152"/>
</g>
</g>
</svg>
