<?xml version="1.0" encoding="UTF-8" standalone="no"?>
<!DOCTYPE svg PUBLIC "-//W3C//DTD SVG 1.1//EN"
 "http://www.w3.org/Graphics/SVG/1.1/DTD/svg11.dtd">
<!-- Generated by graphviz version 8.0.5 (20230430.1635)
 -->
<!-- Title: icpStereoPoint Pages: 1 -->
<!--zoomable 233 -->
<svg id="main" version="1.1" xmlns="http://www.w3.org/2000/svg" xmlns:xlink="http://www.w3.org/1999/xlink" xml:space="preserve" onload="init(evt)">
<style type="text/css"><![CDATA[
.edge:hover path { stroke: red; }
.edge:hover polygon { stroke: red; fill: red; }
]]></style>
<script type="text/javascript"><![CDATA[
var edges = document.getElementsByTagName('g');
if (edges && edges.length) {
  for (var i=0;i<edges.length;i++) {
    if (edges[i].id.substr(0,4)=='edge') {
      edges[i].setAttribute('class','edge');
    }
  }
}
]]></script>
        <defs>
                <circle id="rim" cx="0" cy="0" r="7"/>
                <circle id="rim2" cx="0" cy="0" r="3.5"/>
                <g id="zoomPlus">
                        <use xlink:href="#rim" fill="#404040">
                                <set attributeName="fill" to="#808080" begin="zoomplus.mouseover" end="zoomplus.mouseout"/>
                        </use>
                        <path d="M-4,0h8M0,-4v8" fill="none" stroke="white" stroke-width="1.5" pointer-events="none"/>
                </g>
                <g id="zoomMin">
                        <use xlink:href="#rim" fill="#404040">
                                <set attributeName="fill" to="#808080" begin="zoomminus.mouseover" end="zoomminus.mouseout"/>
                        </use>
                        <path d="M-4,0h8" fill="none" stroke="white" stroke-width="1.5" pointer-events="none"/>
                </g>
                <g id="dirArrow">
                        <path fill="none" stroke="white" stroke-width="1.5" d="M0,-3.0v7 M-2.5,-0.5L0,-3.0L2.5,-0.5"/>
                </g>
               <g id="resetDef">
                       <use xlink:href="#rim2" fill="#404040">
                               <set attributeName="fill" to="#808080" begin="reset.mouseover" end="reset.mouseout"/>
                       </use>
               </g>
        </defs>

<script type="text/javascript">
var viewWidth = 515;
var viewHeight = 233;
var sectionId = 'dynsection-5';
</script>
<script xlink:href="svgpan.js"/>
<svg id="graph" class="graph">
<g id="viewport">
<title>icpStereoPoint</title>
<!-- Node1 -->
<g id="node1" class="node">
<title>Node1</title>
<g id="a_node1"><a xlink:title=" ">
<polygon fill="#999999" stroke="#666666" points="79.75,-93.25 0,-93.25 0,-74 79.75,-74 79.75,-93.25"/>
<text text-anchor="middle" x="39.88" y="-79.75" font-family="Helvetica,sans-Serif" font-size="10.00">icpStereoPoint</text>
</a>
</g>
</g>
<!-- Node2 -->
<g id="node2" class="node">
<title>Node2</title>
<g id="a_node2"><a xlink:href="ar_util_8c.html#ae28eeba3e16224a7d77b46bd34b8f4fe" target="_top" xlink:title=" ">
<polygon fill="white" stroke="#666666" points="224.38,-167.25 152.88,-167.25 152.88,-148 224.38,-148 224.38,-167.25"/>
<text text-anchor="middle" x="188.62" y="-153.75" font-family="Helvetica,sans-Serif" font-size="10.00">arUtilMatMul</text>
</a>
</g>
</g>
<!-- Node1&#45;&gt;Node2 -->
<g id="edge1" class="edge">
<title>Node1&#45;&gt;Node2</title>
<path fill="none" stroke="#63b8ff" d="M51.15,-93.45C64.82,-105.99 90.24,-127.5 115.75,-139.62 124.02,-143.55 133.24,-146.69 142.25,-149.17"/>
<polygon fill="#63b8ff" stroke="#63b8ff" points="141.11,-152.74 151.66,-151.79 142.82,-145.96 141.11,-152.74"/>
</g>
<!-- Node3 -->
<g id="node3" class="node">
<title>Node3</title>
<g id="a_node3"><a xlink:href="icp_core_8c.html#a4906398b4594d29ab8035b4016a7e9de" target="_top" xlink:title=" ">
<polygon fill="white" stroke="#666666" points="225.88,-130.25 151.38,-130.25 151.38,-111 225.88,-111 225.88,-130.25"/>
<text text-anchor="middle" x="188.62" y="-116.75" font-family="Helvetica,sans-Serif" font-size="10.00">icpGetDeltaS</text>
</a>
</g>
</g>
<!-- Node1&#45;&gt;Node3 -->
<g id="edge2" class="edge">
<title>Node1&#45;&gt;Node3</title>
<path fill="none" stroke="#63b8ff" d="M80.12,-93.61C91.6,-96.52 104.18,-99.71 115.75,-102.62 123.73,-104.64 132.21,-106.77 140.44,-108.83"/>
<polygon fill="#63b8ff" stroke="#63b8ff" points="139.5,-112.45 150.05,-111.49 141.21,-105.66 139.5,-112.45"/>
</g>
<!-- Node12 -->
<g id="node12" class="node">
<title>Node12</title>
<g id="a_node12"><a xlink:href="icp_core_8c.html#ac384ca6737fdee325d58740d665eda0a" target="_top" xlink:title=" ">
<polygon fill="white" stroke="#666666" points="225.88,-93.25 151.38,-93.25 151.38,-74 225.88,-74 225.88,-93.25"/>
<text text-anchor="middle" x="188.62" y="-79.75" font-family="Helvetica,sans-Serif" font-size="10.00">icpGetJ_U_S</text>
</a>
</g>
</g>
<!-- Node1&#45;&gt;Node12 -->
<g id="edge15" class="edge">
<title>Node1&#45;&gt;Node12</title>
<path fill="none" stroke="#63b8ff" d="M80.2,-83.62C98.74,-83.62 121.01,-83.62 140.45,-83.62"/>
<polygon fill="#63b8ff" stroke="#63b8ff" points="140.21,-87.13 150.21,-83.62 140.21,-80.13 140.21,-87.13"/>
</g>
<!-- Node13 -->
<g id="node13" class="node">
<title>Node13</title>
<g id="a_node13"><a xlink:href="icp_core_8c.html#aceeb3fd72a762c2078d8fb88ec03ccfb" target="_top" xlink:title=" ">
<polygon fill="white" stroke="#666666" points="261.5,-56.25 115.75,-56.25 115.75,-37 261.5,-37 261.5,-56.25"/>
<text text-anchor="middle" x="188.62" y="-42.75" font-family="Helvetica,sans-Serif" font-size="10.00">icpGetU_from_X_by_MatX2U</text>
</a>
</g>
</g>
<!-- Node1&#45;&gt;Node13 -->
<g id="edge16" class="edge">
<title>Node1&#45;&gt;Node13</title>
<path fill="none" stroke="#63b8ff" d="M80.12,-73.64C91.6,-70.73 104.18,-67.54 115.75,-64.62 122.62,-62.89 129.87,-61.07 137,-59.28"/>
<polygon fill="#63b8ff" stroke="#63b8ff" points="137.48,-62.52 146.32,-56.69 135.77,-55.73 137.48,-62.52"/>
</g>
<!-- Node14 -->
<g id="node14" class="node">
<title>Node14</title>
<g id="a_node14"><a xlink:href="icp_core_8c.html#a94201124387610a46b975cdb9d8a1db6" target="_top" xlink:title=" ">
<polygon fill="white" stroke="#666666" points="227,-19.25 150.25,-19.25 150.25,0 227,0 227,-19.25"/>
<text text-anchor="middle" x="188.62" y="-5.75" font-family="Helvetica,sans-Serif" font-size="10.00">icpUpdateMat</text>
</a>
</g>
</g>
<!-- Node1&#45;&gt;Node14 -->
<g id="edge17" class="edge">
<title>Node1&#45;&gt;Node14</title>
<path fill="none" stroke="#63b8ff" d="M51.15,-73.8C64.82,-61.26 90.24,-39.75 115.75,-27.62 123.18,-24.09 131.39,-21.2 139.52,-18.85"/>
<polygon fill="#63b8ff" stroke="#63b8ff" points="140.31,-22 149.09,-16.07 138.52,-15.23 140.31,-22"/>
</g>
<!-- Node4 -->
<g id="node4" class="node">
<title>Node4</title>
<g id="a_node4"><a xlink:href="m_alloc_mul_8c.html#a8e99293b68c38ce8a8d1920884d69f73" target="_top" xlink:title=" ">
<polygon fill="white" stroke="#666666" points="390.75,-149.25 302,-149.25 302,-130 390.75,-130 390.75,-149.25"/>
<text text-anchor="middle" x="346.38" y="-135.75" font-family="Helvetica,sans-Serif" font-size="10.00">arMatrixAllocMul</text>
</a>
</g>
</g>
<!-- Node3&#45;&gt;Node4 -->
<g id="edge3" class="edge">
<title>Node3&#45;&gt;Node4</title>
<path fill="none" stroke="#63b8ff" d="M226.14,-125.08C245.36,-127.42 269.31,-130.35 290.7,-132.95"/>
<polygon fill="#63b8ff" stroke="#63b8ff" points="290.26,-136.55 300.61,-134.29 291.1,-129.6 290.26,-136.55"/>
</g>
<!-- Node6 -->
<g id="node6" class="node">
<title>Node6</title>
<g id="a_node6"><a xlink:href="m_free_8c.html#ac4b7a714cce9fffda773d86363380454" target="_top" xlink:title=" ">
<polygon fill="white" stroke="#666666" points="504.62,-187.25 433.88,-187.25 433.88,-168 504.62,-168 504.62,-187.25"/>
<text text-anchor="middle" x="469.25" y="-173.75" font-family="Helvetica,sans-Serif" font-size="10.00">arMatrixFree</text>
</a>
</g>
</g>
<!-- Node3&#45;&gt;Node6 -->
<g id="edge12" class="edge">
<title>Node3&#45;&gt;Node6</title>
<path fill="none" stroke="#63b8ff" d="M226.03,-127.79C237.58,-130.58 250.25,-134.18 261.5,-138.62 278.52,-145.35 280.06,-153.06 297.5,-158.62 338.52,-171.72 387.58,-176.09 422.57,-177.41"/>
<polygon fill="#63b8ff" stroke="#63b8ff" points="422.3,-180.93 432.4,-177.74 422.51,-173.93 422.3,-180.93"/>
</g>
<!-- Node7 -->
<g id="node7" class="node">
<title>Node7</title>
<g id="a_node7"><a xlink:href="m_mul_8c.html#a202bc2db43d563792c99e852ea0b7ba4" target="_top" xlink:title=" ">
<polygon fill="white" stroke="#666666" points="502.75,-112.25 435.75,-112.25 435.75,-93 502.75,-93 502.75,-112.25"/>
<text text-anchor="middle" x="469.25" y="-98.75" font-family="Helvetica,sans-Serif" font-size="10.00">arMatrixMul</text>
</a>
</g>
</g>
<!-- Node3&#45;&gt;Node7 -->
<g id="edge13" class="edge">
<title>Node3&#45;&gt;Node7</title>
<path fill="none" stroke="#63b8ff" d="M226.34,-118.25C277.49,-114.95 370.05,-108.97 424.65,-105.44"/>
<polygon fill="#63b8ff" stroke="#63b8ff" points="424.61,-108.89 434.36,-104.75 424.16,-101.9 424.61,-108.89"/>
</g>
<!-- Node8 -->
<g id="node8" class="node">
<title>Node8</title>
<g id="a_node8"><a xlink:href="m_alloc_trans_8c.html#a4e2bf8cd529487fb1ff4d0bbc52eee1e" target="_top" xlink:title=" ">
<polygon fill="white" stroke="#666666" points="395.25,-225.25 297.5,-225.25 297.5,-206 395.25,-206 395.25,-225.25"/>
<text text-anchor="middle" x="346.38" y="-211.75" font-family="Helvetica,sans-Serif" font-size="10.00">arMatrixAllocTrans</text>
</a>
</g>
</g>
<!-- Node3&#45;&gt;Node8 -->
<g id="edge7" class="edge">
<title>Node3&#45;&gt;Node8</title>
<path fill="none" stroke="#63b8ff" d="M226.16,-124.48C238.21,-127.08 251.17,-131.41 261.5,-138.62 284.84,-154.93 276.08,-172.86 297.5,-191.62 301.22,-194.88 305.46,-197.82 309.84,-200.44"/>
<polygon fill="#63b8ff" stroke="#63b8ff" points="308.06,-203.99 318.53,-205.64 311.37,-197.82 308.06,-203.99"/>
</g>
<!-- Node10 -->
<g id="node10" class="node">
<title>Node10</title>
<g id="a_node10"><a xlink:href="m_disp_8c.html#a60f36997579d355f6030f872faad84a2" target="_top" xlink:title=" ">
<polygon fill="white" stroke="#666666" points="382.12,-73.25 310.62,-73.25 310.62,-54 382.12,-54 382.12,-73.25"/>
<text text-anchor="middle" x="346.38" y="-59.75" font-family="Helvetica,sans-Serif" font-size="10.00">arMatrixDisp</text>
</a>
</g>
</g>
<!-- Node3&#45;&gt;Node10 -->
<g id="edge11" class="edge">
<title>Node3&#45;&gt;Node10</title>
<path fill="none" stroke="#63b8ff" d="M226.22,-112.88C237.65,-110.09 250.22,-106.62 261.5,-102.62 272.01,-98.9 295.78,-87.75 315.34,-78.32"/>
<polygon fill="#63b8ff" stroke="#63b8ff" points="316.62,-81.11 324.09,-73.6 313.57,-74.81 316.62,-81.11"/>
</g>
<!-- Node11 -->
<g id="node11" class="node">
<title>Node11</title>
<g id="a_node11"><a xlink:href="m_self_inv_8c.html#a929738025b539a0c1bbd2f395ad4d981" target="_top" xlink:title=" ">
<polygon fill="white" stroke="#666666" points="387.38,-36.25 305.38,-36.25 305.38,-17 387.38,-17 387.38,-36.25"/>
<text text-anchor="middle" x="346.38" y="-22.75" font-family="Helvetica,sans-Serif" font-size="10.00">arMatrixSelfInv</text>
</a>
</g>
</g>
<!-- Node3&#45;&gt;Node11 -->
<g id="edge14" class="edge">
<title>Node3&#45;&gt;Node11</title>
<path fill="none" stroke="#63b8ff" d="M226.33,-117.01C238.4,-114.43 251.32,-110.06 261.5,-102.62 286.01,-84.74 274.05,-63.88 297.5,-44.62 298.58,-43.74 299.71,-42.89 300.88,-42.08"/>
<polygon fill="#63b8ff" stroke="#63b8ff" points="302.46,-44.64 309.41,-36.64 298.99,-38.56 302.46,-44.64"/>
</g>
<!-- Node5 -->
<g id="node5" class="node">
<title>Node5</title>
<g id="a_node5"><a xlink:href="m_alloc_8c.html#a69c9a974dc5a3963148ebb2c4a80f969" target="_top" xlink:title=" ">
<polygon fill="white" stroke="#666666" points="505.75,-149.25 432.75,-149.25 432.75,-130 505.75,-130 505.75,-149.25"/>
<text text-anchor="middle" x="469.25" y="-135.75" font-family="Helvetica,sans-Serif" font-size="10.00">arMatrixAlloc</text>
</a>
</g>
</g>
<!-- Node4&#45;&gt;Node5 -->
<g id="edge4" class="edge">
<title>Node4&#45;&gt;Node5</title>
<path fill="none" stroke="#63b8ff" d="M391.01,-139.62C401.05,-139.62 411.75,-139.62 421.89,-139.62"/>
<polygon fill="#63b8ff" stroke="#63b8ff" points="421.62,-143.13 431.62,-139.62 421.62,-136.13 421.62,-143.13"/>
</g>
<!-- Node4&#45;&gt;Node6 -->
<g id="edge5" class="edge">
<title>Node4&#45;&gt;Node6</title>
<path fill="none" stroke="#63b8ff" d="M379.45,-149.71C393.77,-154.21 410.84,-159.58 426.17,-164.39"/>
<polygon fill="#63b8ff" stroke="#63b8ff" points="424.86,-167.97 435.44,-167.63 426.95,-161.29 424.86,-167.97"/>
</g>
<!-- Node4&#45;&gt;Node7 -->
<g id="edge6" class="edge">
<title>Node4&#45;&gt;Node7</title>
<path fill="none" stroke="#63b8ff" d="M380.4,-129.51C394.13,-125.31 410.25,-120.38 424.9,-115.89"/>
<polygon fill="#63b8ff" stroke="#63b8ff" points="425.72,-119 434.26,-112.72 423.67,-112.3 425.72,-119"/>
</g>
<!-- Node8&#45;&gt;Node5 -->
<g id="edge8" class="edge">
<title>Node8&#45;&gt;Node5</title>
<path fill="none" stroke="#63b8ff" d="M360.99,-205.61C377.31,-193.79 405.66,-173.81 431.25,-158.62 433.45,-157.32 435.75,-156.01 438.08,-154.73"/>
<polygon fill="#63b8ff" stroke="#63b8ff" points="439.46,-157.42 446.65,-149.64 436.18,-151.24 439.46,-157.42"/>
</g>
<!-- Node8&#45;&gt;Node6 -->
<g id="edge9" class="edge">
<title>Node8&#45;&gt;Node6</title>
<path fill="none" stroke="#63b8ff" d="M379.45,-205.54C393.77,-201.04 410.84,-195.67 426.17,-190.86"/>
<polygon fill="#63b8ff" stroke="#63b8ff" points="426.95,-193.96 435.44,-187.62 424.86,-187.28 426.95,-193.96"/>
</g>
<!-- Node9 -->
<g id="node9" class="node">
<title>Node9</title>
<g id="a_node9"><a xlink:href="m_trans_8c.html#ad3d9712dd27f655902a8a3315e623d85" target="_top" xlink:title=" ">
<polygon fill="white" stroke="#666666" points="507.25,-225.25 431.25,-225.25 431.25,-206 507.25,-206 507.25,-225.25"/>
<text text-anchor="middle" x="469.25" y="-211.75" font-family="Helvetica,sans-Serif" font-size="10.00">arMatrixTrans</text>
</a>
</g>
</g>
<!-- Node8&#45;&gt;Node9 -->
<g id="edge10" class="edge">
<title>Node8&#45;&gt;Node9</title>
<path fill="none" stroke="#63b8ff" d="M395.5,-215.62C403.64,-215.62 412.1,-215.62 420.25,-215.62"/>
<polygon fill="#63b8ff" stroke="#63b8ff" points="420.1,-219.13 430.1,-215.62 420.1,-212.13 420.1,-219.13"/>
</g>
</g>
</svg>
        <g id="navigator" transform="translate(0 0)" fill="#404254">
                <rect fill="#f2f5e9" fill-opacity="0.5" stroke="#606060" stroke-width=".5" x="0" y="0" width="60" height="60"/>
                <use id="zoomplus" xlink:href="#zoomPlus" x="17" y="9" onmousedown="handleZoom(evt,'in')"/>
                <use id="zoomminus" xlink:href="#zoomMin" x="42" y="9" onmousedown="handleZoom(evt,'out')"/>
                <use id="reset" xlink:href="#resetDef" x="30" y="36" onmousedown="handleReset()"/>
                <g id="arrowUp" xlink:href="#dirArrow" transform="translate(30 24)" onmousedown="handlePan(0,-1)">
                  <use xlink:href="#rim" fill="#404040">
                        <set attributeName="fill" to="#808080" begin="arrowUp.mouseover" end="arrowUp.mouseout"/>
                  </use>
                  <path fill="none" stroke="white" stroke-width="1.5" d="M0,-3.0v7 M-2.5,-0.5L0,-3.0L2.5,-0.5"/>
                </g>
                <g id="arrowRight" xlink:href="#dirArrow" transform="rotate(90) translate(36 -43)" onmousedown="handlePan(1,0)">
                  <use xlink:href="#rim" fill="#404040">
                        <set attributeName="fill" to="#808080" begin="arrowRight.mouseover" end="arrowRight.mouseout"/>
                  </use>
                  <path fill="none" stroke="white" stroke-width="1.5" d="M0,-3.0v7 M-2.5,-0.5L0,-3.0L2.5,-0.5"/>
                </g>
                <g id="arrowDown" xlink:href="#dirArrow" transform="rotate(180) translate(-30 -48)" onmousedown="handlePan(0,1)">
                  <use xlink:href="#rim" fill="#404040">
                        <set attributeName="fill" to="#808080" begin="arrowDown.mouseover" end="arrowDown.mouseout"/>
                  </use>
                  <path fill="none" stroke="white" stroke-width="1.5" d="M0,-3.0v7 M-2.5,-0.5L0,-3.0L2.5,-0.5"/>
                </g>
                <g id="arrowLeft" xlink:href="#dirArrow" transform="rotate(270) translate(-36 17)" onmousedown="handlePan(-1,0)">
                  <use xlink:href="#rim" fill="#404040">
                        <set attributeName="fill" to="#808080" begin="arrowLeft.mouseover" end="arrowLeft.mouseout"/>
                  </use>
                  <path fill="none" stroke="white" stroke-width="1.5" d="M0,-3.0v7 M-2.5,-0.5L0,-3.0L2.5,-0.5"/>
                </g>
        </g>
        <svg viewBox="0 0 15 15" width="100%" height="30px" preserveAspectRatio="xMaxYMin meet">
         <g id="arrow_out" transform="scale(0.3 0.3)">
          <a xlink:href="icp_8h_afa05ec4cb1c2537d535521e4ee42c5ac_cgraph_org.svg" target="_base">
           <rect id="button" ry="5" rx="5" y="6" x="6" height="38" width="38"
                fill="#f2f5e9" fill-opacity="0.5" stroke="#606060" stroke-width="1.0"/>
           <path id="arrow"
             d="M 11.500037,31.436501 C 11.940474,20.09759 22.043105,11.32322 32.158766,21.979434 L 37.068811,17.246167 C 37.068811,17.246167 37.088388,32 37.088388,32 L 22.160133,31.978069 C 22.160133,31.978069 26.997745,27.140456 26.997745,27.140456 C 18.528582,18.264221 13.291696,25.230495 11.500037,31.436501 z"
             style="fill:#404040;"/>
          </a>
         </g>
        </svg>
</svg>
