<?xml version="1.0" encoding="UTF-8" standalone="no"?>
<!DOCTYPE svg PUBLIC "-//W3C//DTD SVG 1.1//EN"
 "http://www.w3.org/Graphics/SVG/1.1/DTD/svg11.dtd">
<!-- Generated by graphviz version 2.40.1 (20161225.0304)
 -->
<!-- Title: /Users/phil/r/artoolkitx/Source/ARX/AR/include/ARX/AR/icp.h Pages: 1 -->
<svg width="170pt" height="102pt"
 viewBox="0.00 0.00 170.14 102.00" xmlns="http://www.w3.org/2000/svg" xmlns:xlink="http://www.w3.org/1999/xlink">
<g id="graph0" class="graph" transform="scale(1 1) rotate(0) translate(4 98)">
<title>/Users/phil/r/artoolkitx/Source/ARX/AR/include/ARX/AR/icp.h</title>
<polygon fill="#ffffff" stroke="transparent" points="-4,4 -4,-98 166.1353,-98 166.1353,4 -4,4"/>
<!-- Node0 -->
<g id="node1" class="node">
<title>Node0</title>
<polygon fill="#bfbfbf" stroke="#000000" points="5.2612,-55.5 5.2612,-93.5 130.2017,-93.5 130.2017,-55.5 5.2612,-55.5"/>
<text text-anchor="start" x="13.2612" y="-81.5" font-family="Helvetica,sans-Serif" font-size="10.00" fill="#000000">/Users/phil/r/artoolkitx</text>
<text text-anchor="start" x="13.2612" y="-71.5" font-family="Helvetica,sans-Serif" font-size="10.00" fill="#000000">/Source/ARX/AR/include</text>
<text text-anchor="middle" x="67.7314" y="-61.5" font-family="Helvetica,sans-Serif" font-size="10.00" fill="#000000">/ARX/AR/icp.h</text>
</g>
<!-- Node1 -->
<g id="node2" class="node">
<title>Node1</title>
<polygon fill="#ffffff" stroke="#bfbfbf" points="0,-.5 0,-18.5 45.4629,-18.5 45.4629,-.5 0,-.5"/>
<text text-anchor="middle" x="22.7314" y="-6.5" font-family="Helvetica,sans-Serif" font-size="10.00" fill="#000000">stdio.h</text>
</g>
<!-- Node0&#45;&gt;Node1 -->
<g id="edge1" class="edge">
<title>Node0&#45;&gt;Node1</title>
<path fill="none" stroke="#191970" d="M54.4734,-55.3494C48.2391,-46.3443 40.859,-35.6843 34.7847,-26.9102"/>
<polygon fill="#191970" stroke="#191970" points="37.5998,-24.8275 29.03,-18.5978 31.8444,-28.812 37.5998,-24.8275"/>
</g>
<!-- Node2 -->
<g id="node3" class="node">
<title>Node2</title>
<g id="a_node3"><a xlink:href="icp_core_8h.html" target="_top" xlink:title="ARX/AR/icpCore.h">
<polygon fill="#ffffff" stroke="#000000" points="63.3276,-.5 63.3276,-18.5 162.1353,-18.5 162.1353,-.5 63.3276,-.5"/>
<text text-anchor="middle" x="112.7314" y="-6.5" font-family="Helvetica,sans-Serif" font-size="10.00" fill="#000000">ARX/AR/icpCore.h</text>
</a>
</g>
</g>
<!-- Node0&#45;&gt;Node2 -->
<g id="edge2" class="edge">
<title>Node0&#45;&gt;Node2</title>
<path fill="none" stroke="#191970" d="M80.9895,-55.3494C87.2238,-46.3443 94.6039,-35.6843 100.6782,-26.9102"/>
<polygon fill="#191970" stroke="#191970" points="103.6185,-28.812 106.4329,-18.5978 97.8631,-24.8275 103.6185,-28.812"/>
</g>
</g>
</svg>
