<?xml version="1.0" encoding="UTF-8" standalone="no"?>
<!DOCTYPE svg PUBLIC "-//W3C//DTD SVG 1.1//EN"
 "http://www.w3.org/Graphics/SVG/1.1/DTD/svg11.dtd">
<!-- Generated by graphviz version 7.0.5 (20221223.1930)
 -->
<!-- Title: Source/ARX/ARUtil/image_utils.cpp Pages: 1 -->
<svg width="553pt" height="159pt"
 viewBox="0.00 0.00 553.00 159.00" xmlns="http://www.w3.org/2000/svg" xmlns:xlink="http://www.w3.org/1999/xlink">
<g id="graph0" class="graph" transform="scale(1 1) rotate(0) translate(4 155)">
<title>Source/ARX/ARUtil/image_utils.cpp</title>
<!-- Node1 -->
<g id="node1" class="node">
<title>Node1</title>
<g id="a_node1"><a xlink:title=" ">
<polygon fill="#999999" stroke="#666666" points="378.5,-151 245.5,-151 245.5,-121 378.5,-121 378.5,-151"/>
<text text-anchor="start" x="253.5" y="-139" font-family="Helvetica,sans-Serif" font-size="10.00">Source/ARX/ARUtil/image</text>
<text text-anchor="middle" x="312" y="-128" font-family="Helvetica,sans-Serif" font-size="10.00">_utils.cpp</text>
</a>
</g>
</g>
<!-- Node2 -->
<g id="node2" class="node">
<title>Node2</title>
<g id="a_node2"><a xlink:href="image__utils_8h.html" target="_top" xlink:title=" ">
<polygon fill="white" stroke="#666666" points="241.5,-79.5 110.5,-79.5 110.5,-60.5 241.5,-60.5 241.5,-79.5"/>
<text text-anchor="middle" x="176" y="-67.5" font-family="Helvetica,sans-Serif" font-size="10.00">ARX/ARUtil/image_utils.h</text>
</a>
</g>
</g>
<!-- Node1&#45;&gt;Node2 -->
<g id="edge1" class="edge">
<title>Node1&#45;&gt;Node2</title>
<path fill="none" stroke="#63b8ff" d="M281.48,-120.64C258.73,-109.93 227.84,-95.4 205.38,-84.82"/>
<polygon fill="#63b8ff" stroke="#63b8ff" points="207,-81.72 196.46,-80.63 204.02,-88.06 207,-81.72"/>
</g>
<!-- Node5 -->
<g id="node5" class="node">
<title>Node5</title>
<g id="a_node5"><a xlink:title=" ">
<polygon fill="#e0e0e0" stroke="#999999" points="299,-19 247,-19 247,0 299,0 299,-19"/>
<text text-anchor="middle" x="273" y="-7" font-family="Helvetica,sans-Serif" font-size="10.00">memory</text>
</a>
</g>
</g>
<!-- Node1&#45;&gt;Node5 -->
<g id="edge6" class="edge">
<title>Node1&#45;&gt;Node5</title>
<path fill="none" stroke="#63b8ff" d="M304.91,-120.84C300.18,-110.98 294.11,-97.43 290,-85 284.01,-66.89 279.39,-45.63 276.48,-30.47"/>
<polygon fill="#63b8ff" stroke="#63b8ff" points="279.97,-30.06 274.73,-20.85 273.08,-31.32 279.97,-30.06"/>
</g>
<!-- Node7 -->
<g id="node7" class="node">
<title>Node7</title>
<g id="a_node7"><a xlink:title=" ">
<polygon fill="#e0e0e0" stroke="#999999" points="409,-85 299,-85 299,-55 409,-55 409,-85"/>
<text text-anchor="start" x="307" y="-73" font-family="Helvetica,sans-Serif" font-size="10.00">stb_image/stb_image</text>
<text text-anchor="middle" x="354" y="-62" font-family="Helvetica,sans-Serif" font-size="10.00">_write.h</text>
</a>
</g>
</g>
<!-- Node1&#45;&gt;Node7 -->
<g id="edge7" class="edge">
<title>Node1&#45;&gt;Node7</title>
<path fill="none" stroke="#63b8ff" d="M321.32,-120.8C326.38,-113.09 332.76,-103.37 338.54,-94.56"/>
<polygon fill="#63b8ff" stroke="#63b8ff" points="341.31,-96.71 343.87,-86.43 335.46,-92.87 341.31,-96.71"/>
</g>
<!-- Node8 -->
<g id="node8" class="node">
<title>Node8</title>
<g id="a_node8"><a xlink:title=" ">
<polygon fill="#e0e0e0" stroke="#999999" points="545,-79.5 427,-79.5 427,-60.5 545,-60.5 545,-79.5"/>
<text text-anchor="middle" x="486" y="-67.5" font-family="Helvetica,sans-Serif" font-size="10.00">stb_image/stb_image.h</text>
</a>
</g>
</g>
<!-- Node1&#45;&gt;Node8 -->
<g id="edge8" class="edge">
<title>Node1&#45;&gt;Node8</title>
<path fill="none" stroke="#63b8ff" d="M351.05,-120.64C381.08,-109.59 422.19,-94.47 451.13,-83.83"/>
<polygon fill="#63b8ff" stroke="#63b8ff" points="451.97,-87.25 460.15,-80.51 449.56,-80.68 451.97,-87.25"/>
</g>
<!-- Node3 -->
<g id="node3" class="node">
<title>Node3</title>
<g id="a_node3"><a xlink:title=" ">
<polygon fill="#e0e0e0" stroke="#999999" points="46,-19 0,-19 0,0 46,0 46,-19"/>
<text text-anchor="middle" x="23" y="-7" font-family="Helvetica,sans-Serif" font-size="10.00">stdio.h</text>
</a>
</g>
</g>
<!-- Node2&#45;&gt;Node3 -->
<g id="edge2" class="edge">
<title>Node2&#45;&gt;Node3</title>
<path fill="none" stroke="#63b8ff" d="M152.76,-60.12C127.26,-50.37 86.09,-34.62 56.97,-23.49"/>
<polygon fill="#63b8ff" stroke="#63b8ff" points="58.46,-20.31 47.87,-20.01 55.96,-26.85 58.46,-20.31"/>
</g>
<!-- Node4 -->
<g id="node4" class="node">
<title>Node4</title>
<g id="a_node4"><a xlink:title=" ">
<polygon fill="#e0e0e0" stroke="#999999" points="105.5,-19 64.5,-19 64.5,0 105.5,0 105.5,-19"/>
<text text-anchor="middle" x="85" y="-7" font-family="Helvetica,sans-Serif" font-size="10.00">string</text>
</a>
</g>
</g>
<!-- Node2&#45;&gt;Node4 -->
<g id="edge3" class="edge">
<title>Node2&#45;&gt;Node4</title>
<path fill="none" stroke="#63b8ff" d="M162.18,-60.12C147.88,-50.92 125.3,-36.41 108.25,-25.44"/>
<polygon fill="#63b8ff" stroke="#63b8ff" points="110.53,-22.75 100.22,-20.29 106.74,-28.64 110.53,-22.75"/>
</g>
<!-- Node2&#45;&gt;Node5 -->
<g id="edge4" class="edge">
<title>Node2&#45;&gt;Node5</title>
<path fill="none" stroke="#63b8ff" d="M190.73,-60.12C206.04,-50.88 230.27,-36.27 248.47,-25.29"/>
<polygon fill="#63b8ff" stroke="#63b8ff" points="250.08,-28.41 256.83,-20.25 246.46,-22.42 250.08,-28.41"/>
</g>
<!-- Node6 -->
<g id="node6" class="node">
<title>Node6</title>
<g id="a_node6"><a xlink:href="types_8h.html" target="_top" xlink:title=" ">
<polygon fill="white" stroke="#666666" points="228.5,-19 123.5,-19 123.5,0 228.5,0 228.5,-19"/>
<text text-anchor="middle" x="176" y="-7" font-family="Helvetica,sans-Serif" font-size="10.00">ARX/ARUtil/types.h</text>
</a>
</g>
</g>
<!-- Node2&#45;&gt;Node6 -->
<g id="edge5" class="edge">
<title>Node2&#45;&gt;Node6</title>
<path fill="none" stroke="#63b8ff" d="M176,-60.37C176,-52.5 176,-40.6 176,-30.39"/>
<polygon fill="#63b8ff" stroke="#63b8ff" points="179.5,-30.68 176,-20.68 172.5,-30.68 179.5,-30.68"/>
</g>
</g>
</svg>
