<?xml version="1.0" encoding="UTF-8" standalone="no"?>
<!DOCTYPE svg PUBLIC "-//W3C//DTD SVG 1.1//EN"
 "http://www.w3.org/Graphics/SVG/1.1/DTD/svg11.dtd">
<!-- Generated by graphviz version 2.40.1 (20161225.0304)
 -->
<!-- Title: Source/ARX/ARUtil/image_utils.cpp Pages: 1 -->
<!--zoomable 157 -->
<svg id="main" version="1.1" xmlns="http://www.w3.org/2000/svg" xmlns:xlink="http://www.w3.org/1999/xlink" xml:space="preserve" onload="init(evt)">
<style type="text/css"><![CDATA[
.edge:hover path { stroke: red; }
.edge:hover polygon { stroke: red; fill: red; }
]]></style>
<script type="text/javascript"><![CDATA[
var edges = document.getElementsByTagName('g');
if (edges && edges.length) {
  for (var i=0;i<edges.length;i++) {
    if (edges[i].id.substr(0,4)=='edge') {
      edges[i].setAttribute('class','edge');
    }
  }
}
]]></script>
        <defs>
                <circle id="rim" cx="0" cy="0" r="7"/>
                <circle id="rim2" cx="0" cy="0" r="3.5"/>
                <g id="zoomPlus">
                        <use xlink:href="#rim" fill="#404040">
                                <set attributeName="fill" to="#808080" begin="zoomplus.mouseover" end="zoomplus.mouseout"/>
                        </use>
                        <path d="M-4,0h8M0,-4v8" fill="none" stroke="white" stroke-width="1.5" pointer-events="none"/>
                </g>
                <g id="zoomMin">
                        <use xlink:href="#rim" fill="#404040">
                                <set attributeName="fill" to="#808080" begin="zoomminus.mouseover" end="zoomminus.mouseout"/>
                        </use>
                        <path d="M-4,0h8" fill="none" stroke="white" stroke-width="1.5" pointer-events="none"/>
                </g>
                <g id="dirArrow">
                        <path fill="none" stroke="white" stroke-width="1.5" d="M0,-3.0v7 M-2.5,-0.5L0,-3.0L2.5,-0.5"/>
                </g>
               <g id="resetDef">
                       <use xlink:href="#rim2" fill="#404040">
                               <set attributeName="fill" to="#808080" begin="reset.mouseover" end="reset.mouseout"/>
                       </use>
               </g>
        </defs>

<script type="text/javascript">
var viewWidth = 552;
var viewHeight = 157;
var sectionId = 'dynsection-0';
</script>
<script xlink:href="svgpan.js"/>
<svg id="graph" class="graph">
<g id="viewport">
<title>Source/ARX/ARUtil/image_utils.cpp</title>
<polygon fill="#ffffff" stroke="transparent" points="-4,4 -4,-153 548.4282,-153 548.4282,4 -4,4"/>
<!-- Node0 -->
<g id="node1" class="node">
<title>Node0</title>
<polygon fill="#bfbfbf" stroke="#000000" points="243.6553,-120.5 243.6553,-148.5 375.8076,-148.5 375.8076,-120.5 243.6553,-120.5"/>
<text text-anchor="start" x="251.6553" y="-136.5" font-family="Helvetica,sans-Serif" font-size="10.00" fill="#000000">Source/ARX/ARUtil/image</text>
<text text-anchor="middle" x="309.7314" y="-126.5" font-family="Helvetica,sans-Serif" font-size="10.00" fill="#000000">_utils.cpp</text>
</g>
<!-- Node1 -->
<g id="node2" class="node">
<title>Node1</title>
<g id="a_node2"><a xlink:href="image__utils_8h.html" target="_top" xlink:title="ARX/ARUtil/image_utils.h">
<polygon fill="#ffffff" stroke="#000000" points="109.0444,-60.5 109.0444,-78.5 238.4185,-78.5 238.4185,-60.5 109.0444,-60.5"/>
<text text-anchor="middle" x="173.7314" y="-66.5" font-family="Helvetica,sans-Serif" font-size="10.00" fill="#000000">ARX/ARUtil/image_utils.h</text>
</a>
</g>
</g>
<!-- Node0&#45;&gt;Node1 -->
<g id="edge1" class="edge">
<title>Node0&#45;&gt;Node1</title>
<path fill="none" stroke="#191970" d="M280.2215,-120.396C256.98,-109.2879 224.794,-93.9049 201.9049,-82.9653"/>
<polygon fill="#191970" stroke="#191970" points="203.2495,-79.7287 192.7177,-78.5743 200.2309,-86.0444 203.2495,-79.7287"/>
</g>
<!-- Node4 -->
<g id="node5" class="node">
<title>Node4</title>
<polygon fill="#ffffff" stroke="#bfbfbf" points="242.6748,-.5 242.6748,-18.5 294.7881,-18.5 294.7881,-.5 242.6748,-.5"/>
<text text-anchor="middle" x="268.7314" y="-6.5" font-family="Helvetica,sans-Serif" font-size="10.00" fill="#000000">memory</text>
</g>
<!-- Node0&#45;&gt;Node4 -->
<g id="edge6" class="edge">
<title>Node0&#45;&gt;Node4</title>
<path fill="none" stroke="#191970" d="M302.3401,-120.2135C297.4122,-110.2606 291.0674,-96.5678 286.7314,-84 280.4375,-65.7571 275.4978,-44.2733 272.3979,-29.0759"/>
<polygon fill="#191970" stroke="#191970" points="275.7497,-27.9791 270.3941,-18.8375 268.8801,-29.3236 275.7497,-27.9791"/>
</g>
<!-- Node6 -->
<g id="node7" class="node">
<title>Node6</title>
<polygon fill="#ffffff" stroke="#bfbfbf" points="296.2046,-55.5 296.2046,-83.5 407.2583,-83.5 407.2583,-55.5 296.2046,-55.5"/>
<text text-anchor="start" x="304.2046" y="-71.5" font-family="Helvetica,sans-Serif" font-size="10.00" fill="#000000">stb_image/stb_image</text>
<text text-anchor="middle" x="351.7314" y="-61.5" font-family="Helvetica,sans-Serif" font-size="10.00" fill="#000000">_write.h</text>
</g>
<!-- Node0&#45;&gt;Node6 -->
<g id="edge7" class="edge">
<title>Node0&#45;&gt;Node6</title>
<path fill="none" stroke="#191970" d="M318.8448,-120.396C324.1835,-112.1338 331.0503,-101.5065 337.1272,-92.1017"/>
<polygon fill="#191970" stroke="#191970" points="340.1484,-93.8752 342.6359,-83.5765 334.2689,-90.0762 340.1484,-93.8752"/>
</g>
<!-- Node7 -->
<g id="node8" class="node">
<title>Node7</title>
<polygon fill="#ffffff" stroke="#bfbfbf" points="425.0347,-60.5 425.0347,-78.5 544.4282,-78.5 544.4282,-60.5 425.0347,-60.5"/>
<text text-anchor="middle" x="484.7314" y="-66.5" font-family="Helvetica,sans-Serif" font-size="10.00" fill="#000000">stb_image/stb_image.h</text>
</g>
<!-- Node0&#45;&gt;Node7 -->
<g id="edge8" class="edge">
<title>Node0&#45;&gt;Node7</title>
<path fill="none" stroke="#191970" d="M347.7038,-120.396C378.4111,-108.9904 421.2528,-93.0778 450.8194,-82.0959"/>
<polygon fill="#191970" stroke="#191970" points="452.145,-85.3372 460.3006,-78.5743 449.7077,-78.7752 452.145,-85.3372"/>
</g>
<!-- Node2 -->
<g id="node3" class="node">
<title>Node2</title>
<polygon fill="#ffffff" stroke="#bfbfbf" points="0,-.5 0,-18.5 45.4629,-18.5 45.4629,-.5 0,-.5"/>
<text text-anchor="middle" x="22.7314" y="-6.5" font-family="Helvetica,sans-Serif" font-size="10.00" fill="#000000">stdio.h</text>
</g>
<!-- Node1&#45;&gt;Node2 -->
<g id="edge2" class="edge">
<title>Node1&#45;&gt;Node2</title>
<path fill="none" stroke="#191970" d="M150.7978,-60.3873C125.2623,-50.2407 83.8004,-33.7658 54.9988,-22.3215"/>
<polygon fill="#191970" stroke="#191970" points="55.9719,-18.942 45.3862,-18.5019 53.3869,-25.4472 55.9719,-18.942"/>
</g>
<!-- Node3 -->
<g id="node4" class="node">
<title>Node3</title>
<polygon fill="#ffffff" stroke="#bfbfbf" points="63.5049,-.5 63.5049,-18.5 103.958,-18.5 103.958,-.5 63.5049,-.5"/>
<text text-anchor="middle" x="83.7314" y="-6.5" font-family="Helvetica,sans-Serif" font-size="10.00" fill="#000000">string</text>
</g>
<!-- Node1&#45;&gt;Node3 -->
<g id="edge3" class="edge">
<title>Node1&#45;&gt;Node3</title>
<path fill="none" stroke="#191970" d="M160.0624,-60.3873C145.7066,-50.8168 122.9054,-35.6159 105.957,-24.3171"/>
<polygon fill="#191970" stroke="#191970" points="107.4962,-21.1367 97.2343,-18.5019 103.6133,-26.9611 107.4962,-21.1367"/>
</g>
<!-- Node1&#45;&gt;Node4 -->
<g id="edge4" class="edge">
<title>Node1&#45;&gt;Node4</title>
<path fill="none" stroke="#191970" d="M188.1599,-60.3873C203.4536,-50.7281 227.8277,-35.334 245.7664,-24.0042"/>
<polygon fill="#191970" stroke="#191970" points="247.8926,-26.8011 254.4785,-18.5019 244.1546,-20.8826 247.8926,-26.8011"/>
</g>
<!-- Node5 -->
<g id="node6" class="node">
<title>Node5</title>
<g id="a_node6"><a xlink:href="types_8h.html" target="_top" xlink:title="ARX/ARUtil/types.h">
<polygon fill="#ffffff" stroke="#000000" points="122.3843,-.5 122.3843,-18.5 225.0786,-18.5 225.0786,-.5 122.3843,-.5"/>
<text text-anchor="middle" x="173.7314" y="-6.5" font-family="Helvetica,sans-Serif" font-size="10.00" fill="#000000">ARX/ARUtil/types.h</text>
</a>
</g>
</g>
<!-- Node1&#45;&gt;Node5 -->
<g id="edge5" class="edge">
<title>Node1&#45;&gt;Node5</title>
<path fill="none" stroke="#191970" d="M173.7314,-60.3873C173.7314,-52.0174 173.7314,-39.3414 173.7314,-28.735"/>
<polygon fill="#191970" stroke="#191970" points="177.2315,-28.6984 173.7314,-18.6985 170.2315,-28.6985 177.2315,-28.6984"/>
</g>
</g>
</svg>
        <g id="navigator" transform="translate(0 0)" fill="#404254">
                <rect fill="#f2f5e9" fill-opacity="0.5" stroke="#606060" stroke-width=".5" x="0" y="0" width="60" height="60"/>
                <use id="zoomplus" xlink:href="#zoomPlus" x="17" y="9" onmousedown="handleZoom(evt,'in')"/>
                <use id="zoomminus" xlink:href="#zoomMin" x="42" y="9" onmousedown="handleZoom(evt,'out')"/>
                <use id="reset" xlink:href="#resetDef" x="30" y="36" onmousedown="handleReset()"/>
                <g id="arrowUp" xlink:href="#dirArrow" transform="translate(30 24)" onmousedown="handlePan(0,-1)">
                  <use xlink:href="#rim" fill="#404040">
                        <set attributeName="fill" to="#808080" begin="arrowUp.mouseover" end="arrowUp.mouseout"/>
                  </use>
                  <path fill="none" stroke="white" stroke-width="1.5" d="M0,-3.0v7 M-2.5,-0.5L0,-3.0L2.5,-0.5"/>
                </g>
                <g id="arrowRight" xlink:href="#dirArrow" transform="rotate(90) translate(36 -43)" onmousedown="handlePan(1,0)">
                  <use xlink:href="#rim" fill="#404040">
                        <set attributeName="fill" to="#808080" begin="arrowRight.mouseover" end="arrowRight.mouseout"/>
                  </use>
                  <path fill="none" stroke="white" stroke-width="1.5" d="M0,-3.0v7 M-2.5,-0.5L0,-3.0L2.5,-0.5"/>
                </g>
                <g id="arrowDown" xlink:href="#dirArrow" transform="rotate(180) translate(-30 -48)" onmousedown="handlePan(0,1)">
                  <use xlink:href="#rim" fill="#404040">
                        <set attributeName="fill" to="#808080" begin="arrowDown.mouseover" end="arrowDown.mouseout"/>
                  </use>
                  <path fill="none" stroke="white" stroke-width="1.5" d="M0,-3.0v7 M-2.5,-0.5L0,-3.0L2.5,-0.5"/>
                </g>
                <g id="arrowLeft" xlink:href="#dirArrow" transform="rotate(270) translate(-36 17)" onmousedown="handlePan(-1,0)">
                  <use xlink:href="#rim" fill="#404040">
                        <set attributeName="fill" to="#808080" begin="arrowLeft.mouseover" end="arrowLeft.mouseout"/>
                  </use>
                  <path fill="none" stroke="white" stroke-width="1.5" d="M0,-3.0v7 M-2.5,-0.5L0,-3.0L2.5,-0.5"/>
                </g>
        </g>
        <svg viewBox="0 0 15 15" width="100%" height="30px" preserveAspectRatio="xMaxYMin meet">
         <g id="arrow_out" transform="scale(0.3 0.3)">
          <a xlink:href="image__utils_8cpp__incl_org.svg" target="_base">
           <rect id="button" ry="5" rx="5" y="6" x="6" height="38" width="38"
                fill="#f2f5e9" fill-opacity="0.5" stroke="#606060" stroke-width="1.0"/>
           <path id="arrow"
             d="M 11.500037,31.436501 C 11.940474,20.09759 22.043105,11.32322 32.158766,21.979434 L 37.068811,17.246167 C 37.068811,17.246167 37.088388,32 37.088388,32 L 22.160133,31.978069 C 22.160133,31.978069 26.997745,27.140456 26.997745,27.140456 C 18.528582,18.264221 13.291696,25.230495 11.500037,31.436501 z"
             style="fill:#404040;"/>
          </a>
         </g>
        </svg>
</svg>
