<?xml version="1.0" encoding="UTF-8" standalone="no"?>
<!DOCTYPE svg PUBLIC "-//W3C//DTD SVG 1.1//EN"
 "http://www.w3.org/Graphics/SVG/1.1/DTD/svg11.dtd">
<!-- Generated by graphviz version 2.40.1 (20161225.0304)
 -->
<!-- Title: Source/ARX/AR2/include/ARX/AR2/imageSet.h Pages: 1 -->
<!--zoomable 287 -->
<svg id="main" version="1.1" xmlns="http://www.w3.org/2000/svg" xmlns:xlink="http://www.w3.org/1999/xlink" xml:space="preserve" onload="init(evt)">
<style type="text/css"><![CDATA[
.edge:hover path { stroke: red; }
.edge:hover polygon { stroke: red; fill: red; }
]]></style>
<script type="text/javascript"><![CDATA[
var edges = document.getElementsByTagName('g');
if (edges && edges.length) {
  for (var i=0;i<edges.length;i++) {
    if (edges[i].id.substr(0,4)=='edge') {
      edges[i].setAttribute('class','edge');
    }
  }
}
]]></script>
        <defs>
                <circle id="rim" cx="0" cy="0" r="7"/>
                <circle id="rim2" cx="0" cy="0" r="3.5"/>
                <g id="zoomPlus">
                        <use xlink:href="#rim" fill="#404040">
                                <set attributeName="fill" to="#808080" begin="zoomplus.mouseover" end="zoomplus.mouseout"/>
                        </use>
                        <path d="M-4,0h8M0,-4v8" fill="none" stroke="white" stroke-width="1.5" pointer-events="none"/>
                </g>
                <g id="zoomMin">
                        <use xlink:href="#rim" fill="#404040">
                                <set attributeName="fill" to="#808080" begin="zoomminus.mouseover" end="zoomminus.mouseout"/>
                        </use>
                        <path d="M-4,0h8" fill="none" stroke="white" stroke-width="1.5" pointer-events="none"/>
                </g>
                <g id="dirArrow">
                        <path fill="none" stroke="white" stroke-width="1.5" d="M0,-3.0v7 M-2.5,-0.5L0,-3.0L2.5,-0.5"/>
                </g>
               <g id="resetDef">
                       <use xlink:href="#rim2" fill="#404040">
                               <set attributeName="fill" to="#808080" begin="reset.mouseover" end="reset.mouseout"/>
                       </use>
               </g>
        </defs>

<script type="text/javascript">
var viewWidth = 1330;
var viewHeight = 287;
var sectionId = 'dynsection-1';
</script>
<script xlink:href="svgpan.js"/>
<svg id="graph" class="graph">
<g id="viewport">
<title>Source/ARX/AR2/include/ARX/AR2/imageSet.h</title>
<polygon fill="#ffffff" stroke="transparent" points="-4,4 -4,-283 1326.3427,-283 1326.3427,4 -4,4"/>
<!-- Node19 -->
<g id="node1" class="node">
<title>Node19</title>
<polygon fill="#bfbfbf" stroke="#000000" points="399.5057,-250.5 399.5057,-278.5 527.2294,-278.5 527.2294,-250.5 399.5057,-250.5"/>
<text text-anchor="start" x="407.5057" y="-266.5" font-family="Helvetica,sans-Serif" font-size="10.00" fill="#000000">Source/ARX/AR2/include</text>
<text text-anchor="middle" x="463.3676" y="-256.5" font-family="Helvetica,sans-Serif" font-size="10.00" fill="#000000">/ARX/AR2/imageSet.h</text>
</g>
<!-- Node20 -->
<g id="node2" class="node">
<title>Node20</title>
<g id="a_node2"><a xlink:href="coord_8c.html" target="_top" xlink:title="Source/ARX/AR2/coord.c">
<polygon fill="#ffffff" stroke="#000000" points="36.954,-60.5 36.954,-78.5 165.7811,-78.5 165.7811,-60.5 36.954,-60.5"/>
<text text-anchor="middle" x="101.3676" y="-66.5" font-family="Helvetica,sans-Serif" font-size="10.00" fill="#000000">Source/ARX/AR2/coord.c</text>
</a>
</g>
</g>
<!-- Node19&#45;&gt;Node20 -->
<g id="edge1" class="edge">
<title>Node19&#45;&gt;Node20</title>
<path fill="none" stroke="#191970" d="M389.244,-253.8119C285.2405,-237.1041 104.4158,-201.2128 66.3676,-149 49.8482,-126.3308 75.8098,-94.6353 91.2427,-78.9967"/>
<polygon fill="#191970" stroke="#191970" points="388.9455,-257.3082 399.3702,-255.4171 390.0415,-250.3945 388.9455,-257.3082"/>
</g>
<!-- Node21 -->
<g id="node3" class="node">
<title>Node21</title>
<g id="a_node3"><a xlink:href="image_set_8c.html" target="_top" xlink:title="Source/ARX/AR2/imageSet.c">
<polygon fill="#ffffff" stroke="#000000" points="691.3383,-190.5 691.3383,-208.5 837.3969,-208.5 837.3969,-190.5 691.3383,-190.5"/>
<text text-anchor="middle" x="764.3676" y="-196.5" font-family="Helvetica,sans-Serif" font-size="10.00" fill="#000000">Source/ARX/AR2/imageSet.c</text>
</a>
</g>
</g>
<!-- Node19&#45;&gt;Node21 -->
<g id="edge2" class="edge">
<title>Node19&#45;&gt;Node21</title>
<path fill="none" stroke="#191970" d="M537.4585,-248.5003C595.6923,-235.9249 674.6992,-218.8636 722.4721,-208.5472"/>
<polygon fill="#191970" stroke="#191970" points="536.6063,-245.1036 527.5704,-250.6356 538.0839,-251.9458 536.6063,-245.1036"/>
</g>
<!-- Node22 -->
<g id="node4" class="node">
<title>Node22</title>
<g id="a_node4"><a xlink:href="coord_8h.html" target="_top" xlink:title="Source/ARX/AR2/include\l/ARX/AR2/coord.h">
<polygon fill="#ffffff" stroke="#000000" points="75.5057,-120.5 75.5057,-148.5 203.2294,-148.5 203.2294,-120.5 75.5057,-120.5"/>
<text text-anchor="start" x="83.5057" y="-136.5" font-family="Helvetica,sans-Serif" font-size="10.00" fill="#000000">Source/ARX/AR2/include</text>
<text text-anchor="middle" x="139.3676" y="-126.5" font-family="Helvetica,sans-Serif" font-size="10.00" fill="#000000">/ARX/AR2/coord.h</text>
</a>
</g>
</g>
<!-- Node19&#45;&gt;Node22 -->
<g id="edge3" class="edge">
<title>Node19&#45;&gt;Node22</title>
<path fill="none" stroke="#191970" d="M418.8147,-246.6238C353.7591,-220.5213 234.0727,-172.499 174.6943,-148.6743"/>
<polygon fill="#191970" stroke="#191970" points="417.8019,-249.9886 428.386,-250.4642 420.4086,-243.4921 417.8019,-249.9886"/>
</g>
<!-- Node26 -->
<g id="node8" class="node">
<title>Node26</title>
<g id="a_node8"><a xlink:href="tracking_8c.html" target="_top" xlink:title="Source/ARX/AR2/tracking.c">
<polygon fill="#ffffff" stroke="#000000" points="123.954,-.5 123.954,-18.5 262.7811,-18.5 262.7811,-.5 123.954,-.5"/>
<text text-anchor="middle" x="193.3676" y="-6.5" font-family="Helvetica,sans-Serif" font-size="10.00" fill="#000000">Source/ARX/AR2/tracking.c</text>
</a>
</g>
</g>
<!-- Node19&#45;&gt;Node26 -->
<g id="edge39" class="edge">
<title>Node19&#45;&gt;Node26</title>
<path fill="none" stroke="#191970" d="M389.2418,-257.8623C302.9211,-249.3994 166.068,-233.5 118.3676,-214 73.0281,-195.4651 56.6466,-189.6825 29.3676,-149 5.7659,-113.8018 -12.6691,-88.4371 13.3676,-55 27.1309,-37.3247 79.0148,-25.4296 123.5651,-18.2487"/>
<polygon fill="#191970" stroke="#191970" points="388.9578,-261.3511 399.2488,-258.8323 389.6332,-254.3837 388.9578,-261.3511"/>
</g>
<!-- Node27 -->
<g id="node9" class="node">
<title>Node27</title>
<g id="a_node9"><a xlink:href="feature_set_8h.html" target="_top" xlink:title="Source/ARX/AR2/include\l/ARX/AR2/featureSet.h">
<polygon fill="#ffffff" stroke="#000000" points="507.5057,-185.5 507.5057,-213.5 635.2294,-213.5 635.2294,-185.5 507.5057,-185.5"/>
<text text-anchor="start" x="515.5057" y="-201.5" font-family="Helvetica,sans-Serif" font-size="10.00" fill="#000000">Source/ARX/AR2/include</text>
<text text-anchor="middle" x="571.3676" y="-191.5" font-family="Helvetica,sans-Serif" font-size="10.00" fill="#000000">/ARX/AR2/featureSet.h</text>
</a>
</g>
</g>
<!-- Node19&#45;&gt;Node27 -->
<g id="edge9" class="edge">
<title>Node19&#45;&gt;Node27</title>
<path fill="none" stroke="#191970" d="M495.7424,-245.0151C512.5492,-234.8999 532.7039,-222.7698 547.9789,-213.5765"/>
<polygon fill="#191970" stroke="#191970" points="493.5651,-242.2405 486.802,-250.396 497.1747,-248.2381 493.5651,-242.2405"/>
</g>
<!-- Node32 -->
<g id="node14" class="node">
<title>Node32</title>
<g id="a_node14"><a xlink:href="template_8h.html" target="_top" xlink:title="Source/ARX/AR2/include\l/ARX/AR2/template.h">
<polygon fill="#ffffff" stroke="#000000" points="919.5057,-120.5 919.5057,-148.5 1047.2294,-148.5 1047.2294,-120.5 919.5057,-120.5"/>
<text text-anchor="start" x="927.5057" y="-136.5" font-family="Helvetica,sans-Serif" font-size="10.00" fill="#000000">Source/ARX/AR2/include</text>
<text text-anchor="middle" x="983.3676" y="-126.5" font-family="Helvetica,sans-Serif" font-size="10.00" fill="#000000">/ARX/AR2/template.h</text>
</a>
</g>
</g>
<!-- Node19&#45;&gt;Node32 -->
<g id="edge38" class="edge">
<title>Node19&#45;&gt;Node32</title>
<path fill="none" stroke="#191970" d="M537.3253,-250.5679C571.0692,-242.5451 610.8766,-230.6756 644.3676,-214 663.3857,-204.5306 662.8491,-193.3898 682.3676,-185 774.6021,-145.3541 806.4534,-166.1756 905.3676,-149 909.8459,-148.2224 914.4657,-147.4043 919.1162,-146.5691"/>
<polygon fill="#191970" stroke="#191970" points="536.4774,-247.1716 527.5216,-252.8323 538.0528,-253.992 536.4774,-247.1716"/>
</g>
<!-- Node22&#45;&gt;Node20 -->
<g id="edge4" class="edge">
<title>Node22&#45;&gt;Node20</title>
<path fill="none" stroke="#191970" d="M126.0613,-111.7393C119.3857,-100.3204 111.6768,-87.1342 106.6725,-78.5743"/>
<polygon fill="#191970" stroke="#191970" points="123.0536,-113.5294 131.1221,-120.396 129.0967,-109.9965 123.0536,-113.5294"/>
</g>
<!-- Node23 -->
<g id="node5" class="node">
<title>Node23</title>
<g id="a_node5"><a xlink:href="search_point_8c.html" target="_top" xlink:title="Source/ARX/AR2/searchPoint.c">
<polygon fill="#ffffff" stroke="#000000" points="425.0575,-60.5 425.0575,-78.5 581.6776,-78.5 581.6776,-60.5 425.0575,-60.5"/>
<text text-anchor="middle" x="503.3676" y="-66.5" font-family="Helvetica,sans-Serif" font-size="10.00" fill="#000000">Source/ARX/AR2/searchPoint.c</text>
</a>
</g>
</g>
<!-- Node22&#45;&gt;Node23 -->
<g id="edge5" class="edge">
<title>Node22&#45;&gt;Node23</title>
<path fill="none" stroke="#191970" d="M213.362,-119.8394C301.6665,-103.4922 392.7432,-87.9645 449.1283,-78.5086"/>
<polygon fill="#191970" stroke="#191970" points="212.6376,-116.414 203.4447,-121.681 213.9157,-123.2964 212.6376,-116.414"/>
</g>
<!-- Node24 -->
<g id="node6" class="node">
<title>Node24</title>
<g id="a_node6"><a xlink:href="surface_8c.html" target="_top" xlink:title="Source/ARX/AR2/surface.c">
<polygon fill="#ffffff" stroke="#000000" points="536.0648,-.5 536.0648,-18.5 672.6703,-18.5 672.6703,-.5 536.0648,-.5"/>
<text text-anchor="middle" x="604.3676" y="-6.5" font-family="Helvetica,sans-Serif" font-size="10.00" fill="#000000">Source/ARX/AR2/surface.c</text>
</a>
</g>
</g>
<!-- Node22&#45;&gt;Node24 -->
<g id="edge6" class="edge">
<title>Node22&#45;&gt;Node24</title>
<path fill="none" stroke="#191970" d="M195.9559,-117.5042C251.8031,-100.9098 339.7091,-75.2675 416.3676,-55 467.501,-41.481 526.8768,-27.3743 564.9984,-18.5202"/>
<polygon fill="#191970" stroke="#191970" points="194.8386,-114.185 186.2526,-120.3923 196.8355,-120.8941 194.8386,-114.185"/>
</g>
<!-- Node25 -->
<g id="node7" class="node">
<title>Node25</title>
<g id="a_node7"><a xlink:href="template_8c.html" target="_top" xlink:title="Source/ARX/AR2/template.c">
<polygon fill="#ffffff" stroke="#000000" points="351.2841,-.5 351.2841,-18.5 493.4511,-18.5 493.4511,-.5 351.2841,-.5"/>
<text text-anchor="middle" x="422.3676" y="-6.5" font-family="Helvetica,sans-Serif" font-size="10.00" fill="#000000">Source/ARX/AR2/template.c</text>
</a>
</g>
</g>
<!-- Node22&#45;&gt;Node25 -->
<g id="edge7" class="edge">
<title>Node22&#45;&gt;Node25</title>
<path fill="none" stroke="#191970" d="M180.6807,-116.2521C242.1297,-89.1104 355.3386,-39.1064 401.7235,-18.6184"/>
<polygon fill="#191970" stroke="#191970" points="179.0144,-113.1619 171.2811,-120.4039 181.8427,-119.5651 179.0144,-113.1619"/>
</g>
<!-- Node22&#45;&gt;Node26 -->
<g id="edge8" class="edge">
<title>Node22&#45;&gt;Node26</title>
<path fill="none" stroke="#191970" d="M157.4172,-112.1442C163.5139,-103.7186 169.8997,-93.7965 174.3676,-84 184.5588,-61.6539 189.9156,-32.9435 192.1226,-18.5615"/>
<polygon fill="#191970" stroke="#191970" points="154.4833,-110.222 151.2609,-120.3149 160.074,-114.4344 154.4833,-110.222"/>
</g>
<!-- Node27&#45;&gt;Node22 -->
<g id="edge12" class="edge">
<title>Node27&#45;&gt;Node22</title>
<path fill="none" stroke="#191970" d="M497.342,-190.3249C424.623,-181.0202 310.6029,-165.652 212.3676,-149 209.4375,-148.5033 206.4447,-147.9788 203.424,-147.4356"/>
<polygon fill="#191970" stroke="#191970" points="496.9606,-193.8045 507.3229,-191.597 497.8458,-186.8607 496.9606,-193.8045"/>
</g>
<!-- Node27&#45;&gt;Node23 -->
<g id="edge33" class="edge">
<title>Node27&#45;&gt;Node23</title>
<path fill="none" stroke="#191970" d="M583.2862,-175.8578C589.8549,-159.2847 594.9323,-137.1235 585.3676,-120 573.9531,-99.5649 550.4992,-86.3775 531.5879,-78.6223"/>
<polygon fill="#191970" stroke="#191970" points="579.9302,-174.7959 579.1211,-185.3598 586.3414,-177.6062 579.9302,-174.7959"/>
</g>
<!-- Node27&#45;&gt;Node24 -->
<g id="edge34" class="edge">
<title>Node27&#45;&gt;Node24</title>
<path fill="none" stroke="#191970" d="M588.1047,-176.9874C593.3829,-168.6297 598.5649,-158.7918 601.3676,-149 614.966,-101.4901 608.797,-41.1153 605.7297,-18.5482"/>
<polygon fill="#191970" stroke="#191970" points="585.1216,-175.1514 582.4475,-185.4033 590.9311,-179.0566 585.1216,-175.1514"/>
</g>
<!-- Node27&#45;&gt;Node25 -->
<g id="edge35" class="edge">
<title>Node27&#45;&gt;Node25</title>
<path fill="none" stroke="#191970" d="M571.8208,-175.2913C570.8255,-157.7119 566.5686,-134.5486 552.3676,-120 508.6925,-75.256 454.5062,-133.5477 416.3676,-84 401.646,-64.8745 411.4841,-34.2127 417.965,-18.8745"/>
<polygon fill="#191970" stroke="#191970" points="568.3244,-175.4812 572.0787,-185.3885 575.3221,-175.3023 568.3244,-175.4812"/>
</g>
<!-- Node27&#45;&gt;Node26 -->
<g id="edge36" class="edge">
<title>Node27&#45;&gt;Node26</title>
<path fill="none" stroke="#191970" d="M497.1265,-195.7849C365.5226,-188.6575 101.7769,-171.7321 66.3676,-149 28.447,-124.6557 1.0655,-90.8499 28.3676,-55 41.1501,-38.2155 90.5189,-26.052 131.9532,-18.5472"/>
<polygon fill="#191970" stroke="#191970" points="496.9636,-199.2811 507.1368,-196.3219 497.3387,-192.2911 496.9636,-199.2811"/>
</g>
<!-- Node28 -->
<g id="node10" class="node">
<title>Node28</title>
<g id="a_node10"><a xlink:href="feature_map_8c.html" target="_top" xlink:title="Source/ARX/AR2/featureMap.c">
<polygon fill="#ffffff" stroke="#000000" points="221.1683,-125.5 221.1683,-143.5 375.5668,-143.5 375.5668,-125.5 221.1683,-125.5"/>
<text text-anchor="middle" x="298.3676" y="-131.5" font-family="Helvetica,sans-Serif" font-size="10.00" fill="#000000">Source/ARX/AR2/featureMap.c</text>
</a>
</g>
</g>
<!-- Node27&#45;&gt;Node28 -->
<g id="edge10" class="edge">
<title>Node27&#45;&gt;Node28</title>
<path fill="none" stroke="#191970" d="M502.5088,-183.105C449.7807,-170.5507 379.0317,-153.7058 336.1741,-143.5016"/>
<polygon fill="#191970" stroke="#191970" points="501.928,-186.5645 512.4667,-185.476 503.5494,-179.7549 501.928,-186.5645"/>
</g>
<!-- Node29 -->
<g id="node11" class="node">
<title>Node29</title>
<g id="a_node11"><a xlink:href="feature_set_8c.html" target="_top" xlink:title="Source/ARX/AR2/featureSet.c">
<polygon fill="#ffffff" stroke="#000000" points="393.39,-125.5 393.39,-143.5 543.3451,-143.5 543.3451,-125.5 393.39,-125.5"/>
<text text-anchor="middle" x="468.3676" y="-131.5" font-family="Helvetica,sans-Serif" font-size="10.00" fill="#000000">Source/ARX/AR2/featureSet.c</text>
</a>
</g>
</g>
<!-- Node27&#45;&gt;Node29 -->
<g id="edge11" class="edge">
<title>Node27&#45;&gt;Node29</title>
<path fill="none" stroke="#191970" d="M540.3237,-179.9092C521.2017,-167.8419 497.5869,-152.9394 482.7468,-143.5743"/>
<polygon fill="#191970" stroke="#191970" points="538.6933,-183.019 549.0181,-185.396 542.4292,-177.0992 538.6933,-183.019"/>
</g>
<!-- Node30 -->
<g id="node12" class="node">
<title>Node30</title>
<g id="a_node12"><a xlink:href="search_point_8h.html" target="_top" xlink:title="Source/ARX/AR2/include\l/ARX/AR2/searchPoint.h">
<polygon fill="#ffffff" stroke="#000000" points="675.5057,-120.5 675.5057,-148.5 803.2294,-148.5 803.2294,-120.5 675.5057,-120.5"/>
<text text-anchor="start" x="683.5057" y="-136.5" font-family="Helvetica,sans-Serif" font-size="10.00" fill="#000000">Source/ARX/AR2/include</text>
<text text-anchor="middle" x="739.3676" y="-126.5" font-family="Helvetica,sans-Serif" font-size="10.00" fill="#000000">/ARX/AR2/searchPoint.h</text>
</a>
</g>
</g>
<!-- Node27&#45;&gt;Node30 -->
<g id="edge13" class="edge">
<title>Node27&#45;&gt;Node30</title>
<path fill="none" stroke="#191970" d="M617.4215,-181.6815C644.3654,-171.2568 677.9041,-158.2805 702.9852,-148.5765"/>
<polygon fill="#191970" stroke="#191970" points="615.8844,-178.5233 607.8211,-185.396 618.4103,-185.0517 615.8844,-178.5233"/>
</g>
<!-- Node31 -->
<g id="node13" class="node">
<title>Node31</title>
<g id="a_node13"><a xlink:href="tracking2d_8c.html" target="_top" xlink:title="Source/ARX/AR2/tracking2d.c">
<polygon fill="#ffffff" stroke="#000000" points="842.3925,-.5 842.3925,-18.5 992.3427,-18.5 992.3427,-.5 842.3925,-.5"/>
<text text-anchor="middle" x="917.3676" y="-6.5" font-family="Helvetica,sans-Serif" font-size="10.00" fill="#000000">Source/ARX/AR2/tracking2d.c</text>
</a>
</g>
</g>
<!-- Node27&#45;&gt;Node31 -->
<g id="edge37" class="edge">
<title>Node27&#45;&gt;Node31</title>
<path fill="none" stroke="#191970" d="M645.2937,-184.1265C729.8482,-168.9843 758.6242,-182.8292 837.3676,-149 882.3719,-129.6655 904.1844,-127.6706 926.3676,-84 937.224,-62.6276 927.8249,-33.4912 921.6791,-18.7926"/>
<polygon fill="#191970" stroke="#191970" points="644.4449,-180.7246 635.263,-186.0108 645.7373,-187.6043 644.4449,-180.7246"/>
</g>
<!-- Node27&#45;&gt;Node32 -->
<g id="edge16" class="edge">
<title>Node27&#45;&gt;Node32</title>
<path fill="none" stroke="#191970" d="M645.5519,-185.6295C646.8332,-185.4159 648.1059,-185.2059 649.3676,-185 762.765,-166.4958 791.9701,-167.5042 905.3676,-149 909.8535,-148.268 914.4791,-147.4837 919.1337,-146.6729"/>
<polygon fill="#191970" stroke="#191970" points="644.8704,-182.1951 635.6014,-187.3271 646.0477,-189.0954 644.8704,-182.1951"/>
</g>
<!-- Node33 -->
<g id="node15" class="node">
<title>Node33</title>
<g id="a_node15"><a xlink:href="tracking_8h.html" target="_top" xlink:title="Source/ARX/AR2/include\l/ARX/AR2/tracking.h">
<polygon fill="#ffffff" stroke="#000000" points="789.5057,-55.5 789.5057,-83.5 917.2294,-83.5 917.2294,-55.5 789.5057,-55.5"/>
<text text-anchor="start" x="797.5057" y="-71.5" font-family="Helvetica,sans-Serif" font-size="10.00" fill="#000000">Source/ARX/AR2/include</text>
<text text-anchor="middle" x="853.3676" y="-61.5" font-family="Helvetica,sans-Serif" font-size="10.00" fill="#000000">/ARX/AR2/tracking.h</text>
</a>
</g>
</g>
<!-- Node27&#45;&gt;Node33 -->
<g id="edge32" class="edge">
<title>Node27&#45;&gt;Node33</title>
<path fill="none" stroke="#191970" d="M645.2024,-185.6197C713.5303,-172.5294 805.5793,-154.1669 812.3676,-149 833.8689,-132.6341 845.0828,-101.7886 850.0607,-83.7073"/>
<polygon fill="#191970" stroke="#191970" points="644.4717,-182.1959 635.3063,-187.5106 645.7855,-189.0715 644.4717,-182.1959"/>
</g>
<!-- Node30&#45;&gt;Node23 -->
<g id="edge14" class="edge">
<title>Node30&#45;&gt;Node23</title>
<path fill="none" stroke="#191970" d="M678.7009,-117.791C633.244,-105.271 572.7911,-88.6209 536.0501,-78.5016"/>
<polygon fill="#191970" stroke="#191970" points="677.8792,-121.1949 688.4496,-120.476 679.738,-114.4462 677.8792,-121.1949"/>
</g>
<!-- Node30&#45;&gt;Node31 -->
<g id="edge15" class="edge">
<title>Node30&#45;&gt;Node31</title>
<path fill="none" stroke="#191970" d="M746.2062,-110.738C752.4332,-93.0741 763.3017,-69.599 780.3676,-55 802.3639,-36.1831 832.3992,-25.0837 858.742,-18.5683"/>
<polygon fill="#191970" stroke="#191970" points="742.8427,-109.7632 743.0644,-120.3557 749.4966,-111.9369 742.8427,-109.7632"/>
</g>
<!-- Node32&#45;&gt;Node24 -->
<g id="edge28" class="edge">
<title>Node32&#45;&gt;Node24</title>
<path fill="none" stroke="#191970" d="M909.2301,-122.5259C869.8504,-114.5783 821.2706,-102.1968 780.3676,-84 759.3065,-74.6304 758.0074,-65.2642 737.3676,-55 705.2463,-39.026 666.1606,-26.3946 638.6999,-18.534"/>
<polygon fill="#191970" stroke="#191970" points="908.8067,-126.0095 919.2937,-124.5014 910.1552,-119.1406 908.8067,-126.0095"/>
</g>
<!-- Node32&#45;&gt;Node25 -->
<g id="edge29" class="edge">
<title>Node32&#45;&gt;Node25</title>
<path fill="none" stroke="#191970" d="M909.6035,-120.2906C860.6385,-110.629 795.0102,-97.2407 737.3676,-84 686.4142,-72.2958 674.2005,-67.2168 623.3676,-55 568.2283,-41.7482 504.3166,-27.4641 463.632,-18.5059"/>
<polygon fill="#191970" stroke="#191970" points="908.9907,-123.737 919.4783,-122.2331 910.3419,-116.8687 908.9907,-123.737"/>
</g>
<!-- Node32&#45;&gt;Node26 -->
<g id="edge30" class="edge">
<title>Node32&#45;&gt;Node26</title>
<path fill="none" stroke="#191970" d="M909.3073,-126.4106C811.5474,-115.3798 648.783,-95.6613 623.3676,-84 605.6212,-75.8575 608.2154,-62.9178 590.3676,-55 561.1968,-42.0591 368.8682,-24.2153 262.9908,-15.2019"/>
<polygon fill="#191970" stroke="#191970" points="909.1047,-129.9098 919.433,-127.5484 909.8864,-122.9536 909.1047,-129.9098"/>
</g>
<!-- Node32&#45;&gt;Node31 -->
<g id="edge31" class="edge">
<title>Node32&#45;&gt;Node31</title>
<path fill="none" stroke="#191970" d="M979.0497,-110.3415C975.4273,-93.9661 969.228,-72.2494 959.3676,-55 951.1515,-40.6272 937.6216,-27.0813 928.1442,-18.5685"/>
<polygon fill="#191970" stroke="#191970" points="975.6392,-111.1338 981.0706,-120.2305 982.4974,-109.7322 975.6392,-111.1338"/>
</g>
<!-- Node32&#45;&gt;Node33 -->
<g id="edge17" class="edge">
<title>Node32&#45;&gt;Node33</title>
<path fill="none" stroke="#191970" d="M946.0742,-115.8533C925.5197,-105.5761 900.4179,-93.0252 881.5206,-83.5765"/>
<polygon fill="#191970" stroke="#191970" points="944.6499,-119.0543 955.1595,-120.396 947.7805,-112.7933 944.6499,-119.0543"/>
</g>
<!-- Node35 -->
<g id="node17" class="node">
<title>Node35</title>
<g id="a_node17"><a xlink:href="matching_8c.html" target="_top" xlink:title="Source/ARX/AR2/matching.c">
<polygon fill="#ffffff" stroke="#000000" points="1010.1732,-.5 1010.1732,-18.5 1154.5619,-18.5 1154.5619,-.5 1010.1732,-.5"/>
<text text-anchor="middle" x="1082.3676" y="-6.5" font-family="Helvetica,sans-Serif" font-size="10.00" fill="#000000">Source/ARX/AR2/matching.c</text>
</a>
</g>
</g>
<!-- Node32&#45;&gt;Node35 -->
<g id="edge25" class="edge">
<title>Node32&#45;&gt;Node35</title>
<path fill="none" stroke="#191970" d="M998.4054,-111.9908C1009.5068,-95.7658 1025.2512,-73.5513 1040.3676,-55 1051.097,-41.8325 1064.5809,-27.5868 1073.3322,-18.6095"/>
<polygon fill="#191970" stroke="#191970" points="995.4676,-110.0869 992.7491,-120.3271 1001.2601,-114.0172 995.4676,-110.0869"/>
</g>
<!-- Node36 -->
<g id="node18" class="node">
<title>Node36</title>
<g id="a_node18"><a xlink:href="matching2_8c.html" target="_top" xlink:title="Source/ARX/AR2/matching2.c">
<polygon fill="#ffffff" stroke="#000000" points="1172.3925,-.5 1172.3925,-18.5 1322.3427,-18.5 1322.3427,-.5 1172.3925,-.5"/>
<text text-anchor="middle" x="1247.3676" y="-6.5" font-family="Helvetica,sans-Serif" font-size="10.00" fill="#000000">Source/ARX/AR2/matching2.c</text>
</a>
</g>
</g>
<!-- Node32&#45;&gt;Node36 -->
<g id="edge26" class="edge">
<title>Node32&#45;&gt;Node36</title>
<path fill="none" stroke="#191970" d="M1057.6217,-127.8249C1120.5079,-120.6628 1204.19,-107.0801 1228.3676,-84 1246.5191,-66.6724 1248.2574,-34.6164 1247.9001,-18.8092"/>
<polygon fill="#191970" stroke="#191970" points="1056.8817,-124.3853 1047.3263,-128.9619 1057.6501,-131.343 1056.8817,-124.3853"/>
</g>
<!-- Node37 -->
<g id="node19" class="node">
<title>Node37</title>
<g id="a_node19"><a xlink:href="select_template_8c.html" target="_top" xlink:title="Source/ARX/AR2/selectTemplate.c">
<polygon fill="#ffffff" stroke="#000000" points="1049.1117,-60.5 1049.1117,-78.5 1219.6234,-78.5 1219.6234,-60.5 1049.1117,-60.5"/>
<text text-anchor="middle" x="1134.3676" y="-66.5" font-family="Helvetica,sans-Serif" font-size="10.00" fill="#000000">Source/ARX/AR2/selectTemplate.c</text>
</a>
</g>
</g>
<!-- Node32&#45;&gt;Node37 -->
<g id="edge27" class="edge">
<title>Node32&#45;&gt;Node37</title>
<path fill="none" stroke="#191970" d="M1025.4876,-116.3688C1054.0707,-104.0649 1090.6455,-88.3208 1113.2873,-78.5743"/>
<polygon fill="#191970" stroke="#191970" points="1023.9336,-113.2272 1016.1323,-120.396 1026.7013,-119.6568 1023.9336,-113.2272"/>
</g>
<!-- Node33&#45;&gt;Node24 -->
<g id="edge21" class="edge">
<title>Node33&#45;&gt;Node24</title>
<path fill="none" stroke="#191970" d="M785.0518,-53.0384C738.8943,-41.9161 679.6992,-27.6522 641.8907,-18.5417"/>
<polygon fill="#191970" stroke="#191970" points="784.4464,-56.4926 794.9881,-55.4327 786.0863,-49.6874 784.4464,-56.4926"/>
</g>
<!-- Node33&#45;&gt;Node25 -->
<g id="edge22" class="edge">
<title>Node33&#45;&gt;Node25</title>
<path fill="none" stroke="#191970" d="M779.276,-59.1856C696.9891,-47.7304 565.4528,-29.4191 487.1317,-18.5159"/>
<polygon fill="#191970" stroke="#191970" points="778.9208,-62.6699 789.3079,-60.5822 779.886,-55.7367 778.9208,-62.6699"/>
</g>
<!-- Node33&#45;&gt;Node26 -->
<g id="edge23" class="edge">
<title>Node33&#45;&gt;Node26</title>
<path fill="none" stroke="#191970" d="M779.3457,-62.7707C650.8564,-51.0899 388.3055,-27.2216 262.967,-15.8272"/>
<polygon fill="#191970" stroke="#191970" points="779.2085,-66.2726 789.4843,-63.6924 779.8423,-59.3014 779.2085,-66.2726"/>
</g>
<!-- Node33&#45;&gt;Node31 -->
<g id="edge24" class="edge">
<title>Node33&#45;&gt;Node31</title>
<path fill="none" stroke="#191970" d="M876.0744,-48.2123C886.9173,-38.0471 899.3189,-26.4206 907.6778,-18.5842"/>
<polygon fill="#191970" stroke="#191970" points="873.4363,-45.888 868.5347,-55.2808 878.2239,-50.9948 873.4363,-45.888"/>
</g>
<!-- Node34 -->
<g id="node16" class="node">
<title>Node34</title>
<g id="a_node16"><a xlink:href="handle_8c.html" target="_top" xlink:title="Source/ARX/AR2/handle.c">
<polygon fill="#ffffff" stroke="#000000" points="690.4467,-.5 690.4467,-18.5 824.2885,-18.5 824.2885,-.5 690.4467,-.5"/>
<text text-anchor="middle" x="757.3676" y="-6.5" font-family="Helvetica,sans-Serif" font-size="10.00" fill="#000000">Source/ARX/AR2/handle.c</text>
</a>
</g>
</g>
<!-- Node33&#45;&gt;Node34 -->
<g id="edge18" class="edge">
<title>Node33&#45;&gt;Node34</title>
<path fill="none" stroke="#191970" d="M822.1242,-49.9729C805.2308,-39.4145 785.171,-26.8771 771.9023,-18.5842"/>
<polygon fill="#191970" stroke="#191970" points="820.2819,-52.9488 830.6169,-55.2808 823.9919,-47.0128 820.2819,-52.9488"/>
</g>
<!-- Node33&#45;&gt;Node35 -->
<g id="edge19" class="edge">
<title>Node33&#45;&gt;Node35</title>
<path fill="none" stroke="#191970" d="M916.9984,-52.8282C959.3302,-41.7369 1013.3053,-27.5949 1047.8583,-18.5417"/>
<polygon fill="#191970" stroke="#191970" points="915.8443,-49.5123 907.0579,-55.4327 917.6185,-56.2838 915.8443,-49.5123"/>
</g>
<!-- Node33&#45;&gt;Node36 -->
<g id="edge20" class="edge">
<title>Node33&#45;&gt;Node36</title>
<path fill="none" stroke="#191970" d="M927.4605,-58.2168C1002.9146,-46.7263 1118.4278,-29.1355 1188.0511,-18.533"/>
<polygon fill="#191970" stroke="#191970" points="926.9064,-54.7607 917.5474,-59.7264 927.9603,-61.681 926.9064,-54.7607"/>
</g>
</g>
</svg>
        <g id="navigator" transform="translate(0 0)" fill="#404254">
                <rect fill="#f2f5e9" fill-opacity="0.5" stroke="#606060" stroke-width=".5" x="0" y="0" width="60" height="60"/>
                <use id="zoomplus" xlink:href="#zoomPlus" x="17" y="9" onmousedown="handleZoom(evt,'in')"/>
                <use id="zoomminus" xlink:href="#zoomMin" x="42" y="9" onmousedown="handleZoom(evt,'out')"/>
                <use id="reset" xlink:href="#resetDef" x="30" y="36" onmousedown="handleReset()"/>
                <g id="arrowUp" xlink:href="#dirArrow" transform="translate(30 24)" onmousedown="handlePan(0,-1)">
                  <use xlink:href="#rim" fill="#404040">
                        <set attributeName="fill" to="#808080" begin="arrowUp.mouseover" end="arrowUp.mouseout"/>
                  </use>
                  <path fill="none" stroke="white" stroke-width="1.5" d="M0,-3.0v7 M-2.5,-0.5L0,-3.0L2.5,-0.5"/>
                </g>
                <g id="arrowRight" xlink:href="#dirArrow" transform="rotate(90) translate(36 -43)" onmousedown="handlePan(1,0)">
                  <use xlink:href="#rim" fill="#404040">
                        <set attributeName="fill" to="#808080" begin="arrowRight.mouseover" end="arrowRight.mouseout"/>
                  </use>
                  <path fill="none" stroke="white" stroke-width="1.5" d="M0,-3.0v7 M-2.5,-0.5L0,-3.0L2.5,-0.5"/>
                </g>
                <g id="arrowDown" xlink:href="#dirArrow" transform="rotate(180) translate(-30 -48)" onmousedown="handlePan(0,1)">
                  <use xlink:href="#rim" fill="#404040">
                        <set attributeName="fill" to="#808080" begin="arrowDown.mouseover" end="arrowDown.mouseout"/>
                  </use>
                  <path fill="none" stroke="white" stroke-width="1.5" d="M0,-3.0v7 M-2.5,-0.5L0,-3.0L2.5,-0.5"/>
                </g>
                <g id="arrowLeft" xlink:href="#dirArrow" transform="rotate(270) translate(-36 17)" onmousedown="handlePan(-1,0)">
                  <use xlink:href="#rim" fill="#404040">
                        <set attributeName="fill" to="#808080" begin="arrowLeft.mouseover" end="arrowLeft.mouseout"/>
                  </use>
                  <path fill="none" stroke="white" stroke-width="1.5" d="M0,-3.0v7 M-2.5,-0.5L0,-3.0L2.5,-0.5"/>
                </g>
        </g>
        <svg viewBox="0 0 15 15" width="100%" height="30px" preserveAspectRatio="xMaxYMin meet">
         <g id="arrow_out" transform="scale(0.3 0.3)">
          <a xlink:href="image_set_8h__dep__incl_org.svg" target="_base">
           <rect id="button" ry="5" rx="5" y="6" x="6" height="38" width="38"
                fill="#f2f5e9" fill-opacity="0.5" stroke="#606060" stroke-width="1.0"/>
           <path id="arrow"
             d="M 11.500037,31.436501 C 11.940474,20.09759 22.043105,11.32322 32.158766,21.979434 L 37.068811,17.246167 C 37.068811,17.246167 37.088388,32 37.088388,32 L 22.160133,31.978069 C 22.160133,31.978069 26.997745,27.140456 26.997745,27.140456 C 18.528582,18.264221 13.291696,25.230495 11.500037,31.436501 z"
             style="fill:#404040;"/>
          </a>
         </g>
        </svg>
</svg>
