<?xml version="1.0" encoding="UTF-8" standalone="no"?>
<!DOCTYPE svg PUBLIC "-//W3C//DTD SVG 1.1//EN"
 "http://www.w3.org/Graphics/SVG/1.1/DTD/svg11.dtd">
<!-- Generated by graphviz version 2.40.1 (20161225.0304)
 -->
<!-- Title: /Users/phil/r/artoolkitx/Source/ARX/AR2/include/ARX/AR2/imageFormat.h Pages: 1 -->
<svg width="300pt" height="112pt"
 viewBox="0.00 0.00 300.17 112.00" xmlns="http://www.w3.org/2000/svg" xmlns:xlink="http://www.w3.org/1999/xlink">
<g id="graph0" class="graph" transform="scale(1 1) rotate(0) translate(4 108)">
<title>/Users/phil/r/artoolkitx/Source/ARX/AR2/include/ARX/AR2/imageFormat.h</title>
<polygon fill="#ffffff" stroke="transparent" points="-4,4 -4,-108 296.167,-108 296.167,4 -4,4"/>
<!-- Node3 -->
<g id="node1" class="node">
<title>Node3</title>
<polygon fill="#bfbfbf" stroke="#000000" points="85.6206,-65.5 85.6206,-103.5 217.2163,-103.5 217.2163,-65.5 85.6206,-65.5"/>
<text text-anchor="start" x="93.6206" y="-91.5" font-family="Helvetica,sans-Serif" font-size="10.00" fill="#000000">/Users/phil/r/artoolkitx</text>
<text text-anchor="start" x="93.6206" y="-81.5" font-family="Helvetica,sans-Serif" font-size="10.00" fill="#000000">/Source/ARX/AR2/include</text>
<text text-anchor="middle" x="151.4185" y="-71.5" font-family="Helvetica,sans-Serif" font-size="10.00" fill="#000000">/ARX/AR2/imageFormat.h</text>
</g>
<!-- Node4 -->
<g id="node2" class="node">
<title>Node4</title>
<g id="a_node2"><a xlink:href="image_set_8c.html" target="_top" xlink:title="/Users/phil/r/artoolkitx\l/Source/ARX/AR2/imageSet.c">
<polygon fill="#ffffff" stroke="#000000" points="0,-.5 0,-28.5 148.8369,-28.5 148.8369,-.5 0,-.5"/>
<text text-anchor="start" x="8" y="-16.5" font-family="Helvetica,sans-Serif" font-size="10.00" fill="#000000">/Users/phil/r/artoolkitx</text>
<text text-anchor="middle" x="74.4185" y="-6.5" font-family="Helvetica,sans-Serif" font-size="10.00" fill="#000000">/Source/ARX/AR2/imageSet.c</text>
</a>
</g>
</g>
<!-- Node3&#45;&gt;Node4 -->
<g id="edge1" class="edge">
<title>Node3&#45;&gt;Node4</title>
<path fill="none" stroke="#191970" d="M122.9772,-58.6443C111.9431,-48.6133 99.7236,-37.5047 90.3029,-28.9404"/>
<polygon fill="#191970" stroke="#191970" points="120.6241,-61.2352 130.3779,-65.3722 125.3328,-56.0556 120.6241,-61.2352"/>
</g>
<!-- Node5 -->
<g id="node3" class="node">
<title>Node5</title>
<g id="a_node3"><a xlink:href="jpeg_8c.html" target="_top" xlink:title="/Users/phil/r/artoolkitx\l/Source/ARX/AR2/jpeg.c">
<polygon fill="#ffffff" stroke="#000000" points="166.6699,-.5 166.6699,-28.5 292.167,-28.5 292.167,-.5 166.6699,-.5"/>
<text text-anchor="start" x="174.6699" y="-16.5" font-family="Helvetica,sans-Serif" font-size="10.00" fill="#000000">/Users/phil/r/artoolkitx</text>
<text text-anchor="middle" x="229.4185" y="-6.5" font-family="Helvetica,sans-Serif" font-size="10.00" fill="#000000">/Source/ARX/AR2/jpeg.c</text>
</a>
</g>
</g>
<!-- Node3&#45;&gt;Node5 -->
<g id="edge2" class="edge">
<title>Node3&#45;&gt;Node5</title>
<path fill="none" stroke="#191970" d="M180.2291,-58.6443C191.4065,-48.6133 203.7847,-37.5047 213.3278,-28.9404"/>
<polygon fill="#191970" stroke="#191970" points="177.8371,-56.0882 172.7323,-65.3722 182.5124,-61.2979 177.8371,-56.0882"/>
</g>
</g>
</svg>
