<?xml version="1.0" encoding="UTF-8" standalone="no"?>
<!DOCTYPE svg PUBLIC "-//W3C//DTD SVG 1.1//EN"
 "http://www.w3.org/Graphics/SVG/1.1/DTD/svg11.dtd">
<!-- Generated by graphviz version 2.40.1 (20161225.0304)
 -->
<!-- Title: Source/ARX/ARUtil/include/ARX/ARUtil/image_utils.h Pages: 1 -->
<svg width="320pt" height="102pt"
 viewBox="0.00 0.00 319.62 102.00" xmlns="http://www.w3.org/2000/svg" xmlns:xlink="http://www.w3.org/1999/xlink">
<g id="graph0" class="graph" transform="scale(1 1) rotate(0) translate(4 98)">
<title>Source/ARX/ARUtil/include/ARX/ARUtil/image_utils.h</title>
<polygon fill="#ffffff" stroke="transparent" points="-4,4 -4,-98 315.6177,-98 315.6177,4 -4,4"/>
<!-- Node5 -->
<g id="node1" class="node">
<title>Node5</title>
<polygon fill="#bfbfbf" stroke="#000000" points="94.2388,-65.5 94.2388,-93.5 230.8442,-93.5 230.8442,-65.5 94.2388,-65.5"/>
<text text-anchor="start" x="102.2388" y="-81.5" font-family="Helvetica,sans-Serif" font-size="10.00" fill="#000000">Source/ARX/ARUtil/include</text>
<text text-anchor="middle" x="162.5415" y="-71.5" font-family="Helvetica,sans-Serif" font-size="10.00" fill="#000000">/ARX/ARUtil/image_utils.h</text>
</g>
<!-- Node6 -->
<g id="node2" class="node">
<title>Node6</title>
<g id="a_node2"><a xlink:href="_a_r_trackable2d_8cpp.html" target="_top" xlink:title="Source/ARX/ARTrackable2d.cpp">
<polygon fill="#ffffff" stroke="#000000" points="0,-5.5 0,-23.5 161.083,-23.5 161.083,-5.5 0,-5.5"/>
<text text-anchor="middle" x="80.5415" y="-11.5" font-family="Helvetica,sans-Serif" font-size="10.00" fill="#000000">Source/ARX/ARTrackable2d.cpp</text>
</a>
</g>
</g>
<!-- Node5&#45;&gt;Node6 -->
<g id="edge1" class="edge">
<title>Node5&#45;&gt;Node6</title>
<path fill="none" stroke="#191970" d="M136.7884,-59.0859C121.7565,-47.1704 103.5362,-32.7275 91.9891,-23.5743"/>
<polygon fill="#191970" stroke="#191970" points="134.7379,-61.9268 144.7487,-65.396 139.0863,-56.4412 134.7379,-61.9268"/>
</g>
<!-- Node7 -->
<g id="node3" class="node">
<title>Node7</title>
<g id="a_node3"><a xlink:href="image__utils_8cpp.html" target="_top" xlink:title="Source/ARX/ARUtil/image\l_utils.cpp">
<polygon fill="#ffffff" stroke="#000000" points="179.4653,-.5 179.4653,-28.5 311.6177,-28.5 311.6177,-.5 179.4653,-.5"/>
<text text-anchor="start" x="187.4653" y="-16.5" font-family="Helvetica,sans-Serif" font-size="10.00" fill="#000000">Source/ARX/ARUtil/image</text>
<text text-anchor="middle" x="245.5415" y="-6.5" font-family="Helvetica,sans-Serif" font-size="10.00" fill="#000000">_utils.cpp</text>
</a>
</g>
</g>
<!-- Node5&#45;&gt;Node7 -->
<g id="edge2" class="edge">
<title>Node5&#45;&gt;Node7</title>
<path fill="none" stroke="#191970" d="M188.5043,-59.1677C201.1961,-49.2283 216.1539,-37.5144 227.5669,-28.5765"/>
<polygon fill="#191970" stroke="#191970" points="186.2663,-56.4747 180.5513,-65.396 190.5823,-61.9859 186.2663,-56.4747"/>
</g>
</g>
</svg>
