<?xml version="1.0" encoding="UTF-8" standalone="no"?>
<!DOCTYPE svg PUBLIC "-//W3C//DTD SVG 1.1//EN"
 "http://www.w3.org/Graphics/SVG/1.1/DTD/svg11.dtd">
<!-- Generated by graphviz version 2.40.1 (20161225.0304)
 -->
<!-- Title: /Users/phil/r/artoolkitx/Source/ARX/ARUtil/include/ARX/ARUtil/image_utils.h Pages: 1 -->
<svg width="324pt" height="122pt"
 viewBox="0.00 0.00 324.40 122.00" xmlns="http://www.w3.org/2000/svg" xmlns:xlink="http://www.w3.org/1999/xlink">
<g id="graph0" class="graph" transform="scale(1 1) rotate(0) translate(4 118)">
<title>/Users/phil/r/artoolkitx/Source/ARX/ARUtil/include/ARX/ARUtil/image_utils.h</title>
<polygon fill="#ffffff" stroke="transparent" points="-4,4 -4,-118 320.396,-118 320.396,4 -4,4"/>
<!-- Node5 -->
<g id="node1" class="node">
<title>Node5</title>
<polygon fill="#bfbfbf" stroke="#000000" points="95.2388,-75.5 95.2388,-113.5 234.6226,-113.5 234.6226,-75.5 95.2388,-75.5"/>
<text text-anchor="start" x="103.2388" y="-101.5" font-family="Helvetica,sans-Serif" font-size="10.00" fill="#000000">/Users/phil/r/artoolkitx</text>
<text text-anchor="start" x="103.2388" y="-91.5" font-family="Helvetica,sans-Serif" font-size="10.00" fill="#000000">/Source/ARX/ARUtil/include</text>
<text text-anchor="middle" x="164.9307" y="-81.5" font-family="Helvetica,sans-Serif" font-size="10.00" fill="#000000">/ARX/ARUtil/image_utils.h</text>
</g>
<!-- Node6 -->
<g id="node2" class="node">
<title>Node6</title>
<g id="a_node2"><a xlink:href="_a_r_trackable2d_8cpp.html" target="_top" xlink:title="/Users/phil/r/artoolkitx\l/Source/ARX/ARTrackable2d.cpp">
<polygon fill="#ffffff" stroke="#000000" points="0,-5.5 0,-33.5 163.8613,-33.5 163.8613,-5.5 0,-5.5"/>
<text text-anchor="start" x="8" y="-21.5" font-family="Helvetica,sans-Serif" font-size="10.00" fill="#000000">/Users/phil/r/artoolkitx</text>
<text text-anchor="middle" x="81.9307" y="-11.5" font-family="Helvetica,sans-Serif" font-size="10.00" fill="#000000">/Source/ARX/ARTrackable2d.cpp</text>
</a>
</g>
</g>
<!-- Node5&#45;&gt;Node6 -->
<g id="edge1" class="edge">
<title>Node5&#45;&gt;Node6</title>
<path fill="none" stroke="#191970" d="M135.7982,-68.1755C122.8929,-56.514 108.2315,-43.2658 97.4662,-33.5382"/>
<polygon fill="#191970" stroke="#191970" points="133.7899,-71.078 143.5561,-75.1856 138.4831,-65.8843 133.7899,-71.078"/>
</g>
<!-- Node7 -->
<g id="node3" class="node">
<title>Node7</title>
<g id="a_node3"><a xlink:href="image__utils_8cpp.html" target="_top" xlink:title="/Users/phil/r/artoolkitx\l/Source/ARX/ARUtil/image\l_utils.cpp">
<polygon fill="#ffffff" stroke="#000000" points="181.4653,-.5 181.4653,-38.5 316.396,-38.5 316.396,-.5 181.4653,-.5"/>
<text text-anchor="start" x="189.4653" y="-26.5" font-family="Helvetica,sans-Serif" font-size="10.00" fill="#000000">/Users/phil/r/artoolkitx</text>
<text text-anchor="start" x="189.4653" y="-16.5" font-family="Helvetica,sans-Serif" font-size="10.00" fill="#000000">/Source/ARX/ARUtil/image</text>
<text text-anchor="middle" x="248.9307" y="-6.5" font-family="Helvetica,sans-Serif" font-size="10.00" fill="#000000">_utils.cpp</text>
</a>
</g>
</g>
<!-- Node5&#45;&gt;Node7 -->
<g id="edge2" class="edge">
<title>Node5&#45;&gt;Node7</title>
<path fill="none" stroke="#191970" d="M194.2294,-68.3404C205.1297,-58.608 217.2899,-47.7507 227.3719,-38.7489"/>
<polygon fill="#191970" stroke="#191970" points="191.6911,-65.9147 186.5628,-75.1856 196.3532,-71.1362 191.6911,-65.9147"/>
</g>
</g>
</svg>
