<?xml version="1.0" encoding="UTF-8" standalone="no"?>
<!DOCTYPE svg PUBLIC "-//W3C//DTD SVG 1.1//EN"
 "http://www.w3.org/Graphics/SVG/1.1/DTD/svg11.dtd">
<!-- Generated by graphviz version 8.0.5 (20230430.1635)
 -->
<!-- Title: CameraVideo Pages: 1 -->
<svg width="228pt" height="94pt"
 viewBox="0.00 0.00 228.12 93.75" xmlns="http://www.w3.org/2000/svg" xmlns:xlink="http://www.w3.org/1999/xlink">
<g id="graph0" class="graph" transform="scale(1 1) rotate(0) translate(4 89.75)">
<title>CameraVideo</title>
<!-- Node1 -->
<g id="node1" class="node">
<title>Node1</title>
<g id="a_node1"><a xlink:title=" ">
<polygon fill="#999999" stroke="#666666" points="126,-19.25 50.75,-19.25 50.75,0 126,0 126,-19.25"/>
<text text-anchor="middle" x="88.38" y="-5.75" font-family="Helvetica,sans-Serif" font-size="10.00">CameraVideo</text>
</a>
</g>
</g>
<!-- Node2 -->
<g id="node2" class="node">
<title>Node2</title>
<g id="a_node2"><a xlink:title=" ">
<polygon fill="white" stroke="#666666" points="58.75,-80.12 0,-80.12 0,-60.88 58.75,-60.88 58.75,-80.12"/>
<text text-anchor="middle" x="29.38" y="-66.62" font-family="Helvetica,sans-Serif" font-size="10.00">NSObject</text>
</a>
</g>
</g>
<!-- Node2&#45;&gt;Node1 -->
<g id="edge1" class="edge">
<title>Node2&#45;&gt;Node1</title>
<path fill="none" stroke="#63b8ff" d="M45.92,-52.99C56.74,-42.2 70.46,-28.5 79.33,-19.65"/>
<polygon fill="#63b8ff" stroke="#63b8ff" points="43.94,-50.02 39.34,-59.56 48.89,-54.97 43.94,-50.02"/>
</g>
<!-- Node3 -->
<g id="node3" class="node">
<title>Node3</title>
<g id="a_node3"><a xlink:title=" ">
<polygon fill="white" stroke="#666666" points="220.12,-85.75 76.62,-85.75 76.62,-55.25 220.12,-55.25 220.12,-85.75"/>
<text text-anchor="start" x="84.62" y="-72.25" font-family="Helvetica,sans-Serif" font-size="10.00">&lt;AVCaptureVideoDataOutput</text>
<text text-anchor="middle" x="148.38" y="-61" font-family="Helvetica,sans-Serif" font-size="10.00">SampleBufferDelegate&gt;</text>
</a>
</g>
</g>
<!-- Node3&#45;&gt;Node1 -->
<g id="edge2" class="edge">
<title>Node3&#45;&gt;Node1</title>
<path fill="none" stroke="#63b8ff" d="M125.71,-47.26C115.96,-37.69 105.1,-27.04 97.62,-19.7"/>
<polygon fill="#63b8ff" stroke="#63b8ff" points="122.95,-49.44 132.54,-53.95 127.86,-44.44 122.95,-49.44"/>
</g>
</g>
</svg>
