<?xml version="1.0" encoding="UTF-8" standalone="no"?>
<!DOCTYPE svg PUBLIC "-//W3C//DTD SVG 1.1//EN"
 "http://www.w3.org/Graphics/SVG/1.1/DTD/svg11.dtd">
<!-- Generated by graphviz version 8.0.5 (20230430.1635)
 -->
<!-- Title: Source/ARX/ARUtil/ioapi.c Pages: 1 -->
<svg width="242pt" height="138pt"
 viewBox="0.00 0.00 242.38 137.75" xmlns="http://www.w3.org/2000/svg" xmlns:xlink="http://www.w3.org/1999/xlink">
<g id="graph0" class="graph" transform="scale(1 1) rotate(0) translate(4 133.75)">
<title>Source/ARX/ARUtil/ioapi.c</title>
<!-- Node1 -->
<g id="node1" class="node">
<title>Node1</title>
<g id="a_node1"><a xlink:title=" ">
<polygon fill="#999999" stroke="#666666" points="143,-129.75 8.5,-129.75 8.5,-110.5 143,-110.5 143,-129.75"/>
<text text-anchor="middle" x="75.75" y="-116.25" font-family="Helvetica,sans-Serif" font-size="10.00">Source/ARX/ARUtil/ioapi.c</text>
</a>
</g>
</g>
<!-- Node2 -->
<g id="node2" class="node">
<title>Node2</title>
<g id="a_node2"><a xlink:title=" ">
<polygon fill="#e0e0e0" stroke="#999999" points="47.5,-19.25 0,-19.25 0,0 47.5,0 47.5,-19.25"/>
<text text-anchor="middle" x="23.75" y="-5.75" font-family="Helvetica,sans-Serif" font-size="10.00">stdlib.h</text>
</a>
</g>
</g>
<!-- Node1&#45;&gt;Node2 -->
<g id="edge1" class="edge">
<title>Node1&#45;&gt;Node2</title>
<path fill="none" stroke="#63b8ff" d="M67.65,-110.17C60.25,-101.58 49.46,-87.95 42.75,-74.5 35.71,-60.39 30.78,-43.2 27.71,-30.21"/>
<polygon fill="#63b8ff" stroke="#63b8ff" points="30.96,-29.69 25.41,-20.67 24.12,-31.19 30.96,-29.69"/>
</g>
<!-- Node3 -->
<g id="node3" class="node">
<title>Node3</title>
<g id="a_node3"><a xlink:title=" ">
<polygon fill="#e0e0e0" stroke="#999999" points="99.88,-74.5 51.62,-74.5 51.62,-55.25 99.88,-55.25 99.88,-74.5"/>
<text text-anchor="middle" x="75.75" y="-61" font-family="Helvetica,sans-Serif" font-size="10.00">string.h</text>
</a>
</g>
</g>
<!-- Node1&#45;&gt;Node3 -->
<g id="edge2" class="edge">
<title>Node1&#45;&gt;Node3</title>
<path fill="none" stroke="#63b8ff" d="M75.75,-110.33C75.75,-103.67 75.75,-94.24 75.75,-85.78"/>
<polygon fill="#63b8ff" stroke="#63b8ff" points="79.25,-85.86 75.75,-75.86 72.25,-85.86 79.25,-85.86"/>
</g>
<!-- Node4 -->
<g id="node4" class="node">
<title>Node4</title>
<g id="a_node4"><a xlink:href="ioapi_8h.html" target="_top" xlink:title=" ">
<polygon fill="white" stroke="#666666" points="162,-74.5 117.5,-74.5 117.5,-55.25 162,-55.25 162,-74.5"/>
<text text-anchor="middle" x="139.75" y="-61" font-family="Helvetica,sans-Serif" font-size="10.00">ioapi.h</text>
</a>
</g>
</g>
<!-- Node1&#45;&gt;Node4 -->
<g id="edge3" class="edge">
<title>Node1&#45;&gt;Node4</title>
<path fill="none" stroke="#63b8ff" d="M86.61,-110.09C95.95,-102.32 109.64,-90.92 120.79,-81.65"/>
<polygon fill="#63b8ff" stroke="#63b8ff" points="122.61,-83.86 128.05,-74.77 118.13,-78.48 122.61,-83.86"/>
</g>
<!-- Node4&#45;&gt;Node2 -->
<g id="edge5" class="edge">
<title>Node4&#45;&gt;Node2</title>
<path fill="none" stroke="#63b8ff" d="M120.07,-54.84C101.82,-46.47 74.42,-33.88 53.5,-24.28"/>
<polygon fill="#63b8ff" stroke="#63b8ff" points="55.07,-20.69 44.52,-19.7 52.15,-27.06 55.07,-20.69"/>
</g>
<!-- Node5 -->
<g id="node5" class="node">
<title>Node5</title>
<g id="a_node5"><a xlink:title=" ">
<polygon fill="#e0e0e0" stroke="#999999" points="110.38,-19.25 65.12,-19.25 65.12,0 110.38,0 110.38,-19.25"/>
<text text-anchor="middle" x="87.75" y="-5.75" font-family="Helvetica,sans-Serif" font-size="10.00">stdio.h</text>
</a>
</g>
</g>
<!-- Node4&#45;&gt;Node5 -->
<g id="edge4" class="edge">
<title>Node4&#45;&gt;Node5</title>
<path fill="none" stroke="#63b8ff" d="M131.16,-55.08C123.83,-47.57 113.08,-36.56 104.11,-27.38"/>
<polygon fill="#63b8ff" stroke="#63b8ff" points="107.01,-25.32 97.52,-20.61 102.01,-30.21 107.01,-25.32"/>
</g>
<!-- Node6 -->
<g id="node6" class="node">
<title>Node6</title>
<g id="a_node6"><a xlink:title=" ">
<polygon fill="#e0e0e0" stroke="#999999" points="176.88,-19.25 128.62,-19.25 128.62,0 176.88,0 176.88,-19.25"/>
<text text-anchor="middle" x="152.75" y="-5.75" font-family="Helvetica,sans-Serif" font-size="10.00">stdint.h</text>
</a>
</g>
</g>
<!-- Node4&#45;&gt;Node6 -->
<g id="edge6" class="edge">
<title>Node4&#45;&gt;Node6</title>
<path fill="none" stroke="#63b8ff" d="M141.9,-55.08C143.54,-48.34 145.88,-38.77 147.96,-30.24"/>
<polygon fill="#63b8ff" stroke="#63b8ff" points="151.59,-31.15 150.56,-20.61 144.78,-29.49 151.59,-31.15"/>
</g>
<!-- Node7 -->
<g id="node7" class="node">
<title>Node7</title>
<g id="a_node7"><a xlink:title=" ">
<polygon fill="#e0e0e0" stroke="#999999" points="234.38,-19.25 195.12,-19.25 195.12,0 234.38,0 234.38,-19.25"/>
<text text-anchor="middle" x="214.75" y="-5.75" font-family="Helvetica,sans-Serif" font-size="10.00">zlib.h</text>
</a>
</g>
</g>
<!-- Node4&#45;&gt;Node7 -->
<g id="edge7" class="edge">
<title>Node4&#45;&gt;Node7</title>
<path fill="none" stroke="#63b8ff" d="M152.47,-54.84C163.57,-46.96 179.91,-35.36 193.07,-26.02"/>
<polygon fill="#63b8ff" stroke="#63b8ff" points="194.84,-28.35 200.96,-19.7 190.78,-22.64 194.84,-28.35"/>
</g>
</g>
</svg>
