<?xml version="1.0" encoding="UTF-8" standalone="no"?>
<!DOCTYPE svg PUBLIC "-//W3C//DTD SVG 1.1//EN"
 "http://www.w3.org/Graphics/SVG/1.1/DTD/svg11.dtd">
<!-- Generated by graphviz version 7.0.5 (20221223.1930)
 -->
<!-- Title: Source/ARX/ARUtil/ioapi.h Pages: 1 -->
<svg width="515pt" height="148pt"
 viewBox="0.00 0.00 514.50 148.00" xmlns="http://www.w3.org/2000/svg" xmlns:xlink="http://www.w3.org/1999/xlink">
<g id="graph0" class="graph" transform="scale(1 1) rotate(0) translate(4 144)">
<title>Source/ARX/ARUtil/ioapi.h</title>
<!-- Node1 -->
<g id="node1" class="node">
<title>Node1</title>
<g id="a_node1"><a xlink:title=" ">
<polygon fill="#999999" stroke="#666666" points="290,-140 155,-140 155,-121 290,-121 290,-140"/>
<text text-anchor="middle" x="222.5" y="-128" font-family="Helvetica,sans-Serif" font-size="10.00">Source/ARX/ARUtil/ioapi.h</text>
</a>
</g>
</g>
<!-- Node2 -->
<g id="node2" class="node">
<title>Node2</title>
<g id="a_node2"><a xlink:href="ioapi_8c.html" target="_top" xlink:title=" ">
<polygon fill="white" stroke="#666666" points="135,-85 0,-85 0,-66 135,-66 135,-85"/>
<text text-anchor="middle" x="67.5" y="-73" font-family="Helvetica,sans-Serif" font-size="10.00">Source/ARX/ARUtil/ioapi.c</text>
</a>
</g>
</g>
<!-- Node1&#45;&gt;Node2 -->
<g id="edge1" class="edge">
<title>Node1&#45;&gt;Node2</title>
<path fill="none" stroke="#63b8ff" d="M185.52,-116.85C157.2,-107.17 118.86,-94.06 93.66,-85.45"/>
<polygon fill="#63b8ff" stroke="#63b8ff" points="184.18,-120.1 194.77,-120.02 186.44,-113.47 184.18,-120.1"/>
</g>
<!-- Node3 -->
<g id="node3" class="node">
<title>Node3</title>
<g id="a_node3"><a xlink:href="unzip_8h.html" target="_top" xlink:title=" ">
<polygon fill="white" stroke="#666666" points="291.5,-85 153.5,-85 153.5,-66 291.5,-66 291.5,-85"/>
<text text-anchor="middle" x="222.5" y="-73" font-family="Helvetica,sans-Serif" font-size="10.00">Source/ARX/ARUtil/unzip.h</text>
</a>
</g>
</g>
<!-- Node1&#45;&gt;Node3 -->
<g id="edge2" class="edge">
<title>Node1&#45;&gt;Node3</title>
<path fill="none" stroke="#63b8ff" d="M222.5,-109.35C222.5,-101.1 222.5,-91.97 222.5,-85.44"/>
<polygon fill="#63b8ff" stroke="#63b8ff" points="219,-109.23 222.5,-119.23 226,-109.23 219,-109.23"/>
</g>
<!-- Node6 -->
<g id="node6" class="node">
<title>Node6</title>
<g id="a_node6"><a xlink:href="zip_8h.html" target="_top" xlink:title=" ">
<polygon fill="white" stroke="#666666" points="437.5,-85 309.5,-85 309.5,-66 437.5,-66 437.5,-85"/>
<text text-anchor="middle" x="373.5" y="-73" font-family="Helvetica,sans-Serif" font-size="10.00">Source/ARX/ARUtil/zip.h</text>
</a>
</g>
</g>
<!-- Node1&#45;&gt;Node6 -->
<g id="edge5" class="edge">
<title>Node1&#45;&gt;Node6</title>
<path fill="none" stroke="#63b8ff" d="M258.9,-116.73C286.44,-107.06 323.58,-94.02 348.01,-85.45"/>
<polygon fill="#63b8ff" stroke="#63b8ff" points="257.82,-113.39 249.54,-120.01 260.14,-120 257.82,-113.39"/>
</g>
<!-- Node4 -->
<g id="node4" class="node">
<title>Node4</title>
<g id="a_node4"><a xlink:href="file__utils_8c.html" target="_top" xlink:title=" ">
<polygon fill="white" stroke="#666666" points="360,-30 241,-30 241,0 360,0 360,-30"/>
<text text-anchor="start" x="249" y="-18" font-family="Helvetica,sans-Serif" font-size="10.00">Source/ARX/ARUtil/file</text>
<text text-anchor="middle" x="300.5" y="-7" font-family="Helvetica,sans-Serif" font-size="10.00">_utils.c</text>
</a>
</g>
</g>
<!-- Node3&#45;&gt;Node4 -->
<g id="edge3" class="edge">
<title>Node3&#45;&gt;Node4</title>
<path fill="none" stroke="#63b8ff" d="M243.43,-58.8C255.2,-49.98 269.77,-39.05 281.25,-30.44"/>
<polygon fill="#63b8ff" stroke="#63b8ff" points="241.46,-55.91 235.56,-64.71 245.66,-61.51 241.46,-55.91"/>
</g>
<!-- Node5 -->
<g id="node5" class="node">
<title>Node5</title>
<g id="a_node5"><a xlink:href="unzip_8c.html" target="_top" xlink:title=" ">
<polygon fill="white" stroke="#666666" points="222.5,-24.5 84.5,-24.5 84.5,-5.5 222.5,-5.5 222.5,-24.5"/>
<text text-anchor="middle" x="153.5" y="-12.5" font-family="Helvetica,sans-Serif" font-size="10.00">Source/ARX/ARUtil/unzip.c</text>
</a>
</g>
</g>
<!-- Node3&#45;&gt;Node5 -->
<g id="edge4" class="edge">
<title>Node3&#45;&gt;Node5</title>
<path fill="none" stroke="#63b8ff" d="M203.53,-58.41C190.81,-47.64 174.55,-33.85 164.08,-24.97"/>
<polygon fill="#63b8ff" stroke="#63b8ff" points="200.97,-60.84 210.87,-64.64 205.5,-55.5 200.97,-60.84"/>
</g>
<!-- Node6&#45;&gt;Node4 -->
<g id="edge6" class="edge">
<title>Node6&#45;&gt;Node4</title>
<path fill="none" stroke="#63b8ff" d="M353.58,-58.53C342.63,-49.76 329.15,-38.96 318.52,-30.44"/>
<polygon fill="#63b8ff" stroke="#63b8ff" points="351.24,-61.15 361.23,-64.67 355.62,-55.68 351.24,-61.15"/>
</g>
<!-- Node7 -->
<g id="node7" class="node">
<title>Node7</title>
<g id="a_node7"><a xlink:href="zip_8c.html" target="_top" xlink:title=" ">
<polygon fill="white" stroke="#666666" points="506.5,-24.5 378.5,-24.5 378.5,-5.5 506.5,-5.5 506.5,-24.5"/>
<text text-anchor="middle" x="442.5" y="-12.5" font-family="Helvetica,sans-Serif" font-size="10.00">Source/ARX/ARUtil/zip.c</text>
</a>
</g>
</g>
<!-- Node6&#45;&gt;Node7 -->
<g id="edge7" class="edge">
<title>Node6&#45;&gt;Node7</title>
<path fill="none" stroke="#63b8ff" d="M392.47,-58.41C405.19,-47.64 421.45,-33.85 431.92,-24.97"/>
<polygon fill="#63b8ff" stroke="#63b8ff" points="390.5,-55.5 385.13,-64.64 395.03,-60.84 390.5,-55.5"/>
</g>
</g>
</svg>
