<?xml version="1.0" encoding="UTF-8" standalone="no"?>
<!DOCTYPE svg PUBLIC "-//W3C//DTD SVG 1.1//EN"
 "http://www.w3.org/Graphics/SVG/1.1/DTD/svg11.dtd">
<!-- Generated by graphviz version 7.0.5 (20221223.1930)
 -->
<!-- Title: Source/ARX/ARUtil/ioapi.c Pages: 1 -->
<svg width="246pt" height="137pt"
 viewBox="0.00 0.00 246.00 137.00" xmlns="http://www.w3.org/2000/svg" xmlns:xlink="http://www.w3.org/1999/xlink">
<g id="graph0" class="graph" transform="scale(1 1) rotate(0) translate(4 133)">
<title>Source/ARX/ARUtil/ioapi.c</title>
<!-- Node1 -->
<g id="node1" class="node">
<title>Node1</title>
<g id="a_node1"><a xlink:title=" ">
<polygon fill="#999999" stroke="#666666" points="144.5,-129 9.5,-129 9.5,-110 144.5,-110 144.5,-129"/>
<text text-anchor="middle" x="77" y="-117" font-family="Helvetica,sans-Serif" font-size="10.00">Source/ARX/ARUtil/ioapi.c</text>
</a>
</g>
</g>
<!-- Node2 -->
<g id="node2" class="node">
<title>Node2</title>
<g id="a_node2"><a xlink:title=" ">
<polygon fill="#e0e0e0" stroke="#999999" points="48,-19 0,-19 0,0 48,0 48,-19"/>
<text text-anchor="middle" x="24" y="-7" font-family="Helvetica,sans-Serif" font-size="10.00">stdlib.h</text>
</a>
</g>
</g>
<!-- Node1&#45;&gt;Node2 -->
<g id="edge1" class="edge">
<title>Node1&#45;&gt;Node2</title>
<path fill="none" stroke="#63b8ff" d="M68.64,-109.62C61.01,-101.08 49.89,-87.51 43,-74 35.87,-60.02 30.94,-42.91 27.9,-29.97"/>
<polygon fill="#63b8ff" stroke="#63b8ff" points="31.4,-29.6 25.86,-20.57 24.56,-31.08 31.4,-29.6"/>
</g>
<!-- Node3 -->
<g id="node3" class="node">
<title>Node3</title>
<g id="a_node3"><a xlink:title=" ">
<polygon fill="#e0e0e0" stroke="#999999" points="101.5,-74 52.5,-74 52.5,-55 101.5,-55 101.5,-74"/>
<text text-anchor="middle" x="77" y="-62" font-family="Helvetica,sans-Serif" font-size="10.00">string.h</text>
</a>
</g>
</g>
<!-- Node1&#45;&gt;Node3 -->
<g id="edge2" class="edge">
<title>Node1&#45;&gt;Node3</title>
<path fill="none" stroke="#63b8ff" d="M77,-109.75C77,-103.27 77,-94.16 77,-85.9"/>
<polygon fill="#63b8ff" stroke="#63b8ff" points="80.5,-85.96 77,-75.96 73.5,-85.96 80.5,-85.96"/>
</g>
<!-- Node4 -->
<g id="node4" class="node">
<title>Node4</title>
<g id="a_node4"><a xlink:href="ioapi_8h.html" target="_top" xlink:title=" ">
<polygon fill="white" stroke="#666666" points="164.5,-74 119.5,-74 119.5,-55 164.5,-55 164.5,-74"/>
<text text-anchor="middle" x="142" y="-62" font-family="Helvetica,sans-Serif" font-size="10.00">ioapi.h</text>
</a>
</g>
</g>
<!-- Node1&#45;&gt;Node4 -->
<g id="edge3" class="edge">
<title>Node1&#45;&gt;Node4</title>
<path fill="none" stroke="#63b8ff" d="M88.03,-109.51C97.42,-101.85 111.15,-90.66 122.41,-81.47"/>
<polygon fill="#63b8ff" stroke="#63b8ff" points="124.43,-84.35 129.96,-75.31 120,-78.92 124.43,-84.35"/>
</g>
<!-- Node4&#45;&gt;Node2 -->
<g id="edge5" class="edge">
<title>Node4&#45;&gt;Node2</title>
<path fill="none" stroke="#63b8ff" d="M121.98,-54.51C103.39,-46.16 75.46,-33.61 54.17,-24.05"/>
<polygon fill="#63b8ff" stroke="#63b8ff" points="55.66,-20.88 45.1,-19.98 52.79,-27.27 55.66,-20.88"/>
</g>
<!-- Node5 -->
<g id="node5" class="node">
<title>Node5</title>
<g id="a_node5"><a xlink:title=" ">
<polygon fill="#e0e0e0" stroke="#999999" points="112,-19 66,-19 66,0 112,0 112,-19"/>
<text text-anchor="middle" x="89" y="-7" font-family="Helvetica,sans-Serif" font-size="10.00">stdio.h</text>
</a>
</g>
</g>
<!-- Node4&#45;&gt;Node5 -->
<g id="edge4" class="edge">
<title>Node4&#45;&gt;Node5</title>
<path fill="none" stroke="#63b8ff" d="M133.25,-54.75C125.85,-47.35 115.04,-36.54 105.95,-27.45"/>
<polygon fill="#63b8ff" stroke="#63b8ff" points="108.56,-25.11 99.01,-20.51 103.61,-30.06 108.56,-25.11"/>
</g>
<!-- Node6 -->
<g id="node6" class="node">
<title>Node6</title>
<g id="a_node6"><a xlink:title=" ">
<polygon fill="#e0e0e0" stroke="#999999" points="179.5,-19 130.5,-19 130.5,0 179.5,0 179.5,-19"/>
<text text-anchor="middle" x="155" y="-7" font-family="Helvetica,sans-Serif" font-size="10.00">stdint.h</text>
</a>
</g>
</g>
<!-- Node4&#45;&gt;Node6 -->
<g id="edge6" class="edge">
<title>Node4&#45;&gt;Node6</title>
<path fill="none" stroke="#63b8ff" d="M144.15,-54.75C145.76,-48.19 148.02,-38.95 150.07,-30.6"/>
<polygon fill="#63b8ff" stroke="#63b8ff" points="153.46,-31.46 152.45,-20.91 146.66,-29.79 153.46,-31.46"/>
</g>
<!-- Node7 -->
<g id="node7" class="node">
<title>Node7</title>
<g id="a_node7"><a xlink:title=" ">
<polygon fill="#e0e0e0" stroke="#999999" points="238,-19 198,-19 198,0 238,0 238,-19"/>
<text text-anchor="middle" x="218" y="-7" font-family="Helvetica,sans-Serif" font-size="10.00">zlib.h</text>
</a>
</g>
</g>
<!-- Node4&#45;&gt;Node7 -->
<g id="edge7" class="edge">
<title>Node4&#45;&gt;Node7</title>
<path fill="none" stroke="#63b8ff" d="M154.89,-54.51C166.1,-46.7 182.57,-35.21 195.88,-25.93"/>
<polygon fill="#63b8ff" stroke="#63b8ff" points="197.86,-28.81 204.06,-20.22 193.85,-23.07 197.86,-28.81"/>
</g>
</g>
</svg>
