<?xml version="1.0" encoding="UTF-8" standalone="no"?>
<!DOCTYPE svg PUBLIC "-//W3C//DTD SVG 1.1//EN"
 "http://www.w3.org/Graphics/SVG/1.1/DTD/svg11.dtd">
<!-- Generated by graphviz version 8.0.5 (20230430.1635)
 -->
<!-- Title: Source/ARX/ARUtil/ioapi.h Pages: 1 -->
<svg width="511pt" height="149pt"
 viewBox="0.00 0.00 510.75 149.00" xmlns="http://www.w3.org/2000/svg" xmlns:xlink="http://www.w3.org/1999/xlink">
<g id="graph0" class="graph" transform="scale(1 1) rotate(0) translate(4 145)">
<title>Source/ARX/ARUtil/ioapi.h</title>
<!-- Node1 -->
<g id="node1" class="node">
<title>Node1</title>
<g id="a_node1"><a xlink:title=" ">
<polygon fill="#999999" stroke="#666666" points="288.5,-141 154,-141 154,-121.75 288.5,-121.75 288.5,-141"/>
<text text-anchor="middle" x="221.25" y="-127.5" font-family="Helvetica,sans-Serif" font-size="10.00">Source/ARX/ARUtil/ioapi.h</text>
</a>
</g>
</g>
<!-- Node2 -->
<g id="node2" class="node">
<title>Node2</title>
<g id="a_node2"><a xlink:href="ioapi_8c.html" target="_top" xlink:title=" ">
<polygon fill="white" stroke="#666666" points="134.5,-85.75 0,-85.75 0,-66.5 134.5,-66.5 134.5,-85.75"/>
<text text-anchor="middle" x="67.25" y="-72.25" font-family="Helvetica,sans-Serif" font-size="10.00">Source/ARX/ARUtil/ioapi.c</text>
</a>
</g>
</g>
<!-- Node1&#45;&gt;Node2 -->
<g id="edge1" class="edge">
<title>Node1&#45;&gt;Node2</title>
<path fill="none" stroke="#63b8ff" d="M184.91,-117.81C156.84,-108.1 118.66,-94.9 93.5,-86.2"/>
<polygon fill="#63b8ff" stroke="#63b8ff" points="183.53,-121.38 194.13,-121.34 185.82,-114.77 183.53,-121.38"/>
</g>
<!-- Node3 -->
<g id="node3" class="node">
<title>Node3</title>
<g id="a_node3"><a xlink:href="unzip_8h.html" target="_top" xlink:title=" ">
<polygon fill="white" stroke="#666666" points="290,-85.75 152.5,-85.75 152.5,-66.5 290,-66.5 290,-85.75"/>
<text text-anchor="middle" x="221.25" y="-72.25" font-family="Helvetica,sans-Serif" font-size="10.00">Source/ARX/ARUtil/unzip.h</text>
</a>
</g>
</g>
<!-- Node1&#45;&gt;Node3 -->
<g id="edge2" class="edge">
<title>Node1&#45;&gt;Node3</title>
<path fill="none" stroke="#63b8ff" d="M221.25,-110.71C221.25,-102.27 221.25,-92.83 221.25,-86.11"/>
<polygon fill="#63b8ff" stroke="#63b8ff" points="217.75,-110.58 221.25,-120.58 224.75,-110.58 217.75,-110.58"/>
</g>
<!-- Node6 -->
<g id="node6" class="node">
<title>Node6</title>
<g id="a_node6"><a xlink:href="zip_8h.html" target="_top" xlink:title=" ">
<polygon fill="white" stroke="#666666" points="434.75,-85.75 307.75,-85.75 307.75,-66.5 434.75,-66.5 434.75,-85.75"/>
<text text-anchor="middle" x="371.25" y="-72.25" font-family="Helvetica,sans-Serif" font-size="10.00">Source/ARX/ARUtil/zip.h</text>
</a>
</g>
</g>
<!-- Node1&#45;&gt;Node6 -->
<g id="edge5" class="edge">
<title>Node1&#45;&gt;Node6</title>
<path fill="none" stroke="#63b8ff" d="M257.01,-117.68C284.32,-107.99 321.29,-94.86 345.68,-86.2"/>
<polygon fill="#63b8ff" stroke="#63b8ff" points="255.95,-114.7 247.7,-121.34 258.29,-121.29 255.95,-114.7"/>
</g>
<!-- Node4 -->
<g id="node4" class="node">
<title>Node4</title>
<g id="a_node4"><a xlink:href="file__utils_8c.html" target="_top" xlink:title=" ">
<polygon fill="white" stroke="#666666" points="357.62,-30.5 238.88,-30.5 238.88,0 357.62,0 357.62,-30.5"/>
<text text-anchor="start" x="246.88" y="-17" font-family="Helvetica,sans-Serif" font-size="10.00">Source/ARX/ARUtil/file</text>
<text text-anchor="middle" x="298.25" y="-5.75" font-family="Helvetica,sans-Serif" font-size="10.00">_utils.c</text>
</a>
</g>
</g>
<!-- Node3&#45;&gt;Node4 -->
<g id="edge3" class="edge">
<title>Node3&#45;&gt;Node4</title>
<path fill="none" stroke="#63b8ff" d="M241.57,-59.59C253.24,-50.67 267.8,-39.53 279.24,-30.78"/>
<polygon fill="#63b8ff" stroke="#63b8ff" points="239.76,-57.33 233.94,-66.18 244.01,-62.89 239.76,-57.33"/>
</g>
<!-- Node5 -->
<g id="node5" class="node">
<title>Node5</title>
<g id="a_node5"><a xlink:href="unzip_8c.html" target="_top" xlink:title=" ">
<polygon fill="white" stroke="#666666" points="221,-24.88 83.5,-24.88 83.5,-5.63 221,-5.63 221,-24.88"/>
<text text-anchor="middle" x="152.25" y="-11.38" font-family="Helvetica,sans-Serif" font-size="10.00">Source/ARX/ARUtil/unzip.c</text>
</a>
</g>
</g>
<!-- Node3&#45;&gt;Node5 -->
<g id="edge4" class="edge">
<title>Node3&#45;&gt;Node5</title>
<path fill="none" stroke="#63b8ff" d="M202.65,-59.25C189.88,-48.36 173.4,-34.3 162.83,-25.28"/>
<polygon fill="#63b8ff" stroke="#63b8ff" points="199.89,-62.35 209.77,-66.18 204.44,-57.03 199.89,-62.35"/>
</g>
<!-- Node6&#45;&gt;Node4 -->
<g id="edge6" class="edge">
<title>Node6&#45;&gt;Node4</title>
<path fill="none" stroke="#63b8ff" d="M351.66,-59.32C340.65,-50.45 327.01,-39.44 316.27,-30.78"/>
<polygon fill="#63b8ff" stroke="#63b8ff" points="349.18,-62.63 359.16,-66.18 353.58,-57.18 349.18,-62.63"/>
</g>
<!-- Node7 -->
<g id="node7" class="node">
<title>Node7</title>
<g id="a_node7"><a xlink:href="zip_8c.html" target="_top" xlink:title=" ">
<polygon fill="white" stroke="#666666" points="502.75,-24.88 375.75,-24.88 375.75,-5.63 502.75,-5.63 502.75,-24.88"/>
<text text-anchor="middle" x="439.25" y="-11.38" font-family="Helvetica,sans-Serif" font-size="10.00">Source/ARX/ARUtil/zip.c</text>
</a>
</g>
</g>
<!-- Node6&#45;&gt;Node7 -->
<g id="edge7" class="edge">
<title>Node6&#45;&gt;Node7</title>
<path fill="none" stroke="#63b8ff" d="M389.58,-59.25C402.16,-48.36 418.4,-34.3 428.83,-25.28"/>
<polygon fill="#63b8ff" stroke="#63b8ff" points="387.85,-56.99 382.58,-66.18 392.43,-62.28 387.85,-56.99"/>
</g>
</g>
</svg>
