<?xml version="1.0" encoding="UTF-8" standalone="no"?>
<!DOCTYPE svg PUBLIC "-//W3C//DTD SVG 1.1//EN"
 "http://www.w3.org/Graphics/SVG/1.1/DTD/svg11.dtd">
<!-- Generated by graphviz version 2.40.1 (20161225.0304)
 -->
<!-- Title: Source/ARX/AR2/jpeg.c Pages: 1 -->
<svg width="1117pt" height="192pt"
 viewBox="0.00 0.00 1116.92 192.00" xmlns="http://www.w3.org/2000/svg" xmlns:xlink="http://www.w3.org/1999/xlink">
<g id="graph0" class="graph" transform="scale(1 1) rotate(0) translate(4 188)">
<title>Source/ARX/AR2/jpeg.c</title>
<polygon fill="#ffffff" stroke="transparent" points="-4,4 -4,-188 1112.9179,-188 1112.9179,4 -4,4"/>
<!-- Node0 -->
<g id="node1" class="node">
<title>Node0</title>
<polygon fill="#bfbfbf" stroke="#000000" points="415.2114,-165.5 415.2114,-183.5 537.9301,-183.5 537.9301,-165.5 415.2114,-165.5"/>
<text text-anchor="middle" x="476.5707" y="-171.5" font-family="Helvetica,sans-Serif" font-size="10.00" fill="#000000">Source/ARX/AR2/jpeg.c</text>
</g>
<!-- Node1 -->
<g id="node2" class="node">
<title>Node1</title>
<g id="a_node2"><a xlink:href="ar_8h.html" target="_top" xlink:title="artoolkitX core routines. ">
<polygon fill="#ffffff" stroke="#000000" points="517.2236,-110.5 517.2236,-128.5 589.9179,-128.5 589.9179,-110.5 517.2236,-110.5"/>
<text text-anchor="middle" x="553.5707" y="-116.5" font-family="Helvetica,sans-Serif" font-size="10.00" fill="#000000">ARX/AR/ar.h</text>
</a>
</g>
</g>
<!-- Node0&#45;&gt;Node1 -->
<g id="edge1" class="edge">
<title>Node0&#45;&gt;Node1</title>
<path fill="none" stroke="#191970" d="M489.2857,-165.4179C500.989,-157.0584 518.5755,-144.4966 532.3973,-134.6239"/>
<polygon fill="#191970" stroke="#191970" points="534.7339,-137.2561 540.8369,-128.5956 530.6652,-131.56 534.7339,-137.2561"/>
</g>
<!-- Node2 -->
<g id="node3" class="node">
<title>Node2</title>
<polygon fill="#ffffff" stroke="#bfbfbf" points="74.8393,-.5 74.8393,-18.5 120.3022,-18.5 120.3022,-.5 74.8393,-.5"/>
<text text-anchor="middle" x="97.5707" y="-6.5" font-family="Helvetica,sans-Serif" font-size="10.00" fill="#000000">stdio.h</text>
</g>
<!-- Node0&#45;&gt;Node2 -->
<g id="edge25" class="edge">
<title>Node0&#45;&gt;Node2</title>
<path fill="none" stroke="#191970" d="M414.8718,-173.038C293.7905,-169.5286 34.4431,-158.6055 7.5707,-129 -4.1907,-116.0424 -2.1897,-82.8695 17.5707,-55 29.0817,-38.7653 48.3294,-27.5574 65.0604,-20.3279"/>
<polygon fill="#191970" stroke="#191970" points="66.5655,-23.4953 74.543,-16.5232 63.9588,-16.9987 66.5655,-23.4953"/>
</g>
<!-- Node3 -->
<g id="node4" class="node">
<title>Node3</title>
<polygon fill="#ffffff" stroke="#bfbfbf" points="254.7285,-.5 254.7285,-18.5 302.413,-18.5 302.413,-.5 254.7285,-.5"/>
<text text-anchor="middle" x="278.5707" y="-6.5" font-family="Helvetica,sans-Serif" font-size="10.00" fill="#000000">stdlib.h</text>
</g>
<!-- Node0&#45;&gt;Node3 -->
<g id="edge26" class="edge">
<title>Node0&#45;&gt;Node3</title>
<path fill="none" stroke="#191970" d="M456.6095,-165.4661C424.5377,-150.2079 360.8545,-116.7692 318.5707,-74 305.1527,-60.4279 294.1134,-41.5658 287.0565,-27.7446"/>
<polygon fill="#191970" stroke="#191970" points="290.1809,-26.1663 282.6448,-18.7193 283.892,-29.2404 290.1809,-26.1663"/>
</g>
<!-- Node5 -->
<g id="node6" class="node">
<title>Node5</title>
<polygon fill="#ffffff" stroke="#bfbfbf" points="595.1743,-.5 595.1743,-18.5 643.9672,-18.5 643.9672,-.5 595.1743,-.5"/>
<text text-anchor="middle" x="619.5707" y="-6.5" font-family="Helvetica,sans-Serif" font-size="10.00" fill="#000000">string.h</text>
</g>
<!-- Node0&#45;&gt;Node5 -->
<g id="edge27" class="edge">
<title>Node0&#45;&gt;Node5</title>
<path fill="none" stroke="#191970" d="M478.1463,-165.2038C482.2917,-143.3469 495.405,-88.0521 526.5707,-55 542.4271,-38.1839 565.8178,-26.7815 585.1736,-19.5969"/>
<polygon fill="#191970" stroke="#191970" points="586.5759,-22.8148 594.8664,-16.218 584.2716,-16.2049 586.5759,-22.8148"/>
</g>
<!-- Node18 -->
<g id="node19" class="node">
<title>Node18</title>
<polygon fill="#ffffff" stroke="#bfbfbf" points="607.9453,-110.5 607.9453,-128.5 661.1962,-128.5 661.1962,-110.5 607.9453,-110.5"/>
<text text-anchor="middle" x="634.5707" y="-116.5" font-family="Helvetica,sans-Serif" font-size="10.00" fill="#000000">jpeglib.h</text>
</g>
<!-- Node0&#45;&gt;Node18 -->
<g id="edge28" class="edge">
<title>Node0&#45;&gt;Node18</title>
<path fill="none" stroke="#191970" d="M502.6612,-165.4179C528.9269,-156.2748 569.6339,-142.1046 598.8799,-131.924"/>
<polygon fill="#191970" stroke="#191970" points="600.4106,-135.0973 608.7041,-128.5042 598.1093,-128.4863 600.4106,-135.0973"/>
</g>
<!-- Node19 -->
<g id="node20" class="node">
<title>Node19</title>
<polygon fill="#ffffff" stroke="#bfbfbf" points="679.6743,-110.5 679.6743,-128.5 733.4672,-128.5 733.4672,-110.5 679.6743,-110.5"/>
<text text-anchor="middle" x="706.5707" y="-116.5" font-family="Helvetica,sans-Serif" font-size="10.00" fill="#000000">setjmp.h</text>
</g>
<!-- Node0&#45;&gt;Node19 -->
<g id="edge29" class="edge">
<title>Node0&#45;&gt;Node19</title>
<path fill="none" stroke="#191970" d="M516.404,-165.4963C553.605,-157.012 610.9212,-143.7484 669.6469,-129.1829"/>
<polygon fill="#191970" stroke="#191970" points="670.6063,-132.551 679.4646,-126.7388 668.9152,-125.7583 670.6063,-132.551"/>
</g>
<!-- Node20 -->
<g id="node21" class="node">
<title>Node20</title>
<g id="a_node21"><a xlink:href="image_format_8h.html" target="_top" xlink:title="ARX/AR2/imageFormat.h">
<polygon fill="#ffffff" stroke="#000000" points="16.162,-110.5 16.162,-128.5 144.9794,-128.5 144.9794,-110.5 16.162,-110.5"/>
<text text-anchor="middle" x="80.5707" y="-116.5" font-family="Helvetica,sans-Serif" font-size="10.00" fill="#000000">ARX/AR2/imageFormat.h</text>
</a>
</g>
</g>
<!-- Node0&#45;&gt;Node20 -->
<g id="edge30" class="edge">
<title>Node0&#45;&gt;Node20</title>
<path fill="none" stroke="#191970" d="M415.1302,-165.9666C345.104,-156.2407 230.6457,-140.3437 155.4566,-129.9008"/>
<polygon fill="#191970" stroke="#191970" points="155.5029,-126.3737 145.1165,-128.4647 154.5399,-133.3072 155.5029,-126.3737"/>
</g>
<!-- Node1&#45;&gt;Node2 -->
<g id="edge2" class="edge">
<title>Node1&#45;&gt;Node2</title>
<path fill="none" stroke="#191970" d="M517.178,-117.7294C434.8271,-113.3059 236.6163,-100.1969 175.5707,-74 150.5013,-63.2418 127.1518,-41.8106 112.6561,-26.6081"/>
<polygon fill="#191970" stroke="#191970" points="114.9108,-23.8902 105.5591,-18.9105 109.7643,-28.6351 114.9108,-23.8902"/>
</g>
<!-- Node1&#45;&gt;Node3 -->
<g id="edge3" class="edge">
<title>Node1&#45;&gt;Node3</title>
<path fill="none" stroke="#191970" d="M516.9638,-117.2621C474.1478,-113.3632 402.1812,-102.7469 347.5707,-74 325.252,-62.2514 304.844,-41.3363 292.1077,-26.511"/>
<polygon fill="#191970" stroke="#191970" points="294.6202,-24.0581 285.5388,-18.6011 289.2351,-28.5303 294.6202,-24.0581"/>
</g>
<!-- Node4 -->
<g id="node5" class="node">
<title>Node4</title>
<polygon fill="#ffffff" stroke="#bfbfbf" points="542.4501,-55.5 542.4501,-73.5 590.6913,-73.5 590.6913,-55.5 542.4501,-55.5"/>
<text text-anchor="middle" x="566.5707" y="-61.5" font-family="Helvetica,sans-Serif" font-size="10.00" fill="#000000">stdint.h</text>
</g>
<!-- Node1&#45;&gt;Node4 -->
<g id="edge4" class="edge">
<title>Node1&#45;&gt;Node4</title>
<path fill="none" stroke="#191970" d="M555.7174,-110.4179C557.4383,-103.1372 559.9126,-92.669 562.0643,-83.5659"/>
<polygon fill="#191970" stroke="#191970" points="565.4832,-84.3164 564.3774,-73.7795 558.6709,-82.7062 565.4832,-84.3164"/>
</g>
<!-- Node1&#45;&gt;Node5 -->
<g id="edge5" class="edge">
<title>Node1&#45;&gt;Node5</title>
<path fill="none" stroke="#191970" d="M546.1336,-110.1641C536.6791,-97.0768 522.8042,-72.8767 533.5707,-55 539.7197,-44.7903 565.2219,-32.0107 586.8724,-22.5969"/>
<polygon fill="#191970" stroke="#191970" points="588.3172,-25.7859 596.1558,-18.658 585.583,-19.342 588.3172,-25.7859"/>
</g>
<!-- Node6 -->
<g id="node7" class="node">
<title>Node6</title>
<polygon fill="#ffffff" stroke="#bfbfbf" points="662.0536,-.5 662.0536,-18.5 753.0878,-18.5 753.0878,-.5 662.0536,-.5"/>
<text text-anchor="middle" x="707.5707" y="-6.5" font-family="Helvetica,sans-Serif" font-size="10.00" fill="#000000">ARX/AR/config.h</text>
</g>
<!-- Node1&#45;&gt;Node6 -->
<g id="edge6" class="edge">
<title>Node1&#45;&gt;Node6</title>
<path fill="none" stroke="#191970" d="M564.7714,-110.4488C580.6776,-97.6997 610.8507,-73.8989 637.5707,-55 652.7622,-44.2552 670.3203,-32.8449 684.0515,-24.1386"/>
<polygon fill="#191970" stroke="#191970" points="686.2737,-26.8754 692.8701,-18.5845 682.5432,-20.9522 686.2737,-26.8754"/>
</g>
<!-- Node7 -->
<g id="node8" class="node">
<title>Node7</title>
<g id="a_node8"><a xlink:href="ar_config_8h.html" target="_top" xlink:title="ARX/AR/arConfig.h">
<polygon fill="#ffffff" stroke="#000000" points="786.497,-55.5 786.497,-73.5 888.6445,-73.5 888.6445,-55.5 786.497,-55.5"/>
<text text-anchor="middle" x="837.5707" y="-61.5" font-family="Helvetica,sans-Serif" font-size="10.00" fill="#000000">ARX/AR/arConfig.h</text>
</a>
</g>
</g>
<!-- Node1&#45;&gt;Node7 -->
<g id="edge7" class="edge">
<title>Node1&#45;&gt;Node7</title>
<path fill="none" stroke="#191970" d="M590.3954,-111.6635C593.1606,-111.0942 595.909,-110.5343 598.5707,-110 659.8504,-97.6998 730.1408,-84.4171 778.5507,-75.3973"/>
<polygon fill="#191970" stroke="#191970" points="779.3466,-78.8094 788.5376,-73.5392 778.0661,-71.9275 779.3466,-78.8094"/>
</g>
<!-- Node8 -->
<g id="node9" class="node">
<title>Node8</title>
<g id="a_node9"><a xlink:href="log_8h.html" target="_top" xlink:title="Logging utilities. ">
<polygon fill="#ffffff" stroke="#000000" points="356.5019,-55.5 356.5019,-73.5 448.6396,-73.5 448.6396,-55.5 356.5019,-55.5"/>
<text text-anchor="middle" x="402.5707" y="-61.5" font-family="Helvetica,sans-Serif" font-size="10.00" fill="#000000">ARX/ARUtil/log.h</text>
</a>
</g>
</g>
<!-- Node1&#45;&gt;Node8 -->
<g id="edge8" class="edge">
<title>Node1&#45;&gt;Node8</title>
<path fill="none" stroke="#191970" d="M528.6362,-110.4179C503.6438,-101.3147 464.9701,-87.2283 437.0471,-77.0576"/>
<polygon fill="#191970" stroke="#191970" points="437.8854,-73.6381 427.2914,-73.5042 435.4896,-80.2153 437.8854,-73.6381"/>
</g>
<!-- Node12 -->
<g id="node13" class="node">
<title>Node12</title>
<g id="a_node13"><a xlink:href="matrix_8h.html" target="_top" xlink:title="ARX/AR/matrix.h">
<polygon fill="#ffffff" stroke="#000000" points="906.7851,-55.5 906.7851,-73.5 998.3564,-73.5 998.3564,-55.5 906.7851,-55.5"/>
<text text-anchor="middle" x="952.5707" y="-61.5" font-family="Helvetica,sans-Serif" font-size="10.00" fill="#000000">ARX/AR/matrix.h</text>
</a>
</g>
</g>
<!-- Node1&#45;&gt;Node12 -->
<g id="edge15" class="edge">
<title>Node1&#45;&gt;Node12</title>
<path fill="none" stroke="#191970" d="M590.3577,-111.4578C593.1316,-110.936 595.8923,-110.4431 598.5707,-110 727.4007,-88.6883 763.3919,-93.1575 896.5039,-74.0839"/>
<polygon fill="#191970" stroke="#191970" points="897.289,-77.5068 906.6828,-72.607 896.2838,-70.5793 897.289,-77.5068"/>
</g>
<!-- Node14 -->
<g id="node15" class="node">
<title>Node14</title>
<g id="a_node15"><a xlink:href="icp_8h.html" target="_top" xlink:title="ARX/AR/icp.h">
<polygon fill="#ffffff" stroke="#000000" points="185.0043,-55.5 185.0043,-73.5 262.1371,-73.5 262.1371,-55.5 185.0043,-55.5"/>
<text text-anchor="middle" x="223.5707" y="-61.5" font-family="Helvetica,sans-Serif" font-size="10.00" fill="#000000">ARX/AR/icp.h</text>
</a>
</g>
</g>
<!-- Node1&#45;&gt;Node14 -->
<g id="edge17" class="edge">
<title>Node1&#45;&gt;Node14</title>
<path fill="none" stroke="#191970" d="M516.9941,-113.4039C457.4197,-103.4748 339.3914,-83.8034 272.6116,-72.6735"/>
<polygon fill="#191970" stroke="#191970" points="272.79,-69.155 262.3506,-70.9633 271.6391,-76.0598 272.79,-69.155"/>
</g>
<!-- Node16 -->
<g id="node17" class="node">
<title>Node16</title>
<g id="a_node17"><a xlink:href="param_8h.html" target="_top" xlink:title="artoolkitX functions for handling calibrated camera parameters. ">
<polygon fill="#ffffff" stroke="#000000" points="1016.2236,-55.5 1016.2236,-73.5 1108.9179,-73.5 1108.9179,-55.5 1016.2236,-55.5"/>
<text text-anchor="middle" x="1062.5707" y="-61.5" font-family="Helvetica,sans-Serif" font-size="10.00" fill="#000000">ARX/AR/param.h</text>
</a>
</g>
</g>
<!-- Node1&#45;&gt;Node16 -->
<g id="edge20" class="edge">
<title>Node1&#45;&gt;Node16</title>
<path fill="none" stroke="#191970" d="M586.7015,-110.4455C587.6653,-110.2901 588.623,-110.1412 589.5707,-110 770.0585,-83.1049 817.6162,-97.5501 998.5707,-74 1001.0511,-73.6772 1003.5904,-73.3229 1006.1608,-72.9468"/>
<polygon fill="#191970" stroke="#191970" points="1006.8181,-76.3869 1016.1702,-71.408 1005.7544,-69.4682 1006.8181,-76.3869"/>
</g>
<!-- Node17 -->
<g id="node18" class="node">
<title>Node17</title>
<g id="a_node18"><a xlink:href="ar_image_proc_8h.html" target="_top" xlink:title="artoolkitX functions for 2D luminance image processing. ">
<polygon fill="#ffffff" stroke="#000000" points="646.7729,-55.5 646.7729,-73.5 768.3686,-73.5 768.3686,-55.5 646.7729,-55.5"/>
<text text-anchor="middle" x="707.5707" y="-61.5" font-family="Helvetica,sans-Serif" font-size="10.00" fill="#000000">ARX/AR/arImageProc.h</text>
</a>
</g>
</g>
<!-- Node1&#45;&gt;Node17 -->
<g id="edge22" class="edge">
<title>Node1&#45;&gt;Node17</title>
<path fill="none" stroke="#191970" d="M573.8344,-110.4179C597.645,-101.2348 637.3676,-86.9807 667.4235,-76.7909"/>
<polygon fill="#191970" stroke="#191970" points="668.8437,-80.0061 677.2088,-73.5042 666.6148,-73.3704 668.8437,-80.0061"/>
</g>
<!-- Node8&#45;&gt;Node2 -->
<g id="edge9" class="edge">
<title>Node8&#45;&gt;Node2</title>
<path fill="none" stroke="#191970" d="M356.3416,-58.5695C303.796,-51.4358 215.3318,-38.2372 130.3591,-18.9493"/>
<polygon fill="#191970" stroke="#191970" points="131.0828,-15.5244 120.5525,-16.6921 129.5126,-22.346 131.0828,-15.5244"/>
</g>
<!-- Node8&#45;&gt;Node3 -->
<g id="edge10" class="edge">
<title>Node8&#45;&gt;Node3</title>
<path fill="none" stroke="#191970" d="M382.0947,-55.4179C361.9914,-46.5011 331.1085,-32.803 308.302,-22.6873"/>
<polygon fill="#191970" stroke="#191970" points="309.6375,-19.4508 299.0772,-18.5956 306.7993,-25.8496 309.6375,-19.4508"/>
</g>
<!-- Node8&#45;&gt;Node5 -->
<g id="edge11" class="edge">
<title>Node8&#45;&gt;Node5</title>
<path fill="none" stroke="#191970" d="M440.1529,-55.4905C475.1776,-47.0196 529.0974,-33.7901 585.3048,-19.0133"/>
<polygon fill="#191970" stroke="#191970" points="586.3037,-22.3696 595.0796,-16.4338 584.5175,-15.6013 586.3037,-22.3696"/>
</g>
<!-- Node9 -->
<g id="node10" class="node">
<title>Node9</title>
<polygon fill="#ffffff" stroke="#bfbfbf" points="320.5043,-.5 320.5043,-18.5 372.6371,-18.5 372.6371,-.5 320.5043,-.5"/>
<text text-anchor="middle" x="346.5707" y="-6.5" font-family="Helvetica,sans-Serif" font-size="10.00" fill="#000000">stdarg.h</text>
</g>
<!-- Node8&#45;&gt;Node9 -->
<g id="edge12" class="edge">
<title>Node8&#45;&gt;Node9</title>
<path fill="none" stroke="#191970" d="M393.3235,-55.4179C385.1853,-47.425 373.1354,-35.5903 363.3074,-25.9377"/>
<polygon fill="#191970" stroke="#191970" points="365.6059,-23.2895 356.0189,-18.7795 360.7009,-28.2836 365.6059,-23.2895"/>
</g>
<!-- Node10 -->
<g id="node11" class="node">
<title>Node10</title>
<polygon fill="#ffffff" stroke="#bfbfbf" points="390.8393,-.5 390.8393,-18.5 456.3022,-18.5 456.3022,-.5 390.8393,-.5"/>
<text text-anchor="middle" x="423.5707" y="-6.5" font-family="Helvetica,sans-Serif" font-size="10.00" fill="#000000">sys/errno.h</text>
</g>
<!-- Node8&#45;&gt;Node10 -->
<g id="edge13" class="edge">
<title>Node8&#45;&gt;Node10</title>
<path fill="none" stroke="#191970" d="M406.0385,-55.4179C408.8486,-48.0581 412.9023,-37.441 416.4042,-28.2695"/>
<polygon fill="#191970" stroke="#191970" points="419.7304,-29.3701 420.0277,-18.7795 413.1908,-26.8732 419.7304,-29.3701"/>
</g>
<!-- Node11 -->
<g id="node12" class="node">
<title>Node11</title>
<g id="a_node12"><a xlink:href="types_8h.html" target="_top" xlink:title="ARX/ARUtil/types.h">
<polygon fill="#ffffff" stroke="#000000" points="474.2236,-.5 474.2236,-18.5 576.9179,-18.5 576.9179,-.5 474.2236,-.5"/>
<text text-anchor="middle" x="525.5707" y="-6.5" font-family="Helvetica,sans-Serif" font-size="10.00" fill="#000000">ARX/ARUtil/types.h</text>
</a>
</g>
</g>
<!-- Node8&#45;&gt;Node11 -->
<g id="edge14" class="edge">
<title>Node8&#45;&gt;Node11</title>
<path fill="none" stroke="#191970" d="M422.8817,-55.4179C442.8229,-46.5011 473.4566,-32.803 496.0792,-22.6873"/>
<polygon fill="#191970" stroke="#191970" points="497.5294,-25.8728 505.2296,-18.5956 494.672,-19.4826 497.5294,-25.8728"/>
</g>
<!-- Node13 -->
<g id="node14" class="node">
<title>Node13</title>
<polygon fill="#ffffff" stroke="#bfbfbf" points="929.2851,-.5 929.2851,-18.5 975.8564,-18.5 975.8564,-.5 929.2851,-.5"/>
<text text-anchor="middle" x="952.5707" y="-6.5" font-family="Helvetica,sans-Serif" font-size="10.00" fill="#000000">math.h</text>
</g>
<!-- Node12&#45;&gt;Node13 -->
<g id="edge16" class="edge">
<title>Node12&#45;&gt;Node13</title>
<path fill="none" stroke="#191970" d="M952.5707,-55.4179C952.5707,-48.2164 952.5707,-37.8962 952.5707,-28.8632"/>
<polygon fill="#191970" stroke="#191970" points="956.0708,-28.7794 952.5707,-18.7795 949.0708,-28.7795 956.0708,-28.7794"/>
</g>
<!-- Node14&#45;&gt;Node2 -->
<g id="edge18" class="edge">
<title>Node14&#45;&gt;Node2</title>
<path fill="none" stroke="#191970" d="M202.7644,-55.4179C182.3368,-46.5011 150.9559,-32.803 127.7815,-22.6873"/>
<polygon fill="#191970" stroke="#191970" points="128.9731,-19.3885 118.408,-18.5956 126.1727,-25.804 128.9731,-19.3885"/>
</g>
<!-- Node15 -->
<g id="node16" class="node">
<title>Node15</title>
<g id="a_node16"><a xlink:href="icp_core_8h.html" target="_top" xlink:title="ARX/AR/icpCore.h">
<polygon fill="#ffffff" stroke="#000000" points="138.1669,-.5 138.1669,-18.5 236.9745,-18.5 236.9745,-.5 138.1669,-.5"/>
<text text-anchor="middle" x="187.5707" y="-6.5" font-family="Helvetica,sans-Serif" font-size="10.00" fill="#000000">ARX/AR/icpCore.h</text>
</a>
</g>
</g>
<!-- Node14&#45;&gt;Node15 -->
<g id="edge19" class="edge">
<title>Node14&#45;&gt;Node15</title>
<path fill="none" stroke="#191970" d="M217.6261,-55.4179C212.6534,-47.8207 205.4089,-36.7527 199.2783,-27.3866"/>
<polygon fill="#191970" stroke="#191970" points="202.0497,-25.2297 193.6446,-18.7795 196.1927,-29.0633 202.0497,-25.2297"/>
</g>
<!-- Node16&#45;&gt;Node1 -->
<g id="edge21" class="edge">
<title>Node16&#45;&gt;Node1</title>
<path fill="none" stroke="#191970" d="M1020.0636,-73.5304C1018.8896,-73.6931 1017.7238,-73.8499 1016.5707,-74 835.6162,-97.5501 788.0585,-83.1049 607.5707,-110 605.2385,-110.3475 602.8455,-110.7413 600.4231,-111.166"/>
<polygon fill="#191970" stroke="#191970" points="599.563,-107.7662 590.3781,-113.0471 600.8515,-114.6466 599.563,-107.7662"/>
</g>
<!-- Node17&#45;&gt;Node1 -->
<g id="edge24" class="edge">
<title>Node17&#45;&gt;Node1</title>
<path fill="none" stroke="#191970" d="M687.2721,-73.5956C663.5171,-82.7562 623.9573,-96.9531 593.9432,-107.1327"/>
<polygon fill="#191970" stroke="#191970" points="592.5313,-103.9148 584.167,-110.4179 594.761,-110.5502 592.5313,-103.9148"/>
</g>
<!-- Node17&#45;&gt;Node6 -->
<g id="edge23" class="edge">
<title>Node17&#45;&gt;Node6</title>
<path fill="none" stroke="#191970" d="M707.5707,-55.4179C707.5707,-48.2164 707.5707,-37.8962 707.5707,-28.8632"/>
<polygon fill="#191970" stroke="#191970" points="711.0708,-28.7794 707.5707,-18.7795 704.0708,-28.7795 711.0708,-28.7794"/>
</g>
<!-- Node20&#45;&gt;Node2 -->
<g id="edge31" class="edge">
<title>Node20&#45;&gt;Node2</title>
<path fill="none" stroke="#191970" d="M62.136,-110.4706C41.0704,-98.8397 11.0283,-77.4357 23.5707,-55 32.5295,-38.9749 49.7012,-27.9018 65.2491,-20.6948"/>
<polygon fill="#191970" stroke="#191970" points="66.8041,-23.8368 74.6321,-16.6973 64.0604,-17.3969 66.8041,-23.8368"/>
</g>
<!-- Node21 -->
<g id="node22" class="node">
<title>Node21</title>
<g id="a_node22"><a xlink:href="config_8h.html" target="_top" xlink:title="ARX/AR2/config.h">
<polygon fill="#ffffff" stroke="#000000" points="32.2729,-55.5 32.2729,-73.5 128.8686,-73.5 128.8686,-55.5 32.2729,-55.5"/>
<text text-anchor="middle" x="80.5707" y="-61.5" font-family="Helvetica,sans-Serif" font-size="10.00" fill="#000000">ARX/AR2/config.h</text>
</a>
</g>
</g>
<!-- Node20&#45;&gt;Node21 -->
<g id="edge32" class="edge">
<title>Node20&#45;&gt;Node21</title>
<path fill="none" stroke="#191970" d="M80.5707,-110.4179C80.5707,-103.2164 80.5707,-92.8962 80.5707,-83.8632"/>
<polygon fill="#191970" stroke="#191970" points="84.0708,-83.7794 80.5707,-73.7795 77.0708,-83.7795 84.0708,-83.7794"/>
</g>
</g>
</svg>
