<?xml version="1.0" encoding="UTF-8" standalone="no"?>
<!DOCTYPE svg PUBLIC "-//W3C//DTD SVG 1.1//EN"
 "http://www.w3.org/Graphics/SVG/1.1/DTD/svg11.dtd">
<!-- Generated by graphviz version 8.0.5 (20230430.1635)
 -->
<!-- Title: Source/ARX/AR2/jpeg.c Pages: 1 -->
<svg width="1122pt" height="193pt"
 viewBox="0.00 0.00 1121.51 193.00" xmlns="http://www.w3.org/2000/svg" xmlns:xlink="http://www.w3.org/1999/xlink">
<g id="graph0" class="graph" transform="scale(1 1) rotate(0) translate(4 189)">
<title>Source/ARX/AR2/jpeg.c</title>
<!-- Node1 -->
<g id="node1" class="node">
<title>Node1</title>
<g id="a_node1"><a xlink:title=" ">
<polygon fill="#999999" stroke="#666666" points="541.51,-185 419.01,-185 419.01,-165.75 541.51,-165.75 541.51,-185"/>
<text text-anchor="middle" x="480.26" y="-171.5" font-family="Helvetica,sans-Serif" font-size="10.00">Source/ARX/AR2/jpeg.c</text>
</a>
</g>
</g>
<!-- Node2 -->
<g id="node2" class="node">
<title>Node2</title>
<g id="a_node2"><a xlink:href="ar_8h.html" target="_top" xlink:title="artoolkitX core routines.">
<polygon fill="white" stroke="#666666" points="593.76,-129.75 520.76,-129.75 520.76,-110.5 593.76,-110.5 593.76,-129.75"/>
<text text-anchor="middle" x="557.26" y="-116.25" font-family="Helvetica,sans-Serif" font-size="10.00">ARX/AR/ar.h</text>
</a>
</g>
</g>
<!-- Node1&#45;&gt;Node2 -->
<g id="edge1" class="edge">
<title>Node1&#45;&gt;Node2</title>
<path fill="none" stroke="#63b8ff" d="M493.32,-165.34C504.83,-157.39 521.82,-145.64 535.39,-136.25"/>
<polygon fill="#63b8ff" stroke="#63b8ff" points="536.9,-138.77 543.13,-130.2 532.92,-133.01 536.9,-138.77"/>
</g>
<!-- Node3 -->
<g id="node3" class="node">
<title>Node3</title>
<g id="a_node3"><a xlink:title=" ">
<polygon fill="#e0e0e0" stroke="#999999" points="124.88,-19.25 79.63,-19.25 79.63,0 124.88,0 124.88,-19.25"/>
<text text-anchor="middle" x="102.26" y="-5.75" font-family="Helvetica,sans-Serif" font-size="10.00">stdio.h</text>
</a>
</g>
</g>
<!-- Node1&#45;&gt;Node3 -->
<g id="edge25" class="edge">
<title>Node1&#45;&gt;Node3</title>
<path fill="none" stroke="#63b8ff" d="M418.64,-173.07C296.99,-169.87 35.37,-159.54 8.26,-129.75 -2.89,-117.5 -4.17,-83.99 16.26,-55.25 28.81,-37.6 50.48,-26.42 68.93,-19.66"/>
<polygon fill="#63b8ff" stroke="#63b8ff" points="69.96,-22.67 78.33,-16.18 67.73,-16.03 69.96,-22.67"/>
</g>
<!-- Node4 -->
<g id="node4" class="node">
<title>Node4</title>
<g id="a_node4"><a xlink:title=" ">
<polygon fill="#e0e0e0" stroke="#999999" points="307.01,-19.25 259.51,-19.25 259.51,0 307.01,0 307.01,-19.25"/>
<text text-anchor="middle" x="283.26" y="-5.75" font-family="Helvetica,sans-Serif" font-size="10.00">stdlib.h</text>
</a>
</g>
</g>
<!-- Node1&#45;&gt;Node4 -->
<g id="edge26" class="edge">
<title>Node1&#45;&gt;Node4</title>
<path fill="none" stroke="#63b8ff" d="M458.89,-165.36C425.64,-150.49 361.03,-118.07 319.26,-74.5 306.61,-61.3 296.82,-42.81 290.67,-29.12"/>
<polygon fill="#63b8ff" stroke="#63b8ff" points="293.65,-28.2 286.53,-20.36 287.21,-30.93 293.65,-28.2"/>
</g>
<!-- Node6 -->
<g id="node6" class="node">
<title>Node6</title>
<g id="a_node6"><a xlink:title=" ">
<polygon fill="#e0e0e0" stroke="#999999" points="647.38,-19.25 599.13,-19.25 599.13,0 647.38,0 647.38,-19.25"/>
<text text-anchor="middle" x="623.26" y="-5.75" font-family="Helvetica,sans-Serif" font-size="10.00">string.h</text>
</a>
</g>
</g>
<!-- Node1&#45;&gt;Node6 -->
<g id="edge27" class="edge">
<title>Node1&#45;&gt;Node6</title>
<path fill="none" stroke="#63b8ff" d="M481.77,-165.41C485.83,-143.82 498.88,-88.24 530.26,-55.25 546.09,-38.61 569.4,-27.44 588.72,-20.44"/>
<polygon fill="#63b8ff" stroke="#63b8ff" points="589.62,-23.49 597.97,-16.97 587.38,-16.86 589.62,-23.49"/>
</g>
<!-- Node19 -->
<g id="node19" class="node">
<title>Node19</title>
<g id="a_node19"><a xlink:title=" ">
<polygon fill="#e0e0e0" stroke="#999999" points="664.26,-129.75 612.26,-129.75 612.26,-110.5 664.26,-110.5 664.26,-129.75"/>
<text text-anchor="middle" x="638.26" y="-116.25" font-family="Helvetica,sans-Serif" font-size="10.00">jpeglib.h</text>
</a>
</g>
</g>
<!-- Node1&#45;&gt;Node19 -->
<g id="edge28" class="edge">
<title>Node1&#45;&gt;Node19</title>
<path fill="none" stroke="#63b8ff" d="M507.06,-165.34C533.1,-156.57 572.82,-143.18 601.73,-133.44"/>
<polygon fill="#63b8ff" stroke="#63b8ff" points="602.49,-136.54 610.85,-130.02 600.26,-129.9 602.49,-136.54"/>
</g>
<!-- Node20 -->
<g id="node20" class="node">
<title>Node20</title>
<g id="a_node20"><a xlink:title=" ">
<polygon fill="#e0e0e0" stroke="#999999" points="736.01,-129.75 682.51,-129.75 682.51,-110.5 736.01,-110.5 736.01,-129.75"/>
<text text-anchor="middle" x="709.26" y="-116.25" font-family="Helvetica,sans-Serif" font-size="10.00">setjmp.h</text>
</a>
</g>
</g>
<!-- Node1&#45;&gt;Node20 -->
<g id="edge29" class="edge">
<title>Node1&#45;&gt;Node20</title>
<path fill="none" stroke="#63b8ff" d="M519.83,-165.32C556.65,-156.88 613.32,-143.82 671.62,-130.12"/>
<polygon fill="#63b8ff" stroke="#63b8ff" points="672.21,-133.34 681.14,-127.65 670.6,-126.53 672.21,-133.34"/>
</g>
<!-- Node21 -->
<g id="node21" class="node">
<title>Node21</title>
<g id="a_node21"><a xlink:href="image_format_8h.html" target="_top" xlink:title=" ">
<polygon fill="white" stroke="#666666" points="145.13,-129.75 17.38,-129.75 17.38,-110.5 145.13,-110.5 145.13,-129.75"/>
<text text-anchor="middle" x="81.26" y="-116.25" font-family="Helvetica,sans-Serif" font-size="10.00">ARX/AR2/imageFormat.h</text>
</a>
</g>
</g>
<!-- Node1&#45;&gt;Node21 -->
<g id="edge30" class="edge">
<title>Node1&#45;&gt;Node21</title>
<path fill="none" stroke="#63b8ff" d="M418.79,-166.17C348.16,-156.75 232.25,-141.28 156.34,-131.15"/>
<polygon fill="#63b8ff" stroke="#63b8ff" points="156.82,-127.54 146.44,-129.69 155.89,-134.48 156.82,-127.54"/>
</g>
<!-- Node2&#45;&gt;Node3 -->
<g id="edge2" class="edge">
<title>Node2&#45;&gt;Node3</title>
<path fill="none" stroke="#63b8ff" d="M520.34,-117.51C437.32,-113.44 238.38,-101.15 177.26,-74.5 152.88,-63.87 130.45,-42.59 116.59,-27.52"/>
<polygon fill="#63b8ff" stroke="#63b8ff" points="119.73,-25.65 110.47,-20.49 114.49,-30.29 119.73,-25.65"/>
</g>
<!-- Node2&#45;&gt;Node4 -->
<g id="edge3" class="edge">
<title>Node2&#45;&gt;Node4</title>
<path fill="none" stroke="#63b8ff" d="M520.6,-117.35C477.34,-113.92 404.33,-103.89 349.26,-74.5 327.82,-63.06 308.52,-42.61 296.41,-27.93"/>
<polygon fill="#63b8ff" stroke="#63b8ff" points="298.8,-26.31 289.84,-20.66 293.32,-30.67 298.8,-26.31"/>
</g>
<!-- Node5 -->
<g id="node5" class="node">
<title>Node5</title>
<g id="a_node5"><a xlink:title=" ">
<polygon fill="#e0e0e0" stroke="#999999" points="594.38,-74.5 546.13,-74.5 546.13,-55.25 594.38,-55.25 594.38,-74.5"/>
<text text-anchor="middle" x="570.26" y="-61" font-family="Helvetica,sans-Serif" font-size="10.00">stdint.h</text>
</a>
</g>
</g>
<!-- Node2&#45;&gt;Node5 -->
<g id="edge4" class="edge">
<title>Node2&#45;&gt;Node5</title>
<path fill="none" stroke="#63b8ff" d="M559.41,-110.33C561.05,-103.59 563.39,-94.02 565.47,-85.49"/>
<polygon fill="#63b8ff" stroke="#63b8ff" points="569.09,-86.4 568.07,-75.86 562.29,-84.74 569.09,-86.4"/>
</g>
<!-- Node2&#45;&gt;Node6 -->
<g id="edge5" class="edge">
<title>Node2&#45;&gt;Node6</title>
<path fill="none" stroke="#63b8ff" d="M550.15,-110.3C540.7,-97.44 526.4,-73.12 537.26,-55.25 543.3,-45.31 567.93,-33.08 589.3,-23.93"/>
<polygon fill="#63b8ff" stroke="#63b8ff" points="590.54,-26.79 598.43,-19.72 587.85,-20.33 590.54,-26.79"/>
</g>
<!-- Node7 -->
<g id="node7" class="node">
<title>Node7</title>
<g id="a_node7"><a xlink:title=" ">
<polygon fill="#e0e0e0" stroke="#999999" points="757.13,-19.25 665.38,-19.25 665.38,0 757.13,0 757.13,-19.25"/>
<text text-anchor="middle" x="711.26" y="-5.75" font-family="Helvetica,sans-Serif" font-size="10.00">ARX/AR/config.h</text>
</a>
</g>
</g>
<!-- Node2&#45;&gt;Node7 -->
<g id="edge6" class="edge">
<title>Node2&#45;&gt;Node7</title>
<path fill="none" stroke="#63b8ff" d="M568.45,-110.14C584.35,-97.5 614.51,-73.9 641.26,-55.25 656.2,-44.84 673.44,-33.83 687.07,-25.36"/>
<polygon fill="#63b8ff" stroke="#63b8ff" points="688.61,-27.91 695.28,-19.68 684.93,-21.95 688.61,-27.91"/>
</g>
<!-- Node8 -->
<g id="node8" class="node">
<title>Node8</title>
<g id="a_node8"><a xlink:href="ar_config_8h.html" target="_top" xlink:title=" ">
<polygon fill="white" stroke="#666666" points="892.38,-74.5 790.13,-74.5 790.13,-55.25 892.38,-55.25 892.38,-74.5"/>
<text text-anchor="middle" x="841.26" y="-61" font-family="Helvetica,sans-Serif" font-size="10.00">ARX/AR/arConfig.h</text>
</a>
</g>
</g>
<!-- Node2&#45;&gt;Node8 -->
<g id="edge7" class="edge">
<title>Node2&#45;&gt;Node8</title>
<path fill="none" stroke="#63b8ff" d="M594.1,-112.22C641.75,-103.28 725.36,-87.61 782,-76.99"/>
<polygon fill="#63b8ff" stroke="#63b8ff" points="782.42,-80.28 791.6,-75 781.13,-73.4 782.42,-80.28"/>
</g>
<!-- Node9 -->
<g id="node9" class="node">
<title>Node9</title>
<g id="a_node9"><a xlink:href="log_8h.html" target="_top" xlink:title="Logging utilities.">
<polygon fill="white" stroke="#666666" points="451.88,-74.5 358.63,-74.5 358.63,-55.25 451.88,-55.25 451.88,-74.5"/>
<text text-anchor="middle" x="405.26" y="-61" font-family="Helvetica,sans-Serif" font-size="10.00">ARX/ARUtil/log.h</text>
</a>
</g>
</g>
<!-- Node2&#45;&gt;Node9 -->
<g id="edge8" class="edge">
<title>Node2&#45;&gt;Node9</title>
<path fill="none" stroke="#63b8ff" d="M531.47,-110.09C506.69,-101.41 469.01,-88.21 441.27,-78.49"/>
<polygon fill="#63b8ff" stroke="#63b8ff" points="442.77,-74.96 432.17,-74.95 440.45,-81.56 442.77,-74.96"/>
</g>
<!-- Node13 -->
<g id="node13" class="node">
<title>Node13</title>
<g id="a_node13"><a xlink:href="matrix_8h.html" target="_top" xlink:title=" ">
<polygon fill="white" stroke="#666666" points="1002.51,-74.5 910.01,-74.5 910.01,-55.25 1002.51,-55.25 1002.51,-74.5"/>
<text text-anchor="middle" x="956.26" y="-61" font-family="Helvetica,sans-Serif" font-size="10.00">ARX/AR/matrix.h</text>
</a>
</g>
</g>
<!-- Node2&#45;&gt;Node13 -->
<g id="edge15" class="edge">
<title>Node2&#45;&gt;Node13</title>
<path fill="none" stroke="#63b8ff" d="M594.13,-111.99C597.21,-111.46 600.29,-110.96 603.26,-110.5 731.76,-90.71 767.33,-92.72 899.26,-74.73"/>
<polygon fill="#63b8ff" stroke="#63b8ff" points="899.34,-78.12 908.77,-73.28 898.38,-71.18 899.34,-78.12"/>
</g>
<!-- Node15 -->
<g id="node15" class="node">
<title>Node15</title>
<g id="a_node15"><a xlink:href="icp_8h.html" target="_top" xlink:title=" ">
<polygon fill="white" stroke="#666666" points="264.38,-74.5 186.13,-74.5 186.13,-55.25 264.38,-55.25 264.38,-74.5"/>
<text text-anchor="middle" x="225.26" y="-61" font-family="Helvetica,sans-Serif" font-size="10.00">ARX/AR/icp.h</text>
</a>
</g>
</g>
<!-- Node2&#45;&gt;Node15 -->
<g id="edge17" class="edge">
<title>Node2&#45;&gt;Node15</title>
<path fill="none" stroke="#63b8ff" d="M520.46,-113.22C460.81,-103.66 342.9,-84.74 275.55,-73.94"/>
<polygon fill="#63b8ff" stroke="#63b8ff" points="276.22,-70.34 265.79,-72.22 275.11,-77.26 276.22,-70.34"/>
</g>
<!-- Node17 -->
<g id="node17" class="node">
<title>Node17</title>
<g id="a_node17"><a xlink:href="param_8h.html" target="_top" xlink:title="artoolkitX functions for handling calibrated camera parameters.">
<polygon fill="white" stroke="#666666" points="1113.51,-74.5 1021.01,-74.5 1021.01,-55.25 1113.51,-55.25 1113.51,-74.5"/>
<text text-anchor="middle" x="1067.26" y="-61" font-family="Helvetica,sans-Serif" font-size="10.00">ARX/AR/param.h</text>
</a>
</g>
</g>
<!-- Node2&#45;&gt;Node17 -->
<g id="edge20" class="edge">
<title>Node2&#45;&gt;Node17</title>
<path fill="none" stroke="#63b8ff" d="M594.52,-110.46C774.65,-85.71 821.63,-96.36 1002.26,-74.5 1004.77,-74.2 1007.35,-73.87 1009.95,-73.52"/>
<polygon fill="#63b8ff" stroke="#63b8ff" points="1010.35,-76.86 1019.77,-72.01 1009.39,-69.92 1010.35,-76.86"/>
</g>
<!-- Node18 -->
<g id="node18" class="node">
<title>Node18</title>
<g id="a_node18"><a xlink:href="ar_image_proc_8h.html" target="_top" xlink:title="artoolkitX functions for 2D luminance image processing.">
<polygon fill="white" stroke="#666666" points="771.76,-74.5 650.76,-74.5 650.76,-55.25 771.76,-55.25 771.76,-74.5"/>
<text text-anchor="middle" x="711.26" y="-61" font-family="Helvetica,sans-Serif" font-size="10.00">ARX/AR/arImageProc.h</text>
</a>
</g>
</g>
<!-- Node2&#45;&gt;Node18 -->
<g id="edge22" class="edge">
<title>Node2&#45;&gt;Node18</title>
<path fill="none" stroke="#63b8ff" d="M578.17,-110.09C601.57,-101.37 639.77,-88.09 669.33,-78.36"/>
<polygon fill="#63b8ff" stroke="#63b8ff" points="670.36,-81.38 678.78,-74.95 668.19,-74.73 670.36,-81.38"/>
</g>
<!-- Node9&#45;&gt;Node3 -->
<g id="edge9" class="edge">
<title>Node9&#45;&gt;Node3</title>
<path fill="none" stroke="#63b8ff" d="M358.28,-57.75C306.06,-50.59 219.04,-37.63 135.86,-19.65"/>
<polygon fill="#63b8ff" stroke="#63b8ff" points="136.73,-16.03 126.21,-17.31 135.23,-22.87 136.73,-16.03"/>
</g>
<!-- Node9&#45;&gt;Node4 -->
<g id="edge10" class="edge">
<title>Node9&#45;&gt;Node4</title>
<path fill="none" stroke="#63b8ff" d="M384.56,-54.84C365.2,-46.39 336.02,-33.65 313.94,-24.02"/>
<polygon fill="#63b8ff" stroke="#63b8ff" points="315.62,-20.5 305.06,-19.7 312.82,-26.91 315.62,-20.5"/>
</g>
<!-- Node9&#45;&gt;Node6 -->
<g id="edge11" class="edge">
<title>Node9&#45;&gt;Node6</title>
<path fill="none" stroke="#63b8ff" d="M443.93,-54.77C479.2,-46.42 533.02,-33.55 588.41,-19.68"/>
<polygon fill="#63b8ff" stroke="#63b8ff" points="588.92,-22.91 597.76,-17.08 587.21,-16.12 588.92,-22.91"/>
</g>
<!-- Node10 -->
<g id="node10" class="node">
<title>Node10</title>
<g id="a_node10"><a xlink:title=" ">
<polygon fill="#e0e0e0" stroke="#999999" points="375.88,-19.25 324.63,-19.25 324.63,0 375.88,0 375.88,-19.25"/>
<text text-anchor="middle" x="350.26" y="-5.75" font-family="Helvetica,sans-Serif" font-size="10.00">stdarg.h</text>
</a>
</g>
</g>
<!-- Node9&#45;&gt;Node10 -->
<g id="edge12" class="edge">
<title>Node9&#45;&gt;Node10</title>
<path fill="none" stroke="#63b8ff" d="M396.18,-55.08C388.34,-47.5 376.82,-36.34 367.27,-27.1"/>
<polygon fill="#63b8ff" stroke="#63b8ff" points="370.16,-25.05 360.54,-20.61 365.29,-30.08 370.16,-25.05"/>
</g>
<!-- Node11 -->
<g id="node11" class="node">
<title>Node11</title>
<g id="a_node11"><a xlink:title=" ">
<polygon fill="#e0e0e0" stroke="#999999" points="458.63,-19.25 393.88,-19.25 393.88,0 458.63,0 458.63,-19.25"/>
<text text-anchor="middle" x="426.26" y="-5.75" font-family="Helvetica,sans-Serif" font-size="10.00">sys/errno.h</text>
</a>
</g>
</g>
<!-- Node9&#45;&gt;Node11 -->
<g id="edge13" class="edge">
<title>Node9&#45;&gt;Node11</title>
<path fill="none" stroke="#63b8ff" d="M408.73,-55.08C411.45,-48.19 415.33,-38.34 418.75,-29.66"/>
<polygon fill="#63b8ff" stroke="#63b8ff" points="422.3,-31.2 422.72,-20.61 415.79,-28.63 422.3,-31.2"/>
</g>
<!-- Node12 -->
<g id="node12" class="node">
<title>Node12</title>
<g id="a_node12"><a xlink:href="types_8h.html" target="_top" xlink:title=" ">
<polygon fill="white" stroke="#666666" points="581.51,-19.25 477.01,-19.25 477.01,0 581.51,0 581.51,-19.25"/>
<text text-anchor="middle" x="529.26" y="-5.75" font-family="Helvetica,sans-Serif" font-size="10.00">ARX/ARUtil/types.h</text>
</a>
</g>
</g>
<!-- Node9&#45;&gt;Node12 -->
<g id="edge14" class="edge">
<title>Node9&#45;&gt;Node12</title>
<path fill="none" stroke="#63b8ff" d="M426.29,-54.84C445.98,-46.39 475.64,-33.65 498.07,-24.02"/>
<polygon fill="#63b8ff" stroke="#63b8ff" points="499.31,-26.86 507.12,-19.7 496.55,-20.43 499.31,-26.86"/>
</g>
<!-- Node14 -->
<g id="node14" class="node">
<title>Node14</title>
<g id="a_node14"><a xlink:title=" ">
<polygon fill="#e0e0e0" stroke="#999999" points="979.26,-19.25 933.26,-19.25 933.26,0 979.26,0 979.26,-19.25"/>
<text text-anchor="middle" x="956.26" y="-5.75" font-family="Helvetica,sans-Serif" font-size="10.00">math.h</text>
</a>
</g>
</g>
<!-- Node13&#45;&gt;Node14 -->
<g id="edge16" class="edge">
<title>Node13&#45;&gt;Node14</title>
<path fill="none" stroke="#63b8ff" d="M956.26,-55.08C956.26,-48.42 956.26,-38.99 956.26,-30.53"/>
<polygon fill="#63b8ff" stroke="#63b8ff" points="959.76,-30.61 956.26,-20.61 952.76,-30.61 959.76,-30.61"/>
</g>
<!-- Node15&#45;&gt;Node3 -->
<g id="edge18" class="edge">
<title>Node15&#45;&gt;Node3</title>
<path fill="none" stroke="#63b8ff" d="M204.39,-54.84C184.87,-46.39 155.45,-33.65 133.19,-24.02"/>
<polygon fill="#63b8ff" stroke="#63b8ff" points="134.79,-20.46 124.23,-19.7 132.01,-26.89 134.79,-20.46"/>
</g>
<!-- Node16 -->
<g id="node16" class="node">
<title>Node16</title>
<g id="a_node16"><a xlink:href="icp_core_8h.html" target="_top" xlink:title=" ">
<polygon fill="white" stroke="#666666" points="241.88,-19.25 142.63,-19.25 142.63,0 241.88,0 241.88,-19.25"/>
<text text-anchor="middle" x="192.26" y="-5.75" font-family="Helvetica,sans-Serif" font-size="10.00">ARX/AR/icpCore.h</text>
</a>
</g>
</g>
<!-- Node15&#45;&gt;Node16 -->
<g id="edge19" class="edge">
<title>Node15&#45;&gt;Node16</title>
<path fill="none" stroke="#63b8ff" d="M219.81,-55.08C215.39,-47.96 209.02,-37.68 203.52,-28.8"/>
<polygon fill="#63b8ff" stroke="#63b8ff" points="206.07,-27.27 197.83,-20.61 200.12,-30.95 206.07,-27.27"/>
</g>
<!-- Node17&#45;&gt;Node2 -->
<g id="edge21" class="edge">
<title>Node17&#45;&gt;Node2</title>
<path fill="none" stroke="#63b8ff" d="M1020.55,-74.46C1020.45,-74.48 1020.36,-74.49 1020.26,-74.5 839.54,-96.37 792.6,-85.7 612.26,-110.5 609.9,-110.82 607.49,-111.19 605.04,-111.57"/>
<polygon fill="#63b8ff" stroke="#63b8ff" points="604.49,-108.29 595.21,-113.4 605.65,-115.19 604.49,-108.29"/>
</g>
<!-- Node18&#45;&gt;Node2 -->
<g id="edge24" class="edge">
<title>Node18&#45;&gt;Node2</title>
<path fill="none" stroke="#63b8ff" d="M690.23,-74.95C666.78,-83.69 628.57,-96.97 599.04,-106.69"/>
<polygon fill="#63b8ff" stroke="#63b8ff" points="598.02,-103.66 589.6,-110.09 600.19,-110.32 598.02,-103.66"/>
</g>
<!-- Node18&#45;&gt;Node7 -->
<g id="edge23" class="edge">
<title>Node18&#45;&gt;Node7</title>
<path fill="none" stroke="#63b8ff" d="M711.26,-55.08C711.26,-48.42 711.26,-38.99 711.26,-30.53"/>
<polygon fill="#63b8ff" stroke="#63b8ff" points="714.76,-30.61 711.26,-20.61 707.76,-30.61 714.76,-30.61"/>
</g>
<!-- Node21&#45;&gt;Node3 -->
<g id="edge31" class="edge">
<title>Node21&#45;&gt;Node3</title>
<path fill="none" stroke="#63b8ff" d="M62.43,-110.19C40.92,-98.69 10.27,-77.5 23.26,-55.25 33.19,-38.24 52.27,-27.2 69.19,-20.35"/>
<polygon fill="#63b8ff" stroke="#63b8ff" points="70.16,-23.36 78.34,-16.62 67.75,-16.79 70.16,-23.36"/>
</g>
<!-- Node22 -->
<g id="node22" class="node">
<title>Node22</title>
<g id="a_node22"><a xlink:href="config_8h.html" target="_top" xlink:title=" ">
<polygon fill="white" stroke="#666666" points="129.76,-74.5 32.76,-74.5 32.76,-55.25 129.76,-55.25 129.76,-74.5"/>
<text text-anchor="middle" x="81.26" y="-61" font-family="Helvetica,sans-Serif" font-size="10.00">ARX/AR2/config.h</text>
</a>
</g>
</g>
<!-- Node21&#45;&gt;Node22 -->
<g id="edge32" class="edge">
<title>Node21&#45;&gt;Node22</title>
<path fill="none" stroke="#63b8ff" d="M81.26,-110.33C81.26,-103.67 81.26,-94.24 81.26,-85.78"/>
<polygon fill="#63b8ff" stroke="#63b8ff" points="84.76,-85.86 81.26,-75.86 77.76,-85.86 84.76,-85.86"/>
</g>
</g>
</svg>
