<?xml version="1.0" encoding="UTF-8" standalone="no"?>
<!DOCTYPE svg PUBLIC "-//W3C//DTD SVG 1.1//EN"
 "http://www.w3.org/Graphics/SVG/1.1/DTD/svg11.dtd">
<!-- Generated by graphviz version 7.0.5 (20221223.1930)
 -->
<!-- Title: Source/ARX/KPM/include/ARX/KPM/kpm.h Pages: 1 -->
<svg width="1094pt" height="203pt"
 viewBox="0.00 0.00 1094.00 203.00" xmlns="http://www.w3.org/2000/svg" xmlns:xlink="http://www.w3.org/1999/xlink">
<g id="graph0" class="graph" transform="scale(1 1) rotate(0) translate(4 199)">
<title>Source/ARX/KPM/include/ARX/KPM/kpm.h</title>
<!-- Node1 -->
<g id="node1" class="node">
<title>Node1</title>
<g id="a_node1"><a xlink:title=" ">
<polygon fill="#999999" stroke="#666666" points="699.5,-195 569.5,-195 569.5,-165 699.5,-165 699.5,-195"/>
<text text-anchor="start" x="577.5" y="-183" font-family="Helvetica,sans-Serif" font-size="10.00">Source/ARX/KPM/include</text>
<text text-anchor="middle" x="634.5" y="-172" font-family="Helvetica,sans-Serif" font-size="10.00">/ARX/KPM/kpm.h</text>
</a>
</g>
</g>
<!-- Node2 -->
<g id="node2" class="node">
<title>Node2</title>
<g id="a_node2"><a xlink:href="ar_8h.html" target="_top" xlink:title="artoolkitX core routines.">
<polygon fill="white" stroke="#666666" points="615.5,-129 541.5,-129 541.5,-110 615.5,-110 615.5,-129"/>
<text text-anchor="middle" x="578.5" y="-117" font-family="Helvetica,sans-Serif" font-size="10.00">ARX/AR/ar.h</text>
</a>
</g>
</g>
<!-- Node1&#45;&gt;Node2 -->
<g id="edge1" class="edge">
<title>Node1&#45;&gt;Node2</title>
<path fill="none" stroke="#63b8ff" d="M620.66,-164.54C612.77,-156.3 602.86,-145.94 594.62,-137.34"/>
<polygon fill="#63b8ff" stroke="#63b8ff" points="597.29,-135.07 587.85,-130.27 592.24,-139.91 597.29,-135.07"/>
</g>
<!-- Node19 -->
<g id="node19" class="node">
<title>Node19</title>
<g id="a_node19"><a xlink:href="kpm_type_8h.html" target="_top" xlink:title=" ">
<polygon fill="white" stroke="#666666" points="918,-129 805,-129 805,-110 918,-110 918,-129"/>
<text text-anchor="middle" x="861.5" y="-117" font-family="Helvetica,sans-Serif" font-size="10.00">ARX/KPM/kpmType.h</text>
</a>
</g>
</g>
<!-- Node1&#45;&gt;Node19 -->
<g id="edge25" class="edge">
<title>Node1&#45;&gt;Node19</title>
<path fill="none" stroke="#63b8ff" d="M690.61,-164.54C729.28,-154.57 780.01,-141.5 816.13,-132.19"/>
<polygon fill="#63b8ff" stroke="#63b8ff" points="816.56,-135.69 825.37,-129.81 814.82,-128.92 816.56,-135.69"/>
</g>
<!-- Node3 -->
<g id="node3" class="node">
<title>Node3</title>
<g id="a_node3"><a xlink:title=" ">
<polygon fill="#e0e0e0" stroke="#999999" points="456.5,-19 410.5,-19 410.5,0 456.5,0 456.5,-19"/>
<text text-anchor="middle" x="433.5" y="-7" font-family="Helvetica,sans-Serif" font-size="10.00">stdio.h</text>
</a>
</g>
</g>
<!-- Node2&#45;&gt;Node3 -->
<g id="edge2" class="edge">
<title>Node2&#45;&gt;Node3</title>
<path fill="none" stroke="#63b8ff" d="M541.07,-118C474.47,-116.22 339.62,-108.36 310.5,-74 305.04,-67.56 305.65,-61.91 310.5,-55 315.86,-47.37 364.96,-31.21 399.48,-20.61"/>
<polygon fill="#63b8ff" stroke="#63b8ff" points="400.1,-24.08 408.65,-17.83 398.06,-17.39 400.1,-24.08"/>
</g>
<!-- Node4 -->
<g id="node4" class="node">
<title>Node4</title>
<g id="a_node4"><a xlink:title=" ">
<polygon fill="#e0e0e0" stroke="#999999" points="392.5,-19 344.5,-19 344.5,0 392.5,0 392.5,-19"/>
<text text-anchor="middle" x="368.5" y="-7" font-family="Helvetica,sans-Serif" font-size="10.00">stdlib.h</text>
</a>
</g>
</g>
<!-- Node2&#45;&gt;Node4 -->
<g id="edge3" class="edge">
<title>Node2&#45;&gt;Node4</title>
<path fill="none" stroke="#63b8ff" d="M553.53,-109.56C531.29,-101.29 498.11,-88.16 470.5,-74 441.92,-59.34 410.82,-39.34 390.57,-25.73"/>
<polygon fill="#63b8ff" stroke="#63b8ff" points="392.79,-23.01 382.55,-20.29 388.86,-28.8 392.79,-23.01"/>
</g>
<!-- Node5 -->
<g id="node5" class="node">
<title>Node5</title>
<g id="a_node5"><a xlink:title=" ">
<polygon fill="#e0e0e0" stroke="#999999" points="151,-74 102,-74 102,-55 151,-55 151,-74"/>
<text text-anchor="middle" x="126.5" y="-62" font-family="Helvetica,sans-Serif" font-size="10.00">stdint.h</text>
</a>
</g>
</g>
<!-- Node2&#45;&gt;Node5 -->
<g id="edge4" class="edge">
<title>Node2&#45;&gt;Node5</title>
<path fill="none" stroke="#63b8ff" d="M541.07,-116.27C469.43,-111.61 307.87,-99.31 162.2,-74.04"/>
<polygon fill="#63b8ff" stroke="#63b8ff" points="163.24,-70.67 152.79,-72.38 162.03,-77.57 163.24,-70.67"/>
</g>
<!-- Node6 -->
<g id="node6" class="node">
<title>Node6</title>
<g id="a_node6"><a xlink:title=" ">
<polygon fill="#e0e0e0" stroke="#999999" points="49,-19 0,-19 0,0 49,0 49,-19"/>
<text text-anchor="middle" x="24.5" y="-7" font-family="Helvetica,sans-Serif" font-size="10.00">string.h</text>
</a>
</g>
</g>
<!-- Node2&#45;&gt;Node6 -->
<g id="edge5" class="edge">
<title>Node2&#45;&gt;Node6</title>
<path fill="none" stroke="#63b8ff" d="M541.06,-118.18C441.54,-116.84 172.62,-109.9 92.5,-74 70.01,-63.92 50.17,-43.3 37.82,-28.28"/>
<polygon fill="#63b8ff" stroke="#63b8ff" points="40.69,-26.28 31.76,-20.58 35.19,-30.61 40.69,-26.28"/>
</g>
<!-- Node7 -->
<g id="node7" class="node">
<title>Node7</title>
<g id="a_node7"><a xlink:title=" ">
<polygon fill="#e0e0e0" stroke="#999999" points="778.5,-19 686.5,-19 686.5,0 778.5,0 778.5,-19"/>
<text text-anchor="middle" x="732.5" y="-7" font-family="Helvetica,sans-Serif" font-size="10.00">ARX/AR/config.h</text>
</a>
</g>
</g>
<!-- Node2&#45;&gt;Node7 -->
<g id="edge6" class="edge">
<title>Node2&#45;&gt;Node7</title>
<path fill="none" stroke="#63b8ff" d="M615.55,-117.23C676.56,-114.28 793.98,-104.66 819.5,-74 837.37,-52.53 804.76,-34.49 774.5,-23.19"/>
<polygon fill="#63b8ff" stroke="#63b8ff" points="776,-20.01 765.41,-19.99 773.67,-26.62 776,-20.01"/>
</g>
<!-- Node8 -->
<g id="node8" class="node">
<title>Node8</title>
<g id="a_node8"><a xlink:href="ar_config_8h.html" target="_top" xlink:title=" ">
<polygon fill="white" stroke="#666666" points="423,-74 320,-74 320,-55 423,-55 423,-74"/>
<text text-anchor="middle" x="371.5" y="-62" font-family="Helvetica,sans-Serif" font-size="10.00">ARX/AR/arConfig.h</text>
</a>
</g>
</g>
<!-- Node2&#45;&gt;Node8 -->
<g id="edge7" class="edge">
<title>Node2&#45;&gt;Node8</title>
<path fill="none" stroke="#63b8ff" d="M543.39,-109.51C508.64,-100.61 455.27,-86.95 417.23,-77.21"/>
<polygon fill="#63b8ff" stroke="#63b8ff" points="418.46,-73.91 407.91,-74.82 416.73,-80.69 418.46,-73.91"/>
</g>
<!-- Node9 -->
<g id="node9" class="node">
<title>Node9</title>
<g id="a_node9"><a xlink:href="log_8h.html" target="_top" xlink:title="Logging utilities.">
<polygon fill="white" stroke="#666666" points="263.5,-74 169.5,-74 169.5,-55 263.5,-55 263.5,-74"/>
<text text-anchor="middle" x="216.5" y="-62" font-family="Helvetica,sans-Serif" font-size="10.00">ARX/ARUtil/log.h</text>
</a>
</g>
</g>
<!-- Node2&#45;&gt;Node9 -->
<g id="edge8" class="edge">
<title>Node2&#45;&gt;Node9</title>
<path fill="none" stroke="#63b8ff" d="M541.12,-113.03C478.06,-103.8 350.09,-85.06 275.03,-74.07"/>
<polygon fill="#63b8ff" stroke="#63b8ff" points="275.81,-70.65 265.41,-72.66 274.79,-77.57 275.81,-70.65"/>
</g>
<!-- Node13 -->
<g id="node13" class="node">
<title>Node13</title>
<g id="a_node13"><a xlink:href="matrix_8h.html" target="_top" xlink:title=" ">
<polygon fill="white" stroke="#666666" points="961,-74 868,-74 868,-55 961,-55 961,-74"/>
<text text-anchor="middle" x="914.5" y="-62" font-family="Helvetica,sans-Serif" font-size="10.00">ARX/AR/matrix.h</text>
</a>
</g>
</g>
<!-- Node2&#45;&gt;Node13 -->
<g id="edge15" class="edge">
<title>Node2&#45;&gt;Node13</title>
<path fill="none" stroke="#63b8ff" d="M615.74,-112.63C674.09,-103.42 787.51,-85.53 856.58,-74.64"/>
<polygon fill="#63b8ff" stroke="#63b8ff" points="856.86,-78.14 866.19,-73.12 855.77,-71.22 856.86,-78.14"/>
</g>
<!-- Node15 -->
<g id="node15" class="node">
<title>Node15</title>
<g id="a_node15"><a xlink:href="icp_8h.html" target="_top" xlink:title=" ">
<polygon fill="white" stroke="#666666" points="559,-74 480,-74 480,-55 559,-55 559,-74"/>
<text text-anchor="middle" x="519.5" y="-62" font-family="Helvetica,sans-Serif" font-size="10.00">ARX/AR/icp.h</text>
</a>
</g>
</g>
<!-- Node2&#45;&gt;Node15 -->
<g id="edge17" class="edge">
<title>Node2&#45;&gt;Node15</title>
<path fill="none" stroke="#63b8ff" d="M568.49,-109.51C560.13,-102 548,-91.1 537.9,-82.03"/>
<polygon fill="#63b8ff" stroke="#63b8ff" points="540.26,-79.45 530.49,-75.37 535.59,-84.66 540.26,-79.45"/>
</g>
<!-- Node17 -->
<g id="node17" class="node">
<title>Node17</title>
<g id="a_node17"><a xlink:href="param_8h.html" target="_top" xlink:title="artoolkitX functions for handling calibrated camera parameters.">
<polygon fill="white" stroke="#666666" points="811,-74 718,-74 718,-55 811,-55 811,-74"/>
<text text-anchor="middle" x="764.5" y="-62" font-family="Helvetica,sans-Serif" font-size="10.00">ARX/AR/param.h</text>
</a>
</g>
</g>
<!-- Node2&#45;&gt;Node17 -->
<g id="edge20" class="edge">
<title>Node2&#45;&gt;Node17</title>
<path fill="none" stroke="#63b8ff" d="M604.84,-109.51C634.07,-100.65 681.57,-87.07 717.24,-77.33"/>
<polygon fill="#63b8ff" stroke="#63b8ff" points="717.7,-80.84 726.44,-74.84 715.87,-74.08 717.7,-80.84"/>
</g>
<!-- Node18 -->
<g id="node18" class="node">
<title>Node18</title>
<g id="a_node18"><a xlink:href="ar_image_proc_8h.html" target="_top" xlink:title="artoolkitX functions for 2D luminance image processing.">
<polygon fill="white" stroke="#666666" points="699.5,-74 577.5,-74 577.5,-55 699.5,-55 699.5,-74"/>
<text text-anchor="middle" x="638.5" y="-62" font-family="Helvetica,sans-Serif" font-size="10.00">ARX/AR/arImageProc.h</text>
</a>
</g>
</g>
<!-- Node2&#45;&gt;Node18 -->
<g id="edge22" class="edge">
<title>Node2&#45;&gt;Node18</title>
<path fill="none" stroke="#63b8ff" d="M583.24,-109.75C590.31,-102.05 602.86,-90.64 614.33,-81.34"/>
<polygon fill="#63b8ff" stroke="#63b8ff" points="616.25,-84.28 621.98,-75.37 611.94,-78.76 616.25,-84.28"/>
</g>
<!-- Node9&#45;&gt;Node3 -->
<g id="edge9" class="edge">
<title>Node9&#45;&gt;Node3</title>
<path fill="none" stroke="#63b8ff" d="M254.83,-54.56C289.95,-46.3 343.66,-33.53 399.01,-19.59"/>
<polygon fill="#63b8ff" stroke="#63b8ff" points="399.79,-23 408.63,-17.16 398.08,-16.21 399.79,-23"/>
</g>
<!-- Node9&#45;&gt;Node4 -->
<g id="edge10" class="edge">
<title>Node9&#45;&gt;Node4</title>
<path fill="none" stroke="#63b8ff" d="M242.28,-54.51C267.3,-45.79 305.45,-32.49 333.26,-22.79"/>
<polygon fill="#63b8ff" stroke="#63b8ff" points="334.38,-26.1 342.67,-19.51 332.08,-19.49 334.38,-26.1"/>
</g>
<!-- Node9&#45;&gt;Node6 -->
<g id="edge11" class="edge">
<title>Node9&#45;&gt;Node6</title>
<path fill="none" stroke="#63b8ff" d="M183.93,-54.51C149.56,-45.02 95.56,-30.12 60.09,-20.32"/>
<polygon fill="#63b8ff" stroke="#63b8ff" points="61.3,-17.03 50.73,-17.74 59.44,-23.78 61.3,-17.03"/>
</g>
<!-- Node10 -->
<g id="node10" class="node">
<title>Node10</title>
<g id="a_node10"><a xlink:title=" ">
<polygon fill="#e0e0e0" stroke="#999999" points="242.5,-19 190.5,-19 190.5,0 242.5,0 242.5,-19"/>
<text text-anchor="middle" x="216.5" y="-7" font-family="Helvetica,sans-Serif" font-size="10.00">stdarg.h</text>
</a>
</g>
</g>
<!-- Node9&#45;&gt;Node10 -->
<g id="edge12" class="edge">
<title>Node9&#45;&gt;Node10</title>
<path fill="none" stroke="#63b8ff" d="M216.5,-54.75C216.5,-48.27 216.5,-39.16 216.5,-30.9"/>
<polygon fill="#63b8ff" stroke="#63b8ff" points="220,-30.96 216.5,-20.96 213,-30.96 220,-30.96"/>
</g>
<!-- Node11 -->
<g id="node11" class="node">
<title>Node11</title>
<g id="a_node11"><a xlink:title=" ">
<polygon fill="#e0e0e0" stroke="#999999" points="326,-19 261,-19 261,0 326,0 326,-19"/>
<text text-anchor="middle" x="293.5" y="-7" font-family="Helvetica,sans-Serif" font-size="10.00">sys/errno.h</text>
</a>
</g>
</g>
<!-- Node9&#45;&gt;Node11 -->
<g id="edge13" class="edge">
<title>Node9&#45;&gt;Node11</title>
<path fill="none" stroke="#63b8ff" d="M229.56,-54.51C241.02,-46.62 257.93,-34.98 271.48,-25.65"/>
<polygon fill="#63b8ff" stroke="#63b8ff" points="273.13,-28.77 279.38,-20.22 269.16,-23 273.13,-28.77"/>
</g>
<!-- Node12 -->
<g id="node12" class="node">
<title>Node12</title>
<g id="a_node12"><a xlink:href="types_8h.html" target="_top" xlink:title=" ">
<polygon fill="white" stroke="#666666" points="172,-19 67,-19 67,0 172,0 172,-19"/>
<text text-anchor="middle" x="119.5" y="-7" font-family="Helvetica,sans-Serif" font-size="10.00">ARX/ARUtil/types.h</text>
</a>
</g>
</g>
<!-- Node9&#45;&gt;Node12 -->
<g id="edge14" class="edge">
<title>Node9&#45;&gt;Node12</title>
<path fill="none" stroke="#63b8ff" d="M200.05,-54.51C185.18,-46.39 163.06,-34.3 145.75,-24.85"/>
<polygon fill="#63b8ff" stroke="#63b8ff" points="147.49,-21.81 137.04,-20.08 144.14,-27.95 147.49,-21.81"/>
</g>
<!-- Node14 -->
<g id="node14" class="node">
<title>Node14</title>
<g id="a_node14"><a xlink:title=" ">
<polygon fill="#e0e0e0" stroke="#999999" points="938,-19 891,-19 891,0 938,0 938,-19"/>
<text text-anchor="middle" x="914.5" y="-7" font-family="Helvetica,sans-Serif" font-size="10.00">math.h</text>
</a>
</g>
</g>
<!-- Node13&#45;&gt;Node14 -->
<g id="edge16" class="edge">
<title>Node13&#45;&gt;Node14</title>
<path fill="none" stroke="#63b8ff" d="M914.5,-54.75C914.5,-48.27 914.5,-39.16 914.5,-30.9"/>
<polygon fill="#63b8ff" stroke="#63b8ff" points="918,-30.96 914.5,-20.96 911,-30.96 918,-30.96"/>
</g>
<!-- Node15&#45;&gt;Node3 -->
<g id="edge18" class="edge">
<title>Node15&#45;&gt;Node3</title>
<path fill="none" stroke="#63b8ff" d="M504.91,-54.51C491.98,-46.54 472.86,-34.75 457.65,-25.38"/>
<polygon fill="#63b8ff" stroke="#63b8ff" points="459.51,-22.42 449.16,-20.15 455.84,-28.38 459.51,-22.42"/>
</g>
<!-- Node16 -->
<g id="node16" class="node">
<title>Node16</title>
<g id="a_node16"><a xlink:href="icp_core_8h.html" target="_top" xlink:title=" ">
<polygon fill="white" stroke="#666666" points="574.5,-19 474.5,-19 474.5,0 574.5,0 574.5,-19"/>
<text text-anchor="middle" x="524.5" y="-7" font-family="Helvetica,sans-Serif" font-size="10.00">ARX/AR/icpCore.h</text>
</a>
</g>
</g>
<!-- Node15&#45;&gt;Node16 -->
<g id="edge19" class="edge">
<title>Node15&#45;&gt;Node16</title>
<path fill="none" stroke="#63b8ff" d="M520.33,-54.75C520.94,-48.27 521.8,-39.16 522.58,-30.9"/>
<polygon fill="#63b8ff" stroke="#63b8ff" points="526.06,-31.23 523.51,-20.95 519.09,-30.58 526.06,-31.23"/>
</g>
<!-- Node17&#45;&gt;Node2 -->
<g id="edge21" class="edge">
<title>Node17&#45;&gt;Node2</title>
<path fill="none" stroke="#63b8ff" d="M738.31,-74.45C709.14,-83.29 661.65,-96.87 625.94,-106.62"/>
<polygon fill="#63b8ff" stroke="#63b8ff" points="625.47,-103.12 616.73,-109.11 627.3,-109.88 625.47,-103.12"/>
</g>
<!-- Node18&#45;&gt;Node2 -->
<g id="edge24" class="edge">
<title>Node18&#45;&gt;Node2</title>
<path fill="none" stroke="#63b8ff" d="M633.66,-74.36C626.58,-82.05 614.11,-93.39 602.69,-102.64"/>
<polygon fill="#63b8ff" stroke="#63b8ff" points="600.82,-99.67 595.09,-108.58 605.12,-105.18 600.82,-99.67"/>
</g>
<!-- Node18&#45;&gt;Node7 -->
<g id="edge23" class="edge">
<title>Node18&#45;&gt;Node7</title>
<path fill="none" stroke="#63b8ff" d="M654.45,-54.51C668.85,-46.39 690.29,-34.3 707.06,-24.85"/>
<polygon fill="#63b8ff" stroke="#63b8ff" points="708.48,-28.06 715.47,-20.1 705.04,-21.96 708.48,-28.06"/>
</g>
<!-- Node20 -->
<g id="node20" class="node">
<title>Node20</title>
<g id="a_node20"><a xlink:title=" ">
<polygon fill="#e0e0e0" stroke="#999999" points="1086,-74 979,-74 979,-55 1086,-55 1086,-74"/>
<text text-anchor="middle" x="1032.5" y="-62" font-family="Helvetica,sans-Serif" font-size="10.00">ARX/KPM/surfSub.h</text>
</a>
</g>
</g>
<!-- Node19&#45;&gt;Node20 -->
<g id="edge26" class="edge">
<title>Node19&#45;&gt;Node20</title>
<path fill="none" stroke="#63b8ff" d="M890.51,-109.51C918.6,-100.8 961.41,-87.53 992.69,-77.84"/>
<polygon fill="#63b8ff" stroke="#63b8ff" points="993.67,-81.2 1002.19,-74.89 991.6,-74.51 993.67,-81.2"/>
</g>
</g>
</svg>
