<?xml version="1.0" encoding="UTF-8" standalone="no"?>
<!DOCTYPE svg PUBLIC "-//W3C//DTD SVG 1.1//EN"
 "http://www.w3.org/Graphics/SVG/1.1/DTD/svg11.dtd">
<!-- Generated by graphviz version 7.0.5 (20221223.1930)
 -->
<!-- Title: Source/ARX/KPM/kpmFopen.c Pages: 1 -->
<svg width="1165pt" height="247pt"
 viewBox="0.00 0.00 1164.50 247.00" xmlns="http://www.w3.org/2000/svg" xmlns:xlink="http://www.w3.org/1999/xlink">
<g id="graph0" class="graph" transform="scale(1 1) rotate(0) translate(4 243)">
<title>Source/ARX/KPM/kpmFopen.c</title>
<!-- Node1 -->
<g id="node1" class="node">
<title>Node1</title>
<g id="a_node1"><a xlink:title=" ">
<polygon fill="#999999" stroke="#666666" points="376.5,-239 223.5,-239 223.5,-220 376.5,-220 376.5,-239"/>
<text text-anchor="middle" x="300" y="-227" font-family="Helvetica,sans-Serif" font-size="10.00">Source/ARX/KPM/kpmFopen.c</text>
</a>
</g>
</g>
<!-- Node2 -->
<g id="node2" class="node">
<title>Node2</title>
<g id="a_node2"><a xlink:title=" ">
<polygon fill="#e0e0e0" stroke="#999999" points="46,-19 0,-19 0,0 46,0 46,-19"/>
<text text-anchor="middle" x="23" y="-7" font-family="Helvetica,sans-Serif" font-size="10.00">stdio.h</text>
</a>
</g>
</g>
<!-- Node1&#45;&gt;Node2 -->
<g id="edge1" class="edge">
<title>Node1&#45;&gt;Node2</title>
<path fill="none" stroke="#63b8ff" d="M232.84,-219.52C176.5,-208.29 98.48,-183.43 55,-129 32.01,-100.22 25.48,-56.27 23.66,-30.77"/>
<polygon fill="#63b8ff" stroke="#63b8ff" points="27.15,-30.61 23.15,-20.8 20.16,-30.96 27.15,-30.61"/>
</g>
<!-- Node3 -->
<g id="node3" class="node">
<title>Node3</title>
<g id="a_node3"><a xlink:title=" ">
<polygon fill="#e0e0e0" stroke="#999999" points="230,-19 182,-19 182,0 230,0 230,-19"/>
<text text-anchor="middle" x="206" y="-7" font-family="Helvetica,sans-Serif" font-size="10.00">stdlib.h</text>
</a>
</g>
</g>
<!-- Node1&#45;&gt;Node3 -->
<g id="edge2" class="edge">
<title>Node1&#45;&gt;Node3</title>
<path fill="none" stroke="#63b8ff" d="M296.2,-219.68C282.26,-187.36 233.77,-74.9 214.24,-29.61"/>
<polygon fill="#63b8ff" stroke="#63b8ff" points="217.52,-28.37 210.34,-20.58 211.09,-31.15 217.52,-28.37"/>
</g>
<!-- Node4 -->
<g id="node4" class="node">
<title>Node4</title>
<g id="a_node4"><a xlink:title=" ">
<polygon fill="#e0e0e0" stroke="#999999" points="573.5,-19 524.5,-19 524.5,0 573.5,0 573.5,-19"/>
<text text-anchor="middle" x="549" y="-7" font-family="Helvetica,sans-Serif" font-size="10.00">string.h</text>
</a>
</g>
</g>
<!-- Node1&#45;&gt;Node4 -->
<g id="edge3" class="edge">
<title>Node1&#45;&gt;Node4</title>
<path fill="none" stroke="#63b8ff" d="M305.16,-219.67C321.84,-191.82 377.1,-104.76 444,-55 464.87,-39.48 491.98,-28.17 513.42,-20.83"/>
<polygon fill="#63b8ff" stroke="#63b8ff" points="514.5,-24.16 522.92,-17.73 512.33,-17.51 514.5,-24.16"/>
</g>
<!-- Node5 -->
<g id="node5" class="node">
<title>Node5</title>
<g id="a_node5"><a xlink:href="kpm_8h.html" target="_top" xlink:title=" ">
<polygon fill="white" stroke="#666666" points="522,-184 430,-184 430,-165 522,-165 522,-184"/>
<text text-anchor="middle" x="476" y="-172" font-family="Helvetica,sans-Serif" font-size="10.00">ARX/KPM/kpm.h</text>
</a>
</g>
</g>
<!-- Node1&#45;&gt;Node5 -->
<g id="edge4" class="edge">
<title>Node1&#45;&gt;Node5</title>
<path fill="none" stroke="#63b8ff" d="M329.86,-219.51C358.89,-210.76 403.22,-197.42 435.44,-187.71"/>
<polygon fill="#63b8ff" stroke="#63b8ff" points="436.28,-191.12 444.84,-184.88 434.26,-184.41 436.28,-191.12"/>
</g>
<!-- Node22 -->
<g id="node22" class="node">
<title>Node22</title>
<g id="a_node22"><a xlink:href="kpm_fopen_8h.html" target="_top" xlink:title=" ">
<polygon fill="white" stroke="#666666" points="135.5,-129 64.5,-129 64.5,-110 135.5,-110 135.5,-129"/>
<text text-anchor="middle" x="100" y="-117" font-family="Helvetica,sans-Serif" font-size="10.00">kpmFopen.h</text>
</a>
</g>
</g>
<!-- Node1&#45;&gt;Node22 -->
<g id="edge31" class="edge">
<title>Node1&#45;&gt;Node22</title>
<path fill="none" stroke="#63b8ff" d="M273.98,-219.56C251.65,-211.47 218.91,-198.61 192,-184 165.95,-169.86 138.24,-149.99 120.12,-136.26"/>
<polygon fill="#63b8ff" stroke="#63b8ff" points="122.38,-133.58 112.31,-130.26 118.11,-139.13 122.38,-133.58"/>
</g>
<!-- Node23 -->
<g id="node23" class="node">
<title>Node23</title>
<g id="a_node23"><a xlink:title=" ">
<polygon fill="#e0e0e0" stroke="#999999" points="611.5,-184 540.5,-184 540.5,-165 611.5,-165 611.5,-184"/>
<text text-anchor="middle" x="576" y="-172" font-family="Helvetica,sans-Serif" font-size="10.00">sys/param.h</text>
</a>
</g>
</g>
<!-- Node1&#45;&gt;Node23 -->
<g id="edge33" class="edge">
<title>Node1&#45;&gt;Node23</title>
<path fill="none" stroke="#63b8ff" d="M346.82,-219.51C397.72,-209.73 478.58,-194.21 529.4,-184.45"/>
<polygon fill="#63b8ff" stroke="#63b8ff" points="529.74,-187.95 538.9,-182.62 528.42,-181.07 529.74,-187.95"/>
</g>
<!-- Node6 -->
<g id="node6" class="node">
<title>Node6</title>
<g id="a_node6"><a xlink:href="ar_8h.html" target="_top" xlink:title="artoolkitX core routines.">
<polygon fill="white" stroke="#666666" points="548,-129 474,-129 474,-110 548,-110 548,-129"/>
<text text-anchor="middle" x="511" y="-117" font-family="Helvetica,sans-Serif" font-size="10.00">ARX/AR/ar.h</text>
</a>
</g>
</g>
<!-- Node5&#45;&gt;Node6 -->
<g id="edge5" class="edge">
<title>Node5&#45;&gt;Node6</title>
<path fill="none" stroke="#63b8ff" d="M481.78,-164.75C486.41,-157.73 493.07,-147.64 498.87,-138.87"/>
<polygon fill="#63b8ff" stroke="#63b8ff" points="501.67,-140.98 504.26,-130.71 495.83,-137.12 501.67,-140.98"/>
</g>
<!-- Node20 -->
<g id="node20" class="node">
<title>Node20</title>
<g id="a_node20"><a xlink:href="kpm_type_8h.html" target="_top" xlink:title=" ">
<polygon fill="white" stroke="#666666" points="932.5,-129 819.5,-129 819.5,-110 932.5,-110 932.5,-129"/>
<text text-anchor="middle" x="876" y="-117" font-family="Helvetica,sans-Serif" font-size="10.00">ARX/KPM/kpmType.h</text>
</a>
</g>
</g>
<!-- Node5&#45;&gt;Node20 -->
<g id="edge29" class="edge">
<title>Node5&#45;&gt;Node20</title>
<path fill="none" stroke="#63b8ff" d="M522.44,-166.37C525.67,-165.9 528.88,-165.44 532,-165 627.61,-151.56 738.38,-137.5 807.83,-128.87"/>
<polygon fill="#63b8ff" stroke="#63b8ff" points="808.04,-132.37 817.53,-127.67 807.18,-125.42 808.04,-132.37"/>
</g>
<!-- Node6&#45;&gt;Node2 -->
<g id="edge6" class="edge">
<title>Node6&#45;&gt;Node2</title>
<path fill="none" stroke="#63b8ff" d="M473.61,-117.64C383.54,-115.09 156.96,-105.63 89,-74 67,-63.76 47.78,-43.17 35.84,-28.21"/>
<polygon fill="#63b8ff" stroke="#63b8ff" points="38.85,-26.38 30.01,-20.55 33.29,-30.63 38.85,-26.38"/>
</g>
<!-- Node6&#45;&gt;Node3 -->
<g id="edge7" class="edge">
<title>Node6&#45;&gt;Node3</title>
<path fill="none" stroke="#63b8ff" d="M473.62,-119.16C422.77,-118.5 330.44,-111.58 263,-74 243.63,-63.21 227.43,-43.33 217.31,-28.68"/>
<polygon fill="#63b8ff" stroke="#63b8ff" points="220.29,-26.85 211.89,-20.4 214.44,-30.69 220.29,-26.85"/>
</g>
<!-- Node6&#45;&gt;Node4 -->
<g id="edge9" class="edge">
<title>Node6&#45;&gt;Node4</title>
<path fill="none" stroke="#63b8ff" d="M491.6,-109.51C469.46,-97.96 438.03,-76.79 452,-55 459.19,-43.79 488.88,-31.14 513.54,-22.2"/>
<polygon fill="#63b8ff" stroke="#63b8ff" points="514.38,-25.62 522.64,-19 512.05,-19.02 514.38,-25.62"/>
</g>
<!-- Node7 -->
<g id="node7" class="node">
<title>Node7</title>
<g id="a_node7"><a xlink:title=" ">
<polygon fill="#e0e0e0" stroke="#999999" points="509.5,-74 460.5,-74 460.5,-55 509.5,-55 509.5,-74"/>
<text text-anchor="middle" x="485" y="-62" font-family="Helvetica,sans-Serif" font-size="10.00">stdint.h</text>
</a>
</g>
</g>
<!-- Node6&#45;&gt;Node7 -->
<g id="edge8" class="edge">
<title>Node6&#45;&gt;Node7</title>
<path fill="none" stroke="#63b8ff" d="M506.71,-109.75C503.38,-102.96 498.64,-93.3 494.44,-84.73"/>
<polygon fill="#63b8ff" stroke="#63b8ff" points="497.6,-83.24 490.05,-75.8 491.32,-86.32 497.6,-83.24"/>
</g>
<!-- Node8 -->
<g id="node8" class="node">
<title>Node8</title>
<g id="a_node8"><a xlink:title=" ">
<polygon fill="#e0e0e0" stroke="#999999" points="684,-19 592,-19 592,0 684,0 684,-19"/>
<text text-anchor="middle" x="638" y="-7" font-family="Helvetica,sans-Serif" font-size="10.00">ARX/AR/config.h</text>
</a>
</g>
</g>
<!-- Node6&#45;&gt;Node8 -->
<g id="edge10" class="edge">
<title>Node6&#45;&gt;Node8</title>
<path fill="none" stroke="#63b8ff" d="M515.65,-109.76C523.01,-96.57 538.42,-71.39 557,-55 571.37,-42.32 589.96,-31.78 605.71,-24.15"/>
<polygon fill="#63b8ff" stroke="#63b8ff" points="607.1,-27.37 614.7,-19.98 604.15,-21.02 607.1,-27.37"/>
</g>
<!-- Node9 -->
<g id="node9" class="node">
<title>Node9</title>
<g id="a_node9"><a xlink:href="ar_config_8h.html" target="_top" xlink:title=" ">
<polygon fill="white" stroke="#666666" points="809.5,-74 706.5,-74 706.5,-55 809.5,-55 809.5,-74"/>
<text text-anchor="middle" x="758" y="-62" font-family="Helvetica,sans-Serif" font-size="10.00">ARX/AR/arConfig.h</text>
</a>
</g>
</g>
<!-- Node6&#45;&gt;Node9 -->
<g id="edge11" class="edge">
<title>Node6&#45;&gt;Node9</title>
<path fill="none" stroke="#63b8ff" d="M548.25,-110.51C589.95,-101.56 657.88,-86.98 705.09,-76.85"/>
<polygon fill="#63b8ff" stroke="#63b8ff" points="705.79,-80.28 714.84,-74.76 704.32,-73.44 705.79,-80.28"/>
</g>
<!-- Node10 -->
<g id="node10" class="node">
<title>Node10</title>
<g id="a_node10"><a xlink:href="log_8h.html" target="_top" xlink:title="Logging utilities.">
<polygon fill="white" stroke="#666666" points="366,-74 272,-74 272,-55 366,-55 366,-74"/>
<text text-anchor="middle" x="319" y="-62" font-family="Helvetica,sans-Serif" font-size="10.00">ARX/ARUtil/log.h</text>
</a>
</g>
</g>
<!-- Node6&#45;&gt;Node10 -->
<g id="edge12" class="edge">
<title>Node6&#45;&gt;Node10</title>
<path fill="none" stroke="#63b8ff" d="M478.43,-109.51C446.47,-100.69 397.55,-87.18 362.32,-77.46"/>
<polygon fill="#63b8ff" stroke="#63b8ff" points="363.44,-74.14 352.87,-74.85 361.58,-80.88 363.44,-74.14"/>
</g>
<!-- Node14 -->
<g id="node14" class="node">
<title>Node14</title>
<g id="a_node14"><a xlink:href="matrix_8h.html" target="_top" xlink:title=" ">
<polygon fill="white" stroke="#666666" points="920.5,-74 827.5,-74 827.5,-55 920.5,-55 920.5,-74"/>
<text text-anchor="middle" x="874" y="-62" font-family="Helvetica,sans-Serif" font-size="10.00">ARX/AR/matrix.h</text>
</a>
</g>
</g>
<!-- Node6&#45;&gt;Node14 -->
<g id="edge19" class="edge">
<title>Node6&#45;&gt;Node14</title>
<path fill="none" stroke="#63b8ff" d="M548.47,-113.21C604.44,-105.28 713.47,-89.72 816.02,-74.44"/>
<polygon fill="#63b8ff" stroke="#63b8ff" points="816.33,-77.93 825.7,-72.99 815.29,-71 816.33,-77.93"/>
</g>
<!-- Node16 -->
<g id="node16" class="node">
<title>Node16</title>
<g id="a_node16"><a xlink:href="icp_8h.html" target="_top" xlink:title=" ">
<polygon fill="white" stroke="#666666" points="177.5,-74 98.5,-74 98.5,-55 177.5,-55 177.5,-74"/>
<text text-anchor="middle" x="138" y="-62" font-family="Helvetica,sans-Serif" font-size="10.00">ARX/AR/icp.h</text>
</a>
</g>
</g>
<!-- Node6&#45;&gt;Node16 -->
<g id="edge21" class="edge">
<title>Node6&#45;&gt;Node16</title>
<path fill="none" stroke="#63b8ff" d="M473.53,-113.18C406.31,-103.63 265.2,-83.57 189.15,-72.77"/>
<polygon fill="#63b8ff" stroke="#63b8ff" points="189.87,-69.33 179.47,-71.39 188.88,-76.27 189.87,-69.33"/>
</g>
<!-- Node18 -->
<g id="node18" class="node">
<title>Node18</title>
<g id="a_node18"><a xlink:href="param_8h.html" target="_top" xlink:title="artoolkitX functions for handling calibrated camera parameters.">
<polygon fill="white" stroke="#666666" points="1031.5,-74 938.5,-74 938.5,-55 1031.5,-55 1031.5,-74"/>
<text text-anchor="middle" x="985" y="-62" font-family="Helvetica,sans-Serif" font-size="10.00">ARX/AR/param.h</text>
</a>
</g>
</g>
<!-- Node6&#45;&gt;Node18 -->
<g id="edge24" class="edge">
<title>Node6&#45;&gt;Node18</title>
<path fill="none" stroke="#63b8ff" d="M548.24,-114.65C620.43,-107.65 783.72,-91.89 921,-74 923,-73.74 925.03,-73.47 927.09,-73.18"/>
<polygon fill="#63b8ff" stroke="#63b8ff" points="927.36,-76.68 936.77,-71.8 926.38,-69.75 927.36,-76.68"/>
</g>
<!-- Node19 -->
<g id="node19" class="node">
<title>Node19</title>
<g id="a_node19"><a xlink:href="ar_image_proc_8h.html" target="_top" xlink:title="artoolkitX functions for 2D luminance image processing.">
<polygon fill="white" stroke="#666666" points="688,-74 566,-74 566,-55 688,-55 688,-74"/>
<text text-anchor="middle" x="627" y="-62" font-family="Helvetica,sans-Serif" font-size="10.00">ARX/AR/arImageProc.h</text>
</a>
</g>
</g>
<!-- Node6&#45;&gt;Node19 -->
<g id="edge26" class="edge">
<title>Node6&#45;&gt;Node19</title>
<path fill="none" stroke="#63b8ff" d="M525.46,-109.51C542.14,-101.08 569.7,-88.38 591.98,-78.79"/>
<polygon fill="#63b8ff" stroke="#63b8ff" points="593.19,-82.07 601.03,-74.95 590.46,-75.63 593.19,-82.07"/>
</g>
<!-- Node10&#45;&gt;Node2 -->
<g id="edge13" class="edge">
<title>Node10&#45;&gt;Node2</title>
<path fill="none" stroke="#63b8ff" d="M271.53,-56.85C220.77,-49.44 137.7,-36.46 57.19,-19.31"/>
<polygon fill="#63b8ff" stroke="#63b8ff" points="58.35,-15.98 47.84,-17.29 56.87,-22.82 58.35,-15.98"/>
</g>
<!-- Node10&#45;&gt;Node3 -->
<g id="edge14" class="edge">
<title>Node10&#45;&gt;Node3</title>
<path fill="none" stroke="#63b8ff" d="M299.83,-54.51C282.11,-46.2 255.52,-33.73 235.17,-24.18"/>
<polygon fill="#63b8ff" stroke="#63b8ff" points="236.8,-21.08 226.26,-20 233.82,-27.42 236.8,-21.08"/>
</g>
<!-- Node10&#45;&gt;Node4 -->
<g id="edge15" class="edge">
<title>Node10&#45;&gt;Node4</title>
<path fill="none" stroke="#63b8ff" d="M360.21,-54.57C397.79,-46.34 455.11,-33.58 513.29,-19.61"/>
<polygon fill="#63b8ff" stroke="#63b8ff" points="513.78,-23.09 522.68,-17.34 512.14,-16.28 513.78,-23.09"/>
</g>
<!-- Node11 -->
<g id="node11" class="node">
<title>Node11</title>
<g id="a_node11"><a xlink:title=" ">
<polygon fill="#e0e0e0" stroke="#999999" points="300,-19 248,-19 248,0 300,0 300,-19"/>
<text text-anchor="middle" x="274" y="-7" font-family="Helvetica,sans-Serif" font-size="10.00">stdarg.h</text>
</a>
</g>
</g>
<!-- Node10&#45;&gt;Node11 -->
<g id="edge16" class="edge">
<title>Node10&#45;&gt;Node11</title>
<path fill="none" stroke="#63b8ff" d="M311.57,-54.75C305.42,-47.5 296.49,-36.98 288.87,-28.02"/>
<polygon fill="#63b8ff" stroke="#63b8ff" points="291.71,-25.95 282.57,-20.6 286.38,-30.48 291.71,-25.95"/>
</g>
<!-- Node12 -->
<g id="node12" class="node">
<title>Node12</title>
<g id="a_node12"><a xlink:title=" ">
<polygon fill="#e0e0e0" stroke="#999999" points="383.5,-19 318.5,-19 318.5,0 383.5,0 383.5,-19"/>
<text text-anchor="middle" x="351" y="-7" font-family="Helvetica,sans-Serif" font-size="10.00">sys/errno.h</text>
</a>
</g>
</g>
<!-- Node10&#45;&gt;Node12 -->
<g id="edge17" class="edge">
<title>Node10&#45;&gt;Node12</title>
<path fill="none" stroke="#63b8ff" d="M324.28,-54.75C328.47,-47.81 334.48,-37.86 339.73,-29.16"/>
<polygon fill="#63b8ff" stroke="#63b8ff" points="342.65,-31.11 344.82,-20.74 336.65,-27.49 342.65,-31.11"/>
</g>
<!-- Node13 -->
<g id="node13" class="node">
<title>Node13</title>
<g id="a_node13"><a xlink:href="types_8h.html" target="_top" xlink:title=" ">
<polygon fill="white" stroke="#666666" points="506.5,-19 401.5,-19 401.5,0 506.5,0 506.5,-19"/>
<text text-anchor="middle" x="454" y="-7" font-family="Helvetica,sans-Serif" font-size="10.00">ARX/ARUtil/types.h</text>
</a>
</g>
</g>
<!-- Node10&#45;&gt;Node13 -->
<g id="edge18" class="edge">
<title>Node10&#45;&gt;Node13</title>
<path fill="none" stroke="#63b8ff" d="M341.9,-54.51C363.56,-46.01 396.31,-33.15 420.82,-23.53"/>
<polygon fill="#63b8ff" stroke="#63b8ff" points="422,-26.82 430.03,-19.91 419.44,-20.31 422,-26.82"/>
</g>
<!-- Node15 -->
<g id="node15" class="node">
<title>Node15</title>
<g id="a_node15"><a xlink:title=" ">
<polygon fill="#e0e0e0" stroke="#999999" points="897.5,-19 850.5,-19 850.5,0 897.5,0 897.5,-19"/>
<text text-anchor="middle" x="874" y="-7" font-family="Helvetica,sans-Serif" font-size="10.00">math.h</text>
</a>
</g>
</g>
<!-- Node14&#45;&gt;Node15 -->
<g id="edge20" class="edge">
<title>Node14&#45;&gt;Node15</title>
<path fill="none" stroke="#63b8ff" d="M874,-54.75C874,-48.27 874,-39.16 874,-30.9"/>
<polygon fill="#63b8ff" stroke="#63b8ff" points="877.5,-30.96 874,-20.96 870.5,-30.96 877.5,-30.96"/>
</g>
<!-- Node16&#45;&gt;Node2 -->
<g id="edge22" class="edge">
<title>Node16&#45;&gt;Node2</title>
<path fill="none" stroke="#63b8ff" d="M118.49,-54.51C100.37,-46.16 73.15,-33.61 52.4,-24.05"/>
<polygon fill="#63b8ff" stroke="#63b8ff" points="54.14,-21 43.59,-19.99 51.21,-27.36 54.14,-21"/>
</g>
<!-- Node17 -->
<g id="node17" class="node">
<title>Node17</title>
<g id="a_node17"><a xlink:href="icp_core_8h.html" target="_top" xlink:title=" ">
<polygon fill="white" stroke="#666666" points="164,-19 64,-19 64,0 164,0 164,-19"/>
<text text-anchor="middle" x="114" y="-7" font-family="Helvetica,sans-Serif" font-size="10.00">ARX/AR/icpCore.h</text>
</a>
</g>
</g>
<!-- Node16&#45;&gt;Node17 -->
<g id="edge23" class="edge">
<title>Node16&#45;&gt;Node17</title>
<path fill="none" stroke="#63b8ff" d="M134.04,-54.75C130.96,-47.96 126.59,-38.3 122.71,-29.73"/>
<polygon fill="#63b8ff" stroke="#63b8ff" points="125.99,-28.49 118.67,-20.82 119.61,-31.37 125.99,-28.49"/>
</g>
<!-- Node18&#45;&gt;Node6 -->
<g id="edge25" class="edge">
<title>Node18&#45;&gt;Node6</title>
<path fill="none" stroke="#63b8ff" d="M938.16,-74.11C801.43,-91.9 639.15,-107.58 559.62,-114.59"/>
<polygon fill="#63b8ff" stroke="#63b8ff" points="559.66,-111.08 550,-115.43 560.27,-118.05 559.66,-111.08"/>
</g>
<!-- Node19&#45;&gt;Node6 -->
<g id="edge28" class="edge">
<title>Node19&#45;&gt;Node6</title>
<path fill="none" stroke="#63b8ff" d="M612.8,-74.36C596.24,-82.74 568.71,-95.43 546.37,-105.06"/>
<polygon fill="#63b8ff" stroke="#63b8ff" points="545.13,-101.79 537.29,-108.92 547.86,-108.23 545.13,-101.79"/>
</g>
<!-- Node19&#45;&gt;Node8 -->
<g id="edge27" class="edge">
<title>Node19&#45;&gt;Node8</title>
<path fill="none" stroke="#63b8ff" d="M628.82,-54.75C630.18,-48.19 632.1,-38.95 633.83,-30.6"/>
<polygon fill="#63b8ff" stroke="#63b8ff" points="637.23,-31.43 635.84,-20.92 630.38,-30 637.23,-31.43"/>
</g>
<!-- Node21 -->
<g id="node21" class="node">
<title>Node21</title>
<g id="a_node21"><a xlink:title=" ">
<polygon fill="#e0e0e0" stroke="#999999" points="1156.5,-74 1049.5,-74 1049.5,-55 1156.5,-55 1156.5,-74"/>
<text text-anchor="middle" x="1103" y="-62" font-family="Helvetica,sans-Serif" font-size="10.00">ARX/KPM/surfSub.h</text>
</a>
</g>
</g>
<!-- Node20&#45;&gt;Node21 -->
<g id="edge30" class="edge">
<title>Node20&#45;&gt;Node21</title>
<path fill="none" stroke="#63b8ff" d="M914.51,-109.51C952.86,-100.55 1011.89,-86.77 1053.66,-77.02"/>
<polygon fill="#63b8ff" stroke="#63b8ff" points="1054.27,-80.47 1063.21,-74.79 1052.68,-73.66 1054.27,-80.47"/>
</g>
<!-- Node22&#45;&gt;Node2 -->
<g id="edge32" class="edge">
<title>Node22&#45;&gt;Node2</title>
<path fill="none" stroke="#63b8ff" d="M89.67,-109.71C80.13,-101.23 65.98,-87.7 56,-74 45.82,-60.02 36.95,-42.46 30.98,-29.36"/>
<polygon fill="#63b8ff" stroke="#63b8ff" points="34.35,-28.32 27.13,-20.57 27.94,-31.14 34.35,-28.32"/>
</g>
</g>
</svg>
