<?xml version="1.0" encoding="UTF-8" standalone="no"?>
<!DOCTYPE svg PUBLIC "-//W3C//DTD SVG 1.1//EN"
 "http://www.w3.org/Graphics/SVG/1.1/DTD/svg11.dtd">
<!-- Generated by graphviz version 7.0.5 (20221223.1930)
 -->
<!-- Title: Source/ARX/KPM/include/ARX/KPM/kpmType.h Pages: 1 -->
<svg width="1067pt" height="170pt"
 viewBox="0.00 0.00 1067.00 170.00" xmlns="http://www.w3.org/2000/svg" xmlns:xlink="http://www.w3.org/1999/xlink">
<g id="graph0" class="graph" transform="scale(1 1) rotate(0) translate(4 166)">
<title>Source/ARX/KPM/include/ARX/KPM/kpmType.h</title>
<!-- Node1 -->
<g id="node1" class="node">
<title>Node1</title>
<g id="a_node1"><a xlink:title=" ">
<polygon fill="#999999" stroke="#666666" points="876,-162 746,-162 746,-132 876,-132 876,-162"/>
<text text-anchor="start" x="754" y="-150" font-family="Helvetica,sans-Serif" font-size="10.00">Source/ARX/KPM/include</text>
<text text-anchor="middle" x="811" y="-139" font-family="Helvetica,sans-Serif" font-size="10.00">/ARX/KPM/kpmType.h</text>
</a>
</g>
</g>
<!-- Node2 -->
<g id="node2" class="node">
<title>Node2</title>
<g id="a_node2"><a xlink:href="kpm_8h.html" target="_top" xlink:title=" ">
<polygon fill="white" stroke="#666666" points="697,-96 567,-96 567,-66 697,-66 697,-96"/>
<text text-anchor="start" x="575" y="-84" font-family="Helvetica,sans-Serif" font-size="10.00">Source/ARX/KPM/include</text>
<text text-anchor="middle" x="632" y="-73" font-family="Helvetica,sans-Serif" font-size="10.00">/ARX/KPM/kpm.h</text>
</a>
</g>
</g>
<!-- Node1&#45;&gt;Node2 -->
<g id="edge1" class="edge">
<title>Node1&#45;&gt;Node2</title>
<path fill="none" stroke="#63b8ff" d="M760.11,-127.8C732.29,-117.86 698.32,-105.71 672.35,-96.43"/>
<polygon fill="#63b8ff" stroke="#63b8ff" points="758.81,-131.06 769.4,-131.13 761.17,-124.47 758.81,-131.06"/>
</g>
<!-- Node6 -->
<g id="node6" class="node">
<title>Node6</title>
<g id="a_node6"><a xlink:href="kpm_ref_data_set_8cpp.html" target="_top" xlink:title=" ">
<polygon fill="white" stroke="#666666" points="888.5,-30 733.5,-30 733.5,0 888.5,0 888.5,-30"/>
<text text-anchor="start" x="741.5" y="-18" font-family="Helvetica,sans-Serif" font-size="10.00">Source/ARX/KPM/kpmRefData</text>
<text text-anchor="middle" x="811" y="-7" font-family="Helvetica,sans-Serif" font-size="10.00">Set.cpp</text>
</a>
</g>
</g>
<!-- Node1&#45;&gt;Node6 -->
<g id="edge8" class="edge">
<title>Node1&#45;&gt;Node6</title>
<path fill="none" stroke="#63b8ff" d="M811,-120.38C811,-93.49 811,-52.18 811,-30.47"/>
<polygon fill="#63b8ff" stroke="#63b8ff" points="807.5,-120.08 811,-130.08 814.5,-120.08 807.5,-120.08"/>
</g>
<!-- Node8 -->
<g id="node8" class="node">
<title>Node8</title>
<g id="a_node8"><a xlink:href="kpm_util_8cpp.html" target="_top" xlink:title=" ">
<polygon fill="white" stroke="#666666" points="1059,-24.5 907,-24.5 907,-5.5 1059,-5.5 1059,-24.5"/>
<text text-anchor="middle" x="983" y="-12.5" font-family="Helvetica,sans-Serif" font-size="10.00">Source/ARX/KPM/kpmUtil.cpp</text>
</a>
</g>
</g>
<!-- Node1&#45;&gt;Node8 -->
<g id="edge9" class="edge">
<title>Node1&#45;&gt;Node8</title>
<path fill="none" stroke="#63b8ff" d="M839.17,-124.71C877.59,-95.67 944.69,-44.95 971.48,-24.71"/>
<polygon fill="#63b8ff" stroke="#63b8ff" points="837.14,-121.86 831.27,-130.68 841.36,-127.44 837.14,-121.86"/>
</g>
<!-- Node3 -->
<g id="node3" class="node">
<title>Node3</title>
<g id="a_node3"><a xlink:href="kpm_fopen_8c.html" target="_top" xlink:title=" ">
<polygon fill="white" stroke="#666666" points="530.5,-24.5 377.5,-24.5 377.5,-5.5 530.5,-5.5 530.5,-24.5"/>
<text text-anchor="middle" x="454" y="-12.5" font-family="Helvetica,sans-Serif" font-size="10.00">Source/ARX/KPM/kpmFopen.c</text>
</a>
</g>
</g>
<!-- Node2&#45;&gt;Node3 -->
<g id="edge2" class="edge">
<title>Node2&#45;&gt;Node3</title>
<path fill="none" stroke="#63b8ff" d="M581.52,-61.85C548.01,-49.8 505.47,-34.51 478.99,-24.99"/>
<polygon fill="#63b8ff" stroke="#63b8ff" points="580.03,-65.04 590.63,-65.13 582.4,-58.45 580.03,-65.04"/>
</g>
<!-- Node4 -->
<g id="node4" class="node">
<title>Node4</title>
<g id="a_node4"><a xlink:href="kpm_handle_8cpp.html" target="_top" xlink:title=" ">
<polygon fill="white" stroke="#666666" points="715.5,-24.5 548.5,-24.5 548.5,-5.5 715.5,-5.5 715.5,-24.5"/>
<text text-anchor="middle" x="632" y="-12.5" font-family="Helvetica,sans-Serif" font-size="10.00">Source/ARX/KPM/kpmHandle.cpp</text>
</a>
</g>
</g>
<!-- Node2&#45;&gt;Node4 -->
<g id="edge3" class="edge">
<title>Node2&#45;&gt;Node4</title>
<path fill="none" stroke="#63b8ff" d="M632,-54.59C632,-44.06 632,-32.53 632,-24.84"/>
<polygon fill="#63b8ff" stroke="#63b8ff" points="628.5,-54.28 632,-64.28 635.5,-54.28 628.5,-54.28"/>
</g>
<!-- Node5 -->
<g id="node5" class="node">
<title>Node5</title>
<g id="a_node5"><a xlink:href="kpm_matching_8cpp.html" target="_top" xlink:title=" ">
<polygon fill="white" stroke="#666666" points="176,-24.5 0,-24.5 0,-5.5 176,-5.5 176,-24.5"/>
<text text-anchor="middle" x="88" y="-12.5" font-family="Helvetica,sans-Serif" font-size="10.00">Source/ARX/KPM/kpmMatching.cpp</text>
</a>
</g>
</g>
<!-- Node2&#45;&gt;Node5 -->
<g id="edge4" class="edge">
<title>Node2&#45;&gt;Node5</title>
<path fill="none" stroke="#63b8ff" d="M555.43,-72.19C466.34,-62.92 314.86,-46.63 185,-30 173.1,-28.48 160.4,-26.73 148.24,-25"/>
<polygon fill="#63b8ff" stroke="#63b8ff" points="554.96,-75.66 565.27,-73.21 555.69,-68.69 554.96,-75.66"/>
</g>
<!-- Node2&#45;&gt;Node6 -->
<g id="edge5" class="edge">
<title>Node2&#45;&gt;Node6</title>
<path fill="none" stroke="#63b8ff" d="M682.89,-61.8C710.71,-51.86 744.68,-39.71 770.65,-30.43"/>
<polygon fill="#63b8ff" stroke="#63b8ff" points="681.83,-58.47 673.6,-65.13 684.19,-65.06 681.83,-58.47"/>
</g>
<!-- Node7 -->
<g id="node7" class="node">
<title>Node7</title>
<g id="a_node7"><a xlink:href="kpm_result_8cpp.html" target="_top" xlink:title=" ">
<polygon fill="white" stroke="#666666" points="359.5,-24.5 194.5,-24.5 194.5,-5.5 359.5,-5.5 359.5,-24.5"/>
<text text-anchor="middle" x="277" y="-12.5" font-family="Helvetica,sans-Serif" font-size="10.00">Source/ARX/KPM/kpmResult.cpp</text>
</a>
</g>
</g>
<!-- Node2&#45;&gt;Node7 -->
<g id="edge6" class="edge">
<title>Node2&#45;&gt;Node7</title>
<path fill="none" stroke="#63b8ff" d="M555.62,-66.23C486.36,-53.74 386.28,-35.7 326.82,-24.98"/>
<polygon fill="#63b8ff" stroke="#63b8ff" points="554.94,-69.66 565.4,-67.99 556.18,-62.77 554.94,-69.66"/>
</g>
<!-- Node2&#45;&gt;Node8 -->
<g id="edge7" class="edge">
<title>Node2&#45;&gt;Node8</title>
<path fill="none" stroke="#63b8ff" d="M708.34,-66.08C776.77,-53.6 875.15,-35.66 933.72,-24.99"/>
<polygon fill="#63b8ff" stroke="#63b8ff" points="707.9,-62.6 698.69,-67.84 709.15,-69.49 707.9,-62.6"/>
</g>
</g>
</svg>
