<?xml version="1.0" encoding="UTF-8" standalone="no"?>
<!DOCTYPE svg PUBLIC "-//W3C//DTD SVG 1.1//EN"
 "http://www.w3.org/Graphics/SVG/1.1/DTD/svg11.dtd">
<!-- Generated by graphviz version 8.0.5 (20230430.1635)
 -->
<!-- Title: kpmAddRefDataSet Pages: 1 -->
<svg width="412pt" height="64pt"
 viewBox="0.00 0.00 412.25 64.25" xmlns="http://www.w3.org/2000/svg" xmlns:xlink="http://www.w3.org/1999/xlink">
<g id="graph0" class="graph" transform="scale(1 1) rotate(0) translate(4 60.25)">
<title>kpmAddRefDataSet</title>
<!-- Node1 -->
<g id="node1" class="node">
<title>Node1</title>
<g id="a_node1"><a xlink:title=" ">
<polygon fill="#999999" stroke="#666666" points="103.75,-37.25 0,-37.25 0,-18 103.75,-18 103.75,-37.25"/>
<text text-anchor="middle" x="51.88" y="-23.75" font-family="Helvetica,sans-Serif" font-size="10.00">kpmAddRefDataSet</text>
</a>
</g>
</g>
<!-- Node2 -->
<g id="node2" class="node">
<title>Node2</title>
<g id="a_node2"><a xlink:href="kpm_ref_data_set_8cpp.html#a407d3bb03723942b6069f37e5cbb61a6" target="_top" xlink:title=" ">
<polygon fill="white" stroke="#666666" points="248.75,-56.25 144.25,-56.25 144.25,-37 248.75,-37 248.75,-56.25"/>
<text text-anchor="middle" x="196.5" y="-42.75" font-family="Helvetica,sans-Serif" font-size="10.00">kpmGenRefDataSet</text>
</a>
</g>
</g>
<!-- Node1&#45;&gt;Node2 -->
<g id="edge1" class="edge">
<title>Node1&#45;&gt;Node2</title>
<path fill="none" stroke="#63b8ff" d="M103.96,-34.43C113.37,-35.68 123.29,-37.01 132.99,-38.3"/>
<polygon fill="#63b8ff" stroke="#63b8ff" points="132.43,-41.89 142.81,-39.74 133.36,-34.95 132.43,-41.89"/>
</g>
<!-- Node4 -->
<g id="node4" class="node">
<title>Node4</title>
<g id="a_node4"><a xlink:href="kpm_ref_data_set_8cpp.html#a0f8fd6b50798c10cae484646a6dc7477" target="_top" xlink:title="Merge a second KPM dataset into the first, and dispose of second.">
<polygon fill="white" stroke="#666666" points="253.25,-19.25 139.75,-19.25 139.75,0 253.25,0 253.25,-19.25"/>
<text text-anchor="middle" x="196.5" y="-5.75" font-family="Helvetica,sans-Serif" font-size="10.00">kpmMergeRefDataSet</text>
</a>
</g>
</g>
<!-- Node1&#45;&gt;Node4 -->
<g id="edge3" class="edge">
<title>Node1&#45;&gt;Node4</title>
<path fill="none" stroke="#63b8ff" d="M103.96,-21.18C111.97,-20.17 120.34,-19.11 128.63,-18.06"/>
<polygon fill="#63b8ff" stroke="#63b8ff" points="128.97,-21.42 138.45,-16.7 128.09,-14.48 128.97,-21.42"/>
</g>
<!-- Node3 -->
<g id="node3" class="node">
<title>Node3</title>
<g id="a_node3"><a xlink:href="kpm_util_8cpp.html#a0a8b7d2275bb90bc5c935956be08f35b" target="_top" xlink:title=" ">
<polygon fill="white" stroke="#666666" points="400.5,-56.25 293,-56.25 293,-37 400.5,-37 400.5,-56.25"/>
<text text-anchor="middle" x="346.75" y="-42.75" font-family="Helvetica,sans-Serif" font-size="10.00">kpmUtilResizeImage</text>
</a>
</g>
</g>
<!-- Node2&#45;&gt;Node3 -->
<g id="edge2" class="edge">
<title>Node2&#45;&gt;Node3</title>
<path fill="none" stroke="#63b8ff" d="M248.93,-46.62C259.53,-46.62 270.82,-46.62 281.8,-46.62"/>
<polygon fill="#63b8ff" stroke="#63b8ff" points="281.64,-50.13 291.64,-46.62 281.64,-43.13 281.64,-50.13"/>
</g>
<!-- Node5 -->
<g id="node5" class="node">
<title>Node5</title>
<g id="a_node5"><a xlink:href="kpm_ref_data_set_8cpp.html#ae2afc1e3f2fce6618bf611b5043a9f30" target="_top" xlink:title="Dispose of a reference data set and its allocated memory.">
<polygon fill="white" stroke="#666666" points="404.25,-19.25 289.25,-19.25 289.25,0 404.25,0 404.25,-19.25"/>
<text text-anchor="middle" x="346.75" y="-5.75" font-family="Helvetica,sans-Serif" font-size="10.00">kpmDeleteRefDataSet</text>
</a>
</g>
</g>
<!-- Node4&#45;&gt;Node5 -->
<g id="edge4" class="edge">
<title>Node4&#45;&gt;Node5</title>
<path fill="none" stroke="#63b8ff" d="M253.55,-9.62C261.64,-9.62 270.04,-9.62 278.33,-9.62"/>
<polygon fill="#63b8ff" stroke="#63b8ff" points="278.13,-13.13 288.13,-9.62 278.13,-6.13 278.13,-13.13"/>
</g>
</g>
</svg>
