<?xml version="1.0" encoding="UTF-8" standalone="no"?>
<!DOCTYPE svg PUBLIC "-//W3C//DTD SVG 1.1//EN"
 "http://www.w3.org/Graphics/SVG/1.1/DTD/svg11.dtd">
<!-- Generated by graphviz version 8.0.5 (20230430.1635)
 -->
<!-- Title: Source/ARX/KPM/include/ARX/KPM/kpm.h Pages: 1 -->
<!--zoomable 105 -->
<svg id="main" version="1.1" xmlns="http://www.w3.org/2000/svg" xmlns:xlink="http://www.w3.org/1999/xlink" xml:space="preserve" onload="init(evt)">
<style type="text/css"><![CDATA[
.edge:hover path { stroke: red; }
.edge:hover polygon { stroke: red; fill: red; }
]]></style>
<script type="text/javascript"><![CDATA[
var edges = document.getElementsByTagName('g');
if (edges && edges.length) {
  for (var i=0;i<edges.length;i++) {
    if (edges[i].id.substr(0,4)=='edge') {
      edges[i].setAttribute('class','edge');
    }
  }
}
]]></script>
        <defs>
                <circle id="rim" cx="0" cy="0" r="7"/>
                <circle id="rim2" cx="0" cy="0" r="3.5"/>
                <g id="zoomPlus">
                        <use xlink:href="#rim" fill="#404040">
                                <set attributeName="fill" to="#808080" begin="zoomplus.mouseover" end="zoomplus.mouseout"/>
                        </use>
                        <path d="M-4,0h8M0,-4v8" fill="none" stroke="white" stroke-width="1.5" pointer-events="none"/>
                </g>
                <g id="zoomMin">
                        <use xlink:href="#rim" fill="#404040">
                                <set attributeName="fill" to="#808080" begin="zoomminus.mouseover" end="zoomminus.mouseout"/>
                        </use>
                        <path d="M-4,0h8" fill="none" stroke="white" stroke-width="1.5" pointer-events="none"/>
                </g>
                <g id="dirArrow">
                        <path fill="none" stroke="white" stroke-width="1.5" d="M0,-3.0v7 M-2.5,-0.5L0,-3.0L2.5,-0.5"/>
                </g>
               <g id="resetDef">
                       <use xlink:href="#rim2" fill="#404040">
                               <set attributeName="fill" to="#808080" begin="reset.mouseover" end="reset.mouseout"/>
                       </use>
               </g>
        </defs>

<script type="text/javascript">
var viewWidth = 1063;
var viewHeight = 105;
var sectionId = 'dynsection-1';
</script>
<script xlink:href="svgpan.js"/>
<svg id="graph" class="graph">
<g id="viewport">
<title>Source/ARX/KPM/include/ARX/KPM/kpm.h</title>
<!-- Node1 -->
<g id="node1" class="node">
<title>Node1</title>
<g id="a_node1"><a xlink:title=" ">
<polygon fill="#999999" stroke="#666666" points="598.88,-97 469.62,-97 469.62,-66.5 598.88,-66.5 598.88,-97"/>
<text text-anchor="start" x="477.62" y="-83.5" font-family="Helvetica,sans-Serif" font-size="10.00">Source/ARX/KPM/include</text>
<text text-anchor="middle" x="534.25" y="-72.25" font-family="Helvetica,sans-Serif" font-size="10.00">/ARX/KPM/kpm.h</text>
</a>
</g>
</g>
<!-- Node2 -->
<g id="node2" class="node">
<title>Node2</title>
<g id="a_node2"><a xlink:href="kpm_fopen_8c.html" target="_top" xlink:title=" ">
<polygon fill="white" stroke="#666666" points="152.5,-24.88 0,-24.88 0,-5.63 152.5,-5.63 152.5,-24.88"/>
<text text-anchor="middle" x="76.25" y="-11.38" font-family="Helvetica,sans-Serif" font-size="10.00">Source/ARX/KPM/kpmFopen.c</text>
</a>
</g>
</g>
<!-- Node1&#45;&gt;Node2 -->
<g id="edge1" class="edge">
<title>Node1&#45;&gt;Node2</title>
<path fill="none" stroke="#63b8ff" d="M458.54,-71.2C383.3,-61.55 264.68,-45.9 162.25,-30.5 151.62,-28.9 140.28,-27.09 129.43,-25.32"/>
<polygon fill="#63b8ff" stroke="#63b8ff" points="457.95,-74.78 468.32,-72.58 458.84,-67.84 457.95,-74.78"/>
</g>
<!-- Node3 -->
<g id="node3" class="node">
<title>Node3</title>
<g id="a_node3"><a xlink:href="kpm_handle_8cpp.html" target="_top" xlink:title=" ">
<polygon fill="white" stroke="#666666" points="337.62,-24.88 170.88,-24.88 170.88,-5.63 337.62,-5.63 337.62,-24.88"/>
<text text-anchor="middle" x="254.25" y="-11.38" font-family="Helvetica,sans-Serif" font-size="10.00">Source/ARX/KPM/kpmHandle.cpp</text>
</a>
</g>
</g>
<!-- Node1&#45;&gt;Node3 -->
<g id="edge2" class="edge">
<title>Node1&#45;&gt;Node3</title>
<path fill="none" stroke="#63b8ff" d="M459.92,-63.63C406.54,-51.33 336.69,-35.24 293.67,-25.33"/>
<polygon fill="#63b8ff" stroke="#63b8ff" points="458.83,-67.2 469.36,-66.03 460.4,-60.38 458.83,-67.2"/>
</g>
<!-- Node4 -->
<g id="node4" class="node">
<title>Node4</title>
<g id="a_node4"><a xlink:href="kpm_matching_8cpp.html" target="_top" xlink:title=" ">
<polygon fill="white" stroke="#666666" points="531.12,-24.88 355.38,-24.88 355.38,-5.63 531.12,-5.63 531.12,-24.88"/>
<text text-anchor="middle" x="443.25" y="-11.38" font-family="Helvetica,sans-Serif" font-size="10.00">Source/ARX/KPM/kpmMatching.cpp</text>
</a>
</g>
</g>
<!-- Node1&#45;&gt;Node4 -->
<g id="edge3" class="edge">
<title>Node1&#45;&gt;Node4</title>
<path fill="none" stroke="#63b8ff" d="M504.83,-59.9C488.31,-48.19 468.56,-34.19 455.96,-25.26"/>
<polygon fill="#63b8ff" stroke="#63b8ff" points="502.42,-63.19 512.6,-66.11 506.47,-57.48 502.42,-63.19"/>
</g>
<!-- Node5 -->
<g id="node5" class="node">
<title>Node5</title>
<g id="a_node5"><a xlink:href="kpm_ref_data_set_8cpp.html" target="_top" xlink:title=" ">
<polygon fill="white" stroke="#666666" points="703.25,-30.5 549.25,-30.5 549.25,0 703.25,0 703.25,-30.5"/>
<text text-anchor="start" x="557.25" y="-17" font-family="Helvetica,sans-Serif" font-size="10.00">Source/ARX/KPM/kpmRefData</text>
<text text-anchor="middle" x="626.25" y="-5.75" font-family="Helvetica,sans-Serif" font-size="10.00">Set.cpp</text>
</a>
</g>
</g>
<!-- Node1&#45;&gt;Node5 -->
<g id="edge4" class="edge">
<title>Node1&#45;&gt;Node5</title>
<path fill="none" stroke="#63b8ff" d="M564.07,-59.84C577.59,-50.37 593.24,-39.39 605.46,-30.83"/>
<polygon fill="#63b8ff" stroke="#63b8ff" points="562.31,-57.51 556.13,-66.11 566.32,-63.24 562.31,-57.51"/>
</g>
<!-- Node6 -->
<g id="node6" class="node">
<title>Node6</title>
<g id="a_node6"><a xlink:href="kpm_result_8cpp.html" target="_top" xlink:title=" ">
<polygon fill="white" stroke="#666666" points="885.5,-24.88 721,-24.88 721,-5.63 885.5,-5.63 885.5,-24.88"/>
<text text-anchor="middle" x="803.25" y="-11.38" font-family="Helvetica,sans-Serif" font-size="10.00">Source/ARX/KPM/kpmResult.cpp</text>
</a>
</g>
</g>
<!-- Node1&#45;&gt;Node6 -->
<g id="edge5" class="edge">
<title>Node1&#45;&gt;Node6</title>
<path fill="none" stroke="#63b8ff" d="M606.3,-63.47C657.5,-51.2 724.23,-35.2 765.38,-25.33"/>
<polygon fill="#63b8ff" stroke="#63b8ff" points="605.54,-60.3 596.63,-66.03 607.17,-67.11 605.54,-60.3"/>
</g>
<!-- Node7 -->
<g id="node7" class="node">
<title>Node7</title>
<g id="a_node7"><a xlink:href="kpm_util_8cpp.html" target="_top" xlink:title=" ">
<polygon fill="white" stroke="#666666" points="1054.75,-24.88 903.75,-24.88 903.75,-5.63 1054.75,-5.63 1054.75,-24.88"/>
<text text-anchor="middle" x="979.25" y="-11.38" font-family="Helvetica,sans-Serif" font-size="10.00">Source/ARX/KPM/kpmUtil.cpp</text>
</a>
</g>
</g>
<!-- Node1&#45;&gt;Node7 -->
<g id="edge6" class="edge">
<title>Node1&#45;&gt;Node7</title>
<path fill="none" stroke="#63b8ff" d="M609.82,-70.81C682.72,-61.08 796.16,-45.57 894.25,-30.5 904.6,-28.91 915.65,-27.12 926.24,-25.37"/>
<polygon fill="#63b8ff" stroke="#63b8ff" points="609.81,-67.42 600.36,-72.21 610.74,-74.36 609.81,-67.42"/>
</g>
</g>
</svg>
        <g id="navigator" transform="translate(0 0)" fill="#404254">
                <rect fill="#f2f5e9" fill-opacity="0.5" stroke="#606060" stroke-width=".5" x="0" y="0" width="60" height="60"/>
                <use id="zoomplus" xlink:href="#zoomPlus" x="17" y="9" onmousedown="handleZoom(evt,'in')"/>
                <use id="zoomminus" xlink:href="#zoomMin" x="42" y="9" onmousedown="handleZoom(evt,'out')"/>
                <use id="reset" xlink:href="#resetDef" x="30" y="36" onmousedown="handleReset()"/>
                <g id="arrowUp" xlink:href="#dirArrow" transform="translate(30 24)" onmousedown="handlePan(0,-1)">
                  <use xlink:href="#rim" fill="#404040">
                        <set attributeName="fill" to="#808080" begin="arrowUp.mouseover" end="arrowUp.mouseout"/>
                  </use>
                  <path fill="none" stroke="white" stroke-width="1.5" d="M0,-3.0v7 M-2.5,-0.5L0,-3.0L2.5,-0.5"/>
                </g>
                <g id="arrowRight" xlink:href="#dirArrow" transform="rotate(90) translate(36 -43)" onmousedown="handlePan(1,0)">
                  <use xlink:href="#rim" fill="#404040">
                        <set attributeName="fill" to="#808080" begin="arrowRight.mouseover" end="arrowRight.mouseout"/>
                  </use>
                  <path fill="none" stroke="white" stroke-width="1.5" d="M0,-3.0v7 M-2.5,-0.5L0,-3.0L2.5,-0.5"/>
                </g>
                <g id="arrowDown" xlink:href="#dirArrow" transform="rotate(180) translate(-30 -48)" onmousedown="handlePan(0,1)">
                  <use xlink:href="#rim" fill="#404040">
                        <set attributeName="fill" to="#808080" begin="arrowDown.mouseover" end="arrowDown.mouseout"/>
                  </use>
                  <path fill="none" stroke="white" stroke-width="1.5" d="M0,-3.0v7 M-2.5,-0.5L0,-3.0L2.5,-0.5"/>
                </g>
                <g id="arrowLeft" xlink:href="#dirArrow" transform="rotate(270) translate(-36 17)" onmousedown="handlePan(-1,0)">
                  <use xlink:href="#rim" fill="#404040">
                        <set attributeName="fill" to="#808080" begin="arrowLeft.mouseover" end="arrowLeft.mouseout"/>
                  </use>
                  <path fill="none" stroke="white" stroke-width="1.5" d="M0,-3.0v7 M-2.5,-0.5L0,-3.0L2.5,-0.5"/>
                </g>
        </g>
        <svg viewBox="0 0 15 15" width="100%" height="30px" preserveAspectRatio="xMaxYMin meet">
         <g id="arrow_out" transform="scale(0.3 0.3)">
          <a xlink:href="kpm_8h__dep__incl_org.svg" target="_base">
           <rect id="button" ry="5" rx="5" y="6" x="6" height="38" width="38"
                fill="#f2f5e9" fill-opacity="0.5" stroke="#606060" stroke-width="1.0"/>
           <path id="arrow"
             d="M 11.500037,31.436501 C 11.940474,20.09759 22.043105,11.32322 32.158766,21.979434 L 37.068811,17.246167 C 37.068811,17.246167 37.088388,32 37.088388,32 L 22.160133,31.978069 C 22.160133,31.978069 26.997745,27.140456 26.997745,27.140456 C 18.528582,18.264221 13.291696,25.230495 11.500037,31.436501 z"
             style="fill:#404040;"/>
          </a>
         </g>
        </svg>
</svg>
