<?xml version="1.0" encoding="UTF-8" standalone="no"?>
<!DOCTYPE svg PUBLIC "-//W3C//DTD SVG 1.1//EN"
 "http://www.w3.org/Graphics/SVG/1.1/DTD/svg11.dtd">
<!-- Generated by graphviz version 2.40.1 (20161225.0304)
 -->
<!-- Title: Source/ARX/KPM/kpmPrivate.h Pages: 1 -->
<!--zoomable 92 -->
<svg id="main" version="1.1" xmlns="http://www.w3.org/2000/svg" xmlns:xlink="http://www.w3.org/1999/xlink" xml:space="preserve" onload="init(evt)">
<style type="text/css"><![CDATA[
.edge:hover path { stroke: red; }
.edge:hover polygon { stroke: red; fill: red; }
]]></style>
<script type="text/javascript"><![CDATA[
var edges = document.getElementsByTagName('g');
if (edges && edges.length) {
  for (var i=0;i<edges.length;i++) {
    if (edges[i].id.substr(0,4)=='edge') {
      edges[i].setAttribute('class','edge');
    }
  }
}
]]></script>
        <defs>
                <circle id="rim" cx="0" cy="0" r="7"/>
                <circle id="rim2" cx="0" cy="0" r="3.5"/>
                <g id="zoomPlus">
                        <use xlink:href="#rim" fill="#404040">
                                <set attributeName="fill" to="#808080" begin="zoomplus.mouseover" end="zoomplus.mouseout"/>
                        </use>
                        <path d="M-4,0h8M0,-4v8" fill="none" stroke="white" stroke-width="1.5" pointer-events="none"/>
                </g>
                <g id="zoomMin">
                        <use xlink:href="#rim" fill="#404040">
                                <set attributeName="fill" to="#808080" begin="zoomminus.mouseover" end="zoomminus.mouseout"/>
                        </use>
                        <path d="M-4,0h8" fill="none" stroke="white" stroke-width="1.5" pointer-events="none"/>
                </g>
                <g id="dirArrow">
                        <path fill="none" stroke="white" stroke-width="1.5" d="M0,-3.0v7 M-2.5,-0.5L0,-3.0L2.5,-0.5"/>
                </g>
               <g id="resetDef">
                       <use xlink:href="#rim2" fill="#404040">
                               <set attributeName="fill" to="#808080" begin="reset.mouseover" end="reset.mouseout"/>
                       </use>
               </g>
        </defs>

<script type="text/javascript">
var viewWidth = 724;
var viewHeight = 92;
var sectionId = 'dynsection-1';
</script>
<script xlink:href="svgpan.js"/>
<svg id="graph" class="graph">
<g id="viewport">
<title>Source/ARX/KPM/kpmPrivate.h</title>
<polygon fill="#ffffff" stroke="transparent" points="-4,4 -4,-88 720.061,-88 720.061,4 -4,4"/>
<!-- Node2 -->
<g id="node1" class="node">
<title>Node2</title>
<polygon fill="#bfbfbf" stroke="#000000" points="286.564,-65.5 286.564,-83.5 443.1694,-83.5 443.1694,-65.5 286.564,-65.5"/>
<text text-anchor="middle" x="364.8667" y="-71.5" font-family="Helvetica,sans-Serif" font-size="10.00" fill="#000000">Source/ARX/KPM/kpmPrivate.h</text>
</g>
<!-- Node3 -->
<g id="node2" class="node">
<title>Node3</title>
<g id="a_node2"><a xlink:href="kpm_handle_8cpp.html" target="_top" xlink:title="Source/ARX/KPM/kpmHandle.cpp">
<polygon fill="#ffffff" stroke="#000000" points="0,-5.5 0,-23.5 167.7334,-23.5 167.7334,-5.5 0,-5.5"/>
<text text-anchor="middle" x="83.8667" y="-11.5" font-family="Helvetica,sans-Serif" font-size="10.00" fill="#000000">Source/ARX/KPM/kpmHandle.cpp</text>
</a>
</g>
</g>
<!-- Node2&#45;&gt;Node3 -->
<g id="edge1" class="edge">
<title>Node2&#45;&gt;Node3</title>
<path fill="none" stroke="#191970" d="M312.4647,-63.311C258.644,-51.819 175.9101,-34.1534 126.1241,-23.5229"/>
<polygon fill="#191970" stroke="#191970" points="311.9835,-66.787 322.4939,-65.4524 313.4452,-59.9413 311.9835,-66.787"/>
</g>
<!-- Node4 -->
<g id="node3" class="node">
<title>Node4</title>
<g id="a_node3"><a xlink:href="kpm_matching_8cpp.html" target="_top" xlink:title="Source/ARX/KPM/kpmMatching.cpp">
<polygon fill="#ffffff" stroke="#000000" points="185.5566,-5.5 185.5566,-23.5 362.1768,-23.5 362.1768,-5.5 185.5566,-5.5"/>
<text text-anchor="middle" x="273.8667" y="-11.5" font-family="Helvetica,sans-Serif" font-size="10.00" fill="#000000">Source/ARX/KPM/kpmMatching.cpp</text>
</a>
</g>
</g>
<!-- Node2&#45;&gt;Node4 -->
<g id="edge2" class="edge">
<title>Node2&#45;&gt;Node4</title>
<path fill="none" stroke="#191970" d="M342.6707,-59.8653C325.4402,-48.5045 302.1024,-33.1169 287.5195,-23.5019"/>
<polygon fill="#191970" stroke="#191970" points="340.7705,-62.8047 351.0458,-65.3873 344.6237,-56.9606 340.7705,-62.8047"/>
</g>
<!-- Node5 -->
<g id="node4" class="node">
<title>Node5</title>
<g id="a_node4"><a xlink:href="kpm_ref_data_set_8cpp.html" target="_top" xlink:title="Source/ARX/KPM/kpmRefData\lSet.cpp">
<polygon fill="#ffffff" stroke="#000000" points="379.9531,-.5 379.9531,-28.5 533.7803,-28.5 533.7803,-.5 379.9531,-.5"/>
<text text-anchor="start" x="387.9531" y="-16.5" font-family="Helvetica,sans-Serif" font-size="10.00" fill="#000000">Source/ARX/KPM/kpmRefData</text>
<text text-anchor="middle" x="456.8667" y="-6.5" font-family="Helvetica,sans-Serif" font-size="10.00" fill="#000000">Set.cpp</text>
</a>
</g>
</g>
<!-- Node2&#45;&gt;Node5 -->
<g id="edge3" class="edge">
<title>Node2&#45;&gt;Node5</title>
<path fill="none" stroke="#191970" d="M387.2816,-59.8816C401.867,-50.3694 420.7889,-38.029 435.2187,-28.6183"/>
<polygon fill="#191970" stroke="#191970" points="385.3037,-56.9929 378.8395,-65.3873 389.1276,-62.8562 385.3037,-56.9929"/>
</g>
<!-- Node6 -->
<g id="node5" class="node">
<title>Node6</title>
<g id="a_node5"><a xlink:href="kpm_result_8cpp.html" target="_top" xlink:title="Source/ARX/KPM/kpmResult.cpp">
<polygon fill="#ffffff" stroke="#000000" points="551.6724,-5.5 551.6724,-23.5 716.061,-23.5 716.061,-5.5 551.6724,-5.5"/>
<text text-anchor="middle" x="633.8667" y="-11.5" font-family="Helvetica,sans-Serif" font-size="10.00" fill="#000000">Source/ARX/KPM/kpmResult.cpp</text>
</a>
</g>
</g>
<!-- Node2&#45;&gt;Node6 -->
<g id="edge4" class="edge">
<title>Node2&#45;&gt;Node6</title>
<path fill="none" stroke="#191970" d="M415.3526,-63.2392C466.8823,-51.7456 545.8531,-34.1313 593.4139,-23.5229"/>
<polygon fill="#191970" stroke="#191970" points="414.4282,-59.8593 405.43,-65.4524 415.9521,-66.6914 414.4282,-59.8593"/>
</g>
</g>
</svg>
        <g id="navigator" transform="translate(0 0)" fill="#404254">
                <rect fill="#f2f5e9" fill-opacity="0.5" stroke="#606060" stroke-width=".5" x="0" y="0" width="60" height="60"/>
                <use id="zoomplus" xlink:href="#zoomPlus" x="17" y="9" onmousedown="handleZoom(evt,'in')"/>
                <use id="zoomminus" xlink:href="#zoomMin" x="42" y="9" onmousedown="handleZoom(evt,'out')"/>
                <use id="reset" xlink:href="#resetDef" x="30" y="36" onmousedown="handleReset()"/>
                <g id="arrowUp" xlink:href="#dirArrow" transform="translate(30 24)" onmousedown="handlePan(0,-1)">
                  <use xlink:href="#rim" fill="#404040">
                        <set attributeName="fill" to="#808080" begin="arrowUp.mouseover" end="arrowUp.mouseout"/>
                  </use>
                  <path fill="none" stroke="white" stroke-width="1.5" d="M0,-3.0v7 M-2.5,-0.5L0,-3.0L2.5,-0.5"/>
                </g>
                <g id="arrowRight" xlink:href="#dirArrow" transform="rotate(90) translate(36 -43)" onmousedown="handlePan(1,0)">
                  <use xlink:href="#rim" fill="#404040">
                        <set attributeName="fill" to="#808080" begin="arrowRight.mouseover" end="arrowRight.mouseout"/>
                  </use>
                  <path fill="none" stroke="white" stroke-width="1.5" d="M0,-3.0v7 M-2.5,-0.5L0,-3.0L2.5,-0.5"/>
                </g>
                <g id="arrowDown" xlink:href="#dirArrow" transform="rotate(180) translate(-30 -48)" onmousedown="handlePan(0,1)">
                  <use xlink:href="#rim" fill="#404040">
                        <set attributeName="fill" to="#808080" begin="arrowDown.mouseover" end="arrowDown.mouseout"/>
                  </use>
                  <path fill="none" stroke="white" stroke-width="1.5" d="M0,-3.0v7 M-2.5,-0.5L0,-3.0L2.5,-0.5"/>
                </g>
                <g id="arrowLeft" xlink:href="#dirArrow" transform="rotate(270) translate(-36 17)" onmousedown="handlePan(-1,0)">
                  <use xlink:href="#rim" fill="#404040">
                        <set attributeName="fill" to="#808080" begin="arrowLeft.mouseover" end="arrowLeft.mouseout"/>
                  </use>
                  <path fill="none" stroke="white" stroke-width="1.5" d="M0,-3.0v7 M-2.5,-0.5L0,-3.0L2.5,-0.5"/>
                </g>
        </g>
        <svg viewBox="0 0 15 15" width="100%" height="30px" preserveAspectRatio="xMaxYMin meet">
         <g id="arrow_out" transform="scale(0.3 0.3)">
          <a xlink:href="kpm_private_8h__dep__incl_org.svg" target="_base">
           <rect id="button" ry="5" rx="5" y="6" x="6" height="38" width="38"
                fill="#f2f5e9" fill-opacity="0.5" stroke="#606060" stroke-width="1.0"/>
           <path id="arrow"
             d="M 11.500037,31.436501 C 11.940474,20.09759 22.043105,11.32322 32.158766,21.979434 L 37.068811,17.246167 C 37.068811,17.246167 37.088388,32 37.088388,32 L 22.160133,31.978069 C 22.160133,31.978069 26.997745,27.140456 26.997745,27.140456 C 18.528582,18.264221 13.291696,25.230495 11.500037,31.436501 z"
             style="fill:#404040;"/>
          </a>
         </g>
        </svg>
</svg>
