<?xml version="1.0" encoding="UTF-8" standalone="no"?>
<!DOCTYPE svg PUBLIC "-//W3C//DTD SVG 1.1//EN"
 "http://www.w3.org/Graphics/SVG/1.1/DTD/svg11.dtd">
<!-- Generated by graphviz version 8.0.5 (20230430.1635)
 -->
<!-- Title: kpmUtilGetPose Pages: 1 -->
<!--zoomable 270 -->
<svg id="main" version="1.1" xmlns="http://www.w3.org/2000/svg" xmlns:xlink="http://www.w3.org/1999/xlink" xml:space="preserve" onload="init(evt)">
<style type="text/css"><![CDATA[
.edge:hover path { stroke: red; }
.edge:hover polygon { stroke: red; fill: red; }
]]></style>
<script type="text/javascript"><![CDATA[
var edges = document.getElementsByTagName('g');
if (edges && edges.length) {
  for (var i=0;i<edges.length;i++) {
    if (edges[i].id.substr(0,4)=='edge') {
      edges[i].setAttribute('class','edge');
    }
  }
}
]]></script>
        <defs>
                <circle id="rim" cx="0" cy="0" r="7"/>
                <circle id="rim2" cx="0" cy="0" r="3.5"/>
                <g id="zoomPlus">
                        <use xlink:href="#rim" fill="#404040">
                                <set attributeName="fill" to="#808080" begin="zoomplus.mouseover" end="zoomplus.mouseout"/>
                        </use>
                        <path d="M-4,0h8M0,-4v8" fill="none" stroke="white" stroke-width="1.5" pointer-events="none"/>
                </g>
                <g id="zoomMin">
                        <use xlink:href="#rim" fill="#404040">
                                <set attributeName="fill" to="#808080" begin="zoomminus.mouseover" end="zoomminus.mouseout"/>
                        </use>
                        <path d="M-4,0h8" fill="none" stroke="white" stroke-width="1.5" pointer-events="none"/>
                </g>
                <g id="dirArrow">
                        <path fill="none" stroke="white" stroke-width="1.5" d="M0,-3.0v7 M-2.5,-0.5L0,-3.0L2.5,-0.5"/>
                </g>
               <g id="resetDef">
                       <use xlink:href="#rim2" fill="#404040">
                               <set attributeName="fill" to="#808080" begin="reset.mouseover" end="reset.mouseout"/>
                       </use>
               </g>
        </defs>

<script type="text/javascript">
var viewWidth = 670;
var viewHeight = 270;
var sectionId = 'dynsection-2';
</script>
<script xlink:href="svgpan.js"/>
<svg id="graph" class="graph">
<g id="viewport">
<title>kpmUtilGetPose</title>
<!-- Node1 -->
<g id="node1" class="node">
<title>Node1</title>
<g id="a_node1"><a xlink:title=" ">
<polygon fill="#999999" stroke="#666666" points="88,-149.25 0,-149.25 0,-130 88,-130 88,-149.25"/>
<text text-anchor="middle" x="44" y="-135.75" font-family="Helvetica,sans-Serif" font-size="10.00">kpmUtilGetPose</text>
</a>
</g>
</g>
<!-- Node2 -->
<g id="node2" class="node">
<title>Node2</title>
<g id="a_node2"><a xlink:href="icp_handle_8c.html#acc980d46da2fee551179fe0eb8853587" target="_top" xlink:title=" ">
<polygon fill="white" stroke="#666666" points="223.62,-243.25 134.88,-243.25 134.88,-224 223.62,-224 223.62,-243.25"/>
<text text-anchor="middle" x="179.25" y="-229.75" font-family="Helvetica,sans-Serif" font-size="10.00">icpCreateHandle</text>
</a>
</g>
</g>
<!-- Node1&#45;&gt;Node2 -->
<g id="edge1" class="edge">
<title>Node1&#45;&gt;Node2</title>
<path fill="none" stroke="#63b8ff" d="M52.9,-149.72C66.03,-165.84 93.86,-197.43 124,-215.62 126.07,-216.88 128.24,-218.05 130.47,-219.15"/>
<polygon fill="#63b8ff" stroke="#63b8ff" points="128.94,-222.74 139.51,-223.54 131.74,-216.33 128.94,-222.74"/>
</g>
<!-- Node3 -->
<g id="node3" class="node">
<title>Node3</title>
<g id="a_node3"><a xlink:href="icp_handle_8c.html#a510dee7e69010b7aa075d90f27a8e9da" target="_top" xlink:title=" ">
<polygon fill="white" stroke="#666666" points="223.25,-206.25 135.25,-206.25 135.25,-187 223.25,-187 223.25,-206.25"/>
<text text-anchor="middle" x="179.25" y="-192.75" font-family="Helvetica,sans-Serif" font-size="10.00">icpDeleteHandle</text>
</a>
</g>
</g>
<!-- Node1&#45;&gt;Node3 -->
<g id="edge2" class="edge">
<title>Node1&#45;&gt;Node3</title>
<path fill="none" stroke="#63b8ff" d="M68.52,-149.68C89.73,-158.76 121.17,-172.21 144.97,-182.39"/>
<polygon fill="#63b8ff" stroke="#63b8ff" points="143.4,-185.95 153.97,-186.67 146.15,-179.52 143.4,-185.95"/>
</g>
<!-- Node4 -->
<g id="node4" class="node">
<title>Node4</title>
<g id="a_node4"><a xlink:href="icp_util_8c.html#a9a0da1f41013b11363f39d99a5c937e9" target="_top" xlink:title=" ">
<polygon fill="white" stroke="#666666" points="400.5,-215.88 286.25,-215.88 286.25,-185.38 400.5,-185.38 400.5,-215.88"/>
<text text-anchor="start" x="294.25" y="-202.38" font-family="Helvetica,sans-Serif" font-size="10.00">icpGetInitXw2Xc_from</text>
<text text-anchor="middle" x="343.38" y="-191.12" font-family="Helvetica,sans-Serif" font-size="10.00">_PlanarData</text>
</a>
</g>
</g>
<!-- Node1&#45;&gt;Node4 -->
<g id="edge3" class="edge">
<title>Node1&#45;&gt;Node4</title>
<path fill="none" stroke="#63b8ff" d="M88.31,-148.15C126.74,-155.76 184.39,-167.26 234.5,-177.62 247.67,-180.35 261.73,-183.31 275.2,-186.17"/>
<polygon fill="#63b8ff" stroke="#63b8ff" points="274.35,-189.78 284.86,-188.44 275.8,-182.93 274.35,-189.78"/>
</g>
<!-- Node12 -->
<g id="node12" class="node">
<title>Node12</title>
<g id="a_node12"><a xlink:href="icp_point_8c.html#a466204966df0b17ea76bd05a3d396307" target="_top" xlink:title=" ">
<polygon fill="white" stroke="#666666" points="204.88,-93.25 153.62,-93.25 153.62,-74 204.88,-74 204.88,-93.25"/>
<text text-anchor="middle" x="179.25" y="-79.75" font-family="Helvetica,sans-Serif" font-size="10.00">icpPoint</text>
</a>
</g>
</g>
<!-- Node1&#45;&gt;Node12 -->
<g id="edge15" class="edge">
<title>Node1&#45;&gt;Node12</title>
<path fill="none" stroke="#63b8ff" d="M64.17,-129.55C79.98,-121.45 103.12,-110.07 124,-101.62 130.01,-99.19 136.49,-96.83 142.8,-94.66"/>
<polygon fill="#63b8ff" stroke="#63b8ff" points="143.78,-97.69 152.16,-91.21 141.57,-91.05 143.78,-97.69"/>
</g>
<!-- Node19 -->
<g id="node19" class="node">
<title>Node19</title>
<g id="a_node19"><a xlink:href="icp_point_robust_8c.html#a34b02ccedd9db2360adeccaea4fca916" target="_top" xlink:title=" ">
<polygon fill="white" stroke="#666666" points="220.62,-130.25 137.88,-130.25 137.88,-111 220.62,-111 220.62,-130.25"/>
<text text-anchor="middle" x="179.25" y="-116.75" font-family="Helvetica,sans-Serif" font-size="10.00">icpPointRobust</text>
</a>
</g>
</g>
<!-- Node1&#45;&gt;Node19 -->
<g id="edge27" class="edge">
<title>Node1&#45;&gt;Node19</title>
<path fill="none" stroke="#63b8ff" d="M88.26,-133.46C100.49,-131.71 113.91,-129.8 126.58,-127.99"/>
<polygon fill="#63b8ff" stroke="#63b8ff" points="127.06,-131.32 136.47,-126.44 126.07,-124.39 127.06,-131.32"/>
</g>
<!-- Node20 -->
<g id="node20" class="node">
<title>Node20</title>
<g id="a_node20"><a xlink:href="icp_handle_8c.html#a9515de22165e8248a8742e1f5b9e4bef" target="_top" xlink:title=" ">
<polygon fill="white" stroke="#666666" points="234.5,-56.25 124,-56.25 124,-37 234.5,-37 234.5,-56.25"/>
<text text-anchor="middle" x="179.25" y="-42.75" font-family="Helvetica,sans-Serif" font-size="10.00">icpSetInlierProbability</text>
</a>
</g>
</g>
<!-- Node1&#45;&gt;Node20 -->
<g id="edge33" class="edge">
<title>Node1&#45;&gt;Node20</title>
<path fill="none" stroke="#63b8ff" d="M52.93,-129.67C66.1,-113.77 93.99,-82.61 124,-64.62 126.07,-63.38 128.25,-62.21 130.48,-61.11"/>
<polygon fill="#63b8ff" stroke="#63b8ff" points="131.75,-63.94 139.52,-56.74 128.96,-57.52 131.75,-63.94"/>
</g>
<!-- Node5 -->
<g id="node5" class="node">
<title>Node5</title>
<g id="a_node5"><a xlink:href="m_alloc_8c.html#a69c9a974dc5a3963148ebb2c4a80f969" target="_top" xlink:title=" ">
<polygon fill="white" stroke="#666666" points="660.5,-225.25 587.5,-225.25 587.5,-206 660.5,-206 660.5,-225.25"/>
<text text-anchor="middle" x="624" y="-211.75" font-family="Helvetica,sans-Serif" font-size="10.00">arMatrixAlloc</text>
</a>
</g>
</g>
<!-- Node4&#45;&gt;Node5 -->
<g id="edge4" class="edge">
<title>Node4&#45;&gt;Node5</title>
<path fill="none" stroke="#63b8ff" d="M368.02,-216.2C389.12,-229.11 421.36,-246.45 452.25,-253.62 494.57,-263.46 507.94,-264.52 550,-253.62 567.72,-249.03 569.76,-242.08 586,-233.62 588.06,-232.55 590.19,-231.46 592.35,-230.38"/>
<polygon fill="#63b8ff" stroke="#63b8ff" points="593.36,-233.28 600.77,-225.71 590.25,-227.01 593.36,-233.28"/>
</g>
<!-- Node6 -->
<g id="node6" class="node">
<title>Node6</title>
<g id="a_node6"><a xlink:href="m_alloc_mul_8c.html#a8e99293b68c38ce8a8d1920884d69f73" target="_top" xlink:title=" ">
<polygon fill="white" stroke="#666666" points="545.5,-168.25 456.75,-168.25 456.75,-149 545.5,-149 545.5,-168.25"/>
<text text-anchor="middle" x="501.12" y="-154.75" font-family="Helvetica,sans-Serif" font-size="10.00">arMatrixAllocMul</text>
</a>
</g>
</g>
<!-- Node4&#45;&gt;Node6 -->
<g id="edge5" class="edge">
<title>Node4&#45;&gt;Node6</title>
<path fill="none" stroke="#63b8ff" d="M400.6,-185.46C417.62,-180.87 436.12,-175.88 452.51,-171.46"/>
<polygon fill="#63b8ff" stroke="#63b8ff" points="453.2,-174.63 461.94,-168.65 451.38,-167.88 453.2,-174.63"/>
</g>
<!-- Node7 -->
<g id="node7" class="node">
<title>Node7</title>
<g id="a_node7"><a xlink:href="m_free_8c.html#ac4b7a714cce9fffda773d86363380454" target="_top" xlink:title=" ">
<polygon fill="white" stroke="#666666" points="659.38,-169.25 588.62,-169.25 588.62,-150 659.38,-150 659.38,-169.25"/>
<text text-anchor="middle" x="624" y="-155.75" font-family="Helvetica,sans-Serif" font-size="10.00">arMatrixFree</text>
</a>
</g>
</g>
<!-- Node4&#45;&gt;Node7 -->
<g id="edge13" class="edge">
<title>Node4&#45;&gt;Node7</title>
<path fill="none" stroke="#63b8ff" d="M400.95,-196.3C442.42,-192.64 499.96,-186.55 550,-177.62 559.05,-176.01 568.65,-173.92 577.81,-171.74"/>
<polygon fill="#63b8ff" stroke="#63b8ff" points="578.42,-174.95 587.29,-169.16 576.75,-168.15 578.42,-174.95"/>
</g>
<!-- Node9 -->
<g id="node9" class="node">
<title>Node9</title>
<g id="a_node9"><a xlink:href="m_alloc_trans_8c.html#a4e2bf8cd529487fb1ff4d0bbc52eee1e" target="_top" xlink:title=" ">
<polygon fill="white" stroke="#666666" points="550,-244.25 452.25,-244.25 452.25,-225 550,-225 550,-244.25"/>
<text text-anchor="middle" x="501.12" y="-230.75" font-family="Helvetica,sans-Serif" font-size="10.00">arMatrixAllocTrans</text>
</a>
</g>
</g>
<!-- Node4&#45;&gt;Node9 -->
<g id="edge9" class="edge">
<title>Node4&#45;&gt;Node9</title>
<path fill="none" stroke="#63b8ff" d="M400.6,-212.9C414.63,-215.96 429.67,-219.25 443.71,-222.31"/>
<polygon fill="#63b8ff" stroke="#63b8ff" points="442.69,-225.89 453.21,-224.6 444.19,-219.05 442.69,-225.89"/>
</g>
<!-- Node11 -->
<g id="node11" class="node">
<title>Node11</title>
<g id="a_node11"><a xlink:href="m_self_inv_8c.html#a929738025b539a0c1bbd2f395ad4d981" target="_top" xlink:title=" ">
<polygon fill="white" stroke="#666666" points="542.12,-131.25 460.12,-131.25 460.12,-112 542.12,-112 542.12,-131.25"/>
<text text-anchor="middle" x="501.12" y="-117.75" font-family="Helvetica,sans-Serif" font-size="10.00">arMatrixSelfInv</text>
</a>
</g>
</g>
<!-- Node4&#45;&gt;Node11 -->
<g id="edge14" class="edge">
<title>Node4&#45;&gt;Node11</title>
<path fill="none" stroke="#63b8ff" d="M400.15,-185C405.76,-182.56 411.24,-179.77 416.25,-176.62 435.68,-164.42 433.05,-152.19 452.25,-139.62 454.01,-138.48 455.84,-137.39 457.74,-136.35"/>
<polygon fill="#63b8ff" stroke="#63b8ff" points="459,-139.15 466.5,-131.67 455.97,-132.84 459,-139.15"/>
</g>
<!-- Node6&#45;&gt;Node5 -->
<g id="edge6" class="edge">
<title>Node6&#45;&gt;Node5</title>
<path fill="none" stroke="#63b8ff" d="M523.46,-168.68C542.53,-177.68 570.71,-190.97 592.22,-201.11"/>
<polygon fill="#63b8ff" stroke="#63b8ff" points="590.34,-204.57 600.88,-205.67 593.33,-198.24 590.34,-204.57"/>
</g>
<!-- Node6&#45;&gt;Node7 -->
<g id="edge7" class="edge">
<title>Node6&#45;&gt;Node7</title>
<path fill="none" stroke="#63b8ff" d="M545.76,-158.99C555.99,-159.07 566.92,-159.16 577.24,-159.25"/>
<polygon fill="#63b8ff" stroke="#63b8ff" points="577.11,-162.75 587.14,-159.34 577.17,-155.75 577.11,-162.75"/>
</g>
<!-- Node8 -->
<g id="node8" class="node">
<title>Node8</title>
<g id="a_node8"><a xlink:href="m_mul_8c.html#a202bc2db43d563792c99e852ea0b7ba4" target="_top" xlink:title=" ">
<polygon fill="white" stroke="#666666" points="657.5,-75.25 590.5,-75.25 590.5,-56 657.5,-56 657.5,-75.25"/>
<text text-anchor="middle" x="624" y="-61.75" font-family="Helvetica,sans-Serif" font-size="10.00">arMatrixMul</text>
</a>
</g>
</g>
<!-- Node6&#45;&gt;Node8 -->
<g id="edge8" class="edge">
<title>Node6&#45;&gt;Node8</title>
<path fill="none" stroke="#63b8ff" d="M534.75,-148.58C540.04,-146.33 545.32,-143.69 550,-140.62 573.61,-125.18 595.43,-100.89 608.95,-84.16"/>
<polygon fill="#63b8ff" stroke="#63b8ff" points="612.13,-86.77 615.56,-76.74 606.63,-82.44 612.13,-86.77"/>
</g>
<!-- Node9&#45;&gt;Node5 -->
<g id="edge10" class="edge">
<title>Node9&#45;&gt;Node5</title>
<path fill="none" stroke="#63b8ff" d="M550.25,-227.06C558.95,-225.69 568.01,-224.27 576.66,-222.91"/>
<polygon fill="#63b8ff" stroke="#63b8ff" points="577,-226.24 586.34,-221.23 575.92,-219.33 577,-226.24"/>
</g>
<!-- Node9&#45;&gt;Node7 -->
<g id="edge11" class="edge">
<title>Node9&#45;&gt;Node7</title>
<path fill="none" stroke="#63b8ff" d="M523.93,-224.52C532.23,-220.46 541.69,-215.57 550,-210.62 567.87,-199.98 587.12,-186.44 601.36,-175.99"/>
<polygon fill="#63b8ff" stroke="#63b8ff" points="602.99,-178.39 608.93,-169.62 598.82,-172.77 602.99,-178.39"/>
</g>
<!-- Node10 -->
<g id="node10" class="node">
<title>Node10</title>
<g id="a_node10"><a xlink:href="m_trans_8c.html#ad3d9712dd27f655902a8a3315e623d85" target="_top" xlink:title=" ">
<polygon fill="white" stroke="#666666" points="662,-262.25 586,-262.25 586,-243 662,-243 662,-262.25"/>
<text text-anchor="middle" x="624" y="-248.75" font-family="Helvetica,sans-Serif" font-size="10.00">arMatrixTrans</text>
</a>
</g>
</g>
<!-- Node9&#45;&gt;Node10 -->
<g id="edge12" class="edge">
<title>Node9&#45;&gt;Node10</title>
<path fill="none" stroke="#63b8ff" d="M550.25,-241.79C558.39,-243 566.85,-244.26 575,-245.48"/>
<polygon fill="#63b8ff" stroke="#63b8ff" points="574.44,-249.08 584.85,-247.09 575.47,-242.16 574.44,-249.08"/>
</g>
<!-- Node13 -->
<g id="node13" class="node">
<title>Node13</title>
<g id="a_node13"><a xlink:href="ar_util_8c.html#ae28eeba3e16224a7d77b46bd34b8f4fe" target="_top" xlink:title=" ">
<polygon fill="white" stroke="#666666" points="379.12,-56.25 307.62,-56.25 307.62,-37 379.12,-37 379.12,-56.25"/>
<text text-anchor="middle" x="343.38" y="-42.75" font-family="Helvetica,sans-Serif" font-size="10.00">arUtilMatMul</text>
</a>
</g>
</g>
<!-- Node12&#45;&gt;Node13 -->
<g id="edge16" class="edge">
<title>Node12&#45;&gt;Node13</title>
<path fill="none" stroke="#63b8ff" d="M205.23,-77.92C229.51,-72.38 266.97,-63.83 296.61,-57.07"/>
<polygon fill="#63b8ff" stroke="#63b8ff" points="297.17,-60.3 306.14,-54.67 295.61,-53.48 297.17,-60.3"/>
</g>
<!-- Node14 -->
<g id="node14" class="node">
<title>Node14</title>
<g id="a_node14"><a xlink:href="icp_core_8c.html#a4906398b4594d29ab8035b4016a7e9de" target="_top" xlink:title=" ">
<polygon fill="white" stroke="#666666" points="380.62,-93.25 306.12,-93.25 306.12,-74 380.62,-74 380.62,-93.25"/>
<text text-anchor="middle" x="343.38" y="-79.75" font-family="Helvetica,sans-Serif" font-size="10.00">icpGetDeltaS</text>
</a>
</g>
</g>
<!-- Node12&#45;&gt;Node14 -->
<g id="edge17" class="edge">
<title>Node12&#45;&gt;Node14</title>
<path fill="none" stroke="#63b8ff" d="M205.23,-83.62C229.09,-83.62 265.68,-83.62 295.06,-83.62"/>
<polygon fill="#63b8ff" stroke="#63b8ff" points="294.93,-87.13 304.93,-83.62 294.93,-80.13 294.93,-87.13"/>
</g>
<!-- Node16 -->
<g id="node16" class="node">
<title>Node16</title>
<g id="a_node16"><a xlink:href="icp_core_8c.html#ac384ca6737fdee325d58740d665eda0a" target="_top" xlink:title=" ">
<polygon fill="white" stroke="#666666" points="380.62,-19.25 306.12,-19.25 306.12,0 380.62,0 380.62,-19.25"/>
<text text-anchor="middle" x="343.38" y="-5.75" font-family="Helvetica,sans-Serif" font-size="10.00">icpGetJ_U_S</text>
</a>
</g>
</g>
<!-- Node12&#45;&gt;Node16 -->
<g id="edge24" class="edge">
<title>Node12&#45;&gt;Node16</title>
<path fill="none" stroke="#63b8ff" d="M205.16,-78.14C214.8,-75.33 225.62,-71.27 234.5,-65.62 254.13,-53.14 250.41,-39.36 270.5,-27.62 278.08,-23.2 286.73,-19.85 295.33,-17.32"/>
<polygon fill="#63b8ff" stroke="#63b8ff" points="295.93,-20.52 304.74,-14.63 294.18,-13.75 295.93,-20.52"/>
</g>
<!-- Node17 -->
<g id="node17" class="node">
<title>Node17</title>
<g id="a_node17"><a xlink:href="icp_core_8c.html#aceeb3fd72a762c2078d8fb88ec03ccfb" target="_top" xlink:title=" ">
<polygon fill="white" stroke="#666666" points="416.25,-167.25 270.5,-167.25 270.5,-148 416.25,-148 416.25,-167.25"/>
<text text-anchor="middle" x="343.38" y="-153.75" font-family="Helvetica,sans-Serif" font-size="10.00">icpGetU_from_X_by_MatX2U</text>
</a>
</g>
</g>
<!-- Node12&#45;&gt;Node17 -->
<g id="edge25" class="edge">
<title>Node12&#45;&gt;Node17</title>
<path fill="none" stroke="#63b8ff" d="M205.16,-89.11C214.8,-91.92 225.62,-95.98 234.5,-101.62 254.13,-114.11 250.41,-127.89 270.5,-139.62 272.88,-141.02 275.37,-142.3 277.92,-143.49"/>
<polygon fill="#63b8ff" stroke="#63b8ff" points="276.48,-147.08 287.07,-147.59 279.11,-140.59 276.48,-147.08"/>
</g>
<!-- Node18 -->
<g id="node18" class="node">
<title>Node18</title>
<g id="a_node18"><a xlink:href="icp_core_8c.html#a94201124387610a46b975cdb9d8a1db6" target="_top" xlink:title=" ">
<polygon fill="white" stroke="#666666" points="381.75,-130.25 305,-130.25 305,-111 381.75,-111 381.75,-130.25"/>
<text text-anchor="middle" x="343.38" y="-116.75" font-family="Helvetica,sans-Serif" font-size="10.00">icpUpdateMat</text>
</a>
</g>
</g>
<!-- Node12&#45;&gt;Node18 -->
<g id="edge26" class="edge">
<title>Node12&#45;&gt;Node18</title>
<path fill="none" stroke="#63b8ff" d="M205.23,-89.33C228.88,-94.72 265.03,-102.97 294.28,-109.65"/>
<polygon fill="#63b8ff" stroke="#63b8ff" points="293.18,-113.22 303.7,-112.03 294.73,-106.39 293.18,-113.22"/>
</g>
<!-- Node14&#45;&gt;Node6 -->
<g id="edge18" class="edge">
<title>Node14&#45;&gt;Node6</title>
<path fill="none" stroke="#63b8ff" d="M381.06,-88.55C392.87,-91.22 405.63,-95.32 416.25,-101.62 436.54,-113.66 432.68,-127.45 452.25,-140.62 453.96,-141.78 455.76,-142.87 457.61,-143.9"/>
<polygon fill="#63b8ff" stroke="#63b8ff" points="455.66,-147.33 466.18,-148.58 458.73,-141.04 455.66,-147.33"/>
</g>
<!-- Node14&#45;&gt;Node7 -->
<g id="edge21" class="edge">
<title>Node14&#45;&gt;Node7</title>
<path fill="none" stroke="#63b8ff" d="M381.09,-80.93C423.38,-79.19 494.18,-80.49 550,-102.62 572.03,-111.36 592.9,-128.94 606.63,-142.27"/>
<polygon fill="#63b8ff" stroke="#63b8ff" points="603.68,-144.28 613.21,-148.91 608.65,-139.35 603.68,-144.28"/>
</g>
<!-- Node14&#45;&gt;Node8 -->
<g id="edge22" class="edge">
<title>Node14&#45;&gt;Node8</title>
<path fill="none" stroke="#63b8ff" d="M381.06,-78.7C392.87,-76.03 405.63,-71.93 416.25,-65.62 436.54,-53.59 430.64,-36.09 452.25,-26.62 492.05,-9.2 507.86,-16.07 550,-26.62 567.95,-31.12 586.31,-40.96 600.12,-49.63"/>
<polygon fill="#63b8ff" stroke="#63b8ff" points="598.03,-53.09 608.31,-55.64 601.86,-47.24 598.03,-53.09"/>
</g>
<!-- Node14&#45;&gt;Node9 -->
<g id="edge19" class="edge">
<title>Node14&#45;&gt;Node9</title>
<path fill="none" stroke="#63b8ff" d="M380.84,-86.44C393.16,-88.94 406.3,-93.47 416.25,-101.62 445.15,-125.33 432.07,-146.17 452.25,-177.62 461.28,-191.7 473.42,-206.11 483.21,-216.92"/>
<polygon fill="#63b8ff" stroke="#63b8ff" points="480.09,-218.79 489.45,-223.74 485.23,-214.03 480.09,-218.79"/>
</g>
<!-- Node14&#45;&gt;Node11 -->
<g id="edge23" class="edge">
<title>Node14&#45;&gt;Node11</title>
<path fill="none" stroke="#63b8ff" d="M380.89,-92.53C401.21,-97.49 426.83,-103.74 449.1,-109.18"/>
<polygon fill="#63b8ff" stroke="#63b8ff" points="448.19,-112.8 458.73,-111.77 449.85,-106 448.19,-112.8"/>
</g>
<!-- Node15 -->
<g id="node15" class="node">
<title>Node15</title>
<g id="a_node15"><a xlink:href="m_disp_8c.html#a60f36997579d355f6030f872faad84a2" target="_top" xlink:title=" ">
<polygon fill="white" stroke="#666666" points="536.88,-55.25 465.38,-55.25 465.38,-36 536.88,-36 536.88,-55.25"/>
<text text-anchor="middle" x="501.12" y="-41.75" font-family="Helvetica,sans-Serif" font-size="10.00">arMatrixDisp</text>
</a>
</g>
</g>
<!-- Node14&#45;&gt;Node15 -->
<g id="edge20" class="edge">
<title>Node14&#45;&gt;Node15</title>
<path fill="none" stroke="#63b8ff" d="M380.89,-74.72C402.88,-69.35 431.06,-62.47 454.51,-56.75"/>
<polygon fill="#63b8ff" stroke="#63b8ff" points="455.02,-59.99 463.91,-54.22 453.36,-53.19 455.02,-59.99"/>
</g>
<!-- Node19&#45;&gt;Node13 -->
<g id="edge28" class="edge">
<title>Node19&#45;&gt;Node13</title>
<path fill="none" stroke="#63b8ff" d="M218.69,-110.52C224.2,-108.33 229.64,-105.71 234.5,-102.62 254.13,-90.14 250.41,-76.36 270.5,-64.62 278.48,-59.96 287.65,-56.5 296.7,-53.92"/>
<polygon fill="#63b8ff" stroke="#63b8ff" points="297.35,-57.12 306.21,-51.3 295.66,-50.33 297.35,-57.12"/>
</g>
<!-- Node19&#45;&gt;Node14 -->
<g id="edge29" class="edge">
<title>Node19&#45;&gt;Node14</title>
<path fill="none" stroke="#63b8ff" d="M220.74,-111.38C243.35,-106.22 271.64,-99.77 295.24,-94.38"/>
<polygon fill="#63b8ff" stroke="#63b8ff" points="295.75,-97.63 304.72,-91.99 294.19,-90.8 295.75,-97.63"/>
</g>
<!-- Node19&#45;&gt;Node16 -->
<g id="edge30" class="edge">
<title>Node19&#45;&gt;Node16</title>
<path fill="none" stroke="#63b8ff" d="M221.04,-111.18C225.91,-108.91 230.55,-106.1 234.5,-102.62 262.25,-78.19 241.85,-51 270.5,-27.62 277.66,-21.78 286.47,-17.8 295.43,-15.09"/>
<polygon fill="#63b8ff" stroke="#63b8ff" points="296.08,-18.29 304.94,-12.47 294.39,-11.5 296.08,-18.29"/>
</g>
<!-- Node19&#45;&gt;Node17 -->
<g id="edge31" class="edge">
<title>Node19&#45;&gt;Node17</title>
<path fill="none" stroke="#63b8ff" d="M220.74,-129.87C240.97,-134.48 265.75,-140.14 287.64,-145.13"/>
<polygon fill="#63b8ff" stroke="#63b8ff" points="286.6,-148.71 297.13,-147.53 288.16,-141.89 286.6,-148.71"/>
</g>
<!-- Node19&#45;&gt;Node18 -->
<g id="edge32" class="edge">
<title>Node19&#45;&gt;Node18</title>
<path fill="none" stroke="#63b8ff" d="M220.74,-120.62C242.93,-120.62 270.57,-120.62 293.9,-120.62"/>
<polygon fill="#63b8ff" stroke="#63b8ff" points="293.62,-124.13 303.62,-120.62 293.62,-117.13 293.62,-124.13"/>
</g>
</g>
</svg>
        <g id="navigator" transform="translate(0 0)" fill="#404254">
                <rect fill="#f2f5e9" fill-opacity="0.5" stroke="#606060" stroke-width=".5" x="0" y="0" width="60" height="60"/>
                <use id="zoomplus" xlink:href="#zoomPlus" x="17" y="9" onmousedown="handleZoom(evt,'in')"/>
                <use id="zoomminus" xlink:href="#zoomMin" x="42" y="9" onmousedown="handleZoom(evt,'out')"/>
                <use id="reset" xlink:href="#resetDef" x="30" y="36" onmousedown="handleReset()"/>
                <g id="arrowUp" xlink:href="#dirArrow" transform="translate(30 24)" onmousedown="handlePan(0,-1)">
                  <use xlink:href="#rim" fill="#404040">
                        <set attributeName="fill" to="#808080" begin="arrowUp.mouseover" end="arrowUp.mouseout"/>
                  </use>
                  <path fill="none" stroke="white" stroke-width="1.5" d="M0,-3.0v7 M-2.5,-0.5L0,-3.0L2.5,-0.5"/>
                </g>
                <g id="arrowRight" xlink:href="#dirArrow" transform="rotate(90) translate(36 -43)" onmousedown="handlePan(1,0)">
                  <use xlink:href="#rim" fill="#404040">
                        <set attributeName="fill" to="#808080" begin="arrowRight.mouseover" end="arrowRight.mouseout"/>
                  </use>
                  <path fill="none" stroke="white" stroke-width="1.5" d="M0,-3.0v7 M-2.5,-0.5L0,-3.0L2.5,-0.5"/>
                </g>
                <g id="arrowDown" xlink:href="#dirArrow" transform="rotate(180) translate(-30 -48)" onmousedown="handlePan(0,1)">
                  <use xlink:href="#rim" fill="#404040">
                        <set attributeName="fill" to="#808080" begin="arrowDown.mouseover" end="arrowDown.mouseout"/>
                  </use>
                  <path fill="none" stroke="white" stroke-width="1.5" d="M0,-3.0v7 M-2.5,-0.5L0,-3.0L2.5,-0.5"/>
                </g>
                <g id="arrowLeft" xlink:href="#dirArrow" transform="rotate(270) translate(-36 17)" onmousedown="handlePan(-1,0)">
                  <use xlink:href="#rim" fill="#404040">
                        <set attributeName="fill" to="#808080" begin="arrowLeft.mouseover" end="arrowLeft.mouseout"/>
                  </use>
                  <path fill="none" stroke="white" stroke-width="1.5" d="M0,-3.0v7 M-2.5,-0.5L0,-3.0L2.5,-0.5"/>
                </g>
        </g>
        <svg viewBox="0 0 15 15" width="100%" height="30px" preserveAspectRatio="xMaxYMin meet">
         <g id="arrow_out" transform="scale(0.3 0.3)">
          <a xlink:href="kpm_util_8cpp_a49295a10dea2cb3b990ce3b3e2da2948_cgraph_org.svg" target="_base">
           <rect id="button" ry="5" rx="5" y="6" x="6" height="38" width="38"
                fill="#f2f5e9" fill-opacity="0.5" stroke="#606060" stroke-width="1.0"/>
           <path id="arrow"
             d="M 11.500037,31.436501 C 11.940474,20.09759 22.043105,11.32322 32.158766,21.979434 L 37.068811,17.246167 C 37.068811,17.246167 37.088388,32 37.088388,32 L 22.160133,31.978069 C 22.160133,31.978069 26.997745,27.140456 26.997745,27.140456 C 18.528582,18.264221 13.291696,25.230495 11.500037,31.436501 z"
             style="fill:#404040;"/>
          </a>
         </g>
        </svg>
</svg>
