<?xml version="1.0" encoding="UTF-8" standalone="no"?>
<!DOCTYPE svg PUBLIC "-//W3C//DTD SVG 1.1//EN"
 "http://www.w3.org/Graphics/SVG/1.1/DTD/svg11.dtd">
<!-- Generated by graphviz version 7.0.5 (20221223.1930)
 -->
<!-- Title: kpmUtilGetPose_binary Pages: 1 -->
<svg width="704pt" height="270pt"
 viewBox="0.00 0.00 704.00 270.00" xmlns="http://www.w3.org/2000/svg" xmlns:xlink="http://www.w3.org/1999/xlink">
<g id="graph0" class="graph" transform="scale(1 1) rotate(0) translate(4 266)">
<title>kpmUtilGetPose_binary</title>
<!-- Node1 -->
<g id="node1" class="node">
<title>Node1</title>
<g id="a_node1"><a xlink:title=" ">
<polygon fill="#999999" stroke="#666666" points="120,-149 0,-149 0,-130 120,-130 120,-149"/>
<text text-anchor="middle" x="60" y="-137" font-family="Helvetica,sans-Serif" font-size="10.00">kpmUtilGetPose_binary</text>
</a>
</g>
</g>
<!-- Node2 -->
<g id="node2" class="node">
<title>Node2</title>
<g id="a_node2"><a xlink:href="icp_handle_8c.html#acc980d46da2fee551179fe0eb8853587" target="_top" xlink:title=" ">
<polygon fill="white" stroke="#666666" points="256,-243 167,-243 167,-224 256,-224 256,-243"/>
<text text-anchor="middle" x="211.5" y="-231" font-family="Helvetica,sans-Serif" font-size="10.00">icpCreateHandle</text>
</a>
</g>
</g>
<!-- Node1&#45;&gt;Node2 -->
<g id="edge1" class="edge">
<title>Node1&#45;&gt;Node2</title>
<path fill="none" stroke="#63b8ff" d="M70.94,-149.5C87.33,-165.48 121.65,-196.87 156,-215.5 158.49,-216.85 161.1,-218.12 163.77,-219.32"/>
<polygon fill="#63b8ff" stroke="#63b8ff" points="162.28,-222.49 172.86,-222.98 164.89,-216 162.28,-222.49"/>
</g>
<!-- Node3 -->
<g id="node3" class="node">
<title>Node3</title>
<g id="a_node3"><a xlink:href="icp_handle_8c.html#a510dee7e69010b7aa075d90f27a8e9da" target="_top" xlink:title=" ">
<polygon fill="white" stroke="#666666" points="256,-206 167,-206 167,-187 256,-187 256,-206"/>
<text text-anchor="middle" x="211.5" y="-194" font-family="Helvetica,sans-Serif" font-size="10.00">icpDeleteHandle</text>
</a>
</g>
</g>
<!-- Node1&#45;&gt;Node3 -->
<g id="edge2" class="edge">
<title>Node1&#45;&gt;Node3</title>
<path fill="none" stroke="#63b8ff" d="M87.04,-149.43C111.08,-158.6 147.04,-172.3 173.95,-182.57"/>
<polygon fill="#63b8ff" stroke="#63b8ff" points="172.5,-185.76 183.09,-186.05 175,-179.22 172.5,-185.76"/>
</g>
<!-- Node4 -->
<g id="node4" class="node">
<title>Node4</title>
<g id="a_node4"><a xlink:href="icp_util_8c.html#a9a0da1f41013b11363f39d99a5c937e9" target="_top" xlink:title=" ">
<polygon fill="white" stroke="#666666" points="433.5,-215.5 318.5,-215.5 318.5,-185.5 433.5,-185.5 433.5,-215.5"/>
<text text-anchor="start" x="326.5" y="-203.5" font-family="Helvetica,sans-Serif" font-size="10.00">icpGetInitXw2Xc_from</text>
<text text-anchor="middle" x="376" y="-192.5" font-family="Helvetica,sans-Serif" font-size="10.00">_PlanarData</text>
</a>
</g>
</g>
<!-- Node1&#45;&gt;Node4 -->
<g id="edge3" class="edge">
<title>Node1&#45;&gt;Node4</title>
<path fill="none" stroke="#63b8ff" d="M114.82,-149.48C156.41,-157.24 215.39,-168.36 267,-178.5 279.98,-181.05 293.83,-183.83 307.13,-186.52"/>
<polygon fill="#63b8ff" stroke="#63b8ff" points="306.16,-189.9 316.66,-188.46 307.55,-183.04 306.16,-189.9"/>
</g>
<!-- Node12 -->
<g id="node12" class="node">
<title>Node12</title>
<g id="a_node12"><a xlink:href="icp_point_8c.html#a466204966df0b17ea76bd05a3d396307" target="_top" xlink:title=" ">
<polygon fill="white" stroke="#666666" points="237.5,-93 185.5,-93 185.5,-74 237.5,-74 237.5,-93"/>
<text text-anchor="middle" x="211.5" y="-81" font-family="Helvetica,sans-Serif" font-size="10.00">icpPoint</text>
</a>
</g>
</g>
<!-- Node1&#45;&gt;Node12 -->
<g id="edge15" class="edge">
<title>Node1&#45;&gt;Node12</title>
<path fill="none" stroke="#63b8ff" d="M84.66,-129.57C103.79,-121.65 131.47,-110.45 156,-101.5 161.91,-99.34 168.22,-97.16 174.37,-95.09"/>
<polygon fill="#63b8ff" stroke="#63b8ff" points="175.33,-98.46 183.72,-91.99 173.12,-91.81 175.33,-98.46"/>
</g>
<!-- Node19 -->
<g id="node19" class="node">
<title>Node19</title>
<g id="a_node19"><a xlink:href="icp_point_robust_8c.html#a34b02ccedd9db2360adeccaea4fca916" target="_top" xlink:title=" ">
<polygon fill="white" stroke="#666666" points="253,-130 170,-130 170,-111 253,-111 253,-130"/>
<text text-anchor="middle" x="211.5" y="-118" font-family="Helvetica,sans-Serif" font-size="10.00">icpPointRobust</text>
</a>
</g>
</g>
<!-- Node1&#45;&gt;Node19 -->
<g id="edge27" class="edge">
<title>Node1&#45;&gt;Node19</title>
<path fill="none" stroke="#63b8ff" d="M120.09,-131.99C132.83,-130.37 146.22,-128.67 158.66,-127.09"/>
<polygon fill="#63b8ff" stroke="#63b8ff" points="158.8,-130.6 168.28,-125.87 157.92,-123.65 158.8,-130.6"/>
</g>
<!-- Node20 -->
<g id="node20" class="node">
<title>Node20</title>
<g id="a_node20"><a xlink:href="icp_handle_8c.html#a9515de22165e8248a8742e1f5b9e4bef" target="_top" xlink:title=" ">
<polygon fill="white" stroke="#666666" points="267,-56 156,-56 156,-37 267,-37 267,-56"/>
<text text-anchor="middle" x="211.5" y="-44" font-family="Helvetica,sans-Serif" font-size="10.00">icpSetInlierProbability</text>
</a>
</g>
</g>
<!-- Node1&#45;&gt;Node20 -->
<g id="edge33" class="edge">
<title>Node1&#45;&gt;Node20</title>
<path fill="none" stroke="#63b8ff" d="M70.97,-129.64C87.4,-113.88 121.77,-82.92 156,-64.5 158.5,-63.16 161.11,-61.89 163.78,-60.7"/>
<polygon fill="#63b8ff" stroke="#63b8ff" points="164.9,-64.02 172.88,-57.05 162.29,-57.53 164.9,-64.02"/>
</g>
<!-- Node5 -->
<g id="node5" class="node">
<title>Node5</title>
<g id="a_node5"><a xlink:href="m_alloc_8c.html#a69c9a974dc5a3963148ebb2c4a80f969" target="_top" xlink:title=" ">
<polygon fill="white" stroke="#666666" points="694.5,-225 620.5,-225 620.5,-206 694.5,-206 694.5,-225"/>
<text text-anchor="middle" x="657.5" y="-213" font-family="Helvetica,sans-Serif" font-size="10.00">arMatrixAlloc</text>
</a>
</g>
</g>
<!-- Node4&#45;&gt;Node5 -->
<g id="edge4" class="edge">
<title>Node4&#45;&gt;Node5</title>
<path fill="none" stroke="#63b8ff" d="M400.26,-215.83C421.37,-228.75 453.87,-246.27 485,-253.5 527.43,-263.35 540.72,-263.97 583,-253.5 600.56,-249.15 602.93,-242.81 619,-234.5 621.41,-233.26 623.9,-231.97 626.42,-230.69"/>
<polygon fill="#63b8ff" stroke="#63b8ff" points="627.94,-233.84 635.27,-226.18 624.77,-227.6 627.94,-233.84"/>
</g>
<!-- Node6 -->
<g id="node6" class="node">
<title>Node6</title>
<g id="a_node6"><a xlink:href="m_alloc_mul_8c.html#a8e99293b68c38ce8a8d1920884d69f73" target="_top" xlink:title=" ">
<polygon fill="white" stroke="#666666" points="578.5,-168 489.5,-168 489.5,-149 578.5,-149 578.5,-168"/>
<text text-anchor="middle" x="534" y="-156" font-family="Helvetica,sans-Serif" font-size="10.00">arMatrixAllocMul</text>
</a>
</g>
</g>
<!-- Node4&#45;&gt;Node6 -->
<g id="edge5" class="edge">
<title>Node4&#45;&gt;Node6</title>
<path fill="none" stroke="#63b8ff" d="M433.76,-185.22C450.61,-180.68 468.88,-175.76 485.11,-171.39"/>
<polygon fill="#63b8ff" stroke="#63b8ff" points="485.76,-174.84 494.51,-168.86 483.94,-168.08 485.76,-174.84"/>
</g>
<!-- Node7 -->
<g id="node7" class="node">
<title>Node7</title>
<g id="a_node7"><a xlink:href="m_free_8c.html#ac4b7a714cce9fffda773d86363380454" target="_top" xlink:title=" ">
<polygon fill="white" stroke="#666666" points="693,-169 622,-169 622,-150 693,-150 693,-169"/>
<text text-anchor="middle" x="657.5" y="-157" font-family="Helvetica,sans-Serif" font-size="10.00">arMatrixFree</text>
</a>
</g>
</g>
<!-- Node4&#45;&gt;Node7 -->
<g id="edge13" class="edge">
<title>Node4&#45;&gt;Node7</title>
<path fill="none" stroke="#63b8ff" d="M433.68,-196.15C475.22,-192.49 532.86,-186.4 583,-177.5 591.91,-175.92 601.35,-173.88 610.39,-171.75"/>
<polygon fill="#63b8ff" stroke="#63b8ff" points="611.2,-175.16 620.08,-169.39 609.54,-168.36 611.2,-175.16"/>
</g>
<!-- Node9 -->
<g id="node9" class="node">
<title>Node9</title>
<g id="a_node9"><a xlink:href="m_alloc_trans_8c.html#a4e2bf8cd529487fb1ff4d0bbc52eee1e" target="_top" xlink:title=" ">
<polygon fill="white" stroke="#666666" points="583,-244 485,-244 485,-225 583,-225 583,-244"/>
<text text-anchor="middle" x="534" y="-232" font-family="Helvetica,sans-Serif" font-size="10.00">arMatrixAllocTrans</text>
</a>
</g>
</g>
<!-- Node4&#45;&gt;Node9 -->
<g id="edge9" class="edge">
<title>Node4&#45;&gt;Node9</title>
<path fill="none" stroke="#63b8ff" d="M433.76,-212.87C447.65,-215.9 462.5,-219.14 476.38,-222.16"/>
<polygon fill="#63b8ff" stroke="#63b8ff" points="475.27,-225.5 485.79,-224.21 476.76,-218.66 475.27,-225.5"/>
</g>
<!-- Node11 -->
<g id="node11" class="node">
<title>Node11</title>
<g id="a_node11"><a xlink:href="m_self_inv_8c.html#a929738025b539a0c1bbd2f395ad4d981" target="_top" xlink:title=" ">
<polygon fill="white" stroke="#666666" points="575.5,-131 492.5,-131 492.5,-112 575.5,-112 575.5,-131"/>
<text text-anchor="middle" x="534" y="-119" font-family="Helvetica,sans-Serif" font-size="10.00">arMatrixSelfInv</text>
</a>
</g>
</g>
<!-- Node4&#45;&gt;Node11 -->
<g id="edge14" class="edge">
<title>Node4&#45;&gt;Node11</title>
<path fill="none" stroke="#63b8ff" d="M432.08,-185.14C437.97,-182.62 443.73,-179.76 449,-176.5 468.25,-164.6 466.09,-152.92 485,-140.5 487.24,-139.03 489.62,-137.64 492.07,-136.33"/>
<polygon fill="#63b8ff" stroke="#63b8ff" points="493.46,-139.55 500.99,-132.1 490.46,-133.22 493.46,-139.55"/>
</g>
<!-- Node6&#45;&gt;Node5 -->
<g id="edge6" class="edge">
<title>Node6&#45;&gt;Node5</title>
<path fill="none" stroke="#63b8ff" d="M556.16,-168.43C575.24,-177.38 603.54,-190.66 625.23,-200.83"/>
<polygon fill="#63b8ff" stroke="#63b8ff" points="623.67,-203.96 634.21,-205.04 626.64,-197.63 623.67,-203.96"/>
</g>
<!-- Node6&#45;&gt;Node7 -->
<g id="edge7" class="edge">
<title>Node6&#45;&gt;Node7</title>
<path fill="none" stroke="#63b8ff" d="M578.86,-158.86C589.14,-158.95 600.11,-159.04 610.47,-159.12"/>
<polygon fill="#63b8ff" stroke="#63b8ff" points="610.3,-162.62 620.33,-159.2 610.36,-155.62 610.3,-162.62"/>
</g>
<!-- Node8 -->
<g id="node8" class="node">
<title>Node8</title>
<g id="a_node8"><a xlink:href="m_mul_8c.html#a202bc2db43d563792c99e852ea0b7ba4" target="_top" xlink:title=" ">
<polygon fill="white" stroke="#666666" points="691.5,-75 623.5,-75 623.5,-56 691.5,-56 691.5,-75"/>
<text text-anchor="middle" x="657.5" y="-63" font-family="Helvetica,sans-Serif" font-size="10.00">arMatrixMul</text>
</a>
</g>
</g>
<!-- Node6&#45;&gt;Node8 -->
<g id="edge8" class="edge">
<title>Node6&#45;&gt;Node8</title>
<path fill="none" stroke="#63b8ff" d="M567.44,-148.56C572.84,-146.29 578.23,-143.61 583,-140.5 606.63,-125.12 628.53,-100.95 642.17,-84.22"/>
<polygon fill="#63b8ff" stroke="#63b8ff" points="644.79,-86.56 648.26,-76.55 639.3,-82.21 644.79,-86.56"/>
</g>
<!-- Node9&#45;&gt;Node5 -->
<g id="edge10" class="edge">
<title>Node9&#45;&gt;Node5</title>
<path fill="none" stroke="#63b8ff" d="M583.37,-226.94C591.83,-225.61 600.63,-224.24 609.07,-222.92"/>
<polygon fill="#63b8ff" stroke="#63b8ff" points="609.45,-226.4 618.79,-221.4 608.37,-219.48 609.45,-226.4"/>
</g>
<!-- Node9&#45;&gt;Node7 -->
<g id="edge11" class="edge">
<title>Node9&#45;&gt;Node7</title>
<path fill="none" stroke="#63b8ff" d="M556.38,-224.62C564.82,-220.52 574.5,-215.54 583,-210.5 600.8,-199.95 619.99,-186.56 634.29,-176.15"/>
<polygon fill="#63b8ff" stroke="#63b8ff" points="636.14,-179.14 642.12,-170.39 631.99,-173.5 636.14,-179.14"/>
</g>
<!-- Node10 -->
<g id="node10" class="node">
<title>Node10</title>
<g id="a_node10"><a xlink:href="m_trans_8c.html#ad3d9712dd27f655902a8a3315e623d85" target="_top" xlink:title=" ">
<polygon fill="white" stroke="#666666" points="696,-262 619,-262 619,-243 696,-243 696,-262"/>
<text text-anchor="middle" x="657.5" y="-250" font-family="Helvetica,sans-Serif" font-size="10.00">arMatrixTrans</text>
</a>
</g>
</g>
<!-- Node9&#45;&gt;Node10 -->
<g id="edge12" class="edge">
<title>Node9&#45;&gt;Node10</title>
<path fill="none" stroke="#63b8ff" d="M583.37,-241.67C591.28,-242.84 599.49,-244.05 607.42,-245.23"/>
<polygon fill="#63b8ff" stroke="#63b8ff" points="606.88,-248.69 617.28,-246.69 607.9,-241.76 606.88,-248.69"/>
</g>
<!-- Node13 -->
<g id="node13" class="node">
<title>Node13</title>
<g id="a_node13"><a xlink:href="ar_util_8c.html#ae28eeba3e16224a7d77b46bd34b8f4fe" target="_top" xlink:title=" ">
<polygon fill="white" stroke="#666666" points="412,-56 340,-56 340,-37 412,-37 412,-56"/>
<text text-anchor="middle" x="376" y="-44" font-family="Helvetica,sans-Serif" font-size="10.00">arUtilMatMul</text>
</a>
</g>
</g>
<!-- Node12&#45;&gt;Node13 -->
<g id="edge16" class="edge">
<title>Node12&#45;&gt;Node13</title>
<path fill="none" stroke="#63b8ff" d="M237.89,-77.72C262.11,-72.2 299.17,-63.77 328.65,-57.05"/>
<polygon fill="#63b8ff" stroke="#63b8ff" points="329.09,-60.54 338.06,-54.91 327.54,-53.72 329.09,-60.54"/>
</g>
<!-- Node14 -->
<g id="node14" class="node">
<title>Node14</title>
<g id="a_node14"><a xlink:href="icp_core_8c.html#a4906398b4594d29ab8035b4016a7e9de" target="_top" xlink:title=" ">
<polygon fill="white" stroke="#666666" points="413.5,-93 338.5,-93 338.5,-74 413.5,-74 413.5,-93"/>
<text text-anchor="middle" x="376" y="-81" font-family="Helvetica,sans-Serif" font-size="10.00">icpGetDeltaS</text>
</a>
</g>
</g>
<!-- Node12&#45;&gt;Node14 -->
<g id="edge17" class="edge">
<title>Node12&#45;&gt;Node14</title>
<path fill="none" stroke="#63b8ff" d="M237.89,-83.5C261.61,-83.5 297.64,-83.5 326.81,-83.5"/>
<polygon fill="#63b8ff" stroke="#63b8ff" points="326.51,-87 336.51,-83.5 326.51,-80 326.51,-87"/>
</g>
<!-- Node16 -->
<g id="node16" class="node">
<title>Node16</title>
<g id="a_node16"><a xlink:href="icp_core_8c.html#ac384ca6737fdee325d58740d665eda0a" target="_top" xlink:title=" ">
<polygon fill="white" stroke="#666666" points="413.5,-19 338.5,-19 338.5,0 413.5,0 413.5,-19"/>
<text text-anchor="middle" x="376" y="-7" font-family="Helvetica,sans-Serif" font-size="10.00">icpGetJ_U_S</text>
</a>
</g>
</g>
<!-- Node12&#45;&gt;Node16 -->
<g id="edge24" class="edge">
<title>Node12&#45;&gt;Node16</title>
<path fill="none" stroke="#63b8ff" d="M237.75,-77.37C247.36,-74.37 258.13,-70.15 267,-64.5 286.35,-52.17 283.11,-38.94 303,-27.5 310.45,-23.21 318.92,-19.94 327.35,-17.44"/>
<polygon fill="#63b8ff" stroke="#63b8ff" points="328.08,-20.86 336.88,-14.96 326.32,-14.09 328.08,-20.86"/>
</g>
<!-- Node17 -->
<g id="node17" class="node">
<title>Node17</title>
<g id="a_node17"><a xlink:href="icp_core_8c.html#aceeb3fd72a762c2078d8fb88ec03ccfb" target="_top" xlink:title=" ">
<polygon fill="white" stroke="#666666" points="449,-167 303,-167 303,-148 449,-148 449,-167"/>
<text text-anchor="middle" x="376" y="-155" font-family="Helvetica,sans-Serif" font-size="10.00">icpGetU_from_X_by_MatX2U</text>
</a>
</g>
</g>
<!-- Node12&#45;&gt;Node17 -->
<g id="edge25" class="edge">
<title>Node12&#45;&gt;Node17</title>
<path fill="none" stroke="#63b8ff" d="M237.8,-89.05C247.41,-91.86 258.17,-95.89 267,-101.5 286.64,-113.97 282.91,-127.77 303,-139.5 305.35,-140.87 307.8,-142.14 310.31,-143.31"/>
<polygon fill="#63b8ff" stroke="#63b8ff" points="308.99,-146.55 319.57,-147.04 311.6,-140.05 308.99,-146.55"/>
</g>
<!-- Node18 -->
<g id="node18" class="node">
<title>Node18</title>
<g id="a_node18"><a xlink:href="icp_core_8c.html#a94201124387610a46b975cdb9d8a1db6" target="_top" xlink:title=" ">
<polygon fill="white" stroke="#666666" points="414.5,-130 337.5,-130 337.5,-111 414.5,-111 414.5,-130"/>
<text text-anchor="middle" x="376" y="-118" font-family="Helvetica,sans-Serif" font-size="10.00">icpUpdateMat</text>
</a>
</g>
</g>
<!-- Node12&#45;&gt;Node18 -->
<g id="edge26" class="edge">
<title>Node12&#45;&gt;Node18</title>
<path fill="none" stroke="#63b8ff" d="M237.89,-89.28C261.37,-94.63 296.92,-102.72 325.94,-109.33"/>
<polygon fill="#63b8ff" stroke="#63b8ff" points="325.1,-112.73 335.63,-111.54 326.66,-105.9 325.1,-112.73"/>
</g>
<!-- Node14&#45;&gt;Node6 -->
<g id="edge18" class="edge">
<title>Node14&#45;&gt;Node6</title>
<path fill="none" stroke="#63b8ff" d="M413.75,-88.41C425.58,-91.08 438.36,-95.19 449,-101.5 469.29,-113.53 465.43,-127.34 485,-140.5 486.6,-141.58 488.27,-142.6 489.99,-143.57"/>
<polygon fill="#63b8ff" stroke="#63b8ff" points="488.34,-146.66 498.86,-147.9 491.42,-140.37 488.34,-146.66"/>
</g>
<!-- Node14&#45;&gt;Node7 -->
<g id="edge21" class="edge">
<title>Node14&#45;&gt;Node7</title>
<path fill="none" stroke="#63b8ff" d="M413.77,-80.83C456.12,-79.1 527.04,-80.42 583,-102.5 604.93,-111.15 625.76,-128.48 639.6,-141.77"/>
<polygon fill="#63b8ff" stroke="#63b8ff" points="637.01,-144.13 646.56,-148.72 641.96,-139.18 637.01,-144.13"/>
</g>
<!-- Node14&#45;&gt;Node8 -->
<g id="edge22" class="edge">
<title>Node14&#45;&gt;Node8</title>
<path fill="none" stroke="#63b8ff" d="M413.71,-77.93C425.53,-75.08 438.32,-70.83 449,-64.5 469.01,-52.63 463.63,-35.69 485,-26.5 525.01,-9.29 540.73,-15.98 583,-26.5 601.05,-30.99 619.53,-40.83 633.45,-49.5"/>
<polygon fill="#63b8ff" stroke="#63b8ff" points="631.14,-52.18 641.44,-54.69 634.96,-46.31 631.14,-52.18"/>
</g>
<!-- Node14&#45;&gt;Node9 -->
<g id="edge19" class="edge">
<title>Node14&#45;&gt;Node9</title>
<path fill="none" stroke="#63b8ff" d="M413.89,-86.38C426.13,-88.89 439.14,-93.41 449,-101.5 477.9,-125.2 464.8,-146.06 485,-177.5 493.96,-191.45 505.98,-205.71 515.74,-216.48"/>
<polygon fill="#63b8ff" stroke="#63b8ff" points="512.9,-218.57 522.27,-223.51 518.03,-213.8 512.9,-218.57"/>
</g>
<!-- Node14&#45;&gt;Node11 -->
<g id="edge23" class="edge">
<title>Node14&#45;&gt;Node11</title>
<path fill="none" stroke="#63b8ff" d="M413.97,-92.51C434,-97.38 459.06,-103.49 481.03,-108.84"/>
<polygon fill="#63b8ff" stroke="#63b8ff" points="480.17,-112.23 490.71,-111.2 481.83,-105.43 480.17,-112.23"/>
</g>
<!-- Node15 -->
<g id="node15" class="node">
<title>Node15</title>
<g id="a_node15"><a xlink:href="m_disp_8c.html#a60f36997579d355f6030f872faad84a2" target="_top" xlink:title=" ">
<polygon fill="white" stroke="#666666" points="570,-55 498,-55 498,-36 570,-36 570,-55"/>
<text text-anchor="middle" x="534" y="-43" font-family="Helvetica,sans-Serif" font-size="10.00">arMatrixDisp</text>
</a>
</g>
</g>
<!-- Node14&#45;&gt;Node15 -->
<g id="edge20" class="edge">
<title>Node14&#45;&gt;Node15</title>
<path fill="none" stroke="#63b8ff" d="M413.97,-74.49C435.73,-69.19 463.44,-62.44 486.65,-56.79"/>
<polygon fill="#63b8ff" stroke="#63b8ff" points="487.28,-60.24 496.17,-54.47 485.62,-53.44 487.28,-60.24"/>
</g>
<!-- Node19&#45;&gt;Node13 -->
<g id="edge28" class="edge">
<title>Node19&#45;&gt;Node13</title>
<path fill="none" stroke="#63b8ff" d="M248.78,-110.51C255.1,-108.04 261.42,-105.05 267,-101.5 286.35,-89.17 283.11,-75.94 303,-64.5 310.85,-59.98 319.82,-56.59 328.71,-54.04"/>
<polygon fill="#63b8ff" stroke="#63b8ff" points="329.5,-57.45 338.35,-51.62 327.8,-50.66 329.5,-57.45"/>
</g>
<!-- Node19&#45;&gt;Node14 -->
<g id="edge29" class="edge">
<title>Node19&#45;&gt;Node14</title>
<path fill="none" stroke="#63b8ff" d="M253.09,-111.26C275.55,-106.15 303.59,-99.76 327.12,-94.4"/>
<polygon fill="#63b8ff" stroke="#63b8ff" points="327.81,-97.83 336.78,-92.2 326.25,-91.01 327.81,-97.83"/>
</g>
<!-- Node19&#45;&gt;Node16 -->
<g id="edge30" class="edge">
<title>Node19&#45;&gt;Node16</title>
<path fill="none" stroke="#63b8ff" d="M252.92,-110.53C258.02,-108.13 262.88,-105.16 267,-101.5 294.33,-77.2 274.6,-50.54 303,-27.5 309.97,-21.85 318.47,-17.94 327.15,-15.25"/>
<polygon fill="#63b8ff" stroke="#63b8ff" points="327.86,-18.68 336.69,-12.81 326.13,-11.89 327.86,-18.68"/>
</g>
<!-- Node19&#45;&gt;Node17 -->
<g id="edge31" class="edge">
<title>Node19&#45;&gt;Node17</title>
<path fill="none" stroke="#63b8ff" d="M253.09,-129.74C273.34,-134.35 298.13,-140 320.06,-144.99"/>
<polygon fill="#63b8ff" stroke="#63b8ff" points="319.23,-148.39 329.75,-147.2 320.78,-141.57 319.23,-148.39"/>
</g>
<!-- Node19&#45;&gt;Node18 -->
<g id="edge32" class="edge">
<title>Node19&#45;&gt;Node18</title>
<path fill="none" stroke="#63b8ff" d="M253.09,-120.5C275.12,-120.5 302.53,-120.5 325.78,-120.5"/>
<polygon fill="#63b8ff" stroke="#63b8ff" points="325.65,-124 335.65,-120.5 325.65,-117 325.65,-124"/>
</g>
</g>
</svg>
