<?xml version="1.0" encoding="UTF-8" standalone="no"?>
<!DOCTYPE svg PUBLIC "-//W3C//DTD SVG 1.1//EN"
 "http://www.w3.org/Graphics/SVG/1.1/DTD/svg11.dtd">
<!-- Generated by graphviz version 7.0.5 (20221223.1930)
 -->
<!-- Title: kpmSetRefDataSetFile Pages: 1 -->
<svg width="376pt" height="101pt"
 viewBox="0.00 0.00 376.00 101.00" xmlns="http://www.w3.org/2000/svg" xmlns:xlink="http://www.w3.org/1999/xlink">
<g id="graph0" class="graph" transform="scale(1 1) rotate(0) translate(4 97)">
<title>kpmSetRefDataSetFile</title>
<!-- Node1 -->
<g id="node1" class="node">
<title>Node1</title>
<g id="a_node1"><a xlink:title="Loads a reference data set from a file into the KPM tracker.">
<polygon fill="#999999" stroke="#666666" points="118,-56 0,-56 0,-37 118,-37 118,-56"/>
<text text-anchor="middle" x="59" y="-44" font-family="Helvetica,sans-Serif" font-size="10.00">kpmSetRefDataSetFile</text>
</a>
</g>
</g>
<!-- Node2 -->
<g id="node2" class="node">
<title>Node2</title>
<g id="a_node2"><a xlink:href="kpm_ref_data_set_8cpp.html#ae2afc1e3f2fce6618bf611b5043a9f30" target="_top" xlink:title="Dispose of a reference data set and its allocated memory.">
<polygon fill="white" stroke="#666666" points="270,-93 154,-93 154,-74 270,-74 270,-93"/>
<text text-anchor="middle" x="212" y="-81" font-family="Helvetica,sans-Serif" font-size="10.00">kpmDeleteRefDataSet</text>
</a>
</g>
</g>
<!-- Node1&#45;&gt;Node2 -->
<g id="edge1" class="edge">
<title>Node1&#45;&gt;Node2</title>
<path fill="none" stroke="#63b8ff" d="M100.47,-56.42C118.58,-60.85 140.14,-66.14 159.4,-70.86"/>
<polygon fill="#63b8ff" stroke="#63b8ff" points="158.41,-74.22 168.95,-73.2 160.07,-67.42 158.41,-74.22"/>
</g>
<!-- Node3 -->
<g id="node3" class="node">
<title>Node3</title>
<g id="a_node3"><a xlink:href="kpm_ref_data_set_8cpp.html#a0e26702b107339fecdf43377b9cca8bf" target="_top" xlink:title="Load a reference data set from the filesystem into memory.">
<polygon fill="white" stroke="#666666" points="266,-56 158,-56 158,-37 266,-37 266,-56"/>
<text text-anchor="middle" x="212" y="-44" font-family="Helvetica,sans-Serif" font-size="10.00">kpmLoadRefDataSet</text>
</a>
</g>
</g>
<!-- Node1&#45;&gt;Node3 -->
<g id="edge2" class="edge">
<title>Node1&#45;&gt;Node3</title>
<path fill="none" stroke="#63b8ff" d="M118.38,-46.5C127.58,-46.5 137.15,-46.5 146.48,-46.5"/>
<polygon fill="#63b8ff" stroke="#63b8ff" points="146.2,-50 156.2,-46.5 146.2,-43 146.2,-50"/>
</g>
<!-- Node5 -->
<g id="node5" class="node">
<title>Node5</title>
<g id="a_node5"><a xlink:href="kpm_matching_8cpp.html#a3f1f8e46753ddee2fa11ea757dcd01ca" target="_top" xlink:title="Load a reference data set into the key point matcher for tracking.">
<polygon fill="white" stroke="#666666" points="263,-19 161,-19 161,0 263,0 263,-19"/>
<text text-anchor="middle" x="212" y="-7" font-family="Helvetica,sans-Serif" font-size="10.00">kpmSetRefDataSet</text>
</a>
</g>
</g>
<!-- Node1&#45;&gt;Node5 -->
<g id="edge4" class="edge">
<title>Node1&#45;&gt;Node5</title>
<path fill="none" stroke="#63b8ff" d="M100.47,-36.58C118.58,-32.15 140.14,-26.86 159.4,-22.14"/>
<polygon fill="#63b8ff" stroke="#63b8ff" points="160.07,-25.58 168.95,-19.8 158.41,-18.78 160.07,-25.58"/>
</g>
<!-- Node4 -->
<g id="node4" class="node">
<title>Node4</title>
<g id="a_node4"><a xlink:href="kpm_fopen_8c.html#a3183ffcaddce8bab8621315f7e5567fc" target="_top" xlink:title=" ">
<polygon fill="white" stroke="#666666" points="368,-56 306,-56 306,-37 368,-37 368,-56"/>
<text text-anchor="middle" x="337" y="-44" font-family="Helvetica,sans-Serif" font-size="10.00">kpmFopen</text>
</a>
</g>
</g>
<!-- Node3&#45;&gt;Node4 -->
<g id="edge3" class="edge">
<title>Node3&#45;&gt;Node4</title>
<path fill="none" stroke="#63b8ff" d="M266.23,-46.5C275.62,-46.5 285.28,-46.5 294.29,-46.5"/>
<polygon fill="#63b8ff" stroke="#63b8ff" points="294.19,-50 304.19,-46.5 294.19,-43 294.19,-50"/>
</g>
</g>
</svg>
