<?xml version="1.0" encoding="UTF-8" standalone="no"?>
<!DOCTYPE svg PUBLIC "-//W3C//DTD SVG 1.1//EN"
 "http://www.w3.org/Graphics/SVG/1.1/DTD/svg11.dtd">
<!-- Generated by graphviz version 2.40.1 (20161225.0304)
 -->
<!-- Title: kpmUtilGetPose2 Pages: 1 -->
<svg width="436pt" height="222pt"
 viewBox="0.00 0.00 436.46 222.00" xmlns="http://www.w3.org/2000/svg" xmlns:xlink="http://www.w3.org/1999/xlink">
<g id="graph0" class="graph" transform="scale(1 1) rotate(0) translate(4 218)">
<title>kpmUtilGetPose2</title>
<polygon fill="#ffffff" stroke="transparent" points="-4,4 -4,-218 432.457,-218 432.457,4 -4,4"/>
<!-- Node11 -->
<g id="node1" class="node">
<title>Node11</title>
<polygon fill="#bfbfbf" stroke="#000000" points="0,-92.5 0,-110.5 93.8076,-110.5 93.8076,-92.5 0,-92.5"/>
<text text-anchor="middle" x="46.9038" y="-98.5" font-family="Helvetica,sans-Serif" font-size="10.00" fill="#000000">kpmUtilGetPose2</text>
</g>
<!-- Node12 -->
<g id="node2" class="node">
<title>Node12</title>
<g id="a_node2"><a xlink:href="icp_util_8c.html#a9a0da1f41013b11363f39d99a5c937e9" target="_top" xlink:title="icpGetInitXw2Xc_from\l_PlanarData">
<polygon fill="#ffffff" stroke="#000000" points="129.8076,-185.5 129.8076,-213.5 244.7334,-213.5 244.7334,-185.5 129.8076,-185.5"/>
<text text-anchor="start" x="137.8076" y="-201.5" font-family="Helvetica,sans-Serif" font-size="10.00" fill="#000000">icpGetInitXw2Xc_from</text>
<text text-anchor="middle" x="187.2705" y="-191.5" font-family="Helvetica,sans-Serif" font-size="10.00" fill="#000000">_PlanarData</text>
</a>
</g>
</g>
<!-- Node11&#45;&gt;Node12 -->
<g id="edge1" class="edge">
<title>Node11&#45;&gt;Node12</title>
<path fill="none" stroke="#191970" d="M55.2407,-110.9682C69.2961,-126.4537 99.1842,-157.3835 129.8076,-176.5 132.2859,-178.047 134.8858,-179.5249 137.5537,-180.9308"/>
<polygon fill="#191970" stroke="#191970" points="136.284,-184.2052 146.8079,-185.4297 139.3446,-177.9097 136.284,-184.2052"/>
</g>
<!-- Node13 -->
<g id="node3" class="node">
<title>Node13</title>
<g id="a_node3"><a xlink:href="icp_handle_8c.html#ae5a7f3015c4daa239f9bb569967d3d8e" target="_top" xlink:title="icpCreateHandle">
<polygon fill="#ffffff" stroke="#000000" points="142.0269,-148.5 142.0269,-166.5 232.5142,-166.5 232.5142,-148.5 142.0269,-148.5"/>
<text text-anchor="middle" x="187.2705" y="-154.5" font-family="Helvetica,sans-Serif" font-size="10.00" fill="#000000">icpCreateHandle</text>
</a>
</g>
</g>
<!-- Node11&#45;&gt;Node13 -->
<g id="edge2" class="edge">
<title>Node11&#45;&gt;Node13</title>
<path fill="none" stroke="#191970" d="M65.059,-110.6273C81.6682,-118.7827 107.0457,-130.7585 129.8076,-139.5 135.0532,-141.5145 140.6292,-143.4766 146.1657,-145.3195"/>
<polygon fill="#191970" stroke="#191970" points="145.4171,-148.7555 156.0087,-148.4935 147.5654,-142.0933 145.4171,-148.7555"/>
</g>
<!-- Node14 -->
<g id="node4" class="node">
<title>Node14</title>
<g id="a_node4"><a xlink:href="icp_handle_8c.html#a9515de22165e8248a8742e1f5b9e4bef" target="_top" xlink:title="icpSetInlierProbability">
<polygon fill="#ffffff" stroke="#000000" points="131.1919,-111.5 131.1919,-129.5 243.3491,-129.5 243.3491,-111.5 131.1919,-111.5"/>
<text text-anchor="middle" x="187.2705" y="-117.5" font-family="Helvetica,sans-Serif" font-size="10.00" fill="#000000">icpSetInlierProbability</text>
</a>
</g>
</g>
<!-- Node11&#45;&gt;Node14 -->
<g id="edge3" class="edge">
<title>Node11&#45;&gt;Node14</title>
<path fill="none" stroke="#191970" d="M94.0344,-107.8796C102.5986,-109.0388 111.6781,-110.2678 120.6786,-111.4861"/>
<polygon fill="#191970" stroke="#191970" points="120.3961,-114.9797 130.7753,-112.8528 121.3352,-108.043 120.3961,-114.9797"/>
</g>
<!-- Node15 -->
<g id="node5" class="node">
<title>Node15</title>
<g id="a_node5"><a xlink:href="icp_point_robust_8c.html#a34b02ccedd9db2360adeccaea4fca916" target="_top" xlink:title="icpPointRobust">
<polygon fill="#ffffff" stroke="#000000" points="145.6401,-74.5 145.6401,-92.5 228.9009,-92.5 228.9009,-74.5 145.6401,-74.5"/>
<text text-anchor="middle" x="187.2705" y="-80.5" font-family="Helvetica,sans-Serif" font-size="10.00" fill="#000000">icpPointRobust</text>
</a>
</g>
</g>
<!-- Node11&#45;&gt;Node15 -->
<g id="edge4" class="edge">
<title>Node11&#45;&gt;Node15</title>
<path fill="none" stroke="#191970" d="M94.0344,-95.4562C107.2355,-93.7633 121.6606,-91.9135 135.1339,-90.1858"/>
<polygon fill="#191970" stroke="#191970" points="135.7417,-93.6366 145.2153,-88.893 134.8513,-86.6934 135.7417,-93.6366"/>
</g>
<!-- Node18 -->
<g id="node8" class="node">
<title>Node18</title>
<g id="a_node8"><a xlink:href="icp_handle_8c.html#a510dee7e69010b7aa075d90f27a8e9da" target="_top" xlink:title="icpDeleteHandle">
<polygon fill="#ffffff" stroke="#000000" points="142.5811,-.5 142.5811,-18.5 231.96,-18.5 231.96,-.5 142.5811,-.5"/>
<text text-anchor="middle" x="187.2705" y="-6.5" font-family="Helvetica,sans-Serif" font-size="10.00" fill="#000000">icpDeleteHandle</text>
</a>
</g>
</g>
<!-- Node11&#45;&gt;Node18 -->
<g id="edge7" class="edge">
<title>Node11&#45;&gt;Node18</title>
<path fill="none" stroke="#191970" d="M54.6673,-92.3991C68.3385,-76.9182 98.2621,-45.4003 129.8076,-27.5 133.2386,-25.5531 136.9065,-23.7891 140.6671,-22.1964"/>
<polygon fill="#191970" stroke="#191970" points="142.0313,-25.422 150.1235,-18.5833 139.5329,-18.883 142.0313,-25.422"/>
</g>
<!-- Node19 -->
<g id="node9" class="node">
<title>Node19</title>
<g id="a_node9"><a xlink:href="icp_point_8c.html#a466204966df0b17ea76bd05a3d396307" target="_top" xlink:title="icpPoint">
<polygon fill="#ffffff" stroke="#000000" points="161.4824,-37.5 161.4824,-55.5 213.0586,-55.5 213.0586,-37.5 161.4824,-37.5"/>
<text text-anchor="middle" x="187.2705" y="-43.5" font-family="Helvetica,sans-Serif" font-size="10.00" fill="#000000">icpPoint</text>
</a>
</g>
</g>
<!-- Node11&#45;&gt;Node19 -->
<g id="edge8" class="edge">
<title>Node11&#45;&gt;Node19</title>
<path fill="none" stroke="#191970" d="M66.4633,-92.4106C83.1337,-84.8081 107.8168,-73.8906 129.8076,-65.5 136.8268,-62.8218 144.4076,-60.1575 151.6888,-57.7083"/>
<polygon fill="#191970" stroke="#191970" points="152.9511,-60.9775 161.3511,-54.5206 150.7579,-54.3299 152.9511,-60.9775"/>
</g>
<!-- Node16 -->
<g id="node6" class="node">
<title>Node16</title>
<g id="a_node6"><a xlink:href="ar_util_8c.html#ae28eeba3e16224a7d77b46bd34b8f4fe" target="_top" xlink:title="arUtilMatMul">
<polygon fill="#ffffff" stroke="#000000" points="318.5361,-74.5 318.5361,-92.5 390.6543,-92.5 390.6543,-74.5 318.5361,-74.5"/>
<text text-anchor="middle" x="354.5952" y="-80.5" font-family="Helvetica,sans-Serif" font-size="10.00" fill="#000000">arUtilMatMul</text>
</a>
</g>
</g>
<!-- Node15&#45;&gt;Node16 -->
<g id="edge5" class="edge">
<title>Node15&#45;&gt;Node16</title>
<path fill="none" stroke="#191970" d="M229.062,-83.5C253.1162,-83.5 283.3923,-83.5 308.1843,-83.5"/>
<polygon fill="#191970" stroke="#191970" points="308.4396,-87.0001 318.4396,-83.5 308.4395,-80.0001 308.4396,-87.0001"/>
</g>
<!-- Node17 -->
<g id="node7" class="node">
<title>Node17</title>
<g id="a_node7"><a xlink:href="icp_core_8c.html#aceeb3fd72a762c2078d8fb88ec03ccfb" target="_top" xlink:title="icpGetU_from_X_by_MatX2U">
<polygon fill="#ffffff" stroke="#000000" points="280.7334,-37.5 280.7334,-55.5 428.457,-55.5 428.457,-37.5 280.7334,-37.5"/>
<text text-anchor="middle" x="354.5952" y="-43.5" font-family="Helvetica,sans-Serif" font-size="10.00" fill="#000000">icpGetU_from_X_by_MatX2U</text>
</a>
</g>
</g>
<!-- Node15&#45;&gt;Node17 -->
<g id="edge6" class="edge">
<title>Node15&#45;&gt;Node17</title>
<path fill="none" stroke="#191970" d="M228.2027,-74.4488C250.9754,-69.4131 279.5218,-63.1008 303.7207,-57.7497"/>
<polygon fill="#191970" stroke="#191970" points="304.7875,-61.0985 313.7959,-55.5218 303.2761,-54.2636 304.7875,-61.0985"/>
</g>
<!-- Node19&#45;&gt;Node16 -->
<g id="edge9" class="edge">
<title>Node19&#45;&gt;Node16</title>
<path fill="none" stroke="#191970" d="M213.415,-52.2813C238.7668,-57.8872 277.7759,-66.5132 308.3703,-73.2784"/>
<polygon fill="#191970" stroke="#191970" points="307.8714,-76.7526 318.3913,-75.4943 309.3829,-69.9177 307.8714,-76.7526"/>
</g>
<!-- Node19&#45;&gt;Node17 -->
<g id="edge10" class="edge">
<title>Node19&#45;&gt;Node17</title>
<path fill="none" stroke="#191970" d="M213.415,-46.5C228.9758,-46.5 249.6819,-46.5 270.4293,-46.5"/>
<polygon fill="#191970" stroke="#191970" points="270.5953,-50.0001 280.5953,-46.5 270.5952,-43.0001 270.5953,-50.0001"/>
</g>
</g>
</svg>
