<?xml version="1.0" encoding="UTF-8" standalone="no"?>
<!DOCTYPE svg PUBLIC "-//W3C//DTD SVG 1.1//EN"
 "http://www.w3.org/Graphics/SVG/1.1/DTD/svg11.dtd">
<!-- Generated by graphviz version 7.0.5 (20221223.1930)
 -->
<!-- Title: Source/ARX/KPM/kpmPrivate.h Pages: 1 -->
<svg width="726pt" height="93pt"
 viewBox="0.00 0.00 726.00 93.00" xmlns="http://www.w3.org/2000/svg" xmlns:xlink="http://www.w3.org/1999/xlink">
<g id="graph0" class="graph" transform="scale(1 1) rotate(0) translate(4 89)">
<title>Source/ARX/KPM/kpmPrivate.h</title>
<!-- Node1 -->
<g id="node1" class="node">
<title>Node1</title>
<g id="a_node1"><a xlink:title=" ">
<polygon fill="#999999" stroke="#666666" points="444,-85 287,-85 287,-66 444,-66 444,-85"/>
<text text-anchor="middle" x="365.5" y="-73" font-family="Helvetica,sans-Serif" font-size="10.00">Source/ARX/KPM/kpmPrivate.h</text>
</a>
</g>
</g>
<!-- Node2 -->
<g id="node2" class="node">
<title>Node2</title>
<g id="a_node2"><a xlink:href="kpm_handle_8cpp.html" target="_top" xlink:title=" ">
<polygon fill="white" stroke="#666666" points="167,-24.5 0,-24.5 0,-5.5 167,-5.5 167,-24.5"/>
<text text-anchor="middle" x="83.5" y="-12.5" font-family="Helvetica,sans-Serif" font-size="10.00">Source/ARX/KPM/kpmHandle.cpp</text>
</a>
</g>
</g>
<!-- Node1&#45;&gt;Node2 -->
<g id="edge1" class="edge">
<title>Node1&#45;&gt;Node2</title>
<path fill="none" stroke="#63b8ff" d="M311.33,-63.26C257.55,-52.11 176.18,-35.23 126.63,-24.95"/>
<polygon fill="#63b8ff" stroke="#63b8ff" points="310.38,-66.64 320.88,-65.24 311.8,-59.79 310.38,-66.64"/>
</g>
<!-- Node3 -->
<g id="node3" class="node">
<title>Node3</title>
<g id="a_node3"><a xlink:href="kpm_matching_8cpp.html" target="_top" xlink:title=" ">
<polygon fill="white" stroke="#666666" points="361.5,-24.5 185.5,-24.5 185.5,-5.5 361.5,-5.5 361.5,-24.5"/>
<text text-anchor="middle" x="273.5" y="-12.5" font-family="Helvetica,sans-Serif" font-size="10.00">Source/ARX/KPM/kpmMatching.cpp</text>
</a>
</g>
</g>
<!-- Node1&#45;&gt;Node3 -->
<g id="edge2" class="edge">
<title>Node1&#45;&gt;Node3</title>
<path fill="none" stroke="#63b8ff" d="M342.15,-59.66C324.95,-48.72 302.11,-34.19 287.6,-24.97"/>
<polygon fill="#63b8ff" stroke="#63b8ff" points="339.93,-62.39 350.25,-64.8 343.69,-56.48 339.93,-62.39"/>
</g>
<!-- Node4 -->
<g id="node4" class="node">
<title>Node4</title>
<g id="a_node4"><a xlink:href="kpm_ref_data_set_8cpp.html" target="_top" xlink:title=" ">
<polygon fill="white" stroke="#666666" points="535,-30 380,-30 380,0 535,0 535,-30"/>
<text text-anchor="start" x="388" y="-18" font-family="Helvetica,sans-Serif" font-size="10.00">Source/ARX/KPM/kpmRefData</text>
<text text-anchor="middle" x="457.5" y="-7" font-family="Helvetica,sans-Serif" font-size="10.00">Set.cpp</text>
</a>
</g>
</g>
<!-- Node1&#45;&gt;Node4 -->
<g id="edge3" class="edge">
<title>Node1&#45;&gt;Node4</title>
<path fill="none" stroke="#63b8ff" d="M388.95,-59.59C403.03,-50.64 420.85,-39.3 434.79,-30.44"/>
<polygon fill="#63b8ff" stroke="#63b8ff" points="387.31,-56.48 380.75,-64.8 391.07,-62.39 387.31,-56.48"/>
</g>
<!-- Node5 -->
<g id="node5" class="node">
<title>Node5</title>
<g id="a_node5"><a xlink:href="kpm_result_8cpp.html" target="_top" xlink:title=" ">
<polygon fill="white" stroke="#666666" points="718,-24.5 553,-24.5 553,-5.5 718,-5.5 718,-24.5"/>
<text text-anchor="middle" x="635.5" y="-12.5" font-family="Helvetica,sans-Serif" font-size="10.00">Source/ARX/KPM/kpmResult.cpp</text>
</a>
</g>
</g>
<!-- Node1&#45;&gt;Node5 -->
<g id="edge4" class="edge">
<title>Node1&#45;&gt;Node5</title>
<path fill="none" stroke="#63b8ff" d="M418.01,-63.12C469.51,-51.97 546.96,-35.18 594.2,-24.95"/>
<polygon fill="#63b8ff" stroke="#63b8ff" points="417.31,-59.69 408.28,-65.23 418.79,-66.53 417.31,-59.69"/>
</g>
</g>
</svg>
