<?xml version="1.0" encoding="UTF-8" standalone="no"?>
<!DOCTYPE svg PUBLIC "-//W3C//DTD SVG 1.1//EN"
 "http://www.w3.org/Graphics/SVG/1.1/DTD/svg11.dtd">
<!-- Generated by graphviz version 7.0.5 (20221223.1930)
 -->
<!-- Title: Source/ARX/KPM/kpmRefDataSet.cpp Pages: 1 -->
<!--zoomable 258 -->
<svg id="main" version="1.1" xmlns="http://www.w3.org/2000/svg" xmlns:xlink="http://www.w3.org/1999/xlink" xml:space="preserve" onload="init(evt)">
<style type="text/css"><![CDATA[
.edge:hover path { stroke: red; }
.edge:hover polygon { stroke: red; fill: red; }
]]></style>
<script type="text/javascript"><![CDATA[
var edges = document.getElementsByTagName('g');
if (edges && edges.length) {
  for (var i=0;i<edges.length;i++) {
    if (edges[i].id.substr(0,4)=='edge') {
      edges[i].setAttribute('class','edge');
    }
  }
}
]]></script>
        <defs>
                <circle id="rim" cx="0" cy="0" r="7"/>
                <circle id="rim2" cx="0" cy="0" r="3.5"/>
                <g id="zoomPlus">
                        <use xlink:href="#rim" fill="#404040">
                                <set attributeName="fill" to="#808080" begin="zoomplus.mouseover" end="zoomplus.mouseout"/>
                        </use>
                        <path d="M-4,0h8M0,-4v8" fill="none" stroke="white" stroke-width="1.5" pointer-events="none"/>
                </g>
                <g id="zoomMin">
                        <use xlink:href="#rim" fill="#404040">
                                <set attributeName="fill" to="#808080" begin="zoomminus.mouseover" end="zoomminus.mouseout"/>
                        </use>
                        <path d="M-4,0h8" fill="none" stroke="white" stroke-width="1.5" pointer-events="none"/>
                </g>
                <g id="dirArrow">
                        <path fill="none" stroke="white" stroke-width="1.5" d="M0,-3.0v7 M-2.5,-0.5L0,-3.0L2.5,-0.5"/>
                </g>
               <g id="resetDef">
                       <use xlink:href="#rim2" fill="#404040">
                               <set attributeName="fill" to="#808080" begin="reset.mouseover" end="reset.mouseout"/>
                       </use>
               </g>
        </defs>

<script type="text/javascript">
var viewWidth = 1260;
var viewHeight = 258;
var sectionId = 'dynsection-0';
</script>
<script xlink:href="svgpan.js"/>
<svg id="graph" class="graph">
<g id="viewport">
<title>Source/ARX/KPM/kpmRefDataSet.cpp</title>
<!-- Node1 -->
<g id="node1" class="node">
<title>Node1</title>
<g id="a_node1"><a xlink:title=" ">
<polygon fill="#999999" stroke="#666666" points="1079.05,-250 924.05,-250 924.05,-220 1079.05,-220 1079.05,-250"/>
<text text-anchor="start" x="932.05" y="-238" font-family="Helvetica,sans-Serif" font-size="10.00">Source/ARX/KPM/kpmRefData</text>
<text text-anchor="middle" x="1001.55" y="-227" font-family="Helvetica,sans-Serif" font-size="10.00">Set.cpp</text>
</a>
</g>
</g>
<!-- Node2 -->
<g id="node2" class="node">
<title>Node2</title>
<g id="a_node2"><a xlink:title=" ">
<polygon fill="#e0e0e0" stroke="#999999" points="874.55,-19 828.55,-19 828.55,0 874.55,0 874.55,-19"/>
<text text-anchor="middle" x="851.55" y="-7" font-family="Helvetica,sans-Serif" font-size="10.00">stdio.h</text>
</a>
</g>
</g>
<!-- Node1&#45;&gt;Node2 -->
<g id="edge1" class="edge">
<title>Node1&#45;&gt;Node2</title>
<path fill="none" stroke="#63b8ff" d="M978.25,-219.69C966.4,-210.99 953.13,-198.73 946.55,-184 923.15,-131.66 976.4,-103.33 945.55,-55 938.51,-43.98 909.35,-31.19 885.35,-22.15"/>
<polygon fill="#63b8ff" stroke="#63b8ff" points="886.8,-18.96 876.21,-18.81 884.4,-25.53 886.8,-18.96"/>
</g>
<!-- Node3 -->
<g id="node3" class="node">
<title>Node3</title>
<g id="a_node3"><a xlink:title=" ">
<polygon fill="#e0e0e0" stroke="#999999" points="281.55,-19 233.55,-19 233.55,0 281.55,0 281.55,-19"/>
<text text-anchor="middle" x="257.55" y="-7" font-family="Helvetica,sans-Serif" font-size="10.00">stdlib.h</text>
</a>
</g>
</g>
<!-- Node1&#45;&gt;Node3 -->
<g id="edge2" class="edge">
<title>Node1&#45;&gt;Node3</title>
<path fill="none" stroke="#63b8ff" d="M923.75,-233.51C714.25,-230.38 146.23,-209.34 31.55,-74 -8.42,-26.84 -59.58,-80.9 222.05,-19.43"/>
<polygon fill="#63b8ff" stroke="#63b8ff" points="222.59,-22.89 231.6,-17.32 221.09,-16.06 222.59,-22.89"/>
</g>
<!-- Node4 -->
<g id="node4" class="node">
<title>Node4</title>
<g id="a_node4"><a xlink:title=" ">
<polygon fill="#e0e0e0" stroke="#999999" points="90.05,-74 41.05,-74 41.05,-55 90.05,-55 90.05,-74"/>
<text text-anchor="middle" x="65.55" y="-62" font-family="Helvetica,sans-Serif" font-size="10.00">stdint.h</text>
</a>
</g>
</g>
<!-- Node1&#45;&gt;Node4 -->
<g id="edge3" class="edge">
<title>Node1&#45;&gt;Node4</title>
<path fill="none" stroke="#63b8ff" d="M923.68,-221.91C861.15,-212.07 771.12,-197.64 692.55,-184 432.06,-138.77 363.34,-131.18 101.39,-74.29"/>
<polygon fill="#63b8ff" stroke="#63b8ff" points="102.38,-70.93 91.87,-72.22 100.89,-77.77 102.38,-70.93"/>
</g>
<!-- Node5 -->
<g id="node5" class="node">
<title>Node5</title>
<g id="a_node5"><a xlink:href="ar_8h.html" target="_top" xlink:title="artoolkitX core routines.">
<polygon fill="white" stroke="#666666" points="520.55,-129 446.55,-129 446.55,-110 520.55,-110 520.55,-129"/>
<text text-anchor="middle" x="483.55" y="-117" font-family="Helvetica,sans-Serif" font-size="10.00">ARX/AR/ar.h</text>
</a>
</g>
</g>
<!-- Node1&#45;&gt;Node5 -->
<g id="edge4" class="edge">
<title>Node1&#45;&gt;Node5</title>
<path fill="none" stroke="#63b8ff" d="M935.41,-219.51C829.77,-196.36 625.35,-151.57 532.07,-131.13"/>
<polygon fill="#63b8ff" stroke="#63b8ff" points="532.99,-127.75 522.47,-129.03 531.49,-134.59 532.99,-127.75"/>
</g>
<!-- Node19 -->
<g id="node19" class="node">
<title>Node19</title>
<g id="a_node19"><a xlink:href="kpm_8h.html" target="_top" xlink:title=" ">
<polygon fill="white" stroke="#666666" points="1047.55,-184 955.55,-184 955.55,-165 1047.55,-165 1047.55,-184"/>
<text text-anchor="middle" x="1001.55" y="-172" font-family="Helvetica,sans-Serif" font-size="10.00">ARX/KPM/kpm.h</text>
</a>
</g>
</g>
<!-- Node1&#45;&gt;Node19 -->
<g id="edge28" class="edge">
<title>Node1&#45;&gt;Node19</title>
<path fill="none" stroke="#63b8ff" d="M1001.55,-219.54C1001.55,-212.34 1001.55,-203.53 1001.55,-195.68"/>
<polygon fill="#63b8ff" stroke="#63b8ff" points="1005.05,-195.69 1001.55,-185.69 998.05,-195.69 1005.05,-195.69"/>
</g>
<!-- Node20 -->
<g id="node20" class="node">
<title>Node20</title>
<g id="a_node20"><a xlink:href="kpm_type_8h.html" target="_top" xlink:title=" ">
<polygon fill="white" stroke="#666666" points="1170.05,-129 1057.05,-129 1057.05,-110 1170.05,-110 1170.05,-129"/>
<text text-anchor="middle" x="1113.55" y="-117" font-family="Helvetica,sans-Serif" font-size="10.00">ARX/KPM/kpmType.h</text>
</a>
</g>
</g>
<!-- Node1&#45;&gt;Node20 -->
<g id="edge32" class="edge">
<title>Node1&#45;&gt;Node20</title>
<path fill="none" stroke="#63b8ff" d="M1026.26,-219.53C1040.5,-210.45 1058.17,-197.87 1071.55,-184 1084.45,-170.62 1095.85,-152.78 1103.51,-139.42"/>
<polygon fill="#63b8ff" stroke="#63b8ff" points="1106.51,-141.21 1108.28,-130.76 1100.38,-137.83 1106.51,-141.21"/>
</g>
<!-- Node21 -->
<g id="node21" class="node">
<title>Node21</title>
<g id="a_node21"><a xlink:title=" ">
<polygon fill="#e0e0e0" stroke="#999999" points="1252.05,-74 1145.05,-74 1145.05,-55 1252.05,-55 1252.05,-74"/>
<text text-anchor="middle" x="1198.55" y="-62" font-family="Helvetica,sans-Serif" font-size="10.00">ARX/KPM/surfSub.h</text>
</a>
</g>
</g>
<!-- Node1&#45;&gt;Node21 -->
<g id="edge37" class="edge">
<title>Node1&#45;&gt;Node21</title>
<path fill="none" stroke="#63b8ff" d="M1079.36,-226.8C1136.22,-219.74 1206.41,-206.65 1224.55,-184 1247.93,-154.79 1226.35,-109.07 1210.94,-83.81"/>
<polygon fill="#63b8ff" stroke="#63b8ff" points="1214.03,-82.14 1205.68,-75.62 1208.14,-85.92 1214.03,-82.14"/>
</g>
<!-- Node22 -->
<g id="node22" class="node">
<title>Node22</title>
<g id="a_node22"><a xlink:href="kpm_private_8h.html" target="_top" xlink:title=" ">
<polygon fill="white" stroke="#666666" points="1215.55,-184 1141.55,-184 1141.55,-165 1215.55,-165 1215.55,-184"/>
<text text-anchor="middle" x="1178.55" y="-172" font-family="Helvetica,sans-Serif" font-size="10.00">kpmPrivate.h</text>
</a>
</g>
</g>
<!-- Node1&#45;&gt;Node22 -->
<g id="edge33" class="edge">
<title>Node1&#45;&gt;Node22</title>
<path fill="none" stroke="#63b8ff" d="M1045.3,-219.54C1074.54,-209.87 1112.63,-197.29 1140.59,-188.04"/>
<polygon fill="#63b8ff" stroke="#63b8ff" points="1141.69,-191.37 1150.08,-184.91 1139.49,-184.72 1141.69,-191.37"/>
</g>
<!-- Node23 -->
<g id="node23" class="node">
<title>Node23</title>
<g id="a_node23"><a xlink:href="kpm_fopen_8h.html" target="_top" xlink:title=" ">
<polygon fill="white" stroke="#666666" points="1039.05,-129 968.05,-129 968.05,-110 1039.05,-110 1039.05,-129"/>
<text text-anchor="middle" x="1003.55" y="-117" font-family="Helvetica,sans-Serif" font-size="10.00">kpmFopen.h</text>
</a>
</g>
</g>
<!-- Node1&#45;&gt;Node23 -->
<g id="edge35" class="edge">
<title>Node1&#45;&gt;Node23</title>
<path fill="none" stroke="#63b8ff" d="M1025.17,-219.5C1036.97,-210.82 1050.07,-198.63 1056.55,-184 1064.93,-165.05 1047.03,-147.29 1029.81,-135.4"/>
<polygon fill="#63b8ff" stroke="#63b8ff" points="1032.06,-132.69 1021.75,-130.24 1028.29,-138.58 1032.06,-132.69"/>
</g>
<!-- Node5&#45;&gt;Node2 -->
<g id="edge5" class="edge">
<title>Node5&#45;&gt;Node2</title>
<path fill="none" stroke="#63b8ff" d="M520.94,-113.15C562.6,-106.55 631.59,-93.73 688.55,-74 706.76,-67.69 709.78,-62.49 727.55,-55 757.52,-42.36 792.46,-30.03 817.6,-21.57"/>
<polygon fill="#63b8ff" stroke="#63b8ff" points="818.59,-24.93 826.97,-18.44 816.38,-18.29 818.59,-24.93"/>
</g>
<!-- Node5&#45;&gt;Node3 -->
<g id="edge6" class="edge">
<title>Node5&#45;&gt;Node3</title>
<path fill="none" stroke="#63b8ff" d="M472.44,-109.65C455.28,-96.33 420.92,-70.98 388.55,-55 357.45,-39.66 319.76,-27.47 292.81,-19.75"/>
<polygon fill="#63b8ff" stroke="#63b8ff" points="293.99,-16.45 283.42,-17.13 292.11,-23.19 293.99,-16.45"/>
</g>
<!-- Node5&#45;&gt;Node4 -->
<g id="edge7" class="edge">
<title>Node5&#45;&gt;Node4</title>
<path fill="none" stroke="#63b8ff" d="M446.24,-115.79C379.23,-110.58 233.89,-97.7 101.48,-74.11"/>
<polygon fill="#63b8ff" stroke="#63b8ff" points="102.3,-70.7 91.84,-72.36 101.05,-77.59 102.3,-70.7"/>
</g>
<!-- Node6 -->
<g id="node6" class="node">
<title>Node6</title>
<g id="a_node6"><a xlink:title=" ">
<polygon fill="#e0e0e0" stroke="#999999" points="626.05,-19 577.05,-19 577.05,0 626.05,0 626.05,-19"/>
<text text-anchor="middle" x="601.55" y="-7" font-family="Helvetica,sans-Serif" font-size="10.00">string.h</text>
</a>
</g>
</g>
<!-- Node5&#45;&gt;Node6 -->
<g id="edge8" class="edge">
<title>Node5&#45;&gt;Node6</title>
<path fill="none" stroke="#63b8ff" d="M495.48,-109.71C507.06,-101.02 524.98,-87.15 539.55,-74 556.09,-59.07 573.72,-40.74 585.94,-27.62"/>
<polygon fill="#63b8ff" stroke="#63b8ff" points="588.22,-30.31 592.43,-20.59 583.08,-25.56 588.22,-30.31"/>
</g>
<!-- Node7 -->
<g id="node7" class="node">
<title>Node7</title>
<g id="a_node7"><a xlink:title=" ">
<polygon fill="#e0e0e0" stroke="#999999" points="215.55,-19 123.55,-19 123.55,0 215.55,0 215.55,-19"/>
<text text-anchor="middle" x="169.55" y="-7" font-family="Helvetica,sans-Serif" font-size="10.00">ARX/AR/config.h</text>
</a>
</g>
</g>
<!-- Node5&#45;&gt;Node7 -->
<g id="edge9" class="edge">
<title>Node5&#45;&gt;Node7</title>
<path fill="none" stroke="#63b8ff" d="M446.42,-114.11C404.37,-108.31 334.3,-96.15 277.55,-74 260.55,-67.37 219.46,-42.17 193.15,-25.58"/>
<polygon fill="#63b8ff" stroke="#63b8ff" points="195.14,-22.69 184.82,-20.3 191.39,-28.61 195.14,-22.69"/>
</g>
<!-- Node8 -->
<g id="node8" class="node">
<title>Node8</title>
<g id="a_node8"><a xlink:href="ar_config_8h.html" target="_top" xlink:title=" ">
<polygon fill="white" stroke="#666666" points="840.05,-74 737.05,-74 737.05,-55 840.05,-55 840.05,-74"/>
<text text-anchor="middle" x="788.55" y="-62" font-family="Helvetica,sans-Serif" font-size="10.00">ARX/AR/arConfig.h</text>
</a>
</g>
</g>
<!-- Node5&#45;&gt;Node8 -->
<g id="edge10" class="edge">
<title>Node5&#45;&gt;Node8</title>
<path fill="none" stroke="#63b8ff" d="M520.94,-112C571.93,-103.14 663.97,-87.15 725.67,-76.43"/>
<polygon fill="#63b8ff" stroke="#63b8ff" points="726.07,-79.91 735.33,-74.75 724.87,-73.01 726.07,-79.91"/>
</g>
<!-- Node9 -->
<g id="node9" class="node">
<title>Node9</title>
<g id="a_node9"><a xlink:href="log_8h.html" target="_top" xlink:title="Logging utilities.">
<polygon fill="white" stroke="#666666" points="530.55,-74 436.55,-74 436.55,-55 530.55,-55 530.55,-74"/>
<text text-anchor="middle" x="483.55" y="-62" font-family="Helvetica,sans-Serif" font-size="10.00">ARX/ARUtil/log.h</text>
</a>
</g>
</g>
<!-- Node5&#45;&gt;Node9 -->
<g id="edge11" class="edge">
<title>Node5&#45;&gt;Node9</title>
<path fill="none" stroke="#63b8ff" d="M483.55,-109.75C483.55,-103.27 483.55,-94.16 483.55,-85.9"/>
<polygon fill="#63b8ff" stroke="#63b8ff" points="487.05,-85.96 483.55,-75.96 480.05,-85.96 487.05,-85.96"/>
</g>
<!-- Node13 -->
<g id="node13" class="node">
<title>Node13</title>
<g id="a_node13"><a xlink:href="matrix_8h.html" target="_top" xlink:title=" ">
<polygon fill="white" stroke="#666666" points="680.05,-74 587.05,-74 587.05,-55 680.05,-55 680.05,-74"/>
<text text-anchor="middle" x="633.55" y="-62" font-family="Helvetica,sans-Serif" font-size="10.00">ARX/AR/matrix.h</text>
</a>
</g>
</g>
<!-- Node5&#45;&gt;Node13 -->
<g id="edge18" class="edge">
<title>Node5&#45;&gt;Node13</title>
<path fill="none" stroke="#63b8ff" d="M508.99,-109.51C533.31,-100.92 570.2,-87.88 597.53,-78.22"/>
<polygon fill="#63b8ff" stroke="#63b8ff" points="598.54,-81.58 606.8,-74.95 596.2,-74.98 598.54,-81.58"/>
</g>
<!-- Node15 -->
<g id="node15" class="node">
<title>Node15</title>
<g id="a_node15"><a xlink:href="icp_8h.html" target="_top" xlink:title=" ">
<polygon fill="white" stroke="#666666" points="937.05,-74 858.05,-74 858.05,-55 937.05,-55 937.05,-74"/>
<text text-anchor="middle" x="897.55" y="-62" font-family="Helvetica,sans-Serif" font-size="10.00">ARX/AR/icp.h</text>
</a>
</g>
</g>
<!-- Node5&#45;&gt;Node15 -->
<g id="edge20" class="edge">
<title>Node5&#45;&gt;Node15</title>
<path fill="none" stroke="#63b8ff" d="M520.94,-114.57C585.18,-107.68 720.93,-92.54 846.4,-74.25"/>
<polygon fill="#63b8ff" stroke="#63b8ff" points="846.84,-77.72 856.23,-72.8 845.83,-70.79 846.84,-77.72"/>
</g>
<!-- Node17 -->
<g id="node17" class="node">
<title>Node17</title>
<g id="a_node17"><a xlink:href="param_8h.html" target="_top" xlink:title="artoolkitX functions for handling calibrated camera parameters.">
<polygon fill="white" stroke="#666666" points="380.05,-74 287.05,-74 287.05,-55 380.05,-55 380.05,-74"/>
<text text-anchor="middle" x="333.55" y="-62" font-family="Helvetica,sans-Serif" font-size="10.00">ARX/AR/param.h</text>
</a>
</g>
</g>
<!-- Node5&#45;&gt;Node17 -->
<g id="edge23" class="edge">
<title>Node5&#45;&gt;Node17</title>
<path fill="none" stroke="#63b8ff" d="M452.88,-109.51C426.92,-100.97 390.09,-88.03 364.16,-78.4"/>
<polygon fill="#63b8ff" stroke="#63b8ff" points="365.44,-75.14 354.84,-74.89 362.97,-81.69 365.44,-75.14"/>
</g>
<!-- Node18 -->
<g id="node18" class="node">
<title>Node18</title>
<g id="a_node18"><a xlink:href="ar_image_proc_8h.html" target="_top" xlink:title="artoolkitX functions for 2D luminance image processing.">
<polygon fill="white" stroke="#666666" points="230.55,-74 108.55,-74 108.55,-55 230.55,-55 230.55,-74"/>
<text text-anchor="middle" x="169.55" y="-62" font-family="Helvetica,sans-Serif" font-size="10.00">ARX/AR/arImageProc.h</text>
</a>
</g>
</g>
<!-- Node5&#45;&gt;Node18 -->
<g id="edge25" class="edge">
<title>Node5&#45;&gt;Node18</title>
<path fill="none" stroke="#63b8ff" d="M446.2,-112.93C392.3,-104.29 292.46,-87.51 228.56,-76.4"/>
<polygon fill="#63b8ff" stroke="#63b8ff" points="229.4,-73 218.95,-74.73 228.2,-79.89 229.4,-73"/>
</g>
<!-- Node9&#45;&gt;Node2 -->
<g id="edge12" class="edge">
<title>Node9&#45;&gt;Node2</title>
<path fill="none" stroke="#63b8ff" d="M530.9,-56.68C606.17,-45.84 751.32,-24.94 817.34,-15.43"/>
<polygon fill="#63b8ff" stroke="#63b8ff" points="817.45,-18.95 826.85,-14.06 816.46,-12.02 817.45,-18.95"/>
</g>
<!-- Node9&#45;&gt;Node3 -->
<g id="edge13" class="edge">
<title>Node9&#45;&gt;Node3</title>
<path fill="none" stroke="#63b8ff" d="M443.18,-54.51C406.45,-46.26 350.46,-33.5 293.13,-19.59"/>
<polygon fill="#63b8ff" stroke="#63b8ff" points="294.05,-16.21 283.51,-17.24 292.39,-23.01 294.05,-16.21"/>
</g>
<!-- Node9&#45;&gt;Node6 -->
<g id="edge14" class="edge">
<title>Node9&#45;&gt;Node6</title>
<path fill="none" stroke="#63b8ff" d="M503.56,-54.51C522.15,-46.16 550.09,-33.61 571.38,-24.05"/>
<polygon fill="#63b8ff" stroke="#63b8ff" points="572.76,-27.27 580.44,-19.98 569.89,-20.88 572.76,-27.27"/>
</g>
<!-- Node10 -->
<g id="node10" class="node">
<title>Node10</title>
<g id="a_node10"><a xlink:title=" ">
<polygon fill="#e0e0e0" stroke="#999999" points="475.55,-19 423.55,-19 423.55,0 475.55,0 475.55,-19"/>
<text text-anchor="middle" x="449.55" y="-7" font-family="Helvetica,sans-Serif" font-size="10.00">stdarg.h</text>
</a>
</g>
</g>
<!-- Node9&#45;&gt;Node10 -->
<g id="edge15" class="edge">
<title>Node9&#45;&gt;Node10</title>
<path fill="none" stroke="#63b8ff" d="M477.93,-54.75C473.43,-47.73 466.96,-37.64 461.33,-28.87"/>
<polygon fill="#63b8ff" stroke="#63b8ff" points="464.45,-27.24 456.1,-20.72 458.55,-31.02 464.45,-27.24"/>
</g>
<!-- Node11 -->
<g id="node11" class="node">
<title>Node11</title>
<g id="a_node11"><a xlink:title=" ">
<polygon fill="#e0e0e0" stroke="#999999" points="559.05,-19 494.05,-19 494.05,0 559.05,0 559.05,-19"/>
<text text-anchor="middle" x="526.55" y="-7" font-family="Helvetica,sans-Serif" font-size="10.00">sys/errno.h</text>
</a>
</g>
</g>
<!-- Node9&#45;&gt;Node11 -->
<g id="edge16" class="edge">
<title>Node9&#45;&gt;Node11</title>
<path fill="none" stroke="#63b8ff" d="M490.65,-54.75C496.46,-47.58 504.88,-37.2 512.1,-28.3"/>
<polygon fill="#63b8ff" stroke="#63b8ff" points="514.75,-30.59 518.34,-20.62 509.32,-26.18 514.75,-30.59"/>
</g>
<!-- Node12 -->
<g id="node12" class="node">
<title>Node12</title>
<g id="a_node12"><a xlink:href="types_8h.html" target="_top" xlink:title=" ">
<polygon fill="white" stroke="#666666" points="405.05,-19 300.05,-19 300.05,0 405.05,0 405.05,-19"/>
<text text-anchor="middle" x="352.55" y="-7" font-family="Helvetica,sans-Serif" font-size="10.00">ARX/ARUtil/types.h</text>
</a>
</g>
</g>
<!-- Node9&#45;&gt;Node12 -->
<g id="edge17" class="edge">
<title>Node9&#45;&gt;Node12</title>
<path fill="none" stroke="#63b8ff" d="M461.32,-54.51C440.4,-46.04 408.82,-33.27 385.06,-23.66"/>
<polygon fill="#63b8ff" stroke="#63b8ff" points="386.43,-20.43 375.84,-19.93 383.8,-26.92 386.43,-20.43"/>
</g>
<!-- Node14 -->
<g id="node14" class="node">
<title>Node14</title>
<g id="a_node14"><a xlink:title=" ">
<polygon fill="#e0e0e0" stroke="#999999" points="691.05,-19 644.05,-19 644.05,0 691.05,0 691.05,-19"/>
<text text-anchor="middle" x="667.55" y="-7" font-family="Helvetica,sans-Serif" font-size="10.00">math.h</text>
</a>
</g>
</g>
<!-- Node13&#45;&gt;Node14 -->
<g id="edge19" class="edge">
<title>Node13&#45;&gt;Node14</title>
<path fill="none" stroke="#63b8ff" d="M639.16,-54.75C643.66,-47.73 650.13,-37.64 655.76,-28.87"/>
<polygon fill="#63b8ff" stroke="#63b8ff" points="658.54,-31.02 660.99,-20.72 652.65,-27.24 658.54,-31.02"/>
</g>
<!-- Node15&#45;&gt;Node2 -->
<g id="edge21" class="edge">
<title>Node15&#45;&gt;Node2</title>
<path fill="none" stroke="#63b8ff" d="M889.95,-54.75C883.66,-47.5 874.53,-36.98 866.75,-28.02"/>
<polygon fill="#63b8ff" stroke="#63b8ff" points="869.5,-25.84 860.3,-20.59 864.21,-30.43 869.5,-25.84"/>
</g>
<!-- Node16 -->
<g id="node16" class="node">
<title>Node16</title>
<g id="a_node16"><a xlink:href="icp_core_8h.html" target="_top" xlink:title=" ">
<polygon fill="white" stroke="#666666" points="992.55,-19 892.55,-19 892.55,0 992.55,0 992.55,-19"/>
<text text-anchor="middle" x="942.55" y="-7" font-family="Helvetica,sans-Serif" font-size="10.00">ARX/AR/icpCore.h</text>
</a>
</g>
</g>
<!-- Node15&#45;&gt;Node16 -->
<g id="edge22" class="edge">
<title>Node15&#45;&gt;Node16</title>
<path fill="none" stroke="#63b8ff" d="M904.98,-54.75C911.13,-47.5 920.06,-36.98 927.67,-28.02"/>
<polygon fill="#63b8ff" stroke="#63b8ff" points="930.17,-30.48 933.97,-20.6 924.83,-25.95 930.17,-30.48"/>
</g>
<!-- Node17&#45;&gt;Node5 -->
<g id="edge24" class="edge">
<title>Node17&#45;&gt;Node5</title>
<path fill="none" stroke="#63b8ff" d="M364.07,-74.45C389.92,-82.95 426.6,-95.83 452.57,-105.47"/>
<polygon fill="#63b8ff" stroke="#63b8ff" points="451.31,-108.73 461.9,-108.98 453.77,-102.18 451.31,-108.73"/>
</g>
<!-- Node18&#45;&gt;Node5 -->
<g id="edge27" class="edge">
<title>Node18&#45;&gt;Node5</title>
<path fill="none" stroke="#63b8ff" d="M228.08,-74.5C287.88,-84.25 379.51,-99.72 435.3,-109.47"/>
<polygon fill="#63b8ff" stroke="#63b8ff" points="434.35,-112.86 444.81,-111.15 435.56,-105.97 434.35,-112.86"/>
</g>
<!-- Node18&#45;&gt;Node7 -->
<g id="edge26" class="edge">
<title>Node18&#45;&gt;Node7</title>
<path fill="none" stroke="#63b8ff" d="M169.55,-54.75C169.55,-48.27 169.55,-39.16 169.55,-30.9"/>
<polygon fill="#63b8ff" stroke="#63b8ff" points="173.05,-30.96 169.55,-20.96 166.05,-30.96 173.05,-30.96"/>
</g>
<!-- Node19&#45;&gt;Node5 -->
<g id="edge29" class="edge">
<title>Node19&#45;&gt;Node5</title>
<path fill="none" stroke="#63b8ff" d="M955.12,-168.75C857.42,-158.75 631.43,-135.63 531.99,-125.46"/>
<polygon fill="#63b8ff" stroke="#63b8ff" points="532.6,-122 522.3,-124.46 531.89,-128.96 532.6,-122"/>
</g>
<!-- Node19&#45;&gt;Node20 -->
<g id="edge30" class="edge">
<title>Node19&#45;&gt;Node20</title>
<path fill="none" stroke="#63b8ff" d="M1020.55,-164.51C1038.11,-156.2 1064.46,-143.73 1084.64,-134.18"/>
<polygon fill="#63b8ff" stroke="#63b8ff" points="1085.92,-137.45 1093.46,-130.01 1082.92,-131.12 1085.92,-137.45"/>
</g>
<!-- Node20&#45;&gt;Node21 -->
<g id="edge31" class="edge">
<title>Node20&#45;&gt;Node21</title>
<path fill="none" stroke="#63b8ff" d="M1127.96,-109.51C1140.74,-101.54 1159.65,-89.75 1174.68,-80.38"/>
<polygon fill="#63b8ff" stroke="#63b8ff" points="1176.42,-83.42 1183.06,-75.16 1172.72,-77.48 1176.42,-83.42"/>
</g>
<!-- Node22&#45;&gt;Node21 -->
<g id="edge34" class="edge">
<title>Node22&#45;&gt;Node21</title>
<path fill="none" stroke="#63b8ff" d="M1180.18,-164.66C1183.36,-147.5 1190.44,-109.26 1194.82,-85.6"/>
<polygon fill="#63b8ff" stroke="#63b8ff" points="1198.23,-86.42 1196.61,-75.95 1191.35,-85.14 1198.23,-86.42"/>
</g>
<!-- Node23&#45;&gt;Node2 -->
<g id="edge36" class="edge">
<title>Node23&#45;&gt;Node2</title>
<path fill="none" stroke="#63b8ff" d="M1002.61,-109.85C1000.68,-96.31 995.08,-70.13 979.55,-55 972.59,-48.22 921.35,-31.67 885.85,-20.78"/>
<polygon fill="#63b8ff" stroke="#63b8ff" points="886.99,-17.47 876.4,-17.9 884.95,-24.16 886.99,-17.47"/>
</g>
</g>
</svg>
        <g id="navigator" transform="translate(0 0)" fill="#404254">
                <rect fill="#f2f5e9" fill-opacity="0.5" stroke="#606060" stroke-width=".5" x="0" y="0" width="60" height="60"/>
                <use id="zoomplus" xlink:href="#zoomPlus" x="17" y="9" onmousedown="handleZoom(evt,'in')"/>
                <use id="zoomminus" xlink:href="#zoomMin" x="42" y="9" onmousedown="handleZoom(evt,'out')"/>
                <use id="reset" xlink:href="#resetDef" x="30" y="36" onmousedown="handleReset()"/>
                <g id="arrowUp" xlink:href="#dirArrow" transform="translate(30 24)" onmousedown="handlePan(0,-1)">
                  <use xlink:href="#rim" fill="#404040">
                        <set attributeName="fill" to="#808080" begin="arrowUp.mouseover" end="arrowUp.mouseout"/>
                  </use>
                  <path fill="none" stroke="white" stroke-width="1.5" d="M0,-3.0v7 M-2.5,-0.5L0,-3.0L2.5,-0.5"/>
                </g>
                <g id="arrowRight" xlink:href="#dirArrow" transform="rotate(90) translate(36 -43)" onmousedown="handlePan(1,0)">
                  <use xlink:href="#rim" fill="#404040">
                        <set attributeName="fill" to="#808080" begin="arrowRight.mouseover" end="arrowRight.mouseout"/>
                  </use>
                  <path fill="none" stroke="white" stroke-width="1.5" d="M0,-3.0v7 M-2.5,-0.5L0,-3.0L2.5,-0.5"/>
                </g>
                <g id="arrowDown" xlink:href="#dirArrow" transform="rotate(180) translate(-30 -48)" onmousedown="handlePan(0,1)">
                  <use xlink:href="#rim" fill="#404040">
                        <set attributeName="fill" to="#808080" begin="arrowDown.mouseover" end="arrowDown.mouseout"/>
                  </use>
                  <path fill="none" stroke="white" stroke-width="1.5" d="M0,-3.0v7 M-2.5,-0.5L0,-3.0L2.5,-0.5"/>
                </g>
                <g id="arrowLeft" xlink:href="#dirArrow" transform="rotate(270) translate(-36 17)" onmousedown="handlePan(-1,0)">
                  <use xlink:href="#rim" fill="#404040">
                        <set attributeName="fill" to="#808080" begin="arrowLeft.mouseover" end="arrowLeft.mouseout"/>
                  </use>
                  <path fill="none" stroke="white" stroke-width="1.5" d="M0,-3.0v7 M-2.5,-0.5L0,-3.0L2.5,-0.5"/>
                </g>
        </g>
        <svg viewBox="0 0 15 15" width="100%" height="30px" preserveAspectRatio="xMaxYMin meet">
         <g id="arrow_out" transform="scale(0.3 0.3)">
          <a xlink:href="kpm_ref_data_set_8cpp__incl_org.svg" target="_base">
           <rect id="button" ry="5" rx="5" y="6" x="6" height="38" width="38"
                fill="#f2f5e9" fill-opacity="0.5" stroke="#606060" stroke-width="1.0"/>
           <path id="arrow"
             d="M 11.500037,31.436501 C 11.940474,20.09759 22.043105,11.32322 32.158766,21.979434 L 37.068811,17.246167 C 37.068811,17.246167 37.088388,32 37.088388,32 L 22.160133,31.978069 C 22.160133,31.978069 26.997745,27.140456 26.997745,27.140456 C 18.528582,18.264221 13.291696,25.230495 11.500037,31.436501 z"
             style="fill:#404040;"/>
          </a>
         </g>
        </svg>
</svg>
