<?xml version="1.0" encoding="UTF-8" standalone="no"?>
<!DOCTYPE svg PUBLIC "-//W3C//DTD SVG 1.1//EN"
 "http://www.w3.org/Graphics/SVG/1.1/DTD/svg11.dtd">
<!-- Generated by graphviz version 2.40.1 (20161225.0304)
 -->
<!-- Title: Source/ARX/KPM/include/ARX/KPM/kpm.h Pages: 1 -->
<!--zoomable 102 -->
<svg id="main" version="1.1" xmlns="http://www.w3.org/2000/svg" xmlns:xlink="http://www.w3.org/1999/xlink" xml:space="preserve" onload="init(evt)">
<style type="text/css"><![CDATA[
.edge:hover path { stroke: red; }
.edge:hover polygon { stroke: red; fill: red; }
]]></style>
<script type="text/javascript"><![CDATA[
var edges = document.getElementsByTagName('g');
if (edges && edges.length) {
  for (var i=0;i<edges.length;i++) {
    if (edges[i].id.substr(0,4)=='edge') {
      edges[i].setAttribute('class','edge');
    }
  }
}
]]></script>
        <defs>
                <circle id="rim" cx="0" cy="0" r="7"/>
                <circle id="rim2" cx="0" cy="0" r="3.5"/>
                <g id="zoomPlus">
                        <use xlink:href="#rim" fill="#404040">
                                <set attributeName="fill" to="#808080" begin="zoomplus.mouseover" end="zoomplus.mouseout"/>
                        </use>
                        <path d="M-4,0h8M0,-4v8" fill="none" stroke="white" stroke-width="1.5" pointer-events="none"/>
                </g>
                <g id="zoomMin">
                        <use xlink:href="#rim" fill="#404040">
                                <set attributeName="fill" to="#808080" begin="zoomminus.mouseover" end="zoomminus.mouseout"/>
                        </use>
                        <path d="M-4,0h8" fill="none" stroke="white" stroke-width="1.5" pointer-events="none"/>
                </g>
                <g id="dirArrow">
                        <path fill="none" stroke="white" stroke-width="1.5" d="M0,-3.0v7 M-2.5,-0.5L0,-3.0L2.5,-0.5"/>
                </g>
               <g id="resetDef">
                       <use xlink:href="#rim2" fill="#404040">
                               <set attributeName="fill" to="#808080" begin="reset.mouseover" end="reset.mouseout"/>
                       </use>
               </g>
        </defs>

<script type="text/javascript">
var viewWidth = 1064;
var viewHeight = 102;
var sectionId = 'dynsection-1';
</script>
<script xlink:href="svgpan.js"/>
<svg id="graph" class="graph">
<g id="viewport">
<title>Source/ARX/KPM/include/ARX/KPM/kpm.h</title>
<polygon fill="#ffffff" stroke="transparent" points="-4,4 -4,-98 1059.8813,-98 1059.8813,4 -4,4"/>
<!-- Node20 -->
<g id="node1" class="node">
<title>Node20</title>
<polygon fill="#bfbfbf" stroke="#000000" points="471.6675,-65.5 471.6675,-93.5 601.6079,-93.5 601.6079,-65.5 471.6675,-65.5"/>
<text text-anchor="start" x="479.6675" y="-81.5" font-family="Helvetica,sans-Serif" font-size="10.00" fill="#000000">Source/ARX/KPM/include</text>
<text text-anchor="middle" x="536.6377" y="-71.5" font-family="Helvetica,sans-Serif" font-size="10.00" fill="#000000">/ARX/KPM/kpm.h</text>
</g>
<!-- Node21 -->
<g id="node2" class="node">
<title>Node21</title>
<g id="a_node2"><a xlink:href="kpm_fopen_8c.html" target="_top" xlink:title="Source/ARX/KPM/kpmFopen.c">
<polygon fill="#ffffff" stroke="#000000" points="0,-5.5 0,-23.5 153.2754,-23.5 153.2754,-5.5 0,-5.5"/>
<text text-anchor="middle" x="76.6377" y="-11.5" font-family="Helvetica,sans-Serif" font-size="10.00" fill="#000000">Source/ARX/KPM/kpmFopen.c</text>
</a>
</g>
</g>
<!-- Node20&#45;&gt;Node21 -->
<g id="edge1" class="edge">
<title>Node20&#45;&gt;Node21</title>
<path fill="none" stroke="#191970" d="M460.9746,-70.0236C385.3526,-60.3782 265.8026,-44.6577 162.6377,-29 151.56,-27.3187 139.7007,-25.3978 128.4373,-23.5164"/>
<polygon fill="#191970" stroke="#191970" points="460.9855,-73.5532 471.3473,-71.3437 461.8692,-66.6092 460.9855,-73.5532"/>
</g>
<!-- Node22 -->
<g id="node3" class="node">
<title>Node22</title>
<g id="a_node3"><a xlink:href="kpm_handle_8cpp.html" target="_top" xlink:title="Source/ARX/KPM/kpmHandle.cpp">
<polygon fill="#ffffff" stroke="#000000" points="171.771,-5.5 171.771,-23.5 339.5044,-23.5 339.5044,-5.5 171.771,-5.5"/>
<text text-anchor="middle" x="255.6377" y="-11.5" font-family="Helvetica,sans-Serif" font-size="10.00" fill="#000000">Source/ARX/KPM/kpmHandle.cpp</text>
</a>
</g>
</g>
<!-- Node20&#45;&gt;Node22 -->
<g id="edge2" class="edge">
<title>Node20&#45;&gt;Node22</title>
<path fill="none" stroke="#191970" d="M466.0993,-63.1833C411.7908,-50.6208 338.7574,-33.727 294.5521,-23.5016"/>
<polygon fill="#191970" stroke="#191970" points="465.4793,-66.6322 476.0108,-65.476 467.0569,-59.8123 465.4793,-66.6322"/>
</g>
<!-- Node23 -->
<g id="node4" class="node">
<title>Node23</title>
<g id="a_node4"><a xlink:href="kpm_matching_8cpp.html" target="_top" xlink:title="Source/ARX/KPM/kpmMatching.cpp">
<polygon fill="#ffffff" stroke="#000000" points="357.3276,-5.5 357.3276,-23.5 533.9478,-23.5 533.9478,-5.5 357.3276,-5.5"/>
<text text-anchor="middle" x="445.6377" y="-11.5" font-family="Helvetica,sans-Serif" font-size="10.00" fill="#000000">Source/ARX/KPM/kpmMatching.cpp</text>
</a>
</g>
</g>
<!-- Node20&#45;&gt;Node23 -->
<g id="edge3" class="edge">
<title>Node20&#45;&gt;Node23</title>
<path fill="none" stroke="#191970" d="M508.5204,-59.4163C491.7514,-47.4383 471.2748,-32.8122 458.3417,-23.5743"/>
<polygon fill="#191970" stroke="#191970" points="506.7203,-62.4316 516.8921,-65.396 510.789,-56.7355 506.7203,-62.4316"/>
</g>
<!-- Node24 -->
<g id="node5" class="node">
<title>Node24</title>
<g id="a_node5"><a xlink:href="kpm_ref_data_set_8cpp.html" target="_top" xlink:title="Source/ARX/KPM/kpmRefData\lSet.cpp">
<polygon fill="#ffffff" stroke="#000000" points="551.7241,-.5 551.7241,-28.5 705.5513,-28.5 705.5513,-.5 551.7241,-.5"/>
<text text-anchor="start" x="559.7241" y="-16.5" font-family="Helvetica,sans-Serif" font-size="10.00" fill="#000000">Source/ARX/KPM/kpmRefData</text>
<text text-anchor="middle" x="628.6377" y="-6.5" font-family="Helvetica,sans-Serif" font-size="10.00" fill="#000000">Set.cpp</text>
</a>
</g>
</g>
<!-- Node20&#45;&gt;Node24 -->
<g id="edge4" class="edge">
<title>Node20&#45;&gt;Node24</title>
<path fill="none" stroke="#191970" d="M565.0145,-59.4511C579.1676,-49.4517 595.943,-37.5995 608.714,-28.5765"/>
<polygon fill="#191970" stroke="#191970" points="562.7479,-56.7671 556.6003,-65.396 566.7872,-62.4841 562.7479,-56.7671"/>
</g>
<!-- Node25 -->
<g id="node6" class="node">
<title>Node25</title>
<g id="a_node6"><a xlink:href="kpm_result_8cpp.html" target="_top" xlink:title="Source/ARX/KPM/kpmResult.cpp">
<polygon fill="#ffffff" stroke="#000000" points="723.4434,-5.5 723.4434,-23.5 887.832,-23.5 887.832,-5.5 723.4434,-5.5"/>
<text text-anchor="middle" x="805.6377" y="-11.5" font-family="Helvetica,sans-Serif" font-size="10.00" fill="#000000">Source/ARX/KPM/kpmResult.cpp</text>
</a>
</g>
</g>
<!-- Node20&#45;&gt;Node25 -->
<g id="edge5" class="edge">
<title>Node20&#45;&gt;Node25</title>
<path fill="none" stroke="#191970" d="M604.4876,-63.105C656.4431,-50.5507 726.1554,-33.7058 768.3851,-23.5016"/>
<polygon fill="#191970" stroke="#191970" points="603.5737,-59.7251 594.6755,-65.476 605.2179,-66.5292 603.5737,-59.7251"/>
</g>
<!-- Node26 -->
<g id="node7" class="node">
<title>Node26</title>
<g id="a_node7"><a xlink:href="kpm_util_8cpp.html" target="_top" xlink:title="Source/ARX/KPM/kpmUtil.cpp">
<polygon fill="#ffffff" stroke="#000000" points="905.394,-5.5 905.394,-23.5 1055.8813,-23.5 1055.8813,-5.5 905.394,-5.5"/>
<text text-anchor="middle" x="980.6377" y="-11.5" font-family="Helvetica,sans-Serif" font-size="10.00" fill="#000000">Source/ARX/KPM/kpmUtil.cpp</text>
</a>
</g>
</g>
<!-- Node20&#45;&gt;Node26 -->
<g id="edge6" class="edge">
<title>Node20&#45;&gt;Node26</title>
<path fill="none" stroke="#191970" d="M611.7737,-69.6628C684.6725,-59.9527 798.3756,-44.369 896.6377,-29 907.3112,-27.3306 918.7279,-25.4342 929.5959,-23.576"/>
<polygon fill="#191970" stroke="#191970" points="611.2156,-66.2061 601.764,-70.9933 612.138,-73.1451 611.2156,-66.2061"/>
</g>
</g>
</svg>
        <g id="navigator" transform="translate(0 0)" fill="#404254">
                <rect fill="#f2f5e9" fill-opacity="0.5" stroke="#606060" stroke-width=".5" x="0" y="0" width="60" height="60"/>
                <use id="zoomplus" xlink:href="#zoomPlus" x="17" y="9" onmousedown="handleZoom(evt,'in')"/>
                <use id="zoomminus" xlink:href="#zoomMin" x="42" y="9" onmousedown="handleZoom(evt,'out')"/>
                <use id="reset" xlink:href="#resetDef" x="30" y="36" onmousedown="handleReset()"/>
                <g id="arrowUp" xlink:href="#dirArrow" transform="translate(30 24)" onmousedown="handlePan(0,-1)">
                  <use xlink:href="#rim" fill="#404040">
                        <set attributeName="fill" to="#808080" begin="arrowUp.mouseover" end="arrowUp.mouseout"/>
                  </use>
                  <path fill="none" stroke="white" stroke-width="1.5" d="M0,-3.0v7 M-2.5,-0.5L0,-3.0L2.5,-0.5"/>
                </g>
                <g id="arrowRight" xlink:href="#dirArrow" transform="rotate(90) translate(36 -43)" onmousedown="handlePan(1,0)">
                  <use xlink:href="#rim" fill="#404040">
                        <set attributeName="fill" to="#808080" begin="arrowRight.mouseover" end="arrowRight.mouseout"/>
                  </use>
                  <path fill="none" stroke="white" stroke-width="1.5" d="M0,-3.0v7 M-2.5,-0.5L0,-3.0L2.5,-0.5"/>
                </g>
                <g id="arrowDown" xlink:href="#dirArrow" transform="rotate(180) translate(-30 -48)" onmousedown="handlePan(0,1)">
                  <use xlink:href="#rim" fill="#404040">
                        <set attributeName="fill" to="#808080" begin="arrowDown.mouseover" end="arrowDown.mouseout"/>
                  </use>
                  <path fill="none" stroke="white" stroke-width="1.5" d="M0,-3.0v7 M-2.5,-0.5L0,-3.0L2.5,-0.5"/>
                </g>
                <g id="arrowLeft" xlink:href="#dirArrow" transform="rotate(270) translate(-36 17)" onmousedown="handlePan(-1,0)">
                  <use xlink:href="#rim" fill="#404040">
                        <set attributeName="fill" to="#808080" begin="arrowLeft.mouseover" end="arrowLeft.mouseout"/>
                  </use>
                  <path fill="none" stroke="white" stroke-width="1.5" d="M0,-3.0v7 M-2.5,-0.5L0,-3.0L2.5,-0.5"/>
                </g>
        </g>
        <svg viewBox="0 0 15 15" width="100%" height="30px" preserveAspectRatio="xMaxYMin meet">
         <g id="arrow_out" transform="scale(0.3 0.3)">
          <a xlink:href="kpm_8h__dep__incl_org.svg" target="_base">
           <rect id="button" ry="5" rx="5" y="6" x="6" height="38" width="38"
                fill="#f2f5e9" fill-opacity="0.5" stroke="#606060" stroke-width="1.0"/>
           <path id="arrow"
             d="M 11.500037,31.436501 C 11.940474,20.09759 22.043105,11.32322 32.158766,21.979434 L 37.068811,17.246167 C 37.068811,17.246167 37.088388,32 37.088388,32 L 22.160133,31.978069 C 22.160133,31.978069 26.997745,27.140456 26.997745,27.140456 C 18.528582,18.264221 13.291696,25.230495 11.500037,31.436501 z"
             style="fill:#404040;"/>
          </a>
         </g>
        </svg>
</svg>
