<?xml version="1.0" encoding="UTF-8" standalone="no"?>
<!DOCTYPE svg PUBLIC "-//W3C//DTD SVG 1.1//EN"
 "http://www.w3.org/Graphics/SVG/1.1/DTD/svg11.dtd">
<!-- Generated by graphviz version 7.0.5 (20221223.1930)
 -->
<!-- Title: Source/ARX/ARUtil/log.c Pages: 1 -->
<svg width="465pt" height="137pt"
 viewBox="0.00 0.00 464.50 137.00" xmlns="http://www.w3.org/2000/svg" xmlns:xlink="http://www.w3.org/1999/xlink">
<g id="graph0" class="graph" transform="scale(1 1) rotate(0) translate(4 133)">
<title>Source/ARX/ARUtil/log.c</title>
<!-- Node1 -->
<g id="node1" class="node">
<title>Node1</title>
<g id="a_node1"><a xlink:title=" ">
<polygon fill="#999999" stroke="#666666" points="300,-129 172,-129 172,-110 300,-110 300,-129"/>
<text text-anchor="middle" x="236" y="-117" font-family="Helvetica,sans-Serif" font-size="10.00">Source/ARX/ARUtil/log.c</text>
</a>
</g>
</g>
<!-- Node2 -->
<g id="node2" class="node">
<title>Node2</title>
<g id="a_node2"><a xlink:href="log_8h.html" target="_top" xlink:title="Logging utilities.">
<polygon fill="white" stroke="#666666" points="236,-74 142,-74 142,-55 236,-55 236,-74"/>
<text text-anchor="middle" x="189" y="-62" font-family="Helvetica,sans-Serif" font-size="10.00">ARX/ARUtil/log.h</text>
</a>
</g>
</g>
<!-- Node1&#45;&gt;Node2 -->
<g id="edge1" class="edge">
<title>Node1&#45;&gt;Node2</title>
<path fill="none" stroke="#63b8ff" d="M228.24,-109.75C221.81,-102.5 212.49,-91.98 204.54,-83.02"/>
<polygon fill="#63b8ff" stroke="#63b8ff" points="207.19,-80.73 197.93,-75.57 201.95,-85.38 207.19,-80.73"/>
</g>
<!-- Node9 -->
<g id="node9" class="node">
<title>Node9</title>
<g id="a_node9"><a xlink:title=" ">
<polygon fill="#e0e0e0" stroke="#999999" points="311.5,-74 254.5,-74 254.5,-55 311.5,-55 311.5,-74"/>
<text text-anchor="middle" x="283" y="-62" font-family="Helvetica,sans-Serif" font-size="10.00">pthread.h</text>
</a>
</g>
</g>
<!-- Node1&#45;&gt;Node9 -->
<g id="edge8" class="edge">
<title>Node1&#45;&gt;Node9</title>
<path fill="none" stroke="#63b8ff" d="M243.76,-109.75C250.19,-102.5 259.51,-91.98 267.46,-83.02"/>
<polygon fill="#63b8ff" stroke="#63b8ff" points="270.05,-85.38 274.07,-75.57 264.81,-80.73 270.05,-85.38"/>
</g>
<!-- Node3 -->
<g id="node3" class="node">
<title>Node3</title>
<g id="a_node3"><a xlink:title=" ">
<polygon fill="#e0e0e0" stroke="#999999" points="46,-19 0,-19 0,0 46,0 46,-19"/>
<text text-anchor="middle" x="23" y="-7" font-family="Helvetica,sans-Serif" font-size="10.00">stdio.h</text>
</a>
</g>
</g>
<!-- Node2&#45;&gt;Node3 -->
<g id="edge2" class="edge">
<title>Node2&#45;&gt;Node3</title>
<path fill="none" stroke="#63b8ff" d="M160.84,-54.51C132.17,-45.36 87.7,-31.16 57.07,-21.38"/>
<polygon fill="#63b8ff" stroke="#63b8ff" points="58.49,-18.16 47.9,-18.45 56.36,-24.83 58.49,-18.16"/>
</g>
<!-- Node4 -->
<g id="node4" class="node">
<title>Node4</title>
<g id="a_node4"><a xlink:title=" ">
<polygon fill="#e0e0e0" stroke="#999999" points="112,-19 64,-19 64,0 112,0 112,-19"/>
<text text-anchor="middle" x="88" y="-7" font-family="Helvetica,sans-Serif" font-size="10.00">stdlib.h</text>
</a>
</g>
</g>
<!-- Node2&#45;&gt;Node4 -->
<g id="edge3" class="edge">
<title>Node2&#45;&gt;Node4</title>
<path fill="none" stroke="#63b8ff" d="M171.87,-54.51C156.25,-46.31 132.92,-34.07 114.83,-24.58"/>
<polygon fill="#63b8ff" stroke="#63b8ff" points="116.7,-21.61 106.22,-20.06 113.45,-27.81 116.7,-21.61"/>
</g>
<!-- Node5 -->
<g id="node5" class="node">
<title>Node5</title>
<g id="a_node5"><a xlink:title=" ">
<polygon fill="#e0e0e0" stroke="#999999" points="179.5,-19 130.5,-19 130.5,0 179.5,0 179.5,-19"/>
<text text-anchor="middle" x="155" y="-7" font-family="Helvetica,sans-Serif" font-size="10.00">string.h</text>
</a>
</g>
</g>
<!-- Node2&#45;&gt;Node5 -->
<g id="edge4" class="edge">
<title>Node2&#45;&gt;Node5</title>
<path fill="none" stroke="#63b8ff" d="M183.39,-54.75C178.88,-47.73 172.41,-37.64 166.79,-28.87"/>
<polygon fill="#63b8ff" stroke="#63b8ff" points="169.9,-27.24 161.55,-20.72 164.01,-31.02 169.9,-27.24"/>
</g>
<!-- Node6 -->
<g id="node6" class="node">
<title>Node6</title>
<g id="a_node6"><a xlink:title=" ">
<polygon fill="#e0e0e0" stroke="#999999" points="250,-19 198,-19 198,0 250,0 250,-19"/>
<text text-anchor="middle" x="224" y="-7" font-family="Helvetica,sans-Serif" font-size="10.00">stdarg.h</text>
</a>
</g>
</g>
<!-- Node2&#45;&gt;Node6 -->
<g id="edge5" class="edge">
<title>Node2&#45;&gt;Node6</title>
<path fill="none" stroke="#63b8ff" d="M194.78,-54.75C199.41,-47.73 206.07,-37.64 211.87,-28.87"/>
<polygon fill="#63b8ff" stroke="#63b8ff" points="214.67,-30.98 217.26,-20.71 208.83,-27.12 214.67,-30.98"/>
</g>
<!-- Node7 -->
<g id="node7" class="node">
<title>Node7</title>
<g id="a_node7"><a xlink:title=" ">
<polygon fill="#e0e0e0" stroke="#999999" points="333.5,-19 268.5,-19 268.5,0 333.5,0 333.5,-19"/>
<text text-anchor="middle" x="301" y="-7" font-family="Helvetica,sans-Serif" font-size="10.00">sys/errno.h</text>
</a>
</g>
</g>
<!-- Node2&#45;&gt;Node7 -->
<g id="edge6" class="edge">
<title>Node2&#45;&gt;Node7</title>
<path fill="none" stroke="#63b8ff" d="M208,-54.51C225.56,-46.2 251.92,-33.73 272.09,-24.18"/>
<polygon fill="#63b8ff" stroke="#63b8ff" points="273.37,-27.45 280.91,-20.01 270.38,-21.12 273.37,-27.45"/>
</g>
<!-- Node8 -->
<g id="node8" class="node">
<title>Node8</title>
<g id="a_node8"><a xlink:href="types_8h.html" target="_top" xlink:title=" ">
<polygon fill="white" stroke="#666666" points="456.5,-19 351.5,-19 351.5,0 456.5,0 456.5,-19"/>
<text text-anchor="middle" x="404" y="-7" font-family="Helvetica,sans-Serif" font-size="10.00">ARX/ARUtil/types.h</text>
</a>
</g>
</g>
<!-- Node2&#45;&gt;Node8 -->
<g id="edge7" class="edge">
<title>Node2&#45;&gt;Node8</title>
<path fill="none" stroke="#63b8ff" d="M225.47,-54.51C261.64,-45.59 317.23,-31.89 356.76,-22.15"/>
<polygon fill="#63b8ff" stroke="#63b8ff" points="357.37,-25.6 366.24,-19.81 355.69,-18.8 357.37,-25.6"/>
</g>
</g>
</svg>
