<?xml version="1.0" encoding="UTF-8" standalone="no"?>
<!DOCTYPE svg PUBLIC "-//W3C//DTD SVG 1.1//EN"
 "http://www.w3.org/Graphics/SVG/1.1/DTD/svg11.dtd">
<!-- Generated by graphviz version 8.0.5 (20230430.1635)
 -->
<!-- Title: Source/ARX/ARUtil/include/ARX/ARUtil/log.h Pages: 1 -->
<svg width="6707pt" height="238pt"
 viewBox="0.00 0.00 6707.12 238.00" xmlns="http://www.w3.org/2000/svg" xmlns:xlink="http://www.w3.org/1999/xlink">
<g id="graph0" class="graph" transform="scale(1 1) rotate(0) translate(4 234)">
<title>Source/ARX/ARUtil/include/ARX/ARUtil/log.h</title>
<!-- Node1 -->
<g id="node1" class="node">
<title>Node1</title>
<g id="a_node1"><a xlink:title="Logging utilities.">
<polygon fill="#999999" stroke="#666666" points="3222,-230 3085.25,-230 3085.25,-199.5 3222,-199.5 3222,-230"/>
<text text-anchor="start" x="3093.25" y="-216.5" font-family="Helvetica,sans-Serif" font-size="10.00">Source/ARX/ARUtil/include</text>
<text text-anchor="middle" x="3153.62" y="-205.25" font-family="Helvetica,sans-Serif" font-size="10.00">/ARX/ARUtil/log.h</text>
</a>
</g>
</g>
<!-- Node2 -->
<g id="node2" class="node">
<title>Node2</title>
<g id="a_node2"><a xlink:href="ar_8h.html" target="_top" xlink:title="artoolkitX core routines.">
<polygon fill="#fff0f0" stroke="red" points="3143.5,-163.5 3021.75,-163.5 3021.75,-133 3143.5,-133 3143.5,-163.5"/>
<text text-anchor="start" x="3029.75" y="-150" font-family="Helvetica,sans-Serif" font-size="10.00">Source/ARX/AR/include</text>
<text text-anchor="middle" x="3082.62" y="-138.75" font-family="Helvetica,sans-Serif" font-size="10.00">/ARX/AR/ar.h</text>
</a>
</g>
</g>
<!-- Node1&#45;&gt;Node2 -->
<g id="edge1" class="edge">
<title>Node1&#45;&gt;Node2</title>
<path fill="none" stroke="#63b8ff" d="M3129.4,-191.74C3119.25,-182.53 3107.74,-172.06 3098.67,-163.83"/>
<polygon fill="#63b8ff" stroke="#63b8ff" points="3126.76,-193.98 3136.51,-198.11 3131.47,-188.8 3126.76,-193.98"/>
</g>
<!-- Node202 -->
<g id="node50" class="node">
<title>Node202</title>
<g id="a_node50"><a xlink:href="log_8c.html" target="_top" xlink:title=" ">
<polygon fill="white" stroke="#666666" points="3288.12,-157.88 3161.12,-157.88 3161.12,-138.62 3288.12,-138.62 3288.12,-157.88"/>
<text text-anchor="middle" x="3224.62" y="-144.38" font-family="Helvetica,sans-Serif" font-size="10.00">Source/ARX/ARUtil/log.c</text>
</a>
</g>
</g>
<!-- Node1&#45;&gt;Node202 -->
<g id="edge59" class="edge">
<title>Node1&#45;&gt;Node202</title>
<path fill="none" stroke="#63b8ff" d="M3177.71,-191.87C3190.45,-180.3 3205.38,-166.74 3214.91,-158.07"/>
<polygon fill="#63b8ff" stroke="#63b8ff" points="3175.78,-188.8 3170.74,-198.11 3180.49,-193.98 3175.78,-188.8"/>
</g>
<!-- Node3 -->
<g id="node3" class="node">
<title>Node3</title>
<g id="a_node3"><a xlink:href="ar3_d_create_handle_8c.html" target="_top" xlink:title=" ">
<polygon fill="white" stroke="#666666" points="141.25,-97 0,-97 0,-66.5 141.25,-66.5 141.25,-97"/>
<text text-anchor="start" x="8" y="-83.5" font-family="Helvetica,sans-Serif" font-size="10.00">Source/ARX/AR/ar3DCreate</text>
<text text-anchor="middle" x="70.62" y="-72.25" font-family="Helvetica,sans-Serif" font-size="10.00">Handle.c</text>
</a>
</g>
</g>
<!-- Node2&#45;&gt;Node3 -->
<g id="edge2" class="edge">
<title>Node2&#45;&gt;Node3</title>
<path fill="none" stroke="#63b8ff" d="M3010.6,-146.71C2588.25,-143.47 441.87,-125.67 149.62,-97 146.99,-96.74 144.31,-96.44 141.61,-96.11"/>
<polygon fill="#63b8ff" stroke="#63b8ff" points="3010.4,-150.22 3020.42,-146.8 3010.45,-143.22 3010.4,-150.22"/>
</g>
<!-- Node4 -->
<g id="node4" class="node">
<title>Node4</title>
<g id="a_node4"><a xlink:href="ar3_d_util_8c.html" target="_top" xlink:title=" ">
<polygon fill="white" stroke="#666666" points="294.25,-91.38 159,-91.38 159,-72.12 294.25,-72.12 294.25,-91.38"/>
<text text-anchor="middle" x="226.62" y="-77.88" font-family="Helvetica,sans-Serif" font-size="10.00">Source/ARX/AR/ar3DUtil.c</text>
</a>
</g>
</g>
<!-- Node2&#45;&gt;Node4 -->
<g id="edge3" class="edge">
<title>Node2&#45;&gt;Node4</title>
<path fill="none" stroke="#63b8ff" d="M3010.79,-146.67C2602.11,-143.28 578.71,-125.18 302.62,-97 291.41,-95.86 279.37,-93.93 268.25,-91.85"/>
<polygon fill="#63b8ff" stroke="#63b8ff" points="3010.53,-150.18 3020.56,-146.76 3010.59,-143.18 3010.53,-150.18"/>
</g>
<!-- Node5 -->
<g id="node5" class="node">
<title>Node5</title>
<g id="a_node5"><a xlink:href="ar_create_handle_8c.html" target="_top" xlink:title=" ">
<polygon fill="white" stroke="#666666" points="479.38,-91.38 311.88,-91.38 311.88,-72.12 479.38,-72.12 479.38,-91.38"/>
<text text-anchor="middle" x="395.62" y="-77.88" font-family="Helvetica,sans-Serif" font-size="10.00">Source/ARX/AR/arCreateHandle.c</text>
</a>
</g>
</g>
<!-- Node2&#45;&gt;Node5 -->
<g id="edge4" class="edge">
<title>Node2&#45;&gt;Node5</title>
<path fill="none" stroke="#63b8ff" d="M3010.47,-147.07C2645.72,-145.97 1002.36,-138.76 493.62,-97 479.32,-95.83 463.92,-93.9 449.66,-91.84"/>
<polygon fill="#63b8ff" stroke="#63b8ff" points="3010.38,-150.57 3020.39,-147.1 3010.4,-143.57 3010.38,-150.57"/>
</g>
<!-- Node6 -->
<g id="node6" class="node">
<title>Node6</title>
<g id="a_node6"><a xlink:href="ar_detect_marker_8c.html" target="_top" xlink:title=" ">
<polygon fill="white" stroke="#666666" points="703.62,-24.88 537.62,-24.88 537.62,-5.63 703.62,-5.63 703.62,-24.88"/>
<text text-anchor="middle" x="620.62" y="-11.38" font-family="Helvetica,sans-Serif" font-size="10.00">Source/ARX/AR/arDetectMarker.c</text>
</a>
</g>
</g>
<!-- Node2&#45;&gt;Node6 -->
<g id="edge5" class="edge">
<title>Node2&#45;&gt;Node6</title>
<path fill="none" stroke="#63b8ff" d="M3010.42,-147.21C2599.37,-146.82 571.3,-142.56 526.62,-97 499.06,-68.89 558.94,-39.7 595.33,-25.35"/>
<polygon fill="#63b8ff" stroke="#63b8ff" points="3010.25,-150.71 3020.25,-147.22 3010.26,-143.71 3010.25,-150.71"/>
</g>
<!-- Node7 -->
<g id="node7" class="node">
<title>Node7</title>
<g id="a_node7"><a xlink:href="ar_detect_marker2_8c.html" target="_top" xlink:title=" ">
<polygon fill="white" stroke="#666666" points="1037.62,-91.38 865.62,-91.38 865.62,-72.12 1037.62,-72.12 1037.62,-91.38"/>
<text text-anchor="middle" x="951.62" y="-77.88" font-family="Helvetica,sans-Serif" font-size="10.00">Source/ARX/AR/arDetectMarker2.c</text>
</a>
</g>
</g>
<!-- Node2&#45;&gt;Node7 -->
<g id="edge6" class="edge">
<title>Node2&#45;&gt;Node7</title>
<path fill="none" stroke="#63b8ff" d="M3010.92,-146.68C2696.76,-143.98 1440,-131.22 1046.62,-97 1032.83,-95.8 1018,-93.88 1004.25,-91.83"/>
<polygon fill="#63b8ff" stroke="#63b8ff" points="3010.67,-150.18 3020.7,-146.77 3010.73,-143.18 3010.67,-150.18"/>
</g>
<!-- Node8 -->
<g id="node8" class="node">
<title>Node8</title>
<g id="a_node8"><a xlink:href="ar_get_line_8c.html" target="_top" xlink:title=" ">
<polygon fill="white" stroke="#666666" points="1197.25,-91.38 1056,-91.38 1056,-72.12 1197.25,-72.12 1197.25,-91.38"/>
<text text-anchor="middle" x="1126.62" y="-77.88" font-family="Helvetica,sans-Serif" font-size="10.00">Source/ARX/AR/arGetLine.c</text>
</a>
</g>
</g>
<!-- Node2&#45;&gt;Node8 -->
<g id="edge7" class="edge">
<title>Node2&#45;&gt;Node8</title>
<path fill="none" stroke="#63b8ff" d="M3010.67,-146.78C2711.56,-144.62 1565.38,-134.05 1205.62,-97 1194.12,-95.82 1181.77,-93.9 1170.33,-91.85"/>
<polygon fill="#63b8ff" stroke="#63b8ff" points="3010.34,-150.29 3020.37,-146.86 3010.39,-143.29 3010.34,-150.29"/>
</g>
<!-- Node9 -->
<g id="node9" class="node">
<title>Node9</title>
<g id="a_node9"><a xlink:href="ar_get_marker_info_8c.html" target="_top" xlink:title=" ">
<polygon fill="white" stroke="#666666" points="1360.12,-97 1215.12,-97 1215.12,-66.5 1360.12,-66.5 1360.12,-97"/>
<text text-anchor="start" x="1223.12" y="-83.5" font-family="Helvetica,sans-Serif" font-size="10.00">Source/ARX/AR/arGetMarker</text>
<text text-anchor="middle" x="1287.62" y="-72.25" font-family="Helvetica,sans-Serif" font-size="10.00">Info.c</text>
</a>
</g>
</g>
<!-- Node2&#45;&gt;Node9 -->
<g id="edge8" class="edge">
<title>Node2&#45;&gt;Node9</title>
<path fill="none" stroke="#63b8ff" d="M3010.51,-146.53C2727.8,-143.49 1694.67,-130.28 1368.62,-97 1365.93,-96.72 1363.18,-96.41 1360.41,-96.07"/>
<polygon fill="#63b8ff" stroke="#63b8ff" points="3010.4,-150.04 3020.43,-146.65 3010.47,-143.04 3010.4,-150.04"/>
</g>
<!-- Node10 -->
<g id="node10" class="node">
<title>Node10</title>
<g id="a_node10"><a xlink:href="ar_get_trans_mat_8c.html" target="_top" xlink:title=" ">
<polygon fill="white" stroke="#666666" points="1517.5,-97 1377.75,-97 1377.75,-66.5 1517.5,-66.5 1517.5,-97"/>
<text text-anchor="start" x="1385.75" y="-83.5" font-family="Helvetica,sans-Serif" font-size="10.00">Source/ARX/AR/arGetTrans</text>
<text text-anchor="middle" x="1447.62" y="-72.25" font-family="Helvetica,sans-Serif" font-size="10.00">Mat.c</text>
</a>
</g>
</g>
<!-- Node2&#45;&gt;Node10 -->
<g id="edge9" class="edge">
<title>Node2&#45;&gt;Node10</title>
<path fill="none" stroke="#63b8ff" d="M3010.59,-146.32C2744.9,-142.68 1820.06,-128.04 1526.62,-97 1523.71,-96.69 1520.75,-96.34 1517.76,-95.95"/>
<polygon fill="#63b8ff" stroke="#63b8ff" points="3010.21,-149.83 3020.26,-146.47 3010.31,-142.83 3010.21,-149.83"/>
</g>
<!-- Node11 -->
<g id="node11" class="node">
<title>Node11</title>
<g id="a_node11"><a xlink:href="ar_get_trans_mat_stereo_8c.html" target="_top" xlink:title=" ">
<polygon fill="white" stroke="#666666" points="1675.5,-97 1535.75,-97 1535.75,-66.5 1675.5,-66.5 1675.5,-97"/>
<text text-anchor="start" x="1543.75" y="-83.5" font-family="Helvetica,sans-Serif" font-size="10.00">Source/ARX/AR/arGetTrans</text>
<text text-anchor="middle" x="1605.62" y="-72.25" font-family="Helvetica,sans-Serif" font-size="10.00">MatStereo.c</text>
</a>
</g>
</g>
<!-- Node2&#45;&gt;Node11 -->
<g id="edge10" class="edge">
<title>Node2&#45;&gt;Node11</title>
<path fill="none" stroke="#63b8ff" d="M3010.98,-146.03C2763.53,-141.59 1945.76,-125.1 1684.62,-97 1681.72,-96.69 1678.75,-96.33 1675.76,-95.94"/>
<polygon fill="#63b8ff" stroke="#63b8ff" points="3010.57,-149.54 3020.63,-146.22 3010.7,-142.54 3010.57,-149.54"/>
</g>
<!-- Node12 -->
<g id="node12" class="node">
<title>Node12</title>
<g id="a_node12"><a xlink:href="ar_labeling_8c.html" target="_top" xlink:title=" ">
<polygon fill="white" stroke="#666666" points="1837.38,-91.38 1693.88,-91.38 1693.88,-72.12 1837.38,-72.12 1837.38,-91.38"/>
<text text-anchor="middle" x="1765.62" y="-77.88" font-family="Helvetica,sans-Serif" font-size="10.00">Source/ARX/AR/arLabeling.c</text>
</a>
</g>
</g>
<!-- Node2&#45;&gt;Node12 -->
<g id="edge11" class="edge">
<title>Node2&#45;&gt;Node12</title>
<path fill="none" stroke="#63b8ff" d="M3010.55,-147.73C2819.82,-148.26 2286.31,-144.98 1845.62,-97 1834.12,-95.75 1821.78,-93.84 1810.32,-91.82"/>
<polygon fill="#63b8ff" stroke="#63b8ff" points="3010.28,-151.23 3020.27,-147.69 3010.26,-144.23 3010.28,-151.23"/>
</g>
<!-- Node13 -->
<g id="node13" class="node">
<title>Node13</title>
<g id="a_node13"><a xlink:href="ar_labeling_sub_8h.html" target="_top" xlink:title=" ">
<polygon fill="#fff0f0" stroke="red" points="1990.25,-97 1855,-97 1855,-66.5 1990.25,-66.5 1990.25,-97"/>
<text text-anchor="start" x="1863" y="-83.5" font-family="Helvetica,sans-Serif" font-size="10.00">Source/ARX/AR/arLabeling</text>
<text text-anchor="middle" x="1922.62" y="-72.25" font-family="Helvetica,sans-Serif" font-size="10.00">Sub/arLabelingSub.h</text>
</a>
</g>
</g>
<!-- Node2&#45;&gt;Node13 -->
<g id="edge12" class="edge">
<title>Node2&#45;&gt;Node13</title>
<path fill="none" stroke="#63b8ff" d="M3010.55,-147.01C2836.91,-145.75 2381.81,-138.4 2004.62,-97 2000.03,-96.5 1995.3,-95.89 1990.54,-95.23"/>
<polygon fill="#63b8ff" stroke="#63b8ff" points="3010.31,-150.51 3020.33,-147.08 3010.36,-143.51 3010.31,-150.51"/>
</g>
<!-- Node26 -->
<g id="node14" class="node">
<title>Node26</title>
<g id="a_node14"><a xlink:href="ar_multi_edit_config_8c.html" target="_top" xlink:title=" ">
<polygon fill="white" stroke="#666666" points="1906.38,-30.5 1768.88,-30.5 1768.88,0 1906.38,0 1906.38,-30.5"/>
<text text-anchor="start" x="1776.88" y="-17" font-family="Helvetica,sans-Serif" font-size="10.00">Source/ARX/AR/arMultiEdit</text>
<text text-anchor="middle" x="1837.62" y="-5.75" font-family="Helvetica,sans-Serif" font-size="10.00">Config.c</text>
</a>
</g>
</g>
<!-- Node2&#45;&gt;Node26 -->
<g id="edge13" class="edge">
<title>Node2&#45;&gt;Node26</title>
<path fill="none" stroke="#63b8ff" d="M3010.83,-145.85C2791.53,-141.28 2139.73,-125.45 2048.62,-97 2024.14,-89.35 2022.95,-77.16 1999.62,-66.5 1967.09,-51.63 1928.94,-39.55 1897.84,-30.97"/>
<polygon fill="#63b8ff" stroke="#63b8ff" points="3010.5,-149.36 3020.57,-146.07 3010.64,-142.37 3010.5,-149.36"/>
</g>
<!-- Node27 -->
<g id="node15" class="node">
<title>Node27</title>
<g id="a_node15"><a xlink:href="ar_multi_free_config_8c.html" target="_top" xlink:title=" ">
<polygon fill="white" stroke="#666666" points="2064.5,-30.5 1924.75,-30.5 1924.75,0 2064.5,0 2064.5,-30.5"/>
<text text-anchor="start" x="1932.75" y="-17" font-family="Helvetica,sans-Serif" font-size="10.00">Source/ARX/AR/arMultiFree</text>
<text text-anchor="middle" x="1994.62" y="-5.75" font-family="Helvetica,sans-Serif" font-size="10.00">Config.c</text>
</a>
</g>
</g>
<!-- Node2&#45;&gt;Node27 -->
<g id="edge14" class="edge">
<title>Node2&#45;&gt;Node27</title>
<path fill="none" stroke="#63b8ff" d="M3010.27,-145.95C2798.26,-141.79 2188.12,-127.31 2103.62,-97 2064.61,-83 2027.72,-50.09 2008.48,-30.88"/>
<polygon fill="#63b8ff" stroke="#63b8ff" points="3010.19,-149.46 3020.26,-146.16 3010.33,-142.47 3010.19,-149.46"/>
</g>
<!-- Node28 -->
<g id="node16" class="node">
<title>Node28</title>
<g id="a_node16"><a xlink:href="ar_multi_get_trans_mat_8c.html" target="_top" xlink:title=" ">
<polygon fill="white" stroke="#666666" points="2218.62,-30.5 2082.62,-30.5 2082.62,0 2218.62,0 2218.62,-30.5"/>
<text text-anchor="start" x="2090.62" y="-17" font-family="Helvetica,sans-Serif" font-size="10.00">Source/ARX/AR/arMultiGet</text>
<text text-anchor="middle" x="2150.62" y="-5.75" font-family="Helvetica,sans-Serif" font-size="10.00">TransMat.c</text>
</a>
</g>
</g>
<!-- Node2&#45;&gt;Node28 -->
<g id="edge15" class="edge">
<title>Node2&#45;&gt;Node28</title>
<path fill="none" stroke="#63b8ff" d="M3010.6,-146.2C2791.24,-142.64 2144.42,-129.44 2113.62,-97 2095.47,-77.88 2118.08,-48.27 2135.09,-30.72"/>
<polygon fill="#63b8ff" stroke="#63b8ff" points="3010.29,-149.71 3020.34,-146.37 3010.4,-142.71 3010.29,-149.71"/>
</g>
<!-- Node29 -->
<g id="node17" class="node">
<title>Node29</title>
<g id="a_node17"><a xlink:href="ar_multi_get_trans_mat_stereo_8c.html" target="_top" xlink:title=" ">
<polygon fill="white" stroke="#666666" points="2372.62,-30.5 2236.62,-30.5 2236.62,0 2372.62,0 2372.62,-30.5"/>
<text text-anchor="start" x="2244.62" y="-17" font-family="Helvetica,sans-Serif" font-size="10.00">Source/ARX/AR/arMultiGet</text>
<text text-anchor="middle" x="2304.62" y="-5.75" font-family="Helvetica,sans-Serif" font-size="10.00">TransMatStereo.c</text>
</a>
</g>
</g>
<!-- Node2&#45;&gt;Node29 -->
<g id="edge16" class="edge">
<title>Node2&#45;&gt;Node29</title>
<path fill="none" stroke="#63b8ff" d="M3010.31,-147.49C2829.64,-147.38 2369.33,-142.6 2318.62,-97 2300.22,-80.45 2300.36,-49.09 2302.35,-30.7"/>
<polygon fill="#63b8ff" stroke="#63b8ff" points="3010.29,-150.99 3020.29,-147.49 3010.29,-143.99 3010.29,-150.99"/>
</g>
<!-- Node30 -->
<g id="node18" class="node">
<title>Node30</title>
<g id="a_node18"><a xlink:href="ar_multi_read_config_file_8c.html" target="_top" xlink:title=" ">
<polygon fill="white" stroke="#666666" points="2534.38,-30.5 2390.88,-30.5 2390.88,0 2534.38,0 2534.38,-30.5"/>
<text text-anchor="start" x="2398.88" y="-17" font-family="Helvetica,sans-Serif" font-size="10.00">Source/ARX/AR/arMultiRead</text>
<text text-anchor="middle" x="2462.62" y="-5.75" font-family="Helvetica,sans-Serif" font-size="10.00">ConfigFile.c</text>
</a>
</g>
</g>
<!-- Node2&#45;&gt;Node30 -->
<g id="edge17" class="edge">
<title>Node2&#45;&gt;Node30</title>
<path fill="none" stroke="#63b8ff" d="M3010.55,-147.9C2831.12,-148.76 2375.52,-146.06 2329.62,-97 2301.85,-67.31 2352.7,-44.62 2399.33,-30.96"/>
<polygon fill="#63b8ff" stroke="#63b8ff" points="3010.47,-151.39 3020.45,-147.84 3010.43,-144.39 3010.47,-151.39"/>
</g>
<!-- Node31 -->
<g id="node19" class="node">
<title>Node31</title>
<g id="a_node19"><a xlink:href="ar_patt_attach_8c.html" target="_top" xlink:title=" ">
<polygon fill="white" stroke="#666666" points="2492.62,-91.38 2338.62,-91.38 2338.62,-72.12 2492.62,-72.12 2492.62,-91.38"/>
<text text-anchor="middle" x="2415.62" y="-77.88" font-family="Helvetica,sans-Serif" font-size="10.00">Source/ARX/AR/arPattAttach.c</text>
</a>
</g>
</g>
<!-- Node2&#45;&gt;Node31 -->
<g id="edge18" class="edge">
<title>Node2&#45;&gt;Node31</title>
<path fill="none" stroke="#63b8ff" d="M3010.44,-142.82C2900.4,-135.66 2684.2,-119.99 2501.62,-97 2490.21,-95.56 2478,-93.72 2466.46,-91.85"/>
<polygon fill="#63b8ff" stroke="#63b8ff" points="3010.19,-146.38 3020.4,-143.53 3010.64,-139.39 3010.19,-146.38"/>
</g>
<!-- Node32 -->
<g id="node20" class="node">
<title>Node32</title>
<g id="a_node20"><a xlink:href="ar_patt_create_handle_8c.html" target="_top" xlink:title=" ">
<polygon fill="white" stroke="#666666" points="2656.88,-97 2510.38,-97 2510.38,-66.5 2656.88,-66.5 2656.88,-97"/>
<text text-anchor="start" x="2518.38" y="-83.5" font-family="Helvetica,sans-Serif" font-size="10.00">Source/ARX/AR/arPattCreate</text>
<text text-anchor="middle" x="2583.62" y="-72.25" font-family="Helvetica,sans-Serif" font-size="10.00">Handle.c</text>
</a>
</g>
</g>
<!-- Node2&#45;&gt;Node32 -->
<g id="edge19" class="edge">
<title>Node2&#45;&gt;Node32</title>
<path fill="none" stroke="#63b8ff" d="M3010.51,-139.71C2927.26,-130.75 2786.28,-114.74 2665.62,-97 2662.91,-96.6 2660.14,-96.18 2657.35,-95.75"/>
<polygon fill="#63b8ff" stroke="#63b8ff" points="3010.05,-143.29 3020.37,-140.88 3010.8,-136.33 3010.05,-143.29"/>
</g>
<!-- Node33 -->
<g id="node21" class="node">
<title>Node33</title>
<g id="a_node21"><a xlink:href="ar_patt_get_i_d_8c.html" target="_top" xlink:title=" ">
<polygon fill="white" stroke="#666666" points="2826.5,-91.38 2674.75,-91.38 2674.75,-72.12 2826.5,-72.12 2826.5,-91.38"/>
<text text-anchor="middle" x="2750.62" y="-77.88" font-family="Helvetica,sans-Serif" font-size="10.00">Source/ARX/AR/arPattGetID.c</text>
</a>
</g>
</g>
<!-- Node2&#45;&gt;Node33 -->
<g id="edge20" class="edge">
<title>Node2&#45;&gt;Node33</title>
<path fill="none" stroke="#63b8ff" d="M3010.81,-133.3C2946.11,-120.73 2852.88,-102.62 2797.36,-91.83"/>
<polygon fill="#63b8ff" stroke="#63b8ff" points="3009.86,-136.87 3020.34,-135.34 3011.2,-130 3009.86,-136.87"/>
</g>
<!-- Node34 -->
<g id="node22" class="node">
<title>Node34</title>
<g id="a_node22"><a xlink:href="ar_patt_load_8c.html" target="_top" xlink:title=" ">
<polygon fill="white" stroke="#666666" points="2990.88,-91.38 2844.38,-91.38 2844.38,-72.12 2990.88,-72.12 2990.88,-91.38"/>
<text text-anchor="middle" x="2917.62" y="-77.88" font-family="Helvetica,sans-Serif" font-size="10.00">Source/ARX/AR/arPattLoad.c</text>
</a>
</g>
</g>
<!-- Node2&#45;&gt;Node34 -->
<g id="edge21" class="edge">
<title>Node2&#45;&gt;Node34</title>
<path fill="none" stroke="#63b8ff" d="M3035.02,-128.64C3004.03,-116.53 2965,-101.27 2940.67,-91.76"/>
<polygon fill="#63b8ff" stroke="#63b8ff" points="3033.6,-132.23 3044.18,-132.61 3036.14,-125.71 3033.6,-132.23"/>
</g>
<!-- Node35 -->
<g id="node23" class="node">
<title>Node35</title>
<g id="a_node23"><a xlink:href="ar_patt_save_8c.html" target="_top" xlink:title=" ">
<polygon fill="white" stroke="#666666" points="3156.62,-91.38 3008.62,-91.38 3008.62,-72.12 3156.62,-72.12 3156.62,-91.38"/>
<text text-anchor="middle" x="3082.62" y="-77.88" font-family="Helvetica,sans-Serif" font-size="10.00">Source/ARX/AR/arPattSave.c</text>
</a>
</g>
</g>
<!-- Node2&#45;&gt;Node35 -->
<g id="edge22" class="edge">
<title>Node2&#45;&gt;Node35</title>
<path fill="none" stroke="#63b8ff" d="M3082.62,-121.68C3082.62,-111.01 3082.62,-99.33 3082.62,-91.57"/>
<polygon fill="#63b8ff" stroke="#63b8ff" points="3079.13,-121.61 3082.62,-131.61 3086.13,-121.61 3079.13,-121.61"/>
</g>
<!-- Node36 -->
<g id="node24" class="node">
<title>Node36</title>
<g id="a_node24"><a xlink:href="ar_refine_corners_8h.html" target="_top" xlink:title=" ">
<polygon fill="#fff0f0" stroke="red" points="705.88,-91.38 535.38,-91.38 535.38,-72.12 705.88,-72.12 705.88,-91.38"/>
<text text-anchor="middle" x="620.62" y="-77.88" font-family="Helvetica,sans-Serif" font-size="10.00">Source/ARX/AR/arRefineCorners.h</text>
</a>
</g>
</g>
<!-- Node2&#45;&gt;Node36 -->
<g id="edge23" class="edge">
<title>Node2&#45;&gt;Node36</title>
<path fill="none" stroke="#63b8ff" d="M3010.56,-146.98C2665.17,-145.48 1177.03,-136.79 714.62,-97 700.98,-95.83 686.3,-93.91 672.69,-91.87"/>
<polygon fill="#63b8ff" stroke="#63b8ff" points="3010.38,-150.48 3020.4,-147.02 3010.41,-143.48 3010.38,-150.48"/>
</g>
<!-- Node38 -->
<g id="node25" class="node">
<title>Node38</title>
<g id="a_node25"><a xlink:href="ar_util_8c.html" target="_top" xlink:title=" ">
<polygon fill="white" stroke="#666666" points="3296.88,-91.38 3174.38,-91.38 3174.38,-72.12 3296.88,-72.12 3296.88,-91.38"/>
<text text-anchor="middle" x="3235.62" y="-77.88" font-family="Helvetica,sans-Serif" font-size="10.00">Source/ARX/AR/arUtil.c</text>
</a>
</g>
</g>
<!-- Node2&#45;&gt;Node38 -->
<g id="edge25" class="edge">
<title>Node2&#45;&gt;Node38</title>
<path fill="none" stroke="#63b8ff" d="M3127.15,-128.48C3155.82,-116.4 3191.79,-101.23 3214.25,-91.76"/>
<polygon fill="#63b8ff" stroke="#63b8ff" points="3126.2,-125.5 3118.34,-132.61 3128.92,-131.95 3126.2,-125.5"/>
</g>
<!-- Node39 -->
<g id="node26" class="node">
<title>Node39</title>
<g id="a_node26"><a xlink:href="icp_calib_stereo_8c.html" target="_top" xlink:title=" ">
<polygon fill="white" stroke="#666666" points="3478.12,-91.38 3315.12,-91.38 3315.12,-72.12 3478.12,-72.12 3478.12,-91.38"/>
<text text-anchor="middle" x="3396.62" y="-77.88" font-family="Helvetica,sans-Serif" font-size="10.00">Source/ARX/AR/icpCalibStereo.c</text>
</a>
</g>
</g>
<!-- Node2&#45;&gt;Node39 -->
<g id="edge26" class="edge">
<title>Node2&#45;&gt;Node39</title>
<path fill="none" stroke="#63b8ff" d="M3154.46,-132.42C3229.05,-117.07 3305.5,-101.41 3352.36,-91.81"/>
<polygon fill="#63b8ff" stroke="#63b8ff" points="3154.04,-129.14 3144.95,-134.58 3155.45,-135.99 3154.04,-129.14"/>
</g>
<!-- Node40 -->
<g id="node27" class="node">
<title>Node40</title>
<g id="a_node27"><a xlink:href="icp_core_8c.html" target="_top" xlink:title=" ">
<polygon fill="white" stroke="#666666" points="3629.12,-91.38 3496.12,-91.38 3496.12,-72.12 3629.12,-72.12 3629.12,-91.38"/>
<text text-anchor="middle" x="3562.62" y="-77.88" font-family="Helvetica,sans-Serif" font-size="10.00">Source/ARX/AR/icpCore.c</text>
</a>
</g>
</g>
<!-- Node2&#45;&gt;Node40 -->
<g id="edge27" class="edge">
<title>Node2&#45;&gt;Node40</title>
<path fill="none" stroke="#63b8ff" d="M3154.65,-132.61C3301.45,-110.23 3341.95,-118.3 3486.62,-97 3496.59,-95.53 3507.23,-93.7 3517.31,-91.85"/>
<polygon fill="#63b8ff" stroke="#63b8ff" points="3154.24,-129.29 3144.89,-134.28 3155.31,-136.21 3154.24,-129.29"/>
</g>
<!-- Node41 -->
<g id="node28" class="node">
<title>Node41</title>
<g id="a_node28"><a xlink:href="icp_handle_8c.html" target="_top" xlink:title=" ">
<polygon fill="white" stroke="#666666" points="3790,-91.38 3647.25,-91.38 3647.25,-72.12 3790,-72.12 3790,-91.38"/>
<text text-anchor="middle" x="3718.62" y="-77.88" font-family="Helvetica,sans-Serif" font-size="10.00">Source/ARX/AR/icpHandle.c</text>
</a>
</g>
</g>
<!-- Node2&#45;&gt;Node41 -->
<g id="edge28" class="edge">
<title>Node2&#45;&gt;Node41</title>
<path fill="none" stroke="#63b8ff" d="M3154.49,-132.71C3368,-103.69 3426.16,-123.37 3637.62,-97 3648.68,-95.62 3660.51,-93.76 3671.63,-91.84"/>
<polygon fill="#63b8ff" stroke="#63b8ff" points="3154.3,-129.34 3144.88,-134.17 3155.26,-136.27 3154.3,-129.34"/>
</g>
<!-- Node42 -->
<g id="node29" class="node">
<title>Node42</title>
<g id="a_node29"><a xlink:href="icp_point_8c.html" target="_top" xlink:title=" ">
<polygon fill="white" stroke="#666666" points="3942.88,-91.38 3808.38,-91.38 3808.38,-72.12 3942.88,-72.12 3942.88,-91.38"/>
<text text-anchor="middle" x="3875.62" y="-77.88" font-family="Helvetica,sans-Serif" font-size="10.00">Source/ARX/AR/icpPoint.c</text>
</a>
</g>
</g>
<!-- Node2&#45;&gt;Node42 -->
<g id="edge29" class="edge">
<title>Node2&#45;&gt;Node42</title>
<path fill="none" stroke="#63b8ff" d="M3154.51,-132.74C3439.08,-96.63 3516.16,-130.86 3798.62,-97 3809.42,-95.71 3820.99,-93.83 3831.8,-91.86"/>
<polygon fill="#63b8ff" stroke="#63b8ff" points="3154.34,-129.36 3144.87,-134.11 3155.23,-136.31 3154.34,-129.36"/>
</g>
<!-- Node43 -->
<g id="node30" class="node">
<title>Node43</title>
<g id="a_node30"><a xlink:href="icp_point_robust_8c.html" target="_top" xlink:title=" ">
<polygon fill="white" stroke="#666666" points="4126.62,-91.38 3960.62,-91.38 3960.62,-72.12 4126.62,-72.12 4126.62,-91.38"/>
<text text-anchor="middle" x="4043.62" y="-77.88" font-family="Helvetica,sans-Serif" font-size="10.00">Source/ARX/AR/icpPointRobust.c</text>
</a>
</g>
</g>
<!-- Node2&#45;&gt;Node43 -->
<g id="edge30" class="edge">
<title>Node2&#45;&gt;Node43</title>
<path fill="none" stroke="#63b8ff" d="M3154.62,-132.75C3506.68,-89.73 3601.01,-131.94 3951.62,-97 3964.65,-95.7 3978.65,-93.8 3991.69,-91.8"/>
<polygon fill="#63b8ff" stroke="#63b8ff" points="3154.36,-129.38 3144.86,-134.08 3155.22,-136.32 3154.36,-129.38"/>
</g>
<!-- Node44 -->
<g id="node31" class="node">
<title>Node44</title>
<g id="a_node31"><a xlink:href="icp_stereo_handle_8c.html" target="_top" xlink:title=" ">
<polygon fill="white" stroke="#666666" points="4316.25,-91.38 4145,-91.38 4145,-72.12 4316.25,-72.12 4316.25,-91.38"/>
<text text-anchor="middle" x="4230.62" y="-77.88" font-family="Helvetica,sans-Serif" font-size="10.00">Source/ARX/AR/icpStereoHandle.c</text>
</a>
</g>
</g>
<!-- Node2&#45;&gt;Node44 -->
<g id="edge31" class="edge">
<title>Node2&#45;&gt;Node44</title>
<path fill="none" stroke="#63b8ff" d="M3154.49,-132.78C3587.95,-81.47 3703.39,-137.2 4135.62,-97 4149.08,-95.75 4163.53,-93.86 4177,-91.87"/>
<polygon fill="#63b8ff" stroke="#63b8ff" points="3154.37,-129.39 3144.86,-134.05 3155.21,-136.34 3154.37,-129.39"/>
</g>
<!-- Node45 -->
<g id="node32" class="node">
<title>Node45</title>
<g id="a_node32"><a xlink:href="icp_stereo_point_8c.html" target="_top" xlink:title=" ">
<polygon fill="white" stroke="#666666" points="4497.12,-91.38 4334.12,-91.38 4334.12,-72.12 4497.12,-72.12 4497.12,-91.38"/>
<text text-anchor="middle" x="4415.62" y="-77.88" font-family="Helvetica,sans-Serif" font-size="10.00">Source/ARX/AR/icpStereoPoint.c</text>
</a>
</g>
</g>
<!-- Node2&#45;&gt;Node45 -->
<g id="edge32" class="edge">
<title>Node2&#45;&gt;Node45</title>
<path fill="none" stroke="#63b8ff" d="M3154.6,-132.78C3671.94,-72.99 3809.45,-145.58 4325.62,-97 4338.54,-95.78 4352.42,-93.89 4365.31,-91.87"/>
<polygon fill="#63b8ff" stroke="#63b8ff" points="3154.39,-129.39 3144.86,-134.03 3155.2,-136.35 3154.39,-129.39"/>
</g>
<!-- Node46 -->
<g id="node33" class="node">
<title>Node46</title>
<g id="a_node33"><a xlink:href="icp_stereo_point_robust_8c.html" target="_top" xlink:title=" ">
<polygon fill="white" stroke="#666666" points="4670,-97 4515.25,-97 4515.25,-66.5 4670,-66.5 4670,-97"/>
<text text-anchor="start" x="4523.25" y="-83.5" font-family="Helvetica,sans-Serif" font-size="10.00">Source/ARX/AR/icpStereoPoint</text>
<text text-anchor="middle" x="4592.62" y="-72.25" font-family="Helvetica,sans-Serif" font-size="10.00">Robust.c</text>
</a>
</g>
</g>
<!-- Node2&#45;&gt;Node46 -->
<g id="edge33" class="edge">
<title>Node2&#45;&gt;Node46</title>
<path fill="none" stroke="#63b8ff" d="M3154.46,-132.8C3751.48,-64.9 3909.83,-153.45 4505.62,-97 4508.67,-96.71 4511.77,-96.38 4514.9,-96.02"/>
<polygon fill="#63b8ff" stroke="#63b8ff" points="3154.39,-129.4 3144.86,-134.02 3155.19,-136.35 3154.39,-129.4"/>
</g>
<!-- Node47 -->
<g id="node34" class="node">
<title>Node47</title>
<g id="a_node34"><a xlink:href="icp_util_8c.html" target="_top" xlink:title=" ">
<polygon fill="white" stroke="#666666" points="4815.12,-91.38 4688.12,-91.38 4688.12,-72.12 4815.12,-72.12 4815.12,-91.38"/>
<text text-anchor="middle" x="4751.62" y="-77.88" font-family="Helvetica,sans-Serif" font-size="10.00">Source/ARX/AR/icpUtil.c</text>
</a>
</g>
</g>
<!-- Node2&#45;&gt;Node47 -->
<g id="edge34" class="edge">
<title>Node2&#45;&gt;Node47</title>
<path fill="none" stroke="#63b8ff" d="M3154.31,-132.82C3827.94,-57.2 4007.2,-169.92 4678.62,-97 4689.41,-95.83 4700.97,-93.89 4711.65,-91.82"/>
<polygon fill="#63b8ff" stroke="#63b8ff" points="3154.4,-129.4 3144.86,-134.01 3155.19,-136.36 3154.4,-129.4"/>
</g>
<!-- Node48 -->
<g id="node35" class="node">
<title>Node48</title>
<g id="a_node35"><a xlink:href="ar_filter_trans_mat_8h.html" target="_top" xlink:title="Provides filtering of transformation matrices (pose estimates).">
<polygon fill="#fff0f0" stroke="red" points="4972.5,-97 4832.75,-97 4832.75,-66.5 4972.5,-66.5 4972.5,-97"/>
<text text-anchor="start" x="4840.75" y="-83.5" font-family="Helvetica,sans-Serif" font-size="10.00">Source/ARX/AR/include</text>
<text text-anchor="middle" x="4902.62" y="-72.25" font-family="Helvetica,sans-Serif" font-size="10.00">/ARX/AR/arFilterTransMat.h</text>
</a>
</g>
</g>
<!-- Node2&#45;&gt;Node48 -->
<g id="edge35" class="edge">
<title>Node2&#45;&gt;Node48</title>
<path fill="none" stroke="#63b8ff" d="M3154.75,-132.78C3892.11,-50.67 4087.67,-170.84 4823.62,-97 4826.54,-96.71 4829.5,-96.37 4832.49,-95.99"/>
<polygon fill="#63b8ff" stroke="#63b8ff" points="3154.4,-129.41 3144.86,-134 3155.18,-136.36 3154.4,-129.41"/>
</g>
<!-- Node71 -->
<g id="node36" class="node">
<title>Node71</title>
<g id="a_node36"><a xlink:href="ar_image_proc_8h.html" target="_top" xlink:title="artoolkitX functions for 2D luminance image processing.">
<polygon fill="#fff0f0" stroke="red" points="847.62,-97 723.62,-97 723.62,-66.5 847.62,-66.5 847.62,-97"/>
<text text-anchor="start" x="731.62" y="-83.5" font-family="Helvetica,sans-Serif" font-size="10.00">Source/ARX/AR/include</text>
<text text-anchor="middle" x="785.62" y="-72.25" font-family="Helvetica,sans-Serif" font-size="10.00">/ARX/AR/arImageProc.h</text>
</a>
</g>
</g>
<!-- Node2&#45;&gt;Node71 -->
<g id="edge36" class="edge">
<title>Node2&#45;&gt;Node71</title>
<path fill="none" stroke="#63b8ff" d="M3010.42,-147.32C2676.6,-147.42 1281.27,-144.96 847.95,-97.04"/>
<polygon fill="#63b8ff" stroke="#63b8ff" points="3010.38,-150.82 3020.38,-147.32 3010.38,-143.82 3010.38,-150.82"/>
</g>
<!-- Node73 -->
<g id="node37" class="node">
<title>Node73</title>
<g id="a_node37"><a xlink:href="ar_multi_8h.html" target="_top" xlink:title=" ">
<polygon fill="#fff0f0" stroke="red" points="2244.5,-97 2122.75,-97 2122.75,-66.5 2244.5,-66.5 2244.5,-97"/>
<text text-anchor="start" x="2130.75" y="-83.5" font-family="Helvetica,sans-Serif" font-size="10.00">Source/ARX/AR/include</text>
<text text-anchor="middle" x="2183.62" y="-72.25" font-family="Helvetica,sans-Serif" font-size="10.00">/ARX/AR/arMulti.h</text>
</a>
</g>
</g>
<!-- Node2&#45;&gt;Node73 -->
<g id="edge39" class="edge">
<title>Node2&#45;&gt;Node73</title>
<path fill="none" stroke="#63b8ff" d="M3010.55,-145.93C2866.95,-142.61 2535.14,-131.56 2258.62,-97 2254.15,-96.44 2249.55,-95.78 2244.92,-95.05"/>
<polygon fill="#63b8ff" stroke="#63b8ff" points="3010.31,-149.44 3020.39,-146.17 3010.47,-142.44 3010.31,-149.44"/>
</g>
<!-- Node75 -->
<g id="node38" class="node">
<title>Node75</title>
<g id="a_node38"><a xlink:href="param_8h.html" target="_top" xlink:title="artoolkitX functions for handling calibrated camera parameters.">
<polygon fill="#fff0f0" stroke="red" points="5112.5,-97 4990.75,-97 4990.75,-66.5 5112.5,-66.5 5112.5,-97"/>
<text text-anchor="start" x="4998.75" y="-83.5" font-family="Helvetica,sans-Serif" font-size="10.00">Source/ARX/AR/include</text>
<text text-anchor="middle" x="5051.62" y="-72.25" font-family="Helvetica,sans-Serif" font-size="10.00">/ARX/AR/param.h</text>
</a>
</g>
</g>
<!-- Node2&#45;&gt;Node75 -->
<g id="edge45" class="edge">
<title>Node2&#45;&gt;Node75</title>
<path fill="none" stroke="#63b8ff" d="M3154.71,-131.66C3953.2,-43.79 4168.12,-186.06 4972.62,-97 4978.42,-96.36 4984.44,-95.47 4990.48,-94.45"/>
<polygon fill="#63b8ff" stroke="#63b8ff" points="3154.36,-128.29 3144.81,-132.87 3155.13,-135.24 3154.36,-128.29"/>
</g>
<!-- Node76 -->
<g id="node39" class="node">
<title>Node76</title>
<g id="a_node39"><a xlink:href="param_g_l_8h.html" target="_top" xlink:title="Routines for converting ARParam and matrix types to OpenGL.">
<polygon fill="#fff0f0" stroke="red" points="5156.5,-30.5 5034.75,-30.5 5034.75,0 5156.5,0 5156.5,-30.5"/>
<text text-anchor="start" x="5042.75" y="-17" font-family="Helvetica,sans-Serif" font-size="10.00">Source/ARX/AR/include</text>
<text text-anchor="middle" x="5095.62" y="-5.75" font-family="Helvetica,sans-Serif" font-size="10.00">/ARX/AR/paramGL.h</text>
</a>
</g>
</g>
<!-- Node2&#45;&gt;Node76 -->
<g id="edge48" class="edge">
<title>Node2&#45;&gt;Node76</title>
<path fill="none" stroke="#63b8ff" d="M3154.39,-133.39C3318,-127.45 5084.44,-134.87 5121.62,-97 5139.37,-78.92 5121.54,-48.69 5107.92,-30.79"/>
<polygon fill="#63b8ff" stroke="#63b8ff" points="3154.64,-129.93 3144.85,-133.99 3155.04,-136.92 3154.64,-129.93"/>
</g>
<!-- Node79 -->
<g id="node40" class="node">
<title>Node79</title>
<g id="a_node40"><a xlink:href="m_alloc_8c.html" target="_top" xlink:title=" ">
<polygon fill="white" stroke="#666666" points="5298.25,-91.38 5169,-91.38 5169,-72.12 5298.25,-72.12 5298.25,-91.38"/>
<text text-anchor="middle" x="5233.62" y="-77.88" font-family="Helvetica,sans-Serif" font-size="10.00">Source/ARX/AR/mAlloc.c</text>
</a>
</g>
</g>
<!-- Node2&#45;&gt;Node79 -->
<g id="edge49" class="edge">
<title>Node2&#45;&gt;Node79</title>
<path fill="none" stroke="#63b8ff" d="M3154.61,-132.8C4038.41,-35.74 4272.12,-183.96 5154.62,-97 5166.28,-95.85 5178.79,-93.92 5190.34,-91.85"/>
<polygon fill="#63b8ff" stroke="#63b8ff" points="3154.41,-129.41 3144.85,-133.99 3155.18,-136.37 3154.41,-129.41"/>
</g>
<!-- Node80 -->
<g id="node41" class="node">
<title>Node80</title>
<g id="a_node41"><a xlink:href="m_alloc_dup_8c.html" target="_top" xlink:title=" ">
<polygon fill="white" stroke="#666666" points="5463.25,-91.38 5316,-91.38 5316,-72.12 5463.25,-72.12 5463.25,-91.38"/>
<text text-anchor="middle" x="5389.62" y="-77.88" font-family="Helvetica,sans-Serif" font-size="10.00">Source/ARX/AR/mAllocDup.c</text>
</a>
</g>
</g>
<!-- Node2&#45;&gt;Node80 -->
<g id="edge50" class="edge">
<title>Node2&#45;&gt;Node80</title>
<path fill="none" stroke="#63b8ff" d="M3154.6,-132.83C3645.48,-81.21 4834.07,-141.83 5307.62,-97 5319.71,-95.86 5332.69,-93.93 5344.68,-91.86"/>
<polygon fill="#63b8ff" stroke="#63b8ff" points="3154.42,-129.43 3144.85,-133.99 3155.17,-136.39 3154.42,-129.43"/>
</g>
<!-- Node81 -->
<g id="node42" class="node">
<title>Node81</title>
<g id="a_node42"><a xlink:href="m_alloc_inv_8c.html" target="_top" xlink:title=" ">
<polygon fill="white" stroke="#666666" points="5622.25,-91.38 5481,-91.38 5481,-72.12 5622.25,-72.12 5622.25,-91.38"/>
<text text-anchor="middle" x="5551.62" y="-77.88" font-family="Helvetica,sans-Serif" font-size="10.00">Source/ARX/AR/mAllocInv.c</text>
</a>
</g>
</g>
<!-- Node2&#45;&gt;Node81 -->
<g id="edge51" class="edge">
<title>Node2&#45;&gt;Node81</title>
<path fill="none" stroke="#63b8ff" d="M3154.64,-132.82C3682.04,-77.54 4962.72,-146.61 5472.62,-97 5484.28,-95.87 5496.79,-93.94 5508.34,-91.87"/>
<polygon fill="#63b8ff" stroke="#63b8ff" points="3154.42,-129.43 3144.85,-133.98 3155.17,-136.39 3154.42,-129.43"/>
</g>
<!-- Node82 -->
<g id="node43" class="node">
<title>Node82</title>
<g id="a_node43"><a xlink:href="m_alloc_mul_8c.html" target="_top" xlink:title=" ">
<polygon fill="white" stroke="#666666" points="5785.12,-91.38 5640.12,-91.38 5640.12,-72.12 5785.12,-72.12 5785.12,-91.38"/>
<text text-anchor="middle" x="5712.62" y="-77.88" font-family="Helvetica,sans-Serif" font-size="10.00">Source/ARX/AR/mAllocMul.c</text>
</a>
</g>
</g>
<!-- Node2&#45;&gt;Node82 -->
<g id="edge52" class="edge">
<title>Node2&#45;&gt;Node82</title>
<path fill="none" stroke="#63b8ff" d="M3154.53,-132.83C3717.05,-73.95 5086.39,-148.58 5631.62,-97 5643.57,-95.87 5656.39,-93.95 5668.24,-91.87"/>
<polygon fill="#63b8ff" stroke="#63b8ff" points="3154.42,-129.43 3144.85,-133.98 3155.17,-136.39 3154.42,-129.43"/>
</g>
<!-- Node83 -->
<g id="node44" class="node">
<title>Node83</title>
<g id="a_node44"><a xlink:href="m_alloc_trans_8c.html" target="_top" xlink:title=" ">
<polygon fill="white" stroke="#666666" points="5957.62,-91.38 5803.62,-91.38 5803.62,-72.12 5957.62,-72.12 5957.62,-91.38"/>
<text text-anchor="middle" x="5880.62" y="-77.88" font-family="Helvetica,sans-Serif" font-size="10.00">Source/ARX/AR/mAllocTrans.c</text>
</a>
</g>
</g>
<!-- Node2&#45;&gt;Node83 -->
<g id="edge53" class="edge">
<title>Node2&#45;&gt;Node83</title>
<path fill="none" stroke="#63b8ff" d="M3154.79,-132.81C3753.51,-70.28 5213.13,-148.84 5794.62,-97 5807.44,-95.86 5821.22,-93.9 5833.92,-91.8"/>
<polygon fill="#63b8ff" stroke="#63b8ff" points="3154.42,-129.43 3144.85,-133.98 3155.17,-136.39 3154.42,-129.43"/>
</g>
<!-- Node84 -->
<g id="node45" class="node">
<title>Node84</title>
<g id="a_node45"><a xlink:href="m_alloc_unit_8c.html" target="_top" xlink:title=" ">
<polygon fill="white" stroke="#666666" points="6123.25,-91.38 5976,-91.38 5976,-72.12 6123.25,-72.12 6123.25,-91.38"/>
<text text-anchor="middle" x="6049.62" y="-77.88" font-family="Helvetica,sans-Serif" font-size="10.00">Source/ARX/AR/mAllocUnit.c</text>
</a>
</g>
</g>
<!-- Node2&#45;&gt;Node84 -->
<g id="edge54" class="edge">
<title>Node2&#45;&gt;Node84</title>
<path fill="none" stroke="#63b8ff" d="M3154.55,-132.83C3791.17,-66.42 5347.13,-153.79 5966.62,-97 5979,-95.87 5992.31,-93.91 6004.56,-91.81"/>
<polygon fill="#63b8ff" stroke="#63b8ff" points="3154.43,-129.43 3144.85,-133.97 3155.17,-136.39 3154.43,-129.43"/>
</g>
<!-- Node85 -->
<g id="node46" class="node">
<title>Node85</title>
<g id="a_node46"><a xlink:href="m_det_8c.html" target="_top" xlink:title=" ">
<polygon fill="white" stroke="#666666" points="6264.25,-91.38 6141,-91.38 6141,-72.12 6264.25,-72.12 6264.25,-91.38"/>
<text text-anchor="middle" x="6202.62" y="-77.88" font-family="Helvetica,sans-Serif" font-size="10.00">Source/ARX/AR/mDet.c</text>
</a>
</g>
</g>
<!-- Node2&#45;&gt;Node85 -->
<g id="edge55" class="edge">
<title>Node2&#45;&gt;Node85</title>
<path fill="none" stroke="#63b8ff" d="M3154.68,-132.82C3828.11,-62.81 5477.42,-167.01 6132.62,-97 6143.11,-95.88 6154.35,-93.93 6164.68,-91.83"/>
<polygon fill="#63b8ff" stroke="#63b8ff" points="3154.43,-129.43 3144.85,-133.97 3155.17,-136.4 3154.43,-129.43"/>
</g>
<!-- Node86 -->
<g id="node47" class="node">
<title>Node86</title>
<g id="a_node47"><a xlink:href="m_disp_8c.html" target="_top" xlink:title=" ">
<polygon fill="white" stroke="#666666" points="6410.5,-91.38 6282.75,-91.38 6282.75,-72.12 6410.5,-72.12 6410.5,-91.38"/>
<text text-anchor="middle" x="6346.62" y="-77.88" font-family="Helvetica,sans-Serif" font-size="10.00">Source/ARX/AR/mDisp.c</text>
</a>
</g>
</g>
<!-- Node2&#45;&gt;Node86 -->
<g id="edge56" class="edge">
<title>Node2&#45;&gt;Node86</title>
<path fill="none" stroke="#63b8ff" d="M3154.66,-132.82C3859.27,-59.61 5586.96,-167.39 6273.62,-97 6284.54,-95.88 6296.26,-93.93 6307.04,-91.83"/>
<polygon fill="#63b8ff" stroke="#63b8ff" points="3154.43,-129.43 3144.85,-133.97 3155.17,-136.4 3154.43,-129.43"/>
</g>
<!-- Node87 -->
<g id="node48" class="node">
<title>Node87</title>
<g id="a_node48"><a xlink:href="m_dup_8c.html" target="_top" xlink:title=" ">
<polygon fill="white" stroke="#666666" points="6554.38,-91.38 6428.88,-91.38 6428.88,-72.12 6554.38,-72.12 6554.38,-91.38"/>
<text text-anchor="middle" x="6491.62" y="-77.88" font-family="Helvetica,sans-Serif" font-size="10.00">Source/ARX/AR/mDup.c</text>
</a>
</g>
</g>
<!-- Node2&#45;&gt;Node87 -->
<g id="edge57" class="edge">
<title>Node2&#45;&gt;Node87</title>
<path fill="none" stroke="#63b8ff" d="M3154.62,-132.83C3891.49,-56.33 5700.75,-171.45 6419.62,-97 6430.4,-95.88 6441.96,-93.94 6452.59,-91.84"/>
<polygon fill="#63b8ff" stroke="#63b8ff" points="3154.43,-129.43 3144.85,-133.97 3155.16,-136.4 3154.43,-129.43"/>
</g>
<!-- Node88 -->
<g id="node49" class="node">
<title>Node88</title>
<g id="a_node49"><a xlink:href="m_free_8c.html" target="_top" xlink:title=" ">
<polygon fill="white" stroke="#666666" points="6699.12,-91.38 6572.12,-91.38 6572.12,-72.12 6699.12,-72.12 6699.12,-91.38"/>
<text text-anchor="middle" x="6635.62" y="-77.88" font-family="Helvetica,sans-Serif" font-size="10.00">Source/ARX/AR/mFree.c</text>
</a>
</g>
</g>
<!-- Node2&#45;&gt;Node88 -->
<g id="edge58" class="edge">
<title>Node2&#45;&gt;Node88</title>
<path fill="none" stroke="#63b8ff" d="M3154.52,-132.84C3923.18,-53.08 5812.88,-174.58 6563.62,-97 6574.4,-95.89 6585.96,-93.94 6596.59,-91.84"/>
<polygon fill="#63b8ff" stroke="#63b8ff" points="3154.43,-129.43 3144.85,-133.97 3155.16,-136.4 3154.43,-129.43"/>
</g>
<!-- Node36&#45;&gt;Node6 -->
<g id="edge24" class="edge">
<title>Node36&#45;&gt;Node6</title>
<path fill="none" stroke="#63b8ff" d="M620.62,-61.02C620.62,-49.05 620.62,-34.35 620.62,-25.14"/>
<polygon fill="#63b8ff" stroke="#63b8ff" points="617.13,-60.78 620.62,-70.78 624.13,-60.78 617.13,-60.78"/>
</g>
<!-- Node71&#45;&gt;Node2 -->
<g id="edge38" class="edge">
<title>Node71&#45;&gt;Node2</title>
<path fill="none" stroke="#63b8ff" d="M858.52,-96.12C860.92,-96.44 863.29,-96.74 865.62,-97 1300.98,-145.22 2709.99,-147.45 3021.38,-147.32"/>
<polygon fill="#63b8ff" stroke="#63b8ff" points="859.33,-92.55 848.92,-94.5 858.27,-99.47 859.33,-92.55"/>
</g>
<!-- Node71&#45;&gt;Node6 -->
<g id="edge37" class="edge">
<title>Node71&#45;&gt;Node6</title>
<path fill="none" stroke="#63b8ff" d="M738.02,-62.14C707.03,-50.03 668,-34.77 643.67,-25.26"/>
<polygon fill="#63b8ff" stroke="#63b8ff" points="736.6,-65.73 747.18,-66.11 739.14,-59.21 736.6,-65.73"/>
</g>
<!-- Node73&#45;&gt;Node26 -->
<g id="edge40" class="edge">
<title>Node73&#45;&gt;Node26</title>
<path fill="none" stroke="#63b8ff" d="M2112,-67.4C2051.76,-56.17 1966.19,-40.22 1906.69,-29.12"/>
<polygon fill="#63b8ff" stroke="#63b8ff" points="2111.09,-70.98 2121.56,-69.37 2112.37,-64.09 2111.09,-70.98"/>
</g>
<!-- Node73&#45;&gt;Node27 -->
<g id="edge41" class="edge">
<title>Node73&#45;&gt;Node27</title>
<path fill="none" stroke="#63b8ff" d="M2130.66,-62.67C2101.3,-52.66 2065.27,-40.36 2037.67,-30.94"/>
<polygon fill="#63b8ff" stroke="#63b8ff" points="2129.14,-66.2 2139.74,-66.11 2131.4,-59.57 2129.14,-66.2"/>
</g>
<!-- Node73&#45;&gt;Node28 -->
<g id="edge42" class="edge">
<title>Node73&#45;&gt;Node28</title>
<path fill="none" stroke="#63b8ff" d="M2171.22,-56.51C2166.8,-47.87 2161.96,-38.41 2158.08,-30.83"/>
<polygon fill="#63b8ff" stroke="#63b8ff" points="2168.47,-57.81 2176.14,-65.11 2174.7,-54.62 2168.47,-57.81"/>
</g>
<!-- Node73&#45;&gt;Node29 -->
<g id="edge43" class="edge">
<title>Node73&#45;&gt;Node29</title>
<path fill="none" stroke="#63b8ff" d="M2220.56,-61.06C2238.83,-51.32 2260.51,-39.76 2277.28,-30.83"/>
<polygon fill="#63b8ff" stroke="#63b8ff" points="2219.26,-58.32 2212.08,-66.11 2222.55,-64.5 2219.26,-58.32"/>
</g>
<!-- Node73&#45;&gt;Node30 -->
<g id="edge44" class="edge">
<title>Node73&#45;&gt;Node30</title>
<path fill="none" stroke="#63b8ff" d="M2255.29,-64.18C2299.73,-53.91 2356.3,-40.83 2399.12,-30.93"/>
<polygon fill="#63b8ff" stroke="#63b8ff" points="2254.81,-60.93 2245.85,-66.6 2256.38,-67.75 2254.81,-60.93"/>
</g>
<!-- Node75&#45;&gt;Node2 -->
<g id="edge46" class="edge">
<title>Node75&#45;&gt;Node2</title>
<path fill="none" stroke="#63b8ff" d="M4979.41,-98.23C4180.08,-185.17 3965.3,-42.77 3160.62,-133 3155.15,-133.61 3149.48,-134.45 3143.78,-135.42"/>
<polygon fill="#63b8ff" stroke="#63b8ff" points="4979.77,-101.6 4989.33,-97.03 4979.01,-94.64 4979.77,-101.6"/>
</g>
<!-- Node75&#45;&gt;Node76 -->
<g id="edge47" class="edge">
<title>Node75&#45;&gt;Node76</title>
<path fill="none" stroke="#63b8ff" d="M5067.78,-57.07C5073.78,-48.28 5080.4,-38.57 5085.68,-30.83"/>
<polygon fill="#63b8ff" stroke="#63b8ff" points="5064.35,-54.88 5061.61,-65.11 5070.14,-58.83 5064.35,-54.88"/>
</g>
</g>
</svg>
