<?xml version="1.0" encoding="UTF-8" standalone="no"?>
<!DOCTYPE svg PUBLIC "-//W3C//DTD SVG 1.1//EN"
 "http://www.w3.org/Graphics/SVG/1.1/DTD/svg11.dtd">
<!-- Generated by graphviz version 2.40.1 (20161225.0304)
 -->
<!-- Title: arMatrixAllocTransf Pages: 1 -->
<svg width="226pt" height="101pt"
 viewBox="0.00 0.00 225.85 101.00" xmlns="http://www.w3.org/2000/svg" xmlns:xlink="http://www.w3.org/1999/xlink">
<g id="graph0" class="graph" transform="scale(1 1) rotate(0) translate(4 97)">
<title>arMatrixAllocTransf</title>
<polygon fill="#ffffff" stroke="transparent" points="-4,4 -4,-97 221.8486,-97 221.8486,4 -4,4"/>
<!-- Node4 -->
<g id="node1" class="node">
<title>Node4</title>
<polygon fill="#bfbfbf" stroke="#000000" points="0,-37.5 0,-55.5 101.7617,-55.5 101.7617,-37.5 0,-37.5"/>
<text text-anchor="middle" x="50.8809" y="-43.5" font-family="Helvetica,sans-Serif" font-size="10.00" fill="#000000">arMatrixAllocTransf</text>
</g>
<!-- Node5 -->
<g id="node2" class="node">
<title>Node5</title>
<g id="a_node2"><a xlink:href="matrix_8h.html#a3cc9d337fb4a6584338be7fa234a001d" target="_top" xlink:title="arMatrixAllocf">
<polygon fill="#ffffff" stroke="#000000" points="139.522,-74.5 139.522,-92.5 216.0884,-92.5 216.0884,-74.5 139.522,-74.5"/>
<text text-anchor="middle" x="177.8052" y="-80.5" font-family="Helvetica,sans-Serif" font-size="10.00" fill="#000000">arMatrixAllocf</text>
</a>
</g>
</g>
<!-- Node4&#45;&gt;Node5 -->
<g id="edge1" class="edge">
<title>Node4&#45;&gt;Node5</title>
<path fill="none" stroke="#191970" d="M81.93,-55.5512C98.5254,-60.389 119.163,-66.4051 137.0353,-71.6151"/>
<polygon fill="#191970" stroke="#191970" points="136.0567,-74.9754 146.6366,-74.414 138.0158,-68.2551 136.0567,-74.9754"/>
</g>
<!-- Node6 -->
<g id="node3" class="node">
<title>Node6</title>
<g id="a_node3"><a xlink:href="matrix_8h.html#a3b9d0ea190cf74e2fffd9679e875271f" target="_top" xlink:title="arMatrixTransf">
<polygon fill="#ffffff" stroke="#000000" points="137.7617,-37.5 137.7617,-55.5 217.8486,-55.5 217.8486,-37.5 137.7617,-37.5"/>
<text text-anchor="middle" x="177.8052" y="-43.5" font-family="Helvetica,sans-Serif" font-size="10.00" fill="#000000">arMatrixTransf</text>
</a>
</g>
</g>
<!-- Node4&#45;&gt;Node6 -->
<g id="edge2" class="edge">
<title>Node4&#45;&gt;Node6</title>
<path fill="none" stroke="#191970" d="M101.7745,-46.5C110.2079,-46.5 118.9498,-46.5 127.3718,-46.5"/>
<polygon fill="#191970" stroke="#191970" points="127.4439,-50.0001 137.4439,-46.5 127.4438,-43.0001 127.4439,-50.0001"/>
</g>
<!-- Node7 -->
<g id="node4" class="node">
<title>Node7</title>
<g id="a_node4"><a xlink:href="matrix_8h.html#afc9cc11f835ae8316f509fcb8c682322" target="_top" xlink:title="arMatrixFreef">
<polygon fill="#ffffff" stroke="#000000" points="140.0786,-.5 140.0786,-18.5 215.5317,-18.5 215.5317,-.5 140.0786,-.5"/>
<text text-anchor="middle" x="177.8052" y="-6.5" font-family="Helvetica,sans-Serif" font-size="10.00" fill="#000000">arMatrixFreef</text>
</a>
</g>
</g>
<!-- Node4&#45;&gt;Node7 -->
<g id="edge3" class="edge">
<title>Node4&#45;&gt;Node7</title>
<path fill="none" stroke="#191970" d="M81.93,-37.4488C98.5254,-32.611 119.163,-26.5949 137.0353,-21.3849"/>
<polygon fill="#191970" stroke="#191970" points="138.0158,-24.7449 146.6366,-18.586 136.0567,-18.0246 138.0158,-24.7449"/>
</g>
</g>
</svg>
