<?xml version="1.0" encoding="UTF-8" standalone="no"?>
<!DOCTYPE svg PUBLIC "-//W3C//DTD SVG 1.1//EN"
 "http://www.w3.org/Graphics/SVG/1.1/DTD/svg11.dtd">
<!-- Generated by graphviz version 7.0.5 (20221223.1930)
 -->
<!-- Title: arMatrixPCA Pages: 1 -->
<svg width="319pt" height="101pt"
 viewBox="0.00 0.00 319.00 101.00" xmlns="http://www.w3.org/2000/svg" xmlns:xlink="http://www.w3.org/1999/xlink">
<g id="graph0" class="graph" transform="scale(1 1) rotate(0) translate(4 97)">
<title>arMatrixPCA</title>
<!-- Node1 -->
<g id="node1" class="node">
<title>Node1</title>
<g id="a_node1"><a xlink:title=" ">
<polygon fill="#999999" stroke="#666666" points="73,-38 0,-38 0,-19 73,-19 73,-38"/>
<text text-anchor="middle" x="36.5" y="-26" font-family="Helvetica,sans-Serif" font-size="10.00">arMatrixPCA</text>
</a>
</g>
</g>
<!-- Node2 -->
<g id="node2" class="node">
<title>Node2</title>
<g id="a_node2"><a xlink:href="m_alloc_dup_8c.html#ace5d8c6eb6524469fbc3770081658081" target="_top" xlink:title=" ">
<polygon fill="white" stroke="#666666" points="201,-57 109,-57 109,-38 201,-38 201,-57"/>
<text text-anchor="middle" x="155" y="-45" font-family="Helvetica,sans-Serif" font-size="10.00">arMatrixAllocDup</text>
</a>
</g>
</g>
<!-- Node1&#45;&gt;Node2 -->
<g id="edge1" class="edge">
<title>Node1&#45;&gt;Node2</title>
<path fill="none" stroke="#63b8ff" d="M73.4,-34.36C80.95,-35.59 89.08,-36.91 97.18,-38.23"/>
<polygon fill="#63b8ff" stroke="#63b8ff" points="96.61,-41.69 107.04,-39.84 97.73,-34.78 96.61,-41.69"/>
</g>
<!-- Node5 -->
<g id="node5" class="node">
<title>Node5</title>
<g id="a_node5"><a xlink:href="m_free_8c.html#ac4b7a714cce9fffda773d86363380454" target="_top" xlink:title=" ">
<polygon fill="white" stroke="#666666" points="309.5,-19 238.5,-19 238.5,0 309.5,0 309.5,-19"/>
<text text-anchor="middle" x="274" y="-7" font-family="Helvetica,sans-Serif" font-size="10.00">arMatrixFree</text>
</a>
</g>
</g>
<!-- Node1&#45;&gt;Node5 -->
<g id="edge5" class="edge">
<title>Node1&#45;&gt;Node5</title>
<path fill="none" stroke="#63b8ff" d="M73.27,-25.61C114.34,-22.3 181.84,-16.86 226.84,-13.22"/>
<polygon fill="#63b8ff" stroke="#63b8ff" points="226.86,-16.73 236.54,-12.44 226.29,-9.76 226.86,-16.73"/>
</g>
<!-- Node3 -->
<g id="node3" class="node">
<title>Node3</title>
<g id="a_node3"><a xlink:href="m_alloc_8c.html#a69c9a974dc5a3963148ebb2c4a80f969" target="_top" xlink:title=" ">
<polygon fill="white" stroke="#666666" points="311,-93 237,-93 237,-74 311,-74 311,-93"/>
<text text-anchor="middle" x="274" y="-81" font-family="Helvetica,sans-Serif" font-size="10.00">arMatrixAlloc</text>
</a>
</g>
</g>
<!-- Node2&#45;&gt;Node3 -->
<g id="edge2" class="edge">
<title>Node2&#45;&gt;Node3</title>
<path fill="none" stroke="#63b8ff" d="M188.28,-57.43C201.2,-61.41 216.26,-66.04 230.08,-70.29"/>
<polygon fill="#63b8ff" stroke="#63b8ff" points="228.79,-73.56 239.38,-73.15 230.85,-66.87 228.79,-73.56"/>
</g>
<!-- Node4 -->
<g id="node4" class="node">
<title>Node4</title>
<g id="a_node4"><a xlink:href="m_dup_8c.html#a988e4c76394edccbf1e86005b97f725a" target="_top" xlink:title=" ">
<polygon fill="white" stroke="#666666" points="309,-56 239,-56 239,-37 309,-37 309,-56"/>
<text text-anchor="middle" x="274" y="-44" font-family="Helvetica,sans-Serif" font-size="10.00">arMatrixDup</text>
</a>
</g>
</g>
<!-- Node2&#45;&gt;Node4 -->
<g id="edge3" class="edge">
<title>Node2&#45;&gt;Node4</title>
<path fill="none" stroke="#63b8ff" d="M201.24,-47.11C209.81,-47.04 218.79,-46.96 227.38,-46.89"/>
<polygon fill="#63b8ff" stroke="#63b8ff" points="227.29,-50.39 237.26,-46.81 227.23,-43.39 227.29,-50.39"/>
</g>
<!-- Node2&#45;&gt;Node5 -->
<g id="edge4" class="edge">
<title>Node2&#45;&gt;Node5</title>
<path fill="none" stroke="#63b8ff" d="M186.74,-37.52C200.44,-33.07 216.79,-27.75 231.56,-22.96"/>
<polygon fill="#63b8ff" stroke="#63b8ff" points="232.6,-26.3 241.03,-19.88 230.43,-19.65 232.6,-26.3"/>
</g>
</g>
</svg>
