<?xml version="1.0" encoding="UTF-8" standalone="no"?>
<!DOCTYPE svg PUBLIC "-//W3C//DTD SVG 1.1//EN"
 "http://www.w3.org/Graphics/SVG/1.1/DTD/svg11.dtd">
<!-- Generated by graphviz version 8.0.5 (20230430.1635)
 -->
<!-- Title: Source/ARX/mapper.hpp Pages: 1 -->
<!--zoomable 260 -->
<svg id="main" version="1.1" xmlns="http://www.w3.org/2000/svg" xmlns:xlink="http://www.w3.org/1999/xlink" xml:space="preserve" onload="init(evt)">
<style type="text/css"><![CDATA[
.edge:hover path { stroke: red; }
.edge:hover polygon { stroke: red; fill: red; }
]]></style>
<script type="text/javascript"><![CDATA[
var edges = document.getElementsByTagName('g');
if (edges && edges.length) {
  for (var i=0;i<edges.length;i++) {
    if (edges[i].id.substr(0,4)=='edge') {
      edges[i].setAttribute('class','edge');
    }
  }
}
]]></script>
        <defs>
                <circle id="rim" cx="0" cy="0" r="7"/>
                <circle id="rim2" cx="0" cy="0" r="3.5"/>
                <g id="zoomPlus">
                        <use xlink:href="#rim" fill="#404040">
                                <set attributeName="fill" to="#808080" begin="zoomplus.mouseover" end="zoomplus.mouseout"/>
                        </use>
                        <path d="M-4,0h8M0,-4v8" fill="none" stroke="white" stroke-width="1.5" pointer-events="none"/>
                </g>
                <g id="zoomMin">
                        <use xlink:href="#rim" fill="#404040">
                                <set attributeName="fill" to="#808080" begin="zoomminus.mouseover" end="zoomminus.mouseout"/>
                        </use>
                        <path d="M-4,0h8" fill="none" stroke="white" stroke-width="1.5" pointer-events="none"/>
                </g>
                <g id="dirArrow">
                        <path fill="none" stroke="white" stroke-width="1.5" d="M0,-3.0v7 M-2.5,-0.5L0,-3.0L2.5,-0.5"/>
                </g>
               <g id="resetDef">
                       <use xlink:href="#rim2" fill="#404040">
                               <set attributeName="fill" to="#808080" begin="reset.mouseover" end="reset.mouseout"/>
                       </use>
               </g>
        </defs>

<script type="text/javascript">
var viewWidth = 1358;
var viewHeight = 260;
var sectionId = 'dynsection-0';
</script>
<script xlink:href="svgpan.js"/>
<svg id="graph" class="graph">
<g id="viewport">
<title>Source/ARX/mapper.hpp</title>
<!-- Node1 -->
<g id="node1" class="node">
<title>Node1</title>
<g id="a_node1"><a xlink:title=" ">
<polygon fill="#999999" stroke="#666666" points="635,-251.5 511,-251.5 511,-232.25 635,-232.25 635,-251.5"/>
<text text-anchor="middle" x="573" y="-238" font-family="Helvetica,sans-Serif" font-size="10.00">Source/ARX/mapper.hpp</text>
</a>
</g>
</g>
<!-- Node2 -->
<g id="node2" class="node">
<title>Node2</title>
<g id="a_node2"><a xlink:title=" ">
<polygon fill="#e0e0e0" stroke="#999999" points="130,-190.62 0,-190.62 0,-171.38 130,-171.38 130,-190.62"/>
<text text-anchor="middle" x="65" y="-177.12" font-family="Helvetica,sans-Serif" font-size="10.00">gtsam/inference/Symbol.h</text>
</a>
</g>
</g>
<!-- Node1&#45;&gt;Node2 -->
<g id="edge1" class="edge">
<title>Node1&#45;&gt;Node2</title>
<path fill="none" stroke="#63b8ff" d="M510.62,-236.19C426.12,-229.45 270.7,-215.66 139,-196.25 132.54,-195.3 125.8,-194.18 119.11,-192.99"/>
<polygon fill="#63b8ff" stroke="#63b8ff" points="120.18,-189.44 109.72,-191.08 118.92,-196.33 120.18,-189.44"/>
</g>
<!-- Node3 -->
<g id="node3" class="node">
<title>Node3</title>
<g id="a_node3"><a xlink:title=" ">
<polygon fill="#e0e0e0" stroke="#999999" points="273.75,-190.62 148.25,-190.62 148.25,-171.38 273.75,-171.38 273.75,-190.62"/>
<text text-anchor="middle" x="211" y="-177.12" font-family="Helvetica,sans-Serif" font-size="10.00">gtsam/geometry/Pose3.h</text>
</a>
</g>
</g>
<!-- Node1&#45;&gt;Node3 -->
<g id="edge2" class="edge">
<title>Node1&#45;&gt;Node3</title>
<path fill="none" stroke="#63b8ff" d="M510.65,-232.07C451.83,-223.57 361.27,-210.01 283,-196.25 277.57,-195.3 271.92,-194.26 266.28,-193.19"/>
<polygon fill="#63b8ff" stroke="#63b8ff" points="266.98,-189.57 256.5,-191.12 265.66,-196.44 266.98,-189.57"/>
</g>
<!-- Node4 -->
<g id="node4" class="node">
<title>Node4</title>
<g id="a_node4"><a xlink:title=" ">
<polygon fill="#e0e0e0" stroke="#999999" points="418.12,-190.62 291.88,-190.62 291.88,-171.38 418.12,-171.38 418.12,-190.62"/>
<text text-anchor="middle" x="355" y="-177.12" font-family="Helvetica,sans-Serif" font-size="10.00">gtsam/nonlinear/ISAM2.h</text>
</a>
</g>
</g>
<!-- Node1&#45;&gt;Node4 -->
<g id="edge3" class="edge">
<title>Node1&#45;&gt;Node4</title>
<path fill="none" stroke="#63b8ff" d="M539.42,-231.8C501.81,-221.65 440.71,-205.15 399.24,-193.95"/>
<polygon fill="#63b8ff" stroke="#63b8ff" points="400.19,-190.31 389.62,-191.08 398.36,-197.07 400.19,-190.31"/>
</g>
<!-- Node5 -->
<g id="node5" class="node">
<title>Node5</title>
<g id="a_node5"><a xlink:title=" ">
<polygon fill="#e0e0e0" stroke="#999999" points="565.62,-196.25 436.38,-196.25 436.38,-165.75 565.62,-165.75 565.62,-196.25"/>
<text text-anchor="start" x="444.38" y="-182.75" font-family="Helvetica,sans-Serif" font-size="10.00">gtsam/nonlinear/Nonlinear</text>
<text text-anchor="middle" x="501" y="-171.5" font-family="Helvetica,sans-Serif" font-size="10.00">FactorGraph.h</text>
</a>
</g>
</g>
<!-- Node1&#45;&gt;Node5 -->
<g id="edge4" class="edge">
<title>Node1&#45;&gt;Node5</title>
<path fill="none" stroke="#63b8ff" d="M562.06,-231.93C552.82,-224.37 539.2,-213.24 527.17,-203.4"/>
<polygon fill="#63b8ff" stroke="#63b8ff" points="529.73,-200.15 519.77,-196.53 525.3,-205.57 529.73,-200.15"/>
</g>
<!-- Node6 -->
<g id="node6" class="node">
<title>Node6</title>
<g id="a_node6"><a xlink:title=" ">
<polygon fill="#e0e0e0" stroke="#999999" points="708.75,-190.62 583.25,-190.62 583.25,-171.38 708.75,-171.38 708.75,-190.62"/>
<text text-anchor="middle" x="646" y="-177.12" font-family="Helvetica,sans-Serif" font-size="10.00">gtsam/nonlinear/Values.h</text>
</a>
</g>
</g>
<!-- Node1&#45;&gt;Node6 -->
<g id="edge5" class="edge">
<title>Node1&#45;&gt;Node6</title>
<path fill="none" stroke="#63b8ff" d="M584.09,-231.93C595.34,-222.86 613,-208.62 626.58,-197.66"/>
<polygon fill="#63b8ff" stroke="#63b8ff" points="628.22,-200.03 633.81,-191.03 623.83,-194.58 628.22,-200.03"/>
</g>
<!-- Node7 -->
<g id="node7" class="node">
<title>Node7</title>
<g id="a_node7"><a xlink:title=" ">
<polygon fill="#e0e0e0" stroke="#999999" points="870.75,-190.62 727.25,-190.62 727.25,-171.38 870.75,-171.38 870.75,-190.62"/>
<text text-anchor="middle" x="799" y="-177.12" font-family="Helvetica,sans-Serif" font-size="10.00">gtsam/slam/BetweenFactor.h</text>
</a>
</g>
</g>
<!-- Node1&#45;&gt;Node7 -->
<g id="edge6" class="edge">
<title>Node1&#45;&gt;Node7</title>
<path fill="none" stroke="#63b8ff" d="M607.82,-231.8C646.97,-221.61 710.68,-205.01 753.68,-193.81"/>
<polygon fill="#63b8ff" stroke="#63b8ff" points="754.35,-196.99 763.14,-191.08 752.58,-190.21 754.35,-196.99"/>
</g>
<!-- Node8 -->
<g id="node8" class="node">
<title>Node8</title>
<g id="a_node8"><a xlink:href="ar_8h.html" target="_top" xlink:title="artoolkitX core routines.">
<polygon fill="white" stroke="#666666" points="972.5,-129.75 899.5,-129.75 899.5,-110.5 972.5,-110.5 972.5,-129.75"/>
<text text-anchor="middle" x="936" y="-116.25" font-family="Helvetica,sans-Serif" font-size="10.00">ARX/AR/ar.h</text>
</a>
</g>
</g>
<!-- Node1&#45;&gt;Node8 -->
<g id="edge7" class="edge">
<title>Node1&#45;&gt;Node8</title>
<path fill="none" stroke="#63b8ff" d="M635.26,-237.43C712.75,-232.19 839.8,-220.2 880,-196.25 902.11,-183.08 918.27,-157.51 927.4,-139.88"/>
<polygon fill="#63b8ff" stroke="#63b8ff" points="930.93,-141.64 932.17,-131.12 924.63,-138.57 930.93,-141.64"/>
</g>
<!-- Node25 -->
<g id="node25" class="node">
<title>Node25</title>
<g id="a_node25"><a xlink:href="ar_multi_8h.html" target="_top" xlink:title=" ">
<polygon fill="white" stroke="#666666" points="1021.38,-190.62 926.62,-190.62 926.62,-171.38 1021.38,-171.38 1021.38,-190.62"/>
<text text-anchor="middle" x="974" y="-177.12" font-family="Helvetica,sans-Serif" font-size="10.00">ARX/AR/arMulti.h</text>
</a>
</g>
</g>
<!-- Node1&#45;&gt;Node25 -->
<g id="edge31" class="edge">
<title>Node1&#45;&gt;Node25</title>
<path fill="none" stroke="#63b8ff" d="M635.33,-234.57C703.74,-227.21 816.65,-213.78 913,-196.25 917.64,-195.41 922.46,-194.44 927.26,-193.41"/>
<polygon fill="#63b8ff" stroke="#63b8ff" points="927.67,-196.69 936.67,-191.11 926.15,-189.85 927.67,-196.69"/>
</g>
<!-- Node9 -->
<g id="node9" class="node">
<title>Node9</title>
<g id="a_node9"><a xlink:title=" ">
<polygon fill="#e0e0e0" stroke="#999999" points="893.62,-19.25 848.38,-19.25 848.38,0 893.62,0 893.62,-19.25"/>
<text text-anchor="middle" x="871" y="-5.75" font-family="Helvetica,sans-Serif" font-size="10.00">stdio.h</text>
</a>
</g>
</g>
<!-- Node8&#45;&gt;Node9 -->
<g id="edge8" class="edge">
<title>Node8&#45;&gt;Node9</title>
<path fill="none" stroke="#63b8ff" d="M899.1,-114.56C854.63,-108.22 783.87,-95.13 768,-74.5 762.78,-67.72 763.3,-62.4 768,-55.25 776.12,-42.88 810.84,-29.49 837.76,-20.63"/>
<polygon fill="#63b8ff" stroke="#63b8ff" points="838.52,-23.74 846.98,-17.36 836.39,-17.08 838.52,-23.74"/>
</g>
<!-- Node10 -->
<g id="node10" class="node">
<title>Node10</title>
<g id="a_node10"><a xlink:title=" ">
<polygon fill="#e0e0e0" stroke="#999999" points="488.75,-19.25 441.25,-19.25 441.25,0 488.75,0 488.75,-19.25"/>
<text text-anchor="middle" x="465" y="-5.75" font-family="Helvetica,sans-Serif" font-size="10.00">stdlib.h</text>
</a>
</g>
</g>
<!-- Node8&#45;&gt;Node10 -->
<g id="edge9" class="edge">
<title>Node8&#45;&gt;Node10</title>
<path fill="none" stroke="#63b8ff" d="M899.24,-117.93C812.91,-114.65 599.61,-103.76 535,-74.5 511.92,-64.05 491.27,-43.05 478.48,-27.98"/>
<polygon fill="#63b8ff" stroke="#63b8ff" points="480.61,-26.05 471.59,-20.51 475.19,-30.47 480.61,-26.05"/>
</g>
<!-- Node11 -->
<g id="node11" class="node">
<title>Node11</title>
<g id="a_node11"><a xlink:title=" ">
<polygon fill="#e0e0e0" stroke="#999999" points="609.12,-74.5 560.88,-74.5 560.88,-55.25 609.12,-55.25 609.12,-74.5"/>
<text text-anchor="middle" x="585" y="-61" font-family="Helvetica,sans-Serif" font-size="10.00">stdint.h</text>
</a>
</g>
</g>
<!-- Node8&#45;&gt;Node11 -->
<g id="edge10" class="edge">
<title>Node8&#45;&gt;Node11</title>
<path fill="none" stroke="#63b8ff" d="M899.04,-115.35C841.43,-109.16 726.57,-95.6 620.05,-74.71"/>
<polygon fill="#63b8ff" stroke="#63b8ff" points="620.93,-71.12 610.43,-72.6 619.56,-77.98 620.93,-71.12"/>
</g>
<!-- Node12 -->
<g id="node12" class="node">
<title>Node12</title>
<g id="a_node12"><a xlink:title=" ">
<polygon fill="#e0e0e0" stroke="#999999" points="555.12,-19.25 506.88,-19.25 506.88,0 555.12,0 555.12,-19.25"/>
<text text-anchor="middle" x="531" y="-5.75" font-family="Helvetica,sans-Serif" font-size="10.00">string.h</text>
</a>
</g>
</g>
<!-- Node8&#45;&gt;Node12 -->
<g id="edge11" class="edge">
<title>Node8&#45;&gt;Node12</title>
<path fill="none" stroke="#63b8ff" d="M899.28,-119.72C813.76,-120.37 604.58,-117.41 552,-74.5 539,-63.89 533.98,-45.06 532.07,-30.58"/>
<polygon fill="#63b8ff" stroke="#63b8ff" points="535.48,-30.37 531.1,-20.72 528.51,-30.99 535.48,-30.37"/>
</g>
<!-- Node13 -->
<g id="node13" class="node">
<title>Node13</title>
<g id="a_node13"><a xlink:title=" ">
<polygon fill="#e0e0e0" stroke="#999999" points="1308.88,-19.25 1217.12,-19.25 1217.12,0 1308.88,0 1308.88,-19.25"/>
<text text-anchor="middle" x="1263" y="-5.75" font-family="Helvetica,sans-Serif" font-size="10.00">ARX/AR/config.h</text>
</a>
</g>
</g>
<!-- Node8&#45;&gt;Node13 -->
<g id="edge12" class="edge">
<title>Node8&#45;&gt;Node13</title>
<path fill="none" stroke="#63b8ff" d="M972.76,-117.85C1068.42,-114.16 1319.41,-101.92 1344,-74.5 1362.18,-54.22 1330.18,-35.5 1301.2,-23.63"/>
<polygon fill="#63b8ff" stroke="#63b8ff" points="1302.75,-20.09 1292.16,-19.73 1300.22,-26.62 1302.75,-20.09"/>
</g>
<!-- Node14 -->
<g id="node14" class="node">
<title>Node14</title>
<g id="a_node14"><a xlink:href="ar_config_8h.html" target="_top" xlink:title=" ">
<polygon fill="white" stroke="#666666" points="879.12,-74.5 776.88,-74.5 776.88,-55.25 879.12,-55.25 879.12,-74.5"/>
<text text-anchor="middle" x="828" y="-61" font-family="Helvetica,sans-Serif" font-size="10.00">ARX/AR/arConfig.h</text>
</a>
</g>
</g>
<!-- Node8&#45;&gt;Node14 -->
<g id="edge13" class="edge">
<title>Node8&#45;&gt;Node14</title>
<path fill="none" stroke="#63b8ff" d="M917.68,-110.09C900.84,-101.79 875.64,-89.36 856.23,-79.79"/>
<polygon fill="#63b8ff" stroke="#63b8ff" points="857.93,-76.24 847.41,-74.95 854.83,-82.51 857.93,-76.24"/>
</g>
<!-- Node15 -->
<g id="node15" class="node">
<title>Node15</title>
<g id="a_node15"><a xlink:href="log_8h.html" target="_top" xlink:title="Logging utilities.">
<polygon fill="white" stroke="#666666" points="720.62,-74.5 627.38,-74.5 627.38,-55.25 720.62,-55.25 720.62,-74.5"/>
<text text-anchor="middle" x="674" y="-61" font-family="Helvetica,sans-Serif" font-size="10.00">ARX/ARUtil/log.h</text>
</a>
</g>
</g>
<!-- Node8&#45;&gt;Node15 -->
<g id="edge14" class="edge">
<title>Node8&#45;&gt;Node15</title>
<path fill="none" stroke="#63b8ff" d="M899.02,-111.61C854.77,-102.62 780.28,-87.48 729.21,-77.1"/>
<polygon fill="#63b8ff" stroke="#63b8ff" points="730.18,-73.52 719.69,-74.96 728.79,-80.38 730.18,-73.52"/>
</g>
<!-- Node19 -->
<g id="node19" class="node">
<title>Node19</title>
<g id="a_node19"><a xlink:href="matrix_8h.html" target="_top" xlink:title=" ">
<polygon fill="white" stroke="#666666" points="1085.25,-74.5 992.75,-74.5 992.75,-55.25 1085.25,-55.25 1085.25,-74.5"/>
<text text-anchor="middle" x="1039" y="-61" font-family="Helvetica,sans-Serif" font-size="10.00">ARX/AR/matrix.h</text>
</a>
</g>
</g>
<!-- Node8&#45;&gt;Node19 -->
<g id="edge21" class="edge">
<title>Node8&#45;&gt;Node19</title>
<path fill="none" stroke="#63b8ff" d="M953.47,-110.09C969.45,-101.83 993.35,-89.48 1011.82,-79.93"/>
<polygon fill="#63b8ff" stroke="#63b8ff" points="1013.17,-82.65 1020.44,-74.95 1009.95,-76.44 1013.17,-82.65"/>
</g>
<!-- Node21 -->
<g id="node21" class="node">
<title>Node21</title>
<g id="a_node21"><a xlink:href="icp_8h.html" target="_top" xlink:title=" ">
<polygon fill="white" stroke="#666666" points="975.12,-74.5 896.88,-74.5 896.88,-55.25 975.12,-55.25 975.12,-74.5"/>
<text text-anchor="middle" x="936" y="-61" font-family="Helvetica,sans-Serif" font-size="10.00">ARX/AR/icp.h</text>
</a>
</g>
</g>
<!-- Node8&#45;&gt;Node21 -->
<g id="edge23" class="edge">
<title>Node8&#45;&gt;Node21</title>
<path fill="none" stroke="#63b8ff" d="M936,-110.33C936,-103.67 936,-94.24 936,-85.78"/>
<polygon fill="#63b8ff" stroke="#63b8ff" points="939.5,-85.86 936,-75.86 932.5,-85.86 939.5,-85.86"/>
</g>
<!-- Node23 -->
<g id="node23" class="node">
<title>Node23</title>
<g id="a_node23"><a xlink:href="param_8h.html" target="_top" xlink:title="artoolkitX functions for handling calibrated camera parameters.">
<polygon fill="white" stroke="#666666" points="1335.25,-74.5 1242.75,-74.5 1242.75,-55.25 1335.25,-55.25 1335.25,-74.5"/>
<text text-anchor="middle" x="1289" y="-61" font-family="Helvetica,sans-Serif" font-size="10.00">ARX/AR/param.h</text>
</a>
</g>
</g>
<!-- Node8&#45;&gt;Node23 -->
<g id="edge26" class="edge">
<title>Node8&#45;&gt;Node23</title>
<path fill="none" stroke="#63b8ff" d="M972.7,-112.75C1027.52,-104.13 1133.53,-88.26 1224,-74.5 1226.5,-74.12 1229.07,-73.73 1231.67,-73.33"/>
<polygon fill="#63b8ff" stroke="#63b8ff" points="1232.11,-76.65 1241.47,-71.69 1231.06,-69.73 1232.11,-76.65"/>
</g>
<!-- Node24 -->
<g id="node24" class="node">
<title>Node24</title>
<g id="a_node24"><a xlink:href="ar_image_proc_8h.html" target="_top" xlink:title="artoolkitX functions for 2D luminance image processing.">
<polygon fill="white" stroke="#666666" points="1224.5,-74.5 1103.5,-74.5 1103.5,-55.25 1224.5,-55.25 1224.5,-74.5"/>
<text text-anchor="middle" x="1164" y="-61" font-family="Helvetica,sans-Serif" font-size="10.00">ARX/AR/arImageProc.h</text>
</a>
</g>
</g>
<!-- Node8&#45;&gt;Node24 -->
<g id="edge28" class="edge">
<title>Node8&#45;&gt;Node24</title>
<path fill="none" stroke="#63b8ff" d="M969.46,-110.09C1006.23,-101.06 1065.64,-87.15 1109.2,-77.35"/>
<polygon fill="#63b8ff" stroke="#63b8ff" points="1109.91,-80.55 1118.91,-74.95 1108.38,-73.72 1109.91,-80.55"/>
</g>
<!-- Node15&#45;&gt;Node9 -->
<g id="edge15" class="edge">
<title>Node15&#45;&gt;Node9</title>
<path fill="none" stroke="#63b8ff" d="M707.42,-54.84C743.63,-45.05 801.08,-29.52 837.38,-19.71"/>
<polygon fill="#63b8ff" stroke="#63b8ff" points="838.17,-22.85 846.91,-16.87 836.35,-16.1 838.17,-22.85"/>
</g>
<!-- Node15&#45;&gt;Node10 -->
<g id="edge16" class="edge">
<title>Node15&#45;&gt;Node10</title>
<path fill="none" stroke="#63b8ff" d="M637.91,-54.81C604.48,-46.39 553.08,-33.4 499.52,-19.63"/>
<polygon fill="#63b8ff" stroke="#63b8ff" points="500.7,-16.06 490.15,-16.96 498.96,-22.84 500.7,-16.06"/>
</g>
<!-- Node15&#45;&gt;Node12 -->
<g id="edge17" class="edge">
<title>Node15&#45;&gt;Node12</title>
<path fill="none" stroke="#63b8ff" d="M649.74,-54.84C626.63,-46.24 591.6,-33.19 565.57,-23.5"/>
<polygon fill="#63b8ff" stroke="#63b8ff" points="566.97,-19.91 556.38,-19.7 564.53,-26.47 566.97,-19.91"/>
</g>
<!-- Node16 -->
<g id="node16" class="node">
<title>Node16</title>
<g id="a_node16"><a xlink:title=" ">
<polygon fill="#e0e0e0" stroke="#999999" points="624.62,-19.25 573.38,-19.25 573.38,0 624.62,0 624.62,-19.25"/>
<text text-anchor="middle" x="599" y="-5.75" font-family="Helvetica,sans-Serif" font-size="10.00">stdarg.h</text>
</a>
</g>
</g>
<!-- Node15&#45;&gt;Node16 -->
<g id="edge18" class="edge">
<title>Node15&#45;&gt;Node16</title>
<path fill="none" stroke="#63b8ff" d="M661.28,-54.84C650.18,-46.96 633.84,-35.36 620.68,-26.02"/>
<polygon fill="#63b8ff" stroke="#63b8ff" points="622.97,-22.64 612.79,-19.7 618.91,-28.35 622.97,-22.64"/>
</g>
<!-- Node17 -->
<g id="node17" class="node">
<title>Node17</title>
<g id="a_node17"><a xlink:title=" ">
<polygon fill="#e0e0e0" stroke="#999999" points="707.38,-19.25 642.62,-19.25 642.62,0 707.38,0 707.38,-19.25"/>
<text text-anchor="middle" x="675" y="-5.75" font-family="Helvetica,sans-Serif" font-size="10.00">sys/errno.h</text>
</a>
</g>
</g>
<!-- Node15&#45;&gt;Node17 -->
<g id="edge19" class="edge">
<title>Node15&#45;&gt;Node17</title>
<path fill="none" stroke="#63b8ff" d="M674.17,-55.08C674.29,-48.42 674.47,-38.99 674.63,-30.53"/>
<polygon fill="#63b8ff" stroke="#63b8ff" points="678.14,-30.67 674.83,-20.61 671.14,-30.54 678.14,-30.67"/>
</g>
<!-- Node18 -->
<g id="node18" class="node">
<title>Node18</title>
<g id="a_node18"><a xlink:href="types_8h.html" target="_top" xlink:title=" ">
<polygon fill="white" stroke="#666666" points="830.25,-19.25 725.75,-19.25 725.75,0 830.25,0 830.25,-19.25"/>
<text text-anchor="middle" x="778" y="-5.75" font-family="Helvetica,sans-Serif" font-size="10.00">ARX/ARUtil/types.h</text>
</a>
</g>
</g>
<!-- Node15&#45;&gt;Node18 -->
<g id="edge20" class="edge">
<title>Node15&#45;&gt;Node18</title>
<path fill="none" stroke="#63b8ff" d="M691.64,-54.84C707.78,-46.58 731.9,-34.23 750.56,-24.68"/>
<polygon fill="#63b8ff" stroke="#63b8ff" points="751.97,-27.38 759.27,-19.7 748.78,-21.14 751.97,-27.38"/>
</g>
<!-- Node20 -->
<g id="node20" class="node">
<title>Node20</title>
<g id="a_node20"><a xlink:title=" ">
<polygon fill="#e0e0e0" stroke="#999999" points="1075,-19.25 1029,-19.25 1029,0 1075,0 1075,-19.25"/>
<text text-anchor="middle" x="1052" y="-5.75" font-family="Helvetica,sans-Serif" font-size="10.00">math.h</text>
</a>
</g>
</g>
<!-- Node19&#45;&gt;Node20 -->
<g id="edge22" class="edge">
<title>Node19&#45;&gt;Node20</title>
<path fill="none" stroke="#63b8ff" d="M1041.15,-55.08C1042.79,-48.34 1045.13,-38.77 1047.21,-30.24"/>
<polygon fill="#63b8ff" stroke="#63b8ff" points="1050.84,-31.15 1049.81,-20.61 1044.03,-29.49 1050.84,-31.15"/>
</g>
<!-- Node21&#45;&gt;Node9 -->
<g id="edge24" class="edge">
<title>Node21&#45;&gt;Node9</title>
<path fill="none" stroke="#63b8ff" d="M924.97,-54.84C915.49,-47.07 901.58,-35.67 890.25,-26.4"/>
<polygon fill="#63b8ff" stroke="#63b8ff" points="892.82,-23.15 882.86,-19.52 888.38,-28.57 892.82,-23.15"/>
</g>
<!-- Node22 -->
<g id="node22" class="node">
<title>Node22</title>
<g id="a_node22"><a xlink:href="icp_core_8h.html" target="_top" xlink:title=" ">
<polygon fill="white" stroke="#666666" points="1010.62,-19.25 911.38,-19.25 911.38,0 1010.62,0 1010.62,-19.25"/>
<text text-anchor="middle" x="961" y="-5.75" font-family="Helvetica,sans-Serif" font-size="10.00">ARX/AR/icpCore.h</text>
</a>
</g>
</g>
<!-- Node21&#45;&gt;Node22 -->
<g id="edge25" class="edge">
<title>Node21&#45;&gt;Node22</title>
<path fill="none" stroke="#63b8ff" d="M940.13,-55.08C943.4,-48.11 948.09,-38.12 952.2,-29.37"/>
<polygon fill="#63b8ff" stroke="#63b8ff" points="955.7,-31.15 956.78,-20.61 949.36,-28.17 955.7,-31.15"/>
</g>
<!-- Node23&#45;&gt;Node8 -->
<g id="edge27" class="edge">
<title>Node23&#45;&gt;Node8</title>
<path fill="none" stroke="#63b8ff" d="M1242.29,-74.46C1242.19,-74.47 1242.1,-74.49 1242,-74.5 1150.77,-88.38 1043.73,-104.4 983.37,-112.96"/>
<polygon fill="#63b8ff" stroke="#63b8ff" points="983.07,-109.61 973.66,-114.47 984.05,-116.54 983.07,-109.61"/>
</g>
<!-- Node24&#45;&gt;Node8 -->
<g id="edge30" class="edge">
<title>Node24&#45;&gt;Node8</title>
<path fill="none" stroke="#63b8ff" d="M1130.26,-74.98C1091.36,-84.52 1027.39,-99.47 983.5,-109.29"/>
<polygon fill="#63b8ff" stroke="#63b8ff" points="982.8,-106.08 973.8,-111.66 984.32,-112.91 982.8,-106.08"/>
</g>
<!-- Node24&#45;&gt;Node13 -->
<g id="edge29" class="edge">
<title>Node24&#45;&gt;Node13</title>
<path fill="none" stroke="#63b8ff" d="M1180.79,-54.84C1196.15,-46.58 1219.12,-34.23 1236.88,-24.68"/>
<polygon fill="#63b8ff" stroke="#63b8ff" points="1237.97,-27.52 1245.12,-19.7 1234.66,-21.36 1237.97,-27.52"/>
</g>
<!-- Node25&#45;&gt;Node8 -->
<g id="edge32" class="edge">
<title>Node25&#45;&gt;Node8</title>
<path fill="none" stroke="#63b8ff" d="M968.23,-171.06C962.82,-162.67 954.56,-149.88 947.76,-139.34"/>
<polygon fill="#63b8ff" stroke="#63b8ff" points="950.19,-137.65 941.83,-131.15 944.31,-141.45 950.19,-137.65"/>
</g>
</g>
</svg>
        <g id="navigator" transform="translate(0 0)" fill="#404254">
                <rect fill="#f2f5e9" fill-opacity="0.5" stroke="#606060" stroke-width=".5" x="0" y="0" width="60" height="60"/>
                <use id="zoomplus" xlink:href="#zoomPlus" x="17" y="9" onmousedown="handleZoom(evt,'in')"/>
                <use id="zoomminus" xlink:href="#zoomMin" x="42" y="9" onmousedown="handleZoom(evt,'out')"/>
                <use id="reset" xlink:href="#resetDef" x="30" y="36" onmousedown="handleReset()"/>
                <g id="arrowUp" xlink:href="#dirArrow" transform="translate(30 24)" onmousedown="handlePan(0,-1)">
                  <use xlink:href="#rim" fill="#404040">
                        <set attributeName="fill" to="#808080" begin="arrowUp.mouseover" end="arrowUp.mouseout"/>
                  </use>
                  <path fill="none" stroke="white" stroke-width="1.5" d="M0,-3.0v7 M-2.5,-0.5L0,-3.0L2.5,-0.5"/>
                </g>
                <g id="arrowRight" xlink:href="#dirArrow" transform="rotate(90) translate(36 -43)" onmousedown="handlePan(1,0)">
                  <use xlink:href="#rim" fill="#404040">
                        <set attributeName="fill" to="#808080" begin="arrowRight.mouseover" end="arrowRight.mouseout"/>
                  </use>
                  <path fill="none" stroke="white" stroke-width="1.5" d="M0,-3.0v7 M-2.5,-0.5L0,-3.0L2.5,-0.5"/>
                </g>
                <g id="arrowDown" xlink:href="#dirArrow" transform="rotate(180) translate(-30 -48)" onmousedown="handlePan(0,1)">
                  <use xlink:href="#rim" fill="#404040">
                        <set attributeName="fill" to="#808080" begin="arrowDown.mouseover" end="arrowDown.mouseout"/>
                  </use>
                  <path fill="none" stroke="white" stroke-width="1.5" d="M0,-3.0v7 M-2.5,-0.5L0,-3.0L2.5,-0.5"/>
                </g>
                <g id="arrowLeft" xlink:href="#dirArrow" transform="rotate(270) translate(-36 17)" onmousedown="handlePan(-1,0)">
                  <use xlink:href="#rim" fill="#404040">
                        <set attributeName="fill" to="#808080" begin="arrowLeft.mouseover" end="arrowLeft.mouseout"/>
                  </use>
                  <path fill="none" stroke="white" stroke-width="1.5" d="M0,-3.0v7 M-2.5,-0.5L0,-3.0L2.5,-0.5"/>
                </g>
        </g>
        <svg viewBox="0 0 15 15" width="100%" height="30px" preserveAspectRatio="xMaxYMin meet">
         <g id="arrow_out" transform="scale(0.3 0.3)">
          <a xlink:href="mapper_8hpp__incl_org.svg" target="_base">
           <rect id="button" ry="5" rx="5" y="6" x="6" height="38" width="38"
                fill="#f2f5e9" fill-opacity="0.5" stroke="#606060" stroke-width="1.0"/>
           <path id="arrow"
             d="M 11.500037,31.436501 C 11.940474,20.09759 22.043105,11.32322 32.158766,21.979434 L 37.068811,17.246167 C 37.068811,17.246167 37.088388,32 37.088388,32 L 22.160133,31.978069 C 22.160133,31.978069 26.997745,27.140456 26.997745,27.140456 C 18.528582,18.264221 13.291696,25.230495 11.500037,31.436501 z"
             style="fill:#404040;"/>
          </a>
         </g>
        </svg>
</svg>
