<?xml version="1.0" encoding="UTF-8" standalone="no"?>
<!DOCTYPE svg PUBLIC "-//W3C//DTD SVG 1.1//EN"
 "http://www.w3.org/Graphics/SVG/1.1/DTD/svg11.dtd">
<!-- Generated by graphviz version 7.0.5 (20221223.1930)
 -->
<!-- Title: Source/ARX/mapper.hpp Pages: 1 -->
<svg width="1366pt" height="258pt"
 viewBox="0.00 0.00 1365.99 258.00" xmlns="http://www.w3.org/2000/svg" xmlns:xlink="http://www.w3.org/1999/xlink">
<g id="graph0" class="graph" transform="scale(1 1) rotate(0) translate(4 254)">
<title>Source/ARX/mapper.hpp</title>
<!-- Node1 -->
<g id="node1" class="node">
<title>Node1</title>
<g id="a_node1"><a xlink:title=" ">
<polygon fill="#999999" stroke="#666666" points="640,-250 515,-250 515,-231 640,-231 640,-250"/>
<text text-anchor="middle" x="577.5" y="-238" font-family="Helvetica,sans-Serif" font-size="10.00">Source/ARX/mapper.hpp</text>
</a>
</g>
</g>
<!-- Node2 -->
<g id="node2" class="node">
<title>Node2</title>
<g id="a_node2"><a xlink:title=" ">
<polygon fill="#e0e0e0" stroke="#999999" points="131,-189.5 0,-189.5 0,-170.5 131,-170.5 131,-189.5"/>
<text text-anchor="middle" x="65.5" y="-177.5" font-family="Helvetica,sans-Serif" font-size="10.00">gtsam/inference/Symbol.h</text>
</a>
</g>
</g>
<!-- Node1&#45;&gt;Node2 -->
<g id="edge1" class="edge">
<title>Node1&#45;&gt;Node2</title>
<path fill="none" stroke="#63b8ff" d="M514.7,-234.75C429.64,-227.95 273.16,-214.1 140.5,-195 134.2,-194.09 127.62,-193.03 121.1,-191.91"/>
<polygon fill="#63b8ff" stroke="#63b8ff" points="122.16,-188.54 111.7,-190.24 120.94,-195.44 122.16,-188.54"/>
</g>
<!-- Node3 -->
<g id="node3" class="node">
<title>Node3</title>
<g id="a_node3"><a xlink:title=" ">
<polygon fill="#e0e0e0" stroke="#999999" points="275.5,-189.5 149.5,-189.5 149.5,-170.5 275.5,-170.5 275.5,-189.5"/>
<text text-anchor="middle" x="212.5" y="-177.5" font-family="Helvetica,sans-Serif" font-size="10.00">gtsam/geometry/Pose3.h</text>
</a>
</g>
</g>
<!-- Node1&#45;&gt;Node3 -->
<g id="edge2" class="edge">
<title>Node1&#45;&gt;Node3</title>
<path fill="none" stroke="#63b8ff" d="M514.51,-230.7C455.09,-222.22 363.59,-208.69 284.5,-195 279.21,-194.08 273.71,-193.09 268.21,-192.07"/>
<polygon fill="#63b8ff" stroke="#63b8ff" points="268.96,-188.65 258.49,-190.23 267.66,-195.53 268.96,-188.65"/>
</g>
<!-- Node4 -->
<g id="node4" class="node">
<title>Node4</title>
<g id="a_node4"><a xlink:title=" ">
<polygon fill="#e0e0e0" stroke="#999999" points="421,-189.5 294,-189.5 294,-170.5 421,-170.5 421,-189.5"/>
<text text-anchor="middle" x="357.5" y="-177.5" font-family="Helvetica,sans-Serif" font-size="10.00">gtsam/nonlinear/ISAM2.h</text>
</a>
</g>
</g>
<!-- Node1&#45;&gt;Node4 -->
<g id="edge3" class="edge">
<title>Node1&#45;&gt;Node4</title>
<path fill="none" stroke="#63b8ff" d="M544.09,-230.62C506.21,-220.54 444.28,-204.08 402.25,-192.9"/>
<polygon fill="#63b8ff" stroke="#63b8ff" points="403.25,-189.54 392.69,-190.36 401.46,-196.31 403.25,-189.54"/>
</g>
<!-- Node5 -->
<g id="node5" class="node">
<title>Node5</title>
<g id="a_node5"><a xlink:title=" ">
<polygon fill="#e0e0e0" stroke="#999999" points="569.5,-195 439.5,-195 439.5,-165 569.5,-165 569.5,-195"/>
<text text-anchor="start" x="447.5" y="-183" font-family="Helvetica,sans-Serif" font-size="10.00">gtsam/nonlinear/Nonlinear</text>
<text text-anchor="middle" x="504.5" y="-172" font-family="Helvetica,sans-Serif" font-size="10.00">FactorGraph.h</text>
</a>
</g>
</g>
<!-- Node1&#45;&gt;Node5 -->
<g id="edge4" class="edge">
<title>Node1&#45;&gt;Node5</title>
<path fill="none" stroke="#63b8ff" d="M566.41,-230.62C557.13,-223.18 543.5,-212.25 531.39,-202.55"/>
<polygon fill="#63b8ff" stroke="#63b8ff" points="533.69,-199.91 523.7,-196.39 529.31,-205.37 533.69,-199.91"/>
</g>
<!-- Node6 -->
<g id="node6" class="node">
<title>Node6</title>
<g id="a_node6"><a xlink:title=" ">
<polygon fill="#e0e0e0" stroke="#999999" points="713.5,-189.5 587.5,-189.5 587.5,-170.5 713.5,-170.5 713.5,-189.5"/>
<text text-anchor="middle" x="650.5" y="-177.5" font-family="Helvetica,sans-Serif" font-size="10.00">gtsam/nonlinear/Values.h</text>
</a>
</g>
</g>
<!-- Node1&#45;&gt;Node6 -->
<g id="edge5" class="edge">
<title>Node1&#45;&gt;Node6</title>
<path fill="none" stroke="#63b8ff" d="M588.59,-230.62C599.74,-221.68 617.16,-207.72 630.69,-196.87"/>
<polygon fill="#63b8ff" stroke="#63b8ff" points="632.51,-199.9 638.13,-190.91 628.14,-194.44 632.51,-199.9"/>
</g>
<!-- Node7 -->
<g id="node7" class="node">
<title>Node7</title>
<g id="a_node7"><a xlink:title=" ">
<polygon fill="#e0e0e0" stroke="#999999" points="875.5,-189.5 731.5,-189.5 731.5,-170.5 875.5,-170.5 875.5,-189.5"/>
<text text-anchor="middle" x="803.5" y="-177.5" font-family="Helvetica,sans-Serif" font-size="10.00">gtsam/slam/BetweenFactor.h</text>
</a>
</g>
</g>
<!-- Node1&#45;&gt;Node7 -->
<g id="edge6" class="edge">
<title>Node1&#45;&gt;Node7</title>
<path fill="none" stroke="#63b8ff" d="M611.82,-230.62C650.82,-220.52 714.62,-204.01 757.8,-192.83"/>
<polygon fill="#63b8ff" stroke="#63b8ff" points="758.58,-196.24 767.39,-190.35 756.83,-189.47 758.58,-196.24"/>
</g>
<!-- Node8 -->
<g id="node8" class="node">
<title>Node8</title>
<g id="a_node8"><a xlink:href="ar_8h.html" target="_top" xlink:title="artoolkitX core routines.">
<polygon fill="white" stroke="#666666" points="978.5,-129 904.5,-129 904.5,-110 978.5,-110 978.5,-129"/>
<text text-anchor="middle" x="941.5" y="-117" font-family="Helvetica,sans-Serif" font-size="10.00">ARX/AR/ar.h</text>
</a>
</g>
</g>
<!-- Node1&#45;&gt;Node8 -->
<g id="edge7" class="edge">
<title>Node1&#45;&gt;Node8</title>
<path fill="none" stroke="#63b8ff" d="M640.38,-235.96C717.88,-230.65 844.27,-218.62 884.5,-195 906.5,-182.08 922.93,-157.07 932.35,-139.61"/>
<polygon fill="#63b8ff" stroke="#63b8ff" points="935.43,-141.27 936.84,-130.77 929.19,-138.1 935.43,-141.27"/>
</g>
<!-- Node25 -->
<g id="node25" class="node">
<title>Node25</title>
<g id="a_node25"><a xlink:href="ar_multi_8h.html" target="_top" xlink:title=" ">
<polygon fill="white" stroke="#666666" points="1027,-189.5 932,-189.5 932,-170.5 1027,-170.5 1027,-189.5"/>
<text text-anchor="middle" x="979.5" y="-177.5" font-family="Helvetica,sans-Serif" font-size="10.00">ARX/AR/arMulti.h</text>
</a>
</g>
</g>
<!-- Node1&#45;&gt;Node25 -->
<g id="edge31" class="edge">
<title>Node1&#45;&gt;Node25</title>
<path fill="none" stroke="#63b8ff" d="M640.43,-233.02C708.88,-225.56 821.38,-212.11 917.5,-195 921.9,-194.22 926.45,-193.33 931.01,-192.4"/>
<polygon fill="#63b8ff" stroke="#63b8ff" points="931.71,-195.83 940.76,-190.31 930.25,-188.98 931.71,-195.83"/>
</g>
<!-- Node9 -->
<g id="node9" class="node">
<title>Node9</title>
<g id="a_node9"><a xlink:title=" ">
<polygon fill="#e0e0e0" stroke="#999999" points="898.5,-19 852.5,-19 852.5,0 898.5,0 898.5,-19"/>
<text text-anchor="middle" x="875.5" y="-7" font-family="Helvetica,sans-Serif" font-size="10.00">stdio.h</text>
</a>
</g>
</g>
<!-- Node8&#45;&gt;Node9 -->
<g id="edge8" class="edge">
<title>Node8&#45;&gt;Node9</title>
<path fill="none" stroke="#63b8ff" d="M904.17,-114.03C859.18,-107.79 787.58,-94.83 771.5,-74 766.34,-67.32 766.85,-62.05 771.5,-55 779.68,-42.61 814.46,-29.34 841.58,-20.54"/>
<polygon fill="#63b8ff" stroke="#63b8ff" points="842.33,-23.97 850.82,-17.63 840.23,-17.3 842.33,-23.97"/>
</g>
<!-- Node10 -->
<g id="node10" class="node">
<title>Node10</title>
<g id="a_node10"><a xlink:title=" ">
<polygon fill="#e0e0e0" stroke="#999999" points="489.5,-19 441.5,-19 441.5,0 489.5,0 489.5,-19"/>
<text text-anchor="middle" x="465.5" y="-7" font-family="Helvetica,sans-Serif" font-size="10.00">stdlib.h</text>
</a>
</g>
</g>
<!-- Node8&#45;&gt;Node10 -->
<g id="edge9" class="edge">
<title>Node8&#45;&gt;Node10</title>
<path fill="none" stroke="#63b8ff" d="M904.08,-117.29C816.72,-114.01 601.83,-103.14 536.5,-74 513.24,-63.62 492.26,-42.75 479.25,-27.76"/>
<polygon fill="#63b8ff" stroke="#63b8ff" points="482.28,-25.94 473.19,-20.5 476.91,-30.42 482.28,-25.94"/>
</g>
<!-- Node11 -->
<g id="node11" class="node">
<title>Node11</title>
<g id="a_node11"><a xlink:title=" ">
<polygon fill="#e0e0e0" stroke="#999999" points="612,-74 563,-74 563,-55 612,-55 612,-74"/>
<text text-anchor="middle" x="587.5" y="-62" font-family="Helvetica,sans-Serif" font-size="10.00">stdint.h</text>
</a>
</g>
</g>
<!-- Node8&#45;&gt;Node11 -->
<g id="edge10" class="edge">
<title>Node8&#45;&gt;Node11</title>
<path fill="none" stroke="#63b8ff" d="M904.33,-114.64C846.45,-108.34 731.08,-94.65 623.38,-74.16"/>
<polygon fill="#63b8ff" stroke="#63b8ff" points="624.28,-70.77 613.8,-72.32 622.96,-77.65 624.28,-70.77"/>
</g>
<!-- Node12 -->
<g id="node12" class="node">
<title>Node12</title>
<g id="a_node12"><a xlink:title=" ">
<polygon fill="#e0e0e0" stroke="#999999" points="557,-19 508,-19 508,0 557,0 557,-19"/>
<text text-anchor="middle" x="532.5" y="-7" font-family="Helvetica,sans-Serif" font-size="10.00">string.h</text>
</a>
</g>
</g>
<!-- Node8&#45;&gt;Node12 -->
<g id="edge11" class="edge">
<title>Node8&#45;&gt;Node12</title>
<path fill="none" stroke="#63b8ff" d="M904.08,-119.16C817.49,-119.94 606.63,-117.21 553.5,-74 540.54,-63.46 535.51,-44.71 533.6,-30.31"/>
<polygon fill="#63b8ff" stroke="#63b8ff" points="537.11,-30.25 532.73,-20.6 530.13,-30.87 537.11,-30.25"/>
</g>
<!-- Node13 -->
<g id="node13" class="node">
<title>Node13</title>
<g id="a_node13"><a xlink:title=" ">
<polygon fill="#e0e0e0" stroke="#999999" points="1317.5,-19 1225.5,-19 1225.5,0 1317.5,0 1317.5,-19"/>
<text text-anchor="middle" x="1271.5" y="-7" font-family="Helvetica,sans-Serif" font-size="10.00">ARX/AR/config.h</text>
</a>
</g>
</g>
<!-- Node8&#45;&gt;Node13 -->
<g id="edge12" class="edge">
<title>Node8&#45;&gt;Node13</title>
<path fill="none" stroke="#63b8ff" d="M978.88,-117.24C1075.5,-113.62 1327.75,-101.57 1352.5,-74 1370.62,-53.81 1338.75,-35.23 1309.81,-23.45"/>
<polygon fill="#63b8ff" stroke="#63b8ff" points="1311.38,-20.31 1300.79,-19.98 1308.86,-26.84 1311.38,-20.31"/>
</g>
<!-- Node14 -->
<g id="node14" class="node">
<title>Node14</title>
<g id="a_node14"><a xlink:href="ar_config_8h.html" target="_top" xlink:title=" ">
<polygon fill="white" stroke="#666666" points="884,-74 781,-74 781,-55 884,-55 884,-74"/>
<text text-anchor="middle" x="832.5" y="-62" font-family="Helvetica,sans-Serif" font-size="10.00">ARX/AR/arConfig.h</text>
</a>
</g>
</g>
<!-- Node8&#45;&gt;Node14 -->
<g id="edge13" class="edge">
<title>Node8&#45;&gt;Node14</title>
<path fill="none" stroke="#63b8ff" d="M923.01,-109.51C906,-101.24 880.51,-88.84 860.91,-79.31"/>
<polygon fill="#63b8ff" stroke="#63b8ff" points="862.6,-76.25 852.08,-75.02 859.54,-82.54 862.6,-76.25"/>
</g>
<!-- Node15 -->
<g id="node15" class="node">
<title>Node15</title>
<g id="a_node15"><a xlink:href="log_8h.html" target="_top" xlink:title="Logging utilities.">
<polygon fill="white" stroke="#666666" points="724.5,-74 630.5,-74 630.5,-55 724.5,-55 724.5,-74"/>
<text text-anchor="middle" x="677.5" y="-62" font-family="Helvetica,sans-Serif" font-size="10.00">ARX/ARUtil/log.h</text>
</a>
</g>
</g>
<!-- Node8&#45;&gt;Node15 -->
<g id="edge14" class="edge">
<title>Node8&#45;&gt;Node15</title>
<path fill="none" stroke="#63b8ff" d="M904.24,-111.02C859.7,-102.08 784.77,-87.04 733.32,-76.71"/>
<polygon fill="#63b8ff" stroke="#63b8ff" points="734.05,-73.28 723.55,-74.75 732.67,-80.15 734.05,-73.28"/>
</g>
<!-- Node19 -->
<g id="node19" class="node">
<title>Node19</title>
<g id="a_node19"><a xlink:href="matrix_8h.html" target="_top" xlink:title=" ">
<polygon fill="white" stroke="#666666" points="1092,-74 999,-74 999,-55 1092,-55 1092,-74"/>
<text text-anchor="middle" x="1045.5" y="-62" font-family="Helvetica,sans-Serif" font-size="10.00">ARX/AR/matrix.h</text>
</a>
</g>
</g>
<!-- Node8&#45;&gt;Node19 -->
<g id="edge21" class="edge">
<title>Node8&#45;&gt;Node19</title>
<path fill="none" stroke="#63b8ff" d="M959.14,-109.51C975.23,-101.31 999.25,-89.07 1017.87,-79.58"/>
<polygon fill="#63b8ff" stroke="#63b8ff" points="1019.45,-82.7 1026.77,-75.05 1016.27,-76.47 1019.45,-82.7"/>
</g>
<!-- Node21 -->
<g id="node21" class="node">
<title>Node21</title>
<g id="a_node21"><a xlink:href="icp_8h.html" target="_top" xlink:title=" ">
<polygon fill="white" stroke="#666666" points="981,-74 902,-74 902,-55 981,-55 981,-74"/>
<text text-anchor="middle" x="941.5" y="-62" font-family="Helvetica,sans-Serif" font-size="10.00">ARX/AR/icp.h</text>
</a>
</g>
</g>
<!-- Node8&#45;&gt;Node21 -->
<g id="edge23" class="edge">
<title>Node8&#45;&gt;Node21</title>
<path fill="none" stroke="#63b8ff" d="M941.5,-109.75C941.5,-103.27 941.5,-94.16 941.5,-85.9"/>
<polygon fill="#63b8ff" stroke="#63b8ff" points="945,-85.96 941.5,-75.96 938,-85.96 945,-85.96"/>
</g>
<!-- Node23 -->
<g id="node23" class="node">
<title>Node23</title>
<g id="a_node23"><a xlink:href="param_8h.html" target="_top" xlink:title="artoolkitX functions for handling calibrated camera parameters.">
<polygon fill="white" stroke="#666666" points="1344,-74 1251,-74 1251,-55 1344,-55 1344,-74"/>
<text text-anchor="middle" x="1297.5" y="-62" font-family="Helvetica,sans-Serif" font-size="10.00">ARX/AR/param.h</text>
</a>
</g>
</g>
<!-- Node8&#45;&gt;Node23 -->
<g id="edge26" class="edge">
<title>Node8&#45;&gt;Node23</title>
<path fill="none" stroke="#63b8ff" d="M978.63,-112.13C1034.04,-103.54 1141.12,-87.71 1232.5,-74 1234.78,-73.66 1237.11,-73.31 1239.47,-72.95"/>
<polygon fill="#63b8ff" stroke="#63b8ff" points="1239.79,-76.44 1249.17,-71.5 1238.76,-69.52 1239.79,-76.44"/>
</g>
<!-- Node24 -->
<g id="node24" class="node">
<title>Node24</title>
<g id="a_node24"><a xlink:href="ar_image_proc_8h.html" target="_top" xlink:title="artoolkitX functions for 2D luminance image processing.">
<polygon fill="white" stroke="#666666" points="1232.5,-74 1110.5,-74 1110.5,-55 1232.5,-55 1232.5,-74"/>
<text text-anchor="middle" x="1171.5" y="-62" font-family="Helvetica,sans-Serif" font-size="10.00">ARX/AR/arImageProc.h</text>
</a>
</g>
</g>
<!-- Node8&#45;&gt;Node24 -->
<g id="edge28" class="edge">
<title>Node8&#45;&gt;Node24</title>
<path fill="none" stroke="#63b8ff" d="M975.3,-109.51C1012.44,-100.52 1072.45,-86.65 1116.39,-76.9"/>
<polygon fill="#63b8ff" stroke="#63b8ff" points="1116.98,-80.35 1125.99,-74.77 1115.47,-73.51 1116.98,-80.35"/>
</g>
<!-- Node15&#45;&gt;Node9 -->
<g id="edge15" class="edge">
<title>Node15&#45;&gt;Node9</title>
<path fill="none" stroke="#63b8ff" d="M711.09,-54.51C747.23,-44.84 804.42,-29.53 840.93,-19.75"/>
<polygon fill="#63b8ff" stroke="#63b8ff" points="841.79,-23.15 850.55,-17.18 839.98,-16.38 841.79,-23.15"/>
</g>
<!-- Node15&#45;&gt;Node10 -->
<g id="edge16" class="edge">
<title>Node15&#45;&gt;Node10</title>
<path fill="none" stroke="#63b8ff" d="M641.14,-54.56C607.22,-46.19 554.91,-33.24 500.54,-19.5"/>
<polygon fill="#63b8ff" stroke="#63b8ff" points="501.66,-16.17 491.11,-17.12 499.95,-22.96 501.66,-16.17"/>
</g>
<!-- Node15&#45;&gt;Node12 -->
<g id="edge17" class="edge">
<title>Node15&#45;&gt;Node12</title>
<path fill="none" stroke="#63b8ff" d="M652.9,-54.51C629.43,-45.93 593.83,-32.92 567.43,-23.27"/>
<polygon fill="#63b8ff" stroke="#63b8ff" points="568.75,-20.02 558.16,-19.88 566.35,-26.6 568.75,-20.02"/>
</g>
<!-- Node16 -->
<g id="node16" class="node">
<title>Node16</title>
<g id="a_node16"><a xlink:title=" ">
<polygon fill="#e0e0e0" stroke="#999999" points="627.5,-19 575.5,-19 575.5,0 627.5,0 627.5,-19"/>
<text text-anchor="middle" x="601.5" y="-7" font-family="Helvetica,sans-Serif" font-size="10.00">stdarg.h</text>
</a>
</g>
</g>
<!-- Node15&#45;&gt;Node16 -->
<g id="edge18" class="edge">
<title>Node15&#45;&gt;Node16</title>
<path fill="none" stroke="#63b8ff" d="M664.61,-54.51C653.4,-46.7 636.93,-35.21 623.62,-25.93"/>
<polygon fill="#63b8ff" stroke="#63b8ff" points="625.65,-23.07 615.44,-20.22 621.64,-28.81 625.65,-23.07"/>
</g>
<!-- Node17 -->
<g id="node17" class="node">
<title>Node17</title>
<g id="a_node17"><a xlink:title=" ">
<polygon fill="#e0e0e0" stroke="#999999" points="711,-19 646,-19 646,0 711,0 711,-19"/>
<text text-anchor="middle" x="678.5" y="-7" font-family="Helvetica,sans-Serif" font-size="10.00">sys/errno.h</text>
</a>
</g>
</g>
<!-- Node15&#45;&gt;Node17 -->
<g id="edge19" class="edge">
<title>Node15&#45;&gt;Node17</title>
<path fill="none" stroke="#63b8ff" d="M677.67,-54.75C677.79,-48.27 677.96,-39.16 678.12,-30.9"/>
<polygon fill="#63b8ff" stroke="#63b8ff" points="681.61,-31.02 678.3,-20.96 674.61,-30.89 681.61,-31.02"/>
</g>
<!-- Node18 -->
<g id="node18" class="node">
<title>Node18</title>
<g id="a_node18"><a xlink:href="types_8h.html" target="_top" xlink:title=" ">
<polygon fill="white" stroke="#666666" points="834,-19 729,-19 729,0 834,0 834,-19"/>
<text text-anchor="middle" x="781.5" y="-7" font-family="Helvetica,sans-Serif" font-size="10.00">ARX/ARUtil/types.h</text>
</a>
</g>
</g>
<!-- Node15&#45;&gt;Node18 -->
<g id="edge20" class="edge">
<title>Node15&#45;&gt;Node18</title>
<path fill="none" stroke="#63b8ff" d="M695.14,-54.51C711.23,-46.31 735.25,-34.07 753.87,-24.58"/>
<polygon fill="#63b8ff" stroke="#63b8ff" points="755.45,-27.7 762.77,-20.05 752.27,-21.47 755.45,-27.7"/>
</g>
<!-- Node20 -->
<g id="node20" class="node">
<title>Node20</title>
<g id="a_node20"><a xlink:title=" ">
<polygon fill="#e0e0e0" stroke="#999999" points="1082,-19 1035,-19 1035,0 1082,0 1082,-19"/>
<text text-anchor="middle" x="1058.5" y="-7" font-family="Helvetica,sans-Serif" font-size="10.00">math.h</text>
</a>
</g>
</g>
<!-- Node19&#45;&gt;Node20 -->
<g id="edge22" class="edge">
<title>Node19&#45;&gt;Node20</title>
<path fill="none" stroke="#63b8ff" d="M1047.65,-54.75C1049.26,-48.19 1051.52,-38.95 1053.57,-30.6"/>
<polygon fill="#63b8ff" stroke="#63b8ff" points="1056.96,-31.46 1055.95,-20.91 1050.16,-29.79 1056.96,-31.46"/>
</g>
<!-- Node21&#45;&gt;Node9 -->
<g id="edge24" class="edge">
<title>Node21&#45;&gt;Node9</title>
<path fill="none" stroke="#63b8ff" d="M930.3,-54.51C920.76,-46.85 906.83,-35.66 895.39,-26.47"/>
<polygon fill="#63b8ff" stroke="#63b8ff" points="897.7,-23.84 887.71,-20.31 893.32,-29.3 897.7,-23.84"/>
</g>
<!-- Node22 -->
<g id="node22" class="node">
<title>Node22</title>
<g id="a_node22"><a xlink:href="icp_core_8h.html" target="_top" xlink:title=" ">
<polygon fill="white" stroke="#666666" points="1016.5,-19 916.5,-19 916.5,0 1016.5,0 1016.5,-19"/>
<text text-anchor="middle" x="966.5" y="-7" font-family="Helvetica,sans-Serif" font-size="10.00">ARX/AR/icpCore.h</text>
</a>
</g>
</g>
<!-- Node21&#45;&gt;Node22 -->
<g id="edge25" class="edge">
<title>Node21&#45;&gt;Node22</title>
<path fill="none" stroke="#63b8ff" d="M945.63,-54.75C948.83,-47.96 953.39,-38.3 957.43,-29.73"/>
<polygon fill="#63b8ff" stroke="#63b8ff" points="960.54,-31.35 961.64,-20.81 954.2,-28.36 960.54,-31.35"/>
</g>
<!-- Node23&#45;&gt;Node8 -->
<g id="edge27" class="edge">
<title>Node23&#45;&gt;Node8</title>
<path fill="none" stroke="#63b8ff" d="M1250.21,-74.04C1158.55,-87.8 1051.17,-103.67 990.14,-112.23"/>
<polygon fill="#63b8ff" stroke="#63b8ff" points="989.86,-108.74 980.44,-113.58 990.82,-115.67 989.86,-108.74"/>
</g>
<!-- Node24&#45;&gt;Node8 -->
<g id="edge30" class="edge">
<title>Node24&#45;&gt;Node8</title>
<path fill="none" stroke="#63b8ff" d="M1137.88,-74.45C1098.84,-83.9 1034.37,-98.77 989.95,-108.58"/>
<polygon fill="#63b8ff" stroke="#63b8ff" points="989.33,-105.13 980.32,-110.69 990.83,-111.97 989.33,-105.13"/>
</g>
<!-- Node24&#45;&gt;Node13 -->
<g id="edge29" class="edge">
<title>Node24&#45;&gt;Node13</title>
<path fill="none" stroke="#63b8ff" d="M1188.46,-54.51C1203.86,-46.35 1226.81,-34.19 1244.69,-24.71"/>
<polygon fill="#63b8ff" stroke="#63b8ff" points="1246.25,-27.84 1253.45,-20.07 1242.97,-21.66 1246.25,-27.84"/>
</g>
<!-- Node25&#45;&gt;Node8 -->
<g id="edge32" class="edge">
<title>Node25&#45;&gt;Node8</title>
<path fill="none" stroke="#63b8ff" d="M973.89,-170.37C968.5,-162.07 960.19,-149.28 953.34,-138.72"/>
<polygon fill="#63b8ff" stroke="#63b8ff" points="956.34,-136.92 947.95,-130.44 950.47,-140.73 956.34,-136.92"/>
</g>
</g>
</svg>
