<?xml version="1.0" encoding="UTF-8" standalone="no"?>
<!DOCTYPE svg PUBLIC "-//W3C//DTD SVG 1.1//EN"
 "http://www.w3.org/Graphics/SVG/1.1/DTD/svg11.dtd">
<!-- Generated by graphviz version 2.40.1 (20161225.0304)
 -->
<!-- Title: Source/ARX/AR2/marker.c Pages: 1 -->
<svg width="1043pt" height="247pt"
 viewBox="0.00 0.00 1043.13 247.00" xmlns="http://www.w3.org/2000/svg" xmlns:xlink="http://www.w3.org/1999/xlink">
<g id="graph0" class="graph" transform="scale(1 1) rotate(0) translate(4 243)">
<title>Source/ARX/AR2/marker.c</title>
<polygon fill="#ffffff" stroke="transparent" points="-4,4 -4,-243 1039.1279,-243 1039.1279,4 -4,4"/>
<!-- Node0 -->
<g id="node1" class="node">
<title>Node0</title>
<polygon fill="#bfbfbf" stroke="#000000" points="391.6528,-220.5 391.6528,-238.5 526.0317,-238.5 526.0317,-220.5 391.6528,-220.5"/>
<text text-anchor="middle" x="458.8423" y="-226.5" font-family="Helvetica,sans-Serif" font-size="10.00" fill="#000000">Source/ARX/AR2/marker.c</text>
</g>
<!-- Node1 -->
<g id="node2" class="node">
<title>Node1</title>
<g id="a_node2"><a xlink:href="ar_8h.html" target="_top" xlink:title="artoolkitX core routines. ">
<polygon fill="#ffffff" stroke="#000000" points="365.4951,-110.5 365.4951,-128.5 438.1895,-128.5 438.1895,-110.5 365.4951,-110.5"/>
<text text-anchor="middle" x="401.8423" y="-116.5" font-family="Helvetica,sans-Serif" font-size="10.00" fill="#000000">ARX/AR/ar.h</text>
</a>
</g>
</g>
<!-- Node0&#45;&gt;Node1 -->
<g id="edge1" class="edge">
<title>Node0&#45;&gt;Node1</title>
<path fill="none" stroke="#191970" d="M439.2744,-220.4335C425.4565,-212.8516 408.0033,-200.5997 399.8423,-184 392.9686,-170.0187 394.1528,-152.1944 396.6689,-138.8278"/>
<polygon fill="#191970" stroke="#191970" points="400.1377,-139.3584 398.948,-128.8305 393.3128,-137.8024 400.1377,-139.3584"/>
</g>
<!-- Node2 -->
<g id="node3" class="node">
<title>Node2</title>
<polygon fill="#ffffff" stroke="#bfbfbf" points="464.1108,-.5 464.1108,-18.5 509.5737,-18.5 509.5737,-.5 464.1108,-.5"/>
<text text-anchor="middle" x="486.8423" y="-6.5" font-family="Helvetica,sans-Serif" font-size="10.00" fill="#000000">stdio.h</text>
</g>
<!-- Node0&#45;&gt;Node2 -->
<g id="edge25" class="edge">
<title>Node0&#45;&gt;Node2</title>
<path fill="none" stroke="#191970" d="M510.1129,-220.4924C550.8403,-212.3526 603.4295,-199.3201 618.8423,-184 654.9535,-148.1061 643.6593,-124.4064 650.8423,-74 652.0336,-65.64 655.9533,-61.7221 650.8423,-55 635.0642,-34.2485 563.123,-20.4872 519.9369,-13.9386"/>
<polygon fill="#191970" stroke="#191970" points="520.2904,-10.4531 509.8886,-12.466 519.2753,-17.3791 520.2904,-10.4531"/>
</g>
<!-- Node3 -->
<g id="node4" class="node">
<title>Node3</title>
<polygon fill="#ffffff" stroke="#bfbfbf" points="0,-.5 0,-18.5 47.6846,-18.5 47.6846,-.5 0,-.5"/>
<text text-anchor="middle" x="23.8423" y="-6.5" font-family="Helvetica,sans-Serif" font-size="10.00" fill="#000000">stdlib.h</text>
</g>
<!-- Node0&#45;&gt;Node3 -->
<g id="edge26" class="edge">
<title>Node0&#45;&gt;Node3</title>
<path fill="none" stroke="#191970" d="M416.4062,-220.4722C317.1808,-198.4372 74.7731,-138.9329 26.8423,-74 17.3866,-61.1902 17.4997,-42.7404 19.4744,-28.8519"/>
<polygon fill="#191970" stroke="#191970" points="22.9406,-29.355 21.31,-18.8864 16.0564,-28.0869 22.9406,-29.355"/>
</g>
<!-- Node18 -->
<g id="node19" class="node">
<title>Node18</title>
<g id="a_node19"><a xlink:href="marker_8h.html" target="_top" xlink:title="ARX/AR2/marker.h">
<polygon fill="#ffffff" stroke="#000000" points="408.6035,-165.5 408.6035,-183.5 509.0811,-183.5 509.0811,-165.5 408.6035,-165.5"/>
<text text-anchor="middle" x="458.8423" y="-171.5" font-family="Helvetica,sans-Serif" font-size="10.00" fill="#000000">ARX/AR2/marker.h</text>
</a>
</g>
</g>
<!-- Node0&#45;&gt;Node18 -->
<g id="edge27" class="edge">
<title>Node0&#45;&gt;Node18</title>
<path fill="none" stroke="#191970" d="M458.8423,-220.4179C458.8423,-213.2164 458.8423,-202.8962 458.8423,-193.8632"/>
<polygon fill="#191970" stroke="#191970" points="462.3424,-193.7794 458.8423,-183.7795 455.3424,-193.7795 462.3424,-193.7794"/>
</g>
<!-- Node20 -->
<g id="node21" class="node">
<title>Node20</title>
<g id="a_node21"><a xlink:href="util_8h.html" target="_top" xlink:title="ARX/AR2/util.h">
<polygon fill="#ffffff" stroke="#000000" points="527.4951,-165.5 527.4951,-183.5 610.1895,-183.5 610.1895,-165.5 527.4951,-165.5"/>
<text text-anchor="middle" x="568.8423" y="-171.5" font-family="Helvetica,sans-Serif" font-size="10.00" fill="#000000">ARX/AR2/util.h</text>
</a>
</g>
</g>
<!-- Node0&#45;&gt;Node20 -->
<g id="edge30" class="edge">
<title>Node0&#45;&gt;Node20</title>
<path fill="none" stroke="#191970" d="M477.0065,-220.4179C494.6013,-211.6205 521.5041,-198.1691 541.6511,-188.0956"/>
<polygon fill="#191970" stroke="#191970" points="543.272,-191.1983 550.651,-183.5956 540.1415,-184.9373 543.272,-191.1983"/>
</g>
<!-- Node1&#45;&gt;Node2 -->
<g id="edge2" class="edge">
<title>Node1&#45;&gt;Node2</title>
<path fill="none" stroke="#191970" d="M402.6127,-110.3208C404.1305,-96.9921 408.5164,-72.0177 420.8423,-55 430.3678,-41.8486 444.9208,-31.2335 457.9396,-23.5748"/>
<polygon fill="#191970" stroke="#191970" points="460.0023,-26.4334 467.0544,-18.5265 456.6107,-20.3099 460.0023,-26.4334"/>
</g>
<!-- Node1&#45;&gt;Node3 -->
<g id="edge3" class="edge">
<title>Node1&#45;&gt;Node3</title>
<path fill="none" stroke="#191970" d="M365.4924,-117.1362C279.1555,-111.2082 67.1511,-94.6919 42.8423,-74 29.8084,-62.9054 25.472,-43.3607 24.1458,-28.6851"/>
<polygon fill="#191970" stroke="#191970" points="27.6378,-28.4375 23.6242,-18.6323 20.6472,-28.8003 27.6378,-28.4375"/>
</g>
<!-- Node4 -->
<g id="node5" class="node">
<title>Node4</title>
<polygon fill="#ffffff" stroke="#bfbfbf" points="325.7217,-55.5 325.7217,-73.5 373.9629,-73.5 373.9629,-55.5 325.7217,-55.5"/>
<text text-anchor="middle" x="349.8423" y="-61.5" font-family="Helvetica,sans-Serif" font-size="10.00" fill="#000000">stdint.h</text>
</g>
<!-- Node1&#45;&gt;Node4 -->
<g id="edge4" class="edge">
<title>Node1&#45;&gt;Node4</title>
<path fill="none" stroke="#191970" d="M393.2555,-110.4179C385.7735,-102.5041 374.7307,-90.8243 365.6551,-81.2251"/>
<polygon fill="#191970" stroke="#191970" points="368.029,-78.6414 358.6156,-73.7795 362.9425,-83.4505 368.029,-78.6414"/>
</g>
<!-- Node5 -->
<g id="node6" class="node">
<title>Node5</title>
<polygon fill="#ffffff" stroke="#bfbfbf" points="647.4458,-.5 647.4458,-18.5 696.2388,-18.5 696.2388,-.5 647.4458,-.5"/>
<text text-anchor="middle" x="671.8423" y="-6.5" font-family="Helvetica,sans-Serif" font-size="10.00" fill="#000000">string.h</text>
</g>
<!-- Node1&#45;&gt;Node5 -->
<g id="edge5" class="edge">
<title>Node1&#45;&gt;Node5</title>
<path fill="none" stroke="#191970" d="M438.2099,-113.8573C505.3885,-103.2954 642.8606,-80.9778 650.8423,-74 663.8423,-62.6352 668.8396,-43.1298 670.7369,-28.5372"/>
<polygon fill="#191970" stroke="#191970" points="674.2244,-28.8328 671.6646,-18.5519 667.2544,-28.1852 674.2244,-28.8328"/>
</g>
<!-- Node6 -->
<g id="node7" class="node">
<title>Node6</title>
<polygon fill="#ffffff" stroke="#bfbfbf" points="88.3252,-.5 88.3252,-18.5 179.3594,-18.5 179.3594,-.5 88.3252,-.5"/>
<text text-anchor="middle" x="133.8423" y="-6.5" font-family="Helvetica,sans-Serif" font-size="10.00" fill="#000000">ARX/AR/config.h</text>
</g>
<!-- Node1&#45;&gt;Node6 -->
<g id="edge6" class="edge">
<title>Node1&#45;&gt;Node6</title>
<path fill="none" stroke="#191970" d="M365.394,-114.6297C327.7955,-108.6375 268.1388,-96.3889 220.8423,-74 194.3588,-61.4634 167.8796,-40.2888 151.2132,-25.6382"/>
<polygon fill="#191970" stroke="#191970" points="153.2202,-22.7359 143.4441,-18.6518 148.5395,-27.941 153.2202,-22.7359"/>
</g>
<!-- Node7 -->
<g id="node8" class="node">
<title>Node7</title>
<g id="a_node8"><a xlink:href="ar_config_8h.html" target="_top" xlink:title="ARX/AR/arConfig.h">
<polygon fill="#ffffff" stroke="#000000" points="429.7686,-55.5 429.7686,-73.5 531.916,-73.5 531.916,-55.5 429.7686,-55.5"/>
<text text-anchor="middle" x="480.8423" y="-61.5" font-family="Helvetica,sans-Serif" font-size="10.00" fill="#000000">ARX/AR/arConfig.h</text>
</a>
</g>
</g>
<!-- Node1&#45;&gt;Node7 -->
<g id="edge7" class="edge">
<title>Node1&#45;&gt;Node7</title>
<path fill="none" stroke="#191970" d="M414.8875,-110.4179C427.0092,-101.9788 445.2823,-89.257 459.523,-79.3426"/>
<polygon fill="#191970" stroke="#191970" points="461.5705,-82.1818 467.7777,-73.5956 457.5709,-76.4369 461.5705,-82.1818"/>
</g>
<!-- Node8 -->
<g id="node9" class="node">
<title>Node8</title>
<g id="a_node9"><a xlink:href="log_8h.html" target="_top" xlink:title="Logging utilities. ">
<polygon fill="#ffffff" stroke="#000000" points="735.7734,-55.5 735.7734,-73.5 827.9111,-73.5 827.9111,-55.5 735.7734,-55.5"/>
<text text-anchor="middle" x="781.8423" y="-61.5" font-family="Helvetica,sans-Serif" font-size="10.00" fill="#000000">ARX/ARUtil/log.h</text>
</a>
</g>
</g>
<!-- Node1&#45;&gt;Node8 -->
<g id="edge8" class="edge">
<title>Node1&#45;&gt;Node8</title>
<path fill="none" stroke="#191970" d="M438.1985,-114.4044C509.9857,-104.3307 667.6687,-82.1396 721.8423,-74 723.1036,-73.8105 724.3796,-73.6177 725.6662,-73.4223"/>
<polygon fill="#191970" stroke="#191970" points="726.3131,-76.8641 735.6658,-71.8866 725.2504,-69.9452 726.3131,-76.8641"/>
</g>
<!-- Node12 -->
<g id="node13" class="node">
<title>Node12</title>
<g id="a_node13"><a xlink:href="matrix_8h.html" target="_top" xlink:title="ARX/AR/matrix.h">
<polygon fill="#ffffff" stroke="#000000" points="906.0566,-55.5 906.0566,-73.5 997.6279,-73.5 997.6279,-55.5 906.0566,-55.5"/>
<text text-anchor="middle" x="951.8423" y="-61.5" font-family="Helvetica,sans-Serif" font-size="10.00" fill="#000000">ARX/AR/matrix.h</text>
</a>
</g>
</g>
<!-- Node1&#45;&gt;Node12 -->
<g id="edge15" class="edge">
<title>Node1&#45;&gt;Node12</title>
<path fill="none" stroke="#191970" d="M438.506,-114.0719C448.6453,-112.6542 459.6604,-111.1912 469.8423,-110 551.0199,-100.5028 787.0249,-79.1769 895.7726,-69.4751"/>
<polygon fill="#191970" stroke="#191970" points="896.2401,-72.9474 905.8899,-68.5733 895.6186,-65.975 896.2401,-72.9474"/>
</g>
<!-- Node14 -->
<g id="node15" class="node">
<title>Node14</title>
<g id="a_node15"><a xlink:href="icp_8h.html" target="_top" xlink:title="ARX/AR/icp.h">
<polygon fill="#ffffff" stroke="#000000" points="230.2759,-55.5 230.2759,-73.5 307.4087,-73.5 307.4087,-55.5 230.2759,-55.5"/>
<text text-anchor="middle" x="268.8423" y="-61.5" font-family="Helvetica,sans-Serif" font-size="10.00" fill="#000000">ARX/AR/icp.h</text>
</a>
</g>
</g>
<!-- Node1&#45;&gt;Node14 -->
<g id="edge17" class="edge">
<title>Node1&#45;&gt;Node14</title>
<path fill="none" stroke="#191970" d="M379.88,-110.4179C358.1251,-101.4215 324.6009,-87.5581 300.0783,-77.4172"/>
<polygon fill="#191970" stroke="#191970" points="301.4157,-74.1828 290.8372,-73.5956 298.7406,-80.6515 301.4157,-74.1828"/>
</g>
<!-- Node16 -->
<g id="node17" class="node">
<title>Node16</title>
<g id="a_node17"><a xlink:href="param_8h.html" target="_top" xlink:title="artoolkitX functions for handling calibrated camera parameters. ">
<polygon fill="#ffffff" stroke="#000000" points="549.4951,-55.5 549.4951,-73.5 642.1895,-73.5 642.1895,-55.5 549.4951,-55.5"/>
<text text-anchor="middle" x="595.8423" y="-61.5" font-family="Helvetica,sans-Serif" font-size="10.00" fill="#000000">ARX/AR/param.h</text>
</a>
</g>
</g>
<!-- Node1&#45;&gt;Node16 -->
<g id="edge20" class="edge">
<title>Node1&#45;&gt;Node16</title>
<path fill="none" stroke="#191970" d="M428.7111,-110.4179C459.8631,-101.0352 511.4766,-86.3586 549.1815,-76.1322"/>
<polygon fill="#191970" stroke="#191970" points="550.1873,-79.4861 558.9319,-73.5042 548.3656,-72.7273 550.1873,-79.4861"/>
</g>
<!-- Node17 -->
<g id="node18" class="node">
<title>Node17</title>
<g id="a_node18"><a xlink:href="ar_image_proc_8h.html" target="_top" xlink:title="artoolkitX functions for 2D luminance image processing. ">
<polygon fill="#ffffff" stroke="#000000" points="52.0444,-55.5 52.0444,-73.5 173.6401,-73.5 173.6401,-55.5 52.0444,-55.5"/>
<text text-anchor="middle" x="112.8423" y="-61.5" font-family="Helvetica,sans-Serif" font-size="10.00" fill="#000000">ARX/AR/arImageProc.h</text>
</a>
</g>
</g>
<!-- Node1&#45;&gt;Node17 -->
<g id="edge22" class="edge">
<title>Node1&#45;&gt;Node17</title>
<path fill="none" stroke="#191970" d="M365.3774,-113.4039C314.7428,-104.2749 223.134,-86.9103 165.221,-75.5207"/>
<polygon fill="#191970" stroke="#191970" points="165.6586,-72.0396 155.1701,-73.5369 164.303,-78.9071 165.6586,-72.0396"/>
</g>
<!-- Node8&#45;&gt;Node2 -->
<g id="edge9" class="edge">
<title>Node8&#45;&gt;Node2</title>
<path fill="none" stroke="#191970" d="M735.7485,-55.9063C675.865,-44.7415 572.76,-25.5186 520.0201,-15.6857"/>
<polygon fill="#191970" stroke="#191970" points="520.3397,-12.185 509.8676,-13.7928 519.0567,-19.0665 520.3397,-12.185"/>
</g>
<!-- Node8&#45;&gt;Node3 -->
<g id="edge10" class="edge">
<title>Node8&#45;&gt;Node3</title>
<path fill="none" stroke="#191970" d="M735.4701,-61.0289C710.4149,-59.1808 678.9394,-56.9029 650.8423,-55 396.6993,-37.7878 331.8276,-48.7215 78.8423,-19 71.9883,-18.1948 64.6912,-17.1023 57.7279,-15.9448"/>
<polygon fill="#191970" stroke="#191970" points="58.3071,-12.4931 47.8554,-14.2282 57.1079,-19.3896 58.3071,-12.4931"/>
</g>
<!-- Node8&#45;&gt;Node5 -->
<g id="edge11" class="edge">
<title>Node8&#45;&gt;Node5</title>
<path fill="none" stroke="#191970" d="M763.678,-55.4179C746.0833,-46.6205 719.1805,-33.1691 699.0335,-23.0956"/>
<polygon fill="#191970" stroke="#191970" points="700.5431,-19.9373 690.0335,-18.5956 697.4125,-26.1983 700.5431,-19.9373"/>
</g>
<!-- Node9 -->
<g id="node10" class="node">
<title>Node9</title>
<polygon fill="#ffffff" stroke="#bfbfbf" points="713.7759,-.5 713.7759,-18.5 765.9087,-18.5 765.9087,-.5 713.7759,-.5"/>
<text text-anchor="middle" x="739.8423" y="-6.5" font-family="Helvetica,sans-Serif" font-size="10.00" fill="#000000">stdarg.h</text>
</g>
<!-- Node8&#45;&gt;Node9 -->
<g id="edge12" class="edge">
<title>Node8&#45;&gt;Node9</title>
<path fill="none" stroke="#191970" d="M774.9068,-55.4179C768.9845,-47.6624 760.3001,-36.29 753.0559,-26.8035"/>
<polygon fill="#191970" stroke="#191970" points="755.7793,-24.6029 746.9284,-18.7795 750.2159,-28.8514 755.7793,-24.6029"/>
</g>
<!-- Node10 -->
<g id="node11" class="node">
<title>Node10</title>
<polygon fill="#ffffff" stroke="#bfbfbf" points="784.1108,-.5 784.1108,-18.5 849.5737,-18.5 849.5737,-.5 784.1108,-.5"/>
<text text-anchor="middle" x="816.8423" y="-6.5" font-family="Helvetica,sans-Serif" font-size="10.00" fill="#000000">sys/errno.h</text>
</g>
<!-- Node8&#45;&gt;Node10 -->
<g id="edge13" class="edge">
<title>Node8&#45;&gt;Node10</title>
<path fill="none" stroke="#191970" d="M787.6218,-55.4179C792.4564,-47.8207 799.4997,-36.7527 805.4599,-27.3866"/>
<polygon fill="#191970" stroke="#191970" points="808.5212,-29.0952 810.9372,-18.7795 802.6156,-25.337 808.5212,-29.0952"/>
</g>
<!-- Node11 -->
<g id="node12" class="node">
<title>Node11</title>
<g id="a_node12"><a xlink:href="types_8h.html" target="_top" xlink:title="ARX/ARUtil/types.h">
<polygon fill="#ffffff" stroke="#000000" points="867.4951,-.5 867.4951,-18.5 970.1895,-18.5 970.1895,-.5 867.4951,-.5"/>
<text text-anchor="middle" x="918.8423" y="-6.5" font-family="Helvetica,sans-Serif" font-size="10.00" fill="#000000">ARX/ARUtil/types.h</text>
</a>
</g>
</g>
<!-- Node8&#45;&gt;Node11 -->
<g id="edge14" class="edge">
<title>Node8&#45;&gt;Node11</title>
<path fill="none" stroke="#191970" d="M804.465,-55.4179C826.8743,-46.4215 861.4068,-32.5581 886.6668,-22.4172"/>
<polygon fill="#191970" stroke="#191970" points="888.2098,-25.5693 896.1859,-18.5956 885.6018,-19.0732 888.2098,-25.5693"/>
</g>
<!-- Node13 -->
<g id="node14" class="node">
<title>Node13</title>
<polygon fill="#ffffff" stroke="#bfbfbf" points="988.5566,-.5 988.5566,-18.5 1035.1279,-18.5 1035.1279,-.5 988.5566,-.5"/>
<text text-anchor="middle" x="1011.8423" y="-6.5" font-family="Helvetica,sans-Serif" font-size="10.00" fill="#000000">math.h</text>
</g>
<!-- Node12&#45;&gt;Node13 -->
<g id="edge16" class="edge">
<title>Node12&#45;&gt;Node13</title>
<path fill="none" stroke="#191970" d="M961.7501,-55.4179C970.5559,-47.3458 983.6362,-35.3556 994.2223,-25.6517"/>
<polygon fill="#191970" stroke="#191970" points="996.7127,-28.1168 1001.7192,-18.7795 991.9826,-22.9567 996.7127,-28.1168"/>
</g>
<!-- Node14&#45;&gt;Node2 -->
<g id="edge18" class="edge">
<title>Node14&#45;&gt;Node2</title>
<path fill="none" stroke="#191970" d="M304.8406,-55.4179C346.3367,-44.9487 413.9571,-27.8885 454.0486,-17.7736"/>
<polygon fill="#191970" stroke="#191970" points="455.0172,-21.139 463.8571,-15.299 453.3047,-14.3517 455.0172,-21.139"/>
</g>
<!-- Node15 -->
<g id="node16" class="node">
<title>Node15</title>
<g id="a_node16"><a xlink:href="icp_core_8h.html" target="_top" xlink:title="ARX/AR/icpCore.h">
<polygon fill="#ffffff" stroke="#000000" points="219.4385,-.5 219.4385,-18.5 318.2461,-18.5 318.2461,-.5 219.4385,-.5"/>
<text text-anchor="middle" x="268.8423" y="-6.5" font-family="Helvetica,sans-Serif" font-size="10.00" fill="#000000">ARX/AR/icpCore.h</text>
</a>
</g>
</g>
<!-- Node14&#45;&gt;Node15 -->
<g id="edge19" class="edge">
<title>Node14&#45;&gt;Node15</title>
<path fill="none" stroke="#191970" d="M268.8423,-55.4179C268.8423,-48.2164 268.8423,-37.8962 268.8423,-28.8632"/>
<polygon fill="#191970" stroke="#191970" points="272.3424,-28.7794 268.8423,-18.7795 265.3424,-28.7795 272.3424,-28.7794"/>
</g>
<!-- Node16&#45;&gt;Node1 -->
<g id="edge21" class="edge">
<title>Node16&#45;&gt;Node1</title>
<path fill="none" stroke="#191970" d="M569.0909,-73.5467C537.9087,-82.9407 486.1136,-97.6689 448.3478,-107.9099"/>
<polygon fill="#191970" stroke="#191970" points="447.3291,-104.5595 438.5842,-110.5409 449.1504,-111.3184 447.3291,-104.5595"/>
</g>
<!-- Node17&#45;&gt;Node1 -->
<g id="edge24" class="edge">
<title>Node17&#45;&gt;Node1</title>
<path fill="none" stroke="#191970" d="M165.3251,-73.5078C219.6126,-83.4446 303.4219,-99.3837 355.3862,-109.6464"/>
<polygon fill="#191970" stroke="#191970" points="354.8464,-113.1075 365.3362,-111.6198 356.2082,-106.2412 354.8464,-113.1075"/>
</g>
<!-- Node17&#45;&gt;Node6 -->
<g id="edge23" class="edge">
<title>Node17&#45;&gt;Node6</title>
<path fill="none" stroke="#191970" d="M116.31,-55.4179C119.1201,-48.0581 123.1739,-37.441 126.6757,-28.2695"/>
<polygon fill="#191970" stroke="#191970" points="130.0019,-29.3701 130.2992,-18.7795 123.4624,-26.8732 130.0019,-29.3701"/>
</g>
<!-- Node18&#45;&gt;Node1 -->
<g id="edge28" class="edge">
<title>Node18&#45;&gt;Node1</title>
<path fill="none" stroke="#191970" d="M449.4299,-165.4179C441.1464,-157.425 428.8814,-145.5903 418.8778,-135.9377"/>
<polygon fill="#191970" stroke="#191970" points="421.0857,-133.2045 411.4592,-128.7795 416.2251,-138.2419 421.0857,-133.2045"/>
</g>
<!-- Node19 -->
<g id="node20" class="node">
<title>Node19</title>
<g id="a_node20"><a xlink:href="config_8h.html" target="_top" xlink:title="ARX/AR2/config.h">
<polygon fill="#ffffff" stroke="#000000" points="478.5444,-110.5 478.5444,-128.5 575.1401,-128.5 575.1401,-110.5 478.5444,-110.5"/>
<text text-anchor="middle" x="526.8423" y="-116.5" font-family="Helvetica,sans-Serif" font-size="10.00" fill="#000000">ARX/AR2/config.h</text>
</a>
</g>
</g>
<!-- Node18&#45;&gt;Node19 -->
<g id="edge29" class="edge">
<title>Node18&#45;&gt;Node19</title>
<path fill="none" stroke="#191970" d="M470.0711,-165.4179C480.2467,-157.1876 495.4586,-144.8839 507.5753,-135.0836"/>
<polygon fill="#191970" stroke="#191970" points="509.7954,-137.7895 515.3695,-128.7795 505.3933,-132.3469 509.7954,-137.7895"/>
</g>
<!-- Node20&#45;&gt;Node19 -->
<g id="edge31" class="edge">
<title>Node20&#45;&gt;Node19</title>
<path fill="none" stroke="#191970" d="M561.9068,-165.4179C555.9845,-157.6624 547.3001,-146.29 540.0559,-136.8035"/>
<polygon fill="#191970" stroke="#191970" points="542.7793,-134.6029 533.9284,-128.7795 537.2159,-138.8514 542.7793,-134.6029"/>
</g>
</g>
</svg>
