<?xml version="1.0" encoding="UTF-8" standalone="no"?>
<!DOCTYPE svg PUBLIC "-//W3C//DTD SVG 1.1//EN"
 "http://www.w3.org/Graphics/SVG/1.1/DTD/svg11.dtd">
<!-- Generated by graphviz version 8.0.5 (20230430.1635)
 -->
<!-- Title: Source/ARX/AR2/matching2.c Pages: 1 -->
<svg width="1038pt" height="414pt"
 viewBox="0.00 0.00 1037.50 414.00" xmlns="http://www.w3.org/2000/svg" xmlns:xlink="http://www.w3.org/1999/xlink">
<g id="graph0" class="graph" transform="scale(1 1) rotate(0) translate(4 410)">
<title>Source/ARX/AR2/matching2.c</title>
<!-- Node1 -->
<g id="node1" class="node">
<title>Node1</title>
<g id="a_node1"><a xlink:title=" ">
<polygon fill="#999999" stroke="#666666" points="394.75,-406 245.25,-406 245.25,-386.75 394.75,-386.75 394.75,-406"/>
<text text-anchor="middle" x="320" y="-392.5" font-family="Helvetica,sans-Serif" font-size="10.00">Source/ARX/AR2/matching2.c</text>
</a>
</g>
</g>
<!-- Node2 -->
<g id="node2" class="node">
<title>Node2</title>
<g id="a_node2"><a xlink:href="ar_8h.html" target="_top" xlink:title="artoolkitX core routines.">
<polygon fill="white" stroke="#666666" points="626.5,-129.75 553.5,-129.75 553.5,-110.5 626.5,-110.5 626.5,-129.75"/>
<text text-anchor="middle" x="590" y="-116.25" font-family="Helvetica,sans-Serif" font-size="10.00">ARX/AR/ar.h</text>
</a>
</g>
</g>
<!-- Node1&#45;&gt;Node2 -->
<g id="edge1" class="edge">
<title>Node1&#45;&gt;Node2</title>
<path fill="none" stroke="#63b8ff" d="M320.49,-386.58C322.49,-358.83 332.21,-271.95 377,-221 420.75,-171.23 494.59,-144.43 542.81,-131.48"/>
<polygon fill="#63b8ff" stroke="#63b8ff" points="543.48,-134.66 552.29,-128.77 541.73,-127.88 543.48,-134.66"/>
</g>
<!-- Node3 -->
<g id="node3" class="node">
<title>Node3</title>
<g id="a_node3"><a xlink:title=" ">
<polygon fill="#e0e0e0" stroke="#999999" points="304.62,-19.25 259.38,-19.25 259.38,0 304.62,0 304.62,-19.25"/>
<text text-anchor="middle" x="282" y="-5.75" font-family="Helvetica,sans-Serif" font-size="10.00">stdio.h</text>
</a>
</g>
</g>
<!-- Node1&#45;&gt;Node3 -->
<g id="edge25" class="edge">
<title>Node1&#45;&gt;Node3</title>
<path fill="none" stroke="#63b8ff" d="M271.17,-386.3C220.32,-373.7 148,-345.48 148,-286.88 148,-286.88 148,-286.88 148,-119.12 148,-89.51 146.92,-77.02 167,-55.25 178.38,-42.91 218.94,-28.95 248.68,-19.98"/>
<polygon fill="#63b8ff" stroke="#63b8ff" points="249.47,-23.1 258.07,-16.92 247.49,-16.39 249.47,-23.1"/>
</g>
<!-- Node4 -->
<g id="node4" class="node">
<title>Node4</title>
<g id="a_node4"><a xlink:title=" ">
<polygon fill="#e0e0e0" stroke="#999999" points="458.75,-19.25 411.25,-19.25 411.25,0 458.75,0 458.75,-19.25"/>
<text text-anchor="middle" x="435" y="-5.75" font-family="Helvetica,sans-Serif" font-size="10.00">stdlib.h</text>
</a>
</g>
</g>
<!-- Node1&#45;&gt;Node4 -->
<g id="edge26" class="edge">
<title>Node1&#45;&gt;Node4</title>
<path fill="none" stroke="#63b8ff" d="M314.56,-386.46C304.05,-368.38 282,-325.79 282,-286.88 282,-286.88 282,-286.88 282,-229.62 282,-143.98 307.23,-119.37 364,-55.25 375.26,-42.53 391.01,-32.14 404.81,-24.59"/>
<polygon fill="#63b8ff" stroke="#63b8ff" points="406.16,-27.31 413.42,-19.6 402.93,-21.1 406.16,-27.31"/>
</g>
<!-- Node14 -->
<g id="node14" class="node">
<title>Node14</title>
<g id="a_node14"><a xlink:title=" ">
<polygon fill="#e0e0e0" stroke="#999999" points="60,-19.25 14,-19.25 14,0 60,0 60,-19.25"/>
<text text-anchor="middle" x="37" y="-5.75" font-family="Helvetica,sans-Serif" font-size="10.00">math.h</text>
</a>
</g>
</g>
<!-- Node1&#45;&gt;Node14 -->
<g id="edge27" class="edge">
<title>Node1&#45;&gt;Node14</title>
<path fill="none" stroke="#63b8ff" d="M251.74,-386.26C157.76,-371.77 0,-339.6 0,-286.88 0,-286.88 0,-286.88 0,-119.12 0,-86.08 15.57,-50.25 26.51,-29.16"/>
<polygon fill="#63b8ff" stroke="#63b8ff" points="30.02,-31.02 31.7,-20.56 23.86,-27.69 30.02,-31.02"/>
</g>
<!-- Node19 -->
<g id="node19" class="node">
<title>Node19</title>
<g id="a_node19"><a xlink:href="tracking_8h.html" target="_top" xlink:title=" ">
<polygon fill="white" stroke="#666666" points="613.62,-350.75 508.38,-350.75 508.38,-331.5 613.62,-331.5 613.62,-350.75"/>
<text text-anchor="middle" x="561" y="-337.25" font-family="Helvetica,sans-Serif" font-size="10.00">ARX/AR2/tracking.h</text>
</a>
</g>
</g>
<!-- Node1&#45;&gt;Node19 -->
<g id="edge28" class="edge">
<title>Node1&#45;&gt;Node19</title>
<path fill="none" stroke="#63b8ff" d="M361.16,-386.28C402.14,-377.23 465.17,-363.3 509.46,-353.51"/>
<polygon fill="#63b8ff" stroke="#63b8ff" points="510,-356.76 519.01,-351.18 508.49,-349.92 510,-356.76"/>
</g>
<!-- Node21 -->
<g id="node21" class="node">
<title>Node21</title>
<g id="a_node21"><a xlink:href="config_8h.html" target="_top" xlink:title=" ">
<polygon fill="white" stroke="#666666" points="850.5,-129.75 753.5,-129.75 753.5,-110.5 850.5,-110.5 850.5,-129.75"/>
<text text-anchor="middle" x="802" y="-116.25" font-family="Helvetica,sans-Serif" font-size="10.00">ARX/AR2/config.h</text>
</a>
</g>
</g>
<!-- Node1&#45;&gt;Node21 -->
<g id="edge47" class="edge">
<title>Node1&#45;&gt;Node21</title>
<path fill="none" stroke="#63b8ff" d="M394.97,-389.64C556.73,-376.27 924,-340.04 924,-286.88 924,-286.88 924,-286.88 924,-229.62 924,-182.47 872.48,-150.78 836.4,-134.37"/>
<polygon fill="#63b8ff" stroke="#63b8ff" points="838.25,-130.93 827.69,-130.15 835.46,-137.35 838.25,-130.93"/>
</g>
<!-- Node24 -->
<g id="node24" class="node">
<title>Node24</title>
<g id="a_node24"><a xlink:href="template_8h.html" target="_top" xlink:title=" ">
<polygon fill="white" stroke="#666666" points="850.12,-295.5 741.88,-295.5 741.88,-276.25 850.12,-276.25 850.12,-295.5"/>
<text text-anchor="middle" x="796" y="-282" font-family="Helvetica,sans-Serif" font-size="10.00">ARX/AR2/template.h</text>
</a>
</g>
</g>
<!-- Node1&#45;&gt;Node24 -->
<g id="edge48" class="edge">
<title>Node1&#45;&gt;Node24</title>
<path fill="none" stroke="#63b8ff" d="M394.94,-388.71C456.79,-382.17 546.49,-370.28 623,-350.75 674.45,-337.62 731.84,-314.69 765.89,-300.17"/>
<polygon fill="#63b8ff" stroke="#63b8ff" points="766.87,-303.13 774.67,-295.96 764.1,-296.7 766.87,-303.13"/>
</g>
<!-- Node2&#45;&gt;Node3 -->
<g id="edge2" class="edge">
<title>Node2&#45;&gt;Node3</title>
<path fill="none" stroke="#63b8ff" d="M553.3,-115.77C509.81,-110.82 435.83,-99.32 377,-74.5 348.18,-62.34 318.88,-40.98 300.59,-26.34"/>
<polygon fill="#63b8ff" stroke="#63b8ff" points="303.28,-23.19 293.32,-19.57 298.84,-28.61 303.28,-23.19"/>
</g>
<!-- Node2&#45;&gt;Node4 -->
<g id="edge3" class="edge">
<title>Node2&#45;&gt;Node4</title>
<path fill="none" stroke="#63b8ff" d="M577.05,-110.06C550.43,-91.43 489.31,-48.65 456.6,-25.75"/>
<polygon fill="#63b8ff" stroke="#63b8ff" points="459,-22.45 448.8,-19.59 454.99,-28.19 459,-22.45"/>
</g>
<!-- Node5 -->
<g id="node5" class="node">
<title>Node5</title>
<g id="a_node5"><a xlink:title=" ">
<polygon fill="#e0e0e0" stroke="#999999" points="852.12,-74.5 803.88,-74.5 803.88,-55.25 852.12,-55.25 852.12,-74.5"/>
<text text-anchor="middle" x="828" y="-61" font-family="Helvetica,sans-Serif" font-size="10.00">stdint.h</text>
</a>
</g>
</g>
<!-- Node2&#45;&gt;Node5 -->
<g id="edge4" class="edge">
<title>Node2&#45;&gt;Node5</title>
<path fill="none" stroke="#63b8ff" d="M626.87,-110.94C667.01,-102.02 733.08,-87.31 790,-74.5 790.95,-74.29 791.92,-74.07 792.89,-73.85"/>
<polygon fill="#63b8ff" stroke="#63b8ff" points="793.49,-77.08 802.47,-71.46 791.95,-70.25 793.49,-77.08"/>
</g>
<!-- Node6 -->
<g id="node6" class="node">
<title>Node6</title>
<g id="a_node6"><a xlink:title=" ">
<polygon fill="#e0e0e0" stroke="#999999" points="800.12,-19.25 751.88,-19.25 751.88,0 800.12,0 800.12,-19.25"/>
<text text-anchor="middle" x="776" y="-5.75" font-family="Helvetica,sans-Serif" font-size="10.00">string.h</text>
</a>
</g>
</g>
<!-- Node2&#45;&gt;Node6 -->
<g id="edge5" class="edge">
<title>Node2&#45;&gt;Node6</title>
<path fill="none" stroke="#63b8ff" d="M626.91,-119.2C664.53,-117.26 722.14,-108.39 757,-74.5 768.92,-62.91 773.45,-44.19 775.12,-30.01"/>
<polygon fill="#63b8ff" stroke="#63b8ff" points="778.66,-30.66 775.96,-20.42 771.68,-30.11 778.66,-30.66"/>
</g>
<!-- Node7 -->
<g id="node7" class="node">
<title>Node7</title>
<g id="a_node7"><a xlink:title=" ">
<polygon fill="#e0e0e0" stroke="#999999" points="969.88,-19.25 878.12,-19.25 878.12,0 969.88,0 969.88,-19.25"/>
<text text-anchor="middle" x="924" y="-5.75" font-family="Helvetica,sans-Serif" font-size="10.00">ARX/AR/config.h</text>
</a>
</g>
</g>
<!-- Node2&#45;&gt;Node7 -->
<g id="edge6" class="edge">
<title>Node2&#45;&gt;Node7</title>
<path fill="none" stroke="#63b8ff" d="M626.98,-115.88C691.32,-109.78 820.83,-95.3 861,-74.5 882.1,-63.57 900.43,-42.98 911.79,-28.13"/>
<polygon fill="#63b8ff" stroke="#63b8ff" points="915.13,-30.49 918.22,-20.35 909.49,-26.36 915.13,-30.49"/>
</g>
<!-- Node8 -->
<g id="node8" class="node">
<title>Node8</title>
<g id="a_node8"><a xlink:href="ar_config_8h.html" target="_top" xlink:title=" ">
<polygon fill="white" stroke="#666666" points="488.12,-74.5 385.88,-74.5 385.88,-55.25 488.12,-55.25 488.12,-74.5"/>
<text text-anchor="middle" x="437" y="-61" font-family="Helvetica,sans-Serif" font-size="10.00">ARX/AR/arConfig.h</text>
</a>
</g>
</g>
<!-- Node2&#45;&gt;Node8 -->
<g id="edge7" class="edge">
<title>Node2&#45;&gt;Node8</title>
<path fill="none" stroke="#63b8ff" d="M564.05,-110.09C539.1,-101.41 501.17,-88.21 473.25,-78.49"/>
<polygon fill="#63b8ff" stroke="#63b8ff" points="474.68,-74.93 464.08,-74.95 472.38,-81.55 474.68,-74.93"/>
</g>
<!-- Node9 -->
<g id="node9" class="node">
<title>Node9</title>
<g id="a_node9"><a xlink:href="log_8h.html" target="_top" xlink:title="Logging utilities.">
<polygon fill="white" stroke="#666666" points="747.62,-74.5 654.38,-74.5 654.38,-55.25 747.62,-55.25 747.62,-74.5"/>
<text text-anchor="middle" x="701" y="-61" font-family="Helvetica,sans-Serif" font-size="10.00">ARX/ARUtil/log.h</text>
</a>
</g>
</g>
<!-- Node2&#45;&gt;Node9 -->
<g id="edge8" class="edge">
<title>Node2&#45;&gt;Node9</title>
<path fill="none" stroke="#63b8ff" d="M608.83,-110.09C626.21,-101.75 652.28,-89.25 672.26,-79.66"/>
<polygon fill="#63b8ff" stroke="#63b8ff" points="673.58,-82.43 681.08,-74.95 670.55,-76.12 673.58,-82.43"/>
</g>
<!-- Node13 -->
<g id="node13" class="node">
<title>Node13</title>
<g id="a_node13"><a xlink:href="matrix_8h.html" target="_top" xlink:title=" ">
<polygon fill="white" stroke="#666666" points="120.25,-74.5 27.75,-74.5 27.75,-55.25 120.25,-55.25 120.25,-74.5"/>
<text text-anchor="middle" x="74" y="-61" font-family="Helvetica,sans-Serif" font-size="10.00">ARX/AR/matrix.h</text>
</a>
</g>
</g>
<!-- Node2&#45;&gt;Node13 -->
<g id="edge15" class="edge">
<title>Node2&#45;&gt;Node13</title>
<path fill="none" stroke="#63b8ff" d="M553.3,-115.34C464.69,-106.19 238.46,-82.85 131.58,-71.82"/>
<polygon fill="#63b8ff" stroke="#63b8ff" points="132,-68.24 121.69,-70.69 131.28,-75.2 132,-68.24"/>
</g>
<!-- Node15 -->
<g id="node15" class="node">
<title>Node15</title>
<g id="a_node15"><a xlink:href="icp_8h.html" target="_top" xlink:title=" ">
<polygon fill="white" stroke="#666666" points="254.12,-74.5 175.88,-74.5 175.88,-55.25 254.12,-55.25 254.12,-74.5"/>
<text text-anchor="middle" x="215" y="-61" font-family="Helvetica,sans-Serif" font-size="10.00">ARX/AR/icp.h</text>
</a>
</g>
</g>
<!-- Node2&#45;&gt;Node15 -->
<g id="edge17" class="edge">
<title>Node2&#45;&gt;Node15</title>
<path fill="none" stroke="#63b8ff" d="M553.26,-114.32C493.43,-106.43 371.24,-90.05 268,-74.5 267.03,-74.35 266.05,-74.21 265.07,-74.06"/>
<polygon fill="#63b8ff" stroke="#63b8ff" points="265.77,-70.47 255.35,-72.38 264.69,-77.38 265.77,-70.47"/>
</g>
<!-- Node17 -->
<g id="node17" class="node">
<title>Node17</title>
<g id="a_node17"><a xlink:href="param_8h.html" target="_top" xlink:title="artoolkitX functions for handling calibrated camera parameters.">
<polygon fill="white" stroke="#666666" points="636.25,-74.5 543.75,-74.5 543.75,-55.25 636.25,-55.25 636.25,-74.5"/>
<text text-anchor="middle" x="590" y="-61" font-family="Helvetica,sans-Serif" font-size="10.00">ARX/AR/param.h</text>
</a>
</g>
</g>
<!-- Node2&#45;&gt;Node17 -->
<g id="edge20" class="edge">
<title>Node2&#45;&gt;Node17</title>
<path fill="none" stroke="#63b8ff" d="M584.83,-110.33C583.39,-103.59 582.93,-94.02 583.46,-85.49"/>
<polygon fill="#63b8ff" stroke="#63b8ff" points="587.02,-86.22 584.79,-75.86 580.08,-85.35 587.02,-86.22"/>
</g>
<!-- Node18 -->
<g id="node18" class="node">
<title>Node18</title>
<g id="a_node18"><a xlink:href="ar_image_proc_8h.html" target="_top" xlink:title="artoolkitX functions for 2D luminance image processing.">
<polygon fill="white" stroke="#666666" points="1029.5,-74.5 908.5,-74.5 908.5,-55.25 1029.5,-55.25 1029.5,-74.5"/>
<text text-anchor="middle" x="969" y="-61" font-family="Helvetica,sans-Serif" font-size="10.00">ARX/AR/arImageProc.h</text>
</a>
</g>
</g>
<!-- Node2&#45;&gt;Node18 -->
<g id="edge22" class="edge">
<title>Node2&#45;&gt;Node18</title>
<path fill="none" stroke="#63b8ff" d="M626.88,-113.32C689.44,-104.14 817.06,-86.17 897.57,-75.17"/>
<polygon fill="#63b8ff" stroke="#63b8ff" points="897.68,-78.55 907.12,-73.73 896.73,-71.62 897.68,-78.55"/>
</g>
<!-- Node9&#45;&gt;Node3 -->
<g id="edge9" class="edge">
<title>Node9&#45;&gt;Node3</title>
<path fill="none" stroke="#63b8ff" d="M653.96,-56.52C650.93,-56.08 647.92,-55.65 645,-55.25 523.96,-38.49 379.77,-21.71 315.63,-14.41"/>
<polygon fill="#63b8ff" stroke="#63b8ff" points="316.3,-10.85 305.97,-13.2 315.51,-17.81 316.3,-10.85"/>
</g>
<!-- Node9&#45;&gt;Node4 -->
<g id="edge10" class="edge">
<title>Node9&#45;&gt;Node4</title>
<path fill="none" stroke="#63b8ff" d="M653.95,-55.81C609.06,-47.9 539.3,-35.07 469.8,-19.54"/>
<polygon fill="#63b8ff" stroke="#63b8ff" points="470.63,-15.91 460.11,-17.12 469.09,-22.74 470.63,-15.91"/>
</g>
<!-- Node9&#45;&gt;Node6 -->
<g id="edge11" class="edge">
<title>Node9&#45;&gt;Node6</title>
<path fill="none" stroke="#63b8ff" d="M713.72,-54.84C724.82,-46.96 741.16,-35.36 754.32,-26.02"/>
<polygon fill="#63b8ff" stroke="#63b8ff" points="756.09,-28.35 762.21,-19.7 752.03,-22.64 756.09,-28.35"/>
</g>
<!-- Node10 -->
<g id="node10" class="node">
<title>Node10</title>
<g id="a_node10"><a xlink:title=" ">
<polygon fill="#e0e0e0" stroke="#999999" points="650.62,-19.25 599.38,-19.25 599.38,0 650.62,0 650.62,-19.25"/>
<text text-anchor="middle" x="625" y="-5.75" font-family="Helvetica,sans-Serif" font-size="10.00">stdarg.h</text>
</a>
</g>
</g>
<!-- Node9&#45;&gt;Node10 -->
<g id="edge12" class="edge">
<title>Node9&#45;&gt;Node10</title>
<path fill="none" stroke="#63b8ff" d="M688.11,-54.84C676.75,-46.89 659.98,-35.14 646.59,-25.75"/>
<polygon fill="#63b8ff" stroke="#63b8ff" points="649.15,-22.57 638.96,-19.7 645.14,-28.31 649.15,-22.57"/>
</g>
<!-- Node11 -->
<g id="node11" class="node">
<title>Node11</title>
<g id="a_node11"><a xlink:title=" ">
<polygon fill="#e0e0e0" stroke="#999999" points="733.38,-19.25 668.62,-19.25 668.62,0 733.38,0 733.38,-19.25"/>
<text text-anchor="middle" x="701" y="-5.75" font-family="Helvetica,sans-Serif" font-size="10.00">sys/errno.h</text>
</a>
</g>
</g>
<!-- Node9&#45;&gt;Node11 -->
<g id="edge13" class="edge">
<title>Node9&#45;&gt;Node11</title>
<path fill="none" stroke="#63b8ff" d="M701,-55.08C701,-48.42 701,-38.99 701,-30.53"/>
<polygon fill="#63b8ff" stroke="#63b8ff" points="704.5,-30.61 701,-20.61 697.5,-30.61 704.5,-30.61"/>
</g>
<!-- Node12 -->
<g id="node12" class="node">
<title>Node12</title>
<g id="a_node12"><a xlink:href="types_8h.html" target="_top" xlink:title=" ">
<polygon fill="white" stroke="#666666" points="581.25,-19.25 476.75,-19.25 476.75,0 581.25,0 581.25,-19.25"/>
<text text-anchor="middle" x="529" y="-5.75" font-family="Helvetica,sans-Serif" font-size="10.00">ARX/ARUtil/types.h</text>
</a>
</g>
</g>
<!-- Node9&#45;&gt;Node12 -->
<g id="edge14" class="edge">
<title>Node9&#45;&gt;Node12</title>
<path fill="none" stroke="#63b8ff" d="M671.82,-54.84C643.41,-46.04 600.01,-32.61 568.51,-22.86"/>
<polygon fill="#63b8ff" stroke="#63b8ff" points="569.91,-19.32 559.32,-19.7 567.84,-26 569.91,-19.32"/>
</g>
<!-- Node13&#45;&gt;Node14 -->
<g id="edge16" class="edge">
<title>Node13&#45;&gt;Node14</title>
<path fill="none" stroke="#63b8ff" d="M67.89,-55.08C62.89,-47.88 55.64,-37.46 49.43,-28.51"/>
<polygon fill="#63b8ff" stroke="#63b8ff" points="51.82,-26.82 43.24,-20.61 46.07,-30.82 51.82,-26.82"/>
</g>
<!-- Node15&#45;&gt;Node3 -->
<g id="edge18" class="edge">
<title>Node15&#45;&gt;Node3</title>
<path fill="none" stroke="#63b8ff" d="M226.37,-54.84C236.24,-46.99 250.77,-35.45 262.5,-26.12"/>
<polygon fill="#63b8ff" stroke="#63b8ff" points="264.15,-28.49 269.8,-19.52 259.8,-23.01 264.15,-28.49"/>
</g>
<!-- Node16 -->
<g id="node16" class="node">
<title>Node16</title>
<g id="a_node16"><a xlink:href="icp_core_8h.html" target="_top" xlink:title=" ">
<polygon fill="white" stroke="#666666" points="241.62,-19.25 142.38,-19.25 142.38,0 241.62,0 241.62,-19.25"/>
<text text-anchor="middle" x="192" y="-5.75" font-family="Helvetica,sans-Serif" font-size="10.00">ARX/AR/icpCore.h</text>
</a>
</g>
</g>
<!-- Node15&#45;&gt;Node16 -->
<g id="edge19" class="edge">
<title>Node15&#45;&gt;Node16</title>
<path fill="none" stroke="#63b8ff" d="M211.2,-55.08C208.22,-48.19 203.97,-38.34 200.22,-29.66"/>
<polygon fill="#63b8ff" stroke="#63b8ff" points="203.06,-28.4 195.88,-20.61 196.63,-31.18 203.06,-28.4"/>
</g>
<!-- Node17&#45;&gt;Node2 -->
<g id="edge21" class="edge">
<title>Node17&#45;&gt;Node2</title>
<path fill="none" stroke="#63b8ff" d="M595.21,-74.86C596.61,-81.58 597.06,-91.02 596.54,-99.46"/>
<polygon fill="#63b8ff" stroke="#63b8ff" points="592.95,-98.97 595.17,-109.33 599.89,-99.85 592.95,-98.97"/>
</g>
<!-- Node18&#45;&gt;Node2 -->
<g id="edge24" class="edge">
<title>Node18&#45;&gt;Node2</title>
<path fill="none" stroke="#63b8ff" d="M909.41,-74.98C834.21,-85.86 706.56,-103.76 637.54,-113.07"/>
<polygon fill="#63b8ff" stroke="#63b8ff" points="637.43,-109.69 627.98,-114.49 638.36,-116.63 637.43,-109.69"/>
</g>
<!-- Node18&#45;&gt;Node7 -->
<g id="edge23" class="edge">
<title>Node18&#45;&gt;Node7</title>
<path fill="none" stroke="#63b8ff" d="M961.57,-55.08C955.35,-47.73 946.3,-37.01 938.63,-27.94"/>
<polygon fill="#63b8ff" stroke="#63b8ff" points="940.72,-25.99 931.59,-20.61 935.37,-30.51 940.72,-25.99"/>
</g>
<!-- Node19&#45;&gt;Node2 -->
<g id="edge31" class="edge">
<title>Node19&#45;&gt;Node2</title>
<path fill="none" stroke="#63b8ff" d="M558.93,-331.19C554.09,-310.98 541.05,-260.49 523,-221 512.01,-196.96 487.12,-188.24 501,-165.75 510.47,-150.4 527.01,-140.15 543.28,-133.39"/>
<polygon fill="#63b8ff" stroke="#63b8ff" points="544.18,-136.42 552.31,-129.62 541.71,-129.87 544.18,-136.42"/>
</g>
<!-- Node19&#45;&gt;Node15 -->
<g id="edge32" class="edge">
<title>Node19&#45;&gt;Node15</title>
<path fill="none" stroke="#63b8ff" d="M539.23,-331.1C503.35,-315.63 430.42,-281.69 377,-240.25 314,-191.38 253.94,-117.12 228.17,-83.5"/>
<polygon fill="#63b8ff" stroke="#63b8ff" points="230.41,-81.65 221.58,-75.8 224.83,-85.88 230.41,-81.65"/>
</g>
<!-- Node20 -->
<g id="node20" class="node">
<title>Node20</title>
<g id="a_node20"><a xlink:href="thread__sub_8h.html" target="_top" xlink:title=" ">
<polygon fill="white" stroke="#666666" points="514.25,-240.25 385.75,-240.25 385.75,-221 514.25,-221 514.25,-240.25"/>
<text text-anchor="middle" x="450" y="-226.75" font-family="Helvetica,sans-Serif" font-size="10.00">ARX/ARUtil/thread_sub.h</text>
</a>
</g>
</g>
<!-- Node19&#45;&gt;Node20 -->
<g id="edge29" class="edge">
<title>Node19&#45;&gt;Node20</title>
<path fill="none" stroke="#63b8ff" d="M551.92,-331.25C533.3,-313.05 490.56,-271.27 466.76,-248.01"/>
<polygon fill="#63b8ff" stroke="#63b8ff" points="469.81,-246.11 460.21,-241.63 464.91,-251.12 469.81,-246.11"/>
</g>
<!-- Node19&#45;&gt;Node21 -->
<g id="edge33" class="edge">
<title>Node19&#45;&gt;Node21</title>
<path fill="none" stroke="#63b8ff" d="M565.61,-331.21C580.58,-303.12 630.52,-215.31 695,-165.75 713.62,-151.44 737.49,-140.9 757.96,-133.68"/>
<polygon fill="#63b8ff" stroke="#63b8ff" points="758.94,-136.7 767.3,-130.19 756.71,-130.07 758.94,-136.7"/>
</g>
<!-- Node22 -->
<g id="node22" class="node">
<title>Node22</title>
<g id="a_node22"><a xlink:href="feature_set_8h.html" target="_top" xlink:title=" ">
<polygon fill="white" stroke="#666666" points="857.88,-240.25 742.12,-240.25 742.12,-221 857.88,-221 857.88,-240.25"/>
<text text-anchor="middle" x="800" y="-226.75" font-family="Helvetica,sans-Serif" font-size="10.00">ARX/AR2/featureSet.h</text>
</a>
</g>
</g>
<!-- Node19&#45;&gt;Node22 -->
<g id="edge34" class="edge">
<title>Node19&#45;&gt;Node22</title>
<path fill="none" stroke="#63b8ff" d="M592.68,-331.04C619.21,-323 657.79,-310.26 690,-295.5 721.51,-281.06 755.74,-260.32 777.5,-246.43"/>
<polygon fill="#63b8ff" stroke="#63b8ff" points="779.06,-248.94 785.57,-240.57 775.27,-243.06 779.06,-248.94"/>
</g>
<!-- Node19&#45;&gt;Node24 -->
<g id="edge39" class="edge">
<title>Node19&#45;&gt;Node24</title>
<path fill="none" stroke="#63b8ff" d="M601.13,-331.03C641.01,-321.99 702.3,-308.11 745.47,-298.32"/>
<polygon fill="#63b8ff" stroke="#63b8ff" points="746.06,-301.55 755.03,-295.93 744.51,-294.73 746.06,-301.55"/>
</g>
<!-- Node25 -->
<g id="node25" class="node">
<title>Node25</title>
<g id="a_node25"><a xlink:href="marker_8h.html" target="_top" xlink:title=" ">
<polygon fill="white" stroke="#666666" points="610,-185 510,-185 510,-165.75 610,-165.75 610,-185"/>
<text text-anchor="middle" x="560" y="-171.5" font-family="Helvetica,sans-Serif" font-size="10.00">ARX/AR2/marker.h</text>
</a>
</g>
</g>
<!-- Node19&#45;&gt;Node25 -->
<g id="edge44" class="edge">
<title>Node19&#45;&gt;Node25</title>
<path fill="none" stroke="#63b8ff" d="M560.95,-331.32C560.79,-305.89 560.34,-231.85 560.12,-196.12"/>
<polygon fill="#63b8ff" stroke="#63b8ff" points="563.62,-196.2 560.05,-186.22 556.62,-196.24 563.62,-196.2"/>
</g>
<!-- Node20&#45;&gt;Node12 -->
<g id="edge30" class="edge">
<title>Node20&#45;&gt;Node12</title>
<path fill="none" stroke="#63b8ff" d="M440.58,-220.88C412.73,-193.98 335.3,-110.95 377,-55.25 388.03,-40.52 429.04,-29 465.69,-21.35"/>
<polygon fill="#63b8ff" stroke="#63b8ff" points="466.27,-24.61 475.39,-19.2 464.89,-17.74 466.27,-24.61"/>
</g>
<!-- Node22&#45;&gt;Node21 -->
<g id="edge35" class="edge">
<title>Node22&#45;&gt;Node21</title>
<path fill="none" stroke="#63b8ff" d="M806.86,-220.65C812.98,-212.04 821.5,-198.4 825,-185 829.13,-169.16 822.01,-151.71 814.63,-139.06"/>
<polygon fill="#63b8ff" stroke="#63b8ff" points="817.21,-137.59 808.87,-131.06 811.32,-141.37 817.21,-137.59"/>
</g>
<!-- Node23 -->
<g id="node23" class="node">
<title>Node23</title>
<g id="a_node23"><a xlink:href="image_set_8h.html" target="_top" xlink:title=" ">
<polygon fill="white" stroke="#666666" points="816,-185 704,-185 704,-165.75 816,-165.75 816,-185"/>
<text text-anchor="middle" x="760" y="-171.5" font-family="Helvetica,sans-Serif" font-size="10.00">ARX/AR2/imageSet.h</text>
</a>
</g>
</g>
<!-- Node22&#45;&gt;Node23 -->
<g id="edge36" class="edge">
<title>Node22&#45;&gt;Node23</title>
<path fill="none" stroke="#63b8ff" d="M793.39,-220.83C787.93,-213.55 779.99,-202.98 773.22,-193.98"/>
<polygon fill="#63b8ff" stroke="#63b8ff" points="775.55,-192.25 766.75,-186.36 769.96,-196.46 775.55,-192.25"/>
</g>
<!-- Node23&#45;&gt;Node2 -->
<g id="edge37" class="edge">
<title>Node23&#45;&gt;Node2</title>
<path fill="none" stroke="#63b8ff" d="M731.16,-165.34C703.2,-156.58 660.56,-143.23 629.46,-133.48"/>
<polygon fill="#63b8ff" stroke="#63b8ff" points="630.57,-129.85 619.98,-130.2 628.48,-136.53 630.57,-129.85"/>
</g>
<!-- Node23&#45;&gt;Node21 -->
<g id="edge38" class="edge">
<title>Node23&#45;&gt;Node21</title>
<path fill="none" stroke="#63b8ff" d="M766.94,-165.58C772.68,-158.3 781.01,-147.73 788.12,-138.73"/>
<polygon fill="#63b8ff" stroke="#63b8ff" points="791.47,-141.13 794.91,-131.11 785.97,-136.79 791.47,-141.13"/>
</g>
<!-- Node24&#45;&gt;Node2 -->
<g id="edge40" class="edge">
<title>Node24&#45;&gt;Node2</title>
<path fill="none" stroke="#63b8ff" d="M780.26,-275.78C765.76,-267.18 743.87,-253.65 726,-240.25 680.85,-206.39 632.03,-161.33 606.97,-137.51"/>
<polygon fill="#63b8ff" stroke="#63b8ff" points="609.79,-135.4 600.15,-131.02 604.95,-140.46 609.79,-135.4"/>
</g>
<!-- Node24&#45;&gt;Node21 -->
<g id="edge41" class="edge">
<title>Node24&#45;&gt;Node21</title>
<path fill="none" stroke="#63b8ff" d="M822.58,-275.76C838.55,-268.75 857.56,-257.33 867,-240.25 887.37,-203.38 847.59,-159.91 821.73,-137.04"/>
<polygon fill="#63b8ff" stroke="#63b8ff" points="824.49,-133.93 814.6,-130.11 819.94,-139.26 824.49,-133.93"/>
</g>
<!-- Node24&#45;&gt;Node22 -->
<g id="edge43" class="edge">
<title>Node24&#45;&gt;Node22</title>
<path fill="none" stroke="#63b8ff" d="M796.66,-276.08C797.16,-269.42 797.87,-259.99 798.5,-251.53"/>
<polygon fill="#63b8ff" stroke="#63b8ff" points="802.07,-251.84 799.33,-241.61 795.09,-251.32 802.07,-251.84"/>
</g>
<!-- Node24&#45;&gt;Node23 -->
<g id="edge42" class="edge">
<title>Node24&#45;&gt;Node23</title>
<path fill="none" stroke="#63b8ff" d="M773.91,-275.8C759.4,-268.53 741.56,-256.8 733,-240.25 725.08,-224.93 734.47,-206.76 744.29,-193.72"/>
<polygon fill="#63b8ff" stroke="#63b8ff" points="747.61,-196.19 751.27,-186.25 742.21,-191.74 747.61,-196.19"/>
</g>
<!-- Node25&#45;&gt;Node2 -->
<g id="edge45" class="edge">
<title>Node25&#45;&gt;Node2</title>
<path fill="none" stroke="#63b8ff" d="M564.95,-165.58C568.93,-158.53 574.64,-148.4 579.6,-139.58"/>
<polygon fill="#63b8ff" stroke="#63b8ff" points="583.08,-141.54 584.94,-131.11 576.98,-138.1 583.08,-141.54"/>
</g>
<!-- Node25&#45;&gt;Node21 -->
<g id="edge46" class="edge">
<title>Node25&#45;&gt;Node21</title>
<path fill="none" stroke="#63b8ff" d="M601.33,-165.28C642.48,-156.23 705.77,-142.3 750.25,-132.51"/>
<polygon fill="#63b8ff" stroke="#63b8ff" points="750.83,-135.75 759.84,-130.18 749.33,-128.91 750.83,-135.75"/>
</g>
</g>
</svg>
