<?xml version="1.0" encoding="UTF-8" standalone="no"?>
<!DOCTYPE svg PUBLIC "-//W3C//DTD SVG 1.1//EN"
 "http://www.w3.org/Graphics/SVG/1.1/DTD/svg11.dtd">
<!-- Generated by graphviz version 2.40.1 (20161225.0304)
 -->
<!-- Title: arMatrixInv Pages: 1 -->
<svg width="192pt" height="64pt"
 viewBox="0.00 0.00 192.14 64.00" xmlns="http://www.w3.org/2000/svg" xmlns:xlink="http://www.w3.org/1999/xlink">
<g id="graph0" class="graph" transform="scale(1 1) rotate(0) translate(4 60)">
<title>arMatrixInv</title>
<polygon fill="#ffffff" stroke="transparent" points="-4,4 -4,-60 188.1377,-60 188.1377,4 -4,4"/>
<!-- Node37 -->
<g id="node1" class="node">
<title>Node37</title>
<polygon fill="#bfbfbf" stroke="#000000" points="0,-18.5 0,-36.5 65.4531,-36.5 65.4531,-18.5 0,-18.5"/>
<text text-anchor="middle" x="32.7266" y="-24.5" font-family="Helvetica,sans-Serif" font-size="10.00" fill="#000000">arMatrixInv</text>
</g>
<!-- Node38 -->
<g id="node2" class="node">
<title>Node38</title>
<g id="a_node2"><a xlink:href="matrix_8h.html#ab4713153a247e78332e6ce6dde31d2f4" target="_top" xlink:title="arMatrixDup">
<polygon fill="#ffffff" stroke="#000000" points="107.5664,-37.5 107.5664,-55.5 178.0244,-55.5 178.0244,-37.5 107.5664,-37.5"/>
<text text-anchor="middle" x="142.7954" y="-43.5" font-family="Helvetica,sans-Serif" font-size="10.00" fill="#000000">arMatrixDup</text>
</a>
</g>
</g>
<!-- Node37&#45;&gt;Node38 -->
<g id="edge1" class="edge">
<title>Node37&#45;&gt;Node38</title>
<path fill="none" stroke="#191970" d="M65.7508,-33.2006C75.7322,-34.9236 86.8699,-36.8462 97.5061,-38.6822"/>
<polygon fill="#191970" stroke="#191970" points="97.0462,-42.1545 107.4958,-40.4066 98.2369,-35.2565 97.0462,-42.1545"/>
</g>
<!-- Node39 -->
<g id="node3" class="node">
<title>Node39</title>
<g id="a_node3"><a xlink:href="matrix_8h.html#a979db815d3f7ed81b0375ee39da3057a" target="_top" xlink:title="arMatrixSelfInv">
<polygon fill="#ffffff" stroke="#000000" points="101.4531,-.5 101.4531,-18.5 184.1377,-18.5 184.1377,-.5 101.4531,-.5"/>
<text text-anchor="middle" x="142.7954" y="-6.5" font-family="Helvetica,sans-Serif" font-size="10.00" fill="#000000">arMatrixSelfInv</text>
</a>
</g>
</g>
<!-- Node37&#45;&gt;Node39 -->
<g id="edge2" class="edge">
<title>Node37&#45;&gt;Node39</title>
<path fill="none" stroke="#191970" d="M65.7508,-22.0994C73.7612,-20.7894 82.5164,-19.3577 91.1595,-17.9442"/>
<polygon fill="#191970" stroke="#191970" points="91.8987,-21.3699 101.2027,-16.3018 90.7689,-14.4617 91.8987,-21.3699"/>
</g>
</g>
</svg>
