<?xml version="1.0" encoding="UTF-8" standalone="no"?>
<!DOCTYPE svg PUBLIC "-//W3C//DTD SVG 1.1//EN"
 "http://www.w3.org/Graphics/SVG/1.1/DTD/svg11.dtd">
<!-- Generated by graphviz version 7.0.5 (20221223.1930)
 -->
<!-- Title: arVecTridiagonalize Pages: 1 -->
<svg width="367pt" height="46pt"
 viewBox="0.00 0.00 367.00 46.00" xmlns="http://www.w3.org/2000/svg" xmlns:xlink="http://www.w3.org/1999/xlink">
<g id="graph0" class="graph" transform="scale(1 1) rotate(0) translate(4 42)">
<title>arVecTridiagonalize</title>
<!-- Node1 -->
<g id="node1" class="node">
<title>Node1</title>
<g id="a_node1"><a xlink:title=" ">
<polygon fill="#999999" stroke="#666666" points="102,-19 0,-19 0,0 102,0 102,-19"/>
<text text-anchor="middle" x="51" y="-7" font-family="Helvetica,sans-Serif" font-size="10.00">arVecTridiagonalize</text>
</a>
</g>
</g>
<!-- Node2 -->
<g id="node2" class="node">
<title>Node2</title>
<g id="a_node2"><a xlink:href="v_house_8c.html#a22c1accf34e23812321b7f9e844fbbb8" target="_top" xlink:title=" ">
<polygon fill="white" stroke="#666666" points="227,-38 138,-38 138,-19 227,-19 227,-38"/>
<text text-anchor="middle" x="182.5" y="-26" font-family="Helvetica,sans-Serif" font-size="10.00">arVecHousehold</text>
</a>
</g>
</g>
<!-- Node1&#45;&gt;Node2 -->
<g id="edge1" class="edge">
<title>Node1&#45;&gt;Node2</title>
<path fill="none" stroke="#63b8ff" d="M102.44,-16.9C110.36,-18.06 118.57,-19.27 126.58,-20.44"/>
<polygon fill="#63b8ff" stroke="#63b8ff" points="125.82,-23.87 136.22,-21.86 126.84,-16.94 125.82,-23.87"/>
</g>
<!-- Node3 -->
<g id="node3" class="node">
<title>Node3</title>
<g id="a_node3"><a xlink:href="v_inner_p_8c.html#ad8f6d1df45e917e283188c5b1a40e4ff" target="_top" xlink:title=" ">
<polygon fill="white" stroke="#666666" points="359,-19 263,-19 263,0 359,0 359,-19"/>
<text text-anchor="middle" x="311" y="-7" font-family="Helvetica,sans-Serif" font-size="10.00">arVecInnerproduct</text>
</a>
</g>
</g>
<!-- Node1&#45;&gt;Node3 -->
<g id="edge3" class="edge">
<title>Node1&#45;&gt;Node3</title>
<path fill="none" stroke="#63b8ff" d="M102.36,-9.5C145.12,-9.5 206.53,-9.5 251.47,-9.5"/>
<polygon fill="#63b8ff" stroke="#63b8ff" points="251.3,-13 261.3,-9.5 251.3,-6 251.3,-13"/>
</g>
<!-- Node2&#45;&gt;Node3 -->
<g id="edge2" class="edge">
<title>Node2&#45;&gt;Node3</title>
<path fill="none" stroke="#63b8ff" d="M227.39,-21.91C235.15,-20.74 243.34,-19.51 251.43,-18.3"/>
<polygon fill="#63b8ff" stroke="#63b8ff" points="251.87,-21.77 261.24,-16.82 250.83,-14.85 251.87,-21.77"/>
</g>
</g>
</svg>
