<?xml version="1.0" encoding="UTF-8" standalone="no"?>
<!DOCTYPE svg PUBLIC "-//W3C//DTD SVG 1.1//EN"
 "http://www.w3.org/Graphics/SVG/1.1/DTD/svg11.dtd">
<!-- Generated by graphviz version 7.0.5 (20221223.1930)
 -->
<!-- Title: arMatrixAllocInv Pages: 1 -->
<svg width="324pt" height="119pt"
 viewBox="0.00 0.00 324.00 119.00" xmlns="http://www.w3.org/2000/svg" xmlns:xlink="http://www.w3.org/1999/xlink">
<g id="graph0" class="graph" transform="scale(1 1) rotate(0) translate(4 115)">
<title>arMatrixAllocInv</title>
<!-- Node1 -->
<g id="node1" class="node">
<title>Node1</title>
<g id="a_node1"><a xlink:title=" ">
<polygon fill="#999999" stroke="#666666" points="87,-74 0,-74 0,-55 87,-55 87,-74"/>
<text text-anchor="middle" x="43.5" y="-62" font-family="Helvetica,sans-Serif" font-size="10.00">arMatrixAllocInv</text>
</a>
</g>
</g>
<!-- Node2 -->
<g id="node2" class="node">
<title>Node2</title>
<g id="a_node2"><a xlink:href="m_alloc_8c.html#a69c9a974dc5a3963148ebb2c4a80f969" target="_top" xlink:title=" ">
<polygon fill="white" stroke="#666666" points="197,-111 123,-111 123,-92 197,-92 197,-111"/>
<text text-anchor="middle" x="160" y="-99" font-family="Helvetica,sans-Serif" font-size="10.00">arMatrixAlloc</text>
</a>
</g>
</g>
<!-- Node1&#45;&gt;Node2 -->
<g id="edge1" class="edge">
<title>Node1&#45;&gt;Node2</title>
<path fill="none" stroke="#63b8ff" d="M75.18,-74.42C88.15,-78.6 103.44,-83.55 117.4,-88.06"/>
<polygon fill="#63b8ff" stroke="#63b8ff" points="116.2,-91.35 126.79,-91.09 118.35,-84.69 116.2,-91.35"/>
</g>
<!-- Node3 -->
<g id="node3" class="node">
<title>Node3</title>
<g id="a_node3"><a xlink:href="m_free_8c.html#ac4b7a714cce9fffda773d86363380454" target="_top" xlink:title=" ">
<polygon fill="white" stroke="#666666" points="195.5,-74 124.5,-74 124.5,-55 195.5,-55 195.5,-74"/>
<text text-anchor="middle" x="160" y="-62" font-family="Helvetica,sans-Serif" font-size="10.00">arMatrixFree</text>
</a>
</g>
</g>
<!-- Node1&#45;&gt;Node3 -->
<g id="edge2" class="edge">
<title>Node1&#45;&gt;Node3</title>
<path fill="none" stroke="#63b8ff" d="M87.46,-64.5C95.66,-64.5 104.27,-64.5 112.57,-64.5"/>
<polygon fill="#63b8ff" stroke="#63b8ff" points="112.5,-68 122.5,-64.5 112.5,-61 112.5,-68"/>
</g>
<!-- Node4 -->
<g id="node4" class="node">
<title>Node4</title>
<g id="a_node4"><a xlink:href="m_inv_8c.html#abebae87acb77ccf8cd0c5da106238a86" target="_top" xlink:title=" ">
<polygon fill="white" stroke="#666666" points="192.5,-37 127.5,-37 127.5,-18 192.5,-18 192.5,-37"/>
<text text-anchor="middle" x="160" y="-25" font-family="Helvetica,sans-Serif" font-size="10.00">arMatrixInv</text>
</a>
</g>
</g>
<!-- Node1&#45;&gt;Node4 -->
<g id="edge3" class="edge">
<title>Node1&#45;&gt;Node4</title>
<path fill="none" stroke="#63b8ff" d="M75.18,-54.58C88.15,-50.4 103.44,-45.45 117.4,-40.94"/>
<polygon fill="#63b8ff" stroke="#63b8ff" points="118.35,-44.31 126.79,-37.91 116.2,-37.65 118.35,-44.31"/>
</g>
<!-- Node5 -->
<g id="node5" class="node">
<title>Node5</title>
<g id="a_node5"><a xlink:href="m_dup_8c.html#a988e4c76394edccbf1e86005b97f725a" target="_top" xlink:title=" ">
<polygon fill="white" stroke="#666666" points="309.5,-56 239.5,-56 239.5,-37 309.5,-37 309.5,-56"/>
<text text-anchor="middle" x="274.5" y="-44" font-family="Helvetica,sans-Serif" font-size="10.00">arMatrixDup</text>
</a>
</g>
</g>
<!-- Node4&#45;&gt;Node5 -->
<g id="edge4" class="edge">
<title>Node4&#45;&gt;Node5</title>
<path fill="none" stroke="#63b8ff" d="M192.94,-32.89C203.87,-34.74 216.31,-36.84 228.1,-38.83"/>
<polygon fill="#63b8ff" stroke="#63b8ff" points="227.18,-42.23 237.63,-40.44 228.35,-35.33 227.18,-42.23"/>
</g>
<!-- Node6 -->
<g id="node6" class="node">
<title>Node6</title>
<g id="a_node6"><a xlink:href="m_self_inv_8c.html#a929738025b539a0c1bbd2f395ad4d981" target="_top" xlink:title=" ">
<polygon fill="white" stroke="#666666" points="316,-19 233,-19 233,0 316,0 316,-19"/>
<text text-anchor="middle" x="274.5" y="-7" font-family="Helvetica,sans-Serif" font-size="10.00">arMatrixSelfInv</text>
</a>
</g>
</g>
<!-- Node4&#45;&gt;Node6 -->
<g id="edge5" class="edge">
<title>Node4&#45;&gt;Node6</title>
<path fill="none" stroke="#63b8ff" d="M192.94,-22.39C201.81,-20.97 211.68,-19.39 221.38,-17.84"/>
<polygon fill="#63b8ff" stroke="#63b8ff" points="221.82,-21.31 231.14,-16.28 220.71,-14.4 221.82,-21.31"/>
</g>
</g>
</svg>
