<?xml version="1.0" encoding="UTF-8" standalone="no"?>
<!DOCTYPE svg PUBLIC "-//W3C//DTD SVG 1.1//EN"
 "http://www.w3.org/Graphics/SVG/1.1/DTD/svg11.dtd">
<!-- Generated by graphviz version 2.40.1 (20161225.0304)
 -->
<!-- Title: Source/ARX/ARG/mtx.c Pages: 1 -->
<svg width="160pt" height="82pt"
 viewBox="0.00 0.00 160.40 82.00" xmlns="http://www.w3.org/2000/svg" xmlns:xlink="http://www.w3.org/1999/xlink">
<g id="graph0" class="graph" transform="scale(1 1) rotate(0) translate(4 78)">
<title>Source/ARX/ARG/mtx.c</title>
<polygon fill="#ffffff" stroke="transparent" points="-4,4 -4,-78 156.4038,-78 156.4038,4 -4,4"/>
<!-- Node0 -->
<g id="node1" class="node">
<title>Node0</title>
<polygon fill="#bfbfbf" stroke="#000000" points="4.2168,-55.5 4.2168,-73.5 126.3545,-73.5 126.3545,-55.5 4.2168,-55.5"/>
<text text-anchor="middle" x="65.2856" y="-61.5" font-family="Helvetica,sans-Serif" font-size="10.00" fill="#000000">Source/ARX/ARG/mtx.c</text>
</g>
<!-- Node1 -->
<g id="node2" class="node">
<title>Node1</title>
<polygon fill="#ffffff" stroke="#bfbfbf" points="0,-.5 0,-18.5 46.5713,-18.5 46.5713,-.5 0,-.5"/>
<text text-anchor="middle" x="23.2856" y="-6.5" font-family="Helvetica,sans-Serif" font-size="10.00" fill="#000000">math.h</text>
</g>
<!-- Node0&#45;&gt;Node1 -->
<g id="edge1" class="edge">
<title>Node0&#45;&gt;Node1</title>
<path fill="none" stroke="#191970" d="M58.3502,-55.4179C52.4278,-47.6624 43.7435,-36.29 36.4992,-26.8035"/>
<polygon fill="#191970" stroke="#191970" points="39.2226,-24.6029 30.3718,-18.7795 33.6593,-28.8514 39.2226,-24.6029"/>
</g>
<!-- Node2 -->
<g id="node3" class="node">
<title>Node2</title>
<g id="a_node3"><a xlink:href="mtx_8h.html" target="_top" xlink:title="ARX/ARG/mtx.h">
<polygon fill="#ffffff" stroke="#000000" points="64.1675,-.5 64.1675,-18.5 152.4038,-18.5 152.4038,-.5 64.1675,-.5"/>
<text text-anchor="middle" x="108.2856" y="-6.5" font-family="Helvetica,sans-Serif" font-size="10.00" fill="#000000">ARX/ARG/mtx.h</text>
</a>
</g>
</g>
<!-- Node0&#45;&gt;Node2 -->
<g id="edge2" class="edge">
<title>Node0&#45;&gt;Node2</title>
<path fill="none" stroke="#191970" d="M72.3862,-55.4179C78.4496,-47.6624 87.3407,-36.29 94.7575,-26.8035"/>
<polygon fill="#191970" stroke="#191970" points="97.6289,-28.8133 101.0308,-18.7795 92.1142,-24.5018 97.6289,-28.8133"/>
</g>
</g>
</svg>
