<?xml version="1.0" encoding="UTF-8" standalone="no"?>
<!DOCTYPE svg PUBLIC "-//W3C//DTD SVG 1.1//EN"
 "http://www.w3.org/Graphics/SVG/1.1/DTD/svg11.dtd">
<!-- Generated by graphviz version 2.40.1 (20161225.0304)
 -->
<!-- Title: Source/ARX/ARG/include/ARX/ARG/mtx.h Pages: 1 -->
<svg width="298pt" height="92pt"
 viewBox="0.00 0.00 297.77 92.00" xmlns="http://www.w3.org/2000/svg" xmlns:xlink="http://www.w3.org/1999/xlink">
<g id="graph0" class="graph" transform="scale(1 1) rotate(0) translate(4 88)">
<title>Source/ARX/ARG/include/ARX/ARG/mtx.h</title>
<polygon fill="#ffffff" stroke="transparent" points="-4,4 -4,-88 293.7681,-88 293.7681,4 -4,4"/>
<!-- Node1 -->
<g id="node1" class="node">
<title>Node1</title>
<polygon fill="#bfbfbf" stroke="#000000" points="86.729,-55.5 86.729,-83.5 216.6694,-83.5 216.6694,-55.5 86.729,-55.5"/>
<text text-anchor="start" x="94.729" y="-71.5" font-family="Helvetica,sans-Serif" font-size="10.00" fill="#000000">Source/ARX/ARG/include</text>
<text text-anchor="middle" x="151.6992" y="-61.5" font-family="Helvetica,sans-Serif" font-size="10.00" fill="#000000">/ARX/ARG/mtx.h</text>
</g>
<!-- Node2 -->
<g id="node2" class="node">
<title>Node2</title>
<g id="a_node2"><a xlink:href="_a_r_controller_8cpp.html" target="_top" xlink:title="Source/ARX/ARController.cpp">
<polygon fill="#ffffff" stroke="#000000" points="0,-.5 0,-18.5 149.3984,-18.5 149.3984,-.5 0,-.5"/>
<text text-anchor="middle" x="74.6992" y="-6.5" font-family="Helvetica,sans-Serif" font-size="10.00" fill="#000000">Source/ARX/ARController.cpp</text>
</a>
</g>
</g>
<!-- Node1&#45;&gt;Node2 -->
<g id="edge1" class="edge">
<title>Node1&#45;&gt;Node2</title>
<path fill="none" stroke="#191970" d="M125.515,-49.0967C112.208,-38.7276 96.707,-26.6489 86.3573,-18.5842"/>
<polygon fill="#191970" stroke="#191970" points="123.412,-51.8951 133.4513,-55.2808 127.7146,-46.3735 123.412,-51.8951"/>
</g>
<!-- Node3 -->
<g id="node3" class="node">
<title>Node3</title>
<g id="a_node3"><a xlink:href="mtx_8c.html" target="_top" xlink:title="Source/ARX/ARG/mtx.c">
<polygon fill="#ffffff" stroke="#000000" points="167.6304,-.5 167.6304,-18.5 289.7681,-18.5 289.7681,-.5 167.6304,-.5"/>
<text text-anchor="middle" x="228.6992" y="-6.5" font-family="Helvetica,sans-Serif" font-size="10.00" fill="#000000">Source/ARX/ARG/mtx.c</text>
</a>
</g>
</g>
<!-- Node1&#45;&gt;Node3 -->
<g id="edge2" class="edge">
<title>Node1&#45;&gt;Node3</title>
<path fill="none" stroke="#191970" d="M177.8834,-49.0967C191.1904,-38.7276 206.6915,-26.6489 217.0412,-18.5842"/>
<polygon fill="#191970" stroke="#191970" points="175.6839,-46.3735 169.9471,-55.2808 179.9865,-51.8951 175.6839,-46.3735"/>
</g>
</g>
</svg>
