<?xml version="1.0" encoding="UTF-8" standalone="no"?>
<!DOCTYPE svg PUBLIC "-//W3C//DTD SVG 1.1//EN"
 "http://www.w3.org/Graphics/SVG/1.1/DTD/svg11.dtd">
<!-- Generated by graphviz version 2.40.1 (20161225.0304)
 -->
<!-- Title: /Users/phil/r/artoolkitx/Source/ARX/ARVideo/nxjson.h Pages: 1 -->
<svg width="164pt" height="102pt"
 viewBox="0.00 0.00 163.72 102.00" xmlns="http://www.w3.org/2000/svg" xmlns:xlink="http://www.w3.org/1999/xlink">
<g id="graph0" class="graph" transform="scale(1 1) rotate(0) translate(4 98)">
<title>/Users/phil/r/artoolkitx/Source/ARX/ARVideo/nxjson.h</title>
<polygon fill="#ffffff" stroke="transparent" points="-4,4 -4,-98 159.7217,-98 159.7217,4 -4,4"/>
<!-- Node22 -->
<g id="node1" class="node">
<title>Node22</title>
<polygon fill="#bfbfbf" stroke="#000000" points="0,-65.5 0,-93.5 155.7217,-93.5 155.7217,-65.5 0,-65.5"/>
<text text-anchor="start" x="8" y="-81.5" font-family="Helvetica,sans-Serif" font-size="10.00" fill="#000000">/Users/phil/r/artoolkitx</text>
<text text-anchor="middle" x="77.8608" y="-71.5" font-family="Helvetica,sans-Serif" font-size="10.00" fill="#000000">/Source/ARX/ARVideo/nxjson.h</text>
</g>
<!-- Node23 -->
<g id="node2" class="node">
<title>Node23</title>
<g id="a_node2"><a xlink:href="nxjson_8c.html" target="_top" xlink:title="/Users/phil/r/artoolkitx\l/Source/ARX/ARVideo/nxjson.c">
<polygon fill="#ffffff" stroke="#000000" points=".2808,-.5 .2808,-28.5 155.4409,-28.5 155.4409,-.5 .2808,-.5"/>
<text text-anchor="start" x="8.2808" y="-16.5" font-family="Helvetica,sans-Serif" font-size="10.00" fill="#000000">/Users/phil/r/artoolkitx</text>
<text text-anchor="middle" x="77.8608" y="-6.5" font-family="Helvetica,sans-Serif" font-size="10.00" fill="#000000">/Source/ARX/ARVideo/nxjson.c</text>
</a>
</g>
</g>
<!-- Node22&#45;&gt;Node23 -->
<g id="edge1" class="edge">
<title>Node22&#45;&gt;Node23</title>
<path fill="none" stroke="#191970" d="M77.8608,-55.1081C77.8608,-46.1539 77.8608,-36.3227 77.8608,-28.5765"/>
<polygon fill="#191970" stroke="#191970" points="74.3609,-55.3959 77.8608,-65.396 81.3609,-55.396 74.3609,-55.3959"/>
</g>
</g>
</svg>
