<?xml version="1.0" encoding="UTF-8" standalone="no"?>
<!DOCTYPE svg PUBLIC "-//W3C//DTD SVG 1.1//EN"
 "http://www.w3.org/Graphics/SVG/1.1/DTD/svg11.dtd">
<!-- Generated by graphviz version 8.0.5 (20230430.1635)
 -->
<!-- Title: Source/ARX/AR/paramLT.c Pages: 1 -->
<svg width="982pt" height="193pt"
 viewBox="0.00 0.00 982.40 193.00" xmlns="http://www.w3.org/2000/svg" xmlns:xlink="http://www.w3.org/1999/xlink">
<g id="graph0" class="graph" transform="scale(1 1) rotate(0) translate(4 189)">
<title>Source/ARX/AR/paramLT.c</title>
<!-- Node1 -->
<g id="node1" class="node">
<title>Node1</title>
<g id="a_node1"><a xlink:title=" ">
<polygon fill="#999999" stroke="#666666" points="601.41,-185 465.41,-185 465.41,-165.75 601.41,-165.75 601.41,-185"/>
<text text-anchor="middle" x="533.41" y="-171.5" font-family="Helvetica,sans-Serif" font-size="10.00">Source/ARX/AR/paramLT.c</text>
</a>
</g>
</g>
<!-- Node2 -->
<g id="node2" class="node">
<title>Node2</title>
<g id="a_node2"><a xlink:title=" ">
<polygon fill="#e0e0e0" stroke="#999999" points="704.03,-19.25 658.78,-19.25 658.78,0 704.03,0 704.03,-19.25"/>
<text text-anchor="middle" x="681.41" y="-5.75" font-family="Helvetica,sans-Serif" font-size="10.00">stdio.h</text>
</a>
</g>
</g>
<!-- Node1&#45;&gt;Node2 -->
<g id="edge1" class="edge">
<title>Node1&#45;&gt;Node2</title>
<path fill="none" stroke="#63b8ff" d="M601.64,-167.58C705.79,-155.64 896.67,-127.03 937.41,-74.5 979.27,-20.52 1049.85,-82.96 720.41,-19.25 718.71,-18.92 716.97,-18.58 715.22,-18.22"/>
<polygon fill="#63b8ff" stroke="#63b8ff" points="715.97,-14.59 705.46,-15.94 714.52,-21.44 715.97,-14.59"/>
</g>
<!-- Node3 -->
<g id="node3" class="node">
<title>Node3</title>
<g id="a_node3"><a xlink:title=" ">
<polygon fill="#e0e0e0" stroke="#999999" points="296.53,-19.25 248.28,-19.25 248.28,0 296.53,0 296.53,-19.25"/>
<text text-anchor="middle" x="272.41" y="-5.75" font-family="Helvetica,sans-Serif" font-size="10.00">string.h</text>
</a>
</g>
</g>
<!-- Node1&#45;&gt;Node3 -->
<g id="edge2" class="edge">
<title>Node1&#45;&gt;Node3</title>
<path fill="none" stroke="#63b8ff" d="M465.12,-171.13C340.84,-163.65 85.53,-140.44 31.41,-74.5 -9.25,-24.96 -58.58,-72.92 227.41,-19.25 230.67,-18.64 234.05,-18 237.45,-17.35"/>
<polygon fill="#63b8ff" stroke="#63b8ff" points="237.96,-20.63 247.13,-15.31 236.65,-13.75 237.96,-20.63"/>
</g>
<!-- Node4 -->
<g id="node4" class="node">
<title>Node4</title>
<g id="a_node4"><a xlink:title=" ">
<polygon fill="#e0e0e0" stroke="#999999" points="59.41,-19.25 13.41,-19.25 13.41,0 59.41,0 59.41,-19.25"/>
<text text-anchor="middle" x="36.41" y="-5.75" font-family="Helvetica,sans-Serif" font-size="10.00">math.h</text>
</a>
</g>
</g>
<!-- Node1&#45;&gt;Node4 -->
<g id="edge3" class="edge">
<title>Node1&#45;&gt;Node4</title>
<path fill="none" stroke="#63b8ff" d="M465.22,-171.8C357.53,-167.02 153.3,-154.9 85.41,-129.75 45.23,-114.87 26.2,-112.5 6.41,-74.5 -1.78,-58.79 8.86,-40.44 19.67,-27.45"/>
<polygon fill="#63b8ff" stroke="#63b8ff" points="21.83,-30.18 25.94,-20.41 16.64,-25.48 21.83,-30.18"/>
</g>
<!-- Node5 -->
<g id="node5" class="node">
<title>Node5</title>
<g id="a_node5"><a xlink:href="ar_8h.html" target="_top" xlink:title="artoolkitX core routines.">
<polygon fill="white" stroke="#666666" points="569.91,-129.75 496.91,-129.75 496.91,-110.5 569.91,-110.5 569.91,-129.75"/>
<text text-anchor="middle" x="533.41" y="-116.25" font-family="Helvetica,sans-Serif" font-size="10.00">ARX/AR/ar.h</text>
</a>
</g>
</g>
<!-- Node1&#45;&gt;Node5 -->
<g id="edge4" class="edge">
<title>Node1&#45;&gt;Node5</title>
<path fill="none" stroke="#63b8ff" d="M533.41,-165.58C533.41,-158.92 533.41,-149.49 533.41,-141.03"/>
<polygon fill="#63b8ff" stroke="#63b8ff" points="536.91,-141.11 533.41,-131.11 529.91,-141.11 536.91,-141.11"/>
</g>
<!-- Node17 -->
<g id="node17" class="node">
<title>Node17</title>
<g id="a_node17"><a xlink:href="param_8h.html" target="_top" xlink:title="artoolkitX functions for handling calibrated camera parameters.">
<polygon fill="white" stroke="#666666" points="928.66,-74.5 836.16,-74.5 836.16,-55.25 928.66,-55.25 928.66,-74.5"/>
<text text-anchor="middle" x="882.41" y="-61" font-family="Helvetica,sans-Serif" font-size="10.00">ARX/AR/param.h</text>
</a>
</g>
</g>
<!-- Node1&#45;&gt;Node17 -->
<g id="edge28" class="edge">
<title>Node1&#45;&gt;Node17</title>
<path fill="none" stroke="#63b8ff" d="M562.56,-165.31C625.05,-145.88 771.94,-100.22 842.8,-78.19"/>
<polygon fill="#63b8ff" stroke="#63b8ff" points="843.58,-81.3 852.09,-74.99 841.5,-74.62 843.58,-81.3"/>
</g>
<!-- Node5&#45;&gt;Node2 -->
<g id="edge5" class="edge">
<title>Node5&#45;&gt;Node2</title>
<path fill="none" stroke="#63b8ff" d="M550.65,-110.04C566.22,-101.57 589.52,-88.2 608.41,-74.5 628.73,-59.76 650.13,-40.53 664.47,-27.03"/>
<polygon fill="#63b8ff" stroke="#63b8ff" points="666.59,-29.9 671.41,-20.46 661.76,-24.83 666.59,-29.9"/>
</g>
<!-- Node5&#45;&gt;Node3 -->
<g id="edge8" class="edge">
<title>Node5&#45;&gt;Node3</title>
<path fill="none" stroke="#63b8ff" d="M522.85,-110.17C506.17,-96.46 472.24,-70.27 439.41,-55.25 436.35,-53.85 355.46,-32.47 307.4,-19.82"/>
<polygon fill="#63b8ff" stroke="#63b8ff" points="308.38,-16.2 297.82,-17.04 306.6,-22.97 308.38,-16.2"/>
</g>
<!-- Node6 -->
<g id="node6" class="node">
<title>Node6</title>
<g id="a_node6"><a xlink:title=" ">
<polygon fill="#e0e0e0" stroke="#999999" points="636.16,-19.25 588.66,-19.25 588.66,0 636.16,0 636.16,-19.25"/>
<text text-anchor="middle" x="612.41" y="-5.75" font-family="Helvetica,sans-Serif" font-size="10.00">stdlib.h</text>
</a>
</g>
</g>
<!-- Node5&#45;&gt;Node6 -->
<g id="edge6" class="edge">
<title>Node5&#45;&gt;Node6</title>
<path fill="none" stroke="#63b8ff" d="M548.93,-110.15C561.42,-102.2 578.62,-89.56 589.41,-74.5 598.97,-61.16 604.93,-43.44 608.38,-30.05"/>
<polygon fill="#63b8ff" stroke="#63b8ff" points="611.95,-31.14 610.8,-20.61 605.13,-29.57 611.95,-31.14"/>
</g>
<!-- Node7 -->
<g id="node7" class="node">
<title>Node7</title>
<g id="a_node7"><a xlink:title=" ">
<polygon fill="#e0e0e0" stroke="#999999" points="722.53,-74.5 674.28,-74.5 674.28,-55.25 722.53,-55.25 722.53,-74.5"/>
<text text-anchor="middle" x="698.41" y="-61" font-family="Helvetica,sans-Serif" font-size="10.00">stdint.h</text>
</a>
</g>
</g>
<!-- Node5&#45;&gt;Node7 -->
<g id="edge7" class="edge">
<title>Node5&#45;&gt;Node7</title>
<path fill="none" stroke="#63b8ff" d="M561.4,-110.09C589.61,-100.99 633.21,-86.92 663.63,-77.1"/>
<polygon fill="#63b8ff" stroke="#63b8ff" points="664.35,-80.22 672.79,-73.82 662.2,-73.56 664.35,-80.22"/>
</g>
<!-- Node8 -->
<g id="node8" class="node">
<title>Node8</title>
<g id="a_node8"><a xlink:title=" ">
<polygon fill="#e0e0e0" stroke="#999999" points="218.28,-19.25 126.53,-19.25 126.53,0 218.28,0 218.28,-19.25"/>
<text text-anchor="middle" x="172.41" y="-5.75" font-family="Helvetica,sans-Serif" font-size="10.00">ARX/AR/config.h</text>
</a>
</g>
</g>
<!-- Node5&#45;&gt;Node8 -->
<g id="edge9" class="edge">
<title>Node5&#45;&gt;Node8</title>
<path fill="none" stroke="#63b8ff" d="M496.69,-117.04C410.62,-111.8 201.43,-96.88 179.41,-74.5 168.16,-63.07 167.34,-44.34 168.78,-30.1"/>
<polygon fill="#63b8ff" stroke="#63b8ff" points="172.35,-30.87 170.34,-20.47 165.43,-29.85 172.35,-30.87"/>
</g>
<!-- Node9 -->
<g id="node9" class="node">
<title>Node9</title>
<g id="a_node9"><a xlink:href="ar_config_8h.html" target="_top" xlink:title=" ">
<polygon fill="white" stroke="#666666" points="430.53,-74.5 328.28,-74.5 328.28,-55.25 430.53,-55.25 430.53,-74.5"/>
<text text-anchor="middle" x="379.41" y="-61" font-family="Helvetica,sans-Serif" font-size="10.00">ARX/AR/arConfig.h</text>
</a>
</g>
</g>
<!-- Node5&#45;&gt;Node9 -->
<g id="edge10" class="edge">
<title>Node5&#45;&gt;Node9</title>
<path fill="none" stroke="#63b8ff" d="M507.28,-110.09C482.17,-101.41 444,-88.21 415.89,-78.49"/>
<polygon fill="#63b8ff" stroke="#63b8ff" points="417.26,-74.91 406.66,-74.95 414.97,-81.53 417.26,-74.91"/>
</g>
<!-- Node10 -->
<g id="node10" class="node">
<title>Node10</title>
<g id="a_node10"><a xlink:href="log_8h.html" target="_top" xlink:title="Logging utilities.">
<polygon fill="white" stroke="#666666" points="580.03,-74.5 486.78,-74.5 486.78,-55.25 580.03,-55.25 580.03,-74.5"/>
<text text-anchor="middle" x="533.41" y="-61" font-family="Helvetica,sans-Serif" font-size="10.00">ARX/ARUtil/log.h</text>
</a>
</g>
</g>
<!-- Node5&#45;&gt;Node10 -->
<g id="edge11" class="edge">
<title>Node5&#45;&gt;Node10</title>
<path fill="none" stroke="#63b8ff" d="M533.41,-110.33C533.41,-103.67 533.41,-94.24 533.41,-85.78"/>
<polygon fill="#63b8ff" stroke="#63b8ff" points="536.91,-85.86 533.41,-75.86 529.91,-85.86 536.91,-85.86"/>
</g>
<!-- Node14 -->
<g id="node14" class="node">
<title>Node14</title>
<g id="a_node14"><a xlink:href="matrix_8h.html" target="_top" xlink:title=" ">
<polygon fill="white" stroke="#666666" points="132.66,-74.5 40.16,-74.5 40.16,-55.25 132.66,-55.25 132.66,-74.5"/>
<text text-anchor="middle" x="86.41" y="-61" font-family="Helvetica,sans-Serif" font-size="10.00">ARX/AR/matrix.h</text>
</a>
</g>
</g>
<!-- Node5&#45;&gt;Node14 -->
<g id="edge18" class="edge">
<title>Node5&#45;&gt;Node14</title>
<path fill="none" stroke="#63b8ff" d="M496.55,-115.22C427.69,-107.85 274.85,-91.13 146.41,-74.5 145.45,-74.38 144.48,-74.25 143.51,-74.12"/>
<polygon fill="#63b8ff" stroke="#63b8ff" points="144.28,-70.56 133.9,-72.69 143.35,-77.5 144.28,-70.56"/>
</g>
<!-- Node15 -->
<g id="node15" class="node">
<title>Node15</title>
<g id="a_node15"><a xlink:href="icp_8h.html" target="_top" xlink:title=" ">
<polygon fill="white" stroke="#666666" points="818.53,-74.5 740.28,-74.5 740.28,-55.25 818.53,-55.25 818.53,-74.5"/>
<text text-anchor="middle" x="779.41" y="-61" font-family="Helvetica,sans-Serif" font-size="10.00">ARX/AR/icp.h</text>
</a>
</g>
</g>
<!-- Node5&#45;&gt;Node15 -->
<g id="edge20" class="edge">
<title>Node5&#45;&gt;Node15</title>
<path fill="none" stroke="#63b8ff" d="M570.24,-111.15C612.52,-102 682.09,-86.94 729.28,-76.73"/>
<polygon fill="#63b8ff" stroke="#63b8ff" points="729.85,-79.97 738.88,-74.43 728.37,-73.13 729.85,-79.97"/>
</g>
<!-- Node5&#45;&gt;Node17 -->
<g id="edge23" class="edge">
<title>Node5&#45;&gt;Node17</title>
<path fill="none" stroke="#63b8ff" d="M570.14,-112.69C624.52,-104.07 729.12,-88.28 818.41,-74.5 820.61,-74.16 822.86,-73.81 825.14,-73.46"/>
<polygon fill="#63b8ff" stroke="#63b8ff" points="825.6,-76.78 834.95,-71.79 824.53,-69.86 825.6,-76.78"/>
</g>
<!-- Node18 -->
<g id="node18" class="node">
<title>Node18</title>
<g id="a_node18"><a xlink:href="ar_image_proc_8h.html" target="_top" xlink:title="artoolkitX functions for 2D luminance image processing.">
<polygon fill="white" stroke="#666666" points="309.91,-74.5 188.91,-74.5 188.91,-55.25 309.91,-55.25 309.91,-74.5"/>
<text text-anchor="middle" x="249.41" y="-61" font-family="Helvetica,sans-Serif" font-size="10.00">ARX/AR/arImageProc.h</text>
</a>
</g>
</g>
<!-- Node5&#45;&gt;Node18 -->
<g id="edge25" class="edge">
<title>Node5&#45;&gt;Node18</title>
<path fill="none" stroke="#63b8ff" d="M496.63,-113.07C447.33,-104.31 359.75,-87.96 303.11,-76.99"/>
<polygon fill="#63b8ff" stroke="#63b8ff" points="304.04,-73.42 293.56,-74.95 302.71,-80.29 304.04,-73.42"/>
</g>
<!-- Node10&#45;&gt;Node2 -->
<g id="edge12" class="edge">
<title>Node10&#45;&gt;Node2</title>
<path fill="none" stroke="#63b8ff" d="M558.52,-54.84C583.27,-45.94 621.24,-32.28 648.42,-22.5"/>
<polygon fill="#63b8ff" stroke="#63b8ff" points="649.39,-25.51 657.61,-18.83 647.02,-18.92 649.39,-25.51"/>
</g>
<!-- Node10&#45;&gt;Node3 -->
<g id="edge14" class="edge">
<title>Node10&#45;&gt;Node3</title>
<path fill="none" stroke="#63b8ff" d="M486.51,-55.58C442.54,-47.6 374.76,-34.81 307.26,-19.57"/>
<polygon fill="#63b8ff" stroke="#63b8ff" points="308.4,-16.01 297.88,-17.2 306.85,-22.83 308.4,-16.01"/>
</g>
<!-- Node10&#45;&gt;Node6 -->
<g id="edge13" class="edge">
<title>Node10&#45;&gt;Node6</title>
<path fill="none" stroke="#63b8ff" d="M546.81,-54.84C558.61,-46.89 576.04,-35.14 589.97,-25.75"/>
<polygon fill="#63b8ff" stroke="#63b8ff" points="591.61,-28.19 597.94,-19.7 587.69,-22.39 591.61,-28.19"/>
</g>
<!-- Node11 -->
<g id="node11" class="node">
<title>Node11</title>
<g id="a_node11"><a xlink:title=" ">
<polygon fill="#e0e0e0" stroke="#999999" points="488.03,-19.25 436.78,-19.25 436.78,0 488.03,0 488.03,-19.25"/>
<text text-anchor="middle" x="462.41" y="-5.75" font-family="Helvetica,sans-Serif" font-size="10.00">stdarg.h</text>
</a>
</g>
</g>
<!-- Node10&#45;&gt;Node11 -->
<g id="edge15" class="edge">
<title>Node10&#45;&gt;Node11</title>
<path fill="none" stroke="#63b8ff" d="M521.36,-54.84C510.9,-46.99 495.51,-35.45 483.07,-26.12"/>
<polygon fill="#63b8ff" stroke="#63b8ff" points="485.38,-22.72 475.28,-19.52 481.18,-28.32 485.38,-22.72"/>
</g>
<!-- Node12 -->
<g id="node12" class="node">
<title>Node12</title>
<g id="a_node12"><a xlink:title=" ">
<polygon fill="#e0e0e0" stroke="#999999" points="570.78,-19.25 506.03,-19.25 506.03,0 570.78,0 570.78,-19.25"/>
<text text-anchor="middle" x="538.41" y="-5.75" font-family="Helvetica,sans-Serif" font-size="10.00">sys/errno.h</text>
</a>
</g>
</g>
<!-- Node10&#45;&gt;Node12 -->
<g id="edge16" class="edge">
<title>Node10&#45;&gt;Node12</title>
<path fill="none" stroke="#63b8ff" d="M534.23,-55.08C534.86,-48.42 535.75,-38.99 536.54,-30.53"/>
<polygon fill="#63b8ff" stroke="#63b8ff" points="540.12,-30.89 537.57,-20.61 533.15,-30.24 540.12,-30.89"/>
</g>
<!-- Node13 -->
<g id="node13" class="node">
<title>Node13</title>
<g id="a_node13"><a xlink:href="types_8h.html" target="_top" xlink:title=" ">
<polygon fill="white" stroke="#666666" points="418.66,-19.25 314.16,-19.25 314.16,0 418.66,0 418.66,-19.25"/>
<text text-anchor="middle" x="366.41" y="-5.75" font-family="Helvetica,sans-Serif" font-size="10.00">ARX/ARUtil/types.h</text>
</a>
</g>
</g>
<!-- Node10&#45;&gt;Node13 -->
<g id="edge17" class="edge">
<title>Node10&#45;&gt;Node13</title>
<path fill="none" stroke="#63b8ff" d="M505.08,-54.84C477.61,-46.08 435.72,-32.73 405.17,-22.98"/>
<polygon fill="#63b8ff" stroke="#63b8ff" points="406.47,-19.41 395.88,-19.7 404.34,-26.08 406.47,-19.41"/>
</g>
<!-- Node14&#45;&gt;Node4 -->
<g id="edge19" class="edge">
<title>Node14&#45;&gt;Node4</title>
<path fill="none" stroke="#63b8ff" d="M78.15,-55.08C71.1,-47.57 60.76,-36.56 52.14,-27.38"/>
<polygon fill="#63b8ff" stroke="#63b8ff" points="55.24,-25.5 45.84,-20.61 50.14,-30.3 55.24,-25.5"/>
</g>
<!-- Node15&#45;&gt;Node2 -->
<g id="edge21" class="edge">
<title>Node15&#45;&gt;Node2</title>
<path fill="none" stroke="#63b8ff" d="M762.78,-54.84C747.72,-46.66 725.27,-34.46 707.76,-24.94"/>
<polygon fill="#63b8ff" stroke="#63b8ff" points="709.57,-21.4 699.11,-19.7 706.23,-27.55 709.57,-21.4"/>
</g>
<!-- Node16 -->
<g id="node16" class="node">
<title>Node16</title>
<g id="a_node16"><a xlink:href="icp_core_8h.html" target="_top" xlink:title=" ">
<polygon fill="white" stroke="#666666" points="829.03,-19.25 729.78,-19.25 729.78,0 829.03,0 829.03,-19.25"/>
<text text-anchor="middle" x="779.41" y="-5.75" font-family="Helvetica,sans-Serif" font-size="10.00">ARX/AR/icpCore.h</text>
</a>
</g>
</g>
<!-- Node15&#45;&gt;Node16 -->
<g id="edge22" class="edge">
<title>Node15&#45;&gt;Node16</title>
<path fill="none" stroke="#63b8ff" d="M779.41,-55.08C779.41,-48.42 779.41,-38.99 779.41,-30.53"/>
<polygon fill="#63b8ff" stroke="#63b8ff" points="782.91,-30.61 779.41,-20.61 775.91,-30.61 782.91,-30.61"/>
</g>
<!-- Node17&#45;&gt;Node5 -->
<g id="edge24" class="edge">
<title>Node17&#45;&gt;Node5</title>
<path fill="none" stroke="#63b8ff" d="M835.85,-74.59C745.9,-88.46 640.56,-104.37 580.82,-112.91"/>
<polygon fill="#63b8ff" stroke="#63b8ff" points="580.62,-109.55 571.21,-114.42 581.6,-116.48 580.62,-109.55"/>
</g>
<!-- Node18&#45;&gt;Node5 -->
<g id="edge27" class="edge">
<title>Node18&#45;&gt;Node5</title>
<path fill="none" stroke="#63b8ff" d="M303.14,-74.97C355.86,-84.48 435.34,-99.38 485.83,-109.19"/>
<polygon fill="#63b8ff" stroke="#63b8ff" points="484.97,-112.79 495.46,-111.27 486.32,-105.92 484.97,-112.79"/>
</g>
<!-- Node18&#45;&gt;Node8 -->
<g id="edge26" class="edge">
<title>Node18&#45;&gt;Node8</title>
<path fill="none" stroke="#63b8ff" d="M236.35,-54.84C224.84,-46.89 207.85,-35.14 194.28,-25.75"/>
<polygon fill="#63b8ff" stroke="#63b8ff" points="196.75,-22.51 186.54,-19.7 192.77,-28.27 196.75,-22.51"/>
</g>
</g>
</svg>
