<?xml version="1.0" encoding="UTF-8" standalone="no"?>
<!DOCTYPE svg PUBLIC "-//W3C//DTD SVG 1.1//EN"
 "http://www.w3.org/Graphics/SVG/1.1/DTD/svg11.dtd">
<!-- Generated by graphviz version 2.40.1 (20161225.0304)
 -->
<!-- Title: Source/ARX/AR/include/ARX/AR/param.h Pages: 1 -->
<!--zoomable 202 -->
<svg id="main" version="1.1" xmlns="http://www.w3.org/2000/svg" xmlns:xlink="http://www.w3.org/1999/xlink" xml:space="preserve" onload="init(evt)">
<style type="text/css"><![CDATA[
.edge:hover path { stroke: red; }
.edge:hover polygon { stroke: red; fill: red; }
]]></style>
<script type="text/javascript"><![CDATA[
var edges = document.getElementsByTagName('g');
if (edges && edges.length) {
  for (var i=0;i<edges.length;i++) {
    if (edges[i].id.substr(0,4)=='edge') {
      edges[i].setAttribute('class','edge');
    }
  }
}
]]></script>
        <defs>
                <circle id="rim" cx="0" cy="0" r="7"/>
                <circle id="rim2" cx="0" cy="0" r="3.5"/>
                <g id="zoomPlus">
                        <use xlink:href="#rim" fill="#404040">
                                <set attributeName="fill" to="#808080" begin="zoomplus.mouseover" end="zoomplus.mouseout"/>
                        </use>
                        <path d="M-4,0h8M0,-4v8" fill="none" stroke="white" stroke-width="1.5" pointer-events="none"/>
                </g>
                <g id="zoomMin">
                        <use xlink:href="#rim" fill="#404040">
                                <set attributeName="fill" to="#808080" begin="zoomminus.mouseover" end="zoomminus.mouseout"/>
                        </use>
                        <path d="M-4,0h8" fill="none" stroke="white" stroke-width="1.5" pointer-events="none"/>
                </g>
                <g id="dirArrow">
                        <path fill="none" stroke="white" stroke-width="1.5" d="M0,-3.0v7 M-2.5,-0.5L0,-3.0L2.5,-0.5"/>
                </g>
               <g id="resetDef">
                       <use xlink:href="#rim2" fill="#404040">
                               <set attributeName="fill" to="#808080" begin="reset.mouseover" end="reset.mouseout"/>
                       </use>
               </g>
        </defs>

<script type="text/javascript">
var viewWidth = 825;
var viewHeight = 202;
var sectionId = 'dynsection-0';
</script>
<script xlink:href="svgpan.js"/>
<svg id="graph" class="graph">
<g id="viewport">
<title>Source/ARX/AR/include/ARX/AR/param.h</title>
<polygon fill="#ffffff" stroke="transparent" points="-4,4 -4,-198 820.6279,-198 820.6279,4 -4,4"/>
<!-- Node0 -->
<g id="node1" class="node">
<title>Node0</title>
<polygon fill="#bfbfbf" stroke="#000000" points="321.7612,-165.5 321.7612,-193.5 443.9233,-193.5 443.9233,-165.5 321.7612,-165.5"/>
<text text-anchor="start" x="329.7612" y="-181.5" font-family="Helvetica,sans-Serif" font-size="10.00" fill="#000000">Source/ARX/AR/include</text>
<text text-anchor="middle" x="382.8423" y="-171.5" font-family="Helvetica,sans-Serif" font-size="10.00" fill="#000000">/ARX/AR/param.h</text>
</g>
<!-- Node1 -->
<g id="node2" class="node">
<title>Node1</title>
<g id="a_node2"><a xlink:href="ar_8h.html" target="_top" xlink:title="artoolkitX core routines. ">
<polygon fill="#ffffff" stroke="#000000" points="346.4951,-110.5 346.4951,-128.5 419.1895,-128.5 419.1895,-110.5 346.4951,-110.5"/>
<text text-anchor="middle" x="382.8423" y="-116.5" font-family="Helvetica,sans-Serif" font-size="10.00" fill="#000000">ARX/AR/ar.h</text>
</a>
</g>
</g>
<!-- Node0&#45;&gt;Node1 -->
<g id="edge1" class="edge">
<title>Node0&#45;&gt;Node1</title>
<path fill="none" stroke="#191970" d="M377.0024,-165.2808C375.9848,-157.2888 375.8205,-147.2079 376.5096,-138.5414"/>
<polygon fill="#191970" stroke="#191970" points="379.9848,-138.9594 377.8388,-128.5842 373.0463,-138.0331 379.9848,-138.9594"/>
</g>
<!-- Node1&#45;&gt;Node0 -->
<g id="edge20" class="edge">
<title>Node1&#45;&gt;Node0</title>
<path fill="none" stroke="#191970" d="M387.8458,-128.5842C389.3024,-135.6598 389.8479,-145.8253 389.4822,-155.2151"/>
<polygon fill="#191970" stroke="#191970" points="385.9856,-155.0349 388.6822,-165.2808 392.9636,-155.5896 385.9856,-155.0349"/>
</g>
<!-- Node2 -->
<g id="node3" class="node">
<title>Node2</title>
<polygon fill="#ffffff" stroke="#bfbfbf" points="406.1108,-.5 406.1108,-18.5 451.5737,-18.5 451.5737,-.5 406.1108,-.5"/>
<text text-anchor="middle" x="428.8423" y="-6.5" font-family="Helvetica,sans-Serif" font-size="10.00" fill="#000000">stdio.h</text>
</g>
<!-- Node1&#45;&gt;Node2 -->
<g id="edge2" class="edge">
<title>Node1&#45;&gt;Node2</title>
<path fill="none" stroke="#191970" d="M363.0265,-110.3185C340.4283,-98.5308 308.3677,-76.9649 322.8423,-55 327.2109,-48.3708 366.839,-32.4961 396.3687,-21.3735"/>
<polygon fill="#191970" stroke="#191970" points="397.7862,-24.5803 405.9305,-17.8038 395.3379,-18.0224 397.7862,-24.5803"/>
</g>
<!-- Node3 -->
<g id="node4" class="node">
<title>Node3</title>
<polygon fill="#ffffff" stroke="#bfbfbf" points="0,-.5 0,-18.5 47.6846,-18.5 47.6846,-.5 0,-.5"/>
<text text-anchor="middle" x="23.8423" y="-6.5" font-family="Helvetica,sans-Serif" font-size="10.00" fill="#000000">stdlib.h</text>
</g>
<!-- Node1&#45;&gt;Node3 -->
<g id="edge3" class="edge">
<title>Node1&#45;&gt;Node3</title>
<path fill="none" stroke="#191970" d="M346.3036,-116.4584C278.6909,-110.3921 136.9325,-95.4977 92.8423,-74 70.1714,-62.9461 49.8345,-41.8909 37.211,-26.843"/>
<polygon fill="#191970" stroke="#191970" points="39.7178,-24.3766 30.7104,-18.7983 34.2732,-28.7761 39.7178,-24.3766"/>
</g>
<!-- Node4 -->
<g id="node5" class="node">
<title>Node4</title>
<polygon fill="#ffffff" stroke="#bfbfbf" points="117.7217,-55.5 117.7217,-73.5 165.9629,-73.5 165.9629,-55.5 117.7217,-55.5"/>
<text text-anchor="middle" x="141.8423" y="-61.5" font-family="Helvetica,sans-Serif" font-size="10.00" fill="#000000">stdint.h</text>
</g>
<!-- Node1&#45;&gt;Node4 -->
<g id="edge4" class="edge">
<title>Node1&#45;&gt;Node4</title>
<path fill="none" stroke="#191970" d="M346.2276,-112.2405C306.5829,-104.2152 241.2807,-90.5186 176.3033,-74.2572"/>
<polygon fill="#191970" stroke="#191970" points="176.855,-70.7868 166.3026,-71.7331 175.1419,-77.5739 176.855,-70.7868"/>
</g>
<!-- Node5 -->
<g id="node6" class="node">
<title>Node5</title>
<polygon fill="#ffffff" stroke="#bfbfbf" points="65.4458,-.5 65.4458,-18.5 114.2388,-18.5 114.2388,-.5 65.4458,-.5"/>
<text text-anchor="middle" x="89.8423" y="-6.5" font-family="Helvetica,sans-Serif" font-size="10.00" fill="#000000">string.h</text>
</g>
<!-- Node1&#45;&gt;Node5 -->
<g id="edge5" class="edge">
<title>Node1&#45;&gt;Node5</title>
<path fill="none" stroke="#191970" d="M346.2707,-118.1303C279.9446,-114.9063 143.4639,-104.6386 108.8423,-74 96.0243,-62.6566 91.6565,-43.1481 90.2641,-28.5489"/>
<polygon fill="#191970" stroke="#191970" points="93.7579,-28.3404 89.6885,-18.5583 86.7695,-28.743 93.7579,-28.3404"/>
</g>
<!-- Node6 -->
<g id="node7" class="node">
<title>Node6</title>
<polygon fill="#ffffff" stroke="#bfbfbf" points="612.3252,-.5 612.3252,-18.5 703.3594,-18.5 703.3594,-.5 612.3252,-.5"/>
<text text-anchor="middle" x="657.8423" y="-6.5" font-family="Helvetica,sans-Serif" font-size="10.00" fill="#000000">ARX/AR/config.h</text>
</g>
<!-- Node1&#45;&gt;Node6 -->
<g id="edge6" class="edge">
<title>Node1&#45;&gt;Node6</title>
<path fill="none" stroke="#191970" d="M419.4066,-116.5006C494.6492,-109.9577 661.1858,-93.4225 677.8423,-74 689.1115,-60.8593 680.7274,-41.4196 671.6123,-27.3187"/>
<polygon fill="#191970" stroke="#191970" points="674.3346,-25.1055 665.7161,-18.9433 668.6107,-29.135 674.3346,-25.1055"/>
</g>
<!-- Node7 -->
<g id="node8" class="node">
<title>Node7</title>
<g id="a_node8"><a xlink:href="ar_config_8h.html" target="_top" xlink:title="ARX/AR/arConfig.h">
<polygon fill="#ffffff" stroke="#000000" points="331.7686,-55.5 331.7686,-73.5 433.916,-73.5 433.916,-55.5 331.7686,-55.5"/>
<text text-anchor="middle" x="382.8423" y="-61.5" font-family="Helvetica,sans-Serif" font-size="10.00" fill="#000000">ARX/AR/arConfig.h</text>
</a>
</g>
</g>
<!-- Node1&#45;&gt;Node7 -->
<g id="edge7" class="edge">
<title>Node1&#45;&gt;Node7</title>
<path fill="none" stroke="#191970" d="M382.8423,-110.4179C382.8423,-103.2164 382.8423,-92.8962 382.8423,-83.8632"/>
<polygon fill="#191970" stroke="#191970" points="386.3424,-83.7794 382.8423,-73.7795 379.3424,-83.7795 386.3424,-83.7794"/>
</g>
<!-- Node8 -->
<g id="node9" class="node">
<title>Node8</title>
<g id="a_node9"><a xlink:href="log_8h.html" target="_top" xlink:title="Logging utilities. ">
<polygon fill="#ffffff" stroke="#000000" points="183.7734,-55.5 183.7734,-73.5 275.9111,-73.5 275.9111,-55.5 183.7734,-55.5"/>
<text text-anchor="middle" x="229.8423" y="-61.5" font-family="Helvetica,sans-Serif" font-size="10.00" fill="#000000">ARX/ARUtil/log.h</text>
</a>
</g>
</g>
<!-- Node1&#45;&gt;Node8 -->
<g id="edge8" class="edge">
<title>Node1&#45;&gt;Node8</title>
<path fill="none" stroke="#191970" d="M357.5774,-110.4179C332.143,-101.2748 292.7242,-87.1046 264.4037,-76.924"/>
<polygon fill="#191970" stroke="#191970" points="265.4848,-73.5935 254.8904,-73.5042 263.1168,-80.1808 265.4848,-73.5935"/>
</g>
<!-- Node12 -->
<g id="node13" class="node">
<title>Node12</title>
<g id="a_node13"><a xlink:href="matrix_8h.html" target="_top" xlink:title="ARX/AR/matrix.h">
<polygon fill="#ffffff" stroke="#000000" points="725.0566,-55.5 725.0566,-73.5 816.6279,-73.5 816.6279,-55.5 725.0566,-55.5"/>
<text text-anchor="middle" x="770.8423" y="-61.5" font-family="Helvetica,sans-Serif" font-size="10.00" fill="#000000">ARX/AR/matrix.h</text>
</a>
</g>
</g>
<!-- Node1&#45;&gt;Node12 -->
<g id="edge15" class="edge">
<title>Node1&#45;&gt;Node12</title>
<path fill="none" stroke="#191970" d="M419.2777,-114.678C479.8499,-106.6096 605.0715,-89.7083 710.8423,-74 712.1332,-73.8083 713.4396,-73.6129 714.7568,-73.4146"/>
<polygon fill="#191970" stroke="#191970" points="715.6365,-76.821 724.9939,-71.8521 714.5802,-69.9011 715.6365,-76.821"/>
</g>
<!-- Node14 -->
<g id="node15" class="node">
<title>Node14</title>
<g id="a_node15"><a xlink:href="icp_8h.html" target="_top" xlink:title="ARX/AR/icp.h">
<polygon fill="#ffffff" stroke="#000000" points="452.2759,-55.5 452.2759,-73.5 529.4087,-73.5 529.4087,-55.5 452.2759,-55.5"/>
<text text-anchor="middle" x="490.8423" y="-61.5" font-family="Helvetica,sans-Serif" font-size="10.00" fill="#000000">ARX/AR/icp.h</text>
</a>
</g>
</g>
<!-- Node1&#45;&gt;Node14 -->
<g id="edge17" class="edge">
<title>Node1&#45;&gt;Node14</title>
<path fill="none" stroke="#191970" d="M400.6763,-110.4179C417.873,-101.6603 444.1259,-88.2907 463.8765,-78.2326"/>
<polygon fill="#191970" stroke="#191970" points="465.6591,-81.2526 472.9818,-73.5956 462.4824,-75.0148 465.6591,-81.2526"/>
</g>
<!-- Node16 -->
<g id="node17" class="node">
<title>Node16</title>
<g id="a_node17"><a xlink:href="ar_image_proc_8h.html" target="_top" xlink:title="artoolkitX functions for 2D luminance image processing. ">
<polygon fill="#ffffff" stroke="#000000" points="547.0444,-55.5 547.0444,-73.5 668.6401,-73.5 668.6401,-55.5 547.0444,-55.5"/>
<text text-anchor="middle" x="607.8423" y="-61.5" font-family="Helvetica,sans-Serif" font-size="10.00" fill="#000000">ARX/AR/arImageProc.h</text>
</a>
</g>
</g>
<!-- Node1&#45;&gt;Node16 -->
<g id="edge21" class="edge">
<title>Node1&#45;&gt;Node16</title>
<path fill="none" stroke="#191970" d="M414.8301,-110.4179C451.6582,-100.9354 512.4331,-86.0457 556.0068,-75.8073"/>
<polygon fill="#191970" stroke="#191970" points="556.9163,-79.1892 565.8568,-73.5042 555.3225,-72.373 556.9163,-79.1892"/>
</g>
<!-- Node8&#45;&gt;Node2 -->
<g id="edge9" class="edge">
<title>Node8&#45;&gt;Node2</title>
<path fill="none" stroke="#191970" d="M263.8085,-55.4866C295.6164,-46.9926 344.7099,-33.747 396.1581,-19.1519"/>
<polygon fill="#191970" stroke="#191970" points="397.128,-22.5149 405.7884,-16.4118 395.2123,-15.7821 397.128,-22.5149"/>
</g>
<!-- Node8&#45;&gt;Node3 -->
<g id="edge10" class="edge">
<title>Node8&#45;&gt;Node3</title>
<path fill="none" stroke="#191970" d="M194.3257,-55.4149C161.36,-46.9257 110.6771,-33.7306 57.8582,-19.2373"/>
<polygon fill="#191970" stroke="#191970" points="58.545,-15.7963 47.9747,-16.5169 56.6872,-22.5453 58.545,-15.7963"/>
</g>
<!-- Node8&#45;&gt;Node5 -->
<g id="edge11" class="edge">
<title>Node8&#45;&gt;Node5</title>
<path fill="none" stroke="#191970" d="M206.7241,-55.4179C183.7229,-46.3817 148.223,-32.4353 122.3802,-22.2828"/>
<polygon fill="#191970" stroke="#191970" points="123.5821,-18.9946 112.9948,-18.5956 121.0225,-25.5098 123.5821,-18.9946"/>
</g>
<!-- Node9 -->
<g id="node10" class="node">
<title>Node9</title>
<polygon fill="#ffffff" stroke="#bfbfbf" points="131.7759,-.5 131.7759,-18.5 183.9087,-18.5 183.9087,-.5 131.7759,-.5"/>
<text text-anchor="middle" x="157.8423" y="-6.5" font-family="Helvetica,sans-Serif" font-size="10.00" fill="#000000">stdarg.h</text>
</g>
<!-- Node8&#45;&gt;Node9 -->
<g id="edge12" class="edge">
<title>Node8&#45;&gt;Node9</title>
<path fill="none" stroke="#191970" d="M217.9529,-55.4179C207.1787,-47.1876 191.0721,-34.8839 178.2426,-25.0836"/>
<polygon fill="#191970" stroke="#191970" points="180.0613,-22.0685 169.9899,-18.7795 175.812,-27.6313 180.0613,-22.0685"/>
</g>
<!-- Node10 -->
<g id="node11" class="node">
<title>Node10</title>
<polygon fill="#ffffff" stroke="#bfbfbf" points="202.1108,-.5 202.1108,-18.5 267.5737,-18.5 267.5737,-.5 202.1108,-.5"/>
<text text-anchor="middle" x="234.8423" y="-6.5" font-family="Helvetica,sans-Serif" font-size="10.00" fill="#000000">sys/errno.h</text>
</g>
<!-- Node8&#45;&gt;Node10 -->
<g id="edge13" class="edge">
<title>Node8&#45;&gt;Node10</title>
<path fill="none" stroke="#191970" d="M230.6679,-55.4179C231.3226,-48.2164 232.2608,-37.8962 233.082,-28.8632"/>
<polygon fill="#191970" stroke="#191970" points="236.5789,-29.0553 233.9987,-18.7795 229.6076,-28.4215 236.5789,-29.0553"/>
</g>
<!-- Node11 -->
<g id="node12" class="node">
<title>Node11</title>
<g id="a_node12"><a xlink:href="types_8h.html" target="_top" xlink:title="ARX/ARUtil/types.h">
<polygon fill="#ffffff" stroke="#000000" points="285.4951,-.5 285.4951,-18.5 388.1895,-18.5 388.1895,-.5 285.4951,-.5"/>
<text text-anchor="middle" x="336.8423" y="-6.5" font-family="Helvetica,sans-Serif" font-size="10.00" fill="#000000">ARX/ARUtil/types.h</text>
</a>
</g>
</g>
<!-- Node8&#45;&gt;Node11 -->
<g id="edge14" class="edge">
<title>Node8&#45;&gt;Node11</title>
<path fill="none" stroke="#191970" d="M247.5112,-55.4179C264.5486,-46.6603 290.5585,-33.2907 310.1262,-23.2326"/>
<polygon fill="#191970" stroke="#191970" points="311.8534,-26.2801 319.1472,-18.5956 308.6532,-20.0544 311.8534,-26.2801"/>
</g>
<!-- Node13 -->
<g id="node14" class="node">
<title>Node13</title>
<polygon fill="#ffffff" stroke="#bfbfbf" points="747.5566,-.5 747.5566,-18.5 794.1279,-18.5 794.1279,-.5 747.5566,-.5"/>
<text text-anchor="middle" x="770.8423" y="-6.5" font-family="Helvetica,sans-Serif" font-size="10.00" fill="#000000">math.h</text>
</g>
<!-- Node12&#45;&gt;Node13 -->
<g id="edge16" class="edge">
<title>Node12&#45;&gt;Node13</title>
<path fill="none" stroke="#191970" d="M770.8423,-55.4179C770.8423,-48.2164 770.8423,-37.8962 770.8423,-28.8632"/>
<polygon fill="#191970" stroke="#191970" points="774.3424,-28.7794 770.8423,-18.7795 767.3424,-28.7795 774.3424,-28.7794"/>
</g>
<!-- Node14&#45;&gt;Node2 -->
<g id="edge18" class="edge">
<title>Node14&#45;&gt;Node2</title>
<path fill="none" stroke="#191970" d="M480.6042,-55.4179C471.5049,-47.3458 457.9886,-35.3556 447.0496,-25.6517"/>
<polygon fill="#191970" stroke="#191970" points="449.1062,-22.7974 439.3028,-18.7795 444.4609,-28.0339 449.1062,-22.7974"/>
</g>
<!-- Node15 -->
<g id="node16" class="node">
<title>Node15</title>
<g id="a_node16"><a xlink:href="icp_core_8h.html" target="_top" xlink:title="ARX/AR/icpCore.h">
<polygon fill="#ffffff" stroke="#000000" points="469.4385,-.5 469.4385,-18.5 568.2461,-18.5 568.2461,-.5 469.4385,-.5"/>
<text text-anchor="middle" x="518.8423" y="-6.5" font-family="Helvetica,sans-Serif" font-size="10.00" fill="#000000">ARX/AR/icpCore.h</text>
</a>
</g>
</g>
<!-- Node14&#45;&gt;Node15 -->
<g id="edge19" class="edge">
<title>Node14&#45;&gt;Node15</title>
<path fill="none" stroke="#191970" d="M495.4659,-55.4179C499.253,-47.9789 504.7342,-37.2123 509.4373,-27.9742"/>
<polygon fill="#191970" stroke="#191970" points="512.7004,-29.279 514.1182,-18.7795 506.4622,-26.1032 512.7004,-29.279"/>
</g>
<!-- Node16&#45;&gt;Node1 -->
<g id="edge23" class="edge">
<title>Node16&#45;&gt;Node1</title>
<path fill="none" stroke="#191970" d="M576.0843,-73.5229C537.6799,-83.4146 472.9992,-99.2412 429.0852,-109.5032"/>
<polygon fill="#191970" stroke="#191970" points="428.1718,-106.1221 419.2234,-111.7946 429.7561,-112.9405 428.1718,-106.1221"/>
</g>
<!-- Node16&#45;&gt;Node6 -->
<g id="edge22" class="edge">
<title>Node16&#45;&gt;Node6</title>
<path fill="none" stroke="#191970" d="M616.0988,-55.4179C623.2931,-47.5041 633.9111,-35.8243 642.6377,-26.2251"/>
<polygon fill="#191970" stroke="#191970" points="645.2695,-28.5332 649.4064,-18.7795 640.0899,-23.8245 645.2695,-28.5332"/>
</g>
</g>
</svg>
        <g id="navigator" transform="translate(0 0)" fill="#404254">
                <rect fill="#f2f5e9" fill-opacity="0.5" stroke="#606060" stroke-width=".5" x="0" y="0" width="60" height="60"/>
                <use id="zoomplus" xlink:href="#zoomPlus" x="17" y="9" onmousedown="handleZoom(evt,'in')"/>
                <use id="zoomminus" xlink:href="#zoomMin" x="42" y="9" onmousedown="handleZoom(evt,'out')"/>
                <use id="reset" xlink:href="#resetDef" x="30" y="36" onmousedown="handleReset()"/>
                <g id="arrowUp" xlink:href="#dirArrow" transform="translate(30 24)" onmousedown="handlePan(0,-1)">
                  <use xlink:href="#rim" fill="#404040">
                        <set attributeName="fill" to="#808080" begin="arrowUp.mouseover" end="arrowUp.mouseout"/>
                  </use>
                  <path fill="none" stroke="white" stroke-width="1.5" d="M0,-3.0v7 M-2.5,-0.5L0,-3.0L2.5,-0.5"/>
                </g>
                <g id="arrowRight" xlink:href="#dirArrow" transform="rotate(90) translate(36 -43)" onmousedown="handlePan(1,0)">
                  <use xlink:href="#rim" fill="#404040">
                        <set attributeName="fill" to="#808080" begin="arrowRight.mouseover" end="arrowRight.mouseout"/>
                  </use>
                  <path fill="none" stroke="white" stroke-width="1.5" d="M0,-3.0v7 M-2.5,-0.5L0,-3.0L2.5,-0.5"/>
                </g>
                <g id="arrowDown" xlink:href="#dirArrow" transform="rotate(180) translate(-30 -48)" onmousedown="handlePan(0,1)">
                  <use xlink:href="#rim" fill="#404040">
                        <set attributeName="fill" to="#808080" begin="arrowDown.mouseover" end="arrowDown.mouseout"/>
                  </use>
                  <path fill="none" stroke="white" stroke-width="1.5" d="M0,-3.0v7 M-2.5,-0.5L0,-3.0L2.5,-0.5"/>
                </g>
                <g id="arrowLeft" xlink:href="#dirArrow" transform="rotate(270) translate(-36 17)" onmousedown="handlePan(-1,0)">
                  <use xlink:href="#rim" fill="#404040">
                        <set attributeName="fill" to="#808080" begin="arrowLeft.mouseover" end="arrowLeft.mouseout"/>
                  </use>
                  <path fill="none" stroke="white" stroke-width="1.5" d="M0,-3.0v7 M-2.5,-0.5L0,-3.0L2.5,-0.5"/>
                </g>
        </g>
        <svg viewBox="0 0 15 15" width="100%" height="30px" preserveAspectRatio="xMaxYMin meet">
         <g id="arrow_out" transform="scale(0.3 0.3)">
          <a xlink:href="param_8h__incl_org.svg" target="_base">
           <rect id="button" ry="5" rx="5" y="6" x="6" height="38" width="38"
                fill="#f2f5e9" fill-opacity="0.5" stroke="#606060" stroke-width="1.0"/>
           <path id="arrow"
             d="M 11.500037,31.436501 C 11.940474,20.09759 22.043105,11.32322 32.158766,21.979434 L 37.068811,17.246167 C 37.068811,17.246167 37.088388,32 37.088388,32 L 22.160133,31.978069 C 22.160133,31.978069 26.997745,27.140456 26.997745,27.140456 C 18.528582,18.264221 13.291696,25.230495 11.500037,31.436501 z"
             style="fill:#404040;"/>
          </a>
         </g>
        </svg>
</svg>
