<?xml version="1.0" encoding="UTF-8" standalone="no"?>
<!DOCTYPE svg PUBLIC "-//W3C//DTD SVG 1.1//EN"
 "http://www.w3.org/Graphics/SVG/1.1/DTD/svg11.dtd">
<!-- Generated by graphviz version 7.0.5 (20221223.1930)
 -->
<!-- Title: Source/ARX/AR/paramDecomp.c Pages: 1 -->
<svg width="965pt" height="192pt"
 viewBox="0.00 0.00 965.46 192.00" xmlns="http://www.w3.org/2000/svg" xmlns:xlink="http://www.w3.org/1999/xlink">
<g id="graph0" class="graph" transform="scale(1 1) rotate(0) translate(4 188)">
<title>Source/ARX/AR/paramDecomp.c</title>
<!-- Node1 -->
<g id="node1" class="node">
<title>Node1</title>
<g id="a_node1"><a xlink:title=" ">
<polygon fill="#999999" stroke="#666666" points="585.46,-184 421.46,-184 421.46,-165 585.46,-165 585.46,-184"/>
<text text-anchor="middle" x="503.46" y="-172" font-family="Helvetica,sans-Serif" font-size="10.00">Source/ARX/AR/paramDecomp.c</text>
</a>
</g>
</g>
<!-- Node2 -->
<g id="node2" class="node">
<title>Node2</title>
<g id="a_node2"><a xlink:title=" ">
<polygon fill="#e0e0e0" stroke="#999999" points="839.46,-19 793.46,-19 793.46,0 839.46,0 839.46,-19"/>
<text text-anchor="middle" x="816.46" y="-7" font-family="Helvetica,sans-Serif" font-size="10.00">stdio.h</text>
</a>
</g>
</g>
<!-- Node1&#45;&gt;Node2 -->
<g id="edge1" class="edge">
<title>Node1&#45;&gt;Node2</title>
<path fill="none" stroke="#63b8ff" d="M585.96,-165.74C695.41,-153.55 879.59,-125.77 920.46,-74 925.7,-67.37 925.11,-62.05 920.46,-55 912.29,-42.61 877.5,-29.34 850.39,-20.54"/>
<polygon fill="#63b8ff" stroke="#63b8ff" points="851.74,-17.3 841.15,-17.63 849.63,-23.97 851.74,-17.3"/>
</g>
<!-- Node3 -->
<g id="node3" class="node">
<title>Node3</title>
<g id="a_node3"><a xlink:title=" ">
<polygon fill="#e0e0e0" stroke="#999999" points="47.96,-19 0.96,-19 0.96,0 47.96,0 47.96,-19"/>
<text text-anchor="middle" x="24.46" y="-7" font-family="Helvetica,sans-Serif" font-size="10.00">math.h</text>
</a>
</g>
</g>
<!-- Node1&#45;&gt;Node3 -->
<g id="edge2" class="edge">
<title>Node1&#45;&gt;Node3</title>
<path fill="none" stroke="#63b8ff" d="M421.21,-169.3C293.58,-160.88 57.1,-136.98 5.46,-74 -5.12,-61.09 2.39,-42.43 10.88,-28.68"/>
<polygon fill="#63b8ff" stroke="#63b8ff" points="13.69,-30.77 16.44,-20.54 7.91,-26.83 13.69,-30.77"/>
</g>
<!-- Node4 -->
<g id="node4" class="node">
<title>Node4</title>
<g id="a_node4"><a xlink:href="ar_8h.html" target="_top" xlink:title="artoolkitX core routines.">
<polygon fill="white" stroke="#666666" points="540.46,-129 466.46,-129 466.46,-110 540.46,-110 540.46,-129"/>
<text text-anchor="middle" x="503.46" y="-117" font-family="Helvetica,sans-Serif" font-size="10.00">ARX/AR/ar.h</text>
</a>
</g>
</g>
<!-- Node1&#45;&gt;Node4 -->
<g id="edge3" class="edge">
<title>Node1&#45;&gt;Node4</title>
<path fill="none" stroke="#63b8ff" d="M503.46,-164.75C503.46,-158.27 503.46,-149.16 503.46,-140.9"/>
<polygon fill="#63b8ff" stroke="#63b8ff" points="506.96,-140.96 503.46,-130.96 499.96,-140.96 506.96,-140.96"/>
</g>
<!-- Node4&#45;&gt;Node2 -->
<g id="edge4" class="edge">
<title>Node4&#45;&gt;Node2</title>
<path fill="none" stroke="#63b8ff" d="M540.52,-115.39C603.21,-109.61 727.01,-95.78 764.46,-74 782.9,-63.28 797.55,-43.39 806.54,-28.71"/>
<polygon fill="#63b8ff" stroke="#63b8ff" points="809.34,-30.88 811.31,-20.47 803.28,-27.38 809.34,-30.88"/>
</g>
<!-- Node5 -->
<g id="node5" class="node">
<title>Node5</title>
<g id="a_node5"><a xlink:title=" ">
<polygon fill="#e0e0e0" stroke="#999999" points="775.46,-19 727.46,-19 727.46,0 775.46,0 775.46,-19"/>
<text text-anchor="middle" x="751.46" y="-7" font-family="Helvetica,sans-Serif" font-size="10.00">stdlib.h</text>
</a>
</g>
</g>
<!-- Node4&#45;&gt;Node5 -->
<g id="edge5" class="edge">
<title>Node4&#45;&gt;Node5</title>
<path fill="none" stroke="#63b8ff" d="M540.85,-116.96C601.79,-113.62 718.49,-103.45 745.46,-74 756,-62.5 756.76,-44.42 755.31,-30.5"/>
<polygon fill="#63b8ff" stroke="#63b8ff" points="758.78,-30.03 753.8,-20.67 751.86,-31.09 758.78,-30.03"/>
</g>
<!-- Node6 -->
<g id="node6" class="node">
<title>Node6</title>
<g id="a_node6"><a xlink:title=" ">
<polygon fill="#e0e0e0" stroke="#999999" points="174.96,-74 125.96,-74 125.96,-55 174.96,-55 174.96,-74"/>
<text text-anchor="middle" x="150.46" y="-62" font-family="Helvetica,sans-Serif" font-size="10.00">stdint.h</text>
</a>
</g>
</g>
<!-- Node4&#45;&gt;Node6 -->
<g id="edge6" class="edge">
<title>Node4&#45;&gt;Node6</title>
<path fill="none" stroke="#63b8ff" d="M466.1,-114.11C407.12,-106.98 288.91,-91.86 189.46,-74 188.45,-73.82 187.42,-73.63 186.38,-73.43"/>
<polygon fill="#63b8ff" stroke="#63b8ff" points="187.14,-70.02 176.65,-71.47 185.76,-76.88 187.14,-70.02"/>
</g>
<!-- Node7 -->
<g id="node7" class="node">
<title>Node7</title>
<g id="a_node7"><a xlink:title=" ">
<polygon fill="#e0e0e0" stroke="#999999" points="431.96,-19 382.96,-19 382.96,0 431.96,0 431.96,-19"/>
<text text-anchor="middle" x="407.46" y="-7" font-family="Helvetica,sans-Serif" font-size="10.00">string.h</text>
</a>
</g>
</g>
<!-- Node4&#45;&gt;Node7 -->
<g id="edge7" class="edge">
<title>Node4&#45;&gt;Node7</title>
<path fill="none" stroke="#63b8ff" d="M502.7,-109.77C501.15,-96.6 496.58,-71.45 483.46,-55 472.8,-41.63 456.95,-31.45 442.48,-24.22"/>
<polygon fill="#63b8ff" stroke="#63b8ff" points="444.19,-21.16 433.65,-20.11 441.24,-27.5 444.19,-21.16"/>
</g>
<!-- Node8 -->
<g id="node8" class="node">
<title>Node8</title>
<g id="a_node8"><a xlink:title=" ">
<polygon fill="#e0e0e0" stroke="#999999" points="293.46,-19 201.46,-19 201.46,0 293.46,0 293.46,-19"/>
<text text-anchor="middle" x="247.46" y="-7" font-family="Helvetica,sans-Serif" font-size="10.00">ARX/AR/config.h</text>
</a>
</g>
</g>
<!-- Node4&#45;&gt;Node8 -->
<g id="edge8" class="edge">
<title>Node4&#45;&gt;Node8</title>
<path fill="none" stroke="#63b8ff" d="M466.14,-118.32C397.04,-117.11 253.38,-110.2 222.46,-74 211.09,-60.68 221.19,-41.56 231.76,-27.78"/>
<polygon fill="#63b8ff" stroke="#63b8ff" points="234.2,-30.32 237.92,-20.4 228.83,-25.84 234.2,-30.32"/>
</g>
<!-- Node9 -->
<g id="node9" class="node">
<title>Node9</title>
<g id="a_node9"><a xlink:href="ar_config_8h.html" target="_top" xlink:title=" ">
<polygon fill="white" stroke="#666666" points="474.96,-74 371.96,-74 371.96,-55 474.96,-55 474.96,-74"/>
<text text-anchor="middle" x="423.46" y="-62" font-family="Helvetica,sans-Serif" font-size="10.00">ARX/AR/arConfig.h</text>
</a>
</g>
</g>
<!-- Node4&#45;&gt;Node9 -->
<g id="edge9" class="edge">
<title>Node4&#45;&gt;Node9</title>
<path fill="none" stroke="#63b8ff" d="M489.89,-109.51C477.98,-101.62 460.42,-89.98 446.34,-80.65"/>
<polygon fill="#63b8ff" stroke="#63b8ff" points="448.37,-77.8 438.1,-75.19 444.5,-83.63 448.37,-77.8"/>
</g>
<!-- Node10 -->
<g id="node10" class="node">
<title>Node10</title>
<g id="a_node10"><a xlink:href="log_8h.html" target="_top" xlink:title="Logging utilities.">
<polygon fill="white" stroke="#666666" points="625.46,-74 531.46,-74 531.46,-55 625.46,-55 625.46,-74"/>
<text text-anchor="middle" x="578.46" y="-62" font-family="Helvetica,sans-Serif" font-size="10.00">ARX/ARUtil/log.h</text>
</a>
</g>
</g>
<!-- Node4&#45;&gt;Node10 -->
<g id="edge10" class="edge">
<title>Node4&#45;&gt;Node10</title>
<path fill="none" stroke="#63b8ff" d="M516.19,-109.51C527.24,-101.7 543.5,-90.21 556.63,-80.93"/>
<polygon fill="#63b8ff" stroke="#63b8ff" points="558.55,-83.86 564.69,-75.23 554.51,-78.14 558.55,-83.86"/>
</g>
<!-- Node14 -->
<g id="node14" class="node">
<title>Node14</title>
<g id="a_node14"><a xlink:href="matrix_8h.html" target="_top" xlink:title=" ">
<polygon fill="white" stroke="#666666" points="107.96,-74 14.96,-74 14.96,-55 107.96,-55 107.96,-74"/>
<text text-anchor="middle" x="61.46" y="-62" font-family="Helvetica,sans-Serif" font-size="10.00">ARX/AR/matrix.h</text>
</a>
</g>
</g>
<!-- Node4&#45;&gt;Node14 -->
<g id="edge17" class="edge">
<title>Node4&#45;&gt;Node14</title>
<path fill="none" stroke="#63b8ff" d="M466.04,-114.69C398.79,-107.72 252.75,-92.13 119.46,-74.36"/>
<polygon fill="#63b8ff" stroke="#63b8ff" points="120.13,-70.92 109.75,-73.06 119.2,-77.86 120.13,-70.92"/>
</g>
<!-- Node15 -->
<g id="node15" class="node">
<title>Node15</title>
<g id="a_node15"><a xlink:href="icp_8h.html" target="_top" xlink:title=" ">
<polygon fill="white" stroke="#666666" points="910.96,-74 831.96,-74 831.96,-55 910.96,-55 910.96,-74"/>
<text text-anchor="middle" x="871.46" y="-62" font-family="Helvetica,sans-Serif" font-size="10.00">ARX/AR/icp.h</text>
</a>
</g>
</g>
<!-- Node4&#45;&gt;Node15 -->
<g id="edge19" class="edge">
<title>Node4&#45;&gt;Node15</title>
<path fill="none" stroke="#63b8ff" d="M540.71,-113.41C599.54,-105.33 717.54,-88.94 817.46,-74 818.47,-73.85 819.49,-73.7 820.51,-73.54"/>
<polygon fill="#63b8ff" stroke="#63b8ff" points="820.81,-77.04 830.17,-72.06 819.75,-70.12 820.81,-77.04"/>
</g>
<!-- Node17 -->
<g id="node17" class="node">
<title>Node17</title>
<g id="a_node17"><a xlink:href="param_8h.html" target="_top" xlink:title="artoolkitX functions for handling calibrated camera parameters.">
<polygon fill="white" stroke="#666666" points="736.96,-74 643.96,-74 643.96,-55 736.96,-55 736.96,-74"/>
<text text-anchor="middle" x="690.46" y="-62" font-family="Helvetica,sans-Serif" font-size="10.00">ARX/AR/param.h</text>
</a>
</g>
</g>
<!-- Node4&#45;&gt;Node17 -->
<g id="edge22" class="edge">
<title>Node4&#45;&gt;Node17</title>
<path fill="none" stroke="#63b8ff" d="M529.97,-109.51C559.37,-100.65 607.13,-87.07 642.98,-77.33"/>
<polygon fill="#63b8ff" stroke="#63b8ff" points="643.49,-80.82 652.23,-74.84 641.66,-74.06 643.49,-80.82"/>
</g>
<!-- Node18 -->
<g id="node18" class="node">
<title>Node18</title>
<g id="a_node18"><a xlink:href="ar_image_proc_8h.html" target="_top" xlink:title="artoolkitX functions for 2D luminance image processing.">
<polygon fill="white" stroke="#666666" points="353.46,-74 231.46,-74 231.46,-55 353.46,-55 353.46,-74"/>
<text text-anchor="middle" x="292.46" y="-62" font-family="Helvetica,sans-Serif" font-size="10.00">ARX/AR/arImageProc.h</text>
</a>
</g>
</g>
<!-- Node4&#45;&gt;Node18 -->
<g id="edge24" class="edge">
<title>Node4&#45;&gt;Node18</title>
<path fill="none" stroke="#63b8ff" d="M466.41,-110.45C429.21,-101.62 372.22,-87.37 333.64,-77.28"/>
<polygon fill="#63b8ff" stroke="#63b8ff" points="334.81,-73.97 324.25,-74.81 333.03,-80.74 334.81,-73.97"/>
</g>
<!-- Node10&#45;&gt;Node2 -->
<g id="edge11" class="edge">
<title>Node10&#45;&gt;Node2</title>
<path fill="none" stroke="#63b8ff" d="M622.8,-54.55C662.25,-46.45 721.75,-33.88 782.19,-19.46"/>
<polygon fill="#63b8ff" stroke="#63b8ff" points="782.7,-22.94 791.61,-17.2 781.06,-16.13 782.7,-22.94"/>
</g>
<!-- Node10&#45;&gt;Node5 -->
<g id="edge12" class="edge">
<title>Node10&#45;&gt;Node5</title>
<path fill="none" stroke="#63b8ff" d="M607.81,-54.51C637.82,-45.32 684.44,-31.03 716.38,-21.25"/>
<polygon fill="#63b8ff" stroke="#63b8ff" points="717.03,-24.71 725.57,-18.43 714.98,-18.02 717.03,-24.71"/>
</g>
<!-- Node10&#45;&gt;Node7 -->
<g id="edge13" class="edge">
<title>Node10&#45;&gt;Node7</title>
<path fill="none" stroke="#63b8ff" d="M549.46,-54.51C520.18,-45.43 474.9,-31.4 443.37,-21.63"/>
<polygon fill="#63b8ff" stroke="#63b8ff" points="444.47,-18.31 433.88,-18.69 442.4,-24.99 444.47,-18.31"/>
</g>
<!-- Node11 -->
<g id="node11" class="node">
<title>Node11</title>
<g id="a_node11"><a xlink:title=" ">
<polygon fill="#e0e0e0" stroke="#999999" points="625.46,-19 573.46,-19 573.46,0 625.46,0 625.46,-19"/>
<text text-anchor="middle" x="599.46" y="-7" font-family="Helvetica,sans-Serif" font-size="10.00">stdarg.h</text>
</a>
</g>
</g>
<!-- Node10&#45;&gt;Node11 -->
<g id="edge14" class="edge">
<title>Node10&#45;&gt;Node11</title>
<path fill="none" stroke="#63b8ff" d="M581.93,-54.75C584.59,-48.04 588.36,-38.52 591.73,-30.02"/>
<polygon fill="#63b8ff" stroke="#63b8ff" points="594.93,-31.44 595.36,-20.85 588.43,-28.86 594.93,-31.44"/>
</g>
<!-- Node12 -->
<g id="node12" class="node">
<title>Node12</title>
<g id="a_node12"><a xlink:title=" ">
<polygon fill="#e0e0e0" stroke="#999999" points="708.96,-19 643.96,-19 643.96,0 708.96,0 708.96,-19"/>
<text text-anchor="middle" x="676.46" y="-7" font-family="Helvetica,sans-Serif" font-size="10.00">sys/errno.h</text>
</a>
</g>
</g>
<!-- Node10&#45;&gt;Node12 -->
<g id="edge15" class="edge">
<title>Node10&#45;&gt;Node12</title>
<path fill="none" stroke="#63b8ff" d="M595.09,-54.51C610.24,-46.31 632.88,-34.07 650.43,-24.58"/>
<polygon fill="#63b8ff" stroke="#63b8ff" points="651.62,-27.91 658.75,-20.08 648.29,-21.76 651.62,-27.91"/>
</g>
<!-- Node13 -->
<g id="node13" class="node">
<title>Node13</title>
<g id="a_node13"><a xlink:href="types_8h.html" target="_top" xlink:title=" ">
<polygon fill="white" stroke="#666666" points="554.96,-19 449.96,-19 449.96,0 554.96,0 554.96,-19"/>
<text text-anchor="middle" x="502.46" y="-7" font-family="Helvetica,sans-Serif" font-size="10.00">ARX/ARUtil/types.h</text>
</a>
</g>
</g>
<!-- Node10&#45;&gt;Node13 -->
<g id="edge16" class="edge">
<title>Node10&#45;&gt;Node13</title>
<path fill="none" stroke="#63b8ff" d="M565.57,-54.51C554.37,-46.7 537.89,-35.21 524.58,-25.93"/>
<polygon fill="#63b8ff" stroke="#63b8ff" points="526.61,-23.07 516.41,-20.22 522.61,-28.81 526.61,-23.07"/>
</g>
<!-- Node14&#45;&gt;Node3 -->
<g id="edge18" class="edge">
<title>Node14&#45;&gt;Node3</title>
<path fill="none" stroke="#63b8ff" d="M55.35,-54.75C50.46,-47.73 43.41,-37.64 37.29,-28.87"/>
<polygon fill="#63b8ff" stroke="#63b8ff" points="40.17,-26.88 31.57,-20.68 34.43,-30.89 40.17,-26.88"/>
</g>
<!-- Node15&#45;&gt;Node2 -->
<g id="edge20" class="edge">
<title>Node15&#45;&gt;Node2</title>
<path fill="none" stroke="#63b8ff" d="M862.38,-54.75C854.63,-47.27 843.25,-36.32 833.77,-27.17"/>
<polygon fill="#63b8ff" stroke="#63b8ff" points="836.46,-24.91 826.83,-20.49 831.61,-29.95 836.46,-24.91"/>
</g>
<!-- Node16 -->
<g id="node16" class="node">
<title>Node16</title>
<g id="a_node16"><a xlink:href="icp_core_8h.html" target="_top" xlink:title=" ">
<polygon fill="white" stroke="#666666" points="957.46,-19 857.46,-19 857.46,0 957.46,0 957.46,-19"/>
<text text-anchor="middle" x="907.46" y="-7" font-family="Helvetica,sans-Serif" font-size="10.00">ARX/AR/icpCore.h</text>
</a>
</g>
</g>
<!-- Node15&#45;&gt;Node16 -->
<g id="edge21" class="edge">
<title>Node15&#45;&gt;Node16</title>
<path fill="none" stroke="#63b8ff" d="M877.41,-54.75C882.17,-47.73 889.03,-37.64 894.98,-28.87"/>
<polygon fill="#63b8ff" stroke="#63b8ff" points="897.82,-30.93 900.54,-20.69 892.03,-27 897.82,-30.93"/>
</g>
<!-- Node17&#45;&gt;Node4 -->
<g id="edge23" class="edge">
<title>Node17&#45;&gt;Node4</title>
<path fill="none" stroke="#63b8ff" d="M664.11,-74.45C634.77,-83.29 587.02,-96.87 551.13,-106.62"/>
<polygon fill="#63b8ff" stroke="#63b8ff" points="550.61,-103.13 541.86,-109.12 552.43,-109.89 550.61,-103.13"/>
</g>
<!-- Node18&#45;&gt;Node4 -->
<g id="edge26" class="edge">
<title>Node18&#45;&gt;Node4</title>
<path fill="none" stroke="#63b8ff" d="M333.29,-74.45C370.35,-83.29 424.61,-96.87 461.9,-106.62"/>
<polygon fill="#63b8ff" stroke="#63b8ff" points="460.86,-109.96 471.42,-109.12 462.64,-103.19 460.86,-109.96"/>
</g>
<!-- Node18&#45;&gt;Node8 -->
<g id="edge25" class="edge">
<title>Node18&#45;&gt;Node8</title>
<path fill="none" stroke="#63b8ff" d="M285.03,-54.75C278.88,-47.5 269.95,-36.98 262.34,-28.02"/>
<polygon fill="#63b8ff" stroke="#63b8ff" points="265.18,-25.95 256.04,-20.6 259.84,-30.48 265.18,-25.95"/>
</g>
</g>
</svg>
