<?xml version="1.0" encoding="UTF-8" standalone="no"?>
<!DOCTYPE svg PUBLIC "-//W3C//DTD SVG 1.1//EN"
 "http://www.w3.org/Graphics/SVG/1.1/DTD/svg11.dtd">
<!-- Generated by graphviz version 2.40.1 (20161225.0304)
 -->
<!-- Title: /Users/phil/r/artoolkitx/Source/ARX/AR/paramLT.c Pages: 1 -->
<svg width="978pt" height="202pt"
 viewBox="0.00 0.00 978.12 202.00" xmlns="http://www.w3.org/2000/svg" xmlns:xlink="http://www.w3.org/1999/xlink">
<g id="graph0" class="graph" transform="scale(1 1) rotate(0) translate(4 198)">
<title>/Users/phil/r/artoolkitx/Source/ARX/AR/paramLT.c</title>
<polygon fill="#ffffff" stroke="transparent" points="-4,4 -4,-198 974.1155,-198 974.1155,4 -4,4"/>
<!-- Node0 -->
<g id="node1" class="node">
<title>Node0</title>
<polygon fill="#bfbfbf" stroke="#000000" points="461.4491,-165.5 461.4491,-193.5 600.6474,-193.5 600.6474,-165.5 461.4491,-165.5"/>
<text text-anchor="start" x="469.4491" y="-181.5" font-family="Helvetica,sans-Serif" font-size="10.00" fill="#000000">/Users/phil/r/artoolkitx</text>
<text text-anchor="middle" x="531.0483" y="-171.5" font-family="Helvetica,sans-Serif" font-size="10.00" fill="#000000">/Source/ARX/AR/paramLT.c</text>
</g>
<!-- Node1 -->
<g id="node2" class="node">
<title>Node1</title>
<polygon fill="#ffffff" stroke="#bfbfbf" points="656.3168,-.5 656.3168,-18.5 701.7797,-18.5 701.7797,-.5 656.3168,-.5"/>
<text text-anchor="middle" x="679.0483" y="-6.5" font-family="Helvetica,sans-Serif" font-size="10.00" fill="#000000">stdio.h</text>
</g>
<!-- Node0&#45;&gt;Node1 -->
<g id="edge1" class="edge">
<title>Node0&#45;&gt;Node1</title>
<path fill="none" stroke="#191970" d="M600.8122,-171.4417C705.0726,-157.8009 893.6458,-126.4103 934.0483,-74 975.2052,-20.611 1044.2271,-85.8136 718.0483,-19 716.0215,-18.5848 713.9403,-18.1382 711.8446,-17.673"/>
<polygon fill="#191970" stroke="#191970" points="712.6141,-14.2586 702.0819,-15.409 711.0327,-21.0777 712.6141,-14.2586"/>
</g>
<!-- Node2 -->
<g id="node3" class="node">
<title>Node2</title>
<polygon fill="#ffffff" stroke="#bfbfbf" points="244.6518,-.5 244.6518,-18.5 293.4447,-18.5 293.4447,-.5 244.6518,-.5"/>
<text text-anchor="middle" x="269.0483" y="-6.5" font-family="Helvetica,sans-Serif" font-size="10.00" fill="#000000">string.h</text>
</g>
<!-- Node0&#45;&gt;Node2 -->
<g id="edge2" class="edge">
<title>Node0&#45;&gt;Node2</title>
<path fill="none" stroke="#191970" d="M461.3873,-175.3343C336.7539,-166.2704 83.6017,-140.0051 30.0483,-74 -9.6892,-25.0232 -55.5228,-75.1746 225.0483,-19 228.0918,-18.3906 231.2502,-17.7417 234.4143,-17.0801"/>
<polygon fill="#191970" stroke="#191970" points="235.3537,-20.4587 244.4079,-14.9567 233.8988,-13.6115 235.3537,-20.4587"/>
</g>
<!-- Node3 -->
<g id="node4" class="node">
<title>Node3</title>
<polygon fill="#ffffff" stroke="#bfbfbf" points="10.7626,-.5 10.7626,-18.5 57.3339,-18.5 57.3339,-.5 10.7626,-.5"/>
<text text-anchor="middle" x="34.0483" y="-6.5" font-family="Helvetica,sans-Serif" font-size="10.00" fill="#000000">math.h</text>
</g>
<!-- Node0&#45;&gt;Node3 -->
<g id="edge3" class="edge">
<title>Node0&#45;&gt;Node3</title>
<path fill="none" stroke="#191970" d="M461.2394,-175.8485C353.2943,-169.4921 151.2991,-154.5693 84.0483,-129 44.3991,-113.9251 25.5728,-111.6577 6.0483,-74 -2.0641,-58.3534 7.8793,-39.8404 18.093,-26.6706"/>
<polygon fill="#191970" stroke="#191970" points="20.8954,-28.7763 24.6568,-18.8716 15.5398,-24.2688 20.8954,-28.7763"/>
</g>
<!-- Node4 -->
<g id="node5" class="node">
<title>Node4</title>
<g id="a_node5"><a xlink:href="ar_8h.html" target="_top" xlink:title="artoolkitX core routines. ">
<polygon fill="#ffffff" stroke="#000000" points="494.7011,-110.5 494.7011,-128.5 567.3954,-128.5 567.3954,-110.5 494.7011,-110.5"/>
<text text-anchor="middle" x="531.0483" y="-116.5" font-family="Helvetica,sans-Serif" font-size="10.00" fill="#000000">ARX/AR/ar.h</text>
</a>
</g>
</g>
<!-- Node0&#45;&gt;Node4 -->
<g id="edge4" class="edge">
<title>Node0&#45;&gt;Node4</title>
<path fill="none" stroke="#191970" d="M531.0483,-165.2808C531.0483,-157.3776 531.0483,-147.4316 531.0483,-138.8308"/>
<polygon fill="#191970" stroke="#191970" points="534.5484,-138.5842 531.0483,-128.5842 527.5484,-138.5842 534.5484,-138.5842"/>
</g>
<!-- Node16 -->
<g id="node17" class="node">
<title>Node16</title>
<g id="a_node17"><a xlink:href="param_8h.html" target="_top" xlink:title="artoolkitX functions for handling calibrated camera parameters. ">
<polygon fill="#ffffff" stroke="#000000" points="832.7011,-55.5 832.7011,-73.5 925.3954,-73.5 925.3954,-55.5 832.7011,-55.5"/>
<text text-anchor="middle" x="879.0483" y="-61.5" font-family="Helvetica,sans-Serif" font-size="10.00" fill="#000000">ARX/AR/param.h</text>
</a>
</g>
</g>
<!-- Node0&#45;&gt;Node16 -->
<g id="edge28" class="edge">
<title>Node0&#45;&gt;Node16</title>
<path fill="none" stroke="#191970" d="M573.7199,-165.3987C642.4594,-142.6831 776.5753,-98.3632 841.733,-76.8312"/>
<polygon fill="#191970" stroke="#191970" points="843.1811,-80.0389 851.5778,-73.5779 840.9846,-73.3924 843.1811,-80.0389"/>
</g>
<!-- Node4&#45;&gt;Node1 -->
<g id="edge5" class="edge">
<title>Node4&#45;&gt;Node1</title>
<path fill="none" stroke="#191970" d="M547.9812,-110.3756C563.5524,-101.721 587.0366,-87.9927 606.0483,-74 626.3152,-59.0835 647.6844,-39.7166 662.0276,-26.1121"/>
<polygon fill="#191970" stroke="#191970" points="664.8082,-28.2946 669.5994,-18.845 659.961,-23.2443 664.8082,-28.2946"/>
</g>
<!-- Node4&#45;&gt;Node2 -->
<g id="edge8" class="edge">
<title>Node4&#45;&gt;Node2</title>
<path fill="none" stroke="#191970" d="M520.6347,-110.4413C504.1816,-96.5734 470.6799,-70.1037 438.0483,-55 384.4469,-30.1903 364.8724,-34.8043 303.3666,-18.9882"/>
<polygon fill="#191970" stroke="#191970" points="304.1159,-15.566 293.5527,-16.3842 302.3206,-22.3319 304.1159,-15.566"/>
</g>
<!-- Node5 -->
<g id="node6" class="node">
<title>Node5</title>
<polygon fill="#ffffff" stroke="#bfbfbf" points="586.206,-.5 586.206,-18.5 633.8905,-18.5 633.8905,-.5 586.206,-.5"/>
<text text-anchor="middle" x="610.0483" y="-6.5" font-family="Helvetica,sans-Serif" font-size="10.00" fill="#000000">stdlib.h</text>
</g>
<!-- Node4&#45;&gt;Node5 -->
<g id="edge6" class="edge">
<title>Node4&#45;&gt;Node5</title>
<path fill="none" stroke="#191970" d="M545.989,-110.3505C558.2471,-102.1684 575.2788,-89.1513 586.0483,-74 595.7824,-60.3052 602.0643,-42.1932 605.7494,-28.6492"/>
<polygon fill="#191970" stroke="#191970" points="609.2454,-29.0922 608.2529,-18.5439 602.4508,-27.4088 609.2454,-29.0922"/>
</g>
<!-- Node6 -->
<g id="node7" class="node">
<title>Node6</title>
<polygon fill="#ffffff" stroke="#bfbfbf" points="670.9277,-55.5 670.9277,-73.5 719.1689,-73.5 719.1689,-55.5 670.9277,-55.5"/>
<text text-anchor="middle" x="695.0483" y="-61.5" font-family="Helvetica,sans-Serif" font-size="10.00" fill="#000000">stdint.h</text>
</g>
<!-- Node4&#45;&gt;Node6 -->
<g id="edge7" class="edge">
<title>Node4&#45;&gt;Node6</title>
<path fill="none" stroke="#191970" d="M558.1295,-110.4179C586.3291,-100.9607 630.5658,-86.1252 661.0869,-75.8895"/>
<polygon fill="#191970" stroke="#191970" points="662.5006,-79.107 670.8688,-72.609 660.2749,-72.4703 662.5006,-79.107"/>
</g>
<!-- Node7 -->
<g id="node8" class="node">
<title>Node7</title>
<polygon fill="#ffffff" stroke="#bfbfbf" points="124.5312,-.5 124.5312,-18.5 215.5653,-18.5 215.5653,-.5 124.5312,-.5"/>
<text text-anchor="middle" x="170.0483" y="-6.5" font-family="Helvetica,sans-Serif" font-size="10.00" fill="#000000">ARX/AR/config.h</text>
</g>
<!-- Node4&#45;&gt;Node7 -->
<g id="edge9" class="edge">
<title>Node4&#45;&gt;Node7</title>
<path fill="none" stroke="#191970" d="M494.45,-117.2946C408.6595,-111.7755 200.1422,-96.2 178.0483,-74 166.6174,-62.5143 165.4939,-43.6173 166.7105,-29.2386"/>
<polygon fill="#191970" stroke="#191970" points="170.2354,-29.2677 168.0358,-18.9037 163.2922,-28.3773 170.2354,-29.2677"/>
</g>
<!-- Node8 -->
<g id="node9" class="node">
<title>Node8</title>
<g id="a_node9"><a xlink:href="ar_config_8h.html" target="_top" xlink:title="ARX/AR/arConfig.h">
<polygon fill="#ffffff" stroke="#000000" points="326.9745,-55.5 326.9745,-73.5 429.122,-73.5 429.122,-55.5 326.9745,-55.5"/>
<text text-anchor="middle" x="378.0483" y="-61.5" font-family="Helvetica,sans-Serif" font-size="10.00" fill="#000000">ARX/AR/arConfig.h</text>
</a>
</g>
</g>
<!-- Node4&#45;&gt;Node8 -->
<g id="edge10" class="edge">
<title>Node4&#45;&gt;Node8</title>
<path fill="none" stroke="#191970" d="M505.7834,-110.4179C480.3489,-101.2748 440.9301,-87.1046 412.6097,-76.924"/>
<polygon fill="#191970" stroke="#191970" points="413.6908,-73.5935 403.0963,-73.5042 411.3228,-80.1808 413.6908,-73.5935"/>
</g>
<!-- Node9 -->
<g id="node10" class="node">
<title>Node9</title>
<g id="a_node10"><a xlink:href="log_8h.html" target="_top" xlink:title="Logging utilities. ">
<polygon fill="#ffffff" stroke="#000000" points="484.9794,-55.5 484.9794,-73.5 577.1171,-73.5 577.1171,-55.5 484.9794,-55.5"/>
<text text-anchor="middle" x="531.0483" y="-61.5" font-family="Helvetica,sans-Serif" font-size="10.00" fill="#000000">ARX/ARUtil/log.h</text>
</a>
</g>
</g>
<!-- Node4&#45;&gt;Node9 -->
<g id="edge11" class="edge">
<title>Node4&#45;&gt;Node9</title>
<path fill="none" stroke="#191970" d="M531.0483,-110.4179C531.0483,-103.2164 531.0483,-92.8962 531.0483,-83.8632"/>
<polygon fill="#191970" stroke="#191970" points="534.5484,-83.7794 531.0483,-73.7795 527.5484,-83.7795 534.5484,-83.7794"/>
</g>
<!-- Node13 -->
<g id="node14" class="node">
<title>Node13</title>
<g id="a_node14"><a xlink:href="matrix_8h.html" target="_top" xlink:title="ARX/AR/matrix.h">
<polygon fill="#ffffff" stroke="#000000" points="39.2626,-55.5 39.2626,-73.5 130.8339,-73.5 130.8339,-55.5 39.2626,-55.5"/>
<text text-anchor="middle" x="85.0483" y="-61.5" font-family="Helvetica,sans-Serif" font-size="10.00" fill="#000000">ARX/AR/matrix.h</text>
</a>
</g>
</g>
<!-- Node4&#45;&gt;Node13 -->
<g id="edge18" class="edge">
<title>Node4&#45;&gt;Node13</title>
<path fill="none" stroke="#191970" d="M494.5317,-115.6842C425.9451,-108.4088 273.2215,-91.6942 145.0483,-74 143.7554,-73.8215 142.4473,-73.6381 141.1285,-73.4506"/>
<polygon fill="#191970" stroke="#191970" points="141.2846,-69.9362 130.8828,-71.949 140.2695,-76.8622 141.2846,-69.9362"/>
</g>
<!-- Node14 -->
<g id="node15" class="node">
<title>Node14</title>
<g id="a_node15"><a xlink:href="icp_8h.html" target="_top" xlink:title="ARX/AR/icp.h">
<polygon fill="#ffffff" stroke="#000000" points="737.4819,-55.5 737.4819,-73.5 814.6147,-73.5 814.6147,-55.5 737.4819,-55.5"/>
<text text-anchor="middle" x="776.0483" y="-61.5" font-family="Helvetica,sans-Serif" font-size="10.00" fill="#000000">ARX/AR/icp.h</text>
</a>
</g>
</g>
<!-- Node4&#45;&gt;Node14 -->
<g id="edge20" class="edge">
<title>Node4&#45;&gt;Node14</title>
<path fill="none" stroke="#191970" d="M567.4627,-111.3253C609.9348,-101.7908 680.3236,-85.9892 727.4356,-75.4131"/>
<polygon fill="#191970" stroke="#191970" points="728.4195,-78.7794 737.41,-73.1739 726.8861,-71.9494 728.4195,-78.7794"/>
</g>
<!-- Node4&#45;&gt;Node16 -->
<g id="edge23" class="edge">
<title>Node4&#45;&gt;Node16</title>
<path fill="none" stroke="#191970" d="M567.6605,-113.0958C621.8731,-104.488 726.1497,-88.5791 815.0483,-74 817.5165,-73.5952 820.0462,-73.1755 822.609,-72.7479"/>
<polygon fill="#191970" stroke="#191970" points="823.3141,-76.1787 832.5987,-71.0751 822.158,-69.2748 823.3141,-76.1787"/>
</g>
<!-- Node17 -->
<g id="node18" class="node">
<title>Node17</title>
<g id="a_node18"><a xlink:href="ar_image_proc_8h.html" target="_top" xlink:title="artoolkitX functions for 2D luminance image processing. ">
<polygon fill="#ffffff" stroke="#000000" points="187.2504,-55.5 187.2504,-73.5 308.8461,-73.5 308.8461,-55.5 187.2504,-55.5"/>
<text text-anchor="middle" x="248.0483" y="-61.5" font-family="Helvetica,sans-Serif" font-size="10.00" fill="#000000">ARX/AR/arImageProc.h</text>
</a>
</g>
</g>
<!-- Node4&#45;&gt;Node17 -->
<g id="edge25" class="edge">
<title>Node4&#45;&gt;Node17</title>
<path fill="none" stroke="#191970" d="M494.6713,-113.2977C444.991,-104.1544 355.9418,-86.9177 299.477,-75.5714"/>
<polygon fill="#191970" stroke="#191970" points="300.1689,-72.1406 289.6743,-73.5944 298.785,-79.0024 300.1689,-72.1406"/>
</g>
<!-- Node9&#45;&gt;Node1 -->
<g id="edge12" class="edge">
<title>Node9&#45;&gt;Node1</title>
<path fill="none" stroke="#191970" d="M555.4874,-55.4179C580.3489,-46.1788 619.0231,-31.8067 646.4751,-21.6049"/>
<polygon fill="#191970" stroke="#191970" points="647.8805,-24.8165 656.0349,-18.0522 645.442,-18.255 647.8805,-24.8165"/>
</g>
<!-- Node9&#45;&gt;Node2 -->
<g id="edge14" class="edge">
<title>Node9&#45;&gt;Node2</title>
<path fill="none" stroke="#191970" d="M484.9723,-56.3611C440.8367,-48.3285 372.1764,-35.2175 303.2324,-18.8955"/>
<polygon fill="#191970" stroke="#191970" points="304.0444,-15.4911 293.5048,-16.5713 302.4176,-22.2995 304.0444,-15.4911"/>
</g>
<!-- Node9&#45;&gt;Node5 -->
<g id="edge13" class="edge">
<title>Node9&#45;&gt;Node5</title>
<path fill="none" stroke="#191970" d="M544.0935,-55.4179C556.2151,-46.9788 574.4882,-34.257 588.7289,-24.3426"/>
<polygon fill="#191970" stroke="#191970" points="590.7765,-27.1818 596.9836,-18.5956 586.7769,-21.4369 590.7765,-27.1818"/>
</g>
<!-- Node10 -->
<g id="node11" class="node">
<title>Node10</title>
<polygon fill="#ffffff" stroke="#bfbfbf" points="431.9819,-.5 431.9819,-18.5 484.1147,-18.5 484.1147,-.5 431.9819,-.5"/>
<text text-anchor="middle" x="458.0483" y="-6.5" font-family="Helvetica,sans-Serif" font-size="10.00" fill="#000000">stdarg.h</text>
</g>
<!-- Node9&#45;&gt;Node10 -->
<g id="edge15" class="edge">
<title>Node9&#45;&gt;Node10</title>
<path fill="none" stroke="#191970" d="M518.9938,-55.4179C507.9649,-47.1084 491.4251,-34.6469 478.3576,-24.8015"/>
<polygon fill="#191970" stroke="#191970" points="480.4576,-22.0016 470.3646,-18.7795 476.2454,-27.5924 480.4576,-22.0016"/>
</g>
<!-- Node11 -->
<g id="node12" class="node">
<title>Node11</title>
<polygon fill="#ffffff" stroke="#bfbfbf" points="502.3168,-.5 502.3168,-18.5 567.7797,-18.5 567.7797,-.5 502.3168,-.5"/>
<text text-anchor="middle" x="535.0483" y="-6.5" font-family="Helvetica,sans-Serif" font-size="10.00" fill="#000000">sys/errno.h</text>
</g>
<!-- Node9&#45;&gt;Node11 -->
<g id="edge16" class="edge">
<title>Node9&#45;&gt;Node11</title>
<path fill="none" stroke="#191970" d="M531.7088,-55.4179C532.2325,-48.2164 532.9831,-37.8962 533.64,-28.8632"/>
<polygon fill="#191970" stroke="#191970" points="537.1387,-29.007 534.3734,-18.7795 530.1572,-28.4992 537.1387,-29.007"/>
</g>
<!-- Node12 -->
<g id="node13" class="node">
<title>Node12</title>
<g id="a_node13"><a xlink:href="types_8h.html" target="_top" xlink:title="ARX/ARUtil/types.h">
<polygon fill="#ffffff" stroke="#000000" points="311.7011,-.5 311.7011,-18.5 414.3954,-18.5 414.3954,-.5 311.7011,-.5"/>
<text text-anchor="middle" x="363.0483" y="-6.5" font-family="Helvetica,sans-Serif" font-size="10.00" fill="#000000">ARX/ARUtil/types.h</text>
</a>
</g>
</g>
<!-- Node9&#45;&gt;Node12 -->
<g id="edge17" class="edge">
<title>Node9&#45;&gt;Node12</title>
<path fill="none" stroke="#191970" d="M503.3065,-55.4179C475.1345,-46.1949 431.3378,-31.8567 400.1861,-21.6582"/>
<polygon fill="#191970" stroke="#191970" points="401.1447,-18.2893 390.552,-18.5042 398.9667,-24.9419 401.1447,-18.2893"/>
</g>
<!-- Node13&#45;&gt;Node3 -->
<g id="edge19" class="edge">
<title>Node13&#45;&gt;Node3</title>
<path fill="none" stroke="#191970" d="M76.6266,-55.4179C69.2884,-47.5041 58.4581,-35.8243 49.557,-26.2251"/>
<polygon fill="#191970" stroke="#191970" points="52.0187,-23.7324 42.6528,-18.7795 46.8858,-28.492 52.0187,-23.7324"/>
</g>
<!-- Node14&#45;&gt;Node1 -->
<g id="edge21" class="edge">
<title>Node14&#45;&gt;Node1</title>
<path fill="none" stroke="#191970" d="M760.0307,-55.4179C744.8664,-46.8195 721.8612,-33.7754 704.2408,-23.7844"/>
<polygon fill="#191970" stroke="#191970" points="705.5149,-20.4834 695.0896,-18.5956 702.0622,-26.5727 705.5149,-20.4834"/>
</g>
<!-- Node15 -->
<g id="node16" class="node">
<title>Node15</title>
<g id="a_node16"><a xlink:href="icp_core_8h.html" target="_top" xlink:title="ARX/AR/icpCore.h">
<polygon fill="#ffffff" stroke="#000000" points="726.6445,-.5 726.6445,-18.5 825.4521,-18.5 825.4521,-.5 726.6445,-.5"/>
<text text-anchor="middle" x="776.0483" y="-6.5" font-family="Helvetica,sans-Serif" font-size="10.00" fill="#000000">ARX/AR/icpCore.h</text>
</a>
</g>
</g>
<!-- Node14&#45;&gt;Node15 -->
<g id="edge22" class="edge">
<title>Node14&#45;&gt;Node15</title>
<path fill="none" stroke="#191970" d="M776.0483,-55.4179C776.0483,-48.2164 776.0483,-37.8962 776.0483,-28.8632"/>
<polygon fill="#191970" stroke="#191970" points="779.5484,-28.7794 776.0483,-18.7795 772.5484,-28.7795 779.5484,-28.7794"/>
</g>
<!-- Node16&#45;&gt;Node4 -->
<g id="edge24" class="edge">
<title>Node16&#45;&gt;Node4</title>
<path fill="none" stroke="#191970" d="M835.9419,-73.5232C834.9699,-73.6841 834.0045,-73.8432 833.0483,-74 743.1948,-88.7357 637.631,-104.8299 577.9935,-113.3707"/>
<polygon fill="#191970" stroke="#191970" points="577.1691,-109.9526 567.7614,-114.8254 578.1545,-116.8829 577.1691,-109.9526"/>
</g>
<!-- Node17&#45;&gt;Node4 -->
<g id="edge27" class="edge">
<title>Node17&#45;&gt;Node4</title>
<path fill="none" stroke="#191970" d="M299.7153,-73.539C352.5077,-83.4002 433.5968,-99.1461 484.471,-109.4051"/>
<polygon fill="#191970" stroke="#191970" points="484.0405,-112.8889 494.5363,-111.4436 485.4301,-106.0282 484.0405,-112.8889"/>
</g>
<!-- Node17&#45;&gt;Node7 -->
<g id="edge26" class="edge">
<title>Node17&#45;&gt;Node7</title>
<path fill="none" stroke="#191970" d="M235.1681,-55.4179C223.3129,-47.0584 205.498,-34.4966 191.4967,-24.6239"/>
<polygon fill="#191970" stroke="#191970" points="193.1371,-21.498 182.9475,-18.5956 189.1031,-27.2188 193.1371,-21.498"/>
</g>
</g>
</svg>
