<?xml version="1.0" encoding="UTF-8" standalone="no"?>
<!DOCTYPE svg PUBLIC "-//W3C//DTD SVG 1.1//EN"
 "http://www.w3.org/Graphics/SVG/1.1/DTD/svg11.dtd">
<!-- Generated by graphviz version 8.0.5 (20230430.1635)
 -->
<!-- Title: Source/ARX/AR/paramChangeSize.c Pages: 1 -->
<!--zoomable 204 -->
<svg id="main" version="1.1" xmlns="http://www.w3.org/2000/svg" xmlns:xlink="http://www.w3.org/1999/xlink" xml:space="preserve" onload="init(evt)">
<style type="text/css"><![CDATA[
.edge:hover path { stroke: red; }
.edge:hover polygon { stroke: red; fill: red; }
]]></style>
<script type="text/javascript"><![CDATA[
var edges = document.getElementsByTagName('g');
if (edges && edges.length) {
  for (var i=0;i<edges.length;i++) {
    if (edges[i].id.substr(0,4)=='edge') {
      edges[i].setAttribute('class','edge');
    }
  }
}
]]></script>
        <defs>
                <circle id="rim" cx="0" cy="0" r="7"/>
                <circle id="rim2" cx="0" cy="0" r="3.5"/>
                <g id="zoomPlus">
                        <use xlink:href="#rim" fill="#404040">
                                <set attributeName="fill" to="#808080" begin="zoomplus.mouseover" end="zoomplus.mouseout"/>
                        </use>
                        <path d="M-4,0h8M0,-4v8" fill="none" stroke="white" stroke-width="1.5" pointer-events="none"/>
                </g>
                <g id="zoomMin">
                        <use xlink:href="#rim" fill="#404040">
                                <set attributeName="fill" to="#808080" begin="zoomminus.mouseover" end="zoomminus.mouseout"/>
                        </use>
                        <path d="M-4,0h8" fill="none" stroke="white" stroke-width="1.5" pointer-events="none"/>
                </g>
                <g id="dirArrow">
                        <path fill="none" stroke="white" stroke-width="1.5" d="M0,-3.0v7 M-2.5,-0.5L0,-3.0L2.5,-0.5"/>
                </g>
               <g id="resetDef">
                       <use xlink:href="#rim2" fill="#404040">
                               <set attributeName="fill" to="#808080" begin="reset.mouseover" end="reset.mouseout"/>
                       </use>
               </g>
        </defs>

<script type="text/javascript">
var viewWidth = 957;
var viewHeight = 204;
var sectionId = 'dynsection-0';
</script>
<script xlink:href="svgpan.js"/>
<svg id="graph" class="graph">
<g id="viewport">
<title>Source/ARX/AR/paramChangeSize.c</title>
<!-- Node1 -->
<g id="node1" class="node">
<title>Node1</title>
<g id="a_node1"><a xlink:title=" ">
<polygon fill="#999999" stroke="#666666" points="574.39,-196.25 422.64,-196.25 422.64,-165.75 574.39,-165.75 574.39,-196.25"/>
<text text-anchor="start" x="430.64" y="-182.75" font-family="Helvetica,sans-Serif" font-size="10.00">Source/ARX/AR/paramChange</text>
<text text-anchor="middle" x="498.51" y="-171.5" font-family="Helvetica,sans-Serif" font-size="10.00">Size.c</text>
</a>
</g>
</g>
<!-- Node2 -->
<g id="node2" class="node">
<title>Node2</title>
<g id="a_node2"><a xlink:title=" ">
<polygon fill="#e0e0e0" stroke="#999999" points="832.14,-19.25 786.89,-19.25 786.89,0 832.14,0 832.14,-19.25"/>
<text text-anchor="middle" x="809.51" y="-5.75" font-family="Helvetica,sans-Serif" font-size="10.00">stdio.h</text>
</a>
</g>
</g>
<!-- Node1&#45;&gt;Node2 -->
<g id="edge1" class="edge">
<title>Node1&#45;&gt;Node2</title>
<path fill="none" stroke="#63b8ff" d="M574.85,-171.59C682.55,-157.98 870.6,-127.18 911.51,-74.5 916.76,-67.74 916.19,-62.41 911.51,-55.25 903.48,-42.97 869.09,-29.56 842.44,-20.68"/>
<polygon fill="#63b8ff" stroke="#63b8ff" points="843.9,-17.15 833.31,-17.39 841.74,-23.81 843.9,-17.15"/>
</g>
<!-- Node3 -->
<g id="node3" class="node">
<title>Node3</title>
<g id="a_node3"><a xlink:title=" ">
<polygon fill="#e0e0e0" stroke="#999999" points="46.51,-19.25 0.51,-19.25 0.51,0 46.51,0 46.51,-19.25"/>
<text text-anchor="middle" x="23.51" y="-5.75" font-family="Helvetica,sans-Serif" font-size="10.00">math.h</text>
</a>
</g>
</g>
<!-- Node1&#45;&gt;Node3 -->
<g id="edge2" class="edge">
<title>Node1&#45;&gt;Node3</title>
<path fill="none" stroke="#63b8ff" d="M422.34,-175.07C297.27,-165.21 57.07,-138.26 5.51,-74.5 -5.1,-61.38 2.32,-42.37 10.62,-28.5"/>
<polygon fill="#63b8ff" stroke="#63b8ff" points="13.99,-30.74 16.56,-20.46 8.14,-26.89 13.99,-30.74"/>
</g>
<!-- Node4 -->
<g id="node4" class="node">
<title>Node4</title>
<g id="a_node4"><a xlink:href="ar_8h.html" target="_top" xlink:title="artoolkitX core routines.">
<polygon fill="white" stroke="#666666" points="535.01,-129.75 462.01,-129.75 462.01,-110.5 535.01,-110.5 535.01,-129.75"/>
<text text-anchor="middle" x="498.51" y="-116.25" font-family="Helvetica,sans-Serif" font-size="10.00">ARX/AR/ar.h</text>
</a>
</g>
</g>
<!-- Node1&#45;&gt;Node4 -->
<g id="edge3" class="edge">
<title>Node1&#45;&gt;Node4</title>
<path fill="none" stroke="#63b8ff" d="M498.51,-165.45C498.51,-158.12 498.51,-149.12 498.51,-141.16"/>
<polygon fill="#63b8ff" stroke="#63b8ff" points="502.01,-141.2 498.51,-131.2 495.01,-141.2 502.01,-141.2"/>
</g>
<!-- Node4&#45;&gt;Node2 -->
<g id="edge4" class="edge">
<title>Node4&#45;&gt;Node2</title>
<path fill="none" stroke="#63b8ff" d="M535.46,-116.03C597.95,-110.27 721.34,-96.45 758.51,-74.5 776.98,-63.59 791.41,-43.3 800.14,-28.51"/>
<polygon fill="#63b8ff" stroke="#63b8ff" points="803.45,-30.77 805.25,-20.33 797.33,-27.36 803.45,-30.77"/>
</g>
<!-- Node5 -->
<g id="node5" class="node">
<title>Node5</title>
<g id="a_node5"><a xlink:title=" ">
<polygon fill="#e0e0e0" stroke="#999999" points="769.26,-19.25 721.76,-19.25 721.76,0 769.26,0 769.26,-19.25"/>
<text text-anchor="middle" x="745.51" y="-5.75" font-family="Helvetica,sans-Serif" font-size="10.00">stdlib.h</text>
</a>
</g>
</g>
<!-- Node4&#45;&gt;Node5 -->
<g id="edge5" class="edge">
<title>Node4&#45;&gt;Node5</title>
<path fill="none" stroke="#63b8ff" d="M535.26,-117.57C595.82,-114.19 712.59,-103.94 739.51,-74.5 750.32,-62.68 750.88,-44 749.29,-29.88"/>
<polygon fill="#63b8ff" stroke="#63b8ff" points="752.65,-29.69 747.64,-20.35 745.73,-30.77 752.65,-29.69"/>
</g>
<!-- Node6 -->
<g id="node6" class="node">
<title>Node6</title>
<g id="a_node6"><a xlink:title=" ">
<polygon fill="#e0e0e0" stroke="#999999" points="172.64,-74.5 124.39,-74.5 124.39,-55.25 172.64,-55.25 172.64,-74.5"/>
<text text-anchor="middle" x="148.51" y="-61" font-family="Helvetica,sans-Serif" font-size="10.00">stdint.h</text>
</a>
</g>
</g>
<!-- Node4&#45;&gt;Node6 -->
<g id="edge6" class="edge">
<title>Node4&#45;&gt;Node6</title>
<path fill="none" stroke="#63b8ff" d="M461.85,-114.86C403.38,-107.84 285.52,-92.79 186.51,-74.5 185.55,-74.32 184.58,-74.14 183.6,-73.95"/>
<polygon fill="#63b8ff" stroke="#63b8ff" points="184.48,-70.35 173.98,-71.74 183.06,-77.2 184.48,-70.35"/>
</g>
<!-- Node7 -->
<g id="node7" class="node">
<title>Node7</title>
<g id="a_node7"><a xlink:title=" ">
<polygon fill="#e0e0e0" stroke="#999999" points="429.64,-19.25 381.39,-19.25 381.39,0 429.64,0 429.64,-19.25"/>
<text text-anchor="middle" x="405.51" y="-5.75" font-family="Helvetica,sans-Serif" font-size="10.00">string.h</text>
</a>
</g>
</g>
<!-- Node4&#45;&gt;Node7 -->
<g id="edge7" class="edge">
<title>Node4&#45;&gt;Node7</title>
<path fill="none" stroke="#63b8ff" d="M497.9,-110.37C496.57,-97.16 492.4,-71.9 479.51,-55.25 469.14,-41.85 453.52,-31.59 439.3,-24.3"/>
<polygon fill="#63b8ff" stroke="#63b8ff" points="441.29,-20.9 430.76,-19.73 438.26,-27.21 441.29,-20.9"/>
</g>
<!-- Node8 -->
<g id="node8" class="node">
<title>Node8</title>
<g id="a_node8"><a xlink:title=" ">
<polygon fill="#e0e0e0" stroke="#999999" points="290.39,-19.25 198.64,-19.25 198.64,0 290.39,0 290.39,-19.25"/>
<text text-anchor="middle" x="244.51" y="-5.75" font-family="Helvetica,sans-Serif" font-size="10.00">ARX/AR/config.h</text>
</a>
</g>
</g>
<!-- Node4&#45;&gt;Node8 -->
<g id="edge8" class="edge">
<title>Node4&#45;&gt;Node8</title>
<path fill="none" stroke="#63b8ff" d="M461.72,-118.89C393.21,-117.59 250.23,-110.52 219.51,-74.5 207.98,-60.97 218.4,-41.5 229.09,-27.61"/>
<polygon fill="#63b8ff" stroke="#63b8ff" points="232.21,-30.34 235.93,-20.42 226.83,-25.85 232.21,-30.34"/>
</g>
<!-- Node9 -->
<g id="node9" class="node">
<title>Node9</title>
<g id="a_node9"><a xlink:href="ar_config_8h.html" target="_top" xlink:title=" ">
<polygon fill="white" stroke="#666666" points="470.64,-74.5 368.39,-74.5 368.39,-55.25 470.64,-55.25 470.64,-74.5"/>
<text text-anchor="middle" x="419.51" y="-61" font-family="Helvetica,sans-Serif" font-size="10.00">ARX/AR/arConfig.h</text>
</a>
</g>
</g>
<!-- Node4&#45;&gt;Node9 -->
<g id="edge9" class="edge">
<title>Node4&#45;&gt;Node9</title>
<path fill="none" stroke="#63b8ff" d="M485.11,-110.09C473.31,-102.14 455.88,-90.39 441.95,-81"/>
<polygon fill="#63b8ff" stroke="#63b8ff" points="444.23,-77.64 433.98,-74.95 440.31,-83.44 444.23,-77.64"/>
</g>
<!-- Node10 -->
<g id="node10" class="node">
<title>Node10</title>
<g id="a_node10"><a xlink:href="log_8h.html" target="_top" xlink:title="Logging utilities.">
<polygon fill="white" stroke="#666666" points="620.14,-74.5 526.89,-74.5 526.89,-55.25 620.14,-55.25 620.14,-74.5"/>
<text text-anchor="middle" x="573.51" y="-61" font-family="Helvetica,sans-Serif" font-size="10.00">ARX/ARUtil/log.h</text>
</a>
</g>
</g>
<!-- Node4&#45;&gt;Node10 -->
<g id="edge10" class="edge">
<title>Node4&#45;&gt;Node10</title>
<path fill="none" stroke="#63b8ff" d="M511.23,-110.09C522.33,-102.21 538.67,-90.61 551.83,-81.27"/>
<polygon fill="#63b8ff" stroke="#63b8ff" points="553.6,-83.6 559.73,-74.95 549.55,-77.89 553.6,-83.6"/>
</g>
<!-- Node14 -->
<g id="node14" class="node">
<title>Node14</title>
<g id="a_node14"><a xlink:href="matrix_8h.html" target="_top" xlink:title=" ">
<polygon fill="white" stroke="#666666" points="106.76,-74.5 14.26,-74.5 14.26,-55.25 106.76,-55.25 106.76,-74.5"/>
<text text-anchor="middle" x="60.51" y="-61" font-family="Helvetica,sans-Serif" font-size="10.00">ARX/AR/matrix.h</text>
</a>
</g>
</g>
<!-- Node4&#45;&gt;Node14 -->
<g id="edge17" class="edge">
<title>Node4&#45;&gt;Node14</title>
<path fill="none" stroke="#63b8ff" d="M461.75,-115.33C395.24,-108.36 250.27,-92.68 117.74,-74.76"/>
<polygon fill="#63b8ff" stroke="#63b8ff" points="118.38,-71.18 108,-73.3 117.44,-78.11 118.38,-71.18"/>
</g>
<!-- Node15 -->
<g id="node15" class="node">
<title>Node15</title>
<g id="a_node15"><a xlink:href="icp_8h.html" target="_top" xlink:title=" ">
<polygon fill="white" stroke="#666666" points="902.64,-74.5 824.39,-74.5 824.39,-55.25 902.64,-55.25 902.64,-74.5"/>
<text text-anchor="middle" x="863.51" y="-61" font-family="Helvetica,sans-Serif" font-size="10.00">ARX/AR/icp.h</text>
</a>
</g>
</g>
<!-- Node4&#45;&gt;Node15 -->
<g id="edge19" class="edge">
<title>Node4&#45;&gt;Node15</title>
<path fill="none" stroke="#63b8ff" d="M535.05,-114.13C593.35,-106.11 710.99,-89.71 810.51,-74.5 811.48,-74.35 812.46,-74.2 813.44,-74.05"/>
<polygon fill="#63b8ff" stroke="#63b8ff" points="813.83,-77.37 823.16,-72.36 812.74,-70.46 813.83,-77.37"/>
</g>
<!-- Node17 -->
<g id="node17" class="node">
<title>Node17</title>
<g id="a_node17"><a xlink:href="param_8h.html" target="_top" xlink:title="artoolkitX functions for handling calibrated camera parameters.">
<polygon fill="white" stroke="#666666" points="730.76,-74.5 638.26,-74.5 638.26,-55.25 730.76,-55.25 730.76,-74.5"/>
<text text-anchor="middle" x="684.51" y="-61" font-family="Helvetica,sans-Serif" font-size="10.00">ARX/AR/param.h</text>
</a>
</g>
</g>
<!-- Node4&#45;&gt;Node17 -->
<g id="edge22" class="edge">
<title>Node4&#45;&gt;Node17</title>
<path fill="none" stroke="#63b8ff" d="M524.85,-110.09C554.12,-101.18 601.71,-87.51 637.39,-77.73"/>
<polygon fill="#63b8ff" stroke="#63b8ff" points="637.85,-80.96 646.58,-74.95 636.01,-74.2 637.85,-80.96"/>
</g>
<!-- Node18 -->
<g id="node18" class="node">
<title>Node18</title>
<g id="a_node18"><a xlink:href="ar_image_proc_8h.html" target="_top" xlink:title="artoolkitX functions for 2D luminance image processing.">
<polygon fill="white" stroke="#666666" points="350.01,-74.5 229.01,-74.5 229.01,-55.25 350.01,-55.25 350.01,-74.5"/>
<text text-anchor="middle" x="289.51" y="-61" font-family="Helvetica,sans-Serif" font-size="10.00">ARX/AR/arImageProc.h</text>
</a>
</g>
</g>
<!-- Node4&#45;&gt;Node18 -->
<g id="edge24" class="edge">
<title>Node4&#45;&gt;Node18</title>
<path fill="none" stroke="#63b8ff" d="M461.76,-111.04C424.84,-102.15 368.3,-87.81 330.09,-77.67"/>
<polygon fill="#63b8ff" stroke="#63b8ff" points="331.4,-74.13 320.84,-74.93 329.59,-80.89 331.4,-74.13"/>
</g>
<!-- Node10&#45;&gt;Node2 -->
<g id="edge11" class="edge">
<title>Node10&#45;&gt;Node2</title>
<path fill="none" stroke="#63b8ff" d="M618.87,-54.77C658.17,-46.72 716.78,-34.29 775.88,-19.81"/>
<polygon fill="#63b8ff" stroke="#63b8ff" points="776.66,-22.97 785.53,-17.18 774.98,-16.18 776.66,-22.97"/>
</g>
<!-- Node10&#45;&gt;Node5 -->
<g id="edge12" class="edge">
<title>Node10&#45;&gt;Node5</title>
<path fill="none" stroke="#63b8ff" d="M602.69,-54.84C632.74,-45.54 679.55,-31.05 711.32,-21.21"/>
<polygon fill="#63b8ff" stroke="#63b8ff" points="711.95,-24.37 720.47,-18.07 709.88,-17.68 711.95,-24.37"/>
</g>
<!-- Node10&#45;&gt;Node7 -->
<g id="edge13" class="edge">
<title>Node10&#45;&gt;Node7</title>
<path fill="none" stroke="#63b8ff" d="M545.01,-54.84C516.12,-45.68 471.38,-31.5 440.38,-21.68"/>
<polygon fill="#63b8ff" stroke="#63b8ff" points="441.64,-18.09 431.05,-18.4 439.52,-24.76 441.64,-18.09"/>
</g>
<!-- Node11 -->
<g id="node11" class="node">
<title>Node11</title>
<g id="a_node11"><a xlink:title=" ">
<polygon fill="#e0e0e0" stroke="#999999" points="621.14,-19.25 569.89,-19.25 569.89,0 621.14,0 621.14,-19.25"/>
<text text-anchor="middle" x="595.51" y="-5.75" font-family="Helvetica,sans-Serif" font-size="10.00">stdarg.h</text>
</a>
</g>
</g>
<!-- Node10&#45;&gt;Node11 -->
<g id="edge14" class="edge">
<title>Node10&#45;&gt;Node11</title>
<path fill="none" stroke="#63b8ff" d="M577.14,-55.08C579.99,-48.19 584.06,-38.34 587.65,-29.66"/>
<polygon fill="#63b8ff" stroke="#63b8ff" points="591.22,-31.19 591.8,-20.61 584.75,-28.52 591.22,-31.19"/>
</g>
<!-- Node12 -->
<g id="node12" class="node">
<title>Node12</title>
<g id="a_node12"><a xlink:title=" ">
<polygon fill="#e0e0e0" stroke="#999999" points="703.89,-19.25 639.14,-19.25 639.14,0 703.89,0 703.89,-19.25"/>
<text text-anchor="middle" x="671.51" y="-5.75" font-family="Helvetica,sans-Serif" font-size="10.00">sys/errno.h</text>
</a>
</g>
</g>
<!-- Node10&#45;&gt;Node12 -->
<g id="edge15" class="edge">
<title>Node10&#45;&gt;Node12</title>
<path fill="none" stroke="#63b8ff" d="M590.14,-54.84C605.2,-46.66 627.65,-34.46 645.16,-24.94"/>
<polygon fill="#63b8ff" stroke="#63b8ff" points="646.69,-27.55 653.81,-19.7 643.35,-21.4 646.69,-27.55"/>
</g>
<!-- Node13 -->
<g id="node13" class="node">
<title>Node13</title>
<g id="a_node13"><a xlink:href="types_8h.html" target="_top" xlink:title=" ">
<polygon fill="white" stroke="#666666" points="551.76,-19.25 447.26,-19.25 447.26,0 551.76,0 551.76,-19.25"/>
<text text-anchor="middle" x="499.51" y="-5.75" font-family="Helvetica,sans-Serif" font-size="10.00">ARX/ARUtil/types.h</text>
</a>
</g>
</g>
<!-- Node10&#45;&gt;Node13 -->
<g id="edge16" class="edge">
<title>Node10&#45;&gt;Node13</title>
<path fill="none" stroke="#63b8ff" d="M560.96,-54.84C549.94,-46.91 533.69,-35.22 520.67,-25.85"/>
<polygon fill="#63b8ff" stroke="#63b8ff" points="523.04,-22.52 512.88,-19.52 518.95,-28.21 523.04,-22.52"/>
</g>
<!-- Node14&#45;&gt;Node3 -->
<g id="edge18" class="edge">
<title>Node14&#45;&gt;Node3</title>
<path fill="none" stroke="#63b8ff" d="M54.4,-55.08C49.4,-47.88 42.15,-37.46 35.94,-28.51"/>
<polygon fill="#63b8ff" stroke="#63b8ff" points="38.33,-26.82 29.75,-20.61 32.59,-30.82 38.33,-26.82"/>
</g>
<!-- Node15&#45;&gt;Node2 -->
<g id="edge20" class="edge">
<title>Node15&#45;&gt;Node2</title>
<path fill="none" stroke="#63b8ff" d="M854.59,-55.08C846.9,-47.5 835.59,-36.34 826.22,-27.1"/>
<polygon fill="#63b8ff" stroke="#63b8ff" points="829.2,-25.14 819.62,-20.61 824.28,-30.12 829.2,-25.14"/>
</g>
<!-- Node16 -->
<g id="node16" class="node">
<title>Node16</title>
<g id="a_node16"><a xlink:href="icp_core_8h.html" target="_top" xlink:title=" ">
<polygon fill="white" stroke="#666666" points="949.14,-19.25 849.89,-19.25 849.89,0 949.14,0 949.14,-19.25"/>
<text text-anchor="middle" x="899.51" y="-5.75" font-family="Helvetica,sans-Serif" font-size="10.00">ARX/AR/icpCore.h</text>
</a>
</g>
</g>
<!-- Node15&#45;&gt;Node16 -->
<g id="edge21" class="edge">
<title>Node15&#45;&gt;Node16</title>
<path fill="none" stroke="#63b8ff" d="M869.46,-55.08C874.33,-47.88 881.37,-37.46 887.42,-28.51"/>
<polygon fill="#63b8ff" stroke="#63b8ff" points="890.74,-30.85 893.44,-20.61 884.94,-26.93 890.74,-30.85"/>
</g>
<!-- Node17&#45;&gt;Node4 -->
<g id="edge23" class="edge">
<title>Node17&#45;&gt;Node4</title>
<path fill="none" stroke="#63b8ff" d="M658.03,-74.95C628.7,-83.88 581.1,-97.55 545.46,-107.32"/>
<polygon fill="#63b8ff" stroke="#63b8ff" points="545.01,-104.09 536.28,-110.09 546.85,-110.84 545.01,-104.09"/>
</g>
<!-- Node18&#45;&gt;Node4 -->
<g id="edge26" class="edge">
<title>Node18&#45;&gt;Node4</title>
<path fill="none" stroke="#63b8ff" d="M330.37,-74.95C367.26,-83.88 421.09,-97.55 457.9,-107.32"/>
<polygon fill="#63b8ff" stroke="#63b8ff" points="456.71,-110.89 467.27,-110.09 458.52,-104.13 456.71,-110.89"/>
</g>
<!-- Node18&#45;&gt;Node8 -->
<g id="edge25" class="edge">
<title>Node18&#45;&gt;Node8</title>
<path fill="none" stroke="#63b8ff" d="M282.08,-55.08C275.86,-47.73 266.81,-37.01 259.15,-27.94"/>
<polygon fill="#63b8ff" stroke="#63b8ff" points="261.23,-25.99 252.1,-20.61 255.89,-30.51 261.23,-25.99"/>
</g>
</g>
</svg>
        <g id="navigator" transform="translate(0 0)" fill="#404254">
                <rect fill="#f2f5e9" fill-opacity="0.5" stroke="#606060" stroke-width=".5" x="0" y="0" width="60" height="60"/>
                <use id="zoomplus" xlink:href="#zoomPlus" x="17" y="9" onmousedown="handleZoom(evt,'in')"/>
                <use id="zoomminus" xlink:href="#zoomMin" x="42" y="9" onmousedown="handleZoom(evt,'out')"/>
                <use id="reset" xlink:href="#resetDef" x="30" y="36" onmousedown="handleReset()"/>
                <g id="arrowUp" xlink:href="#dirArrow" transform="translate(30 24)" onmousedown="handlePan(0,-1)">
                  <use xlink:href="#rim" fill="#404040">
                        <set attributeName="fill" to="#808080" begin="arrowUp.mouseover" end="arrowUp.mouseout"/>
                  </use>
                  <path fill="none" stroke="white" stroke-width="1.5" d="M0,-3.0v7 M-2.5,-0.5L0,-3.0L2.5,-0.5"/>
                </g>
                <g id="arrowRight" xlink:href="#dirArrow" transform="rotate(90) translate(36 -43)" onmousedown="handlePan(1,0)">
                  <use xlink:href="#rim" fill="#404040">
                        <set attributeName="fill" to="#808080" begin="arrowRight.mouseover" end="arrowRight.mouseout"/>
                  </use>
                  <path fill="none" stroke="white" stroke-width="1.5" d="M0,-3.0v7 M-2.5,-0.5L0,-3.0L2.5,-0.5"/>
                </g>
                <g id="arrowDown" xlink:href="#dirArrow" transform="rotate(180) translate(-30 -48)" onmousedown="handlePan(0,1)">
                  <use xlink:href="#rim" fill="#404040">
                        <set attributeName="fill" to="#808080" begin="arrowDown.mouseover" end="arrowDown.mouseout"/>
                  </use>
                  <path fill="none" stroke="white" stroke-width="1.5" d="M0,-3.0v7 M-2.5,-0.5L0,-3.0L2.5,-0.5"/>
                </g>
                <g id="arrowLeft" xlink:href="#dirArrow" transform="rotate(270) translate(-36 17)" onmousedown="handlePan(-1,0)">
                  <use xlink:href="#rim" fill="#404040">
                        <set attributeName="fill" to="#808080" begin="arrowLeft.mouseover" end="arrowLeft.mouseout"/>
                  </use>
                  <path fill="none" stroke="white" stroke-width="1.5" d="M0,-3.0v7 M-2.5,-0.5L0,-3.0L2.5,-0.5"/>
                </g>
        </g>
        <svg viewBox="0 0 15 15" width="100%" height="30px" preserveAspectRatio="xMaxYMin meet">
         <g id="arrow_out" transform="scale(0.3 0.3)">
          <a xlink:href="param_change_size_8c__incl_org.svg" target="_base">
           <rect id="button" ry="5" rx="5" y="6" x="6" height="38" width="38"
                fill="#f2f5e9" fill-opacity="0.5" stroke="#606060" stroke-width="1.0"/>
           <path id="arrow"
             d="M 11.500037,31.436501 C 11.940474,20.09759 22.043105,11.32322 32.158766,21.979434 L 37.068811,17.246167 C 37.068811,17.246167 37.088388,32 37.088388,32 L 22.160133,31.978069 C 22.160133,31.978069 26.997745,27.140456 26.997745,27.140456 C 18.528582,18.264221 13.291696,25.230495 11.500037,31.436501 z"
             style="fill:#404040;"/>
          </a>
         </g>
        </svg>
</svg>
