<?xml version="1.0" encoding="UTF-8" standalone="no"?>
<!DOCTYPE svg PUBLIC "-//W3C//DTD SVG 1.1//EN"
 "http://www.w3.org/Graphics/SVG/1.1/DTD/svg11.dtd">
<!-- Generated by graphviz version 8.0.5 (20230430.1635)
 -->
<!-- Title: Source/ARX/AR/paramGL.c Pages: 1 -->
<svg width="960pt" height="248pt"
 viewBox="0.00 0.00 960.38 248.25" xmlns="http://www.w3.org/2000/svg" xmlns:xlink="http://www.w3.org/1999/xlink">
<g id="graph0" class="graph" transform="scale(1 1) rotate(0) translate(4 244.25)">
<title>Source/ARX/AR/paramGL.c</title>
<!-- Node1 -->
<g id="node1" class="node">
<title>Node1</title>
<g id="a_node1"><a xlink:title=" ">
<polygon fill="#999999" stroke="#666666" points="648.62,-240.25 509.62,-240.25 509.62,-221 648.62,-221 648.62,-240.25"/>
<text text-anchor="middle" x="579.12" y="-226.75" font-family="Helvetica,sans-Serif" font-size="10.00">Source/ARX/AR/paramGL.c</text>
</a>
</g>
</g>
<!-- Node2 -->
<g id="node2" class="node">
<title>Node2</title>
<g id="a_node2"><a xlink:href="param_g_l_8h.html" target="_top" xlink:title="Routines for converting ARParam and matrix types to OpenGL.">
<polygon fill="white" stroke="#666666" points="631.75,-185 526.5,-185 526.5,-165.75 631.75,-165.75 631.75,-185"/>
<text text-anchor="middle" x="579.12" y="-171.5" font-family="Helvetica,sans-Serif" font-size="10.00">ARX/AR/paramGL.h</text>
</a>
</g>
</g>
<!-- Node1&#45;&gt;Node2 -->
<g id="edge1" class="edge">
<title>Node1&#45;&gt;Node2</title>
<path fill="none" stroke="#63b8ff" d="M579.12,-220.83C579.12,-214.17 579.12,-204.74 579.12,-196.28"/>
<polygon fill="#63b8ff" stroke="#63b8ff" points="582.63,-196.36 579.12,-186.36 575.63,-196.36 582.63,-196.36"/>
</g>
<!-- Node3 -->
<g id="node3" class="node">
<title>Node3</title>
<g id="a_node3"><a xlink:href="ar_8h.html" target="_top" xlink:title="artoolkitX core routines.">
<polygon fill="white" stroke="#666666" points="583.62,-129.75 510.62,-129.75 510.62,-110.5 583.62,-110.5 583.62,-129.75"/>
<text text-anchor="middle" x="547.12" y="-116.25" font-family="Helvetica,sans-Serif" font-size="10.00">ARX/AR/ar.h</text>
</a>
</g>
</g>
<!-- Node2&#45;&gt;Node3 -->
<g id="edge2" class="edge">
<title>Node2&#45;&gt;Node3</title>
<path fill="none" stroke="#63b8ff" d="M573.84,-165.58C569.56,-158.46 563.38,-148.18 558.05,-139.3"/>
<polygon fill="#63b8ff" stroke="#63b8ff" points="560.67,-137.88 552.52,-131.11 554.67,-141.48 560.67,-137.88"/>
</g>
<!-- Node18 -->
<g id="node18" class="node">
<title>Node18</title>
<g id="a_node18"><a xlink:href="param_8h.html" target="_top" xlink:title="artoolkitX functions for handling calibrated camera parameters.">
<polygon fill="white" stroke="#666666" points="952.38,-74.5 859.88,-74.5 859.88,-55.25 952.38,-55.25 952.38,-74.5"/>
<text text-anchor="middle" x="906.12" y="-61" font-family="Helvetica,sans-Serif" font-size="10.00">ARX/AR/param.h</text>
</a>
</g>
</g>
<!-- Node2&#45;&gt;Node18 -->
<g id="edge26" class="edge">
<title>Node2&#45;&gt;Node18</title>
<path fill="none" stroke="#63b8ff" d="M606.44,-165.31C664.87,-145.92 802.06,-100.41 868.6,-78.32"/>
<polygon fill="#63b8ff" stroke="#63b8ff" points="869.27,-81.46 877.66,-74.99 867.06,-74.82 869.27,-81.46"/>
</g>
<!-- Node4 -->
<g id="node4" class="node">
<title>Node4</title>
<g id="a_node4"><a xlink:title=" ">
<polygon fill="#e0e0e0" stroke="#999999" points="460.75,-19.25 415.5,-19.25 415.5,0 460.75,0 460.75,-19.25"/>
<text text-anchor="middle" x="438.12" y="-5.75" font-family="Helvetica,sans-Serif" font-size="10.00">stdio.h</text>
</a>
</g>
</g>
<!-- Node3&#45;&gt;Node4 -->
<g id="edge3" class="edge">
<title>Node3&#45;&gt;Node4</title>
<path fill="none" stroke="#63b8ff" d="M521.26,-110.01C503.76,-102.72 481.18,-90.98 466.12,-74.5 454.51,-61.79 447.16,-43.49 442.92,-29.74"/>
<polygon fill="#63b8ff" stroke="#63b8ff" points="446.12,-29.17 440.07,-20.47 439.37,-31.04 446.12,-29.17"/>
</g>
<!-- Node5 -->
<g id="node5" class="node">
<title>Node5</title>
<g id="a_node5"><a xlink:title=" ">
<polygon fill="#e0e0e0" stroke="#999999" points="387.88,-19.25 340.38,-19.25 340.38,0 387.88,0 387.88,-19.25"/>
<text text-anchor="middle" x="364.12" y="-5.75" font-family="Helvetica,sans-Serif" font-size="10.00">stdlib.h</text>
</a>
</g>
</g>
<!-- Node3&#45;&gt;Node5 -->
<g id="edge4" class="edge">
<title>Node3&#45;&gt;Node5</title>
<path fill="none" stroke="#63b8ff" d="M510.38,-117.79C449.87,-114.73 333.41,-104.94 308.12,-74.5 293.74,-57.18 316.42,-37.81 337.07,-24.99"/>
<polygon fill="#63b8ff" stroke="#63b8ff" points="338.42,-27.67 345.28,-19.59 334.88,-21.63 338.42,-27.67"/>
</g>
<!-- Node6 -->
<g id="node6" class="node">
<title>Node6</title>
<g id="a_node6"><a xlink:title=" ">
<polygon fill="#e0e0e0" stroke="#999999" points="149.25,-74.5 101,-74.5 101,-55.25 149.25,-55.25 149.25,-74.5"/>
<text text-anchor="middle" x="125.12" y="-61" font-family="Helvetica,sans-Serif" font-size="10.00">stdint.h</text>
</a>
</g>
</g>
<!-- Node3&#45;&gt;Node6 -->
<g id="edge5" class="edge">
<title>Node3&#45;&gt;Node6</title>
<path fill="none" stroke="#63b8ff" d="M510.13,-116.63C442.44,-111.7 294.04,-99.13 159.99,-74.61"/>
<polygon fill="#63b8ff" stroke="#63b8ff" points="161.02,-71.05 150.55,-72.67 159.74,-77.94 161.02,-71.05"/>
</g>
<!-- Node7 -->
<g id="node7" class="node">
<title>Node7</title>
<g id="a_node7"><a xlink:title=" ">
<polygon fill="#e0e0e0" stroke="#999999" points="48.25,-19.25 0,-19.25 0,0 48.25,0 48.25,-19.25"/>
<text text-anchor="middle" x="24.12" y="-5.75" font-family="Helvetica,sans-Serif" font-size="10.00">string.h</text>
</a>
</g>
</g>
<!-- Node3&#45;&gt;Node7 -->
<g id="edge6" class="edge">
<title>Node3&#45;&gt;Node7</title>
<path fill="none" stroke="#63b8ff" d="M510.35,-118.55C415.83,-116.59 166.57,-108.28 92.12,-74.5 69.41,-64.19 49.41,-43.16 37.08,-28.05"/>
<polygon fill="#63b8ff" stroke="#63b8ff" points="39.36,-26.27 30.44,-20.55 33.84,-30.58 39.36,-26.27"/>
</g>
<!-- Node8 -->
<g id="node8" class="node">
<title>Node8</title>
<g id="a_node8"><a xlink:title=" ">
<polygon fill="#e0e0e0" stroke="#999999" points="702,-19.25 610.25,-19.25 610.25,0 702,0 702,-19.25"/>
<text text-anchor="middle" x="656.12" y="-5.75" font-family="Helvetica,sans-Serif" font-size="10.00">ARX/AR/config.h</text>
</a>
</g>
</g>
<!-- Node3&#45;&gt;Node8 -->
<g id="edge7" class="edge">
<title>Node3&#45;&gt;Node8</title>
<path fill="none" stroke="#63b8ff" d="M553.47,-110.38C562.93,-97.61 581.6,-73.41 600.12,-55.25 610.84,-44.75 623.89,-34.23 634.7,-26.05"/>
<polygon fill="#63b8ff" stroke="#63b8ff" points="636.56,-28.29 642.51,-19.52 632.39,-22.66 636.56,-28.29"/>
</g>
<!-- Node9 -->
<g id="node9" class="node">
<title>Node9</title>
<g id="a_node9"><a xlink:href="ar_config_8h.html" target="_top" xlink:title=" ">
<polygon fill="white" stroke="#666666" points="419.25,-74.5 317,-74.5 317,-55.25 419.25,-55.25 419.25,-74.5"/>
<text text-anchor="middle" x="368.12" y="-61" font-family="Helvetica,sans-Serif" font-size="10.00">ARX/AR/arConfig.h</text>
</a>
</g>
</g>
<!-- Node3&#45;&gt;Node9 -->
<g id="edge8" class="edge">
<title>Node3&#45;&gt;Node9</title>
<path fill="none" stroke="#63b8ff" d="M516.76,-110.09C487.06,-101.26 441.63,-87.74 408.81,-77.98"/>
<polygon fill="#63b8ff" stroke="#63b8ff" points="410.22,-74.45 399.64,-74.95 408.23,-81.16 410.22,-74.45"/>
</g>
<!-- Node10 -->
<g id="node10" class="node">
<title>Node10</title>
<g id="a_node10"><a xlink:href="log_8h.html" target="_top" xlink:title="Logging utilities.">
<polygon fill="white" stroke="#666666" points="260.75,-74.5 167.5,-74.5 167.5,-55.25 260.75,-55.25 260.75,-74.5"/>
<text text-anchor="middle" x="214.12" y="-61" font-family="Helvetica,sans-Serif" font-size="10.00">ARX/ARUtil/log.h</text>
</a>
</g>
</g>
<!-- Node3&#45;&gt;Node10 -->
<g id="edge9" class="edge">
<title>Node3&#45;&gt;Node10</title>
<path fill="none" stroke="#63b8ff" d="M510.22,-113.22C452.43,-103.98 340.15,-86.03 271.68,-75.08"/>
<polygon fill="#63b8ff" stroke="#63b8ff" points="272.51,-71.51 262.08,-73.38 271.4,-78.42 272.51,-71.51"/>
</g>
<!-- Node14 -->
<g id="node14" class="node">
<title>Node14</title>
<g id="a_node14"><a xlink:href="matrix_8h.html" target="_top" xlink:title=" ">
<polygon fill="white" stroke="#666666" points="841.38,-74.5 748.88,-74.5 748.88,-55.25 841.38,-55.25 841.38,-74.5"/>
<text text-anchor="middle" x="795.12" y="-61" font-family="Helvetica,sans-Serif" font-size="10.00">ARX/AR/matrix.h</text>
</a>
</g>
</g>
<!-- Node3&#45;&gt;Node14 -->
<g id="edge16" class="edge">
<title>Node3&#45;&gt;Node14</title>
<path fill="none" stroke="#63b8ff" d="M583.99,-111.21C625.8,-102.23 694.33,-87.52 741.93,-77.3"/>
<polygon fill="#63b8ff" stroke="#63b8ff" points="742.61,-80.52 751.65,-74.99 741.14,-73.67 742.61,-80.52"/>
</g>
<!-- Node16 -->
<g id="node16" class="node">
<title>Node16</title>
<g id="a_node16"><a xlink:href="icp_8h.html" target="_top" xlink:title=" ">
<polygon fill="white" stroke="#666666" points="553.25,-74.5 475,-74.5 475,-55.25 553.25,-55.25 553.25,-74.5"/>
<text text-anchor="middle" x="514.12" y="-61" font-family="Helvetica,sans-Serif" font-size="10.00">ARX/AR/icp.h</text>
</a>
</g>
</g>
<!-- Node3&#45;&gt;Node16 -->
<g id="edge18" class="edge">
<title>Node3&#45;&gt;Node16</title>
<path fill="none" stroke="#63b8ff" d="M541.68,-110.33C537.26,-103.21 530.89,-92.93 525.39,-84.05"/>
<polygon fill="#63b8ff" stroke="#63b8ff" points="527.94,-82.52 519.69,-75.86 521.99,-86.2 527.94,-82.52"/>
</g>
<!-- Node3&#45;&gt;Node18 -->
<g id="edge21" class="edge">
<title>Node3&#45;&gt;Node18</title>
<path fill="none" stroke="#63b8ff" d="M583.74,-112.93C639.46,-104.4 748.32,-88.48 841.12,-74.5 843.63,-74.12 846.19,-73.73 848.79,-73.34"/>
<polygon fill="#63b8ff" stroke="#63b8ff" points="849.23,-76.66 858.6,-71.71 848.19,-69.74 849.23,-76.66"/>
</g>
<!-- Node19 -->
<g id="node19" class="node">
<title>Node19</title>
<g id="a_node19"><a xlink:href="ar_image_proc_8h.html" target="_top" xlink:title="artoolkitX functions for 2D luminance image processing.">
<polygon fill="white" stroke="#666666" points="730.62,-74.5 609.62,-74.5 609.62,-55.25 730.62,-55.25 730.62,-74.5"/>
<text text-anchor="middle" x="670.12" y="-61" font-family="Helvetica,sans-Serif" font-size="10.00">ARX/AR/arImageProc.h</text>
</a>
</g>
</g>
<!-- Node3&#45;&gt;Node19 -->
<g id="edge23" class="edge">
<title>Node3&#45;&gt;Node19</title>
<path fill="none" stroke="#63b8ff" d="M562.77,-110.09C580.7,-101.56 610.24,-88.67 633.88,-79.01"/>
<polygon fill="#63b8ff" stroke="#63b8ff" points="634.97,-81.94 642.93,-74.95 632.35,-75.45 634.97,-81.94"/>
</g>
<!-- Node10&#45;&gt;Node4 -->
<g id="edge10" class="edge">
<title>Node10&#45;&gt;Node4</title>
<path fill="none" stroke="#63b8ff" d="M252.38,-54.78C295.19,-44.6 363.87,-28.28 404.64,-18.59"/>
<polygon fill="#63b8ff" stroke="#63b8ff" points="405.18,-21.82 414.1,-16.1 403.56,-15.01 405.18,-21.82"/>
</g>
<!-- Node10&#45;&gt;Node5 -->
<g id="edge11" class="edge">
<title>Node10&#45;&gt;Node5</title>
<path fill="none" stroke="#63b8ff" d="M239.57,-54.84C264.36,-46.04 302.24,-32.6 329.71,-22.84"/>
<polygon fill="#63b8ff" stroke="#63b8ff" points="330.79,-25.82 339.05,-19.17 328.45,-19.22 330.79,-25.82"/>
</g>
<!-- Node10&#45;&gt;Node7 -->
<g id="edge12" class="edge">
<title>Node10&#45;&gt;Node7</title>
<path fill="none" stroke="#63b8ff" d="M181.89,-54.84C147.74,-45.27 93.98,-30.2 58.89,-20.37"/>
<polygon fill="#63b8ff" stroke="#63b8ff" points="60.22,-16.82 49.64,-17.5 58.33,-23.57 60.22,-16.82"/>
</g>
<!-- Node11 -->
<g id="node11" class="node">
<title>Node11</title>
<g id="a_node11"><a xlink:title=" ">
<polygon fill="#e0e0e0" stroke="#999999" points="239.75,-19.25 188.5,-19.25 188.5,0 239.75,0 239.75,-19.25"/>
<text text-anchor="middle" x="214.12" y="-5.75" font-family="Helvetica,sans-Serif" font-size="10.00">stdarg.h</text>
</a>
</g>
</g>
<!-- Node10&#45;&gt;Node11 -->
<g id="edge13" class="edge">
<title>Node10&#45;&gt;Node11</title>
<path fill="none" stroke="#63b8ff" d="M214.12,-55.08C214.12,-48.42 214.12,-38.99 214.12,-30.53"/>
<polygon fill="#63b8ff" stroke="#63b8ff" points="217.63,-30.61 214.12,-20.61 210.63,-30.61 217.63,-30.61"/>
</g>
<!-- Node12 -->
<g id="node12" class="node">
<title>Node12</title>
<g id="a_node12"><a xlink:title=" ">
<polygon fill="#e0e0e0" stroke="#999999" points="322.5,-19.25 257.75,-19.25 257.75,0 322.5,0 322.5,-19.25"/>
<text text-anchor="middle" x="290.12" y="-5.75" font-family="Helvetica,sans-Serif" font-size="10.00">sys/errno.h</text>
</a>
</g>
</g>
<!-- Node10&#45;&gt;Node12 -->
<g id="edge14" class="edge">
<title>Node10&#45;&gt;Node12</title>
<path fill="none" stroke="#63b8ff" d="M227.02,-54.84C238.37,-46.89 255.14,-35.14 268.54,-25.75"/>
<polygon fill="#63b8ff" stroke="#63b8ff" points="269.99,-28.31 276.17,-19.7 265.97,-22.57 269.99,-28.31"/>
</g>
<!-- Node13 -->
<g id="node13" class="node">
<title>Node13</title>
<g id="a_node13"><a xlink:href="types_8h.html" target="_top" xlink:title=" ">
<polygon fill="white" stroke="#666666" points="170.38,-19.25 65.88,-19.25 65.88,0 170.38,0 170.38,-19.25"/>
<text text-anchor="middle" x="118.12" y="-5.75" font-family="Helvetica,sans-Serif" font-size="10.00">ARX/ARUtil/types.h</text>
</a>
</g>
</g>
<!-- Node10&#45;&gt;Node13 -->
<g id="edge15" class="edge">
<title>Node10&#45;&gt;Node13</title>
<path fill="none" stroke="#63b8ff" d="M197.84,-54.84C183.08,-46.66 161.09,-34.46 143.94,-24.94"/>
<polygon fill="#63b8ff" stroke="#63b8ff" points="145.93,-21.49 135.49,-19.7 142.54,-27.61 145.93,-21.49"/>
</g>
<!-- Node15 -->
<g id="node15" class="node">
<title>Node15</title>
<g id="a_node15"><a xlink:title=" ">
<polygon fill="#e0e0e0" stroke="#999999" points="818.12,-19.25 772.12,-19.25 772.12,0 818.12,0 818.12,-19.25"/>
<text text-anchor="middle" x="795.12" y="-5.75" font-family="Helvetica,sans-Serif" font-size="10.00">math.h</text>
</a>
</g>
</g>
<!-- Node14&#45;&gt;Node15 -->
<g id="edge17" class="edge">
<title>Node14&#45;&gt;Node15</title>
<path fill="none" stroke="#63b8ff" d="M795.12,-55.08C795.12,-48.42 795.12,-38.99 795.12,-30.53"/>
<polygon fill="#63b8ff" stroke="#63b8ff" points="798.63,-30.61 795.12,-20.61 791.63,-30.61 798.63,-30.61"/>
</g>
<!-- Node16&#45;&gt;Node4 -->
<g id="edge19" class="edge">
<title>Node16&#45;&gt;Node4</title>
<path fill="none" stroke="#63b8ff" d="M501.23,-54.84C489.88,-46.89 473.11,-35.14 459.71,-25.75"/>
<polygon fill="#63b8ff" stroke="#63b8ff" points="462.28,-22.57 452.08,-19.7 458.26,-28.31 462.28,-22.57"/>
</g>
<!-- Node17 -->
<g id="node17" class="node">
<title>Node17</title>
<g id="a_node17"><a xlink:href="icp_core_8h.html" target="_top" xlink:title=" ">
<polygon fill="white" stroke="#666666" points="577.75,-19.25 478.5,-19.25 478.5,0 577.75,0 577.75,-19.25"/>
<text text-anchor="middle" x="528.12" y="-5.75" font-family="Helvetica,sans-Serif" font-size="10.00">ARX/AR/icpCore.h</text>
</a>
</g>
</g>
<!-- Node16&#45;&gt;Node17 -->
<g id="edge20" class="edge">
<title>Node16&#45;&gt;Node17</title>
<path fill="none" stroke="#63b8ff" d="M516.44,-55.08C518.21,-48.34 520.72,-38.77 522.97,-30.24"/>
<polygon fill="#63b8ff" stroke="#63b8ff" points="526.61,-31.17 525.76,-20.61 519.84,-29.39 526.61,-31.17"/>
</g>
<!-- Node18&#45;&gt;Node3 -->
<g id="edge22" class="edge">
<title>Node18&#45;&gt;Node3</title>
<path fill="none" stroke="#63b8ff" d="M859.42,-74.46C859.32,-74.47 859.22,-74.49 859.12,-74.5 765.82,-88.56 656.28,-104.57 594.84,-113.07"/>
<polygon fill="#63b8ff" stroke="#63b8ff" points="594.38,-109.74 584.95,-114.57 595.33,-116.67 594.38,-109.74"/>
</g>
<!-- Node19&#45;&gt;Node3 -->
<g id="edge25" class="edge">
<title>Node19&#45;&gt;Node3</title>
<path fill="none" stroke="#63b8ff" d="M654.38,-74.95C636.42,-83.5 606.87,-96.39 583.25,-106.04"/>
<polygon fill="#63b8ff" stroke="#63b8ff" points="582.17,-103.11 574.21,-110.09 584.79,-109.6 582.17,-103.11"/>
</g>
<!-- Node19&#45;&gt;Node8 -->
<g id="edge24" class="edge">
<title>Node19&#45;&gt;Node8</title>
<path fill="none" stroke="#63b8ff" d="M667.81,-55.08C666.04,-48.34 663.53,-38.77 661.28,-30.24"/>
<polygon fill="#63b8ff" stroke="#63b8ff" points="664.41,-29.39 658.49,-20.61 657.64,-31.17 664.41,-29.39"/>
</g>
</g>
</svg>
