<?xml version="1.0" encoding="UTF-8" standalone="no"?>
<!DOCTYPE svg PUBLIC "-//W3C//DTD SVG 1.1//EN"
 "http://www.w3.org/Graphics/SVG/1.1/DTD/svg11.dtd">
<!-- Generated by graphviz version 2.40.1 (20161225.0304)
 -->
<!-- Title: Source/ARX/AR/paramFile.c Pages: 1 -->
<svg width="1044pt" height="192pt"
 viewBox="0.00 0.00 1043.86 192.00" xmlns="http://www.w3.org/2000/svg" xmlns:xlink="http://www.w3.org/1999/xlink">
<g id="graph0" class="graph" transform="scale(1 1) rotate(0) translate(4 188)">
<title>Source/ARX/AR/paramFile.c</title>
<polygon fill="#ffffff" stroke="transparent" points="-4,4 -4,-188 1039.8643,-188 1039.8643,4 -4,4"/>
<!-- Node0 -->
<g id="node1" class="node">
<title>Node0</title>
<polygon fill="#bfbfbf" stroke="#000000" points="237.7119,-165.5 237.7119,-183.5 380.4209,-183.5 380.4209,-165.5 237.7119,-165.5"/>
<text text-anchor="middle" x="309.0664" y="-171.5" font-family="Helvetica,sans-Serif" font-size="10.00" fill="#000000">Source/ARX/AR/paramFile.c</text>
</g>
<!-- Node1 -->
<g id="node2" class="node">
<title>Node1</title>
<polygon fill="#ffffff" stroke="#bfbfbf" points="406.335,-.5 406.335,-18.5 451.7979,-18.5 451.7979,-.5 406.335,-.5"/>
<text text-anchor="middle" x="429.0664" y="-6.5" font-family="Helvetica,sans-Serif" font-size="10.00" fill="#000000">stdio.h</text>
</g>
<!-- Node0&#45;&gt;Node1 -->
<g id="edge1" class="edge">
<title>Node0&#45;&gt;Node1</title>
<path fill="none" stroke="#191970" d="M307.8063,-165.2922C305.3655,-143.6263 302.2978,-88.7144 328.0664,-55 336.8688,-43.4834 370.3244,-29.7535 396.3478,-20.4099"/>
<polygon fill="#191970" stroke="#191970" points="397.6161,-23.6741 405.8907,-17.0574 395.2959,-17.0698 397.6161,-23.6741"/>
</g>
<!-- Node2 -->
<g id="node3" class="node">
<title>Node2</title>
<polygon fill="#ffffff" stroke="#bfbfbf" points="0,-.5 0,-18.5 52.1328,-18.5 52.1328,-.5 0,-.5"/>
<text text-anchor="middle" x="26.0664" y="-6.5" font-family="Helvetica,sans-Serif" font-size="10.00" fill="#000000">stdarg.h</text>
</g>
<!-- Node0&#45;&gt;Node2 -->
<g id="edge2" class="edge">
<title>Node0&#45;&gt;Node2</title>
<path fill="none" stroke="#191970" d="M271.2123,-165.448C243.5383,-157.9408 205.6551,-145.7764 175.0664,-129 121.8095,-99.7913 68.4809,-51.2 42.4499,-25.9181"/>
<polygon fill="#191970" stroke="#191970" points="44.5758,-23.0999 34.9921,-18.5829 39.6672,-28.0905 44.5758,-23.0999"/>
</g>
<!-- Node3 -->
<g id="node4" class="node">
<title>Node3</title>
<polygon fill="#ffffff" stroke="#bfbfbf" points="69.6699,-.5 69.6699,-18.5 118.4629,-18.5 118.4629,-.5 69.6699,-.5"/>
<text text-anchor="middle" x="94.0664" y="-6.5" font-family="Helvetica,sans-Serif" font-size="10.00" fill="#000000">string.h</text>
</g>
<!-- Node0&#45;&gt;Node3 -->
<g id="edge3" class="edge">
<title>Node0&#45;&gt;Node3</title>
<path fill="none" stroke="#191970" d="M284.7383,-165.4704C248.0285,-150.8759 177.9052,-119.1113 132.0664,-74 118.7793,-60.9238 108.4521,-42.2518 101.9393,-28.3598"/>
<polygon fill="#191970" stroke="#191970" points="104.9708,-26.5619 97.7166,-18.8401 98.572,-29.4003 104.9708,-26.5619"/>
</g>
<!-- Node4 -->
<g id="node5" class="node">
<title>Node4</title>
<g id="a_node5"><a xlink:href="ar_8h.html" target="_top" xlink:title="artoolkitX core routines. ">
<polygon fill="#ffffff" stroke="#000000" points="443.7192,-110.5 443.7192,-128.5 516.4136,-128.5 516.4136,-110.5 443.7192,-110.5"/>
<text text-anchor="middle" x="480.0664" y="-116.5" font-family="Helvetica,sans-Serif" font-size="10.00" fill="#000000">ARX/AR/ar.h</text>
</a>
</g>
</g>
<!-- Node0&#45;&gt;Node4 -->
<g id="edge4" class="edge">
<title>Node0&#45;&gt;Node4</title>
<path fill="none" stroke="#191970" d="M337.3036,-165.4179C365.9786,-156.1949 410.5574,-141.8567 442.2654,-131.6582"/>
<polygon fill="#191970" stroke="#191970" points="443.6235,-134.8981 452.0715,-128.5042 441.4801,-128.2343 443.6235,-134.8981"/>
</g>
<!-- Node18 -->
<g id="node19" class="node">
<title>Node18</title>
<polygon fill="#ffffff" stroke="#bfbfbf" points="534.2241,-110.5 534.2241,-128.5 581.9087,-128.5 581.9087,-110.5 534.2241,-110.5"/>
<text text-anchor="middle" x="558.0664" y="-116.5" font-family="Helvetica,sans-Serif" font-size="10.00" fill="#000000">errno.h</text>
</g>
<!-- Node0&#45;&gt;Node18 -->
<g id="edge28" class="edge">
<title>Node0&#45;&gt;Node18</title>
<path fill="none" stroke="#191970" d="M356.9104,-165.4586C398.6872,-157.3305 461.1437,-144.6187 524.2494,-129.0721"/>
<polygon fill="#191970" stroke="#191970" points="525.1101,-132.4648 533.9704,-126.6557 523.4214,-125.6715 525.1101,-132.4648"/>
</g>
<!-- Node4&#45;&gt;Node1 -->
<g id="edge5" class="edge">
<title>Node4&#45;&gt;Node1</title>
<path fill="none" stroke="#191970" d="M465.4224,-110.2889C454.0776,-102.2448 439.1399,-89.4517 432.0664,-74 425.5777,-59.8257 425.2532,-42.018 426.3107,-28.707"/>
<polygon fill="#191970" stroke="#191970" points="429.7899,-29.0879 427.4191,-18.7617 422.8329,-28.3125 429.7899,-29.0879"/>
</g>
<!-- Node4&#45;&gt;Node3 -->
<g id="edge8" class="edge">
<title>Node4&#45;&gt;Node3</title>
<path fill="none" stroke="#191970" d="M443.6602,-116.975C371.4839,-111.5302 212.9984,-97.2618 164.0664,-74 141.1105,-63.087 120.47,-42.0034 107.6496,-26.9104"/>
<polygon fill="#191970" stroke="#191970" points="110.0872,-24.3624 101.0464,-18.8383 104.669,-28.7946 110.0872,-24.3624"/>
</g>
<!-- Node5 -->
<g id="node6" class="node">
<title>Node5</title>
<polygon fill="#ffffff" stroke="#bfbfbf" points="136.2241,-.5 136.2241,-18.5 183.9087,-18.5 183.9087,-.5 136.2241,-.5"/>
<text text-anchor="middle" x="160.0664" y="-6.5" font-family="Helvetica,sans-Serif" font-size="10.00" fill="#000000">stdlib.h</text>
</g>
<!-- Node4&#45;&gt;Node5 -->
<g id="edge6" class="edge">
<title>Node4&#45;&gt;Node5</title>
<path fill="none" stroke="#191970" d="M443.7166,-118.6858C372.6885,-116.3608 219.0067,-107.4919 180.0664,-74 167.0336,-62.7907 162.3691,-43.2627 160.7622,-28.6223"/>
<polygon fill="#191970" stroke="#191970" points="164.2497,-28.3214 160.0415,-18.5982 157.2677,-28.8235 164.2497,-28.3214"/>
</g>
<!-- Node6 -->
<g id="node7" class="node">
<title>Node6</title>
<polygon fill="#ffffff" stroke="#bfbfbf" points="336.9458,-55.5 336.9458,-73.5 385.187,-73.5 385.187,-55.5 336.9458,-55.5"/>
<text text-anchor="middle" x="361.0664" y="-61.5" font-family="Helvetica,sans-Serif" font-size="10.00" fill="#000000">stdint.h</text>
</g>
<!-- Node4&#45;&gt;Node6 -->
<g id="edge7" class="edge">
<title>Node4&#45;&gt;Node6</title>
<path fill="none" stroke="#191970" d="M460.416,-110.4179C441.2094,-101.5409 411.7501,-87.9253 389.8924,-77.823"/>
<polygon fill="#191970" stroke="#191970" points="391.2918,-74.614 380.746,-73.5956 388.355,-80.9682 391.2918,-74.614"/>
</g>
<!-- Node7 -->
<g id="node8" class="node">
<title>Node7</title>
<polygon fill="#ffffff" stroke="#bfbfbf" points="884.5493,-.5 884.5493,-18.5 975.5835,-18.5 975.5835,-.5 884.5493,-.5"/>
<text text-anchor="middle" x="930.0664" y="-6.5" font-family="Helvetica,sans-Serif" font-size="10.00" fill="#000000">ARX/AR/config.h</text>
</g>
<!-- Node4&#45;&gt;Node7 -->
<g id="edge9" class="edge">
<title>Node4&#45;&gt;Node7</title>
<path fill="none" stroke="#191970" d="M516.8461,-111.4126C519.6217,-110.9013 522.3848,-110.423 525.0664,-110 676.0391,-86.1831 729.5101,-140.6203 867.0664,-74 888.5329,-63.6035 906.7647,-42.7322 918.0074,-27.5389"/>
<polygon fill="#191970" stroke="#191970" points="921.1588,-29.1439 924.0707,-18.9571 915.4418,-25.1046 921.1588,-29.1439"/>
</g>
<!-- Node8 -->
<g id="node9" class="node">
<title>Node8</title>
<g id="a_node9"><a xlink:href="ar_config_8h.html" target="_top" xlink:title="ARX/AR/arConfig.h">
<polygon fill="#ffffff" stroke="#000000" points="645.9927,-55.5 645.9927,-73.5 748.1401,-73.5 748.1401,-55.5 645.9927,-55.5"/>
<text text-anchor="middle" x="697.0664" y="-61.5" font-family="Helvetica,sans-Serif" font-size="10.00" fill="#000000">ARX/AR/arConfig.h</text>
</a>
</g>
</g>
<!-- Node4&#45;&gt;Node8 -->
<g id="edge10" class="edge">
<title>Node4&#45;&gt;Node8</title>
<path fill="none" stroke="#191970" d="M515.8995,-110.4179C553.076,-100.9953 611.3175,-86.2336 651.6862,-76.0019"/>
<polygon fill="#191970" stroke="#191970" points="652.7071,-79.3539 661.5407,-73.5042 650.9873,-72.5684 652.7071,-79.3539"/>
</g>
<!-- Node9 -->
<g id="node10" class="node">
<title>Node9</title>
<g id="a_node10"><a xlink:href="log_8h.html" target="_top" xlink:title="Logging utilities. ">
<polygon fill="#ffffff" stroke="#000000" points="188.9976,-55.5 188.9976,-73.5 281.1353,-73.5 281.1353,-55.5 188.9976,-55.5"/>
<text text-anchor="middle" x="235.0664" y="-61.5" font-family="Helvetica,sans-Serif" font-size="10.00" fill="#000000">ARX/ARUtil/log.h</text>
</a>
</g>
</g>
<!-- Node4&#45;&gt;Node9 -->
<g id="edge11" class="edge">
<title>Node4&#45;&gt;Node9</title>
<path fill="none" stroke="#191970" d="M443.652,-111.3253C401.6767,-101.9023 332.4338,-86.358 285.3416,-75.7863"/>
<polygon fill="#191970" stroke="#191970" points="285.8765,-72.3193 275.3527,-73.5439 284.3432,-79.1493 285.8765,-72.3193"/>
</g>
<!-- Node12 -->
<g id="node13" class="node">
<title>Node12</title>
<g id="a_node13"><a xlink:href="matrix_8h.html" target="_top" xlink:title="ARX/AR/matrix.h">
<polygon fill="#ffffff" stroke="#000000" points="536.2808,-55.5 536.2808,-73.5 627.8521,-73.5 627.8521,-55.5 536.2808,-55.5"/>
<text text-anchor="middle" x="582.0664" y="-61.5" font-family="Helvetica,sans-Serif" font-size="10.00" fill="#000000">ARX/AR/matrix.h</text>
</a>
</g>
</g>
<!-- Node4&#45;&gt;Node12 -->
<g id="edge18" class="edge">
<title>Node4&#45;&gt;Node12</title>
<path fill="none" stroke="#191970" d="M496.9096,-110.4179C513.0771,-101.7001 537.7202,-88.4122 556.344,-78.3699"/>
<polygon fill="#191970" stroke="#191970" points="558.0574,-81.4225 565.1982,-73.5956 554.735,-75.2611 558.0574,-81.4225"/>
</g>
<!-- Node14 -->
<g id="node15" class="node">
<title>Node14</title>
<g id="a_node15"><a xlink:href="icp_8h.html" target="_top" xlink:title="ARX/AR/icp.h">
<polygon fill="#ffffff" stroke="#000000" points="441.5,-55.5 441.5,-73.5 518.6328,-73.5 518.6328,-55.5 441.5,-55.5"/>
<text text-anchor="middle" x="480.0664" y="-61.5" font-family="Helvetica,sans-Serif" font-size="10.00" fill="#000000">ARX/AR/icp.h</text>
</a>
</g>
</g>
<!-- Node4&#45;&gt;Node14 -->
<g id="edge20" class="edge">
<title>Node4&#45;&gt;Node14</title>
<path fill="none" stroke="#191970" d="M480.0664,-110.4179C480.0664,-103.2164 480.0664,-92.8962 480.0664,-83.8632"/>
<polygon fill="#191970" stroke="#191970" points="483.5665,-83.7794 480.0664,-73.7795 476.5665,-83.7795 483.5665,-83.7794"/>
</g>
<!-- Node16 -->
<g id="node17" class="node">
<title>Node16</title>
<g id="a_node17"><a xlink:href="param_8h.html" target="_top" xlink:title="artoolkitX functions for handling calibrated camera parameters. ">
<polygon fill="#ffffff" stroke="#000000" points="765.7192,-55.5 765.7192,-73.5 858.4136,-73.5 858.4136,-55.5 765.7192,-55.5"/>
<text text-anchor="middle" x="812.0664" y="-61.5" font-family="Helvetica,sans-Serif" font-size="10.00" fill="#000000">ARX/AR/param.h</text>
</a>
</g>
</g>
<!-- Node4&#45;&gt;Node16 -->
<g id="edge23" class="edge">
<title>Node4&#45;&gt;Node16</title>
<path fill="none" stroke="#191970" d="M513.6905,-110.4405C514.4883,-110.2907 515.281,-110.1437 516.0664,-110 618.7069,-91.2164 645.0958,-90.8807 748.0664,-74 750.5347,-73.5954 753.0644,-73.1757 755.6272,-72.7483"/>
<polygon fill="#191970" stroke="#191970" points="756.3322,-76.179 765.617,-71.0757 755.1763,-69.2751 756.3322,-76.179"/>
</g>
<!-- Node17 -->
<g id="node18" class="node">
<title>Node17</title>
<g id="a_node18"><a xlink:href="ar_image_proc_8h.html" target="_top" xlink:title="artoolkitX functions for 2D luminance image processing. ">
<polygon fill="#ffffff" stroke="#000000" points="914.2686,-55.5 914.2686,-73.5 1035.8643,-73.5 1035.8643,-55.5 914.2686,-55.5"/>
<text text-anchor="middle" x="975.0664" y="-61.5" font-family="Helvetica,sans-Serif" font-size="10.00" fill="#000000">ARX/AR/arImageProc.h</text>
</a>
</g>
</g>
<!-- Node4&#45;&gt;Node17 -->
<g id="edge25" class="edge">
<title>Node4&#45;&gt;Node17</title>
<path fill="none" stroke="#191970" d="M513.1987,-110.4558C514.1621,-110.2972 515.1193,-110.145 516.0664,-110 681.5719,-84.6677 724.6612,-92.5221 891.0664,-74 895.2487,-73.5345 899.5599,-73.0365 903.9197,-72.5216"/>
<polygon fill="#191970" stroke="#191970" points="904.6306,-75.9616 914.1431,-71.2966 903.7977,-69.0113 904.6306,-75.9616"/>
</g>
<!-- Node9&#45;&gt;Node1 -->
<g id="edge12" class="edge">
<title>Node9&#45;&gt;Node1</title>
<path fill="none" stroke="#191970" d="M267.6871,-55.4904C298.4488,-46.9606 346.0903,-33.6642 396.2753,-19.2003"/>
<polygon fill="#191970" stroke="#191970" points="397.37,-22.5273 406.0063,-16.3902 395.4278,-15.8021 397.37,-22.5273"/>
</g>
<!-- Node9&#45;&gt;Node2 -->
<g id="edge15" class="edge">
<title>Node9&#45;&gt;Node2</title>
<path fill="none" stroke="#191970" d="M200.0474,-55.4445C166.9514,-46.8637 115.6468,-33.5042 62.3947,-19.3382"/>
<polygon fill="#191970" stroke="#191970" points="62.9966,-15.8765 52.4326,-16.6846 61.1948,-22.6407 62.9966,-15.8765"/>
</g>
<!-- Node9&#45;&gt;Node3 -->
<g id="edge14" class="edge">
<title>Node9&#45;&gt;Node3</title>
<path fill="none" stroke="#191970" d="M211.7831,-55.4179C188.6176,-46.3817 152.8641,-32.4353 126.8368,-22.2828"/>
<polygon fill="#191970" stroke="#191970" points="127.9725,-18.969 117.3843,-18.5956 125.4287,-25.4904 127.9725,-18.969"/>
</g>
<!-- Node9&#45;&gt;Node5 -->
<g id="edge13" class="edge">
<title>Node9&#45;&gt;Node5</title>
<path fill="none" stroke="#191970" d="M222.6817,-55.4179C211.2824,-47.0584 194.1527,-34.4966 180.6899,-24.6239"/>
<polygon fill="#191970" stroke="#191970" points="182.6034,-21.6869 172.4695,-18.5956 178.4638,-27.3317 182.6034,-21.6869"/>
</g>
<!-- Node10 -->
<g id="node11" class="node">
<title>Node10</title>
<polygon fill="#ffffff" stroke="#bfbfbf" points="202.335,-.5 202.335,-18.5 267.7979,-18.5 267.7979,-.5 202.335,-.5"/>
<text text-anchor="middle" x="235.0664" y="-6.5" font-family="Helvetica,sans-Serif" font-size="10.00" fill="#000000">sys/errno.h</text>
</g>
<!-- Node9&#45;&gt;Node10 -->
<g id="edge16" class="edge">
<title>Node9&#45;&gt;Node10</title>
<path fill="none" stroke="#191970" d="M235.0664,-55.4179C235.0664,-48.2164 235.0664,-37.8962 235.0664,-28.8632"/>
<polygon fill="#191970" stroke="#191970" points="238.5665,-28.7794 235.0664,-18.7795 231.5665,-28.7795 238.5665,-28.7794"/>
</g>
<!-- Node11 -->
<g id="node12" class="node">
<title>Node11</title>
<g id="a_node12"><a xlink:href="types_8h.html" target="_top" xlink:title="ARX/ARUtil/types.h">
<polygon fill="#ffffff" stroke="#000000" points="285.7192,-.5 285.7192,-18.5 388.4136,-18.5 388.4136,-.5 285.7192,-.5"/>
<text text-anchor="middle" x="337.0664" y="-6.5" font-family="Helvetica,sans-Serif" font-size="10.00" fill="#000000">ARX/ARUtil/types.h</text>
</a>
</g>
</g>
<!-- Node9&#45;&gt;Node11 -->
<g id="edge17" class="edge">
<title>Node9&#45;&gt;Node11</title>
<path fill="none" stroke="#191970" d="M251.9096,-55.4179C268.0771,-46.7001 292.7202,-33.4122 311.344,-23.3699"/>
<polygon fill="#191970" stroke="#191970" points="313.0574,-26.4225 320.1982,-18.5956 309.735,-20.2611 313.0574,-26.4225"/>
</g>
<!-- Node13 -->
<g id="node14" class="node">
<title>Node13</title>
<polygon fill="#ffffff" stroke="#bfbfbf" points="586.7808,-.5 586.7808,-18.5 633.3521,-18.5 633.3521,-.5 586.7808,-.5"/>
<text text-anchor="middle" x="610.0664" y="-6.5" font-family="Helvetica,sans-Serif" font-size="10.00" fill="#000000">math.h</text>
</g>
<!-- Node12&#45;&gt;Node13 -->
<g id="edge19" class="edge">
<title>Node12&#45;&gt;Node13</title>
<path fill="none" stroke="#191970" d="M586.69,-55.4179C590.4771,-47.9789 595.9583,-37.2123 600.6614,-27.9742"/>
<polygon fill="#191970" stroke="#191970" points="603.9245,-29.279 605.3423,-18.7795 597.6864,-26.1032 603.9245,-29.279"/>
</g>
<!-- Node14&#45;&gt;Node1 -->
<g id="edge21" class="edge">
<title>Node14&#45;&gt;Node1</title>
<path fill="none" stroke="#191970" d="M471.6448,-55.4179C464.3066,-47.5041 453.4762,-35.8243 444.5751,-26.2251"/>
<polygon fill="#191970" stroke="#191970" points="447.0369,-23.7324 437.671,-18.7795 441.904,-28.492 447.0369,-23.7324"/>
</g>
<!-- Node15 -->
<g id="node16" class="node">
<title>Node15</title>
<g id="a_node16"><a xlink:href="icp_core_8h.html" target="_top" xlink:title="ARX/AR/icpCore.h">
<polygon fill="#ffffff" stroke="#000000" points="469.6626,-.5 469.6626,-18.5 568.4702,-18.5 568.4702,-.5 469.6626,-.5"/>
<text text-anchor="middle" x="519.0664" y="-6.5" font-family="Helvetica,sans-Serif" font-size="10.00" fill="#000000">ARX/AR/icpCore.h</text>
</a>
</g>
</g>
<!-- Node14&#45;&gt;Node15 -->
<g id="edge22" class="edge">
<title>Node14&#45;&gt;Node15</title>
<path fill="none" stroke="#191970" d="M486.5065,-55.4179C491.9497,-47.7415 499.9056,-36.5217 506.5903,-27.0945"/>
<polygon fill="#191970" stroke="#191970" points="509.5572,-28.9613 512.4864,-18.7795 503.847,-24.9123 509.5572,-28.9613"/>
</g>
<!-- Node16&#45;&gt;Node4 -->
<g id="edge24" class="edge">
<title>Node16&#45;&gt;Node4</title>
<path fill="none" stroke="#191970" d="M768.9601,-73.5234C767.9881,-73.6842 767.0226,-73.8432 766.0664,-74 663.0958,-90.8807 636.7069,-91.2164 534.0664,-110 531.5923,-110.4528 529.0458,-110.9379 526.4653,-111.4407"/>
<polygon fill="#191970" stroke="#191970" points="525.5516,-108.0537 516.4255,-113.4356 526.9159,-114.9195 525.5516,-108.0537"/>
</g>
<!-- Node17&#45;&gt;Node4 -->
<g id="edge27" class="edge">
<title>Node17&#45;&gt;Node4</title>
<path fill="none" stroke="#191970" d="M914.2095,-73.4188C912.4791,-73.6172 910.7622,-73.8112 909.0664,-74 742.6612,-92.5221 699.5719,-84.6677 534.0664,-110 531.7356,-110.3568 529.3437,-110.7576 526.922,-111.1877"/>
<polygon fill="#191970" stroke="#191970" points="526.0571,-107.789 516.879,-113.0817 527.3544,-114.6678 526.0571,-107.789"/>
</g>
<!-- Node17&#45;&gt;Node7 -->
<g id="edge26" class="edge">
<title>Node17&#45;&gt;Node7</title>
<path fill="none" stroke="#191970" d="M967.6356,-55.4179C961.2902,-47.6624 951.9855,-36.29 944.2238,-26.8035"/>
<polygon fill="#191970" stroke="#191970" points="946.7,-24.3027 937.6587,-18.7795 941.2822,-28.7354 946.7,-24.3027"/>
</g>
</g>
</svg>
