<?xml version="1.0" encoding="UTF-8" standalone="no"?>
<!DOCTYPE svg PUBLIC "-//W3C//DTD SVG 1.1//EN"
 "http://www.w3.org/Graphics/SVG/1.1/DTD/svg11.dtd">
<!-- Generated by graphviz version 8.0.5 (20230430.1635)
 -->
<!-- Title: arParamLTCreate Pages: 1 -->
<svg width="248pt" height="64pt"
 viewBox="0.00 0.00 247.75 64.25" xmlns="http://www.w3.org/2000/svg" xmlns:xlink="http://www.w3.org/1999/xlink">
<g id="graph0" class="graph" transform="scale(1 1) rotate(0) translate(4 60.25)">
<title>arParamLTCreate</title>
<!-- Node1 -->
<g id="node1" class="node">
<title>Node1</title>
<g id="a_node1"><a xlink:title="Allocate and calculate a lookup&#45;table camera parameter from a standard camera parameter.">
<polygon fill="#999999" stroke="#666666" points="93.25,-37.25 0,-37.25 0,-18 93.25,-18 93.25,-37.25"/>
<text text-anchor="middle" x="46.62" y="-23.75" font-family="Helvetica,sans-Serif" font-size="10.00">arParamLTCreate</text>
</a>
</g>
</g>
<!-- Node2 -->
<g id="node2" class="node">
<title>Node2</title>
<g id="a_node2"><a xlink:href="param_distortion_8c.html#aed2e4987f6864f95b2183562a360e19c" target="_top" xlink:title="Use lens distortion parameters to convert idealised (zero&#45;distortion) window coordinates to observed ...">
<polygon fill="white" stroke="#666666" points="239.75,-56.25 129.25,-56.25 129.25,-37 239.75,-37 239.75,-56.25"/>
<text text-anchor="middle" x="184.5" y="-42.75" font-family="Helvetica,sans-Serif" font-size="10.00">arParamIdeal2Observ</text>
</a>
</g>
</g>
<!-- Node1&#45;&gt;Node2 -->
<g id="edge1" class="edge">
<title>Node1&#45;&gt;Node2</title>
<path fill="none" stroke="#63b8ff" d="M93.63,-34.06C101.55,-35.17 109.92,-36.34 118.23,-37.5"/>
<polygon fill="#63b8ff" stroke="#63b8ff" points="117.7,-41.1 128.09,-39.02 118.67,-34.17 117.7,-41.1"/>
</g>
<!-- Node3 -->
<g id="node3" class="node">
<title>Node3</title>
<g id="a_node3"><a xlink:href="param_distortion_8c.html#af6fab5b34071af3f7fb01d484a75a333" target="_top" xlink:title="Use lens distortion parameters to convert observed (distorted) window coordinates to idealised (zero&#45;...">
<polygon fill="white" stroke="#666666" points="239.75,-19.25 129.25,-19.25 129.25,0 239.75,0 239.75,-19.25"/>
<text text-anchor="middle" x="184.5" y="-5.75" font-family="Helvetica,sans-Serif" font-size="10.00">arParamObserv2Ideal</text>
</a>
</g>
</g>
<!-- Node1&#45;&gt;Node3 -->
<g id="edge2" class="edge">
<title>Node1&#45;&gt;Node3</title>
<path fill="none" stroke="#63b8ff" d="M93.63,-21.53C101.55,-20.48 109.92,-19.37 118.23,-18.27"/>
<polygon fill="#63b8ff" stroke="#63b8ff" points="118.64,-21.62 128.09,-16.83 117.72,-14.68 118.64,-21.62"/>
</g>
</g>
</svg>
