<?xml version="1.0" encoding="UTF-8" standalone="no"?>
<!DOCTYPE svg PUBLIC "-//W3C//DTD SVG 1.1//EN"
 "http://www.w3.org/Graphics/SVG/1.1/DTD/svg11.dtd">
<!-- Generated by graphviz version 7.0.5 (20221223.1930)
 -->
<!-- Title: Source/ARX/AR/include/ARX/AR/paramGL.h Pages: 1 -->
<svg width="484pt" height="93pt"
 viewBox="0.00 0.00 484.00 93.00" xmlns="http://www.w3.org/2000/svg" xmlns:xlink="http://www.w3.org/1999/xlink">
<g id="graph0" class="graph" transform="scale(1 1) rotate(0) translate(4 89)">
<title>Source/ARX/AR/include/ARX/AR/paramGL.h</title>
<!-- Node1 -->
<g id="node1" class="node">
<title>Node1</title>
<g id="a_node1"><a xlink:title="Routines for converting ARParam and matrix types to OpenGL.">
<polygon fill="#999999" stroke="#666666" points="294,-85 172,-85 172,-55 294,-55 294,-85"/>
<text text-anchor="start" x="180" y="-73" font-family="Helvetica,sans-Serif" font-size="10.00">Source/ARX/AR/include</text>
<text text-anchor="middle" x="233" y="-62" font-family="Helvetica,sans-Serif" font-size="10.00">/ARX/AR/paramGL.h</text>
</a>
</g>
</g>
<!-- Node2 -->
<g id="node2" class="node">
<title>Node2</title>
<g id="a_node2"><a xlink:href="param_g_l_8c.html" target="_top" xlink:title=" ">
<polygon fill="white" stroke="#666666" points="140,-19 0,-19 0,0 140,0 140,-19"/>
<text text-anchor="middle" x="70" y="-7" font-family="Helvetica,sans-Serif" font-size="10.00">Source/ARX/AR/paramGL.c</text>
</a>
</g>
</g>
<!-- Node1&#45;&gt;Node2 -->
<g id="edge1" class="edge">
<title>Node1&#45;&gt;Node2</title>
<path fill="none" stroke="#63b8ff" d="M181.89,-50.66C152.8,-40.22 117.69,-27.61 94.65,-19.35"/>
<polygon fill="#63b8ff" stroke="#63b8ff" points="180.69,-53.94 191.28,-54.03 183.05,-47.36 180.69,-53.94"/>
</g>
<!-- Node3 -->
<g id="node3" class="node">
<title>Node3</title>
<g id="a_node3"><a xlink:href="_a_r_controller_8cpp.html" target="_top" xlink:title=" ">
<polygon fill="white" stroke="#666666" points="307.5,-19 158.5,-19 158.5,0 307.5,0 307.5,-19"/>
<text text-anchor="middle" x="233" y="-7" font-family="Helvetica,sans-Serif" font-size="10.00">Source/ARX/ARController.cpp</text>
</a>
</g>
</g>
<!-- Node1&#45;&gt;Node3 -->
<g id="edge2" class="edge">
<title>Node1&#45;&gt;Node3</title>
<path fill="none" stroke="#63b8ff" d="M233,-43.3C233,-34.65 233,-25.58 233,-19.18"/>
<polygon fill="#63b8ff" stroke="#63b8ff" points="229.5,-43.03 233,-53.03 236.5,-43.03 229.5,-43.03"/>
</g>
<!-- Node4 -->
<g id="node4" class="node">
<title>Node4</title>
<g id="a_node4"><a xlink:href="_a_r_trackable_8cpp.html" target="_top" xlink:title=" ">
<polygon fill="white" stroke="#666666" points="476,-19 326,-19 326,0 476,0 476,-19"/>
<text text-anchor="middle" x="401" y="-7" font-family="Helvetica,sans-Serif" font-size="10.00">Source/ARX/ARTrackable.cpp</text>
</a>
</g>
</g>
<!-- Node1&#45;&gt;Node4 -->
<g id="edge3" class="edge">
<title>Node1&#45;&gt;Node4</title>
<path fill="none" stroke="#63b8ff" d="M285.28,-50.8C315.34,-40.33 351.75,-27.65 375.6,-19.35"/>
<polygon fill="#63b8ff" stroke="#63b8ff" points="284.25,-47.45 275.96,-54.04 286.55,-54.06 284.25,-47.45"/>
</g>
</g>
</svg>
