<?xml version="1.0" encoding="UTF-8" standalone="no"?>
<!DOCTYPE svg PUBLIC "-//W3C//DTD SVG 1.1//EN"
 "http://www.w3.org/Graphics/SVG/1.1/DTD/svg11.dtd">
<!-- Generated by graphviz version 7.0.5 (20221223.1930)
 -->
<!-- Title: Source/ARX/AR/paramLT.c Pages: 1 -->
<svg width="994pt" height="192pt"
 viewBox="0.00 0.00 993.79 192.00" xmlns="http://www.w3.org/2000/svg" xmlns:xlink="http://www.w3.org/1999/xlink">
<g id="graph0" class="graph" transform="scale(1 1) rotate(0) translate(4 188)">
<title>Source/ARX/AR/paramLT.c</title>
<!-- Node1 -->
<g id="node1" class="node">
<title>Node1</title>
<g id="a_node1"><a xlink:title=" ">
<polygon fill="#999999" stroke="#666666" points="607.27,-184 470.27,-184 470.27,-165 607.27,-165 607.27,-184"/>
<text text-anchor="middle" x="538.77" y="-172" font-family="Helvetica,sans-Serif" font-size="10.00">Source/ARX/AR/paramLT.c</text>
</a>
</g>
</g>
<!-- Node2 -->
<g id="node2" class="node">
<title>Node2</title>
<g id="a_node2"><a xlink:title=" ">
<polygon fill="#e0e0e0" stroke="#999999" points="710.77,-19 664.77,-19 664.77,0 710.77,0 710.77,-19"/>
<text text-anchor="middle" x="687.77" y="-7" font-family="Helvetica,sans-Serif" font-size="10.00">stdio.h</text>
</a>
</g>
</g>
<!-- Node1&#45;&gt;Node2 -->
<g id="edge1" class="edge">
<title>Node1&#45;&gt;Node2</title>
<path fill="none" stroke="#63b8ff" d="M607.49,-166.85C712.39,-155.11 904.67,-126.81 945.77,-74 987.88,-19.88 1068.04,-83.21 727.77,-19 725.9,-18.65 723.98,-18.27 722.05,-17.89"/>
<polygon fill="#63b8ff" stroke="#63b8ff" points="722.98,-14.51 712.48,-15.93 721.57,-21.37 722.98,-14.51"/>
</g>
<!-- Node3 -->
<g id="node3" class="node">
<title>Node3</title>
<g id="a_node3"><a xlink:title=" ">
<polygon fill="#e0e0e0" stroke="#999999" points="298.27,-19 249.27,-19 249.27,0 298.27,0 298.27,-19"/>
<text text-anchor="middle" x="273.77" y="-7" font-family="Helvetica,sans-Serif" font-size="10.00">string.h</text>
</a>
</g>
</g>
<!-- Node1&#45;&gt;Node3 -->
<g id="edge2" class="edge">
<title>Node1&#45;&gt;Node3</title>
<path fill="none" stroke="#63b8ff" d="M469.94,-170.4C344.69,-163.16 87.37,-140.38 32.77,-74 -7.88,-24.59 -62.69,-73.29 228.77,-19 231.74,-18.45 234.83,-17.87 237.92,-17.29"/>
<polygon fill="#63b8ff" stroke="#63b8ff" points="238.35,-20.77 247.53,-15.48 237.05,-13.89 238.35,-20.77"/>
</g>
<!-- Node4 -->
<g id="node4" class="node">
<title>Node4</title>
<g id="a_node4"><a xlink:title=" ">
<polygon fill="#e0e0e0" stroke="#999999" points="59.27,-19 12.27,-19 12.27,0 59.27,0 59.27,-19"/>
<text text-anchor="middle" x="35.77" y="-7" font-family="Helvetica,sans-Serif" font-size="10.00">math.h</text>
</a>
</g>
</g>
<!-- Node1&#45;&gt;Node4 -->
<g id="edge3" class="edge">
<title>Node1&#45;&gt;Node4</title>
<path fill="none" stroke="#63b8ff" d="M469.98,-170.97C361.33,-166.26 155.3,-154.26 86.77,-129 46.63,-114.2 27.57,-111.92 7.77,-74 -0.22,-58.7 9.49,-40.65 19.6,-27.7"/>
<polygon fill="#63b8ff" stroke="#63b8ff" points="21.97,-30.33 25.81,-20.45 16.65,-25.78 21.97,-30.33"/>
</g>
<!-- Node5 -->
<g id="node5" class="node">
<title>Node5</title>
<g id="a_node5"><a xlink:href="ar_8h.html" target="_top" xlink:title="artoolkitX core routines.">
<polygon fill="white" stroke="#666666" points="575.77,-129 501.77,-129 501.77,-110 575.77,-110 575.77,-129"/>
<text text-anchor="middle" x="538.77" y="-117" font-family="Helvetica,sans-Serif" font-size="10.00">ARX/AR/ar.h</text>
</a>
</g>
</g>
<!-- Node1&#45;&gt;Node5 -->
<g id="edge4" class="edge">
<title>Node1&#45;&gt;Node5</title>
<path fill="none" stroke="#63b8ff" d="M538.77,-164.75C538.77,-158.27 538.77,-149.16 538.77,-140.9"/>
<polygon fill="#63b8ff" stroke="#63b8ff" points="542.27,-140.96 538.77,-130.96 535.27,-140.96 542.27,-140.96"/>
</g>
<!-- Node17 -->
<g id="node17" class="node">
<title>Node17</title>
<g id="a_node17"><a xlink:href="param_8h.html" target="_top" xlink:title="artoolkitX functions for handling calibrated camera parameters.">
<polygon fill="white" stroke="#666666" points="937.27,-74 844.27,-74 844.27,-55 937.27,-55 937.27,-74"/>
<text text-anchor="middle" x="890.77" y="-62" font-family="Helvetica,sans-Serif" font-size="10.00">ARX/AR/param.h</text>
</a>
</g>
</g>
<!-- Node1&#45;&gt;Node17 -->
<g id="edge28" class="edge">
<title>Node1&#45;&gt;Node17</title>
<path fill="none" stroke="#63b8ff" d="M567.87,-164.57C630.73,-145.29 779.24,-99.72 850.83,-77.75"/>
<polygon fill="#63b8ff" stroke="#63b8ff" points="851.65,-81.16 860.18,-74.88 849.59,-74.47 851.65,-81.16"/>
</g>
<!-- Node5&#45;&gt;Node2 -->
<g id="edge5" class="edge">
<title>Node5&#45;&gt;Node2</title>
<path fill="none" stroke="#63b8ff" d="M555.67,-109.57C571.23,-101.11 594.7,-87.68 613.77,-74 634.27,-59.29 655.99,-40.18 670.55,-26.78"/>
<polygon fill="#63b8ff" stroke="#63b8ff" points="672.58,-29.68 677.51,-20.3 667.81,-24.55 672.58,-29.68"/>
</g>
<!-- Node5&#45;&gt;Node3 -->
<g id="edge8" class="edge">
<title>Node5&#45;&gt;Node3</title>
<path fill="none" stroke="#63b8ff" d="M528.08,-109.59C511.2,-95.94 476.88,-69.89 443.77,-55 442.2,-54.3 358.81,-32.59 309.42,-19.76"/>
<polygon fill="#63b8ff" stroke="#63b8ff" points="310.58,-16.44 300.02,-17.31 308.82,-23.21 310.58,-16.44"/>
</g>
<!-- Node6 -->
<g id="node6" class="node">
<title>Node6</title>
<g id="a_node6"><a xlink:title=" ">
<polygon fill="#e0e0e0" stroke="#999999" points="641.77,-19 593.77,-19 593.77,0 641.77,0 641.77,-19"/>
<text text-anchor="middle" x="617.77" y="-7" font-family="Helvetica,sans-Serif" font-size="10.00">stdlib.h</text>
</a>
</g>
</g>
<!-- Node5&#45;&gt;Node6 -->
<g id="edge6" class="edge">
<title>Node5&#45;&gt;Node6</title>
<path fill="none" stroke="#63b8ff" d="M554.28,-109.55C566.77,-101.63 583.97,-89.02 594.77,-74 604.1,-61.01 610.02,-43.84 613.51,-30.63"/>
<polygon fill="#63b8ff" stroke="#63b8ff" points="616.91,-31.45 615.8,-20.91 610.1,-29.84 616.91,-31.45"/>
</g>
<!-- Node7 -->
<g id="node7" class="node">
<title>Node7</title>
<g id="a_node7"><a xlink:title=" ">
<polygon fill="#e0e0e0" stroke="#999999" points="729.27,-74 680.27,-74 680.27,-55 729.27,-55 729.27,-74"/>
<text text-anchor="middle" x="704.77" y="-62" font-family="Helvetica,sans-Serif" font-size="10.00">stdint.h</text>
</a>
</g>
</g>
<!-- Node5&#45;&gt;Node7 -->
<g id="edge7" class="edge">
<title>Node5&#45;&gt;Node7</title>
<path fill="none" stroke="#63b8ff" d="M566.93,-109.51C595.18,-100.49 638.79,-86.56 669.37,-76.8"/>
<polygon fill="#63b8ff" stroke="#63b8ff" points="670.09,-80.24 678.56,-73.87 667.97,-73.58 670.09,-80.24"/>
</g>
<!-- Node8 -->
<g id="node8" class="node">
<title>Node8</title>
<g id="a_node8"><a xlink:title=" ">
<polygon fill="#e0e0e0" stroke="#999999" points="219.77,-19 127.77,-19 127.77,0 219.77,0 219.77,-19"/>
<text text-anchor="middle" x="173.77" y="-7" font-family="Helvetica,sans-Serif" font-size="10.00">ARX/AR/config.h</text>
</a>
</g>
</g>
<!-- Node5&#45;&gt;Node8 -->
<g id="edge9" class="edge">
<title>Node5&#45;&gt;Node8</title>
<path fill="none" stroke="#63b8ff" d="M501.49,-119.31C419.48,-120.27 227.17,-117.68 182.77,-74 171.47,-62.89 169.95,-44.51 170.83,-30.37"/>
<polygon fill="#63b8ff" stroke="#63b8ff" points="174.27,-31.16 171.87,-20.84 167.31,-30.4 174.27,-31.16"/>
</g>
<!-- Node9 -->
<g id="node9" class="node">
<title>Node9</title>
<g id="a_node9"><a xlink:href="ar_config_8h.html" target="_top" xlink:title=" ">
<polygon fill="white" stroke="#666666" points="435.27,-74 332.27,-74 332.27,-55 435.27,-55 435.27,-74"/>
<text text-anchor="middle" x="383.77" y="-62" font-family="Helvetica,sans-Serif" font-size="10.00">ARX/AR/arConfig.h</text>
</a>
</g>
</g>
<!-- Node5&#45;&gt;Node9 -->
<g id="edge10" class="edge">
<title>Node5&#45;&gt;Node9</title>
<path fill="none" stroke="#63b8ff" d="M512.47,-109.51C487.24,-100.88 448.88,-87.76 420.6,-78.1"/>
<polygon fill="#63b8ff" stroke="#63b8ff" points="421.96,-74.86 411.36,-74.94 419.69,-81.48 421.96,-74.86"/>
</g>
<!-- Node10 -->
<g id="node10" class="node">
<title>Node10</title>
<g id="a_node10"><a xlink:href="log_8h.html" target="_top" xlink:title="Logging utilities.">
<polygon fill="white" stroke="#666666" points="585.77,-74 491.77,-74 491.77,-55 585.77,-55 585.77,-74"/>
<text text-anchor="middle" x="538.77" y="-62" font-family="Helvetica,sans-Serif" font-size="10.00">ARX/ARUtil/log.h</text>
</a>
</g>
</g>
<!-- Node5&#45;&gt;Node10 -->
<g id="edge11" class="edge">
<title>Node5&#45;&gt;Node10</title>
<path fill="none" stroke="#63b8ff" d="M538.77,-109.75C538.77,-103.27 538.77,-94.16 538.77,-85.9"/>
<polygon fill="#63b8ff" stroke="#63b8ff" points="542.27,-85.96 538.77,-75.96 535.27,-85.96 542.27,-85.96"/>
</g>
<!-- Node14 -->
<g id="node14" class="node">
<title>Node14</title>
<g id="a_node14"><a xlink:href="matrix_8h.html" target="_top" xlink:title=" ">
<polygon fill="white" stroke="#666666" points="135.27,-74 42.27,-74 42.27,-55 135.27,-55 135.27,-74"/>
<text text-anchor="middle" x="88.77" y="-62" font-family="Helvetica,sans-Serif" font-size="10.00">ARX/AR/matrix.h</text>
</a>
</g>
</g>
<!-- Node5&#45;&gt;Node14 -->
<g id="edge18" class="edge">
<title>Node5&#45;&gt;Node14</title>
<path fill="none" stroke="#63b8ff" d="M501.45,-114.54C432.11,-107.11 278.74,-90.36 149.77,-74 148.77,-73.87 147.76,-73.74 146.75,-73.61"/>
<polygon fill="#63b8ff" stroke="#63b8ff" points="147.58,-70.19 137.21,-72.36 146.67,-77.13 147.58,-70.19"/>
</g>
<!-- Node15 -->
<g id="node15" class="node">
<title>Node15</title>
<g id="a_node15"><a xlink:href="icp_8h.html" target="_top" xlink:title=" ">
<polygon fill="white" stroke="#666666" points="826.27,-74 747.27,-74 747.27,-55 826.27,-55 826.27,-74"/>
<text text-anchor="middle" x="786.77" y="-62" font-family="Helvetica,sans-Serif" font-size="10.00">ARX/AR/icp.h</text>
</a>
</g>
</g>
<!-- Node5&#45;&gt;Node15 -->
<g id="edge20" class="edge">
<title>Node5&#45;&gt;Node15</title>
<path fill="none" stroke="#63b8ff" d="M576.16,-110.51C618.76,-101.41 688.58,-86.48 736.05,-76.34"/>
<polygon fill="#63b8ff" stroke="#63b8ff" points="736.48,-79.83 745.53,-74.31 735.02,-72.98 736.48,-79.83"/>
</g>
<!-- Node5&#45;&gt;Node17 -->
<g id="edge23" class="edge">
<title>Node5&#45;&gt;Node17</title>
<path fill="none" stroke="#63b8ff" d="M576.25,-111.96C631.15,-103.3 736.1,-87.54 825.77,-74 828.05,-73.66 830.38,-73.3 832.74,-72.95"/>
<polygon fill="#63b8ff" stroke="#63b8ff" points="833.06,-76.44 842.43,-71.49 832.02,-69.52 833.06,-76.44"/>
</g>
<!-- Node18 -->
<g id="node18" class="node">
<title>Node18</title>
<g id="a_node18"><a xlink:href="ar_image_proc_8h.html" target="_top" xlink:title="artoolkitX functions for 2D luminance image processing.">
<polygon fill="white" stroke="#666666" points="313.77,-74 191.77,-74 191.77,-55 313.77,-55 313.77,-74"/>
<text text-anchor="middle" x="252.77" y="-62" font-family="Helvetica,sans-Serif" font-size="10.00">ARX/AR/arImageProc.h</text>
</a>
</g>
</g>
<!-- Node5&#45;&gt;Node18 -->
<g id="edge25" class="edge">
<title>Node5&#45;&gt;Node18</title>
<path fill="none" stroke="#63b8ff" d="M501.47,-112.42C451.81,-103.7 363.92,-87.48 306.97,-76.58"/>
<polygon fill="#63b8ff" stroke="#63b8ff" points="307.63,-73.15 297.15,-74.7 306.31,-80.02 307.63,-73.15"/>
</g>
<!-- Node10&#45;&gt;Node2 -->
<g id="edge12" class="edge">
<title>Node10&#45;&gt;Node2</title>
<path fill="none" stroke="#63b8ff" d="M564.04,-54.51C588.71,-45.74 626.4,-32.33 653.7,-22.62"/>
<polygon fill="#63b8ff" stroke="#63b8ff" points="654.66,-25.99 662.91,-19.34 652.31,-19.4 654.66,-25.99"/>
</g>
<!-- Node10&#45;&gt;Node3 -->
<g id="edge14" class="edge">
<title>Node10&#45;&gt;Node3</title>
<path fill="none" stroke="#63b8ff" d="M491.49,-55.33C446.87,-47.41 377.85,-34.66 309.55,-19.52"/>
<polygon fill="#63b8ff" stroke="#63b8ff" points="310.59,-16.17 300.07,-17.4 309.07,-23 310.59,-16.17"/>
</g>
<!-- Node10&#45;&gt;Node6 -->
<g id="edge13" class="edge">
<title>Node10&#45;&gt;Node6</title>
<path fill="none" stroke="#63b8ff" d="M552.17,-54.51C563.93,-46.62 581.28,-34.98 595.18,-25.65"/>
<polygon fill="#63b8ff" stroke="#63b8ff" points="596.95,-28.68 603.31,-20.2 593.05,-22.87 596.95,-28.68"/>
</g>
<!-- Node11 -->
<g id="node11" class="node">
<title>Node11</title>
<g id="a_node11"><a xlink:title=" ">
<polygon fill="#e0e0e0" stroke="#999999" points="491.77,-19 439.77,-19 439.77,0 491.77,0 491.77,-19"/>
<text text-anchor="middle" x="465.77" y="-7" font-family="Helvetica,sans-Serif" font-size="10.00">stdarg.h</text>
</a>
</g>
</g>
<!-- Node10&#45;&gt;Node11 -->
<g id="edge15" class="edge">
<title>Node10&#45;&gt;Node11</title>
<path fill="none" stroke="#63b8ff" d="M526.38,-54.51C515.62,-46.7 499.8,-35.21 487.02,-25.93"/>
<polygon fill="#63b8ff" stroke="#63b8ff" points="489.34,-23.29 479.19,-20.25 485.23,-28.95 489.34,-23.29"/>
</g>
<!-- Node12 -->
<g id="node12" class="node">
<title>Node12</title>
<g id="a_node12"><a xlink:title=" ">
<polygon fill="#e0e0e0" stroke="#999999" points="575.27,-19 510.27,-19 510.27,0 575.27,0 575.27,-19"/>
<text text-anchor="middle" x="542.77" y="-7" font-family="Helvetica,sans-Serif" font-size="10.00">sys/errno.h</text>
</a>
</g>
</g>
<!-- Node10&#45;&gt;Node12 -->
<g id="edge16" class="edge">
<title>Node10&#45;&gt;Node12</title>
<path fill="none" stroke="#63b8ff" d="M539.43,-54.75C539.92,-48.27 540.6,-39.16 541.23,-30.9"/>
<polygon fill="#63b8ff" stroke="#63b8ff" points="544.72,-31.19 541.98,-20.95 537.74,-30.66 544.72,-31.19"/>
</g>
<!-- Node13 -->
<g id="node13" class="node">
<title>Node13</title>
<g id="a_node13"><a xlink:href="types_8h.html" target="_top" xlink:title=" ">
<polygon fill="white" stroke="#666666" points="421.27,-19 316.27,-19 316.27,0 421.27,0 421.27,-19"/>
<text text-anchor="middle" x="368.77" y="-7" font-family="Helvetica,sans-Serif" font-size="10.00">ARX/ARUtil/types.h</text>
</a>
</g>
</g>
<!-- Node10&#45;&gt;Node13 -->
<g id="edge17" class="edge">
<title>Node10&#45;&gt;Node13</title>
<path fill="none" stroke="#63b8ff" d="M509.93,-54.51C482,-45.8 439.44,-32.53 408.35,-22.84"/>
<polygon fill="#63b8ff" stroke="#63b8ff" points="409.5,-19.53 398.91,-19.9 407.41,-26.21 409.5,-19.53"/>
</g>
<!-- Node14&#45;&gt;Node4 -->
<g id="edge19" class="edge">
<title>Node14&#45;&gt;Node4</title>
<path fill="none" stroke="#63b8ff" d="M80.02,-54.75C72.62,-47.35 61.81,-36.54 52.72,-27.45"/>
<polygon fill="#63b8ff" stroke="#63b8ff" points="55.33,-25.11 45.78,-20.51 50.38,-30.06 55.33,-25.11"/>
</g>
<!-- Node15&#45;&gt;Node2 -->
<g id="edge21" class="edge">
<title>Node15&#45;&gt;Node2</title>
<path fill="none" stroke="#63b8ff" d="M769.97,-54.51C754.66,-46.31 731.8,-34.07 714.06,-24.58"/>
<polygon fill="#63b8ff" stroke="#63b8ff" points="716.12,-21.71 705.65,-20.07 712.81,-27.88 716.12,-21.71"/>
</g>
<!-- Node16 -->
<g id="node16" class="node">
<title>Node16</title>
<g id="a_node16"><a xlink:href="icp_core_8h.html" target="_top" xlink:title=" ">
<polygon fill="white" stroke="#666666" points="836.77,-19 736.77,-19 736.77,0 836.77,0 836.77,-19"/>
<text text-anchor="middle" x="786.77" y="-7" font-family="Helvetica,sans-Serif" font-size="10.00">ARX/AR/icpCore.h</text>
</a>
</g>
</g>
<!-- Node15&#45;&gt;Node16 -->
<g id="edge22" class="edge">
<title>Node15&#45;&gt;Node16</title>
<path fill="none" stroke="#63b8ff" d="M786.77,-54.75C786.77,-48.27 786.77,-39.16 786.77,-30.9"/>
<polygon fill="#63b8ff" stroke="#63b8ff" points="790.27,-30.96 786.77,-20.96 783.27,-30.96 790.27,-30.96"/>
</g>
<!-- Node17&#45;&gt;Node5 -->
<g id="edge24" class="edge">
<title>Node17&#45;&gt;Node5</title>
<path fill="none" stroke="#63b8ff" d="M843.49,-74.04C753.27,-87.67 647.65,-103.52 587.32,-112.14"/>
<polygon fill="#63b8ff" stroke="#63b8ff" points="587.15,-108.63 577.74,-113.5 588.13,-115.56 587.15,-108.63"/>
</g>
<!-- Node18&#45;&gt;Node5 -->
<g id="edge27" class="edge">
<title>Node18&#45;&gt;Node5</title>
<path fill="none" stroke="#63b8ff" d="M306.34,-74.46C359.28,-83.91 439.42,-98.74 490.46,-108.55"/>
<polygon fill="#63b8ff" stroke="#63b8ff" points="489.55,-111.94 500.04,-110.39 490.88,-105.06 489.55,-111.94"/>
</g>
<!-- Node18&#45;&gt;Node8 -->
<g id="edge26" class="edge">
<title>Node18&#45;&gt;Node8</title>
<path fill="none" stroke="#63b8ff" d="M239.37,-54.51C227.61,-46.62 210.26,-34.98 196.36,-25.65"/>
<polygon fill="#63b8ff" stroke="#63b8ff" points="198.48,-22.87 188.23,-20.2 194.58,-28.68 198.48,-22.87"/>
</g>
</g>
</svg>
