<?xml version="1.0" encoding="UTF-8" standalone="no"?>
<!DOCTYPE svg PUBLIC "-//W3C//DTD SVG 1.1//EN"
 "http://www.w3.org/Graphics/SVG/1.1/DTD/svg11.dtd">
<!-- Generated by graphviz version 2.40.1 (20161225.0304)
 -->
<!-- Title: Source/ARX/AR/paramChangeSize.c Pages: 1 -->
<!--zoomable 202 -->
<svg id="main" version="1.1" xmlns="http://www.w3.org/2000/svg" xmlns:xlink="http://www.w3.org/1999/xlink" xml:space="preserve" onload="init(evt)">
<style type="text/css"><![CDATA[
.edge:hover path { stroke: red; }
.edge:hover polygon { stroke: red; fill: red; }
]]></style>
<script type="text/javascript"><![CDATA[
var edges = document.getElementsByTagName('g');
if (edges && edges.length) {
  for (var i=0;i<edges.length;i++) {
    if (edges[i].id.substr(0,4)=='edge') {
      edges[i].setAttribute('class','edge');
    }
  }
}
]]></script>
        <defs>
                <circle id="rim" cx="0" cy="0" r="7"/>
                <circle id="rim2" cx="0" cy="0" r="3.5"/>
                <g id="zoomPlus">
                        <use xlink:href="#rim" fill="#404040">
                                <set attributeName="fill" to="#808080" begin="zoomplus.mouseover" end="zoomplus.mouseout"/>
                        </use>
                        <path d="M-4,0h8M0,-4v8" fill="none" stroke="white" stroke-width="1.5" pointer-events="none"/>
                </g>
                <g id="zoomMin">
                        <use xlink:href="#rim" fill="#404040">
                                <set attributeName="fill" to="#808080" begin="zoomminus.mouseover" end="zoomminus.mouseout"/>
                        </use>
                        <path d="M-4,0h8" fill="none" stroke="white" stroke-width="1.5" pointer-events="none"/>
                </g>
                <g id="dirArrow">
                        <path fill="none" stroke="white" stroke-width="1.5" d="M0,-3.0v7 M-2.5,-0.5L0,-3.0L2.5,-0.5"/>
                </g>
               <g id="resetDef">
                       <use xlink:href="#rim2" fill="#404040">
                               <set attributeName="fill" to="#808080" begin="reset.mouseover" end="reset.mouseout"/>
                       </use>
               </g>
        </defs>

<script type="text/javascript">
var viewWidth = 955;
var viewHeight = 202;
var sectionId = 'dynsection-0';
</script>
<script xlink:href="svgpan.js"/>
<svg id="graph" class="graph">
<g id="viewport">
<title>Source/ARX/AR/paramChangeSize.c</title>
<polygon fill="#ffffff" stroke="transparent" points="-4,4 -4,-198 950.9786,-198 950.9786,4 -4,4"/>
<!-- Node0 -->
<g id="node1" class="node">
<title>Node0</title>
<polygon fill="#bfbfbf" stroke="#000000" points="421.6515,-165.5 421.6515,-193.5 575.4981,-193.5 575.4981,-165.5 421.6515,-165.5"/>
<text text-anchor="start" x="429.6515" y="-181.5" font-family="Helvetica,sans-Serif" font-size="10.00" fill="#000000">Source/ARX/AR/paramChange</text>
<text text-anchor="middle" x="498.5748" y="-171.5" font-family="Helvetica,sans-Serif" font-size="10.00" fill="#000000">Size.c</text>
</g>
<!-- Node1 -->
<g id="node2" class="node">
<title>Node1</title>
<polygon fill="#ffffff" stroke="#bfbfbf" points="784.8433,-.5 784.8433,-18.5 830.3062,-18.5 830.3062,-.5 784.8433,-.5"/>
<text text-anchor="middle" x="807.5748" y="-6.5" font-family="Helvetica,sans-Serif" font-size="10.00" fill="#000000">stdio.h</text>
</g>
<!-- Node0&#45;&gt;Node1 -->
<g id="edge1" class="edge">
<title>Node0&#45;&gt;Node1</title>
<path fill="none" stroke="#191970" d="M575.8882,-170.8627C683.29,-157.0904 869.0499,-126.2411 909.5748,-74 914.7507,-67.3277 914.1715,-62.0837 909.5748,-55 901.5258,-42.596 866.8641,-28.8222 840.1563,-19.7133"/>
<polygon fill="#191970" stroke="#191970" points="840.9753,-16.2973 830.3818,-16.4633 838.7666,-22.9398 840.9753,-16.2973"/>
</g>
<!-- Node2 -->
<g id="node3" class="node">
<title>Node2</title>
<polygon fill="#ffffff" stroke="#bfbfbf" points=".2891,-.5 .2891,-18.5 46.8604,-18.5 46.8604,-.5 .2891,-.5"/>
<text text-anchor="middle" x="23.5748" y="-6.5" font-family="Helvetica,sans-Serif" font-size="10.00" fill="#000000">math.h</text>
</g>
<!-- Node0&#45;&gt;Node2 -->
<g id="edge2" class="edge">
<title>Node0&#45;&gt;Node2</title>
<path fill="none" stroke="#191970" d="M421.6513,-174.5077C296.3716,-164.597 57.0338,-137.6361 5.5748,-74 -5.1163,-60.779 2.2827,-41.6131 10.5917,-27.6098"/>
<polygon fill="#191970" stroke="#191970" points="13.7547,-29.1663 16.2784,-18.8764 7.8887,-25.3467 13.7547,-29.1663"/>
</g>
<!-- Node3 -->
<g id="node4" class="node">
<title>Node3</title>
<g id="a_node4"><a xlink:href="ar_8h.html" target="_top" xlink:title="artoolkitX core routines. ">
<polygon fill="#ffffff" stroke="#000000" points="462.2276,-110.5 462.2276,-128.5 534.922,-128.5 534.922,-110.5 462.2276,-110.5"/>
<text text-anchor="middle" x="498.5748" y="-116.5" font-family="Helvetica,sans-Serif" font-size="10.00" fill="#000000">ARX/AR/ar.h</text>
</a>
</g>
</g>
<!-- Node0&#45;&gt;Node3 -->
<g id="edge3" class="edge">
<title>Node0&#45;&gt;Node3</title>
<path fill="none" stroke="#191970" d="M498.5748,-165.2808C498.5748,-157.3776 498.5748,-147.4316 498.5748,-138.8308"/>
<polygon fill="#191970" stroke="#191970" points="502.0749,-138.5842 498.5748,-128.5842 495.0749,-138.5842 502.0749,-138.5842"/>
</g>
<!-- Node3&#45;&gt;Node1 -->
<g id="edge4" class="edge">
<title>Node3&#45;&gt;Node1</title>
<path fill="none" stroke="#191970" d="M535.2495,-116.2609C597.2819,-110.2559 719.7663,-95.972 756.5748,-74 775.0763,-62.9559 789.4898,-42.513 798.2043,-27.5936"/>
<polygon fill="#191970" stroke="#191970" points="801.3225,-29.1871 803.0937,-18.7414 795.1951,-25.8027 801.3225,-29.1871"/>
</g>
<!-- Node4 -->
<g id="node5" class="node">
<title>Node4</title>
<polygon fill="#ffffff" stroke="#bfbfbf" points="718.7325,-.5 718.7325,-18.5 766.4171,-18.5 766.4171,-.5 718.7325,-.5"/>
<text text-anchor="middle" x="742.5748" y="-6.5" font-family="Helvetica,sans-Serif" font-size="10.00" fill="#000000">stdlib.h</text>
</g>
<!-- Node3&#45;&gt;Node4 -->
<g id="edge5" class="edge">
<title>Node3&#45;&gt;Node4</title>
<path fill="none" stroke="#191970" d="M535.0809,-117.8082C595.2331,-114.1991 711.1673,-103.5072 737.5748,-74 748.3313,-61.9809 748.593,-43.149 746.7496,-28.9302"/>
<polygon fill="#191970" stroke="#191970" points="750.1385,-27.9885 744.9801,-18.7343 743.2416,-29.1855 750.1385,-27.9885"/>
</g>
<!-- Node5 -->
<g id="node6" class="node">
<title>Node5</title>
<polygon fill="#ffffff" stroke="#bfbfbf" points="124.4542,-55.5 124.4542,-73.5 172.6954,-73.5 172.6954,-55.5 124.4542,-55.5"/>
<text text-anchor="middle" x="148.5748" y="-61.5" font-family="Helvetica,sans-Serif" font-size="10.00" fill="#000000">stdint.h</text>
</g>
<!-- Node3&#45;&gt;Node5 -->
<g id="edge6" class="edge">
<title>Node3&#45;&gt;Node5</title>
<path fill="none" stroke="#191970" d="M461.8671,-115.356C403.3374,-108.4775 285.3888,-93.506 186.5748,-74 185.3364,-73.7555 184.0778,-73.4966 182.8084,-73.2265"/>
<polygon fill="#191970" stroke="#191970" points="183.5514,-69.8062 173.0235,-70.9949 181.9948,-76.6309 183.5514,-69.8062"/>
</g>
<!-- Node6 -->
<g id="node7" class="node">
<title>Node6</title>
<polygon fill="#ffffff" stroke="#bfbfbf" points="377.1783,-.5 377.1783,-18.5 425.9713,-18.5 425.9713,-.5 377.1783,-.5"/>
<text text-anchor="middle" x="401.5748" y="-6.5" font-family="Helvetica,sans-Serif" font-size="10.00" fill="#000000">string.h</text>
</g>
<!-- Node3&#45;&gt;Node6 -->
<g id="edge7" class="edge">
<title>Node3&#45;&gt;Node6</title>
<path fill="none" stroke="#191970" d="M497.9719,-110.1946C496.6627,-96.7087 492.5341,-71.5404 479.5748,-55 468.2049,-40.4882 450.8223,-29.7078 435.35,-22.2928"/>
<polygon fill="#191970" stroke="#191970" points="436.59,-19.0129 426.0339,-18.1075 433.7214,-25.3982 436.59,-19.0129"/>
</g>
<!-- Node7 -->
<g id="node8" class="node">
<title>Node7</title>
<polygon fill="#ffffff" stroke="#bfbfbf" points="199.0577,-.5 199.0577,-18.5 290.0919,-18.5 290.0919,-.5 199.0577,-.5"/>
<text text-anchor="middle" x="244.5748" y="-6.5" font-family="Helvetica,sans-Serif" font-size="10.00" fill="#000000">ARX/AR/config.h</text>
</g>
<!-- Node3&#45;&gt;Node7 -->
<g id="edge8" class="edge">
<title>Node3&#45;&gt;Node7</title>
<path fill="none" stroke="#191970" d="M462.0722,-116.1662C390.0248,-109.2164 235.1309,-92.2985 219.5748,-74 207.9797,-60.3607 218.3638,-40.7367 229.0624,-26.7218"/>
<polygon fill="#191970" stroke="#191970" points="231.9122,-28.7671 235.5708,-18.824 226.5102,-24.3154 231.9122,-28.7671"/>
</g>
<!-- Node8 -->
<g id="node9" class="node">
<title>Node8</title>
<g id="a_node9"><a xlink:href="ar_config_8h.html" target="_top" xlink:title="ARX/AR/arConfig.h">
<polygon fill="#ffffff" stroke="#000000" points="368.5011,-55.5 368.5011,-73.5 470.6485,-73.5 470.6485,-55.5 368.5011,-55.5"/>
<text text-anchor="middle" x="419.5748" y="-61.5" font-family="Helvetica,sans-Serif" font-size="10.00" fill="#000000">ARX/AR/arConfig.h</text>
</a>
</g>
</g>
<!-- Node3&#45;&gt;Node8 -->
<g id="edge9" class="edge">
<title>Node3&#45;&gt;Node8</title>
<path fill="none" stroke="#191970" d="M485.5295,-110.4179C473.4079,-101.9788 455.1348,-89.257 440.8941,-79.3426"/>
<polygon fill="#191970" stroke="#191970" points="442.8462,-76.4369 432.6394,-73.5956 438.8466,-82.1818 442.8462,-76.4369"/>
</g>
<!-- Node9 -->
<g id="node10" class="node">
<title>Node9</title>
<g id="a_node10"><a xlink:href="log_8h.html" target="_top" xlink:title="Logging utilities. ">
<polygon fill="#ffffff" stroke="#000000" points="526.5059,-55.5 526.5059,-73.5 618.6436,-73.5 618.6436,-55.5 526.5059,-55.5"/>
<text text-anchor="middle" x="572.5748" y="-61.5" font-family="Helvetica,sans-Serif" font-size="10.00" fill="#000000">ARX/ARUtil/log.h</text>
</a>
</g>
</g>
<!-- Node3&#45;&gt;Node9 -->
<g id="edge10" class="edge">
<title>Node3&#45;&gt;Node9</title>
<path fill="none" stroke="#191970" d="M510.7944,-110.4179C522.0417,-102.0584 538.943,-89.4966 552.2263,-79.6239"/>
<polygon fill="#191970" stroke="#191970" points="554.3989,-82.37 560.337,-73.5956 550.2232,-76.7518 554.3989,-82.37"/>
</g>
<!-- Node13 -->
<g id="node14" class="node">
<title>Node13</title>
<g id="a_node14"><a xlink:href="matrix_8h.html" target="_top" xlink:title="ARX/AR/matrix.h">
<polygon fill="#ffffff" stroke="#000000" points="14.7891,-55.5 14.7891,-73.5 106.3604,-73.5 106.3604,-55.5 14.7891,-55.5"/>
<text text-anchor="middle" x="60.5748" y="-61.5" font-family="Helvetica,sans-Serif" font-size="10.00" fill="#000000">ARX/AR/matrix.h</text>
</a>
</g>
</g>
<!-- Node3&#45;&gt;Node13 -->
<g id="edge17" class="edge">
<title>Node3&#45;&gt;Node13</title>
<path fill="none" stroke="#191970" d="M462.0525,-115.8103C395.4982,-108.946 249.8068,-93.2728 116.4492,-74.0613"/>
<polygon fill="#191970" stroke="#191970" points="116.8609,-70.5845 106.462,-72.6124 115.8559,-77.5119 116.8609,-70.5845"/>
</g>
<!-- Node14 -->
<g id="node15" class="node">
<title>Node14</title>
<g id="a_node15"><a xlink:href="icp_8h.html" target="_top" xlink:title="ARX/AR/icp.h">
<polygon fill="#ffffff" stroke="#000000" points="823.0084,-55.5 823.0084,-73.5 900.1412,-73.5 900.1412,-55.5 823.0084,-55.5"/>
<text text-anchor="middle" x="861.5748" y="-61.5" font-family="Helvetica,sans-Serif" font-size="10.00" fill="#000000">ARX/AR/icp.h</text>
</a>
</g>
</g>
<!-- Node3&#45;&gt;Node14 -->
<g id="edge19" class="edge">
<title>Node3&#45;&gt;Node14</title>
<path fill="none" stroke="#191970" d="M535.3774,-114.4822C593.4968,-106.4715 710.0577,-90.0551 808.5748,-74 809.8722,-73.7886 811.1871,-73.5717 812.5135,-73.3506"/>
<polygon fill="#191970" stroke="#191970" points="813.5427,-76.7257 822.8118,-71.594 812.3656,-69.8253 813.5427,-76.7257"/>
</g>
<!-- Node16 -->
<g id="node17" class="node">
<title>Node16</title>
<g id="a_node17"><a xlink:href="param_8h.html" target="_top" xlink:title="artoolkitX functions for handling calibrated camera parameters. ">
<polygon fill="#ffffff" stroke="#000000" points="636.2276,-55.5 636.2276,-73.5 728.922,-73.5 728.922,-55.5 636.2276,-55.5"/>
<text text-anchor="middle" x="682.5748" y="-61.5" font-family="Helvetica,sans-Serif" font-size="10.00" fill="#000000">ARX/AR/param.h</text>
</a>
</g>
</g>
<!-- Node3&#45;&gt;Node16 -->
<g id="edge22" class="edge">
<title>Node3&#45;&gt;Node16</title>
<path fill="none" stroke="#191970" d="M523.7923,-110.4179C553.113,-101.0751 601.7672,-86.4834 637.5706,-76.263"/>
<polygon fill="#191970" stroke="#191970" points="638.6353,-79.5991 647.3015,-73.5042 636.726,-72.8646 638.6353,-79.5991"/>
</g>
<!-- Node17 -->
<g id="node18" class="node">
<title>Node17</title>
<g id="a_node18"><a xlink:href="ar_image_proc_8h.html" target="_top" xlink:title="artoolkitX functions for 2D luminance image processing. ">
<polygon fill="#ffffff" stroke="#000000" points="228.7769,-55.5 228.7769,-73.5 350.3726,-73.5 350.3726,-55.5 228.7769,-55.5"/>
<text text-anchor="middle" x="289.5748" y="-61.5" font-family="Helvetica,sans-Serif" font-size="10.00" fill="#000000">ARX/AR/arImageProc.h</text>
</a>
</g>
</g>
<!-- Node3&#45;&gt;Node17 -->
<g id="edge24" class="edge">
<title>Node3&#45;&gt;Node17</title>
<path fill="none" stroke="#191970" d="M461.8228,-111.1467C424.4146,-101.8503 366.8516,-86.7585 328.6426,-76.2685"/>
<polygon fill="#191970" stroke="#191970" points="329.4622,-72.8639 318.8912,-73.5739 327.5977,-79.611 329.4622,-72.8639"/>
</g>
<!-- Node9&#45;&gt;Node1 -->
<g id="edge11" class="edge">
<title>Node9&#45;&gt;Node1</title>
<path fill="none" stroke="#191970" d="M617.1365,-55.424C656.2301,-47.2575 714.8134,-34.5278 774.5679,-19.1333"/>
<polygon fill="#191970" stroke="#191970" points="775.757,-22.4406 784.5552,-16.5378 773.9963,-15.6656 775.757,-22.4406"/>
</g>
<!-- Node9&#45;&gt;Node4 -->
<g id="edge12" class="edge">
<title>Node9&#45;&gt;Node4</title>
<path fill="none" stroke="#191970" d="M600.6468,-55.4179C630.3455,-45.8095 677.2041,-30.6493 708.8778,-20.402"/>
<polygon fill="#191970" stroke="#191970" points="710.1499,-23.6691 718.5869,-17.2608 707.9951,-17.009 710.1499,-23.6691"/>
</g>
<!-- Node9&#45;&gt;Node6 -->
<g id="edge13" class="edge">
<title>Node9&#45;&gt;Node6</title>
<path fill="none" stroke="#191970" d="M544.3376,-55.4179C514.5498,-45.837 467.6,-30.7362 435.7442,-20.4902"/>
<polygon fill="#191970" stroke="#191970" points="436.5641,-17.0773 425.9727,-17.3473 434.4207,-23.7411 436.5641,-17.0773"/>
</g>
<!-- Node10 -->
<g id="node11" class="node">
<title>Node10</title>
<polygon fill="#ffffff" stroke="#bfbfbf" points="564.5084,-.5 564.5084,-18.5 616.6412,-18.5 616.6412,-.5 564.5084,-.5"/>
<text text-anchor="middle" x="590.5748" y="-6.5" font-family="Helvetica,sans-Serif" font-size="10.00" fill="#000000">stdarg.h</text>
</g>
<!-- Node9&#45;&gt;Node10 -->
<g id="edge14" class="edge">
<title>Node9&#45;&gt;Node10</title>
<path fill="none" stroke="#191970" d="M575.5471,-55.4179C577.9299,-48.1372 581.3559,-37.669 584.3351,-28.5659"/>
<polygon fill="#191970" stroke="#191970" points="587.7538,-29.3721 587.5379,-18.7795 581.101,-27.1948 587.7538,-29.3721"/>
</g>
<!-- Node11 -->
<g id="node12" class="node">
<title>Node11</title>
<polygon fill="#ffffff" stroke="#bfbfbf" points="634.8433,-.5 634.8433,-18.5 700.3062,-18.5 700.3062,-.5 634.8433,-.5"/>
<text text-anchor="middle" x="667.5748" y="-6.5" font-family="Helvetica,sans-Serif" font-size="10.00" fill="#000000">sys/errno.h</text>
</g>
<!-- Node9&#45;&gt;Node11 -->
<g id="edge15" class="edge">
<title>Node9&#45;&gt;Node11</title>
<path fill="none" stroke="#191970" d="M588.2621,-55.4179C603.1138,-46.8195 625.6446,-33.7754 642.9017,-23.7844"/>
<polygon fill="#191970" stroke="#191970" points="644.9635,-26.635 651.8642,-18.5956 641.4563,-20.577 644.9635,-26.635"/>
</g>
<!-- Node12 -->
<g id="node13" class="node">
<title>Node12</title>
<g id="a_node13"><a xlink:href="types_8h.html" target="_top" xlink:title="ARX/ARUtil/types.h">
<polygon fill="#ffffff" stroke="#000000" points="444.2276,-.5 444.2276,-18.5 546.922,-18.5 546.922,-.5 444.2276,-.5"/>
<text text-anchor="middle" x="495.5748" y="-6.5" font-family="Helvetica,sans-Serif" font-size="10.00" fill="#000000">ARX/ARUtil/types.h</text>
</a>
</g>
</g>
<!-- Node9&#45;&gt;Node12 -->
<g id="edge16" class="edge">
<title>Node9&#45;&gt;Node12</title>
<path fill="none" stroke="#191970" d="M559.8598,-55.4179C548.1565,-47.0584 530.5701,-34.4966 516.7483,-24.6239"/>
<polygon fill="#191970" stroke="#191970" points="518.4804,-21.56 508.3087,-18.5956 514.4117,-27.2561 518.4804,-21.56"/>
</g>
<!-- Node13&#45;&gt;Node2 -->
<g id="edge18" class="edge">
<title>Node13&#45;&gt;Node2</title>
<path fill="none" stroke="#191970" d="M54.465,-55.4179C49.3009,-47.7415 41.753,-36.5217 35.4111,-27.0945"/>
<polygon fill="#191970" stroke="#191970" points="38.3032,-25.1231 29.8173,-18.7795 32.4951,-29.0303 38.3032,-25.1231"/>
</g>
<!-- Node14&#45;&gt;Node1 -->
<g id="edge20" class="edge">
<title>Node14&#45;&gt;Node1</title>
<path fill="none" stroke="#191970" d="M852.6578,-55.4179C844.8102,-47.425 833.1908,-35.5903 823.7137,-25.9377"/>
<polygon fill="#191970" stroke="#191970" points="826.1889,-23.463 816.6855,-18.7795 821.194,-28.3672 826.1889,-23.463"/>
</g>
<!-- Node15 -->
<g id="node16" class="node">
<title>Node15</title>
<g id="a_node16"><a xlink:href="icp_core_8h.html" target="_top" xlink:title="ARX/AR/icpCore.h">
<polygon fill="#ffffff" stroke="#000000" points="848.171,-.5 848.171,-18.5 946.9786,-18.5 946.9786,-.5 848.171,-.5"/>
<text text-anchor="middle" x="897.5748" y="-6.5" font-family="Helvetica,sans-Serif" font-size="10.00" fill="#000000">ARX/AR/icpCore.h</text>
</a>
</g>
</g>
<!-- Node14&#45;&gt;Node15 -->
<g id="edge21" class="edge">
<title>Node14&#45;&gt;Node15</title>
<path fill="none" stroke="#191970" d="M867.5195,-55.4179C872.4922,-47.8207 879.7367,-36.7527 885.8672,-27.3866"/>
<polygon fill="#191970" stroke="#191970" points="888.9528,-29.0633 891.501,-18.7795 883.0959,-25.2297 888.9528,-29.0633"/>
</g>
<!-- Node16&#45;&gt;Node3 -->
<g id="edge23" class="edge">
<title>Node16&#45;&gt;Node3</title>
<path fill="none" stroke="#191970" d="M657.6017,-73.5042C628.3889,-82.8177 579.7531,-97.4068 543.8784,-107.6515"/>
<polygon fill="#191970" stroke="#191970" points="542.7904,-104.322 534.125,-110.4179 544.7006,-111.0563 542.7904,-104.322"/>
</g>
<!-- Node17&#45;&gt;Node3 -->
<g id="edge26" class="edge">
<title>Node17&#45;&gt;Node3</title>
<path fill="none" stroke="#191970" d="M328.9409,-73.5042C366.2769,-82.8177 421.8875,-97.4068 459.2157,-107.6515"/>
<polygon fill="#191970" stroke="#191970" points="458.658,-111.1285 469.229,-110.4179 460.5221,-104.3813 458.658,-111.1285"/>
</g>
<!-- Node17&#45;&gt;Node7 -->
<g id="edge25" class="edge">
<title>Node17&#45;&gt;Node7</title>
<path fill="none" stroke="#191970" d="M282.144,-55.4179C275.7986,-47.6624 266.4939,-36.29 258.7322,-26.8035"/>
<polygon fill="#191970" stroke="#191970" points="261.2083,-24.3027 252.1671,-18.7795 255.7906,-28.7354 261.2083,-24.3027"/>
</g>
</g>
</svg>
        <g id="navigator" transform="translate(0 0)" fill="#404254">
                <rect fill="#f2f5e9" fill-opacity="0.5" stroke="#606060" stroke-width=".5" x="0" y="0" width="60" height="60"/>
                <use id="zoomplus" xlink:href="#zoomPlus" x="17" y="9" onmousedown="handleZoom(evt,'in')"/>
                <use id="zoomminus" xlink:href="#zoomMin" x="42" y="9" onmousedown="handleZoom(evt,'out')"/>
                <use id="reset" xlink:href="#resetDef" x="30" y="36" onmousedown="handleReset()"/>
                <g id="arrowUp" xlink:href="#dirArrow" transform="translate(30 24)" onmousedown="handlePan(0,-1)">
                  <use xlink:href="#rim" fill="#404040">
                        <set attributeName="fill" to="#808080" begin="arrowUp.mouseover" end="arrowUp.mouseout"/>
                  </use>
                  <path fill="none" stroke="white" stroke-width="1.5" d="M0,-3.0v7 M-2.5,-0.5L0,-3.0L2.5,-0.5"/>
                </g>
                <g id="arrowRight" xlink:href="#dirArrow" transform="rotate(90) translate(36 -43)" onmousedown="handlePan(1,0)">
                  <use xlink:href="#rim" fill="#404040">
                        <set attributeName="fill" to="#808080" begin="arrowRight.mouseover" end="arrowRight.mouseout"/>
                  </use>
                  <path fill="none" stroke="white" stroke-width="1.5" d="M0,-3.0v7 M-2.5,-0.5L0,-3.0L2.5,-0.5"/>
                </g>
                <g id="arrowDown" xlink:href="#dirArrow" transform="rotate(180) translate(-30 -48)" onmousedown="handlePan(0,1)">
                  <use xlink:href="#rim" fill="#404040">
                        <set attributeName="fill" to="#808080" begin="arrowDown.mouseover" end="arrowDown.mouseout"/>
                  </use>
                  <path fill="none" stroke="white" stroke-width="1.5" d="M0,-3.0v7 M-2.5,-0.5L0,-3.0L2.5,-0.5"/>
                </g>
                <g id="arrowLeft" xlink:href="#dirArrow" transform="rotate(270) translate(-36 17)" onmousedown="handlePan(-1,0)">
                  <use xlink:href="#rim" fill="#404040">
                        <set attributeName="fill" to="#808080" begin="arrowLeft.mouseover" end="arrowLeft.mouseout"/>
                  </use>
                  <path fill="none" stroke="white" stroke-width="1.5" d="M0,-3.0v7 M-2.5,-0.5L0,-3.0L2.5,-0.5"/>
                </g>
        </g>
        <svg viewBox="0 0 15 15" width="100%" height="30px" preserveAspectRatio="xMaxYMin meet">
         <g id="arrow_out" transform="scale(0.3 0.3)">
          <a xlink:href="param_change_size_8c__incl_org.svg" target="_base">
           <rect id="button" ry="5" rx="5" y="6" x="6" height="38" width="38"
                fill="#f2f5e9" fill-opacity="0.5" stroke="#606060" stroke-width="1.0"/>
           <path id="arrow"
             d="M 11.500037,31.436501 C 11.940474,20.09759 22.043105,11.32322 32.158766,21.979434 L 37.068811,17.246167 C 37.068811,17.246167 37.088388,32 37.088388,32 L 22.160133,31.978069 C 22.160133,31.978069 26.997745,27.140456 26.997745,27.140456 C 18.528582,18.264221 13.291696,25.230495 11.500037,31.436501 z"
             style="fill:#404040;"/>
          </a>
         </g>
        </svg>
</svg>
