<?xml version="1.0" encoding="UTF-8" standalone="no"?>
<!DOCTYPE svg PUBLIC "-//W3C//DTD SVG 1.1//EN"
 "http://www.w3.org/Graphics/SVG/1.1/DTD/svg11.dtd">
<!-- Generated by graphviz version 2.40.1 (20161225.0304)
 -->
<!-- Title: arParamLTCreate Pages: 1 -->
<svg width="253pt" height="64pt"
 viewBox="0.00 0.00 253.11 64.00" xmlns="http://www.w3.org/2000/svg" xmlns:xlink="http://www.w3.org/1999/xlink">
<g id="graph0" class="graph" transform="scale(1 1) rotate(0) translate(4 60)">
<title>arParamLTCreate</title>
<polygon fill="#ffffff" stroke="transparent" points="-4,4 -4,-60 249.1143,-60 249.1143,4 -4,4"/>
<!-- Node1 -->
<g id="node1" class="node">
<title>Node1</title>
<polygon fill="#bfbfbf" stroke="#000000" points="0,-18.5 0,-36.5 95.292,-36.5 95.292,-18.5 0,-18.5"/>
<text text-anchor="middle" x="47.646" y="-24.5" font-family="Helvetica,sans-Serif" font-size="10.00" fill="#000000">arParamLTCreate</text>
</g>
<!-- Node2 -->
<g id="node2" class="node">
<title>Node2</title>
<g id="a_node2"><a xlink:href="param_8h.html#a96738131a7ecfa8a1a0fa5da6f2e71e3" target="_top" xlink:title="Use lens distortion parameters to convert idealised (zero&#45;distortion) window coordinates to observed ...">
<polygon fill="#ffffff" stroke="#000000" points="131.292,-37.5 131.292,-55.5 245.1143,-55.5 245.1143,-37.5 131.292,-37.5"/>
<text text-anchor="middle" x="188.2031" y="-43.5" font-family="Helvetica,sans-Serif" font-size="10.00" fill="#000000">arParamIdeal2Observ</text>
</a>
</g>
</g>
<!-- Node1&#45;&gt;Node2 -->
<g id="edge1" class="edge">
<title>Node1&#45;&gt;Node2</title>
<path fill="none" stroke="#191970" d="M95.6247,-33.9856C103.8558,-35.0982 112.5422,-36.2724 121.1636,-37.4378"/>
<polygon fill="#191970" stroke="#191970" points="120.8444,-40.9264 131.2231,-38.7977 121.7821,-33.9895 120.8444,-40.9264"/>
</g>
<!-- Node3 -->
<g id="node3" class="node">
<title>Node3</title>
<g id="a_node3"><a xlink:href="param_8h.html#aa6a51aac77b09cba379c2ee02ca3fa20" target="_top" xlink:title="Use lens distortion parameters to convert observed (distorted) window coordinates to idealised (zero&#45;...">
<polygon fill="#ffffff" stroke="#000000" points="131.292,-.5 131.292,-18.5 245.1143,-18.5 245.1143,-.5 131.292,-.5"/>
<text text-anchor="middle" x="188.2031" y="-6.5" font-family="Helvetica,sans-Serif" font-size="10.00" fill="#000000">arParamObserv2Ideal</text>
</a>
</g>
</g>
<!-- Node1&#45;&gt;Node3 -->
<g id="edge2" class="edge">
<title>Node1&#45;&gt;Node3</title>
<path fill="none" stroke="#191970" d="M95.6247,-21.3558C103.8558,-20.3017 112.5422,-19.1893 121.1636,-18.0852"/>
<polygon fill="#191970" stroke="#191970" points="121.7487,-21.5389 131.2231,-16.797 120.8595,-14.5956 121.7487,-21.5389"/>
</g>
</g>
</svg>
