<?xml version="1.0" encoding="UTF-8" standalone="no"?>
<!DOCTYPE svg PUBLIC "-//W3C//DTD SVG 1.1//EN"
 "http://www.w3.org/Graphics/SVG/1.1/DTD/svg11.dtd">
<!-- Generated by graphviz version 2.40.1 (20161225.0304)
 -->
<!-- Title: /Users/phil/r/artoolkitx/Source/ARX/AR2/include/ARX/AR2/searchPoint.h Pages: 1 -->
<svg width="338pt" height="112pt"
 viewBox="0.00 0.00 338.06 112.00" xmlns="http://www.w3.org/2000/svg" xmlns:xlink="http://www.w3.org/1999/xlink">
<g id="graph0" class="graph" transform="scale(1 1) rotate(0) translate(4 108)">
<title>/Users/phil/r/artoolkitx/Source/ARX/AR2/include/ARX/AR2/searchPoint.h</title>
<polygon fill="#ffffff" stroke="transparent" points="-4,4 -4,-108 334.0635,-108 334.0635,4 -4,4"/>
<!-- Node21 -->
<g id="node1" class="node">
<title>Node21</title>
<polygon fill="#bfbfbf" stroke="#000000" points="101.4482,-65.5 101.4482,-103.5 231.9502,-103.5 231.9502,-65.5 101.4482,-65.5"/>
<text text-anchor="start" x="109.4482" y="-91.5" font-family="Helvetica,sans-Serif" font-size="10.00" fill="#000000">/Users/phil/r/artoolkitx</text>
<text text-anchor="start" x="109.4482" y="-81.5" font-family="Helvetica,sans-Serif" font-size="10.00" fill="#000000">/Source/ARX/AR2/include</text>
<text text-anchor="middle" x="166.6992" y="-71.5" font-family="Helvetica,sans-Serif" font-size="10.00" fill="#000000">/ARX/AR2/searchPoint.h</text>
</g>
<!-- Node22 -->
<g id="node2" class="node">
<title>Node22</title>
<g id="a_node2"><a xlink:href="search_point_8c.html" target="_top" xlink:title="/Users/phil/r/artoolkitx\l/Source/ARX/AR2/searchPoint.c">
<polygon fill="#ffffff" stroke="#000000" points="0,-.5 0,-28.5 159.3984,-28.5 159.3984,-.5 0,-.5"/>
<text text-anchor="start" x="8" y="-16.5" font-family="Helvetica,sans-Serif" font-size="10.00" fill="#000000">/Users/phil/r/artoolkitx</text>
<text text-anchor="middle" x="79.6992" y="-6.5" font-family="Helvetica,sans-Serif" font-size="10.00" fill="#000000">/Source/ARX/AR2/searchPoint.c</text>
</a>
</g>
</g>
<!-- Node21&#45;&gt;Node22 -->
<g id="edge1" class="edge">
<title>Node21&#45;&gt;Node22</title>
<path fill="none" stroke="#191970" d="M134.8654,-58.8866C122.2121,-48.7057 108.1366,-37.3807 97.3705,-28.7183"/>
<polygon fill="#191970" stroke="#191970" points="132.9408,-61.8303 142.9261,-65.3722 137.329,-56.3765 132.9408,-61.8303"/>
</g>
<!-- Node23 -->
<g id="node3" class="node">
<title>Node23</title>
<g id="a_node3"><a xlink:href="tracking2d_8c.html" target="_top" xlink:title="/Users/phil/r/artoolkitx\l/Source/ARX/AR2/tracking2d.c">
<polygon fill="#ffffff" stroke="#000000" points="177.335,-.5 177.335,-28.5 330.0635,-28.5 330.0635,-.5 177.335,-.5"/>
<text text-anchor="start" x="185.335" y="-16.5" font-family="Helvetica,sans-Serif" font-size="10.00" fill="#000000">/Users/phil/r/artoolkitx</text>
<text text-anchor="middle" x="253.6992" y="-6.5" font-family="Helvetica,sans-Serif" font-size="10.00" fill="#000000">/Source/ARX/AR2/tracking2d.c</text>
</a>
</g>
</g>
<!-- Node21&#45;&gt;Node23 -->
<g id="edge2" class="edge">
<title>Node21&#45;&gt;Node23</title>
<path fill="none" stroke="#191970" d="M198.533,-58.8866C211.1864,-48.7057 225.2618,-37.3807 236.028,-28.7183"/>
<polygon fill="#191970" stroke="#191970" points="196.0695,-56.3765 190.4724,-65.3722 200.4576,-61.8303 196.0695,-56.3765"/>
</g>
</g>
</svg>
