<?xml version="1.0" encoding="UTF-8" standalone="no"?>
<!DOCTYPE svg PUBLIC "-//W3C//DTD SVG 1.1//EN"
 "http://www.w3.org/Graphics/SVG/1.1/DTD/svg11.dtd">
<!-- Generated by graphviz version 2.40.1 (20161225.0304)
 -->
<!-- Title: ar2GetSearchPoint Pages: 1 -->
<svg width="462pt" height="64pt"
 viewBox="0.00 0.00 461.87 64.00" xmlns="http://www.w3.org/2000/svg" xmlns:xlink="http://www.w3.org/1999/xlink">
<g id="graph0" class="graph" transform="scale(1 1) rotate(0) translate(4 60)">
<title>ar2GetSearchPoint</title>
<polygon fill="#ffffff" stroke="transparent" points="-4,4 -4,-60 457.8672,-60 457.8672,4 -4,4"/>
<!-- Node0 -->
<g id="node1" class="node">
<title>Node0</title>
<polygon fill="#bfbfbf" stroke="#000000" points="0,-18.5 0,-36.5 101.0488,-36.5 101.0488,-18.5 0,-18.5"/>
<text text-anchor="middle" x="50.5244" y="-24.5" font-family="Helvetica,sans-Serif" font-size="10.00" fill="#000000">ar2GetSearchPoint</text>
</g>
<!-- Node1 -->
<g id="node2" class="node">
<title>Node1</title>
<g id="a_node2"><a xlink:href="coord_8c.html#a63f7458dc5beff31362a6c1520e65b60" target="_top" xlink:title="ar2MarkerCoord2ScreenCoord">
<polygon fill="#ffffff" stroke="#000000" points="137.0488,-18.5 137.0488,-36.5 290.334,-36.5 290.334,-18.5 137.0488,-18.5"/>
<text text-anchor="middle" x="213.6914" y="-24.5" font-family="Helvetica,sans-Serif" font-size="10.00" fill="#000000">ar2MarkerCoord2ScreenCoord</text>
</a>
</g>
</g>
<!-- Node0&#45;&gt;Node1 -->
<g id="edge1" class="edge">
<title>Node0&#45;&gt;Node1</title>
<path fill="none" stroke="#191970" d="M101.2571,-27.5C109.3931,-27.5 118.0091,-27.5 126.7074,-27.5"/>
<polygon fill="#191970" stroke="#191970" points="126.9324,-31.0001 136.9324,-27.5 126.9323,-24.0001 126.9324,-31.0001"/>
</g>
<!-- Node2 -->
<g id="node3" class="node">
<title>Node2</title>
<g id="a_node3"><a xlink:href="ar_util_8c.html#a6233399e2a35a97e62b18e41c3cbc204" target="_top" xlink:title="arUtilMatMuldff">
<polygon fill="#ffffff" stroke="#000000" points="348.5703,-37.5 348.5703,-55.5 431.6309,-55.5 431.6309,-37.5 348.5703,-37.5"/>
<text text-anchor="middle" x="390.1006" y="-43.5" font-family="Helvetica,sans-Serif" font-size="10.00" fill="#000000">arUtilMatMuldff</text>
</a>
</g>
</g>
<!-- Node1&#45;&gt;Node2 -->
<g id="edge2" class="edge">
<title>Node1&#45;&gt;Node2</title>
<path fill="none" stroke="#191970" d="M290.5539,-35.7784C306.698,-37.5172 323.3575,-39.3115 338.3206,-40.9231"/>
<polygon fill="#191970" stroke="#191970" points="338.064,-44.4156 348.3814,-42.0067 338.8137,-37.4559 338.064,-44.4156"/>
</g>
<!-- Node3 -->
<g id="node4" class="node">
<title>Node3</title>
<g id="a_node4"><a xlink:href="param_8h.html#ad0cfff6a5b72b8a6cf4dd06c72d69448" target="_top" xlink:title="Use a lookup&#45;table camera parameter to convert idealised (zero&#45;distortion) window coordinates to obse...">
<polygon fill="#ffffff" stroke="#000000" points="326.334,-.5 326.334,-18.5 453.8672,-18.5 453.8672,-.5 326.334,-.5"/>
<text text-anchor="middle" x="390.1006" y="-6.5" font-family="Helvetica,sans-Serif" font-size="10.00" fill="#000000">arParamIdeal2ObservLTf</text>
</a>
</g>
</g>
<!-- Node1&#45;&gt;Node3 -->
<g id="edge3" class="edge">
<title>Node1&#45;&gt;Node3</title>
<path fill="none" stroke="#191970" d="M290.5539,-19.6573C299.0031,-18.7952 307.5936,-17.9186 316.0081,-17.0601"/>
<polygon fill="#191970" stroke="#191970" points="316.5704,-20.521 326.1634,-16.0239 315.8597,-13.5571 316.5704,-20.521"/>
</g>
</g>
</svg>
