<?xml version="1.0" encoding="UTF-8" standalone="no"?>
<!DOCTYPE svg PUBLIC "-//W3C//DTD SVG 1.1//EN"
 "http://www.w3.org/Graphics/SVG/1.1/DTD/svg11.dtd">
<!-- Generated by graphviz version 7.0.5 (20221223.1930)
 -->
<!-- Title: ar2GetResolution Pages: 1 -->
<svg width="353pt" height="27pt"
 viewBox="0.00 0.00 353.00 27.00" xmlns="http://www.w3.org/2000/svg" xmlns:xlink="http://www.w3.org/1999/xlink">
<g id="graph0" class="graph" transform="scale(1 1) rotate(0) translate(4 23)">
<title>ar2GetResolution</title>
<!-- Node1 -->
<g id="node1" class="node">
<title>Node1</title>
<g id="a_node1"><a xlink:title=" ">
<polygon fill="#999999" stroke="#666666" points="92,-19 0,-19 0,0 92,0 92,-19"/>
<text text-anchor="middle" x="46" y="-7" font-family="Helvetica,sans-Serif" font-size="10.00">ar2GetResolution</text>
</a>
</g>
</g>
<!-- Node2 -->
<g id="node2" class="node">
<title>Node2</title>
<g id="a_node2"><a xlink:href="select_template_8c.html#a82996d7ef11e1c5b869384e66e826603" target="_top" xlink:title=" ">
<polygon fill="white" stroke="#666666" points="226,-19 128,-19 128,0 226,0 226,-19"/>
<text text-anchor="middle" x="177" y="-7" font-family="Helvetica,sans-Serif" font-size="10.00">ar2GetResolution2</text>
</a>
</g>
</g>
<!-- Node1&#45;&gt;Node2 -->
<g id="edge1" class="edge">
<title>Node1&#45;&gt;Node2</title>
<path fill="none" stroke="#63b8ff" d="M92.48,-9.5C100.27,-9.5 108.47,-9.5 116.56,-9.5"/>
<polygon fill="#63b8ff" stroke="#63b8ff" points="116.36,-13 126.36,-9.5 116.36,-6 116.36,-13"/>
</g>
<!-- Node3 -->
<g id="node3" class="node">
<title>Node3</title>
<g id="a_node3"><a xlink:href="ar_util_8c.html#a6233399e2a35a97e62b18e41c3cbc204" target="_top" xlink:title=" ">
<polygon fill="white" stroke="#666666" points="345,-19 262,-19 262,0 345,0 345,-19"/>
<text text-anchor="middle" x="303.5" y="-7" font-family="Helvetica,sans-Serif" font-size="10.00">arUtilMatMuldff</text>
</a>
</g>
</g>
<!-- Node2&#45;&gt;Node3 -->
<g id="edge2" class="edge">
<title>Node2&#45;&gt;Node3</title>
<path fill="none" stroke="#63b8ff" d="M226.49,-9.5C234.29,-9.5 242.39,-9.5 250.27,-9.5"/>
<polygon fill="#63b8ff" stroke="#63b8ff" points="250.09,-13 260.09,-9.5 250.09,-6 250.09,-13"/>
</g>
</g>
</svg>
