<?xml version="1.0" encoding="UTF-8" standalone="no"?>
<!DOCTYPE svg PUBLIC "-//W3C//DTD SVG 1.1//EN"
 "http://www.w3.org/Graphics/SVG/1.1/DTD/svg11.dtd">
<!-- Generated by graphviz version 2.40.1 (20161225.0304)
 -->
<!-- Title: /Users/phil/r/artoolkitx/Source/ARX/ARG/shader_gl.c Pages: 1 -->
<svg width="161pt" height="147pt"
 viewBox="0.00 0.00 160.73 147.00" xmlns="http://www.w3.org/2000/svg" xmlns:xlink="http://www.w3.org/1999/xlink">
<g id="graph0" class="graph" transform="scale(1 1) rotate(0) translate(4 143)">
<title>/Users/phil/r/artoolkitx/Source/ARX/ARG/shader_gl.c</title>
<polygon fill="#ffffff" stroke="transparent" points="-4,4 -4,-143 156.7285,-143 156.7285,4 -4,4"/>
<!-- Node0 -->
<g id="node1" class="node">
<title>Node0</title>
<polygon fill="#bfbfbf" stroke="#000000" points="0,-110.5 0,-138.5 152.7285,-138.5 152.7285,-110.5 0,-110.5"/>
<text text-anchor="start" x="8" y="-126.5" font-family="Helvetica,sans-Serif" font-size="10.00" fill="#000000">/Users/phil/r/artoolkitx</text>
<text text-anchor="middle" x="76.3643" y="-116.5" font-family="Helvetica,sans-Serif" font-size="10.00" fill="#000000">/Source/ARX/ARG/shader_gl.c</text>
</g>
<!-- Node1 -->
<g id="node2" class="node">
<title>Node1</title>
<g id="a_node2"><a xlink:href="shader__gl_8h.html" target="_top" xlink:title="ARX/ARG/shader_gl.h">
<polygon fill="#ffffff" stroke="#000000" points="18.3398,-55.5 18.3398,-73.5 134.3887,-73.5 134.3887,-55.5 18.3398,-55.5"/>
<text text-anchor="middle" x="76.3643" y="-61.5" font-family="Helvetica,sans-Serif" font-size="10.00" fill="#000000">ARX/ARG/shader_gl.h</text>
</a>
</g>
</g>
<!-- Node0&#45;&gt;Node1 -->
<g id="edge1" class="edge">
<title>Node0&#45;&gt;Node1</title>
<path fill="none" stroke="#191970" d="M76.3643,-110.2808C76.3643,-102.3776 76.3643,-92.4316 76.3643,-83.8308"/>
<polygon fill="#191970" stroke="#191970" points="79.8644,-83.5842 76.3643,-73.5842 72.8644,-83.5842 79.8644,-83.5842"/>
</g>
<!-- Node2 -->
<g id="node3" class="node">
<title>Node2</title>
<polygon fill="#ffffff" stroke="#bfbfbf" points="30.8472,-.5 30.8472,-18.5 121.8813,-18.5 121.8813,-.5 30.8472,-.5"/>
<text text-anchor="middle" x="76.3643" y="-6.5" font-family="Helvetica,sans-Serif" font-size="10.00" fill="#000000">ARX/AR/config.h</text>
</g>
<!-- Node1&#45;&gt;Node2 -->
<g id="edge2" class="edge">
<title>Node1&#45;&gt;Node2</title>
<path fill="none" stroke="#191970" d="M76.3643,-55.4179C76.3643,-48.2164 76.3643,-37.8962 76.3643,-28.8632"/>
<polygon fill="#191970" stroke="#191970" points="79.8644,-28.7794 76.3643,-18.7795 72.8644,-28.7795 79.8644,-28.7794"/>
</g>
</g>
</svg>
