<?xml version="1.0" encoding="UTF-8" standalone="no"?>
<!DOCTYPE svg PUBLIC "-//W3C//DTD SVG 1.1//EN"
 "http://www.w3.org/Graphics/SVG/1.1/DTD/svg11.dtd">
<!-- Generated by graphviz version 2.40.1 (20161225.0304)
 -->
<!-- Title: Source/ARX/ARG/shader_gl.c Pages: 1 -->
<svg width="158pt" height="137pt"
 viewBox="0.00 0.00 157.95 137.00" xmlns="http://www.w3.org/2000/svg" xmlns:xlink="http://www.w3.org/1999/xlink">
<g id="graph0" class="graph" transform="scale(1 1) rotate(0) translate(4 133)">
<title>Source/ARX/ARG/shader_gl.c</title>
<polygon fill="#ffffff" stroke="transparent" points="-4,4 -4,-133 153.9502,-133 153.9502,4 -4,4"/>
<!-- Node0 -->
<g id="node1" class="node">
<title>Node0</title>
<polygon fill="#bfbfbf" stroke="#000000" points="0,-110.5 0,-128.5 149.9502,-128.5 149.9502,-110.5 0,-110.5"/>
<text text-anchor="middle" x="74.9751" y="-116.5" font-family="Helvetica,sans-Serif" font-size="10.00" fill="#000000">Source/ARX/ARG/shader_gl.c</text>
</g>
<!-- Node1 -->
<g id="node2" class="node">
<title>Node1</title>
<g id="a_node2"><a xlink:href="shader__gl_8h.html" target="_top" xlink:title="ARX/ARG/shader_gl.h">
<polygon fill="#ffffff" stroke="#000000" points="16.9507,-55.5 16.9507,-73.5 132.9995,-73.5 132.9995,-55.5 16.9507,-55.5"/>
<text text-anchor="middle" x="74.9751" y="-61.5" font-family="Helvetica,sans-Serif" font-size="10.00" fill="#000000">ARX/ARG/shader_gl.h</text>
</a>
</g>
</g>
<!-- Node0&#45;&gt;Node1 -->
<g id="edge1" class="edge">
<title>Node0&#45;&gt;Node1</title>
<path fill="none" stroke="#191970" d="M74.9751,-110.4179C74.9751,-103.2164 74.9751,-92.8962 74.9751,-83.8632"/>
<polygon fill="#191970" stroke="#191970" points="78.4752,-83.7794 74.9751,-73.7795 71.4752,-83.7795 78.4752,-83.7794"/>
</g>
<!-- Node2 -->
<g id="node3" class="node">
<title>Node2</title>
<polygon fill="#ffffff" stroke="#bfbfbf" points="29.458,-.5 29.458,-18.5 120.4922,-18.5 120.4922,-.5 29.458,-.5"/>
<text text-anchor="middle" x="74.9751" y="-6.5" font-family="Helvetica,sans-Serif" font-size="10.00" fill="#000000">ARX/AR/config.h</text>
</g>
<!-- Node1&#45;&gt;Node2 -->
<g id="edge2" class="edge">
<title>Node1&#45;&gt;Node2</title>
<path fill="none" stroke="#191970" d="M74.9751,-55.4179C74.9751,-48.2164 74.9751,-37.8962 74.9751,-28.8632"/>
<polygon fill="#191970" stroke="#191970" points="78.4752,-28.7794 74.9751,-18.7795 71.4752,-28.7795 78.4752,-28.7794"/>
</g>
</g>
</svg>
