<?xml version="1.0" encoding="UTF-8" standalone="no"?>
<!DOCTYPE svg PUBLIC "-//W3C//DTD SVG 1.1//EN"
 "http://www.w3.org/Graphics/SVG/1.1/DTD/svg11.dtd">
<!-- Generated by graphviz version 7.0.5 (20221223.1930)
 -->
<!-- Title: AR2SurfaceT Pages: 1 -->
<svg width="306pt" height="225pt"
 viewBox="0.00 0.00 305.50 225.00" xmlns="http://www.w3.org/2000/svg" xmlns:xlink="http://www.w3.org/1999/xlink">
<g id="graph0" class="graph" transform="scale(1 1) rotate(0) translate(4 221)">
<title>AR2SurfaceT</title>
<!-- Node1 -->
<g id="node1" class="node">
<title>Node1</title>
<g id="a_node1"><a xlink:title=" ">
<polygon fill="#999999" stroke="#666666" points="185,-19 109,-19 109,0 185,0 185,-19"/>
<text text-anchor="middle" x="147" y="-7" font-family="Helvetica,sans-Serif" font-size="10.00">AR2SurfaceT</text>
</a>
</g>
</g>
<!-- Node2 -->
<g id="node2" class="node">
<title>Node2</title>
<g id="a_node2"><a xlink:href="struct_a_r2_image_set_t.html" target="_top" xlink:title=" ">
<polygon fill="white" stroke="#666666" points="84,-85 0,-85 0,-66 84,-66 84,-85"/>
<text text-anchor="middle" x="42" y="-73" font-family="Helvetica,sans-Serif" font-size="10.00">AR2ImageSetT</text>
</a>
</g>
</g>
<!-- Node2&#45;&gt;Node1 -->
<g id="edge1" class="edge">
<title>Node2&#45;&gt;Node1</title>
<path fill="none" stroke="#9a32cd" stroke-dasharray="5,2" d="M64.03,-59.05C74.23,-52.08 86.58,-43.89 98,-37 108.27,-30.8 120.09,-24.39 129.54,-19.43"/>
<polygon fill="#9a32cd" stroke="#9a32cd" points="62.16,-56.09 55.92,-64.65 66.14,-61.85 62.16,-56.09"/>
<text text-anchor="middle" x="120.5" y="-40" font-family="Helvetica,sans-Serif" font-size="10.00"> imageSet</text>
</g>
<!-- Node3 -->
<g id="node3" class="node">
<title>Node3</title>
<g id="a_node3"><a xlink:href="struct_a_r2_image_t.html" target="_top" xlink:title=" ">
<polygon fill="white" stroke="#666666" points="76.5,-151 7.5,-151 7.5,-132 76.5,-132 76.5,-151"/>
<text text-anchor="middle" x="42" y="-139" font-family="Helvetica,sans-Serif" font-size="10.00">AR2ImageT</text>
</a>
</g>
</g>
<!-- Node3&#45;&gt;Node2 -->
<g id="edge2" class="edge">
<title>Node3&#45;&gt;Node2</title>
<path fill="none" stroke="#9a32cd" stroke-dasharray="5,2" d="M42,-120.18C42,-108.44 42,-94.27 42,-85.32"/>
<polygon fill="#9a32cd" stroke="#9a32cd" points="38.5,-120.09 42,-130.09 45.5,-120.09 38.5,-120.09"/>
<text text-anchor="middle" x="55.5" y="-106" font-family="Helvetica,sans-Serif" font-size="10.00"> scale</text>
</g>
<!-- Node4 -->
<g id="node4" class="node">
<title>Node4</title>
<g id="a_node4"><a xlink:href="struct_a_r2_feature_set_t.html" target="_top" xlink:title=" ">
<polygon fill="white" stroke="#666666" points="192,-85 102,-85 102,-66 192,-66 192,-85"/>
<text text-anchor="middle" x="147" y="-73" font-family="Helvetica,sans-Serif" font-size="10.00">AR2FeatureSetT</text>
</a>
</g>
</g>
<!-- Node4&#45;&gt;Node1 -->
<g id="edge3" class="edge">
<title>Node4&#45;&gt;Node1</title>
<path fill="none" stroke="#9a32cd" stroke-dasharray="5,2" d="M147,-54.18C147,-42.44 147,-28.27 147,-19.32"/>
<polygon fill="#9a32cd" stroke="#9a32cd" points="143.5,-54.09 147,-64.09 150.5,-54.09 143.5,-54.09"/>
<text text-anchor="middle" x="171.5" y="-40" font-family="Helvetica,sans-Serif" font-size="10.00"> featureSet</text>
</g>
<!-- Node5 -->
<g id="node5" class="node">
<title>Node5</title>
<g id="a_node5"><a xlink:href="struct_a_r2_feature_points_t.html" target="_top" xlink:title=" ">
<polygon fill="white" stroke="#666666" points="198.5,-151 95.5,-151 95.5,-132 198.5,-132 198.5,-151"/>
<text text-anchor="middle" x="147" y="-139" font-family="Helvetica,sans-Serif" font-size="10.00">AR2FeaturePointsT</text>
</a>
</g>
</g>
<!-- Node5&#45;&gt;Node4 -->
<g id="edge4" class="edge">
<title>Node5&#45;&gt;Node4</title>
<path fill="none" stroke="#9a32cd" stroke-dasharray="5,2" d="M147,-120.18C147,-108.44 147,-94.27 147,-85.32"/>
<polygon fill="#9a32cd" stroke="#9a32cd" points="143.5,-120.09 147,-130.09 150.5,-120.09 143.5,-120.09"/>
<text text-anchor="middle" x="155" y="-106" font-family="Helvetica,sans-Serif" font-size="10.00"> list</text>
</g>
<!-- Node6 -->
<g id="node6" class="node">
<title>Node6</title>
<g id="a_node6"><a xlink:href="struct_a_r2_feature_coord_t.html" target="_top" xlink:title=" ">
<polygon fill="white" stroke="#666666" points="197.5,-217 96.5,-217 96.5,-198 197.5,-198 197.5,-217"/>
<text text-anchor="middle" x="147" y="-205" font-family="Helvetica,sans-Serif" font-size="10.00">AR2FeatureCoordT</text>
</a>
</g>
</g>
<!-- Node6&#45;&gt;Node5 -->
<g id="edge5" class="edge">
<title>Node6&#45;&gt;Node5</title>
<path fill="none" stroke="#9a32cd" stroke-dasharray="5,2" d="M147,-186.18C147,-174.44 147,-160.27 147,-151.32"/>
<polygon fill="#9a32cd" stroke="#9a32cd" points="143.5,-186.09 147,-196.09 150.5,-186.09 143.5,-186.09"/>
<text text-anchor="middle" x="161" y="-172" font-family="Helvetica,sans-Serif" font-size="10.00"> coord</text>
</g>
<!-- Node7 -->
<g id="node7" class="node">
<title>Node7</title>
<g id="a_node7"><a xlink:href="struct_a_r2_marker_set_t.html" target="_top" xlink:title=" ">
<polygon fill="white" stroke="#666666" points="297.5,-85 210.5,-85 210.5,-66 297.5,-66 297.5,-85"/>
<text text-anchor="middle" x="254" y="-73" font-family="Helvetica,sans-Serif" font-size="10.00">AR2MarkerSetT</text>
</a>
</g>
</g>
<!-- Node7&#45;&gt;Node1 -->
<g id="edge6" class="edge">
<title>Node7&#45;&gt;Node1</title>
<path fill="none" stroke="#9a32cd" stroke-dasharray="5,2" d="M233.3,-59.09C223.44,-52.01 211.34,-43.72 200,-37 189.21,-30.6 176.66,-24.28 166.49,-19.42"/>
<polygon fill="#9a32cd" stroke="#9a32cd" points="230.95,-61.7 241.09,-64.76 235.07,-56.05 230.95,-61.7"/>
<text text-anchor="middle" x="241.5" y="-40" font-family="Helvetica,sans-Serif" font-size="10.00"> markerSet</text>
</g>
<!-- Node8 -->
<g id="node8" class="node">
<title>Node8</title>
<g id="a_node8"><a xlink:href="struct_a_r2_marker_t.html" target="_top" xlink:title=" ">
<polygon fill="white" stroke="#666666" points="290,-151 218,-151 218,-132 290,-132 290,-151"/>
<text text-anchor="middle" x="254" y="-139" font-family="Helvetica,sans-Serif" font-size="10.00">AR2MarkerT</text>
</a>
</g>
</g>
<!-- Node8&#45;&gt;Node7 -->
<g id="edge7" class="edge">
<title>Node8&#45;&gt;Node7</title>
<path fill="none" stroke="#9a32cd" stroke-dasharray="5,2" d="M254,-120.18C254,-108.44 254,-94.27 254,-85.32"/>
<polygon fill="#9a32cd" stroke="#9a32cd" points="250.5,-120.09 254,-130.09 257.5,-120.09 250.5,-120.09"/>
<text text-anchor="middle" x="271" y="-106" font-family="Helvetica,sans-Serif" font-size="10.00"> marker</text>
</g>
</g>
</svg>
