<?xml version="1.0" encoding="UTF-8" standalone="no"?>
<!DOCTYPE svg PUBLIC "-//W3C//DTD SVG 1.1//EN"
 "http://www.w3.org/Graphics/SVG/1.1/DTD/svg11.dtd">
<!-- Generated by graphviz version 2.40.1 (20161225.0304)
 -->
<!-- Title: ARParamLT Pages: 1 -->
<svg width="158pt" height="92pt"
 viewBox="0.00 0.00 158.20 92.00" xmlns="http://www.w3.org/2000/svg" xmlns:xlink="http://www.w3.org/1999/xlink">
<g id="graph0" class="graph" transform="scale(1 1) rotate(0) translate(4 88)">
<title>ARParamLT</title>
<polygon fill="#ffffff" stroke="transparent" points="-4,4 -4,-88 154.2002,-88 154.2002,4 -4,4"/>
<!-- Node1 -->
<g id="node1" class="node">
<title>Node1</title>
<polygon fill="#bfbfbf" stroke="#000000" points="43.3892,-.5 43.3892,-18.5 113.6665,-18.5 113.6665,-.5 43.3892,-.5"/>
<text text-anchor="middle" x="78.5278" y="-6.5" font-family="Helvetica,sans-Serif" font-size="10.00" fill="#000000">ARParamLT</text>
</g>
<!-- Node2 -->
<g id="node2" class="node">
<title>Node2</title>
<g id="a_node2"><a xlink:href="struct_a_r_param_l_tf.html" target="_top" xlink:title="Structure holding camera parameters, in lookup table form; floating point version. ">
<polygon fill="#ffffff" stroke="#000000" points="0,-65.5 0,-83.5 73.0557,-83.5 73.0557,-65.5 0,-65.5"/>
<text text-anchor="middle" x="36.5278" y="-71.5" font-family="Helvetica,sans-Serif" font-size="10.00" fill="#000000">ARParamLTf</text>
</a>
</g>
</g>
<!-- Node2&#45;&gt;Node1 -->
<g id="edge1" class="edge">
<title>Node2&#45;&gt;Node1</title>
<path fill="none" stroke="#9a32cd" stroke-dasharray="5,2" d="M43.7187,-55.8583C46.4615,-49.6439 49.8619,-42.8247 53.6938,-37 58.078,-30.336 64.0415,-23.6757 69.0258,-18.579"/>
<polygon fill="#9a32cd" stroke="#9a32cd" points="40.3348,-54.8839 39.7636,-65.4634 46.8076,-57.5493 40.3348,-54.8839"/>
<text text-anchor="middle" x="75.9448" y="-39" font-family="Helvetica,sans-Serif" font-size="10.00" fill="#000000"> paramLTf</text>
</g>
<!-- Node3 -->
<g id="node3" class="node">
<title>Node3</title>
<g id="a_node3"><a xlink:href="struct_a_r_param.html" target="_top" xlink:title="Structure holding camera parameters, including image size, projection matrix and lens distortion para...">
<polygon fill="#ffffff" stroke="#000000" points="90.8555,-65.5 90.8555,-83.5 150.2002,-83.5 150.2002,-65.5 90.8555,-65.5"/>
<text text-anchor="middle" x="120.5278" y="-71.5" font-family="Helvetica,sans-Serif" font-size="10.00" fill="#000000">ARParam</text>
</a>
</g>
</g>
<!-- Node3&#45;&gt;Node1 -->
<g id="edge2" class="edge">
<title>Node3&#45;&gt;Node1</title>
<path fill="none" stroke="#9a32cd" stroke-dasharray="5,2" d="M110.41,-56.4344C106.7905,-50.1967 102.5977,-43.2164 98.5278,-37 94.3888,-30.678 89.3888,-23.803 85.4236,-18.5085"/>
<polygon fill="#9a32cd" stroke="#9a32cd" points="107.5326,-58.4542 115.5257,-65.4085 113.614,-54.9876 107.5326,-58.4542"/>
<text text-anchor="middle" x="119.0894" y="-39" font-family="Helvetica,sans-Serif" font-size="10.00" fill="#000000"> param</text>
</g>
</g>
</svg>
