<?xml version="1.0" encoding="UTF-8" standalone="no"?>
<!DOCTYPE svg PUBLIC "-//W3C//DTD SVG 1.1//EN"
 "http://www.w3.org/Graphics/SVG/1.1/DTD/svg11.dtd">
<!-- Generated by graphviz version 8.0.5 (20230430.1635)
 -->
<!-- Title: AR2VideoParamDummyT Pages: 1 -->
<svg width="137pt" height="160pt"
 viewBox="0.00 0.00 137.25 160.25" xmlns="http://www.w3.org/2000/svg" xmlns:xlink="http://www.w3.org/1999/xlink">
<g id="graph0" class="graph" transform="scale(1 1) rotate(0) translate(4 156.25)">
<title>AR2VideoParamDummyT</title>
<!-- Node1 -->
<g id="node1" class="node">
<title>Node1</title>
<g id="a_node1"><a xlink:title=" ">
<polygon fill="#999999" stroke="#666666" points="129.25,-19.25 0,-19.25 0,0 129.25,0 129.25,-19.25"/>
<text text-anchor="middle" x="64.62" y="-5.75" font-family="Helvetica,sans-Serif" font-size="10.00">AR2VideoParamDummyT</text>
</a>
</g>
</g>
<!-- Node2 -->
<g id="node2" class="node">
<title>Node2</title>
<g id="a_node2"><a xlink:href="struct_a_r2_video_buffer_t.html" target="_top" xlink:title="A structure which carries information about a video frame retrieved by the video library.">
<polygon fill="white" stroke="#666666" points="110.88,-85.75 18.38,-85.75 18.38,-66.5 110.88,-66.5 110.88,-85.75"/>
<text text-anchor="middle" x="64.62" y="-72.25" font-family="Helvetica,sans-Serif" font-size="10.00">AR2VideoBufferT</text>
</a>
</g>
</g>
<!-- Node2&#45;&gt;Node1 -->
<g id="edge1" class="edge">
<title>Node2&#45;&gt;Node1</title>
<path fill="none" stroke="#9a32cd" stroke-dasharray="5,2" d="M64.62,-55.4C64.62,-43.43 64.62,-28.73 64.62,-19.52"/>
<polygon fill="#9a32cd" stroke="#9a32cd" points="61.13,-55.16 64.62,-65.16 68.13,-55.16 61.13,-55.16"/>
<text text-anchor="middle" x="78.5" y="-39" font-family="Helvetica,sans-Serif" font-size="10.00"> buffer</text>
</g>
<!-- Node3 -->
<g id="node3" class="node">
<title>Node3</title>
<g id="a_node3"><a xlink:href="struct_a_r2_video_timestamp_t.html" target="_top" xlink:title="A structure to hold a timestamp in seconds and microseconds, with arbitrary epoch.">
<polygon fill="white" stroke="#666666" points="122.12,-152.25 7.12,-152.25 7.12,-133 122.12,-133 122.12,-152.25"/>
<text text-anchor="middle" x="64.62" y="-138.75" font-family="Helvetica,sans-Serif" font-size="10.00">AR2VideoTimestampT</text>
</a>
</g>
</g>
<!-- Node3&#45;&gt;Node2 -->
<g id="edge2" class="edge">
<title>Node3&#45;&gt;Node2</title>
<path fill="none" stroke="#9a32cd" stroke-dasharray="5,2" d="M64.62,-121.9C64.62,-109.93 64.62,-95.23 64.62,-86.02"/>
<polygon fill="#9a32cd" stroke="#9a32cd" points="61.13,-121.66 64.62,-131.66 68.13,-121.66 61.13,-121.66"/>
<text text-anchor="middle" x="75.5" y="-105.5" font-family="Helvetica,sans-Serif" font-size="10.00"> time</text>
</g>
</g>
</svg>
