<?xml version="1.0" encoding="UTF-8" standalone="no"?>
<!DOCTYPE svg PUBLIC "-//W3C//DTD SVG 1.1//EN"
 "http://www.w3.org/Graphics/SVG/1.1/DTD/svg11.dtd">
<!-- Generated by graphviz version 7.0.5 (20221223.1930)
 -->
<!-- Title: _AR2HandleT Pages: 1 -->
<!--zoomable 379 -->
<svg id="main" version="1.1" xmlns="http://www.w3.org/2000/svg" xmlns:xlink="http://www.w3.org/1999/xlink" xml:space="preserve" onload="init(evt)">
<style type="text/css"><![CDATA[
.edge:hover path { stroke: red; }
.edge:hover polygon { stroke: red; fill: red; }
]]></style>
<script type="text/javascript"><![CDATA[
var edges = document.getElementsByTagName('g');
if (edges && edges.length) {
  for (var i=0;i<edges.length;i++) {
    if (edges[i].id.substr(0,4)=='edge') {
      edges[i].setAttribute('class','edge');
    }
  }
}
]]></script>
        <defs>
                <circle id="rim" cx="0" cy="0" r="7"/>
                <circle id="rim2" cx="0" cy="0" r="3.5"/>
                <g id="zoomPlus">
                        <use xlink:href="#rim" fill="#404040">
                                <set attributeName="fill" to="#808080" begin="zoomplus.mouseover" end="zoomplus.mouseout"/>
                        </use>
                        <path d="M-4,0h8M0,-4v8" fill="none" stroke="white" stroke-width="1.5" pointer-events="none"/>
                </g>
                <g id="zoomMin">
                        <use xlink:href="#rim" fill="#404040">
                                <set attributeName="fill" to="#808080" begin="zoomminus.mouseover" end="zoomminus.mouseout"/>
                        </use>
                        <path d="M-4,0h8" fill="none" stroke="white" stroke-width="1.5" pointer-events="none"/>
                </g>
                <g id="dirArrow">
                        <path fill="none" stroke="white" stroke-width="1.5" d="M0,-3.0v7 M-2.5,-0.5L0,-3.0L2.5,-0.5"/>
                </g>
               <g id="resetDef">
                       <use xlink:href="#rim2" fill="#404040">
                               <set attributeName="fill" to="#808080" begin="reset.mouseover" end="reset.mouseout"/>
                       </use>
               </g>
        </defs>

<script type="text/javascript">
var viewWidth = 828;
var viewHeight = 379;
var sectionId = 'dynsection-0';
</script>
<script xlink:href="svgpan.js"/>
<svg id="graph" class="graph">
<g id="viewport">
<title>_AR2HandleT</title>
<!-- Node1 -->
<g id="node1" class="node">
<title>Node1</title>
<g id="a_node1"><a xlink:title=" ">
<polygon fill="#999999" stroke="#666666" points="316.5,-85 238.5,-85 238.5,-66 316.5,-66 316.5,-85"/>
<text text-anchor="middle" x="277.5" y="-73" font-family="Helvetica,sans-Serif" font-size="10.00">_AR2HandleT</text>
</a>
</g>
</g>
<!-- Node7 -->
<g id="node7" class="node">
<title>Node7</title>
<g id="a_node7"><a xlink:href="struct___a_r2_tracking2_d_param_t.html" target="_top" xlink:title=" ">
<polygon fill="white" stroke="#666666" points="542.5,-19 416.5,-19 416.5,0 542.5,0 542.5,-19"/>
<text text-anchor="middle" x="479.5" y="-7" font-family="Helvetica,sans-Serif" font-size="10.00">_AR2Tracking2DParamT</text>
</a>
</g>
</g>
<!-- Node1&#45;&gt;Node7 -->
<g id="edge7" class="edge">
<title>Node1&#45;&gt;Node7</title>
<path fill="none" stroke="#9a32cd" stroke-dasharray="5,2" d="M288.63,-56.57C294.04,-49.35 301.18,-41.65 309.5,-37 327.56,-26.91 375.84,-19.98 416.35,-15.75"/>
<polygon fill="#9a32cd" stroke="#9a32cd" points="285.95,-54.29 283.23,-64.53 291.74,-58.22 285.95,-54.29"/>
<text text-anchor="middle" x="333.5" y="-40" font-family="Helvetica,sans-Serif" font-size="10.00"> ar2Handle</text>
</g>
<!-- Node2 -->
<g id="node2" class="node">
<title>Node2</title>
<g id="a_node2"><a xlink:href="struct_a_r_param_l_t.html" target="_top" xlink:title="Structure holding camera parameters, in lookup table form.">
<polygon fill="white" stroke="#666666" points="107,-173 36,-173 36,-154 107,-154 107,-173"/>
<text text-anchor="middle" x="71.5" y="-161" font-family="Helvetica,sans-Serif" font-size="10.00">ARParamLT</text>
</a>
</g>
</g>
<!-- Node2&#45;&gt;Node1 -->
<g id="edge1" class="edge">
<title>Node2&#45;&gt;Node1</title>
<path fill="none" stroke="#9a32cd" stroke-dasharray="5,2" d="M84.88,-144.6C96.06,-130.98 113.25,-112.94 132.5,-103 165.58,-85.91 207.9,-79.69 238.27,-77.5"/>
<polygon fill="#9a32cd" stroke="#9a32cd" points="82.2,-142.34 78.78,-152.37 87.71,-146.66 82.2,-142.34"/>
<text text-anchor="middle" x="156" y="-117" font-family="Helvetica,sans-Serif" font-size="10.00"> cparamLT</text>
</g>
<!-- Node3 -->
<g id="node3" class="node">
<title>Node3</title>
<g id="a_node3"><a xlink:href="struct_a_r_param.html" target="_top" xlink:title="Structure holding camera parameters, including image size, projection matrix and lens distortion para...">
<polygon fill="white" stroke="#666666" points="59,-239 0,-239 0,-220 59,-220 59,-239"/>
<text text-anchor="middle" x="29.5" y="-227" font-family="Helvetica,sans-Serif" font-size="10.00">ARParam</text>
</a>
</g>
</g>
<!-- Node3&#45;&gt;Node2 -->
<g id="edge2" class="edge">
<title>Node3&#45;&gt;Node2</title>
<path fill="none" stroke="#9a32cd" stroke-dasharray="5,2" d="M41.62,-210.03C49.54,-197.96 59.52,-182.75 65.71,-173.32"/>
<polygon fill="#9a32cd" stroke="#9a32cd" points="38.73,-208.05 36.17,-218.34 44.58,-211.9 38.73,-208.05"/>
<text text-anchor="middle" x="69" y="-194" font-family="Helvetica,sans-Serif" font-size="10.00"> param</text>
</g>
<!-- Node4 -->
<g id="node4" class="node">
<title>Node4</title>
<g id="a_node4"><a xlink:href="struct_a_r_param_l_tf.html" target="_top" xlink:title="Structure holding camera parameters, in lookup table form; floating point version.">
<polygon fill="white" stroke="#666666" points="151.5,-239 77.5,-239 77.5,-220 151.5,-220 151.5,-239"/>
<text text-anchor="middle" x="114.5" y="-227" font-family="Helvetica,sans-Serif" font-size="10.00">ARParamLTf</text>
</a>
</g>
</g>
<!-- Node4&#45;&gt;Node2 -->
<g id="edge3" class="edge">
<title>Node4&#45;&gt;Node2</title>
<path fill="none" stroke="#9a32cd" stroke-dasharray="5,2" d="M102.34,-210.4C94.19,-198.27 83.83,-182.84 77.43,-173.32"/>
<polygon fill="#9a32cd" stroke="#9a32cd" points="99.19,-212 107.68,-218.34 105.01,-208.09 99.19,-212"/>
<text text-anchor="middle" x="119" y="-194" font-family="Helvetica,sans-Serif" font-size="10.00"> paramLTf</text>
</g>
<!-- Node5 -->
<g id="node5" class="node">
<title>Node5</title>
<g id="a_node5"><a xlink:href="struct_i_c_p_handle_t.html" target="_top" xlink:title=" ">
<polygon fill="white" stroke="#666666" points="196,-173 125,-173 125,-154 196,-154 196,-173"/>
<text text-anchor="middle" x="160.5" y="-161" font-family="Helvetica,sans-Serif" font-size="10.00">ICPHandleT</text>
</a>
</g>
</g>
<!-- Node5&#45;&gt;Node1 -->
<g id="edge4" class="edge">
<title>Node5&#45;&gt;Node1</title>
<path fill="none" stroke="#9a32cd" stroke-dasharray="5,2" d="M174.44,-144.98C185.38,-132.11 201.54,-114.86 218.5,-103 228.81,-95.79 241.39,-89.82 252.28,-85.38"/>
<polygon fill="#9a32cd" stroke="#9a32cd" points="171.79,-142.7 168.14,-152.65 177.19,-147.15 171.79,-142.7"/>
<text text-anchor="middle" x="242" y="-117" font-family="Helvetica,sans-Serif" font-size="10.00"> icpHandle</text>
</g>
<!-- Node6 -->
<g id="node6" class="node">
<title>Node6</title>
<g id="a_node6"><a xlink:href="struct_a_r2_template_candidate_t.html" target="_top" xlink:title=" ">
<polygon fill="white" stroke="#666666" points="486.5,-173 360.5,-173 360.5,-154 486.5,-154 486.5,-173"/>
<text text-anchor="middle" x="423.5" y="-161" font-family="Helvetica,sans-Serif" font-size="10.00">AR2TemplateCandidateT</text>
</a>
</g>
</g>
<!-- Node6&#45;&gt;Node1 -->
<g id="edge5" class="edge">
<title>Node6&#45;&gt;Node1</title>
<path fill="none" stroke="#9a32cd" stroke-dasharray="5,2" d="M378.6,-149.37C370.44,-145.8 362.35,-141.39 355.5,-136 341.45,-124.94 346.11,-114.59 332.5,-103 323.79,-95.58 312.64,-89.7 302.66,-85.39"/>
<polygon fill="#9a32cd" stroke="#9a32cd" points="377.27,-152.61 387.86,-153.02 379.84,-146.1 377.27,-152.61"/>
<text text-anchor="middle" x="383" y="-128" font-family="Helvetica,sans-Serif" font-size="10.00"> candidate</text>
<text text-anchor="middle" x="383" y="-117" font-family="Helvetica,sans-Serif" font-size="10.00">candidate2</text>
<text text-anchor="middle" x="383" y="-106" font-family="Helvetica,sans-Serif" font-size="10.00">usedFeature</text>
</g>
<!-- Node6&#45;&gt;Node7 -->
<g id="edge18" class="edge">
<title>Node6&#45;&gt;Node7</title>
<path fill="none" stroke="#9a32cd" stroke-dasharray="5,2" d="M422.57,-142.14C422.39,-122.01 424.11,-90.74 434.5,-66 442.47,-47.01 459.02,-29.31 469.68,-19.22"/>
<polygon fill="#9a32cd" stroke="#9a32cd" points="419.07,-142.16 422.85,-152.06 426.07,-141.96 419.07,-142.16"/>
<text text-anchor="middle" x="457.5" y="-73" font-family="Helvetica,sans-Serif" font-size="10.00"> candidate</text>
</g>
<!-- Node8 -->
<g id="node8" class="node">
<title>Node8</title>
<g id="a_node8"><a xlink:href="struct_a_r2_surface_set_t.html" target="_top" xlink:title=" ">
<polygon fill="white" stroke="#666666" points="580,-85 489,-85 489,-66 580,-66 580,-85"/>
<text text-anchor="middle" x="534.5" y="-73" font-family="Helvetica,sans-Serif" font-size="10.00">AR2SurfaceSetT</text>
</a>
</g>
</g>
<!-- Node6&#45;&gt;Node8 -->
<g id="edge17" class="edge">
<title>Node6&#45;&gt;Node8</title>
<path fill="none" stroke="#9a32cd" stroke-dasharray="5,2" d="M436.29,-144.99C446.38,-132.11 461.39,-114.86 477.5,-103 487.26,-95.82 499.27,-89.88 509.75,-85.46"/>
<polygon fill="#9a32cd" stroke="#9a32cd" points="433.77,-142.53 430.52,-152.61 439.35,-146.75 433.77,-142.53"/>
<text text-anchor="middle" x="505" y="-117" font-family="Helvetica,sans-Serif" font-size="10.00"> prevFeature</text>
</g>
<!-- Node7&#45;&gt;Node1 -->
<g id="edge6" class="edge">
<title>Node7&#45;&gt;Node1</title>
<path fill="none" stroke="#9a32cd" stroke-dasharray="5,2" d="M439.39,-22.73C424.91,-27.18 408.46,-32.28 393.5,-37 363.02,-46.62 328.14,-57.94 304.65,-65.6"/>
<polygon fill="#9a32cd" stroke="#9a32cd" points="440.03,-26.2 448.57,-19.92 437.98,-19.51 440.03,-26.2"/>
<text text-anchor="middle" x="402" y="-40" font-family="Helvetica,sans-Serif" font-size="10.00"> arg</text>
</g>
<!-- Node8&#45;&gt;Node7 -->
<g id="edge8" class="edge">
<title>Node8&#45;&gt;Node7</title>
<path fill="none" stroke="#9a32cd" stroke-dasharray="5,2" d="M519.56,-57.12C509.05,-44.89 495.43,-29.04 487.08,-19.32"/>
<polygon fill="#9a32cd" stroke="#9a32cd" points="516.69,-59.15 525.87,-64.45 522,-54.59 516.69,-59.15"/>
<text text-anchor="middle" x="535" y="-40" font-family="Helvetica,sans-Serif" font-size="10.00"> surfaceSet</text>
</g>
<!-- Node9 -->
<g id="node9" class="node">
<title>Node9</title>
<g id="a_node9"><a xlink:href="struct_a_r2_surface_t.html" target="_top" xlink:title=" ">
<polygon fill="white" stroke="#666666" points="580.5,-173 504.5,-173 504.5,-154 580.5,-154 580.5,-173"/>
<text text-anchor="middle" x="542.5" y="-161" font-family="Helvetica,sans-Serif" font-size="10.00">AR2SurfaceT</text>
</a>
</g>
</g>
<!-- Node9&#45;&gt;Node8 -->
<g id="edge9" class="edge">
<title>Node9&#45;&gt;Node8</title>
<path fill="none" stroke="#9a32cd" stroke-dasharray="5,2" d="M540.63,-142.37C538.95,-124.37 536.58,-98.83 535.33,-85.46"/>
<polygon fill="#9a32cd" stroke="#9a32cd" points="537.12,-142.48 541.53,-152.11 544.09,-141.83 537.12,-142.48"/>
<text text-anchor="middle" x="557.5" y="-117" font-family="Helvetica,sans-Serif" font-size="10.00"> surface</text>
</g>
<!-- Node10 -->
<g id="node10" class="node">
<title>Node10</title>
<g id="a_node10"><a xlink:href="struct_a_r2_image_set_t.html" target="_top" xlink:title=" ">
<polygon fill="white" stroke="#666666" points="479.5,-239 395.5,-239 395.5,-220 479.5,-220 479.5,-239"/>
<text text-anchor="middle" x="437.5" y="-227" font-family="Helvetica,sans-Serif" font-size="10.00">AR2ImageSetT</text>
</a>
</g>
</g>
<!-- Node10&#45;&gt;Node9 -->
<g id="edge10" class="edge">
<title>Node10&#45;&gt;Node9</title>
<path fill="none" stroke="#9a32cd" stroke-dasharray="5,2" d="M459.53,-213.05C469.73,-206.08 482.08,-197.89 493.5,-191 503.77,-184.8 515.59,-178.39 525.04,-173.43"/>
<polygon fill="#9a32cd" stroke="#9a32cd" points="457.66,-210.09 451.42,-218.65 461.64,-215.85 457.66,-210.09"/>
<text text-anchor="middle" x="516" y="-194" font-family="Helvetica,sans-Serif" font-size="10.00"> imageSet</text>
</g>
<!-- Node11 -->
<g id="node11" class="node">
<title>Node11</title>
<g id="a_node11"><a xlink:href="struct_a_r2_image_t.html" target="_top" xlink:title=" ">
<polygon fill="white" stroke="#666666" points="472,-305 403,-305 403,-286 472,-286 472,-305"/>
<text text-anchor="middle" x="437.5" y="-293" font-family="Helvetica,sans-Serif" font-size="10.00">AR2ImageT</text>
</a>
</g>
</g>
<!-- Node11&#45;&gt;Node10 -->
<g id="edge11" class="edge">
<title>Node11&#45;&gt;Node10</title>
<path fill="none" stroke="#9a32cd" stroke-dasharray="5,2" d="M437.5,-274.18C437.5,-262.44 437.5,-248.27 437.5,-239.32"/>
<polygon fill="#9a32cd" stroke="#9a32cd" points="434,-274.09 437.5,-284.09 441,-274.09 434,-274.09"/>
<text text-anchor="middle" x="451" y="-260" font-family="Helvetica,sans-Serif" font-size="10.00"> scale</text>
</g>
<!-- Node12 -->
<g id="node12" class="node">
<title>Node12</title>
<g id="a_node12"><a xlink:href="struct_a_r2_feature_set_t.html" target="_top" xlink:title=" ">
<polygon fill="white" stroke="#666666" points="587.5,-239 497.5,-239 497.5,-220 587.5,-220 587.5,-239"/>
<text text-anchor="middle" x="542.5" y="-227" font-family="Helvetica,sans-Serif" font-size="10.00">AR2FeatureSetT</text>
</a>
</g>
</g>
<!-- Node12&#45;&gt;Node9 -->
<g id="edge12" class="edge">
<title>Node12&#45;&gt;Node9</title>
<path fill="none" stroke="#9a32cd" stroke-dasharray="5,2" d="M542.5,-208.18C542.5,-196.44 542.5,-182.27 542.5,-173.32"/>
<polygon fill="#9a32cd" stroke="#9a32cd" points="539,-208.09 542.5,-218.09 546,-208.09 539,-208.09"/>
<text text-anchor="middle" x="567" y="-194" font-family="Helvetica,sans-Serif" font-size="10.00"> featureSet</text>
</g>
<!-- Node13 -->
<g id="node13" class="node">
<title>Node13</title>
<g id="a_node13"><a xlink:href="struct_a_r2_feature_points_t.html" target="_top" xlink:title=" ">
<polygon fill="white" stroke="#666666" points="594,-305 491,-305 491,-286 594,-286 594,-305"/>
<text text-anchor="middle" x="542.5" y="-293" font-family="Helvetica,sans-Serif" font-size="10.00">AR2FeaturePointsT</text>
</a>
</g>
</g>
<!-- Node13&#45;&gt;Node12 -->
<g id="edge13" class="edge">
<title>Node13&#45;&gt;Node12</title>
<path fill="none" stroke="#9a32cd" stroke-dasharray="5,2" d="M542.5,-274.18C542.5,-262.44 542.5,-248.27 542.5,-239.32"/>
<polygon fill="#9a32cd" stroke="#9a32cd" points="539,-274.09 542.5,-284.09 546,-274.09 539,-274.09"/>
<text text-anchor="middle" x="550.5" y="-260" font-family="Helvetica,sans-Serif" font-size="10.00"> list</text>
</g>
<!-- Node14 -->
<g id="node14" class="node">
<title>Node14</title>
<g id="a_node14"><a xlink:href="struct_a_r2_feature_coord_t.html" target="_top" xlink:title=" ">
<polygon fill="white" stroke="#666666" points="593,-371 492,-371 492,-352 593,-352 593,-371"/>
<text text-anchor="middle" x="542.5" y="-359" font-family="Helvetica,sans-Serif" font-size="10.00">AR2FeatureCoordT</text>
</a>
</g>
</g>
<!-- Node14&#45;&gt;Node13 -->
<g id="edge14" class="edge">
<title>Node14&#45;&gt;Node13</title>
<path fill="none" stroke="#9a32cd" stroke-dasharray="5,2" d="M542.5,-340.18C542.5,-328.44 542.5,-314.27 542.5,-305.32"/>
<polygon fill="#9a32cd" stroke="#9a32cd" points="539,-340.09 542.5,-350.09 546,-340.09 539,-340.09"/>
<text text-anchor="middle" x="556.5" y="-326" font-family="Helvetica,sans-Serif" font-size="10.00"> coord</text>
</g>
<!-- Node15 -->
<g id="node15" class="node">
<title>Node15</title>
<g id="a_node15"><a xlink:href="struct_a_r2_marker_set_t.html" target="_top" xlink:title=" ">
<polygon fill="white" stroke="#666666" points="693,-239 606,-239 606,-220 693,-220 693,-239"/>
<text text-anchor="middle" x="649.5" y="-227" font-family="Helvetica,sans-Serif" font-size="10.00">AR2MarkerSetT</text>
</a>
</g>
</g>
<!-- Node15&#45;&gt;Node9 -->
<g id="edge15" class="edge">
<title>Node15&#45;&gt;Node9</title>
<path fill="none" stroke="#9a32cd" stroke-dasharray="5,2" d="M628.8,-213.09C618.94,-206.01 606.84,-197.72 595.5,-191 584.71,-184.6 572.16,-178.28 561.99,-173.42"/>
<polygon fill="#9a32cd" stroke="#9a32cd" points="626.45,-215.7 636.59,-218.76 630.57,-210.05 626.45,-215.7"/>
<text text-anchor="middle" x="636" y="-194" font-family="Helvetica,sans-Serif" font-size="10.00"> markerSet</text>
</g>
<!-- Node16 -->
<g id="node16" class="node">
<title>Node16</title>
<g id="a_node16"><a xlink:href="struct_a_r2_marker_t.html" target="_top" xlink:title=" ">
<polygon fill="white" stroke="#666666" points="685.5,-305 613.5,-305 613.5,-286 685.5,-286 685.5,-305"/>
<text text-anchor="middle" x="649.5" y="-293" font-family="Helvetica,sans-Serif" font-size="10.00">AR2MarkerT</text>
</a>
</g>
</g>
<!-- Node16&#45;&gt;Node15 -->
<g id="edge16" class="edge">
<title>Node16&#45;&gt;Node15</title>
<path fill="none" stroke="#9a32cd" stroke-dasharray="5,2" d="M649.5,-274.18C649.5,-262.44 649.5,-248.27 649.5,-239.32"/>
<polygon fill="#9a32cd" stroke="#9a32cd" points="646,-274.09 649.5,-284.09 653,-274.09 646,-274.09"/>
<text text-anchor="middle" x="666.5" y="-260" font-family="Helvetica,sans-Serif" font-size="10.00"> marker</text>
</g>
<!-- Node17 -->
<g id="node17" class="node">
<title>Node17</title>
<g id="a_node17"><a xlink:href="struct_a_r2_template_t.html" target="_top" xlink:title=" ">
<polygon fill="white" stroke="#666666" points="680.5,-85 598.5,-85 598.5,-66 680.5,-66 680.5,-85"/>
<text text-anchor="middle" x="639.5" y="-73" font-family="Helvetica,sans-Serif" font-size="10.00">AR2TemplateT</text>
</a>
</g>
</g>
<!-- Node17&#45;&gt;Node7 -->
<g id="edge19" class="edge">
<title>Node17&#45;&gt;Node7</title>
<path fill="none" stroke="#9a32cd" stroke-dasharray="5,2" d="M613.43,-60.16C599.22,-52.68 581.18,-43.72 564.5,-37 547.72,-30.24 528.53,-24.13 512.63,-19.48"/>
<polygon fill="#9a32cd" stroke="#9a32cd" points="611.66,-63.19 622.13,-64.82 614.96,-57.01 611.66,-63.19"/>
<text text-anchor="middle" x="601.5" y="-40" font-family="Helvetica,sans-Serif" font-size="10.00"> templ</text>
</g>
<!-- Node18 -->
<g id="node18" class="node">
<title>Node18</title>
<g id="a_node18"><a xlink:href="struct_a_r2_tracking2_d_result_t.html" target="_top" xlink:title=" ">
<polygon fill="white" stroke="#666666" points="820,-85 699,-85 699,-66 820,-66 820,-85"/>
<text text-anchor="middle" x="759.5" y="-73" font-family="Helvetica,sans-Serif" font-size="10.00">AR2Tracking2DResultT</text>
</a>
</g>
</g>
<!-- Node18&#45;&gt;Node7 -->
<g id="edge20" class="edge">
<title>Node18&#45;&gt;Node7</title>
<path fill="none" stroke="#9a32cd" stroke-dasharray="5,2" d="M717.92,-62.49C690.17,-54.69 652.81,-44.6 619.5,-37 590.68,-30.42 558.26,-24.21 531.88,-19.46"/>
<polygon fill="#9a32cd" stroke="#9a32cd" points="716.77,-65.8 727.35,-65.16 718.68,-59.07 716.77,-65.8"/>
<text text-anchor="middle" x="675.5" y="-40" font-family="Helvetica,sans-Serif" font-size="10.00"> result</text>
</g>
<!-- Node19 -->
<g id="node19" class="node">
<title>Node19</title>
<g id="a_node19"><a xlink:href="struct___t_h_r_e_a_d___h_a_n_d_l_e___t.html" target="_top" xlink:title=" ">
<polygon fill="white" stroke="#666666" points="336.5,-173 214.5,-173 214.5,-154 336.5,-154 336.5,-173"/>
<text text-anchor="middle" x="275.5" y="-161" font-family="Helvetica,sans-Serif" font-size="10.00">_THREAD_HANDLE_T</text>
</a>
</g>
</g>
<!-- Node19&#45;&gt;Node1 -->
<g id="edge21" class="edge">
<title>Node19&#45;&gt;Node1</title>
<path fill="none" stroke="#9a32cd" stroke-dasharray="5,2" d="M272.16,-142.57C271.89,-140.36 271.66,-138.13 271.5,-136 270.4,-121.37 269.87,-117.58 271.5,-103 272.17,-97 273.67,-90.37 275,-85.25"/>
<polygon fill="#9a32cd" stroke="#9a32cd" points="268.67,-142.84 273.61,-152.21 275.59,-141.8 268.67,-142.84"/>
<text text-anchor="middle" x="302" y="-117" font-family="Helvetica,sans-Serif" font-size="10.00"> threadHandle</text>
</g>
</g>
</svg>
        <g id="navigator" transform="translate(0 0)" fill="#404254">
                <rect fill="#f2f5e9" fill-opacity="0.5" stroke="#606060" stroke-width=".5" x="0" y="0" width="60" height="60"/>
                <use id="zoomplus" xlink:href="#zoomPlus" x="17" y="9" onmousedown="handleZoom(evt,'in')"/>
                <use id="zoomminus" xlink:href="#zoomMin" x="42" y="9" onmousedown="handleZoom(evt,'out')"/>
                <use id="reset" xlink:href="#resetDef" x="30" y="36" onmousedown="handleReset()"/>
                <g id="arrowUp" xlink:href="#dirArrow" transform="translate(30 24)" onmousedown="handlePan(0,-1)">
                  <use xlink:href="#rim" fill="#404040">
                        <set attributeName="fill" to="#808080" begin="arrowUp.mouseover" end="arrowUp.mouseout"/>
                  </use>
                  <path fill="none" stroke="white" stroke-width="1.5" d="M0,-3.0v7 M-2.5,-0.5L0,-3.0L2.5,-0.5"/>
                </g>
                <g id="arrowRight" xlink:href="#dirArrow" transform="rotate(90) translate(36 -43)" onmousedown="handlePan(1,0)">
                  <use xlink:href="#rim" fill="#404040">
                        <set attributeName="fill" to="#808080" begin="arrowRight.mouseover" end="arrowRight.mouseout"/>
                  </use>
                  <path fill="none" stroke="white" stroke-width="1.5" d="M0,-3.0v7 M-2.5,-0.5L0,-3.0L2.5,-0.5"/>
                </g>
                <g id="arrowDown" xlink:href="#dirArrow" transform="rotate(180) translate(-30 -48)" onmousedown="handlePan(0,1)">
                  <use xlink:href="#rim" fill="#404040">
                        <set attributeName="fill" to="#808080" begin="arrowDown.mouseover" end="arrowDown.mouseout"/>
                  </use>
                  <path fill="none" stroke="white" stroke-width="1.5" d="M0,-3.0v7 M-2.5,-0.5L0,-3.0L2.5,-0.5"/>
                </g>
                <g id="arrowLeft" xlink:href="#dirArrow" transform="rotate(270) translate(-36 17)" onmousedown="handlePan(-1,0)">
                  <use xlink:href="#rim" fill="#404040">
                        <set attributeName="fill" to="#808080" begin="arrowLeft.mouseover" end="arrowLeft.mouseout"/>
                  </use>
                  <path fill="none" stroke="white" stroke-width="1.5" d="M0,-3.0v7 M-2.5,-0.5L0,-3.0L2.5,-0.5"/>
                </g>
        </g>
        <svg viewBox="0 0 15 15" width="100%" height="30px" preserveAspectRatio="xMaxYMin meet">
         <g id="arrow_out" transform="scale(0.3 0.3)">
          <a xlink:href="struct___a_r2_handle_t__coll__graph_org.svg" target="_base">
           <rect id="button" ry="5" rx="5" y="6" x="6" height="38" width="38"
                fill="#f2f5e9" fill-opacity="0.5" stroke="#606060" stroke-width="1.0"/>
           <path id="arrow"
             d="M 11.500037,31.436501 C 11.940474,20.09759 22.043105,11.32322 32.158766,21.979434 L 37.068811,17.246167 C 37.068811,17.246167 37.088388,32 37.088388,32 L 22.160133,31.978069 C 22.160133,31.978069 26.997745,27.140456 26.997745,27.140456 C 18.528582,18.264221 13.291696,25.230495 11.500037,31.436501 z"
             style="fill:#404040;"/>
          </a>
         </g>
        </svg>
</svg>
