<?xml version="1.0" encoding="UTF-8" standalone="no"?>
<!DOCTYPE svg PUBLIC "-//W3C//DTD SVG 1.1//EN"
 "http://www.w3.org/Graphics/SVG/1.1/DTD/svg11.dtd">
<!-- Generated by graphviz version 2.40.1 (20161225.0304)
 -->
<!-- Title: ICP2DLineSegT Pages: 1 -->
<svg width="96pt" height="102pt"
 viewBox="0.00 0.00 96.26 102.00" xmlns="http://www.w3.org/2000/svg" xmlns:xlink="http://www.w3.org/1999/xlink">
<g id="graph0" class="graph" transform="scale(1 1) rotate(0) translate(4 98)">
<title>ICP2DLineSegT</title>
<polygon fill="#ffffff" stroke="transparent" points="-4,4 -4,-98 92.2607,-98 92.2607,4 -4,4"/>
<!-- Node1 -->
<g id="node1" class="node">
<title>Node1</title>
<polygon fill="#bfbfbf" stroke="#000000" points="0,-.5 0,-18.5 88.2607,-18.5 88.2607,-.5 0,-.5"/>
<text text-anchor="middle" x="44.1304" y="-6.5" font-family="Helvetica,sans-Serif" font-size="10.00" fill="#000000">ICP2DLineSegT</text>
</g>
<!-- Node2 -->
<g id="node2" class="node">
<title>Node2</title>
<g id="a_node2"><a xlink:href="struct_i_c_p2_d_coord_t.html" target="_top" xlink:title="ICP2DCoordT">
<polygon fill="#ffffff" stroke="#000000" points="4.7314,-75.5 4.7314,-93.5 83.5293,-93.5 83.5293,-75.5 4.7314,-75.5"/>
<text text-anchor="middle" x="44.1304" y="-81.5" font-family="Helvetica,sans-Serif" font-size="10.00" fill="#000000">ICP2DCoordT</text>
</a>
</g>
</g>
<!-- Node2&#45;&gt;Node1 -->
<g id="edge1" class="edge">
<title>Node2&#45;&gt;Node1</title>
<path fill="none" stroke="#9a32cd" stroke-dasharray="5,2" d="M44.1304,-65.1079C44.1304,-50.2042 44.1304,-30.2791 44.1304,-18.7717"/>
<polygon fill="#9a32cd" stroke="#9a32cd" points="40.6305,-65.3035 44.1304,-75.3035 47.6305,-65.3036 40.6305,-65.3035"/>
<text text-anchor="middle" x="51.0811" y="-49" font-family="Helvetica,sans-Serif" font-size="10.00" fill="#000000"> p1</text>
<text text-anchor="middle" x="51.0811" y="-39" font-family="Helvetica,sans-Serif" font-size="10.00" fill="#000000">p2</text>
</g>
</g>
</svg>
