<?xml version="1.0" encoding="UTF-8" standalone="no"?>
<!DOCTYPE svg PUBLIC "-//W3C//DTD SVG 1.1//EN"
 "http://www.w3.org/Graphics/SVG/1.1/DTD/svg11.dtd">
<!-- Generated by graphviz version 7.0.5 (20221223.1930)
 -->
<!-- Title: AR2VideoParamDummyT Pages: 1 -->
<svg width="138pt" height="159pt"
 viewBox="0.00 0.00 138.00 159.00" xmlns="http://www.w3.org/2000/svg" xmlns:xlink="http://www.w3.org/1999/xlink">
<g id="graph0" class="graph" transform="scale(1 1) rotate(0) translate(4 155)">
<title>AR2VideoParamDummyT</title>
<!-- Node1 -->
<g id="node1" class="node">
<title>Node1</title>
<g id="a_node1"><a xlink:title=" ">
<polygon fill="#999999" stroke="#666666" points="130,-19 0,-19 0,0 130,0 130,-19"/>
<text text-anchor="middle" x="65" y="-7" font-family="Helvetica,sans-Serif" font-size="10.00">AR2VideoParamDummyT</text>
</a>
</g>
</g>
<!-- Node2 -->
<g id="node2" class="node">
<title>Node2</title>
<g id="a_node2"><a xlink:href="struct_a_r2_video_buffer_t.html" target="_top" xlink:title="A structure which carries information about a video frame retrieved by the video library.">
<polygon fill="white" stroke="#666666" points="111.5,-85 18.5,-85 18.5,-66 111.5,-66 111.5,-85"/>
<text text-anchor="middle" x="65" y="-73" font-family="Helvetica,sans-Serif" font-size="10.00">AR2VideoBufferT</text>
</a>
</g>
</g>
<!-- Node2&#45;&gt;Node1 -->
<g id="edge1" class="edge">
<title>Node2&#45;&gt;Node1</title>
<path fill="none" stroke="#9a32cd" stroke-dasharray="5,2" d="M65,-54.18C65,-42.44 65,-28.27 65,-19.32"/>
<polygon fill="#9a32cd" stroke="#9a32cd" points="61.5,-54.09 65,-64.09 68.5,-54.09 61.5,-54.09"/>
<text text-anchor="middle" x="79" y="-40" font-family="Helvetica,sans-Serif" font-size="10.00"> buffer</text>
</g>
<!-- Node3 -->
<g id="node3" class="node">
<title>Node3</title>
<g id="a_node3"><a xlink:href="struct_a_r2_video_timestamp_t.html" target="_top" xlink:title="A structure to hold a timestamp in seconds and microseconds, with arbitrary epoch.">
<polygon fill="white" stroke="#666666" points="123,-151 7,-151 7,-132 123,-132 123,-151"/>
<text text-anchor="middle" x="65" y="-139" font-family="Helvetica,sans-Serif" font-size="10.00">AR2VideoTimestampT</text>
</a>
</g>
</g>
<!-- Node3&#45;&gt;Node2 -->
<g id="edge2" class="edge">
<title>Node3&#45;&gt;Node2</title>
<path fill="none" stroke="#9a32cd" stroke-dasharray="5,2" d="M65,-120.18C65,-108.44 65,-94.27 65,-85.32"/>
<polygon fill="#9a32cd" stroke="#9a32cd" points="61.5,-120.09 65,-130.09 68.5,-120.09 61.5,-120.09"/>
<text text-anchor="middle" x="76" y="-106" font-family="Helvetica,sans-Serif" font-size="10.00"> time</text>
</g>
</g>
</svg>
