<?xml version="1.0" encoding="UTF-8" standalone="no"?>
<!DOCTYPE svg PUBLIC "-//W3C//DTD SVG 1.1//EN"
 "http://www.w3.org/Graphics/SVG/1.1/DTD/svg11.dtd">
<!-- Generated by graphviz version 7.0.5 (20221223.1930)
 -->
<!-- Title: zip64_internal Pages: 1 -->
<svg width="324pt" height="192pt"
 viewBox="0.00 0.00 324.00 192.00" xmlns="http://www.w3.org/2000/svg" xmlns:xlink="http://www.w3.org/1999/xlink">
<g id="graph0" class="graph" transform="scale(1 1) rotate(0) translate(4 188)">
<title>zip64_internal</title>
<!-- Node1 -->
<g id="node1" class="node">
<title>Node1</title>
<g id="a_node1"><a xlink:title=" ">
<polygon fill="#999999" stroke="#666666" points="211.5,-19 134.5,-19 134.5,0 211.5,0 211.5,-19"/>
<text text-anchor="middle" x="173" y="-7" font-family="Helvetica,sans-Serif" font-size="10.00">zip64_internal</text>
</a>
</g>
</g>
<!-- Node2 -->
<g id="node2" class="node">
<title>Node2</title>
<g id="a_node2"><a xlink:href="structzlib__filefunc64__32__def__s.html" target="_top" xlink:title=" ">
<polygon fill="white" stroke="#666666" points="107.5,-96 12.5,-96 12.5,-66 107.5,-66 107.5,-96"/>
<text text-anchor="start" x="20.5" y="-84" font-family="Helvetica,sans-Serif" font-size="10.00">zlib_filefunc64_32</text>
<text text-anchor="middle" x="60" y="-73" font-family="Helvetica,sans-Serif" font-size="10.00">_def_s</text>
</a>
</g>
</g>
<!-- Node2&#45;&gt;Node1 -->
<g id="edge1" class="edge">
<title>Node2&#45;&gt;Node1</title>
<path fill="none" stroke="#9a32cd" stroke-dasharray="5,2" d="M88.95,-59.25C99.5,-51.95 111.63,-43.86 123,-37 133.43,-30.7 145.49,-24.29 155.15,-19.35"/>
<polygon fill="#9a32cd" stroke="#9a32cd" points="87.2,-56.2 81.01,-64.8 91.21,-61.94 87.2,-56.2"/>
<text text-anchor="middle" x="146" y="-40" font-family="Helvetica,sans-Serif" font-size="10.00"> z_filefunc</text>
</g>
<!-- Node3 -->
<g id="node3" class="node">
<title>Node3</title>
<g id="a_node3"><a xlink:href="structzlib__filefunc64__def__s.html" target="_top" xlink:title=" ">
<polygon fill="white" stroke="#666666" points="108,-178.5 0,-178.5 0,-159.5 108,-159.5 108,-178.5"/>
<text text-anchor="middle" x="54" y="-166.5" font-family="Helvetica,sans-Serif" font-size="10.00">zlib_filefunc64_def_s</text>
</a>
</g>
</g>
<!-- Node3&#45;&gt;Node2 -->
<g id="edge2" class="edge">
<title>Node3&#45;&gt;Node2</title>
<path fill="none" stroke="#9a32cd" stroke-dasharray="5,2" d="M55.4,-147.96C56.5,-132.15 58.01,-110.5 59,-96.38"/>
<polygon fill="#9a32cd" stroke="#9a32cd" points="51.93,-147.39 54.72,-157.61 58.91,-147.88 51.93,-147.39"/>
<text text-anchor="middle" x="86" y="-122.5" font-family="Helvetica,sans-Serif" font-size="10.00"> zfile_func64</text>
</g>
<!-- Node4 -->
<g id="node4" class="node">
<title>Node4</title>
<g id="a_node4"><a xlink:href="structlinkedlist__data__s.html" target="_top" xlink:title=" ">
<polygon fill="white" stroke="#666666" points="217.5,-90.5 128.5,-90.5 128.5,-71.5 217.5,-71.5 217.5,-90.5"/>
<text text-anchor="middle" x="173" y="-78.5" font-family="Helvetica,sans-Serif" font-size="10.00">linkedlist_data_s</text>
</a>
</g>
</g>
<!-- Node4&#45;&gt;Node1 -->
<g id="edge3" class="edge">
<title>Node4&#45;&gt;Node1</title>
<path fill="none" stroke="#9a32cd" stroke-dasharray="5,2" d="M173,-59.8C173,-46.44 173,-29.59 173,-19.45"/>
<polygon fill="#9a32cd" stroke="#9a32cd" points="169.5,-59.68 173,-69.68 176.5,-59.68 169.5,-59.68"/>
<text text-anchor="middle" x="197.5" y="-40" font-family="Helvetica,sans-Serif" font-size="10.00"> central_dir</text>
</g>
<!-- Node5 -->
<g id="node5" class="node">
<title>Node5</title>
<g id="a_node5"><a xlink:href="structlinkedlist__datablock__internal__s.html" target="_top" xlink:title=" ">
<polygon fill="white" stroke="#666666" points="228,-184 126,-184 126,-154 228,-154 228,-184"/>
<text text-anchor="start" x="134" y="-172" font-family="Helvetica,sans-Serif" font-size="10.00">linkedlist_datablock</text>
<text text-anchor="middle" x="177" y="-161" font-family="Helvetica,sans-Serif" font-size="10.00">_internal_s</text>
</a>
</g>
</g>
<!-- Node5&#45;&gt;Node4 -->
<g id="edge4" class="edge">
<title>Node5&#45;&gt;Node4</title>
<path fill="none" stroke="#9a32cd" stroke-dasharray="5,2" d="M175.81,-142.33C174.99,-124.82 173.96,-102.71 173.41,-90.71"/>
<polygon fill="#9a32cd" stroke="#9a32cd" points="172.31,-142.46 176.27,-152.29 179.3,-142.14 172.31,-142.46"/>
<text text-anchor="middle" x="199.5" y="-128" font-family="Helvetica,sans-Serif" font-size="10.00"> first_block</text>
<text text-anchor="middle" x="199.5" y="-117" font-family="Helvetica,sans-Serif" font-size="10.00">last_block</text>
</g>
<!-- Node5&#45;&gt;Node5 -->
<g id="edge5" class="edge">
<title>Node5&#45;&gt;Node5</title>
<path fill="none" stroke="#9a32cd" stroke-dasharray="5,2" d="M239.52,-174.85C243.56,-173.48 246,-171.53 246,-169 246,-164.62 238.7,-161.98 228.46,-161.09"/>
<polygon fill="#9a32cd" stroke="#9a32cd" points="239.14,-171.36 229.94,-176.63 240.42,-178.24 239.14,-171.36"/>
<text text-anchor="middle" x="281" y="-166.5" font-family="Helvetica,sans-Serif" font-size="10.00"> next_datablock</text>
</g>
<!-- Node6 -->
<g id="node6" class="node">
<title>Node6</title>
<g id="a_node6"><a xlink:href="structcurfile64__info.html" target="_top" xlink:title=" ">
<polygon fill="white" stroke="#666666" points="310,-90.5 236,-90.5 236,-71.5 310,-71.5 310,-90.5"/>
<text text-anchor="middle" x="273" y="-78.5" font-family="Helvetica,sans-Serif" font-size="10.00">curfile64_info</text>
</a>
</g>
</g>
<!-- Node6&#45;&gt;Node1 -->
<g id="edge6" class="edge">
<title>Node6&#45;&gt;Node1</title>
<path fill="none" stroke="#9a32cd" stroke-dasharray="5,2" d="M256.93,-63.21C248.26,-54.72 237.09,-44.63 226,-37 216.08,-30.18 204.16,-24.06 194.14,-19.42"/>
<polygon fill="#9a32cd" stroke="#9a32cd" points="254.36,-65.59 263.88,-70.24 259.33,-60.67 254.36,-65.59"/>
<text text-anchor="middle" x="244.5" y="-40" font-family="Helvetica,sans-Serif" font-size="10.00"> ci</text>
</g>
</g>
</svg>
