<?xml version="1.0" encoding="UTF-8" standalone="no"?>
<!DOCTYPE svg PUBLIC "-//W3C//DTD SVG 1.1//EN"
 "http://www.w3.org/Graphics/SVG/1.1/DTD/svg11.dtd">
<!-- Generated by graphviz version 2.40.1 (20161225.0304)
 -->
<!-- Title: AR2VideoParamDummyT Pages: 1 -->
<svg width="139pt" height="157pt"
 viewBox="0.00 0.00 138.86 157.00" xmlns="http://www.w3.org/2000/svg" xmlns:xlink="http://www.w3.org/1999/xlink">
<g id="graph0" class="graph" transform="scale(1 1) rotate(0) translate(4 153)">
<title>AR2VideoParamDummyT</title>
<polygon fill="#ffffff" stroke="transparent" points="-4,4 -4,-153 134.8584,-153 134.8584,4 -4,4"/>
<!-- Node1 -->
<g id="node1" class="node">
<title>Node1</title>
<polygon fill="#bfbfbf" stroke="#000000" points="0,-.5 0,-18.5 130.8584,-18.5 130.8584,-.5 0,-.5"/>
<text text-anchor="middle" x="65.4292" y="-6.5" font-family="Helvetica,sans-Serif" font-size="10.00" fill="#000000">AR2VideoParamDummyT</text>
</g>
<!-- Node2 -->
<g id="node2" class="node">
<title>Node2</title>
<g id="a_node2"><a xlink:href="struct_a_r2_video_buffer_t.html" target="_top" xlink:title="A structure which carries information about a video frame retrieved by the video library. ">
<polygon fill="#ffffff" stroke="#000000" points="18.6963,-65.5 18.6963,-83.5 112.1621,-83.5 112.1621,-65.5 18.6963,-65.5"/>
<text text-anchor="middle" x="65.4292" y="-71.5" font-family="Helvetica,sans-Serif" font-size="10.00" fill="#000000">AR2VideoBufferT</text>
</a>
</g>
</g>
<!-- Node2&#45;&gt;Node1 -->
<g id="edge1" class="edge">
<title>Node2&#45;&gt;Node1</title>
<path fill="none" stroke="#9a32cd" stroke-dasharray="5,2" d="M65.4292,-55.1265C65.4292,-43.1522 65.4292,-28.3205 65.4292,-18.8821"/>
<polygon fill="#9a32cd" stroke="#9a32cd" points="61.9293,-55.462 65.4292,-65.462 68.9293,-55.4621 61.9293,-55.462"/>
<text text-anchor="middle" x="79.5161" y="-39" font-family="Helvetica,sans-Serif" font-size="10.00" fill="#000000"> buffer</text>
</g>
<!-- Node3 -->
<g id="node3" class="node">
<title>Node3</title>
<g id="a_node3"><a xlink:href="struct_a_r2_video_timestamp_t.html" target="_top" xlink:title="A structure to hold a timestamp in seconds and microseconds, with arbitrary epoch. ">
<polygon fill="#ffffff" stroke="#000000" points="7.4048,-130.5 7.4048,-148.5 123.4536,-148.5 123.4536,-130.5 7.4048,-130.5"/>
<text text-anchor="middle" x="65.4292" y="-136.5" font-family="Helvetica,sans-Serif" font-size="10.00" fill="#000000">AR2VideoTimestampT</text>
</a>
</g>
</g>
<!-- Node3&#45;&gt;Node2 -->
<g id="edge2" class="edge">
<title>Node3&#45;&gt;Node2</title>
<path fill="none" stroke="#9a32cd" stroke-dasharray="5,2" d="M65.4292,-120.1265C65.4292,-108.1522 65.4292,-93.3205 65.4292,-83.8821"/>
<polygon fill="#9a32cd" stroke="#9a32cd" points="61.9293,-120.462 65.4292,-130.462 68.9293,-120.4621 61.9293,-120.462"/>
<text text-anchor="middle" x="76.2642" y="-104" font-family="Helvetica,sans-Serif" font-size="10.00" fill="#000000"> time</text>
</g>
</g>
</svg>
