<?xml version="1.0" encoding="UTF-8" standalone="no"?>
<!DOCTYPE svg PUBLIC "-//W3C//DTD SVG 1.1//EN"
 "http://www.w3.org/Graphics/SVG/1.1/DTD/svg11.dtd">
<!-- Generated by graphviz version 2.40.1 (20161225.0304)
 -->
<!-- Title: _AR2HandleT Pages: 1 -->
<!--zoomable 372 -->
<svg id="main" version="1.1" xmlns="http://www.w3.org/2000/svg" xmlns:xlink="http://www.w3.org/1999/xlink" xml:space="preserve" onload="init(evt)">
<style type="text/css"><![CDATA[
.edge:hover path { stroke: red; }
.edge:hover polygon { stroke: red; fill: red; }
]]></style>
<script type="text/javascript"><![CDATA[
var edges = document.getElementsByTagName('g');
if (edges && edges.length) {
  for (var i=0;i<edges.length;i++) {
    if (edges[i].id.substr(0,4)=='edge') {
      edges[i].setAttribute('class','edge');
    }
  }
}
]]></script>
        <defs>
                <circle id="rim" cx="0" cy="0" r="7"/>
                <circle id="rim2" cx="0" cy="0" r="3.5"/>
                <g id="zoomPlus">
                        <use xlink:href="#rim" fill="#404040">
                                <set attributeName="fill" to="#808080" begin="zoomplus.mouseover" end="zoomplus.mouseout"/>
                        </use>
                        <path d="M-4,0h8M0,-4v8" fill="none" stroke="white" stroke-width="1.5" pointer-events="none"/>
                </g>
                <g id="zoomMin">
                        <use xlink:href="#rim" fill="#404040">
                                <set attributeName="fill" to="#808080" begin="zoomminus.mouseover" end="zoomminus.mouseout"/>
                        </use>
                        <path d="M-4,0h8" fill="none" stroke="white" stroke-width="1.5" pointer-events="none"/>
                </g>
                <g id="dirArrow">
                        <path fill="none" stroke="white" stroke-width="1.5" d="M0,-3.0v7 M-2.5,-0.5L0,-3.0L2.5,-0.5"/>
                </g>
               <g id="resetDef">
                       <use xlink:href="#rim2" fill="#404040">
                               <set attributeName="fill" to="#808080" begin="reset.mouseover" end="reset.mouseout"/>
                       </use>
               </g>
        </defs>

<script type="text/javascript">
var viewWidth = 671;
var viewHeight = 372;
var sectionId = 'dynsection-0';
</script>
<script xlink:href="svgpan.js"/>
<svg id="graph" class="graph">
<g id="viewport">
<title>_AR2HandleT</title>
<polygon fill="#ffffff" stroke="transparent" points="-4,4 -4,-368 667.1763,-368 667.1763,4 -4,4"/>
<!-- Node1 -->
<g id="node1" class="node">
<title>Node1</title>
<polygon fill="#bfbfbf" stroke="#000000" points="346.436,-65.5 346.436,-83.5 425.2485,-83.5 425.2485,-65.5 346.436,-65.5"/>
<text text-anchor="middle" x="385.8423" y="-71.5" font-family="Helvetica,sans-Serif" font-size="10.00" fill="#000000">_AR2HandleT</text>
</g>
<!-- Node2 -->
<g id="node2" class="node">
<title>Node2</title>
<g id="a_node2"><a xlink:href="struct___a_r2_tracking2_d_param_t.html" target="_top" xlink:title="_AR2Tracking2DParamT">
<polygon fill="#ffffff" stroke="#000000" points="315.1733,-.5 315.1733,-18.5 442.5112,-18.5 442.5112,-.5 315.1733,-.5"/>
<text text-anchor="middle" x="378.8423" y="-6.5" font-family="Helvetica,sans-Serif" font-size="10.00" fill="#000000">_AR2Tracking2DParamT</text>
</a>
</g>
</g>
<!-- Node1&#45;&gt;Node2 -->
<g id="edge12" class="edge">
<title>Node1&#45;&gt;Node2</title>
<path fill="none" stroke="#9a32cd" stroke-dasharray="5,2" d="M352.0592,-60.0385C347.1985,-56.4883 342.8566,-52.1791 339.9214,-47 333.4443,-35.5714 345.6917,-25.4276 358.1208,-18.5814"/>
<polygon fill="#9a32cd" stroke="#9a32cd" points="350.229,-63.0219 360.5724,-65.3165 353.9175,-57.0725 350.229,-63.0219"/>
<text text-anchor="middle" x="365.3027" y="-39" font-family="Helvetica,sans-Serif" font-size="10.00" fill="#000000"> ar2Handle</text>
</g>
<!-- Node2&#45;&gt;Node1 -->
<g id="edge1" class="edge">
<title>Node2&#45;&gt;Node1</title>
<path fill="none" stroke="#9a32cd" stroke-dasharray="5,2" d="M389.5728,-27.67C390.9226,-30.6965 392.0916,-33.871 392.8423,-37 395.1288,-46.5314 392.432,-57.5757 389.7495,-65.1979"/>
<polygon fill="#9a32cd" stroke="#9a32cd" points="392.6505,-26.0021 384.9343,-18.7419 386.4388,-29.2294 392.6505,-26.0021"/>
<text text-anchor="middle" x="402.458" y="-39" font-family="Helvetica,sans-Serif" font-size="10.00" fill="#000000"> arg</text>
</g>
<!-- Node3 -->
<g id="node3" class="node">
<title>Node3</title>
<g id="a_node3"><a xlink:href="struct_a_r2_surface_set_t.html" target="_top" xlink:title="AR2SurfaceSetT">
<polygon fill="#ffffff" stroke="#000000" points="154.3252,-65.5 154.3252,-83.5 245.3594,-83.5 245.3594,-65.5 154.3252,-65.5"/>
<text text-anchor="middle" x="199.8423" y="-71.5" font-family="Helvetica,sans-Serif" font-size="10.00" fill="#000000">AR2SurfaceSetT</text>
</a>
</g>
</g>
<!-- Node3&#45;&gt;Node2 -->
<g id="edge2" class="edge">
<title>Node3&#45;&gt;Node2</title>
<path fill="none" stroke="#9a32cd" stroke-dasharray="5,2" d="M204.7216,-55.27C207.3649,-48.5279 211.346,-41.5179 217.2612,-37 232.5257,-25.3413 276.6253,-18.3314 314.9029,-14.3094"/>
<polygon fill="#9a32cd" stroke="#9a32cd" points="201.245,-54.6583 201.5832,-65.2477 207.9225,-56.7587 201.245,-54.6583"/>
<text text-anchor="middle" x="243.1328" y="-39" font-family="Helvetica,sans-Serif" font-size="10.00" fill="#000000"> surfaceSet</text>
</g>
<!-- Node4 -->
<g id="node4" class="node">
<title>Node4</title>
<g id="a_node4"><a xlink:href="struct_a_r2_surface_t.html" target="_top" xlink:title="AR2SurfaceT">
<polygon fill="#ffffff" stroke="#000000" points="112.8301,-150.5 112.8301,-168.5 188.8545,-168.5 188.8545,-150.5 112.8301,-150.5"/>
<text text-anchor="middle" x="150.8423" y="-156.5" font-family="Helvetica,sans-Serif" font-size="10.00" fill="#000000">AR2SurfaceT</text>
</a>
</g>
</g>
<!-- Node4&#45;&gt;Node3 -->
<g id="edge3" class="edge">
<title>Node4&#45;&gt;Node3</title>
<path fill="none" stroke="#9a32cd" stroke-dasharray="5,2" d="M146.7826,-140.0372C145.373,-128.2358 145.5494,-113.3222 152.271,-102 157.1408,-93.797 165.4649,-87.8065 173.8015,-83.5515"/>
<polygon fill="#9a32cd" stroke="#9a32cd" points="143.3749,-140.8838 148.458,-150.1796 150.2813,-139.7428 143.3749,-140.8838"/>
<text text-anchor="middle" x="170.6279" y="-114" font-family="Helvetica,sans-Serif" font-size="10.00" fill="#000000"> surface</text>
</g>
<!-- Node5 -->
<g id="node5" class="node">
<title>Node5</title>
<g id="a_node5"><a xlink:href="struct_a_r2_marker_set_t.html" target="_top" xlink:title="AR2MarkerSetT">
<polygon fill="#ffffff" stroke="#000000" points="0,-215.5 0,-233.5 87.6846,-233.5 87.6846,-215.5 0,-215.5"/>
<text text-anchor="middle" x="43.8423" y="-221.5" font-family="Helvetica,sans-Serif" font-size="10.00" fill="#000000">AR2MarkerSetT</text>
</a>
</g>
</g>
<!-- Node5&#45;&gt;Node4 -->
<g id="edge4" class="edge">
<title>Node5&#45;&gt;Node4</title>
<path fill="none" stroke="#9a32cd" stroke-dasharray="5,2" d="M64.4036,-209.3328C74.3391,-202.2424 86.553,-193.8691 97.9409,-187 108.9316,-180.3705 121.6868,-173.7113 131.9184,-168.6066"/>
<polygon fill="#9a32cd" stroke="#9a32cd" points="62.0609,-206.7076 56.0087,-215.4038 66.1629,-212.3798 62.0609,-206.7076"/>
<text text-anchor="middle" x="123.293" y="-189" font-family="Helvetica,sans-Serif" font-size="10.00" fill="#000000"> markerSet</text>
</g>
<!-- Node6 -->
<g id="node6" class="node">
<title>Node6</title>
<g id="a_node6"><a xlink:href="struct_a_r2_marker_t.html" target="_top" xlink:title="AR2MarkerT">
<polygon fill="#ffffff" stroke="#000000" points="7.5049,-280.5 7.5049,-298.5 80.1797,-298.5 80.1797,-280.5 7.5049,-280.5"/>
<text text-anchor="middle" x="43.8423" y="-286.5" font-family="Helvetica,sans-Serif" font-size="10.00" fill="#000000">AR2MarkerT</text>
</a>
</g>
</g>
<!-- Node6&#45;&gt;Node5 -->
<g id="edge5" class="edge">
<title>Node6&#45;&gt;Node5</title>
<path fill="none" stroke="#9a32cd" stroke-dasharray="5,2" d="M43.8423,-270.1265C43.8423,-258.1522 43.8423,-243.3205 43.8423,-233.8821"/>
<polygon fill="#9a32cd" stroke="#9a32cd" points="40.3424,-270.462 43.8423,-280.462 47.3424,-270.4621 40.3424,-270.462"/>
<text text-anchor="middle" x="60.7881" y="-254" font-family="Helvetica,sans-Serif" font-size="10.00" fill="#000000"> marker</text>
</g>
<!-- Node7 -->
<g id="node7" class="node">
<title>Node7</title>
<g id="a_node7"><a xlink:href="struct_a_r2_feature_set_t.html" target="_top" xlink:title="AR2FeatureSetT">
<polygon fill="#ffffff" stroke="#000000" points="105.3252,-215.5 105.3252,-233.5 196.3594,-233.5 196.3594,-215.5 105.3252,-215.5"/>
<text text-anchor="middle" x="150.8423" y="-221.5" font-family="Helvetica,sans-Serif" font-size="10.00" fill="#000000">AR2FeatureSetT</text>
</a>
</g>
</g>
<!-- Node7&#45;&gt;Node4 -->
<g id="edge6" class="edge">
<title>Node7&#45;&gt;Node4</title>
<path fill="none" stroke="#9a32cd" stroke-dasharray="5,2" d="M150.8423,-205.1265C150.8423,-193.1522 150.8423,-178.3205 150.8423,-168.8821"/>
<polygon fill="#9a32cd" stroke="#9a32cd" points="147.3424,-205.462 150.8423,-215.462 154.3424,-205.4621 147.3424,-205.462"/>
<text text-anchor="middle" x="175.3027" y="-189" font-family="Helvetica,sans-Serif" font-size="10.00" fill="#000000"> featureSet</text>
</g>
<!-- Node8 -->
<g id="node8" class="node">
<title>Node8</title>
<g id="a_node8"><a xlink:href="struct_a_r2_feature_points_t.html" target="_top" xlink:title="AR2FeaturePointsT">
<polygon fill="#ffffff" stroke="#000000" points="98.9336,-280.5 98.9336,-298.5 202.751,-298.5 202.751,-280.5 98.9336,-280.5"/>
<text text-anchor="middle" x="150.8423" y="-286.5" font-family="Helvetica,sans-Serif" font-size="10.00" fill="#000000">AR2FeaturePointsT</text>
</a>
</g>
</g>
<!-- Node8&#45;&gt;Node7 -->
<g id="edge7" class="edge">
<title>Node8&#45;&gt;Node7</title>
<path fill="none" stroke="#9a32cd" stroke-dasharray="5,2" d="M150.8423,-270.1265C150.8423,-258.1522 150.8423,-243.3205 150.8423,-233.8821"/>
<polygon fill="#9a32cd" stroke="#9a32cd" points="147.3424,-270.462 150.8423,-280.462 154.3424,-270.4621 147.3424,-270.462"/>
<text text-anchor="middle" x="158.3423" y="-254" font-family="Helvetica,sans-Serif" font-size="10.00" fill="#000000"> list</text>
</g>
<!-- Node9 -->
<g id="node9" class="node">
<title>Node9</title>
<g id="a_node9"><a xlink:href="struct_a_r2_feature_coord_t.html" target="_top" xlink:title="AR2FeatureCoordT">
<polygon fill="#ffffff" stroke="#000000" points="99.2119,-345.5 99.2119,-363.5 202.4727,-363.5 202.4727,-345.5 99.2119,-345.5"/>
<text text-anchor="middle" x="150.8423" y="-351.5" font-family="Helvetica,sans-Serif" font-size="10.00" fill="#000000">AR2FeatureCoordT</text>
</a>
</g>
</g>
<!-- Node9&#45;&gt;Node8 -->
<g id="edge8" class="edge">
<title>Node9&#45;&gt;Node8</title>
<path fill="none" stroke="#9a32cd" stroke-dasharray="5,2" d="M150.8423,-335.1265C150.8423,-323.1522 150.8423,-308.3205 150.8423,-298.8821"/>
<polygon fill="#9a32cd" stroke="#9a32cd" points="147.3424,-335.462 150.8423,-345.462 154.3424,-335.4621 147.3424,-335.462"/>
<text text-anchor="middle" x="164.7388" y="-319" font-family="Helvetica,sans-Serif" font-size="10.00" fill="#000000"> coord</text>
</g>
<!-- Node10 -->
<g id="node10" class="node">
<title>Node10</title>
<g id="a_node10"><a xlink:href="struct_a_r2_image_set_t.html" target="_top" xlink:title="AR2ImageSetT">
<polygon fill="#ffffff" stroke="#000000" points="214.6602,-215.5 214.6602,-233.5 299.0244,-233.5 299.0244,-215.5 214.6602,-215.5"/>
<text text-anchor="middle" x="256.8423" y="-221.5" font-family="Helvetica,sans-Serif" font-size="10.00" fill="#000000">AR2ImageSetT</text>
</a>
</g>
</g>
<!-- Node10&#45;&gt;Node4 -->
<g id="edge9" class="edge">
<title>Node10&#45;&gt;Node4</title>
<path fill="none" stroke="#9a32cd" stroke-dasharray="5,2" d="M236.739,-209.2934C227.0143,-202.1943 215.0444,-193.825 203.8423,-187 192.865,-180.312 180.0872,-173.651 169.8285,-168.5599"/>
<polygon fill="#9a32cd" stroke="#9a32cd" points="234.8329,-212.237 244.9523,-215.3752 238.9986,-206.6114 234.8329,-212.237"/>
<text text-anchor="middle" x="241.3545" y="-189" font-family="Helvetica,sans-Serif" font-size="10.00" fill="#000000"> imageSet</text>
</g>
<!-- Node11 -->
<g id="node11" class="node">
<title>Node11</title>
<g id="a_node11"><a xlink:href="struct_a_r2_image_t.html" target="_top" xlink:title="AR2ImageT">
<polygon fill="#ffffff" stroke="#000000" points="222.165,-280.5 222.165,-298.5 291.5195,-298.5 291.5195,-280.5 222.165,-280.5"/>
<text text-anchor="middle" x="256.8423" y="-286.5" font-family="Helvetica,sans-Serif" font-size="10.00" fill="#000000">AR2ImageT</text>
</a>
</g>
</g>
<!-- Node11&#45;&gt;Node10 -->
<g id="edge10" class="edge">
<title>Node11&#45;&gt;Node10</title>
<path fill="none" stroke="#9a32cd" stroke-dasharray="5,2" d="M256.8423,-270.1265C256.8423,-258.1522 256.8423,-243.3205 256.8423,-233.8821"/>
<polygon fill="#9a32cd" stroke="#9a32cd" points="253.3424,-270.462 256.8423,-280.462 260.3424,-270.4621 253.3424,-270.462"/>
<text text-anchor="middle" x="269.9038" y="-254" font-family="Helvetica,sans-Serif" font-size="10.00" fill="#000000"> scale</text>
</g>
<!-- Node12 -->
<g id="node12" class="node">
<title>Node12</title>
<g id="a_node12"><a xlink:href="struct_a_r2_template_candidate_t.html" target="_top" xlink:title="AR2TemplateCandidateT">
<polygon fill="#ffffff" stroke="#000000" points="209.978,-150.5 209.978,-168.5 337.7065,-168.5 337.7065,-150.5 209.978,-150.5"/>
<text text-anchor="middle" x="273.8423" y="-156.5" font-family="Helvetica,sans-Serif" font-size="10.00" fill="#000000">AR2TemplateCandidateT</text>
</a>
</g>
</g>
<!-- Node12&#45;&gt;Node1 -->
<g id="edge20" class="edge">
<title>Node12&#45;&gt;Node1</title>
<path fill="none" stroke="#9a32cd" stroke-dasharray="5,2" d="M287.1125,-142.1565C297.2268,-129.7947 312.0426,-113.4111 327.6948,-102 337.9818,-94.5004 350.6377,-88.2268 361.5129,-83.5745"/>
<polygon fill="#9a32cd" stroke="#9a32cd" points="284.1097,-140.3099 280.6339,-150.3184 289.5924,-144.6619 284.1097,-140.3099"/>
<text text-anchor="middle" x="355.916" y="-124" font-family="Helvetica,sans-Serif" font-size="10.00" fill="#000000"> candidate</text>
<text text-anchor="middle" x="355.916" y="-114" font-family="Helvetica,sans-Serif" font-size="10.00" fill="#000000">usedFeature</text>
<text text-anchor="middle" x="355.916" y="-104" font-family="Helvetica,sans-Serif" font-size="10.00" fill="#000000">candidate2</text>
</g>
<!-- Node12&#45;&gt;Node2 -->
<g id="edge15" class="edge">
<title>Node12&#45;&gt;Node2</title>
<path fill="none" stroke="#9a32cd" stroke-dasharray="5,2" d="M273.1957,-140.0683C273.4432,-119.7039 276.5386,-87.5902 291.6948,-65 306.6854,-42.6567 334.0286,-27.4425 354.1021,-18.674"/>
<polygon fill="#9a32cd" stroke="#9a32cd" points="269.6981,-140.3259 273.3009,-150.2893 276.6977,-140.2538 269.6981,-140.3259"/>
<text text-anchor="middle" x="314.916" y="-71.5" font-family="Helvetica,sans-Serif" font-size="10.00" fill="#000000"> candidate</text>
</g>
<!-- Node12&#45;&gt;Node3 -->
<g id="edge11" class="edge">
<title>Node12&#45;&gt;Node3</title>
<path fill="none" stroke="#9a32cd" stroke-dasharray="5,2" d="M228.5178,-146.0617C221.9214,-142.4099 215.7992,-137.8016 211.1479,-132 199.9476,-118.0296 198.8041,-96.0908 199.1831,-83.7433"/>
<polygon fill="#9a32cd" stroke="#9a32cd" points="227.1829,-149.3032 237.7132,-150.4709 230.2095,-142.9913 227.1829,-149.3032"/>
<text text-anchor="middle" x="240.1895" y="-114" font-family="Helvetica,sans-Serif" font-size="10.00" fill="#000000"> prevFeature</text>
</g>
<!-- Node13 -->
<g id="node13" class="node">
<title>Node13</title>
<g id="a_node13"><a xlink:href="struct_a_r2_template_t.html" target="_top" xlink:title="AR2TemplateT">
<polygon fill="#ffffff" stroke="#000000" points="442.7734,-65.5 442.7734,-83.5 524.9111,-83.5 524.9111,-65.5 442.7734,-65.5"/>
<text text-anchor="middle" x="483.8423" y="-71.5" font-family="Helvetica,sans-Serif" font-size="10.00" fill="#000000">AR2TemplateT</text>
</a>
</g>
</g>
<!-- Node13&#45;&gt;Node2 -->
<g id="edge13" class="edge">
<title>Node13&#45;&gt;Node2</title>
<path fill="none" stroke="#9a32cd" stroke-dasharray="5,2" d="M460.5403,-60.075C440.1178,-47.4324 411.0517,-29.4391 393.6566,-18.6708"/>
<polygon fill="#9a32cd" stroke="#9a32cd" points="458.8976,-63.1744 469.2425,-65.462 462.5821,-57.2225 458.8976,-63.1744"/>
<text text-anchor="middle" x="450.458" y="-39" font-family="Helvetica,sans-Serif" font-size="10.00" fill="#000000"> templ</text>
</g>
<!-- Node14 -->
<g id="node14" class="node">
<title>Node14</title>
<g id="a_node14"><a xlink:href="struct_a_r2_tracking2_d_result_t.html" target="_top" xlink:title="AR2Tracking2DResultT">
<polygon fill="#ffffff" stroke="#000000" points="542.5083,-65.5 542.5083,-83.5 663.1763,-83.5 663.1763,-65.5 542.5083,-65.5"/>
<text text-anchor="middle" x="602.8423" y="-71.5" font-family="Helvetica,sans-Serif" font-size="10.00" fill="#000000">AR2Tracking2DResultT</text>
</a>
</g>
</g>
<!-- Node14&#45;&gt;Node2 -->
<g id="edge14" class="edge">
<title>Node14&#45;&gt;Node2</title>
<path fill="none" stroke="#9a32cd" stroke-dasharray="5,2" d="M561.944,-62.6322C518.1805,-49.933 449.7224,-30.0679 410.0843,-18.5658"/>
<polygon fill="#9a32cd" stroke="#9a32cd" points="561.1168,-66.0365 571.696,-65.462 563.0676,-59.3138 561.1168,-66.0365"/>
<text text-anchor="middle" x="517.458" y="-39" font-family="Helvetica,sans-Serif" font-size="10.00" fill="#000000"> result</text>
</g>
<!-- Node15 -->
<g id="node15" class="node">
<title>Node15</title>
<g id="a_node15"><a xlink:href="struct_a_r_param_l_t.html" target="_top" xlink:title="Structure holding camera parameters, in lookup table form. ">
<polygon fill="#ffffff" stroke="#000000" points="355.7036,-150.5 355.7036,-168.5 425.981,-168.5 425.981,-150.5 355.7036,-150.5"/>
<text text-anchor="middle" x="390.8423" y="-156.5" font-family="Helvetica,sans-Serif" font-size="10.00" fill="#000000">ARParamLT</text>
</a>
</g>
</g>
<!-- Node15&#45;&gt;Node1 -->
<g id="edge16" class="edge">
<title>Node15&#45;&gt;Node1</title>
<path fill="none" stroke="#9a32cd" stroke-dasharray="5,2" d="M389.7138,-140.3165C388.6701,-122.5727 387.1644,-96.9761 386.3735,-83.5311"/>
<polygon fill="#9a32cd" stroke="#9a32cd" points="386.2259,-140.6263 390.3072,-150.4035 393.2138,-140.2152 386.2259,-140.6263"/>
<text text-anchor="middle" x="413.3701" y="-114" font-family="Helvetica,sans-Serif" font-size="10.00" fill="#000000"> cparamLT</text>
</g>
<!-- Node16 -->
<g id="node16" class="node">
<title>Node16</title>
<g id="a_node16"><a xlink:href="struct_a_r_param_l_tf.html" target="_top" xlink:title="Structure holding camera parameters, in lookup table form; floating point version. ">
<polygon fill="#ffffff" stroke="#000000" points="337.3145,-215.5 337.3145,-233.5 410.3701,-233.5 410.3701,-215.5 337.3145,-215.5"/>
<text text-anchor="middle" x="373.8423" y="-221.5" font-family="Helvetica,sans-Serif" font-size="10.00" fill="#000000">ARParamLTf</text>
</a>
</g>
</g>
<!-- Node16&#45;&gt;Node15 -->
<g id="edge17" class="edge">
<title>Node16&#45;&gt;Node15</title>
<path fill="none" stroke="#9a32cd" stroke-dasharray="5,2" d="M378.8126,-205.4959C381.9608,-193.4586 385.8945,-178.4178 388.3885,-168.8821"/>
<polygon fill="#9a32cd" stroke="#9a32cd" points="375.3503,-204.9018 376.2061,-215.462 382.1225,-206.6731 375.3503,-204.9018"/>
<text text-anchor="middle" x="406.2593" y="-189" font-family="Helvetica,sans-Serif" font-size="10.00" fill="#000000"> paramLTf</text>
</g>
<!-- Node17 -->
<g id="node17" class="node">
<title>Node17</title>
<g id="a_node17"><a xlink:href="struct_a_r_param.html" target="_top" xlink:title="Structure holding camera parameters, including image size, projection matrix and lens distortion para...">
<polygon fill="#ffffff" stroke="#000000" points="428.1699,-215.5 428.1699,-233.5 487.5146,-233.5 487.5146,-215.5 428.1699,-215.5"/>
<text text-anchor="middle" x="457.8423" y="-221.5" font-family="Helvetica,sans-Serif" font-size="10.00" fill="#000000">ARParam</text>
</a>
</g>
</g>
<!-- Node17&#45;&gt;Node15 -->
<g id="edge18" class="edge">
<title>Node17&#45;&gt;Node15</title>
<path fill="none" stroke="#9a32cd" stroke-dasharray="5,2" d="M447.915,-206.4975C443.7763,-199.9194 438.5907,-192.7009 432.8423,-187 425.54,-179.758 416.0461,-173.3495 407.9323,-168.5447"/>
<polygon fill="#9a32cd" stroke="#9a32cd" points="445.0825,-208.585 453.1732,-215.4254 451.1141,-205.0326 445.0825,-208.585"/>
<text text-anchor="middle" x="456.4038" y="-189" font-family="Helvetica,sans-Serif" font-size="10.00" fill="#000000"> param</text>
</g>
<!-- Node18 -->
<g id="node18" class="node">
<title>Node18</title>
<g id="a_node18"><a xlink:href="struct___t_h_r_e_a_d___h_a_n_d_l_e___t.html" target="_top" xlink:title="_THREAD_HANDLE_T">
<polygon fill="#ffffff" stroke="#000000" points="443.606,-150.5 443.606,-168.5 564.0786,-168.5 564.0786,-150.5 443.606,-150.5"/>
<text text-anchor="middle" x="503.8423" y="-156.5" font-family="Helvetica,sans-Serif" font-size="10.00" fill="#000000">_THREAD_HANDLE_T</text>
</a>
</g>
</g>
<!-- Node18&#45;&gt;Node1 -->
<g id="edge19" class="edge">
<title>Node18&#45;&gt;Node1</title>
<path fill="none" stroke="#9a32cd" stroke-dasharray="5,2" d="M488.4066,-143.1396C476.2495,-130.842 458.4666,-114.1019 440.8423,-102 430.3695,-94.8088 417.7488,-88.3609 407.2399,-83.5193"/>
<polygon fill="#9a32cd" stroke="#9a32cd" points="486.0525,-145.7398 495.5249,-150.4859 491.0797,-140.8687 486.0525,-145.7398"/>
<text text-anchor="middle" x="507.2534" y="-114" font-family="Helvetica,sans-Serif" font-size="10.00" fill="#000000"> threadHandle</text>
</g>
<!-- Node19 -->
<g id="node19" class="node">
<title>Node19</title>
<g id="a_node19"><a xlink:href="struct_i_c_p_handle_t.html" target="_top" xlink:title="ICPHandleT">
<polygon fill="#ffffff" stroke="#000000" points="581.6084,-150.5 581.6084,-168.5 652.0762,-168.5 652.0762,-150.5 581.6084,-150.5"/>
<text text-anchor="middle" x="616.8423" y="-156.5" font-family="Helvetica,sans-Serif" font-size="10.00" fill="#000000">ICPHandleT</text>
</a>
</g>
</g>
<!-- Node19&#45;&gt;Node1 -->
<g id="edge21" class="edge">
<title>Node19&#45;&gt;Node1</title>
<path fill="none" stroke="#9a32cd" stroke-dasharray="5,2" d="M600.92,-143.2413C586.9009,-129.9492 565.2735,-111.8058 542.8423,-102 497.8527,-82.3327 482.1537,-92.7676 433.8423,-84 431.084,-83.4994 428.2392,-82.97 425.3761,-82.4276"/>
<polygon fill="#9a32cd" stroke="#9a32cd" points="598.6483,-145.9152 608.2437,-150.4073 603.5439,-140.9119 598.6483,-145.9152"/>
<text text-anchor="middle" x="610.4678" y="-114" font-family="Helvetica,sans-Serif" font-size="10.00" fill="#000000"> icpHandle</text>
</g>
</g>
</svg>
        <g id="navigator" transform="translate(0 0)" fill="#404254">
                <rect fill="#f2f5e9" fill-opacity="0.5" stroke="#606060" stroke-width=".5" x="0" y="0" width="60" height="60"/>
                <use id="zoomplus" xlink:href="#zoomPlus" x="17" y="9" onmousedown="handleZoom(evt,'in')"/>
                <use id="zoomminus" xlink:href="#zoomMin" x="42" y="9" onmousedown="handleZoom(evt,'out')"/>
                <use id="reset" xlink:href="#resetDef" x="30" y="36" onmousedown="handleReset()"/>
                <g id="arrowUp" xlink:href="#dirArrow" transform="translate(30 24)" onmousedown="handlePan(0,-1)">
                  <use xlink:href="#rim" fill="#404040">
                        <set attributeName="fill" to="#808080" begin="arrowUp.mouseover" end="arrowUp.mouseout"/>
                  </use>
                  <path fill="none" stroke="white" stroke-width="1.5" d="M0,-3.0v7 M-2.5,-0.5L0,-3.0L2.5,-0.5"/>
                </g>
                <g id="arrowRight" xlink:href="#dirArrow" transform="rotate(90) translate(36 -43)" onmousedown="handlePan(1,0)">
                  <use xlink:href="#rim" fill="#404040">
                        <set attributeName="fill" to="#808080" begin="arrowRight.mouseover" end="arrowRight.mouseout"/>
                  </use>
                  <path fill="none" stroke="white" stroke-width="1.5" d="M0,-3.0v7 M-2.5,-0.5L0,-3.0L2.5,-0.5"/>
                </g>
                <g id="arrowDown" xlink:href="#dirArrow" transform="rotate(180) translate(-30 -48)" onmousedown="handlePan(0,1)">
                  <use xlink:href="#rim" fill="#404040">
                        <set attributeName="fill" to="#808080" begin="arrowDown.mouseover" end="arrowDown.mouseout"/>
                  </use>
                  <path fill="none" stroke="white" stroke-width="1.5" d="M0,-3.0v7 M-2.5,-0.5L0,-3.0L2.5,-0.5"/>
                </g>
                <g id="arrowLeft" xlink:href="#dirArrow" transform="rotate(270) translate(-36 17)" onmousedown="handlePan(-1,0)">
                  <use xlink:href="#rim" fill="#404040">
                        <set attributeName="fill" to="#808080" begin="arrowLeft.mouseover" end="arrowLeft.mouseout"/>
                  </use>
                  <path fill="none" stroke="white" stroke-width="1.5" d="M0,-3.0v7 M-2.5,-0.5L0,-3.0L2.5,-0.5"/>
                </g>
        </g>
        <svg viewBox="0 0 15 15" width="100%" height="30px" preserveAspectRatio="xMaxYMin meet">
         <g id="arrow_out" transform="scale(0.3 0.3)">
          <a xlink:href="struct___a_r2_handle_t__coll__graph_org.svg" target="_base">
           <rect id="button" ry="5" rx="5" y="6" x="6" height="38" width="38"
                fill="#f2f5e9" fill-opacity="0.5" stroke="#606060" stroke-width="1.0"/>
           <path id="arrow"
             d="M 11.500037,31.436501 C 11.940474,20.09759 22.043105,11.32322 32.158766,21.979434 L 37.068811,17.246167 C 37.068811,17.246167 37.088388,32 37.088388,32 L 22.160133,31.978069 C 22.160133,31.978069 26.997745,27.140456 26.997745,27.140456 C 18.528582,18.264221 13.291696,25.230495 11.500037,31.436501 z"
             style="fill:#404040;"/>
          </a>
         </g>
        </svg>
</svg>
