<?xml version="1.0" encoding="UTF-8" standalone="no"?>
<!DOCTYPE svg PUBLIC "-//W3C//DTD SVG 1.1//EN"
 "http://www.w3.org/Graphics/SVG/1.1/DTD/svg11.dtd">
<!-- Generated by graphviz version 8.0.5 (20230430.1635)
 -->
<!-- Title: _ARGL_CONTEXT_SETTINGS Pages: 1 -->
<svg width="865pt" height="304pt"
 viewBox="0.00 0.00 865.00 304.25" xmlns="http://www.w3.org/2000/svg" xmlns:xlink="http://www.w3.org/1999/xlink">
<g id="graph0" class="graph" transform="scale(1 1) rotate(0) translate(4 300.25)">
<title>_ARGL_CONTEXT_SETTINGS</title>
<!-- Node1 -->
<g id="node1" class="node">
<title>Node1</title>
<g id="a_node1"><a xlink:title=" ">
<polygon fill="#999999" stroke="#666666" points="857,-239.25 700,-239.25 700,-220 857,-220 857,-239.25"/>
<text text-anchor="middle" x="778.5" y="-225.75" font-family="Helvetica,sans-Serif" font-size="10.00">_ARGL_CONTEXT_SETTINGS</text>
</a>
</g>
</g>
<!-- Node2 -->
<g id="node2" class="node">
<title>Node2</title>
<g id="a_node2"><a xlink:href="struct_a_r_param.html" target="_top" xlink:title="Structure holding camera parameters, including image size, projection matrix and lens distortion para...">
<polygon fill="white" stroke="#666666" points="253.25,-296.25 194.5,-296.25 194.5,-277 253.25,-277 253.25,-296.25"/>
<text text-anchor="middle" x="223.88" y="-282.75" font-family="Helvetica,sans-Serif" font-size="10.00">ARParam</text>
</a>
</g>
</g>
<!-- Node2&#45;&gt;Node1 -->
<g id="edge1" class="edge">
<title>Node2&#45;&gt;Node1</title>
<path fill="none" stroke="#9a32cd" stroke-dasharray="5,2" d="M264.21,-286.87C285.23,-286.75 311.55,-286.23 335,-284.62 470.74,-275.35 628.66,-252.89 714.33,-239.72"/>
<polygon fill="#9a32cd" stroke="#9a32cd" points="264.42,-283.37 254.43,-286.89 264.44,-290.37 264.42,-283.37"/>
<text text-anchor="middle" x="507.75" y="-273.38" font-family="Helvetica,sans-Serif" font-size="10.00"> arParam</text>
</g>
<!-- Node4 -->
<g id="node4" class="node">
<title>Node4</title>
<g id="a_node4"><a xlink:href="struct_a_r_param_l_t.html" target="_top" xlink:title="Structure holding camera parameters, in lookup table form.">
<polygon fill="white" stroke="#666666" points="437.62,-254.25 367.62,-254.25 367.62,-235 437.62,-235 437.62,-254.25"/>
<text text-anchor="middle" x="402.62" y="-240.75" font-family="Helvetica,sans-Serif" font-size="10.00">ARParamLT</text>
</a>
</g>
</g>
<!-- Node2&#45;&gt;Node4 -->
<g id="edge4" class="edge">
<title>Node2&#45;&gt;Node4</title>
<path fill="none" stroke="#9a32cd" stroke-dasharray="5,2" d="M263.95,-277.26C269.42,-275.96 274.98,-274.63 280.25,-273.38 309.64,-266.38 343.04,-258.47 367.35,-252.72"/>
<polygon fill="#9a32cd" stroke="#9a32cd" points="263.52,-274.01 254.61,-279.74 265.15,-280.81 263.52,-274.01"/>
<text text-anchor="middle" x="307.62" y="-274.38" font-family="Helvetica,sans-Serif" font-size="10.00"> param</text>
</g>
<!-- Node3 -->
<g id="node3" class="node">
<title>Node3</title>
<g id="a_node3"><a xlink:href="struct_a_r_handle.html" target="_top" xlink:title="Structure holding state of an instance of the square marker tracker.">
<polygon fill="white" stroke="#666666" points="624.25,-148.25 563.25,-148.25 563.25,-129 624.25,-129 624.25,-148.25"/>
<text text-anchor="middle" x="593.75" y="-134.75" font-family="Helvetica,sans-Serif" font-size="10.00">ARHandle</text>
</a>
</g>
</g>
<!-- Node3&#45;&gt;Node1 -->
<g id="edge2" class="edge">
<title>Node3&#45;&gt;Node1</title>
<path fill="none" stroke="#9a32cd" stroke-dasharray="5,2" d="M624.38,-153.38C661.81,-172.02 725.22,-203.59 757.43,-219.63"/>
<polygon fill="#9a32cd" stroke="#9a32cd" points="626.52,-150.04 616.01,-148.71 623.4,-156.3 626.52,-150.04"/>
<text text-anchor="middle" x="662.12" y="-183.38" font-family="Helvetica,sans-Serif" font-size="10.00"> arhandle</text>
</g>
<!-- Node4&#45;&gt;Node3 -->
<g id="edge3" class="edge">
<title>Node4&#45;&gt;Node3</title>
<path fill="none" stroke="#9a32cd" stroke-dasharray="5,2" d="M449.07,-246.09C478.83,-244.9 517.26,-239.09 545.25,-219.62 570.68,-201.94 584.53,-165.89 589.98,-148.47"/>
<polygon fill="#9a32cd" stroke="#9a32cd" points="449.04,-242.61 439.12,-246.34 449.2,-249.61 449.04,-242.61"/>
<text text-anchor="middle" x="507.75" y="-246.38" font-family="Helvetica,sans-Serif" font-size="10.00"> arParamLT</text>
</g>
<!-- Node5 -->
<g id="node5" class="node">
<title>Node5</title>
<g id="a_node5"><a xlink:href="struct_a_r_param_l_tf.html" target="_top" xlink:title="Structure holding camera parameters, in lookup table form; floating point version.">
<polygon fill="white" stroke="#666666" points="260.38,-248.25 187.38,-248.25 187.38,-229 260.38,-229 260.38,-248.25"/>
<text text-anchor="middle" x="223.88" y="-234.75" font-family="Helvetica,sans-Serif" font-size="10.00">ARParamLTf</text>
</a>
</g>
</g>
<!-- Node5&#45;&gt;Node4 -->
<g id="edge5" class="edge">
<title>Node5&#45;&gt;Node4</title>
<path fill="none" stroke="#9a32cd" stroke-dasharray="5,2" d="M271.41,-238.2C291.05,-238.22 314.14,-238.48 335,-239.38 345.55,-239.83 357.02,-240.62 367.42,-241.46"/>
<polygon fill="#9a32cd" stroke="#9a32cd" points="271.59,-234.7 261.6,-238.22 271.61,-241.7 271.59,-234.7"/>
<text text-anchor="middle" x="307.62" y="-241.38" font-family="Helvetica,sans-Serif" font-size="10.00"> paramLTf</text>
</g>
<!-- Node6 -->
<g id="node6" class="node">
<title>Node6</title>
<g id="a_node6"><a xlink:href="struct_a_r_marker_info.html" target="_top" xlink:title="Describes a detected trapezoidal area (a candidate for a marker match).">
<polygon fill="white" stroke="#666666" points="262.25,-169.25 185.5,-169.25 185.5,-150 262.25,-150 262.25,-169.25"/>
<text text-anchor="middle" x="223.88" y="-155.75" font-family="Helvetica,sans-Serif" font-size="10.00">ARMarkerInfo</text>
</a>
</g>
</g>
<!-- Node6&#45;&gt;Node3 -->
<g id="edge6" class="edge">
<title>Node6&#45;&gt;Node3</title>
<path fill="none" stroke="#9a32cd" stroke-dasharray="5,2" d="M268.26,-172.3C272.29,-173.2 276.33,-173.99 280.25,-174.62 396.58,-193.37 433.79,-204.86 545.25,-166.62 557.56,-162.4 570.2,-154.76 579.34,-148.53"/>
<polygon fill="#9a32cd" stroke="#9a32cd" points="269.26,-168.7 258.72,-169.74 267.61,-175.5 269.26,-168.7"/>
<text text-anchor="middle" x="402.62" y="-194.38" font-family="Helvetica,sans-Serif" font-size="10.00"> markerInfo</text>
</g>
<!-- Node8 -->
<g id="node8" class="node">
<title>Node8</title>
<g id="a_node8"><a xlink:href="struct_a_r_tracking_history.html" target="_top" xlink:title="(description)">
<polygon fill="white" stroke="#666666" points="452.25,-169.25 353,-169.25 353,-150 452.25,-150 452.25,-169.25"/>
<text text-anchor="middle" x="402.62" y="-155.75" font-family="Helvetica,sans-Serif" font-size="10.00">ARTrackingHistory</text>
</a>
</g>
</g>
<!-- Node6&#45;&gt;Node8 -->
<g id="edge10" class="edge">
<title>Node6&#45;&gt;Node8</title>
<path fill="none" stroke="#9a32cd" stroke-dasharray="5,2" d="M273.3,-159.62C298.01,-159.62 328,-159.62 352.77,-159.62"/>
<polygon fill="#9a32cd" stroke="#9a32cd" points="273.36,-156.13 263.36,-159.62 273.36,-163.13 273.36,-156.13"/>
<text text-anchor="middle" x="307.62" y="-161.38" font-family="Helvetica,sans-Serif" font-size="10.00"> marker</text>
</g>
<!-- Node7 -->
<g id="node7" class="node">
<title>Node7</title>
<g id="a_node7"><a xlink:href="struct_a_r_marker_info2.html" target="_top" xlink:title="Captures detail of a trapezoidal region which is a candidate for marker detection.">
<polygon fill="white" stroke="#666666" points="82,-147.25 0,-147.25 0,-128 82,-128 82,-147.25"/>
<text text-anchor="middle" x="41" y="-133.75" font-family="Helvetica,sans-Serif" font-size="10.00">ARMarkerInfo2</text>
</a>
</g>
</g>
<!-- Node7&#45;&gt;Node3 -->
<g id="edge8" class="edge">
<title>Node7&#45;&gt;Node3</title>
<path fill="none" stroke="#9a32cd" stroke-dasharray="5,2" d="M93.26,-137.72C206.2,-137.92 473.6,-138.41 563.03,-138.57"/>
<polygon fill="#9a32cd" stroke="#9a32cd" points="93.5,-134.22 83.5,-137.7 93.49,-141.22 93.5,-134.22"/>
<text text-anchor="middle" x="307.62" y="-140.38" font-family="Helvetica,sans-Serif" font-size="10.00"> markerInfo2</text>
</g>
<!-- Node7&#45;&gt;Node6 -->
<g id="edge7" class="edge">
<title>Node7&#45;&gt;Node6</title>
<path fill="none" stroke="#9a32cd" stroke-dasharray="5,2" d="M92.98,-143.83C122.22,-147.38 158.3,-151.77 185.01,-155.02"/>
<polygon fill="#9a32cd" stroke="#9a32cd" points="93.49,-140.24 83.14,-142.51 92.65,-147.19 93.49,-140.24"/>
<text text-anchor="middle" x="133.75" y="-154.38" font-family="Helvetica,sans-Serif" font-size="10.00"> markerInfo2Ptr</text>
</g>
<!-- Node8&#45;&gt;Node3 -->
<g id="edge9" class="edge">
<title>Node8&#45;&gt;Node3</title>
<path fill="none" stroke="#9a32cd" stroke-dasharray="5,2" d="M462.85,-153.05C496.06,-149.36 536.06,-144.92 562.82,-141.95"/>
<polygon fill="#9a32cd" stroke="#9a32cd" points="462.88,-149.63 453.33,-154.22 463.65,-156.59 462.88,-149.63"/>
<text text-anchor="middle" x="507.75" y="-153.38" font-family="Helvetica,sans-Serif" font-size="10.00"> history</text>
</g>
<!-- Node9 -->
<g id="node9" class="node">
<title>Node9</title>
<g id="a_node9"><a xlink:href="struct_a_r_label_info.html" target="_top" xlink:title="(description)">
<polygon fill="white" stroke="#666666" points="437.62,-93.25 367.62,-93.25 367.62,-74 437.62,-74 437.62,-93.25"/>
<text text-anchor="middle" x="402.62" y="-79.75" font-family="Helvetica,sans-Serif" font-size="10.00">ARLabelInfo</text>
</a>
</g>
</g>
<!-- Node9&#45;&gt;Node3 -->
<g id="edge11" class="edge">
<title>Node9&#45;&gt;Node3</title>
<path fill="none" stroke="#9a32cd" stroke-dasharray="5,2" d="M448.94,-80.6C477.65,-80.37 514.95,-83.26 545.25,-96.38 561.66,-103.48 576.32,-118.51 584.88,-128.59"/>
<polygon fill="#9a32cd" stroke="#9a32cd" points="448.92,-77.12 439,-80.84 449.07,-84.12 448.92,-77.12"/>
<text text-anchor="middle" x="507.75" y="-98.38" font-family="Helvetica,sans-Serif" font-size="10.00"> labelInfo</text>
</g>
<!-- Node10 -->
<g id="node10" class="node">
<title>Node10</title>
<g id="a_node10"><a xlink:href="struct_a_r_patt_handle.html" target="_top" xlink:title="A structure which holds descriptions of trained patterns for template matching.">
<polygon fill="white" stroke="#666666" points="442.12,-56.25 363.12,-56.25 363.12,-37 442.12,-37 442.12,-56.25"/>
<text text-anchor="middle" x="402.62" y="-42.75" font-family="Helvetica,sans-Serif" font-size="10.00">ARPattHandle</text>
</a>
</g>
</g>
<!-- Node10&#45;&gt;Node3 -->
<g id="edge12" class="edge">
<title>Node10&#45;&gt;Node3</title>
<path fill="none" stroke="#9a32cd" stroke-dasharray="5,2" d="M453.02,-43.73C481.93,-44.31 517.99,-49.14 545.25,-66.38 568.85,-81.3 583.23,-112.68 589.33,-128.72"/>
<polygon fill="#9a32cd" stroke="#9a32cd" points="453.33,-40.23 443.32,-43.7 453.31,-47.23 453.33,-40.23"/>
<text text-anchor="middle" x="507.75" y="-68.38" font-family="Helvetica,sans-Serif" font-size="10.00"> pattHandle</text>
</g>
<!-- Node11 -->
<g id="node11" class="node">
<title>Node11</title>
<g id="a_node11"><a xlink:href="struct___a_r_image_proc_info.html" target="_top" xlink:title="Structure holding settings for an instance of the image&#45;processing pipeline.">
<polygon fill="white" stroke="#666666" points="452.25,-19.25 353,-19.25 353,0 452.25,0 452.25,-19.25"/>
<text text-anchor="middle" x="402.62" y="-5.75" font-family="Helvetica,sans-Serif" font-size="10.00">_ARImageProcInfo</text>
</a>
</g>
</g>
<!-- Node11&#45;&gt;Node3 -->
<g id="edge13" class="edge">
<title>Node11&#45;&gt;Node3</title>
<path fill="none" stroke="#9a32cd" stroke-dasharray="5,2" d="M463.11,-5.74C490.57,-6.9 522.13,-12.75 545.25,-30.38 577.73,-55.14 588.42,-106.81 591.56,-128.6"/>
<polygon fill="#9a32cd" stroke="#9a32cd" points="463.5,-2.23 453.42,-5.52 463.35,-9.23 463.5,-2.23"/>
<text text-anchor="middle" x="507.75" y="-32.38" font-family="Helvetica,sans-Serif" font-size="10.00"> arImageProcInfo</text>
</g>
</g>
</svg>
