<?xml version="1.0" encoding="UTF-8" standalone="no"?>
<!DOCTYPE svg PUBLIC "-//W3C//DTD SVG 1.1//EN"
 "http://www.w3.org/Graphics/SVG/1.1/DTD/svg11.dtd">
<!-- Generated by graphviz version 7.0.5 (20221223.1930)
 -->
<!-- Title: file_in_zip64_read_info_s Pages: 1 -->
<svg width="118pt" height="181pt"
 viewBox="0.00 0.00 118.00 181.00" xmlns="http://www.w3.org/2000/svg" xmlns:xlink="http://www.w3.org/1999/xlink">
<g id="graph0" class="graph" transform="scale(1 1) rotate(0) translate(4 177)">
<title>file_in_zip64_read_info_s</title>
<!-- Node1 -->
<g id="node1" class="node">
<title>Node1</title>
<g id="a_node1"><a xlink:title=" ">
<polygon fill="#999999" stroke="#666666" points="101.5,-30 6.5,-30 6.5,0 101.5,0 101.5,-30"/>
<text text-anchor="start" x="14.5" y="-18" font-family="Helvetica,sans-Serif" font-size="10.00">file_in_zip64_read</text>
<text text-anchor="middle" x="54" y="-7" font-family="Helvetica,sans-Serif" font-size="10.00">_info_s</text>
</a>
</g>
</g>
<!-- Node2 -->
<g id="node2" class="node">
<title>Node2</title>
<g id="a_node2"><a xlink:href="structzlib__filefunc64__32__def__s.html" target="_top" xlink:title=" ">
<polygon fill="white" stroke="#666666" points="101.5,-107 6.5,-107 6.5,-77 101.5,-77 101.5,-107"/>
<text text-anchor="start" x="14.5" y="-95" font-family="Helvetica,sans-Serif" font-size="10.00">zlib_filefunc64_32</text>
<text text-anchor="middle" x="54" y="-84" font-family="Helvetica,sans-Serif" font-size="10.00">_def_s</text>
</a>
</g>
</g>
<!-- Node2&#45;&gt;Node1 -->
<g id="edge1" class="edge">
<title>Node2&#45;&gt;Node1</title>
<path fill="none" stroke="#9a32cd" stroke-dasharray="5,2" d="M54,-65.23C54,-53.58 54,-40.26 54,-30.42"/>
<polygon fill="#9a32cd" stroke="#9a32cd" points="50.5,-65.03 54,-75.03 57.5,-65.03 50.5,-65.03"/>
<text text-anchor="middle" x="77" y="-51" font-family="Helvetica,sans-Serif" font-size="10.00"> z_filefunc</text>
</g>
<!-- Node3 -->
<g id="node3" class="node">
<title>Node3</title>
<g id="a_node3"><a xlink:href="structzlib__filefunc64__def__s.html" target="_top" xlink:title=" ">
<polygon fill="white" stroke="#666666" points="108,-173 0,-173 0,-154 108,-154 108,-173"/>
<text text-anchor="middle" x="54" y="-161" font-family="Helvetica,sans-Serif" font-size="10.00">zlib_filefunc64_def_s</text>
</a>
</g>
</g>
<!-- Node3&#45;&gt;Node2 -->
<g id="edge2" class="edge">
<title>Node3&#45;&gt;Node2</title>
<path fill="none" stroke="#9a32cd" stroke-dasharray="5,2" d="M54,-142.39C54,-131.15 54,-117.41 54,-107.27"/>
<polygon fill="#9a32cd" stroke="#9a32cd" points="50.5,-142.18 54,-152.18 57.5,-142.18 50.5,-142.18"/>
<text text-anchor="middle" x="82" y="-128" font-family="Helvetica,sans-Serif" font-size="10.00"> zfile_func64</text>
</g>
</g>
</svg>
