<?xml version="1.0" encoding="UTF-8" standalone="no"?>
<!DOCTYPE svg PUBLIC "-//W3C//DTD SVG 1.1//EN"
 "http://www.w3.org/Graphics/SVG/1.1/DTD/svg11.dtd">
<!-- Generated by graphviz version 8.0.5 (20230430.1635)
 -->
<!-- Title: ARTrackingHistory Pages: 1 -->
<svg width="125pt" height="160pt"
 viewBox="0.00 0.00 125.12 160.25" xmlns="http://www.w3.org/2000/svg" xmlns:xlink="http://www.w3.org/1999/xlink">
<g id="graph0" class="graph" transform="scale(1 1) rotate(0) translate(4 156.25)">
<title>ARTrackingHistory</title>
<!-- Node1 -->
<g id="node1" class="node">
<title>Node1</title>
<g id="a_node1"><a xlink:title="(description)">
<polygon fill="#999999" stroke="#666666" points="99.25,-19.25 0,-19.25 0,0 99.25,0 99.25,-19.25"/>
<text text-anchor="middle" x="49.62" y="-5.75" font-family="Helvetica,sans-Serif" font-size="10.00">ARTrackingHistory</text>
</a>
</g>
</g>
<!-- Node2 -->
<g id="node2" class="node">
<title>Node2</title>
<g id="a_node2"><a xlink:href="struct_a_r_marker_info.html" target="_top" xlink:title="Describes a detected trapezoidal area (a candidate for a marker match).">
<polygon fill="white" stroke="#666666" points="88,-85.75 11.25,-85.75 11.25,-66.5 88,-66.5 88,-85.75"/>
<text text-anchor="middle" x="49.62" y="-72.25" font-family="Helvetica,sans-Serif" font-size="10.00">ARMarkerInfo</text>
</a>
</g>
</g>
<!-- Node2&#45;&gt;Node1 -->
<g id="edge1" class="edge">
<title>Node2&#45;&gt;Node1</title>
<path fill="none" stroke="#9a32cd" stroke-dasharray="5,2" d="M49.62,-55.4C49.62,-43.43 49.62,-28.73 49.62,-19.52"/>
<polygon fill="#9a32cd" stroke="#9a32cd" points="46.13,-55.16 49.62,-65.16 53.13,-55.16 46.13,-55.16"/>
<text text-anchor="middle" x="66.12" y="-39" font-family="Helvetica,sans-Serif" font-size="10.00"> marker</text>
</g>
<!-- Node3 -->
<g id="node3" class="node">
<title>Node3</title>
<g id="a_node3"><a xlink:href="struct_a_r_marker_info2.html" target="_top" xlink:title="Captures detail of a trapezoidal region which is a candidate for marker detection.">
<polygon fill="white" stroke="#666666" points="90.62,-152.25 8.62,-152.25 8.62,-133 90.62,-133 90.62,-152.25"/>
<text text-anchor="middle" x="49.62" y="-138.75" font-family="Helvetica,sans-Serif" font-size="10.00">ARMarkerInfo2</text>
</a>
</g>
</g>
<!-- Node3&#45;&gt;Node2 -->
<g id="edge2" class="edge">
<title>Node3&#45;&gt;Node2</title>
<path fill="none" stroke="#9a32cd" stroke-dasharray="5,2" d="M49.62,-121.9C49.62,-109.93 49.62,-95.23 49.62,-86.02"/>
<polygon fill="#9a32cd" stroke="#9a32cd" points="46.13,-121.66 49.62,-131.66 53.13,-121.66 46.13,-121.66"/>
<text text-anchor="middle" x="83.38" y="-105.5" font-family="Helvetica,sans-Serif" font-size="10.00"> markerInfo2Ptr</text>
</g>
</g>
</svg>
