<?xml version="1.0" encoding="UTF-8" standalone="no"?>
<!DOCTYPE svg PUBLIC "-//W3C//DTD SVG 1.1//EN"
 "http://www.w3.org/Graphics/SVG/1.1/DTD/svg11.dtd">
<!-- Generated by graphviz version 7.0.5 (20221223.1930)
 -->
<!-- Title: unz64_internal Pages: 1 -->
<svg width="723pt" height="186pt"
 viewBox="0.00 0.00 723.00 185.50" xmlns="http://www.w3.org/2000/svg" xmlns:xlink="http://www.w3.org/1999/xlink">
<g id="graph0" class="graph" transform="scale(1 1) rotate(0) translate(4 181.5)">
<title>unz64_internal</title>
<!-- Node1 -->
<g id="node1" class="node">
<title>Node1</title>
<g id="a_node1"><a xlink:title=" ">
<polygon fill="#999999" stroke="#666666" points="715,-93 635,-93 635,-74 715,-74 715,-93"/>
<text text-anchor="middle" x="675" y="-81" font-family="Helvetica,sans-Serif" font-size="10.00">unz64_internal</text>
</a>
</g>
</g>
<!-- Node2 -->
<g id="node2" class="node">
<title>Node2</title>
<g id="a_node2"><a xlink:href="structzlib__filefunc64__32__def__s.html" target="_top" xlink:title=" ">
<polygon fill="white" stroke="#666666" points="295,-167.5 200,-167.5 200,-137.5 295,-137.5 295,-167.5"/>
<text text-anchor="start" x="208" y="-155.5" font-family="Helvetica,sans-Serif" font-size="10.00">zlib_filefunc64_32</text>
<text text-anchor="middle" x="247.5" y="-144.5" font-family="Helvetica,sans-Serif" font-size="10.00">_def_s</text>
</a>
</g>
</g>
<!-- Node2&#45;&gt;Node1 -->
<g id="edge1" class="edge">
<title>Node2&#45;&gt;Node1</title>
<path fill="none" stroke="#9a32cd" stroke-dasharray="5,2" d="M306.46,-161.33C381.81,-170.1 515.72,-176.32 617,-129.5 636.16,-120.64 654.44,-103.93 664.92,-93.27"/>
<polygon fill="#9a32cd" stroke="#9a32cd" points="307.18,-157.89 296.83,-160.15 306.33,-164.84 307.18,-157.89"/>
<text text-anchor="middle" x="441.5" y="-169.5" font-family="Helvetica,sans-Serif" font-size="10.00"> z_filefunc</text>
</g>
<!-- Node7 -->
<g id="node7" class="node">
<title>Node7</title>
<g id="a_node7"><a xlink:href="structfile__in__zip64__read__info__s.html" target="_top" xlink:title=" ">
<polygon fill="white" stroke="#666666" points="489,-141.5 394,-141.5 394,-111.5 489,-111.5 489,-141.5"/>
<text text-anchor="start" x="402" y="-129.5" font-family="Helvetica,sans-Serif" font-size="10.00">file_in_zip64_read</text>
<text text-anchor="middle" x="441.5" y="-118.5" font-family="Helvetica,sans-Serif" font-size="10.00">_info_s</text>
</a>
</g>
</g>
<!-- Node2&#45;&gt;Node7 -->
<g id="edge7" class="edge">
<title>Node2&#45;&gt;Node7</title>
<path fill="none" stroke="#9a32cd" stroke-dasharray="5,2" d="M306.67,-144.62C334.53,-140.85 367.46,-136.39 393.68,-132.84"/>
<polygon fill="#9a32cd" stroke="#9a32cd" points="306.41,-141.13 296.97,-145.94 307.35,-148.06 306.41,-141.13"/>
<text text-anchor="middle" x="336" y="-145.5" font-family="Helvetica,sans-Serif" font-size="10.00"> z_filefunc</text>
</g>
<!-- Node3 -->
<g id="node3" class="node">
<title>Node3</title>
<g id="a_node3"><a xlink:href="structzlib__filefunc64__def__s.html" target="_top" xlink:title=" ">
<polygon fill="white" stroke="#666666" points="108,-162 0,-162 0,-143 108,-143 108,-162"/>
<text text-anchor="middle" x="54" y="-150" font-family="Helvetica,sans-Serif" font-size="10.00">zlib_filefunc64_def_s</text>
</a>
</g>
</g>
<!-- Node3&#45;&gt;Node2 -->
<g id="edge2" class="edge">
<title>Node3&#45;&gt;Node2</title>
<path fill="none" stroke="#9a32cd" stroke-dasharray="5,2" d="M119.72,-152.5C145.91,-152.5 175.58,-152.5 199.63,-152.5"/>
<polygon fill="#9a32cd" stroke="#9a32cd" points="119.86,-149 109.86,-152.5 119.86,-156 119.86,-149"/>
<text text-anchor="middle" x="154" y="-155.5" font-family="Helvetica,sans-Serif" font-size="10.00"> zfile_func64</text>
</g>
<!-- Node4 -->
<g id="node4" class="node">
<title>Node4</title>
<g id="a_node4"><a xlink:href="structunz__global__info64__s.html" target="_top" xlink:title=" ">
<polygon fill="white" stroke="#666666" points="494,-93 389,-93 389,-74 494,-74 494,-93"/>
<text text-anchor="middle" x="441.5" y="-81" font-family="Helvetica,sans-Serif" font-size="10.00">unz_global_info64_s</text>
</a>
</g>
</g>
<!-- Node4&#45;&gt;Node1 -->
<g id="edge3" class="edge">
<title>Node4&#45;&gt;Node1</title>
<path fill="none" stroke="#9a32cd" stroke-dasharray="5,2" d="M505.76,-83.5C547.01,-83.5 599.53,-83.5 634.82,-83.5"/>
<polygon fill="#9a32cd" stroke="#9a32cd" points="505.97,-80 495.97,-83.5 505.97,-87 505.97,-80"/>
<text text-anchor="middle" x="570.5" y="-86.5" font-family="Helvetica,sans-Serif" font-size="10.00"> gi</text>
</g>
<!-- Node5 -->
<g id="node5" class="node">
<title>Node5</title>
<g id="a_node5"><a xlink:href="structunz__file__info64__s.html" target="_top" xlink:title=" ">
<polygon fill="white" stroke="#666666" points="487.5,-56 395.5,-56 395.5,-37 487.5,-37 487.5,-56"/>
<text text-anchor="middle" x="441.5" y="-44" font-family="Helvetica,sans-Serif" font-size="10.00">unz_file_info64_s</text>
</a>
</g>
</g>
<!-- Node5&#45;&gt;Node1 -->
<g id="edge4" class="edge">
<title>Node5&#45;&gt;Node1</title>
<path fill="none" stroke="#9a32cd" stroke-dasharray="5,2" d="M499.17,-51.73C533.45,-55.37 577.95,-60.93 617,-68.5 624.23,-69.9 631.91,-71.7 639.2,-73.56"/>
<polygon fill="#9a32cd" stroke="#9a32cd" points="499.77,-48.28 489.46,-50.73 499.05,-55.24 499.77,-48.28"/>
<text text-anchor="middle" x="570.5" y="-71.5" font-family="Helvetica,sans-Serif" font-size="10.00"> cur_file_info</text>
</g>
<!-- Node6 -->
<g id="node6" class="node">
<title>Node6</title>
<g id="a_node6"><a xlink:href="structunz__file__info64__internal__s.html" target="_top" xlink:title=" ">
<polygon fill="white" stroke="#666666" points="506,-19 377,-19 377,0 506,0 506,-19"/>
<text text-anchor="middle" x="441.5" y="-7" font-family="Helvetica,sans-Serif" font-size="10.00">unz_file_info64_internal_s</text>
</a>
</g>
</g>
<!-- Node6&#45;&gt;Node1 -->
<g id="edge5" class="edge">
<title>Node6&#45;&gt;Node1</title>
<path fill="none" stroke="#9a32cd" stroke-dasharray="5,2" d="M517.76,-15.05C549.4,-19.35 585.98,-26.98 617,-40.5 635.41,-48.52 653.34,-63.61 664.03,-73.61"/>
<polygon fill="#9a32cd" stroke="#9a32cd" points="518.21,-11.58 507.86,-13.8 517.34,-18.53 518.21,-11.58"/>
<text text-anchor="middle" x="570.5" y="-43.5" font-family="Helvetica,sans-Serif" font-size="10.00"> cur_file_info_internal</text>
</g>
<!-- Node7&#45;&gt;Node1 -->
<g id="edge6" class="edge">
<title>Node7&#45;&gt;Node1</title>
<path fill="none" stroke="#9a32cd" stroke-dasharray="5,2" d="M500.55,-118.64C534.62,-113.67 578.43,-106.65 617,-98.5 623.91,-97.04 631.23,-95.28 638.25,-93.48"/>
<polygon fill="#9a32cd" stroke="#9a32cd" points="500.29,-115.15 490.89,-120.04 501.29,-122.07 500.29,-115.15"/>
<text text-anchor="middle" x="570.5" y="-117.5" font-family="Helvetica,sans-Serif" font-size="10.00"> pfile_in_zip_read</text>
</g>
</g>
</svg>
