<?xml version="1.0" encoding="UTF-8" standalone="no"?>
<!DOCTYPE svg PUBLIC "-//W3C//DTD SVG 1.1//EN"
 "http://www.w3.org/Graphics/SVG/1.1/DTD/svg11.dtd">
<!-- Generated by graphviz version 8.0.5 (20230430.1635)
 -->
<!-- Title: AR2SurfaceT Pages: 1 -->
<svg width="304pt" height="227pt"
 viewBox="0.00 0.00 304.00 226.75" xmlns="http://www.w3.org/2000/svg" xmlns:xlink="http://www.w3.org/1999/xlink">
<g id="graph0" class="graph" transform="scale(1 1) rotate(0) translate(4 222.75)">
<title>AR2SurfaceT</title>
<!-- Node1 -->
<g id="node1" class="node">
<title>Node1</title>
<g id="a_node1"><a xlink:title=" ">
<polygon fill="#999999" stroke="#666666" points="184.38,-19.25 109.12,-19.25 109.12,0 184.38,0 184.38,-19.25"/>
<text text-anchor="middle" x="146.75" y="-5.75" font-family="Helvetica,sans-Serif" font-size="10.00">AR2SurfaceT</text>
</a>
</g>
</g>
<!-- Node2 -->
<g id="node2" class="node">
<title>Node2</title>
<g id="a_node2"><a xlink:href="struct_a_r2_image_set_t.html" target="_top" xlink:title=" ">
<polygon fill="white" stroke="#666666" points="83.5,-85.75 0,-85.75 0,-66.5 83.5,-66.5 83.5,-85.75"/>
<text text-anchor="middle" x="41.75" y="-72.25" font-family="Helvetica,sans-Serif" font-size="10.00">AR2ImageSetT</text>
</a>
</g>
</g>
<!-- Node2&#45;&gt;Node1 -->
<g id="edge1" class="edge">
<title>Node2&#45;&gt;Node1</title>
<path fill="none" stroke="#9a32cd" stroke-dasharray="5,2" d="M63.47,-60.01C73.92,-52.89 86.72,-44.41 98.5,-37.25 108.64,-31.09 120.27,-24.65 129.58,-19.64"/>
<polygon fill="#9a32cd" stroke="#9a32cd" points="61.88,-57.54 55.62,-66.08 65.85,-63.31 61.88,-57.54"/>
<text text-anchor="middle" x="120.88" y="-39" font-family="Helvetica,sans-Serif" font-size="10.00"> imageSet</text>
</g>
<!-- Node3 -->
<g id="node3" class="node">
<title>Node3</title>
<g id="a_node3"><a xlink:href="struct_a_r2_image_t.html" target="_top" xlink:title=" ">
<polygon fill="white" stroke="#666666" points="76,-152.25 7.5,-152.25 7.5,-133 76,-133 76,-152.25"/>
<text text-anchor="middle" x="41.75" y="-138.75" font-family="Helvetica,sans-Serif" font-size="10.00">AR2ImageT</text>
</a>
</g>
</g>
<!-- Node3&#45;&gt;Node2 -->
<g id="edge2" class="edge">
<title>Node3&#45;&gt;Node2</title>
<path fill="none" stroke="#9a32cd" stroke-dasharray="5,2" d="M41.75,-121.9C41.75,-109.93 41.75,-95.23 41.75,-86.02"/>
<polygon fill="#9a32cd" stroke="#9a32cd" points="38.25,-121.66 41.75,-131.66 45.25,-121.66 38.25,-121.66"/>
<text text-anchor="middle" x="54.88" y="-105.5" font-family="Helvetica,sans-Serif" font-size="10.00"> scale</text>
</g>
<!-- Node4 -->
<g id="node4" class="node">
<title>Node4</title>
<g id="a_node4"><a xlink:href="struct_a_r2_feature_set_t.html" target="_top" xlink:title=" ">
<polygon fill="white" stroke="#666666" points="191.5,-85.75 102,-85.75 102,-66.5 191.5,-66.5 191.5,-85.75"/>
<text text-anchor="middle" x="146.75" y="-72.25" font-family="Helvetica,sans-Serif" font-size="10.00">AR2FeatureSetT</text>
</a>
</g>
</g>
<!-- Node4&#45;&gt;Node1 -->
<g id="edge3" class="edge">
<title>Node4&#45;&gt;Node1</title>
<path fill="none" stroke="#9a32cd" stroke-dasharray="5,2" d="M146.75,-55.4C146.75,-43.43 146.75,-28.73 146.75,-19.52"/>
<polygon fill="#9a32cd" stroke="#9a32cd" points="143.25,-55.16 146.75,-65.16 150.25,-55.16 143.25,-55.16"/>
<text text-anchor="middle" x="170.75" y="-39" font-family="Helvetica,sans-Serif" font-size="10.00"> featureSet</text>
</g>
<!-- Node5 -->
<g id="node5" class="node">
<title>Node5</title>
<g id="a_node5"><a xlink:href="struct_a_r2_feature_points_t.html" target="_top" xlink:title=" ">
<polygon fill="white" stroke="#666666" points="197.88,-152.25 95.62,-152.25 95.62,-133 197.88,-133 197.88,-152.25"/>
<text text-anchor="middle" x="146.75" y="-138.75" font-family="Helvetica,sans-Serif" font-size="10.00">AR2FeaturePointsT</text>
</a>
</g>
</g>
<!-- Node5&#45;&gt;Node4 -->
<g id="edge4" class="edge">
<title>Node5&#45;&gt;Node4</title>
<path fill="none" stroke="#9a32cd" stroke-dasharray="5,2" d="M146.75,-121.9C146.75,-109.93 146.75,-95.23 146.75,-86.02"/>
<polygon fill="#9a32cd" stroke="#9a32cd" points="143.25,-121.66 146.75,-131.66 150.25,-121.66 143.25,-121.66"/>
<text text-anchor="middle" x="154.62" y="-105.5" font-family="Helvetica,sans-Serif" font-size="10.00"> list</text>
</g>
<!-- Node6 -->
<g id="node6" class="node">
<title>Node6</title>
<g id="a_node6"><a xlink:href="struct_a_r2_feature_coord_t.html" target="_top" xlink:title=" ">
<polygon fill="white" stroke="#666666" points="197.12,-218.75 96.38,-218.75 96.38,-199.5 197.12,-199.5 197.12,-218.75"/>
<text text-anchor="middle" x="146.75" y="-205.25" font-family="Helvetica,sans-Serif" font-size="10.00">AR2FeatureCoordT</text>
</a>
</g>
</g>
<!-- Node6&#45;&gt;Node5 -->
<g id="edge5" class="edge">
<title>Node6&#45;&gt;Node5</title>
<path fill="none" stroke="#9a32cd" stroke-dasharray="5,2" d="M146.75,-188.4C146.75,-176.43 146.75,-161.73 146.75,-152.52"/>
<polygon fill="#9a32cd" stroke="#9a32cd" points="143.25,-188.16 146.75,-198.16 150.25,-188.16 143.25,-188.16"/>
<text text-anchor="middle" x="160.25" y="-172" font-family="Helvetica,sans-Serif" font-size="10.00"> coord</text>
</g>
<!-- Node7 -->
<g id="node7" class="node">
<title>Node7</title>
<g id="a_node7"><a xlink:href="struct_a_r2_marker_set_t.html" target="_top" xlink:title=" ">
<polygon fill="white" stroke="#666666" points="296,-85.75 209.5,-85.75 209.5,-66.5 296,-66.5 296,-85.75"/>
<text text-anchor="middle" x="252.75" y="-72.25" font-family="Helvetica,sans-Serif" font-size="10.00">AR2MarkerSetT</text>
</a>
</g>
</g>
<!-- Node7&#45;&gt;Node1 -->
<g id="edge6" class="edge">
<title>Node7&#45;&gt;Node1</title>
<path fill="none" stroke="#9a32cd" stroke-dasharray="5,2" d="M232.35,-59.81C222.43,-52.63 210.2,-44.15 198.75,-37.25 188.15,-30.86 175.85,-24.52 165.87,-19.62"/>
<polygon fill="#9a32cd" stroke="#9a32cd" points="229.93,-63.11 240.06,-66.21 234.07,-57.47 229.93,-63.11"/>
<text text-anchor="middle" x="239.75" y="-39" font-family="Helvetica,sans-Serif" font-size="10.00"> markerSet</text>
</g>
<!-- Node8 -->
<g id="node8" class="node">
<title>Node8</title>
<g id="a_node8"><a xlink:href="struct_a_r2_marker_t.html" target="_top" xlink:title=" ">
<polygon fill="white" stroke="#666666" points="288.5,-152.25 217,-152.25 217,-133 288.5,-133 288.5,-152.25"/>
<text text-anchor="middle" x="252.75" y="-138.75" font-family="Helvetica,sans-Serif" font-size="10.00">AR2MarkerT</text>
</a>
</g>
</g>
<!-- Node8&#45;&gt;Node7 -->
<g id="edge7" class="edge">
<title>Node8&#45;&gt;Node7</title>
<path fill="none" stroke="#9a32cd" stroke-dasharray="5,2" d="M252.75,-121.9C252.75,-109.93 252.75,-95.23 252.75,-86.02"/>
<polygon fill="#9a32cd" stroke="#9a32cd" points="249.25,-121.66 252.75,-131.66 256.25,-121.66 249.25,-121.66"/>
<text text-anchor="middle" x="269.25" y="-105.5" font-family="Helvetica,sans-Serif" font-size="10.00"> marker</text>
</g>
</g>
</svg>
