<?xml version="1.0" encoding="UTF-8" standalone="no"?>
<!DOCTYPE svg PUBLIC "-//W3C//DTD SVG 1.1//EN"
 "http://www.w3.org/Graphics/SVG/1.1/DTD/svg11.dtd">
<!-- Generated by graphviz version 2.40.1 (20161225.0304)
 -->
<!-- Title: Source/ARX/AR2/surface.c Pages: 1 -->
<!--zoomable 412 -->
<svg id="main" version="1.1" xmlns="http://www.w3.org/2000/svg" xmlns:xlink="http://www.w3.org/1999/xlink" xml:space="preserve" onload="init(evt)">
<style type="text/css"><![CDATA[
.edge:hover path { stroke: red; }
.edge:hover polygon { stroke: red; fill: red; }
]]></style>
<script type="text/javascript"><![CDATA[
var edges = document.getElementsByTagName('g');
if (edges && edges.length) {
  for (var i=0;i<edges.length;i++) {
    if (edges[i].id.substr(0,4)=='edge') {
      edges[i].setAttribute('class','edge');
    }
  }
}
]]></script>
        <defs>
                <circle id="rim" cx="0" cy="0" r="7"/>
                <circle id="rim2" cx="0" cy="0" r="3.5"/>
                <g id="zoomPlus">
                        <use xlink:href="#rim" fill="#404040">
                                <set attributeName="fill" to="#808080" begin="zoomplus.mouseover" end="zoomplus.mouseout"/>
                        </use>
                        <path d="M-4,0h8M0,-4v8" fill="none" stroke="white" stroke-width="1.5" pointer-events="none"/>
                </g>
                <g id="zoomMin">
                        <use xlink:href="#rim" fill="#404040">
                                <set attributeName="fill" to="#808080" begin="zoomminus.mouseover" end="zoomminus.mouseout"/>
                        </use>
                        <path d="M-4,0h8" fill="none" stroke="white" stroke-width="1.5" pointer-events="none"/>
                </g>
                <g id="dirArrow">
                        <path fill="none" stroke="white" stroke-width="1.5" d="M0,-3.0v7 M-2.5,-0.5L0,-3.0L2.5,-0.5"/>
                </g>
               <g id="resetDef">
                       <use xlink:href="#rim2" fill="#404040">
                               <set attributeName="fill" to="#808080" begin="reset.mouseover" end="reset.mouseout"/>
                       </use>
               </g>
        </defs>

<script type="text/javascript">
var viewWidth = 1033;
var viewHeight = 412;
var sectionId = 'dynsection-0';
</script>
<script xlink:href="svgpan.js"/>
<svg id="graph" class="graph">
<g id="viewport">
<title>Source/ARX/AR2/surface.c</title>
<polygon fill="#ffffff" stroke="transparent" points="-4,4 -4,-408 1029.4038,-408 1029.4038,4 -4,4"/>
<!-- Node0 -->
<g id="node1" class="node">
<title>Node0</title>
<polygon fill="#bfbfbf" stroke="#000000" points="183.6973,-385.5 183.6973,-403.5 320.3027,-403.5 320.3027,-385.5 183.6973,-385.5"/>
<text text-anchor="middle" x="252" y="-391.5" font-family="Helvetica,sans-Serif" font-size="10.00" fill="#000000">Source/ARX/AR2/surface.c</text>
</g>
<!-- Node1 -->
<g id="node2" class="node">
<title>Node1</title>
<g id="a_node2"><a xlink:href="ar_8h.html" target="_top" xlink:title="artoolkitX core routines. ">
<polygon fill="#ffffff" stroke="#000000" points="478.6528,-110.5 478.6528,-128.5 551.3472,-128.5 551.3472,-110.5 478.6528,-110.5"/>
<text text-anchor="middle" x="515" y="-116.5" font-family="Helvetica,sans-Serif" font-size="10.00" fill="#000000">ARX/AR/ar.h</text>
</a>
</g>
</g>
<!-- Node0&#45;&gt;Node1 -->
<g id="edge1" class="edge">
<title>Node0&#45;&gt;Node1</title>
<path fill="none" stroke="#191970" d="M320.4045,-391.5059C394.0514,-386.9368 504.9766,-375.7298 537,-349 602.8265,-294.0548 638.1123,-239.1176 595,-165 586.2846,-150.0167 570.5895,-139.5614 555.3953,-132.4872"/>
<polygon fill="#191970" stroke="#191970" points="556.6379,-129.2122 546.0664,-128.5092 553.8922,-135.6512 556.6379,-129.2122"/>
</g>
<!-- Node2 -->
<g id="node3" class="node">
<title>Node2</title>
<polygon fill="#ffffff" stroke="#bfbfbf" points="863.2686,-.5 863.2686,-18.5 908.7314,-18.5 908.7314,-.5 863.2686,-.5"/>
<text text-anchor="middle" x="886" y="-6.5" font-family="Helvetica,sans-Serif" font-size="10.00" fill="#000000">stdio.h</text>
</g>
<!-- Node0&#45;&gt;Node2 -->
<g id="edge25" class="edge">
<title>Node0&#45;&gt;Node2</title>
<path fill="none" stroke="#191970" d="M320.3141,-391.8218C508.0568,-383.5584 1018,-354.6561 1018,-284.5 1018,-284.5 1018,-284.5 1018,-119.5 1018,-89.6154 1019.0897,-77.1244 999,-55 993.2591,-48.6777 949.7795,-32.2207 918.4679,-20.9345"/>
<polygon fill="#191970" stroke="#191970" points="919.3872,-17.5461 908.7926,-17.4712 917.028,-24.1366 919.3872,-17.5461"/>
</g>
<!-- Node3 -->
<g id="node4" class="node">
<title>Node3</title>
<polygon fill="#ffffff" stroke="#bfbfbf" points="52.1577,-.5 52.1577,-18.5 99.8423,-18.5 99.8423,-.5 52.1577,-.5"/>
<text text-anchor="middle" x="76" y="-6.5" font-family="Helvetica,sans-Serif" font-size="10.00" fill="#000000">stdlib.h</text>
</g>
<!-- Node0&#45;&gt;Node3 -->
<g id="edge27" class="edge">
<title>Node0&#45;&gt;Node3</title>
<path fill="none" stroke="#191970" d="M193.453,-385.4223C143.5084,-376.9034 76.2091,-363.3535 53,-349 21.444,-329.4844 0,-321.6031 0,-284.5 0,-284.5 0,-284.5 0,-119.5 0,-80.0142 33.5575,-44.4341 56.0753,-25.0039"/>
<polygon fill="#191970" stroke="#191970" points="58.3316,-27.6798 63.7893,-18.5988 53.8598,-22.2943 58.3316,-27.6798"/>
</g>
<!-- Node5 -->
<g id="node6" class="node">
<title>Node5</title>
<polygon fill="#ffffff" stroke="#bfbfbf" points="319.6035,-.5 319.6035,-18.5 368.3965,-18.5 368.3965,-.5 319.6035,-.5"/>
<text text-anchor="middle" x="344" y="-6.5" font-family="Helvetica,sans-Serif" font-size="10.00" fill="#000000">string.h</text>
</g>
<!-- Node0&#45;&gt;Node5 -->
<g id="edge26" class="edge">
<title>Node0&#45;&gt;Node5</title>
<path fill="none" stroke="#191970" d="M183.406,-387.7467C120.8119,-377.35 38,-351.0244 38,-284.5 38,-284.5 38,-284.5 38,-119.5 38,-81.2436 61.6848,-73.8058 95,-55 131.1916,-34.5705 249.8294,-19.4915 309.3275,-13.0088"/>
<polygon fill="#191970" stroke="#191970" points="309.803,-16.478 319.3743,-11.9348 309.0589,-9.5177 309.803,-16.478"/>
</g>
<!-- Node18 -->
<g id="node19" class="node">
<title>Node18</title>
<g id="a_node19"><a xlink:href="coord_8h.html" target="_top" xlink:title="ARX/AR2/coord.h">
<polygon fill="#ffffff" stroke="#000000" points="129.5371,-275.5 129.5371,-293.5 224.4629,-293.5 224.4629,-275.5 129.5371,-275.5"/>
<text text-anchor="middle" x="177" y="-281.5" font-family="Helvetica,sans-Serif" font-size="10.00" fill="#000000">ARX/AR2/coord.h</text>
</a>
</g>
</g>
<!-- Node0&#45;&gt;Node18 -->
<g id="edge28" class="edge">
<title>Node0&#45;&gt;Node18</title>
<path fill="none" stroke="#191970" d="M245.8624,-385.4982C233.4467,-367.2885 205.1577,-325.798 188.9657,-302.0496"/>
<polygon fill="#191970" stroke="#191970" points="191.7476,-299.9167 183.2224,-293.6261 185.964,-303.8601 191.7476,-299.9167"/>
</g>
<!-- Node21 -->
<g id="node22" class="node">
<title>Node21</title>
<g id="a_node22"><a xlink:href="feature_set_8h.html" target="_top" xlink:title="ARX/AR2/featureSet.h">
<polygon fill="#ffffff" stroke="#000000" points="205.9731,-220.5 205.9731,-238.5 322.0269,-238.5 322.0269,-220.5 205.9731,-220.5"/>
<text text-anchor="middle" x="264" y="-226.5" font-family="Helvetica,sans-Serif" font-size="10.00" fill="#000000">ARX/AR2/featureSet.h</text>
</a>
</g>
</g>
<!-- Node0&#45;&gt;Node21 -->
<g id="edge36" class="edge">
<title>Node0&#45;&gt;Node21</title>
<path fill="none" stroke="#191970" d="M252.6796,-385.1561C254.5854,-358.9504 260.0105,-284.3557 262.5962,-248.8021"/>
<polygon fill="#191970" stroke="#191970" points="266.0932,-248.969 263.3279,-238.7414 259.1117,-248.4611 266.0932,-248.969"/>
</g>
<!-- Node22 -->
<g id="node23" class="node">
<title>Node22</title>
<g id="a_node23"><a xlink:href="template_8h.html" target="_top" xlink:title="ARX/AR2/template.h">
<polygon fill="#ffffff" stroke="#000000" points="317.8672,-275.5 317.8672,-293.5 426.1328,-293.5 426.1328,-275.5 317.8672,-275.5"/>
<text text-anchor="middle" x="372" y="-281.5" font-family="Helvetica,sans-Serif" font-size="10.00" fill="#000000">ARX/AR2/template.h</text>
</a>
</g>
</g>
<!-- Node0&#45;&gt;Node22 -->
<g id="edge37" class="edge">
<title>Node0&#45;&gt;Node22</title>
<path fill="none" stroke="#191970" d="M261.8201,-385.4982C282.1248,-366.8856 328.9628,-323.9508 354.5456,-300.4999"/>
<polygon fill="#191970" stroke="#191970" points="357.0377,-302.9635 362.0442,-293.6261 352.3076,-297.8034 357.0377,-302.9635"/>
</g>
<!-- Node23 -->
<g id="node24" class="node">
<title>Node23</title>
<g id="a_node24"><a xlink:href="tracking_8h.html" target="_top" xlink:title="ARX/AR2/tracking.h">
<polygon fill="#ffffff" stroke="#000000" points="423.5371,-330.5 423.5371,-348.5 528.4629,-348.5 528.4629,-330.5 423.5371,-330.5"/>
<text text-anchor="middle" x="476" y="-336.5" font-family="Helvetica,sans-Serif" font-size="10.00" fill="#000000">ARX/AR2/tracking.h</text>
</a>
</g>
</g>
<!-- Node0&#45;&gt;Node23 -->
<g id="edge42" class="edge">
<title>Node0&#45;&gt;Node23</title>
<path fill="none" stroke="#191970" d="M288.989,-385.4179C327.446,-375.9753 387.7398,-361.171 429.4206,-350.9369"/>
<polygon fill="#191970" stroke="#191970" points="430.4514,-354.2879 439.3283,-348.5042 428.7822,-347.4898 430.4514,-354.2879"/>
</g>
<!-- Node26 -->
<g id="node27" class="node">
<title>Node26</title>
<g id="a_node27"><a xlink:href="util_8h.html" target="_top" xlink:title="ARX/AR2/util.h">
<polygon fill="#ffffff" stroke="#000000" points="83.6528,-330.5 83.6528,-348.5 166.3472,-348.5 166.3472,-330.5 83.6528,-330.5"/>
<text text-anchor="middle" x="125" y="-336.5" font-family="Helvetica,sans-Serif" font-size="10.00" fill="#000000">ARX/AR2/util.h</text>
</a>
</g>
</g>
<!-- Node0&#45;&gt;Node26 -->
<g id="edge53" class="edge">
<title>Node0&#45;&gt;Node26</title>
<path fill="none" stroke="#191970" d="M231.0285,-385.4179C210.4389,-376.5011 178.8089,-362.803 155.4506,-352.6873"/>
<polygon fill="#191970" stroke="#191970" points="156.57,-349.358 146.0026,-348.5956 153.7881,-355.7815 156.57,-349.358"/>
</g>
<!-- Node1&#45;&gt;Node2 -->
<g id="edge2" class="edge">
<title>Node1&#45;&gt;Node2</title>
<path fill="none" stroke="#191970" d="M551.4039,-116.3267C619.553,-109.9851 763.6009,-94.5696 809,-74 833.66,-62.8269 856.7289,-41.484 871.0671,-26.4154"/>
<polygon fill="#191970" stroke="#191970" points="873.8873,-28.5198 878.0893,-18.7938 868.7392,-23.7766 873.8873,-28.5198"/>
</g>
<!-- Node1&#45;&gt;Node3 -->
<g id="edge3" class="edge">
<title>Node1&#45;&gt;Node3</title>
<path fill="none" stroke="#191970" d="M478.502,-116.6479C379.0433,-108.7304 109.6677,-86.2574 95,-74 81.8659,-63.0241 77.5441,-43.4622 76.2487,-28.7502"/>
<polygon fill="#191970" stroke="#191970" points="79.7399,-28.4834 75.7521,-18.6677 72.7483,-28.8278 79.7399,-28.4834"/>
</g>
<!-- Node4 -->
<g id="node5" class="node">
<title>Node4</title>
<polygon fill="#ffffff" stroke="#bfbfbf" points="481.8794,-55.5 481.8794,-73.5 530.1206,-73.5 530.1206,-55.5 481.8794,-55.5"/>
<text text-anchor="middle" x="506" y="-61.5" font-family="Helvetica,sans-Serif" font-size="10.00" fill="#000000">stdint.h</text>
</g>
<!-- Node1&#45;&gt;Node4 -->
<g id="edge4" class="edge">
<title>Node1&#45;&gt;Node4</title>
<path fill="none" stroke="#191970" d="M513.5138,-110.4179C512.3354,-103.2164 510.6466,-92.8962 509.1685,-83.8632"/>
<polygon fill="#191970" stroke="#191970" points="512.5875,-83.083 507.5185,-73.7795 505.6794,-84.2134 512.5875,-83.083"/>
</g>
<!-- Node1&#45;&gt;Node5 -->
<g id="edge5" class="edge">
<title>Node1&#45;&gt;Node5</title>
<path fill="none" stroke="#191970" d="M478.5438,-112.7359C438.9677,-104.6959 379.2283,-90.2996 363,-74 351.1717,-62.1198 346.635,-43.2709 344.9314,-29.0105"/>
<polygon fill="#191970" stroke="#191970" points="348.3977,-28.4568 344.0873,-18.7784 341.4214,-29.0323 348.3977,-28.4568"/>
</g>
<!-- Node6 -->
<g id="node7" class="node">
<title>Node6</title>
<polygon fill="#ffffff" stroke="#bfbfbf" points="754.4829,-.5 754.4829,-18.5 845.5171,-18.5 845.5171,-.5 754.4829,-.5"/>
<text text-anchor="middle" x="800" y="-6.5" font-family="Helvetica,sans-Serif" font-size="10.00" fill="#000000">ARX/AR/config.h</text>
</g>
<!-- Node1&#45;&gt;Node6 -->
<g id="edge6" class="edge">
<title>Node1&#45;&gt;Node6</title>
<path fill="none" stroke="#191970" d="M551.401,-118.5248C618.1138,-115.9488 756.1526,-106.7045 789,-74 800.5605,-62.4898 802.6123,-43.5958 802.1857,-29.2245"/>
<polygon fill="#191970" stroke="#191970" points="805.6515,-28.6206 801.4465,-18.896 798.6694,-29.1203 805.6515,-28.6206"/>
</g>
<!-- Node7 -->
<g id="node8" class="node">
<title>Node7</title>
<g id="a_node8"><a xlink:href="ar_config_8h.html" target="_top" xlink:title="ARX/AR/arConfig.h">
<polygon fill="#ffffff" stroke="#000000" points="103.9263,-55.5 103.9263,-73.5 206.0737,-73.5 206.0737,-55.5 103.9263,-55.5"/>
<text text-anchor="middle" x="155" y="-61.5" font-family="Helvetica,sans-Serif" font-size="10.00" fill="#000000">ARX/AR/arConfig.h</text>
</a>
</g>
</g>
<!-- Node1&#45;&gt;Node7 -->
<g id="edge7" class="edge">
<title>Node1&#45;&gt;Node7</title>
<path fill="none" stroke="#191970" d="M478.5058,-114.0433C423.8378,-105.8522 317.1666,-89.8031 216.4256,-74.2138"/>
<polygon fill="#191970" stroke="#191970" points="216.8015,-70.7303 206.3835,-72.6583 215.7299,-77.6478 216.8015,-70.7303"/>
</g>
<!-- Node8 -->
<g id="node9" class="node">
<title>Node8</title>
<g id="a_node9"><a xlink:href="log_8h.html" target="_top" xlink:title="Logging utilities. ">
<polygon fill="#ffffff" stroke="#000000" points="371.9312,-55.5 371.9312,-73.5 464.0688,-73.5 464.0688,-55.5 371.9312,-55.5"/>
<text text-anchor="middle" x="418" y="-61.5" font-family="Helvetica,sans-Serif" font-size="10.00" fill="#000000">ARX/ARUtil/log.h</text>
</a>
</g>
</g>
<!-- Node1&#45;&gt;Node8 -->
<g id="edge8" class="edge">
<title>Node1&#45;&gt;Node8</title>
<path fill="none" stroke="#191970" d="M498.9824,-110.4179C483.8181,-101.8195 460.8129,-88.7754 443.1925,-78.7844"/>
<polygon fill="#191970" stroke="#191970" points="444.4667,-75.4834 434.0414,-73.5956 441.014,-81.5727 444.4667,-75.4834"/>
</g>
<!-- Node12 -->
<g id="node13" class="node">
<title>Node12</title>
<g id="a_node13"><a xlink:href="matrix_8h.html" target="_top" xlink:title="ARX/AR/matrix.h">
<polygon fill="#ffffff" stroke="#000000" points="548.2144,-55.5 548.2144,-73.5 639.7856,-73.5 639.7856,-55.5 548.2144,-55.5"/>
<text text-anchor="middle" x="594" y="-61.5" font-family="Helvetica,sans-Serif" font-size="10.00" fill="#000000">ARX/AR/matrix.h</text>
</a>
</g>
</g>
<!-- Node1&#45;&gt;Node12 -->
<g id="edge15" class="edge">
<title>Node1&#45;&gt;Node12</title>
<path fill="none" stroke="#191970" d="M528.0452,-110.4179C540.1669,-101.9788 558.44,-89.257 572.6807,-79.3426"/>
<polygon fill="#191970" stroke="#191970" points="574.7282,-82.1818 580.9354,-73.5956 570.7286,-76.4369 574.7282,-82.1818"/>
</g>
<!-- Node14 -->
<g id="node15" class="node">
<title>Node14</title>
<g id="a_node15"><a xlink:href="icp_8h.html" target="_top" xlink:title="ARX/AR/icp.h">
<polygon fill="#ffffff" stroke="#000000" points="912.4336,-55.5 912.4336,-73.5 989.5664,-73.5 989.5664,-55.5 912.4336,-55.5"/>
<text text-anchor="middle" x="951" y="-61.5" font-family="Helvetica,sans-Serif" font-size="10.00" fill="#000000">ARX/AR/icp.h</text>
</a>
</g>
</g>
<!-- Node1&#45;&gt;Node14 -->
<g id="edge17" class="edge">
<title>Node1&#45;&gt;Node14</title>
<path fill="none" stroke="#191970" d="M551.5336,-115.8866C619.7719,-108.9763 771.1685,-92.8838 898,-74 899.3002,-73.8064 900.6175,-73.6054 901.9461,-73.3984"/>
<polygon fill="#191970" stroke="#191970" points="902.9499,-76.7811 912.2562,-71.7173 901.8232,-69.8723 902.9499,-76.7811"/>
</g>
<!-- Node16 -->
<g id="node17" class="node">
<title>Node16</title>
<g id="a_node17"><a xlink:href="param_8h.html" target="_top" xlink:title="artoolkitX functions for handling calibrated camera parameters. ">
<polygon fill="#ffffff" stroke="#000000" points="223.6528,-55.5 223.6528,-73.5 316.3472,-73.5 316.3472,-55.5 223.6528,-55.5"/>
<text text-anchor="middle" x="270" y="-61.5" font-family="Helvetica,sans-Serif" font-size="10.00" fill="#000000">ARX/AR/param.h</text>
</a>
</g>
</g>
<!-- Node1&#45;&gt;Node16 -->
<g id="edge20" class="edge">
<title>Node1&#45;&gt;Node16</title>
<path fill="none" stroke="#191970" d="M478.5049,-112.3661C434.8711,-103.1051 362.0986,-86.8336 315.0313,-75.8634"/>
<polygon fill="#191970" stroke="#191970" points="315.6422,-72.4118 305.1075,-73.5391 314.0458,-79.2274 315.6422,-72.4118"/>
</g>
<!-- Node17 -->
<g id="node18" class="node">
<title>Node17</title>
<g id="a_node18"><a xlink:href="ar_image_proc_8h.html" target="_top" xlink:title="artoolkitX functions for 2D luminance image processing. ">
<polygon fill="#ffffff" stroke="#000000" points="658.2021,-55.5 658.2021,-73.5 779.7979,-73.5 779.7979,-55.5 658.2021,-55.5"/>
<text text-anchor="middle" x="719" y="-61.5" font-family="Helvetica,sans-Serif" font-size="10.00" fill="#000000">ARX/AR/arImageProc.h</text>
</a>
</g>
</g>
<!-- Node1&#45;&gt;Node17 -->
<g id="edge22" class="edge">
<title>Node1&#45;&gt;Node17</title>
<path fill="none" stroke="#191970" d="M543.5201,-110.4179C576.5178,-100.9953 631.1223,-86.2336 670.7285,-76.0019"/>
<polygon fill="#191970" stroke="#191970" points="671.6376,-79.3821 680.4525,-73.5042 669.8961,-72.6022 671.6376,-79.3821"/>
</g>
<!-- Node8&#45;&gt;Node2 -->
<g id="edge9" class="edge">
<title>Node8&#45;&gt;Node2</title>
<path fill="none" stroke="#191970" d="M464.1739,-56.2588C467.157,-55.8086 470.1185,-55.3841 473,-55 638.8163,-32.8996 685.9391,-51.4198 853.2295,-19.0276"/>
<polygon fill="#191970" stroke="#191970" points="853.974,-22.4483 863.1098,-17.0829 852.6221,-15.5801 853.974,-22.4483"/>
</g>
<!-- Node8&#45;&gt;Node3 -->
<g id="edge10" class="edge">
<title>Node8&#45;&gt;Node3</title>
<path fill="none" stroke="#191970" d="M371.8764,-57.0825C302.2446,-45.8844 171.8705,-24.9178 110.1127,-14.986"/>
<polygon fill="#191970" stroke="#191970" points="110.5372,-11.5093 100.1083,-13.3771 109.4257,-18.4205 110.5372,-11.5093"/>
</g>
<!-- Node8&#45;&gt;Node5 -->
<g id="edge11" class="edge">
<title>Node8&#45;&gt;Node5</title>
<path fill="none" stroke="#191970" d="M405.7804,-55.4179C394.5331,-47.0584 377.6318,-34.4966 364.3485,-24.6239"/>
<polygon fill="#191970" stroke="#191970" points="366.3516,-21.7518 356.2377,-18.5956 362.1759,-27.37 366.3516,-21.7518"/>
</g>
<!-- Node9 -->
<g id="node10" class="node">
<title>Node9</title>
<polygon fill="#ffffff" stroke="#bfbfbf" points="388.9336,-.5 388.9336,-18.5 441.0664,-18.5 441.0664,-.5 388.9336,-.5"/>
<text text-anchor="middle" x="415" y="-6.5" font-family="Helvetica,sans-Serif" font-size="10.00" fill="#000000">stdarg.h</text>
</g>
<!-- Node8&#45;&gt;Node9 -->
<g id="edge12" class="edge">
<title>Node8&#45;&gt;Node9</title>
<path fill="none" stroke="#191970" d="M417.5046,-55.4179C417.1118,-48.2164 416.5489,-37.8962 416.0562,-28.8632"/>
<polygon fill="#191970" stroke="#191970" points="419.5457,-28.574 415.5062,-18.7795 412.5561,-28.9553 419.5457,-28.574"/>
</g>
<!-- Node10 -->
<g id="node11" class="node">
<title>Node10</title>
<polygon fill="#ffffff" stroke="#bfbfbf" points="459.2686,-.5 459.2686,-18.5 524.7314,-18.5 524.7314,-.5 459.2686,-.5"/>
<text text-anchor="middle" x="492" y="-6.5" font-family="Helvetica,sans-Serif" font-size="10.00" fill="#000000">sys/errno.h</text>
</g>
<!-- Node8&#45;&gt;Node10 -->
<g id="edge13" class="edge">
<title>Node8&#45;&gt;Node10</title>
<path fill="none" stroke="#191970" d="M430.2196,-55.4179C441.4669,-47.0584 458.3682,-34.4966 471.6515,-24.6239"/>
<polygon fill="#191970" stroke="#191970" points="473.8241,-27.37 479.7623,-18.5956 469.6484,-21.7518 473.8241,-27.37"/>
</g>
<!-- Node11 -->
<g id="node12" class="node">
<title>Node11</title>
<g id="a_node12"><a xlink:href="types_8h.html" target="_top" xlink:title="ARX/ARUtil/types.h">
<polygon fill="#ffffff" stroke="#000000" points="633.6528,-.5 633.6528,-18.5 736.3472,-18.5 736.3472,-.5 633.6528,-.5"/>
<text text-anchor="middle" x="685" y="-6.5" font-family="Helvetica,sans-Serif" font-size="10.00" fill="#000000">ARX/ARUtil/types.h</text>
</a>
</g>
</g>
<!-- Node8&#45;&gt;Node11 -->
<g id="edge14" class="edge">
<title>Node8&#45;&gt;Node11</title>
<path fill="none" stroke="#191970" d="M461.7906,-55.4795C508.1574,-45.9282 581.3956,-30.8417 631.2344,-20.5753"/>
<polygon fill="#191970" stroke="#191970" points="632.0973,-23.9711 641.1854,-18.5255 630.6849,-17.1151 632.0973,-23.9711"/>
</g>
<!-- Node13 -->
<g id="node14" class="node">
<title>Node13</title>
<polygon fill="#ffffff" stroke="#bfbfbf" points="568.7144,-.5 568.7144,-18.5 615.2856,-18.5 615.2856,-.5 568.7144,-.5"/>
<text text-anchor="middle" x="592" y="-6.5" font-family="Helvetica,sans-Serif" font-size="10.00" fill="#000000">math.h</text>
</g>
<!-- Node12&#45;&gt;Node13 -->
<g id="edge16" class="edge">
<title>Node12&#45;&gt;Node13</title>
<path fill="none" stroke="#191970" d="M593.6697,-55.4179C593.4079,-48.2164 593.0326,-37.8962 592.7041,-28.8632"/>
<polygon fill="#191970" stroke="#191970" points="596.1986,-28.6456 592.3374,-18.7795 589.2032,-28.9001 596.1986,-28.6456"/>
</g>
<!-- Node14&#45;&gt;Node2 -->
<g id="edge18" class="edge">
<title>Node14&#45;&gt;Node2</title>
<path fill="none" stroke="#191970" d="M940.2666,-55.4179C930.6334,-47.2667 916.2783,-35.1201 904.7518,-25.3669"/>
<polygon fill="#191970" stroke="#191970" points="906.8613,-22.5671 896.9666,-18.7795 902.3397,-27.9108 906.8613,-22.5671"/>
</g>
<!-- Node15 -->
<g id="node16" class="node">
<title>Node15</title>
<g id="a_node16"><a xlink:href="icp_core_8h.html" target="_top" xlink:title="ARX/AR/icpCore.h">
<polygon fill="#ffffff" stroke="#000000" points="926.5962,-.5 926.5962,-18.5 1025.4038,-18.5 1025.4038,-.5 926.5962,-.5"/>
<text text-anchor="middle" x="976" y="-6.5" font-family="Helvetica,sans-Serif" font-size="10.00" fill="#000000">ARX/AR/icpCore.h</text>
</a>
</g>
</g>
<!-- Node14&#45;&gt;Node15 -->
<g id="edge19" class="edge">
<title>Node14&#45;&gt;Node15</title>
<path fill="none" stroke="#191970" d="M955.1282,-55.4179C958.5096,-47.9789 963.4035,-37.2123 967.6027,-27.9742"/>
<polygon fill="#191970" stroke="#191970" points="970.8303,-29.3315 971.7821,-18.7795 964.4577,-26.4348 970.8303,-29.3315"/>
</g>
<!-- Node16&#45;&gt;Node1 -->
<g id="edge21" class="edge">
<title>Node16&#45;&gt;Node1</title>
<path fill="none" stroke="#191970" d="M315.3589,-73.5255C359.5322,-82.9988 426.1133,-97.9136 470.1197,-108.1718"/>
<polygon fill="#191970" stroke="#191970" points="469.4364,-111.6064 479.9711,-110.4795 471.0329,-104.7909 469.4364,-111.6064"/>
</g>
<!-- Node17&#45;&gt;Node1 -->
<g id="edge24" class="edge">
<title>Node17&#45;&gt;Node1</title>
<path fill="none" stroke="#191970" d="M690.656,-73.5318C657.103,-83.116 601.0376,-98.2646 561.2149,-108.5288"/>
<polygon fill="#191970" stroke="#191970" points="560.2825,-105.1546 551.464,-111.0268 562.0197,-111.9356 560.2825,-105.1546"/>
</g>
<!-- Node17&#45;&gt;Node6 -->
<g id="edge23" class="edge">
<title>Node17&#45;&gt;Node6</title>
<path fill="none" stroke="#191970" d="M732.3755,-55.4179C744.804,-46.9788 763.5397,-34.257 778.1409,-24.3426"/>
<polygon fill="#191970" stroke="#191970" points="780.2977,-27.1088 786.6046,-18.5956 776.3654,-21.3176 780.2977,-27.1088"/>
</g>
<!-- Node19 -->
<g id="node20" class="node">
<title>Node19</title>
<g id="a_node20"><a xlink:href="config_8h.html" target="_top" xlink:title="ARX/AR2/config.h">
<polygon fill="#ffffff" stroke="#000000" points="255.7021,-110.5 255.7021,-128.5 352.2979,-128.5 352.2979,-110.5 255.7021,-110.5"/>
<text text-anchor="middle" x="304" y="-116.5" font-family="Helvetica,sans-Serif" font-size="10.00" fill="#000000">ARX/AR2/config.h</text>
</a>
</g>
</g>
<!-- Node18&#45;&gt;Node19 -->
<g id="edge29" class="edge">
<title>Node18&#45;&gt;Node19</title>
<path fill="none" stroke="#191970" d="M175.9026,-275.2971C174.7535,-262.3678 174.0752,-238.3543 182,-220 199.7661,-178.8527 244.5203,-149.3021 274.5953,-133.2992"/>
<polygon fill="#191970" stroke="#191970" points="276.4911,-136.2603 283.7912,-128.5819 273.2961,-130.032 276.4911,-136.2603"/>
</g>
<!-- Node20 -->
<g id="node21" class="node">
<title>Node20</title>
<g id="a_node21"><a xlink:href="image_set_8h.html" target="_top" xlink:title="ARX/AR2/imageSet.h">
<polygon fill="#ffffff" stroke="#000000" points="247.9214,-165.5 247.9214,-183.5 360.0786,-183.5 360.0786,-165.5 247.9214,-165.5"/>
<text text-anchor="middle" x="304" y="-171.5" font-family="Helvetica,sans-Serif" font-size="10.00" fill="#000000">ARX/AR2/imageSet.h</text>
</a>
</g>
</g>
<!-- Node18&#45;&gt;Node20 -->
<g id="edge30" class="edge">
<title>Node18&#45;&gt;Node20</title>
<path fill="none" stroke="#191970" d="M177.4617,-275.4164C178.6219,-261.7539 182.6961,-235.8331 197,-220 211.3546,-204.1108 232.185,-193.5772 251.6598,-186.689"/>
<polygon fill="#191970" stroke="#191970" points="252.9658,-189.9441 261.3767,-183.5016 250.7839,-183.2928 252.9658,-189.9441"/>
</g>
<!-- Node18&#45;&gt;Node21 -->
<g id="edge33" class="edge">
<title>Node18&#45;&gt;Node21</title>
<path fill="none" stroke="#191970" d="M191.3663,-275.4179C204.8413,-266.8992 225.2193,-254.0166 240.9644,-244.0627"/>
<polygon fill="#191970" stroke="#191970" points="243.0301,-246.8977 249.6124,-238.5956 239.2895,-240.9808 243.0301,-246.8977"/>
</g>
<!-- Node20&#45;&gt;Node1 -->
<g id="edge31" class="edge">
<title>Node20&#45;&gt;Node1</title>
<path fill="none" stroke="#191970" d="M338.8424,-165.4179C374.9143,-156.0152 431.3821,-141.2961 470.6249,-131.067"/>
<polygon fill="#191970" stroke="#191970" points="471.6628,-134.4135 480.4566,-128.5042 469.8971,-127.6398 471.6628,-134.4135"/>
</g>
<!-- Node20&#45;&gt;Node19 -->
<g id="edge32" class="edge">
<title>Node20&#45;&gt;Node19</title>
<path fill="none" stroke="#191970" d="M304,-165.4179C304,-158.2164 304,-147.8962 304,-138.8632"/>
<polygon fill="#191970" stroke="#191970" points="307.5001,-138.7794 304,-128.7795 300.5001,-138.7795 307.5001,-138.7794"/>
</g>
<!-- Node21&#45;&gt;Node19 -->
<g id="edge34" class="edge">
<title>Node21&#45;&gt;Node19</title>
<path fill="none" stroke="#191970" d="M255.7023,-220.4661C245.0706,-207.7375 229.1278,-183.9611 239,-165 246.1664,-151.2358 259.6131,-140.7744 272.4248,-133.3746"/>
<polygon fill="#191970" stroke="#191970" points="274.358,-136.3107 281.5426,-128.524 271.0703,-130.1308 274.358,-136.3107"/>
</g>
<!-- Node21&#45;&gt;Node20 -->
<g id="edge35" class="edge">
<title>Node21&#45;&gt;Node20</title>
<path fill="none" stroke="#191970" d="M270.6052,-220.4179C276.188,-212.7415 284.3478,-201.5217 291.204,-192.0945"/>
<polygon fill="#191970" stroke="#191970" points="294.2001,-193.9255 297.2513,-183.7795 288.539,-189.8082 294.2001,-193.9255"/>
</g>
<!-- Node22&#45;&gt;Node1 -->
<g id="edge38" class="edge">
<title>Node22&#45;&gt;Node1</title>
<path fill="none" stroke="#191970" d="M415.1311,-275.494C460.9353,-263.3767 531.0431,-236.9258 563,-184 573.752,-166.193 555.7204,-147.2608 538.7729,-134.5476"/>
<polygon fill="#191970" stroke="#191970" points="540.3628,-131.3873 530.1675,-128.5052 536.3402,-137.1161 540.3628,-131.3873"/>
</g>
<!-- Node22&#45;&gt;Node19 -->
<g id="edge39" class="edge">
<title>Node22&#45;&gt;Node19</title>
<path fill="none" stroke="#191970" d="M374.3757,-275.412C379.3257,-254.4611 388.7266,-201.7545 369,-165 361.6614,-151.3268 348.1941,-140.8764 335.4132,-133.4602"/>
<polygon fill="#191970" stroke="#191970" points="336.7934,-130.2291 326.3256,-128.5937 333.4888,-136.4 336.7934,-130.2291"/>
</g>
<!-- Node22&#45;&gt;Node20 -->
<g id="edge40" class="edge">
<title>Node22&#45;&gt;Node20</title>
<path fill="none" stroke="#191970" d="M366.4353,-275.4982C355.2281,-257.369 329.7564,-216.1647 315.0444,-192.3659"/>
<polygon fill="#191970" stroke="#191970" points="317.877,-190.2917 309.6416,-183.6261 311.9228,-193.9725 317.877,-190.2917"/>
</g>
<!-- Node22&#45;&gt;Node21 -->
<g id="edge41" class="edge">
<title>Node22&#45;&gt;Node21</title>
<path fill="none" stroke="#191970" d="M354.166,-275.4179C336.9693,-266.6603 310.7164,-253.2907 290.9657,-243.2326"/>
<polygon fill="#191970" stroke="#191970" points="292.3599,-240.0148 281.8605,-238.5956 289.1832,-246.2526 292.3599,-240.0148"/>
</g>
<!-- Node23&#45;&gt;Node1 -->
<g id="edge45" class="edge">
<title>Node23&#45;&gt;Node1</title>
<path fill="none" stroke="#191970" d="M484.979,-330.3582C506.385,-307.8405 560.0446,-246.9426 579,-184 581.435,-175.9143 582.8724,-172.5042 579,-165 571.9572,-151.3517 558.7189,-140.9043 546.1019,-133.4837"/>
<polygon fill="#191970" stroke="#191970" points="547.581,-130.3042 537.1221,-128.6127 544.2434,-136.4573 547.581,-130.3042"/>
</g>
<!-- Node23&#45;&gt;Node14 -->
<g id="edge46" class="edge">
<title>Node23&#45;&gt;Node14</title>
<path fill="none" stroke="#191970" d="M528.5325,-332.3307C624.9252,-318.2296 824.9476,-284.2788 877,-239 924.7188,-197.4908 942.4966,-119.95 948.3939,-83.8784"/>
<polygon fill="#191970" stroke="#191970" points="951.8951,-84.1302 949.914,-73.7223 944.9722,-83.094 951.8951,-84.1302"/>
</g>
<!-- Node23&#45;&gt;Node19 -->
<g id="edge47" class="edge">
<title>Node23&#45;&gt;Node19</title>
<path fill="none" stroke="#191970" d="M473.4665,-330.3921C465.2966,-302.4543 437.2145,-216.7345 387,-165 373.4141,-151.0029 354.5821,-140.2036 338.29,-132.646"/>
<polygon fill="#191970" stroke="#191970" points="339.612,-129.4038 329.0499,-128.5711 336.7874,-135.8087 339.612,-129.4038"/>
</g>
<!-- Node23&#45;&gt;Node21 -->
<g id="edge48" class="edge">
<title>Node23&#45;&gt;Node21</title>
<path fill="none" stroke="#191970" d="M423.4902,-334.5762C388.4466,-329.1589 342.7761,-317.7991 309,-294 292.3136,-282.2426 279.7697,-262.2205 272.2207,-247.5964"/>
<polygon fill="#191970" stroke="#191970" points="275.3207,-245.9678 267.8029,-238.5023 269.0243,-249.0265 275.3207,-245.9678"/>
</g>
<!-- Node23&#45;&gt;Node22 -->
<g id="edge49" class="edge">
<title>Node23&#45;&gt;Node22</title>
<path fill="none" stroke="#191970" d="M458.8265,-330.4179C442.342,-321.7001 417.2158,-308.4122 398.2268,-298.3699"/>
<polygon fill="#191970" stroke="#191970" points="399.6752,-295.1767 389.199,-293.5956 396.4027,-301.3646 399.6752,-295.1767"/>
</g>
<!-- Node24 -->
<g id="node25" class="node">
<title>Node24</title>
<g id="a_node25"><a xlink:href="thread__sub_8h.html" target="_top" xlink:title="ARX/ARUtil/thread_sub.h">
<polygon fill="#ffffff" stroke="#000000" points="739.584,-220.5 739.584,-238.5 868.416,-238.5 868.416,-220.5 739.584,-220.5"/>
<text text-anchor="middle" x="804" y="-226.5" font-family="Helvetica,sans-Serif" font-size="10.00" fill="#000000">ARX/ARUtil/thread_sub.h</text>
</a>
</g>
</g>
<!-- Node23&#45;&gt;Node24 -->
<g id="edge43" class="edge">
<title>Node23&#45;&gt;Node24</title>
<path fill="none" stroke="#191970" d="M511.1318,-330.4271C543.3513,-321.8602 592.2579,-308.2347 634,-294 655.7159,-286.5945 660.5836,-283.2314 682,-275 711.4875,-263.6665 745.1361,-251.1481 769.616,-242.1156"/>
<polygon fill="#191970" stroke="#191970" points="771.0039,-245.3343 779.1773,-238.593 768.5839,-238.7659 771.0039,-245.3343"/>
</g>
<!-- Node25 -->
<g id="node26" class="node">
<title>Node25</title>
<g id="a_node26"><a xlink:href="marker_8h.html" target="_top" xlink:title="ARX/AR2/marker.h">
<polygon fill="#ffffff" stroke="#000000" points="453.7612,-165.5 453.7612,-183.5 554.2388,-183.5 554.2388,-165.5 453.7612,-165.5"/>
<text text-anchor="middle" x="504" y="-171.5" font-family="Helvetica,sans-Serif" font-size="10.00" fill="#000000">ARX/AR2/marker.h</text>
</a>
</g>
</g>
<!-- Node23&#45;&gt;Node25 -->
<g id="edge50" class="edge">
<title>Node23&#45;&gt;Node25</title>
<path fill="none" stroke="#191970" d="M477.5856,-330.1561C482.0327,-303.9504 494.6912,-229.3557 500.7245,-193.8021"/>
<polygon fill="#191970" stroke="#191970" points="504.2093,-194.186 502.4318,-183.7414 497.308,-193.0149 504.2093,-194.186"/>
</g>
<!-- Node24&#45;&gt;Node11 -->
<g id="edge44" class="edge">
<title>Node24&#45;&gt;Node11</title>
<path fill="none" stroke="#191970" d="M806.152,-220.45C812.1993,-192.6786 826.5634,-107.3871 789,-55 777.6146,-39.1215 759.45,-28.7175 741.4645,-21.9293"/>
<polygon fill="#191970" stroke="#191970" points="742.1299,-18.4571 731.5352,-18.5182 739.8555,-25.0774 742.1299,-18.4571"/>
</g>
<!-- Node25&#45;&gt;Node1 -->
<g id="edge51" class="edge">
<title>Node25&#45;&gt;Node1</title>
<path fill="none" stroke="#191970" d="M505.8164,-165.4179C507.2567,-158.2164 509.3208,-147.8962 511.1274,-138.8632"/>
<polygon fill="#191970" stroke="#191970" points="514.6149,-139.2717 513.1441,-128.7795 507.7508,-137.8988 514.6149,-139.2717"/>
</g>
<!-- Node25&#45;&gt;Node19 -->
<g id="edge52" class="edge">
<title>Node25&#45;&gt;Node19</title>
<path fill="none" stroke="#191970" d="M470.9741,-165.4179C437.0004,-156.0751 383.9397,-141.4834 346.7745,-131.263"/>
<polygon fill="#191970" stroke="#191970" points="347.3127,-127.7811 336.7426,-128.5042 345.4566,-134.5306 347.3127,-127.7811"/>
</g>
<!-- Node26&#45;&gt;Node19 -->
<g id="edge54" class="edge">
<title>Node26&#45;&gt;Node19</title>
<path fill="none" stroke="#191970" d="M122.3458,-330.4593C119.0687,-317.7226 114.6573,-293.9366 121,-275 140.4516,-216.9263 156.2126,-203.305 204,-165 221.9516,-150.6105 245.1872,-139.6796 264.742,-132.1428"/>
<polygon fill="#191970" stroke="#191970" points="266.1278,-135.3621 274.2949,-128.613 263.7016,-128.7959 266.1278,-135.3621"/>
</g>
</g>
</svg>
        <g id="navigator" transform="translate(0 0)" fill="#404254">
                <rect fill="#f2f5e9" fill-opacity="0.5" stroke="#606060" stroke-width=".5" x="0" y="0" width="60" height="60"/>
                <use id="zoomplus" xlink:href="#zoomPlus" x="17" y="9" onmousedown="handleZoom(evt,'in')"/>
                <use id="zoomminus" xlink:href="#zoomMin" x="42" y="9" onmousedown="handleZoom(evt,'out')"/>
                <use id="reset" xlink:href="#resetDef" x="30" y="36" onmousedown="handleReset()"/>
                <g id="arrowUp" xlink:href="#dirArrow" transform="translate(30 24)" onmousedown="handlePan(0,-1)">
                  <use xlink:href="#rim" fill="#404040">
                        <set attributeName="fill" to="#808080" begin="arrowUp.mouseover" end="arrowUp.mouseout"/>
                  </use>
                  <path fill="none" stroke="white" stroke-width="1.5" d="M0,-3.0v7 M-2.5,-0.5L0,-3.0L2.5,-0.5"/>
                </g>
                <g id="arrowRight" xlink:href="#dirArrow" transform="rotate(90) translate(36 -43)" onmousedown="handlePan(1,0)">
                  <use xlink:href="#rim" fill="#404040">
                        <set attributeName="fill" to="#808080" begin="arrowRight.mouseover" end="arrowRight.mouseout"/>
                  </use>
                  <path fill="none" stroke="white" stroke-width="1.5" d="M0,-3.0v7 M-2.5,-0.5L0,-3.0L2.5,-0.5"/>
                </g>
                <g id="arrowDown" xlink:href="#dirArrow" transform="rotate(180) translate(-30 -48)" onmousedown="handlePan(0,1)">
                  <use xlink:href="#rim" fill="#404040">
                        <set attributeName="fill" to="#808080" begin="arrowDown.mouseover" end="arrowDown.mouseout"/>
                  </use>
                  <path fill="none" stroke="white" stroke-width="1.5" d="M0,-3.0v7 M-2.5,-0.5L0,-3.0L2.5,-0.5"/>
                </g>
                <g id="arrowLeft" xlink:href="#dirArrow" transform="rotate(270) translate(-36 17)" onmousedown="handlePan(-1,0)">
                  <use xlink:href="#rim" fill="#404040">
                        <set attributeName="fill" to="#808080" begin="arrowLeft.mouseover" end="arrowLeft.mouseout"/>
                  </use>
                  <path fill="none" stroke="white" stroke-width="1.5" d="M0,-3.0v7 M-2.5,-0.5L0,-3.0L2.5,-0.5"/>
                </g>
        </g>
        <svg viewBox="0 0 15 15" width="100%" height="30px" preserveAspectRatio="xMaxYMin meet">
         <g id="arrow_out" transform="scale(0.3 0.3)">
          <a xlink:href="surface_8c__incl_org.svg" target="_base">
           <rect id="button" ry="5" rx="5" y="6" x="6" height="38" width="38"
                fill="#f2f5e9" fill-opacity="0.5" stroke="#606060" stroke-width="1.0"/>
           <path id="arrow"
             d="M 11.500037,31.436501 C 11.940474,20.09759 22.043105,11.32322 32.158766,21.979434 L 37.068811,17.246167 C 37.068811,17.246167 37.088388,32 37.088388,32 L 22.160133,31.978069 C 22.160133,31.978069 26.997745,27.140456 26.997745,27.140456 C 18.528582,18.264221 13.291696,25.230495 11.500037,31.436501 z"
             style="fill:#404040;"/>
          </a>
         </g>
        </svg>
</svg>
