<?xml version="1.0" encoding="UTF-8" standalone="no"?>
<!DOCTYPE svg PUBLIC "-//W3C//DTD SVG 1.1//EN"
 "http://www.w3.org/Graphics/SVG/1.1/DTD/svg11.dtd">
<!-- Generated by graphviz version 7.0.5 (20221223.1930)
 -->
<!-- Title: Source/ARX/AR2/surface.c Pages: 1 -->
<!--zoomable 412 -->
<svg id="main" version="1.1" xmlns="http://www.w3.org/2000/svg" xmlns:xlink="http://www.w3.org/1999/xlink" xml:space="preserve" onload="init(evt)">
<style type="text/css"><![CDATA[
.edge:hover path { stroke: red; }
.edge:hover polygon { stroke: red; fill: red; }
]]></style>
<script type="text/javascript"><![CDATA[
var edges = document.getElementsByTagName('g');
if (edges && edges.length) {
  for (var i=0;i<edges.length;i++) {
    if (edges[i].id.substr(0,4)=='edge') {
      edges[i].setAttribute('class','edge');
    }
  }
}
]]></script>
        <defs>
                <circle id="rim" cx="0" cy="0" r="7"/>
                <circle id="rim2" cx="0" cy="0" r="3.5"/>
                <g id="zoomPlus">
                        <use xlink:href="#rim" fill="#404040">
                                <set attributeName="fill" to="#808080" begin="zoomplus.mouseover" end="zoomplus.mouseout"/>
                        </use>
                        <path d="M-4,0h8M0,-4v8" fill="none" stroke="white" stroke-width="1.5" pointer-events="none"/>
                </g>
                <g id="zoomMin">
                        <use xlink:href="#rim" fill="#404040">
                                <set attributeName="fill" to="#808080" begin="zoomminus.mouseover" end="zoomminus.mouseout"/>
                        </use>
                        <path d="M-4,0h8" fill="none" stroke="white" stroke-width="1.5" pointer-events="none"/>
                </g>
                <g id="dirArrow">
                        <path fill="none" stroke="white" stroke-width="1.5" d="M0,-3.0v7 M-2.5,-0.5L0,-3.0L2.5,-0.5"/>
                </g>
               <g id="resetDef">
                       <use xlink:href="#rim2" fill="#404040">
                               <set attributeName="fill" to="#808080" begin="reset.mouseover" end="reset.mouseout"/>
                       </use>
               </g>
        </defs>

<script type="text/javascript">
var viewWidth = 1044;
var viewHeight = 412;
var sectionId = 'dynsection-0';
</script>
<script xlink:href="svgpan.js"/>
<svg id="graph" class="graph">
<g id="viewport">
<title>Source/ARX/AR2/surface.c</title>
<!-- Node1 -->
<g id="node1" class="node">
<title>Node1</title>
<g id="a_node1"><a xlink:title=" ">
<polygon fill="#999999" stroke="#666666" points="372.5,-404 235.5,-404 235.5,-385 372.5,-385 372.5,-404"/>
<text text-anchor="middle" x="304" y="-392" font-family="Helvetica,sans-Serif" font-size="10.00">Source/ARX/AR2/surface.c</text>
</a>
</g>
</g>
<!-- Node2 -->
<g id="node2" class="node">
<title>Node2</title>
<g id="a_node2"><a xlink:href="ar_8h.html" target="_top" xlink:title="artoolkitX core routines.">
<polygon fill="white" stroke="#666666" points="623,-129 549,-129 549,-110 623,-110 623,-129"/>
<text text-anchor="middle" x="586" y="-117" font-family="Helvetica,sans-Serif" font-size="10.00">ARX/AR/ar.h</text>
</a>
</g>
</g>
<!-- Node1&#45;&gt;Node2 -->
<g id="edge1" class="edge">
<title>Node1&#45;&gt;Node2</title>
<path fill="none" stroke="#63b8ff" d="M372.73,-390.82C448.22,-386.56 563.24,-375.78 597,-349 665.07,-295.01 706.42,-240.25 663,-165 654.87,-150.9 640.37,-140.87 626.14,-133.94"/>
<polygon fill="#63b8ff" stroke="#63b8ff" points="627.86,-130.88 617.3,-130.05 625.04,-137.28 627.86,-130.88"/>
</g>
<!-- Node3 -->
<g id="node3" class="node">
<title>Node3</title>
<g id="a_node3"><a xlink:title=" ">
<polygon fill="#e0e0e0" stroke="#999999" points="918,-19 872,-19 872,0 918,0 918,-19"/>
<text text-anchor="middle" x="895" y="-7" font-family="Helvetica,sans-Serif" font-size="10.00">stdio.h</text>
</a>
</g>
</g>
<!-- Node1&#45;&gt;Node3 -->
<g id="edge25" class="edge">
<title>Node1&#45;&gt;Node3</title>
<path fill="none" stroke="#63b8ff" d="M372.76,-390.41C553.49,-381.36 1028,-351.35 1028,-285.5 1028,-285.5 1028,-285.5 1028,-118.5 1028,-89.04 1028.97,-76.66 1009,-55 997.86,-42.91 958.54,-29.18 929.17,-20.21"/>
<polygon fill="#63b8ff" stroke="#63b8ff" points="930.52,-16.96 919.94,-17.45 928.52,-23.66 930.52,-16.96"/>
</g>
<!-- Node4 -->
<g id="node4" class="node">
<title>Node4</title>
<g id="a_node4"><a xlink:title=" ">
<polygon fill="#e0e0e0" stroke="#999999" points="100,-19 52,-19 52,0 100,0 100,-19"/>
<text text-anchor="middle" x="76" y="-7" font-family="Helvetica,sans-Serif" font-size="10.00">stdlib.h</text>
</a>
</g>
</g>
<!-- Node1&#45;&gt;Node4 -->
<g id="edge27" class="edge">
<title>Node1&#45;&gt;Node4</title>
<path fill="none" stroke="#63b8ff" d="M235.15,-388.5C189.18,-383.13 128.35,-372 79,-349 38.17,-329.97 0,-330.55 0,-285.5 0,-285.5 0,-285.5 0,-118.5 0,-80.18 32.39,-45.87 54.88,-26.66"/>
<polygon fill="#63b8ff" stroke="#63b8ff" points="57.09,-29.38 62.62,-20.34 52.66,-23.95 57.09,-29.38"/>
</g>
<!-- Node6 -->
<g id="node6" class="node">
<title>Node6</title>
<g id="a_node6"><a xlink:title=" ">
<polygon fill="#e0e0e0" stroke="#999999" points="371.5,-19 322.5,-19 322.5,0 371.5,0 371.5,-19"/>
<text text-anchor="middle" x="347" y="-7" font-family="Helvetica,sans-Serif" font-size="10.00">string.h</text>
</a>
</g>
</g>
<!-- Node1&#45;&gt;Node6 -->
<g id="edge26" class="edge">
<title>Node1&#45;&gt;Node6</title>
<path fill="none" stroke="#63b8ff" d="M257.36,-384.54C181.07,-368.54 38,-332.29 38,-285.5 38,-285.5 38,-285.5 38,-118.5 38,-80.58 61.85,-73.42 95,-55 164.39,-16.45 259.68,-10.04 310.91,-9.68"/>
<polygon fill="#63b8ff" stroke="#63b8ff" points="310.83,-13.18 320.83,-9.69 310.84,-6.18 310.83,-13.18"/>
</g>
<!-- Node19 -->
<g id="node19" class="node">
<title>Node19</title>
<g id="a_node19"><a xlink:href="coord_8h.html" target="_top" xlink:title=" ">
<polygon fill="white" stroke="#666666" points="275.5,-294 180.5,-294 180.5,-275 275.5,-275 275.5,-294"/>
<text text-anchor="middle" x="228" y="-282" font-family="Helvetica,sans-Serif" font-size="10.00">ARX/AR2/coord.h</text>
</a>
</g>
</g>
<!-- Node1&#45;&gt;Node19 -->
<g id="edge28" class="edge">
<title>Node1&#45;&gt;Node19</title>
<path fill="none" stroke="#63b8ff" d="M297.78,-384.66C285.37,-367.02 257.29,-327.12 240.79,-303.67"/>
<polygon fill="#63b8ff" stroke="#63b8ff" points="243.79,-301.86 235.18,-295.7 238.07,-305.89 243.79,-301.86"/>
</g>
<!-- Node22 -->
<g id="node22" class="node">
<title>Node22</title>
<g id="a_node22"><a xlink:href="feature_set_8h.html" target="_top" xlink:title=" ">
<polygon fill="white" stroke="#666666" points="389,-239 273,-239 273,-220 389,-220 389,-239"/>
<text text-anchor="middle" x="331" y="-227" font-family="Helvetica,sans-Serif" font-size="10.00">ARX/AR2/featureSet.h</text>
</a>
</g>
</g>
<!-- Node1&#45;&gt;Node22 -->
<g id="edge36" class="edge">
<title>Node1&#45;&gt;Node22</title>
<path fill="none" stroke="#63b8ff" d="M305.45,-384.74C309.63,-359.53 321.75,-286.36 327.67,-250.62"/>
<polygon fill="#63b8ff" stroke="#63b8ff" points="331.11,-251.24 329.29,-240.8 324.21,-250.09 331.11,-251.24"/>
</g>
<!-- Node23 -->
<g id="node23" class="node">
<title>Node23</title>
<g id="a_node23"><a xlink:href="template_8h.html" target="_top" xlink:title=" ">
<polygon fill="white" stroke="#666666" points="479.5,-294 370.5,-294 370.5,-275 479.5,-275 479.5,-294"/>
<text text-anchor="middle" x="425" y="-282" font-family="Helvetica,sans-Serif" font-size="10.00">ARX/AR2/template.h</text>
</a>
</g>
</g>
<!-- Node1&#45;&gt;Node23 -->
<g id="edge37" class="edge">
<title>Node1&#45;&gt;Node23</title>
<path fill="none" stroke="#63b8ff" d="M313.9,-384.66C334.11,-366.62 380.38,-325.32 406.38,-302.12"/>
<polygon fill="#63b8ff" stroke="#63b8ff" points="408.7,-304.74 413.83,-295.47 404.04,-299.52 408.7,-304.74"/>
</g>
<!-- Node24 -->
<g id="node24" class="node">
<title>Node24</title>
<g id="a_node24"><a xlink:href="tracking_8h.html" target="_top" xlink:title=" ">
<polygon fill="white" stroke="#666666" points="588,-349 482,-349 482,-330 588,-330 588,-349"/>
<text text-anchor="middle" x="535" y="-337" font-family="Helvetica,sans-Serif" font-size="10.00">ARX/AR2/tracking.h</text>
</a>
</g>
</g>
<!-- Node1&#45;&gt;Node24 -->
<g id="edge42" class="edge">
<title>Node1&#45;&gt;Node24</title>
<path fill="none" stroke="#63b8ff" d="M343.19,-384.51C382.21,-375.55 442.29,-361.77 484.79,-352.02"/>
<polygon fill="#63b8ff" stroke="#63b8ff" points="485.57,-355.43 494.53,-349.78 484,-348.61 485.57,-355.43"/>
</g>
<!-- Node27 -->
<g id="node27" class="node">
<title>Node27</title>
<g id="a_node27"><a xlink:href="util_8h.html" target="_top" xlink:title=" ">
<polygon fill="white" stroke="#666666" points="179,-239 95,-239 95,-220 179,-220 179,-239"/>
<text text-anchor="middle" x="137" y="-227" font-family="Helvetica,sans-Serif" font-size="10.00">ARX/AR2/util.h</text>
</a>
</g>
</g>
<!-- Node1&#45;&gt;Node27 -->
<g id="edge53" class="edge">
<title>Node1&#45;&gt;Node27</title>
<path fill="none" stroke="#63b8ff" d="M287.88,-384.62C260.92,-369.14 206.15,-334.89 171,-294 159.65,-280.8 150.59,-263.18 144.69,-249.84"/>
<polygon fill="#63b8ff" stroke="#63b8ff" points="148.01,-248.72 140.92,-240.85 141.55,-251.43 148.01,-248.72"/>
</g>
<!-- Node2&#45;&gt;Node3 -->
<g id="edge2" class="edge">
<title>Node2&#45;&gt;Node3</title>
<path fill="none" stroke="#63b8ff" d="M623.13,-116.8C670.05,-113.45 752.35,-103.51 816,-74 840.82,-62.49 864.63,-41.54 879.51,-26.86"/>
<polygon fill="#63b8ff" stroke="#63b8ff" points="881.6,-29.72 886.11,-20.14 876.6,-24.82 881.6,-29.72"/>
</g>
<!-- Node2&#45;&gt;Node4 -->
<g id="edge3" class="edge">
<title>Node2&#45;&gt;Node4</title>
<path fill="none" stroke="#63b8ff" d="M548.63,-116.26C436.99,-109.4 112.54,-88.34 95,-74 82.18,-63.52 77.77,-44.77 76.36,-30.35"/>
<polygon fill="#63b8ff" stroke="#63b8ff" points="79.87,-30.42 75.85,-20.62 72.88,-30.79 79.87,-30.42"/>
</g>
<!-- Node5 -->
<g id="node5" class="node">
<title>Node5</title>
<g id="a_node5"><a xlink:title=" ">
<polygon fill="#e0e0e0" stroke="#999999" points="536.5,-74 487.5,-74 487.5,-55 536.5,-55 536.5,-74"/>
<text text-anchor="middle" x="512" y="-62" font-family="Helvetica,sans-Serif" font-size="10.00">stdint.h</text>
</a>
</g>
</g>
<!-- Node2&#45;&gt;Node5 -->
<g id="edge4" class="edge">
<title>Node2&#45;&gt;Node5</title>
<path fill="none" stroke="#63b8ff" d="M573.45,-109.51C562.54,-101.7 546.5,-90.21 533.54,-80.93"/>
<polygon fill="#63b8ff" stroke="#63b8ff" points="535.77,-78.22 525.6,-75.24 531.69,-83.91 535.77,-78.22"/>
</g>
<!-- Node2&#45;&gt;Node6 -->
<g id="edge5" class="edge">
<title>Node2&#45;&gt;Node6</title>
<path fill="none" stroke="#63b8ff" d="M548.5,-115.53C492.89,-110.38 392.26,-97.97 366,-74 353.9,-62.96 349.39,-44.57 347.76,-30.42"/>
<polygon fill="#63b8ff" stroke="#63b8ff" points="351.28,-30.59 347.06,-20.87 344.3,-31.09 351.28,-30.59"/>
</g>
<!-- Node7 -->
<g id="node7" class="node">
<title>Node7</title>
<g id="a_node7"><a xlink:title=" ">
<polygon fill="#e0e0e0" stroke="#999999" points="854,-19 762,-19 762,0 854,0 854,-19"/>
<text text-anchor="middle" x="808" y="-7" font-family="Helvetica,sans-Serif" font-size="10.00">ARX/AR/config.h</text>
</a>
</g>
</g>
<!-- Node2&#45;&gt;Node7 -->
<g id="edge6" class="edge">
<title>Node2&#45;&gt;Node7</title>
<path fill="none" stroke="#63b8ff" d="M623.22,-115.6C677.21,-110.6 773.42,-98.46 797,-74 807.94,-62.65 810.17,-44.57 809.97,-30.59"/>
<polygon fill="#63b8ff" stroke="#63b8ff" points="813.47,-30.51 809.36,-20.74 806.48,-30.93 813.47,-30.51"/>
</g>
<!-- Node8 -->
<g id="node8" class="node">
<title>Node8</title>
<g id="a_node8"><a xlink:href="ar_config_8h.html" target="_top" xlink:title=" ">
<polygon fill="white" stroke="#666666" points="207.5,-74 104.5,-74 104.5,-55 207.5,-55 207.5,-74"/>
<text text-anchor="middle" x="156" y="-62" font-family="Helvetica,sans-Serif" font-size="10.00">ARX/AR/arConfig.h</text>
</a>
</g>
</g>
<!-- Node2&#45;&gt;Node8 -->
<g id="edge7" class="edge">
<title>Node2&#45;&gt;Node8</title>
<path fill="none" stroke="#63b8ff" d="M548.68,-114.27C483.79,-106.87 345.68,-90.86 218.77,-74.34"/>
<polygon fill="#63b8ff" stroke="#63b8ff" points="219.57,-70.92 209.2,-73.09 218.66,-77.86 219.57,-70.92"/>
</g>
<!-- Node9 -->
<g id="node9" class="node">
<title>Node9</title>
<g id="a_node9"><a xlink:href="log_8h.html" target="_top" xlink:title="Logging utilities.">
<polygon fill="white" stroke="#666666" points="469,-74 375,-74 375,-55 469,-55 469,-74"/>
<text text-anchor="middle" x="422" y="-62" font-family="Helvetica,sans-Serif" font-size="10.00">ARX/ARUtil/log.h</text>
</a>
</g>
</g>
<!-- Node2&#45;&gt;Node9 -->
<g id="edge8" class="edge">
<title>Node2&#45;&gt;Node9</title>
<path fill="none" stroke="#63b8ff" d="M558.18,-109.51C531.36,-100.84 490.54,-87.65 460.58,-77.97"/>
<polygon fill="#63b8ff" stroke="#63b8ff" points="461.71,-74.66 451.12,-74.91 459.56,-81.32 461.71,-74.66"/>
</g>
<!-- Node13 -->
<g id="node13" class="node">
<title>Node13</title>
<g id="a_node13"><a xlink:href="matrix_8h.html" target="_top" xlink:title=" ">
<polygon fill="white" stroke="#666666" points="647.5,-74 554.5,-74 554.5,-55 647.5,-55 647.5,-74"/>
<text text-anchor="middle" x="601" y="-62" font-family="Helvetica,sans-Serif" font-size="10.00">ARX/AR/matrix.h</text>
</a>
</g>
</g>
<!-- Node2&#45;&gt;Node13 -->
<g id="edge15" class="edge">
<title>Node2&#45;&gt;Node13</title>
<path fill="none" stroke="#63b8ff" d="M588.48,-109.75C590.35,-103.11 593.01,-93.73 595.39,-85.31"/>
<polygon fill="#63b8ff" stroke="#63b8ff" points="598.7,-86.47 598.06,-75.9 591.97,-84.57 598.7,-86.47"/>
</g>
<!-- Node15 -->
<g id="node15" class="node">
<title>Node15</title>
<g id="a_node15"><a xlink:href="icp_8h.html" target="_top" xlink:title=" ">
<polygon fill="white" stroke="#666666" points="999.5,-74 920.5,-74 920.5,-55 999.5,-55 999.5,-74"/>
<text text-anchor="middle" x="960" y="-62" font-family="Helvetica,sans-Serif" font-size="10.00">ARX/AR/icp.h</text>
</a>
</g>
</g>
<!-- Node2&#45;&gt;Node15 -->
<g id="edge17" class="edge">
<title>Node2&#45;&gt;Node15</title>
<path fill="none" stroke="#63b8ff" d="M623.47,-113.51C683.26,-105.5 803.91,-89.13 906,-74 907.01,-73.85 908.02,-73.7 909.05,-73.55"/>
<polygon fill="#63b8ff" stroke="#63b8ff" points="909.35,-77.04 918.7,-72.08 908.29,-70.12 909.35,-77.04"/>
</g>
<!-- Node17 -->
<g id="node17" class="node">
<title>Node17</title>
<g id="a_node17"><a xlink:href="param_8h.html" target="_top" xlink:title="artoolkitX functions for handling calibrated camera parameters.">
<polygon fill="white" stroke="#666666" points="318.5,-74 225.5,-74 225.5,-55 318.5,-55 318.5,-74"/>
<text text-anchor="middle" x="272" y="-62" font-family="Helvetica,sans-Serif" font-size="10.00">ARX/AR/param.h</text>
</a>
</g>
</g>
<!-- Node2&#45;&gt;Node17 -->
<g id="edge20" class="edge">
<title>Node2&#45;&gt;Node17</title>
<path fill="none" stroke="#63b8ff" d="M548.65,-112.93C494.44,-104.24 393.76,-87.31 329.91,-76.21"/>
<polygon fill="#63b8ff" stroke="#63b8ff" points="330.77,-72.81 320.32,-74.54 329.56,-79.7 330.77,-72.81"/>
</g>
<!-- Node18 -->
<g id="node18" class="node">
<title>Node18</title>
<g id="a_node18"><a xlink:href="ar_image_proc_8h.html" target="_top" xlink:title="artoolkitX functions for 2D luminance image processing.">
<polygon fill="white" stroke="#666666" points="788,-74 666,-74 666,-55 788,-55 788,-74"/>
<text text-anchor="middle" x="727" y="-62" font-family="Helvetica,sans-Serif" font-size="10.00">ARX/AR/arImageProc.h</text>
</a>
</g>
</g>
<!-- Node2&#45;&gt;Node18 -->
<g id="edge22" class="edge">
<title>Node2&#45;&gt;Node18</title>
<path fill="none" stroke="#63b8ff" d="M604.7,-109.51C625.76,-100.92 660.23,-87.88 687.28,-78.22"/>
<polygon fill="#63b8ff" stroke="#63b8ff" points="688.3,-81.58 696.56,-74.95 685.97,-74.98 688.3,-81.58"/>
</g>
<!-- Node9&#45;&gt;Node3 -->
<g id="edge9" class="edge">
<title>Node9&#45;&gt;Node3</title>
<path fill="none" stroke="#63b8ff" d="M469.33,-56.12C472.26,-55.72 475.17,-55.35 478,-55 644.92,-34.55 691.81,-48.53 860.4,-19.17"/>
<polygon fill="#63b8ff" stroke="#63b8ff" points="860.95,-22.63 870.19,-17.44 859.73,-15.73 860.95,-22.63"/>
</g>
<!-- Node9&#45;&gt;Node4 -->
<g id="edge10" class="edge">
<title>Node9&#45;&gt;Node4</title>
<path fill="none" stroke="#63b8ff" d="M374.62,-56.24C304.37,-45.48 174.18,-25.54 111.51,-15.94"/>
<polygon fill="#63b8ff" stroke="#63b8ff" points="112.18,-12.5 101.77,-14.45 111.12,-19.42 112.18,-12.5"/>
</g>
<!-- Node9&#45;&gt;Node6 -->
<g id="edge11" class="edge">
<title>Node9&#45;&gt;Node6</title>
<path fill="none" stroke="#63b8ff" d="M409.28,-54.51C398.22,-46.7 381.96,-35.21 368.83,-25.93"/>
<polygon fill="#63b8ff" stroke="#63b8ff" points="370.96,-23.14 360.77,-20.23 366.92,-28.86 370.96,-23.14"/>
</g>
<!-- Node10 -->
<g id="node10" class="node">
<title>Node10</title>
<g id="a_node10"><a xlink:title=" ">
<polygon fill="#e0e0e0" stroke="#999999" points="445,-19 393,-19 393,0 445,0 445,-19"/>
<text text-anchor="middle" x="419" y="-7" font-family="Helvetica,sans-Serif" font-size="10.00">stdarg.h</text>
</a>
</g>
</g>
<!-- Node9&#45;&gt;Node10 -->
<g id="edge12" class="edge">
<title>Node9&#45;&gt;Node10</title>
<path fill="none" stroke="#63b8ff" d="M421.5,-54.75C421.14,-48.27 420.62,-39.16 420.15,-30.9"/>
<polygon fill="#63b8ff" stroke="#63b8ff" points="423.65,-30.74 419.59,-20.95 416.66,-31.13 423.65,-30.74"/>
</g>
<!-- Node11 -->
<g id="node11" class="node">
<title>Node11</title>
<g id="a_node11"><a xlink:title=" ">
<polygon fill="#e0e0e0" stroke="#999999" points="528.5,-19 463.5,-19 463.5,0 528.5,0 528.5,-19"/>
<text text-anchor="middle" x="496" y="-7" font-family="Helvetica,sans-Serif" font-size="10.00">sys/errno.h</text>
</a>
</g>
</g>
<!-- Node9&#45;&gt;Node11 -->
<g id="edge13" class="edge">
<title>Node9&#45;&gt;Node11</title>
<path fill="none" stroke="#63b8ff" d="M434.55,-54.51C445.46,-46.7 461.5,-35.21 474.46,-25.93"/>
<polygon fill="#63b8ff" stroke="#63b8ff" points="476.31,-28.91 482.4,-20.24 472.23,-23.22 476.31,-28.91"/>
</g>
<!-- Node12 -->
<g id="node12" class="node">
<title>Node12</title>
<g id="a_node12"><a xlink:href="types_8h.html" target="_top" xlink:title=" ">
<polygon fill="white" stroke="#666666" points="743.5,-19 638.5,-19 638.5,0 743.5,0 743.5,-19"/>
<text text-anchor="middle" x="691" y="-7" font-family="Helvetica,sans-Serif" font-size="10.00">ARX/ARUtil/types.h</text>
</a>
</g>
</g>
<!-- Node9&#45;&gt;Node12 -->
<g id="edge14" class="edge">
<title>Node9&#45;&gt;Node12</title>
<path fill="none" stroke="#63b8ff" d="M467.63,-54.51C513.66,-45.44 584.83,-31.42 634.42,-21.65"/>
<polygon fill="#63b8ff" stroke="#63b8ff" points="634.97,-25.11 644.11,-19.74 633.62,-18.24 634.97,-25.11"/>
</g>
<!-- Node14 -->
<g id="node14" class="node">
<title>Node14</title>
<g id="a_node14"><a xlink:title=" ">
<polygon fill="#e0e0e0" stroke="#999999" points="620.5,-19 573.5,-19 573.5,0 620.5,0 620.5,-19"/>
<text text-anchor="middle" x="597" y="-7" font-family="Helvetica,sans-Serif" font-size="10.00">math.h</text>
</a>
</g>
</g>
<!-- Node13&#45;&gt;Node14 -->
<g id="edge16" class="edge">
<title>Node13&#45;&gt;Node14</title>
<path fill="none" stroke="#63b8ff" d="M600.34,-54.75C599.85,-48.27 599.16,-39.16 598.54,-30.9"/>
<polygon fill="#63b8ff" stroke="#63b8ff" points="602.03,-30.66 597.79,-20.95 595.05,-31.19 602.03,-30.66"/>
</g>
<!-- Node15&#45;&gt;Node3 -->
<g id="edge18" class="edge">
<title>Node15&#45;&gt;Node3</title>
<path fill="none" stroke="#63b8ff" d="M948.97,-54.51C939.58,-46.85 925.85,-35.66 914.59,-26.47"/>
<polygon fill="#63b8ff" stroke="#63b8ff" points="917,-23.92 907.04,-20.31 912.57,-29.35 917,-23.92"/>
</g>
<!-- Node16 -->
<g id="node16" class="node">
<title>Node16</title>
<g id="a_node16"><a xlink:href="icp_core_8h.html" target="_top" xlink:title=" ">
<polygon fill="white" stroke="#666666" points="1036,-19 936,-19 936,0 1036,0 1036,-19"/>
<text text-anchor="middle" x="986" y="-7" font-family="Helvetica,sans-Serif" font-size="10.00">ARX/AR/icpCore.h</text>
</a>
</g>
</g>
<!-- Node15&#45;&gt;Node16 -->
<g id="edge19" class="edge">
<title>Node15&#45;&gt;Node16</title>
<path fill="none" stroke="#63b8ff" d="M964.29,-54.75C967.62,-47.96 972.36,-38.3 976.56,-29.73"/>
<polygon fill="#63b8ff" stroke="#63b8ff" points="979.68,-31.32 980.95,-20.8 973.4,-28.24 979.68,-31.32"/>
</g>
<!-- Node17&#45;&gt;Node2 -->
<g id="edge21" class="edge">
<title>Node17&#45;&gt;Node2</title>
<path fill="none" stroke="#63b8ff" d="M318.8,-72.59C377.71,-82.12 478.19,-99.05 537.76,-109.48"/>
<polygon fill="#63b8ff" stroke="#63b8ff" points="536.81,-112.86 547.26,-111.15 538.02,-105.97 536.81,-112.86"/>
</g>
<!-- Node18&#45;&gt;Node2 -->
<g id="edge24" class="edge">
<title>Node18&#45;&gt;Node2</title>
<path fill="none" stroke="#63b8ff" d="M708.62,-74.36C687.64,-82.93 653.06,-96.01 625.89,-105.71"/>
<polygon fill="#63b8ff" stroke="#63b8ff" points="624.83,-102.38 616.56,-109.01 627.16,-108.98 624.83,-102.38"/>
</g>
<!-- Node18&#45;&gt;Node7 -->
<g id="edge23" class="edge">
<title>Node18&#45;&gt;Node7</title>
<path fill="none" stroke="#63b8ff" d="M740.74,-54.51C752.8,-46.62 770.59,-34.98 784.84,-25.65"/>
<polygon fill="#63b8ff" stroke="#63b8ff" points="786.74,-28.59 793.2,-20.19 782.91,-22.73 786.74,-28.59"/>
</g>
<!-- Node20 -->
<g id="node20" class="node">
<title>Node20</title>
<g id="a_node20"><a xlink:href="config_8h.html" target="_top" xlink:title=" ">
<polygon fill="white" stroke="#666666" points="419,-129 321,-129 321,-110 419,-110 419,-129"/>
<text text-anchor="middle" x="370" y="-117" font-family="Helvetica,sans-Serif" font-size="10.00">ARX/AR2/config.h</text>
</a>
</g>
</g>
<!-- Node19&#45;&gt;Node20 -->
<g id="edge29" class="edge">
<title>Node19&#45;&gt;Node20</title>
<path fill="none" stroke="#63b8ff" d="M228.96,-274.78C230.65,-262.04 234.98,-237.93 245,-220 267.05,-180.53 311.69,-150.99 341.22,-134.73"/>
<polygon fill="#63b8ff" stroke="#63b8ff" points="342.82,-137.84 350.01,-130.06 339.53,-131.66 342.82,-137.84"/>
</g>
<!-- Node21 -->
<g id="node21" class="node">
<title>Node21</title>
<g id="a_node21"><a xlink:href="image_set_8h.html" target="_top" xlink:title=" ">
<polygon fill="white" stroke="#666666" points="426.5,-184 313.5,-184 313.5,-165 426.5,-165 426.5,-184"/>
<text text-anchor="middle" x="370" y="-172" font-family="Helvetica,sans-Serif" font-size="10.00">ARX/AR2/imageSet.h</text>
</a>
</g>
</g>
<!-- Node19&#45;&gt;Node21 -->
<g id="edge30" class="edge">
<title>Node19&#45;&gt;Node21</title>
<path fill="none" stroke="#63b8ff" d="M230.8,-274.93C235.6,-261.51 246.57,-235.48 264,-220 280.56,-205.29 302.67,-194.98 322.42,-188.01"/>
<polygon fill="#63b8ff" stroke="#63b8ff" points="323.27,-191.41 331.66,-184.95 321.07,-184.77 323.27,-191.41"/>
</g>
<!-- Node19&#45;&gt;Node22 -->
<g id="edge33" class="edge">
<title>Node19&#45;&gt;Node22</title>
<path fill="none" stroke="#63b8ff" d="M245.47,-274.51C261.4,-266.31 285.19,-254.07 303.64,-244.58"/>
<polygon fill="#63b8ff" stroke="#63b8ff" points="305.15,-247.74 312.44,-240.05 301.95,-241.51 305.15,-247.74"/>
</g>
<!-- Node21&#45;&gt;Node2 -->
<g id="edge31" class="edge">
<title>Node21&#45;&gt;Node2</title>
<path fill="none" stroke="#63b8ff" d="M406.64,-164.51C442.98,-155.59 498.83,-141.89 538.54,-132.15"/>
<polygon fill="#63b8ff" stroke="#63b8ff" points="539.19,-135.59 548.07,-129.81 537.52,-128.79 539.19,-135.59"/>
</g>
<!-- Node21&#45;&gt;Node20 -->
<g id="edge32" class="edge">
<title>Node21&#45;&gt;Node20</title>
<path fill="none" stroke="#63b8ff" d="M370,-164.75C370,-158.27 370,-149.16 370,-140.9"/>
<polygon fill="#63b8ff" stroke="#63b8ff" points="373.5,-140.96 370,-130.96 366.5,-140.96 373.5,-140.96"/>
</g>
<!-- Node22&#45;&gt;Node20 -->
<g id="edge34" class="edge">
<title>Node22&#45;&gt;Node20</title>
<path fill="none" stroke="#63b8ff" d="M322.22,-219.65C310.95,-207.17 293.99,-183.83 304,-165 311.07,-151.71 324.06,-141.68 336.66,-134.53"/>
<polygon fill="#63b8ff" stroke="#63b8ff" points="337.95,-137.81 345.22,-130.11 334.73,-131.59 337.95,-137.81"/>
</g>
<!-- Node22&#45;&gt;Node21 -->
<g id="edge35" class="edge">
<title>Node22&#45;&gt;Node21</title>
<path fill="none" stroke="#63b8ff" d="M337.44,-219.75C342.66,-212.66 350.19,-202.42 356.69,-193.59"/>
<polygon fill="#63b8ff" stroke="#63b8ff" points="359.42,-195.79 362.52,-185.66 353.78,-191.64 359.42,-195.79"/>
</g>
<!-- Node23&#45;&gt;Node2 -->
<g id="edge38" class="edge">
<title>Node23&#45;&gt;Node2</title>
<path fill="none" stroke="#63b8ff" d="M476.86,-274.51C526.1,-262.92 597.43,-237.49 631,-184 641.57,-167.16 625.12,-148.7 609.23,-136.05"/>
<polygon fill="#63b8ff" stroke="#63b8ff" points="611.48,-133.36 601.36,-130.23 607.31,-138.99 611.48,-133.36"/>
</g>
<!-- Node23&#45;&gt;Node20 -->
<g id="edge39" class="edge">
<title>Node23&#45;&gt;Node20</title>
<path fill="none" stroke="#63b8ff" d="M428.87,-274.52C437.15,-253.82 454.36,-201.71 435,-165 428.07,-151.86 415.33,-141.86 402.94,-134.7"/>
<polygon fill="#63b8ff" stroke="#63b8ff" points="404.58,-131.61 394.1,-130.06 401.33,-137.81 404.58,-131.61"/>
</g>
<!-- Node23&#45;&gt;Node21 -->
<g id="edge40" class="edge">
<title>Node23&#45;&gt;Node21</title>
<path fill="none" stroke="#63b8ff" d="M421.76,-274.67C417.07,-262.21 407.88,-238.9 398,-220 393.41,-211.21 387.67,-201.87 382.59,-194.03"/>
<polygon fill="#63b8ff" stroke="#63b8ff" points="385.51,-192.11 377.07,-185.71 379.68,-195.98 385.51,-192.11"/>
</g>
<!-- Node23&#45;&gt;Node22 -->
<g id="edge41" class="edge">
<title>Node23&#45;&gt;Node22</title>
<path fill="none" stroke="#63b8ff" d="M409.05,-274.51C394.65,-266.39 373.21,-254.3 356.44,-244.85"/>
<polygon fill="#63b8ff" stroke="#63b8ff" points="358.46,-241.96 348.03,-240.1 355.02,-248.06 358.46,-241.96"/>
</g>
<!-- Node24&#45;&gt;Node2 -->
<g id="edge45" class="edge">
<title>Node24&#45;&gt;Node2</title>
<path fill="none" stroke="#63b8ff" d="M544.75,-329.6C567.98,-307.64 626.25,-247.97 647,-184 649.61,-175.97 650.83,-172.53 647,-165 640.52,-152.26 628.49,-142.29 616.82,-135.06"/>
<polygon fill="#63b8ff" stroke="#63b8ff" points="618.55,-132.01 608.12,-130.14 615.1,-138.11 618.55,-132.01"/>
</g>
<!-- Node24&#45;&gt;Node15 -->
<g id="edge46" class="edge">
<title>Node24&#45;&gt;Node15</title>
<path fill="none" stroke="#63b8ff" d="M588.21,-331.28C680.92,-317.61 866.46,-285.17 911,-239 952.22,-196.27 959.26,-121.59 960.14,-85.78"/>
<polygon fill="#63b8ff" stroke="#63b8ff" points="963.64,-86.02 960.22,-75.99 956.64,-85.96 963.64,-86.02"/>
</g>
<!-- Node24&#45;&gt;Node20 -->
<g id="edge47" class="edge">
<title>Node24&#45;&gt;Node20</title>
<path fill="none" stroke="#63b8ff" d="M532.97,-329.81C526.19,-302.39 501.89,-216.43 453,-165 440.19,-151.52 422.37,-141.23 406.53,-133.96"/>
<polygon fill="#63b8ff" stroke="#63b8ff" points="407.93,-130.75 397.36,-130.01 405.16,-137.18 407.93,-130.75"/>
</g>
<!-- Node24&#45;&gt;Node22 -->
<g id="edge48" class="edge">
<title>Node24&#45;&gt;Node22</title>
<path fill="none" stroke="#63b8ff" d="M481.74,-336.57C444.25,-332.64 394.91,-321.98 361,-294 347.62,-282.96 339.84,-264.57 335.58,-250.41"/>
<polygon fill="#63b8ff" stroke="#63b8ff" points="338.98,-249.6 333.06,-240.82 332.21,-251.38 338.98,-249.6"/>
</g>
<!-- Node24&#45;&gt;Node23 -->
<g id="edge49" class="edge">
<title>Node24&#45;&gt;Node23</title>
<path fill="none" stroke="#63b8ff" d="M516.34,-329.51C499.17,-321.24 473.45,-308.84 453.67,-299.31"/>
<polygon fill="#63b8ff" stroke="#63b8ff" points="455.28,-296.2 444.75,-295.01 452.24,-302.51 455.28,-296.2"/>
</g>
<!-- Node25 -->
<g id="node25" class="node">
<title>Node25</title>
<g id="a_node25"><a xlink:href="thread__sub_8h.html" target="_top" xlink:title=" ">
<polygon fill="white" stroke="#666666" points="901.5,-239 772.5,-239 772.5,-220 901.5,-220 901.5,-239"/>
<text text-anchor="middle" x="837" y="-227" font-family="Helvetica,sans-Serif" font-size="10.00">ARX/ARUtil/thread_sub.h</text>
</a>
</g>
</g>
<!-- Node24&#45;&gt;Node25 -->
<g id="edge43" class="edge">
<title>Node24&#45;&gt;Node25</title>
<path fill="none" stroke="#63b8ff" d="M577.43,-329.54C611.8,-321.73 661.2,-309.29 703,-294 741.67,-279.85 784.33,-258.59 810.9,-244.63"/>
<polygon fill="#63b8ff" stroke="#63b8ff" points="812.39,-247.81 819.58,-240.02 809.1,-241.62 812.39,-247.81"/>
</g>
<!-- Node26 -->
<g id="node26" class="node">
<title>Node26</title>
<g id="a_node26"><a xlink:href="marker_8h.html" target="_top" xlink:title=" ">
<polygon fill="white" stroke="#666666" points="622.5,-184 521.5,-184 521.5,-165 622.5,-165 622.5,-184"/>
<text text-anchor="middle" x="572" y="-172" font-family="Helvetica,sans-Serif" font-size="10.00">ARX/AR2/marker.h</text>
</a>
</g>
</g>
<!-- Node24&#45;&gt;Node26 -->
<g id="edge50" class="edge">
<title>Node24&#45;&gt;Node26</title>
<path fill="none" stroke="#63b8ff" d="M536.99,-329.74C542.74,-304.42 559.47,-230.72 567.54,-195.16"/>
<polygon fill="#63b8ff" stroke="#63b8ff" points="570.87,-196.31 569.67,-185.78 564.04,-194.76 570.87,-196.31"/>
</g>
<!-- Node25&#45;&gt;Node12 -->
<g id="edge44" class="edge">
<title>Node25&#45;&gt;Node12</title>
<path fill="none" stroke="#63b8ff" d="M837.58,-219.72C838.94,-192.03 839.41,-105.36 797,-55 784.27,-39.89 765.53,-29.81 747.33,-23.13"/>
<polygon fill="#63b8ff" stroke="#63b8ff" points="748.46,-19.81 737.87,-19.96 746.25,-26.45 748.46,-19.81"/>
</g>
<!-- Node26&#45;&gt;Node2 -->
<g id="edge51" class="edge">
<title>Node26&#45;&gt;Node2</title>
<path fill="none" stroke="#63b8ff" d="M574.31,-164.75C576.06,-158.11 578.54,-148.73 580.77,-140.31"/>
<polygon fill="#63b8ff" stroke="#63b8ff" points="584.08,-141.47 583.25,-130.91 577.31,-139.68 584.08,-141.47"/>
</g>
<!-- Node26&#45;&gt;Node20 -->
<g id="edge52" class="edge">
<title>Node26&#45;&gt;Node20</title>
<path fill="none" stroke="#63b8ff" d="M537.73,-164.51C503.97,-155.65 452.19,-142.07 415.1,-132.33"/>
<polygon fill="#63b8ff" stroke="#63b8ff" points="416.12,-128.98 405.56,-129.83 414.35,-135.75 416.12,-128.98"/>
</g>
<!-- Node27&#45;&gt;Node20 -->
<g id="edge54" class="edge">
<title>Node27&#45;&gt;Node20</title>
<path fill="none" stroke="#63b8ff" d="M142.32,-219.6C151.08,-205.72 169.9,-179.07 193,-165 228.28,-143.5 273.54,-132.36 309.46,-126.6"/>
<polygon fill="#63b8ff" stroke="#63b8ff" points="309.9,-130.08 319.27,-125.14 308.87,-123.15 309.9,-130.08"/>
</g>
</g>
</svg>
        <g id="navigator" transform="translate(0 0)" fill="#404254">
                <rect fill="#f2f5e9" fill-opacity="0.5" stroke="#606060" stroke-width=".5" x="0" y="0" width="60" height="60"/>
                <use id="zoomplus" xlink:href="#zoomPlus" x="17" y="9" onmousedown="handleZoom(evt,'in')"/>
                <use id="zoomminus" xlink:href="#zoomMin" x="42" y="9" onmousedown="handleZoom(evt,'out')"/>
                <use id="reset" xlink:href="#resetDef" x="30" y="36" onmousedown="handleReset()"/>
                <g id="arrowUp" xlink:href="#dirArrow" transform="translate(30 24)" onmousedown="handlePan(0,-1)">
                  <use xlink:href="#rim" fill="#404040">
                        <set attributeName="fill" to="#808080" begin="arrowUp.mouseover" end="arrowUp.mouseout"/>
                  </use>
                  <path fill="none" stroke="white" stroke-width="1.5" d="M0,-3.0v7 M-2.5,-0.5L0,-3.0L2.5,-0.5"/>
                </g>
                <g id="arrowRight" xlink:href="#dirArrow" transform="rotate(90) translate(36 -43)" onmousedown="handlePan(1,0)">
                  <use xlink:href="#rim" fill="#404040">
                        <set attributeName="fill" to="#808080" begin="arrowRight.mouseover" end="arrowRight.mouseout"/>
                  </use>
                  <path fill="none" stroke="white" stroke-width="1.5" d="M0,-3.0v7 M-2.5,-0.5L0,-3.0L2.5,-0.5"/>
                </g>
                <g id="arrowDown" xlink:href="#dirArrow" transform="rotate(180) translate(-30 -48)" onmousedown="handlePan(0,1)">
                  <use xlink:href="#rim" fill="#404040">
                        <set attributeName="fill" to="#808080" begin="arrowDown.mouseover" end="arrowDown.mouseout"/>
                  </use>
                  <path fill="none" stroke="white" stroke-width="1.5" d="M0,-3.0v7 M-2.5,-0.5L0,-3.0L2.5,-0.5"/>
                </g>
                <g id="arrowLeft" xlink:href="#dirArrow" transform="rotate(270) translate(-36 17)" onmousedown="handlePan(-1,0)">
                  <use xlink:href="#rim" fill="#404040">
                        <set attributeName="fill" to="#808080" begin="arrowLeft.mouseover" end="arrowLeft.mouseout"/>
                  </use>
                  <path fill="none" stroke="white" stroke-width="1.5" d="M0,-3.0v7 M-2.5,-0.5L0,-3.0L2.5,-0.5"/>
                </g>
        </g>
        <svg viewBox="0 0 15 15" width="100%" height="30px" preserveAspectRatio="xMaxYMin meet">
         <g id="arrow_out" transform="scale(0.3 0.3)">
          <a xlink:href="surface_8c__incl_org.svg" target="_base">
           <rect id="button" ry="5" rx="5" y="6" x="6" height="38" width="38"
                fill="#f2f5e9" fill-opacity="0.5" stroke="#606060" stroke-width="1.0"/>
           <path id="arrow"
             d="M 11.500037,31.436501 C 11.940474,20.09759 22.043105,11.32322 32.158766,21.979434 L 37.068811,17.246167 C 37.068811,17.246167 37.088388,32 37.088388,32 L 22.160133,31.978069 C 22.160133,31.978069 26.997745,27.140456 26.997745,27.140456 C 18.528582,18.264221 13.291696,25.230495 11.500037,31.436501 z"
             style="fill:#404040;"/>
          </a>
         </g>
        </svg>
</svg>
