<?xml version="1.0" encoding="UTF-8" standalone="no"?>
<!DOCTYPE svg PUBLIC "-//W3C//DTD SVG 1.1//EN"
 "http://www.w3.org/Graphics/SVG/1.1/DTD/svg11.dtd">
<!-- Generated by graphviz version 2.40.1 (20161225.0304)
 -->
<!-- Title: ar2FreeSurfaceSet Pages: 1 -->
<svg width="245pt" height="101pt"
 viewBox="0.00 0.00 244.97 101.00" xmlns="http://www.w3.org/2000/svg" xmlns:xlink="http://www.w3.org/1999/xlink">
<g id="graph0" class="graph" transform="scale(1 1) rotate(0) translate(4 97)">
<title>ar2FreeSurfaceSet</title>
<polygon fill="#ffffff" stroke="transparent" points="-4,4 -4,-97 240.9746,-97 240.9746,4 -4,4"/>
<!-- Node0 -->
<g id="node1" class="node">
<title>Node0</title>
<polygon fill="#bfbfbf" stroke="#000000" points="0,-37.5 0,-55.5 100.4873,-55.5 100.4873,-37.5 0,-37.5"/>
<text text-anchor="middle" x="50.2437" y="-43.5" font-family="Helvetica,sans-Serif" font-size="10.00" fill="#000000">ar2FreeSurfaceSet</text>
</g>
<!-- Node1 -->
<g id="node2" class="node">
<title>Node1</title>
<g id="a_node2"><a xlink:href="image_set_8c.html#a556112a99d1a97361054d49718ab23c7" target="_top" xlink:title="ar2FreeImageSet">
<polygon fill="#ffffff" stroke="#000000" points="139.8223,-74.5 139.8223,-92.5 233.6396,-92.5 233.6396,-74.5 139.8223,-74.5"/>
<text text-anchor="middle" x="186.731" y="-80.5" font-family="Helvetica,sans-Serif" font-size="10.00" fill="#000000">ar2FreeImageSet</text>
</a>
</g>
</g>
<!-- Node0&#45;&gt;Node1 -->
<g id="edge1" class="edge">
<title>Node0&#45;&gt;Node1</title>
<path fill="none" stroke="#191970" d="M83.6322,-55.5512C101.6432,-60.4338 124.0818,-66.5166 143.4224,-71.7596"/>
<polygon fill="#191970" stroke="#191970" points="142.6466,-75.1756 153.2141,-74.414 144.4782,-68.4194 142.6466,-75.1756"/>
</g>
<!-- Node2 -->
<g id="node3" class="node">
<title>Node2</title>
<g id="a_node3"><a xlink:href="feature_set_8c.html#ac71690e7330ed1408ab329c34a378ff2" target="_top" xlink:title="ar2FreeFeatureSet">
<polygon fill="#ffffff" stroke="#000000" points="136.4873,-37.5 136.4873,-55.5 236.9746,-55.5 236.9746,-37.5 136.4873,-37.5"/>
<text text-anchor="middle" x="186.731" y="-43.5" font-family="Helvetica,sans-Serif" font-size="10.00" fill="#000000">ar2FreeFeatureSet</text>
</a>
</g>
</g>
<!-- Node0&#45;&gt;Node2 -->
<g id="edge2" class="edge">
<title>Node0&#45;&gt;Node2</title>
<path fill="none" stroke="#191970" d="M100.6787,-46.5C108.8847,-46.5 117.4601,-46.5 125.8834,-46.5"/>
<polygon fill="#191970" stroke="#191970" points="126.0476,-50.0001 136.0475,-46.5 126.0475,-43.0001 126.0476,-50.0001"/>
</g>
<!-- Node3 -->
<g id="node4" class="node">
<title>Node3</title>
<g id="a_node4"><a xlink:href="marker_8h.html#a45af9784ccd96715f23070c74cda0bbe" target="_top" xlink:title="ar2FreeMarkerSet">
<polygon fill="#ffffff" stroke="#000000" points="138.1621,-.5 138.1621,-18.5 235.2998,-18.5 235.2998,-.5 138.1621,-.5"/>
<text text-anchor="middle" x="186.731" y="-6.5" font-family="Helvetica,sans-Serif" font-size="10.00" fill="#000000">ar2FreeMarkerSet</text>
</a>
</g>
</g>
<!-- Node0&#45;&gt;Node3 -->
<g id="edge3" class="edge">
<title>Node0&#45;&gt;Node3</title>
<path fill="none" stroke="#191970" d="M83.6322,-37.4488C101.6432,-32.5662 124.0818,-26.4834 143.4224,-21.2404"/>
<polygon fill="#191970" stroke="#191970" points="144.4782,-24.5806 153.2141,-18.586 142.6466,-17.8244 144.4782,-24.5806"/>
</g>
</g>
</svg>
