<?xml version="1.0" encoding="UTF-8" standalone="no"?>
<!DOCTYPE svg PUBLIC "-//W3C//DTD SVG 1.1//EN"
 "http://www.w3.org/Graphics/SVG/1.1/DTD/svg11.dtd">
<!-- Generated by graphviz version 8.0.5 (20230430.1635)
 -->
<!-- Title: ar2ReadSurfaceSet Pages: 1 -->
<svg width="536pt" height="360pt"
 viewBox="0.00 0.00 536.25 360.25" xmlns="http://www.w3.org/2000/svg" xmlns:xlink="http://www.w3.org/1999/xlink">
<g id="graph0" class="graph" transform="scale(1 1) rotate(0) translate(4 356.25)">
<title>ar2ReadSurfaceSet</title>
<!-- Node1 -->
<g id="node1" class="node">
<title>Node1</title>
<g id="a_node1"><a xlink:title=" ">
<polygon fill="#999999" stroke="#666666" points="101.5,-222.25 0,-222.25 0,-203 101.5,-203 101.5,-222.25"/>
<text text-anchor="middle" x="50.75" y="-208.75" font-family="Helvetica,sans-Serif" font-size="10.00">ar2ReadSurfaceSet</text>
</a>
</g>
</g>
<!-- Node2 -->
<g id="node2" class="node">
<title>Node2</title>
<g id="a_node2"><a xlink:href="feature_set_8c.html#ac71690e7330ed1408ab329c34a378ff2" target="_top" xlink:title=" ">
<polygon fill="white" stroke="#666666" points="236.38,-352.25 139.38,-352.25 139.38,-333 236.38,-333 236.38,-352.25"/>
<text text-anchor="middle" x="187.88" y="-338.75" font-family="Helvetica,sans-Serif" font-size="10.00">ar2FreeFeatureSet</text>
</a>
</g>
</g>
<!-- Node1&#45;&gt;Node2 -->
<g id="edge1" class="edge">
<title>Node1&#45;&gt;Node2</title>
<path fill="none" stroke="#63b8ff" d="M56.77,-222.52C68.19,-244.1 98.22,-295.78 137.5,-324.62 138.97,-325.7 140.5,-326.72 142.09,-327.68"/>
<polygon fill="#63b8ff" stroke="#63b8ff" points="140.12,-331.12 150.61,-332.6 143.33,-324.9 140.12,-331.12"/>
</g>
<!-- Node3 -->
<g id="node3" class="node">
<title>Node3</title>
<g id="a_node3"><a xlink:href="image_set_8c.html#a556112a99d1a97361054d49718ab23c7" target="_top" xlink:title=" ">
<polygon fill="white" stroke="#666666" points="233.38,-315.25 142.38,-315.25 142.38,-296 233.38,-296 233.38,-315.25"/>
<text text-anchor="middle" x="187.88" y="-301.75" font-family="Helvetica,sans-Serif" font-size="10.00">ar2FreeImageSet</text>
</a>
</g>
</g>
<!-- Node1&#45;&gt;Node3 -->
<g id="edge2" class="edge">
<title>Node1&#45;&gt;Node3</title>
<path fill="none" stroke="#63b8ff" d="M60.85,-222.69C75.58,-238.46 106.18,-269.1 137.5,-287.62 139.57,-288.85 141.74,-290.02 143.97,-291.12"/>
<polygon fill="#63b8ff" stroke="#63b8ff" points="142.4,-294.69 152.96,-295.56 145.24,-288.3 142.4,-294.69"/>
</g>
<!-- Node4 -->
<g id="node4" class="node">
<title>Node4</title>
<g id="a_node4"><a xlink:href="feature_set_8c.html#a5d47e156d09d91c4224a894f3d9f22ed" target="_top" xlink:title=" ">
<polygon fill="white" stroke="#666666" points="238.25,-278.25 137.5,-278.25 137.5,-259 238.25,-259 238.25,-278.25"/>
<text text-anchor="middle" x="187.88" y="-264.75" font-family="Helvetica,sans-Serif" font-size="10.00">ar2ReadFeatureSet</text>
</a>
</g>
</g>
<!-- Node1&#45;&gt;Node4 -->
<g id="edge3" class="edge">
<title>Node1&#45;&gt;Node4</title>
<path fill="none" stroke="#63b8ff" d="M73.43,-222.72C90.66,-230.62 115.45,-241.73 137.5,-250.62 140.95,-252.02 144.55,-253.42 148.16,-254.8"/>
<polygon fill="#63b8ff" stroke="#63b8ff" points="146.7,-258.36 157.29,-258.58 149.15,-251.8 146.7,-258.36"/>
</g>
<!-- Node5 -->
<g id="node5" class="node">
<title>Node5</title>
<g id="a_node5"><a xlink:href="image_set_8c.html#a9349b8e3f4d326aa163f3073660e0910" target="_top" xlink:title=" ">
<polygon fill="white" stroke="#666666" points="235.25,-241.25 140.5,-241.25 140.5,-222 235.25,-222 235.25,-241.25"/>
<text text-anchor="middle" x="187.88" y="-227.75" font-family="Helvetica,sans-Serif" font-size="10.00">ar2ReadImageSet</text>
</a>
</g>
</g>
<!-- Node1&#45;&gt;Node5 -->
<g id="edge4" class="edge">
<title>Node1&#45;&gt;Node5</title>
<path fill="none" stroke="#63b8ff" d="M101.68,-219.65C110.76,-220.92 120.29,-222.26 129.57,-223.57"/>
<polygon fill="#63b8ff" stroke="#63b8ff" points="128.89,-227.15 139.28,-225.07 129.87,-220.22 128.89,-227.15"/>
</g>
<!-- Node7 -->
<g id="node7" class="node">
<title>Node7</title>
<g id="a_node7"><a xlink:href="marker_8c.html#af4c089ccf79ee304ac060d91d6ae7531" target="_top" xlink:title=" ">
<polygon fill="white" stroke="#666666" points="236.75,-204.25 139,-204.25 139,-185 236.75,-185 236.75,-204.25"/>
<text text-anchor="middle" x="187.88" y="-190.75" font-family="Helvetica,sans-Serif" font-size="10.00">ar2ReadMarkerSet</text>
</a>
</g>
</g>
<!-- Node1&#45;&gt;Node7 -->
<g id="edge6" class="edge">
<title>Node1&#45;&gt;Node7</title>
<path fill="none" stroke="#63b8ff" d="M101.68,-205.97C110.34,-204.82 119.41,-203.61 128.28,-202.43"/>
<polygon fill="#63b8ff" stroke="#63b8ff" points="128.49,-205.8 137.95,-201.01 127.57,-198.86 128.49,-205.8"/>
</g>
<!-- Node11 -->
<g id="node11" class="node">
<title>Node11</title>
<g id="a_node11"><a xlink:href="util_8c.html#aa66998631e04d1b31ed577e23d789ec0" target="_top" xlink:title=" ">
<polygon fill="white" stroke="#666666" points="236,-167.25 139.75,-167.25 139.75,-148 236,-148 236,-167.25"/>
<text text-anchor="middle" x="187.88" y="-153.75" font-family="Helvetica,sans-Serif" font-size="10.00">ar2UtilRemoveExt</text>
</a>
</g>
</g>
<!-- Node1&#45;&gt;Node11 -->
<g id="edge10" class="edge">
<title>Node1&#45;&gt;Node11</title>
<path fill="none" stroke="#63b8ff" d="M74.17,-202.53C91.38,-194.88 115.8,-184.25 137.5,-175.62 140.95,-174.25 144.56,-172.86 148.18,-171.49"/>
<polygon fill="#63b8ff" stroke="#63b8ff" points="149.16,-174.49 157.31,-167.72 146.72,-167.93 149.16,-174.49"/>
</g>
<!-- Node13 -->
<g id="node13" class="node">
<title>Node13</title>
<g id="a_node13"><a xlink:href="util_8c.html#af8ad29ce97e0849a42fdff2606c2565a" target="_top" xlink:title=" ">
<polygon fill="white" stroke="#666666" points="235.62,-130.25 140.12,-130.25 140.12,-111 235.62,-111 235.62,-130.25"/>
<text text-anchor="middle" x="187.88" y="-116.75" font-family="Helvetica,sans-Serif" font-size="10.00">ar2UtilReplaceExt</text>
</a>
</g>
</g>
<!-- Node1&#45;&gt;Node13 -->
<g id="edge12" class="edge">
<title>Node1&#45;&gt;Node13</title>
<path fill="none" stroke="#63b8ff" d="M60.88,-202.7C75.65,-187.16 106.3,-156.94 137.5,-138.62 139.58,-137.41 141.75,-136.25 143.98,-135.15"/>
<polygon fill="#63b8ff" stroke="#63b8ff" points="145.25,-137.97 152.97,-130.72 142.41,-131.57 145.25,-137.97"/>
</g>
<!-- Node15 -->
<g id="node15" class="node">
<title>Node15</title>
<g id="a_node15"><a xlink:href="ar_util_8c.html#a60ab472063fe1b236c847265a59996d3" target="_top" xlink:title=" ">
<polygon fill="white" stroke="#666666" points="224,-75.25 151.75,-75.25 151.75,-56 224,-56 224,-75.25"/>
<text text-anchor="middle" x="187.88" y="-61.75" font-family="Helvetica,sans-Serif" font-size="10.00">arUtilMatInvf</text>
</a>
</g>
</g>
<!-- Node1&#45;&gt;Node15 -->
<g id="edge14" class="edge">
<title>Node1&#45;&gt;Node15</title>
<path fill="none" stroke="#63b8ff" d="M58.03,-202.67C71.2,-182.29 103.29,-134.9 137.5,-101.62 144.9,-94.42 153.82,-87.49 162.02,-81.67"/>
<polygon fill="#63b8ff" stroke="#63b8ff" points="163.6,-84.15 169.87,-75.61 159.64,-78.37 163.6,-84.15"/>
</g>
<!-- Node6 -->
<g id="node6" class="node">
<title>Node6</title>
<g id="a_node6"><a xlink:href="jpeg_8c.html#a8264ceee0c52d60f156ecf71ad1cf045" target="_top" xlink:title=" ">
<polygon fill="white" stroke="#666666" points="380.25,-241.25 274.25,-241.25 274.25,-222 380.25,-222 380.25,-241.25"/>
<text text-anchor="middle" x="327.25" y="-227.75" font-family="Helvetica,sans-Serif" font-size="10.00">ar2ReadJpegImage2</text>
</a>
</g>
</g>
<!-- Node5&#45;&gt;Node6 -->
<g id="edge5" class="edge">
<title>Node5&#45;&gt;Node6</title>
<path fill="none" stroke="#63b8ff" d="M235.38,-231.62C244.34,-231.62 253.85,-231.62 263.22,-231.62"/>
<polygon fill="#63b8ff" stroke="#63b8ff" points="263.12,-235.13 273.12,-231.62 263.12,-228.13 263.12,-235.13"/>
</g>
<!-- Node8 -->
<g id="node8" class="node">
<title>Node8</title>
<g id="a_node8"><a xlink:href="ar_patt_load_8c.html#a6c3899cc1122ad7ae5bd93b4c00a64cf" target="_top" xlink:title="Load a pattern file into a pattern handle.">
<polygon fill="white" stroke="#666666" points="358.88,-204.25 295.62,-204.25 295.62,-185 358.88,-185 358.88,-204.25"/>
<text text-anchor="middle" x="327.25" y="-190.75" font-family="Helvetica,sans-Serif" font-size="10.00">arPattLoad</text>
</a>
</g>
</g>
<!-- Node7&#45;&gt;Node8 -->
<g id="edge7" class="edge">
<title>Node7&#45;&gt;Node8</title>
<path fill="none" stroke="#63b8ff" d="M236.92,-194.62C252.34,-194.62 269.28,-194.62 284.23,-194.62"/>
<polygon fill="#63b8ff" stroke="#63b8ff" points="284.21,-198.13 294.21,-194.62 284.21,-191.13 284.21,-198.13"/>
</g>
<!-- Node9 -->
<g id="node9" class="node">
<title>Node9</title>
<g id="a_node9"><a xlink:href="ar_patt_load_8c.html#a1eb242ab9531966ab8bd8a5379e78792" target="_top" xlink:title=" ">
<polygon fill="white" stroke="#666666" points="528.25,-222.25 416.25,-222.25 416.25,-203 528.25,-203 528.25,-222.25"/>
<text text-anchor="middle" x="472.25" y="-208.75" font-family="Helvetica,sans-Serif" font-size="10.00">arPattLoadFromBuffer</text>
</a>
</g>
</g>
<!-- Node8&#45;&gt;Node9 -->
<g id="edge8" class="edge">
<title>Node8&#45;&gt;Node9</title>
<path fill="none" stroke="#63b8ff" d="M359.28,-198.53C372.82,-200.24 389.26,-202.3 405.31,-204.33"/>
<polygon fill="#63b8ff" stroke="#63b8ff" points="404.42,-207.87 414.78,-205.64 405.29,-200.92 404.42,-207.87"/>
</g>
<!-- Node10 -->
<g id="node10" class="node">
<title>Node10</title>
<g id="a_node10"><a xlink:href="file__utils_8c.html#a21f1c9d5c1f0959f58653362849bd63f" target="_top" xlink:title=" ">
<polygon fill="white" stroke="#666666" points="487,-185.25 457.5,-185.25 457.5,-166 487,-166 487,-185.25"/>
<text text-anchor="middle" x="472.25" y="-171.75" font-family="Helvetica,sans-Serif" font-size="10.00">cat</text>
</a>
</g>
</g>
<!-- Node8&#45;&gt;Node10 -->
<g id="edge9" class="edge">
<title>Node8&#45;&gt;Node10</title>
<path fill="none" stroke="#63b8ff" d="M359.28,-190.5C385.4,-187.03 422.26,-182.13 446.45,-178.92"/>
<polygon fill="#63b8ff" stroke="#63b8ff" points="446.75,-182.28 456.2,-177.49 445.83,-175.34 446.75,-182.28"/>
</g>
<!-- Node12 -->
<g id="node12" class="node">
<title>Node12</title>
<g id="a_node12"><a xlink:href="ar_util_8c.html#a47064e5535ae919defcc0bd8bc6029b4" target="_top" xlink:title=" ">
<polygon fill="white" stroke="#666666" points="372.75,-167.25 281.75,-167.25 281.75,-148 372.75,-148 372.75,-167.25"/>
<text text-anchor="middle" x="327.25" y="-153.75" font-family="Helvetica,sans-Serif" font-size="10.00">arUtilRemoveExt</text>
</a>
</g>
</g>
<!-- Node11&#45;&gt;Node12 -->
<g id="edge11" class="edge">
<title>Node11&#45;&gt;Node12</title>
<path fill="none" stroke="#63b8ff" d="M236.15,-157.62C247.33,-157.62 259.34,-157.62 270.84,-157.62"/>
<polygon fill="#63b8ff" stroke="#63b8ff" points="270.66,-161.13 280.66,-157.62 270.66,-154.13 270.66,-161.13"/>
</g>
<!-- Node14 -->
<g id="node14" class="node">
<title>Node14</title>
<g id="a_node14"><a xlink:href="ar_util_8c.html#aa9777806940f9b11dcc5a15585d53d3d" target="_top" xlink:title=" ">
<polygon fill="white" stroke="#666666" points="372.38,-130.25 282.12,-130.25 282.12,-111 372.38,-111 372.38,-130.25"/>
<text text-anchor="middle" x="327.25" y="-116.75" font-family="Helvetica,sans-Serif" font-size="10.00">arUtilReplaceExt</text>
</a>
</g>
</g>
<!-- Node13&#45;&gt;Node14 -->
<g id="edge13" class="edge">
<title>Node13&#45;&gt;Node14</title>
<path fill="none" stroke="#63b8ff" d="M235.77,-120.62C247.08,-120.62 259.27,-120.62 270.92,-120.62"/>
<polygon fill="#63b8ff" stroke="#63b8ff" points="270.89,-124.13 280.89,-120.62 270.89,-117.13 270.89,-124.13"/>
</g>
<!-- Node16 -->
<g id="node16" class="node">
<title>Node16</title>
<g id="a_node16"><a xlink:href="m_alloc_8c.html#a69c9a974dc5a3963148ebb2c4a80f969" target="_top" xlink:title=" ">
<polygon fill="white" stroke="#666666" points="363.75,-93.25 290.75,-93.25 290.75,-74 363.75,-74 363.75,-93.25"/>
<text text-anchor="middle" x="327.25" y="-79.75" font-family="Helvetica,sans-Serif" font-size="10.00">arMatrixAlloc</text>
</a>
</g>
</g>
<!-- Node15&#45;&gt;Node16 -->
<g id="edge15" class="edge">
<title>Node15&#45;&gt;Node16</title>
<path fill="none" stroke="#63b8ff" d="M224.25,-70.26C241.19,-72.48 261.68,-75.16 279.85,-77.54"/>
<polygon fill="#63b8ff" stroke="#63b8ff" points="279.14,-81.11 289.51,-78.94 280.05,-74.17 279.14,-81.11"/>
</g>
<!-- Node17 -->
<g id="node17" class="node">
<title>Node17</title>
<g id="a_node17"><a xlink:href="m_free_8c.html#ac4b7a714cce9fffda773d86363380454" target="_top" xlink:title=" ">
<polygon fill="white" stroke="#666666" points="362.62,-56.25 291.88,-56.25 291.88,-37 362.62,-37 362.62,-56.25"/>
<text text-anchor="middle" x="327.25" y="-42.75" font-family="Helvetica,sans-Serif" font-size="10.00">arMatrixFree</text>
</a>
</g>
</g>
<!-- Node15&#45;&gt;Node17 -->
<g id="edge16" class="edge">
<title>Node15&#45;&gt;Node17</title>
<path fill="none" stroke="#63b8ff" d="M224.25,-60.73C241.45,-58.35 262.32,-55.47 280.7,-52.93"/>
<polygon fill="#63b8ff" stroke="#63b8ff" points="281.04,-56.27 290.47,-51.44 280.08,-49.34 281.04,-56.27"/>
</g>
<!-- Node18 -->
<g id="node18" class="node">
<title>Node18</title>
<g id="a_node18"><a xlink:href="m_self_inv_8c.html#a929738025b539a0c1bbd2f395ad4d981" target="_top" xlink:title=" ">
<polygon fill="white" stroke="#666666" points="368.25,-19.25 286.25,-19.25 286.25,0 368.25,0 368.25,-19.25"/>
<text text-anchor="middle" x="327.25" y="-5.75" font-family="Helvetica,sans-Serif" font-size="10.00">arMatrixSelfInv</text>
</a>
</g>
</g>
<!-- Node15&#45;&gt;Node18 -->
<g id="edge17" class="edge">
<title>Node15&#45;&gt;Node18</title>
<path fill="none" stroke="#63b8ff" d="M210.06,-55.59C227.21,-47.61 252.07,-36.38 274.25,-27.62 277.93,-26.17 281.78,-24.72 285.66,-23.3"/>
<polygon fill="#63b8ff" stroke="#63b8ff" points="286.6,-26.32 294.84,-19.66 284.25,-19.73 286.6,-26.32"/>
</g>
</g>
</svg>
