<?xml version="1.0" encoding="UTF-8" standalone="no"?>
<!DOCTYPE svg PUBLIC "-//W3C//DTD SVG 1.1//EN"
 "http://www.w3.org/Graphics/SVG/1.1/DTD/svg11.dtd">
<!-- Generated by graphviz version 7.0.5 (20221223.1930)
 -->
<!-- Title: Source/ARX/AR2/template.c Pages: 1 -->
<svg width="1037pt" height="412pt"
 viewBox="0.00 0.00 1037.45 412.00" xmlns="http://www.w3.org/2000/svg" xmlns:xlink="http://www.w3.org/1999/xlink">
<g id="graph0" class="graph" transform="scale(1 1) rotate(0) translate(4 408)">
<title>Source/ARX/AR2/template.c</title>
<!-- Node1 -->
<g id="node1" class="node">
<title>Node1</title>
<g id="a_node1"><a xlink:title=" ">
<polygon fill="#999999" stroke="#666666" points="620.5,-404 477.5,-404 477.5,-385 620.5,-385 620.5,-404"/>
<text text-anchor="middle" x="549" y="-392" font-family="Helvetica,sans-Serif" font-size="10.00">Source/ARX/AR2/template.c</text>
</a>
</g>
</g>
<!-- Node2 -->
<g id="node2" class="node">
<title>Node2</title>
<g id="a_node2"><a xlink:href="ar_8h.html" target="_top" xlink:title="artoolkitX core routines.">
<polygon fill="white" stroke="#666666" points="472,-129 398,-129 398,-110 472,-110 472,-129"/>
<text text-anchor="middle" x="435" y="-117" font-family="Helvetica,sans-Serif" font-size="10.00">ARX/AR/ar.h</text>
</a>
</g>
</g>
<!-- Node1&#45;&gt;Node2 -->
<g id="edge1" class="edge">
<title>Node1&#45;&gt;Node2</title>
<path fill="none" stroke="#63b8ff" d="M501.7,-384.54C424.77,-368.6 281,-332.53 281,-285.5 281,-285.5 281,-285.5 281,-228.5 281,-176.01 341.72,-146.85 386.9,-132.43"/>
<polygon fill="#63b8ff" stroke="#63b8ff" points="387.71,-135.84 396.27,-129.59 385.69,-129.14 387.71,-135.84"/>
</g>
<!-- Node3 -->
<g id="node3" class="node">
<title>Node3</title>
<g id="a_node3"><a xlink:title=" ">
<polygon fill="#e0e0e0" stroke="#999999" points="886,-19 840,-19 840,0 886,0 886,-19"/>
<text text-anchor="middle" x="863" y="-7" font-family="Helvetica,sans-Serif" font-size="10.00">stdio.h</text>
</a>
</g>
</g>
<!-- Node1&#45;&gt;Node3 -->
<g id="edge25" class="edge">
<title>Node1&#45;&gt;Node3</title>
<path fill="none" stroke="#63b8ff" d="M620.86,-392.11C754.76,-387.55 1029,-368.14 1029,-285.5 1029,-285.5 1029,-285.5 1029,-118.5 1029,-89.04 1030.8,-75.86 1010,-55 1001.91,-46.88 938.38,-29.6 897.53,-19.12"/>
<polygon fill="#63b8ff" stroke="#63b8ff" points="898.44,-15.74 887.89,-16.67 896.72,-22.52 898.44,-15.74"/>
</g>
<!-- Node4 -->
<g id="node4" class="node">
<title>Node4</title>
<g id="a_node4"><a xlink:title=" ">
<polygon fill="#e0e0e0" stroke="#999999" points="429,-19 381,-19 381,0 429,0 429,-19"/>
<text text-anchor="middle" x="405" y="-7" font-family="Helvetica,sans-Serif" font-size="10.00">stdlib.h</text>
</a>
</g>
</g>
<!-- Node1&#45;&gt;Node4 -->
<g id="edge26" class="edge">
<title>Node1&#45;&gt;Node4</title>
<path fill="none" stroke="#63b8ff" d="M477.21,-388.78C362.33,-379.23 150,-352.51 150,-285.5 150,-285.5 150,-285.5 150,-118.5 150,-89.04 147.11,-74.72 169,-55 183.77,-41.7 307.5,-23.52 369.66,-15.11"/>
<polygon fill="#63b8ff" stroke="#63b8ff" points="369.92,-18.61 379.36,-13.81 368.99,-11.67 369.92,-18.61"/>
</g>
<!-- Node14 -->
<g id="node14" class="node">
<title>Node14</title>
<g id="a_node14"><a xlink:title=" ">
<polygon fill="#e0e0e0" stroke="#999999" points="61.5,-19 14.5,-19 14.5,0 61.5,0 61.5,-19"/>
<text text-anchor="middle" x="38" y="-7" font-family="Helvetica,sans-Serif" font-size="10.00">math.h</text>
</a>
</g>
</g>
<!-- Node1&#45;&gt;Node14 -->
<g id="edge27" class="edge">
<title>Node1&#45;&gt;Node14</title>
<path fill="none" stroke="#63b8ff" d="M477.23,-394.19C328.41,-393.68 0,-381.67 0,-285.5 0,-285.5 0,-285.5 0,-118.5 0,-85.65 15.84,-50.19 27.07,-29.19"/>
<polygon fill="#63b8ff" stroke="#63b8ff" points="30,-31.13 31.82,-20.69 23.88,-27.72 30,-31.13"/>
</g>
<!-- Node19 -->
<g id="node19" class="node">
<title>Node19</title>
<g id="a_node19"><a xlink:href="config_8h.html" target="_top" xlink:title=" ">
<polygon fill="white" stroke="#666666" points="734,-129 636,-129 636,-110 734,-110 734,-129"/>
<text text-anchor="middle" x="685" y="-117" font-family="Helvetica,sans-Serif" font-size="10.00">ARX/AR2/config.h</text>
</a>
</g>
</g>
<!-- Node1&#45;&gt;Node19 -->
<g id="edge28" class="edge">
<title>Node1&#45;&gt;Node19</title>
<path fill="none" stroke="#63b8ff" d="M617.33,-384.55C669.31,-373.45 735.87,-348.76 760,-294 783.42,-240.84 774.34,-211.1 739,-165 730.4,-153.78 718.46,-143.57 707.99,-135.76"/>
<polygon fill="#63b8ff" stroke="#63b8ff" points="710.34,-133.14 700.17,-130.19 706.28,-138.84 710.34,-133.14"/>
</g>
<!-- Node20 -->
<g id="node20" class="node">
<title>Node20</title>
<g id="a_node20"><a xlink:href="coord_8h.html" target="_top" xlink:title=" ">
<polygon fill="white" stroke="#666666" points="732.5,-294 637.5,-294 637.5,-275 732.5,-275 732.5,-294"/>
<text text-anchor="middle" x="685" y="-282" font-family="Helvetica,sans-Serif" font-size="10.00">ARX/AR2/coord.h</text>
</a>
</g>
</g>
<!-- Node1&#45;&gt;Node20 -->
<g id="edge29" class="edge">
<title>Node1&#45;&gt;Node20</title>
<path fill="none" stroke="#63b8ff" d="M620.8,-388.67C647.56,-382.96 675.43,-371.51 692,-349 701.26,-336.43 698.22,-318.48 693.6,-304.87"/>
<polygon fill="#63b8ff" stroke="#63b8ff" points="696.9,-303.7 689.97,-295.68 690.39,-306.27 696.9,-303.7"/>
</g>
<!-- Node22 -->
<g id="node22" class="node">
<title>Node22</title>
<g id="a_node22"><a xlink:href="feature_set_8h.html" target="_top" xlink:title=" ">
<polygon fill="white" stroke="#666666" points="657,-239 541,-239 541,-220 657,-220 657,-239"/>
<text text-anchor="middle" x="599" y="-227" font-family="Helvetica,sans-Serif" font-size="10.00">ARX/AR2/featureSet.h</text>
</a>
</g>
</g>
<!-- Node1&#45;&gt;Node22 -->
<g id="edge37" class="edge">
<title>Node1&#45;&gt;Node22</title>
<path fill="none" stroke="#63b8ff" d="M551.55,-384.86C555.17,-372.64 562.02,-349.59 568,-330 576.49,-302.2 586.53,-270.11 592.84,-250.06"/>
<polygon fill="#63b8ff" stroke="#63b8ff" points="596.11,-251.31 595.78,-240.72 589.43,-249.21 596.11,-251.31"/>
</g>
<!-- Node23 -->
<g id="node23" class="node">
<title>Node23</title>
<g id="a_node23"><a xlink:href="template_8h.html" target="_top" xlink:title=" ">
<polygon fill="white" stroke="#666666" points="542.5,-294 433.5,-294 433.5,-275 542.5,-275 542.5,-294"/>
<text text-anchor="middle" x="488" y="-282" font-family="Helvetica,sans-Serif" font-size="10.00">ARX/AR2/template.h</text>
</a>
</g>
</g>
<!-- Node1&#45;&gt;Node23 -->
<g id="edge38" class="edge">
<title>Node1&#45;&gt;Node23</title>
<path fill="none" stroke="#63b8ff" d="M544.01,-384.66C534.13,-367.18 511.91,-327.84 498.62,-304.3"/>
<polygon fill="#63b8ff" stroke="#63b8ff" points="501.77,-302.76 493.81,-295.78 495.68,-306.21 501.77,-302.76"/>
</g>
<!-- Node24 -->
<g id="node24" class="node">
<title>Node24</title>
<g id="a_node24"><a xlink:href="tracking_8h.html" target="_top" xlink:title=" ">
<polygon fill="white" stroke="#666666" points="683,-349 577,-349 577,-330 683,-330 683,-349"/>
<text text-anchor="middle" x="630" y="-337" font-family="Helvetica,sans-Serif" font-size="10.00">ARX/AR2/tracking.h</text>
</a>
</g>
</g>
<!-- Node1&#45;&gt;Node24 -->
<g id="edge43" class="edge">
<title>Node1&#45;&gt;Node24</title>
<path fill="none" stroke="#63b8ff" d="M562.74,-384.51C574.8,-376.62 592.59,-364.98 606.84,-355.65"/>
<polygon fill="#63b8ff" stroke="#63b8ff" points="608.74,-358.59 615.2,-350.19 604.91,-352.73 608.74,-358.59"/>
</g>
<!-- Node2&#45;&gt;Node3 -->
<g id="edge2" class="edge">
<title>Node2&#45;&gt;Node3</title>
<path fill="none" stroke="#63b8ff" d="M472.29,-116.5C566.21,-111.15 807.13,-95.48 836,-74 849.83,-63.71 856.64,-44.94 859.96,-30.46"/>
<polygon fill="#63b8ff" stroke="#63b8ff" points="863.39,-31.12 861.78,-20.65 856.51,-29.84 863.39,-31.12"/>
</g>
<!-- Node2&#45;&gt;Node4 -->
<g id="edge3" class="edge">
<title>Node2&#45;&gt;Node4</title>
<path fill="none" stroke="#63b8ff" d="M432.54,-109.66C427.75,-92.42 417.06,-53.9 410.49,-30.27"/>
<polygon fill="#63b8ff" stroke="#63b8ff" points="413.94,-29.62 407.89,-20.92 407.2,-31.49 413.94,-29.62"/>
</g>
<!-- Node5 -->
<g id="node5" class="node">
<title>Node5</title>
<g id="a_node5"><a xlink:title=" ">
<polygon fill="#e0e0e0" stroke="#999999" points="405.5,-74 356.5,-74 356.5,-55 405.5,-55 405.5,-74"/>
<text text-anchor="middle" x="381" y="-62" font-family="Helvetica,sans-Serif" font-size="10.00">stdint.h</text>
</a>
</g>
</g>
<!-- Node2&#45;&gt;Node5 -->
<g id="edge4" class="edge">
<title>Node2&#45;&gt;Node5</title>
<path fill="none" stroke="#63b8ff" d="M426.08,-109.75C418.55,-102.35 407.53,-91.54 398.27,-82.45"/>
<polygon fill="#63b8ff" stroke="#63b8ff" points="400.78,-80.01 391.19,-75.5 395.88,-85 400.78,-80.01"/>
</g>
<!-- Node6 -->
<g id="node6" class="node">
<title>Node6</title>
<g id="a_node6"><a xlink:title=" ">
<polygon fill="#e0e0e0" stroke="#999999" points="496.5,-19 447.5,-19 447.5,0 496.5,0 496.5,-19"/>
<text text-anchor="middle" x="472" y="-7" font-family="Helvetica,sans-Serif" font-size="10.00">string.h</text>
</a>
</g>
</g>
<!-- Node2&#45;&gt;Node6 -->
<g id="edge5" class="edge">
<title>Node2&#45;&gt;Node6</title>
<path fill="none" stroke="#63b8ff" d="M438.03,-109.66C443.94,-92.42 457.13,-53.9 465.23,-30.27"/>
<polygon fill="#63b8ff" stroke="#63b8ff" points="468.51,-31.49 468.44,-20.89 461.89,-29.22 468.51,-31.49"/>
</g>
<!-- Node7 -->
<g id="node7" class="node">
<title>Node7</title>
<g id="a_node7"><a xlink:title=" ">
<polygon fill="#e0e0e0" stroke="#999999" points="324,-19 232,-19 232,0 324,0 324,-19"/>
<text text-anchor="middle" x="278" y="-7" font-family="Helvetica,sans-Serif" font-size="10.00">ARX/AR/config.h</text>
</a>
</g>
</g>
<!-- Node2&#45;&gt;Node7 -->
<g id="edge6" class="edge">
<title>Node2&#45;&gt;Node7</title>
<path fill="none" stroke="#63b8ff" d="M413.73,-109.53C395.56,-101.43 369.07,-88.57 348,-74 327.85,-60.07 307.39,-40.79 293.84,-27.14"/>
<polygon fill="#63b8ff" stroke="#63b8ff" points="296.55,-24.9 287.06,-20.18 291.53,-29.78 296.55,-24.9"/>
</g>
<!-- Node8 -->
<g id="node8" class="node">
<title>Node8</title>
<g id="a_node8"><a xlink:href="ar_config_8h.html" target="_top" xlink:title=" ">
<polygon fill="white" stroke="#666666" points="715.5,-74 612.5,-74 612.5,-55 715.5,-55 715.5,-74"/>
<text text-anchor="middle" x="664" y="-62" font-family="Helvetica,sans-Serif" font-size="10.00">ARX/AR/arConfig.h</text>
</a>
</g>
</g>
<!-- Node2&#45;&gt;Node8 -->
<g id="edge7" class="edge">
<title>Node2&#45;&gt;Node8</title>
<path fill="none" stroke="#63b8ff" d="M472.3,-109.87C510.93,-100.93 571.49,-86.91 614.19,-77.03"/>
<polygon fill="#63b8ff" stroke="#63b8ff" points="614.75,-80.49 623.71,-74.83 613.18,-73.67 614.75,-80.49"/>
</g>
<!-- Node9 -->
<g id="node9" class="node">
<title>Node9</title>
<g id="a_node9"><a xlink:href="log_8h.html" target="_top" xlink:title="Logging utilities.">
<polygon fill="white" stroke="#666666" points="594,-74 500,-74 500,-55 594,-55 594,-74"/>
<text text-anchor="middle" x="547" y="-62" font-family="Helvetica,sans-Serif" font-size="10.00">ARX/ARUtil/log.h</text>
</a>
</g>
</g>
<!-- Node2&#45;&gt;Node9 -->
<g id="edge8" class="edge">
<title>Node2&#45;&gt;Node9</title>
<path fill="none" stroke="#63b8ff" d="M454,-109.51C471.56,-101.2 497.92,-88.73 518.09,-79.18"/>
<polygon fill="#63b8ff" stroke="#63b8ff" points="519.37,-82.45 526.91,-75.01 516.38,-76.12 519.37,-82.45"/>
</g>
<!-- Node13 -->
<g id="node13" class="node">
<title>Node13</title>
<g id="a_node13"><a xlink:href="matrix_8h.html" target="_top" xlink:title=" ">
<polygon fill="white" stroke="#666666" points="121.5,-74 28.5,-74 28.5,-55 121.5,-55 121.5,-74"/>
<text text-anchor="middle" x="75" y="-62" font-family="Helvetica,sans-Serif" font-size="10.00">ARX/AR/matrix.h</text>
</a>
</g>
</g>
<!-- Node2&#45;&gt;Node13 -->
<g id="edge15" class="edge">
<title>Node2&#45;&gt;Node13</title>
<path fill="none" stroke="#63b8ff" d="M397.83,-113.03C335.03,-103.78 207.51,-85.01 132.91,-74.03"/>
<polygon fill="#63b8ff" stroke="#63b8ff" points="133.75,-70.61 123.35,-72.62 132.73,-77.54 133.75,-70.61"/>
</g>
<!-- Node15 -->
<g id="node15" class="node">
<title>Node15</title>
<g id="a_node15"><a xlink:href="icp_8h.html" target="_top" xlink:title=" ">
<polygon fill="white" stroke="#666666" points="1000.5,-74 921.5,-74 921.5,-55 1000.5,-55 1000.5,-74"/>
<text text-anchor="middle" x="961" y="-62" font-family="Helvetica,sans-Serif" font-size="10.00">ARX/AR/icp.h</text>
</a>
</g>
</g>
<!-- Node2&#45;&gt;Node15 -->
<g id="edge17" class="edge">
<title>Node2&#45;&gt;Node15</title>
<path fill="none" stroke="#63b8ff" d="M472.41,-114.73C564.93,-105.41 804.64,-81.26 910.02,-70.64"/>
<polygon fill="#63b8ff" stroke="#63b8ff" points="910.19,-74.14 919.78,-69.65 909.48,-67.17 910.19,-74.14"/>
</g>
<!-- Node17 -->
<g id="node17" class="node">
<title>Node17</title>
<g id="a_node17"><a xlink:href="param_8h.html" target="_top" xlink:title="artoolkitX functions for handling calibrated camera parameters.">
<polygon fill="white" stroke="#666666" points="826.5,-74 733.5,-74 733.5,-55 826.5,-55 826.5,-74"/>
<text text-anchor="middle" x="780" y="-62" font-family="Helvetica,sans-Serif" font-size="10.00">ARX/AR/param.h</text>
</a>
</g>
</g>
<!-- Node2&#45;&gt;Node17 -->
<g id="edge20" class="edge">
<title>Node2&#45;&gt;Node17</title>
<path fill="none" stroke="#63b8ff" d="M472.06,-111.88C525.91,-103.2 628.4,-87.49 716,-74 717.99,-73.69 720.02,-73.38 722.08,-73.06"/>
<polygon fill="#63b8ff" stroke="#63b8ff" points="722.38,-76.56 731.74,-71.59 721.32,-69.64 722.38,-76.56"/>
</g>
<!-- Node18 -->
<g id="node18" class="node">
<title>Node18</title>
<g id="a_node18"><a xlink:href="ar_image_proc_8h.html" target="_top" xlink:title="artoolkitX functions for 2D luminance image processing.">
<polygon fill="white" stroke="#666666" points="300,-74 178,-74 178,-55 300,-55 300,-74"/>
<text text-anchor="middle" x="239" y="-62" font-family="Helvetica,sans-Serif" font-size="10.00">ARX/AR/arImageProc.h</text>
</a>
</g>
</g>
<!-- Node2&#45;&gt;Node18 -->
<g id="edge22" class="edge">
<title>Node2&#45;&gt;Node18</title>
<path fill="none" stroke="#63b8ff" d="M397.93,-109.87C363.52,-101.08 312.68,-87.39 277.75,-77.54"/>
<polygon fill="#63b8ff" stroke="#63b8ff" points="279.04,-74.26 268.46,-74.9 277.13,-81 279.04,-74.26"/>
</g>
<!-- Node9&#45;&gt;Node3 -->
<g id="edge9" class="edge">
<title>Node9&#45;&gt;Node3</title>
<path fill="none" stroke="#63b8ff" d="M594.31,-55.57C658.44,-44.81 771.48,-25.85 828.32,-16.32"/>
<polygon fill="#63b8ff" stroke="#63b8ff" points="828.78,-19.79 838.06,-14.68 827.62,-12.89 828.78,-19.79"/>
</g>
<!-- Node9&#45;&gt;Node4 -->
<g id="edge10" class="edge">
<title>Node9&#45;&gt;Node4</title>
<path fill="none" stroke="#63b8ff" d="M522.91,-54.51C499.93,-45.93 465.06,-32.92 439.2,-23.27"/>
<polygon fill="#63b8ff" stroke="#63b8ff" points="440.74,-20.1 430.15,-19.89 438.3,-26.66 440.74,-20.1"/>
</g>
<!-- Node9&#45;&gt;Node6 -->
<g id="edge11" class="edge">
<title>Node9&#45;&gt;Node6</title>
<path fill="none" stroke="#63b8ff" d="M534.28,-54.51C523.22,-46.7 506.96,-35.21 493.83,-25.93"/>
<polygon fill="#63b8ff" stroke="#63b8ff" points="495.96,-23.14 485.77,-20.23 491.92,-28.86 495.96,-23.14"/>
</g>
<!-- Node10 -->
<g id="node10" class="node">
<title>Node10</title>
<g id="a_node10"><a xlink:title=" ">
<polygon fill="#e0e0e0" stroke="#999999" points="650,-19 598,-19 598,0 650,0 650,-19"/>
<text text-anchor="middle" x="624" y="-7" font-family="Helvetica,sans-Serif" font-size="10.00">stdarg.h</text>
</a>
</g>
</g>
<!-- Node9&#45;&gt;Node10 -->
<g id="edge12" class="edge">
<title>Node9&#45;&gt;Node10</title>
<path fill="none" stroke="#63b8ff" d="M560.06,-54.51C571.52,-46.62 588.43,-34.98 601.98,-25.65"/>
<polygon fill="#63b8ff" stroke="#63b8ff" points="603.63,-28.77 609.88,-20.22 599.66,-23 603.63,-28.77"/>
</g>
<!-- Node11 -->
<g id="node11" class="node">
<title>Node11</title>
<g id="a_node11"><a xlink:title=" ">
<polygon fill="#e0e0e0" stroke="#999999" points="579.5,-19 514.5,-19 514.5,0 579.5,0 579.5,-19"/>
<text text-anchor="middle" x="547" y="-7" font-family="Helvetica,sans-Serif" font-size="10.00">sys/errno.h</text>
</a>
</g>
</g>
<!-- Node9&#45;&gt;Node11 -->
<g id="edge13" class="edge">
<title>Node9&#45;&gt;Node11</title>
<path fill="none" stroke="#63b8ff" d="M547,-54.75C547,-48.27 547,-39.16 547,-30.9"/>
<polygon fill="#63b8ff" stroke="#63b8ff" points="550.5,-30.96 547,-20.96 543.5,-30.96 550.5,-30.96"/>
</g>
<!-- Node12 -->
<g id="node12" class="node">
<title>Node12</title>
<g id="a_node12"><a xlink:href="types_8h.html" target="_top" xlink:title=" ">
<polygon fill="white" stroke="#666666" points="794.5,-19 689.5,-19 689.5,0 794.5,0 794.5,-19"/>
<text text-anchor="middle" x="742" y="-7" font-family="Helvetica,sans-Serif" font-size="10.00">ARX/ARUtil/types.h</text>
</a>
</g>
</g>
<!-- Node9&#45;&gt;Node12 -->
<g id="edge14" class="edge">
<title>Node9&#45;&gt;Node12</title>
<path fill="none" stroke="#63b8ff" d="M580.08,-54.51C612.53,-45.69 662.22,-32.18 698,-22.46"/>
<polygon fill="#63b8ff" stroke="#63b8ff" points="698.89,-25.84 707.62,-19.84 697.06,-19.09 698.89,-25.84"/>
</g>
<!-- Node13&#45;&gt;Node14 -->
<g id="edge16" class="edge">
<title>Node13&#45;&gt;Node14</title>
<path fill="none" stroke="#63b8ff" d="M68.89,-54.75C63.99,-47.73 56.95,-37.64 50.83,-28.87"/>
<polygon fill="#63b8ff" stroke="#63b8ff" points="53.7,-26.88 45.11,-20.68 47.96,-30.89 53.7,-26.88"/>
</g>
<!-- Node15&#45;&gt;Node3 -->
<g id="edge18" class="edge">
<title>Node15&#45;&gt;Node3</title>
<path fill="none" stroke="#63b8ff" d="M944.38,-54.51C929.22,-46.31 906.58,-34.07 889.03,-24.58"/>
<polygon fill="#63b8ff" stroke="#63b8ff" points="891.17,-21.76 880.71,-20.08 887.84,-27.91 891.17,-21.76"/>
</g>
<!-- Node16 -->
<g id="node16" class="node">
<title>Node16</title>
<g id="a_node16"><a xlink:href="icp_core_8h.html" target="_top" xlink:title=" ">
<polygon fill="white" stroke="#666666" points="1011,-19 911,-19 911,0 1011,0 1011,-19"/>
<text text-anchor="middle" x="961" y="-7" font-family="Helvetica,sans-Serif" font-size="10.00">ARX/AR/icpCore.h</text>
</a>
</g>
</g>
<!-- Node15&#45;&gt;Node16 -->
<g id="edge19" class="edge">
<title>Node15&#45;&gt;Node16</title>
<path fill="none" stroke="#63b8ff" d="M961,-54.75C961,-48.27 961,-39.16 961,-30.9"/>
<polygon fill="#63b8ff" stroke="#63b8ff" points="964.5,-30.96 961,-20.96 957.5,-30.96 964.5,-30.96"/>
</g>
<!-- Node17&#45;&gt;Node2 -->
<g id="edge21" class="edge">
<title>Node17&#45;&gt;Node2</title>
<path fill="none" stroke="#63b8ff" d="M733.17,-74.13C645.32,-87.66 542.69,-103.39 483.52,-112.01"/>
<polygon fill="#63b8ff" stroke="#63b8ff" points="483.17,-108.52 473.77,-113.42 484.17,-115.45 483.17,-108.52"/>
</g>
<!-- Node18&#45;&gt;Node2 -->
<g id="edge24" class="edge">
<title>Node18&#45;&gt;Node2</title>
<path fill="none" stroke="#63b8ff" d="M277.29,-74.45C311.56,-83.21 361.4,-96.64 395.9,-106.36"/>
<polygon fill="#63b8ff" stroke="#63b8ff" points="394.94,-109.73 405.51,-109.1 396.85,-103 394.94,-109.73"/>
</g>
<!-- Node18&#45;&gt;Node7 -->
<g id="edge23" class="edge">
<title>Node18&#45;&gt;Node7</title>
<path fill="none" stroke="#63b8ff" d="M245.44,-54.75C250.66,-47.66 258.19,-37.42 264.69,-28.59"/>
<polygon fill="#63b8ff" stroke="#63b8ff" points="267.42,-30.79 270.52,-20.66 261.78,-26.64 267.42,-30.79"/>
</g>
<!-- Node20&#45;&gt;Node19 -->
<g id="edge30" class="edge">
<title>Node20&#45;&gt;Node19</title>
<path fill="none" stroke="#63b8ff" d="M685,-274.74C685,-249.53 685,-176.36 685,-140.62"/>
<polygon fill="#63b8ff" stroke="#63b8ff" points="688.5,-140.82 685,-130.82 681.5,-140.82 688.5,-140.82"/>
</g>
<!-- Node21 -->
<g id="node21" class="node">
<title>Node21</title>
<g id="a_node21"><a xlink:href="image_set_8h.html" target="_top" xlink:title=" ">
<polygon fill="white" stroke="#666666" points="656.5,-184 543.5,-184 543.5,-165 656.5,-165 656.5,-184"/>
<text text-anchor="middle" x="600" y="-172" font-family="Helvetica,sans-Serif" font-size="10.00">ARX/AR2/imageSet.h</text>
</a>
</g>
</g>
<!-- Node20&#45;&gt;Node21 -->
<g id="edge31" class="edge">
<title>Node20&#45;&gt;Node21</title>
<path fill="none" stroke="#63b8ff" d="M684.27,-274.88C682.78,-261.85 678.41,-236.87 666,-220 656.7,-207.35 642.65,-197.16 629.9,-189.74"/>
<polygon fill="#63b8ff" stroke="#63b8ff" points="631.86,-186.83 621.4,-185.12 628.51,-192.97 631.86,-186.83"/>
</g>
<!-- Node20&#45;&gt;Node22 -->
<g id="edge34" class="edge">
<title>Node20&#45;&gt;Node22</title>
<path fill="none" stroke="#63b8ff" d="M670.41,-274.51C657.48,-266.54 638.36,-254.75 623.15,-245.38"/>
<polygon fill="#63b8ff" stroke="#63b8ff" points="625.01,-242.42 614.66,-240.15 621.34,-248.38 625.01,-242.42"/>
</g>
<!-- Node21&#45;&gt;Node2 -->
<g id="edge32" class="edge">
<title>Node21&#45;&gt;Node2</title>
<path fill="none" stroke="#63b8ff" d="M572.01,-164.51C544.91,-155.8 503.59,-142.53 473.42,-132.84"/>
<polygon fill="#63b8ff" stroke="#63b8ff" points="474.88,-129.64 464.29,-129.91 472.74,-136.3 474.88,-129.64"/>
</g>
<!-- Node21&#45;&gt;Node19 -->
<g id="edge33" class="edge">
<title>Node21&#45;&gt;Node19</title>
<path fill="none" stroke="#63b8ff" d="M614.42,-164.51C627.2,-156.54 646.1,-144.75 661.13,-135.38"/>
<polygon fill="#63b8ff" stroke="#63b8ff" points="662.88,-138.42 669.51,-130.16 659.17,-132.48 662.88,-138.42"/>
</g>
<!-- Node22&#45;&gt;Node19 -->
<g id="edge35" class="edge">
<title>Node22&#45;&gt;Node19</title>
<path fill="none" stroke="#63b8ff" d="M619.69,-219.52C634.6,-212.05 654.11,-200.04 666,-184 675.45,-171.25 680.23,-153.8 682.63,-140.43"/>
<polygon fill="#63b8ff" stroke="#63b8ff" points="686.08,-141.03 684.06,-130.63 679.15,-140.02 686.08,-141.03"/>
</g>
<!-- Node22&#45;&gt;Node21 -->
<g id="edge36" class="edge">
<title>Node22&#45;&gt;Node21</title>
<path fill="none" stroke="#63b8ff" d="M599.17,-219.75C599.29,-213.27 599.46,-204.16 599.62,-195.9"/>
<polygon fill="#63b8ff" stroke="#63b8ff" points="603.11,-196.02 599.8,-185.96 596.11,-195.89 603.11,-196.02"/>
</g>
<!-- Node23&#45;&gt;Node2 -->
<g id="edge39" class="edge">
<title>Node23&#45;&gt;Node2</title>
<path fill="none" stroke="#63b8ff" d="M471.21,-274.63C445.26,-259.86 396.42,-227.48 377,-184 368.23,-164.35 387.71,-146.71 406.41,-135.03"/>
<polygon fill="#63b8ff" stroke="#63b8ff" points="408.04,-138.13 414.95,-130.1 404.54,-132.07 408.04,-138.13"/>
</g>
<!-- Node23&#45;&gt;Node19 -->
<g id="edge40" class="edge">
<title>Node23&#45;&gt;Node19</title>
<path fill="none" stroke="#63b8ff" d="M488.87,-274.55C491.51,-252.5 501.4,-195.16 535,-165 559.56,-142.96 594.58,-131.81 624.62,-126.19"/>
<polygon fill="#63b8ff" stroke="#63b8ff" points="625.08,-129.66 634.36,-124.54 623.91,-122.76 625.08,-129.66"/>
</g>
<!-- Node23&#45;&gt;Node21 -->
<g id="edge41" class="edge">
<title>Node23&#45;&gt;Node21</title>
<path fill="none" stroke="#63b8ff" d="M492.52,-274.92C499.65,-261.94 514.51,-237.03 532,-220 543.96,-208.35 559.4,-197.96 572.54,-190.16"/>
<polygon fill="#63b8ff" stroke="#63b8ff" points="574.22,-193.23 581.16,-185.23 570.74,-187.15 574.22,-193.23"/>
</g>
<!-- Node23&#45;&gt;Node22 -->
<g id="edge42" class="edge">
<title>Node23&#45;&gt;Node22</title>
<path fill="none" stroke="#63b8ff" d="M506.83,-274.51C524.16,-266.24 550.11,-253.84 570.07,-244.31"/>
<polygon fill="#63b8ff" stroke="#63b8ff" points="571.57,-247.48 579.08,-240.01 568.55,-241.16 571.57,-247.48"/>
</g>
<!-- Node24&#45;&gt;Node2 -->
<g id="edge46" class="edge">
<title>Node24&#45;&gt;Node2</title>
<path fill="none" stroke="#63b8ff" d="M576.65,-333.6C520.04,-327.38 435.44,-314.89 411,-294 365.27,-254.91 341.94,-218.21 370,-165 376.93,-151.86 389.67,-141.86 402.06,-134.7"/>
<polygon fill="#63b8ff" stroke="#63b8ff" points="403.67,-137.81 410.9,-130.06 400.42,-131.61 403.67,-137.81"/>
</g>
<!-- Node24&#45;&gt;Node15 -->
<g id="edge47" class="edge">
<title>Node24&#45;&gt;Node15</title>
<path fill="none" stroke="#63b8ff" d="M683.23,-330.76C769.39,-317 933.09,-285.3 966,-239 999.11,-192.42 980.42,-119.64 968.51,-85.04"/>
<polygon fill="#63b8ff" stroke="#63b8ff" points="971.9,-84.12 965.19,-75.92 965.32,-86.52 971.9,-84.12"/>
</g>
<!-- Node24&#45;&gt;Node19 -->
<g id="edge48" class="edge">
<title>Node24&#45;&gt;Node19</title>
<path fill="none" stroke="#63b8ff" d="M683.37,-330.67C705.34,-324.53 728.72,-313.56 742,-294 776.36,-243.38 726.54,-170.5 699.92,-137.68"/>
<polygon fill="#63b8ff" stroke="#63b8ff" points="702.89,-135.77 693.79,-130.35 697.52,-140.26 702.89,-135.77"/>
</g>
<!-- Node24&#45;&gt;Node22 -->
<g id="edge49" class="edge">
<title>Node24&#45;&gt;Node22</title>
<path fill="none" stroke="#63b8ff" d="M627.46,-329.66C622.51,-312.42 611.46,-273.9 604.67,-250.27"/>
<polygon fill="#63b8ff" stroke="#63b8ff" points="608.11,-249.56 601.99,-240.92 601.38,-251.49 608.11,-249.56"/>
</g>
<!-- Node24&#45;&gt;Node23 -->
<g id="edge50" class="edge">
<title>Node24&#45;&gt;Node23</title>
<path fill="none" stroke="#63b8ff" d="M605.91,-329.51C582.93,-320.93 548.06,-307.92 522.2,-298.27"/>
<polygon fill="#63b8ff" stroke="#63b8ff" points="523.74,-295.1 513.15,-294.89 521.3,-301.66 523.74,-295.1"/>
</g>
<!-- Node25 -->
<g id="node25" class="node">
<title>Node25</title>
<g id="a_node25"><a xlink:href="thread__sub_8h.html" target="_top" xlink:title=" ">
<polygon fill="white" stroke="#666666" points="956.5,-239 827.5,-239 827.5,-220 956.5,-220 956.5,-239"/>
<text text-anchor="middle" x="892" y="-227" font-family="Helvetica,sans-Serif" font-size="10.00">ARX/ARUtil/thread_sub.h</text>
</a>
</g>
</g>
<!-- Node24&#45;&gt;Node25 -->
<g id="edge44" class="edge">
<title>Node24&#45;&gt;Node25</title>
<path fill="none" stroke="#63b8ff" d="M666.16,-329.56C695.93,-321.69 738.95,-309.14 775,-294 808.45,-279.96 844.86,-259.26 868.03,-245.35"/>
<polygon fill="#63b8ff" stroke="#63b8ff" points="869.67,-248.46 876.4,-240.27 866.03,-242.47 869.67,-248.46"/>
</g>
<!-- Node26 -->
<g id="node26" class="node">
<title>Node26</title>
<g id="a_node26"><a xlink:href="marker_8h.html" target="_top" xlink:title=" ">
<polygon fill="white" stroke="#666666" points="486.5,-184 385.5,-184 385.5,-165 486.5,-165 486.5,-184"/>
<text text-anchor="middle" x="436" y="-172" font-family="Helvetica,sans-Serif" font-size="10.00">ARX/AR2/marker.h</text>
</a>
</g>
</g>
<!-- Node24&#45;&gt;Node26 -->
<g id="edge51" class="edge">
<title>Node24&#45;&gt;Node26</title>
<path fill="none" stroke="#63b8ff" d="M576.86,-334.4C522.6,-328.97 443.74,-317.25 425,-294 402.17,-265.68 415.94,-220.28 426.77,-194.67"/>
<polygon fill="#63b8ff" stroke="#63b8ff" points="429.84,-196.37 430.77,-185.81 423.46,-193.49 429.84,-196.37"/>
</g>
<!-- Node25&#45;&gt;Node12 -->
<g id="edge45" class="edge">
<title>Node25&#45;&gt;Node12</title>
<path fill="none" stroke="#63b8ff" d="M891.56,-219.75C889.71,-192.13 880.48,-105.67 836,-55 823.18,-40.39 804.51,-30.2 787.19,-23.29"/>
<polygon fill="#63b8ff" stroke="#63b8ff" points="788.66,-20.1 778.07,-19.93 786.24,-26.67 788.66,-20.1"/>
</g>
<!-- Node26&#45;&gt;Node2 -->
<g id="edge52" class="edge">
<title>Node26&#45;&gt;Node2</title>
<path fill="none" stroke="#63b8ff" d="M435.83,-164.75C435.71,-158.27 435.54,-149.16 435.38,-140.9"/>
<polygon fill="#63b8ff" stroke="#63b8ff" points="438.89,-140.89 435.2,-130.96 431.89,-141.02 438.89,-140.89"/>
</g>
<!-- Node26&#45;&gt;Node19 -->
<g id="edge53" class="edge">
<title>Node26&#45;&gt;Node19</title>
<path fill="none" stroke="#63b8ff" d="M478.24,-164.51C520.58,-155.5 585.89,-141.6 631.75,-131.83"/>
<polygon fill="#63b8ff" stroke="#63b8ff" points="632.44,-135.27 641.49,-129.76 630.98,-128.42 632.44,-135.27"/>
</g>
</g>
</svg>
