<?xml version="1.0" encoding="UTF-8" standalone="no"?>
<!DOCTYPE svg PUBLIC "-//W3C//DTD SVG 1.1//EN"
 "http://www.w3.org/Graphics/SVG/1.1/DTD/svg11.dtd">
<!-- Generated by graphviz version 2.40.1 (20161225.0304)
 -->
<!-- Title: Source/ARX/AR2/include/ARX/AR2/template.h Pages: 1 -->
<svg width="1110pt" height="157pt"
 viewBox="0.00 0.00 1110.17 157.00" xmlns="http://www.w3.org/2000/svg" xmlns:xlink="http://www.w3.org/1999/xlink">
<g id="graph0" class="graph" transform="scale(1 1) rotate(0) translate(4 153)">
<title>Source/ARX/AR2/include/ARX/AR2/template.h</title>
<polygon fill="#ffffff" stroke="transparent" points="-4,4 -4,-153 1106.1694,-153 1106.1694,4 -4,4"/>
<!-- Node21 -->
<g id="node1" class="node">
<title>Node21</title>
<polygon fill="#bfbfbf" stroke="#000000" points="533.3325,-120.5 533.3325,-148.5 661.0562,-148.5 661.0562,-120.5 533.3325,-120.5"/>
<text text-anchor="start" x="541.3325" y="-136.5" font-family="Helvetica,sans-Serif" font-size="10.00" fill="#000000">Source/ARX/AR2/include</text>
<text text-anchor="middle" x="597.1943" y="-126.5" font-family="Helvetica,sans-Serif" font-size="10.00" fill="#000000">/ARX/AR2/template.h</text>
</g>
<!-- Node22 -->
<g id="node2" class="node">
<title>Node22</title>
<g id="a_node2"><a xlink:href="tracking_8h.html" target="_top" xlink:title="Source/ARX/AR2/include\l/ARX/AR2/tracking.h">
<polygon fill="#ffffff" stroke="#000000" points="487.3325,-55.5 487.3325,-83.5 615.0562,-83.5 615.0562,-55.5 487.3325,-55.5"/>
<text text-anchor="start" x="495.3325" y="-71.5" font-family="Helvetica,sans-Serif" font-size="10.00" fill="#000000">Source/ARX/AR2/include</text>
<text text-anchor="middle" x="551.1943" y="-61.5" font-family="Helvetica,sans-Serif" font-size="10.00" fill="#000000">/ARX/AR2/tracking.h</text>
</a>
</g>
</g>
<!-- Node21&#45;&gt;Node22 -->
<g id="edge1" class="edge">
<title>Node21&#45;&gt;Node22</title>
<path fill="none" stroke="#191970" d="M581.3827,-112.1575C574.6747,-102.6788 567.0598,-91.9186 561.1562,-83.5765"/>
<polygon fill="#191970" stroke="#191970" points="578.5793,-114.2551 587.213,-120.396 584.2932,-110.2114 578.5793,-114.2551"/>
</g>
<!-- Node24 -->
<g id="node4" class="node">
<title>Node24</title>
<g id="a_node4"><a xlink:href="matching_8c.html" target="_top" xlink:title="Source/ARX/AR2/matching.c">
<polygon fill="#ffffff" stroke="#000000" points="0,-.5 0,-18.5 144.3887,-18.5 144.3887,-.5 0,-.5"/>
<text text-anchor="middle" x="72.1943" y="-6.5" font-family="Helvetica,sans-Serif" font-size="10.00" fill="#000000">Source/ARX/AR2/matching.c</text>
</a>
</g>
</g>
<!-- Node21&#45;&gt;Node24 -->
<g id="edge9" class="edge">
<title>Node21&#45;&gt;Node24</title>
<path fill="none" stroke="#191970" d="M523.1825,-119.888C475.6339,-110.2636 412.6189,-97.0672 357.1943,-84 265.1069,-62.289 157.2784,-33.0509 104.5507,-18.5029"/>
<polygon fill="#191970" stroke="#191970" points="522.5911,-123.3392 533.0858,-121.8862 523.9757,-116.4774 522.5911,-123.3392"/>
</g>
<!-- Node25 -->
<g id="node5" class="node">
<title>Node25</title>
<g id="a_node5"><a xlink:href="matching2_8c.html" target="_top" xlink:title="Source/ARX/AR2/matching2.c">
<polygon fill="#ffffff" stroke="#000000" points="162.2192,-.5 162.2192,-18.5 312.1694,-18.5 312.1694,-.5 162.2192,-.5"/>
<text text-anchor="middle" x="237.1943" y="-6.5" font-family="Helvetica,sans-Serif" font-size="10.00" fill="#000000">Source/ARX/AR2/matching2.c</text>
</a>
</g>
</g>
<!-- Node21&#45;&gt;Node25 -->
<g id="edge10" class="edge">
<title>Node21&#45;&gt;Node25</title>
<path fill="none" stroke="#191970" d="M541.8087,-117.4526C511.408,-107.9311 473.1035,-95.6658 439.1943,-84 374.1589,-61.6259 298.2584,-32.9277 260.7088,-18.5549"/>
<polygon fill="#191970" stroke="#191970" points="540.7971,-120.8033 551.3858,-120.4433 542.8837,-114.1215 540.7971,-120.8033"/>
</g>
<!-- Node26 -->
<g id="node6" class="node">
<title>Node26</title>
<g id="a_node6"><a xlink:href="surface_8c.html" target="_top" xlink:title="Source/ARX/AR2/surface.c">
<polygon fill="#ffffff" stroke="#000000" points="329.8916,-.5 329.8916,-18.5 466.4971,-18.5 466.4971,-.5 329.8916,-.5"/>
<text text-anchor="middle" x="398.1943" y="-6.5" font-family="Helvetica,sans-Serif" font-size="10.00" fill="#000000">Source/ARX/AR2/surface.c</text>
</a>
</g>
</g>
<!-- Node21&#45;&gt;Node26 -->
<g id="edge12" class="edge">
<title>Node21&#45;&gt;Node26</title>
<path fill="none" stroke="#191970" d="M544.7436,-116.802C523.2595,-108.413 498.6842,-97.2951 478.1943,-84 448.5816,-64.7854 419.7684,-34.164 406.2253,-18.8545"/>
<polygon fill="#191970" stroke="#191970" points="543.7802,-120.1801 554.3713,-120.4623 546.2679,-113.637 543.7802,-120.1801"/>
</g>
<!-- Node27 -->
<g id="node7" class="node">
<title>Node27</title>
<g id="a_node7"><a xlink:href="template_8c.html" target="_top" xlink:title="Source/ARX/AR2/template.c">
<polygon fill="#ffffff" stroke="#000000" points="636.1108,-.5 636.1108,-18.5 778.2778,-18.5 778.2778,-.5 636.1108,-.5"/>
<text text-anchor="middle" x="707.1943" y="-6.5" font-family="Helvetica,sans-Serif" font-size="10.00" fill="#000000">Source/ARX/AR2/template.c</text>
</a>
</g>
</g>
<!-- Node21&#45;&gt;Node27 -->
<g id="edge13" class="edge">
<title>Node21&#45;&gt;Node27</title>
<path fill="none" stroke="#191970" d="M616.5162,-112.5434C640.9082,-84.8251 681.77,-38.3912 699.0667,-18.736"/>
<polygon fill="#191970" stroke="#191970" points="613.7915,-110.3415 609.8127,-120.1609 619.0466,-114.966 613.7915,-110.3415"/>
</g>
<!-- Node28 -->
<g id="node8" class="node">
<title>Node28</title>
<g id="a_node8"><a xlink:href="tracking_8c.html" target="_top" xlink:title="Source/ARX/AR2/tracking.c">
<polygon fill="#ffffff" stroke="#000000" points="795.7808,-.5 795.7808,-18.5 934.6079,-18.5 934.6079,-.5 795.7808,-.5"/>
<text text-anchor="middle" x="865.1943" y="-6.5" font-family="Helvetica,sans-Serif" font-size="10.00" fill="#000000">Source/ARX/AR2/tracking.c</text>
</a>
</g>
</g>
<!-- Node21&#45;&gt;Node28 -->
<g id="edge14" class="edge">
<title>Node21&#45;&gt;Node28</title>
<path fill="none" stroke="#191970" d="M625.3355,-114.46C638.1617,-105.2592 653.506,-94.1579 667.1943,-84 684.2551,-71.3395 686.1998,-64.5167 705.1943,-55 740.3091,-37.4067 783.2707,-25.665 815.8315,-18.5228"/>
<polygon fill="#191970" stroke="#191970" points="623.004,-111.8247 616.9095,-120.4912 627.0783,-117.5168 623.004,-111.8247"/>
</g>
<!-- Node29 -->
<g id="node9" class="node">
<title>Node29</title>
<g id="a_node9"><a xlink:href="tracking2d_8c.html" target="_top" xlink:title="Source/ARX/AR2/tracking2d.c">
<polygon fill="#ffffff" stroke="#000000" points="952.2192,-.5 952.2192,-18.5 1102.1694,-18.5 1102.1694,-.5 952.2192,-.5"/>
<text text-anchor="middle" x="1027.1943" y="-6.5" font-family="Helvetica,sans-Serif" font-size="10.00" fill="#000000">Source/ARX/AR2/tracking2d.c</text>
</a>
</g>
</g>
<!-- Node21&#45;&gt;Node29 -->
<g id="edge15" class="edge">
<title>Node21&#45;&gt;Node29</title>
<path fill="none" stroke="#191970" d="M639.3982,-116.0944C658.4356,-107.2178 680.9225,-95.9183 700.1943,-84 718.2634,-72.8256 718.6596,-63.3517 738.1943,-55 758.0721,-46.5016 879.3289,-29.1832 958.3312,-18.5346"/>
<polygon fill="#191970" stroke="#191970" points="637.7021,-113.0218 630.0766,-120.3773 640.6247,-119.3825 637.7021,-113.0218"/>
</g>
<!-- Node30 -->
<g id="node10" class="node">
<title>Node30</title>
<g id="a_node10"><a xlink:href="select_template_8c.html" target="_top" xlink:title="Source/ARX/AR2/selectTemplate.c">
<polygon fill="#ffffff" stroke="#000000" points="746.9385,-60.5 746.9385,-78.5 917.4502,-78.5 917.4502,-60.5 746.9385,-60.5"/>
<text text-anchor="middle" x="832.1943" y="-66.5" font-family="Helvetica,sans-Serif" font-size="10.00" fill="#000000">Source/ARX/AR2/selectTemplate.c</text>
</a>
</g>
</g>
<!-- Node21&#45;&gt;Node30 -->
<g id="edge11" class="edge">
<title>Node21&#45;&gt;Node30</title>
<path fill="none" stroke="#191970" d="M657.6039,-117.791C702.8683,-105.271 763.0649,-88.6209 799.6502,-78.5016"/>
<polygon fill="#191970" stroke="#191970" points="656.6016,-114.4367 647.8965,-120.476 658.4677,-121.1834 656.6016,-114.4367"/>
</g>
<!-- Node23 -->
<g id="node3" class="node">
<title>Node23</title>
<g id="a_node3"><a xlink:href="handle_8c.html" target="_top" xlink:title="Source/ARX/AR2/handle.c">
<polygon fill="#ffffff" stroke="#000000" points="484.2734,-.5 484.2734,-18.5 618.1152,-18.5 618.1152,-.5 484.2734,-.5"/>
<text text-anchor="middle" x="551.1943" y="-6.5" font-family="Helvetica,sans-Serif" font-size="10.00" fill="#000000">Source/ARX/AR2/handle.c</text>
</a>
</g>
</g>
<!-- Node22&#45;&gt;Node23 -->
<g id="edge2" class="edge">
<title>Node22&#45;&gt;Node23</title>
<path fill="none" stroke="#191970" d="M551.1943,-45.2151C551.1943,-35.8253 551.1943,-25.6598 551.1943,-18.5842"/>
<polygon fill="#191970" stroke="#191970" points="547.6944,-45.2808 551.1943,-55.2808 554.6944,-45.2809 547.6944,-45.2808"/>
</g>
<!-- Node22&#45;&gt;Node24 -->
<g id="edge3" class="edge">
<title>Node22&#45;&gt;Node24</title>
<path fill="none" stroke="#191970" d="M477.1591,-60.2263C386.463,-48.8656 233.8439,-29.7484 144.1206,-18.5095"/>
<polygon fill="#191970" stroke="#191970" points="476.7338,-63.7003 487.0913,-61.4704 477.6039,-56.7545 476.7338,-63.7003"/>
</g>
<!-- Node22&#45;&gt;Node25 -->
<g id="edge4" class="edge">
<title>Node22&#45;&gt;Node25</title>
<path fill="none" stroke="#191970" d="M477.173,-55.3558C417.624,-43.977 335.7258,-28.3277 284.6544,-18.5688"/>
<polygon fill="#191970" stroke="#191970" points="476.7941,-58.8466 487.2733,-57.2858 478.1079,-51.971 476.7941,-58.8466"/>
</g>
<!-- Node22&#45;&gt;Node26 -->
<g id="edge5" class="edge">
<title>Node22&#45;&gt;Node26</title>
<path fill="none" stroke="#191970" d="M505.8212,-51.7066C478.0977,-40.8347 443.7989,-27.3842 421.4785,-18.6311"/>
<polygon fill="#191970" stroke="#191970" points="504.7351,-55.0401 515.3226,-55.4327 507.2907,-48.5233 504.7351,-55.0401"/>
</g>
<!-- Node22&#45;&gt;Node27 -->
<g id="edge6" class="edge">
<title>Node22&#45;&gt;Node27</title>
<path fill="none" stroke="#191970" d="M597.4572,-51.7066C625.7242,-40.8347 660.6955,-27.3842 683.4536,-18.6311"/>
<polygon fill="#191970" stroke="#191970" points="595.8464,-48.5761 587.7694,-55.4327 598.3593,-55.1095 595.8464,-48.5761"/>
</g>
<!-- Node22&#45;&gt;Node28 -->
<g id="edge7" class="edge">
<title>Node22&#45;&gt;Node28</title>
<path fill="none" stroke="#191970" d="M625.2157,-55.3558C684.7647,-43.977 766.6628,-28.3277 817.7343,-18.5688"/>
<polygon fill="#191970" stroke="#191970" points="624.2808,-51.971 615.1154,-57.2858 625.5946,-58.8466 624.2808,-51.971"/>
</g>
<!-- Node22&#45;&gt;Node29 -->
<g id="edge8" class="edge">
<title>Node22&#45;&gt;Node29</title>
<path fill="none" stroke="#191970" d="M625.5341,-60.1294C715.6748,-48.7672 866.5462,-29.7498 955.4855,-18.5389"/>
<polygon fill="#191970" stroke="#191970" points="624.8736,-56.6849 615.3898,-61.4081 625.749,-63.63 624.8736,-56.6849"/>
</g>
</g>
</svg>
