<?xml version="1.0" encoding="UTF-8" standalone="no"?>
<!DOCTYPE svg PUBLIC "-//W3C//DTD SVG 1.1//EN"
 "http://www.w3.org/Graphics/SVG/1.1/DTD/svg11.dtd">
<!-- Generated by graphviz version 2.40.1 (20161225.0304)
 -->
<!-- Title: Source/ARX/ARUtil/include/ARX/ARUtil/thread_sub.h Pages: 1 -->
<svg width="1262pt" height="167pt"
 viewBox="0.00 0.00 1261.56 167.00" xmlns="http://www.w3.org/2000/svg" xmlns:xlink="http://www.w3.org/1999/xlink">
<g id="graph0" class="graph" transform="scale(1 1) rotate(0) translate(4 163)">
<title>Source/ARX/ARUtil/include/ARX/ARUtil/thread_sub.h</title>
<polygon fill="#ffffff" stroke="transparent" points="-4,4 -4,-163 1257.5562,-163 1257.5562,4 -4,4"/>
<!-- Node2 -->
<g id="node1" class="node">
<title>Node2</title>
<polygon fill="#bfbfbf" stroke="#000000" points="837.6182,-130.5 837.6182,-158.5 974.2236,-158.5 974.2236,-130.5 837.6182,-130.5"/>
<text text-anchor="start" x="845.6182" y="-146.5" font-family="Helvetica,sans-Serif" font-size="10.00" fill="#000000">Source/ARX/ARUtil/include</text>
<text text-anchor="middle" x="905.9209" y="-136.5" font-family="Helvetica,sans-Serif" font-size="10.00" fill="#000000">/ARX/ARUtil/thread_sub.h</text>
</g>
<!-- Node3 -->
<g id="node2" class="node">
<title>Node3</title>
<g id="a_node2"><a xlink:href="tracking_8h.html" target="_top" xlink:title="Source/ARX/AR2/include\l/ARX/AR2/tracking.h">
<polygon fill="#ffffff" stroke="#000000" points="564.0591,-65.5 564.0591,-93.5 691.7827,-93.5 691.7827,-65.5 564.0591,-65.5"/>
<text text-anchor="start" x="572.0591" y="-81.5" font-family="Helvetica,sans-Serif" font-size="10.00" fill="#000000">Source/ARX/AR2/include</text>
<text text-anchor="middle" x="627.9209" y="-71.5" font-family="Helvetica,sans-Serif" font-size="10.00" fill="#000000">/ARX/AR2/tracking.h</text>
</a>
</g>
</g>
<!-- Node2&#45;&gt;Node3 -->
<g id="edge1" class="edge">
<title>Node2&#45;&gt;Node3</title>
<path fill="none" stroke="#191970" d="M836.1454,-128.1856C790.6164,-117.5403 731.7821,-103.7841 688.2722,-93.6109"/>
<polygon fill="#191970" stroke="#191970" points="835.407,-131.6073 845.9413,-130.476 837.0008,-124.7911 835.407,-131.6073"/>
</g>
<!-- Node11 -->
<g id="node10" class="node">
<title>Node11</title>
<g id="a_node10"><a xlink:href="thread__sub_8c.html" target="_top" xlink:title="Source/ARX/ARUtil/thread\l_sub.c">
<polygon fill="#ffffff" stroke="#000000" points="839.2856,-65.5 839.2856,-93.5 972.5562,-93.5 972.5562,-65.5 839.2856,-65.5"/>
<text text-anchor="start" x="847.2856" y="-81.5" font-family="Helvetica,sans-Serif" font-size="10.00" fill="#000000">Source/ARX/ARUtil/thread</text>
<text text-anchor="middle" x="905.9209" y="-71.5" font-family="Helvetica,sans-Serif" font-size="10.00" fill="#000000">_sub.c</text>
</a>
</g>
</g>
<!-- Node2&#45;&gt;Node11 -->
<g id="edge9" class="edge">
<title>Node2&#45;&gt;Node11</title>
<path fill="none" stroke="#191970" d="M905.9209,-120.1081C905.9209,-111.1539 905.9209,-101.3227 905.9209,-93.5765"/>
<polygon fill="#191970" stroke="#191970" points="902.421,-120.3959 905.9209,-130.396 909.421,-120.396 902.421,-120.3959"/>
</g>
<!-- Node12 -->
<g id="node11" class="node">
<title>Node12</title>
<g id="a_node11"><a xlink:href="thread__sub__winrt_8h.html" target="_top" xlink:title="Source/ARX/ARUtil/thread\l_sub_winrt.h">
<polygon fill="#ffffff" stroke="#000000" points="1055.2856,-65.5 1055.2856,-93.5 1188.5562,-93.5 1188.5562,-65.5 1055.2856,-65.5"/>
<text text-anchor="start" x="1063.2856" y="-81.5" font-family="Helvetica,sans-Serif" font-size="10.00" fill="#000000">Source/ARX/ARUtil/thread</text>
<text text-anchor="middle" x="1121.9209" y="-71.5" font-family="Helvetica,sans-Serif" font-size="10.00" fill="#000000">_sub_winrt.h</text>
</a>
</g>
</g>
<!-- Node2&#45;&gt;Node12 -->
<g id="edge10" class="edge">
<title>Node2&#45;&gt;Node12</title>
<path fill="none" stroke="#191970" d="M962.1482,-127.5797C997.2308,-117.0225 1041.8608,-103.5921 1075.0292,-93.6109"/>
<polygon fill="#191970" stroke="#191970" points="961.091,-124.2428 952.5238,-130.476 963.1082,-130.9458 961.091,-124.2428"/>
</g>
<!-- Node4 -->
<g id="node3" class="node">
<title>Node4</title>
<g id="a_node3"><a xlink:href="handle_8c.html" target="_top" xlink:title="Source/ARX/AR2/handle.c">
<polygon fill="#ffffff" stroke="#000000" points="0,-5.5 0,-23.5 133.8418,-23.5 133.8418,-5.5 0,-5.5"/>
<text text-anchor="middle" x="66.9209" y="-11.5" font-family="Helvetica,sans-Serif" font-size="10.00" fill="#000000">Source/ARX/AR2/handle.c</text>
</a>
</g>
</g>
<!-- Node3&#45;&gt;Node4 -->
<g id="edge2" class="edge">
<title>Node3&#45;&gt;Node4</title>
<path fill="none" stroke="#191970" d="M553.6407,-73.7352C458.2641,-65.8819 287.7724,-50.3201 142.9209,-29 132.5553,-27.4743 121.4508,-25.5323 111.02,-23.5692"/>
<polygon fill="#191970" stroke="#191970" points="553.5104,-77.2361 563.7624,-74.5628 554.081,-70.2594 553.5104,-77.2361"/>
</g>
<!-- Node5 -->
<g id="node4" class="node">
<title>Node5</title>
<g id="a_node4"><a xlink:href="matching_8c.html" target="_top" xlink:title="Source/ARX/AR2/matching.c">
<polygon fill="#ffffff" stroke="#000000" points="151.7266,-5.5 151.7266,-23.5 296.1152,-23.5 296.1152,-5.5 151.7266,-5.5"/>
<text text-anchor="middle" x="223.9209" y="-11.5" font-family="Helvetica,sans-Serif" font-size="10.00" fill="#000000">Source/ARX/AR2/matching.c</text>
</a>
</g>
</g>
<!-- Node3&#45;&gt;Node5 -->
<g id="edge3" class="edge">
<title>Node3&#45;&gt;Node5</title>
<path fill="none" stroke="#191970" d="M553.5822,-68.3532C488.0665,-58.4159 390.0678,-43.2756 304.9209,-29 294.7765,-27.2992 283.9312,-25.4081 273.5815,-23.5684"/>
<polygon fill="#191970" stroke="#191970" points="553.3999,-71.8655 563.8112,-69.9025 554.4482,-64.9444 553.3999,-71.8655"/>
</g>
<!-- Node6 -->
<g id="node5" class="node">
<title>Node6</title>
<g id="a_node5"><a xlink:href="matching2_8c.html" target="_top" xlink:title="Source/ARX/AR2/matching2.c">
<polygon fill="#ffffff" stroke="#000000" points="313.9458,-5.5 313.9458,-23.5 463.896,-23.5 463.896,-5.5 313.9458,-5.5"/>
<text text-anchor="middle" x="388.9209" y="-11.5" font-family="Helvetica,sans-Serif" font-size="10.00" fill="#000000">Source/ARX/AR2/matching2.c</text>
</a>
</g>
</g>
<!-- Node3&#45;&gt;Node6 -->
<g id="edge4" class="edge">
<title>Node3&#45;&gt;Node6</title>
<path fill="none" stroke="#191970" d="M566.483,-62.791C520.4483,-50.271 459.227,-33.6209 422.0189,-23.5016"/>
<polygon fill="#191970" stroke="#191970" points="565.7877,-66.2289 576.3557,-65.476 567.6247,-59.4743 565.7877,-66.2289"/>
</g>
<!-- Node7 -->
<g id="node6" class="node">
<title>Node7</title>
<g id="a_node6"><a xlink:href="surface_8c.html" target="_top" xlink:title="Source/ARX/AR2/surface.c">
<polygon fill="#ffffff" stroke="#000000" points="481.6182,-5.5 481.6182,-23.5 618.2236,-23.5 618.2236,-5.5 481.6182,-5.5"/>
<text text-anchor="middle" x="549.9209" y="-11.5" font-family="Helvetica,sans-Serif" font-size="10.00" fill="#000000">Source/ARX/AR2/surface.c</text>
</a>
</g>
</g>
<!-- Node3&#45;&gt;Node7 -->
<g id="edge5" class="edge">
<title>Node3&#45;&gt;Node7</title>
<path fill="none" stroke="#191970" d="M603.026,-58.7543C588.805,-46.9034 571.6922,-32.6427 560.8101,-23.5743"/>
<polygon fill="#191970" stroke="#191970" points="601.0732,-61.6829 610.9961,-65.396 605.5545,-56.3053 601.0732,-61.6829"/>
</g>
<!-- Node8 -->
<g id="node7" class="node">
<title>Node8</title>
<g id="a_node7"><a xlink:href="template_8c.html" target="_top" xlink:title="Source/ARX/AR2/template.c">
<polygon fill="#ffffff" stroke="#000000" points="635.8374,-5.5 635.8374,-23.5 778.0044,-23.5 778.0044,-5.5 635.8374,-5.5"/>
<text text-anchor="middle" x="706.9209" y="-11.5" font-family="Helvetica,sans-Serif" font-size="10.00" fill="#000000">Source/ARX/AR2/template.c</text>
</a>
</g>
</g>
<!-- Node3&#45;&gt;Node8 -->
<g id="edge6" class="edge">
<title>Node3&#45;&gt;Node8</title>
<path fill="none" stroke="#191970" d="M653.1349,-58.7543C667.5383,-46.9034 684.8705,-32.6427 695.8921,-23.5743"/>
<polygon fill="#191970" stroke="#191970" points="650.5611,-56.3395 645.0627,-65.396 655.0087,-61.745 650.5611,-56.3395"/>
</g>
<!-- Node9 -->
<g id="node8" class="node">
<title>Node9</title>
<g id="a_node8"><a xlink:href="tracking_8c.html" target="_top" xlink:title="Source/ARX/AR2/tracking.c">
<polygon fill="#ffffff" stroke="#000000" points="795.5073,-5.5 795.5073,-23.5 934.3345,-23.5 934.3345,-5.5 795.5073,-5.5"/>
<text text-anchor="middle" x="864.9209" y="-11.5" font-family="Helvetica,sans-Serif" font-size="10.00" fill="#000000">Source/ARX/AR2/tracking.c</text>
</a>
</g>
</g>
<!-- Node3&#45;&gt;Node9 -->
<g id="edge7" class="edge">
<title>Node3&#45;&gt;Node9</title>
<path fill="none" stroke="#191970" d="M688.8446,-62.791C734.4942,-50.271 795.2032,-33.6209 832.0998,-23.5016"/>
<polygon fill="#191970" stroke="#191970" points="687.7727,-59.4556 679.0546,-65.476 689.6242,-66.2063 687.7727,-59.4556"/>
</g>
<!-- Node10 -->
<g id="node9" class="node">
<title>Node10</title>
<g id="a_node9"><a xlink:href="tracking2d_8c.html" target="_top" xlink:title="Source/ARX/AR2/tracking2d.c">
<polygon fill="#ffffff" stroke="#000000" points="951.9458,-5.5 951.9458,-23.5 1101.896,-23.5 1101.896,-5.5 951.9458,-5.5"/>
<text text-anchor="middle" x="1026.9209" y="-11.5" font-family="Helvetica,sans-Serif" font-size="10.00" fill="#000000">Source/ARX/AR2/tracking2d.c</text>
</a>
</g>
</g>
<!-- Node3&#45;&gt;Node10 -->
<g id="edge8" class="edge">
<title>Node3&#45;&gt;Node10</title>
<path fill="none" stroke="#191970" d="M701.8856,-67.8982C765.747,-57.82 860.464,-42.7259 942.9209,-29 953.2856,-27.2747 964.3623,-25.391 974.959,-23.5696"/>
<polygon fill="#191970" stroke="#191970" points="701.2405,-64.4566 691.9078,-69.4717 702.331,-71.3712 701.2405,-64.4566"/>
</g>
<!-- Node13 -->
<g id="node12" class="node">
<title>Node13</title>
<g id="a_node12"><a xlink:href="thread__sub__winrt_8cpp.html" target="_top" xlink:title="Source/ARX/ARUtil/thread\l_sub_winrt.cpp">
<polygon fill="#ffffff" stroke="#000000" points="1120.2856,-.5 1120.2856,-28.5 1253.5562,-28.5 1253.5562,-.5 1120.2856,-.5"/>
<text text-anchor="start" x="1128.2856" y="-16.5" font-family="Helvetica,sans-Serif" font-size="10.00" fill="#000000">Source/ARX/ARUtil/thread</text>
<text text-anchor="middle" x="1186.9209" y="-6.5" font-family="Helvetica,sans-Serif" font-size="10.00" fill="#000000">_sub_winrt.cpp</text>
</a>
</g>
</g>
<!-- Node12&#45;&gt;Node13 -->
<g id="edge11" class="edge">
<title>Node12&#45;&gt;Node13</title>
<path fill="none" stroke="#191970" d="M1143.1094,-58.3115C1152.8597,-48.5612 1164.1619,-37.259 1172.8444,-28.5765"/>
<polygon fill="#191970" stroke="#191970" points="1140.6211,-55.85 1136.0249,-65.396 1145.5709,-60.7998 1140.6211,-55.85"/>
</g>
</g>
</svg>
