<?xml version="1.0" encoding="UTF-8" standalone="no"?>
<!DOCTYPE svg PUBLIC "-//W3C//DTD SVG 1.1//EN"
 "http://www.w3.org/Graphics/SVG/1.1/DTD/svg11.dtd">
<!-- Generated by graphviz version 2.40.1 (20161225.0304)
 -->
<!-- Title: /Users/phil/r/artoolkitx/Source/ARX/ARUtil/thread_sub_winrt.cpp Pages: 1 -->
<svg width="144pt" height="212pt"
 viewBox="0.00 0.00 144.05 212.00" xmlns="http://www.w3.org/2000/svg" xmlns:xlink="http://www.w3.org/1999/xlink">
<g id="graph0" class="graph" transform="scale(1 1) rotate(0) translate(4 208)">
<title>/Users/phil/r/artoolkitx/Source/ARX/ARUtil/thread_sub_winrt.cpp</title>
<polygon fill="#ffffff" stroke="transparent" points="-4,4 -4,-208 140.0488,-208 140.0488,4 -4,4"/>
<!-- Node0 -->
<g id="node1" class="node">
<title>Node0</title>
<polygon fill="#bfbfbf" stroke="#000000" points="0,-165.5 0,-203.5 136.0488,-203.5 136.0488,-165.5 0,-165.5"/>
<text text-anchor="start" x="8" y="-191.5" font-family="Helvetica,sans-Serif" font-size="10.00" fill="#000000">/Users/phil/r/artoolkitx</text>
<text text-anchor="start" x="8" y="-181.5" font-family="Helvetica,sans-Serif" font-size="10.00" fill="#000000">/Source/ARX/ARUtil/thread</text>
<text text-anchor="middle" x="68.0244" y="-171.5" font-family="Helvetica,sans-Serif" font-size="10.00" fill="#000000">_sub_winrt.cpp</text>
</g>
<!-- Node1 -->
<g id="node2" class="node">
<title>Node1</title>
<g id="a_node2"><a xlink:href="thread__sub__winrt_8h.html" target="_top" xlink:title="thread_sub_winrt.h">
<polygon fill="#ffffff" stroke="#000000" points="17.4976,-110.5 17.4976,-128.5 118.5513,-128.5 118.5513,-110.5 17.4976,-110.5"/>
<text text-anchor="middle" x="68.0244" y="-116.5" font-family="Helvetica,sans-Serif" font-size="10.00" fill="#000000">thread_sub_winrt.h</text>
</a>
</g>
</g>
<!-- Node0&#45;&gt;Node1 -->
<g id="edge1" class="edge">
<title>Node0&#45;&gt;Node1</title>
<path fill="none" stroke="#191970" d="M68.0244,-165.3494C68.0244,-157.0079 68.0244,-147.2463 68.0244,-138.879"/>
<polygon fill="#191970" stroke="#191970" points="71.5245,-138.5978 68.0244,-128.5978 64.5245,-138.5979 71.5245,-138.5978"/>
</g>
<!-- Node2 -->
<g id="node3" class="node">
<title>Node2</title>
<g id="a_node3"><a xlink:href="thread__sub_8h.html" target="_top" xlink:title="ARX/ARUtil/thread_sub.h">
<polygon fill="#ffffff" stroke="#000000" points="3.6084,-55.5 3.6084,-73.5 132.4404,-73.5 132.4404,-55.5 3.6084,-55.5"/>
<text text-anchor="middle" x="68.0244" y="-61.5" font-family="Helvetica,sans-Serif" font-size="10.00" fill="#000000">ARX/ARUtil/thread_sub.h</text>
</a>
</g>
</g>
<!-- Node1&#45;&gt;Node2 -->
<g id="edge2" class="edge">
<title>Node1&#45;&gt;Node2</title>
<path fill="none" stroke="#191970" d="M68.0244,-110.4179C68.0244,-103.2164 68.0244,-92.8962 68.0244,-83.8632"/>
<polygon fill="#191970" stroke="#191970" points="71.5245,-83.7794 68.0244,-73.7795 64.5245,-83.7795 71.5245,-83.7794"/>
</g>
<!-- Node3 -->
<g id="node4" class="node">
<title>Node3</title>
<g id="a_node4"><a xlink:href="types_8h.html" target="_top" xlink:title="ARX/ARUtil/types.h">
<polygon fill="#ffffff" stroke="#000000" points="16.6772,-.5 16.6772,-18.5 119.3716,-18.5 119.3716,-.5 16.6772,-.5"/>
<text text-anchor="middle" x="68.0244" y="-6.5" font-family="Helvetica,sans-Serif" font-size="10.00" fill="#000000">ARX/ARUtil/types.h</text>
</a>
</g>
</g>
<!-- Node2&#45;&gt;Node3 -->
<g id="edge3" class="edge">
<title>Node2&#45;&gt;Node3</title>
<path fill="none" stroke="#191970" d="M68.0244,-55.4179C68.0244,-48.2164 68.0244,-37.8962 68.0244,-28.8632"/>
<polygon fill="#191970" stroke="#191970" points="71.5245,-28.7794 68.0244,-18.7795 64.5245,-28.7795 71.5245,-28.7794"/>
</g>
</g>
</svg>
