<?xml version="1.0" encoding="UTF-8" standalone="no"?>
<!DOCTYPE svg PUBLIC "-//W3C//DTD SVG 1.1//EN"
 "http://www.w3.org/Graphics/SVG/1.1/DTD/svg11.dtd">
<!-- Generated by graphviz version 2.40.1 (20161225.0304)
 -->
<!-- Title: /Users/phil/r/artoolkitx/Source/ARX/ARUtil/include/ARX/ARUtil/thread_sub.h Pages: 1 -->
<svg width="1284pt" height="197pt"
 viewBox="0.00 0.00 1284.33 197.00" xmlns="http://www.w3.org/2000/svg" xmlns:xlink="http://www.w3.org/1999/xlink">
<g id="graph0" class="graph" transform="scale(1 1) rotate(0) translate(4 193)">
<title>/Users/phil/r/artoolkitx/Source/ARX/ARUtil/include/ARX/ARUtil/thread_sub.h</title>
<polygon fill="#ffffff" stroke="transparent" points="-4,4 -4,-193 1280.3345,-193 1280.3345,4 -4,4"/>
<!-- Node2 -->
<g id="node1" class="node">
<title>Node2</title>
<polygon fill="#bfbfbf" stroke="#000000" points="852.6182,-150.5 852.6182,-188.5 992.002,-188.5 992.002,-150.5 852.6182,-150.5"/>
<text text-anchor="start" x="860.6182" y="-176.5" font-family="Helvetica,sans-Serif" font-size="10.00" fill="#000000">/Users/phil/r/artoolkitx</text>
<text text-anchor="start" x="860.6182" y="-166.5" font-family="Helvetica,sans-Serif" font-size="10.00" fill="#000000">/Source/ARX/ARUtil/include</text>
<text text-anchor="middle" x="922.3101" y="-156.5" font-family="Helvetica,sans-Serif" font-size="10.00" fill="#000000">/ARX/ARUtil/thread_sub.h</text>
</g>
<!-- Node3 -->
<g id="node2" class="node">
<title>Node3</title>
<g id="a_node2"><a xlink:href="tracking_8h.html" target="_top" xlink:title="/Users/phil/r/artoolkitx\l/Source/ARX/AR2/include\l/ARX/AR2/tracking.h">
<polygon fill="#ffffff" stroke="#000000" points="575.0591,-75.5 575.0591,-113.5 705.561,-113.5 705.561,-75.5 575.0591,-75.5"/>
<text text-anchor="start" x="583.0591" y="-101.5" font-family="Helvetica,sans-Serif" font-size="10.00" fill="#000000">/Users/phil/r/artoolkitx</text>
<text text-anchor="start" x="583.0591" y="-91.5" font-family="Helvetica,sans-Serif" font-size="10.00" fill="#000000">/Source/ARX/AR2/include</text>
<text text-anchor="middle" x="640.3101" y="-81.5" font-family="Helvetica,sans-Serif" font-size="10.00" fill="#000000">/ARX/AR2/tracking.h</text>
</a>
</g>
</g>
<!-- Node2&#45;&gt;Node3 -->
<g id="edge1" class="edge">
<title>Node2&#45;&gt;Node3</title>
<path fill="none" stroke="#191970" d="M842.6837,-148.3228C799.4513,-136.8248 746.6545,-122.7831 705.8291,-111.9253"/>
<polygon fill="#191970" stroke="#191970" points="842.0385,-151.7728 852.6022,-150.9607 843.8377,-145.008 842.0385,-151.7728"/>
</g>
<!-- Node11 -->
<g id="node10" class="node">
<title>Node11</title>
<g id="a_node10"><a xlink:href="thread__sub_8c.html" target="_top" xlink:title="/Users/phil/r/artoolkitx\l/Source/ARX/ARUtil/thread_sub.c">
<polygon fill="#ffffff" stroke="#000000" points="839.5542,-80.5 839.5542,-108.5 1005.0659,-108.5 1005.0659,-80.5 839.5542,-80.5"/>
<text text-anchor="start" x="847.5542" y="-96.5" font-family="Helvetica,sans-Serif" font-size="10.00" fill="#000000">/Users/phil/r/artoolkitx</text>
<text text-anchor="middle" x="922.3101" y="-86.5" font-family="Helvetica,sans-Serif" font-size="10.00" fill="#000000">/Source/ARX/ARUtil/thread_sub.c</text>
</a>
</g>
</g>
<!-- Node2&#45;&gt;Node11 -->
<g id="edge9" class="edge">
<title>Node2&#45;&gt;Node11</title>
<path fill="none" stroke="#191970" d="M922.3101,-140.1739C922.3101,-129.2897 922.3101,-117.4399 922.3101,-108.5382"/>
<polygon fill="#191970" stroke="#191970" points="918.8102,-140.1856 922.3101,-150.1856 925.8102,-140.1857 918.8102,-140.1856"/>
</g>
<!-- Node12 -->
<g id="node11" class="node">
<title>Node12</title>
<g id="a_node11"><a xlink:href="thread__sub__winrt_8h.html" target="_top" xlink:title="/Users/phil/r/artoolkitx\l/Source/ARX/ARUtil/thread\l_sub_winrt.h">
<polygon fill="#ffffff" stroke="#000000" points="1081.2856,-75.5 1081.2856,-113.5 1217.3345,-113.5 1217.3345,-75.5 1081.2856,-75.5"/>
<text text-anchor="start" x="1089.2856" y="-101.5" font-family="Helvetica,sans-Serif" font-size="10.00" fill="#000000">/Users/phil/r/artoolkitx</text>
<text text-anchor="start" x="1089.2856" y="-91.5" font-family="Helvetica,sans-Serif" font-size="10.00" fill="#000000">/Source/ARX/ARUtil/thread</text>
<text text-anchor="middle" x="1149.3101" y="-81.5" font-family="Helvetica,sans-Serif" font-size="10.00" fill="#000000">_sub_winrt.h</text>
</a>
</g>
</g>
<!-- Node2&#45;&gt;Node12 -->
<g id="edge10" class="edge">
<title>Node2&#45;&gt;Node12</title>
<path fill="none" stroke="#191970" d="M989.7514,-147.2176C1022.2171,-136.4911 1060.7378,-123.764 1091.7963,-113.5023"/>
<polygon fill="#191970" stroke="#191970" points="988.2823,-144.0168 979.8852,-150.4774 990.4784,-150.6635 988.2823,-144.0168"/>
</g>
<!-- Node4 -->
<g id="node3" class="node">
<title>Node4</title>
<g id="a_node3"><a xlink:href="handle_8c.html" target="_top" xlink:title="/Users/phil/r/artoolkitx\l/Source/ARX/AR2/handle.c">
<polygon fill="#ffffff" stroke="#000000" points="0,-5.5 0,-33.5 136.6201,-33.5 136.6201,-5.5 0,-5.5"/>
<text text-anchor="start" x="8" y="-21.5" font-family="Helvetica,sans-Serif" font-size="10.00" fill="#000000">/Users/phil/r/artoolkitx</text>
<text text-anchor="middle" x="68.3101" y="-11.5" font-family="Helvetica,sans-Serif" font-size="10.00" fill="#000000">/Source/ARX/AR2/handle.c</text>
</a>
</g>
</g>
<!-- Node3&#45;&gt;Node4 -->
<g id="edge2" class="edge">
<title>Node3&#45;&gt;Node4</title>
<path fill="none" stroke="#191970" d="M564.9836,-89.2673C467.5458,-81.7654 292.811,-65.8168 145.3101,-39 137.0338,-37.4953 128.3298,-35.6005 119.8718,-33.587"/>
<polygon fill="#191970" stroke="#191970" points="564.7965,-92.7631 575.0333,-90.0322 565.3277,-85.7833 564.7965,-92.7631"/>
</g>
<!-- Node5 -->
<g id="node4" class="node">
<title>Node5</title>
<g id="a_node4"><a xlink:href="matching_8c.html" target="_top" xlink:title="/Users/phil/r/artoolkitx\l/Source/ARX/AR2/matching.c">
<polygon fill="#ffffff" stroke="#000000" points="154.7266,-5.5 154.7266,-33.5 301.8936,-33.5 301.8936,-5.5 154.7266,-5.5"/>
<text text-anchor="start" x="162.7266" y="-21.5" font-family="Helvetica,sans-Serif" font-size="10.00" fill="#000000">/Users/phil/r/artoolkitx</text>
<text text-anchor="middle" x="228.3101" y="-11.5" font-family="Helvetica,sans-Serif" font-size="10.00" fill="#000000">/Source/ARX/AR2/matching.c</text>
</a>
</g>
</g>
<!-- Node3&#45;&gt;Node5 -->
<g id="edge3" class="edge">
<title>Node3&#45;&gt;Node5</title>
<path fill="none" stroke="#191970" d="M564.8272,-83.1654C497.9805,-72.7949 397.8611,-56.449 311.3101,-39 303.0393,-37.3326 294.3368,-35.441 285.8049,-33.5076"/>
<polygon fill="#191970" stroke="#191970" points="564.4352,-86.6463 574.8525,-84.7146 565.5043,-79.7284 564.4352,-86.6463"/>
</g>
<!-- Node6 -->
<g id="node5" class="node">
<title>Node6</title>
<g id="a_node5"><a xlink:href="matching2_8c.html" target="_top" xlink:title="/Users/phil/r/artoolkitx\l/Source/ARX/AR2/matching2.c">
<polygon fill="#ffffff" stroke="#000000" points="319.9458,-5.5 319.9458,-33.5 472.6743,-33.5 472.6743,-5.5 319.9458,-5.5"/>
<text text-anchor="start" x="327.9458" y="-21.5" font-family="Helvetica,sans-Serif" font-size="10.00" fill="#000000">/Users/phil/r/artoolkitx</text>
<text text-anchor="middle" x="396.3101" y="-11.5" font-family="Helvetica,sans-Serif" font-size="10.00" fill="#000000">/Source/ARX/AR2/matching2.c</text>
</a>
</g>
</g>
<!-- Node3&#45;&gt;Node6 -->
<g id="edge4" class="edge">
<title>Node3&#45;&gt;Node6</title>
<path fill="none" stroke="#191970" d="M568.7587,-72.5068C527.7855,-59.9125 477.5975,-44.4859 441.9524,-33.5294"/>
<polygon fill="#191970" stroke="#191970" points="567.8361,-75.8847 578.4231,-75.4774 569.8928,-69.1937 567.8361,-75.8847"/>
</g>
<!-- Node7 -->
<g id="node6" class="node">
<title>Node7</title>
<g id="a_node6"><a xlink:href="surface_8c.html" target="_top" xlink:title="/Users/phil/r/artoolkitx\l/Source/ARX/AR2/surface.c">
<polygon fill="#ffffff" stroke="#000000" points="490.6182,-5.5 490.6182,-33.5 630.002,-33.5 630.002,-5.5 490.6182,-5.5"/>
<text text-anchor="start" x="498.6182" y="-21.5" font-family="Helvetica,sans-Serif" font-size="10.00" fill="#000000">/Users/phil/r/artoolkitx</text>
<text text-anchor="middle" x="560.3101" y="-11.5" font-family="Helvetica,sans-Serif" font-size="10.00" fill="#000000">/Source/ARX/AR2/surface.c</text>
</a>
</g>
</g>
<!-- Node3&#45;&gt;Node7 -->
<g id="edge5" class="edge">
<title>Node3&#45;&gt;Node7</title>
<path fill="none" stroke="#191970" d="M612.2306,-68.1755C599.7917,-56.514 585.6602,-43.2658 575.2841,-33.5382"/>
<polygon fill="#191970" stroke="#191970" points="610.0189,-70.8996 619.7081,-75.1856 614.8065,-65.7928 610.0189,-70.8996"/>
</g>
<!-- Node8 -->
<g id="node7" class="node">
<title>Node8</title>
<g id="a_node7"><a xlink:href="template_8c.html" target="_top" xlink:title="/Users/phil/r/artoolkitx\l/Source/ARX/AR2/template.c">
<polygon fill="#ffffff" stroke="#000000" points="647.8374,-5.5 647.8374,-33.5 792.7827,-33.5 792.7827,-5.5 647.8374,-5.5"/>
<text text-anchor="start" x="655.8374" y="-21.5" font-family="Helvetica,sans-Serif" font-size="10.00" fill="#000000">/Users/phil/r/artoolkitx</text>
<text text-anchor="middle" x="720.3101" y="-11.5" font-family="Helvetica,sans-Serif" font-size="10.00" fill="#000000">/Source/ARX/AR2/template.c</text>
</a>
</g>
</g>
<!-- Node3&#45;&gt;Node8 -->
<g id="edge6" class="edge">
<title>Node3&#45;&gt;Node8</title>
<path fill="none" stroke="#191970" d="M668.3896,-68.1755C680.8284,-56.514 694.9599,-43.2658 705.336,-33.5382"/>
<polygon fill="#191970" stroke="#191970" points="665.8136,-65.7928 660.912,-75.1856 670.6012,-70.8996 665.8136,-65.7928"/>
</g>
<!-- Node9 -->
<g id="node8" class="node">
<title>Node9</title>
<g id="a_node8"><a xlink:href="tracking_8c.html" target="_top" xlink:title="/Users/phil/r/artoolkitx\l/Source/ARX/AR2/tracking.c">
<polygon fill="#ffffff" stroke="#000000" points="810.5073,-5.5 810.5073,-33.5 952.1128,-33.5 952.1128,-5.5 810.5073,-5.5"/>
<text text-anchor="start" x="818.5073" y="-21.5" font-family="Helvetica,sans-Serif" font-size="10.00" fill="#000000">/Users/phil/r/artoolkitx</text>
<text text-anchor="middle" x="881.3101" y="-11.5" font-family="Helvetica,sans-Serif" font-size="10.00" fill="#000000">/Source/ARX/AR2/tracking.c</text>
</a>
</g>
</g>
<!-- Node3&#45;&gt;Node9 -->
<g id="edge7" class="edge">
<title>Node3&#45;&gt;Node9</title>
<path fill="none" stroke="#191970" d="M711.2379,-72.427C751.6602,-59.8475 801.0964,-44.4628 836.2289,-33.5294"/>
<polygon fill="#191970" stroke="#191970" points="709.9444,-69.1639 701.4361,-75.4774 712.0244,-75.8478 709.9444,-69.1639"/>
</g>
<!-- Node10 -->
<g id="node9" class="node">
<title>Node10</title>
<g id="a_node9"><a xlink:href="tracking2d_8c.html" target="_top" xlink:title="/Users/phil/r/artoolkitx\l/Source/ARX/AR2/tracking2d.c">
<polygon fill="#ffffff" stroke="#000000" points="969.9458,-5.5 969.9458,-33.5 1122.6743,-33.5 1122.6743,-5.5 969.9458,-5.5"/>
<text text-anchor="start" x="977.9458" y="-21.5" font-family="Helvetica,sans-Serif" font-size="10.00" fill="#000000">/Users/phil/r/artoolkitx</text>
<text text-anchor="middle" x="1046.3101" y="-11.5" font-family="Helvetica,sans-Serif" font-size="10.00" fill="#000000">/Source/ARX/AR2/tracking2d.c</text>
</a>
</g>
</g>
<!-- Node3&#45;&gt;Node10 -->
<g id="edge8" class="edge">
<title>Node3&#45;&gt;Node10</title>
<path fill="none" stroke="#191970" d="M715.8573,-82.6267C781.0435,-72.0981 877.6262,-55.8205 961.3101,-39 969.6224,-37.3292 978.3654,-35.4563 986.953,-33.5496"/>
<polygon fill="#191970" stroke="#191970" points="714.9883,-79.2214 705.6717,-84.2663 716.1009,-86.1324 714.9883,-79.2214"/>
</g>
<!-- Node13 -->
<g id="node12" class="node">
<title>Node13</title>
<g id="a_node12"><a xlink:href="thread__sub__winrt_8cpp.html" target="_top" xlink:title="/Users/phil/r/artoolkitx\l/Source/ARX/ARUtil/thread\l_sub_winrt.cpp">
<polygon fill="#ffffff" stroke="#000000" points="1140.2856,-.5 1140.2856,-38.5 1276.3345,-38.5 1276.3345,-.5 1140.2856,-.5"/>
<text text-anchor="start" x="1148.2856" y="-26.5" font-family="Helvetica,sans-Serif" font-size="10.00" fill="#000000">/Users/phil/r/artoolkitx</text>
<text text-anchor="start" x="1148.2856" y="-16.5" font-family="Helvetica,sans-Serif" font-size="10.00" fill="#000000">/Source/ARX/ARUtil/thread</text>
<text text-anchor="middle" x="1208.3101" y="-6.5" font-family="Helvetica,sans-Serif" font-size="10.00" fill="#000000">_sub_winrt.cpp</text>
</a>
</g>
</g>
<!-- Node12&#45;&gt;Node13 -->
<g id="edge11" class="edge">
<title>Node12&#45;&gt;Node13</title>
<path fill="none" stroke="#191970" d="M1170.7848,-67.2016C1178.2063,-57.7675 1186.3612,-47.4011 1193.1676,-38.7489"/>
<polygon fill="#191970" stroke="#191970" points="1167.9361,-65.1621 1164.504,-75.1856 1173.4378,-69.4901 1167.9361,-65.1621"/>
</g>
</g>
</svg>
