<?xml version="1.0" encoding="UTF-8" standalone="no"?>
<!DOCTYPE svg PUBLIC "-//W3C//DTD SVG 1.1//EN"
 "http://www.w3.org/Graphics/SVG/1.1/DTD/svg11.dtd">
<!-- Generated by graphviz version 8.0.5 (20230430.1635)
 -->
<!-- Title: Source/ARX/ARUtil/thread_sub_winrt.cpp Pages: 1 -->
<svg width="141pt" height="204pt"
 viewBox="0.00 0.00 141.00 204.25" xmlns="http://www.w3.org/2000/svg" xmlns:xlink="http://www.w3.org/1999/xlink">
<g id="graph0" class="graph" transform="scale(1 1) rotate(0) translate(4 200.25)">
<title>Source/ARX/ARUtil/thread_sub_winrt.cpp</title>
<!-- Node1 -->
<g id="node1" class="node">
<title>Node1</title>
<g id="a_node1"><a xlink:title=" ">
<polygon fill="#999999" stroke="#666666" points="133,-196.25 0,-196.25 0,-165.75 133,-165.75 133,-196.25"/>
<text text-anchor="start" x="8" y="-182.75" font-family="Helvetica,sans-Serif" font-size="10.00">Source/ARX/ARUtil/thread</text>
<text text-anchor="middle" x="66.5" y="-171.5" font-family="Helvetica,sans-Serif" font-size="10.00">_sub_winrt.cpp</text>
</a>
</g>
</g>
<!-- Node2 -->
<g id="node2" class="node">
<title>Node2</title>
<g id="a_node2"><a xlink:href="thread__sub__winrt_8h.html" target="_top" xlink:title=" ">
<polygon fill="white" stroke="#666666" points="115.75,-129.75 17.25,-129.75 17.25,-110.5 115.75,-110.5 115.75,-129.75"/>
<text text-anchor="middle" x="66.5" y="-116.25" font-family="Helvetica,sans-Serif" font-size="10.00">thread_sub_winrt.h</text>
</a>
</g>
</g>
<!-- Node1&#45;&gt;Node2 -->
<g id="edge1" class="edge">
<title>Node1&#45;&gt;Node2</title>
<path fill="none" stroke="#63b8ff" d="M66.5,-165.45C66.5,-158.12 66.5,-149.12 66.5,-141.16"/>
<polygon fill="#63b8ff" stroke="#63b8ff" points="70,-141.2 66.5,-131.2 63,-141.2 70,-141.2"/>
</g>
<!-- Node3 -->
<g id="node3" class="node">
<title>Node3</title>
<g id="a_node3"><a xlink:href="thread__sub_8h.html" target="_top" xlink:title=" ">
<polygon fill="white" stroke="#666666" points="130.75,-74.5 2.25,-74.5 2.25,-55.25 130.75,-55.25 130.75,-74.5"/>
<text text-anchor="middle" x="66.5" y="-61" font-family="Helvetica,sans-Serif" font-size="10.00">ARX/ARUtil/thread_sub.h</text>
</a>
</g>
</g>
<!-- Node2&#45;&gt;Node3 -->
<g id="edge2" class="edge">
<title>Node2&#45;&gt;Node3</title>
<path fill="none" stroke="#63b8ff" d="M66.5,-110.33C66.5,-103.67 66.5,-94.24 66.5,-85.78"/>
<polygon fill="#63b8ff" stroke="#63b8ff" points="70,-85.86 66.5,-75.86 63,-85.86 70,-85.86"/>
</g>
<!-- Node4 -->
<g id="node4" class="node">
<title>Node4</title>
<g id="a_node4"><a xlink:href="types_8h.html" target="_top" xlink:title=" ">
<polygon fill="white" stroke="#666666" points="118.75,-19.25 14.25,-19.25 14.25,0 118.75,0 118.75,-19.25"/>
<text text-anchor="middle" x="66.5" y="-5.75" font-family="Helvetica,sans-Serif" font-size="10.00">ARX/ARUtil/types.h</text>
</a>
</g>
</g>
<!-- Node3&#45;&gt;Node4 -->
<g id="edge3" class="edge">
<title>Node3&#45;&gt;Node4</title>
<path fill="none" stroke="#63b8ff" d="M66.5,-55.08C66.5,-48.42 66.5,-38.99 66.5,-30.53"/>
<polygon fill="#63b8ff" stroke="#63b8ff" points="70,-30.61 66.5,-20.61 63,-30.61 70,-30.61"/>
</g>
</g>
</svg>
