<?xml version="1.0" encoding="UTF-8" standalone="no"?>
<!DOCTYPE svg PUBLIC "-//W3C//DTD SVG 1.1//EN"
 "http://www.w3.org/Graphics/SVG/1.1/DTD/svg11.dtd">
<!-- Generated by graphviz version 7.0.5 (20221223.1930)
 -->
<!-- Title: Source/ARX/ARUtil/thread_sub.c Pages: 1 -->
<svg width="412pt" height="148pt"
 viewBox="0.00 0.00 412.00 148.00" xmlns="http://www.w3.org/2000/svg" xmlns:xlink="http://www.w3.org/1999/xlink">
<g id="graph0" class="graph" transform="scale(1 1) rotate(0) translate(4 144)">
<title>Source/ARX/ARUtil/thread_sub.c</title>
<!-- Node1 -->
<g id="node1" class="node">
<title>Node1</title>
<g id="a_node1"><a xlink:title=" ">
<polygon fill="#999999" stroke="#666666" points="224.5,-140 90.5,-140 90.5,-110 224.5,-110 224.5,-140"/>
<text text-anchor="start" x="98.5" y="-128" font-family="Helvetica,sans-Serif" font-size="10.00">Source/ARX/ARUtil/thread</text>
<text text-anchor="middle" x="157.5" y="-117" font-family="Helvetica,sans-Serif" font-size="10.00">_sub.c</text>
</a>
</g>
</g>
<!-- Node2 -->
<g id="node2" class="node">
<title>Node2</title>
<g id="a_node2"><a xlink:title=" ">
<polygon fill="#e0e0e0" stroke="#999999" points="51,-74 0,-74 0,-55 51,-55 51,-74"/>
<text text-anchor="middle" x="25.5" y="-62" font-family="Helvetica,sans-Serif" font-size="10.00">unistd.h</text>
</a>
</g>
</g>
<!-- Node1&#45;&gt;Node2 -->
<g id="edge1" class="edge">
<title>Node1&#45;&gt;Node2</title>
<path fill="none" stroke="#63b8ff" d="M124.87,-109.54C103.77,-100.19 76.5,-88.1 55.87,-78.96"/>
<polygon fill="#63b8ff" stroke="#63b8ff" points="57.4,-75.81 46.84,-74.96 54.57,-82.21 57.4,-75.81"/>
</g>
<!-- Node3 -->
<g id="node3" class="node">
<title>Node3</title>
<g id="a_node3"><a xlink:title=" ">
<polygon fill="#e0e0e0" stroke="#999999" points="115.5,-74 69.5,-74 69.5,-55 115.5,-55 115.5,-74"/>
<text text-anchor="middle" x="92.5" y="-62" font-family="Helvetica,sans-Serif" font-size="10.00">stdio.h</text>
</a>
</g>
</g>
<!-- Node1&#45;&gt;Node3 -->
<g id="edge2" class="edge">
<title>Node1&#45;&gt;Node3</title>
<path fill="none" stroke="#63b8ff" d="M141.43,-109.54C132.09,-101.13 120.28,-90.51 110.61,-81.8"/>
<polygon fill="#63b8ff" stroke="#63b8ff" points="113.04,-79.28 103.26,-75.19 108.36,-84.48 113.04,-79.28"/>
</g>
<!-- Node4 -->
<g id="node4" class="node">
<title>Node4</title>
<g id="a_node4"><a xlink:title=" ">
<polygon fill="#e0e0e0" stroke="#999999" points="181.5,-74 133.5,-74 133.5,-55 181.5,-55 181.5,-74"/>
<text text-anchor="middle" x="157.5" y="-62" font-family="Helvetica,sans-Serif" font-size="10.00">stdlib.h</text>
</a>
</g>
</g>
<!-- Node1&#45;&gt;Node4 -->
<g id="edge3" class="edge">
<title>Node1&#45;&gt;Node4</title>
<path fill="none" stroke="#63b8ff" d="M157.5,-109.54C157.5,-102.34 157.5,-93.53 157.5,-85.68"/>
<polygon fill="#63b8ff" stroke="#63b8ff" points="161,-85.69 157.5,-75.69 154,-85.69 161,-85.69"/>
</g>
<!-- Node5 -->
<g id="node5" class="node">
<title>Node5</title>
<g id="a_node5"><a xlink:href="thread__sub_8h.html" target="_top" xlink:title=" ">
<polygon fill="white" stroke="#666666" points="329,-74 200,-74 200,-55 329,-55 329,-74"/>
<text text-anchor="middle" x="264.5" y="-62" font-family="Helvetica,sans-Serif" font-size="10.00">ARX/ARUtil/thread_sub.h</text>
</a>
</g>
</g>
<!-- Node1&#45;&gt;Node5 -->
<g id="edge4" class="edge">
<title>Node1&#45;&gt;Node5</title>
<path fill="none" stroke="#63b8ff" d="M183.95,-109.54C200.5,-100.49 221.74,-88.88 238.25,-79.85"/>
<polygon fill="#63b8ff" stroke="#63b8ff" points="239.9,-82.94 246.99,-75.07 236.54,-76.8 239.9,-82.94"/>
</g>
<!-- Node7 -->
<g id="node7" class="node">
<title>Node7</title>
<g id="a_node7"><a xlink:title=" ">
<polygon fill="#e0e0e0" stroke="#999999" points="404,-74 347,-74 347,-55 404,-55 404,-74"/>
<text text-anchor="middle" x="375.5" y="-62" font-family="Helvetica,sans-Serif" font-size="10.00">pthread.h</text>
</a>
</g>
</g>
<!-- Node1&#45;&gt;Node7 -->
<g id="edge6" class="edge">
<title>Node1&#45;&gt;Node7</title>
<path fill="none" stroke="#63b8ff" d="M211.39,-109.54C249.96,-99.19 301.02,-85.49 335.88,-76.13"/>
<polygon fill="#63b8ff" stroke="#63b8ff" points="336.38,-79.62 345.13,-73.65 334.56,-72.86 336.38,-79.62"/>
</g>
<!-- Node6 -->
<g id="node6" class="node">
<title>Node6</title>
<g id="a_node6"><a xlink:href="types_8h.html" target="_top" xlink:title=" ">
<polygon fill="white" stroke="#666666" points="317,-19 212,-19 212,0 317,0 317,-19"/>
<text text-anchor="middle" x="264.5" y="-7" font-family="Helvetica,sans-Serif" font-size="10.00">ARX/ARUtil/types.h</text>
</a>
</g>
</g>
<!-- Node5&#45;&gt;Node6 -->
<g id="edge5" class="edge">
<title>Node5&#45;&gt;Node6</title>
<path fill="none" stroke="#63b8ff" d="M264.5,-54.75C264.5,-48.27 264.5,-39.16 264.5,-30.9"/>
<polygon fill="#63b8ff" stroke="#63b8ff" points="268,-30.96 264.5,-20.96 261,-30.96 268,-30.96"/>
</g>
</g>
</svg>
