<?xml version="1.0" encoding="UTF-8" standalone="no"?>
<!DOCTYPE svg PUBLIC "-//W3C//DTD SVG 1.1//EN"
 "http://www.w3.org/Graphics/SVG/1.1/DTD/svg11.dtd">
<!-- Generated by graphviz version 8.0.5 (20230430.1635)
 -->
<!-- Title: Source/ARX/ARUtil/thread_sub.c Pages: 1 -->
<svg width="409pt" height="149pt"
 viewBox="0.00 0.00 408.50 149.00" xmlns="http://www.w3.org/2000/svg" xmlns:xlink="http://www.w3.org/1999/xlink">
<g id="graph0" class="graph" transform="scale(1 1) rotate(0) translate(4 145)">
<title>Source/ARX/ARUtil/thread_sub.c</title>
<!-- Node1 -->
<g id="node1" class="node">
<title>Node1</title>
<g id="a_node1"><a xlink:title=" ">
<polygon fill="#999999" stroke="#666666" points="221.75,-141 88.75,-141 88.75,-110.5 221.75,-110.5 221.75,-141"/>
<text text-anchor="start" x="96.75" y="-127.5" font-family="Helvetica,sans-Serif" font-size="10.00">Source/ARX/ARUtil/thread</text>
<text text-anchor="middle" x="155.25" y="-116.25" font-family="Helvetica,sans-Serif" font-size="10.00">_sub.c</text>
</a>
</g>
</g>
<!-- Node2 -->
<g id="node2" class="node">
<title>Node2</title>
<g id="a_node2"><a xlink:title=" ">
<polygon fill="#e0e0e0" stroke="#999999" points="50.5,-74.5 0,-74.5 0,-55.25 50.5,-55.25 50.5,-74.5"/>
<text text-anchor="middle" x="25.25" y="-61" font-family="Helvetica,sans-Serif" font-size="10.00">unistd.h</text>
</a>
</g>
</g>
<!-- Node1&#45;&gt;Node2 -->
<g id="edge1" class="edge">
<title>Node1&#45;&gt;Node2</title>
<path fill="none" stroke="#63b8ff" d="M122.78,-110.05C102.03,-100.65 75.32,-88.55 55.1,-79.39"/>
<polygon fill="#63b8ff" stroke="#63b8ff" points="56.74,-75.84 46.19,-74.9 53.85,-82.22 56.74,-75.84"/>
</g>
<!-- Node3 -->
<g id="node3" class="node">
<title>Node3</title>
<g id="a_node3"><a xlink:title=" ">
<polygon fill="#e0e0e0" stroke="#999999" points="113.88,-74.5 68.62,-74.5 68.62,-55.25 113.88,-55.25 113.88,-74.5"/>
<text text-anchor="middle" x="91.25" y="-61" font-family="Helvetica,sans-Serif" font-size="10.00">stdio.h</text>
</a>
</g>
</g>
<!-- Node1&#45;&gt;Node3 -->
<g id="edge2" class="edge">
<title>Node1&#45;&gt;Node3</title>
<path fill="none" stroke="#63b8ff" d="M139.43,-110.2C130.25,-101.75 118.65,-91.08 109.14,-82.33"/>
<polygon fill="#63b8ff" stroke="#63b8ff" points="111.85,-80.15 102.12,-75.95 107.11,-85.3 111.85,-80.15"/>
</g>
<!-- Node4 -->
<g id="node4" class="node">
<title>Node4</title>
<g id="a_node4"><a xlink:title=" ">
<polygon fill="#e0e0e0" stroke="#999999" points="179,-74.5 131.5,-74.5 131.5,-55.25 179,-55.25 179,-74.5"/>
<text text-anchor="middle" x="155.25" y="-61" font-family="Helvetica,sans-Serif" font-size="10.00">stdlib.h</text>
</a>
</g>
</g>
<!-- Node1&#45;&gt;Node4 -->
<g id="edge3" class="edge">
<title>Node1&#45;&gt;Node4</title>
<path fill="none" stroke="#63b8ff" d="M155.25,-110.2C155.25,-102.87 155.25,-93.87 155.25,-85.91"/>
<polygon fill="#63b8ff" stroke="#63b8ff" points="158.75,-85.95 155.25,-75.95 151.75,-85.95 158.75,-85.95"/>
</g>
<!-- Node5 -->
<g id="node5" class="node">
<title>Node5</title>
<g id="a_node5"><a xlink:href="thread__sub_8h.html" target="_top" xlink:title=" ">
<polygon fill="white" stroke="#666666" points="325.5,-74.5 197,-74.5 197,-55.25 325.5,-55.25 325.5,-74.5"/>
<text text-anchor="middle" x="261.25" y="-61" font-family="Helvetica,sans-Serif" font-size="10.00">ARX/ARUtil/thread_sub.h</text>
</a>
</g>
</g>
<!-- Node1&#45;&gt;Node5 -->
<g id="edge4" class="edge">
<title>Node1&#45;&gt;Node5</title>
<path fill="none" stroke="#63b8ff" d="M181.72,-110.05C198.18,-100.91 219.23,-89.22 235.54,-80.16"/>
<polygon fill="#63b8ff" stroke="#63b8ff" points="236.95,-82.82 243.99,-74.9 233.55,-76.7 236.95,-82.82"/>
</g>
<!-- Node7 -->
<g id="node7" class="node">
<title>Node7</title>
<g id="a_node7"><a xlink:title=" ">
<polygon fill="#e0e0e0" stroke="#999999" points="400.5,-74.5 344,-74.5 344,-55.25 400.5,-55.25 400.5,-74.5"/>
<text text-anchor="middle" x="372.25" y="-61" font-family="Helvetica,sans-Serif" font-size="10.00">pthread.h</text>
</a>
</g>
</g>
<!-- Node1&#45;&gt;Node7 -->
<g id="edge6" class="edge">
<title>Node1&#45;&gt;Node7</title>
<path fill="none" stroke="#63b8ff" d="M209.45,-110.05C247.85,-99.63 298.48,-85.89 333.01,-76.52"/>
<polygon fill="#63b8ff" stroke="#63b8ff" points="333.89,-79.64 342.63,-73.64 332.06,-72.88 333.89,-79.64"/>
</g>
<!-- Node6 -->
<g id="node6" class="node">
<title>Node6</title>
<g id="a_node6"><a xlink:href="types_8h.html" target="_top" xlink:title=" ">
<polygon fill="white" stroke="#666666" points="313.5,-19.25 209,-19.25 209,0 313.5,0 313.5,-19.25"/>
<text text-anchor="middle" x="261.25" y="-5.75" font-family="Helvetica,sans-Serif" font-size="10.00">ARX/ARUtil/types.h</text>
</a>
</g>
</g>
<!-- Node5&#45;&gt;Node6 -->
<g id="edge5" class="edge">
<title>Node5&#45;&gt;Node6</title>
<path fill="none" stroke="#63b8ff" d="M261.25,-55.08C261.25,-48.42 261.25,-38.99 261.25,-30.53"/>
<polygon fill="#63b8ff" stroke="#63b8ff" points="264.75,-30.61 261.25,-20.61 257.75,-30.61 264.75,-30.61"/>
</g>
</g>
</svg>
