<?xml version="1.0" encoding="UTF-8" standalone="no"?>
<!DOCTYPE svg PUBLIC "-//W3C//DTD SVG 1.1//EN"
 "http://www.w3.org/Graphics/SVG/1.1/DTD/svg11.dtd">
<!-- Generated by graphviz version 2.40.1 (20161225.0304)
 -->
<!-- Title: Source/ARX/ARUtil/time.c Pages: 1 -->
<svg width="206pt" height="137pt"
 viewBox="0.00 0.00 205.63 137.00" xmlns="http://www.w3.org/2000/svg" xmlns:xlink="http://www.w3.org/1999/xlink">
<g id="graph0" class="graph" transform="scale(1 1) rotate(0) translate(4 133)">
<title>Source/ARX/ARUtil/time.c</title>
<polygon fill="#ffffff" stroke="transparent" points="-4,4 -4,-133 201.6255,-133 201.6255,4 -4,4"/>
<!-- Node0 -->
<g id="node1" class="node">
<title>Node0</title>
<polygon fill="#bfbfbf" stroke="#000000" points="52.3276,-110.5 52.3276,-128.5 183.9136,-128.5 183.9136,-110.5 52.3276,-110.5"/>
<text text-anchor="middle" x="118.1206" y="-116.5" font-family="Helvetica,sans-Serif" font-size="10.00" fill="#000000">Source/ARX/ARUtil/time.c</text>
</g>
<!-- Node1 -->
<g id="node2" class="node">
<title>Node1</title>
<g id="a_node2"><a xlink:href="time_8h.html" target="_top" xlink:title="ARX/ARUtil/time.h">
<polygon fill="#ffffff" stroke="#000000" points="21.2783,-55.5 21.2783,-73.5 118.9629,-73.5 118.9629,-55.5 21.2783,-55.5"/>
<text text-anchor="middle" x="70.1206" y="-61.5" font-family="Helvetica,sans-Serif" font-size="10.00" fill="#000000">ARX/ARUtil/time.h</text>
</a>
</g>
</g>
<!-- Node0&#45;&gt;Node1 -->
<g id="edge1" class="edge">
<title>Node0&#45;&gt;Node1</title>
<path fill="none" stroke="#191970" d="M110.1944,-110.4179C103.3569,-102.5833 93.2981,-91.0575 84.9689,-81.5137"/>
<polygon fill="#191970" stroke="#191970" points="87.4314,-79.0123 78.219,-73.7795 82.1574,-83.6151 87.4314,-79.0123"/>
</g>
<!-- Node4 -->
<g id="node5" class="node">
<title>Node4</title>
<polygon fill="#ffffff" stroke="#bfbfbf" points="136.6157,-55.5 136.6157,-73.5 197.6255,-73.5 197.6255,-55.5 136.6157,-55.5"/>
<text text-anchor="middle" x="167.1206" y="-61.5" font-family="Helvetica,sans-Serif" font-size="10.00" fill="#000000">sys/time.h</text>
</g>
<!-- Node0&#45;&gt;Node4 -->
<g id="edge4" class="edge">
<title>Node0&#45;&gt;Node4</title>
<path fill="none" stroke="#191970" d="M126.212,-110.4179C133.1919,-102.5833 143.4603,-91.0575 151.963,-81.5137"/>
<polygon fill="#191970" stroke="#191970" points="154.8147,-83.5743 158.8535,-73.7795 149.588,-78.9178 154.8147,-83.5743"/>
</g>
<!-- Node2 -->
<g id="node3" class="node">
<title>Node2</title>
<polygon fill="#ffffff" stroke="#bfbfbf" points="0,-.5 0,-18.5 48.2412,-18.5 48.2412,-.5 0,-.5"/>
<text text-anchor="middle" x="24.1206" y="-6.5" font-family="Helvetica,sans-Serif" font-size="10.00" fill="#000000">stdint.h</text>
</g>
<!-- Node1&#45;&gt;Node2 -->
<g id="edge2" class="edge">
<title>Node1&#45;&gt;Node2</title>
<path fill="none" stroke="#191970" d="M62.5246,-55.4179C55.9721,-47.5833 46.3324,-36.0575 38.3502,-26.5137"/>
<polygon fill="#191970" stroke="#191970" points="40.982,-24.2048 31.8816,-18.7795 35.6124,-28.6957 40.982,-24.2048"/>
</g>
<!-- Node3 -->
<g id="node4" class="node">
<title>Node3</title>
<g id="a_node4"><a xlink:href="types_8h.html" target="_top" xlink:title="ARX/ARUtil/types.h">
<polygon fill="#ffffff" stroke="#000000" points="65.7734,-.5 65.7734,-18.5 168.4678,-18.5 168.4678,-.5 65.7734,-.5"/>
<text text-anchor="middle" x="117.1206" y="-6.5" font-family="Helvetica,sans-Serif" font-size="10.00" fill="#000000">ARX/ARUtil/types.h</text>
</a>
</g>
</g>
<!-- Node1&#45;&gt;Node3 -->
<g id="edge3" class="edge">
<title>Node1&#45;&gt;Node3</title>
<path fill="none" stroke="#191970" d="M77.8817,-55.4179C84.5767,-47.5833 94.426,-36.0575 102.5816,-26.5137"/>
<polygon fill="#191970" stroke="#191970" points="105.3551,-28.6556 109.1909,-18.7795 100.0335,-24.108 105.3551,-28.6556"/>
</g>
</g>
</svg>
