<?xml version="1.0" encoding="UTF-8" standalone="no"?>
<!DOCTYPE svg PUBLIC "-//W3C//DTD SVG 1.1//EN"
 "http://www.w3.org/Graphics/SVG/1.1/DTD/svg11.dtd">
<!-- Generated by graphviz version 2.40.1 (20161225.0304)
 -->
<!-- Title: Source/ARX/ARUtil/include/ARX/ARUtil/time.h Pages: 1 -->
<svg width="747pt" height="102pt"
 viewBox="0.00 0.00 746.72 102.00" xmlns="http://www.w3.org/2000/svg" xmlns:xlink="http://www.w3.org/1999/xlink">
<g id="graph0" class="graph" transform="scale(1 1) rotate(0) translate(4 98)">
<title>Source/ARX/ARUtil/include/ARX/ARUtil/time.h</title>
<polygon fill="#ffffff" stroke="transparent" points="-4,4 -4,-98 742.7153,-98 742.7153,4 -4,4"/>
<!-- Node3 -->
<g id="node1" class="node">
<title>Node3</title>
<polygon fill="#bfbfbf" stroke="#000000" points="330.9531,-65.5 330.9531,-93.5 467.5586,-93.5 467.5586,-65.5 330.9531,-65.5"/>
<text text-anchor="start" x="338.9531" y="-81.5" font-family="Helvetica,sans-Serif" font-size="10.00" fill="#000000">Source/ARX/ARUtil/include</text>
<text text-anchor="middle" x="399.2559" y="-71.5" font-family="Helvetica,sans-Serif" font-size="10.00" fill="#000000">/ARX/ARUtil/time.h</text>
</g>
<!-- Node4 -->
<g id="node2" class="node">
<title>Node4</title>
<g id="a_node2"><a xlink:href="select_template_8c.html" target="_top" xlink:title="Source/ARX/AR2/selectTemplate.c">
<polygon fill="#ffffff" stroke="#000000" points="0,-5.5 0,-23.5 170.5117,-23.5 170.5117,-5.5 0,-5.5"/>
<text text-anchor="middle" x="85.2559" y="-11.5" font-family="Helvetica,sans-Serif" font-size="10.00" fill="#000000">Source/ARX/AR2/selectTemplate.c</text>
</a>
</g>
</g>
<!-- Node3&#45;&gt;Node4 -->
<g id="edge1" class="edge">
<title>Node3&#45;&gt;Node4</title>
<path fill="none" stroke="#191970" d="M321.5643,-63.4174C260.7643,-50.8314 178.4444,-33.7906 128.7403,-23.5016"/>
<polygon fill="#191970" stroke="#191970" points="321.0072,-66.8762 331.5091,-65.476 322.4262,-60.0215 321.0072,-66.8762"/>
</g>
<!-- Node5 -->
<g id="node3" class="node">
<title>Node5</title>
<g id="a_node3"><a xlink:href="crypt_8c.html" target="_top" xlink:title="Source/ARX/ARUtil/crypt.c">
<polygon fill="#ffffff" stroke="#000000" points="188.0737,-5.5 188.0737,-23.5 322.438,-23.5 322.438,-5.5 188.0737,-5.5"/>
<text text-anchor="middle" x="255.2559" y="-11.5" font-family="Helvetica,sans-Serif" font-size="10.00" fill="#000000">Source/ARX/ARUtil/crypt.c</text>
</a>
</g>
</g>
<!-- Node3&#45;&gt;Node5 -->
<g id="edge2" class="edge">
<title>Node3&#45;&gt;Node5</title>
<path fill="none" stroke="#191970" d="M358.7324,-61.2082C331.5273,-48.9281 296.8572,-33.2784 275.3589,-23.5743"/>
<polygon fill="#191970" stroke="#191970" points="357.4555,-64.4718 368.01,-65.396 360.3355,-58.0917 357.4555,-64.4718"/>
</g>
<!-- Node6 -->
<g id="node4" class="node">
<title>Node6</title>
<g id="a_node4"><a xlink:href="file__utils_8c.html" target="_top" xlink:title="Source/ARX/ARUtil/file\l_utils.c">
<polygon fill="#ffffff" stroke="#000000" points="340.4063,-.5 340.4063,-28.5 458.1055,-28.5 458.1055,-.5 340.4063,-.5"/>
<text text-anchor="start" x="348.4063" y="-16.5" font-family="Helvetica,sans-Serif" font-size="10.00" fill="#000000">Source/ARX/ARUtil/file</text>
<text text-anchor="middle" x="399.2559" y="-6.5" font-family="Helvetica,sans-Serif" font-size="10.00" fill="#000000">_utils.c</text>
</a>
</g>
</g>
<!-- Node3&#45;&gt;Node6 -->
<g id="edge3" class="edge">
<title>Node3&#45;&gt;Node6</title>
<path fill="none" stroke="#191970" d="M399.2559,-55.1081C399.2559,-46.1539 399.2559,-36.3227 399.2559,-28.5765"/>
<polygon fill="#191970" stroke="#191970" points="395.756,-55.3959 399.2559,-65.396 402.756,-55.396 395.756,-55.3959"/>
</g>
<!-- Node7 -->
<g id="node5" class="node">
<title>Node7</title>
<g id="a_node5"><a xlink:href="time_8c.html" target="_top" xlink:title="Source/ARX/ARUtil/time.c">
<polygon fill="#ffffff" stroke="#000000" points="476.4629,-5.5 476.4629,-23.5 608.0488,-23.5 608.0488,-5.5 476.4629,-5.5"/>
<text text-anchor="middle" x="542.2559" y="-11.5" font-family="Helvetica,sans-Serif" font-size="10.00" fill="#000000">Source/ARX/ARUtil/time.c</text>
</a>
</g>
</g>
<!-- Node3&#45;&gt;Node7 -->
<g id="edge4" class="edge">
<title>Node3&#45;&gt;Node7</title>
<path fill="none" stroke="#191970" d="M439.4979,-61.2082C466.5141,-48.9281 500.9434,-33.2784 522.2924,-23.5743"/>
<polygon fill="#191970" stroke="#191970" points="437.9401,-58.0716 430.2847,-65.396 440.8367,-64.4442 437.9401,-58.0716"/>
</g>
<!-- Node8 -->
<g id="node6" class="node">
<title>Node8</title>
<g id="a_node6"><a xlink:href="video2_8c.html" target="_top" xlink:title="Source/ARX/ARVideo\l/video2.c">
<polygon fill="#ffffff" stroke="#000000" points="625.7964,-.5 625.7964,-28.5 738.7153,-28.5 738.7153,-.5 625.7964,-.5"/>
<text text-anchor="start" x="633.7964" y="-16.5" font-family="Helvetica,sans-Serif" font-size="10.00" fill="#000000">Source/ARX/ARVideo</text>
<text text-anchor="middle" x="682.2559" y="-6.5" font-family="Helvetica,sans-Serif" font-size="10.00" fill="#000000">/video2.c</text>
</a>
</g>
</g>
<!-- Node3&#45;&gt;Node8 -->
<g id="edge5" class="edge">
<title>Node3&#45;&gt;Node8</title>
<path fill="none" stroke="#191970" d="M470.3342,-63.1746C518.3795,-52.1394 580.963,-37.7651 625.6389,-27.5039"/>
<polygon fill="#191970" stroke="#191970" points="469.2769,-59.8262 460.3142,-65.476 470.844,-66.6486 469.2769,-59.8262"/>
</g>
</g>
</svg>
