<?xml version="1.0" encoding="UTF-8" standalone="no"?>
<!DOCTYPE svg PUBLIC "-//W3C//DTD SVG 1.1//EN"
 "http://www.w3.org/Graphics/SVG/1.1/DTD/svg11.dtd">
<!-- Generated by graphviz version 2.40.1 (20161225.0304)
 -->
<!-- Title: /Users/phil/r/artoolkitx/Source/ARX/ARUtil/include/ARX/ARUtil/time.h Pages: 1 -->
<svg width="801pt" height="122pt"
 viewBox="0.00 0.00 800.51 122.00" xmlns="http://www.w3.org/2000/svg" xmlns:xlink="http://www.w3.org/1999/xlink">
<g id="graph0" class="graph" transform="scale(1 1) rotate(0) translate(4 118)">
<title>/Users/phil/r/artoolkitx/Source/ARX/ARUtil/include/ARX/ARUtil/time.h</title>
<polygon fill="#ffffff" stroke="transparent" points="-4,4 -4,-118 796.5059,-118 796.5059,4 -4,4"/>
<!-- Node3 -->
<g id="node1" class="node">
<title>Node3</title>
<polygon fill="#bfbfbf" stroke="#000000" points="336.9531,-75.5 336.9531,-113.5 476.3369,-113.5 476.3369,-75.5 336.9531,-75.5"/>
<text text-anchor="start" x="344.9531" y="-101.5" font-family="Helvetica,sans-Serif" font-size="10.00" fill="#000000">/Users/phil/r/artoolkitx</text>
<text text-anchor="start" x="344.9531" y="-91.5" font-family="Helvetica,sans-Serif" font-size="10.00" fill="#000000">/Source/ARX/ARUtil/include</text>
<text text-anchor="middle" x="406.645" y="-81.5" font-family="Helvetica,sans-Serif" font-size="10.00" fill="#000000">/ARX/ARUtil/time.h</text>
</g>
<!-- Node4 -->
<g id="node2" class="node">
<title>Node4</title>
<g id="a_node2"><a xlink:href="select_template_8c.html" target="_top" xlink:title="/Users/phil/r/artoolkitx\l/Source/ARX/AR2/selectTemplate.c">
<polygon fill="#ffffff" stroke="#000000" points="0,-5.5 0,-33.5 173.29,-33.5 173.29,-5.5 0,-5.5"/>
<text text-anchor="start" x="8" y="-21.5" font-family="Helvetica,sans-Serif" font-size="10.00" fill="#000000">/Users/phil/r/artoolkitx</text>
<text text-anchor="middle" x="86.645" y="-11.5" font-family="Helvetica,sans-Serif" font-size="10.00" fill="#000000">/Source/ARX/AR2/selectTemplate.c</text>
</a>
</g>
</g>
<!-- Node3&#45;&gt;Node4 -->
<g id="edge1" class="edge">
<title>Node3&#45;&gt;Node4</title>
<path fill="none" stroke="#191970" d="M326.9349,-75.8179C270.9719,-62.7016 197.3196,-45.4393 146.3797,-33.5003"/>
<polygon fill="#191970" stroke="#191970" points="326.2802,-79.2593 336.8151,-78.1336 327.8776,-72.444 326.2802,-79.2593"/>
</g>
<!-- Node5 -->
<g id="node3" class="node">
<title>Node5</title>
<g id="a_node3"><a xlink:href="crypt_8c.html" target="_top" xlink:title="/Users/phil/r/artoolkitx\l/Source/ARX/ARUtil/crypt.c">
<polygon fill="#ffffff" stroke="#000000" points="191.0737,-5.5 191.0737,-33.5 328.2163,-33.5 328.2163,-5.5 191.0737,-5.5"/>
<text text-anchor="start" x="199.0737" y="-21.5" font-family="Helvetica,sans-Serif" font-size="10.00" fill="#000000">/Users/phil/r/artoolkitx</text>
<text text-anchor="middle" x="259.645" y="-11.5" font-family="Helvetica,sans-Serif" font-size="10.00" fill="#000000">/Source/ARX/ARUtil/crypt.c</text>
</a>
</g>
</g>
<!-- Node3&#45;&gt;Node5 -->
<g id="edge2" class="edge">
<title>Node3&#45;&gt;Node5</title>
<path fill="none" stroke="#191970" d="M360.2274,-70.8175C336.2552,-58.5868 307.8145,-44.0762 287.3027,-33.6111"/>
<polygon fill="#191970" stroke="#191970" points="358.6721,-73.9532 369.1704,-75.3803 361.8534,-67.7178 358.6721,-73.9532"/>
</g>
<!-- Node6 -->
<g id="node4" class="node">
<title>Node6</title>
<g id="a_node4"><a xlink:href="file__utils_8c.html" target="_top" xlink:title="/Users/phil/r/artoolkitx\l/Source/ARX/ARUtil/file\l_utils.c">
<polygon fill="#ffffff" stroke="#000000" points="346.4063,-.5 346.4063,-38.5 466.8838,-38.5 466.8838,-.5 346.4063,-.5"/>
<text text-anchor="start" x="354.4063" y="-26.5" font-family="Helvetica,sans-Serif" font-size="10.00" fill="#000000">/Users/phil/r/artoolkitx</text>
<text text-anchor="start" x="354.4063" y="-16.5" font-family="Helvetica,sans-Serif" font-size="10.00" fill="#000000">/Source/ARX/ARUtil/file</text>
<text text-anchor="middle" x="406.645" y="-6.5" font-family="Helvetica,sans-Serif" font-size="10.00" fill="#000000">_utils.c</text>
</a>
</g>
</g>
<!-- Node3&#45;&gt;Node6 -->
<g id="edge3" class="edge">
<title>Node3&#45;&gt;Node6</title>
<path fill="none" stroke="#191970" d="M406.645,-64.8977C406.645,-56.1033 406.645,-46.7019 406.645,-38.7489"/>
<polygon fill="#191970" stroke="#191970" points="403.1451,-65.1856 406.645,-75.1856 410.1451,-65.1857 403.1451,-65.1856"/>
</g>
<!-- Node7 -->
<g id="node5" class="node">
<title>Node7</title>
<g id="a_node5"><a xlink:href="time_8c.html" target="_top" xlink:title="/Users/phil/r/artoolkitx\l/Source/ARX/ARUtil/time.c">
<polygon fill="#ffffff" stroke="#000000" points="484.4629,-5.5 484.4629,-33.5 618.8271,-33.5 618.8271,-5.5 484.4629,-5.5"/>
<text text-anchor="start" x="492.4629" y="-21.5" font-family="Helvetica,sans-Serif" font-size="10.00" fill="#000000">/Users/phil/r/artoolkitx</text>
<text text-anchor="middle" x="551.645" y="-11.5" font-family="Helvetica,sans-Serif" font-size="10.00" fill="#000000">/Source/ARX/ARUtil/time.c</text>
</a>
</g>
</g>
<!-- Node3&#45;&gt;Node7 -->
<g id="edge4" class="edge">
<title>Node3&#45;&gt;Node7</title>
<path fill="none" stroke="#191970" d="M452.7439,-70.6558C476.3242,-58.459 504.2201,-44.0301 524.3636,-33.6111"/>
<polygon fill="#191970" stroke="#191970" points="450.884,-67.6772 443.6098,-75.3803 454.1,-73.8948 450.884,-67.6772"/>
</g>
<!-- Node8 -->
<g id="node6" class="node">
<title>Node8</title>
<g id="a_node6"><a xlink:href="video2_8c.html" target="_top" xlink:title="/Users/phil/r/artoolkitx\l/Source/ARX/ARVideo/video2.c">
<polygon fill="#ffffff" stroke="#000000" points="636.7842,-5.5 636.7842,-33.5 792.5059,-33.5 792.5059,-5.5 636.7842,-5.5"/>
<text text-anchor="start" x="644.7842" y="-21.5" font-family="Helvetica,sans-Serif" font-size="10.00" fill="#000000">/Users/phil/r/artoolkitx</text>
<text text-anchor="middle" x="714.645" y="-11.5" font-family="Helvetica,sans-Serif" font-size="10.00" fill="#000000">/Source/ARX/ARVideo/video2.c</text>
</a>
</g>
</g>
<!-- Node3&#45;&gt;Node8 -->
<g id="edge5" class="edge">
<title>Node3&#45;&gt;Node8</title>
<path fill="none" stroke="#191970" d="M486.3291,-75.0964C539.8086,-62.0738 609.0157,-45.2214 657.1514,-33.5001"/>
<polygon fill="#191970" stroke="#191970" points="485.423,-71.7147 476.535,-77.4813 487.0792,-78.516 485.423,-71.7147"/>
</g>
</g>
</svg>
