<?xml version="1.0" encoding="UTF-8" standalone="no"?>
<!DOCTYPE svg PUBLIC "-//W3C//DTD SVG 1.1//EN"
 "http://www.w3.org/Graphics/SVG/1.1/DTD/svg11.dtd">
<!-- Generated by graphviz version 2.40.1 (20161225.0304)
 -->
<!-- Title: Source/ARX/ARUtil/include/ARX/ARUtil/time.h Pages: 1 -->
<svg width="176pt" height="92pt"
 viewBox="0.00 0.00 176.47 92.00" xmlns="http://www.w3.org/2000/svg" xmlns:xlink="http://www.w3.org/1999/xlink">
<g id="graph0" class="graph" transform="scale(1 1) rotate(0) translate(4 88)">
<title>Source/ARX/ARUtil/include/ARX/ARUtil/time.h</title>
<polygon fill="#ffffff" stroke="transparent" points="-4,4 -4,-88 172.4678,-88 172.4678,4 -4,4"/>
<!-- Node0 -->
<g id="node1" class="node">
<title>Node0</title>
<polygon fill="#bfbfbf" stroke="#000000" points="1.8179,-55.5 1.8179,-83.5 138.4233,-83.5 138.4233,-55.5 1.8179,-55.5"/>
<text text-anchor="start" x="9.8179" y="-71.5" font-family="Helvetica,sans-Serif" font-size="10.00" fill="#000000">Source/ARX/ARUtil/include</text>
<text text-anchor="middle" x="70.1206" y="-61.5" font-family="Helvetica,sans-Serif" font-size="10.00" fill="#000000">/ARX/ARUtil/time.h</text>
</g>
<!-- Node1 -->
<g id="node2" class="node">
<title>Node1</title>
<polygon fill="#ffffff" stroke="#bfbfbf" points="0,-.5 0,-18.5 48.2412,-18.5 48.2412,-.5 0,-.5"/>
<text text-anchor="middle" x="24.1206" y="-6.5" font-family="Helvetica,sans-Serif" font-size="10.00" fill="#000000">stdint.h</text>
</g>
<!-- Node0&#45;&gt;Node1 -->
<g id="edge1" class="edge">
<title>Node0&#45;&gt;Node1</title>
<path fill="none" stroke="#191970" d="M59.2192,-55.2808C52.6154,-46.6672 44.1514,-35.6271 37.1897,-26.5466"/>
<polygon fill="#191970" stroke="#191970" points="39.9471,-24.3907 31.0852,-18.5842 34.3919,-28.6498 39.9471,-24.3907"/>
</g>
<!-- Node2 -->
<g id="node3" class="node">
<title>Node2</title>
<g id="a_node3"><a xlink:href="types_8h.html" target="_top" xlink:title="ARX/ARUtil/types.h">
<polygon fill="#ffffff" stroke="#000000" points="65.7734,-.5 65.7734,-18.5 168.4678,-18.5 168.4678,-.5 65.7734,-.5"/>
<text text-anchor="middle" x="117.1206" y="-6.5" font-family="Helvetica,sans-Serif" font-size="10.00" fill="#000000">ARX/ARUtil/types.h</text>
</a>
</g>
</g>
<!-- Node0&#45;&gt;Node2 -->
<g id="edge2" class="edge">
<title>Node0&#45;&gt;Node2</title>
<path fill="none" stroke="#191970" d="M81.2589,-55.2808C88.0063,-46.6672 96.6544,-35.6271 103.7674,-26.5466"/>
<polygon fill="#191970" stroke="#191970" points="106.5933,-28.6148 110.0047,-18.5842 101.0827,-24.2982 106.5933,-28.6148"/>
</g>
</g>
</svg>
