<?xml version="1.0" encoding="UTF-8" standalone="no"?>
<!DOCTYPE svg PUBLIC "-//W3C//DTD SVG 1.1//EN"
 "http://www.w3.org/Graphics/SVG/1.1/DTD/svg11.dtd">
<!-- Generated by graphviz version 8.0.5 (20230430.1635)
 -->
<!-- Title: Source/ARX/ARUtil/time.c Pages: 1 -->
<svg width="209pt" height="138pt"
 viewBox="0.00 0.00 209.00 137.75" xmlns="http://www.w3.org/2000/svg" xmlns:xlink="http://www.w3.org/1999/xlink">
<g id="graph0" class="graph" transform="scale(1 1) rotate(0) translate(4 133.75)">
<title>Source/ARX/ARUtil/time.c</title>
<!-- Node1 -->
<g id="node1" class="node">
<title>Node1</title>
<g id="a_node1"><a xlink:title=" ">
<polygon fill="#999999" stroke="#666666" points="186.62,-129.75 53.62,-129.75 53.62,-110.5 186.62,-110.5 186.62,-129.75"/>
<text text-anchor="middle" x="120.12" y="-116.25" font-family="Helvetica,sans-Serif" font-size="10.00">Source/ARX/ARUtil/time.c</text>
</a>
</g>
</g>
<!-- Node2 -->
<g id="node2" class="node">
<title>Node2</title>
<g id="a_node2"><a xlink:href="time_8h.html" target="_top" xlink:title=" ">
<polygon fill="white" stroke="#666666" points="120.75,-74.5 21.5,-74.5 21.5,-55.25 120.75,-55.25 120.75,-74.5"/>
<text text-anchor="middle" x="71.12" y="-61" font-family="Helvetica,sans-Serif" font-size="10.00">ARX/ARUtil/time.h</text>
</a>
</g>
</g>
<!-- Node1&#45;&gt;Node2 -->
<g id="edge1" class="edge">
<title>Node1&#45;&gt;Node2</title>
<path fill="none" stroke="#63b8ff" d="M112.03,-110.33C105.19,-102.9 95.2,-92.04 86.8,-82.91"/>
<polygon fill="#63b8ff" stroke="#63b8ff" points="89.74,-80.85 80.39,-75.86 84.59,-85.59 89.74,-80.85"/>
</g>
<!-- Node5 -->
<g id="node5" class="node">
<title>Node5</title>
<g id="a_node5"><a xlink:title=" ">
<polygon fill="#e0e0e0" stroke="#999999" points="201,-74.5 139.25,-74.5 139.25,-55.25 201,-55.25 201,-74.5"/>
<text text-anchor="middle" x="170.12" y="-61" font-family="Helvetica,sans-Serif" font-size="10.00">sys/time.h</text>
</a>
</g>
</g>
<!-- Node1&#45;&gt;Node5 -->
<g id="edge4" class="edge">
<title>Node1&#45;&gt;Node5</title>
<path fill="none" stroke="#63b8ff" d="M128.38,-110.33C135.43,-102.82 145.77,-91.81 154.39,-82.63"/>
<polygon fill="#63b8ff" stroke="#63b8ff" points="156.4,-85.55 160.69,-75.86 151.29,-80.75 156.4,-85.55"/>
</g>
<!-- Node3 -->
<g id="node3" class="node">
<title>Node3</title>
<g id="a_node3"><a xlink:title=" ">
<polygon fill="#e0e0e0" stroke="#999999" points="48.25,-19.25 0,-19.25 0,0 48.25,0 48.25,-19.25"/>
<text text-anchor="middle" x="24.12" y="-5.75" font-family="Helvetica,sans-Serif" font-size="10.00">stdint.h</text>
</a>
</g>
</g>
<!-- Node2&#45;&gt;Node3 -->
<g id="edge2" class="edge">
<title>Node2&#45;&gt;Node3</title>
<path fill="none" stroke="#63b8ff" d="M63.36,-55.08C56.8,-47.65 47.22,-36.79 39.16,-27.66"/>
<polygon fill="#63b8ff" stroke="#63b8ff" points="42.3,-25.79 33.05,-20.61 37.05,-30.42 42.3,-25.79"/>
</g>
<!-- Node4 -->
<g id="node4" class="node">
<title>Node4</title>
<g id="a_node4"><a xlink:href="types_8h.html" target="_top" xlink:title=" ">
<polygon fill="white" stroke="#666666" points="170.38,-19.25 65.88,-19.25 65.88,0 170.38,0 170.38,-19.25"/>
<text text-anchor="middle" x="118.12" y="-5.75" font-family="Helvetica,sans-Serif" font-size="10.00">ARX/ARUtil/types.h</text>
</a>
</g>
</g>
<!-- Node2&#45;&gt;Node4 -->
<g id="edge3" class="edge">
<title>Node2&#45;&gt;Node4</title>
<path fill="none" stroke="#63b8ff" d="M78.89,-55.08C85.45,-47.65 95.03,-36.79 103.09,-27.66"/>
<polygon fill="#63b8ff" stroke="#63b8ff" points="105.2,-30.42 109.2,-20.61 99.95,-25.79 105.2,-30.42"/>
</g>
</g>
</svg>
