<?xml version="1.0" encoding="UTF-8" standalone="no"?>
<!DOCTYPE svg PUBLIC "-//W3C//DTD SVG 1.1//EN"
 "http://www.w3.org/Graphics/SVG/1.1/DTD/svg11.dtd">
<!-- Generated by graphviz version 2.40.1 (20161225.0304)
 -->
<!-- Title: Source/ARX/AR2/include/ARX/AR2/tracking.h Pages: 1 -->
<svg width="1110pt" height="92pt"
 viewBox="0.00 0.00 1109.90 92.00" xmlns="http://www.w3.org/2000/svg" xmlns:xlink="http://www.w3.org/1999/xlink">
<g id="graph0" class="graph" transform="scale(1 1) rotate(0) translate(4 88)">
<title>Source/ARX/AR2/include/ARX/AR2/tracking.h</title>
<polygon fill="#ffffff" stroke="transparent" points="-4,4 -4,-88 1105.896,-88 1105.896,4 -4,4"/>
<!-- Node24 -->
<g id="node1" class="node">
<title>Node24</title>
<polygon fill="#bfbfbf" stroke="#000000" points="486.0591,-55.5 486.0591,-83.5 613.7827,-83.5 613.7827,-55.5 486.0591,-55.5"/>
<text text-anchor="start" x="494.0591" y="-71.5" font-family="Helvetica,sans-Serif" font-size="10.00" fill="#000000">Source/ARX/AR2/include</text>
<text text-anchor="middle" x="549.9209" y="-61.5" font-family="Helvetica,sans-Serif" font-size="10.00" fill="#000000">/ARX/AR2/tracking.h</text>
</g>
<!-- Node25 -->
<g id="node2" class="node">
<title>Node25</title>
<g id="a_node2"><a xlink:href="handle_8c.html" target="_top" xlink:title="Source/ARX/AR2/handle.c">
<polygon fill="#ffffff" stroke="#000000" points="0,-.5 0,-18.5 133.8418,-18.5 133.8418,-.5 0,-.5"/>
<text text-anchor="middle" x="66.9209" y="-6.5" font-family="Helvetica,sans-Serif" font-size="10.00" fill="#000000">Source/ARX/AR2/handle.c</text>
</a>
</g>
</g>
<!-- Node24&#45;&gt;Node25 -->
<g id="edge1" class="edge">
<title>Node24&#45;&gt;Node25</title>
<path fill="none" stroke="#191970" d="M475.5995,-60.2988C394.0032,-50.1922 259.1254,-33.472 142.9209,-19 140.018,-18.6385 137.0527,-18.2689 134.0572,-17.8954"/>
<polygon fill="#191970" stroke="#191970" points="475.4166,-63.8028 485.771,-61.5586 476.2771,-56.8559 475.4166,-63.8028"/>
</g>
<!-- Node26 -->
<g id="node3" class="node">
<title>Node26</title>
<g id="a_node3"><a xlink:href="matching_8c.html" target="_top" xlink:title="Source/ARX/AR2/matching.c">
<polygon fill="#ffffff" stroke="#000000" points="151.7266,-.5 151.7266,-18.5 296.1152,-18.5 296.1152,-.5 151.7266,-.5"/>
<text text-anchor="middle" x="223.9209" y="-6.5" font-family="Helvetica,sans-Serif" font-size="10.00" fill="#000000">Source/ARX/AR2/matching.c</text>
</a>
</g>
</g>
<!-- Node24&#45;&gt;Node26 -->
<g id="edge2" class="edge">
<title>Node24&#45;&gt;Node26</title>
<path fill="none" stroke="#191970" d="M475.7661,-55.8519C413.6306,-44.4159 326.6927,-28.415 272.9159,-18.5175"/>
<polygon fill="#191970" stroke="#191970" points="475.4344,-59.3495 485.9028,-57.7175 476.7015,-52.4652 475.4344,-59.3495"/>
</g>
<!-- Node27 -->
<g id="node4" class="node">
<title>Node27</title>
<g id="a_node4"><a xlink:href="matching2_8c.html" target="_top" xlink:title="Source/ARX/AR2/matching2.c">
<polygon fill="#ffffff" stroke="#000000" points="313.9458,-.5 313.9458,-18.5 463.896,-18.5 463.896,-.5 313.9458,-.5"/>
<text text-anchor="middle" x="388.9209" y="-6.5" font-family="Helvetica,sans-Serif" font-size="10.00" fill="#000000">Source/ARX/AR2/matching2.c</text>
</a>
</g>
</g>
<!-- Node24&#45;&gt;Node27 -->
<g id="edge3" class="edge">
<title>Node24&#45;&gt;Node27</title>
<path fill="none" stroke="#191970" d="M502.557,-51.8489C473.3177,-40.9522 437.0126,-27.4224 413.4226,-18.6311"/>
<polygon fill="#191970" stroke="#191970" points="501.5808,-55.2202 512.1736,-55.4327 504.0254,-48.6609 501.5808,-55.2202"/>
</g>
<!-- Node28 -->
<g id="node5" class="node">
<title>Node28</title>
<g id="a_node5"><a xlink:href="surface_8c.html" target="_top" xlink:title="Source/ARX/AR2/surface.c">
<polygon fill="#ffffff" stroke="#000000" points="481.6182,-.5 481.6182,-18.5 618.2236,-18.5 618.2236,-.5 481.6182,-.5"/>
<text text-anchor="middle" x="549.9209" y="-6.5" font-family="Helvetica,sans-Serif" font-size="10.00" fill="#000000">Source/ARX/AR2/surface.c</text>
</a>
</g>
</g>
<!-- Node24&#45;&gt;Node28 -->
<g id="edge4" class="edge">
<title>Node24&#45;&gt;Node28</title>
<path fill="none" stroke="#191970" d="M549.9209,-45.2151C549.9209,-35.8253 549.9209,-25.6598 549.9209,-18.5842"/>
<polygon fill="#191970" stroke="#191970" points="546.421,-45.2808 549.9209,-55.2808 553.421,-45.2809 546.421,-45.2808"/>
</g>
<!-- Node29 -->
<g id="node6" class="node">
<title>Node29</title>
<g id="a_node6"><a xlink:href="template_8c.html" target="_top" xlink:title="Source/ARX/AR2/template.c">
<polygon fill="#ffffff" stroke="#000000" points="635.8374,-.5 635.8374,-18.5 778.0044,-18.5 778.0044,-.5 635.8374,-.5"/>
<text text-anchor="middle" x="706.9209" y="-6.5" font-family="Helvetica,sans-Serif" font-size="10.00" fill="#000000">Source/ARX/AR2/template.c</text>
</a>
</g>
</g>
<!-- Node24&#45;&gt;Node29 -->
<g id="edge5" class="edge">
<title>Node24&#45;&gt;Node29</title>
<path fill="none" stroke="#191970" d="M596.108,-51.8489C624.6209,-40.9522 660.024,-27.4224 683.028,-18.6311"/>
<polygon fill="#191970" stroke="#191970" points="594.8221,-48.5934 586.7304,-55.4327 597.321,-55.1321 594.8221,-48.5934"/>
</g>
<!-- Node30 -->
<g id="node7" class="node">
<title>Node30</title>
<g id="a_node7"><a xlink:href="tracking_8c.html" target="_top" xlink:title="Source/ARX/AR2/tracking.c">
<polygon fill="#ffffff" stroke="#000000" points="795.5073,-.5 795.5073,-18.5 934.3345,-18.5 934.3345,-.5 795.5073,-.5"/>
<text text-anchor="middle" x="864.9209" y="-6.5" font-family="Helvetica,sans-Serif" font-size="10.00" fill="#000000">Source/ARX/AR2/tracking.c</text>
</a>
</g>
</g>
<!-- Node24&#45;&gt;Node30 -->
<g id="edge6" class="edge">
<title>Node24&#45;&gt;Node30</title>
<path fill="none" stroke="#191970" d="M624.178,-55.3558C683.9166,-43.977 766.0756,-28.3277 817.3097,-18.5688"/>
<polygon fill="#191970" stroke="#191970" points="623.214,-51.9764 614.0455,-57.2858 624.5238,-58.8528 623.214,-51.9764"/>
</g>
<!-- Node31 -->
<g id="node8" class="node">
<title>Node31</title>
<g id="a_node8"><a xlink:href="tracking2d_8c.html" target="_top" xlink:title="Source/ARX/AR2/tracking2d.c">
<polygon fill="#ffffff" stroke="#000000" points="951.9458,-.5 951.9458,-18.5 1101.896,-18.5 1101.896,-.5 951.9458,-.5"/>
<text text-anchor="middle" x="1026.9209" y="-6.5" font-family="Helvetica,sans-Serif" font-size="10.00" fill="#000000">Source/ARX/AR2/tracking2d.c</text>
</a>
</g>
</g>
<!-- Node24&#45;&gt;Node31 -->
<g id="edge7" class="edge">
<title>Node24&#45;&gt;Node31</title>
<path fill="none" stroke="#191970" d="M624.4169,-60.1294C714.7469,-48.7672 865.9352,-29.7498 955.0614,-18.5389"/>
<polygon fill="#191970" stroke="#191970" points="623.7362,-56.6874 614.2512,-61.4081 624.6099,-63.6327 623.7362,-56.6874"/>
</g>
</g>
</svg>
