<?xml version="1.0" encoding="UTF-8" standalone="no"?>
<!DOCTYPE svg PUBLIC "-//W3C//DTD SVG 1.1//EN"
 "http://www.w3.org/Graphics/SVG/1.1/DTD/svg11.dtd">
<!-- Generated by graphviz version 2.40.1 (20161225.0304)
 -->
<!-- Title: Source/ARX/AR2/include/ARX/AR2/tracking.h Pages: 1 -->
<svg width="1050pt" height="367pt"
 viewBox="0.00 0.00 1049.75 367.00" xmlns="http://www.w3.org/2000/svg" xmlns:xlink="http://www.w3.org/1999/xlink">
<g id="graph0" class="graph" transform="scale(1 1) rotate(0) translate(4 363)">
<title>Source/ARX/AR2/include/ARX/AR2/tracking.h</title>
<polygon fill="#ffffff" stroke="transparent" points="-4,4 -4,-363 1045.751,-363 1045.751,4 -4,4"/>
<!-- Node0 -->
<g id="node1" class="node">
<title>Node0</title>
<polygon fill="#bfbfbf" stroke="#000000" points="584.4854,-330.5 584.4854,-358.5 712.209,-358.5 712.209,-330.5 584.4854,-330.5"/>
<text text-anchor="start" x="592.4854" y="-346.5" font-family="Helvetica,sans-Serif" font-size="10.00" fill="#000000">Source/ARX/AR2/include</text>
<text text-anchor="middle" x="648.3472" y="-336.5" font-family="Helvetica,sans-Serif" font-size="10.00" fill="#000000">/ARX/AR2/tracking.h</text>
</g>
<!-- Node1 -->
<g id="node2" class="node">
<title>Node1</title>
<g id="a_node2"><a xlink:href="thread__sub_8h.html" target="_top" xlink:title="ARX/ARUtil/thread_sub.h">
<polygon fill="#ffffff" stroke="#000000" points="158.9312,-220.5 158.9312,-238.5 287.7632,-238.5 287.7632,-220.5 158.9312,-220.5"/>
<text text-anchor="middle" x="223.3472" y="-226.5" font-family="Helvetica,sans-Serif" font-size="10.00" fill="#000000">ARX/ARUtil/thread_sub.h</text>
</a>
</g>
</g>
<!-- Node0&#45;&gt;Node1 -->
<g id="edge1" class="edge">
<title>Node0&#45;&gt;Node1</title>
<path fill="none" stroke="#191970" d="M584.2943,-335.5719C530.7568,-327.2991 452.7229,-313.346 386.3472,-294 338.1559,-279.9541 284.4004,-257.233 252.2551,-242.846"/>
<polygon fill="#191970" stroke="#191970" points="253.5571,-239.5936 243.0028,-238.6674 250.6759,-245.9732 253.5571,-239.5936"/>
</g>
<!-- Node3 -->
<g id="node4" class="node">
<title>Node3</title>
<g id="a_node4"><a xlink:href="ar_8h.html" target="_top" xlink:title="artoolkitX core routines. ">
<polygon fill="#ffffff" stroke="#000000" points="449,-110.5 449,-128.5 521.6943,-128.5 521.6943,-110.5 449,-110.5"/>
<text text-anchor="middle" x="485.3472" y="-116.5" font-family="Helvetica,sans-Serif" font-size="10.00" fill="#000000">ARX/AR/ar.h</text>
</a>
</g>
</g>
<!-- Node0&#45;&gt;Node3 -->
<g id="edge3" class="edge">
<title>Node0&#45;&gt;Node3</title>
<path fill="none" stroke="#191970" d="M619.0599,-330.3604C584.3976,-312.5872 526.3474,-279.4527 486.3472,-239 460.6311,-212.993 438.57,-199.6263 450.3472,-165 453.9675,-154.3559 461.1938,-144.2572 468.1449,-136.2901"/>
<polygon fill="#191970" stroke="#191970" points="470.8517,-138.52 475.1265,-128.8258 465.7393,-133.7383 470.8517,-138.52"/>
</g>
<!-- Node15 -->
<g id="node16" class="node">
<title>Node15</title>
<g id="a_node16"><a xlink:href="icp_8h.html" target="_top" xlink:title="ARX/AR/icp.h">
<polygon fill="#ffffff" stroke="#000000" points="942.7808,-55.5 942.7808,-73.5 1019.9136,-73.5 1019.9136,-55.5 942.7808,-55.5"/>
<text text-anchor="middle" x="981.3472" y="-61.5" font-family="Helvetica,sans-Serif" font-size="10.00" fill="#000000">ARX/AR/icp.h</text>
</a>
</g>
</g>
<!-- Node0&#45;&gt;Node15 -->
<g id="edge27" class="edge">
<title>Node0&#45;&gt;Node15</title>
<path fill="none" stroke="#191970" d="M712.55,-333.3517C800.9504,-316.1466 949.3472,-279.777 949.3472,-229.5 949.3472,-229.5 949.3472,-229.5 949.3472,-174.5 949.3472,-141.1706 963.0593,-104.3407 972.5316,-82.875"/>
<polygon fill="#191970" stroke="#191970" points="975.7732,-84.2028 976.7623,-73.6542 969.4109,-81.2835 975.7732,-84.2028"/>
</g>
<!-- Node19 -->
<g id="node20" class="node">
<title>Node19</title>
<g id="a_node20"><a xlink:href="config_8h.html" target="_top" xlink:title="ARX/AR2/config.h">
<polygon fill="#ffffff" stroke="#000000" points="676.0493,-110.5 676.0493,-128.5 772.645,-128.5 772.645,-110.5 676.0493,-110.5"/>
<text text-anchor="middle" x="724.3472" y="-116.5" font-family="Helvetica,sans-Serif" font-size="10.00" fill="#000000">ARX/AR2/config.h</text>
</a>
</g>
</g>
<!-- Node0&#45;&gt;Node19 -->
<g id="edge28" class="edge">
<title>Node0&#45;&gt;Node19</title>
<path fill="none" stroke="#191970" d="M699.2063,-330.4402C742.3854,-315.5108 801.6223,-287.2509 829.3472,-239 854.145,-195.8432 791.9858,-154.2243 753.0163,-133.3676"/>
<polygon fill="#191970" stroke="#191970" points="754.1641,-130.0203 743.6755,-128.5241 750.9418,-136.2346 754.1641,-130.0203"/>
</g>
<!-- Node20 -->
<g id="node21" class="node">
<title>Node20</title>
<g id="a_node21"><a xlink:href="feature_set_8h.html" target="_top" xlink:title="ARX/AR2/featureSet.h">
<polygon fill="#ffffff" stroke="#000000" points="704.3203,-220.5 704.3203,-238.5 820.374,-238.5 820.374,-220.5 704.3203,-220.5"/>
<text text-anchor="middle" x="762.3472" y="-226.5" font-family="Helvetica,sans-Serif" font-size="10.00" fill="#000000">ARX/AR2/featureSet.h</text>
</a>
</g>
</g>
<!-- Node0&#45;&gt;Node20 -->
<g id="edge29" class="edge">
<title>Node0&#45;&gt;Node20</title>
<path fill="none" stroke="#191970" d="M668.3275,-330.3173C681.2202,-320.7351 698.0106,-307.4257 711.3472,-294 725.8973,-279.3526 740.2846,-260.6693 750.0492,-247.185"/>
<polygon fill="#191970" stroke="#191970" points="753.0733,-248.9719 756.016,-238.7939 747.3685,-244.9153 753.0733,-248.9719"/>
</g>
<!-- Node22 -->
<g id="node23" class="node">
<title>Node22</title>
<g id="a_node23"><a xlink:href="template_8h.html" target="_top" xlink:title="ARX/AR2/template.h">
<polygon fill="#ffffff" stroke="#000000" points="594.2144,-275.5 594.2144,-293.5 702.48,-293.5 702.48,-275.5 594.2144,-275.5"/>
<text text-anchor="middle" x="648.3472" y="-281.5" font-family="Helvetica,sans-Serif" font-size="10.00" fill="#000000">ARX/AR2/template.h</text>
</a>
</g>
</g>
<!-- Node0&#45;&gt;Node22 -->
<g id="edge34" class="edge">
<title>Node0&#45;&gt;Node22</title>
<path fill="none" stroke="#191970" d="M648.3472,-330.2808C648.3472,-322.3776 648.3472,-312.4316 648.3472,-303.8308"/>
<polygon fill="#191970" stroke="#191970" points="651.8473,-303.5842 648.3472,-293.5842 644.8473,-303.5842 651.8473,-303.5842"/>
</g>
<!-- Node23 -->
<g id="node24" class="node">
<title>Node23</title>
<g id="a_node24"><a xlink:href="marker_8h.html" target="_top" xlink:title="ARX/AR2/marker.h">
<polygon fill="#ffffff" stroke="#000000" points="466.1084,-165.5 466.1084,-183.5 566.5859,-183.5 566.5859,-165.5 466.1084,-165.5"/>
<text text-anchor="middle" x="516.3472" y="-171.5" font-family="Helvetica,sans-Serif" font-size="10.00" fill="#000000">ARX/AR2/marker.h</text>
</a>
</g>
</g>
<!-- Node0&#45;&gt;Node23 -->
<g id="edge39" class="edge">
<title>Node0&#45;&gt;Node23</title>
<path fill="none" stroke="#191970" d="M626.8063,-330.3153C613.7725,-321.0275 597.3994,-308.0399 585.3472,-294 557.9033,-262.03 535.601,-217.5853 524.3287,-192.8958"/>
<polygon fill="#191970" stroke="#191970" points="527.4604,-191.3248 520.1902,-183.6181 521.0676,-194.1765 527.4604,-191.3248"/>
</g>
<!-- Node2 -->
<g id="node3" class="node">
<title>Node2</title>
<g id="a_node3"><a xlink:href="types_8h.html" target="_top" xlink:title="ARX/ARUtil/types.h">
<polygon fill="#ffffff" stroke="#000000" points="0,-.5 0,-18.5 102.6943,-18.5 102.6943,-.5 0,-.5"/>
<text text-anchor="middle" x="51.3472" y="-6.5" font-family="Helvetica,sans-Serif" font-size="10.00" fill="#000000">ARX/ARUtil/types.h</text>
</a>
</g>
</g>
<!-- Node1&#45;&gt;Node2 -->
<g id="edge2" class="edge">
<title>Node1&#45;&gt;Node2</title>
<path fill="none" stroke="#191970" d="M216.1755,-220.327C190.0039,-186.8517 99.3716,-70.9266 64.8467,-26.7669"/>
<polygon fill="#191970" stroke="#191970" points="67.466,-24.4345 58.5494,-18.7122 61.9514,-28.746 67.466,-24.4345"/>
</g>
<!-- Node4 -->
<g id="node5" class="node">
<title>Node4</title>
<polygon fill="#ffffff" stroke="#bfbfbf" points="879.6157,-.5 879.6157,-18.5 925.0786,-18.5 925.0786,-.5 879.6157,-.5"/>
<text text-anchor="middle" x="902.3472" y="-6.5" font-family="Helvetica,sans-Serif" font-size="10.00" fill="#000000">stdio.h</text>
</g>
<!-- Node3&#45;&gt;Node4 -->
<g id="edge4" class="edge">
<title>Node3&#45;&gt;Node4</title>
<path fill="none" stroke="#191970" d="M521.7828,-118.0211C617.2592,-113.7934 869.172,-100.2385 895.3472,-74 906.8844,-62.4349 907.5959,-43.2721 906.045,-28.8322"/>
<polygon fill="#191970" stroke="#191970" points="909.5023,-28.2859 904.5598,-18.9145 902.5795,-29.3226 909.5023,-28.2859"/>
</g>
<!-- Node5 -->
<g id="node6" class="node">
<title>Node5</title>
<polygon fill="#ffffff" stroke="#bfbfbf" points="120.5049,-.5 120.5049,-18.5 168.1895,-18.5 168.1895,-.5 120.5049,-.5"/>
<text text-anchor="middle" x="144.3472" y="-6.5" font-family="Helvetica,sans-Serif" font-size="10.00" fill="#000000">stdlib.h</text>
</g>
<!-- Node3&#45;&gt;Node5 -->
<g id="edge5" class="edge">
<title>Node3&#45;&gt;Node5</title>
<path fill="none" stroke="#191970" d="M448.9306,-116.5695C369.2274,-109.8433 184.7117,-92.4509 163.3472,-74 150.3929,-62.8124 146.045,-43.2813 144.6943,-28.6342"/>
<polygon fill="#191970" stroke="#191970" points="148.187,-28.4014 144.1529,-18.6047 141.1971,-28.7788 148.187,-28.4014"/>
</g>
<!-- Node6 -->
<g id="node7" class="node">
<title>Node6</title>
<polygon fill="#ffffff" stroke="#bfbfbf" points="282.2266,-55.5 282.2266,-73.5 330.4678,-73.5 330.4678,-55.5 282.2266,-55.5"/>
<text text-anchor="middle" x="306.3472" y="-61.5" font-family="Helvetica,sans-Serif" font-size="10.00" fill="#000000">stdint.h</text>
</g>
<!-- Node3&#45;&gt;Node6 -->
<g id="edge6" class="edge">
<title>Node3&#45;&gt;Node6</title>
<path fill="none" stroke="#191970" d="M455.789,-110.4179C424.0226,-100.6573 373.6111,-85.1677 340.2555,-74.9187"/>
<polygon fill="#191970" stroke="#191970" points="341.0778,-71.51 330.4908,-71.9184 339.0217,-78.2012 341.0778,-71.51"/>
</g>
<!-- Node7 -->
<g id="node8" class="node">
<title>Node7</title>
<polygon fill="#ffffff" stroke="#bfbfbf" points="339.9507,-.5 339.9507,-18.5 388.7437,-18.5 388.7437,-.5 339.9507,-.5"/>
<text text-anchor="middle" x="364.3472" y="-6.5" font-family="Helvetica,sans-Serif" font-size="10.00" fill="#000000">string.h</text>
</g>
<!-- Node3&#45;&gt;Node7 -->
<g id="edge7" class="edge">
<title>Node3&#45;&gt;Node7</title>
<path fill="none" stroke="#191970" d="M465.3972,-110.4889C449.1009,-102.4776 426.1044,-89.6279 409.3472,-74 394.884,-60.5115 382.3816,-41.6384 374.2512,-27.7919"/>
<polygon fill="#191970" stroke="#191970" points="377.1061,-25.7298 369.1382,-18.7467 371.0123,-29.1745 377.1061,-25.7298"/>
</g>
<!-- Node8 -->
<g id="node9" class="node">
<title>Node8</title>
<polygon fill="#ffffff" stroke="#bfbfbf" points="423.8301,-.5 423.8301,-18.5 514.8643,-18.5 514.8643,-.5 423.8301,-.5"/>
<text text-anchor="middle" x="469.3472" y="-6.5" font-family="Helvetica,sans-Serif" font-size="10.00" fill="#000000">ARX/AR/config.h</text>
</g>
<!-- Node3&#45;&gt;Node8 -->
<g id="edge8" class="edge">
<title>Node3&#45;&gt;Node8</title>
<path fill="none" stroke="#191970" d="M460.1723,-110.4592C444.2002,-103.2567 424.8187,-91.453 415.3472,-74 405.0039,-54.9407 424.8259,-36.2917 443.3,-23.9891"/>
<polygon fill="#191970" stroke="#191970" points="445.2257,-26.913 451.8508,-18.645 441.5157,-20.9769 445.2257,-26.913"/>
</g>
<!-- Node9 -->
<g id="node10" class="node">
<title>Node9</title>
<g id="a_node10"><a xlink:href="ar_config_8h.html" target="_top" xlink:title="ARX/AR/arConfig.h">
<polygon fill="#ffffff" stroke="#000000" points="564.2734,-55.5 564.2734,-73.5 666.4209,-73.5 666.4209,-55.5 564.2734,-55.5"/>
<text text-anchor="middle" x="615.3472" y="-61.5" font-family="Helvetica,sans-Serif" font-size="10.00" fill="#000000">ARX/AR/arConfig.h</text>
</a>
</g>
</g>
<!-- Node3&#45;&gt;Node9 -->
<g id="edge9" class="edge">
<title>Node3&#45;&gt;Node9</title>
<path fill="none" stroke="#191970" d="M506.814,-110.4179C527.9842,-101.4613 560.5565,-87.6806 584.497,-77.552"/>
<polygon fill="#191970" stroke="#191970" points="586.0025,-80.7155 593.8484,-73.5956 583.275,-74.2687 586.0025,-80.7155"/>
</g>
<!-- Node10 -->
<g id="node11" class="node">
<title>Node10</title>
<g id="a_node11"><a xlink:href="log_8h.html" target="_top" xlink:title="Logging utilities. ">
<polygon fill="#ffffff" stroke="#000000" points="172.2783,-55.5 172.2783,-73.5 264.416,-73.5 264.416,-55.5 172.2783,-55.5"/>
<text text-anchor="middle" x="218.3472" y="-61.5" font-family="Helvetica,sans-Serif" font-size="10.00" fill="#000000">ARX/ARUtil/log.h</text>
</a>
</g>
</g>
<!-- Node3&#45;&gt;Node10 -->
<g id="edge10" class="edge">
<title>Node3&#45;&gt;Node10</title>
<path fill="none" stroke="#191970" d="M448.7818,-111.9678C403.1626,-102.5706 324.7788,-86.4241 272.266,-75.6069"/>
<polygon fill="#191970" stroke="#191970" points="272.9514,-72.1746 262.4508,-73.585 271.539,-79.0307 272.9514,-72.1746"/>
</g>
<!-- Node13 -->
<g id="node14" class="node">
<title>Node13</title>
<g id="a_node14"><a xlink:href="matrix_8h.html" target="_top" xlink:title="ARX/AR/matrix.h">
<polygon fill="#ffffff" stroke="#000000" points="684.5615,-55.5 684.5615,-73.5 776.1328,-73.5 776.1328,-55.5 684.5615,-55.5"/>
<text text-anchor="middle" x="730.3472" y="-61.5" font-family="Helvetica,sans-Serif" font-size="10.00" fill="#000000">ARX/AR/matrix.h</text>
</a>
</g>
</g>
<!-- Node3&#45;&gt;Node13 -->
<g id="edge17" class="edge">
<title>Node3&#45;&gt;Node13</title>
<path fill="none" stroke="#191970" d="M521.7616,-111.3253C563.7369,-101.9023 632.9798,-86.358 680.072,-75.7863"/>
<polygon fill="#191970" stroke="#191970" points="681.0704,-79.1493 690.0609,-73.5439 679.537,-72.3193 681.0704,-79.1493"/>
</g>
<!-- Node3&#45;&gt;Node15 -->
<g id="edge19" class="edge">
<title>Node3&#45;&gt;Node15</title>
<path fill="none" stroke="#191970" d="M521.9251,-116.6778C597.8706,-110.6126 778.0993,-95.1511 928.3472,-74 929.6489,-73.8167 930.9675,-73.625 932.2973,-73.4261"/>
<polygon fill="#191970" stroke="#191970" points="933.286,-76.8131 942.6137,-71.7887 932.1887,-69.8996 933.286,-76.8131"/>
</g>
<!-- Node17 -->
<g id="node18" class="node">
<title>Node17</title>
<g id="a_node18"><a xlink:href="param_8h.html" target="_top" xlink:title="artoolkitX functions for handling calibrated camera parameters. ">
<polygon fill="#ffffff" stroke="#000000" points="794,-55.5 794,-73.5 886.6943,-73.5 886.6943,-55.5 794,-55.5"/>
<text text-anchor="middle" x="840.3472" y="-61.5" font-family="Helvetica,sans-Serif" font-size="10.00" fill="#000000">ARX/AR/param.h</text>
</a>
</g>
</g>
<!-- Node3&#45;&gt;Node17 -->
<g id="edge22" class="edge">
<title>Node3&#45;&gt;Node17</title>
<path fill="none" stroke="#191970" d="M522.0395,-113.2954C577.3508,-104.7824 684.828,-88.8425 776.3472,-74 778.8161,-73.5996 781.3464,-73.1833 783.9097,-72.7585"/>
<polygon fill="#191970" stroke="#191970" points="784.6123,-76.1898 793.9005,-71.0928 783.4611,-69.2851 784.6123,-76.1898"/>
</g>
<!-- Node18 -->
<g id="node19" class="node">
<title>Node18</title>
<g id="a_node19"><a xlink:href="ar_image_proc_8h.html" target="_top" xlink:title="artoolkitX functions for 2D luminance image processing. ">
<polygon fill="#ffffff" stroke="#000000" points="424.5493,-55.5 424.5493,-73.5 546.145,-73.5 546.145,-55.5 424.5493,-55.5"/>
<text text-anchor="middle" x="485.3472" y="-61.5" font-family="Helvetica,sans-Serif" font-size="10.00" fill="#000000">ARX/AR/arImageProc.h</text>
</a>
</g>
</g>
<!-- Node3&#45;&gt;Node18 -->
<g id="edge24" class="edge">
<title>Node3&#45;&gt;Node18</title>
<path fill="none" stroke="#191970" d="M480.1808,-110.4179C478.6893,-103.2164 478.2513,-92.8962 478.867,-83.8632"/>
<polygon fill="#191970" stroke="#191970" points="482.3598,-84.1392 480.1404,-73.7795 475.415,-83.2621 482.3598,-84.1392"/>
</g>
<!-- Node10&#45;&gt;Node2 -->
<g id="edge16" class="edge">
<title>Node10&#45;&gt;Node2</title>
<path fill="none" stroke="#191970" d="M190.7705,-55.4179C162.7662,-46.1949 119.2302,-31.8567 88.2639,-21.6582"/>
<polygon fill="#191970" stroke="#191970" points="89.2802,-18.3081 78.6872,-18.5042 87.0905,-24.9568 89.2802,-18.3081"/>
</g>
<!-- Node10&#45;&gt;Node4 -->
<g id="edge11" class="edge">
<title>Node10&#45;&gt;Node4</title>
<path fill="none" stroke="#191970" d="M264.5117,-56.1854C267.4971,-55.7532 270.4616,-55.3527 273.3472,-55 303.1462,-51.3577 743.6976,-20.5506 869.2063,-11.8059"/>
<polygon fill="#191970" stroke="#191970" points="869.627,-15.2852 879.3596,-11.0988 869.1406,-8.3021 869.627,-15.2852"/>
</g>
<!-- Node10&#45;&gt;Node5 -->
<g id="edge12" class="edge">
<title>Node10&#45;&gt;Node5</title>
<path fill="none" stroke="#191970" d="M206.1276,-55.4179C194.8803,-47.0584 177.979,-34.4966 164.6957,-24.6239"/>
<polygon fill="#191970" stroke="#191970" points="166.6987,-21.7518 156.5849,-18.5956 162.523,-27.37 166.6987,-21.7518"/>
</g>
<!-- Node10&#45;&gt;Node7 -->
<g id="edge13" class="edge">
<title>Node10&#45;&gt;Node7</title>
<path fill="none" stroke="#191970" d="M242.4561,-55.4179C266.5488,-46.3419 303.7909,-32.3123 330.7703,-22.1488"/>
<polygon fill="#191970" stroke="#191970" points="332.0783,-25.3963 340.2024,-18.5956 329.6105,-18.8457 332.0783,-25.3963"/>
</g>
<!-- Node11 -->
<g id="node12" class="node">
<title>Node11</title>
<polygon fill="#ffffff" stroke="#bfbfbf" points="270.2808,-.5 270.2808,-18.5 322.4136,-18.5 322.4136,-.5 270.2808,-.5"/>
<text text-anchor="middle" x="296.3472" y="-6.5" font-family="Helvetica,sans-Serif" font-size="10.00" fill="#000000">stdarg.h</text>
</g>
<!-- Node10&#45;&gt;Node11 -->
<g id="edge14" class="edge">
<title>Node10&#45;&gt;Node11</title>
<path fill="none" stroke="#191970" d="M231.2273,-55.4179C243.0826,-47.0584 260.8974,-34.4966 274.8987,-24.6239"/>
<polygon fill="#191970" stroke="#191970" points="277.2923,-27.2188 283.4479,-18.5956 273.2584,-21.498 277.2923,-27.2188"/>
</g>
<!-- Node12 -->
<g id="node13" class="node">
<title>Node12</title>
<polygon fill="#ffffff" stroke="#bfbfbf" points="186.6157,-.5 186.6157,-18.5 252.0786,-18.5 252.0786,-.5 186.6157,-.5"/>
<text text-anchor="middle" x="219.3472" y="-6.5" font-family="Helvetica,sans-Serif" font-size="10.00" fill="#000000">sys/errno.h</text>
</g>
<!-- Node10&#45;&gt;Node12 -->
<g id="edge15" class="edge">
<title>Node10&#45;&gt;Node12</title>
<path fill="none" stroke="#191970" d="M218.5123,-55.4179C218.6432,-48.2164 218.8309,-37.8962 218.9951,-28.8632"/>
<polygon fill="#191970" stroke="#191970" points="222.496,-28.8415 219.1785,-18.7795 215.4971,-28.7141 222.496,-28.8415"/>
</g>
<!-- Node14 -->
<g id="node15" class="node">
<title>Node14</title>
<polygon fill="#ffffff" stroke="#bfbfbf" points="707.0615,-.5 707.0615,-18.5 753.6328,-18.5 753.6328,-.5 707.0615,-.5"/>
<text text-anchor="middle" x="730.3472" y="-6.5" font-family="Helvetica,sans-Serif" font-size="10.00" fill="#000000">math.h</text>
</g>
<!-- Node13&#45;&gt;Node14 -->
<g id="edge18" class="edge">
<title>Node13&#45;&gt;Node14</title>
<path fill="none" stroke="#191970" d="M730.3472,-55.4179C730.3472,-48.2164 730.3472,-37.8962 730.3472,-28.8632"/>
<polygon fill="#191970" stroke="#191970" points="733.8473,-28.7794 730.3472,-18.7795 726.8473,-28.7795 733.8473,-28.7794"/>
</g>
<!-- Node15&#45;&gt;Node4 -->
<g id="edge20" class="edge">
<title>Node15&#45;&gt;Node4</title>
<path fill="none" stroke="#191970" d="M968.3019,-55.4179C956.1803,-46.9788 937.9072,-34.257 923.6665,-24.3426"/>
<polygon fill="#191970" stroke="#191970" points="925.6185,-21.4369 915.4118,-18.5956 921.6189,-27.1818 925.6185,-21.4369"/>
</g>
<!-- Node16 -->
<g id="node17" class="node">
<title>Node16</title>
<g id="a_node17"><a xlink:href="icp_core_8h.html" target="_top" xlink:title="ARX/AR/icpCore.h">
<polygon fill="#ffffff" stroke="#000000" points="942.9434,-.5 942.9434,-18.5 1041.751,-18.5 1041.751,-.5 942.9434,-.5"/>
<text text-anchor="middle" x="992.3472" y="-6.5" font-family="Helvetica,sans-Serif" font-size="10.00" fill="#000000">ARX/AR/icpCore.h</text>
</a>
</g>
</g>
<!-- Node15&#45;&gt;Node16 -->
<g id="edge21" class="edge">
<title>Node15&#45;&gt;Node16</title>
<path fill="none" stroke="#191970" d="M983.1636,-55.4179C984.6039,-48.2164 986.6679,-37.8962 988.4745,-28.8632"/>
<polygon fill="#191970" stroke="#191970" points="991.9621,-29.2717 990.4913,-18.7795 985.098,-27.8988 991.9621,-29.2717"/>
</g>
<!-- Node17&#45;&gt;Node3 -->
<g id="edge23" class="edge">
<title>Node17&#45;&gt;Node3</title>
<path fill="none" stroke="#191970" d="M797.2416,-73.5279C796.2694,-73.6874 795.3037,-73.8449 794.3472,-74 701.6884,-89.0273 592.6719,-105.1796 531.9275,-113.6099"/>
<polygon fill="#191970" stroke="#191970" points="531.311,-110.1617 521.8823,-114.9938 532.2664,-117.0962 531.311,-110.1617"/>
</g>
<!-- Node18&#45;&gt;Node3 -->
<g id="edge26" class="edge">
<title>Node18&#45;&gt;Node3</title>
<path fill="none" stroke="#191970" d="M490.5539,-73.7795C492.0263,-81.0373 492.4451,-91.3738 491.8103,-100.383"/>
<polygon fill="#191970" stroke="#191970" points="488.3241,-100.0517 490.5135,-110.4179 495.2664,-100.949 488.3241,-100.0517"/>
</g>
<!-- Node18&#45;&gt;Node8 -->
<g id="edge25" class="edge">
<title>Node18&#45;&gt;Node8</title>
<path fill="none" stroke="#191970" d="M482.7051,-55.4179C480.5871,-48.1372 477.5418,-37.669 474.8936,-28.5659"/>
<polygon fill="#191970" stroke="#191970" points="478.2007,-27.4037 472.0466,-18.7795 471.4793,-29.3591 478.2007,-27.4037"/>
</g>
<!-- Node20&#45;&gt;Node19 -->
<g id="edge30" class="edge">
<title>Node20&#45;&gt;Node19</title>
<path fill="none" stroke="#191970" d="M759.2375,-220.4982C753.0582,-202.6108 739.1186,-162.2594 730.8511,-138.3271"/>
<polygon fill="#191970" stroke="#191970" points="734.0733,-136.9352 727.4998,-128.6261 727.4569,-139.2209 734.0733,-136.9352"/>
</g>
<!-- Node21 -->
<g id="node22" class="node">
<title>Node21</title>
<g id="a_node22"><a xlink:href="image_set_8h.html" target="_top" xlink:title="ARX/AR2/imageSet.h">
<polygon fill="#ffffff" stroke="#000000" points="584.2686,-165.5 584.2686,-183.5 696.4258,-183.5 696.4258,-165.5 584.2686,-165.5"/>
<text text-anchor="middle" x="640.3472" y="-171.5" font-family="Helvetica,sans-Serif" font-size="10.00" fill="#000000">ARX/AR2/imageSet.h</text>
</a>
</g>
</g>
<!-- Node20&#45;&gt;Node21 -->
<g id="edge31" class="edge">
<title>Node20&#45;&gt;Node21</title>
<path fill="none" stroke="#191970" d="M742.2013,-220.4179C722.5106,-211.5409 692.3086,-197.9253 669.8999,-187.823"/>
<polygon fill="#191970" stroke="#191970" points="671.0778,-184.5148 660.5229,-183.5956 668.2009,-190.8963 671.0778,-184.5148"/>
</g>
<!-- Node21&#45;&gt;Node3 -->
<g id="edge32" class="edge">
<title>Node21&#45;&gt;Node3</title>
<path fill="none" stroke="#191970" d="M614.7521,-165.4179C588.9851,-156.2748 549.051,-142.1046 520.3604,-131.924"/>
<polygon fill="#191970" stroke="#191970" points="521.3174,-128.5499 510.7227,-128.5042 518.9765,-135.1469 521.3174,-128.5499"/>
</g>
<!-- Node21&#45;&gt;Node19 -->
<g id="edge33" class="edge">
<title>Node21&#45;&gt;Node19</title>
<path fill="none" stroke="#191970" d="M654.2181,-165.4179C667.1069,-156.9788 686.5365,-144.257 701.6785,-134.3426"/>
<polygon fill="#191970" stroke="#191970" points="704.0067,-137.0017 710.4557,-128.5956 700.1722,-131.1454 704.0067,-137.0017"/>
</g>
<!-- Node22&#45;&gt;Node3 -->
<g id="edge35" class="edge">
<title>Node22&#45;&gt;Node3</title>
<path fill="none" stroke="#191970" d="M605.2161,-275.494C559.4118,-263.3767 489.3041,-236.9258 457.3472,-184 448.1337,-168.741 458.5396,-149.9051 469.1815,-136.5368"/>
<polygon fill="#191970" stroke="#191970" points="472.1188,-138.4904 476.005,-128.6341 466.8205,-133.9157 472.1188,-138.4904"/>
</g>
<!-- Node22&#45;&gt;Node19 -->
<g id="edge36" class="edge">
<title>Node22&#45;&gt;Node19</title>
<path fill="none" stroke="#191970" d="M654.4334,-275.4447C665.7646,-258.2587 690.307,-219.4548 705.3472,-184 711.6155,-169.2233 716.6316,-151.7126 719.9322,-138.6678"/>
<polygon fill="#191970" stroke="#191970" points="723.3411,-139.4611 722.2911,-128.9185 716.5375,-137.8149 723.3411,-139.4611"/>
</g>
<!-- Node22&#45;&gt;Node20 -->
<g id="edge38" class="edge">
<title>Node22&#45;&gt;Node20</title>
<path fill="none" stroke="#191970" d="M667.1719,-275.4179C685.489,-266.5807 713.5401,-253.0473 734.4502,-242.9591"/>
<polygon fill="#191970" stroke="#191970" points="736.0087,-246.0933 743.4944,-238.5956 732.967,-239.7887 736.0087,-246.0933"/>
</g>
<!-- Node22&#45;&gt;Node21 -->
<g id="edge37" class="edge">
<title>Node22&#45;&gt;Node21</title>
<path fill="none" stroke="#191970" d="M647.6925,-275.4982C646.3974,-257.6913 643.4833,-217.6225 641.74,-193.6515"/>
<polygon fill="#191970" stroke="#191970" points="645.2271,-193.3459 641.0109,-183.6261 638.2456,-193.8537 645.2271,-193.3459"/>
</g>
<!-- Node23&#45;&gt;Node3 -->
<g id="edge40" class="edge">
<title>Node23&#45;&gt;Node3</title>
<path fill="none" stroke="#191970" d="M511.2281,-165.4179C506.9907,-157.8998 500.8375,-146.9829 495.594,-137.6799"/>
<polygon fill="#191970" stroke="#191970" points="498.5366,-135.7724 490.5774,-128.7795 492.4386,-139.2096 498.5366,-135.7724"/>
</g>
<!-- Node23&#45;&gt;Node19 -->
<g id="edge41" class="edge">
<title>Node23&#45;&gt;Node19</title>
<path fill="none" stroke="#191970" d="M550.6941,-165.4179C586.1777,-156.0352 641.6819,-141.3586 680.3563,-131.1322"/>
<polygon fill="#191970" stroke="#191970" points="681.5219,-134.4444 690.2949,-128.5042 679.7324,-127.6769 681.5219,-134.4444"/>
</g>
</g>
</svg>
