<?xml version="1.0" encoding="UTF-8" standalone="no"?>
<!DOCTYPE svg PUBLIC "-//W3C//DTD SVG 1.1//EN"
 "http://www.w3.org/Graphics/SVG/1.1/DTD/svg11.dtd">
<!-- Generated by graphviz version 2.40.1 (20161225.0304)
 -->
<!-- Title: ar2DeleteHandle Pages: 1 -->
<svg width="227pt" height="138pt"
 viewBox="0.00 0.00 226.64 138.00" xmlns="http://www.w3.org/2000/svg" xmlns:xlink="http://www.w3.org/1999/xlink">
<g id="graph0" class="graph" transform="scale(1 1) rotate(0) translate(4 134)">
<title>ar2DeleteHandle</title>
<polygon fill="#ffffff" stroke="transparent" points="-4,4 -4,-134 222.6396,-134 222.6396,4 -4,4"/>
<!-- Node2 -->
<g id="node1" class="node">
<title>Node2</title>
<polygon fill="#bfbfbf" stroke="#000000" points="0,-55.5 0,-73.5 91.0488,-73.5 91.0488,-55.5 0,-55.5"/>
<text text-anchor="middle" x="45.5244" y="-61.5" font-family="Helvetica,sans-Serif" font-size="10.00" fill="#000000">ar2DeleteHandle</text>
</g>
<!-- Node3 -->
<g id="node2" class="node">
<title>Node3</title>
<g id="a_node2"><a xlink:href="thread__sub_8h.html#a006573b21f1e807bd812b16217a630f0" target="_top" xlink:title="threadWaitQuit">
<polygon fill="#ffffff" stroke="#000000" points="131.6802,-111.5 131.6802,-129.5 214.0083,-129.5 214.0083,-111.5 131.6802,-111.5"/>
<text text-anchor="middle" x="172.8442" y="-117.5" font-family="Helvetica,sans-Serif" font-size="10.00" fill="#000000">threadWaitQuit</text>
</a>
</g>
</g>
<!-- Node2&#45;&gt;Node3 -->
<g id="edge1" class="edge">
<title>Node2&#45;&gt;Node3</title>
<path fill="none" stroke="#191970" d="M64.1569,-73.5847C80.5858,-81.4988 105.2365,-93.1403 127.0488,-102.5 131.0231,-104.2054 135.2165,-105.9402 139.3868,-107.6261"/>
<polygon fill="#191970" stroke="#191970" points="138.3763,-110.9908 148.9619,-111.4343 140.9633,-104.4864 138.3763,-110.9908"/>
</g>
<!-- Node4 -->
<g id="node3" class="node">
<title>Node4</title>
<g id="a_node3"><a xlink:href="thread__sub_8h.html#a7dc2b12fca98966bdcbcf8f5bb9b1a83" target="_top" xlink:title="threadFree">
<polygon fill="#ffffff" stroke="#000000" points="140.3862,-74.5 140.3862,-92.5 205.3022,-92.5 205.3022,-74.5 140.3862,-74.5"/>
<text text-anchor="middle" x="172.8442" y="-80.5" font-family="Helvetica,sans-Serif" font-size="10.00" fill="#000000">threadFree</text>
</a>
</g>
</g>
<!-- Node2&#45;&gt;Node4 -->
<g id="edge2" class="edge">
<title>Node2&#45;&gt;Node4</title>
<path fill="none" stroke="#191970" d="M91.1302,-71.3058C103.84,-73.2025 117.5966,-75.2554 130.1332,-77.1262"/>
<polygon fill="#191970" stroke="#191970" points="129.9202,-80.6331 140.3273,-78.6475 130.9535,-73.7098 129.9202,-80.6331"/>
</g>
<!-- Node5 -->
<g id="node4" class="node">
<title>Node5</title>
<g id="a_node4"><a xlink:href="template_8h.html#a92b414adeeb88d4cc5d4dd1aadcb41d0" target="_top" xlink:title="ar2FreeTemplate">
<polygon fill="#ffffff" stroke="#000000" points="127.0488,-37.5 127.0488,-55.5 218.6396,-55.5 218.6396,-37.5 127.0488,-37.5"/>
<text text-anchor="middle" x="172.8442" y="-43.5" font-family="Helvetica,sans-Serif" font-size="10.00" fill="#000000">ar2FreeTemplate</text>
</a>
</g>
</g>
<!-- Node2&#45;&gt;Node5 -->
<g id="edge3" class="edge">
<title>Node2&#45;&gt;Node5</title>
<path fill="none" stroke="#191970" d="M91.1302,-58.0524C99.4384,-56.8778 108.1939,-55.64 116.7636,-54.4285"/>
<polygon fill="#191970" stroke="#191970" points="117.2887,-57.8891 126.7003,-53.0237 116.3087,-50.9581 117.2887,-57.8891"/>
</g>
<!-- Node6 -->
<g id="node5" class="node">
<title>Node6</title>
<g id="a_node5"><a xlink:href="icp_handle_8c.html#a510dee7e69010b7aa075d90f27a8e9da" target="_top" xlink:title="icpDeleteHandle">
<polygon fill="#ffffff" stroke="#000000" points="128.1548,-.5 128.1548,-18.5 217.5337,-18.5 217.5337,-.5 128.1548,-.5"/>
<text text-anchor="middle" x="172.8442" y="-6.5" font-family="Helvetica,sans-Serif" font-size="10.00" fill="#000000">icpDeleteHandle</text>
</a>
</g>
</g>
<!-- Node2&#45;&gt;Node6 -->
<g id="edge4" class="edge">
<title>Node2&#45;&gt;Node6</title>
<path fill="none" stroke="#191970" d="M65.5713,-55.4969C82.0399,-48.1371 105.9986,-37.5131 127.0488,-28.5 131.5592,-26.5688 136.3313,-24.5556 141.0252,-22.5928"/>
<polygon fill="#191970" stroke="#191970" points="142.5516,-25.7486 150.4408,-18.6767 139.8634,-19.2853 142.5516,-25.7486"/>
</g>
</g>
</svg>
