<?xml version="1.0" encoding="UTF-8" standalone="no"?>
<!DOCTYPE svg PUBLIC "-//W3C//DTD SVG 1.1//EN"
 "http://www.w3.org/Graphics/SVG/1.1/DTD/svg11.dtd">
<!-- Generated by graphviz version 2.40.1 (20161225.0304)
 -->
<!-- Title: Source/ARX/AR2/tracking.c Pages: 1 -->
<svg width="1070pt" height="412pt"
 viewBox="0.00 0.00 1069.90 412.00" xmlns="http://www.w3.org/2000/svg" xmlns:xlink="http://www.w3.org/1999/xlink">
<g id="graph0" class="graph" transform="scale(1 1) rotate(0) translate(4 408)">
<title>Source/ARX/AR2/tracking.c</title>
<polygon fill="#ffffff" stroke="transparent" points="-4,4 -4,-408 1065.8965,-408 1065.8965,4 -4,4"/>
<!-- Node0 -->
<g id="node1" class="node">
<title>Node0</title>
<polygon fill="#bfbfbf" stroke="#000000" points="534.5864,-385.5 534.5864,-403.5 673.4136,-403.5 673.4136,-385.5 534.5864,-385.5"/>
<text text-anchor="middle" x="604" y="-391.5" font-family="Helvetica,sans-Serif" font-size="10.00" fill="#000000">Source/ARX/AR2/tracking.c</text>
</g>
<!-- Node1 -->
<g id="node2" class="node">
<title>Node1</title>
<g id="a_node2"><a xlink:href="ar_8h.html" target="_top" xlink:title="artoolkitX core routines. ">
<polygon fill="#ffffff" stroke="#000000" points="375.6528,-110.5 375.6528,-128.5 448.3472,-128.5 448.3472,-110.5 375.6528,-110.5"/>
<text text-anchor="middle" x="412" y="-116.5" font-family="Helvetica,sans-Serif" font-size="10.00" fill="#000000">ARX/AR/ar.h</text>
</a>
</g>
</g>
<!-- Node0&#45;&gt;Node1 -->
<g id="edge1" class="edge">
<title>Node0&#45;&gt;Node1</title>
<path fill="none" stroke="#191970" d="M534.2183,-389.5632C420.0736,-379.549 206,-351.7969 206,-284.5 206,-284.5 206,-284.5 206,-229.5 206,-157.6386 304.7508,-132.5552 365.5087,-123.923"/>
<polygon fill="#191970" stroke="#191970" points="366.1899,-127.3636 375.6455,-122.5842 365.2733,-120.4238 366.1899,-127.3636"/>
</g>
<!-- Node2 -->
<g id="node3" class="node">
<title>Node2</title>
<polygon fill="#ffffff" stroke="#bfbfbf" points="874.2686,-.5 874.2686,-18.5 919.7314,-18.5 919.7314,-.5 874.2686,-.5"/>
<text text-anchor="middle" x="897" y="-6.5" font-family="Helvetica,sans-Serif" font-size="10.00" fill="#000000">stdio.h</text>
</g>
<!-- Node0&#45;&gt;Node2 -->
<g id="edge25" class="edge">
<title>Node0&#45;&gt;Node2</title>
<path fill="none" stroke="#191970" d="M673.624,-386.1456C772.569,-372.2993 942,-340.4246 942,-284.5 942,-284.5 942,-284.5 942,-229.5 942,-147.9118 1043.4119,-123.4414 999,-55 990.951,-42.596 956.2893,-28.8222 929.5815,-19.7133"/>
<polygon fill="#191970" stroke="#191970" points="930.4005,-16.2973 919.807,-16.4633 928.1918,-22.9398 930.4005,-16.2973"/>
</g>
<!-- Node3 -->
<g id="node4" class="node">
<title>Node3</title>
<polygon fill="#ffffff" stroke="#bfbfbf" points="808.1577,-.5 808.1577,-18.5 855.8423,-18.5 855.8423,-.5 808.1577,-.5"/>
<text text-anchor="middle" x="832" y="-6.5" font-family="Helvetica,sans-Serif" font-size="10.00" fill="#000000">stdlib.h</text>
</g>
<!-- Node0&#45;&gt;Node3 -->
<g id="edge26" class="edge">
<title>Node0&#45;&gt;Node3</title>
<path fill="none" stroke="#191970" d="M661.4881,-385.4646C748.5981,-370.1277 904,-335.6055 904,-284.5 904,-284.5 904,-284.5 904,-174.5 904,-116.4036 866.0396,-55.6827 845.2452,-26.7787"/>
<polygon fill="#191970" stroke="#191970" points="847.9257,-24.5169 839.1669,-18.5559 842.2967,-28.6779 847.9257,-24.5169"/>
</g>
<!-- Node13 -->
<g id="node14" class="node">
<title>Node13</title>
<polygon fill="#ffffff" stroke="#bfbfbf" points="13.7144,-.5 13.7144,-18.5 60.2856,-18.5 60.2856,-.5 13.7144,-.5"/>
<text text-anchor="middle" x="37" y="-6.5" font-family="Helvetica,sans-Serif" font-size="10.00" fill="#000000">math.h</text>
</g>
<!-- Node0&#45;&gt;Node13 -->
<g id="edge28" class="edge">
<title>Node0&#45;&gt;Node13</title>
<path fill="none" stroke="#191970" d="M534.4187,-389.0416C375.597,-375.6497 0,-338.2926 0,-284.5 0,-284.5 0,-284.5 0,-119.5 0,-85.5819 15.9991,-48.7064 26.956,-27.4295"/>
<polygon fill="#191970" stroke="#191970" points="30.0658,-29.0362 31.6988,-18.5679 23.8942,-25.733 30.0658,-29.0362"/>
</g>
<!-- Node14 -->
<g id="node15" class="node">
<title>Node14</title>
<g id="a_node15"><a xlink:href="icp_8h.html" target="_top" xlink:title="ARX/AR/icp.h">
<polygon fill="#ffffff" stroke="#000000" points="912.4336,-55.5 912.4336,-73.5 989.5664,-73.5 989.5664,-55.5 912.4336,-55.5"/>
<text text-anchor="middle" x="951" y="-61.5" font-family="Helvetica,sans-Serif" font-size="10.00" fill="#000000">ARX/AR/icp.h</text>
</a>
</g>
</g>
<!-- Node0&#45;&gt;Node14 -->
<g id="edge29" class="edge">
<title>Node0&#45;&gt;Node14</title>
<path fill="none" stroke="#191970" d="M673.7137,-389.3483C770.0044,-381.6525 934.3528,-366.2052 956,-349 979.9449,-329.9686 980,-315.0869 980,-284.5 980,-284.5 980,-284.5 980,-174.5 980,-141.4038 967.5734,-104.5018 958.9891,-82.9585"/>
<polygon fill="#191970" stroke="#191970" points="962.215,-81.6003 955.155,-73.7004 955.7476,-84.2787 962.215,-81.6003"/>
</g>
<!-- Node18 -->
<g id="node19" class="node">
<title>Node18</title>
<polygon fill="#ffffff" stroke="#bfbfbf" points="1008.1035,-330.5 1008.1035,-348.5 1061.8965,-348.5 1061.8965,-330.5 1008.1035,-330.5"/>
<text text-anchor="middle" x="1035" y="-336.5" font-family="Helvetica,sans-Serif" font-size="10.00" fill="#000000">strings.h</text>
</g>
<!-- Node0&#45;&gt;Node18 -->
<g id="edge27" class="edge">
<title>Node0&#45;&gt;Node18</title>
<path fill="none" stroke="#191970" d="M673.7298,-388.7292C752.019,-381.7022 882.6778,-368.3288 994,-349 995.2553,-348.782 996.5298,-348.5497 997.8151,-348.3059"/>
<polygon fill="#191970" stroke="#191970" points="998.6503,-351.7075 1007.7393,-346.2631 997.239,-344.8512 998.6503,-351.7075"/>
</g>
<!-- Node19 -->
<g id="node20" class="node">
<title>Node19</title>
<g id="a_node20"><a xlink:href="coord_8h.html" target="_top" xlink:title="ARX/AR2/coord.h">
<polygon fill="#ffffff" stroke="#000000" points="631.5371,-275.5 631.5371,-293.5 726.4629,-293.5 726.4629,-275.5 631.5371,-275.5"/>
<text text-anchor="middle" x="679" y="-281.5" font-family="Helvetica,sans-Serif" font-size="10.00" fill="#000000">ARX/AR2/coord.h</text>
</a>
</g>
</g>
<!-- Node0&#45;&gt;Node19 -->
<g id="edge30" class="edge">
<title>Node0&#45;&gt;Node19</title>
<path fill="none" stroke="#191970" d="M610.1376,-385.4982C622.5533,-367.2885 650.8423,-325.798 667.0343,-302.0496"/>
<polygon fill="#191970" stroke="#191970" points="670.036,-303.8601 672.7776,-293.6261 664.2524,-299.9167 670.036,-303.8601"/>
</g>
<!-- Node21 -->
<g id="node22" class="node">
<title>Node21</title>
<g id="a_node22"><a xlink:href="image_set_8h.html" target="_top" xlink:title="ARX/AR2/imageSet.h">
<polygon fill="#ffffff" stroke="#000000" points="427.9214,-165.5 427.9214,-183.5 540.0786,-183.5 540.0786,-165.5 427.9214,-165.5"/>
<text text-anchor="middle" x="484" y="-171.5" font-family="Helvetica,sans-Serif" font-size="10.00" fill="#000000">ARX/AR2/imageSet.h</text>
</a>
</g>
</g>
<!-- Node0&#45;&gt;Node21 -->
<g id="edge38" class="edge">
<title>Node0&#45;&gt;Node21</title>
<path fill="none" stroke="#191970" d="M534.4598,-387.565C477.8637,-377.5922 402.8113,-353.2781 374,-294 351.9187,-248.5685 414.6038,-208.2044 454.2353,-188.062"/>
<polygon fill="#191970" stroke="#191970" points="455.8413,-191.1725 463.2669,-183.6153 452.7493,-184.8924 455.8413,-191.1725"/>
</g>
<!-- Node22 -->
<g id="node23" class="node">
<title>Node22</title>
<g id="a_node23"><a xlink:href="feature_set_8h.html" target="_top" xlink:title="ARX/AR2/featureSet.h">
<polygon fill="#ffffff" stroke="#000000" points="461.9731,-220.5 461.9731,-238.5 578.0269,-238.5 578.0269,-220.5 461.9731,-220.5"/>
<text text-anchor="middle" x="520" y="-226.5" font-family="Helvetica,sans-Serif" font-size="10.00" fill="#000000">ARX/AR2/featureSet.h</text>
</a>
</g>
</g>
<!-- Node0&#45;&gt;Node22 -->
<g id="edge39" class="edge">
<title>Node0&#45;&gt;Node22</title>
<path fill="none" stroke="#191970" d="M601.8121,-385.4739C598.5629,-372.7546 591.8783,-348.9891 583,-330 568.6189,-299.2413 546.6276,-266.4128 532.7955,-246.941"/>
<polygon fill="#191970" stroke="#191970" points="535.5847,-244.8249 526.9002,-238.756 529.9046,-248.916 535.5847,-244.8249"/>
</g>
<!-- Node23 -->
<g id="node24" class="node">
<title>Node23</title>
<g id="a_node24"><a xlink:href="template_8h.html" target="_top" xlink:title="ARX/AR2/template.h">
<polygon fill="#ffffff" stroke="#000000" points="382.8672,-275.5 382.8672,-293.5 491.1328,-293.5 491.1328,-275.5 382.8672,-275.5"/>
<text text-anchor="middle" x="437" y="-281.5" font-family="Helvetica,sans-Serif" font-size="10.00" fill="#000000">ARX/AR2/template.h</text>
</a>
</g>
</g>
<!-- Node0&#45;&gt;Node23 -->
<g id="edge40" class="edge">
<title>Node0&#45;&gt;Node23</title>
<path fill="none" stroke="#191970" d="M561.9674,-385.4297C525.275,-376.7596 475.664,-362.9741 461,-349 448.5785,-337.1628 442.5407,-318.3087 439.6333,-304.0354"/>
<polygon fill="#191970" stroke="#191970" points="443.0207,-303.0731 437.9107,-293.7921 436.1177,-304.2341 443.0207,-303.0731"/>
</g>
<!-- Node24 -->
<g id="node25" class="node">
<title>Node24</title>
<g id="a_node25"><a xlink:href="tracking_8h.html" target="_top" xlink:title="ARX/AR2/tracking.h">
<polygon fill="#ffffff" stroke="#000000" points="469.5371,-330.5 469.5371,-348.5 574.4629,-348.5 574.4629,-330.5 469.5371,-330.5"/>
<text text-anchor="middle" x="522" y="-336.5" font-family="Helvetica,sans-Serif" font-size="10.00" fill="#000000">ARX/AR2/tracking.h</text>
</a>
</g>
</g>
<!-- Node0&#45;&gt;Node24 -->
<g id="edge45" class="edge">
<title>Node0&#45;&gt;Node24</title>
<path fill="none" stroke="#191970" d="M590.4594,-385.4179C577.8774,-376.9788 558.9104,-364.257 544.1289,-354.3426"/>
<polygon fill="#191970" stroke="#191970" points="545.8153,-351.2593 535.5607,-348.5956 541.916,-357.0727 545.8153,-351.2593"/>
</g>
<!-- Node1&#45;&gt;Node2 -->
<g id="edge2" class="edge">
<title>Node1&#45;&gt;Node2</title>
<path fill="none" stroke="#191970" d="M448.6343,-116.7463C529.0736,-110.4129 718.8373,-93.8231 780,-74 815.8767,-62.3722 853.3786,-39.4951 875.9682,-24.3494"/>
<polygon fill="#191970" stroke="#191970" points="878.1308,-27.1107 884.4127,-18.5791 874.1815,-21.3311 878.1308,-27.1107"/>
</g>
<!-- Node1&#45;&gt;Node3 -->
<g id="edge3" class="edge">
<title>Node1&#45;&gt;Node3</title>
<path fill="none" stroke="#191970" d="M448.418,-115.7222C530.2218,-107.0772 723.5505,-85.701 751,-74 776.9107,-62.9549 801.4476,-41.2675 816.5858,-26.1029"/>
<polygon fill="#191970" stroke="#191970" points="819.1596,-28.4764 823.6029,-18.8583 814.1315,-23.6062 819.1596,-28.4764"/>
</g>
<!-- Node4 -->
<g id="node5" class="node">
<title>Node4</title>
<polygon fill="#ffffff" stroke="#bfbfbf" points="693.8794,-55.5 693.8794,-73.5 742.1206,-73.5 742.1206,-55.5 693.8794,-55.5"/>
<text text-anchor="middle" x="718" y="-61.5" font-family="Helvetica,sans-Serif" font-size="10.00" fill="#000000">stdint.h</text>
</g>
<!-- Node1&#45;&gt;Node4 -->
<g id="edge4" class="edge">
<title>Node1&#45;&gt;Node4</title>
<path fill="none" stroke="#191970" d="M448.4701,-114.7835C499.2177,-107.9238 594.1396,-94.0208 683.7958,-74.0757"/>
<polygon fill="#191970" stroke="#191970" points="684.5875,-77.4851 693.5729,-71.8714 683.048,-70.6565 684.5875,-77.4851"/>
</g>
<!-- Node5 -->
<g id="node6" class="node">
<title>Node5</title>
<polygon fill="#ffffff" stroke="#bfbfbf" points="467.6035,-.5 467.6035,-18.5 516.3965,-18.5 516.3965,-.5 467.6035,-.5"/>
<text text-anchor="middle" x="492" y="-6.5" font-family="Helvetica,sans-Serif" font-size="10.00" fill="#000000">string.h</text>
</g>
<!-- Node1&#45;&gt;Node5 -->
<g id="edge5" class="edge">
<title>Node1&#45;&gt;Node5</title>
<path fill="none" stroke="#191970" d="M448.6432,-111.0922C481.6586,-102.6868 526.5687,-88.8979 537,-74 548.7373,-57.2369 531.3076,-37.9943 514.8396,-24.9209"/>
<polygon fill="#191970" stroke="#191970" points="516.5861,-21.8577 506.4751,-18.6926 512.4054,-27.4722 516.5861,-21.8577"/>
</g>
<!-- Node6 -->
<g id="node7" class="node">
<title>Node6</title>
<polygon fill="#ffffff" stroke="#bfbfbf" points="297.4829,-.5 297.4829,-18.5 388.5171,-18.5 388.5171,-.5 297.4829,-.5"/>
<text text-anchor="middle" x="343" y="-6.5" font-family="Helvetica,sans-Serif" font-size="10.00" fill="#000000">ARX/AR/config.h</text>
</g>
<!-- Node1&#45;&gt;Node6 -->
<g id="edge6" class="edge">
<title>Node1&#45;&gt;Node6</title>
<path fill="none" stroke="#191970" d="M375.3568,-111.0922C342.3414,-102.6868 297.4313,-88.8979 287,-74 274.1079,-55.5876 296.1126,-36.3677 316.2106,-23.751"/>
<polygon fill="#191970" stroke="#191970" points="318.0705,-26.7173 324.8885,-18.6076 314.5014,-20.6955 318.0705,-26.7173"/>
</g>
<!-- Node7 -->
<g id="node8" class="node">
<title>Node7</title>
<g id="a_node8"><a xlink:href="ar_config_8h.html" target="_top" xlink:title="ARX/AR/arConfig.h">
<polygon fill="#ffffff" stroke="#000000" points="137.9263,-55.5 137.9263,-73.5 240.0737,-73.5 240.0737,-55.5 137.9263,-55.5"/>
<text text-anchor="middle" x="189" y="-61.5" font-family="Helvetica,sans-Serif" font-size="10.00" fill="#000000">ARX/AR/arConfig.h</text>
</a>
</g>
</g>
<!-- Node1&#45;&gt;Node7 -->
<g id="edge7" class="edge">
<title>Node1&#45;&gt;Node7</title>
<path fill="none" stroke="#191970" d="M375.1761,-110.4179C336.8908,-100.9753 276.8662,-86.171 235.3715,-75.9369"/>
<polygon fill="#191970" stroke="#191970" points="236.0552,-72.5007 225.508,-73.5042 234.3789,-79.2971 236.0552,-72.5007"/>
</g>
<!-- Node8 -->
<g id="node9" class="node">
<title>Node8</title>
<g id="a_node9"><a xlink:href="log_8h.html" target="_top" xlink:title="Logging utilities. ">
<polygon fill="#ffffff" stroke="#000000" points="583.9312,-55.5 583.9312,-73.5 676.0688,-73.5 676.0688,-55.5 583.9312,-55.5"/>
<text text-anchor="middle" x="630" y="-61.5" font-family="Helvetica,sans-Serif" font-size="10.00" fill="#000000">ARX/ARUtil/log.h</text>
</a>
</g>
</g>
<!-- Node1&#45;&gt;Node8 -->
<g id="edge8" class="edge">
<title>Node1&#45;&gt;Node8</title>
<path fill="none" stroke="#191970" d="M447.9983,-110.4179C485.346,-100.9953 543.8559,-86.2336 584.4107,-76.0019"/>
<polygon fill="#191970" stroke="#191970" points="585.4706,-79.3442 594.3106,-73.5042 583.7582,-72.5569 585.4706,-79.3442"/>
</g>
<!-- Node12 -->
<g id="node13" class="node">
<title>Node12</title>
<g id="a_node13"><a xlink:href="matrix_8h.html" target="_top" xlink:title="ARX/AR/matrix.h">
<polygon fill="#ffffff" stroke="#000000" points="28.2144,-55.5 28.2144,-73.5 119.7856,-73.5 119.7856,-55.5 28.2144,-55.5"/>
<text text-anchor="middle" x="74" y="-61.5" font-family="Helvetica,sans-Serif" font-size="10.00" fill="#000000">ARX/AR/matrix.h</text>
</a>
</g>
</g>
<!-- Node1&#45;&gt;Node12 -->
<g id="edge15" class="edge">
<title>Node1&#45;&gt;Node12</title>
<path fill="none" stroke="#191970" d="M375.344,-113.746C323.2155,-105.5327 224.4054,-89.8518 129.9219,-74.1389"/>
<polygon fill="#191970" stroke="#191970" points="130.3485,-70.6618 119.9093,-72.4709 129.1982,-77.5666 130.3485,-70.6618"/>
</g>
<!-- Node1&#45;&gt;Node14 -->
<g id="edge17" class="edge">
<title>Node1&#45;&gt;Node14</title>
<path fill="none" stroke="#191970" d="M448.6937,-116.4676C546.334,-108.3341 810.9873,-85.8501 898,-74 899.3025,-73.8226 900.6219,-73.636 901.9523,-73.4418"/>
<polygon fill="#191970" stroke="#191970" points="902.9325,-76.8312 912.2721,-71.8291 901.8516,-69.9152 902.9325,-76.8312"/>
</g>
<!-- Node16 -->
<g id="node17" class="node">
<title>Node16</title>
<g id="a_node17"><a xlink:href="param_8h.html" target="_top" xlink:title="artoolkitX functions for handling calibrated camera parameters. ">
<polygon fill="#ffffff" stroke="#000000" points="295.6528,-55.5 295.6528,-73.5 388.3472,-73.5 388.3472,-55.5 295.6528,-55.5"/>
<text text-anchor="middle" x="342" y="-61.5" font-family="Helvetica,sans-Serif" font-size="10.00" fill="#000000">ARX/AR/param.h</text>
</a>
</g>
</g>
<!-- Node1&#45;&gt;Node16 -->
<g id="edge20" class="edge">
<title>Node1&#45;&gt;Node16</title>
<path fill="none" stroke="#191970" d="M395.2746,-110.4179C383.3293,-102.3458 367.7208,-90.3556 356.3459,-80.6517"/>
<polygon fill="#191970" stroke="#191970" points="358.4057,-77.8001 348.6034,-73.7795 353.7589,-83.0354 358.4057,-77.8001"/>
</g>
<!-- Node17 -->
<g id="node18" class="node">
<title>Node17</title>
<g id="a_node18"><a xlink:href="ar_image_proc_8h.html" target="_top" xlink:title="artoolkitX functions for 2D luminance image processing. ">
<polygon fill="#ffffff" stroke="#000000" points="406.2021,-55.5 406.2021,-73.5 527.7979,-73.5 527.7979,-55.5 406.2021,-55.5"/>
<text text-anchor="middle" x="467" y="-61.5" font-family="Helvetica,sans-Serif" font-size="10.00" fill="#000000">ARX/AR/arImageProc.h</text>
</a>
</g>
</g>
<!-- Node1&#45;&gt;Node17 -->
<g id="edge22" class="edge">
<title>Node1&#45;&gt;Node17</title>
<path fill="none" stroke="#191970" d="M415.9158,-110.4179C422.3787,-102.2667 434.1868,-90.1201 444.9513,-80.3669"/>
<polygon fill="#191970" stroke="#191970" points="447.2723,-82.9869 452.5138,-73.7795 442.6744,-77.7086 447.2723,-82.9869"/>
</g>
<!-- Node8&#45;&gt;Node2 -->
<g id="edge9" class="edge">
<title>Node8&#45;&gt;Node2</title>
<path fill="none" stroke="#191970" d="M676.0775,-56.13C729.9828,-46.2486 816.9423,-30.0085 864.2552,-18.9623"/>
<polygon fill="#191970" stroke="#191970" points="865.0962,-22.3599 874.0009,-16.6192 863.4598,-15.5539 865.0962,-22.3599"/>
</g>
<!-- Node8&#45;&gt;Node3 -->
<g id="edge10" class="edge">
<title>Node8&#45;&gt;Node3</title>
<path fill="none" stroke="#191970" d="M664.3574,-55.4364C696.5352,-46.9064 746.2082,-33.6337 798.1431,-19.207"/>
<polygon fill="#191970" stroke="#191970" points="799.1684,-22.5547 807.8631,-16.5006 797.2907,-15.8112 799.1684,-22.5547"/>
</g>
<!-- Node8&#45;&gt;Node5 -->
<g id="edge11" class="edge">
<title>Node8&#45;&gt;Node5</title>
<path fill="none" stroke="#191970" d="M607.2121,-55.4179C584.6393,-46.4215 549.8548,-32.5581 524.4103,-22.4172"/>
<polygon fill="#191970" stroke="#191970" points="525.407,-19.0467 514.8217,-18.5956 522.8153,-25.5493 525.407,-19.0467"/>
</g>
<!-- Node9 -->
<g id="node10" class="node">
<title>Node9</title>
<polygon fill="#ffffff" stroke="#bfbfbf" points="617.9336,-.5 617.9336,-18.5 670.0664,-18.5 670.0664,-.5 617.9336,-.5"/>
<text text-anchor="middle" x="644" y="-6.5" font-family="Helvetica,sans-Serif" font-size="10.00" fill="#000000">stdarg.h</text>
</g>
<!-- Node8&#45;&gt;Node9 -->
<g id="edge12" class="edge">
<title>Node8&#45;&gt;Node9</title>
<path fill="none" stroke="#191970" d="M632.3118,-55.4179C634.1651,-48.1372 636.8297,-37.669 639.1469,-28.5659"/>
<polygon fill="#191970" stroke="#191970" points="642.5629,-29.3338 641.638,-18.7795 635.7792,-27.607 642.5629,-29.3338"/>
</g>
<!-- Node10 -->
<g id="node11" class="node">
<title>Node10</title>
<polygon fill="#ffffff" stroke="#bfbfbf" points="534.2686,-.5 534.2686,-18.5 599.7314,-18.5 599.7314,-.5 534.2686,-.5"/>
<text text-anchor="middle" x="567" y="-6.5" font-family="Helvetica,sans-Serif" font-size="10.00" fill="#000000">sys/errno.h</text>
</g>
<!-- Node8&#45;&gt;Node10 -->
<g id="edge13" class="edge">
<title>Node8&#45;&gt;Node10</title>
<path fill="none" stroke="#191970" d="M619.5968,-55.4179C610.2601,-47.2667 596.3467,-35.1201 585.1749,-25.3669"/>
<polygon fill="#191970" stroke="#191970" points="587.4642,-22.7194 577.6292,-18.7795 582.8606,-27.9927 587.4642,-22.7194"/>
</g>
<!-- Node11 -->
<g id="node12" class="node">
<title>Node11</title>
<g id="a_node12"><a xlink:href="types_8h.html" target="_top" xlink:title="ARX/ARUtil/types.h">
<polygon fill="#ffffff" stroke="#000000" points="687.6528,-.5 687.6528,-18.5 790.3472,-18.5 790.3472,-.5 687.6528,-.5"/>
<text text-anchor="middle" x="739" y="-6.5" font-family="Helvetica,sans-Serif" font-size="10.00" fill="#000000">ARX/ARUtil/types.h</text>
</a>
</g>
</g>
<!-- Node8&#45;&gt;Node11 -->
<g id="edge14" class="edge">
<title>Node8&#45;&gt;Node11</title>
<path fill="none" stroke="#191970" d="M647.9991,-55.4179C665.355,-46.6603 691.8511,-33.2907 711.7846,-23.2326"/>
<polygon fill="#191970" stroke="#191970" points="713.623,-26.2253 720.9741,-18.5956 710.4696,-19.9758 713.623,-26.2253"/>
</g>
<!-- Node12&#45;&gt;Node13 -->
<g id="edge16" class="edge">
<title>Node12&#45;&gt;Node13</title>
<path fill="none" stroke="#191970" d="M67.8902,-55.4179C62.7261,-47.7415 55.1782,-36.5217 48.8363,-27.0945"/>
<polygon fill="#191970" stroke="#191970" points="51.7284,-25.1231 43.2425,-18.7795 45.9203,-29.0303 51.7284,-25.1231"/>
</g>
<!-- Node14&#45;&gt;Node2 -->
<g id="edge18" class="edge">
<title>Node14&#45;&gt;Node2</title>
<path fill="none" stroke="#191970" d="M942.083,-55.4179C934.2354,-47.425 922.616,-35.5903 913.1389,-25.9377"/>
<polygon fill="#191970" stroke="#191970" points="915.6142,-23.463 906.1107,-18.7795 910.6192,-28.3672 915.6142,-23.463"/>
</g>
<!-- Node15 -->
<g id="node16" class="node">
<title>Node15</title>
<g id="a_node16"><a xlink:href="icp_core_8h.html" target="_top" xlink:title="ARX/AR/icpCore.h">
<polygon fill="#ffffff" stroke="#000000" points="937.5962,-.5 937.5962,-18.5 1036.4038,-18.5 1036.4038,-.5 937.5962,-.5"/>
<text text-anchor="middle" x="987" y="-6.5" font-family="Helvetica,sans-Serif" font-size="10.00" fill="#000000">ARX/AR/icpCore.h</text>
</a>
</g>
</g>
<!-- Node14&#45;&gt;Node15 -->
<g id="edge19" class="edge">
<title>Node14&#45;&gt;Node15</title>
<path fill="none" stroke="#191970" d="M956.9447,-55.4179C961.9174,-47.8207 969.1619,-36.7527 975.2924,-27.3866"/>
<polygon fill="#191970" stroke="#191970" points="978.378,-29.0633 980.9262,-18.7795 972.5211,-25.2297 978.378,-29.0633"/>
</g>
<!-- Node16&#45;&gt;Node1 -->
<g id="edge21" class="edge">
<title>Node16&#45;&gt;Node1</title>
<path fill="none" stroke="#191970" d="M358.7454,-73.5956C370.7668,-81.7207 386.4911,-93.8078 397.8781,-103.5396"/>
<polygon fill="#191970" stroke="#191970" points="395.8102,-106.3845 405.6072,-110.4179 400.4637,-101.1553 395.8102,-106.3845"/>
</g>
<!-- Node17&#45;&gt;Node1 -->
<g id="edge24" class="edge">
<title>Node17&#45;&gt;Node1</title>
<path fill="none" stroke="#191970" d="M462.9273,-73.7795C456.4425,-81.9147 444.766,-93.9177 434.1026,-103.5841"/>
<polygon fill="#191970" stroke="#191970" points="431.4952,-101.2134 426.2485,-110.4179 436.09,-106.4943 431.4952,-101.2134"/>
</g>
<!-- Node17&#45;&gt;Node6 -->
<g id="edge23" class="edge">
<title>Node17&#45;&gt;Node6</title>
<path fill="none" stroke="#191970" d="M446.5239,-55.4179C426.4206,-46.5011 395.5378,-32.803 372.7313,-22.6873"/>
<polygon fill="#191970" stroke="#191970" points="374.0668,-19.4508 363.5065,-18.5956 371.2285,-25.8496 374.0668,-19.4508"/>
</g>
<!-- Node20 -->
<g id="node21" class="node">
<title>Node20</title>
<g id="a_node21"><a xlink:href="config_8h.html" target="_top" xlink:title="ARX/AR2/config.h">
<polygon fill="#ffffff" stroke="#000000" points="538.7021,-110.5 538.7021,-128.5 635.2979,-128.5 635.2979,-110.5 538.7021,-110.5"/>
<text text-anchor="middle" x="587" y="-116.5" font-family="Helvetica,sans-Serif" font-size="10.00" fill="#000000">ARX/AR2/config.h</text>
</a>
</g>
</g>
<!-- Node19&#45;&gt;Node20 -->
<g id="edge31" class="edge">
<title>Node19&#45;&gt;Node20</title>
<path fill="none" stroke="#191970" d="M679.7579,-275.2026C681.0286,-253.8114 681.4652,-200.2423 658,-165 648.7705,-151.1382 633.7251,-140.6117 619.8545,-133.1934"/>
<polygon fill="#191970" stroke="#191970" points="621.0375,-129.8727 610.5254,-128.5513 617.9191,-136.1397 621.0375,-129.8727"/>
</g>
<!-- Node19&#45;&gt;Node21 -->
<g id="edge32" class="edge">
<title>Node19&#45;&gt;Node21</title>
<path fill="none" stroke="#191970" d="M667.5746,-275.3834C650.6401,-262.1326 617.5798,-237.2544 587,-220 564.6138,-207.3688 538.0522,-195.7099 517.5097,-187.3566"/>
<polygon fill="#191970" stroke="#191970" points="518.5379,-183.9983 507.9533,-183.5317 515.9367,-190.497 518.5379,-183.9983"/>
</g>
<!-- Node19&#45;&gt;Node22 -->
<g id="edge35" class="edge">
<title>Node19&#45;&gt;Node22</title>
<path fill="none" stroke="#191970" d="M652.7444,-275.4179C626.197,-266.2348 584.9898,-251.9807 555.5319,-241.7909"/>
<polygon fill="#191970" stroke="#191970" points="556.6251,-238.4656 546.0304,-238.5042 554.3367,-245.081 556.6251,-238.4656"/>
</g>
<!-- Node21&#45;&gt;Node1 -->
<g id="edge33" class="edge">
<title>Node21&#45;&gt;Node1</title>
<path fill="none" stroke="#191970" d="M472.1107,-165.4179C461.3365,-157.1876 445.2298,-144.8839 432.4003,-135.0836"/>
<polygon fill="#191970" stroke="#191970" points="434.219,-132.0685 424.1477,-128.7795 429.9697,-137.6313 434.219,-132.0685"/>
</g>
<!-- Node21&#45;&gt;Node20 -->
<g id="edge34" class="edge">
<title>Node21&#45;&gt;Node20</title>
<path fill="none" stroke="#191970" d="M501.0084,-165.4179C517.3343,-156.7001 542.219,-143.4122 561.0254,-133.3699"/>
<polygon fill="#191970" stroke="#191970" points="562.7938,-136.3934 569.9664,-128.5956 559.4966,-130.2186 562.7938,-136.3934"/>
</g>
<!-- Node22&#45;&gt;Node20 -->
<g id="edge36" class="edge">
<title>Node22&#45;&gt;Node20</title>
<path fill="none" stroke="#191970" d="M540.1518,-220.4839C554.4624,-212.9277 572.7206,-200.6859 582,-184 589.6764,-170.1966 590.428,-152.0953 589.5462,-138.5831"/>
<polygon fill="#191970" stroke="#191970" points="593.0164,-138.1088 588.5376,-128.5072 586.0512,-138.8061 593.0164,-138.1088"/>
</g>
<!-- Node22&#45;&gt;Node21 -->
<g id="edge37" class="edge">
<title>Node22&#45;&gt;Node21</title>
<path fill="none" stroke="#191970" d="M514.0553,-220.4179C509.0826,-212.8207 501.8381,-201.7527 495.7076,-192.3866"/>
<polygon fill="#191970" stroke="#191970" points="498.4789,-190.2297 490.0738,-183.7795 492.622,-194.0633 498.4789,-190.2297"/>
</g>
<!-- Node23&#45;&gt;Node1 -->
<g id="edge41" class="edge">
<title>Node23&#45;&gt;Node1</title>
<path fill="none" stroke="#191970" d="M413.9138,-275.4274C381.7293,-261.3603 324.6684,-230.9198 301,-184 285.631,-153.5327 328.3485,-136.4377 365.1704,-127.6177"/>
<polygon fill="#191970" stroke="#191970" points="366.3498,-130.9406 375.3466,-125.3451 364.8241,-124.1088 366.3498,-130.9406"/>
</g>
<!-- Node23&#45;&gt;Node20 -->
<g id="edge42" class="edge">
<title>Node23&#45;&gt;Node20</title>
<path fill="none" stroke="#191970" d="M436.7372,-275.3782C436.8395,-261.6658 439.0349,-235.6808 453,-220 483.306,-185.9707 514.1061,-213.3063 549,-184 563.5755,-171.7585 573.9108,-152.4138 580.0872,-138.0996"/>
<polygon fill="#191970" stroke="#191970" points="583.3675,-139.323 583.8506,-128.7391 576.8728,-136.7116 583.3675,-139.323"/>
</g>
<!-- Node23&#45;&gt;Node21 -->
<g id="edge43" class="edge">
<title>Node23&#45;&gt;Node21</title>
<path fill="none" stroke="#191970" d="M430.5946,-275.287C422.4587,-262.3456 410.5475,-238.3179 420,-220 427.0428,-206.3517 440.2811,-195.9043 452.8981,-188.4837"/>
<polygon fill="#191970" stroke="#191970" points="454.7566,-191.4573 461.8779,-183.6127 451.419,-185.3042 454.7566,-191.4573"/>
</g>
<!-- Node23&#45;&gt;Node22 -->
<g id="edge44" class="edge">
<title>Node23&#45;&gt;Node22</title>
<path fill="none" stroke="#191970" d="M450.7058,-275.4179C463.4411,-266.9788 482.6395,-254.257 497.6012,-244.3426"/>
<polygon fill="#191970" stroke="#191970" points="499.8713,-247.037 506.2739,-238.5956 496.0046,-241.2019 499.8713,-247.037"/>
</g>
<!-- Node24&#45;&gt;Node1 -->
<g id="edge48" class="edge">
<title>Node24&#45;&gt;Node1</title>
<path fill="none" stroke="#191970" d="M475.1587,-330.4553C433.7669,-321.7494 377.2257,-307.8925 359,-294 313.657,-259.4373 308.2189,-238.945 293,-184 290.7459,-175.862 288.2124,-171.9561 293,-165 301.7315,-152.3136 336.1768,-139.9655 365.7768,-131.3416"/>
<polygon fill="#191970" stroke="#191970" points="366.9168,-134.6565 375.5851,-128.5647 365.0099,-127.9213 366.9168,-134.6565"/>
</g>
<!-- Node24&#45;&gt;Node14 -->
<g id="edge49" class="edge">
<title>Node24&#45;&gt;Node14</title>
<path fill="none" stroke="#191970" d="M574.6207,-333.7399C670.9853,-321.7194 866,-289.9283 866,-229.5 866,-229.5 866,-229.5 866,-174.5 866,-133.4809 903.466,-98.4424 928.6499,-79.5235"/>
<polygon fill="#191970" stroke="#191970" points="930.9052,-82.2121 936.964,-73.5206 926.8075,-76.5368 930.9052,-82.2121"/>
</g>
<!-- Node24&#45;&gt;Node20 -->
<g id="edge50" class="edge">
<title>Node24&#45;&gt;Node20</title>
<path fill="none" stroke="#191970" d="M529.4935,-330.4394C543.072,-313.5504 571.7475,-275.6404 587,-239 596.6152,-215.9019 596.3179,-208.8753 599,-184 599.9053,-175.6042 600.0857,-173.3744 599,-165 597.8461,-156.0996 595.4726,-146.459 593.1388,-138.3525"/>
<polygon fill="#191970" stroke="#191970" points="596.4784,-137.3047 590.1996,-128.7708 589.7862,-139.3576 596.4784,-137.3047"/>
</g>
<!-- Node24&#45;&gt;Node22 -->
<g id="edge51" class="edge">
<title>Node24&#45;&gt;Node22</title>
<path fill="none" stroke="#191970" d="M521.8363,-330.4982C521.5126,-312.6913 520.784,-272.6225 520.3482,-248.6515"/>
<polygon fill="#191970" stroke="#191970" points="523.8472,-248.5608 520.1659,-238.6261 516.8484,-248.6882 523.8472,-248.5608"/>
</g>
<!-- Node24&#45;&gt;Node23 -->
<g id="edge52" class="edge">
<title>Node24&#45;&gt;Node23</title>
<path fill="none" stroke="#191970" d="M507.964,-330.4179C494.7987,-321.8992 474.8892,-309.0166 459.506,-299.0627"/>
<polygon fill="#191970" stroke="#191970" points="461.354,-296.0897 451.0569,-293.5956 457.5512,-301.9667 461.354,-296.0897"/>
</g>
<!-- Node25 -->
<g id="node26" class="node">
<title>Node25</title>
<g id="a_node26"><a xlink:href="thread__sub_8h.html" target="_top" xlink:title="ARX/ARUtil/thread_sub.h">
<polygon fill="#ffffff" stroke="#000000" points="709.584,-220.5 709.584,-238.5 838.416,-238.5 838.416,-220.5 709.584,-220.5"/>
<text text-anchor="middle" x="774" y="-226.5" font-family="Helvetica,sans-Serif" font-size="10.00" fill="#000000">ARX/ARUtil/thread_sub.h</text>
</a>
</g>
</g>
<!-- Node24&#45;&gt;Node25 -->
<g id="edge46" class="edge">
<title>Node24&#45;&gt;Node25</title>
<path fill="none" stroke="#191970" d="M574.4709,-333.1304C628.9394,-325.6819 709.6638,-312.0384 735,-294 750.7835,-282.7628 761.3556,-262.9481 767.4647,-248.2369"/>
<polygon fill="#191970" stroke="#191970" points="770.8383,-249.213 771.135,-238.6224 764.2987,-246.7165 770.8383,-249.213"/>
</g>
<!-- Node26 -->
<g id="node27" class="node">
<title>Node26</title>
<g id="a_node27"><a xlink:href="marker_8h.html" target="_top" xlink:title="ARX/AR2/marker.h">
<polygon fill="#ffffff" stroke="#000000" points="309.7612,-165.5 309.7612,-183.5 410.2388,-183.5 410.2388,-165.5 309.7612,-165.5"/>
<text text-anchor="middle" x="360" y="-171.5" font-family="Helvetica,sans-Serif" font-size="10.00" fill="#000000">ARX/AR2/marker.h</text>
</a>
</g>
</g>
<!-- Node24&#45;&gt;Node26 -->
<g id="edge53" class="edge">
<title>Node24&#45;&gt;Node26</title>
<path fill="none" stroke="#191970" d="M473.1468,-330.4438C435.1746,-322.3625 386.8613,-309.4385 374,-294 350.3578,-265.6201 352.6974,-219.4293 356.4055,-193.5745"/>
<polygon fill="#191970" stroke="#191970" points="359.8837,-193.9929 358.0618,-183.5559 352.9775,-192.8511 359.8837,-193.9929"/>
</g>
<!-- Node25&#45;&gt;Node11 -->
<g id="edge47" class="edge">
<title>Node25&#45;&gt;Node11</title>
<path fill="none" stroke="#191970" d="M773.2068,-220.3505C770.8613,-194.3159 763.3408,-117.6608 751,-55 749.2852,-46.2932 746.8651,-36.7833 744.647,-28.7194"/>
<polygon fill="#191970" stroke="#191970" points="747.9364,-27.4907 741.8327,-18.8307 741.2037,-29.4068 747.9364,-27.4907"/>
</g>
<!-- Node26&#45;&gt;Node1 -->
<g id="edge54" class="edge">
<title>Node26&#45;&gt;Node1</title>
<path fill="none" stroke="#191970" d="M368.5867,-165.4179C376.0688,-157.5041 387.1116,-145.8243 396.1872,-136.2251"/>
<polygon fill="#191970" stroke="#191970" points="398.8998,-138.4505 403.2267,-128.7795 393.8133,-133.6414 398.8998,-138.4505"/>
</g>
<!-- Node26&#45;&gt;Node20 -->
<g id="edge55" class="edge">
<title>Node26&#45;&gt;Node20</title>
<path fill="none" stroke="#191970" d="M397.2302,-165.4795C436.2392,-156.0279 497.6194,-141.1561 539.9558,-130.8984"/>
<polygon fill="#191970" stroke="#191970" points="540.8548,-134.2819 549.7494,-128.5255 539.2064,-127.4787 540.8548,-134.2819"/>
</g>
</g>
</svg>
