<?xml version="1.0" encoding="UTF-8" standalone="no"?>
<!DOCTYPE svg PUBLIC "-//W3C//DTD SVG 1.1//EN"
 "http://www.w3.org/Graphics/SVG/1.1/DTD/svg11.dtd">
<!-- Generated by graphviz version 8.0.5 (20230430.1635)
 -->
<!-- Title: ar2Tracking2d Pages: 1 -->
<svg width="209pt" height="138pt"
 viewBox="0.00 0.00 208.75 138.25" xmlns="http://www.w3.org/2000/svg" xmlns:xlink="http://www.w3.org/1999/xlink">
<g id="graph0" class="graph" transform="scale(1 1) rotate(0) translate(4 134.25)">
<title>ar2Tracking2d</title>
<!-- Node1 -->
<g id="node1" class="node">
<title>Node1</title>
<g id="a_node1"><a xlink:title=" ">
<polygon fill="#999999" stroke="#666666" points="77.5,-74.25 0,-74.25 0,-55 77.5,-55 77.5,-74.25"/>
<text text-anchor="middle" x="38.75" y="-60.75" font-family="Helvetica,sans-Serif" font-size="10.00">ar2Tracking2d</text>
</a>
</g>
</g>
<!-- Node2 -->
<g id="node2" class="node">
<title>Node2</title>
<g id="a_node2"><a xlink:href="thread__sub_8c.html#af58a71c0bcff9b2a937faa3995191544" target="_top" xlink:title=" ">
<polygon fill="white" stroke="#666666" points="200.75,-130.25 113.5,-130.25 113.5,-111 200.75,-111 200.75,-130.25"/>
<text text-anchor="middle" x="157.12" y="-116.75" font-family="Helvetica,sans-Serif" font-size="10.00">threadEndSignal</text>
</a>
</g>
</g>
<!-- Node1&#45;&gt;Node2 -->
<g id="edge1" class="edge">
<title>Node1&#45;&gt;Node2</title>
<path fill="none" stroke="#63b8ff" d="M58.35,-74.71C73.14,-82.61 94.45,-93.71 113.5,-102.62 116.14,-103.86 118.88,-105.1 121.65,-106.33"/>
<polygon fill="#63b8ff" stroke="#63b8ff" points="120.07,-109.9 130.64,-110.66 122.86,-103.47 120.07,-109.9"/>
</g>
<!-- Node3 -->
<g id="node3" class="node">
<title>Node3</title>
<g id="a_node3"><a xlink:href="thread__sub_8c.html#ab1ebf9af7775dc9d0d4bc685875635e2" target="_top" xlink:title=" ">
<polygon fill="white" stroke="#666666" points="194,-93.25 120.25,-93.25 120.25,-74 194,-74 194,-93.25"/>
<text text-anchor="middle" x="157.12" y="-79.75" font-family="Helvetica,sans-Serif" font-size="10.00">threadGetArg</text>
</a>
</g>
</g>
<!-- Node1&#45;&gt;Node3 -->
<g id="edge2" class="edge">
<title>Node1&#45;&gt;Node3</title>
<path fill="none" stroke="#63b8ff" d="M77.86,-70.85C87.89,-72.48 98.84,-74.27 109.28,-75.98"/>
<polygon fill="#63b8ff" stroke="#63b8ff" points="108.48,-79.56 118.91,-77.71 109.61,-72.65 108.48,-79.56"/>
</g>
<!-- Node4 -->
<g id="node4" class="node">
<title>Node4</title>
<g id="a_node4"><a xlink:href="thread__sub_8c.html#aaf3a39e032c7a0e49decb1ac9e09694c" target="_top" xlink:title=" ">
<polygon fill="white" stroke="#666666" points="191.75,-56.25 122.5,-56.25 122.5,-37 191.75,-37 191.75,-56.25"/>
<text text-anchor="middle" x="157.12" y="-42.75" font-family="Helvetica,sans-Serif" font-size="10.00">threadGetID</text>
</a>
</g>
</g>
<!-- Node1&#45;&gt;Node4 -->
<g id="edge3" class="edge">
<title>Node1&#45;&gt;Node4</title>
<path fill="none" stroke="#63b8ff" d="M77.86,-58.73C88.59,-57.07 100.37,-55.25 111.46,-53.53"/>
<polygon fill="#63b8ff" stroke="#63b8ff" points="111.9,-56.85 121.25,-51.86 110.83,-49.93 111.9,-56.85"/>
</g>
<!-- Node5 -->
<g id="node5" class="node">
<title>Node5</title>
<g id="a_node5"><a xlink:href="thread__sub_8c.html#abcc032997f382b4c0790df62727dd14c" target="_top" xlink:title=" ">
<polygon fill="white" stroke="#666666" points="198.88,-19.25 115.38,-19.25 115.38,0 198.88,0 198.88,-19.25"/>
<text text-anchor="middle" x="157.12" y="-5.75" font-family="Helvetica,sans-Serif" font-size="10.00">threadStartWait</text>
</a>
</g>
</g>
<!-- Node1&#45;&gt;Node5 -->
<g id="edge4" class="edge">
<title>Node1&#45;&gt;Node5</title>
<path fill="none" stroke="#63b8ff" d="M58.99,-54.54C73.78,-46.89 94.77,-36.27 113.5,-27.62 116.14,-26.41 118.89,-25.17 121.67,-23.95"/>
<polygon fill="#63b8ff" stroke="#63b8ff" points="122.87,-26.81 130.66,-19.63 120.09,-20.38 122.87,-26.81"/>
</g>
</g>
</svg>
