<?xml version="1.0" encoding="UTF-8" standalone="no"?>
<!DOCTYPE svg PUBLIC "-//W3C//DTD SVG 1.1//EN"
 "http://www.w3.org/Graphics/SVG/1.1/DTD/svg11.dtd">
<!-- Generated by graphviz version 7.0.5 (20221223.1930)
 -->
<!-- Title: Source/ARX/ARUtil/unzip.h Pages: 1 -->
<svg width="265pt" height="137pt"
 viewBox="0.00 0.00 264.50 137.00" xmlns="http://www.w3.org/2000/svg" xmlns:xlink="http://www.w3.org/1999/xlink">
<g id="graph0" class="graph" transform="scale(1 1) rotate(0) translate(4 133)">
<title>Source/ARX/ARUtil/unzip.h</title>
<!-- Node1 -->
<g id="node1" class="node">
<title>Node1</title>
<g id="a_node1"><a xlink:title=" ">
<polygon fill="#999999" stroke="#666666" points="138,-129 0,-129 0,-110 138,-110 138,-129"/>
<text text-anchor="middle" x="69" y="-117" font-family="Helvetica,sans-Serif" font-size="10.00">Source/ARX/ARUtil/unzip.h</text>
</a>
</g>
</g>
<!-- Node2 -->
<g id="node2" class="node">
<title>Node2</title>
<g id="a_node2"><a xlink:title=" ">
<polygon fill="#e0e0e0" stroke="#999999" points="59,-19 19,-19 19,0 59,0 59,-19"/>
<text text-anchor="middle" x="39" y="-7" font-family="Helvetica,sans-Serif" font-size="10.00">zlib.h</text>
</a>
</g>
</g>
<!-- Node1&#45;&gt;Node2 -->
<g id="edge1" class="edge">
<title>Node1&#45;&gt;Node2</title>
<path fill="none" stroke="#63b8ff" d="M66.54,-109.66C61.75,-92.42 51.06,-53.9 44.49,-30.27"/>
<polygon fill="#63b8ff" stroke="#63b8ff" points="47.94,-29.62 41.89,-20.92 41.2,-31.49 47.94,-29.62"/>
</g>
<!-- Node3 -->
<g id="node3" class="node">
<title>Node3</title>
<g id="a_node3"><a xlink:href="ioapi_8h.html" target="_top" xlink:title=" ">
<polygon fill="white" stroke="#666666" points="122.5,-74 77.5,-74 77.5,-55 122.5,-55 122.5,-74"/>
<text text-anchor="middle" x="100" y="-62" font-family="Helvetica,sans-Serif" font-size="10.00">ioapi.h</text>
</a>
</g>
</g>
<!-- Node1&#45;&gt;Node3 -->
<g id="edge2" class="edge">
<title>Node1&#45;&gt;Node3</title>
<path fill="none" stroke="#63b8ff" d="M74.12,-109.75C78.18,-102.81 83.99,-92.86 89.09,-84.16"/>
<polygon fill="#63b8ff" stroke="#63b8ff" points="91.98,-86.15 94.01,-75.75 85.94,-82.61 91.98,-86.15"/>
</g>
<!-- Node3&#45;&gt;Node2 -->
<g id="edge6" class="edge">
<title>Node3&#45;&gt;Node2</title>
<path fill="none" stroke="#63b8ff" d="M89.65,-54.51C80.92,-46.93 68.21,-35.88 57.7,-26.75"/>
<polygon fill="#63b8ff" stroke="#63b8ff" points="60.18,-24.27 50.34,-20.35 55.59,-29.55 60.18,-24.27"/>
</g>
<!-- Node4 -->
<g id="node4" class="node">
<title>Node4</title>
<g id="a_node4"><a xlink:title=" ">
<polygon fill="#e0e0e0" stroke="#999999" points="123,-19 77,-19 77,0 123,0 123,-19"/>
<text text-anchor="middle" x="100" y="-7" font-family="Helvetica,sans-Serif" font-size="10.00">stdio.h</text>
</a>
</g>
</g>
<!-- Node3&#45;&gt;Node4 -->
<g id="edge3" class="edge">
<title>Node3&#45;&gt;Node4</title>
<path fill="none" stroke="#63b8ff" d="M100,-54.75C100,-48.27 100,-39.16 100,-30.9"/>
<polygon fill="#63b8ff" stroke="#63b8ff" points="103.5,-30.96 100,-20.96 96.5,-30.96 103.5,-30.96"/>
</g>
<!-- Node5 -->
<g id="node5" class="node">
<title>Node5</title>
<g id="a_node5"><a xlink:title=" ">
<polygon fill="#e0e0e0" stroke="#999999" points="189,-19 141,-19 141,0 189,0 189,-19"/>
<text text-anchor="middle" x="165" y="-7" font-family="Helvetica,sans-Serif" font-size="10.00">stdlib.h</text>
</a>
</g>
</g>
<!-- Node3&#45;&gt;Node5 -->
<g id="edge4" class="edge">
<title>Node3&#45;&gt;Node5</title>
<path fill="none" stroke="#63b8ff" d="M111.03,-54.51C120.42,-46.85 134.15,-35.66 145.41,-26.47"/>
<polygon fill="#63b8ff" stroke="#63b8ff" points="147.43,-29.35 152.96,-20.31 143,-23.92 147.43,-29.35"/>
</g>
<!-- Node6 -->
<g id="node6" class="node">
<title>Node6</title>
<g id="a_node6"><a xlink:title=" ">
<polygon fill="#e0e0e0" stroke="#999999" points="256.5,-19 207.5,-19 207.5,0 256.5,0 256.5,-19"/>
<text text-anchor="middle" x="232" y="-7" font-family="Helvetica,sans-Serif" font-size="10.00">stdint.h</text>
</a>
</g>
</g>
<!-- Node3&#45;&gt;Node6 -->
<g id="edge5" class="edge">
<title>Node3&#45;&gt;Node6</title>
<path fill="none" stroke="#63b8ff" d="M122.39,-54.51C143.57,-46.01 175.59,-33.15 199.56,-23.53"/>
<polygon fill="#63b8ff" stroke="#63b8ff" points="200.56,-26.9 208.53,-19.92 197.95,-20.4 200.56,-26.9"/>
</g>
</g>
</svg>
