<?xml version="1.0" encoding="UTF-8" standalone="no"?>
<!DOCTYPE svg PUBLIC "-//W3C//DTD SVG 1.1//EN"
 "http://www.w3.org/Graphics/SVG/1.1/DTD/svg11.dtd">
<!-- Generated by graphviz version 2.40.1 (20161225.0304)
 -->
<!-- Title: /Users/phil/r/artoolkitx/Source/ARX/ARUtil/unzip.h Pages: 1 -->
<svg width="286pt" height="112pt"
 viewBox="0.00 0.00 285.93 112.00" xmlns="http://www.w3.org/2000/svg" xmlns:xlink="http://www.w3.org/1999/xlink">
<g id="graph0" class="graph" transform="scale(1 1) rotate(0) translate(4 108)">
<title>/Users/phil/r/artoolkitx/Source/ARX/ARUtil/unzip.h</title>
<polygon fill="#ffffff" stroke="transparent" points="-4,4 -4,-108 281.9282,-108 281.9282,4 -4,4"/>
<!-- Node6 -->
<g id="node1" class="node">
<title>Node6</title>
<polygon fill="#bfbfbf" stroke="#000000" points="64.2686,-75.5 64.2686,-103.5 204.209,-103.5 204.209,-75.5 64.2686,-75.5"/>
<text text-anchor="start" x="72.2686" y="-91.5" font-family="Helvetica,sans-Serif" font-size="10.00" fill="#000000">/Users/phil/r/artoolkitx</text>
<text text-anchor="middle" x="134.2388" y="-81.5" font-family="Helvetica,sans-Serif" font-size="10.00" fill="#000000">/Source/ARX/ARUtil/unzip.h</text>
</g>
<!-- Node7 -->
<g id="node2" class="node">
<title>Node7</title>
<g id="a_node2"><a xlink:href="file__utils_8c.html" target="_top" xlink:title="/Users/phil/r/artoolkitx\l/Source/ARX/ARUtil/file\l_utils.c">
<polygon fill="#ffffff" stroke="#000000" points="0,-.5 0,-38.5 120.4775,-38.5 120.4775,-.5 0,-.5"/>
<text text-anchor="start" x="8" y="-26.5" font-family="Helvetica,sans-Serif" font-size="10.00" fill="#000000">/Users/phil/r/artoolkitx</text>
<text text-anchor="start" x="8" y="-16.5" font-family="Helvetica,sans-Serif" font-size="10.00" fill="#000000">/Source/ARX/ARUtil/file</text>
<text text-anchor="middle" x="60.2388" y="-6.5" font-family="Helvetica,sans-Serif" font-size="10.00" fill="#000000">_utils.c</text>
</a>
</g>
</g>
<!-- Node6&#45;&gt;Node7 -->
<g id="edge1" class="edge">
<title>Node6&#45;&gt;Node7</title>
<path fill="none" stroke="#191970" d="M111.7167,-68.1954C101.7787,-58.7945 90.1861,-47.8285 80.5208,-38.6857"/>
<polygon fill="#191970" stroke="#191970" points="109.5938,-71.0051 119.2638,-75.3345 114.4043,-65.9198 109.5938,-71.0051"/>
</g>
<!-- Node8 -->
<g id="node3" class="node">
<title>Node8</title>
<g id="a_node3"><a xlink:href="unzip_8c.html" target="_top" xlink:title="/Users/phil/r/artoolkitx\l/Source/ARX/ARUtil/unzip.c">
<polygon fill="#ffffff" stroke="#000000" points="138.5493,-5.5 138.5493,-33.5 277.9282,-33.5 277.9282,-5.5 138.5493,-5.5"/>
<text text-anchor="start" x="146.5493" y="-21.5" font-family="Helvetica,sans-Serif" font-size="10.00" fill="#000000">/Users/phil/r/artoolkitx</text>
<text text-anchor="middle" x="208.2388" y="-11.5" font-family="Helvetica,sans-Serif" font-size="10.00" fill="#000000">/Source/ARX/ARUtil/unzip.c</text>
</a>
</g>
</g>
<!-- Node6&#45;&gt;Node8 -->
<g id="edge2" class="edge">
<title>Node6&#45;&gt;Node8</title>
<path fill="none" stroke="#191970" d="M156.6089,-68.3391C168.4856,-57.1043 182.7596,-43.6019 193.286,-33.6445"/>
<polygon fill="#191970" stroke="#191970" points="154.0733,-65.9198 149.2138,-75.3345 158.8837,-71.0051 154.0733,-65.9198"/>
</g>
</g>
</svg>
