<?xml version="1.0" encoding="UTF-8" standalone="no"?>
<!DOCTYPE svg PUBLIC "-//W3C//DTD SVG 1.1//EN"
 "http://www.w3.org/Graphics/SVG/1.1/DTD/svg11.dtd">
<!-- Generated by graphviz version 8.0.5 (20230430.1635)
 -->
<!-- Title: Source/ARX/ARUtil/unzip.c Pages: 1 -->
<!--zoomable 193 -->
<svg id="main" version="1.1" xmlns="http://www.w3.org/2000/svg" xmlns:xlink="http://www.w3.org/1999/xlink" xml:space="preserve" onload="init(evt)">
<style type="text/css"><![CDATA[
.edge:hover path { stroke: red; }
.edge:hover polygon { stroke: red; fill: red; }
]]></style>
<script type="text/javascript"><![CDATA[
var edges = document.getElementsByTagName('g');
if (edges && edges.length) {
  for (var i=0;i<edges.length;i++) {
    if (edges[i].id.substr(0,4)=='edge') {
      edges[i].setAttribute('class','edge');
    }
  }
}
]]></script>
        <defs>
                <circle id="rim" cx="0" cy="0" r="7"/>
                <circle id="rim2" cx="0" cy="0" r="3.5"/>
                <g id="zoomPlus">
                        <use xlink:href="#rim" fill="#404040">
                                <set attributeName="fill" to="#808080" begin="zoomplus.mouseover" end="zoomplus.mouseout"/>
                        </use>
                        <path d="M-4,0h8M0,-4v8" fill="none" stroke="white" stroke-width="1.5" pointer-events="none"/>
                </g>
                <g id="zoomMin">
                        <use xlink:href="#rim" fill="#404040">
                                <set attributeName="fill" to="#808080" begin="zoomminus.mouseover" end="zoomminus.mouseout"/>
                        </use>
                        <path d="M-4,0h8" fill="none" stroke="white" stroke-width="1.5" pointer-events="none"/>
                </g>
                <g id="dirArrow">
                        <path fill="none" stroke="white" stroke-width="1.5" d="M0,-3.0v7 M-2.5,-0.5L0,-3.0L2.5,-0.5"/>
                </g>
               <g id="resetDef">
                       <use xlink:href="#rim2" fill="#404040">
                               <set attributeName="fill" to="#808080" begin="reset.mouseover" end="reset.mouseout"/>
                       </use>
               </g>
        </defs>

<script type="text/javascript">
var viewWidth = 507;
var viewHeight = 193;
var sectionId = 'dynsection-0';
</script>
<script xlink:href="svgpan.js"/>
<svg id="graph" class="graph">
<g id="viewport">
<title>Source/ARX/ARUtil/unzip.c</title>
<!-- Node1 -->
<g id="node1" class="node">
<title>Node1</title>
<g id="a_node1"><a xlink:title=" ">
<polygon fill="#999999" stroke="#666666" points="297.38,-185 159.88,-185 159.88,-165.75 297.38,-165.75 297.38,-185"/>
<text text-anchor="middle" x="228.62" y="-171.5" font-family="Helvetica,sans-Serif" font-size="10.00">Source/ARX/ARUtil/unzip.c</text>
</a>
</g>
</g>
<!-- Node2 -->
<g id="node2" class="node">
<title>Node2</title>
<g id="a_node2"><a xlink:title=" ">
<polygon fill="#e0e0e0" stroke="#999999" points="45.25,-19.25 0,-19.25 0,0 45.25,0 45.25,-19.25"/>
<text text-anchor="middle" x="22.62" y="-5.75" font-family="Helvetica,sans-Serif" font-size="10.00">stdio.h</text>
</a>
</g>
</g>
<!-- Node1&#45;&gt;Node2 -->
<g id="edge1" class="edge">
<title>Node1&#45;&gt;Node2</title>
<path fill="none" stroke="#63b8ff" d="M170.76,-165.31C144.43,-158.88 114.18,-148 91.62,-129.75 58.61,-103.03 38.18,-56.01 28.78,-29.74"/>
<polygon fill="#63b8ff" stroke="#63b8ff" points="31.85,-28.92 25.32,-20.58 25.22,-31.17 31.85,-28.92"/>
</g>
<!-- Node3 -->
<g id="node3" class="node">
<title>Node3</title>
<g id="a_node3"><a xlink:title=" ">
<polygon fill="#e0e0e0" stroke="#999999" points="180.38,-19.25 132.88,-19.25 132.88,0 180.38,0 180.38,-19.25"/>
<text text-anchor="middle" x="156.62" y="-5.75" font-family="Helvetica,sans-Serif" font-size="10.00">stdlib.h</text>
</a>
</g>
</g>
<!-- Node1&#45;&gt;Node3 -->
<g id="edge2" class="edge">
<title>Node1&#45;&gt;Node3</title>
<path fill="none" stroke="#63b8ff" d="M224.75,-165.57C213.47,-139.92 180.45,-64.8 164.9,-29.44"/>
<polygon fill="#63b8ff" stroke="#63b8ff" points="167.74,-28.22 160.52,-20.47 161.34,-31.04 167.74,-28.22"/>
</g>
<!-- Node4 -->
<g id="node4" class="node">
<title>Node4</title>
<g id="a_node4"><a xlink:title=" ">
<polygon fill="#e0e0e0" stroke="#999999" points="249.75,-19.25 201.5,-19.25 201.5,0 249.75,0 249.75,-19.25"/>
<text text-anchor="middle" x="225.62" y="-5.75" font-family="Helvetica,sans-Serif" font-size="10.00">stdint.h</text>
</a>
</g>
</g>
<!-- Node1&#45;&gt;Node4 -->
<g id="edge3" class="edge">
<title>Node1&#45;&gt;Node4</title>
<path fill="none" stroke="#63b8ff" d="M228.46,-165.57C228,-140.14 226.64,-66.1 225.99,-30.37"/>
<polygon fill="#63b8ff" stroke="#63b8ff" points="229.47,-30.41 225.79,-20.47 222.47,-30.53 229.47,-30.41"/>
</g>
<!-- Node5 -->
<g id="node5" class="node">
<title>Node5</title>
<g id="a_node5"><a xlink:title=" ">
<polygon fill="#e0e0e0" stroke="#999999" points="304.75,-129.75 256.5,-129.75 256.5,-110.5 304.75,-110.5 304.75,-129.75"/>
<text text-anchor="middle" x="280.62" y="-116.25" font-family="Helvetica,sans-Serif" font-size="10.00">string.h</text>
</a>
</g>
</g>
<!-- Node1&#45;&gt;Node5 -->
<g id="edge4" class="edge">
<title>Node1&#45;&gt;Node5</title>
<path fill="none" stroke="#63b8ff" d="M237.21,-165.58C244.54,-158.07 255.3,-147.06 264.27,-137.88"/>
<polygon fill="#63b8ff" stroke="#63b8ff" points="266.37,-140.71 270.85,-131.11 261.36,-135.82 266.37,-140.71"/>
</g>
<!-- Node6 -->
<g id="node6" class="node">
<title>Node6</title>
<g id="a_node6"><a xlink:title=" ">
<polygon fill="#e0e0e0" stroke="#999999" points="370.38,-129.75 322.88,-129.75 322.88,-110.5 370.38,-110.5 370.38,-129.75"/>
<text text-anchor="middle" x="346.62" y="-116.25" font-family="Helvetica,sans-Serif" font-size="10.00">limits.h</text>
</a>
</g>
</g>
<!-- Node1&#45;&gt;Node6 -->
<g id="edge5" class="edge">
<title>Node1&#45;&gt;Node6</title>
<path fill="none" stroke="#63b8ff" d="M248.64,-165.34C267.29,-156.93 295.34,-144.27 316.66,-134.65"/>
<polygon fill="#63b8ff" stroke="#63b8ff" points="317.83,-137.51 325.51,-130.2 314.96,-131.13 317.83,-137.51"/>
</g>
<!-- Node7 -->
<g id="node7" class="node">
<title>Node7</title>
<g id="a_node7"><a xlink:title=" ">
<polygon fill="#e0e0e0" stroke="#999999" points="434.62,-129.75 388.62,-129.75 388.62,-110.5 434.62,-110.5 434.62,-129.75"/>
<text text-anchor="middle" x="411.62" y="-116.25" font-family="Helvetica,sans-Serif" font-size="10.00">errno.h</text>
</a>
</g>
</g>
<!-- Node1&#45;&gt;Node7 -->
<g id="edge6" class="edge">
<title>Node1&#45;&gt;Node7</title>
<path fill="none" stroke="#63b8ff" d="M259.67,-165.34C292.52,-155.78 344.18,-140.75 377.99,-130.91"/>
<polygon fill="#63b8ff" stroke="#63b8ff" points="378.66,-134.07 387.29,-127.92 376.71,-127.35 378.66,-134.07"/>
</g>
<!-- Node8 -->
<g id="node8" class="node">
<title>Node8</title>
<g id="a_node8"><a xlink:title=" ">
<polygon fill="#e0e0e0" stroke="#999999" points="110.25,-19.25 71,-19.25 71,0 110.25,0 110.25,-19.25"/>
<text text-anchor="middle" x="90.62" y="-5.75" font-family="Helvetica,sans-Serif" font-size="10.00">zlib.h</text>
</a>
</g>
</g>
<!-- Node1&#45;&gt;Node8 -->
<g id="edge7" class="edge">
<title>Node1&#45;&gt;Node8</title>
<path fill="none" stroke="#63b8ff" d="M165.31,-165.28C143.22,-158.92 120.31,-148.11 105.62,-129.75 82.82,-101.22 84.21,-55.93 87.35,-30.19"/>
<polygon fill="#63b8ff" stroke="#63b8ff" points="90.92,-30.98 88.89,-20.58 83.99,-29.97 90.92,-30.98"/>
</g>
<!-- Node9 -->
<g id="node9" class="node">
<title>Node9</title>
<g id="a_node9"><a xlink:href="unzip_8h.html" target="_top" xlink:title=" ">
<polygon fill="white" stroke="#666666" points="162.38,-129.75 114.88,-129.75 114.88,-110.5 162.38,-110.5 162.38,-129.75"/>
<text text-anchor="middle" x="138.62" y="-116.25" font-family="Helvetica,sans-Serif" font-size="10.00">unzip.h</text>
</a>
</g>
</g>
<!-- Node1&#45;&gt;Node9 -->
<g id="edge8" class="edge">
<title>Node1&#45;&gt;Node9</title>
<path fill="none" stroke="#63b8ff" d="M213.36,-165.34C199.65,-157.23 179.29,-145.18 163.28,-135.71"/>
<polygon fill="#63b8ff" stroke="#63b8ff" points="165.36,-132.28 154.97,-130.2 161.79,-138.31 165.36,-132.28"/>
</g>
<!-- Node11 -->
<g id="node11" class="node">
<title>Node11</title>
<g id="a_node11"><a xlink:href="crypt_8h.html" target="_top" xlink:title=" ">
<polygon fill="white" stroke="#666666" points="498.62,-129.75 452.62,-129.75 452.62,-110.5 498.62,-110.5 498.62,-129.75"/>
<text text-anchor="middle" x="475.62" y="-116.25" font-family="Helvetica,sans-Serif" font-size="10.00">crypt.h</text>
</a>
</g>
</g>
<!-- Node1&#45;&gt;Node11 -->
<g id="edge15" class="edge">
<title>Node1&#45;&gt;Node11</title>
<path fill="none" stroke="#63b8ff" d="M276.2,-165.33C317.58,-157.28 379.39,-144.81 441.82,-130.08"/>
<polygon fill="#63b8ff" stroke="#63b8ff" points="442.33,-133.32 451.25,-127.6 440.71,-126.51 442.33,-133.32"/>
</g>
<!-- Node9&#45;&gt;Node8 -->
<g id="edge9" class="edge">
<title>Node9&#45;&gt;Node8</title>
<path fill="none" stroke="#63b8ff" d="M131.57,-110.01C125.12,-101.29 115.67,-87.59 109.62,-74.5 103.01,-60.19 98.06,-43.01 94.87,-30.08"/>
<polygon fill="#63b8ff" stroke="#63b8ff" points="98.1,-29.55 92.44,-20.59 91.29,-31.13 98.1,-29.55"/>
</g>
<!-- Node10 -->
<g id="node10" class="node">
<title>Node10</title>
<g id="a_node10"><a xlink:href="ioapi_8h.html" target="_top" xlink:title=" ">
<polygon fill="white" stroke="#666666" points="162.88,-74.5 118.38,-74.5 118.38,-55.25 162.88,-55.25 162.88,-74.5"/>
<text text-anchor="middle" x="140.62" y="-61" font-family="Helvetica,sans-Serif" font-size="10.00">ioapi.h</text>
</a>
</g>
</g>
<!-- Node9&#45;&gt;Node10 -->
<g id="edge10" class="edge">
<title>Node9&#45;&gt;Node10</title>
<path fill="none" stroke="#63b8ff" d="M138.96,-110.33C139.21,-103.67 139.56,-94.24 139.88,-85.78"/>
<polygon fill="#63b8ff" stroke="#63b8ff" points="143.41,-85.98 140.29,-75.86 136.41,-85.72 143.41,-85.98"/>
</g>
<!-- Node10&#45;&gt;Node2 -->
<g id="edge11" class="edge">
<title>Node10&#45;&gt;Node2</title>
<path fill="none" stroke="#63b8ff" d="M120.61,-54.84C101.96,-46.43 73.91,-33.77 52.59,-24.15"/>
<polygon fill="#63b8ff" stroke="#63b8ff" points="54.29,-20.63 43.74,-19.7 51.42,-27.01 54.29,-20.63"/>
</g>
<!-- Node10&#45;&gt;Node3 -->
<g id="edge12" class="edge">
<title>Node10&#45;&gt;Node3</title>
<path fill="none" stroke="#63b8ff" d="M143.27,-55.08C145.32,-48.26 148.23,-38.56 150.82,-29.95"/>
<polygon fill="#63b8ff" stroke="#63b8ff" points="154.4,-31.19 153.93,-20.61 147.7,-29.18 154.4,-31.19"/>
</g>
<!-- Node10&#45;&gt;Node4 -->
<g id="edge13" class="edge">
<title>Node10&#45;&gt;Node4</title>
<path fill="none" stroke="#63b8ff" d="M155.04,-54.84C167.87,-46.81 186.86,-34.91 201.92,-25.48"/>
<polygon fill="#63b8ff" stroke="#63b8ff" points="203.52,-27.98 210.14,-19.7 199.8,-22.05 203.52,-27.98"/>
</g>
<!-- Node10&#45;&gt;Node8 -->
<g id="edge14" class="edge">
<title>Node10&#45;&gt;Node8</title>
<path fill="none" stroke="#63b8ff" d="M132.37,-55.08C125.32,-47.57 114.98,-36.56 106.36,-27.38"/>
<polygon fill="#63b8ff" stroke="#63b8ff" points="109.46,-25.5 100.06,-20.61 104.35,-30.3 109.46,-25.5"/>
</g>
</g>
</svg>
        <g id="navigator" transform="translate(0 0)" fill="#404254">
                <rect fill="#f2f5e9" fill-opacity="0.5" stroke="#606060" stroke-width=".5" x="0" y="0" width="60" height="60"/>
                <use id="zoomplus" xlink:href="#zoomPlus" x="17" y="9" onmousedown="handleZoom(evt,'in')"/>
                <use id="zoomminus" xlink:href="#zoomMin" x="42" y="9" onmousedown="handleZoom(evt,'out')"/>
                <use id="reset" xlink:href="#resetDef" x="30" y="36" onmousedown="handleReset()"/>
                <g id="arrowUp" xlink:href="#dirArrow" transform="translate(30 24)" onmousedown="handlePan(0,-1)">
                  <use xlink:href="#rim" fill="#404040">
                        <set attributeName="fill" to="#808080" begin="arrowUp.mouseover" end="arrowUp.mouseout"/>
                  </use>
                  <path fill="none" stroke="white" stroke-width="1.5" d="M0,-3.0v7 M-2.5,-0.5L0,-3.0L2.5,-0.5"/>
                </g>
                <g id="arrowRight" xlink:href="#dirArrow" transform="rotate(90) translate(36 -43)" onmousedown="handlePan(1,0)">
                  <use xlink:href="#rim" fill="#404040">
                        <set attributeName="fill" to="#808080" begin="arrowRight.mouseover" end="arrowRight.mouseout"/>
                  </use>
                  <path fill="none" stroke="white" stroke-width="1.5" d="M0,-3.0v7 M-2.5,-0.5L0,-3.0L2.5,-0.5"/>
                </g>
                <g id="arrowDown" xlink:href="#dirArrow" transform="rotate(180) translate(-30 -48)" onmousedown="handlePan(0,1)">
                  <use xlink:href="#rim" fill="#404040">
                        <set attributeName="fill" to="#808080" begin="arrowDown.mouseover" end="arrowDown.mouseout"/>
                  </use>
                  <path fill="none" stroke="white" stroke-width="1.5" d="M0,-3.0v7 M-2.5,-0.5L0,-3.0L2.5,-0.5"/>
                </g>
                <g id="arrowLeft" xlink:href="#dirArrow" transform="rotate(270) translate(-36 17)" onmousedown="handlePan(-1,0)">
                  <use xlink:href="#rim" fill="#404040">
                        <set attributeName="fill" to="#808080" begin="arrowLeft.mouseover" end="arrowLeft.mouseout"/>
                  </use>
                  <path fill="none" stroke="white" stroke-width="1.5" d="M0,-3.0v7 M-2.5,-0.5L0,-3.0L2.5,-0.5"/>
                </g>
        </g>
        <svg viewBox="0 0 15 15" width="100%" height="30px" preserveAspectRatio="xMaxYMin meet">
         <g id="arrow_out" transform="scale(0.3 0.3)">
          <a xlink:href="unzip_8c__incl_org.svg" target="_base">
           <rect id="button" ry="5" rx="5" y="6" x="6" height="38" width="38"
                fill="#f2f5e9" fill-opacity="0.5" stroke="#606060" stroke-width="1.0"/>
           <path id="arrow"
             d="M 11.500037,31.436501 C 11.940474,20.09759 22.043105,11.32322 32.158766,21.979434 L 37.068811,17.246167 C 37.068811,17.246167 37.088388,32 37.088388,32 L 22.160133,31.978069 C 22.160133,31.978069 26.997745,27.140456 26.997745,27.140456 C 18.528582,18.264221 13.291696,25.230495 11.500037,31.436501 z"
             style="fill:#404040;"/>
          </a>
         </g>
        </svg>
</svg>
