<?xml version="1.0" encoding="UTF-8" standalone="no"?>
<!DOCTYPE svg PUBLIC "-//W3C//DTD SVG 1.1//EN"
 "http://www.w3.org/Graphics/SVG/1.1/DTD/svg11.dtd">
<!-- Generated by graphviz version 2.40.1 (20161225.0304)
 -->
<!-- Title: /Users/phil/r/artoolkitx/Source/ARX/ARUtil/unzip.h Pages: 1 -->
<svg width="263pt" height="147pt"
 viewBox="0.00 0.00 263.09 147.00" xmlns="http://www.w3.org/2000/svg" xmlns:xlink="http://www.w3.org/1999/xlink">
<g id="graph0" class="graph" transform="scale(1 1) rotate(0) translate(4 143)">
<title>/Users/phil/r/artoolkitx/Source/ARX/ARUtil/unzip.h</title>
<polygon fill="#ffffff" stroke="transparent" points="-4,4 -4,-143 259.0908,-143 259.0908,4 -4,4"/>
<!-- Node0 -->
<g id="node1" class="node">
<title>Node0</title>
<polygon fill="#bfbfbf" stroke="#000000" points="0,-110.5 0,-138.5 139.9404,-138.5 139.9404,-110.5 0,-110.5"/>
<text text-anchor="start" x="8" y="-126.5" font-family="Helvetica,sans-Serif" font-size="10.00" fill="#000000">/Users/phil/r/artoolkitx</text>
<text text-anchor="middle" x="69.9702" y="-116.5" font-family="Helvetica,sans-Serif" font-size="10.00" fill="#000000">/Source/ARX/ARUtil/unzip.h</text>
</g>
<!-- Node1 -->
<g id="node2" class="node">
<title>Node1</title>
<polygon fill="#ffffff" stroke="#bfbfbf" points="20.2979,-.5 20.2979,-18.5 59.6426,-18.5 59.6426,-.5 20.2979,-.5"/>
<text text-anchor="middle" x="39.9702" y="-6.5" font-family="Helvetica,sans-Serif" font-size="10.00" fill="#000000">zlib.h</text>
</g>
<!-- Node0&#45;&gt;Node1 -->
<g id="edge1" class="edge">
<title>Node0&#45;&gt;Node1</title>
<path fill="none" stroke="#191970" d="M66.2916,-110.3987C60.9401,-89.8847 50.9923,-51.7512 44.9772,-28.6935"/>
<polygon fill="#191970" stroke="#191970" points="48.2886,-27.5213 42.3777,-18.7286 41.5153,-29.2883 48.2886,-27.5213"/>
</g>
<!-- Node2 -->
<g id="node3" class="node">
<title>Node2</title>
<g id="a_node3"><a xlink:href="ioapi_8h.html" target="_top" xlink:title="ioapi.h">
<polygon fill="#ffffff" stroke="#000000" points="77.2363,-55.5 77.2363,-73.5 122.7041,-73.5 122.7041,-55.5 77.2363,-55.5"/>
<text text-anchor="middle" x="99.9702" y="-61.5" font-family="Helvetica,sans-Serif" font-size="10.00" fill="#000000">ioapi.h</text>
</a>
</g>
</g>
<!-- Node0&#45;&gt;Node2 -->
<g id="edge2" class="edge">
<title>Node0&#45;&gt;Node2</title>
<path fill="none" stroke="#191970" d="M77.0798,-110.2808C81.209,-102.0224 86.4535,-91.5335 90.8804,-82.6796"/>
<polygon fill="#191970" stroke="#191970" points="94.0864,-84.0937 95.4281,-73.5842 87.8254,-80.9632 94.0864,-84.0937"/>
</g>
<!-- Node2&#45;&gt;Node1 -->
<g id="edge6" class="edge">
<title>Node2&#45;&gt;Node1</title>
<path fill="none" stroke="#191970" d="M90.0624,-55.4179C81.2566,-47.3458 68.1763,-35.3556 57.5902,-25.6517"/>
<polygon fill="#191970" stroke="#191970" points="59.8299,-22.9567 50.0933,-18.7795 55.0998,-28.1168 59.8299,-22.9567"/>
</g>
<!-- Node3 -->
<g id="node4" class="node">
<title>Node3</title>
<polygon fill="#ffffff" stroke="#bfbfbf" points="77.2388,-.5 77.2388,-18.5 122.7017,-18.5 122.7017,-.5 77.2388,-.5"/>
<text text-anchor="middle" x="99.9702" y="-6.5" font-family="Helvetica,sans-Serif" font-size="10.00" fill="#000000">stdio.h</text>
</g>
<!-- Node2&#45;&gt;Node3 -->
<g id="edge3" class="edge">
<title>Node2&#45;&gt;Node3</title>
<path fill="none" stroke="#191970" d="M99.9702,-55.4179C99.9702,-48.2164 99.9702,-37.8962 99.9702,-28.8632"/>
<polygon fill="#191970" stroke="#191970" points="103.4703,-28.7794 99.9702,-18.7795 96.4703,-28.7795 103.4703,-28.7794"/>
</g>
<!-- Node4 -->
<g id="node5" class="node">
<title>Node4</title>
<polygon fill="#ffffff" stroke="#bfbfbf" points="141.1279,-.5 141.1279,-18.5 188.8125,-18.5 188.8125,-.5 141.1279,-.5"/>
<text text-anchor="middle" x="164.9702" y="-6.5" font-family="Helvetica,sans-Serif" font-size="10.00" fill="#000000">stdlib.h</text>
</g>
<!-- Node2&#45;&gt;Node4 -->
<g id="edge4" class="edge">
<title>Node2&#45;&gt;Node4</title>
<path fill="none" stroke="#191970" d="M110.7036,-55.4179C120.3368,-47.2667 134.6919,-35.1201 146.2184,-25.3669"/>
<polygon fill="#191970" stroke="#191970" points="148.6305,-27.9108 154.0036,-18.7795 144.1089,-22.5671 148.6305,-27.9108"/>
</g>
<!-- Node5 -->
<g id="node6" class="node">
<title>Node5</title>
<polygon fill="#ffffff" stroke="#bfbfbf" points="206.8496,-.5 206.8496,-18.5 255.0908,-18.5 255.0908,-.5 206.8496,-.5"/>
<text text-anchor="middle" x="230.9702" y="-6.5" font-family="Helvetica,sans-Serif" font-size="10.00" fill="#000000">stdint.h</text>
</g>
<!-- Node2&#45;&gt;Node5 -->
<g id="edge5" class="edge">
<title>Node2&#45;&gt;Node5</title>
<path fill="none" stroke="#191970" d="M121.6022,-55.4179C142.9352,-46.4613 175.7581,-32.6806 199.8827,-22.552"/>
<polygon fill="#191970" stroke="#191970" points="201.4407,-25.6939 209.3061,-18.5956 198.7308,-19.2397 201.4407,-25.6939"/>
</g>
</g>
</svg>
