<?xml version="1.0" encoding="UTF-8" standalone="no"?>
<!DOCTYPE svg PUBLIC "-//W3C//DTD SVG 1.1//EN"
 "http://www.w3.org/Graphics/SVG/1.1/DTD/svg11.dtd">
<!-- Generated by graphviz version 8.0.5 (20230430.1635)
 -->
<!-- Title: unzOpenCurrentFile3 Pages: 1 -->
<svg width="365pt" height="64pt"
 viewBox="0.00 0.00 365.00 64.25" xmlns="http://www.w3.org/2000/svg" xmlns:xlink="http://www.w3.org/1999/xlink">
<g id="graph0" class="graph" transform="scale(1 1) rotate(0) translate(4 60.25)">
<title>unzOpenCurrentFile3</title>
<!-- Node1 -->
<g id="node1" class="node">
<title>Node1</title>
<g id="a_node1"><a xlink:title=" ">
<polygon fill="#999999" stroke="#666666" points="108.25,-37.25 0,-37.25 0,-18 108.25,-18 108.25,-37.25"/>
<text text-anchor="middle" x="54.12" y="-23.75" font-family="Helvetica,sans-Serif" font-size="10.00">unzOpenCurrentFile3</text>
</a>
</g>
</g>
<!-- Node2 -->
<g id="node2" class="node">
<title>Node2</title>
<g id="a_node2"><a xlink:href="crypt_8c.html#af7f8340e687fdf86775997a8b047b407" target="_top" xlink:title=" ">
<polygon fill="white" stroke="#666666" points="224.38,-56.25 169.38,-56.25 169.38,-37 224.38,-37 224.38,-56.25"/>
<text text-anchor="middle" x="196.88" y="-42.75" font-family="Helvetica,sans-Serif" font-size="10.00">init_keys</text>
</a>
</g>
</g>
<!-- Node1&#45;&gt;Node2 -->
<g id="edge1" class="edge">
<title>Node1&#45;&gt;Node2</title>
<path fill="none" stroke="#63b8ff" d="M108.74,-34.86C125.37,-37.11 143.32,-39.53 158.59,-41.59"/>
<polygon fill="#63b8ff" stroke="#63b8ff" points="157.79,-45.15 168.17,-43.02 158.73,-38.21 157.79,-45.15"/>
</g>
<!-- Node4 -->
<g id="node4" class="node">
<title>Node4</title>
<g id="a_node4"><a xlink:href="unzip_8c.html#ac48279e5325cfdabbc67a312b1d32700" target="_top" xlink:title=" ">
<polygon fill="white" stroke="#666666" points="249.5,-19.25 144.25,-19.25 144.25,0 249.5,0 249.5,-19.25"/>
<text text-anchor="middle" x="196.88" y="-5.75" font-family="Helvetica,sans-Serif" font-size="10.00">unzCloseCurrentFile</text>
</a>
</g>
</g>
<!-- Node1&#45;&gt;Node4 -->
<g id="edge3" class="edge">
<title>Node1&#45;&gt;Node4</title>
<path fill="none" stroke="#63b8ff" d="M108.74,-20.77C116.64,-19.76 124.85,-18.71 132.92,-17.68"/>
<polygon fill="#63b8ff" stroke="#63b8ff" points="133.33,-21.02 142.81,-16.28 132.44,-14.08 133.33,-21.02"/>
</g>
<!-- Node3 -->
<g id="node3" class="node">
<title>Node3</title>
<g id="a_node3"><a xlink:href="crypt_8c.html#ab5d0ab24efa196a08ac9ffa7c50e18cc" target="_top" xlink:title=" ">
<polygon fill="white" stroke="#666666" points="357,-56.25 285.5,-56.25 285.5,-37 357,-37 357,-56.25"/>
<text text-anchor="middle" x="321.25" y="-42.75" font-family="Helvetica,sans-Serif" font-size="10.00">update_keys</text>
</a>
</g>
</g>
<!-- Node2&#45;&gt;Node3 -->
<g id="edge2" class="edge">
<title>Node2&#45;&gt;Node3</title>
<path fill="none" stroke="#63b8ff" d="M224.73,-46.62C239.27,-46.62 257.65,-46.62 274.38,-46.62"/>
<polygon fill="#63b8ff" stroke="#63b8ff" points="274.09,-50.13 284.09,-46.62 274.09,-43.13 274.09,-50.13"/>
</g>
</g>
</svg>
