<?xml version="1.0" encoding="UTF-8" standalone="no"?>
<!DOCTYPE svg PUBLIC "-//W3C//DTD SVG 1.1//EN"
 "http://www.w3.org/Graphics/SVG/1.1/DTD/svg11.dtd">
<!-- Generated by graphviz version 7.0.5 (20221223.1930)
 -->
<!-- Title: unzOpenCurrentFile3 Pages: 1 -->
<svg width="367pt" height="64pt"
 viewBox="0.00 0.00 367.00 64.00" xmlns="http://www.w3.org/2000/svg" xmlns:xlink="http://www.w3.org/1999/xlink">
<g id="graph0" class="graph" transform="scale(1 1) rotate(0) translate(4 60)">
<title>unzOpenCurrentFile3</title>
<!-- Node1 -->
<g id="node1" class="node">
<title>Node1</title>
<g id="a_node1"><a xlink:title=" ">
<polygon fill="#999999" stroke="#666666" points="109,-37 0,-37 0,-18 109,-18 109,-37"/>
<text text-anchor="middle" x="54.5" y="-25" font-family="Helvetica,sans-Serif" font-size="10.00">unzOpenCurrentFile3</text>
</a>
</g>
</g>
<!-- Node2 -->
<g id="node2" class="node">
<title>Node2</title>
<g id="a_node2"><a xlink:href="crypt_8c.html#af7f8340e687fdf86775997a8b047b407" target="_top" xlink:title=" ">
<polygon fill="white" stroke="#666666" points="226,-56 170,-56 170,-37 226,-37 226,-56"/>
<text text-anchor="middle" x="198" y="-44" font-family="Helvetica,sans-Serif" font-size="10.00">init_keys</text>
</a>
</g>
</g>
<!-- Node1&#45;&gt;Node2 -->
<g id="edge1" class="edge">
<title>Node1&#45;&gt;Node2</title>
<path fill="none" stroke="#63b8ff" d="M109.4,-34.74C125.83,-36.94 143.55,-39.32 158.72,-41.36"/>
<polygon fill="#63b8ff" stroke="#63b8ff" points="157.89,-44.78 168.26,-42.64 158.82,-37.84 157.89,-44.78"/>
</g>
<!-- Node4 -->
<g id="node4" class="node">
<title>Node4</title>
<g id="a_node4"><a xlink:href="unzip_8c.html#ac48279e5325cfdabbc67a312b1d32700" target="_top" xlink:title=" ">
<polygon fill="white" stroke="#666666" points="251,-19 145,-19 145,0 251,0 251,-19"/>
<text text-anchor="middle" x="198" y="-7" font-family="Helvetica,sans-Serif" font-size="10.00">unzCloseCurrentFile</text>
</a>
</g>
</g>
<!-- Node1&#45;&gt;Node4 -->
<g id="edge3" class="edge">
<title>Node1&#45;&gt;Node4</title>
<path fill="none" stroke="#63b8ff" d="M109.4,-20.64C117.26,-19.64 125.41,-18.61 133.43,-17.59"/>
<polygon fill="#63b8ff" stroke="#63b8ff" points="133.67,-21.08 143.15,-16.35 132.79,-14.14 133.67,-21.08"/>
</g>
<!-- Node3 -->
<g id="node3" class="node">
<title>Node3</title>
<g id="a_node3"><a xlink:href="crypt_8c.html#ab5d0ab24efa196a08ac9ffa7c50e18cc" target="_top" xlink:title=" ">
<polygon fill="white" stroke="#666666" points="359,-56 287,-56 287,-37 359,-37 359,-56"/>
<text text-anchor="middle" x="323" y="-44" font-family="Helvetica,sans-Serif" font-size="10.00">update_keys</text>
</a>
</g>
</g>
<!-- Node2&#45;&gt;Node3 -->
<g id="edge2" class="edge">
<title>Node2&#45;&gt;Node3</title>
<path fill="none" stroke="#63b8ff" d="M226.3,-46.5C240.79,-46.5 258.99,-46.5 275.63,-46.5"/>
<polygon fill="#63b8ff" stroke="#63b8ff" points="275.31,-50 285.31,-46.5 275.31,-43 275.31,-50"/>
</g>
</g>
</svg>
