<?xml version="1.0" encoding="UTF-8" standalone="no"?>
<!DOCTYPE svg PUBLIC "-//W3C//DTD SVG 1.1//EN"
 "http://www.w3.org/Graphics/SVG/1.1/DTD/svg11.dtd">
<!-- Generated by graphviz version 7.0.5 (20221223.1930)
 -->
<!-- Title: unzOpenCurrentFilePassword Pages: 1 -->
<svg width="550pt" height="64pt"
 viewBox="0.00 0.00 550.00 64.00" xmlns="http://www.w3.org/2000/svg" xmlns:xlink="http://www.w3.org/1999/xlink">
<g id="graph0" class="graph" transform="scale(1 1) rotate(0) translate(4 60)">
<title>unzOpenCurrentFilePassword</title>
<!-- Node1 -->
<g id="node1" class="node">
<title>Node1</title>
<g id="a_node1"><a xlink:title=" ">
<polygon fill="#999999" stroke="#666666" points="147,-37 0,-37 0,-18 147,-18 147,-37"/>
<text text-anchor="middle" x="73.5" y="-25" font-family="Helvetica,sans-Serif" font-size="10.00">unzOpenCurrentFilePassword</text>
</a>
</g>
</g>
<!-- Node2 -->
<g id="node2" class="node">
<title>Node2</title>
<g id="a_node2"><a xlink:href="unzip_8c.html#a5eb86267fb9a5e4f52a123df606b2af5" target="_top" xlink:title=" ">
<polygon fill="white" stroke="#666666" points="292,-37 183,-37 183,-18 292,-18 292,-37"/>
<text text-anchor="middle" x="237.5" y="-25" font-family="Helvetica,sans-Serif" font-size="10.00">unzOpenCurrentFile3</text>
</a>
</g>
</g>
<!-- Node1&#45;&gt;Node2 -->
<g id="edge1" class="edge">
<title>Node1&#45;&gt;Node2</title>
<path fill="none" stroke="#63b8ff" d="M147.44,-27.5C155.46,-27.5 163.57,-27.5 171.48,-27.5"/>
<polygon fill="#63b8ff" stroke="#63b8ff" points="171.36,-31 181.36,-27.5 171.36,-24 171.36,-31"/>
</g>
<!-- Node3 -->
<g id="node3" class="node">
<title>Node3</title>
<g id="a_node3"><a xlink:href="crypt_8c.html#af7f8340e687fdf86775997a8b047b407" target="_top" xlink:title=" ">
<polygon fill="white" stroke="#666666" points="409,-56 353,-56 353,-37 409,-37 409,-56"/>
<text text-anchor="middle" x="381" y="-44" font-family="Helvetica,sans-Serif" font-size="10.00">init_keys</text>
</a>
</g>
</g>
<!-- Node2&#45;&gt;Node3 -->
<g id="edge2" class="edge">
<title>Node2&#45;&gt;Node3</title>
<path fill="none" stroke="#63b8ff" d="M292.4,-34.74C308.83,-36.94 326.55,-39.32 341.72,-41.36"/>
<polygon fill="#63b8ff" stroke="#63b8ff" points="340.89,-44.78 351.26,-42.64 341.82,-37.84 340.89,-44.78"/>
</g>
<!-- Node5 -->
<g id="node5" class="node">
<title>Node5</title>
<g id="a_node5"><a xlink:href="unzip_8c.html#ac48279e5325cfdabbc67a312b1d32700" target="_top" xlink:title=" ">
<polygon fill="white" stroke="#666666" points="434,-19 328,-19 328,0 434,0 434,-19"/>
<text text-anchor="middle" x="381" y="-7" font-family="Helvetica,sans-Serif" font-size="10.00">unzCloseCurrentFile</text>
</a>
</g>
</g>
<!-- Node2&#45;&gt;Node5 -->
<g id="edge4" class="edge">
<title>Node2&#45;&gt;Node5</title>
<path fill="none" stroke="#63b8ff" d="M292.4,-20.64C300.26,-19.64 308.41,-18.61 316.43,-17.59"/>
<polygon fill="#63b8ff" stroke="#63b8ff" points="316.67,-21.08 326.15,-16.35 315.79,-14.14 316.67,-21.08"/>
</g>
<!-- Node4 -->
<g id="node4" class="node">
<title>Node4</title>
<g id="a_node4"><a xlink:href="crypt_8c.html#ab5d0ab24efa196a08ac9ffa7c50e18cc" target="_top" xlink:title=" ">
<polygon fill="white" stroke="#666666" points="542,-56 470,-56 470,-37 542,-37 542,-56"/>
<text text-anchor="middle" x="506" y="-44" font-family="Helvetica,sans-Serif" font-size="10.00">update_keys</text>
</a>
</g>
</g>
<!-- Node3&#45;&gt;Node4 -->
<g id="edge3" class="edge">
<title>Node3&#45;&gt;Node4</title>
<path fill="none" stroke="#63b8ff" d="M409.3,-46.5C423.79,-46.5 441.99,-46.5 458.63,-46.5"/>
<polygon fill="#63b8ff" stroke="#63b8ff" points="458.31,-50 468.31,-46.5 458.31,-43 458.31,-50"/>
</g>
</g>
</svg>
