<?xml version="1.0" encoding="UTF-8" standalone="no"?>
<!DOCTYPE svg PUBLIC "-//W3C//DTD SVG 1.1//EN"
 "http://www.w3.org/Graphics/SVG/1.1/DTD/svg11.dtd">
<!-- Generated by graphviz version 2.40.1 (20161225.0304)
 -->
<!-- Title: /Users/phil/r/artoolkitx/Source/ARX/AR2/include/ARX/AR2/util.h Pages: 1 -->
<svg width="594pt" height="112pt"
 viewBox="0.00 0.00 594.00 112.00" xmlns="http://www.w3.org/2000/svg" xmlns:xlink="http://www.w3.org/1999/xlink">
<g id="graph0" class="graph" transform="scale(1 1) rotate(0) translate(4 108)">
<title>/Users/phil/r/artoolkitx/Source/ARX/AR2/include/ARX/AR2/util.h</title>
<polygon fill="#ffffff" stroke="transparent" points="-4,4 -4,-108 589.9971,-108 589.9971,4 -4,4"/>
<!-- Node2 -->
<g id="node1" class="node">
<title>Node2</title>
<polygon fill="#bfbfbf" stroke="#000000" points="236.0591,-65.5 236.0591,-103.5 366.561,-103.5 366.561,-65.5 236.0591,-65.5"/>
<text text-anchor="start" x="244.0591" y="-91.5" font-family="Helvetica,sans-Serif" font-size="10.00" fill="#000000">/Users/phil/r/artoolkitx</text>
<text text-anchor="start" x="244.0591" y="-81.5" font-family="Helvetica,sans-Serif" font-size="10.00" fill="#000000">/Source/ARX/AR2/include</text>
<text text-anchor="middle" x="301.3101" y="-71.5" font-family="Helvetica,sans-Serif" font-size="10.00" fill="#000000">/ARX/AR2/util.h</text>
</g>
<!-- Node3 -->
<g id="node2" class="node">
<title>Node3</title>
<g id="a_node2"><a xlink:href="handle_8c.html" target="_top" xlink:title="/Users/phil/r/artoolkitx\l/Source/ARX/AR2/handle.c">
<polygon fill="#ffffff" stroke="#000000" points="0,-.5 0,-28.5 136.6201,-28.5 136.6201,-.5 0,-.5"/>
<text text-anchor="start" x="8" y="-16.5" font-family="Helvetica,sans-Serif" font-size="10.00" fill="#000000">/Users/phil/r/artoolkitx</text>
<text text-anchor="middle" x="68.3101" y="-6.5" font-family="Helvetica,sans-Serif" font-size="10.00" fill="#000000">/Source/ARX/AR2/handle.c</text>
</a>
</g>
</g>
<!-- Node2&#45;&gt;Node3 -->
<g id="edge1" class="edge">
<title>Node2&#45;&gt;Node3</title>
<path fill="none" stroke="#191970" d="M228.2095,-62.5384C191.2203,-51.4258 147.4206,-38.2671 115.0234,-28.534"/>
<polygon fill="#191970" stroke="#191970" points="227.3654,-65.9393 237.9496,-65.4647 229.3795,-59.2353 227.3654,-65.9393"/>
</g>
<!-- Node4 -->
<g id="node3" class="node">
<title>Node4</title>
<g id="a_node3"><a xlink:href="marker_8c.html" target="_top" xlink:title="/Users/phil/r/artoolkitx\l/Source/ARX/AR2/marker.c">
<polygon fill="#ffffff" stroke="#000000" points="154.7314,-.5 154.7314,-28.5 291.8887,-28.5 291.8887,-.5 154.7314,-.5"/>
<text text-anchor="start" x="162.7314" y="-16.5" font-family="Helvetica,sans-Serif" font-size="10.00" fill="#000000">/Users/phil/r/artoolkitx</text>
<text text-anchor="middle" x="223.3101" y="-6.5" font-family="Helvetica,sans-Serif" font-size="10.00" fill="#000000">/Source/ARX/AR2/marker.c</text>
</a>
</g>
</g>
<!-- Node2&#45;&gt;Node4 -->
<g id="edge2" class="edge">
<title>Node2&#45;&gt;Node4</title>
<path fill="none" stroke="#191970" d="M272.4995,-58.6443C261.3221,-48.6133 248.9438,-37.5047 239.4008,-28.9404"/>
<polygon fill="#191970" stroke="#191970" points="270.2161,-61.2979 279.9962,-65.3722 274.8915,-56.0882 270.2161,-61.2979"/>
</g>
<!-- Node5 -->
<g id="node4" class="node">
<title>Node5</title>
<g id="a_node4"><a xlink:href="surface_8c.html" target="_top" xlink:title="/Users/phil/r/artoolkitx\l/Source/ARX/AR2/surface.c">
<polygon fill="#ffffff" stroke="#000000" points="309.6182,-.5 309.6182,-28.5 449.002,-28.5 449.002,-.5 309.6182,-.5"/>
<text text-anchor="start" x="317.6182" y="-16.5" font-family="Helvetica,sans-Serif" font-size="10.00" fill="#000000">/Users/phil/r/artoolkitx</text>
<text text-anchor="middle" x="379.3101" y="-6.5" font-family="Helvetica,sans-Serif" font-size="10.00" fill="#000000">/Source/ARX/AR2/surface.c</text>
</a>
</g>
</g>
<!-- Node2&#45;&gt;Node5 -->
<g id="edge3" class="edge">
<title>Node2&#45;&gt;Node5</title>
<path fill="none" stroke="#191970" d="M330.1207,-58.6443C341.2981,-48.6133 353.6763,-37.5047 363.2194,-28.9404"/>
<polygon fill="#191970" stroke="#191970" points="327.7287,-56.0882 322.6239,-65.3722 332.404,-61.2979 327.7287,-56.0882"/>
</g>
<!-- Node6 -->
<g id="node5" class="node">
<title>Node6</title>
<g id="a_node5"><a xlink:href="util_8c.html" target="_top" xlink:title="/Users/phil/r/artoolkitx\l/Source/ARX/AR2/util.c">
<polygon fill="#ffffff" stroke="#000000" points="466.623,-.5 466.623,-28.5 585.9971,-28.5 585.9971,-.5 466.623,-.5"/>
<text text-anchor="start" x="474.623" y="-16.5" font-family="Helvetica,sans-Serif" font-size="10.00" fill="#000000">/Users/phil/r/artoolkitx</text>
<text text-anchor="middle" x="526.3101" y="-6.5" font-family="Helvetica,sans-Serif" font-size="10.00" fill="#000000">/Source/ARX/AR2/util.c</text>
</a>
</g>
</g>
<!-- Node2&#45;&gt;Node6 -->
<g id="edge4" class="edge">
<title>Node2&#45;&gt;Node6</title>
<path fill="none" stroke="#191970" d="M372.3571,-62.3965C407.9797,-51.3139 450.0489,-38.2257 481.2006,-28.534"/>
<polygon fill="#191970" stroke="#191970" points="371.0039,-59.1519 362.4951,-65.4647 373.0834,-65.8359 371.0039,-59.1519"/>
</g>
</g>
</svg>
