<?xml version="1.0" encoding="UTF-8" standalone="no"?>
<!DOCTYPE svg PUBLIC "-//W3C//DTD SVG 1.1//EN"
 "http://www.w3.org/Graphics/SVG/1.1/DTD/svg11.dtd">
<!-- Generated by graphviz version 7.0.5 (20221223.1930)
 -->
<!-- Title: Source/ARX/AR2/util.c Pages: 1 -->
<svg width="1156pt" height="192pt"
 viewBox="0.00 0.00 1156.00 192.00" xmlns="http://www.w3.org/2000/svg" xmlns:xlink="http://www.w3.org/1999/xlink">
<g id="graph0" class="graph" transform="scale(1 1) rotate(0) translate(4 188)">
<title>Source/ARX/AR2/util.c</title>
<!-- Node1 -->
<g id="node1" class="node">
<title>Node1</title>
<g id="a_node1"><a xlink:title=" ">
<polygon fill="#999999" stroke="#666666" points="453,-184 335,-184 335,-165 453,-165 453,-184"/>
<text text-anchor="middle" x="394" y="-172" font-family="Helvetica,sans-Serif" font-size="10.00">Source/ARX/AR2/util.c</text>
</a>
</g>
</g>
<!-- Node2 -->
<g id="node2" class="node">
<title>Node2</title>
<g id="a_node2"><a xlink:href="ar_8h.html" target="_top" xlink:title="artoolkitX core routines.">
<polygon fill="white" stroke="#666666" points="548,-129 474,-129 474,-110 548,-110 548,-129"/>
<text text-anchor="middle" x="511" y="-117" font-family="Helvetica,sans-Serif" font-size="10.00">ARX/AR/ar.h</text>
</a>
</g>
</g>
<!-- Node1&#45;&gt;Node2 -->
<g id="edge1" class="edge">
<title>Node1&#45;&gt;Node2</title>
<path fill="none" stroke="#63b8ff" d="M413.85,-164.51C432.28,-156.16 459.98,-143.61 481.09,-134.05"/>
<polygon fill="#63b8ff" stroke="#63b8ff" points="482.4,-137.3 490.07,-129.98 479.51,-130.92 482.4,-137.3"/>
</g>
<!-- Node3 -->
<g id="node3" class="node">
<title>Node3</title>
<g id="a_node3"><a xlink:title=" ">
<polygon fill="#e0e0e0" stroke="#999999" points="46,-19 0,-19 0,0 46,0 46,-19"/>
<text text-anchor="middle" x="23" y="-7" font-family="Helvetica,sans-Serif" font-size="10.00">stdio.h</text>
</a>
</g>
</g>
<!-- Node1&#45;&gt;Node3 -->
<g id="edge25" class="edge">
<title>Node1&#45;&gt;Node3</title>
<path fill="none" stroke="#63b8ff" d="M334.65,-170.69C260.61,-164.24 133.91,-143.07 53,-74 39.8,-62.73 32.01,-44.37 27.69,-30.28"/>
<polygon fill="#63b8ff" stroke="#63b8ff" points="31.1,-29.5 25.13,-20.75 24.34,-31.31 31.1,-29.5"/>
</g>
<!-- Node4 -->
<g id="node4" class="node">
<title>Node4</title>
<g id="a_node4"><a xlink:title=" ">
<polygon fill="#e0e0e0" stroke="#999999" points="230,-19 182,-19 182,0 230,0 230,-19"/>
<text text-anchor="middle" x="206" y="-7" font-family="Helvetica,sans-Serif" font-size="10.00">stdlib.h</text>
</a>
</g>
</g>
<!-- Node1&#45;&gt;Node4 -->
<g id="edge26" class="edge">
<title>Node1&#45;&gt;Node4</title>
<path fill="none" stroke="#63b8ff" d="M372.11,-164.55C338.83,-149.99 275.23,-118.28 236,-74 224.73,-61.28 216.84,-43.6 211.99,-30.12"/>
<polygon fill="#63b8ff" stroke="#63b8ff" points="215.32,-29.02 208.86,-20.62 208.67,-31.22 215.32,-29.02"/>
</g>
<!-- Node6 -->
<g id="node6" class="node">
<title>Node6</title>
<g id="a_node6"><a xlink:title=" ">
<polygon fill="#e0e0e0" stroke="#999999" points="573.5,-19 524.5,-19 524.5,0 573.5,0 573.5,-19"/>
<text text-anchor="middle" x="549" y="-7" font-family="Helvetica,sans-Serif" font-size="10.00">string.h</text>
</a>
</g>
</g>
<!-- Node1&#45;&gt;Node6 -->
<g id="edge27" class="edge">
<title>Node1&#45;&gt;Node6</title>
<path fill="none" stroke="#63b8ff" d="M395.37,-164.81C399.17,-143.34 411.82,-87.24 444,-55 454.28,-44.7 487.38,-31.56 513.7,-22.23"/>
<polygon fill="#63b8ff" stroke="#63b8ff" points="514.75,-25.57 523.04,-18.98 512.45,-18.96 514.75,-25.57"/>
</g>
<!-- Node19 -->
<g id="node19" class="node">
<title>Node19</title>
<g id="a_node19"><a xlink:href="util_8h.html" target="_top" xlink:title=" ">
<polygon fill="white" stroke="#666666" points="908,-129 824,-129 824,-110 908,-110 908,-129"/>
<text text-anchor="middle" x="866" y="-117" font-family="Helvetica,sans-Serif" font-size="10.00">ARX/AR2/util.h</text>
</a>
</g>
</g>
<!-- Node1&#45;&gt;Node19 -->
<g id="edge28" class="edge">
<title>Node1&#45;&gt;Node19</title>
<path fill="none" stroke="#63b8ff" d="M453.3,-166.84C545.93,-156.44 723.53,-136.5 812.47,-126.51"/>
<polygon fill="#63b8ff" stroke="#63b8ff" points="812.59,-130.02 822.14,-125.43 811.81,-123.06 812.59,-130.02"/>
</g>
<!-- Node2&#45;&gt;Node3 -->
<g id="edge2" class="edge">
<title>Node2&#45;&gt;Node3</title>
<path fill="none" stroke="#63b8ff" d="M473.68,-118.05C382.04,-116.42 148.45,-108.87 80,-74 60.24,-63.94 44.1,-43.93 34.11,-29.06"/>
<polygon fill="#63b8ff" stroke="#63b8ff" points="37.07,-27.19 28.76,-20.62 31.16,-30.94 37.07,-27.19"/>
</g>
<!-- Node2&#45;&gt;Node4 -->
<g id="edge3" class="edge">
<title>Node2&#45;&gt;Node4</title>
<path fill="none" stroke="#63b8ff" d="M473.62,-119.16C422.77,-118.5 330.44,-111.58 263,-74 243.63,-63.21 227.43,-43.33 217.31,-28.68"/>
<polygon fill="#63b8ff" stroke="#63b8ff" points="220.29,-26.85 211.89,-20.4 214.44,-30.69 220.29,-26.85"/>
</g>
<!-- Node5 -->
<g id="node5" class="node">
<title>Node5</title>
<g id="a_node5"><a xlink:title=" ">
<polygon fill="#e0e0e0" stroke="#999999" points="509.5,-74 460.5,-74 460.5,-55 509.5,-55 509.5,-74"/>
<text text-anchor="middle" x="485" y="-62" font-family="Helvetica,sans-Serif" font-size="10.00">stdint.h</text>
</a>
</g>
</g>
<!-- Node2&#45;&gt;Node5 -->
<g id="edge4" class="edge">
<title>Node2&#45;&gt;Node5</title>
<path fill="none" stroke="#63b8ff" d="M506.71,-109.75C503.38,-102.96 498.64,-93.3 494.44,-84.73"/>
<polygon fill="#63b8ff" stroke="#63b8ff" points="497.6,-83.24 490.05,-75.8 491.32,-86.32 497.6,-83.24"/>
</g>
<!-- Node2&#45;&gt;Node6 -->
<g id="edge5" class="edge">
<title>Node2&#45;&gt;Node6</title>
<path fill="none" stroke="#63b8ff" d="M491.3,-109.56C468.81,-98.06 436.87,-76.93 451,-55 458.32,-43.64 488.63,-30.92 513.64,-21.99"/>
<polygon fill="#63b8ff" stroke="#63b8ff" points="514.56,-25.38 522.86,-18.79 512.27,-18.76 514.56,-25.38"/>
</g>
<!-- Node7 -->
<g id="node7" class="node">
<title>Node7</title>
<g id="a_node7"><a xlink:title=" ">
<polygon fill="#e0e0e0" stroke="#999999" points="684,-19 592,-19 592,0 684,0 684,-19"/>
<text text-anchor="middle" x="638" y="-7" font-family="Helvetica,sans-Serif" font-size="10.00">ARX/AR/config.h</text>
</a>
</g>
</g>
<!-- Node2&#45;&gt;Node7 -->
<g id="edge6" class="edge">
<title>Node2&#45;&gt;Node7</title>
<path fill="none" stroke="#63b8ff" d="M515.65,-109.76C523.01,-96.57 538.42,-71.39 557,-55 571.37,-42.32 589.96,-31.78 605.71,-24.15"/>
<polygon fill="#63b8ff" stroke="#63b8ff" points="607.1,-27.37 614.7,-19.98 604.15,-21.02 607.1,-27.37"/>
</g>
<!-- Node8 -->
<g id="node8" class="node">
<title>Node8</title>
<g id="a_node8"><a xlink:href="ar_config_8h.html" target="_top" xlink:title=" ">
<polygon fill="white" stroke="#666666" points="809.5,-74 706.5,-74 706.5,-55 809.5,-55 809.5,-74"/>
<text text-anchor="middle" x="758" y="-62" font-family="Helvetica,sans-Serif" font-size="10.00">ARX/AR/arConfig.h</text>
</a>
</g>
</g>
<!-- Node2&#45;&gt;Node8 -->
<g id="edge7" class="edge">
<title>Node2&#45;&gt;Node8</title>
<path fill="none" stroke="#63b8ff" d="M548.25,-110.51C589.95,-101.56 657.88,-86.98 705.09,-76.85"/>
<polygon fill="#63b8ff" stroke="#63b8ff" points="705.79,-80.28 714.84,-74.76 704.32,-73.44 705.79,-80.28"/>
</g>
<!-- Node9 -->
<g id="node9" class="node">
<title>Node9</title>
<g id="a_node9"><a xlink:href="log_8h.html" target="_top" xlink:title="Logging utilities.">
<polygon fill="white" stroke="#666666" points="366,-74 272,-74 272,-55 366,-55 366,-74"/>
<text text-anchor="middle" x="319" y="-62" font-family="Helvetica,sans-Serif" font-size="10.00">ARX/ARUtil/log.h</text>
</a>
</g>
</g>
<!-- Node2&#45;&gt;Node9 -->
<g id="edge8" class="edge">
<title>Node2&#45;&gt;Node9</title>
<path fill="none" stroke="#63b8ff" d="M478.43,-109.51C446.47,-100.69 397.55,-87.18 362.32,-77.46"/>
<polygon fill="#63b8ff" stroke="#63b8ff" points="363.44,-74.14 352.87,-74.85 361.58,-80.88 363.44,-74.14"/>
</g>
<!-- Node13 -->
<g id="node13" class="node">
<title>Node13</title>
<g id="a_node13"><a xlink:href="matrix_8h.html" target="_top" xlink:title=" ">
<polygon fill="white" stroke="#666666" points="920.5,-74 827.5,-74 827.5,-55 920.5,-55 920.5,-74"/>
<text text-anchor="middle" x="874" y="-62" font-family="Helvetica,sans-Serif" font-size="10.00">ARX/AR/matrix.h</text>
</a>
</g>
</g>
<!-- Node2&#45;&gt;Node13 -->
<g id="edge15" class="edge">
<title>Node2&#45;&gt;Node13</title>
<path fill="none" stroke="#63b8ff" d="M548.35,-113.17C604.12,-105.19 712.79,-89.57 816,-74.29"/>
<polygon fill="#63b8ff" stroke="#63b8ff" points="816.38,-77.77 825.76,-72.84 815.35,-70.85 816.38,-77.77"/>
</g>
<!-- Node15 -->
<g id="node15" class="node">
<title>Node15</title>
<g id="a_node15"><a xlink:href="icp_8h.html" target="_top" xlink:title=" ">
<polygon fill="white" stroke="#666666" points="168.5,-74 89.5,-74 89.5,-55 168.5,-55 168.5,-74"/>
<text text-anchor="middle" x="129" y="-62" font-family="Helvetica,sans-Serif" font-size="10.00">ARX/AR/icp.h</text>
</a>
</g>
</g>
<!-- Node2&#45;&gt;Node15 -->
<g id="edge17" class="edge">
<title>Node2&#45;&gt;Node15</title>
<path fill="none" stroke="#63b8ff" d="M473.68,-113.32C404.79,-103.76 257.6,-83.34 179.73,-72.54"/>
<polygon fill="#63b8ff" stroke="#63b8ff" points="180.64,-69.13 170.26,-71.22 179.68,-76.07 180.64,-69.13"/>
</g>
<!-- Node17 -->
<g id="node17" class="node">
<title>Node17</title>
<g id="a_node17"><a xlink:href="param_8h.html" target="_top" xlink:title="artoolkitX functions for handling calibrated camera parameters.">
<polygon fill="white" stroke="#666666" points="1031.5,-74 938.5,-74 938.5,-55 1031.5,-55 1031.5,-74"/>
<text text-anchor="middle" x="985" y="-62" font-family="Helvetica,sans-Serif" font-size="10.00">ARX/AR/param.h</text>
</a>
</g>
</g>
<!-- Node2&#45;&gt;Node17 -->
<g id="edge20" class="edge">
<title>Node2&#45;&gt;Node17</title>
<path fill="none" stroke="#63b8ff" d="M548.42,-114.58C620.56,-107.5 783.2,-91.65 920,-74 922.29,-73.71 924.62,-73.39 926.99,-73.07"/>
<polygon fill="#63b8ff" stroke="#63b8ff" points="927.28,-76.56 936.69,-71.7 926.3,-69.63 927.28,-76.56"/>
</g>
<!-- Node18 -->
<g id="node18" class="node">
<title>Node18</title>
<g id="a_node18"><a xlink:href="ar_image_proc_8h.html" target="_top" xlink:title="artoolkitX functions for 2D luminance image processing.">
<polygon fill="white" stroke="#666666" points="688,-74 566,-74 566,-55 688,-55 688,-74"/>
<text text-anchor="middle" x="627" y="-62" font-family="Helvetica,sans-Serif" font-size="10.00">ARX/AR/arImageProc.h</text>
</a>
</g>
</g>
<!-- Node2&#45;&gt;Node18 -->
<g id="edge22" class="edge">
<title>Node2&#45;&gt;Node18</title>
<path fill="none" stroke="#63b8ff" d="M525.46,-109.51C542.14,-101.08 569.7,-88.38 591.98,-78.79"/>
<polygon fill="#63b8ff" stroke="#63b8ff" points="593.19,-82.07 601.03,-74.95 590.46,-75.63 593.19,-82.07"/>
</g>
<!-- Node9&#45;&gt;Node3 -->
<g id="edge9" class="edge">
<title>Node9&#45;&gt;Node3</title>
<path fill="none" stroke="#63b8ff" d="M271.53,-56.85C220.77,-49.44 137.7,-36.46 57.19,-19.31"/>
<polygon fill="#63b8ff" stroke="#63b8ff" points="58.35,-15.98 47.84,-17.29 56.87,-22.82 58.35,-15.98"/>
</g>
<!-- Node9&#45;&gt;Node4 -->
<g id="edge10" class="edge">
<title>Node9&#45;&gt;Node4</title>
<path fill="none" stroke="#63b8ff" d="M299.83,-54.51C282.11,-46.2 255.52,-33.73 235.17,-24.18"/>
<polygon fill="#63b8ff" stroke="#63b8ff" points="236.8,-21.08 226.26,-20 233.82,-27.42 236.8,-21.08"/>
</g>
<!-- Node9&#45;&gt;Node6 -->
<g id="edge11" class="edge">
<title>Node9&#45;&gt;Node6</title>
<path fill="none" stroke="#63b8ff" d="M359.6,-54.55C396.96,-46.26 454.17,-33.41 513.11,-19.41"/>
<polygon fill="#63b8ff" stroke="#63b8ff" points="513.74,-22.86 522.66,-17.13 512.12,-16.05 513.74,-22.86"/>
</g>
<!-- Node10 -->
<g id="node10" class="node">
<title>Node10</title>
<g id="a_node10"><a xlink:title=" ">
<polygon fill="#e0e0e0" stroke="#999999" points="300,-19 248,-19 248,0 300,0 300,-19"/>
<text text-anchor="middle" x="274" y="-7" font-family="Helvetica,sans-Serif" font-size="10.00">stdarg.h</text>
</a>
</g>
</g>
<!-- Node9&#45;&gt;Node10 -->
<g id="edge12" class="edge">
<title>Node9&#45;&gt;Node10</title>
<path fill="none" stroke="#63b8ff" d="M311.57,-54.75C305.42,-47.5 296.49,-36.98 288.87,-28.02"/>
<polygon fill="#63b8ff" stroke="#63b8ff" points="291.71,-25.95 282.57,-20.6 286.38,-30.48 291.71,-25.95"/>
</g>
<!-- Node11 -->
<g id="node11" class="node">
<title>Node11</title>
<g id="a_node11"><a xlink:title=" ">
<polygon fill="#e0e0e0" stroke="#999999" points="383.5,-19 318.5,-19 318.5,0 383.5,0 383.5,-19"/>
<text text-anchor="middle" x="351" y="-7" font-family="Helvetica,sans-Serif" font-size="10.00">sys/errno.h</text>
</a>
</g>
</g>
<!-- Node9&#45;&gt;Node11 -->
<g id="edge13" class="edge">
<title>Node9&#45;&gt;Node11</title>
<path fill="none" stroke="#63b8ff" d="M324.28,-54.75C328.47,-47.81 334.48,-37.86 339.73,-29.16"/>
<polygon fill="#63b8ff" stroke="#63b8ff" points="342.65,-31.11 344.82,-20.74 336.65,-27.49 342.65,-31.11"/>
</g>
<!-- Node12 -->
<g id="node12" class="node">
<title>Node12</title>
<g id="a_node12"><a xlink:href="types_8h.html" target="_top" xlink:title=" ">
<polygon fill="white" stroke="#666666" points="506.5,-19 401.5,-19 401.5,0 506.5,0 506.5,-19"/>
<text text-anchor="middle" x="454" y="-7" font-family="Helvetica,sans-Serif" font-size="10.00">ARX/ARUtil/types.h</text>
</a>
</g>
</g>
<!-- Node9&#45;&gt;Node12 -->
<g id="edge14" class="edge">
<title>Node9&#45;&gt;Node12</title>
<path fill="none" stroke="#63b8ff" d="M341.9,-54.51C363.56,-46.01 396.31,-33.15 420.82,-23.53"/>
<polygon fill="#63b8ff" stroke="#63b8ff" points="422,-26.82 430.03,-19.91 419.44,-20.31 422,-26.82"/>
</g>
<!-- Node14 -->
<g id="node14" class="node">
<title>Node14</title>
<g id="a_node14"><a xlink:title=" ">
<polygon fill="#e0e0e0" stroke="#999999" points="897.5,-19 850.5,-19 850.5,0 897.5,0 897.5,-19"/>
<text text-anchor="middle" x="874" y="-7" font-family="Helvetica,sans-Serif" font-size="10.00">math.h</text>
</a>
</g>
</g>
<!-- Node13&#45;&gt;Node14 -->
<g id="edge16" class="edge">
<title>Node13&#45;&gt;Node14</title>
<path fill="none" stroke="#63b8ff" d="M874,-54.75C874,-48.27 874,-39.16 874,-30.9"/>
<polygon fill="#63b8ff" stroke="#63b8ff" points="877.5,-30.96 874,-20.96 870.5,-30.96 877.5,-30.96"/>
</g>
<!-- Node15&#45;&gt;Node3 -->
<g id="edge18" class="edge">
<title>Node15&#45;&gt;Node3</title>
<path fill="none" stroke="#63b8ff" d="M111.02,-54.51C94.55,-46.27 69.91,-33.96 50.89,-24.45"/>
<polygon fill="#63b8ff" stroke="#63b8ff" points="52.58,-21.38 42.07,-20.03 49.45,-27.64 52.58,-21.38"/>
</g>
<!-- Node16 -->
<g id="node16" class="node">
<title>Node16</title>
<g id="a_node16"><a xlink:href="icp_core_8h.html" target="_top" xlink:title=" ">
<polygon fill="white" stroke="#666666" points="164,-19 64,-19 64,0 164,0 164,-19"/>
<text text-anchor="middle" x="114" y="-7" font-family="Helvetica,sans-Serif" font-size="10.00">ARX/AR/icpCore.h</text>
</a>
</g>
</g>
<!-- Node15&#45;&gt;Node16 -->
<g id="edge19" class="edge">
<title>Node15&#45;&gt;Node16</title>
<path fill="none" stroke="#63b8ff" d="M126.52,-54.75C124.65,-48.11 121.99,-38.73 119.61,-30.31"/>
<polygon fill="#63b8ff" stroke="#63b8ff" points="123.03,-29.57 116.94,-20.9 116.3,-31.47 123.03,-29.57"/>
</g>
<!-- Node17&#45;&gt;Node2 -->
<g id="edge21" class="edge">
<title>Node17&#45;&gt;Node2</title>
<path fill="none" stroke="#63b8ff" d="M937.58,-74.05C801.07,-91.66 638.95,-107.46 559.52,-114.55"/>
<polygon fill="#63b8ff" stroke="#63b8ff" points="559.57,-111.03 549.92,-115.4 560.19,-118 559.57,-111.03"/>
</g>
<!-- Node18&#45;&gt;Node2 -->
<g id="edge24" class="edge">
<title>Node18&#45;&gt;Node2</title>
<path fill="none" stroke="#63b8ff" d="M612.8,-74.36C596.24,-82.74 568.71,-95.43 546.37,-105.06"/>
<polygon fill="#63b8ff" stroke="#63b8ff" points="545.13,-101.79 537.29,-108.92 547.86,-108.23 545.13,-101.79"/>
</g>
<!-- Node18&#45;&gt;Node7 -->
<g id="edge23" class="edge">
<title>Node18&#45;&gt;Node7</title>
<path fill="none" stroke="#63b8ff" d="M628.82,-54.75C630.18,-48.19 632.1,-38.95 633.83,-30.6"/>
<polygon fill="#63b8ff" stroke="#63b8ff" points="637.23,-31.43 635.84,-20.92 630.38,-30 637.23,-31.43"/>
</g>
<!-- Node20 -->
<g id="node20" class="node">
<title>Node20</title>
<g id="a_node20"><a xlink:href="config_8h.html" target="_top" xlink:title=" ">
<polygon fill="white" stroke="#666666" points="1148,-74 1050,-74 1050,-55 1148,-55 1148,-74"/>
<text text-anchor="middle" x="1099" y="-62" font-family="Helvetica,sans-Serif" font-size="10.00">ARX/AR2/config.h</text>
</a>
</g>
</g>
<!-- Node19&#45;&gt;Node20 -->
<g id="edge29" class="edge">
<title>Node19&#45;&gt;Node20</title>
<path fill="none" stroke="#63b8ff" d="M905.53,-109.51C944.98,-100.54 1005.74,-86.71 1048.63,-76.96"/>
<polygon fill="#63b8ff" stroke="#63b8ff" points="1049.22,-80.41 1058.19,-74.78 1047.67,-73.59 1049.22,-80.41"/>
</g>
</g>
</svg>
