<?xml version="1.0" encoding="UTF-8" standalone="no"?>
<!DOCTYPE svg PUBLIC "-//W3C//DTD SVG 1.1//EN"
 "http://www.w3.org/Graphics/SVG/1.1/DTD/svg11.dtd">
<!-- Generated by graphviz version 7.0.5 (20221223.1930)
 -->
<!-- Title: Source/ARX/AR2/include/ARX/AR2/util.h Pages: 1 -->
<svg width="586pt" height="93pt"
 viewBox="0.00 0.00 586.00 93.00" xmlns="http://www.w3.org/2000/svg" xmlns:xlink="http://www.w3.org/1999/xlink">
<g id="graph0" class="graph" transform="scale(1 1) rotate(0) translate(4 89)">
<title>Source/ARX/AR2/include/ARX/AR2/util.h</title>
<!-- Node1 -->
<g id="node1" class="node">
<title>Node1</title>
<g id="a_node1"><a xlink:title=" ">
<polygon fill="#999999" stroke="#666666" points="360,-85 232,-85 232,-55 360,-55 360,-85"/>
<text text-anchor="start" x="240" y="-73" font-family="Helvetica,sans-Serif" font-size="10.00">Source/ARX/AR2/include</text>
<text text-anchor="middle" x="296" y="-62" font-family="Helvetica,sans-Serif" font-size="10.00">/ARX/AR2/util.h</text>
</a>
</g>
</g>
<!-- Node2 -->
<g id="node2" class="node">
<title>Node2</title>
<g id="a_node2"><a xlink:href="handle_8c.html" target="_top" xlink:title=" ">
<polygon fill="white" stroke="#666666" points="134,-19 0,-19 0,0 134,0 134,-19"/>
<text text-anchor="middle" x="67" y="-7" font-family="Helvetica,sans-Serif" font-size="10.00">Source/ARX/AR2/handle.c</text>
</a>
</g>
</g>
<!-- Node1&#45;&gt;Node2 -->
<g id="edge1" class="edge">
<title>Node1&#45;&gt;Node2</title>
<path fill="none" stroke="#63b8ff" d="M228.26,-51.69C186.78,-41.1 135.42,-27.98 101.97,-19.43"/>
<polygon fill="#63b8ff" stroke="#63b8ff" points="227.37,-55.08 237.93,-54.16 229.1,-48.3 227.37,-55.08"/>
</g>
<!-- Node3 -->
<g id="node3" class="node">
<title>Node3</title>
<g id="a_node3"><a xlink:href="marker_8c.html" target="_top" xlink:title=" ">
<polygon fill="white" stroke="#666666" points="286,-19 152,-19 152,0 286,0 286,-19"/>
<text text-anchor="middle" x="219" y="-7" font-family="Helvetica,sans-Serif" font-size="10.00">Source/ARX/AR2/marker.c</text>
</a>
</g>
</g>
<!-- Node1&#45;&gt;Node3 -->
<g id="edge2" class="edge">
<title>Node1&#45;&gt;Node3</title>
<path fill="none" stroke="#63b8ff" d="M267.92,-47.67C254.95,-37.82 240.28,-26.67 230.42,-19.18"/>
<polygon fill="#63b8ff" stroke="#63b8ff" points="265.68,-50.36 275.76,-53.62 269.92,-44.79 265.68,-50.36"/>
</g>
<!-- Node4 -->
<g id="node4" class="node">
<title>Node4</title>
<g id="a_node4"><a xlink:href="surface_8c.html" target="_top" xlink:title=" ">
<polygon fill="white" stroke="#666666" points="441.5,-19 304.5,-19 304.5,0 441.5,0 441.5,-19"/>
<text text-anchor="middle" x="373" y="-7" font-family="Helvetica,sans-Serif" font-size="10.00">Source/ARX/AR2/surface.c</text>
</a>
</g>
</g>
<!-- Node1&#45;&gt;Node4 -->
<g id="edge3" class="edge">
<title>Node1&#45;&gt;Node4</title>
<path fill="none" stroke="#63b8ff" d="M324.08,-47.67C337.05,-37.82 351.72,-26.67 361.58,-19.18"/>
<polygon fill="#63b8ff" stroke="#63b8ff" points="322.08,-44.79 316.24,-53.62 326.32,-50.36 322.08,-44.79"/>
</g>
<!-- Node5 -->
<g id="node5" class="node">
<title>Node5</title>
<g id="a_node5"><a xlink:href="util_8c.html" target="_top" xlink:title=" ">
<polygon fill="white" stroke="#666666" points="578,-19 460,-19 460,0 578,0 578,-19"/>
<text text-anchor="middle" x="519" y="-7" font-family="Helvetica,sans-Serif" font-size="10.00">Source/ARX/AR2/util.c</text>
</a>
</g>
</g>
<!-- Node1&#45;&gt;Node5 -->
<g id="edge4" class="edge">
<title>Node1&#45;&gt;Node5</title>
<path fill="none" stroke="#63b8ff" d="M362.23,-51.63C402.57,-41.04 452.44,-27.96 484.95,-19.43"/>
<polygon fill="#63b8ff" stroke="#63b8ff" points="361.37,-48.23 352.59,-54.16 363.15,-55 361.37,-48.23"/>
</g>
</g>
</svg>
