<?xml version="1.0" encoding="UTF-8" standalone="no"?>
<!DOCTYPE svg PUBLIC "-//W3C//DTD SVG 1.1//EN"
 "http://www.w3.org/Graphics/SVG/1.1/DTD/svg11.dtd">
<!-- Generated by graphviz version 2.40.1 (20161225.0304)
 -->
<!-- Title: Source/ARX/AR/vAlloc.c Pages: 1 -->
<svg width="955pt" height="192pt"
 viewBox="0.00 0.00 954.94 192.00" xmlns="http://www.w3.org/2000/svg" xmlns:xlink="http://www.w3.org/1999/xlink">
<g id="graph0" class="graph" transform="scale(1 1) rotate(0) translate(4 188)">
<title>Source/ARX/AR/vAlloc.c</title>
<polygon fill="#ffffff" stroke="transparent" points="-4,4 -4,-188 950.9431,-188 950.9431,4 -4,4"/>
<!-- Node0 -->
<g id="node1" class="node">
<title>Node0</title>
<polygon fill="#bfbfbf" stroke="#000000" points="395.0764,-165.5 395.0764,-183.5 520.0021,-183.5 520.0021,-165.5 395.0764,-165.5"/>
<text text-anchor="middle" x="457.5393" y="-171.5" font-family="Helvetica,sans-Serif" font-size="10.00" fill="#000000">Source/ARX/AR/vAlloc.c</text>
</g>
<!-- Node1 -->
<g id="node2" class="node">
<title>Node1</title>
<polygon fill="#ffffff" stroke="#bfbfbf" points="784.8078,-.5 784.8078,-18.5 830.2707,-18.5 830.2707,-.5 784.8078,-.5"/>
<text text-anchor="middle" x="807.5393" y="-6.5" font-family="Helvetica,sans-Serif" font-size="10.00" fill="#000000">stdio.h</text>
</g>
<!-- Node0&#45;&gt;Node1 -->
<g id="edge1" class="edge">
<title>Node0&#45;&gt;Node1</title>
<path fill="none" stroke="#191970" d="M520.429,-169.973C632.9413,-160.4247 861.4421,-133.9658 909.5393,-74 914.8228,-67.4127 914.1359,-62.0837 909.5393,-55 901.4903,-42.596 866.8285,-28.8222 840.1207,-19.7133"/>
<polygon fill="#191970" stroke="#191970" points="840.9398,-16.2973 830.3462,-16.4633 838.7311,-22.9398 840.9398,-16.2973"/>
</g>
<!-- Node2 -->
<g id="node3" class="node">
<title>Node2</title>
<polygon fill="#ffffff" stroke="#bfbfbf" points="390.9211,-110.5 390.9211,-128.5 444.1574,-128.5 444.1574,-110.5 390.9211,-110.5"/>
<text text-anchor="middle" x="417.5393" y="-116.5" font-family="Helvetica,sans-Serif" font-size="10.00" fill="#000000">malloc.h</text>
</g>
<!-- Node0&#45;&gt;Node2 -->
<g id="edge2" class="edge">
<title>Node0&#45;&gt;Node2</title>
<path fill="none" stroke="#191970" d="M450.9341,-165.4179C445.3513,-157.7415 437.1914,-146.5217 430.3352,-137.0945"/>
<polygon fill="#191970" stroke="#191970" points="433.0003,-134.8082 424.2879,-128.7795 427.3391,-138.9255 433.0003,-134.8082"/>
</g>
<!-- Node3 -->
<g id="node4" class="node">
<title>Node3</title>
<polygon fill="#ffffff" stroke="#bfbfbf" points=".2536,-.5 .2536,-18.5 46.8249,-18.5 46.8249,-.5 .2536,-.5"/>
<text text-anchor="middle" x="23.5393" y="-6.5" font-family="Helvetica,sans-Serif" font-size="10.00" fill="#000000">math.h</text>
</g>
<!-- Node0&#45;&gt;Node3 -->
<g id="edge3" class="edge">
<title>Node0&#45;&gt;Node3</title>
<path fill="none" stroke="#191970" d="M394.6495,-169.973C282.1372,-160.4247 53.6364,-133.9658 5.5393,-74 -5.099,-60.7365 2.2924,-41.5767 10.5853,-27.5863"/>
<polygon fill="#191970" stroke="#191970" points="13.7411,-29.1536 16.26,-18.8626 7.8733,-25.3367 13.7411,-29.1536"/>
</g>
<!-- Node4 -->
<g id="node5" class="node">
<title>Node4</title>
<g id="a_node5"><a xlink:href="ar_8h.html" target="_top" xlink:title="artoolkitX core routines. ">
<polygon fill="#ffffff" stroke="#000000" points="462.1921,-110.5 462.1921,-128.5 534.8864,-128.5 534.8864,-110.5 462.1921,-110.5"/>
<text text-anchor="middle" x="498.5393" y="-116.5" font-family="Helvetica,sans-Serif" font-size="10.00" fill="#000000">ARX/AR/ar.h</text>
</a>
</g>
</g>
<!-- Node0&#45;&gt;Node4 -->
<g id="edge4" class="edge">
<title>Node0&#45;&gt;Node4</title>
<path fill="none" stroke="#191970" d="M464.3096,-165.4179C470.0909,-157.6624 478.5685,-146.29 485.6403,-136.8035"/>
<polygon fill="#191970" stroke="#191970" points="488.4513,-138.8888 491.6218,-128.7795 482.839,-134.7051 488.4513,-138.8888"/>
</g>
<!-- Node4&#45;&gt;Node1 -->
<g id="edge5" class="edge">
<title>Node4&#45;&gt;Node1</title>
<path fill="none" stroke="#191970" d="M535.2139,-116.2609C597.2463,-110.2559 719.7308,-95.972 756.5393,-74 775.0407,-62.9559 789.4543,-42.513 798.1688,-27.5936"/>
<polygon fill="#191970" stroke="#191970" points="801.287,-29.1871 803.0582,-18.7414 795.1595,-25.8027 801.287,-29.1871"/>
</g>
<!-- Node5 -->
<g id="node6" class="node">
<title>Node5</title>
<polygon fill="#ffffff" stroke="#bfbfbf" points="718.697,-.5 718.697,-18.5 766.3815,-18.5 766.3815,-.5 718.697,-.5"/>
<text text-anchor="middle" x="742.5393" y="-6.5" font-family="Helvetica,sans-Serif" font-size="10.00" fill="#000000">stdlib.h</text>
</g>
<!-- Node4&#45;&gt;Node5 -->
<g id="edge6" class="edge">
<title>Node4&#45;&gt;Node5</title>
<path fill="none" stroke="#191970" d="M535.0453,-117.8082C595.1975,-114.1991 711.1318,-103.5072 737.5393,-74 748.2957,-61.9809 748.5575,-43.149 746.714,-28.9302"/>
<polygon fill="#191970" stroke="#191970" points="750.103,-27.9885 744.9446,-18.7343 743.2061,-29.1855 750.103,-27.9885"/>
</g>
<!-- Node6 -->
<g id="node7" class="node">
<title>Node6</title>
<polygon fill="#ffffff" stroke="#bfbfbf" points="124.4186,-55.5 124.4186,-73.5 172.6599,-73.5 172.6599,-55.5 124.4186,-55.5"/>
<text text-anchor="middle" x="148.5393" y="-61.5" font-family="Helvetica,sans-Serif" font-size="10.00" fill="#000000">stdint.h</text>
</g>
<!-- Node4&#45;&gt;Node6 -->
<g id="edge7" class="edge">
<title>Node4&#45;&gt;Node6</title>
<path fill="none" stroke="#191970" d="M461.745,-111.5007C458.9728,-110.969 456.2144,-110.4621 453.5393,-110 335.546,-89.6193 304.1362,-96.5554 186.5393,-74 185.2995,-73.7622 184.0398,-73.509 182.7695,-73.2438"/>
<polygon fill="#191970" stroke="#191970" points="183.5055,-69.8219 172.9803,-71.0342 181.9642,-76.6501 183.5055,-69.8219"/>
</g>
<!-- Node7 -->
<g id="node8" class="node">
<title>Node7</title>
<polygon fill="#ffffff" stroke="#bfbfbf" points="377.1428,-.5 377.1428,-18.5 425.9357,-18.5 425.9357,-.5 377.1428,-.5"/>
<text text-anchor="middle" x="401.5393" y="-6.5" font-family="Helvetica,sans-Serif" font-size="10.00" fill="#000000">string.h</text>
</g>
<!-- Node4&#45;&gt;Node7 -->
<g id="edge8" class="edge">
<title>Node4&#45;&gt;Node7</title>
<path fill="none" stroke="#191970" d="M497.9363,-110.1946C496.6272,-96.7087 492.4986,-71.5404 479.5393,-55 468.1693,-40.4882 450.7868,-29.7078 435.3144,-22.2928"/>
<polygon fill="#191970" stroke="#191970" points="436.5545,-19.0129 425.9984,-18.1075 433.6858,-25.3982 436.5545,-19.0129"/>
</g>
<!-- Node8 -->
<g id="node9" class="node">
<title>Node8</title>
<polygon fill="#ffffff" stroke="#bfbfbf" points="199.0222,-.5 199.0222,-18.5 290.0563,-18.5 290.0563,-.5 199.0222,-.5"/>
<text text-anchor="middle" x="244.5393" y="-6.5" font-family="Helvetica,sans-Serif" font-size="10.00" fill="#000000">ARX/AR/config.h</text>
</g>
<!-- Node4&#45;&gt;Node8 -->
<g id="edge9" class="edge">
<title>Node4&#45;&gt;Node8</title>
<path fill="none" stroke="#191970" d="M461.7351,-111.5568C458.9651,-111.0122 456.21,-110.487 453.5393,-110 401.7808,-100.5627 253.7964,-113.9305 219.5393,-74 207.8828,-60.4131 218.277,-40.7805 228.9948,-26.7492"/>
<polygon fill="#191970" stroke="#191970" points="231.8543,-28.7828 235.5157,-18.8408 226.4535,-24.3296 231.8543,-28.7828"/>
</g>
<!-- Node9 -->
<g id="node10" class="node">
<title>Node9</title>
<g id="a_node10"><a xlink:href="ar_config_8h.html" target="_top" xlink:title="ARX/AR/arConfig.h">
<polygon fill="#ffffff" stroke="#000000" points="368.4655,-55.5 368.4655,-73.5 470.613,-73.5 470.613,-55.5 368.4655,-55.5"/>
<text text-anchor="middle" x="419.5393" y="-61.5" font-family="Helvetica,sans-Serif" font-size="10.00" fill="#000000">ARX/AR/arConfig.h</text>
</a>
</g>
</g>
<!-- Node4&#45;&gt;Node9 -->
<g id="edge10" class="edge">
<title>Node4&#45;&gt;Node9</title>
<path fill="none" stroke="#191970" d="M485.494,-110.4179C473.3724,-101.9788 455.0993,-89.257 440.8586,-79.3426"/>
<polygon fill="#191970" stroke="#191970" points="442.8106,-76.4369 432.6039,-73.5956 438.811,-82.1818 442.8106,-76.4369"/>
</g>
<!-- Node10 -->
<g id="node11" class="node">
<title>Node10</title>
<g id="a_node11"><a xlink:href="log_8h.html" target="_top" xlink:title="Logging utilities. ">
<polygon fill="#ffffff" stroke="#000000" points="526.4704,-55.5 526.4704,-73.5 618.6081,-73.5 618.6081,-55.5 526.4704,-55.5"/>
<text text-anchor="middle" x="572.5393" y="-61.5" font-family="Helvetica,sans-Serif" font-size="10.00" fill="#000000">ARX/ARUtil/log.h</text>
</a>
</g>
</g>
<!-- Node4&#45;&gt;Node10 -->
<g id="edge11" class="edge">
<title>Node4&#45;&gt;Node10</title>
<path fill="none" stroke="#191970" d="M510.7588,-110.4179C522.0062,-102.0584 538.9074,-89.4966 552.1907,-79.6239"/>
<polygon fill="#191970" stroke="#191970" points="554.3634,-82.37 560.3015,-73.5956 550.1877,-76.7518 554.3634,-82.37"/>
</g>
<!-- Node14 -->
<g id="node15" class="node">
<title>Node14</title>
<g id="a_node15"><a xlink:href="matrix_8h.html" target="_top" xlink:title="ARX/AR/matrix.h">
<polygon fill="#ffffff" stroke="#000000" points="14.7536,-55.5 14.7536,-73.5 106.3249,-73.5 106.3249,-55.5 14.7536,-55.5"/>
<text text-anchor="middle" x="60.5393" y="-61.5" font-family="Helvetica,sans-Serif" font-size="10.00" fill="#000000">ARX/AR/matrix.h</text>
</a>
</g>
</g>
<!-- Node4&#45;&gt;Node14 -->
<g id="edge18" class="edge">
<title>Node4&#45;&gt;Node14</title>
<path fill="none" stroke="#191970" d="M461.759,-111.4163C458.9835,-110.9042 456.2206,-110.4247 453.5393,-110 307.5331,-86.8745 266.8966,-94.5173 116.4886,-74.0441"/>
<polygon fill="#191970" stroke="#191970" points="116.8052,-70.5547 106.4205,-72.6542 115.8479,-77.4889 116.8052,-70.5547"/>
</g>
<!-- Node15 -->
<g id="node16" class="node">
<title>Node15</title>
<g id="a_node16"><a xlink:href="icp_8h.html" target="_top" xlink:title="ARX/AR/icp.h">
<polygon fill="#ffffff" stroke="#000000" points="822.9728,-55.5 822.9728,-73.5 900.1057,-73.5 900.1057,-55.5 822.9728,-55.5"/>
<text text-anchor="middle" x="861.5393" y="-61.5" font-family="Helvetica,sans-Serif" font-size="10.00" fill="#000000">ARX/AR/icp.h</text>
</a>
</g>
</g>
<!-- Node4&#45;&gt;Node15 -->
<g id="edge20" class="edge">
<title>Node4&#45;&gt;Node15</title>
<path fill="none" stroke="#191970" d="M535.3419,-114.4822C593.4612,-106.4715 710.0221,-90.0551 808.5393,-74 809.8367,-73.7886 811.1515,-73.5717 812.4779,-73.3506"/>
<polygon fill="#191970" stroke="#191970" points="813.5071,-76.7257 822.7762,-71.594 812.3301,-69.8253 813.5071,-76.7257"/>
</g>
<!-- Node17 -->
<g id="node18" class="node">
<title>Node17</title>
<g id="a_node18"><a xlink:href="param_8h.html" target="_top" xlink:title="artoolkitX functions for handling calibrated camera parameters. ">
<polygon fill="#ffffff" stroke="#000000" points="636.1921,-55.5 636.1921,-73.5 728.8864,-73.5 728.8864,-55.5 636.1921,-55.5"/>
<text text-anchor="middle" x="682.5393" y="-61.5" font-family="Helvetica,sans-Serif" font-size="10.00" fill="#000000">ARX/AR/param.h</text>
</a>
</g>
</g>
<!-- Node4&#45;&gt;Node17 -->
<g id="edge23" class="edge">
<title>Node4&#45;&gt;Node17</title>
<path fill="none" stroke="#191970" d="M523.7568,-110.4179C553.0775,-101.0751 601.7316,-86.4834 637.5351,-76.263"/>
<polygon fill="#191970" stroke="#191970" points="638.5998,-79.5991 647.266,-73.5042 636.6905,-72.8646 638.5998,-79.5991"/>
</g>
<!-- Node18 -->
<g id="node19" class="node">
<title>Node18</title>
<g id="a_node19"><a xlink:href="ar_image_proc_8h.html" target="_top" xlink:title="artoolkitX functions for 2D luminance image processing. ">
<polygon fill="#ffffff" stroke="#000000" points="228.7414,-55.5 228.7414,-73.5 350.3371,-73.5 350.3371,-55.5 228.7414,-55.5"/>
<text text-anchor="middle" x="289.5393" y="-61.5" font-family="Helvetica,sans-Serif" font-size="10.00" fill="#000000">ARX/AR/arImageProc.h</text>
</a>
</g>
</g>
<!-- Node4&#45;&gt;Node18 -->
<g id="edge25" class="edge">
<title>Node4&#45;&gt;Node18</title>
<path fill="none" stroke="#191970" d="M461.7873,-111.1467C424.379,-101.8503 366.8161,-86.7585 328.607,-76.2685"/>
<polygon fill="#191970" stroke="#191970" points="329.4266,-72.8639 318.8556,-73.5739 327.5622,-79.611 329.4266,-72.8639"/>
</g>
<!-- Node10&#45;&gt;Node1 -->
<g id="edge12" class="edge">
<title>Node10&#45;&gt;Node1</title>
<path fill="none" stroke="#191970" d="M617.101,-55.424C656.1946,-47.2575 714.7779,-34.5278 774.5323,-19.1333"/>
<polygon fill="#191970" stroke="#191970" points="775.7215,-22.4406 784.5197,-16.5378 773.9608,-15.6656 775.7215,-22.4406"/>
</g>
<!-- Node10&#45;&gt;Node5 -->
<g id="edge13" class="edge">
<title>Node10&#45;&gt;Node5</title>
<path fill="none" stroke="#191970" d="M600.6113,-55.4179C630.31,-45.8095 677.1685,-30.6493 708.8423,-20.402"/>
<polygon fill="#191970" stroke="#191970" points="710.1143,-23.6691 718.5514,-17.2608 707.9595,-17.009 710.1143,-23.6691"/>
</g>
<!-- Node10&#45;&gt;Node7 -->
<g id="edge14" class="edge">
<title>Node10&#45;&gt;Node7</title>
<path fill="none" stroke="#191970" d="M544.3021,-55.4179C514.5143,-45.837 467.5645,-30.7362 435.7087,-20.4902"/>
<polygon fill="#191970" stroke="#191970" points="436.5286,-17.0773 425.9372,-17.3473 434.3852,-23.7411 436.5286,-17.0773"/>
</g>
<!-- Node11 -->
<g id="node12" class="node">
<title>Node11</title>
<polygon fill="#ffffff" stroke="#bfbfbf" points="564.4728,-.5 564.4728,-18.5 616.6057,-18.5 616.6057,-.5 564.4728,-.5"/>
<text text-anchor="middle" x="590.5393" y="-6.5" font-family="Helvetica,sans-Serif" font-size="10.00" fill="#000000">stdarg.h</text>
</g>
<!-- Node10&#45;&gt;Node11 -->
<g id="edge15" class="edge">
<title>Node10&#45;&gt;Node11</title>
<path fill="none" stroke="#191970" d="M575.5116,-55.4179C577.8943,-48.1372 581.3203,-37.669 584.2995,-28.5659"/>
<polygon fill="#191970" stroke="#191970" points="587.7183,-29.3721 587.5023,-18.7795 581.0655,-27.1948 587.7183,-29.3721"/>
</g>
<!-- Node12 -->
<g id="node13" class="node">
<title>Node12</title>
<polygon fill="#ffffff" stroke="#bfbfbf" points="634.8078,-.5 634.8078,-18.5 700.2707,-18.5 700.2707,-.5 634.8078,-.5"/>
<text text-anchor="middle" x="667.5393" y="-6.5" font-family="Helvetica,sans-Serif" font-size="10.00" fill="#000000">sys/errno.h</text>
</g>
<!-- Node10&#45;&gt;Node12 -->
<g id="edge16" class="edge">
<title>Node10&#45;&gt;Node12</title>
<path fill="none" stroke="#191970" d="M588.2266,-55.4179C603.0782,-46.8195 625.609,-33.7754 642.8662,-23.7844"/>
<polygon fill="#191970" stroke="#191970" points="644.928,-26.635 651.8286,-18.5956 641.4207,-20.577 644.928,-26.635"/>
</g>
<!-- Node13 -->
<g id="node14" class="node">
<title>Node13</title>
<g id="a_node14"><a xlink:href="types_8h.html" target="_top" xlink:title="ARX/ARUtil/types.h">
<polygon fill="#ffffff" stroke="#000000" points="444.1921,-.5 444.1921,-18.5 546.8864,-18.5 546.8864,-.5 444.1921,-.5"/>
<text text-anchor="middle" x="495.5393" y="-6.5" font-family="Helvetica,sans-Serif" font-size="10.00" fill="#000000">ARX/ARUtil/types.h</text>
</a>
</g>
</g>
<!-- Node10&#45;&gt;Node13 -->
<g id="edge17" class="edge">
<title>Node10&#45;&gt;Node13</title>
<path fill="none" stroke="#191970" d="M559.8243,-55.4179C548.121,-47.0584 530.5345,-34.4966 516.7127,-24.6239"/>
<polygon fill="#191970" stroke="#191970" points="518.4448,-21.56 508.2731,-18.5956 514.3761,-27.2561 518.4448,-21.56"/>
</g>
<!-- Node14&#45;&gt;Node3 -->
<g id="edge19" class="edge">
<title>Node14&#45;&gt;Node3</title>
<path fill="none" stroke="#191970" d="M54.4295,-55.4179C49.2654,-47.7415 41.7175,-36.5217 35.3755,-27.0945"/>
<polygon fill="#191970" stroke="#191970" points="38.2676,-25.1231 29.7818,-18.7795 32.4596,-29.0303 38.2676,-25.1231"/>
</g>
<!-- Node15&#45;&gt;Node1 -->
<g id="edge21" class="edge">
<title>Node15&#45;&gt;Node1</title>
<path fill="none" stroke="#191970" d="M852.6222,-55.4179C844.7747,-47.425 833.1552,-35.5903 823.6781,-25.9377"/>
<polygon fill="#191970" stroke="#191970" points="826.1534,-23.463 816.65,-18.7795 821.1584,-28.3672 826.1534,-23.463"/>
</g>
<!-- Node16 -->
<g id="node17" class="node">
<title>Node16</title>
<g id="a_node17"><a xlink:href="icp_core_8h.html" target="_top" xlink:title="ARX/AR/icpCore.h">
<polygon fill="#ffffff" stroke="#000000" points="848.1354,-.5 848.1354,-18.5 946.9431,-18.5 946.9431,-.5 848.1354,-.5"/>
<text text-anchor="middle" x="897.5393" y="-6.5" font-family="Helvetica,sans-Serif" font-size="10.00" fill="#000000">ARX/AR/icpCore.h</text>
</a>
</g>
</g>
<!-- Node15&#45;&gt;Node16 -->
<g id="edge22" class="edge">
<title>Node15&#45;&gt;Node16</title>
<path fill="none" stroke="#191970" d="M867.4839,-55.4179C872.4566,-47.8207 879.7011,-36.7527 885.8316,-27.3866"/>
<polygon fill="#191970" stroke="#191970" points="888.9173,-29.0633 891.4654,-18.7795 883.0603,-25.2297 888.9173,-29.0633"/>
</g>
<!-- Node17&#45;&gt;Node4 -->
<g id="edge24" class="edge">
<title>Node17&#45;&gt;Node4</title>
<path fill="none" stroke="#191970" d="M657.5662,-73.5042C628.3534,-82.8177 579.7176,-97.4068 543.8428,-107.6515"/>
<polygon fill="#191970" stroke="#191970" points="542.7549,-104.322 534.0894,-110.4179 544.665,-111.0563 542.7549,-104.322"/>
</g>
<!-- Node18&#45;&gt;Node4 -->
<g id="edge27" class="edge">
<title>Node18&#45;&gt;Node4</title>
<path fill="none" stroke="#191970" d="M328.9054,-73.5042C366.2414,-82.8177 421.8519,-97.4068 459.1802,-107.6515"/>
<polygon fill="#191970" stroke="#191970" points="458.6225,-111.1285 469.1935,-110.4179 460.4866,-104.3813 458.6225,-111.1285"/>
</g>
<!-- Node18&#45;&gt;Node8 -->
<g id="edge26" class="edge">
<title>Node18&#45;&gt;Node8</title>
<path fill="none" stroke="#191970" d="M282.1084,-55.4179C275.763,-47.6624 266.4583,-36.29 258.6967,-26.8035"/>
<polygon fill="#191970" stroke="#191970" points="261.1728,-24.3027 252.1315,-18.7795 255.7551,-28.7354 261.1728,-24.3027"/>
</g>
</g>
</svg>
