<?xml version="1.0" encoding="UTF-8" standalone="no"?>
<!DOCTYPE svg PUBLIC "-//W3C//DTD SVG 1.1//EN"
 "http://www.w3.org/Graphics/SVG/1.1/DTD/svg11.dtd">
<!-- Generated by graphviz version 2.40.1 (20161225.0304)
 -->
<!-- Title: /Users/phil/r/artoolkitx/Source/ARX/AR/vAlloc.c Pages: 1 -->
<!--zoomable 202 -->
<svg id="main" version="1.1" xmlns="http://www.w3.org/2000/svg" xmlns:xlink="http://www.w3.org/1999/xlink" xml:space="preserve" onload="init(evt)">
<style type="text/css"><![CDATA[
.edge:hover path { stroke: red; }
.edge:hover polygon { stroke: red; fill: red; }
]]></style>
<script type="text/javascript"><![CDATA[
var edges = document.getElementsByTagName('g');
if (edges && edges.length) {
  for (var i=0;i<edges.length;i++) {
    if (edges[i].id.substr(0,4)=='edge') {
      edges[i].setAttribute('class','edge');
    }
  }
}
]]></script>
        <defs>
                <circle id="rim" cx="0" cy="0" r="7"/>
                <circle id="rim2" cx="0" cy="0" r="3.5"/>
                <g id="zoomPlus">
                        <use xlink:href="#rim" fill="#404040">
                                <set attributeName="fill" to="#808080" begin="zoomplus.mouseover" end="zoomplus.mouseout"/>
                        </use>
                        <path d="M-4,0h8M0,-4v8" fill="none" stroke="white" stroke-width="1.5" pointer-events="none"/>
                </g>
                <g id="zoomMin">
                        <use xlink:href="#rim" fill="#404040">
                                <set attributeName="fill" to="#808080" begin="zoomminus.mouseover" end="zoomminus.mouseout"/>
                        </use>
                        <path d="M-4,0h8" fill="none" stroke="white" stroke-width="1.5" pointer-events="none"/>
                </g>
                <g id="dirArrow">
                        <path fill="none" stroke="white" stroke-width="1.5" d="M0,-3.0v7 M-2.5,-0.5L0,-3.0L2.5,-0.5"/>
                </g>
               <g id="resetDef">
                       <use xlink:href="#rim2" fill="#404040">
                               <set attributeName="fill" to="#808080" begin="reset.mouseover" end="reset.mouseout"/>
                       </use>
               </g>
        </defs>

<script type="text/javascript">
var viewWidth = 955;
var viewHeight = 202;
var sectionId = 'dynsection-0';
</script>
<script xlink:href="svgpan.js"/>
<svg id="graph" class="graph">
<g id="viewport">
<title>/Users/phil/r/artoolkitx/Source/ARX/AR/vAlloc.c</title>
<polygon fill="#ffffff" stroke="transparent" points="-4,4 -4,-198 950.896,-198 950.896,4 -4,4"/>
<!-- Node0 -->
<g id="node1" class="node">
<title>Node0</title>
<polygon fill="#bfbfbf" stroke="#000000" points="393.6401,-165.5 393.6401,-193.5 521.3442,-193.5 521.3442,-165.5 393.6401,-165.5"/>
<text text-anchor="start" x="401.6401" y="-181.5" font-family="Helvetica,sans-Serif" font-size="10.00" fill="#000000">/Users/phil/r/artoolkitx</text>
<text text-anchor="middle" x="457.4922" y="-171.5" font-family="Helvetica,sans-Serif" font-size="10.00" fill="#000000">/Source/ARX/AR/vAlloc.c</text>
</g>
<!-- Node1 -->
<g id="node2" class="node">
<title>Node1</title>
<polygon fill="#ffffff" stroke="#bfbfbf" points="784.7607,-.5 784.7607,-18.5 830.2236,-18.5 830.2236,-.5 784.7607,-.5"/>
<text text-anchor="middle" x="807.4922" y="-6.5" font-family="Helvetica,sans-Serif" font-size="10.00" fill="#000000">stdio.h</text>
</g>
<!-- Node0&#45;&gt;Node1 -->
<g id="edge1" class="edge">
<title>Node0&#45;&gt;Node1</title>
<path fill="none" stroke="#191970" d="M521.7503,-174.123C634.7863,-163.1876 861.7842,-134.1257 909.4922,-74 914.741,-67.385 914.0888,-62.0837 909.4922,-55 901.4432,-42.596 866.7814,-28.8222 840.0737,-19.7133"/>
<polygon fill="#191970" stroke="#191970" points="840.8927,-16.2973 830.2992,-16.4633 838.684,-22.9398 840.8927,-16.2973"/>
</g>
<!-- Node2 -->
<g id="node3" class="node">
<title>Node2</title>
<polygon fill="#ffffff" stroke="#bfbfbf" points="390.874,-110.5 390.874,-128.5 444.1103,-128.5 444.1103,-110.5 390.874,-110.5"/>
<text text-anchor="middle" x="417.4922" y="-116.5" font-family="Helvetica,sans-Serif" font-size="10.00" fill="#000000">malloc.h</text>
</g>
<!-- Node0&#45;&gt;Node2 -->
<g id="edge2" class="edge">
<title>Node0&#45;&gt;Node2</title>
<path fill="none" stroke="#191970" d="M448.0127,-165.2808C442.3887,-156.8448 435.2131,-146.0813 429.2327,-137.1107"/>
<polygon fill="#191970" stroke="#191970" points="432.0075,-134.9632 423.5483,-128.5842 426.1832,-138.8462 432.0075,-134.9632"/>
</g>
<!-- Node3 -->
<g id="node4" class="node">
<title>Node3</title>
<polygon fill="#ffffff" stroke="#bfbfbf" points=".2065,-.5 .2065,-18.5 46.7778,-18.5 46.7778,-.5 .2065,-.5"/>
<text text-anchor="middle" x="23.4922" y="-6.5" font-family="Helvetica,sans-Serif" font-size="10.00" fill="#000000">math.h</text>
</g>
<!-- Node0&#45;&gt;Node3 -->
<g id="edge3" class="edge">
<title>Node0&#45;&gt;Node3</title>
<path fill="none" stroke="#191970" d="M393.2341,-174.123C280.1981,-163.1876 53.2002,-134.1257 5.4922,-74 -5.0762,-60.6808 2.3053,-41.5289 10.5767,-27.5556"/>
<polygon fill="#191970" stroke="#191970" points="13.7231,-29.137 16.2357,-18.8444 7.8529,-25.3237 13.7231,-29.137"/>
</g>
<!-- Node4 -->
<g id="node5" class="node">
<title>Node4</title>
<g id="a_node5"><a xlink:href="ar_8h.html" target="_top" xlink:title="artoolkitX core routines. ">
<polygon fill="#ffffff" stroke="#000000" points="462.145,-110.5 462.145,-128.5 534.8393,-128.5 534.8393,-110.5 462.145,-110.5"/>
<text text-anchor="middle" x="498.4922" y="-116.5" font-family="Helvetica,sans-Serif" font-size="10.00" fill="#000000">ARX/AR/ar.h</text>
</a>
</g>
</g>
<!-- Node0&#45;&gt;Node4 -->
<g id="edge4" class="edge">
<title>Node0&#45;&gt;Node4</title>
<path fill="none" stroke="#191970" d="M467.2086,-165.2808C472.9733,-156.8448 480.3283,-146.0813 486.4582,-137.1107"/>
<polygon fill="#191970" stroke="#191970" points="489.5325,-138.8153 492.2847,-128.5842 483.7529,-134.866 489.5325,-138.8153"/>
</g>
<!-- Node4&#45;&gt;Node1 -->
<g id="edge5" class="edge">
<title>Node4&#45;&gt;Node1</title>
<path fill="none" stroke="#191970" d="M535.1669,-116.2609C597.1993,-110.2559 719.6837,-95.972 756.4922,-74 774.9937,-62.9559 789.4072,-42.513 798.1217,-27.5936"/>
<polygon fill="#191970" stroke="#191970" points="801.2399,-29.1871 803.0111,-18.7414 795.1125,-25.8027 801.2399,-29.1871"/>
</g>
<!-- Node5 -->
<g id="node6" class="node">
<title>Node5</title>
<polygon fill="#ffffff" stroke="#bfbfbf" points="718.6499,-.5 718.6499,-18.5 766.3345,-18.5 766.3345,-.5 718.6499,-.5"/>
<text text-anchor="middle" x="742.4922" y="-6.5" font-family="Helvetica,sans-Serif" font-size="10.00" fill="#000000">stdlib.h</text>
</g>
<!-- Node4&#45;&gt;Node5 -->
<g id="edge6" class="edge">
<title>Node4&#45;&gt;Node5</title>
<path fill="none" stroke="#191970" d="M534.9983,-117.8082C595.1505,-114.1991 711.0847,-103.5072 737.4922,-74 748.2487,-61.9809 748.5104,-43.149 746.667,-28.9302"/>
<polygon fill="#191970" stroke="#191970" points="750.0559,-27.9885 744.8975,-18.7343 743.159,-29.1855 750.0559,-27.9885"/>
</g>
<!-- Node6 -->
<g id="node7" class="node">
<title>Node6</title>
<polygon fill="#ffffff" stroke="#bfbfbf" points="124.3716,-55.5 124.3716,-73.5 172.6128,-73.5 172.6128,-55.5 124.3716,-55.5"/>
<text text-anchor="middle" x="148.4922" y="-61.5" font-family="Helvetica,sans-Serif" font-size="10.00" fill="#000000">stdint.h</text>
</g>
<!-- Node4&#45;&gt;Node6 -->
<g id="edge7" class="edge">
<title>Node4&#45;&gt;Node6</title>
<path fill="none" stroke="#191970" d="M461.698,-111.5007C458.9257,-110.969 456.1674,-110.4621 453.4922,-110 335.4989,-89.6193 304.0891,-96.5554 186.4922,-74 185.2525,-73.7622 183.9928,-73.509 182.7225,-73.2438"/>
<polygon fill="#191970" stroke="#191970" points="183.4585,-69.8219 172.9332,-71.0342 181.9172,-76.6501 183.4585,-69.8219"/>
</g>
<!-- Node7 -->
<g id="node8" class="node">
<title>Node7</title>
<polygon fill="#ffffff" stroke="#bfbfbf" points="377.0957,-.5 377.0957,-18.5 425.8887,-18.5 425.8887,-.5 377.0957,-.5"/>
<text text-anchor="middle" x="401.4922" y="-6.5" font-family="Helvetica,sans-Serif" font-size="10.00" fill="#000000">string.h</text>
</g>
<!-- Node4&#45;&gt;Node7 -->
<g id="edge8" class="edge">
<title>Node4&#45;&gt;Node7</title>
<path fill="none" stroke="#191970" d="M497.8893,-110.1946C496.5801,-96.7087 492.4515,-71.5404 479.4922,-55 468.1223,-40.4882 450.7397,-29.7078 435.2674,-22.2928"/>
<polygon fill="#191970" stroke="#191970" points="436.5074,-19.0129 425.9513,-18.1075 433.6388,-25.3982 436.5074,-19.0129"/>
</g>
<!-- Node8 -->
<g id="node9" class="node">
<title>Node8</title>
<polygon fill="#ffffff" stroke="#bfbfbf" points="198.9751,-.5 198.9751,-18.5 290.0093,-18.5 290.0093,-.5 198.9751,-.5"/>
<text text-anchor="middle" x="244.4922" y="-6.5" font-family="Helvetica,sans-Serif" font-size="10.00" fill="#000000">ARX/AR/config.h</text>
</g>
<!-- Node4&#45;&gt;Node8 -->
<g id="edge9" class="edge">
<title>Node4&#45;&gt;Node8</title>
<path fill="none" stroke="#191970" d="M461.688,-111.5568C458.918,-111.0122 456.1629,-110.487 453.4922,-110 401.7337,-100.5627 253.7493,-113.9305 219.4922,-74 207.8357,-60.4131 218.2299,-40.7805 228.9477,-26.7492"/>
<polygon fill="#191970" stroke="#191970" points="231.8073,-28.7828 235.4686,-18.8408 226.4064,-24.3296 231.8073,-28.7828"/>
</g>
<!-- Node9 -->
<g id="node10" class="node">
<title>Node9</title>
<g id="a_node10"><a xlink:href="ar_config_8h.html" target="_top" xlink:title="ARX/AR/arConfig.h">
<polygon fill="#ffffff" stroke="#000000" points="368.4185,-55.5 368.4185,-73.5 470.5659,-73.5 470.5659,-55.5 368.4185,-55.5"/>
<text text-anchor="middle" x="419.4922" y="-61.5" font-family="Helvetica,sans-Serif" font-size="10.00" fill="#000000">ARX/AR/arConfig.h</text>
</a>
</g>
</g>
<!-- Node4&#45;&gt;Node9 -->
<g id="edge10" class="edge">
<title>Node4&#45;&gt;Node9</title>
<path fill="none" stroke="#191970" d="M485.4469,-110.4179C473.3253,-101.9788 455.0522,-89.257 440.8115,-79.3426"/>
<polygon fill="#191970" stroke="#191970" points="442.7636,-76.4369 432.5568,-73.5956 438.764,-82.1818 442.7636,-76.4369"/>
</g>
<!-- Node10 -->
<g id="node11" class="node">
<title>Node10</title>
<g id="a_node11"><a xlink:href="log_8h.html" target="_top" xlink:title="Logging utilities. ">
<polygon fill="#ffffff" stroke="#000000" points="526.4233,-55.5 526.4233,-73.5 618.561,-73.5 618.561,-55.5 526.4233,-55.5"/>
<text text-anchor="middle" x="572.4922" y="-61.5" font-family="Helvetica,sans-Serif" font-size="10.00" fill="#000000">ARX/ARUtil/log.h</text>
</a>
</g>
</g>
<!-- Node4&#45;&gt;Node10 -->
<g id="edge11" class="edge">
<title>Node4&#45;&gt;Node10</title>
<path fill="none" stroke="#191970" d="M510.7118,-110.4179C521.9591,-102.0584 538.8604,-89.4966 552.1437,-79.6239"/>
<polygon fill="#191970" stroke="#191970" points="554.3163,-82.37 560.2544,-73.5956 550.1406,-76.7518 554.3163,-82.37"/>
</g>
<!-- Node14 -->
<g id="node15" class="node">
<title>Node14</title>
<g id="a_node15"><a xlink:href="matrix_8h.html" target="_top" xlink:title="ARX/AR/matrix.h">
<polygon fill="#ffffff" stroke="#000000" points="14.7065,-55.5 14.7065,-73.5 106.2778,-73.5 106.2778,-55.5 14.7065,-55.5"/>
<text text-anchor="middle" x="60.4922" y="-61.5" font-family="Helvetica,sans-Serif" font-size="10.00" fill="#000000">ARX/AR/matrix.h</text>
</a>
</g>
</g>
<!-- Node4&#45;&gt;Node14 -->
<g id="edge18" class="edge">
<title>Node4&#45;&gt;Node14</title>
<path fill="none" stroke="#191970" d="M461.7119,-111.4163C458.9364,-110.9042 456.1736,-110.4247 453.4922,-110 307.486,-86.8745 266.8495,-94.5173 116.4415,-74.0441"/>
<polygon fill="#191970" stroke="#191970" points="116.7581,-70.5547 106.3734,-72.6542 115.8008,-77.4889 116.7581,-70.5547"/>
</g>
<!-- Node15 -->
<g id="node16" class="node">
<title>Node15</title>
<g id="a_node16"><a xlink:href="icp_8h.html" target="_top" xlink:title="ARX/AR/icp.h">
<polygon fill="#ffffff" stroke="#000000" points="822.9258,-55.5 822.9258,-73.5 900.0586,-73.5 900.0586,-55.5 822.9258,-55.5"/>
<text text-anchor="middle" x="861.4922" y="-61.5" font-family="Helvetica,sans-Serif" font-size="10.00" fill="#000000">ARX/AR/icp.h</text>
</a>
</g>
</g>
<!-- Node4&#45;&gt;Node15 -->
<g id="edge20" class="edge">
<title>Node4&#45;&gt;Node15</title>
<path fill="none" stroke="#191970" d="M535.2948,-114.4822C593.4142,-106.4715 709.9751,-90.0551 808.4922,-74 809.7896,-73.7886 811.1045,-73.5717 812.4309,-73.3506"/>
<polygon fill="#191970" stroke="#191970" points="813.4601,-76.7257 822.7292,-71.594 812.283,-69.8253 813.4601,-76.7257"/>
</g>
<!-- Node17 -->
<g id="node18" class="node">
<title>Node17</title>
<g id="a_node18"><a xlink:href="param_8h.html" target="_top" xlink:title="artoolkitX functions for handling calibrated camera parameters. ">
<polygon fill="#ffffff" stroke="#000000" points="636.145,-55.5 636.145,-73.5 728.8393,-73.5 728.8393,-55.5 636.145,-55.5"/>
<text text-anchor="middle" x="682.4922" y="-61.5" font-family="Helvetica,sans-Serif" font-size="10.00" fill="#000000">ARX/AR/param.h</text>
</a>
</g>
</g>
<!-- Node4&#45;&gt;Node17 -->
<g id="edge23" class="edge">
<title>Node4&#45;&gt;Node17</title>
<path fill="none" stroke="#191970" d="M523.7097,-110.4179C553.0304,-101.0751 601.6845,-86.4834 637.488,-76.263"/>
<polygon fill="#191970" stroke="#191970" points="638.5527,-79.5991 647.2189,-73.5042 636.6434,-72.8646 638.5527,-79.5991"/>
</g>
<!-- Node18 -->
<g id="node19" class="node">
<title>Node18</title>
<g id="a_node19"><a xlink:href="ar_image_proc_8h.html" target="_top" xlink:title="artoolkitX functions for 2D luminance image processing. ">
<polygon fill="#ffffff" stroke="#000000" points="228.6943,-55.5 228.6943,-73.5 350.29,-73.5 350.29,-55.5 228.6943,-55.5"/>
<text text-anchor="middle" x="289.4922" y="-61.5" font-family="Helvetica,sans-Serif" font-size="10.00" fill="#000000">ARX/AR/arImageProc.h</text>
</a>
</g>
</g>
<!-- Node4&#45;&gt;Node18 -->
<g id="edge25" class="edge">
<title>Node4&#45;&gt;Node18</title>
<path fill="none" stroke="#191970" d="M461.7402,-111.1467C424.332,-101.8503 366.769,-86.7585 328.56,-76.2685"/>
<polygon fill="#191970" stroke="#191970" points="329.3796,-72.8639 318.8085,-73.5739 327.5151,-79.611 329.3796,-72.8639"/>
</g>
<!-- Node10&#45;&gt;Node1 -->
<g id="edge12" class="edge">
<title>Node10&#45;&gt;Node1</title>
<path fill="none" stroke="#191970" d="M617.0539,-55.424C656.1475,-47.2575 714.7308,-34.5278 774.4853,-19.1333"/>
<polygon fill="#191970" stroke="#191970" points="775.6744,-22.4406 784.4726,-16.5378 773.9137,-15.6656 775.6744,-22.4406"/>
</g>
<!-- Node10&#45;&gt;Node5 -->
<g id="edge13" class="edge">
<title>Node10&#45;&gt;Node5</title>
<path fill="none" stroke="#191970" d="M600.5642,-55.4179C630.2629,-45.8095 677.1215,-30.6493 708.7952,-20.402"/>
<polygon fill="#191970" stroke="#191970" points="710.0673,-23.6691 718.5043,-17.2608 707.9125,-17.009 710.0673,-23.6691"/>
</g>
<!-- Node10&#45;&gt;Node7 -->
<g id="edge14" class="edge">
<title>Node10&#45;&gt;Node7</title>
<path fill="none" stroke="#191970" d="M544.255,-55.4179C514.4672,-45.837 467.5174,-30.7362 435.6616,-20.4902"/>
<polygon fill="#191970" stroke="#191970" points="436.4815,-17.0773 425.8901,-17.3473 434.3381,-23.7411 436.4815,-17.0773"/>
</g>
<!-- Node11 -->
<g id="node12" class="node">
<title>Node11</title>
<polygon fill="#ffffff" stroke="#bfbfbf" points="564.4258,-.5 564.4258,-18.5 616.5586,-18.5 616.5586,-.5 564.4258,-.5"/>
<text text-anchor="middle" x="590.4922" y="-6.5" font-family="Helvetica,sans-Serif" font-size="10.00" fill="#000000">stdarg.h</text>
</g>
<!-- Node10&#45;&gt;Node11 -->
<g id="edge15" class="edge">
<title>Node10&#45;&gt;Node11</title>
<path fill="none" stroke="#191970" d="M575.4645,-55.4179C577.8473,-48.1372 581.2732,-37.669 584.2524,-28.5659"/>
<polygon fill="#191970" stroke="#191970" points="587.6712,-29.3721 587.4553,-18.7795 581.0184,-27.1948 587.6712,-29.3721"/>
</g>
<!-- Node12 -->
<g id="node13" class="node">
<title>Node12</title>
<polygon fill="#ffffff" stroke="#bfbfbf" points="634.7607,-.5 634.7607,-18.5 700.2236,-18.5 700.2236,-.5 634.7607,-.5"/>
<text text-anchor="middle" x="667.4922" y="-6.5" font-family="Helvetica,sans-Serif" font-size="10.00" fill="#000000">sys/errno.h</text>
</g>
<!-- Node10&#45;&gt;Node12 -->
<g id="edge16" class="edge">
<title>Node10&#45;&gt;Node12</title>
<path fill="none" stroke="#191970" d="M588.1795,-55.4179C603.0312,-46.8195 625.562,-33.7754 642.8191,-23.7844"/>
<polygon fill="#191970" stroke="#191970" points="644.8809,-26.635 651.7816,-18.5956 641.3736,-20.577 644.8809,-26.635"/>
</g>
<!-- Node13 -->
<g id="node14" class="node">
<title>Node13</title>
<g id="a_node14"><a xlink:href="types_8h.html" target="_top" xlink:title="ARX/ARUtil/types.h">
<polygon fill="#ffffff" stroke="#000000" points="444.145,-.5 444.145,-18.5 546.8393,-18.5 546.8393,-.5 444.145,-.5"/>
<text text-anchor="middle" x="495.4922" y="-6.5" font-family="Helvetica,sans-Serif" font-size="10.00" fill="#000000">ARX/ARUtil/types.h</text>
</a>
</g>
</g>
<!-- Node10&#45;&gt;Node13 -->
<g id="edge17" class="edge">
<title>Node10&#45;&gt;Node13</title>
<path fill="none" stroke="#191970" d="M559.7772,-55.4179C548.0739,-47.0584 530.4875,-34.4966 516.6656,-24.6239"/>
<polygon fill="#191970" stroke="#191970" points="518.3978,-21.56 508.2261,-18.5956 514.3291,-27.2561 518.3978,-21.56"/>
</g>
<!-- Node14&#45;&gt;Node3 -->
<g id="edge19" class="edge">
<title>Node14&#45;&gt;Node3</title>
<path fill="none" stroke="#191970" d="M54.3824,-55.4179C49.2183,-47.7415 41.6704,-36.5217 35.3285,-27.0945"/>
<polygon fill="#191970" stroke="#191970" points="38.2206,-25.1231 29.7347,-18.7795 32.4125,-29.0303 38.2206,-25.1231"/>
</g>
<!-- Node15&#45;&gt;Node1 -->
<g id="edge21" class="edge">
<title>Node15&#45;&gt;Node1</title>
<path fill="none" stroke="#191970" d="M852.5752,-55.4179C844.7276,-47.425 833.1081,-35.5903 823.6311,-25.9377"/>
<polygon fill="#191970" stroke="#191970" points="826.1063,-23.463 816.6029,-18.7795 821.1114,-28.3672 826.1063,-23.463"/>
</g>
<!-- Node16 -->
<g id="node17" class="node">
<title>Node16</title>
<g id="a_node17"><a xlink:href="icp_core_8h.html" target="_top" xlink:title="ARX/AR/icpCore.h">
<polygon fill="#ffffff" stroke="#000000" points="848.0884,-.5 848.0884,-18.5 946.896,-18.5 946.896,-.5 848.0884,-.5"/>
<text text-anchor="middle" x="897.4922" y="-6.5" font-family="Helvetica,sans-Serif" font-size="10.00" fill="#000000">ARX/AR/icpCore.h</text>
</a>
</g>
</g>
<!-- Node15&#45;&gt;Node16 -->
<g id="edge22" class="edge">
<title>Node15&#45;&gt;Node16</title>
<path fill="none" stroke="#191970" d="M867.4368,-55.4179C872.4096,-47.8207 879.6541,-36.7527 885.7846,-27.3866"/>
<polygon fill="#191970" stroke="#191970" points="888.8702,-29.0633 891.4184,-18.7795 883.0133,-25.2297 888.8702,-29.0633"/>
</g>
<!-- Node17&#45;&gt;Node4 -->
<g id="edge24" class="edge">
<title>Node17&#45;&gt;Node4</title>
<path fill="none" stroke="#191970" d="M657.5191,-73.5042C628.3063,-82.8177 579.6705,-97.4068 543.7957,-107.6515"/>
<polygon fill="#191970" stroke="#191970" points="542.7078,-104.322 534.0424,-110.4179 544.6179,-111.0563 542.7078,-104.322"/>
</g>
<!-- Node18&#45;&gt;Node4 -->
<g id="edge27" class="edge">
<title>Node18&#45;&gt;Node4</title>
<path fill="none" stroke="#191970" d="M328.8583,-73.5042C366.1943,-82.8177 421.8049,-97.4068 459.1331,-107.6515"/>
<polygon fill="#191970" stroke="#191970" points="458.5754,-111.1285 469.1464,-110.4179 460.4395,-104.3813 458.5754,-111.1285"/>
</g>
<!-- Node18&#45;&gt;Node8 -->
<g id="edge26" class="edge">
<title>Node18&#45;&gt;Node8</title>
<path fill="none" stroke="#191970" d="M282.0613,-55.4179C275.716,-47.6624 266.4113,-36.29 258.6496,-26.8035"/>
<polygon fill="#191970" stroke="#191970" points="261.1257,-24.3027 252.0845,-18.7795 255.708,-28.7354 261.1257,-24.3027"/>
</g>
</g>
</svg>
        <g id="navigator" transform="translate(0 0)" fill="#404254">
                <rect fill="#f2f5e9" fill-opacity="0.5" stroke="#606060" stroke-width=".5" x="0" y="0" width="60" height="60"/>
                <use id="zoomplus" xlink:href="#zoomPlus" x="17" y="9" onmousedown="handleZoom(evt,'in')"/>
                <use id="zoomminus" xlink:href="#zoomMin" x="42" y="9" onmousedown="handleZoom(evt,'out')"/>
                <use id="reset" xlink:href="#resetDef" x="30" y="36" onmousedown="handleReset()"/>
                <g id="arrowUp" xlink:href="#dirArrow" transform="translate(30 24)" onmousedown="handlePan(0,-1)">
                  <use xlink:href="#rim" fill="#404040">
                        <set attributeName="fill" to="#808080" begin="arrowUp.mouseover" end="arrowUp.mouseout"/>
                  </use>
                  <path fill="none" stroke="white" stroke-width="1.5" d="M0,-3.0v7 M-2.5,-0.5L0,-3.0L2.5,-0.5"/>
                </g>
                <g id="arrowRight" xlink:href="#dirArrow" transform="rotate(90) translate(36 -43)" onmousedown="handlePan(1,0)">
                  <use xlink:href="#rim" fill="#404040">
                        <set attributeName="fill" to="#808080" begin="arrowRight.mouseover" end="arrowRight.mouseout"/>
                  </use>
                  <path fill="none" stroke="white" stroke-width="1.5" d="M0,-3.0v7 M-2.5,-0.5L0,-3.0L2.5,-0.5"/>
                </g>
                <g id="arrowDown" xlink:href="#dirArrow" transform="rotate(180) translate(-30 -48)" onmousedown="handlePan(0,1)">
                  <use xlink:href="#rim" fill="#404040">
                        <set attributeName="fill" to="#808080" begin="arrowDown.mouseover" end="arrowDown.mouseout"/>
                  </use>
                  <path fill="none" stroke="white" stroke-width="1.5" d="M0,-3.0v7 M-2.5,-0.5L0,-3.0L2.5,-0.5"/>
                </g>
                <g id="arrowLeft" xlink:href="#dirArrow" transform="rotate(270) translate(-36 17)" onmousedown="handlePan(-1,0)">
                  <use xlink:href="#rim" fill="#404040">
                        <set attributeName="fill" to="#808080" begin="arrowLeft.mouseover" end="arrowLeft.mouseout"/>
                  </use>
                  <path fill="none" stroke="white" stroke-width="1.5" d="M0,-3.0v7 M-2.5,-0.5L0,-3.0L2.5,-0.5"/>
                </g>
        </g>
        <svg viewBox="0 0 15 15" width="100%" height="30px" preserveAspectRatio="xMaxYMin meet">
         <g id="arrow_out" transform="scale(0.3 0.3)">
          <a xlink:href="v_alloc_8c__incl_org.svg" target="_base">
           <rect id="button" ry="5" rx="5" y="6" x="6" height="38" width="38"
                fill="#f2f5e9" fill-opacity="0.5" stroke="#606060" stroke-width="1.0"/>
           <path id="arrow"
             d="M 11.500037,31.436501 C 11.940474,20.09759 22.043105,11.32322 32.158766,21.979434 L 37.068811,17.246167 C 37.068811,17.246167 37.088388,32 37.088388,32 L 22.160133,31.978069 C 22.160133,31.978069 26.997745,27.140456 26.997745,27.140456 C 18.528582,18.264221 13.291696,25.230495 11.500037,31.436501 z"
             style="fill:#404040;"/>
          </a>
         </g>
        </svg>
</svg>
