<?xml version="1.0" encoding="UTF-8" standalone="no"?>
<!DOCTYPE svg PUBLIC "-//W3C//DTD SVG 1.1//EN"
 "http://www.w3.org/Graphics/SVG/1.1/DTD/svg11.dtd">
<!-- Generated by graphviz version 7.0.5 (20221223.1930)
 -->
<!-- Title: ar2VideoOpen Pages: 1 -->
<svg width="260pt" height="323pt"
 viewBox="0.00 0.00 260.00 323.00" xmlns="http://www.w3.org/2000/svg" xmlns:xlink="http://www.w3.org/1999/xlink">
<g id="graph0" class="graph" transform="scale(1 1) rotate(0) translate(4 319)">
<title>ar2VideoOpen</title>
<!-- Node1 -->
<g id="node1" class="node">
<title>Node1</title>
<g id="a_node1"><a xlink:title="Open a video input module and return control object.">
<polygon fill="#999999" stroke="#666666" points="78,-167 0,-167 0,-148 78,-148 78,-167"/>
<text text-anchor="middle" x="39" y="-155" font-family="Helvetica,sans-Serif" font-size="10.00">ar2VideoOpen</text>
</a>
</g>
</g>
<!-- Node2 -->
<g id="node2" class="node">
<title>Node2</title>
<g id="a_node2"><a xlink:href="video1394_8h.html#a5e135a088763d0bbeb2d95f8c92704b1" target="_top" xlink:title=" ">
<polygon fill="white" stroke="#666666" points="232.5,-315 133.5,-315 133.5,-296 232.5,-296 232.5,-315"/>
<text text-anchor="middle" x="183" y="-303" font-family="Helvetica,sans-Serif" font-size="10.00">ar2VideoOpen1394</text>
</a>
</g>
</g>
<!-- Node1&#45;&gt;Node2 -->
<g id="edge1" class="edge">
<title>Node1&#45;&gt;Node2</title>
<path fill="none" stroke="#63b8ff" d="M42.72,-167.41C49.95,-191.82 72.02,-255.18 114,-287.5 116.77,-289.63 119.76,-291.51 122.9,-293.16"/>
<polygon fill="#63b8ff" stroke="#63b8ff" points="121.36,-296.31 131.93,-297.13 124.18,-289.9 121.36,-296.31"/>
</g>
<!-- Node3 -->
<g id="node3" class="node">
<title>Node3</title>
<g id="a_node3"><a xlink:href="video_a_v_foundation_8h.html#aefeea555e04e4d04eb17b4adea17013d" target="_top" xlink:title=" ">
<polygon fill="white" stroke="#666666" points="252,-278 114,-278 114,-259 252,-259 252,-278"/>
<text text-anchor="middle" x="183" y="-266" font-family="Helvetica,sans-Serif" font-size="10.00">ar2VideoOpenAVFoundation</text>
</a>
</g>
</g>
<!-- Node1&#45;&gt;Node3 -->
<g id="edge2" class="edge">
<title>Node1&#45;&gt;Node3</title>
<path fill="none" stroke="#63b8ff" d="M45.02,-167.37C55.27,-186.49 80.49,-228.61 114,-250.5 115.84,-251.7 117.76,-252.82 119.73,-253.87"/>
<polygon fill="#63b8ff" stroke="#63b8ff" points="118.06,-256.96 128.61,-257.89 120.94,-250.58 118.06,-256.96"/>
</g>
<!-- Node4 -->
<g id="node4" class="node">
<title>Node4</title>
<g id="a_node4"><a xlink:href="video_dummy_8h.html#a72835c795b3b4f9ec13d7c3bfe482476" target="_top" xlink:title=" ">
<polygon fill="white" stroke="#666666" points="239.5,-241 126.5,-241 126.5,-222 239.5,-222 239.5,-241"/>
<text text-anchor="middle" x="183" y="-229" font-family="Helvetica,sans-Serif" font-size="10.00">ar2VideoOpenDummy</text>
</a>
</g>
</g>
<!-- Node1&#45;&gt;Node4 -->
<g id="edge3" class="edge">
<title>Node1&#45;&gt;Node4</title>
<path fill="none" stroke="#63b8ff" d="M50.16,-167.28C63.67,-179.76 88.8,-201.22 114,-213.5 117.24,-215.08 120.63,-216.53 124.11,-217.87"/>
<polygon fill="#63b8ff" stroke="#63b8ff" points="122.65,-221.07 133.25,-221.04 124.95,-214.45 122.65,-221.07"/>
</g>
<!-- Node5 -->
<g id="node5" class="node">
<title>Node5</title>
<g id="a_node5"><a xlink:href="video_emscripten_8h.html#a29074bdca28d3b80a8e89895087646b5" target="_top" xlink:title=" ">
<polygon fill="white" stroke="#666666" points="247,-204 119,-204 119,-185 247,-185 247,-204"/>
<text text-anchor="middle" x="183" y="-192" font-family="Helvetica,sans-Serif" font-size="10.00">ar2VideoOpenEmscripten</text>
</a>
</g>
</g>
<!-- Node1&#45;&gt;Node5 -->
<g id="edge4" class="edge">
<title>Node1&#45;&gt;Node5</title>
<path fill="none" stroke="#63b8ff" d="M78.05,-167.42C94.85,-171.79 114.8,-176.99 132.71,-181.66"/>
<polygon fill="#63b8ff" stroke="#63b8ff" points="131.82,-185.04 142.38,-184.18 133.58,-178.27 131.82,-185.04"/>
</g>
<!-- Node6 -->
<g id="node6" class="node">
<title>Node6</title>
<g id="a_node6"><a xlink:href="video_g_streamer_8h.html#a39ad73e9efc5e41fb011b58ec8262958" target="_top" xlink:title=" ">
<polygon fill="white" stroke="#666666" points="245.5,-167 120.5,-167 120.5,-148 245.5,-148 245.5,-167"/>
<text text-anchor="middle" x="183" y="-155" font-family="Helvetica,sans-Serif" font-size="10.00">ar2VideoOpenGStreamer</text>
</a>
</g>
</g>
<!-- Node1&#45;&gt;Node6 -->
<g id="edge5" class="edge">
<title>Node1&#45;&gt;Node6</title>
<path fill="none" stroke="#63b8ff" d="M78.43,-157.5C87.9,-157.5 98.35,-157.5 108.87,-157.5"/>
<polygon fill="#63b8ff" stroke="#63b8ff" points="108.76,-161 118.76,-157.5 108.76,-154 108.76,-161"/>
</g>
<!-- Node7 -->
<g id="node7" class="node">
<title>Node7</title>
<g id="a_node7"><a xlink:href="video_image_8h.html#a73390fddad6f8e51c827515ba754986b" target="_top" xlink:title=" ">
<polygon fill="white" stroke="#666666" points="235.5,-130 130.5,-130 130.5,-111 235.5,-111 235.5,-130"/>
<text text-anchor="middle" x="183" y="-118" font-family="Helvetica,sans-Serif" font-size="10.00">ar2VideoOpenImage</text>
</a>
</g>
</g>
<!-- Node1&#45;&gt;Node7 -->
<g id="edge6" class="edge">
<title>Node1&#45;&gt;Node7</title>
<path fill="none" stroke="#63b8ff" d="M78.05,-147.58C94.85,-143.21 114.8,-138.01 132.71,-133.34"/>
<polygon fill="#63b8ff" stroke="#63b8ff" points="133.58,-136.73 142.38,-130.82 131.82,-129.96 133.58,-136.73"/>
</g>
<!-- Node8 -->
<g id="node8" class="node">
<title>Node8</title>
<g id="a_node8"><a xlink:href="video_v4_l2_8h.html#abfb2b883b0d8a1b97aece447925d9fbb" target="_top" xlink:title=" ">
<polygon fill="white" stroke="#666666" points="233.5,-93 132.5,-93 132.5,-74 233.5,-74 233.5,-93"/>
<text text-anchor="middle" x="183" y="-81" font-family="Helvetica,sans-Serif" font-size="10.00">ar2VideoOpenV4L2</text>
</a>
</g>
</g>
<!-- Node1&#45;&gt;Node8 -->
<g id="edge7" class="edge">
<title>Node1&#45;&gt;Node8</title>
<path fill="none" stroke="#63b8ff" d="M50.69,-147.54C64.37,-135.28 89.28,-114.62 114,-102.5 117.97,-100.55 122.18,-98.78 126.47,-97.16"/>
<polygon fill="#63b8ff" stroke="#63b8ff" points="127.47,-100.52 135.8,-93.97 125.21,-93.89 127.47,-100.52"/>
</g>
<!-- Node9 -->
<g id="node9" class="node">
<title>Node9</title>
<g id="a_node9"><a xlink:href="video_windows_media_capture_8h.html#a61863b436e12e617a68415854ef8873a" target="_top" xlink:title=" ">
<polygon fill="white" stroke="#666666" points="238.5,-56 127.5,-56 127.5,-37 238.5,-37 238.5,-56"/>
<text text-anchor="middle" x="183" y="-44" font-family="Helvetica,sans-Serif" font-size="10.00">ar2VideoOpenWinMC</text>
</a>
</g>
</g>
<!-- Node1&#45;&gt;Node9 -->
<g id="edge8" class="edge">
<title>Node1&#45;&gt;Node9</title>
<path fill="none" stroke="#63b8ff" d="M45.08,-147.78C55.42,-128.94 80.8,-87.39 114,-65.5 116.55,-63.82 119.25,-62.28 122.04,-60.88"/>
<polygon fill="#63b8ff" stroke="#63b8ff" points="123.29,-64.16 131.09,-56.98 120.52,-57.73 123.29,-64.16"/>
</g>
<!-- Node10 -->
<g id="node10" class="node">
<title>Node10</title>
<g id="a_node10"><a xlink:href="video_windows_media_foundation_8h.html#a0fd1e3b5895e22598a81e24f86820168" target="_top" xlink:title=" ">
<polygon fill="white" stroke="#666666" points="238,-19 128,-19 128,0 238,0 238,-19"/>
<text text-anchor="middle" x="183" y="-7" font-family="Helvetica,sans-Serif" font-size="10.00">ar2VideoOpenWinMF</text>
</a>
</g>
</g>
<!-- Node1&#45;&gt;Node10 -->
<g id="edge9" class="edge">
<title>Node1&#45;&gt;Node10</title>
<path fill="none" stroke="#63b8ff" d="M42.77,-147.7C50.12,-123.56 72.43,-60.84 114,-28.5 115.78,-27.12 117.65,-25.83 119.6,-24.65"/>
<polygon fill="#63b8ff" stroke="#63b8ff" points="121.14,-27.78 128.47,-20.13 117.97,-21.55 121.14,-27.78"/>
</g>
</g>
</svg>
