<?xml version="1.0" encoding="UTF-8" standalone="no"?>
<!DOCTYPE svg PUBLIC "-//W3C//DTD SVG 1.1//EN"
 "http://www.w3.org/Graphics/SVG/1.1/DTD/svg11.dtd">
<!-- Generated by graphviz version 2.40.1 (20161225.0304)
 -->
<!-- Title: Source/ARX/ARVideo/videoSaveImage.c Pages: 1 -->
<svg width="1099pt" height="257pt"
 viewBox="0.00 0.00 1099.18 257.00" xmlns="http://www.w3.org/2000/svg" xmlns:xlink="http://www.w3.org/1999/xlink">
<g id="graph0" class="graph" transform="scale(1 1) rotate(0) translate(4 253)">
<title>Source/ARX/ARVideo/videoSaveImage.c</title>
<polygon fill="#ffffff" stroke="transparent" points="-4,4 -4,-253 1095.1821,-253 1095.1821,4 -4,4"/>
<!-- Node0 -->
<g id="node1" class="node">
<title>Node0</title>
<polygon fill="#bfbfbf" stroke="#000000" points="311.937,-220.5 311.937,-248.5 424.856,-248.5 424.856,-220.5 311.937,-220.5"/>
<text text-anchor="start" x="319.937" y="-236.5" font-family="Helvetica,sans-Serif" font-size="10.00" fill="#000000">Source/ARX/ARVideo</text>
<text text-anchor="middle" x="368.3965" y="-226.5" font-family="Helvetica,sans-Serif" font-size="10.00" fill="#000000">/videoSaveImage.c</text>
</g>
<!-- Node1 -->
<g id="node2" class="node">
<title>Node1</title>
<g id="a_node2"><a xlink:href="video_8h.html" target="_top" xlink:title="ARX/ARVideo/video.h">
<polygon fill="#ffffff" stroke="#000000" points="414.6563,-165.5 414.6563,-183.5 528.1367,-183.5 528.1367,-165.5 414.6563,-165.5"/>
<text text-anchor="middle" x="471.3965" y="-171.5" font-family="Helvetica,sans-Serif" font-size="10.00" fill="#000000">ARX/ARVideo/video.h</text>
</a>
</g>
</g>
<!-- Node0&#45;&gt;Node1 -->
<g id="edge1" class="edge">
<title>Node0&#45;&gt;Node1</title>
<path fill="none" stroke="#191970" d="M392.5454,-220.4327C408.8487,-210.9356 430.3037,-198.4376 446.7171,-188.8763"/>
<polygon fill="#191970" stroke="#191970" points="448.8424,-191.6889 455.7215,-183.6311 445.3189,-185.6403 448.8424,-191.6889"/>
</g>
<!-- Node3 -->
<g id="node4" class="node">
<title>Node3</title>
<polygon fill="#ffffff" stroke="#bfbfbf" points="407.665,-.5 407.665,-18.5 453.1279,-18.5 453.1279,-.5 407.665,-.5"/>
<text text-anchor="middle" x="430.3965" y="-6.5" font-family="Helvetica,sans-Serif" font-size="10.00" fill="#000000">stdio.h</text>
</g>
<!-- Node0&#45;&gt;Node3 -->
<g id="edge31" class="edge">
<title>Node0&#45;&gt;Node3</title>
<path fill="none" stroke="#191970" d="M359.0075,-220.3201C345.06,-197.6058 321.1439,-151.4024 327.3965,-110 331.2171,-84.7014 328.0715,-74.7006 344.3965,-55 358.2188,-38.3195 379.7759,-26.9326 397.8488,-19.7218"/>
<polygon fill="#191970" stroke="#191970" points="399.3125,-22.9115 407.4595,-16.1383 396.8669,-16.3526 399.3125,-22.9115"/>
</g>
<!-- Node6 -->
<g id="node7" class="node">
<title>Node6</title>
<polygon fill="#ffffff" stroke="#bfbfbf" points="0,-.5 0,-18.5 48.793,-18.5 48.793,-.5 0,-.5"/>
<text text-anchor="middle" x="24.3965" y="-6.5" font-family="Helvetica,sans-Serif" font-size="10.00" fill="#000000">string.h</text>
</g>
<!-- Node0&#45;&gt;Node6 -->
<g id="edge32" class="edge">
<title>Node0&#45;&gt;Node6</title>
<path fill="none" stroke="#191970" d="M343.0841,-220.4566C295.4176,-193.7072 189.5638,-132.852 105.3965,-74 83.2707,-58.5291 59.2273,-39.0111 43.1315,-25.5194"/>
<polygon fill="#191970" stroke="#191970" points="44.9672,-22.4884 35.0698,-18.708 40.4495,-27.8354 44.9672,-22.4884"/>
</g>
<!-- Node22 -->
<g id="node23" class="node">
<title>Node22</title>
<polygon fill="#ffffff" stroke="#bfbfbf" points="545.771,-165.5 545.771,-183.5 599.022,-183.5 599.022,-165.5 545.771,-165.5"/>
<text text-anchor="middle" x="572.3965" y="-171.5" font-family="Helvetica,sans-Serif" font-size="10.00" fill="#000000">jpeglib.h</text>
</g>
<!-- Node0&#45;&gt;Node22 -->
<g id="edge33" class="edge">
<title>Node0&#45;&gt;Node22</title>
<path fill="none" stroke="#191970" d="M416.2254,-220.4327C452.7256,-209.6973 502.2633,-195.1274 535.6788,-185.2993"/>
<polygon fill="#191970" stroke="#191970" points="536.8932,-188.5905 545.4992,-182.411 534.9179,-181.8749 536.8932,-188.5905"/>
</g>
<!-- Node2 -->
<g id="node3" class="node">
<title>Node2</title>
<g id="a_node3"><a xlink:href="ar_8h.html" target="_top" xlink:title="artoolkitX core routines. ">
<polygon fill="#ffffff" stroke="#000000" points="569.0493,-110.5 569.0493,-128.5 641.7437,-128.5 641.7437,-110.5 569.0493,-110.5"/>
<text text-anchor="middle" x="605.3965" y="-116.5" font-family="Helvetica,sans-Serif" font-size="10.00" fill="#000000">ARX/AR/ar.h</text>
</a>
</g>
</g>
<!-- Node1&#45;&gt;Node2 -->
<g id="edge2" class="edge">
<title>Node1&#45;&gt;Node2</title>
<path fill="none" stroke="#191970" d="M493.5239,-165.4179C515.4424,-156.4215 549.2187,-142.5581 573.9256,-132.4172"/>
<polygon fill="#191970" stroke="#191970" points="575.3142,-135.6306 583.2362,-128.5956 572.6562,-129.1549 575.3142,-135.6306"/>
</g>
<!-- Node19 -->
<g id="node20" class="node">
<title>Node19</title>
<g id="a_node20"><a xlink:href="video_config_8h.html" target="_top" xlink:title="ARX/ARVideo/videoConfig.h">
<polygon fill="#ffffff" stroke="#000000" points="780.2031,-110.5 780.2031,-128.5 922.5898,-128.5 922.5898,-110.5 780.2031,-110.5"/>
<text text-anchor="middle" x="851.3965" y="-116.5" font-family="Helvetica,sans-Serif" font-size="10.00" fill="#000000">ARX/ARVideo/videoConfig.h</text>
</a>
</g>
</g>
<!-- Node1&#45;&gt;Node19 -->
<g id="edge26" class="edge">
<title>Node1&#45;&gt;Node19</title>
<path fill="none" stroke="#191970" d="M528.4658,-166.1536C531.1466,-165.7632 533.8007,-165.3772 536.3965,-165 619.4431,-152.9334 714.8202,-139.17 778.6683,-129.97"/>
<polygon fill="#191970" stroke="#191970" points="779.2394,-133.4239 788.6381,-128.5336 778.2412,-126.4954 779.2394,-133.4239"/>
</g>
<!-- Node20 -->
<g id="node21" class="node">
<title>Node20</title>
<polygon fill="#ffffff" stroke="#bfbfbf" points="336.8398,-110.5 336.8398,-128.5 383.9531,-128.5 383.9531,-110.5 336.8398,-110.5"/>
<text text-anchor="middle" x="360.3965" y="-116.5" font-family="Helvetica,sans-Serif" font-size="10.00" fill="#000000">limits.h</text>
</g>
<!-- Node1&#45;&gt;Node20 -->
<g id="edge28" class="edge">
<title>Node1&#45;&gt;Node20</title>
<path fill="none" stroke="#191970" d="M453.0671,-165.4179C435.3124,-156.6205 408.165,-143.1691 387.8349,-133.0956"/>
<polygon fill="#191970" stroke="#191970" points="389.2674,-129.8994 378.7531,-128.5956 386.1595,-136.1716 389.2674,-129.8994"/>
</g>
<!-- Node21 -->
<g id="node22" class="node">
<title>Node21</title>
<g id="a_node22"><a xlink:href="video_luma_8h.html" target="_top" xlink:title="ARX/ARVideo/videoLuma.h">
<polygon fill="#ffffff" stroke="#000000" points="402.1489,-110.5 402.1489,-128.5 540.644,-128.5 540.644,-110.5 402.1489,-110.5"/>
<text text-anchor="middle" x="471.3965" y="-116.5" font-family="Helvetica,sans-Serif" font-size="10.00" fill="#000000">ARX/ARVideo/videoLuma.h</text>
</a>
</g>
</g>
<!-- Node1&#45;&gt;Node21 -->
<g id="edge29" class="edge">
<title>Node1&#45;&gt;Node21</title>
<path fill="none" stroke="#191970" d="M466.2302,-165.4179C464.7386,-158.2164 464.3006,-147.8962 464.9163,-138.8632"/>
<polygon fill="#191970" stroke="#191970" points="468.4091,-139.1392 466.1897,-128.7795 461.4643,-138.2621 468.4091,-139.1392"/>
</g>
<!-- Node2&#45;&gt;Node3 -->
<g id="edge3" class="edge">
<title>Node2&#45;&gt;Node3</title>
<path fill="none" stroke="#191970" d="M568.8057,-113.1416C527.9132,-105.3262 465.2184,-90.9899 448.3965,-74 436.6496,-62.1358 432.4177,-43.285 430.9659,-29.0198"/>
<polygon fill="#191970" stroke="#191970" points="434.4423,-28.5381 430.3073,-18.7835 427.4567,-28.9876 434.4423,-28.5381"/>
</g>
<!-- Node4 -->
<g id="node5" class="node">
<title>Node4</title>
<polygon fill="#ffffff" stroke="#bfbfbf" points="341.5542,-.5 341.5542,-18.5 389.2388,-18.5 389.2388,-.5 341.5542,-.5"/>
<text text-anchor="middle" x="365.3965" y="-6.5" font-family="Helvetica,sans-Serif" font-size="10.00" fill="#000000">stdlib.h</text>
</g>
<!-- Node2&#45;&gt;Node4 -->
<g id="edge4" class="edge">
<title>Node2&#45;&gt;Node4</title>
<path fill="none" stroke="#191970" d="M568.9812,-113.3044C497.426,-101.1101 345.3018,-75.0768 344.3965,-74 333.2063,-60.6903 341.911,-41.2765 351.2832,-27.2279"/>
<polygon fill="#191970" stroke="#191970" points="354.2944,-29.0376 357.3361,-18.8888 348.6294,-24.9257 354.2944,-29.0376"/>
</g>
<!-- Node5 -->
<g id="node6" class="node">
<title>Node5</title>
<polygon fill="#ffffff" stroke="#bfbfbf" points="353.2759,-55.5 353.2759,-73.5 401.5171,-73.5 401.5171,-55.5 353.2759,-55.5"/>
<text text-anchor="middle" x="377.3965" y="-61.5" font-family="Helvetica,sans-Serif" font-size="10.00" fill="#000000">stdint.h</text>
</g>
<!-- Node2&#45;&gt;Node5 -->
<g id="edge5" class="edge">
<title>Node2&#45;&gt;Node5</title>
<path fill="none" stroke="#191970" d="M568.9463,-110.8846C530.6783,-101.813 468.7698,-87.0621 415.3965,-74 414.1704,-73.6999 412.9223,-73.3934 411.6618,-73.083"/>
<polygon fill="#191970" stroke="#191970" points="412.4656,-69.6764 401.9173,-70.6682 410.7818,-76.4709 412.4656,-69.6764"/>
</g>
<!-- Node2&#45;&gt;Node6 -->
<g id="edge6" class="edge">
<title>Node2&#45;&gt;Node6</title>
<path fill="none" stroke="#191970" d="M569.0077,-112.9132C562.4906,-111.8517 555.7522,-110.8305 549.3965,-110 376.3546,-87.3897 326.577,-120.5837 158.3965,-74 117.3999,-62.6445 73.6671,-39.1876 47.7027,-23.9105"/>
<polygon fill="#191970" stroke="#191970" points="49.3569,-20.8216 38.9787,-18.6898 45.7623,-26.8282 49.3569,-20.8216"/>
</g>
<!-- Node7 -->
<g id="node8" class="node">
<title>Node7</title>
<polygon fill="#ffffff" stroke="#bfbfbf" points="836.8794,-.5 836.8794,-18.5 927.9136,-18.5 927.9136,-.5 836.8794,-.5"/>
<text text-anchor="middle" x="882.3965" y="-6.5" font-family="Helvetica,sans-Serif" font-size="10.00" fill="#000000">ARX/AR/config.h</text>
</g>
<!-- Node2&#45;&gt;Node7 -->
<g id="edge7" class="edge">
<title>Node2&#45;&gt;Node7</title>
<path fill="none" stroke="#191970" d="M616.3069,-110.4151C633.5331,-96.5121 668.5619,-69.9962 702.3965,-55 742.2614,-37.331 790.259,-25.6302 826.6615,-18.5239"/>
<polygon fill="#191970" stroke="#191970" points="827.4313,-21.9405 836.6051,-16.6403 826.1283,-15.0628 827.4313,-21.9405"/>
</g>
<!-- Node8 -->
<g id="node9" class="node">
<title>Node8</title>
<g id="a_node9"><a xlink:href="ar_config_8h.html" target="_top" xlink:title="ARX/AR/arConfig.h">
<polygon fill="#ffffff" stroke="#000000" points="457.3228,-55.5 457.3228,-73.5 559.4702,-73.5 559.4702,-55.5 457.3228,-55.5"/>
<text text-anchor="middle" x="508.3965" y="-61.5" font-family="Helvetica,sans-Serif" font-size="10.00" fill="#000000">ARX/AR/arConfig.h</text>
</a>
</g>
</g>
<!-- Node2&#45;&gt;Node8 -->
<g id="edge8" class="edge">
<title>Node2&#45;&gt;Node8</title>
<path fill="none" stroke="#191970" d="M589.3789,-110.4179C574.2146,-101.8195 551.2094,-88.7754 533.589,-78.7844"/>
<polygon fill="#191970" stroke="#191970" points="534.8632,-75.4834 524.4379,-73.5956 531.4105,-81.5727 534.8632,-75.4834"/>
</g>
<!-- Node9 -->
<g id="node10" class="node">
<title>Node9</title>
<g id="a_node10"><a xlink:href="log_8h.html" target="_top" xlink:title="Logging utilities. ">
<polygon fill="#ffffff" stroke="#000000" points="167.3276,-55.5 167.3276,-73.5 259.4653,-73.5 259.4653,-55.5 167.3276,-55.5"/>
<text text-anchor="middle" x="213.3965" y="-61.5" font-family="Helvetica,sans-Serif" font-size="10.00" fill="#000000">ARX/ARUtil/log.h</text>
</a>
</g>
</g>
<!-- Node2&#45;&gt;Node9 -->
<g id="edge9" class="edge">
<title>Node2&#45;&gt;Node9</title>
<path fill="none" stroke="#191970" d="M568.9756,-113.1399C562.4619,-112.0542 555.733,-110.9662 549.3965,-110 451.3491,-95.0491 336.8193,-80.0693 269.9732,-71.5747"/>
<polygon fill="#191970" stroke="#191970" points="270.0248,-68.0533 259.6641,-70.268 269.1446,-74.9978 270.0248,-68.0533"/>
</g>
<!-- Node13 -->
<g id="node14" class="node">
<title>Node13</title>
<g id="a_node14"><a xlink:href="matrix_8h.html" target="_top" xlink:title="ARX/AR/matrix.h">
<polygon fill="#ffffff" stroke="#000000" points="999.6108,-55.5 999.6108,-73.5 1091.1821,-73.5 1091.1821,-55.5 999.6108,-55.5"/>
<text text-anchor="middle" x="1045.3965" y="-61.5" font-family="Helvetica,sans-Serif" font-size="10.00" fill="#000000">ARX/AR/matrix.h</text>
</a>
</g>
</g>
<!-- Node2&#45;&gt;Node13 -->
<g id="edge16" class="edge">
<title>Node2&#45;&gt;Node13</title>
<path fill="none" stroke="#191970" d="M641.7779,-114.9523C718.6016,-105.3494 897.8072,-82.9487 989.3738,-71.5028"/>
<polygon fill="#191970" stroke="#191970" points="990.0706,-74.9431 999.5592,-70.2297 989.2023,-67.9971 990.0706,-74.9431"/>
</g>
<!-- Node15 -->
<g id="node16" class="node">
<title>Node15</title>
<g id="a_node16"><a xlink:href="icp_8h.html" target="_top" xlink:title="ARX/AR/icp.h">
<polygon fill="#ffffff" stroke="#000000" points="577.8301,-55.5 577.8301,-73.5 654.9629,-73.5 654.9629,-55.5 577.8301,-55.5"/>
<text text-anchor="middle" x="616.3965" y="-61.5" font-family="Helvetica,sans-Serif" font-size="10.00" fill="#000000">ARX/AR/icp.h</text>
</a>
</g>
</g>
<!-- Node2&#45;&gt;Node15 -->
<g id="edge18" class="edge">
<title>Node2&#45;&gt;Node15</title>
<path fill="none" stroke="#191970" d="M607.2129,-110.4179C608.6532,-103.2164 610.7172,-92.8962 612.5238,-83.8632"/>
<polygon fill="#191970" stroke="#191970" points="616.0114,-84.2717 614.5406,-73.7795 609.1473,-82.8988 616.0114,-84.2717"/>
</g>
<!-- Node17 -->
<g id="node18" class="node">
<title>Node17</title>
<g id="a_node18"><a xlink:href="param_8h.html" target="_top" xlink:title="artoolkitX functions for handling calibrated camera parameters. ">
<polygon fill="#ffffff" stroke="#000000" points="711.0493,-55.5 711.0493,-73.5 803.7437,-73.5 803.7437,-55.5 711.0493,-55.5"/>
<text text-anchor="middle" x="757.3965" y="-61.5" font-family="Helvetica,sans-Serif" font-size="10.00" fill="#000000">ARX/AR/param.h</text>
</a>
</g>
</g>
<!-- Node2&#45;&gt;Node17 -->
<g id="edge21" class="edge">
<title>Node2&#45;&gt;Node17</title>
<path fill="none" stroke="#191970" d="M625.3299,-110.4179C648.8065,-101.2348 688.0108,-86.9807 717.6962,-76.7909"/>
<polygon fill="#191970" stroke="#191970" points="719.0211,-80.0372 727.362,-73.5042 716.7676,-73.4099 719.0211,-80.0372"/>
</g>
<!-- Node18 -->
<g id="node19" class="node">
<title>Node18</title>
<g id="a_node19"><a xlink:href="ar_image_proc_8h.html" target="_top" xlink:title="artoolkitX functions for 2D luminance image processing. ">
<polygon fill="#ffffff" stroke="#000000" points="821.5986,-55.5 821.5986,-73.5 943.1943,-73.5 943.1943,-55.5 821.5986,-55.5"/>
<text text-anchor="middle" x="882.3965" y="-61.5" font-family="Helvetica,sans-Serif" font-size="10.00" fill="#000000">ARX/AR/arImageProc.h</text>
</a>
</g>
</g>
<!-- Node2&#45;&gt;Node18 -->
<g id="edge23" class="edge">
<title>Node2&#45;&gt;Node18</title>
<path fill="none" stroke="#191970" d="M641.8837,-111.2659C687.744,-101.7306 766.8684,-85.9847 821.8315,-75.4306"/>
<polygon fill="#191970" stroke="#191970" points="822.6357,-78.8402 831.7996,-73.5229 821.32,-71.965 822.6357,-78.8402"/>
</g>
<!-- Node9&#45;&gt;Node3 -->
<g id="edge10" class="edge">
<title>Node9&#45;&gt;Node3</title>
<path fill="none" stroke="#191970" d="M252.5136,-55.4482C288,-47.1098 341.9727,-34.1134 397.6794,-19.1049"/>
<polygon fill="#191970" stroke="#191970" points="398.6256,-22.4748 407.3617,-16.4805 396.7942,-15.7186 398.6256,-22.4748"/>
</g>
<!-- Node9&#45;&gt;Node4 -->
<g id="edge11" class="edge">
<title>Node9&#45;&gt;Node4</title>
<path fill="none" stroke="#191970" d="M238.4962,-55.4179C263.9907,-46.1929 303.6281,-31.8504 331.8142,-21.6515"/>
<polygon fill="#191970" stroke="#191970" points="333.052,-24.9258 341.2644,-18.232 330.6702,-18.3434 333.052,-24.9258"/>
</g>
<!-- Node9&#45;&gt;Node6 -->
<g id="edge12" class="edge">
<title>Node9&#45;&gt;Node6</title>
<path fill="none" stroke="#191970" d="M182.187,-55.4179C148.2151,-45.5319 94.0474,-29.7688 58.8509,-19.5264"/>
<polygon fill="#191970" stroke="#191970" points="59.5998,-16.0992 49.0201,-16.6656 57.6438,-22.8204 59.5998,-16.0992"/>
</g>
<!-- Node10 -->
<g id="node11" class="node">
<title>Node10</title>
<polygon fill="#ffffff" stroke="#bfbfbf" points="187.3301,-.5 187.3301,-18.5 239.4629,-18.5 239.4629,-.5 187.3301,-.5"/>
<text text-anchor="middle" x="213.3965" y="-6.5" font-family="Helvetica,sans-Serif" font-size="10.00" fill="#000000">stdarg.h</text>
</g>
<!-- Node9&#45;&gt;Node10 -->
<g id="edge13" class="edge">
<title>Node9&#45;&gt;Node10</title>
<path fill="none" stroke="#191970" d="M213.3965,-55.4179C213.3965,-48.2164 213.3965,-37.8962 213.3965,-28.8632"/>
<polygon fill="#191970" stroke="#191970" points="216.8966,-28.7794 213.3965,-18.7795 209.8966,-28.7795 216.8966,-28.7794"/>
</g>
<!-- Node11 -->
<g id="node12" class="node">
<title>Node11</title>
<polygon fill="#ffffff" stroke="#bfbfbf" points="257.665,-.5 257.665,-18.5 323.1279,-18.5 323.1279,-.5 257.665,-.5"/>
<text text-anchor="middle" x="290.3965" y="-6.5" font-family="Helvetica,sans-Serif" font-size="10.00" fill="#000000">sys/errno.h</text>
</g>
<!-- Node9&#45;&gt;Node11 -->
<g id="edge14" class="edge">
<title>Node9&#45;&gt;Node11</title>
<path fill="none" stroke="#191970" d="M226.1115,-55.4179C237.8148,-47.0584 255.4012,-34.4966 269.223,-24.6239"/>
<polygon fill="#191970" stroke="#191970" points="271.5596,-27.2561 277.6626,-18.5956 267.4909,-21.56 271.5596,-27.2561"/>
</g>
<!-- Node12 -->
<g id="node13" class="node">
<title>Node12</title>
<g id="a_node13"><a xlink:href="types_8h.html" target="_top" xlink:title="ARX/ARUtil/types.h">
<polygon fill="#ffffff" stroke="#000000" points="67.0493,-.5 67.0493,-18.5 169.7437,-18.5 169.7437,-.5 67.0493,-.5"/>
<text text-anchor="middle" x="118.3965" y="-6.5" font-family="Helvetica,sans-Serif" font-size="10.00" fill="#000000">ARX/ARUtil/types.h</text>
</a>
</g>
</g>
<!-- Node9&#45;&gt;Node12 -->
<g id="edge15" class="edge">
<title>Node9&#45;&gt;Node12</title>
<path fill="none" stroke="#191970" d="M197.7092,-55.4179C182.8575,-46.8195 160.3267,-33.7754 143.0696,-23.7844"/>
<polygon fill="#191970" stroke="#191970" points="144.515,-20.577 134.1071,-18.5956 141.0077,-26.635 144.515,-20.577"/>
</g>
<!-- Node14 -->
<g id="node15" class="node">
<title>Node14</title>
<polygon fill="#ffffff" stroke="#bfbfbf" points="1022.1108,-.5 1022.1108,-18.5 1068.6821,-18.5 1068.6821,-.5 1022.1108,-.5"/>
<text text-anchor="middle" x="1045.3965" y="-6.5" font-family="Helvetica,sans-Serif" font-size="10.00" fill="#000000">math.h</text>
</g>
<!-- Node13&#45;&gt;Node14 -->
<g id="edge17" class="edge">
<title>Node13&#45;&gt;Node14</title>
<path fill="none" stroke="#191970" d="M1045.3965,-55.4179C1045.3965,-48.2164 1045.3965,-37.8962 1045.3965,-28.8632"/>
<polygon fill="#191970" stroke="#191970" points="1048.8966,-28.7794 1045.3965,-18.7795 1041.8966,-28.7795 1048.8966,-28.7794"/>
</g>
<!-- Node15&#45;&gt;Node3 -->
<g id="edge19" class="edge">
<title>Node15&#45;&gt;Node3</title>
<path fill="none" stroke="#191970" d="M585.6824,-55.4179C551.7802,-45.393 497.4405,-29.3248 462.8557,-19.0981"/>
<polygon fill="#191970" stroke="#191970" points="463.812,-15.7312 453.2299,-16.2518 461.827,-22.4439 463.812,-15.7312"/>
</g>
<!-- Node16 -->
<g id="node17" class="node">
<title>Node16</title>
<g id="a_node17"><a xlink:href="icp_core_8h.html" target="_top" xlink:title="ARX/AR/icpCore.h">
<polygon fill="#ffffff" stroke="#000000" points="566.9927,-.5 566.9927,-18.5 665.8003,-18.5 665.8003,-.5 566.9927,-.5"/>
<text text-anchor="middle" x="616.3965" y="-6.5" font-family="Helvetica,sans-Serif" font-size="10.00" fill="#000000">ARX/AR/icpCore.h</text>
</a>
</g>
</g>
<!-- Node15&#45;&gt;Node16 -->
<g id="edge20" class="edge">
<title>Node15&#45;&gt;Node16</title>
<path fill="none" stroke="#191970" d="M616.3965,-55.4179C616.3965,-48.2164 616.3965,-37.8962 616.3965,-28.8632"/>
<polygon fill="#191970" stroke="#191970" points="619.8966,-28.7794 616.3965,-18.7795 612.8966,-28.7795 619.8966,-28.7794"/>
</g>
<!-- Node17&#45;&gt;Node2 -->
<g id="edge22" class="edge">
<title>Node17&#45;&gt;Node2</title>
<path fill="none" stroke="#191970" d="M737.4286,-73.5956C714.0067,-82.7562 674.9632,-96.9531 645.3192,-107.1327"/>
<polygon fill="#191970" stroke="#191970" points="644.0024,-103.8836 635.6625,-110.4179 646.2569,-110.5107 644.0024,-103.8836"/>
</g>
<!-- Node18&#45;&gt;Node2 -->
<g id="edge25" class="edge">
<title>Node18&#45;&gt;Node2</title>
<path fill="none" stroke="#191970" d="M842.0537,-73.5341C791.4533,-84.0143 705.1149,-101.1458 651.8249,-111.2705"/>
<polygon fill="#191970" stroke="#191970" points="651.1274,-107.8402 641.9517,-113.1371 652.4278,-114.7184 651.1274,-107.8402"/>
</g>
<!-- Node18&#45;&gt;Node7 -->
<g id="edge24" class="edge">
<title>Node18&#45;&gt;Node7</title>
<path fill="none" stroke="#191970" d="M882.3965,-55.4179C882.3965,-48.2164 882.3965,-37.8962 882.3965,-28.8632"/>
<polygon fill="#191970" stroke="#191970" points="885.8966,-28.7794 882.3965,-18.7795 878.8966,-28.7795 885.8966,-28.7794"/>
</g>
<!-- Node19&#45;&gt;Node7 -->
<g id="edge27" class="edge">
<title>Node19&#45;&gt;Node7</title>
<path fill="none" stroke="#191970" d="M897.8502,-110.4551C918.2257,-103.9307 940.235,-92.8173 952.3965,-74 965.7791,-53.2933 939.7877,-34.8147 915.7707,-23.0002"/>
<polygon fill="#191970" stroke="#191970" points="916.952,-19.69 906.4075,-18.658 914.0069,-26.0404 916.952,-19.69"/>
</g>
<!-- Node21&#45;&gt;Node1 -->
<g id="edge30" class="edge">
<title>Node21&#45;&gt;Node1</title>
<path fill="none" stroke="#191970" d="M476.6033,-128.7795C478.0756,-136.0373 478.4944,-146.3738 477.8596,-155.383"/>
<polygon fill="#191970" stroke="#191970" points="474.3734,-155.0517 476.5628,-165.4179 481.3157,-155.949 474.3734,-155.0517"/>
</g>
</g>
</svg>
