<?xml version="1.0" encoding="UTF-8" standalone="no"?>
<!DOCTYPE svg PUBLIC "-//W3C//DTD SVG 1.1//EN"
 "http://www.w3.org/Graphics/SVG/1.1/DTD/svg11.dtd">
<!-- Generated by graphviz version 2.40.1 (20161225.0304)
 -->
<!-- Title: /Users/phil/r/artoolkitx/Source/ARX/ARVideo/Dummy/videoDummy.h Pages: 1 -->
<svg width="161pt" height="122pt"
 viewBox="0.00 0.00 160.92 122.00" xmlns="http://www.w3.org/2000/svg" xmlns:xlink="http://www.w3.org/1999/xlink">
<g id="graph0" class="graph" transform="scale(1 1) rotate(0) translate(4 118)">
<title>/Users/phil/r/artoolkitx/Source/ARX/ARVideo/Dummy/videoDummy.h</title>
<polygon fill="#ffffff" stroke="transparent" points="-4,4 -4,-118 156.9189,-118 156.9189,4 -4,4"/>
<!-- Node22 -->
<g id="node1" class="node">
<title>Node22</title>
<polygon fill="#bfbfbf" stroke="#000000" points="0,-75.5 0,-113.5 152.9189,-113.5 152.9189,-75.5 0,-75.5"/>
<text text-anchor="start" x="8" y="-101.5" font-family="Helvetica,sans-Serif" font-size="10.00" fill="#000000">/Users/phil/r/artoolkitx</text>
<text text-anchor="start" x="8" y="-91.5" font-family="Helvetica,sans-Serif" font-size="10.00" fill="#000000">/Source/ARX/ARVideo/Dummy</text>
<text text-anchor="middle" x="76.4595" y="-81.5" font-family="Helvetica,sans-Serif" font-size="10.00" fill="#000000">/videoDummy.h</text>
</g>
<!-- Node23 -->
<g id="node2" class="node">
<title>Node23</title>
<g id="a_node2"><a xlink:href="video_dummy_8c.html" target="_top" xlink:title="/Users/phil/r/artoolkitx\l/Source/ARX/ARVideo/Dummy\l/videoDummy.c">
<polygon fill="#ffffff" stroke="#000000" points="0,-.5 0,-38.5 152.9189,-38.5 152.9189,-.5 0,-.5"/>
<text text-anchor="start" x="8" y="-26.5" font-family="Helvetica,sans-Serif" font-size="10.00" fill="#000000">/Users/phil/r/artoolkitx</text>
<text text-anchor="start" x="8" y="-16.5" font-family="Helvetica,sans-Serif" font-size="10.00" fill="#000000">/Source/ARX/ARVideo/Dummy</text>
<text text-anchor="middle" x="76.4595" y="-6.5" font-family="Helvetica,sans-Serif" font-size="10.00" fill="#000000">/videoDummy.c</text>
</a>
</g>
</g>
<!-- Node22&#45;&gt;Node23 -->
<g id="edge1" class="edge">
<title>Node22&#45;&gt;Node23</title>
<path fill="none" stroke="#191970" d="M76.4595,-64.8977C76.4595,-56.1033 76.4595,-46.7019 76.4595,-38.7489"/>
<polygon fill="#191970" stroke="#191970" points="72.9596,-65.1856 76.4595,-75.1856 79.9596,-65.1857 72.9596,-65.1856"/>
</g>
</g>
</svg>
