<?xml version="1.0" encoding="UTF-8" standalone="no"?>
<!DOCTYPE svg PUBLIC "-//W3C//DTD SVG 1.1//EN"
 "http://www.w3.org/Graphics/SVG/1.1/DTD/svg11.dtd">
<!-- Generated by graphviz version 7.0.5 (20221223.1930)
 -->
<!-- Title: ar2VideoGetParamd Pages: 1 -->
<svg width="312pt" height="360pt"
 viewBox="0.00 0.00 312.00 360.00" xmlns="http://www.w3.org/2000/svg" xmlns:xlink="http://www.w3.org/1999/xlink">
<g id="graph0" class="graph" transform="scale(1 1) rotate(0) translate(4 356)">
<title>ar2VideoGetParamd</title>
<!-- Node1 -->
<g id="node1" class="node">
<title>Node1</title>
<g id="a_node1"><a xlink:title=" ">
<polygon fill="#999999" stroke="#666666" points="104,-185 0,-185 0,-166 104,-166 104,-185"/>
<text text-anchor="middle" x="52" y="-173" font-family="Helvetica,sans-Serif" font-size="10.00">ar2VideoGetParamd</text>
</a>
</g>
</g>
<!-- Node2 -->
<g id="node2" class="node">
<title>Node2</title>
<g id="a_node2"><a xlink:href="video1394_8h.html#ab316073294e8c5b39ae3e8df6a379913" target="_top" xlink:title=" ">
<polygon fill="white" stroke="#666666" points="284.5,-352 159.5,-352 159.5,-333 284.5,-333 284.5,-352"/>
<text text-anchor="middle" x="222" y="-340" font-family="Helvetica,sans-Serif" font-size="10.00">ar2VideoGetParamd1394</text>
</a>
</g>
</g>
<!-- Node1&#45;&gt;Node2 -->
<g id="edge1" class="edge">
<title>Node1&#45;&gt;Node2</title>
<path fill="none" stroke="#63b8ff" d="M55.72,-185.38C63.69,-212.36 89.67,-287.77 140,-324.5 142.82,-326.56 145.83,-328.39 148.97,-330.01"/>
<polygon fill="#63b8ff" stroke="#63b8ff" points="147.41,-333.15 157.98,-333.94 150.21,-326.73 147.41,-333.15"/>
</g>
<!-- Node3 -->
<g id="node3" class="node">
<title>Node3</title>
<g id="a_node3"><a xlink:href="video_android_8h.html#a6183e26c3a8bcdb13c3d988500d23bb0" target="_top" xlink:title=" ">
<polygon fill="white" stroke="#666666" points="290.5,-315 153.5,-315 153.5,-296 290.5,-296 290.5,-315"/>
<text text-anchor="middle" x="222" y="-303" font-family="Helvetica,sans-Serif" font-size="10.00">ar2VideoGetParamdAndroid</text>
</a>
</g>
</g>
<!-- Node1&#45;&gt;Node3 -->
<g id="edge2" class="edge">
<title>Node1&#45;&gt;Node3</title>
<path fill="none" stroke="#63b8ff" d="M57.7,-185.45C68.7,-207.61 98.4,-261.15 140,-287.5 142,-288.76 144.07,-289.94 146.2,-291.04"/>
<polygon fill="#63b8ff" stroke="#63b8ff" points="144.59,-294.15 155.16,-294.97 147.41,-287.74 144.59,-294.15"/>
</g>
<!-- Node4 -->
<g id="node4" class="node">
<title>Node4</title>
<g id="a_node4"><a xlink:href="video_a_v_foundation_8h.html#aaf1de47a4b3b505919cfcb547210b40e" target="_top" xlink:title=" ">
<polygon fill="white" stroke="#666666" points="304,-278 140,-278 140,-259 304,-259 304,-278"/>
<text text-anchor="middle" x="222" y="-266" font-family="Helvetica,sans-Serif" font-size="10.00">ar2VideoGetParamdAVFoundation</text>
</a>
</g>
</g>
<!-- Node1&#45;&gt;Node4 -->
<g id="edge3" class="edge">
<title>Node1&#45;&gt;Node4</title>
<path fill="none" stroke="#63b8ff" d="M61.29,-185.26C75.61,-201.47 106.67,-233.78 140,-250.5 143.12,-252.06 146.37,-253.49 149.71,-254.8"/>
<polygon fill="#63b8ff" stroke="#63b8ff" points="148.54,-258.1 159.14,-258.07 150.84,-251.49 148.54,-258.1"/>
</g>
<!-- Node5 -->
<g id="node5" class="node">
<title>Node5</title>
<g id="a_node5"><a xlink:href="video_dummy_8h.html#a6d6c05ad9c51e4747f50d11f2ce158be" target="_top" xlink:title=" ">
<polygon fill="white" stroke="#666666" points="291.5,-241 152.5,-241 152.5,-222 291.5,-222 291.5,-241"/>
<text text-anchor="middle" x="222" y="-229" font-family="Helvetica,sans-Serif" font-size="10.00">ar2VideoGetParamdDummy</text>
</a>
</g>
</g>
<!-- Node1&#45;&gt;Node5 -->
<g id="edge4" class="edge">
<title>Node1&#45;&gt;Node5</title>
<path fill="none" stroke="#63b8ff" d="M72.62,-185.37C89.98,-193.79 116.18,-205.73 140,-213.5 145.82,-215.4 151.94,-217.16 158.1,-218.78"/>
<polygon fill="#63b8ff" stroke="#63b8ff" points="157.16,-222.16 167.71,-221.18 158.85,-215.36 157.16,-222.16"/>
</g>
<!-- Node6 -->
<g id="node6" class="node">
<title>Node6</title>
<g id="a_node6"><a xlink:href="video_emscripten_8h.html#ac06d2c2f9dcc17e385c9b7aa7e5f6fe4" target="_top" xlink:title=" ">
<polygon fill="white" stroke="#666666" points="299,-204 145,-204 145,-185 299,-185 299,-204"/>
<text text-anchor="middle" x="222" y="-192" font-family="Helvetica,sans-Serif" font-size="10.00">ar2VideoGetParamdEmscripten</text>
</a>
</g>
</g>
<!-- Node1&#45;&gt;Node6 -->
<g id="edge5" class="edge">
<title>Node1&#45;&gt;Node6</title>
<path fill="none" stroke="#63b8ff" d="M104.32,-181.3C113.57,-182.35 123.45,-183.47 133.4,-184.59"/>
<polygon fill="#63b8ff" stroke="#63b8ff" points="132.8,-188.05 143.13,-185.69 133.59,-181.09 132.8,-188.05"/>
</g>
<!-- Node7 -->
<g id="node7" class="node">
<title>Node7</title>
<g id="a_node7"><a xlink:href="video_g_streamer_8h.html#a4b20d5fcb2db25d09ee73607d3260ab7" target="_top" xlink:title=" ">
<polygon fill="white" stroke="#666666" points="298,-167 146,-167 146,-148 298,-148 298,-167"/>
<text text-anchor="middle" x="222" y="-155" font-family="Helvetica,sans-Serif" font-size="10.00">ar2VideoGetParamdGStreamer</text>
</a>
</g>
</g>
<!-- Node1&#45;&gt;Node7 -->
<g id="edge6" class="edge">
<title>Node1&#45;&gt;Node7</title>
<path fill="none" stroke="#63b8ff" d="M104.32,-170C113.89,-168.98 124.12,-167.88 134.41,-166.78"/>
<polygon fill="#63b8ff" stroke="#63b8ff" points="134.49,-170.29 144.06,-165.74 133.74,-163.33 134.49,-170.29"/>
</g>
<!-- Node8 -->
<g id="node8" class="node">
<title>Node8</title>
<g id="a_node8"><a xlink:href="video_image_8h.html#a519145a9d0460b001d6271da67bf892c" target="_top" xlink:title=" ">
<polygon fill="white" stroke="#666666" points="287.5,-130 156.5,-130 156.5,-111 287.5,-111 287.5,-130"/>
<text text-anchor="middle" x="222" y="-118" font-family="Helvetica,sans-Serif" font-size="10.00">ar2VideoGetParamdImage</text>
</a>
</g>
</g>
<!-- Node1&#45;&gt;Node8 -->
<g id="edge7" class="edge">
<title>Node1&#45;&gt;Node8</title>
<path fill="none" stroke="#63b8ff" d="M74.09,-165.64C91.49,-157.79 116.97,-146.91 140,-139.5 146.94,-137.27 154.29,-135.18 161.62,-133.26"/>
<polygon fill="#63b8ff" stroke="#63b8ff" points="162.36,-136.68 171.21,-130.85 160.66,-129.89 162.36,-136.68"/>
</g>
<!-- Node9 -->
<g id="node9" class="node">
<title>Node9</title>
<g id="a_node9"><a xlink:href="video_v4_l2_8h.html#adbee1ab9a6763926f5d8e04322726984" target="_top" xlink:title=" ">
<polygon fill="white" stroke="#666666" points="285.5,-93 158.5,-93 158.5,-74 285.5,-74 285.5,-93"/>
<text text-anchor="middle" x="222" y="-81" font-family="Helvetica,sans-Serif" font-size="10.00">ar2VideoGetParamdV4L2</text>
</a>
</g>
</g>
<!-- Node1&#45;&gt;Node9 -->
<g id="edge8" class="edge">
<title>Node1&#45;&gt;Node9</title>
<path fill="none" stroke="#63b8ff" d="M61.84,-165.54C76.47,-149.68 107.38,-118.83 140,-102.5 144.14,-100.43 148.52,-98.57 153,-96.92"/>
<polygon fill="#63b8ff" stroke="#63b8ff" points="153.77,-100.35 162.17,-93.89 151.57,-93.71 153.77,-100.35"/>
</g>
<!-- Node10 -->
<g id="node10" class="node">
<title>Node10</title>
<g id="a_node10"><a xlink:href="video_windows_media_capture_8h.html#a154aa8f2c5df358d0b01cd19d42ab02e" target="_top" xlink:title=" ">
<polygon fill="white" stroke="#666666" points="290.5,-56 153.5,-56 153.5,-37 290.5,-37 290.5,-56"/>
<text text-anchor="middle" x="222" y="-44" font-family="Helvetica,sans-Serif" font-size="10.00">ar2VideoGetParamdWinMC</text>
</a>
</g>
</g>
<!-- Node1&#45;&gt;Node10 -->
<g id="edge9" class="edge">
<title>Node1&#45;&gt;Node10</title>
<path fill="none" stroke="#63b8ff" d="M57.77,-165.76C68.92,-144.06 98.9,-91.61 140,-65.5 142.74,-63.76 145.63,-62.17 148.61,-60.74"/>
<polygon fill="#63b8ff" stroke="#63b8ff" points="149.78,-64.04 157.67,-56.96 147.09,-57.58 149.78,-64.04"/>
</g>
<!-- Node11 -->
<g id="node11" class="node">
<title>Node11</title>
<g id="a_node11"><a xlink:href="video_windows_media_foundation_8h.html#a7175bd4049ab55af7cd5b41ed22b3547" target="_top" xlink:title=" ">
<polygon fill="white" stroke="#666666" points="290,-19 154,-19 154,0 290,0 290,-19"/>
<text text-anchor="middle" x="222" y="-7" font-family="Helvetica,sans-Serif" font-size="10.00">ar2VideoGetParamdWinMF</text>
</a>
</g>
</g>
<!-- Node1&#45;&gt;Node11 -->
<g id="edge10" class="edge">
<title>Node1&#45;&gt;Node11</title>
<path fill="none" stroke="#63b8ff" d="M55.79,-165.78C63.92,-139.23 90.28,-65.01 140,-28.5 142.03,-27.01 144.17,-25.63 146.38,-24.36"/>
<polygon fill="#63b8ff" stroke="#63b8ff" points="147.66,-27.62 155.12,-20.1 144.6,-21.33 147.66,-27.62"/>
</g>
</g>
</svg>
