<?xml version="1.0" encoding="UTF-8" standalone="no"?>
<!DOCTYPE svg PUBLIC "-//W3C//DTD SVG 1.1//EN"
 "http://www.w3.org/Graphics/SVG/1.1/DTD/svg11.dtd">
<!-- Generated by graphviz version 8.0.5 (20230430.1635)
 -->
<!-- Title: arVideoSetBufferSize Pages: 1 -->
<svg width="480pt" height="138pt"
 viewBox="0.00 0.00 479.75 138.25" xmlns="http://www.w3.org/2000/svg" xmlns:xlink="http://www.w3.org/1999/xlink">
<g id="graph0" class="graph" transform="scale(1 1) rotate(0) translate(4 134.25)">
<title>arVideoSetBufferSize</title>
<!-- Node1 -->
<g id="node1" class="node">
<title>Node1</title>
<g id="a_node1"><a xlink:title=" ">
<polygon fill="#999999" stroke="#666666" points="109.75,-74.25 0,-74.25 0,-55 109.75,-55 109.75,-74.25"/>
<text text-anchor="middle" x="54.88" y="-60.75" font-family="Helvetica,sans-Serif" font-size="10.00">arVideoSetBufferSize</text>
</a>
</g>
</g>
<!-- Node2 -->
<g id="node2" class="node">
<title>Node2</title>
<g id="a_node2"><a xlink:href="video2_8c.html#a4f56d80c89d1d3eeb4d092141509691d" target="_top" xlink:title=" ">
<polygon fill="white" stroke="#666666" points="260.75,-74.25 145.75,-74.25 145.75,-55 260.75,-55 260.75,-74.25"/>
<text text-anchor="middle" x="203.25" y="-60.75" font-family="Helvetica,sans-Serif" font-size="10.00">ar2VideoSetBufferSize</text>
</a>
</g>
</g>
<!-- Node1&#45;&gt;Node2 -->
<g id="edge1" class="edge">
<title>Node1&#45;&gt;Node2</title>
<path fill="none" stroke="#63b8ff" d="M109.96,-64.62C118,-64.62 126.38,-64.62 134.65,-64.62"/>
<polygon fill="#63b8ff" stroke="#63b8ff" points="134.44,-68.13 144.44,-64.62 134.44,-61.13 134.44,-68.13"/>
</g>
<!-- Node3 -->
<g id="node3" class="node">
<title>Node3</title>
<g id="a_node3"><a xlink:href="video_a_v_foundation_8h.html#a0f8863cc17bf63401e511e86dd40e2e1" target="_top" xlink:title=" ">
<polygon fill="white" stroke="#666666" points="471.75,-130.25 296.75,-130.25 296.75,-111 471.75,-111 471.75,-130.25"/>
<text text-anchor="middle" x="384.25" y="-116.75" font-family="Helvetica,sans-Serif" font-size="10.00">ar2VideoSetBufferSizeAVFoundation</text>
</a>
</g>
</g>
<!-- Node2&#45;&gt;Node3 -->
<g id="edge2" class="edge">
<title>Node2&#45;&gt;Node3</title>
<path fill="none" stroke="#63b8ff" d="M225.52,-74.68C244.01,-83.1 271.69,-94.94 296.75,-102.62 303.1,-104.57 309.78,-106.38 316.49,-108.03"/>
<polygon fill="#63b8ff" stroke="#63b8ff" points="315.49,-111.62 326.03,-110.5 317.09,-104.81 315.49,-111.62"/>
</g>
<!-- Node4 -->
<g id="node4" class="node">
<title>Node4</title>
<g id="a_node4"><a xlink:href="video_dummy_8h.html#a66a963881236aceb48c465bcc8d6db29" target="_top" xlink:title=" ">
<polygon fill="white" stroke="#666666" points="459,-93.25 309.5,-93.25 309.5,-74 459,-74 459,-93.25"/>
<text text-anchor="middle" x="384.25" y="-79.75" font-family="Helvetica,sans-Serif" font-size="10.00">ar2VideoSetBufferSizeDummy</text>
</a>
</g>
</g>
<!-- Node2&#45;&gt;Node4 -->
<g id="edge3" class="edge">
<title>Node2&#45;&gt;Node4</title>
<path fill="none" stroke="#63b8ff" d="M260.89,-70.64C272.89,-71.91 285.81,-73.28 298.59,-74.64"/>
<polygon fill="#63b8ff" stroke="#63b8ff" points="297.97,-78.2 308.28,-75.77 298.71,-71.24 297.97,-78.2"/>
</g>
<!-- Node5 -->
<g id="node5" class="node">
<title>Node5</title>
<g id="a_node5"><a xlink:href="video_emscripten_8h.html#a32d5e94a2b2d239499d5c0a2b024504e" target="_top" xlink:title=" ">
<polygon fill="white" stroke="#666666" points="466.5,-56.25 302,-56.25 302,-37 466.5,-37 466.5,-56.25"/>
<text text-anchor="middle" x="384.25" y="-42.75" font-family="Helvetica,sans-Serif" font-size="10.00">ar2VideoSetBufferSizeEmscripten</text>
</a>
</g>
</g>
<!-- Node2&#45;&gt;Node5 -->
<g id="edge4" class="edge">
<title>Node2&#45;&gt;Node5</title>
<path fill="none" stroke="#63b8ff" d="M260.89,-58.93C270.54,-57.96 280.79,-56.93 291.08,-55.89"/>
<polygon fill="#63b8ff" stroke="#63b8ff" points="291.2,-59.3 300.8,-54.82 290.5,-52.33 291.2,-59.3"/>
</g>
<!-- Node6 -->
<g id="node6" class="node">
<title>Node6</title>
<g id="a_node6"><a xlink:href="video_image_8h.html#a0002a65050de3abc821343f6b23762cf" target="_top" xlink:title=" ">
<polygon fill="white" stroke="#666666" points="455.25,-19.25 313.25,-19.25 313.25,0 455.25,0 455.25,-19.25"/>
<text text-anchor="middle" x="384.25" y="-5.75" font-family="Helvetica,sans-Serif" font-size="10.00">ar2VideoSetBufferSizeImage</text>
</a>
</g>
</g>
<!-- Node2&#45;&gt;Node6 -->
<g id="edge5" class="edge">
<title>Node2&#45;&gt;Node6</title>
<path fill="none" stroke="#63b8ff" d="M226.29,-54.54C244.79,-46.38 272.08,-35.06 296.75,-27.62 303.21,-25.68 310,-23.87 316.82,-22.21"/>
<polygon fill="#63b8ff" stroke="#63b8ff" points="317.57,-25.39 326.51,-19.72 315.98,-18.58 317.57,-25.39"/>
</g>
</g>
</svg>
