<?xml version="1.0" encoding="UTF-8" standalone="no"?>
<!DOCTYPE svg PUBLIC "-//W3C//DTD SVG 1.1//EN"
 "http://www.w3.org/Graphics/SVG/1.1/DTD/svg11.dtd">
<!-- Generated by graphviz version 7.0.5 (20221223.1930)
 -->
<!-- Title: arVideoSetBufferSize Pages: 1 -->
<svg width="482pt" height="138pt"
 viewBox="0.00 0.00 482.00 138.00" xmlns="http://www.w3.org/2000/svg" xmlns:xlink="http://www.w3.org/1999/xlink">
<g id="graph0" class="graph" transform="scale(1 1) rotate(0) translate(4 134)">
<title>arVideoSetBufferSize</title>
<!-- Node1 -->
<g id="node1" class="node">
<title>Node1</title>
<g id="a_node1"><a xlink:title=" ">
<polygon fill="#999999" stroke="#666666" points="110,-74 0,-74 0,-55 110,-55 110,-74"/>
<text text-anchor="middle" x="55" y="-62" font-family="Helvetica,sans-Serif" font-size="10.00">arVideoSetBufferSize</text>
</a>
</g>
</g>
<!-- Node2 -->
<g id="node2" class="node">
<title>Node2</title>
<g id="a_node2"><a xlink:href="video2_8c.html#a4f56d80c89d1d3eeb4d092141509691d" target="_top" xlink:title=" ">
<polygon fill="white" stroke="#666666" points="262,-74 146,-74 146,-55 262,-55 262,-74"/>
<text text-anchor="middle" x="204" y="-62" font-family="Helvetica,sans-Serif" font-size="10.00">ar2VideoSetBufferSize</text>
</a>
</g>
</g>
<!-- Node1&#45;&gt;Node2 -->
<g id="edge1" class="edge">
<title>Node1&#45;&gt;Node2</title>
<path fill="none" stroke="#63b8ff" d="M110.32,-64.5C118.21,-64.5 126.42,-64.5 134.55,-64.5"/>
<polygon fill="#63b8ff" stroke="#63b8ff" points="134.43,-68 144.43,-64.5 134.43,-61 134.43,-68"/>
</g>
<!-- Node3 -->
<g id="node3" class="node">
<title>Node3</title>
<g id="a_node3"><a xlink:href="video_a_v_foundation_8h.html#a0f8863cc17bf63401e511e86dd40e2e1" target="_top" xlink:title=" ">
<polygon fill="white" stroke="#666666" points="474,-130 298,-130 298,-111 474,-111 474,-130"/>
<text text-anchor="middle" x="386" y="-118" font-family="Helvetica,sans-Serif" font-size="10.00">ar2VideoSetBufferSizeAVFoundation</text>
</a>
</g>
</g>
<!-- Node2&#45;&gt;Node3 -->
<g id="edge2" class="edge">
<title>Node2&#45;&gt;Node3</title>
<path fill="none" stroke="#63b8ff" d="M226.02,-74.39C244.61,-82.82 272.64,-94.77 298,-102.5 304.58,-104.51 311.52,-106.36 318.47,-108.06"/>
<polygon fill="#63b8ff" stroke="#63b8ff" points="317.38,-111.39 327.91,-110.24 318.96,-104.58 317.38,-111.39"/>
</g>
<!-- Node4 -->
<g id="node4" class="node">
<title>Node4</title>
<g id="a_node4"><a xlink:href="video_dummy_8h.html#a66a963881236aceb48c465bcc8d6db29" target="_top" xlink:title=" ">
<polygon fill="white" stroke="#666666" points="461,-93 311,-93 311,-74 461,-74 461,-93"/>
<text text-anchor="middle" x="386" y="-81" font-family="Helvetica,sans-Serif" font-size="10.00">ar2VideoSetBufferSizeDummy</text>
</a>
</g>
</g>
<!-- Node2&#45;&gt;Node4 -->
<g id="edge3" class="edge">
<title>Node2&#45;&gt;Node4</title>
<path fill="none" stroke="#63b8ff" d="M262.45,-70.56C274.19,-71.8 286.78,-73.13 299.26,-74.45"/>
<polygon fill="#63b8ff" stroke="#63b8ff" points="298.84,-77.93 309.16,-75.49 299.58,-70.96 298.84,-77.93"/>
</g>
<!-- Node5 -->
<g id="node5" class="node">
<title>Node5</title>
<g id="a_node5"><a xlink:href="video_emscripten_8h.html#a32d5e94a2b2d239499d5c0a2b024504e" target="_top" xlink:title=" ">
<polygon fill="white" stroke="#666666" points="468.5,-56 303.5,-56 303.5,-37 468.5,-37 468.5,-56"/>
<text text-anchor="middle" x="386" y="-44" font-family="Helvetica,sans-Serif" font-size="10.00">ar2VideoSetBufferSizeEmscripten</text>
</a>
</g>
</g>
<!-- Node2&#45;&gt;Node5 -->
<g id="edge4" class="edge">
<title>Node2&#45;&gt;Node5</title>
<path fill="none" stroke="#63b8ff" d="M262.45,-58.76C271.87,-57.81 281.84,-56.82 291.86,-55.81"/>
<polygon fill="#63b8ff" stroke="#63b8ff" points="292.06,-59.31 301.66,-54.83 291.36,-52.35 292.06,-59.31"/>
</g>
<!-- Node6 -->
<g id="node6" class="node">
<title>Node6</title>
<g id="a_node6"><a xlink:href="video_image_8h.html#a0002a65050de3abc821343f6b23762cf" target="_top" xlink:title=" ">
<polygon fill="white" stroke="#666666" points="457.5,-19 314.5,-19 314.5,0 457.5,0 457.5,-19"/>
<text text-anchor="middle" x="386" y="-7" font-family="Helvetica,sans-Serif" font-size="10.00">ar2VideoSetBufferSizeImage</text>
</a>
</g>
</g>
<!-- Node2&#45;&gt;Node6 -->
<g id="edge5" class="edge">
<title>Node2&#45;&gt;Node6</title>
<path fill="none" stroke="#63b8ff" d="M227.59,-54.63C246.21,-46.76 273.46,-35.88 298,-28.5 305.74,-26.17 313.94,-24 322.09,-22.03"/>
<polygon fill="#63b8ff" stroke="#63b8ff" points="322.72,-25.47 331.66,-19.79 321.13,-18.66 322.72,-25.47"/>
</g>
</g>
</svg>
