<?xml version="1.0" encoding="UTF-8" standalone="no"?>
<!DOCTYPE svg PUBLIC "-//W3C//DTD SVG 1.1//EN"
 "http://www.w3.org/Graphics/SVG/1.1/DTD/svg11.dtd">
<!-- Generated by graphviz version 2.40.1 (20161225.0304)
 -->
<!-- Title: Source/ARX/ARVideo/Android/videoAndroid.h Pages: 1 -->
<svg width="131pt" height="102pt"
 viewBox="0.00 0.00 130.74 102.00" xmlns="http://www.w3.org/2000/svg" xmlns:xlink="http://www.w3.org/1999/xlink">
<g id="graph0" class="graph" transform="scale(1 1) rotate(0) translate(4 98)">
<title>Source/ARX/ARVideo/Android/videoAndroid.h</title>
<polygon fill="#ffffff" stroke="transparent" points="-4,4 -4,-98 126.7383,-98 126.7383,4 -4,4"/>
<!-- Node23 -->
<g id="node1" class="node">
<title>Node23</title>
<polygon fill="#bfbfbf" stroke="#000000" points="0,-65.5 0,-93.5 122.7383,-93.5 122.7383,-65.5 0,-65.5"/>
<text text-anchor="start" x="8" y="-81.5" font-family="Helvetica,sans-Serif" font-size="10.00" fill="#000000">Source/ARX/ARVideo</text>
<text text-anchor="middle" x="61.3691" y="-71.5" font-family="Helvetica,sans-Serif" font-size="10.00" fill="#000000">/Android/videoAndroid.h</text>
</g>
<!-- Node24 -->
<g id="node2" class="node">
<title>Node24</title>
<g id="a_node2"><a xlink:href="video_android_8c.html" target="_top" xlink:title="Source/ARX/ARVideo\l/Android/videoAndroid.c">
<polygon fill="#ffffff" stroke="#000000" points=".2808,-.5 .2808,-28.5 122.4575,-28.5 122.4575,-.5 .2808,-.5"/>
<text text-anchor="start" x="8.2808" y="-16.5" font-family="Helvetica,sans-Serif" font-size="10.00" fill="#000000">Source/ARX/ARVideo</text>
<text text-anchor="middle" x="61.3691" y="-6.5" font-family="Helvetica,sans-Serif" font-size="10.00" fill="#000000">/Android/videoAndroid.c</text>
</a>
</g>
</g>
<!-- Node23&#45;&gt;Node24 -->
<g id="edge1" class="edge">
<title>Node23&#45;&gt;Node24</title>
<path fill="none" stroke="#191970" d="M61.3691,-55.1081C61.3691,-46.1539 61.3691,-36.3227 61.3691,-28.5765"/>
<polygon fill="#191970" stroke="#191970" points="57.8692,-55.3959 61.3691,-65.396 64.8692,-55.396 57.8692,-55.3959"/>
</g>
</g>
</svg>
