<?xml version="1.0" encoding="UTF-8" standalone="no"?>
<!DOCTYPE svg PUBLIC "-//W3C//DTD SVG 1.1//EN"
 "http://www.w3.org/Graphics/SVG/1.1/DTD/svg11.dtd">
<!-- Generated by graphviz version 8.0.5 (20230430.1635)
 -->
<!-- Title: ar2VideoSetBufferSize Pages: 1 -->
<svg width="334pt" height="138pt"
 viewBox="0.00 0.00 334.00 138.25" xmlns="http://www.w3.org/2000/svg" xmlns:xlink="http://www.w3.org/1999/xlink">
<g id="graph0" class="graph" transform="scale(1 1) rotate(0) translate(4 134.25)">
<title>ar2VideoSetBufferSize</title>
<!-- Node1 -->
<g id="node1" class="node">
<title>Node1</title>
<g id="a_node1"><a xlink:title=" ">
<polygon fill="#999999" stroke="#666666" points="115,-74.25 0,-74.25 0,-55 115,-55 115,-74.25"/>
<text text-anchor="middle" x="57.5" y="-60.75" font-family="Helvetica,sans-Serif" font-size="10.00">ar2VideoSetBufferSize</text>
</a>
</g>
</g>
<!-- Node2 -->
<g id="node2" class="node">
<title>Node2</title>
<g id="a_node2"><a xlink:href="video_a_v_foundation_8h.html#a0f8863cc17bf63401e511e86dd40e2e1" target="_top" xlink:title=" ">
<polygon fill="white" stroke="#666666" points="326,-130.25 151,-130.25 151,-111 326,-111 326,-130.25"/>
<text text-anchor="middle" x="238.5" y="-116.75" font-family="Helvetica,sans-Serif" font-size="10.00">ar2VideoSetBufferSizeAVFoundation</text>
</a>
</g>
</g>
<!-- Node1&#45;&gt;Node2 -->
<g id="edge1" class="edge">
<title>Node1&#45;&gt;Node2</title>
<path fill="none" stroke="#63b8ff" d="M79.77,-74.68C98.26,-83.1 125.94,-94.94 151,-102.62 157.35,-104.57 164.03,-106.38 170.74,-108.03"/>
<polygon fill="#63b8ff" stroke="#63b8ff" points="169.74,-111.62 180.28,-110.5 171.34,-104.81 169.74,-111.62"/>
</g>
<!-- Node3 -->
<g id="node3" class="node">
<title>Node3</title>
<g id="a_node3"><a xlink:href="video_dummy_8h.html#a66a963881236aceb48c465bcc8d6db29" target="_top" xlink:title=" ">
<polygon fill="white" stroke="#666666" points="313.25,-93.25 163.75,-93.25 163.75,-74 313.25,-74 313.25,-93.25"/>
<text text-anchor="middle" x="238.5" y="-79.75" font-family="Helvetica,sans-Serif" font-size="10.00">ar2VideoSetBufferSizeDummy</text>
</a>
</g>
</g>
<!-- Node1&#45;&gt;Node3 -->
<g id="edge2" class="edge">
<title>Node1&#45;&gt;Node3</title>
<path fill="none" stroke="#63b8ff" d="M115.14,-70.64C127.14,-71.91 140.06,-73.28 152.84,-74.64"/>
<polygon fill="#63b8ff" stroke="#63b8ff" points="152.22,-78.2 162.53,-75.77 152.96,-71.24 152.22,-78.2"/>
</g>
<!-- Node4 -->
<g id="node4" class="node">
<title>Node4</title>
<g id="a_node4"><a xlink:href="video_emscripten_8h.html#a32d5e94a2b2d239499d5c0a2b024504e" target="_top" xlink:title=" ">
<polygon fill="white" stroke="#666666" points="320.75,-56.25 156.25,-56.25 156.25,-37 320.75,-37 320.75,-56.25"/>
<text text-anchor="middle" x="238.5" y="-42.75" font-family="Helvetica,sans-Serif" font-size="10.00">ar2VideoSetBufferSizeEmscripten</text>
</a>
</g>
</g>
<!-- Node1&#45;&gt;Node4 -->
<g id="edge3" class="edge">
<title>Node1&#45;&gt;Node4</title>
<path fill="none" stroke="#63b8ff" d="M115.14,-58.93C124.79,-57.96 135.04,-56.93 145.33,-55.89"/>
<polygon fill="#63b8ff" stroke="#63b8ff" points="145.45,-59.3 155.05,-54.82 144.75,-52.33 145.45,-59.3"/>
</g>
<!-- Node5 -->
<g id="node5" class="node">
<title>Node5</title>
<g id="a_node5"><a xlink:href="video_image_8h.html#a0002a65050de3abc821343f6b23762cf" target="_top" xlink:title=" ">
<polygon fill="white" stroke="#666666" points="309.5,-19.25 167.5,-19.25 167.5,0 309.5,0 309.5,-19.25"/>
<text text-anchor="middle" x="238.5" y="-5.75" font-family="Helvetica,sans-Serif" font-size="10.00">ar2VideoSetBufferSizeImage</text>
</a>
</g>
</g>
<!-- Node1&#45;&gt;Node5 -->
<g id="edge4" class="edge">
<title>Node1&#45;&gt;Node5</title>
<path fill="none" stroke="#63b8ff" d="M80.54,-54.54C99.04,-46.38 126.33,-35.06 151,-27.62 157.46,-25.68 164.25,-23.87 171.07,-22.21"/>
<polygon fill="#63b8ff" stroke="#63b8ff" points="171.82,-25.39 180.76,-19.72 170.23,-18.58 171.82,-25.39"/>
</g>
</g>
</svg>
