<?xml version="1.0" encoding="UTF-8" standalone="no"?>
<!DOCTYPE svg PUBLIC "-//W3C//DTD SVG 1.1//EN"
 "http://www.w3.org/Graphics/SVG/1.1/DTD/svg11.dtd">
<!-- Generated by graphviz version 2.40.1 (20161225.0304)
 -->
<!-- Title: Source/ARX/ARVideo/videoAspectRatio.c Pages: 1 -->
<!--zoomable 257 -->
<svg id="main" version="1.1" xmlns="http://www.w3.org/2000/svg" xmlns:xlink="http://www.w3.org/1999/xlink" xml:space="preserve" onload="init(evt)">
<style type="text/css"><![CDATA[
.edge:hover path { stroke: red; }
.edge:hover polygon { stroke: red; fill: red; }
]]></style>
<script type="text/javascript"><![CDATA[
var edges = document.getElementsByTagName('g');
if (edges && edges.length) {
  for (var i=0;i<edges.length;i++) {
    if (edges[i].id.substr(0,4)=='edge') {
      edges[i].setAttribute('class','edge');
    }
  }
}
]]></script>
        <defs>
                <circle id="rim" cx="0" cy="0" r="7"/>
                <circle id="rim2" cx="0" cy="0" r="3.5"/>
                <g id="zoomPlus">
                        <use xlink:href="#rim" fill="#404040">
                                <set attributeName="fill" to="#808080" begin="zoomplus.mouseover" end="zoomplus.mouseout"/>
                        </use>
                        <path d="M-4,0h8M0,-4v8" fill="none" stroke="white" stroke-width="1.5" pointer-events="none"/>
                </g>
                <g id="zoomMin">
                        <use xlink:href="#rim" fill="#404040">
                                <set attributeName="fill" to="#808080" begin="zoomminus.mouseover" end="zoomminus.mouseout"/>
                        </use>
                        <path d="M-4,0h8" fill="none" stroke="white" stroke-width="1.5" pointer-events="none"/>
                </g>
                <g id="dirArrow">
                        <path fill="none" stroke="white" stroke-width="1.5" d="M0,-3.0v7 M-2.5,-0.5L0,-3.0L2.5,-0.5"/>
                </g>
               <g id="resetDef">
                       <use xlink:href="#rim2" fill="#404040">
                               <set attributeName="fill" to="#808080" begin="reset.mouseover" end="reset.mouseout"/>
                       </use>
               </g>
        </defs>

<script type="text/javascript">
var viewWidth = 1099;
var viewHeight = 257;
var sectionId = 'dynsection-0';
</script>
<script xlink:href="svgpan.js"/>
<svg id="graph" class="graph">
<g id="viewport">
<title>Source/ARX/ARVideo/videoAspectRatio.c</title>
<polygon fill="#ffffff" stroke="transparent" points="-4,4 -4,-253 1095.1821,-253 1095.1821,4 -4,4"/>
<!-- Node0 -->
<g id="node1" class="node">
<title>Node0</title>
<polygon fill="#bfbfbf" stroke="#000000" points="230.937,-220.5 230.937,-248.5 343.856,-248.5 343.856,-220.5 230.937,-220.5"/>
<text text-anchor="start" x="238.937" y="-236.5" font-family="Helvetica,sans-Serif" font-size="10.00" fill="#000000">Source/ARX/ARVideo</text>
<text text-anchor="middle" x="287.3965" y="-226.5" font-family="Helvetica,sans-Serif" font-size="10.00" fill="#000000">/videoAspectRatio.c</text>
</g>
<!-- Node1 -->
<g id="node2" class="node">
<title>Node1</title>
<g id="a_node2"><a xlink:href="video_8h.html" target="_top" xlink:title="ARX/ARVideo/video.h">
<polygon fill="#ffffff" stroke="#000000" points="435.6563,-165.5 435.6563,-183.5 549.1367,-183.5 549.1367,-165.5 435.6563,-165.5"/>
<text text-anchor="middle" x="492.3965" y="-171.5" font-family="Helvetica,sans-Serif" font-size="10.00" fill="#000000">ARX/ARVideo/video.h</text>
</a>
</g>
</g>
<!-- Node0&#45;&gt;Node1 -->
<g id="edge1" class="edge">
<title>Node0&#45;&gt;Node1</title>
<path fill="none" stroke="#191970" d="M335.4599,-220.4327C370.7447,-210.1054 418.1539,-196.2295 451.6009,-186.4402"/>
<polygon fill="#191970" stroke="#191970" points="452.8897,-189.7099 461.5039,-183.5417 450.9234,-182.9917 452.8897,-189.7099"/>
</g>
<!-- Node3 -->
<g id="node4" class="node">
<title>Node3</title>
<polygon fill="#ffffff" stroke="#bfbfbf" points="407.665,-.5 407.665,-18.5 453.1279,-18.5 453.1279,-.5 407.665,-.5"/>
<text text-anchor="middle" x="430.3965" y="-6.5" font-family="Helvetica,sans-Serif" font-size="10.00" fill="#000000">stdio.h</text>
</g>
<!-- Node0&#45;&gt;Node3 -->
<g id="edge31" class="edge">
<title>Node0&#45;&gt;Node3</title>
<path fill="none" stroke="#191970" d="M288.3254,-220.189C291.1559,-187.3308 302.2687,-105.4422 344.3965,-55 358.283,-38.3728 379.8399,-26.9858 397.8967,-19.7616"/>
<polygon fill="#191970" stroke="#191970" points="399.3578,-22.952 407.4972,-16.1696 396.9048,-16.3959 399.3578,-22.952"/>
</g>
<!-- Node6 -->
<g id="node7" class="node">
<title>Node6</title>
<polygon fill="#ffffff" stroke="#bfbfbf" points="0,-.5 0,-18.5 48.793,-18.5 48.793,-.5 0,-.5"/>
<text text-anchor="middle" x="24.3965" y="-6.5" font-family="Helvetica,sans-Serif" font-size="10.00" fill="#000000">string.h</text>
</g>
<!-- Node0&#45;&gt;Node6 -->
<g id="edge32" class="edge">
<title>Node0&#45;&gt;Node6</title>
<path fill="none" stroke="#191970" d="M270.9447,-220.4252C224.373,-180.5826 91.8369,-67.1962 42.8718,-25.3058"/>
<polygon fill="#191970" stroke="#191970" points="44.8664,-22.4062 34.9924,-18.565 40.3159,-27.7253 44.8664,-22.4062"/>
</g>
<!-- Node2 -->
<g id="node3" class="node">
<title>Node2</title>
<g id="a_node3"><a xlink:href="ar_8h.html" target="_top" xlink:title="artoolkitX core routines. ">
<polygon fill="#ffffff" stroke="#000000" points="580.0493,-110.5 580.0493,-128.5 652.7437,-128.5 652.7437,-110.5 580.0493,-110.5"/>
<text text-anchor="middle" x="616.3965" y="-116.5" font-family="Helvetica,sans-Serif" font-size="10.00" fill="#000000">ARX/AR/ar.h</text>
</a>
</g>
</g>
<!-- Node1&#45;&gt;Node2 -->
<g id="edge2" class="edge">
<title>Node1&#45;&gt;Node2</title>
<path fill="none" stroke="#191970" d="M512.8726,-165.4179C532.9759,-156.5011 563.8587,-142.803 586.6652,-132.6873"/>
<polygon fill="#191970" stroke="#191970" points="588.1679,-135.8496 595.89,-128.5956 585.3297,-129.4508 588.1679,-135.8496"/>
</g>
<!-- Node19 -->
<g id="node20" class="node">
<title>Node19</title>
<g id="a_node20"><a xlink:href="video_config_8h.html" target="_top" xlink:title="ARX/ARVideo/videoConfig.h">
<polygon fill="#ffffff" stroke="#000000" points="785.2031,-110.5 785.2031,-128.5 927.5898,-128.5 927.5898,-110.5 785.2031,-110.5"/>
<text text-anchor="middle" x="856.3965" y="-116.5" font-family="Helvetica,sans-Serif" font-size="10.00" fill="#000000">ARX/ARVideo/videoConfig.h</text>
</a>
</g>
</g>
<!-- Node1&#45;&gt;Node19 -->
<g id="edge26" class="edge">
<title>Node1&#45;&gt;Node19</title>
<path fill="none" stroke="#191970" d="M549.2715,-165.9063C613.4011,-156.2163 717.7028,-140.4565 786.683,-130.0336"/>
<polygon fill="#191970" stroke="#191970" points="787.2303,-133.4908 796.5951,-128.5359 786.1844,-126.5693 787.2303,-133.4908"/>
</g>
<!-- Node20 -->
<g id="node21" class="node">
<title>Node20</title>
<polygon fill="#ffffff" stroke="#bfbfbf" points="357.8398,-110.5 357.8398,-128.5 404.9531,-128.5 404.9531,-110.5 357.8398,-110.5"/>
<text text-anchor="middle" x="381.3965" y="-116.5" font-family="Helvetica,sans-Serif" font-size="10.00" fill="#000000">limits.h</text>
</g>
<!-- Node1&#45;&gt;Node20 -->
<g id="edge28" class="edge">
<title>Node1&#45;&gt;Node20</title>
<path fill="none" stroke="#191970" d="M474.0671,-165.4179C456.3124,-156.6205 429.165,-143.1691 408.8349,-133.0956"/>
<polygon fill="#191970" stroke="#191970" points="410.2674,-129.8994 399.7531,-128.5956 407.1595,-136.1716 410.2674,-129.8994"/>
</g>
<!-- Node21 -->
<g id="node22" class="node">
<title>Node21</title>
<g id="a_node22"><a xlink:href="video_luma_8h.html" target="_top" xlink:title="ARX/ARVideo/videoLuma.h">
<polygon fill="#ffffff" stroke="#000000" points="423.1489,-110.5 423.1489,-128.5 561.644,-128.5 561.644,-110.5 423.1489,-110.5"/>
<text text-anchor="middle" x="492.3965" y="-116.5" font-family="Helvetica,sans-Serif" font-size="10.00" fill="#000000">ARX/ARVideo/videoLuma.h</text>
</a>
</g>
</g>
<!-- Node1&#45;&gt;Node21 -->
<g id="edge29" class="edge">
<title>Node1&#45;&gt;Node21</title>
<path fill="none" stroke="#191970" d="M487.2302,-165.4179C485.7386,-158.2164 485.3006,-147.8962 485.9163,-138.8632"/>
<polygon fill="#191970" stroke="#191970" points="489.4091,-139.1392 487.1897,-128.7795 482.4643,-138.2621 489.4091,-139.1392"/>
</g>
<!-- Node2&#45;&gt;Node3 -->
<g id="edge3" class="edge">
<title>Node2&#45;&gt;Node3</title>
<path fill="none" stroke="#191970" d="M579.7995,-111.6026C533.2706,-101.2571 457.8071,-83.3388 448.3965,-74 436.5457,-62.2396 432.3264,-43.3762 430.9059,-29.0798"/>
<polygon fill="#191970" stroke="#191970" points="434.382,-28.5826 430.2743,-18.8165 427.3952,-29.0126 434.382,-28.5826"/>
</g>
<!-- Node4 -->
<g id="node5" class="node">
<title>Node4</title>
<polygon fill="#ffffff" stroke="#bfbfbf" points="341.5542,-.5 341.5542,-18.5 389.2388,-18.5 389.2388,-.5 341.5542,-.5"/>
<text text-anchor="middle" x="365.3965" y="-6.5" font-family="Helvetica,sans-Serif" font-size="10.00" fill="#000000">stdlib.h</text>
</g>
<!-- Node2&#45;&gt;Node4 -->
<g id="edge4" class="edge">
<title>Node2&#45;&gt;Node4</title>
<path fill="none" stroke="#191970" d="M579.7676,-111.7781C576.6016,-111.1584 573.4447,-110.5572 570.3965,-110 520.3701,-100.8548 377.4073,-112.6854 344.3965,-74 333.1093,-60.7725 341.8288,-41.3461 351.231,-27.2721"/>
<polygon fill="#191970" stroke="#191970" points="354.2567,-29.0622 357.3048,-18.9153 348.5943,-24.9467 354.2567,-29.0622"/>
</g>
<!-- Node5 -->
<g id="node6" class="node">
<title>Node5</title>
<polygon fill="#ffffff" stroke="#bfbfbf" points="353.2759,-55.5 353.2759,-73.5 401.5171,-73.5 401.5171,-55.5 353.2759,-55.5"/>
<text text-anchor="middle" x="377.3965" y="-61.5" font-family="Helvetica,sans-Serif" font-size="10.00" fill="#000000">stdint.h</text>
</g>
<!-- Node2&#45;&gt;Node5 -->
<g id="edge5" class="edge">
<title>Node2&#45;&gt;Node5</title>
<path fill="none" stroke="#191970" d="M580.0287,-111.524C539.7243,-102.625 472.8253,-87.6768 415.3965,-74 414.1685,-73.7076 412.9189,-73.4076 411.6571,-73.1027"/>
<polygon fill="#191970" stroke="#191970" points="412.4522,-69.6941 401.9065,-70.713 410.7859,-76.4928 412.4522,-69.6941"/>
</g>
<!-- Node2&#45;&gt;Node6 -->
<g id="edge6" class="edge">
<title>Node2&#45;&gt;Node6</title>
<path fill="none" stroke="#191970" d="M579.8064,-111.5426C576.6319,-110.974 573.4625,-110.449 570.3965,-110 388.5274,-83.3668 335.6494,-122.6527 158.3965,-74 117.3735,-62.74 73.6483,-39.2556 47.6926,-23.9469"/>
<polygon fill="#191970" stroke="#191970" points="49.3476,-20.8582 38.9719,-18.7145 45.7461,-26.8607 49.3476,-20.8582"/>
</g>
<!-- Node7 -->
<g id="node8" class="node">
<title>Node7</title>
<polygon fill="#ffffff" stroke="#bfbfbf" points="836.8794,-.5 836.8794,-18.5 927.9136,-18.5 927.9136,-.5 836.8794,-.5"/>
<text text-anchor="middle" x="882.3965" y="-6.5" font-family="Helvetica,sans-Serif" font-size="10.00" fill="#000000">ARX/AR/config.h</text>
</g>
<!-- Node2&#45;&gt;Node7 -->
<g id="edge7" class="edge">
<title>Node2&#45;&gt;Node7</title>
<path fill="none" stroke="#191970" d="M625.8692,-110.3474C640.8737,-96.3538 671.5771,-69.7185 702.3965,-55 741.8776,-36.1449 790.0962,-24.4928 826.6868,-17.7063"/>
<polygon fill="#191970" stroke="#191970" points="827.4541,-21.1247 836.682,-15.9192 826.222,-14.2339 827.4541,-21.1247"/>
</g>
<!-- Node8 -->
<g id="node9" class="node">
<title>Node8</title>
<g id="a_node9"><a xlink:href="ar_config_8h.html" target="_top" xlink:title="ARX/AR/arConfig.h">
<polygon fill="#ffffff" stroke="#000000" points="457.3228,-55.5 457.3228,-73.5 559.4702,-73.5 559.4702,-55.5 457.3228,-55.5"/>
<text text-anchor="middle" x="508.3965" y="-61.5" font-family="Helvetica,sans-Serif" font-size="10.00" fill="#000000">ARX/AR/arConfig.h</text>
</a>
</g>
</g>
<!-- Node2&#45;&gt;Node8 -->
<g id="edge8" class="edge">
<title>Node2&#45;&gt;Node8</title>
<path fill="none" stroke="#191970" d="M598.5625,-110.4179C581.3658,-101.6603 555.1128,-88.2907 535.3622,-78.2326"/>
<polygon fill="#191970" stroke="#191970" points="536.7563,-75.0148 526.257,-73.5956 533.5797,-81.2526 536.7563,-75.0148"/>
</g>
<!-- Node9 -->
<g id="node10" class="node">
<title>Node9</title>
<g id="a_node10"><a xlink:href="log_8h.html" target="_top" xlink:title="Logging utilities. ">
<polygon fill="#ffffff" stroke="#000000" points="167.3276,-55.5 167.3276,-73.5 259.4653,-73.5 259.4653,-55.5 167.3276,-55.5"/>
<text text-anchor="middle" x="213.3965" y="-61.5" font-family="Helvetica,sans-Serif" font-size="10.00" fill="#000000">ARX/ARUtil/log.h</text>
</a>
</g>
</g>
<!-- Node2&#45;&gt;Node9 -->
<g id="edge9" class="edge">
<title>Node2&#45;&gt;Node9</title>
<path fill="none" stroke="#191970" d="M580.036,-111.7217C576.7823,-111.1072 573.5335,-110.523 570.3965,-110 464.5161,-92.3463 339.9653,-77.8954 269.4888,-70.2992"/>
<polygon fill="#191970" stroke="#191970" points="269.8075,-66.8134 259.4916,-69.2287 269.0621,-73.7736 269.8075,-66.8134"/>
</g>
<!-- Node13 -->
<g id="node14" class="node">
<title>Node13</title>
<g id="a_node14"><a xlink:href="matrix_8h.html" target="_top" xlink:title="ARX/AR/matrix.h">
<polygon fill="#ffffff" stroke="#000000" points="999.6108,-55.5 999.6108,-73.5 1091.1821,-73.5 1091.1821,-55.5 999.6108,-55.5"/>
<text text-anchor="middle" x="1045.3965" y="-61.5" font-family="Helvetica,sans-Serif" font-size="10.00" fill="#000000">ARX/AR/matrix.h</text>
</a>
</g>
</g>
<!-- Node2&#45;&gt;Node13 -->
<g id="edge16" class="edge">
<title>Node2&#45;&gt;Node13</title>
<path fill="none" stroke="#191970" d="M652.9728,-114.8107C728.0886,-105.1805 900.1561,-83.1206 989.4007,-71.679"/>
<polygon fill="#191970" stroke="#191970" points="989.8659,-75.148 999.3397,-70.4047 988.9757,-68.2049 989.8659,-75.148"/>
</g>
<!-- Node15 -->
<g id="node16" class="node">
<title>Node15</title>
<g id="a_node16"><a xlink:href="icp_8h.html" target="_top" xlink:title="ARX/AR/icp.h">
<polygon fill="#ffffff" stroke="#000000" points="577.8301,-55.5 577.8301,-73.5 654.9629,-73.5 654.9629,-55.5 577.8301,-55.5"/>
<text text-anchor="middle" x="616.3965" y="-61.5" font-family="Helvetica,sans-Serif" font-size="10.00" fill="#000000">ARX/AR/icp.h</text>
</a>
</g>
</g>
<!-- Node2&#45;&gt;Node15 -->
<g id="edge18" class="edge">
<title>Node2&#45;&gt;Node15</title>
<path fill="none" stroke="#191970" d="M616.3965,-110.4179C616.3965,-103.2164 616.3965,-92.8962 616.3965,-83.8632"/>
<polygon fill="#191970" stroke="#191970" points="619.8966,-83.7794 616.3965,-73.7795 612.8966,-83.7795 619.8966,-83.7794"/>
</g>
<!-- Node17 -->
<g id="node18" class="node">
<title>Node17</title>
<g id="a_node18"><a xlink:href="param_8h.html" target="_top" xlink:title="artoolkitX functions for handling calibrated camera parameters. ">
<polygon fill="#ffffff" stroke="#000000" points="711.0493,-55.5 711.0493,-73.5 803.7437,-73.5 803.7437,-55.5 711.0493,-55.5"/>
<text text-anchor="middle" x="757.3965" y="-61.5" font-family="Helvetica,sans-Serif" font-size="10.00" fill="#000000">ARX/AR/param.h</text>
</a>
</g>
</g>
<!-- Node2&#45;&gt;Node17 -->
<g id="edge21" class="edge">
<title>Node2&#45;&gt;Node17</title>
<path fill="none" stroke="#191970" d="M634.5134,-110.4179C655.9653,-101.3147 691.8758,-87.2283 719.4312,-77.0576"/>
<polygon fill="#191970" stroke="#191970" points="720.9699,-80.2219 729.1628,-73.5042 718.569,-73.6465 720.9699,-80.2219"/>
</g>
<!-- Node18 -->
<g id="node19" class="node">
<title>Node18</title>
<g id="a_node19"><a xlink:href="ar_image_proc_8h.html" target="_top" xlink:title="artoolkitX functions for 2D luminance image processing. ">
<polygon fill="#ffffff" stroke="#000000" points="821.5986,-55.5 821.5986,-73.5 943.1943,-73.5 943.1943,-55.5 821.5986,-55.5"/>
<text text-anchor="middle" x="882.3965" y="-61.5" font-family="Helvetica,sans-Serif" font-size="10.00" fill="#000000">ARX/AR/arImageProc.h</text>
</a>
</g>
</g>
<!-- Node2&#45;&gt;Node18 -->
<g id="edge23" class="edge">
<title>Node2&#45;&gt;Node18</title>
<path fill="none" stroke="#191970" d="M652.8965,-110.9063C696.8473,-101.3893 771.0318,-86.0173 823.1844,-75.597"/>
<polygon fill="#191970" stroke="#191970" points="824.1815,-78.9672 833.3057,-73.5821 822.8148,-72.102 824.1815,-78.9672"/>
</g>
<!-- Node9&#45;&gt;Node3 -->
<g id="edge10" class="edge">
<title>Node9&#45;&gt;Node3</title>
<path fill="none" stroke="#191970" d="M252.5136,-55.4482C288,-47.1098 341.9727,-34.1134 397.6794,-19.1049"/>
<polygon fill="#191970" stroke="#191970" points="398.6256,-22.4748 407.3617,-16.4805 396.7942,-15.7186 398.6256,-22.4748"/>
</g>
<!-- Node9&#45;&gt;Node4 -->
<g id="edge11" class="edge">
<title>Node9&#45;&gt;Node4</title>
<path fill="none" stroke="#191970" d="M238.4962,-55.4179C263.9907,-46.1929 303.6281,-31.8504 331.8142,-21.6515"/>
<polygon fill="#191970" stroke="#191970" points="333.052,-24.9258 341.2644,-18.232 330.6702,-18.3434 333.052,-24.9258"/>
</g>
<!-- Node9&#45;&gt;Node6 -->
<g id="edge12" class="edge">
<title>Node9&#45;&gt;Node6</title>
<path fill="none" stroke="#191970" d="M182.187,-55.4179C148.2151,-45.5319 94.0474,-29.7688 58.8509,-19.5264"/>
<polygon fill="#191970" stroke="#191970" points="59.5998,-16.0992 49.0201,-16.6656 57.6438,-22.8204 59.5998,-16.0992"/>
</g>
<!-- Node10 -->
<g id="node11" class="node">
<title>Node10</title>
<polygon fill="#ffffff" stroke="#bfbfbf" points="187.3301,-.5 187.3301,-18.5 239.4629,-18.5 239.4629,-.5 187.3301,-.5"/>
<text text-anchor="middle" x="213.3965" y="-6.5" font-family="Helvetica,sans-Serif" font-size="10.00" fill="#000000">stdarg.h</text>
</g>
<!-- Node9&#45;&gt;Node10 -->
<g id="edge13" class="edge">
<title>Node9&#45;&gt;Node10</title>
<path fill="none" stroke="#191970" d="M213.3965,-55.4179C213.3965,-48.2164 213.3965,-37.8962 213.3965,-28.8632"/>
<polygon fill="#191970" stroke="#191970" points="216.8966,-28.7794 213.3965,-18.7795 209.8966,-28.7795 216.8966,-28.7794"/>
</g>
<!-- Node11 -->
<g id="node12" class="node">
<title>Node11</title>
<polygon fill="#ffffff" stroke="#bfbfbf" points="257.665,-.5 257.665,-18.5 323.1279,-18.5 323.1279,-.5 257.665,-.5"/>
<text text-anchor="middle" x="290.3965" y="-6.5" font-family="Helvetica,sans-Serif" font-size="10.00" fill="#000000">sys/errno.h</text>
</g>
<!-- Node9&#45;&gt;Node11 -->
<g id="edge14" class="edge">
<title>Node9&#45;&gt;Node11</title>
<path fill="none" stroke="#191970" d="M226.1115,-55.4179C237.8148,-47.0584 255.4012,-34.4966 269.223,-24.6239"/>
<polygon fill="#191970" stroke="#191970" points="271.5596,-27.2561 277.6626,-18.5956 267.4909,-21.56 271.5596,-27.2561"/>
</g>
<!-- Node12 -->
<g id="node13" class="node">
<title>Node12</title>
<g id="a_node13"><a xlink:href="types_8h.html" target="_top" xlink:title="ARX/ARUtil/types.h">
<polygon fill="#ffffff" stroke="#000000" points="67.0493,-.5 67.0493,-18.5 169.7437,-18.5 169.7437,-.5 67.0493,-.5"/>
<text text-anchor="middle" x="118.3965" y="-6.5" font-family="Helvetica,sans-Serif" font-size="10.00" fill="#000000">ARX/ARUtil/types.h</text>
</a>
</g>
</g>
<!-- Node9&#45;&gt;Node12 -->
<g id="edge15" class="edge">
<title>Node9&#45;&gt;Node12</title>
<path fill="none" stroke="#191970" d="M197.7092,-55.4179C182.8575,-46.8195 160.3267,-33.7754 143.0696,-23.7844"/>
<polygon fill="#191970" stroke="#191970" points="144.515,-20.577 134.1071,-18.5956 141.0077,-26.635 144.515,-20.577"/>
</g>
<!-- Node14 -->
<g id="node15" class="node">
<title>Node14</title>
<polygon fill="#ffffff" stroke="#bfbfbf" points="1022.1108,-.5 1022.1108,-18.5 1068.6821,-18.5 1068.6821,-.5 1022.1108,-.5"/>
<text text-anchor="middle" x="1045.3965" y="-6.5" font-family="Helvetica,sans-Serif" font-size="10.00" fill="#000000">math.h</text>
</g>
<!-- Node13&#45;&gt;Node14 -->
<g id="edge17" class="edge">
<title>Node13&#45;&gt;Node14</title>
<path fill="none" stroke="#191970" d="M1045.3965,-55.4179C1045.3965,-48.2164 1045.3965,-37.8962 1045.3965,-28.8632"/>
<polygon fill="#191970" stroke="#191970" points="1048.8966,-28.7794 1045.3965,-18.7795 1041.8966,-28.7795 1048.8966,-28.7794"/>
</g>
<!-- Node15&#45;&gt;Node3 -->
<g id="edge19" class="edge">
<title>Node15&#45;&gt;Node3</title>
<path fill="none" stroke="#191970" d="M585.6824,-55.4179C551.7802,-45.393 497.4405,-29.3248 462.8557,-19.0981"/>
<polygon fill="#191970" stroke="#191970" points="463.812,-15.7312 453.2299,-16.2518 461.827,-22.4439 463.812,-15.7312"/>
</g>
<!-- Node16 -->
<g id="node17" class="node">
<title>Node16</title>
<g id="a_node17"><a xlink:href="icp_core_8h.html" target="_top" xlink:title="ARX/AR/icpCore.h">
<polygon fill="#ffffff" stroke="#000000" points="566.9927,-.5 566.9927,-18.5 665.8003,-18.5 665.8003,-.5 566.9927,-.5"/>
<text text-anchor="middle" x="616.3965" y="-6.5" font-family="Helvetica,sans-Serif" font-size="10.00" fill="#000000">ARX/AR/icpCore.h</text>
</a>
</g>
</g>
<!-- Node15&#45;&gt;Node16 -->
<g id="edge20" class="edge">
<title>Node15&#45;&gt;Node16</title>
<path fill="none" stroke="#191970" d="M616.3965,-55.4179C616.3965,-48.2164 616.3965,-37.8962 616.3965,-28.8632"/>
<polygon fill="#191970" stroke="#191970" points="619.8966,-28.7794 616.3965,-18.7795 612.8966,-28.7795 619.8966,-28.7794"/>
</g>
<!-- Node17&#45;&gt;Node2 -->
<g id="edge22" class="edge">
<title>Node17&#45;&gt;Node2</title>
<path fill="none" stroke="#191970" d="M739.2477,-73.5956C717.8457,-82.6765 682.0823,-96.7066 654.5679,-106.8663"/>
<polygon fill="#191970" stroke="#191970" points="653.0379,-103.6989 644.8461,-110.4179 655.4399,-110.2739 653.0379,-103.6989"/>
</g>
<!-- Node18&#45;&gt;Node2 -->
<g id="edge25" class="edge">
<title>Node18&#45;&gt;Node2</title>
<path fill="none" stroke="#191970" d="M843.7854,-73.5504C795.7262,-83.9336 713.9709,-100.83 662.631,-110.9835"/>
<polygon fill="#191970" stroke="#191970" points="661.9237,-107.5555 652.7876,-112.9203 663.2752,-114.4238 661.9237,-107.5555"/>
</g>
<!-- Node18&#45;&gt;Node7 -->
<g id="edge24" class="edge">
<title>Node18&#45;&gt;Node7</title>
<path fill="none" stroke="#191970" d="M882.3965,-55.4179C882.3965,-48.2164 882.3965,-37.8962 882.3965,-28.8632"/>
<polygon fill="#191970" stroke="#191970" points="885.8966,-28.7794 882.3965,-18.7795 878.8966,-28.7795 885.8966,-28.7794"/>
</g>
<!-- Node19&#45;&gt;Node7 -->
<g id="edge27" class="edge">
<title>Node19&#45;&gt;Node7</title>
<path fill="none" stroke="#191970" d="M898.8716,-110.456C918.7298,-103.8702 940.5632,-92.7037 952.3965,-74 965.5783,-53.1649 939.6201,-34.7076 915.6659,-22.9332"/>
<polygon fill="#191970" stroke="#191970" points="916.8736,-19.6354 906.3287,-18.6076 913.9311,-25.9869 916.8736,-19.6354"/>
</g>
<!-- Node21&#45;&gt;Node1 -->
<g id="edge30" class="edge">
<title>Node21&#45;&gt;Node1</title>
<path fill="none" stroke="#191970" d="M497.6033,-128.7795C499.0756,-136.0373 499.4944,-146.3738 498.8596,-155.383"/>
<polygon fill="#191970" stroke="#191970" points="495.3734,-155.0517 497.5628,-165.4179 502.3157,-155.949 495.3734,-155.0517"/>
</g>
</g>
</svg>
        <g id="navigator" transform="translate(0 0)" fill="#404254">
                <rect fill="#f2f5e9" fill-opacity="0.5" stroke="#606060" stroke-width=".5" x="0" y="0" width="60" height="60"/>
                <use id="zoomplus" xlink:href="#zoomPlus" x="17" y="9" onmousedown="handleZoom(evt,'in')"/>
                <use id="zoomminus" xlink:href="#zoomMin" x="42" y="9" onmousedown="handleZoom(evt,'out')"/>
                <use id="reset" xlink:href="#resetDef" x="30" y="36" onmousedown="handleReset()"/>
                <g id="arrowUp" xlink:href="#dirArrow" transform="translate(30 24)" onmousedown="handlePan(0,-1)">
                  <use xlink:href="#rim" fill="#404040">
                        <set attributeName="fill" to="#808080" begin="arrowUp.mouseover" end="arrowUp.mouseout"/>
                  </use>
                  <path fill="none" stroke="white" stroke-width="1.5" d="M0,-3.0v7 M-2.5,-0.5L0,-3.0L2.5,-0.5"/>
                </g>
                <g id="arrowRight" xlink:href="#dirArrow" transform="rotate(90) translate(36 -43)" onmousedown="handlePan(1,0)">
                  <use xlink:href="#rim" fill="#404040">
                        <set attributeName="fill" to="#808080" begin="arrowRight.mouseover" end="arrowRight.mouseout"/>
                  </use>
                  <path fill="none" stroke="white" stroke-width="1.5" d="M0,-3.0v7 M-2.5,-0.5L0,-3.0L2.5,-0.5"/>
                </g>
                <g id="arrowDown" xlink:href="#dirArrow" transform="rotate(180) translate(-30 -48)" onmousedown="handlePan(0,1)">
                  <use xlink:href="#rim" fill="#404040">
                        <set attributeName="fill" to="#808080" begin="arrowDown.mouseover" end="arrowDown.mouseout"/>
                  </use>
                  <path fill="none" stroke="white" stroke-width="1.5" d="M0,-3.0v7 M-2.5,-0.5L0,-3.0L2.5,-0.5"/>
                </g>
                <g id="arrowLeft" xlink:href="#dirArrow" transform="rotate(270) translate(-36 17)" onmousedown="handlePan(-1,0)">
                  <use xlink:href="#rim" fill="#404040">
                        <set attributeName="fill" to="#808080" begin="arrowLeft.mouseover" end="arrowLeft.mouseout"/>
                  </use>
                  <path fill="none" stroke="white" stroke-width="1.5" d="M0,-3.0v7 M-2.5,-0.5L0,-3.0L2.5,-0.5"/>
                </g>
        </g>
        <svg viewBox="0 0 15 15" width="100%" height="30px" preserveAspectRatio="xMaxYMin meet">
         <g id="arrow_out" transform="scale(0.3 0.3)">
          <a xlink:href="video_aspect_ratio_8c__incl_org.svg" target="_base">
           <rect id="button" ry="5" rx="5" y="6" x="6" height="38" width="38"
                fill="#f2f5e9" fill-opacity="0.5" stroke="#606060" stroke-width="1.0"/>
           <path id="arrow"
             d="M 11.500037,31.436501 C 11.940474,20.09759 22.043105,11.32322 32.158766,21.979434 L 37.068811,17.246167 C 37.068811,17.246167 37.088388,32 37.088388,32 L 22.160133,31.978069 C 22.160133,31.978069 26.997745,27.140456 26.997745,27.140456 C 18.528582,18.264221 13.291696,25.230495 11.500037,31.436501 z"
             style="fill:#404040;"/>
          </a>
         </g>
        </svg>
</svg>
