<?xml version="1.0" encoding="UTF-8" standalone="no"?>
<!DOCTYPE svg PUBLIC "-//W3C//DTD SVG 1.1//EN"
 "http://www.w3.org/Graphics/SVG/1.1/DTD/svg11.dtd">
<!-- Generated by graphviz version 8.0.5 (20230430.1635)
 -->
<!-- Title: arVideoOpen Pages: 1 -->
<svg width="367pt" height="323pt"
 viewBox="0.00 0.00 367.25 323.25" xmlns="http://www.w3.org/2000/svg" xmlns:xlink="http://www.w3.org/1999/xlink">
<g id="graph0" class="graph" transform="scale(1 1) rotate(0) translate(4 319.25)">
<title>arVideoOpen</title>
<!-- Node1 -->
<g id="node1" class="node">
<title>Node1</title>
<g id="a_node1"><a xlink:title="Open a video input module.">
<polygon fill="#999999" stroke="#666666" points="72.25,-167.25 0,-167.25 0,-148 72.25,-148 72.25,-167.25"/>
<text text-anchor="middle" x="36.12" y="-153.75" font-family="Helvetica,sans-Serif" font-size="10.00">arVideoOpen</text>
</a>
</g>
</g>
<!-- Node2 -->
<g id="node2" class="node">
<title>Node2</title>
<g id="a_node2"><a xlink:href="video2_8c.html#aef591a0c1b52999872fa5a89f7b2e4e9" target="_top" xlink:title="Open a video input module and return control object.">
<polygon fill="white" stroke="#666666" points="185.75,-167.25 108.25,-167.25 108.25,-148 185.75,-148 185.75,-167.25"/>
<text text-anchor="middle" x="147" y="-153.75" font-family="Helvetica,sans-Serif" font-size="10.00">ar2VideoOpen</text>
</a>
</g>
</g>
<!-- Node1&#45;&gt;Node2 -->
<g id="edge1" class="edge">
<title>Node1&#45;&gt;Node2</title>
<path fill="none" stroke="#63b8ff" d="M72.47,-157.62C80.33,-157.62 88.8,-157.62 97.09,-157.62"/>
<polygon fill="#63b8ff" stroke="#63b8ff" points="96.82,-161.13 106.82,-157.62 96.82,-154.13 96.82,-161.13"/>
</g>
<!-- Node3 -->
<g id="node3" class="node">
<title>Node3</title>
<g id="a_node3"><a xlink:href="video1394_8h.html#a5e135a088763d0bbeb2d95f8c92704b1" target="_top" xlink:title=" ">
<polygon fill="white" stroke="#666666" points="339.75,-315.25 241.25,-315.25 241.25,-296 339.75,-296 339.75,-315.25"/>
<text text-anchor="middle" x="290.5" y="-301.75" font-family="Helvetica,sans-Serif" font-size="10.00">ar2VideoOpen1394</text>
</a>
</g>
</g>
<!-- Node2&#45;&gt;Node3 -->
<g id="edge2" class="edge">
<title>Node2&#45;&gt;Node3</title>
<path fill="none" stroke="#63b8ff" d="M150.71,-167.53C157.89,-191.94 179.84,-255.29 221.75,-287.62 224.59,-289.82 227.68,-291.75 230.92,-293.44"/>
<polygon fill="#63b8ff" stroke="#63b8ff" points="229.42,-297.04 239.99,-297.85 232.23,-290.63 229.42,-297.04"/>
</g>
<!-- Node4 -->
<g id="node4" class="node">
<title>Node4</title>
<g id="a_node4"><a xlink:href="video_a_v_foundation_8h.html#aefeea555e04e4d04eb17b4adea17013d" target="_top" xlink:title=" ">
<polygon fill="white" stroke="#666666" points="359.25,-278.25 221.75,-278.25 221.75,-259 359.25,-259 359.25,-278.25"/>
<text text-anchor="middle" x="290.5" y="-264.75" font-family="Helvetica,sans-Serif" font-size="10.00">ar2VideoOpenAVFoundation</text>
</a>
</g>
</g>
<!-- Node2&#45;&gt;Node4 -->
<g id="edge3" class="edge">
<title>Node2&#45;&gt;Node4</title>
<path fill="none" stroke="#63b8ff" d="M153,-167.49C163.2,-186.61 188.31,-228.72 221.75,-250.62 223.74,-251.93 225.81,-253.13 227.95,-254.25"/>
<polygon fill="#63b8ff" stroke="#63b8ff" points="226.12,-257.72 236.68,-258.63 228.99,-251.33 226.12,-257.72"/>
</g>
<!-- Node5 -->
<g id="node5" class="node">
<title>Node5</title>
<g id="a_node5"><a xlink:href="video_dummy_8h.html#a72835c795b3b4f9ec13d7c3bfe482476" target="_top" xlink:title=" ">
<polygon fill="white" stroke="#666666" points="346.5,-241.25 234.5,-241.25 234.5,-222 346.5,-222 346.5,-241.25"/>
<text text-anchor="middle" x="290.5" y="-227.75" font-family="Helvetica,sans-Serif" font-size="10.00">ar2VideoOpenDummy</text>
</a>
</g>
</g>
<!-- Node2&#45;&gt;Node5 -->
<g id="edge4" class="edge">
<title>Node2&#45;&gt;Node5</title>
<path fill="none" stroke="#63b8ff" d="M158.12,-167.4C171.58,-179.89 196.62,-201.34 221.75,-213.62 224.92,-215.17 228.24,-216.6 231.64,-217.92"/>
<polygon fill="#63b8ff" stroke="#63b8ff" points="230.39,-221.54 240.99,-221.54 232.7,-214.93 230.39,-221.54"/>
</g>
<!-- Node6 -->
<g id="node6" class="node">
<title>Node6</title>
<g id="a_node6"><a xlink:href="video_emscripten_8h.html#a29074bdca28d3b80a8e89895087646b5" target="_top" xlink:title=" ">
<polygon fill="white" stroke="#666666" points="354,-204.25 227,-204.25 227,-185 354,-185 354,-204.25"/>
<text text-anchor="middle" x="290.5" y="-190.75" font-family="Helvetica,sans-Serif" font-size="10.00">ar2VideoOpenEmscripten</text>
</a>
</g>
</g>
<!-- Node2&#45;&gt;Node6 -->
<g id="edge5" class="edge">
<title>Node2&#45;&gt;Node6</title>
<path fill="none" stroke="#63b8ff" d="M185.92,-167.54C202.68,-171.92 222.59,-177.13 240.46,-181.8"/>
<polygon fill="#63b8ff" stroke="#63b8ff" points="239.42,-185.41 249.98,-184.55 241.19,-178.64 239.42,-185.41"/>
</g>
<!-- Node7 -->
<g id="node7" class="node">
<title>Node7</title>
<g id="a_node7"><a xlink:href="video_g_streamer_8h.html#a39ad73e9efc5e41fb011b58ec8262958" target="_top" xlink:title=" ">
<polygon fill="white" stroke="#666666" points="352.88,-167.25 228.12,-167.25 228.12,-148 352.88,-148 352.88,-167.25"/>
<text text-anchor="middle" x="290.5" y="-153.75" font-family="Helvetica,sans-Serif" font-size="10.00">ar2VideoOpenGStreamer</text>
</a>
</g>
</g>
<!-- Node2&#45;&gt;Node7 -->
<g id="edge6" class="edge">
<title>Node2&#45;&gt;Node7</title>
<path fill="none" stroke="#63b8ff" d="M185.92,-157.62C195.56,-157.62 206.24,-157.62 216.98,-157.62"/>
<polygon fill="#63b8ff" stroke="#63b8ff" points="216.7,-161.13 226.7,-157.62 216.7,-154.13 216.7,-161.13"/>
</g>
<!-- Node8 -->
<g id="node8" class="node">
<title>Node8</title>
<g id="a_node8"><a xlink:href="video_image_8h.html#a73390fddad6f8e51c827515ba754986b" target="_top" xlink:title=" ">
<polygon fill="white" stroke="#666666" points="342.75,-130.25 238.25,-130.25 238.25,-111 342.75,-111 342.75,-130.25"/>
<text text-anchor="middle" x="290.5" y="-116.75" font-family="Helvetica,sans-Serif" font-size="10.00">ar2VideoOpenImage</text>
</a>
</g>
</g>
<!-- Node2&#45;&gt;Node8 -->
<g id="edge7" class="edge">
<title>Node2&#45;&gt;Node8</title>
<path fill="none" stroke="#63b8ff" d="M185.92,-147.71C202.68,-143.33 222.59,-138.12 240.46,-133.45"/>
<polygon fill="#63b8ff" stroke="#63b8ff" points="241.19,-136.61 249.98,-130.7 239.42,-129.84 241.19,-136.61"/>
</g>
<!-- Node9 -->
<g id="node9" class="node">
<title>Node9</title>
<g id="a_node9"><a xlink:href="video_v4_l2_8h.html#abfb2b883b0d8a1b97aece447925d9fbb" target="_top" xlink:title=" ">
<polygon fill="white" stroke="#666666" points="340.5,-93.25 240.5,-93.25 240.5,-74 340.5,-74 340.5,-93.25"/>
<text text-anchor="middle" x="290.5" y="-79.75" font-family="Helvetica,sans-Serif" font-size="10.00">ar2VideoOpenV4L2</text>
</a>
</g>
</g>
<!-- Node2&#45;&gt;Node9 -->
<g id="edge8" class="edge">
<title>Node2&#45;&gt;Node9</title>
<path fill="none" stroke="#63b8ff" d="M158.12,-147.85C171.58,-135.36 196.62,-113.91 221.75,-101.62 224.92,-100.08 228.24,-98.65 231.64,-97.33"/>
<polygon fill="#63b8ff" stroke="#63b8ff" points="232.7,-100.32 240.99,-93.71 230.39,-93.71 232.7,-100.32"/>
</g>
<!-- Node10 -->
<g id="node10" class="node">
<title>Node10</title>
<g id="a_node10"><a xlink:href="video_windows_media_capture_8h.html#a61863b436e12e617a68415854ef8873a" target="_top" xlink:title=" ">
<polygon fill="white" stroke="#666666" points="345.75,-56.25 235.25,-56.25 235.25,-37 345.75,-37 345.75,-56.25"/>
<text text-anchor="middle" x="290.5" y="-42.75" font-family="Helvetica,sans-Serif" font-size="10.00">ar2VideoOpenWinMC</text>
</a>
</g>
</g>
<!-- Node2&#45;&gt;Node10 -->
<g id="edge9" class="edge">
<title>Node2&#45;&gt;Node10</title>
<path fill="none" stroke="#63b8ff" d="M153,-147.76C163.2,-128.64 188.31,-86.53 221.75,-64.62 223.74,-63.32 225.81,-62.12 227.95,-61"/>
<polygon fill="#63b8ff" stroke="#63b8ff" points="228.99,-63.92 236.68,-56.62 226.12,-57.53 228.99,-63.92"/>
</g>
<!-- Node11 -->
<g id="node11" class="node">
<title>Node11</title>
<g id="a_node11"><a xlink:href="video_windows_media_foundation_8h.html#a0fd1e3b5895e22598a81e24f86820168" target="_top" xlink:title=" ">
<polygon fill="white" stroke="#666666" points="345,-19.25 236,-19.25 236,0 345,0 345,-19.25"/>
<text text-anchor="middle" x="290.5" y="-5.75" font-family="Helvetica,sans-Serif" font-size="10.00">ar2VideoOpenWinMF</text>
</a>
</g>
</g>
<!-- Node2&#45;&gt;Node11 -->
<g id="edge10" class="edge">
<title>Node2&#45;&gt;Node11</title>
<path fill="none" stroke="#63b8ff" d="M150.71,-147.72C157.89,-123.31 179.84,-59.96 221.75,-27.62 223.21,-26.5 224.73,-25.45 226.3,-24.46"/>
<polygon fill="#63b8ff" stroke="#63b8ff" points="227.56,-27.23 234.79,-19.48 224.31,-21.03 227.56,-27.23"/>
</g>
</g>
</svg>
