<?xml version="1.0" encoding="UTF-8" standalone="no"?>
<!DOCTYPE svg PUBLIC "-//W3C//DTD SVG 1.1//EN"
 "http://www.w3.org/Graphics/SVG/1.1/DTD/svg11.dtd">
<!-- Generated by graphviz version 8.0.5 (20230430.1635)
 -->
<!-- Title: arVideoGetParami Pages: 1 -->
<svg width="437pt" height="397pt"
 viewBox="0.00 0.00 437.00 397.25" xmlns="http://www.w3.org/2000/svg" xmlns:xlink="http://www.w3.org/1999/xlink">
<g id="graph0" class="graph" transform="scale(1 1) rotate(0) translate(4 393.25)">
<title>arVideoGetParami</title>
<!-- Node1 -->
<g id="node1" class="node">
<title>Node1</title>
<g id="a_node1"><a xlink:title="Get value of an integer parameter from active video module.">
<polygon fill="#999999" stroke="#666666" points="95.5,-204.25 0,-204.25 0,-185 95.5,-185 95.5,-204.25"/>
<text text-anchor="middle" x="47.75" y="-190.75" font-family="Helvetica,sans-Serif" font-size="10.00">arVideoGetParami</text>
</a>
</g>
</g>
<!-- Node2 -->
<g id="node2" class="node">
<title>Node2</title>
<g id="a_node2"><a xlink:href="video2_8c.html#af67fa1b2fa58610d22a5ba68801259e0" target="_top" xlink:title=" ">
<polygon fill="white" stroke="#666666" points="232.25,-204.25 131.5,-204.25 131.5,-185 232.25,-185 232.25,-204.25"/>
<text text-anchor="middle" x="181.88" y="-190.75" font-family="Helvetica,sans-Serif" font-size="10.00">ar2VideoGetParami</text>
</a>
</g>
</g>
<!-- Node1&#45;&gt;Node2 -->
<g id="edge1" class="edge">
<title>Node1&#45;&gt;Node2</title>
<path fill="none" stroke="#63b8ff" d="M95.7,-194.62C103.75,-194.62 112.21,-194.62 120.55,-194.62"/>
<polygon fill="#63b8ff" stroke="#63b8ff" points="120.39,-198.13 130.39,-194.62 120.39,-191.13 120.39,-198.13"/>
</g>
<!-- Node3 -->
<g id="node3" class="node">
<title>Node3</title>
<g id="a_node3"><a xlink:href="video1394_8h.html#ac6133ea036896d9e6171da008299f853" target="_top" xlink:title=" ">
<polygon fill="white" stroke="#666666" points="409.5,-389.25 287.75,-389.25 287.75,-370 409.5,-370 409.5,-389.25"/>
<text text-anchor="middle" x="348.62" y="-375.75" font-family="Helvetica,sans-Serif" font-size="10.00">ar2VideoGetParami1394</text>
</a>
</g>
</g>
<!-- Node2&#45;&gt;Node3 -->
<g id="edge2" class="edge">
<title>Node2&#45;&gt;Node3</title>
<path fill="none" stroke="#63b8ff" d="M184.83,-204.38C191.18,-233.35 214,-319.47 268.25,-361.62 271.1,-363.84 274.16,-365.78 277.38,-367.5"/>
<polygon fill="#63b8ff" stroke="#63b8ff" points="275.84,-371.1 286.39,-371.99 278.7,-364.71 275.84,-371.1"/>
</g>
<!-- Node4 -->
<g id="node4" class="node">
<title>Node4</title>
<g id="a_node4"><a xlink:href="video_android_8h.html#a8e1c2a91e405805bba46fa18b15191b5" target="_top" xlink:title=" ">
<polygon fill="white" stroke="#666666" points="415.5,-352.25 281.75,-352.25 281.75,-333 415.5,-333 415.5,-352.25"/>
<text text-anchor="middle" x="348.62" y="-338.75" font-family="Helvetica,sans-Serif" font-size="10.00">ar2VideoGetParamiAndroid</text>
</a>
</g>
</g>
<!-- Node2&#45;&gt;Node4 -->
<g id="edge3" class="edge">
<title>Node2&#45;&gt;Node4</title>
<path fill="none" stroke="#63b8ff" d="M186.41,-204.65C195.65,-229.32 222.99,-293.23 268.25,-324.62 269.95,-325.8 271.71,-326.9 273.53,-327.94"/>
<polygon fill="#63b8ff" stroke="#63b8ff" points="271.45,-331.3 281.98,-332.52 274.51,-325.01 271.45,-331.3"/>
</g>
<!-- Node5 -->
<g id="node5" class="node">
<title>Node5</title>
<g id="a_node5"><a xlink:href="video_a_v_foundation_8h.html#ae243debe2c8a0473ab60d57ac6cfc59b" target="_top" xlink:title=" ">
<polygon fill="white" stroke="#666666" points="429,-315.25 268.25,-315.25 268.25,-296 429,-296 429,-315.25"/>
<text text-anchor="middle" x="348.62" y="-301.75" font-family="Helvetica,sans-Serif" font-size="10.00">ar2VideoGetParamiAVFoundation</text>
</a>
</g>
</g>
<!-- Node2&#45;&gt;Node5 -->
<g id="edge4" class="edge">
<title>Node2&#45;&gt;Node5</title>
<path fill="none" stroke="#63b8ff" d="M189,-204.59C201.4,-223.88 231.47,-266.29 268.25,-287.62 270.74,-289.07 273.34,-290.4 276.01,-291.62"/>
<polygon fill="#63b8ff" stroke="#63b8ff" points="274.37,-295.13 284.96,-295.6 276.97,-288.64 274.37,-295.13"/>
</g>
<!-- Node6 -->
<g id="node6" class="node">
<title>Node6</title>
<g id="a_node6"><a xlink:href="video_dummy_8h.html#a21cfdfc1d4f7a374258b894b99a8a4d9" target="_top" xlink:title=" ">
<polygon fill="white" stroke="#666666" points="416.25,-278.25 281,-278.25 281,-259 416.25,-259 416.25,-278.25"/>
<text text-anchor="middle" x="348.62" y="-264.75" font-family="Helvetica,sans-Serif" font-size="10.00">ar2VideoGetParamiDummy</text>
</a>
</g>
</g>
<!-- Node2&#45;&gt;Node6 -->
<g id="edge5" class="edge">
<title>Node2&#45;&gt;Node6</title>
<path fill="none" stroke="#63b8ff" d="M195.08,-204.69C210.96,-217.27 240.03,-238.63 268.25,-250.62 272.42,-252.4 276.79,-254.01 281.25,-255.47"/>
<polygon fill="#63b8ff" stroke="#63b8ff" points="280.16,-259.1 290.74,-258.61 282.17,-252.39 280.16,-259.1"/>
</g>
<!-- Node7 -->
<g id="node7" class="node">
<title>Node7</title>
<g id="a_node7"><a xlink:href="video_emscripten_8h.html#abe048926e5905db5d2c3f7cd09d4cc5a" target="_top" xlink:title=" ">
<polygon fill="white" stroke="#666666" points="423.75,-241.25 273.5,-241.25 273.5,-222 423.75,-222 423.75,-241.25"/>
<text text-anchor="middle" x="348.62" y="-227.75" font-family="Helvetica,sans-Serif" font-size="10.00">ar2VideoGetParamiEmscripten</text>
</a>
</g>
</g>
<!-- Node2&#45;&gt;Node7 -->
<g id="edge6" class="edge">
<title>Node2&#45;&gt;Node7</title>
<path fill="none" stroke="#63b8ff" d="M227.89,-204.74C247.69,-209.18 271.14,-214.45 292.01,-219.14"/>
<polygon fill="#63b8ff" stroke="#63b8ff" points="291.14,-222.75 301.66,-221.53 292.67,-215.92 291.14,-222.75"/>
</g>
<!-- Node8 -->
<g id="node8" class="node">
<title>Node8</title>
<g id="a_node8"><a xlink:href="video_external_8h.html#a452a6730ddaa806cb7ef78c9ef5efab7" target="_top" xlink:title=" ">
<polygon fill="white" stroke="#666666" points="417,-204.25 280.25,-204.25 280.25,-185 417,-185 417,-204.25"/>
<text text-anchor="middle" x="348.62" y="-190.75" font-family="Helvetica,sans-Serif" font-size="10.00">ar2VideoGetParamiExternal</text>
</a>
</g>
</g>
<!-- Node2&#45;&gt;Node8 -->
<g id="edge7" class="edge">
<title>Node2&#45;&gt;Node8</title>
<path fill="none" stroke="#63b8ff" d="M232.31,-194.62C243.89,-194.62 256.51,-194.62 269.02,-194.62"/>
<polygon fill="#63b8ff" stroke="#63b8ff" points="268.95,-198.13 278.95,-194.62 268.95,-191.13 268.95,-198.13"/>
</g>
<!-- Node9 -->
<g id="node9" class="node">
<title>Node9</title>
<g id="a_node9"><a xlink:href="video_g_streamer_8h.html#a06215850227491cca2079bd515353c58" target="_top" xlink:title=" ">
<polygon fill="white" stroke="#666666" points="422.62,-167.25 274.62,-167.25 274.62,-148 422.62,-148 422.62,-167.25"/>
<text text-anchor="middle" x="348.62" y="-153.75" font-family="Helvetica,sans-Serif" font-size="10.00">ar2VideoGetParamiGStreamer</text>
</a>
</g>
</g>
<!-- Node2&#45;&gt;Node9 -->
<g id="edge8" class="edge">
<title>Node2&#45;&gt;Node9</title>
<path fill="none" stroke="#63b8ff" d="M227.89,-184.51C247.69,-180.07 271.14,-174.8 292.01,-170.11"/>
<polygon fill="#63b8ff" stroke="#63b8ff" points="292.67,-173.33 301.66,-167.72 291.14,-166.5 292.67,-173.33"/>
</g>
<!-- Node10 -->
<g id="node10" class="node">
<title>Node10</title>
<g id="a_node10"><a xlink:href="video_image_8h.html#a643853f81e1fd04fccdd8fb8ed778cdb" target="_top" xlink:title=" ">
<polygon fill="white" stroke="#666666" points="412.5,-130.25 284.75,-130.25 284.75,-111 412.5,-111 412.5,-130.25"/>
<text text-anchor="middle" x="348.62" y="-116.75" font-family="Helvetica,sans-Serif" font-size="10.00">ar2VideoGetParamiImage</text>
</a>
</g>
</g>
<!-- Node2&#45;&gt;Node10 -->
<g id="edge9" class="edge">
<title>Node2&#45;&gt;Node10</title>
<path fill="none" stroke="#63b8ff" d="M195.08,-184.56C210.96,-171.98 240.03,-150.62 268.25,-138.62 272.42,-136.85 276.79,-135.24 281.25,-133.78"/>
<polygon fill="#63b8ff" stroke="#63b8ff" points="282.17,-136.86 290.74,-130.64 280.16,-130.15 282.17,-136.86"/>
</g>
<!-- Node11 -->
<g id="node11" class="node">
<title>Node11</title>
<g id="a_node11"><a xlink:href="video_v4_l2_8h.html#a20ec6276fa613171b650569206194a32" target="_top" xlink:title=" ">
<polygon fill="white" stroke="#666666" points="410.25,-93.25 287,-93.25 287,-74 410.25,-74 410.25,-93.25"/>
<text text-anchor="middle" x="348.62" y="-79.75" font-family="Helvetica,sans-Serif" font-size="10.00">ar2VideoGetParamiV4L2</text>
</a>
</g>
</g>
<!-- Node2&#45;&gt;Node11 -->
<g id="edge10" class="edge">
<title>Node2&#45;&gt;Node11</title>
<path fill="none" stroke="#63b8ff" d="M189,-184.66C201.4,-165.37 231.47,-122.96 268.25,-101.62 270.94,-100.06 273.76,-98.64 276.66,-97.33"/>
<polygon fill="#63b8ff" stroke="#63b8ff" points="277.75,-100.27 285.78,-93.37 275.19,-93.76 277.75,-100.27"/>
</g>
<!-- Node12 -->
<g id="node12" class="node">
<title>Node12</title>
<g id="a_node12"><a xlink:href="video_windows_media_capture_8h.html#a0a27a8d36731b9932418d3e5e80d596b" target="_top" xlink:title=" ">
<polygon fill="white" stroke="#666666" points="415.5,-56.25 281.75,-56.25 281.75,-37 415.5,-37 415.5,-56.25"/>
<text text-anchor="middle" x="348.62" y="-42.75" font-family="Helvetica,sans-Serif" font-size="10.00">ar2VideoGetParamiWinMC</text>
</a>
</g>
</g>
<!-- Node2&#45;&gt;Node12 -->
<g id="edge11" class="edge">
<title>Node2&#45;&gt;Node12</title>
<path fill="none" stroke="#63b8ff" d="M186.41,-184.6C195.65,-159.93 222.99,-96.02 268.25,-64.62 269.95,-63.45 271.71,-62.35 273.53,-61.31"/>
<polygon fill="#63b8ff" stroke="#63b8ff" points="274.51,-64.24 281.98,-56.73 271.45,-57.95 274.51,-64.24"/>
</g>
<!-- Node13 -->
<g id="node13" class="node">
<title>Node13</title>
<g id="a_node13"><a xlink:href="video_windows_media_foundation_8h.html#af3beb23787c689b81516088f4349c8a4" target="_top" xlink:title=" ">
<polygon fill="white" stroke="#666666" points="414.75,-19.25 282.5,-19.25 282.5,0 414.75,0 414.75,-19.25"/>
<text text-anchor="middle" x="348.62" y="-5.75" font-family="Helvetica,sans-Serif" font-size="10.00">ar2VideoGetParamiWinMF</text>
</a>
</g>
</g>
<!-- Node2&#45;&gt;Node13 -->
<g id="edge12" class="edge">
<title>Node2&#45;&gt;Node13</title>
<path fill="none" stroke="#63b8ff" d="M184.83,-184.87C191.18,-155.9 214,-69.78 268.25,-27.62 269.71,-26.49 271.22,-25.43 272.79,-24.43"/>
<polygon fill="#63b8ff" stroke="#63b8ff" points="274.04,-27.19 281.2,-19.39 270.73,-21.02 274.04,-27.19"/>
</g>
</g>
</svg>
