<?xml version="1.0" encoding="UTF-8" standalone="no"?>
<!DOCTYPE svg PUBLIC "-//W3C//DTD SVG 1.1//EN"
 "http://www.w3.org/Graphics/SVG/1.1/DTD/svg11.dtd">
<!-- Generated by graphviz version 2.40.1 (20161225.0304)
 -->
<!-- Title: Source/ARX/ARVideo/include/ARX/ARVideo/videoConfig.h Pages: 1 -->
<svg width="124pt" height="102pt"
 viewBox="0.00 0.00 123.70 102.00" xmlns="http://www.w3.org/2000/svg" xmlns:xlink="http://www.w3.org/1999/xlink">
<g id="graph0" class="graph" transform="scale(1 1) rotate(0) translate(4 98)">
<title>Source/ARX/ARVideo/include/ARX/ARVideo/videoConfig.h</title>
<polygon fill="#ffffff" stroke="transparent" points="-4,4 -4,-98 119.7021,-98 119.7021,4 -4,4"/>
<!-- Node0 -->
<g id="node1" class="node">
<title>Node0</title>
<polygon fill="#bfbfbf" stroke="#000000" points="0,-55.5 0,-93.5 115.7021,-93.5 115.7021,-55.5 0,-55.5"/>
<text text-anchor="start" x="8" y="-81.5" font-family="Helvetica,sans-Serif" font-size="10.00" fill="#000000">Source/ARX/ARVideo</text>
<text text-anchor="start" x="8" y="-71.5" font-family="Helvetica,sans-Serif" font-size="10.00" fill="#000000">/include/ARX/ARVideo</text>
<text text-anchor="middle" x="57.8511" y="-61.5" font-family="Helvetica,sans-Serif" font-size="10.00" fill="#000000">/videoConfig.h</text>
</g>
<!-- Node1 -->
<g id="node2" class="node">
<title>Node1</title>
<polygon fill="#ffffff" stroke="#bfbfbf" points="12.334,-.5 12.334,-18.5 103.3682,-18.5 103.3682,-.5 12.334,-.5"/>
<text text-anchor="middle" x="57.8511" y="-6.5" font-family="Helvetica,sans-Serif" font-size="10.00" fill="#000000">ARX/AR/config.h</text>
</g>
<!-- Node0&#45;&gt;Node1 -->
<g id="edge1" class="edge">
<title>Node0&#45;&gt;Node1</title>
<path fill="none" stroke="#191970" d="M57.8511,-55.3494C57.8511,-47.0079 57.8511,-37.2463 57.8511,-28.879"/>
<polygon fill="#191970" stroke="#191970" points="61.3512,-28.5978 57.8511,-18.5978 54.3512,-28.5979 61.3512,-28.5978"/>
</g>
</g>
</svg>
