<?xml version="1.0" encoding="UTF-8" standalone="no"?>
<!DOCTYPE svg PUBLIC "-//W3C//DTD SVG 1.1//EN"
 "http://www.w3.org/Graphics/SVG/1.1/DTD/svg11.dtd">
<!-- Generated by graphviz version 2.40.1 (20161225.0304)
 -->
<!-- Title: Source/ARX/ARVideo/include/ARX/ARVideo/videoRGBA.h Pages: 1 -->
<svg width="302pt" height="112pt"
 viewBox="0.00 0.00 302.21 112.00" xmlns="http://www.w3.org/2000/svg" xmlns:xlink="http://www.w3.org/1999/xlink">
<g id="graph0" class="graph" transform="scale(1 1) rotate(0) translate(4 108)">
<title>Source/ARX/ARVideo/include/ARX/ARVideo/videoRGBA.h</title>
<polygon fill="#ffffff" stroke="transparent" points="-4,4 -4,-108 298.2119,-108 298.2119,4 -4,4"/>
<!-- Node22 -->
<g id="node1" class="node">
<title>Node22</title>
<polygon fill="#bfbfbf" stroke="#000000" points="76.6084,-65.5 76.6084,-103.5 192.3105,-103.5 192.3105,-65.5 76.6084,-65.5"/>
<text text-anchor="start" x="84.6084" y="-91.5" font-family="Helvetica,sans-Serif" font-size="10.00" fill="#000000">Source/ARX/ARVideo</text>
<text text-anchor="start" x="84.6084" y="-81.5" font-family="Helvetica,sans-Serif" font-size="10.00" fill="#000000">/include/ARX/ARVideo</text>
<text text-anchor="middle" x="134.4595" y="-71.5" font-family="Helvetica,sans-Serif" font-size="10.00" fill="#000000">/videoRGBA.h</text>
</g>
<!-- Node23 -->
<g id="node2" class="node">
<title>Node23</title>
<g id="a_node2"><a xlink:href="video_r_g_b_a_8c.html" target="_top" xlink:title="Source/ARX/ARVideo\l/videoRGBA.c">
<polygon fill="#ffffff" stroke="#000000" points="0,-.5 0,-28.5 112.9189,-28.5 112.9189,-.5 0,-.5"/>
<text text-anchor="start" x="8" y="-16.5" font-family="Helvetica,sans-Serif" font-size="10.00" fill="#000000">Source/ARX/ARVideo</text>
<text text-anchor="middle" x="56.4595" y="-6.5" font-family="Helvetica,sans-Serif" font-size="10.00" fill="#000000">/videoRGBA.c</text>
</a>
</g>
</g>
<!-- Node22&#45;&gt;Node23 -->
<g id="edge1" class="edge">
<title>Node22&#45;&gt;Node23</title>
<path fill="none" stroke="#191970" d="M105.6489,-58.6443C94.4715,-48.6133 82.0932,-37.5047 72.5502,-28.9404"/>
<polygon fill="#191970" stroke="#191970" points="103.3655,-61.2979 113.1456,-65.3722 108.0409,-56.0882 103.3655,-61.2979"/>
</g>
<!-- Node24 -->
<g id="node3" class="node">
<title>Node24</title>
<g id="a_node3"><a xlink:href="_a_r_video_source_8cpp.html" target="_top" xlink:title="Source/ARX/ARVideoSource.cpp">
<polygon fill="#ffffff" stroke="#000000" points="130.707,-5.5 130.707,-23.5 294.2119,-23.5 294.2119,-5.5 130.707,-5.5"/>
<text text-anchor="middle" x="212.4595" y="-11.5" font-family="Helvetica,sans-Serif" font-size="10.00" fill="#000000">Source/ARX/ARVideoSource.cpp</text>
</a>
</g>
</g>
<!-- Node22&#45;&gt;Node24 -->
<g id="edge2" class="edge">
<title>Node22&#45;&gt;Node24</title>
<path fill="none" stroke="#191970" d="M163.5428,-58.3996C177.1716,-46.1686 192.5311,-32.3844 202.3423,-23.5795"/>
<polygon fill="#191970" stroke="#191970" points="160.8781,-56.0882 155.7733,-65.3722 165.5535,-61.2979 160.8781,-56.0882"/>
</g>
</g>
</svg>
