<?xml version="1.0" encoding="UTF-8" standalone="no"?>
<!DOCTYPE svg PUBLIC "-//W3C//DTD SVG 1.1//EN"
 "http://www.w3.org/Graphics/SVG/1.1/DTD/svg11.dtd">
<!-- Generated by graphviz version 7.0.5 (20221223.1930)
 -->
<!-- Title: arVideoGetPixelFormat Pages: 1 -->
<!--zoomable 360 -->
<svg id="main" version="1.1" xmlns="http://www.w3.org/2000/svg" xmlns:xlink="http://www.w3.org/1999/xlink" xml:space="preserve" onload="init(evt)">
<style type="text/css"><![CDATA[
.edge:hover path { stroke: red; }
.edge:hover polygon { stroke: red; fill: red; }
]]></style>
<script type="text/javascript"><![CDATA[
var edges = document.getElementsByTagName('g');
if (edges && edges.length) {
  for (var i=0;i<edges.length;i++) {
    if (edges[i].id.substr(0,4)=='edge') {
      edges[i].setAttribute('class','edge');
    }
  }
}
]]></script>
        <defs>
                <circle id="rim" cx="0" cy="0" r="7"/>
                <circle id="rim2" cx="0" cy="0" r="3.5"/>
                <g id="zoomPlus">
                        <use xlink:href="#rim" fill="#404040">
                                <set attributeName="fill" to="#808080" begin="zoomplus.mouseover" end="zoomplus.mouseout"/>
                        </use>
                        <path d="M-4,0h8M0,-4v8" fill="none" stroke="white" stroke-width="1.5" pointer-events="none"/>
                </g>
                <g id="zoomMin">
                        <use xlink:href="#rim" fill="#404040">
                                <set attributeName="fill" to="#808080" begin="zoomminus.mouseover" end="zoomminus.mouseout"/>
                        </use>
                        <path d="M-4,0h8" fill="none" stroke="white" stroke-width="1.5" pointer-events="none"/>
                </g>
                <g id="dirArrow">
                        <path fill="none" stroke="white" stroke-width="1.5" d="M0,-3.0v7 M-2.5,-0.5L0,-3.0L2.5,-0.5"/>
                </g>
               <g id="resetDef">
                       <use xlink:href="#rim2" fill="#404040">
                               <set attributeName="fill" to="#808080" begin="reset.mouseover" end="reset.mouseout"/>
                       </use>
               </g>
        </defs>

<script type="text/javascript">
var viewWidth = 504;
var viewHeight = 360;
var sectionId = 'dynsection-41';
</script>
<script xlink:href="svgpan.js"/>
<svg id="graph" class="graph">
<g id="viewport">
<title>arVideoGetPixelFormat</title>
<!-- Node1 -->
<g id="node1" class="node">
<title>Node1</title>
<g id="a_node1"><a xlink:title=" ">
<polygon fill="#999999" stroke="#666666" points="118,-185 0,-185 0,-166 118,-166 118,-185"/>
<text text-anchor="middle" x="59" y="-173" font-family="Helvetica,sans-Serif" font-size="10.00">arVideoGetPixelFormat</text>
</a>
</g>
</g>
<!-- Node2 -->
<g id="node2" class="node">
<title>Node2</title>
<g id="a_node2"><a xlink:href="video2_8c.html#a7780fac88f8c59974d8d9fe6d4a8047a" target="_top" xlink:title=" ">
<polygon fill="white" stroke="#666666" points="277,-185 154,-185 154,-166 277,-166 277,-185"/>
<text text-anchor="middle" x="215.5" y="-173" font-family="Helvetica,sans-Serif" font-size="10.00">ar2VideoGetPixelFormat</text>
</a>
</g>
</g>
<!-- Node1&#45;&gt;Node2 -->
<g id="edge1" class="edge">
<title>Node1&#45;&gt;Node2</title>
<path fill="none" stroke="#63b8ff" d="M118.41,-175.5C126.25,-175.5 134.37,-175.5 142.41,-175.5"/>
<polygon fill="#63b8ff" stroke="#63b8ff" points="142.18,-179 152.18,-175.5 142.18,-172 142.18,-179"/>
</g>
<!-- Node3 -->
<g id="node3" class="node">
<title>Node3</title>
<g id="a_node3"><a xlink:href="video1394_8h.html#a1eb40205f18baab9d12c0bc187e9b50e" target="_top" xlink:title=" ">
<polygon fill="white" stroke="#666666" points="476.5,-352 332.5,-352 332.5,-333 476.5,-333 476.5,-352"/>
<text text-anchor="middle" x="404.5" y="-340" font-family="Helvetica,sans-Serif" font-size="10.00">ar2VideoGetPixelFormat1394</text>
</a>
</g>
</g>
<!-- Node2&#45;&gt;Node3 -->
<g id="edge2" class="edge">
<title>Node2&#45;&gt;Node3</title>
<path fill="none" stroke="#63b8ff" d="M219.81,-185.45C229.4,-212.64 259.96,-288.51 313,-324.5 315.73,-326.36 318.61,-328.03 321.6,-329.54"/>
<polygon fill="#63b8ff" stroke="#63b8ff" points="320.14,-332.72 330.71,-333.46 322.91,-326.29 320.14,-332.72"/>
</g>
<!-- Node4 -->
<g id="node4" class="node">
<title>Node4</title>
<g id="a_node4"><a xlink:href="video_android_8h.html#ac511ed131837c08ea6f17725dd87d2bc" target="_top" xlink:title=" ">
<polygon fill="white" stroke="#666666" points="482.5,-315 326.5,-315 326.5,-296 482.5,-296 482.5,-315"/>
<text text-anchor="middle" x="404.5" y="-303" font-family="Helvetica,sans-Serif" font-size="10.00">ar2VideoGetPixelFormatAndroid</text>
</a>
</g>
</g>
<!-- Node2&#45;&gt;Node4 -->
<g id="edge3" class="edge">
<title>Node2&#45;&gt;Node4</title>
<path fill="none" stroke="#63b8ff" d="M221.78,-185.19C234.36,-207.29 268.44,-261.51 313,-287.5 315.34,-288.86 317.76,-290.12 320.24,-291.29"/>
<polygon fill="#63b8ff" stroke="#63b8ff" points="318.78,-294.47 329.36,-295 321.42,-287.99 318.78,-294.47"/>
</g>
<!-- Node5 -->
<g id="node5" class="node">
<title>Node5</title>
<g id="a_node5"><a xlink:href="video_a_v_foundation_8h.html#a98d99736ba21ff6f85c9da3e0e2acab8" target="_top" xlink:title=" ">
<polygon fill="white" stroke="#666666" points="496,-278 313,-278 313,-259 496,-259 496,-278"/>
<text text-anchor="middle" x="404.5" y="-266" font-family="Helvetica,sans-Serif" font-size="10.00">ar2VideoGetPixelFormatAVFoundation</text>
</a>
</g>
</g>
<!-- Node2&#45;&gt;Node5 -->
<g id="edge4" class="edge">
<title>Node2&#45;&gt;Node5</title>
<path fill="none" stroke="#63b8ff" d="M225.89,-185.32C242.05,-201.59 276.91,-234.01 313,-250.5 316.79,-252.23 320.75,-253.8 324.8,-255.22"/>
<polygon fill="#63b8ff" stroke="#63b8ff" points="323.65,-258.52 334.24,-258.17 325.74,-251.84 323.65,-258.52"/>
</g>
<!-- Node6 -->
<g id="node6" class="node">
<title>Node6</title>
<g id="a_node6"><a xlink:href="video_dummy_8h.html#aef5bd63c5abf5e4479664647c084644b" target="_top" xlink:title=" ">
<polygon fill="white" stroke="#666666" points="483.5,-241 325.5,-241 325.5,-222 483.5,-222 483.5,-241"/>
<text text-anchor="middle" x="404.5" y="-229" font-family="Helvetica,sans-Serif" font-size="10.00">ar2VideoGetPixelFormatDummy</text>
</a>
</g>
</g>
<!-- Node2&#45;&gt;Node6 -->
<g id="edge5" class="edge">
<title>Node2&#45;&gt;Node6</title>
<path fill="none" stroke="#63b8ff" d="M238.34,-185.4C257.64,-193.84 286.74,-205.79 313,-213.5 319.76,-215.49 326.86,-217.32 334,-219"/>
<polygon fill="#63b8ff" stroke="#63b8ff" points="333.19,-222.4 343.71,-221.17 334.72,-215.57 333.19,-222.4"/>
</g>
<!-- Node7 -->
<g id="node7" class="node">
<title>Node7</title>
<g id="a_node7"><a xlink:href="video_emscripten_8h.html#adf754d416afc5827da25c1dbd9e9099e" target="_top" xlink:title=" ">
<polygon fill="white" stroke="#666666" points="491,-204 318,-204 318,-185 491,-185 491,-204"/>
<text text-anchor="middle" x="404.5" y="-192" font-family="Helvetica,sans-Serif" font-size="10.00">ar2VideoGetPixelFormatEmscripten</text>
</a>
</g>
</g>
<!-- Node2&#45;&gt;Node7 -->
<g id="edge6" class="edge">
<title>Node2&#45;&gt;Node7</title>
<path fill="none" stroke="#63b8ff" d="M277.47,-181.7C286.84,-182.65 296.71,-183.65 306.63,-184.66"/>
<polygon fill="#63b8ff" stroke="#63b8ff" points="306.02,-188.11 316.32,-185.64 306.72,-181.15 306.02,-188.11"/>
</g>
<!-- Node8 -->
<g id="node8" class="node">
<title>Node8</title>
<g id="a_node8"><a xlink:href="video_g_streamer_8h.html#a8b53b15ce8566d0887b1a543ed6102ae" target="_top" xlink:title=" ">
<polygon fill="white" stroke="#666666" points="489.5,-167 319.5,-167 319.5,-148 489.5,-148 489.5,-167"/>
<text text-anchor="middle" x="404.5" y="-155" font-family="Helvetica,sans-Serif" font-size="10.00">ar2VideoGetPixelFormatGStreamer</text>
</a>
</g>
</g>
<!-- Node2&#45;&gt;Node8 -->
<g id="edge7" class="edge">
<title>Node2&#45;&gt;Node8</title>
<path fill="none" stroke="#63b8ff" d="M277.47,-169.63C287.26,-168.69 297.58,-167.7 307.94,-166.7"/>
<polygon fill="#63b8ff" stroke="#63b8ff" points="308.05,-170.2 317.67,-165.76 307.38,-163.24 308.05,-170.2"/>
</g>
<!-- Node9 -->
<g id="node9" class="node">
<title>Node9</title>
<g id="a_node9"><a xlink:href="video_image_8h.html#a4e14913d6bea4a02cd3d17ddd95e2544" target="_top" xlink:title=" ">
<polygon fill="white" stroke="#666666" points="479.5,-130 329.5,-130 329.5,-111 479.5,-111 479.5,-130"/>
<text text-anchor="middle" x="404.5" y="-118" font-family="Helvetica,sans-Serif" font-size="10.00">ar2VideoGetPixelFormatImage</text>
</a>
</g>
</g>
<!-- Node2&#45;&gt;Node9 -->
<g id="edge8" class="edge">
<title>Node2&#45;&gt;Node9</title>
<path fill="none" stroke="#63b8ff" d="M239.96,-165.62C259.3,-157.75 287.58,-146.86 313,-139.5 321.15,-137.14 329.79,-134.94 338.37,-132.95"/>
<polygon fill="#63b8ff" stroke="#63b8ff" points="339.1,-136.37 348.1,-130.77 337.57,-129.54 339.1,-136.37"/>
</g>
<!-- Node10 -->
<g id="node10" class="node">
<title>Node10</title>
<g id="a_node10"><a xlink:href="video_v4_l2_8h.html#aab61669af9d839aa23ecd79d1c4bde5a" target="_top" xlink:title=" ">
<polygon fill="white" stroke="#666666" points="477.5,-93 331.5,-93 331.5,-74 477.5,-74 477.5,-93"/>
<text text-anchor="middle" x="404.5" y="-81" font-family="Helvetica,sans-Serif" font-size="10.00">ar2VideoGetPixelFormatV4L2</text>
</a>
</g>
</g>
<!-- Node2&#45;&gt;Node10 -->
<g id="edge9" class="edge">
<title>Node2&#45;&gt;Node10</title>
<path fill="none" stroke="#63b8ff" d="M226.22,-165.74C242.61,-149.89 277.44,-118.69 313,-102.5 317.77,-100.33 322.8,-98.4 327.94,-96.69"/>
<polygon fill="#63b8ff" stroke="#63b8ff" points="328.58,-100.15 337.15,-93.92 326.57,-93.45 328.58,-100.15"/>
</g>
<!-- Node11 -->
<g id="node11" class="node">
<title>Node11</title>
<g id="a_node11"><a xlink:href="video_windows_media_capture_8h.html#ac9ad7a1f796558ec9dbb80f2031c8411" target="_top" xlink:title=" ">
<polygon fill="white" stroke="#666666" points="482.5,-56 326.5,-56 326.5,-37 482.5,-37 482.5,-56"/>
<text text-anchor="middle" x="404.5" y="-44" font-family="Helvetica,sans-Serif" font-size="10.00">ar2VideoGetPixelFormatWinMC</text>
</a>
</g>
</g>
<!-- Node2&#45;&gt;Node11 -->
<g id="edge10" class="edge">
<title>Node2&#45;&gt;Node11</title>
<path fill="none" stroke="#63b8ff" d="M222.04,-165.69C234.91,-143.85 269.13,-91.13 313,-65.5 316.19,-63.64 319.53,-61.96 322.98,-60.44"/>
<polygon fill="#63b8ff" stroke="#63b8ff" points="324.1,-63.76 332.18,-56.9 321.59,-57.23 324.1,-63.76"/>
</g>
<!-- Node12 -->
<g id="node12" class="node">
<title>Node12</title>
<g id="a_node12"><a xlink:href="video_windows_media_foundation_8h.html#a7155272e53d6a7b98cfbd616313e7e6c" target="_top" xlink:title=" ">
<polygon fill="white" stroke="#666666" points="482,-19 327,-19 327,0 482,0 482,-19"/>
<text text-anchor="middle" x="404.5" y="-7" font-family="Helvetica,sans-Serif" font-size="10.00">ar2VideoGetPixelFormatWinMF</text>
</a>
</g>
</g>
<!-- Node2&#45;&gt;Node12 -->
<g id="edge11" class="edge">
<title>Node2&#45;&gt;Node12</title>
<path fill="none" stroke="#63b8ff" d="M219.87,-165.71C229.62,-138.96 260.53,-64.27 313,-28.5 315.38,-26.88 317.87,-25.39 320.44,-24.02"/>
<polygon fill="#63b8ff" stroke="#63b8ff" points="321.7,-27.3 329.35,-19.97 318.8,-20.93 321.7,-27.3"/>
</g>
</g>
</svg>
        <g id="navigator" transform="translate(0 0)" fill="#404254">
                <rect fill="#f2f5e9" fill-opacity="0.5" stroke="#606060" stroke-width=".5" x="0" y="0" width="60" height="60"/>
                <use id="zoomplus" xlink:href="#zoomPlus" x="17" y="9" onmousedown="handleZoom(evt,'in')"/>
                <use id="zoomminus" xlink:href="#zoomMin" x="42" y="9" onmousedown="handleZoom(evt,'out')"/>
                <use id="reset" xlink:href="#resetDef" x="30" y="36" onmousedown="handleReset()"/>
                <g id="arrowUp" xlink:href="#dirArrow" transform="translate(30 24)" onmousedown="handlePan(0,-1)">
                  <use xlink:href="#rim" fill="#404040">
                        <set attributeName="fill" to="#808080" begin="arrowUp.mouseover" end="arrowUp.mouseout"/>
                  </use>
                  <path fill="none" stroke="white" stroke-width="1.5" d="M0,-3.0v7 M-2.5,-0.5L0,-3.0L2.5,-0.5"/>
                </g>
                <g id="arrowRight" xlink:href="#dirArrow" transform="rotate(90) translate(36 -43)" onmousedown="handlePan(1,0)">
                  <use xlink:href="#rim" fill="#404040">
                        <set attributeName="fill" to="#808080" begin="arrowRight.mouseover" end="arrowRight.mouseout"/>
                  </use>
                  <path fill="none" stroke="white" stroke-width="1.5" d="M0,-3.0v7 M-2.5,-0.5L0,-3.0L2.5,-0.5"/>
                </g>
                <g id="arrowDown" xlink:href="#dirArrow" transform="rotate(180) translate(-30 -48)" onmousedown="handlePan(0,1)">
                  <use xlink:href="#rim" fill="#404040">
                        <set attributeName="fill" to="#808080" begin="arrowDown.mouseover" end="arrowDown.mouseout"/>
                  </use>
                  <path fill="none" stroke="white" stroke-width="1.5" d="M0,-3.0v7 M-2.5,-0.5L0,-3.0L2.5,-0.5"/>
                </g>
                <g id="arrowLeft" xlink:href="#dirArrow" transform="rotate(270) translate(-36 17)" onmousedown="handlePan(-1,0)">
                  <use xlink:href="#rim" fill="#404040">
                        <set attributeName="fill" to="#808080" begin="arrowLeft.mouseover" end="arrowLeft.mouseout"/>
                  </use>
                  <path fill="none" stroke="white" stroke-width="1.5" d="M0,-3.0v7 M-2.5,-0.5L0,-3.0L2.5,-0.5"/>
                </g>
        </g>
        <svg viewBox="0 0 15 15" width="100%" height="30px" preserveAspectRatio="xMaxYMin meet">
         <g id="arrow_out" transform="scale(0.3 0.3)">
          <a xlink:href="video_8h_a74adb4cc6c32c3e2d5f9d83d31772040_cgraph_org.svg" target="_base">
           <rect id="button" ry="5" rx="5" y="6" x="6" height="38" width="38"
                fill="#f2f5e9" fill-opacity="0.5" stroke="#606060" stroke-width="1.0"/>
           <path id="arrow"
             d="M 11.500037,31.436501 C 11.940474,20.09759 22.043105,11.32322 32.158766,21.979434 L 37.068811,17.246167 C 37.068811,17.246167 37.088388,32 37.088388,32 L 22.160133,31.978069 C 22.160133,31.978069 26.997745,27.140456 26.997745,27.140456 C 18.528582,18.264221 13.291696,25.230495 11.500037,31.436501 z"
             style="fill:#404040;"/>
          </a>
         </g>
        </svg>
</svg>
