<?xml version="1.0" encoding="UTF-8" standalone="no"?>
<!DOCTYPE svg PUBLIC "-//W3C//DTD SVG 1.1//EN"
 "http://www.w3.org/Graphics/SVG/1.1/DTD/svg11.dtd">
<!-- Generated by graphviz version 7.0.5 (20221223.1930)
 -->
<!-- Title: arVideoGetPixelSize Pages: 1 -->
<!--zoomable 360 -->
<svg id="main" version="1.1" xmlns="http://www.w3.org/2000/svg" xmlns:xlink="http://www.w3.org/1999/xlink" xml:space="preserve" onload="init(evt)">
<style type="text/css"><![CDATA[
.edge:hover path { stroke: red; }
.edge:hover polygon { stroke: red; fill: red; }
]]></style>
<script type="text/javascript"><![CDATA[
var edges = document.getElementsByTagName('g');
if (edges && edges.length) {
  for (var i=0;i<edges.length;i++) {
    if (edges[i].id.substr(0,4)=='edge') {
      edges[i].setAttribute('class','edge');
    }
  }
}
]]></script>
        <defs>
                <circle id="rim" cx="0" cy="0" r="7"/>
                <circle id="rim2" cx="0" cy="0" r="3.5"/>
                <g id="zoomPlus">
                        <use xlink:href="#rim" fill="#404040">
                                <set attributeName="fill" to="#808080" begin="zoomplus.mouseover" end="zoomplus.mouseout"/>
                        </use>
                        <path d="M-4,0h8M0,-4v8" fill="none" stroke="white" stroke-width="1.5" pointer-events="none"/>
                </g>
                <g id="zoomMin">
                        <use xlink:href="#rim" fill="#404040">
                                <set attributeName="fill" to="#808080" begin="zoomminus.mouseover" end="zoomminus.mouseout"/>
                        </use>
                        <path d="M-4,0h8" fill="none" stroke="white" stroke-width="1.5" pointer-events="none"/>
                </g>
                <g id="dirArrow">
                        <path fill="none" stroke="white" stroke-width="1.5" d="M0,-3.0v7 M-2.5,-0.5L0,-3.0L2.5,-0.5"/>
                </g>
               <g id="resetDef">
                       <use xlink:href="#rim2" fill="#404040">
                               <set attributeName="fill" to="#808080" begin="reset.mouseover" end="reset.mouseout"/>
                       </use>
               </g>
        </defs>

<script type="text/javascript">
var viewWidth = 641;
var viewHeight = 360;
var sectionId = 'dynsection-42';
</script>
<script xlink:href="svgpan.js"/>
<svg id="graph" class="graph">
<g id="viewport">
<title>arVideoGetPixelSize</title>
<!-- Node1 -->
<g id="node1" class="node">
<title>Node1</title>
<g id="a_node1"><a xlink:title=" ">
<polygon fill="#999999" stroke="#666666" points="107,-166 0,-166 0,-147 107,-147 107,-166"/>
<text text-anchor="middle" x="53.5" y="-154" font-family="Helvetica,sans-Serif" font-size="10.00">arVideoGetPixelSize</text>
</a>
</g>
</g>
<!-- Node2 -->
<g id="node2" class="node">
<title>Node2</title>
<g id="a_node2"><a xlink:href="video2_8c.html#a6d7b20a0708b95e5836d814c5a1a308f" target="_top" xlink:title=" ">
<polygon fill="white" stroke="#666666" points="255,-166 143,-166 143,-147 255,-147 255,-166"/>
<text text-anchor="middle" x="199" y="-154" font-family="Helvetica,sans-Serif" font-size="10.00">ar2VideoGetPixelSize</text>
</a>
</g>
</g>
<!-- Node1&#45;&gt;Node2 -->
<g id="edge1" class="edge">
<title>Node1&#45;&gt;Node2</title>
<path fill="none" stroke="#63b8ff" d="M107.12,-156.5C115.06,-156.5 123.33,-156.5 131.51,-156.5"/>
<polygon fill="#63b8ff" stroke="#63b8ff" points="131.46,-160 141.46,-156.5 131.46,-153 131.46,-160"/>
</g>
<!-- Node3 -->
<g id="node3" class="node">
<title>Node3</title>
<g id="a_node3"><a xlink:href="video2_8c.html#a7780fac88f8c59974d8d9fe6d4a8047a" target="_top" xlink:title=" ">
<polygon fill="white" stroke="#666666" points="414,-185 291,-185 291,-166 414,-166 414,-185"/>
<text text-anchor="middle" x="352.5" y="-173" font-family="Helvetica,sans-Serif" font-size="10.00">ar2VideoGetPixelFormat</text>
</a>
</g>
</g>
<!-- Node2&#45;&gt;Node3 -->
<g id="edge2" class="edge">
<title>Node2&#45;&gt;Node3</title>
<path fill="none" stroke="#63b8ff" d="M255.12,-163.41C262.94,-164.39 271.08,-165.41 279.17,-166.43"/>
<polygon fill="#63b8ff" stroke="#63b8ff" points="278.67,-169.89 289.03,-167.66 279.54,-162.95 278.67,-169.89"/>
</g>
<!-- Node14 -->
<g id="node14" class="node">
<title>Node14</title>
<g id="a_node14"><a xlink:href="video_8c.html#a4c8d0ec64516c7d3a5b85df20e591e88" target="_top" xlink:title=" ">
<polygon fill="white" stroke="#666666" points="413.5,-148 291.5,-148 291.5,-129 413.5,-129 413.5,-148"/>
<text text-anchor="middle" x="352.5" y="-136" font-family="Helvetica,sans-Serif" font-size="10.00">arVideoUtilGetPixelSize</text>
</a>
</g>
</g>
<!-- Node2&#45;&gt;Node14 -->
<g id="edge13" class="edge">
<title>Node2&#45;&gt;Node14</title>
<path fill="none" stroke="#63b8ff" d="M255.12,-149.95C263.15,-149 271.51,-148 279.81,-147.02"/>
<polygon fill="#63b8ff" stroke="#63b8ff" points="280.02,-150.52 289.54,-145.86 279.2,-143.57 280.02,-150.52"/>
</g>
<!-- Node4 -->
<g id="node4" class="node">
<title>Node4</title>
<g id="a_node4"><a xlink:href="video1394_8h.html#a1eb40205f18baab9d12c0bc187e9b50e" target="_top" xlink:title=" ">
<polygon fill="white" stroke="#666666" points="613.5,-352 469.5,-352 469.5,-333 613.5,-333 613.5,-352"/>
<text text-anchor="middle" x="541.5" y="-340" font-family="Helvetica,sans-Serif" font-size="10.00">ar2VideoGetPixelFormat1394</text>
</a>
</g>
</g>
<!-- Node3&#45;&gt;Node4 -->
<g id="edge3" class="edge">
<title>Node3&#45;&gt;Node4</title>
<path fill="none" stroke="#63b8ff" d="M356.81,-185.45C366.4,-212.64 396.96,-288.51 450,-324.5 452.73,-326.36 455.61,-328.03 458.6,-329.54"/>
<polygon fill="#63b8ff" stroke="#63b8ff" points="457.14,-332.72 467.71,-333.46 459.91,-326.29 457.14,-332.72"/>
</g>
<!-- Node5 -->
<g id="node5" class="node">
<title>Node5</title>
<g id="a_node5"><a xlink:href="video_android_8h.html#ac511ed131837c08ea6f17725dd87d2bc" target="_top" xlink:title=" ">
<polygon fill="white" stroke="#666666" points="619.5,-315 463.5,-315 463.5,-296 619.5,-296 619.5,-315"/>
<text text-anchor="middle" x="541.5" y="-303" font-family="Helvetica,sans-Serif" font-size="10.00">ar2VideoGetPixelFormatAndroid</text>
</a>
</g>
</g>
<!-- Node3&#45;&gt;Node5 -->
<g id="edge4" class="edge">
<title>Node3&#45;&gt;Node5</title>
<path fill="none" stroke="#63b8ff" d="M358.78,-185.19C371.36,-207.29 405.44,-261.51 450,-287.5 452.34,-288.86 454.76,-290.12 457.24,-291.29"/>
<polygon fill="#63b8ff" stroke="#63b8ff" points="455.78,-294.47 466.36,-295 458.42,-287.99 455.78,-294.47"/>
</g>
<!-- Node6 -->
<g id="node6" class="node">
<title>Node6</title>
<g id="a_node6"><a xlink:href="video_a_v_foundation_8h.html#a98d99736ba21ff6f85c9da3e0e2acab8" target="_top" xlink:title=" ">
<polygon fill="white" stroke="#666666" points="633,-278 450,-278 450,-259 633,-259 633,-278"/>
<text text-anchor="middle" x="541.5" y="-266" font-family="Helvetica,sans-Serif" font-size="10.00">ar2VideoGetPixelFormatAVFoundation</text>
</a>
</g>
</g>
<!-- Node3&#45;&gt;Node6 -->
<g id="edge5" class="edge">
<title>Node3&#45;&gt;Node6</title>
<path fill="none" stroke="#63b8ff" d="M362.89,-185.32C379.05,-201.59 413.91,-234.01 450,-250.5 453.79,-252.23 457.75,-253.8 461.8,-255.22"/>
<polygon fill="#63b8ff" stroke="#63b8ff" points="460.65,-258.52 471.24,-258.17 462.74,-251.84 460.65,-258.52"/>
</g>
<!-- Node7 -->
<g id="node7" class="node">
<title>Node7</title>
<g id="a_node7"><a xlink:href="video_dummy_8h.html#aef5bd63c5abf5e4479664647c084644b" target="_top" xlink:title=" ">
<polygon fill="white" stroke="#666666" points="620.5,-241 462.5,-241 462.5,-222 620.5,-222 620.5,-241"/>
<text text-anchor="middle" x="541.5" y="-229" font-family="Helvetica,sans-Serif" font-size="10.00">ar2VideoGetPixelFormatDummy</text>
</a>
</g>
</g>
<!-- Node3&#45;&gt;Node7 -->
<g id="edge6" class="edge">
<title>Node3&#45;&gt;Node7</title>
<path fill="none" stroke="#63b8ff" d="M375.34,-185.4C394.64,-193.84 423.74,-205.79 450,-213.5 456.76,-215.49 463.86,-217.32 471,-219"/>
<polygon fill="#63b8ff" stroke="#63b8ff" points="470.19,-222.4 480.71,-221.17 471.72,-215.57 470.19,-222.4"/>
</g>
<!-- Node8 -->
<g id="node8" class="node">
<title>Node8</title>
<g id="a_node8"><a xlink:href="video_emscripten_8h.html#adf754d416afc5827da25c1dbd9e9099e" target="_top" xlink:title=" ">
<polygon fill="white" stroke="#666666" points="628,-204 455,-204 455,-185 628,-185 628,-204"/>
<text text-anchor="middle" x="541.5" y="-192" font-family="Helvetica,sans-Serif" font-size="10.00">ar2VideoGetPixelFormatEmscripten</text>
</a>
</g>
</g>
<!-- Node3&#45;&gt;Node8 -->
<g id="edge7" class="edge">
<title>Node3&#45;&gt;Node8</title>
<path fill="none" stroke="#63b8ff" d="M414.47,-181.7C423.84,-182.65 433.71,-183.65 443.63,-184.66"/>
<polygon fill="#63b8ff" stroke="#63b8ff" points="443.02,-188.11 453.32,-185.64 443.72,-181.15 443.02,-188.11"/>
</g>
<!-- Node9 -->
<g id="node9" class="node">
<title>Node9</title>
<g id="a_node9"><a xlink:href="video_g_streamer_8h.html#a8b53b15ce8566d0887b1a543ed6102ae" target="_top" xlink:title=" ">
<polygon fill="white" stroke="#666666" points="626.5,-167 456.5,-167 456.5,-148 626.5,-148 626.5,-167"/>
<text text-anchor="middle" x="541.5" y="-155" font-family="Helvetica,sans-Serif" font-size="10.00">ar2VideoGetPixelFormatGStreamer</text>
</a>
</g>
</g>
<!-- Node3&#45;&gt;Node9 -->
<g id="edge8" class="edge">
<title>Node3&#45;&gt;Node9</title>
<path fill="none" stroke="#63b8ff" d="M414.47,-169.63C424.26,-168.69 434.58,-167.7 444.94,-166.7"/>
<polygon fill="#63b8ff" stroke="#63b8ff" points="445.05,-170.2 454.67,-165.76 444.38,-163.24 445.05,-170.2"/>
</g>
<!-- Node10 -->
<g id="node10" class="node">
<title>Node10</title>
<g id="a_node10"><a xlink:href="video_image_8h.html#a4e14913d6bea4a02cd3d17ddd95e2544" target="_top" xlink:title=" ">
<polygon fill="white" stroke="#666666" points="616.5,-130 466.5,-130 466.5,-111 616.5,-111 616.5,-130"/>
<text text-anchor="middle" x="541.5" y="-118" font-family="Helvetica,sans-Serif" font-size="10.00">ar2VideoGetPixelFormatImage</text>
</a>
</g>
</g>
<!-- Node3&#45;&gt;Node10 -->
<g id="edge9" class="edge">
<title>Node3&#45;&gt;Node10</title>
<path fill="none" stroke="#63b8ff" d="M390.64,-165.56C398.44,-163.17 406.56,-160.44 414,-157.5 430.64,-150.92 433.11,-145.39 450,-139.5 456.67,-137.18 463.71,-135.09 470.81,-133.23"/>
<polygon fill="#63b8ff" stroke="#63b8ff" points="471.62,-136.64 480.49,-130.85 469.95,-129.84 471.62,-136.64"/>
</g>
<!-- Node11 -->
<g id="node11" class="node">
<title>Node11</title>
<g id="a_node11"><a xlink:href="video_v4_l2_8h.html#aab61669af9d839aa23ecd79d1c4bde5a" target="_top" xlink:title=" ">
<polygon fill="white" stroke="#666666" points="614.5,-93 468.5,-93 468.5,-74 614.5,-74 614.5,-93"/>
<text text-anchor="middle" x="541.5" y="-81" font-family="Helvetica,sans-Serif" font-size="10.00">ar2VideoGetPixelFormatV4L2</text>
</a>
</g>
</g>
<!-- Node3&#45;&gt;Node11 -->
<g id="edge10" class="edge">
<title>Node3&#45;&gt;Node11</title>
<path fill="none" stroke="#63b8ff" d="M399.75,-165.52C404.82,-163.35 409.69,-160.71 414,-157.5 437.43,-140.05 425.87,-118.97 450,-102.5 452.52,-100.78 455.17,-99.21 457.91,-97.77"/>
<polygon fill="#63b8ff" stroke="#63b8ff" points="459.11,-101.07 466.8,-93.78 456.25,-94.68 459.11,-101.07"/>
</g>
<!-- Node12 -->
<g id="node12" class="node">
<title>Node12</title>
<g id="a_node12"><a xlink:href="video_windows_media_capture_8h.html#ac9ad7a1f796558ec9dbb80f2031c8411" target="_top" xlink:title=" ">
<polygon fill="white" stroke="#666666" points="619.5,-56 463.5,-56 463.5,-37 619.5,-37 619.5,-56"/>
<text text-anchor="middle" x="541.5" y="-44" font-family="Helvetica,sans-Serif" font-size="10.00">ar2VideoGetPixelFormatWinMC</text>
</a>
</g>
</g>
<!-- Node3&#45;&gt;Node12 -->
<g id="edge11" class="edge">
<title>Node3&#45;&gt;Node12</title>
<path fill="none" stroke="#63b8ff" d="M401.95,-165.63C406.33,-163.44 410.45,-160.76 414,-157.5 446.32,-127.78 416.48,-93.87 450,-65.5 451.47,-64.25 453.01,-63.08 454.6,-61.98"/>
<polygon fill="#63b8ff" stroke="#63b8ff" points="455.99,-65.22 462.89,-57.17 452.48,-59.16 455.99,-65.22"/>
</g>
<!-- Node13 -->
<g id="node13" class="node">
<title>Node13</title>
<g id="a_node13"><a xlink:href="video_windows_media_foundation_8h.html#a7155272e53d6a7b98cfbd616313e7e6c" target="_top" xlink:title=" ">
<polygon fill="white" stroke="#666666" points="619,-19 464,-19 464,0 619,0 619,-19"/>
<text text-anchor="middle" x="541.5" y="-7" font-family="Helvetica,sans-Serif" font-size="10.00">ar2VideoGetPixelFormatWinMF</text>
</a>
</g>
</g>
<!-- Node3&#45;&gt;Node13 -->
<g id="edge12" class="edge">
<title>Node3&#45;&gt;Node13</title>
<path fill="none" stroke="#63b8ff" d="M403.18,-165.52C407.16,-163.34 410.85,-160.7 414,-157.5 455.73,-115.05 406.56,-69.2 450,-28.5 451.41,-27.18 452.89,-25.94 454.42,-24.78"/>
<polygon fill="#63b8ff" stroke="#63b8ff" points="455.86,-28.01 462.5,-19.74 452.16,-22.07 455.86,-28.01"/>
</g>
</g>
</svg>
        <g id="navigator" transform="translate(0 0)" fill="#404254">
                <rect fill="#f2f5e9" fill-opacity="0.5" stroke="#606060" stroke-width=".5" x="0" y="0" width="60" height="60"/>
                <use id="zoomplus" xlink:href="#zoomPlus" x="17" y="9" onmousedown="handleZoom(evt,'in')"/>
                <use id="zoomminus" xlink:href="#zoomMin" x="42" y="9" onmousedown="handleZoom(evt,'out')"/>
                <use id="reset" xlink:href="#resetDef" x="30" y="36" onmousedown="handleReset()"/>
                <g id="arrowUp" xlink:href="#dirArrow" transform="translate(30 24)" onmousedown="handlePan(0,-1)">
                  <use xlink:href="#rim" fill="#404040">
                        <set attributeName="fill" to="#808080" begin="arrowUp.mouseover" end="arrowUp.mouseout"/>
                  </use>
                  <path fill="none" stroke="white" stroke-width="1.5" d="M0,-3.0v7 M-2.5,-0.5L0,-3.0L2.5,-0.5"/>
                </g>
                <g id="arrowRight" xlink:href="#dirArrow" transform="rotate(90) translate(36 -43)" onmousedown="handlePan(1,0)">
                  <use xlink:href="#rim" fill="#404040">
                        <set attributeName="fill" to="#808080" begin="arrowRight.mouseover" end="arrowRight.mouseout"/>
                  </use>
                  <path fill="none" stroke="white" stroke-width="1.5" d="M0,-3.0v7 M-2.5,-0.5L0,-3.0L2.5,-0.5"/>
                </g>
                <g id="arrowDown" xlink:href="#dirArrow" transform="rotate(180) translate(-30 -48)" onmousedown="handlePan(0,1)">
                  <use xlink:href="#rim" fill="#404040">
                        <set attributeName="fill" to="#808080" begin="arrowDown.mouseover" end="arrowDown.mouseout"/>
                  </use>
                  <path fill="none" stroke="white" stroke-width="1.5" d="M0,-3.0v7 M-2.5,-0.5L0,-3.0L2.5,-0.5"/>
                </g>
                <g id="arrowLeft" xlink:href="#dirArrow" transform="rotate(270) translate(-36 17)" onmousedown="handlePan(-1,0)">
                  <use xlink:href="#rim" fill="#404040">
                        <set attributeName="fill" to="#808080" begin="arrowLeft.mouseover" end="arrowLeft.mouseout"/>
                  </use>
                  <path fill="none" stroke="white" stroke-width="1.5" d="M0,-3.0v7 M-2.5,-0.5L0,-3.0L2.5,-0.5"/>
                </g>
        </g>
        <svg viewBox="0 0 15 15" width="100%" height="30px" preserveAspectRatio="xMaxYMin meet">
         <g id="arrow_out" transform="scale(0.3 0.3)">
          <a xlink:href="video_8h_ac650d99d553d51e0f8835fb7bd94f157_cgraph_org.svg" target="_base">
           <rect id="button" ry="5" rx="5" y="6" x="6" height="38" width="38"
                fill="#f2f5e9" fill-opacity="0.5" stroke="#606060" stroke-width="1.0"/>
           <path id="arrow"
             d="M 11.500037,31.436501 C 11.940474,20.09759 22.043105,11.32322 32.158766,21.979434 L 37.068811,17.246167 C 37.068811,17.246167 37.088388,32 37.088388,32 L 22.160133,31.978069 C 22.160133,31.978069 26.997745,27.140456 26.997745,27.140456 C 18.528582,18.264221 13.291696,25.230495 11.500037,31.436501 z"
             style="fill:#404040;"/>
          </a>
         </g>
        </svg>
</svg>
