<?xml version="1.0" encoding="UTF-8" standalone="no"?>
<!DOCTYPE svg PUBLIC "-//W3C//DTD SVG 1.1//EN"
 "http://www.w3.org/Graphics/SVG/1.1/DTD/svg11.dtd">
<!-- Generated by graphviz version 8.0.5 (20230430.1635)
 -->
<!-- Title: arVideoCapStop Pages: 1 -->
<svg width="412pt" height="397pt"
 viewBox="0.00 0.00 412.25 397.25" xmlns="http://www.w3.org/2000/svg" xmlns:xlink="http://www.w3.org/1999/xlink">
<g id="graph0" class="graph" transform="scale(1 1) rotate(0) translate(4 393.25)">
<title>arVideoCapStop</title>
<!-- Node1 -->
<g id="node1" class="node">
<title>Node1</title>
<g id="a_node1"><a xlink:title="Stop video capture.">
<polygon fill="#999999" stroke="#666666" points="87.25,-204.25 0,-204.25 0,-185 87.25,-185 87.25,-204.25"/>
<text text-anchor="middle" x="43.62" y="-190.75" font-family="Helvetica,sans-Serif" font-size="10.00">arVideoCapStop</text>
</a>
</g>
</g>
<!-- Node2 -->
<g id="node2" class="node">
<title>Node2</title>
<g id="a_node2"><a xlink:href="video2_8c.html#a76c9cee4e58dd8dd4940ed6af42cdba2" target="_top" xlink:title=" ">
<polygon fill="white" stroke="#666666" points="215.75,-204.25 123.25,-204.25 123.25,-185 215.75,-185 215.75,-204.25"/>
<text text-anchor="middle" x="169.5" y="-190.75" font-family="Helvetica,sans-Serif" font-size="10.00">ar2VideoCapStop</text>
</a>
</g>
</g>
<!-- Node1&#45;&gt;Node2 -->
<g id="edge1" class="edge">
<title>Node1&#45;&gt;Node2</title>
<path fill="none" stroke="#63b8ff" d="M87.6,-194.62C95.57,-194.62 104,-194.62 112.3,-194.62"/>
<polygon fill="#63b8ff" stroke="#63b8ff" points="112.07,-198.13 122.07,-194.62 112.07,-191.13 112.07,-198.13"/>
</g>
<!-- Node3 -->
<g id="node3" class="node">
<title>Node3</title>
<g id="a_node3"><a xlink:href="video1394_8h.html#a23f653b38bb02af6d9050d02b0702f94" target="_top" xlink:title=" ">
<polygon fill="white" stroke="#666666" points="384.75,-389.25 271.25,-389.25 271.25,-370 384.75,-370 384.75,-389.25"/>
<text text-anchor="middle" x="328" y="-375.75" font-family="Helvetica,sans-Serif" font-size="10.00">ar2VideoCapStop1394</text>
</a>
</g>
</g>
<!-- Node2&#45;&gt;Node3 -->
<g id="edge2" class="edge">
<title>Node2&#45;&gt;Node3</title>
<path fill="none" stroke="#63b8ff" d="M172.23,-204.34C177.9,-233.2 198.7,-319.04 251.75,-361.62 254.67,-363.97 257.84,-366.01 261.18,-367.8"/>
<polygon fill="#63b8ff" stroke="#63b8ff" points="259.39,-371.28 269.95,-372.17 262.25,-364.89 259.39,-371.28"/>
</g>
<!-- Node4 -->
<g id="node4" class="node">
<title>Node4</title>
<g id="a_node4"><a xlink:href="video_android_8h.html#a0d13c2368b42b9e85c60830fb13fd04e" target="_top" xlink:title=" ">
<polygon fill="white" stroke="#666666" points="390.75,-352.25 265.25,-352.25 265.25,-333 390.75,-333 390.75,-352.25"/>
<text text-anchor="middle" x="328" y="-338.75" font-family="Helvetica,sans-Serif" font-size="10.00">ar2VideoCapStopAndroid</text>
</a>
</g>
</g>
<!-- Node2&#45;&gt;Node4 -->
<g id="edge3" class="edge">
<title>Node2&#45;&gt;Node4</title>
<path fill="none" stroke="#63b8ff" d="M173.74,-204.61C182.25,-229.2 207.67,-292.92 251.75,-324.62 253.25,-325.7 254.8,-326.72 256.41,-327.67"/>
<polygon fill="#63b8ff" stroke="#63b8ff" points="254.5,-331.13 265,-332.51 257.65,-324.88 254.5,-331.13"/>
</g>
<!-- Node5 -->
<g id="node5" class="node">
<title>Node5</title>
<g id="a_node5"><a xlink:href="video_a_v_foundation_8h.html#a80dffabb6c571245b002d91e9031ca64" target="_top" xlink:title=" ">
<polygon fill="white" stroke="#666666" points="404.25,-315.25 251.75,-315.25 251.75,-296 404.25,-296 404.25,-315.25"/>
<text text-anchor="middle" x="328" y="-301.75" font-family="Helvetica,sans-Serif" font-size="10.00">ar2VideoCapStopAVFoundation</text>
</a>
</g>
</g>
<!-- Node2&#45;&gt;Node5 -->
<g id="edge4" class="edge">
<title>Node2&#45;&gt;Node5</title>
<path fill="none" stroke="#63b8ff" d="M176.23,-204.56C187.85,-223.79 216.16,-266.11 251.75,-287.62 253.98,-288.97 256.31,-290.22 258.7,-291.38"/>
<polygon fill="#63b8ff" stroke="#63b8ff" points="257.26,-294.99 267.84,-295.61 259.96,-288.53 257.26,-294.99"/>
</g>
<!-- Node6 -->
<g id="node6" class="node">
<title>Node6</title>
<g id="a_node6"><a xlink:href="video_dummy_8h.html#a78fa5654276bc8d340ffe8182d0bcd6c" target="_top" xlink:title=" ">
<polygon fill="white" stroke="#666666" points="391.5,-278.25 264.5,-278.25 264.5,-259 391.5,-259 391.5,-278.25"/>
<text text-anchor="middle" x="328" y="-264.75" font-family="Helvetica,sans-Serif" font-size="10.00">ar2VideoCapStopDummy</text>
</a>
</g>
</g>
<!-- Node2&#45;&gt;Node6 -->
<g id="edge5" class="edge">
<title>Node2&#45;&gt;Node6</title>
<path fill="none" stroke="#63b8ff" d="M182.05,-204.66C197.09,-217.23 224.68,-238.56 251.75,-250.62 255.57,-252.33 259.58,-253.89 263.68,-255.3"/>
<polygon fill="#63b8ff" stroke="#63b8ff" points="262.37,-258.88 272.96,-258.55 264.48,-252.2 262.37,-258.88"/>
</g>
<!-- Node7 -->
<g id="node7" class="node">
<title>Node7</title>
<g id="a_node7"><a xlink:href="video_emscripten_8h.html#ada6b833e6406915a8351305b4ab63dc6" target="_top" xlink:title=" ">
<polygon fill="white" stroke="#666666" points="399,-241.25 257,-241.25 257,-222 399,-222 399,-241.25"/>
<text text-anchor="middle" x="328" y="-227.75" font-family="Helvetica,sans-Serif" font-size="10.00">ar2VideoCapStopEmscripten</text>
</a>
</g>
</g>
<!-- Node2&#45;&gt;Node7 -->
<g id="edge6" class="edge">
<title>Node2&#45;&gt;Node7</title>
<path fill="none" stroke="#63b8ff" d="M213.26,-204.74C231.9,-209.14 253.93,-214.35 273.63,-219.01"/>
<polygon fill="#63b8ff" stroke="#63b8ff" points="272.75,-222.63 283.29,-221.53 274.36,-215.82 272.75,-222.63"/>
</g>
<!-- Node8 -->
<g id="node8" class="node">
<title>Node8</title>
<g id="a_node8"><a xlink:href="video_external_8h.html#a0165023800976ebf91a86d2c413dec60" target="_top" xlink:title=" ">
<polygon fill="white" stroke="#666666" points="392.25,-204.25 263.75,-204.25 263.75,-185 392.25,-185 392.25,-204.25"/>
<text text-anchor="middle" x="328" y="-190.75" font-family="Helvetica,sans-Serif" font-size="10.00">ar2VideoCapStopExternal</text>
</a>
</g>
</g>
<!-- Node2&#45;&gt;Node8 -->
<g id="edge7" class="edge">
<title>Node2&#45;&gt;Node8</title>
<path fill="none" stroke="#63b8ff" d="M216.19,-194.62C227.63,-194.62 240.21,-194.62 252.65,-194.62"/>
<polygon fill="#63b8ff" stroke="#63b8ff" points="252.52,-198.13 262.52,-194.62 252.52,-191.13 252.52,-198.13"/>
</g>
<!-- Node9 -->
<g id="node9" class="node">
<title>Node9</title>
<g id="a_node9"><a xlink:href="video_g_streamer_8h.html#a7742f3dc5f58756420a4f50e9f588432" target="_top" xlink:title=" ">
<polygon fill="white" stroke="#666666" points="397.88,-167.25 258.12,-167.25 258.12,-148 397.88,-148 397.88,-167.25"/>
<text text-anchor="middle" x="328" y="-153.75" font-family="Helvetica,sans-Serif" font-size="10.00">ar2VideoCapStopGStreamer</text>
</a>
</g>
</g>
<!-- Node2&#45;&gt;Node9 -->
<g id="edge8" class="edge">
<title>Node2&#45;&gt;Node9</title>
<path fill="none" stroke="#63b8ff" d="M213.26,-184.51C231.9,-180.11 253.93,-174.9 273.63,-170.24"/>
<polygon fill="#63b8ff" stroke="#63b8ff" points="274.36,-173.43 283.29,-167.72 272.75,-166.62 274.36,-173.43"/>
</g>
<!-- Node10 -->
<g id="node10" class="node">
<title>Node10</title>
<g id="a_node10"><a xlink:href="video_image_8h.html#af8b971aac579641ba46492cbd6394293" target="_top" xlink:title=" ">
<polygon fill="white" stroke="#666666" points="387.75,-130.25 268.25,-130.25 268.25,-111 387.75,-111 387.75,-130.25"/>
<text text-anchor="middle" x="328" y="-116.75" font-family="Helvetica,sans-Serif" font-size="10.00">ar2VideoCapStopImage</text>
</a>
</g>
</g>
<!-- Node2&#45;&gt;Node10 -->
<g id="edge9" class="edge">
<title>Node2&#45;&gt;Node10</title>
<path fill="none" stroke="#63b8ff" d="M182.05,-184.59C197.09,-172.02 224.68,-150.69 251.75,-138.62 255.57,-136.92 259.58,-135.36 263.68,-133.95"/>
<polygon fill="#63b8ff" stroke="#63b8ff" points="264.48,-137.05 272.96,-130.7 262.37,-130.37 264.48,-137.05"/>
</g>
<!-- Node11 -->
<g id="node11" class="node">
<title>Node11</title>
<g id="a_node11"><a xlink:href="video_v4_l2_8h.html#a530b43b034daf2f89586fb69e9de74aa" target="_top" xlink:title=" ">
<polygon fill="white" stroke="#666666" points="385.5,-93.25 270.5,-93.25 270.5,-74 385.5,-74 385.5,-93.25"/>
<text text-anchor="middle" x="328" y="-79.75" font-family="Helvetica,sans-Serif" font-size="10.00">ar2VideoCapStopV4L2</text>
</a>
</g>
</g>
<!-- Node2&#45;&gt;Node11 -->
<g id="edge10" class="edge">
<title>Node2&#45;&gt;Node11</title>
<path fill="none" stroke="#63b8ff" d="M176.23,-184.69C187.85,-165.46 216.16,-123.14 251.75,-101.62 254.39,-100.03 257.16,-98.57 260.02,-97.25"/>
<polygon fill="#63b8ff" stroke="#63b8ff" points="261.05,-100.21 269.01,-93.22 258.43,-93.71 261.05,-100.21"/>
</g>
<!-- Node12 -->
<g id="node12" class="node">
<title>Node12</title>
<g id="a_node12"><a xlink:href="video_windows_media_capture_8h.html#a7fb2e79c53df9853a1a61b16be3b8e80" target="_top" xlink:title=" ">
<polygon fill="white" stroke="#666666" points="390.75,-56.25 265.25,-56.25 265.25,-37 390.75,-37 390.75,-56.25"/>
<text text-anchor="middle" x="328" y="-42.75" font-family="Helvetica,sans-Serif" font-size="10.00">ar2VideoCapStopWinMC</text>
</a>
</g>
</g>
<!-- Node2&#45;&gt;Node12 -->
<g id="edge11" class="edge">
<title>Node2&#45;&gt;Node12</title>
<path fill="none" stroke="#63b8ff" d="M173.74,-184.64C182.25,-160.05 207.67,-96.33 251.75,-64.62 253.25,-63.55 254.8,-62.53 256.41,-61.58"/>
<polygon fill="#63b8ff" stroke="#63b8ff" points="257.65,-64.37 265,-56.74 254.5,-58.12 257.65,-64.37"/>
</g>
<!-- Node13 -->
<g id="node13" class="node">
<title>Node13</title>
<g id="a_node13"><a xlink:href="video_windows_media_foundation_8h.html#a76577330dd560a4785693d80f71d3919" target="_top" xlink:title=" ">
<polygon fill="white" stroke="#666666" points="390,-19.25 266,-19.25 266,0 390,0 390,-19.25"/>
<text text-anchor="middle" x="328" y="-5.75" font-family="Helvetica,sans-Serif" font-size="10.00">ar2VideoCapStopWinMF</text>
</a>
</g>
</g>
<!-- Node2&#45;&gt;Node13 -->
<g id="edge12" class="edge">
<title>Node2&#45;&gt;Node13</title>
<path fill="none" stroke="#63b8ff" d="M172.23,-184.91C177.9,-156.05 198.7,-70.21 251.75,-27.62 253.19,-26.47 254.69,-25.38 256.25,-24.37"/>
<polygon fill="#63b8ff" stroke="#63b8ff" points="257.53,-27.11 264.64,-19.26 254.18,-20.97 257.53,-27.11"/>
</g>
</g>
</svg>
