<?xml version="1.0" encoding="UTF-8" standalone="no"?>
<!DOCTYPE svg PUBLIC "-//W3C//DTD SVG 1.1//EN"
 "http://www.w3.org/Graphics/SVG/1.1/DTD/svg11.dtd">
<!-- Generated by graphviz version 8.0.5 (20230430.1635)
 -->
<!-- Title: arVideoGetPixelFormat Pages: 1 -->
<svg width="502pt" height="397pt"
 viewBox="0.00 0.00 502.25 397.25" xmlns="http://www.w3.org/2000/svg" xmlns:xlink="http://www.w3.org/1999/xlink">
<g id="graph0" class="graph" transform="scale(1 1) rotate(0) translate(4 393.25)">
<title>arVideoGetPixelFormat</title>
<!-- Node1 -->
<g id="node1" class="node">
<title>Node1</title>
<g id="a_node1"><a xlink:title=" ">
<polygon fill="#999999" stroke="#666666" points="117.25,-204.25 0,-204.25 0,-185 117.25,-185 117.25,-204.25"/>
<text text-anchor="middle" x="58.62" y="-190.75" font-family="Helvetica,sans-Serif" font-size="10.00">arVideoGetPixelFormat</text>
</a>
</g>
</g>
<!-- Node2 -->
<g id="node2" class="node">
<title>Node2</title>
<g id="a_node2"><a xlink:href="video2_8c.html#a7780fac88f8c59974d8d9fe6d4a8047a" target="_top" xlink:title=" ">
<polygon fill="white" stroke="#666666" points="275.75,-204.25 153.25,-204.25 153.25,-185 275.75,-185 275.75,-204.25"/>
<text text-anchor="middle" x="214.5" y="-190.75" font-family="Helvetica,sans-Serif" font-size="10.00">ar2VideoGetPixelFormat</text>
</a>
</g>
</g>
<!-- Node1&#45;&gt;Node2 -->
<g id="edge1" class="edge">
<title>Node1&#45;&gt;Node2</title>
<path fill="none" stroke="#63b8ff" d="M117.36,-194.62C125.42,-194.62 133.79,-194.62 142.07,-194.62"/>
<polygon fill="#63b8ff" stroke="#63b8ff" points="141.87,-198.13 151.87,-194.62 141.87,-191.13 141.87,-198.13"/>
</g>
<!-- Node3 -->
<g id="node3" class="node">
<title>Node3</title>
<g id="a_node3"><a xlink:href="video1394_8h.html#a1eb40205f18baab9d12c0bc187e9b50e" target="_top" xlink:title=" ">
<polygon fill="white" stroke="#666666" points="474.75,-389.25 331.25,-389.25 331.25,-370 474.75,-370 474.75,-389.25"/>
<text text-anchor="middle" x="403" y="-375.75" font-family="Helvetica,sans-Serif" font-size="10.00">ar2VideoGetPixelFormat1394</text>
</a>
</g>
</g>
<!-- Node2&#45;&gt;Node3 -->
<g id="edge2" class="edge">
<title>Node2&#45;&gt;Node3</title>
<path fill="none" stroke="#63b8ff" d="M218.06,-204.48C226.2,-233.7 254.38,-320.46 311.75,-361.62 314.67,-363.72 317.78,-365.59 321.01,-367.25"/>
<polygon fill="#63b8ff" stroke="#63b8ff" points="319.48,-370.84 330.04,-371.64 322.28,-364.42 319.48,-370.84"/>
</g>
<!-- Node4 -->
<g id="node4" class="node">
<title>Node4</title>
<g id="a_node4"><a xlink:href="video_android_8h.html#ac511ed131837c08ea6f17725dd87d2bc" target="_top" xlink:title=" ">
<polygon fill="white" stroke="#666666" points="480.75,-352.25 325.25,-352.25 325.25,-333 480.75,-333 480.75,-352.25"/>
<text text-anchor="middle" x="403" y="-338.75" font-family="Helvetica,sans-Serif" font-size="10.00">ar2VideoGetPixelFormatAndroid</text>
</a>
</g>
</g>
<!-- Node2&#45;&gt;Node4 -->
<g id="edge3" class="edge">
<title>Node2&#45;&gt;Node4</title>
<path fill="none" stroke="#63b8ff" d="M219.81,-204.74C230.98,-229.61 263.37,-293.94 311.75,-324.62 313.78,-325.91 315.88,-327.11 318.04,-328.22"/>
<polygon fill="#63b8ff" stroke="#63b8ff" points="316.26,-331.71 326.82,-332.6 319.12,-325.32 316.26,-331.71"/>
</g>
<!-- Node5 -->
<g id="node5" class="node">
<title>Node5</title>
<g id="a_node5"><a xlink:href="video_a_v_foundation_8h.html#a98d99736ba21ff6f85c9da3e0e2acab8" target="_top" xlink:title=" ">
<polygon fill="white" stroke="#666666" points="494.25,-315.25 311.75,-315.25 311.75,-296 494.25,-296 494.25,-315.25"/>
<text text-anchor="middle" x="403" y="-301.75" font-family="Helvetica,sans-Serif" font-size="10.00">ar2VideoGetPixelFormatAVFoundation</text>
</a>
</g>
</g>
<!-- Node2&#45;&gt;Node5 -->
<g id="edge4" class="edge">
<title>Node2&#45;&gt;Node5</title>
<path fill="none" stroke="#63b8ff" d="M222.68,-204.67C237.13,-224.08 271.82,-266.71 311.75,-287.62 314.7,-289.17 317.76,-290.58 320.91,-291.87"/>
<polygon fill="#63b8ff" stroke="#63b8ff" points="319.58,-295.48 330.17,-295.6 321.97,-288.9 319.58,-295.48"/>
</g>
<!-- Node6 -->
<g id="node6" class="node">
<title>Node6</title>
<g id="a_node6"><a xlink:href="video_dummy_8h.html#aef5bd63c5abf5e4479664647c084644b" target="_top" xlink:title=" ">
<polygon fill="white" stroke="#666666" points="481.5,-278.25 324.5,-278.25 324.5,-259 481.5,-259 481.5,-278.25"/>
<text text-anchor="middle" x="403" y="-264.75" font-family="Helvetica,sans-Serif" font-size="10.00">ar2VideoGetPixelFormatDummy</text>
</a>
</g>
</g>
<!-- Node2&#45;&gt;Node6 -->
<g id="edge5" class="edge">
<title>Node2&#45;&gt;Node6</title>
<path fill="none" stroke="#63b8ff" d="M229.43,-204.73C247.51,-217.37 280.47,-238.78 311.75,-250.62 316.76,-252.52 322,-254.23 327.33,-255.77"/>
<polygon fill="#63b8ff" stroke="#63b8ff" points="326.09,-259.32 336.66,-258.51 327.89,-252.56 326.09,-259.32"/>
</g>
<!-- Node7 -->
<g id="node7" class="node">
<title>Node7</title>
<g id="a_node7"><a xlink:href="video_emscripten_8h.html#adf754d416afc5827da25c1dbd9e9099e" target="_top" xlink:title=" ">
<polygon fill="white" stroke="#666666" points="489,-241.25 317,-241.25 317,-222 489,-222 489,-241.25"/>
<text text-anchor="middle" x="403" y="-227.75" font-family="Helvetica,sans-Serif" font-size="10.00">ar2VideoGetPixelFormatEmscripten</text>
</a>
</g>
</g>
<!-- Node2&#45;&gt;Node7 -->
<g id="edge6" class="edge">
<title>Node2&#45;&gt;Node7</title>
<path fill="none" stroke="#63b8ff" d="M266.46,-204.74C289.28,-209.26 316.39,-214.64 340.34,-219.39"/>
<polygon fill="#63b8ff" stroke="#63b8ff" points="339.61,-223.01 350.1,-221.53 340.97,-216.15 339.61,-223.01"/>
</g>
<!-- Node8 -->
<g id="node8" class="node">
<title>Node8</title>
<g id="a_node8"><a xlink:href="video_external_8h.html#a460db5b1c7eec0106192719f3b457ef6" target="_top" xlink:title=" ">
<polygon fill="white" stroke="#666666" points="482.25,-204.25 323.75,-204.25 323.75,-185 482.25,-185 482.25,-204.25"/>
<text text-anchor="middle" x="403" y="-190.75" font-family="Helvetica,sans-Serif" font-size="10.00">ar2VideoGetPixelFormatExternal</text>
</a>
</g>
</g>
<!-- Node2&#45;&gt;Node8 -->
<g id="edge7" class="edge">
<title>Node2&#45;&gt;Node8</title>
<path fill="none" stroke="#63b8ff" d="M276.05,-194.62C287.73,-194.62 300.2,-194.62 312.57,-194.62"/>
<polygon fill="#63b8ff" stroke="#63b8ff" points="312.4,-198.13 322.4,-194.62 312.4,-191.13 312.4,-198.13"/>
</g>
<!-- Node9 -->
<g id="node9" class="node">
<title>Node9</title>
<g id="a_node9"><a xlink:href="video_g_streamer_8h.html#a8b53b15ce8566d0887b1a543ed6102ae" target="_top" xlink:title=" ">
<polygon fill="white" stroke="#666666" points="487.88,-167.25 318.12,-167.25 318.12,-148 487.88,-148 487.88,-167.25"/>
<text text-anchor="middle" x="403" y="-153.75" font-family="Helvetica,sans-Serif" font-size="10.00">ar2VideoGetPixelFormatGStreamer</text>
</a>
</g>
</g>
<!-- Node2&#45;&gt;Node9 -->
<g id="edge8" class="edge">
<title>Node2&#45;&gt;Node9</title>
<path fill="none" stroke="#63b8ff" d="M266.46,-184.51C289.28,-179.99 316.39,-174.61 340.34,-169.86"/>
<polygon fill="#63b8ff" stroke="#63b8ff" points="340.97,-173.1 350.1,-167.72 339.61,-166.24 340.97,-173.1"/>
</g>
<!-- Node10 -->
<g id="node10" class="node">
<title>Node10</title>
<g id="a_node10"><a xlink:href="video_image_8h.html#a4e14913d6bea4a02cd3d17ddd95e2544" target="_top" xlink:title=" ">
<polygon fill="white" stroke="#666666" points="477.75,-130.25 328.25,-130.25 328.25,-111 477.75,-111 477.75,-130.25"/>
<text text-anchor="middle" x="403" y="-116.75" font-family="Helvetica,sans-Serif" font-size="10.00">ar2VideoGetPixelFormatImage</text>
</a>
</g>
</g>
<!-- Node2&#45;&gt;Node10 -->
<g id="edge9" class="edge">
<title>Node2&#45;&gt;Node10</title>
<path fill="none" stroke="#63b8ff" d="M229.43,-184.52C247.51,-171.88 280.47,-150.47 311.75,-138.62 316.76,-136.73 322,-135.02 327.33,-133.48"/>
<polygon fill="#63b8ff" stroke="#63b8ff" points="327.89,-136.69 336.66,-130.74 326.09,-129.93 327.89,-136.69"/>
</g>
<!-- Node11 -->
<g id="node11" class="node">
<title>Node11</title>
<g id="a_node11"><a xlink:href="video_v4_l2_8h.html#aab61669af9d839aa23ecd79d1c4bde5a" target="_top" xlink:title=" ">
<polygon fill="white" stroke="#666666" points="475.5,-93.25 330.5,-93.25 330.5,-74 475.5,-74 475.5,-93.25"/>
<text text-anchor="middle" x="403" y="-79.75" font-family="Helvetica,sans-Serif" font-size="10.00">ar2VideoGetPixelFormatV4L2</text>
</a>
</g>
</g>
<!-- Node2&#45;&gt;Node11 -->
<g id="edge10" class="edge">
<title>Node2&#45;&gt;Node11</title>
<path fill="none" stroke="#63b8ff" d="M222.68,-184.58C237.13,-165.17 271.82,-122.54 311.75,-101.62 314.7,-100.08 317.76,-98.67 320.91,-97.38"/>
<polygon fill="#63b8ff" stroke="#63b8ff" points="321.97,-100.35 330.17,-93.65 319.58,-93.77 321.97,-100.35"/>
</g>
<!-- Node12 -->
<g id="node12" class="node">
<title>Node12</title>
<g id="a_node12"><a xlink:href="video_windows_media_capture_8h.html#ac9ad7a1f796558ec9dbb80f2031c8411" target="_top" xlink:title=" ">
<polygon fill="white" stroke="#666666" points="480.75,-56.25 325.25,-56.25 325.25,-37 480.75,-37 480.75,-56.25"/>
<text text-anchor="middle" x="403" y="-42.75" font-family="Helvetica,sans-Serif" font-size="10.00">ar2VideoGetPixelFormatWinMC</text>
</a>
</g>
</g>
<!-- Node2&#45;&gt;Node12 -->
<g id="edge11" class="edge">
<title>Node2&#45;&gt;Node12</title>
<path fill="none" stroke="#63b8ff" d="M219.81,-184.51C230.98,-159.64 263.37,-95.31 311.75,-64.62 313.78,-63.34 315.88,-62.14 318.04,-61.03"/>
<polygon fill="#63b8ff" stroke="#63b8ff" points="319.12,-63.93 326.82,-56.65 316.26,-57.54 319.12,-63.93"/>
</g>
<!-- Node13 -->
<g id="node13" class="node">
<title>Node13</title>
<g id="a_node13"><a xlink:href="video_windows_media_foundation_8h.html#a7155272e53d6a7b98cfbd616313e7e6c" target="_top" xlink:title=" ">
<polygon fill="white" stroke="#666666" points="480,-19.25 326,-19.25 326,0 480,0 480,-19.25"/>
<text text-anchor="middle" x="403" y="-5.75" font-family="Helvetica,sans-Serif" font-size="10.00">ar2VideoGetPixelFormatWinMF</text>
</a>
</g>
</g>
<!-- Node2&#45;&gt;Node13 -->
<g id="edge12" class="edge">
<title>Node2&#45;&gt;Node13</title>
<path fill="none" stroke="#63b8ff" d="M218.06,-184.77C226.2,-155.55 254.38,-68.79 311.75,-27.62 313.27,-26.54 314.83,-25.51 316.44,-24.54"/>
<polygon fill="#63b8ff" stroke="#63b8ff" points="317.76,-27.29 325.06,-19.61 314.56,-21.06 317.76,-27.29"/>
</g>
</g>
</svg>
