<?xml version="1.0" encoding="UTF-8" standalone="no"?>
<!DOCTYPE svg PUBLIC "-//W3C//DTD SVG 1.1//EN"
 "http://www.w3.org/Graphics/SVG/1.1/DTD/svg11.dtd">
<!-- Generated by graphviz version 7.0.5 (20221223.1930)
 -->
<!-- Title: arVideoGetBufferSize Pages: 1 -->
<svg width="483pt" height="138pt"
 viewBox="0.00 0.00 483.00 138.00" xmlns="http://www.w3.org/2000/svg" xmlns:xlink="http://www.w3.org/1999/xlink">
<g id="graph0" class="graph" transform="scale(1 1) rotate(0) translate(4 134)">
<title>arVideoGetBufferSize</title>
<!-- Node1 -->
<g id="node1" class="node">
<title>Node1</title>
<g id="a_node1"><a xlink:title=" ">
<polygon fill="#999999" stroke="#666666" points="111,-74 0,-74 0,-55 111,-55 111,-74"/>
<text text-anchor="middle" x="55.5" y="-62" font-family="Helvetica,sans-Serif" font-size="10.00">arVideoGetBufferSize</text>
</a>
</g>
</g>
<!-- Node2 -->
<g id="node2" class="node">
<title>Node2</title>
<g id="a_node2"><a xlink:href="video2_8c.html#a43302b4bdb68beebab244146631d4488" target="_top" xlink:title=" ">
<polygon fill="white" stroke="#666666" points="263,-74 147,-74 147,-55 263,-55 263,-74"/>
<text text-anchor="middle" x="205" y="-62" font-family="Helvetica,sans-Serif" font-size="10.00">ar2VideoGetBufferSize</text>
</a>
</g>
</g>
<!-- Node1&#45;&gt;Node2 -->
<g id="edge1" class="edge">
<title>Node1&#45;&gt;Node2</title>
<path fill="none" stroke="#63b8ff" d="M111.42,-64.5C119.13,-64.5 127.13,-64.5 135.05,-64.5"/>
<polygon fill="#63b8ff" stroke="#63b8ff" points="135.05,-68 145.05,-64.5 135.05,-61 135.05,-68"/>
</g>
<!-- Node3 -->
<g id="node3" class="node">
<title>Node3</title>
<g id="a_node3"><a xlink:href="video_a_v_foundation_8h.html#a3ab43f19930a9bf5a58fdeda6a374c96" target="_top" xlink:title=" ">
<polygon fill="white" stroke="#666666" points="475,-130 299,-130 299,-111 475,-111 475,-130"/>
<text text-anchor="middle" x="387" y="-118" font-family="Helvetica,sans-Serif" font-size="10.00">ar2VideoGetBufferSizeAVFoundation</text>
</a>
</g>
</g>
<!-- Node2&#45;&gt;Node3 -->
<g id="edge2" class="edge">
<title>Node2&#45;&gt;Node3</title>
<path fill="none" stroke="#63b8ff" d="M227.02,-74.39C245.61,-82.82 273.64,-94.77 299,-102.5 305.58,-104.51 312.52,-106.36 319.47,-108.06"/>
<polygon fill="#63b8ff" stroke="#63b8ff" points="318.38,-111.39 328.91,-110.24 319.96,-104.58 318.38,-111.39"/>
</g>
<!-- Node4 -->
<g id="node4" class="node">
<title>Node4</title>
<g id="a_node4"><a xlink:href="video_dummy_8h.html#afb9adecd6aab597bc8e24dd0a4e34f1e" target="_top" xlink:title=" ">
<polygon fill="white" stroke="#666666" points="462.5,-93 311.5,-93 311.5,-74 462.5,-74 462.5,-93"/>
<text text-anchor="middle" x="387" y="-81" font-family="Helvetica,sans-Serif" font-size="10.00">ar2VideoGetBufferSizeDummy</text>
</a>
</g>
</g>
<!-- Node2&#45;&gt;Node4 -->
<g id="edge3" class="edge">
<title>Node2&#45;&gt;Node4</title>
<path fill="none" stroke="#63b8ff" d="M263.45,-70.56C275.03,-71.79 287.44,-73.1 299.75,-74.4"/>
<polygon fill="#63b8ff" stroke="#63b8ff" points="299.2,-77.86 309.51,-75.43 299.93,-70.9 299.2,-77.86"/>
</g>
<!-- Node5 -->
<g id="node5" class="node">
<title>Node5</title>
<g id="a_node5"><a xlink:href="video_emscripten_8h.html#a35f0b0616da947c0118a1b0b8354b0e0" target="_top" xlink:title=" ">
<polygon fill="white" stroke="#666666" points="470,-56 304,-56 304,-37 470,-37 470,-56"/>
<text text-anchor="middle" x="387" y="-44" font-family="Helvetica,sans-Serif" font-size="10.00">ar2VideoGetBufferSizeEmscripten</text>
</a>
</g>
</g>
<!-- Node2&#45;&gt;Node5 -->
<g id="edge4" class="edge">
<title>Node2&#45;&gt;Node5</title>
<path fill="none" stroke="#63b8ff" d="M263.45,-58.76C272.62,-57.84 282.31,-56.87 292.06,-55.89"/>
<polygon fill="#63b8ff" stroke="#63b8ff" points="292.4,-59.38 302,-54.9 291.71,-52.41 292.4,-59.38"/>
</g>
<!-- Node6 -->
<g id="node6" class="node">
<title>Node6</title>
<g id="a_node6"><a xlink:href="video_image_8h.html#a50107957eca06f470b202ad0fec1c1c3" target="_top" xlink:title=" ">
<polygon fill="white" stroke="#666666" points="458.5,-19 315.5,-19 315.5,0 458.5,0 458.5,-19"/>
<text text-anchor="middle" x="387" y="-7" font-family="Helvetica,sans-Serif" font-size="10.00">ar2VideoGetBufferSizeImage</text>
</a>
</g>
</g>
<!-- Node2&#45;&gt;Node6 -->
<g id="edge5" class="edge">
<title>Node2&#45;&gt;Node6</title>
<path fill="none" stroke="#63b8ff" d="M228.59,-54.63C247.21,-46.76 274.46,-35.88 299,-28.5 306.74,-26.17 314.94,-24 323.09,-22.03"/>
<polygon fill="#63b8ff" stroke="#63b8ff" points="323.72,-25.47 332.66,-19.79 322.13,-18.66 323.72,-25.47"/>
</g>
</g>
</svg>
