<?xml version="1.0" encoding="UTF-8" standalone="no"?>
<!DOCTYPE svg PUBLIC "-//W3C//DTD SVG 1.1//EN"
 "http://www.w3.org/Graphics/SVG/1.1/DTD/svg11.dtd">
<!-- Generated by graphviz version 7.0.5 (20221223.1930)
 -->
<!-- Title: ar2VideoGetBufferSize Pages: 1 -->
<svg width="336pt" height="138pt"
 viewBox="0.00 0.00 336.00 138.00" xmlns="http://www.w3.org/2000/svg" xmlns:xlink="http://www.w3.org/1999/xlink">
<g id="graph0" class="graph" transform="scale(1 1) rotate(0) translate(4 134)">
<title>ar2VideoGetBufferSize</title>
<!-- Node1 -->
<g id="node1" class="node">
<title>Node1</title>
<g id="a_node1"><a xlink:title=" ">
<polygon fill="#999999" stroke="#666666" points="116,-74 0,-74 0,-55 116,-55 116,-74"/>
<text text-anchor="middle" x="58" y="-62" font-family="Helvetica,sans-Serif" font-size="10.00">ar2VideoGetBufferSize</text>
</a>
</g>
</g>
<!-- Node2 -->
<g id="node2" class="node">
<title>Node2</title>
<g id="a_node2"><a xlink:href="video_a_v_foundation_8h.html#a3ab43f19930a9bf5a58fdeda6a374c96" target="_top" xlink:title=" ">
<polygon fill="white" stroke="#666666" points="328,-130 152,-130 152,-111 328,-111 328,-130"/>
<text text-anchor="middle" x="240" y="-118" font-family="Helvetica,sans-Serif" font-size="10.00">ar2VideoGetBufferSizeAVFoundation</text>
</a>
</g>
</g>
<!-- Node1&#45;&gt;Node2 -->
<g id="edge1" class="edge">
<title>Node1&#45;&gt;Node2</title>
<path fill="none" stroke="#63b8ff" d="M80.02,-74.39C98.61,-82.82 126.64,-94.77 152,-102.5 158.58,-104.51 165.52,-106.36 172.47,-108.06"/>
<polygon fill="#63b8ff" stroke="#63b8ff" points="171.38,-111.39 181.91,-110.24 172.96,-104.58 171.38,-111.39"/>
</g>
<!-- Node3 -->
<g id="node3" class="node">
<title>Node3</title>
<g id="a_node3"><a xlink:href="video_dummy_8h.html#afb9adecd6aab597bc8e24dd0a4e34f1e" target="_top" xlink:title=" ">
<polygon fill="white" stroke="#666666" points="315.5,-93 164.5,-93 164.5,-74 315.5,-74 315.5,-93"/>
<text text-anchor="middle" x="240" y="-81" font-family="Helvetica,sans-Serif" font-size="10.00">ar2VideoGetBufferSizeDummy</text>
</a>
</g>
</g>
<!-- Node1&#45;&gt;Node3 -->
<g id="edge2" class="edge">
<title>Node1&#45;&gt;Node3</title>
<path fill="none" stroke="#63b8ff" d="M116.45,-70.56C128.03,-71.79 140.44,-73.1 152.75,-74.4"/>
<polygon fill="#63b8ff" stroke="#63b8ff" points="152.2,-77.86 162.51,-75.43 152.93,-70.9 152.2,-77.86"/>
</g>
<!-- Node4 -->
<g id="node4" class="node">
<title>Node4</title>
<g id="a_node4"><a xlink:href="video_emscripten_8h.html#a35f0b0616da947c0118a1b0b8354b0e0" target="_top" xlink:title=" ">
<polygon fill="white" stroke="#666666" points="323,-56 157,-56 157,-37 323,-37 323,-56"/>
<text text-anchor="middle" x="240" y="-44" font-family="Helvetica,sans-Serif" font-size="10.00">ar2VideoGetBufferSizeEmscripten</text>
</a>
</g>
</g>
<!-- Node1&#45;&gt;Node4 -->
<g id="edge3" class="edge">
<title>Node1&#45;&gt;Node4</title>
<path fill="none" stroke="#63b8ff" d="M116.45,-58.76C125.62,-57.84 135.31,-56.87 145.06,-55.89"/>
<polygon fill="#63b8ff" stroke="#63b8ff" points="145.4,-59.38 155,-54.9 144.71,-52.41 145.4,-59.38"/>
</g>
<!-- Node5 -->
<g id="node5" class="node">
<title>Node5</title>
<g id="a_node5"><a xlink:href="video_image_8h.html#a50107957eca06f470b202ad0fec1c1c3" target="_top" xlink:title=" ">
<polygon fill="white" stroke="#666666" points="311.5,-19 168.5,-19 168.5,0 311.5,0 311.5,-19"/>
<text text-anchor="middle" x="240" y="-7" font-family="Helvetica,sans-Serif" font-size="10.00">ar2VideoGetBufferSizeImage</text>
</a>
</g>
</g>
<!-- Node1&#45;&gt;Node5 -->
<g id="edge4" class="edge">
<title>Node1&#45;&gt;Node5</title>
<path fill="none" stroke="#63b8ff" d="M81.59,-54.63C100.21,-46.76 127.46,-35.88 152,-28.5 159.74,-26.17 167.94,-24 176.09,-22.03"/>
<polygon fill="#63b8ff" stroke="#63b8ff" points="176.72,-25.47 185.66,-19.79 175.13,-18.66 176.72,-25.47"/>
</g>
</g>
</svg>
