<?xml version="1.0" encoding="UTF-8" standalone="no"?>
<!DOCTYPE svg PUBLIC "-//W3C//DTD SVG 1.1//EN"
 "http://www.w3.org/Graphics/SVG/1.1/DTD/svg11.dtd">
<!-- Generated by graphviz version 7.0.5 (20221223.1930)
 -->
<!-- Title: zipOpen3 Pages: 1 -->
<svg width="364pt" height="76pt"
 viewBox="0.00 0.00 364.00 75.50" xmlns="http://www.w3.org/2000/svg" xmlns:xlink="http://www.w3.org/1999/xlink">
<g id="graph0" class="graph" transform="scale(1 1) rotate(0) translate(4 71.5)">
<title>zipOpen3</title>
<!-- Node1 -->
<g id="node1" class="node">
<title>Node1</title>
<g id="a_node1"><a xlink:title=" ">
<polygon fill="#999999" stroke="#666666" points="58,-40 0,-40 0,-21 58,-21 58,-40"/>
<text text-anchor="middle" x="29" y="-28" font-family="Helvetica,sans-Serif" font-size="10.00">zipOpen3</text>
</a>
</g>
</g>
<!-- Node2 -->
<g id="node2" class="node">
<title>Node2</title>
<g id="a_node2"><a xlink:href="ioapi_8c.html#a0c90747a8b732158bc3666411776affe" target="_top" xlink:title=" ">
<polygon fill="white" stroke="#666666" points="217,-67.5 94,-67.5 94,-37.5 217,-37.5 217,-67.5"/>
<text text-anchor="start" x="102" y="-55.5" font-family="Helvetica,sans-Serif" font-size="10.00">fill_zlib_filefunc64</text>
<text text-anchor="middle" x="155.5" y="-44.5" font-family="Helvetica,sans-Serif" font-size="10.00">_32_def_from_filefunc32</text>
</a>
</g>
</g>
<!-- Node1&#45;&gt;Node2 -->
<g id="edge1" class="edge">
<title>Node1&#45;&gt;Node2</title>
<path fill="none" stroke="#63b8ff" d="M58.25,-35.49C65.58,-36.79 73.82,-38.24 82.32,-39.75"/>
<polygon fill="#63b8ff" stroke="#63b8ff" points="81.63,-43.18 92.09,-41.47 82.85,-36.28 81.63,-43.18"/>
</g>
<!-- Node3 -->
<g id="node3" class="node">
<title>Node3</title>
<g id="a_node3"><a xlink:href="zip_8c.html#addcccf3eebcef825f7f46a5a5cdda18a" target="_top" xlink:title=" ">
<polygon fill="white" stroke="#666666" points="184.5,-19 126.5,-19 126.5,0 184.5,0 184.5,-19"/>
<text text-anchor="middle" x="155.5" y="-7" font-family="Helvetica,sans-Serif" font-size="10.00">zipOpen4</text>
</a>
</g>
</g>
<!-- Node1&#45;&gt;Node3 -->
<g id="edge2" class="edge">
<title>Node1&#45;&gt;Node3</title>
<path fill="none" stroke="#63b8ff" d="M58.25,-25.73C75.04,-22.9 96.6,-19.27 115.05,-16.15"/>
<polygon fill="#63b8ff" stroke="#63b8ff" points="115.59,-19.61 124.87,-14.5 114.43,-12.71 115.59,-19.61"/>
</g>
<!-- Node4 -->
<g id="node4" class="node">
<title>Node4</title>
<g id="a_node4"><a xlink:href="ioapi_8c.html#aa67e4de04de04bf2d1694febd74bd16f" target="_top" xlink:title=" ">
<polygon fill="white" stroke="#666666" points="356,-19 253,-19 253,0 356,0 356,-19"/>
<text text-anchor="middle" x="304.5" y="-7" font-family="Helvetica,sans-Serif" font-size="10.00">fill_fopen64_filefunc</text>
</a>
</g>
</g>
<!-- Node3&#45;&gt;Node4 -->
<g id="edge3" class="edge">
<title>Node3&#45;&gt;Node4</title>
<path fill="none" stroke="#63b8ff" d="M184.84,-9.5C200.88,-9.5 221.61,-9.5 241.24,-9.5"/>
<polygon fill="#63b8ff" stroke="#63b8ff" points="241.11,-13 251.11,-9.5 241.11,-6 241.11,-13"/>
</g>
</g>
</svg>
