<?xml version="1.0" encoding="UTF-8" standalone="no"?>
<!DOCTYPE svg PUBLIC "-//W3C//DTD SVG 1.1//EN"
 "http://www.w3.org/Graphics/SVG/1.1/DTD/svg11.dtd">
<!-- Generated by graphviz version 8.0.5 (20230430.1635)
 -->
<!-- Title: Source/ARX/ARUtil/zip.h Pages: 1 -->
<svg width="272pt" height="94pt"
 viewBox="0.00 0.00 271.88 93.75" xmlns="http://www.w3.org/2000/svg" xmlns:xlink="http://www.w3.org/1999/xlink">
<g id="graph0" class="graph" transform="scale(1 1) rotate(0) translate(4 89.75)">
<title>Source/ARX/ARUtil/zip.h</title>
<!-- Node1 -->
<g id="node1" class="node">
<title>Node1</title>
<g id="a_node1"><a xlink:title=" ">
<polygon fill="#999999" stroke="#666666" points="192.88,-85.75 65.88,-85.75 65.88,-66.5 192.88,-66.5 192.88,-85.75"/>
<text text-anchor="middle" x="129.38" y="-72.25" font-family="Helvetica,sans-Serif" font-size="10.00">Source/ARX/ARUtil/zip.h</text>
</a>
</g>
</g>
<!-- Node2 -->
<g id="node2" class="node">
<title>Node2</title>
<g id="a_node2"><a xlink:href="file__utils_8c.html" target="_top" xlink:title=" ">
<polygon fill="white" stroke="#666666" points="118.75,-30.5 0,-30.5 0,0 118.75,0 118.75,-30.5"/>
<text text-anchor="start" x="8" y="-17" font-family="Helvetica,sans-Serif" font-size="10.00">Source/ARX/ARUtil/file</text>
<text text-anchor="middle" x="59.38" y="-5.75" font-family="Helvetica,sans-Serif" font-size="10.00">_utils.c</text>
</a>
</g>
</g>
<!-- Node1&#45;&gt;Node2 -->
<g id="edge1" class="edge">
<title>Node1&#45;&gt;Node2</title>
<path fill="none" stroke="#63b8ff" d="M110.59,-59.32C100.03,-50.45 86.95,-39.44 76.65,-30.78"/>
<polygon fill="#63b8ff" stroke="#63b8ff" points="107.84,-62.42 117.74,-66.18 112.34,-57.07 107.84,-62.42"/>
</g>
<!-- Node3 -->
<g id="node3" class="node">
<title>Node3</title>
<g id="a_node3"><a xlink:href="zip_8c.html" target="_top" xlink:title=" ">
<polygon fill="white" stroke="#666666" points="263.88,-24.88 136.88,-24.88 136.88,-5.63 263.88,-5.63 263.88,-24.88"/>
<text text-anchor="middle" x="200.38" y="-11.38" font-family="Helvetica,sans-Serif" font-size="10.00">Source/ARX/ARUtil/zip.c</text>
</a>
</g>
</g>
<!-- Node1&#45;&gt;Node3 -->
<g id="edge2" class="edge">
<title>Node1&#45;&gt;Node3</title>
<path fill="none" stroke="#63b8ff" d="M148.52,-59.25C161.65,-48.36 178.61,-34.3 189.49,-25.28"/>
<polygon fill="#63b8ff" stroke="#63b8ff" points="146.62,-57.11 141.16,-66.18 151.09,-62.49 146.62,-57.11"/>
</g>
</g>
</svg>
