<?xml version="1.0" encoding="UTF-8" standalone="no"?>
<!DOCTYPE svg PUBLIC "-//W3C//DTD SVG 1.1//EN"
 "http://www.w3.org/Graphics/SVG/1.1/DTD/svg11.dtd">
<!-- Generated by graphviz version 2.40.1 (20161225.0304)
 -->
<!-- Title: /Users/phil/r/artoolkitx/Source/ARX/ARUtil/zip.h Pages: 1 -->
<svg width="274pt" height="112pt"
 viewBox="0.00 0.00 274.37 112.00" xmlns="http://www.w3.org/2000/svg" xmlns:xlink="http://www.w3.org/1999/xlink">
<g id="graph0" class="graph" transform="scale(1 1) rotate(0) translate(4 108)">
<title>/Users/phil/r/artoolkitx/Source/ARX/ARUtil/zip.h</title>
<polygon fill="#ffffff" stroke="transparent" points="-4,4 -4,-108 270.3667,-108 270.3667,4 -4,4"/>
<!-- Node6 -->
<g id="node1" class="node">
<title>Node6</title>
<polygon fill="#bfbfbf" stroke="#000000" points="66.8301,-75.5 66.8301,-103.5 195.6475,-103.5 195.6475,-75.5 66.8301,-75.5"/>
<text text-anchor="start" x="74.8301" y="-91.5" font-family="Helvetica,sans-Serif" font-size="10.00" fill="#000000">/Users/phil/r/artoolkitx</text>
<text text-anchor="middle" x="131.2388" y="-81.5" font-family="Helvetica,sans-Serif" font-size="10.00" fill="#000000">/Source/ARX/ARUtil/zip.h</text>
</g>
<!-- Node7 -->
<g id="node2" class="node">
<title>Node7</title>
<g id="a_node2"><a xlink:href="file__utils_8c.html" target="_top" xlink:title="/Users/phil/r/artoolkitx\l/Source/ARX/ARUtil/file\l_utils.c">
<polygon fill="#ffffff" stroke="#000000" points="0,-.5 0,-38.5 120.4775,-38.5 120.4775,-.5 0,-.5"/>
<text text-anchor="start" x="8" y="-26.5" font-family="Helvetica,sans-Serif" font-size="10.00" fill="#000000">/Users/phil/r/artoolkitx</text>
<text text-anchor="start" x="8" y="-16.5" font-family="Helvetica,sans-Serif" font-size="10.00" fill="#000000">/Source/ARX/ARUtil/file</text>
<text text-anchor="middle" x="60.2388" y="-6.5" font-family="Helvetica,sans-Serif" font-size="10.00" fill="#000000">_utils.c</text>
</a>
</g>
</g>
<!-- Node6&#45;&gt;Node7 -->
<g id="edge1" class="edge">
<title>Node6&#45;&gt;Node7</title>
<path fill="none" stroke="#191970" d="M109.6298,-68.1954C100.0946,-58.7945 88.972,-47.8285 79.6985,-38.6857"/>
<polygon fill="#191970" stroke="#191970" points="107.2925,-70.8061 116.8709,-75.3345 112.2071,-65.8213 107.2925,-70.8061"/>
</g>
<!-- Node8 -->
<g id="node3" class="node">
<title>Node8</title>
<g id="a_node3"><a xlink:href="zip_8c.html" target="_top" xlink:title="/Users/phil/r/artoolkitx\l/Source/ARX/ARUtil/zip.c">
<polygon fill="#ffffff" stroke="#000000" points="138.1108,-5.5 138.1108,-33.5 266.3667,-33.5 266.3667,-5.5 138.1108,-5.5"/>
<text text-anchor="start" x="146.1108" y="-21.5" font-family="Helvetica,sans-Serif" font-size="10.00" fill="#000000">/Users/phil/r/artoolkitx</text>
<text text-anchor="middle" x="202.2388" y="-11.5" font-family="Helvetica,sans-Serif" font-size="10.00" fill="#000000">/Source/ARX/ARUtil/zip.c</text>
</a>
</g>
</g>
<!-- Node6&#45;&gt;Node8 -->
<g id="edge2" class="edge">
<title>Node6&#45;&gt;Node8</title>
<path fill="none" stroke="#191970" d="M153.0282,-68.0175C164.3578,-56.8475 177.8887,-43.5071 187.8922,-33.6445"/>
<polygon fill="#191970" stroke="#191970" points="150.2705,-65.8213 145.6067,-75.3345 155.185,-70.8061 150.2705,-65.8213"/>
</g>
</g>
</svg>
