<?xml version="1.0" encoding="UTF-8" standalone="no"?>
<!DOCTYPE svg PUBLIC "-//W3C//DTD SVG 1.1//EN"
 "http://www.w3.org/Graphics/SVG/1.1/DTD/svg11.dtd">
<!-- Generated by graphviz version 2.40.1 (20161225.0304)
 -->
<!-- Title: zipOpen Pages: 1 -->
<svg width="459pt" height="74pt"
 viewBox="0.00 0.00 458.53 74.00" xmlns="http://www.w3.org/2000/svg" xmlns:xlink="http://www.w3.org/1999/xlink">
<g id="graph0" class="graph" transform="scale(1 1) rotate(0) translate(4 70)">
<title>zipOpen</title>
<polygon fill="#ffffff" stroke="transparent" points="-4,4 -4,-70 454.5303,-70 454.5303,4 -4,4"/>
<!-- Node21 -->
<g id="node1" class="node">
<title>Node21</title>
<polygon fill="#bfbfbf" stroke="#000000" points="0,-21.5 0,-39.5 53.2461,-39.5 53.2461,-21.5 0,-21.5"/>
<text text-anchor="middle" x="26.623" y="-27.5" font-family="Helvetica,sans-Serif" font-size="10.00" fill="#000000">zipOpen</text>
</g>
<!-- Node22 -->
<g id="node2" class="node">
<title>Node22</title>
<g id="a_node2"><a xlink:href="zip_8c.html#aa1b472c66e7ac205fbb86ac0950cebe1" target="_top" xlink:title="zipOpen3">
<polygon fill="#ffffff" stroke="#000000" points="89.2461,-21.5 89.2461,-39.5 148.0537,-39.5 148.0537,-21.5 89.2461,-21.5"/>
<text text-anchor="middle" x="118.6499" y="-27.5" font-family="Helvetica,sans-Serif" font-size="10.00" fill="#000000">zipOpen3</text>
</a>
</g>
</g>
<!-- Node21&#45;&gt;Node22 -->
<g id="edge1" class="edge">
<title>Node21&#45;&gt;Node22</title>
<path fill="none" stroke="#191970" d="M53.7364,-30.5C61.6519,-30.5 70.4707,-30.5 78.9928,-30.5"/>
<polygon fill="#191970" stroke="#191970" points="79.1603,-34.0001 89.1602,-30.5 79.1602,-27.0001 79.1603,-34.0001"/>
</g>
<!-- Node23 -->
<g id="node3" class="node">
<title>Node23</title>
<g id="a_node3"><a xlink:href="ioapi_8c.html#a0c90747a8b732158bc3666411776affe" target="_top" xlink:title="fill_zlib_filefunc64\l_32_def_from_filefunc32">
<polygon fill="#ffffff" stroke="#000000" points="184.0537,-37.5 184.0537,-65.5 310.1318,-65.5 310.1318,-37.5 184.0537,-37.5"/>
<text text-anchor="start" x="192.0537" y="-53.5" font-family="Helvetica,sans-Serif" font-size="10.00" fill="#000000">fill_zlib_filefunc64</text>
<text text-anchor="middle" x="247.0928" y="-43.5" font-family="Helvetica,sans-Serif" font-size="10.00" fill="#000000">_32_def_from_filefunc32</text>
</a>
</g>
</g>
<!-- Node22&#45;&gt;Node23 -->
<g id="edge2" class="edge">
<title>Node22&#45;&gt;Node23</title>
<path fill="none" stroke="#191970" d="M148.1173,-35.3178C156.0039,-36.6073 164.8912,-38.0603 174.0218,-39.5531"/>
<polygon fill="#191970" stroke="#191970" points="173.5554,-43.0233 183.9892,-41.1828 174.685,-36.115 173.5554,-43.0233"/>
</g>
<!-- Node24 -->
<g id="node4" class="node">
<title>Node24</title>
<g id="a_node4"><a xlink:href="zip_8c.html#addcccf3eebcef825f7f46a5a5cdda18a" target="_top" xlink:title="zipOpen4">
<polygon fill="#ffffff" stroke="#000000" points="217.689,-.5 217.689,-18.5 276.4966,-18.5 276.4966,-.5 217.689,-.5"/>
<text text-anchor="middle" x="247.0928" y="-6.5" font-family="Helvetica,sans-Serif" font-size="10.00" fill="#000000">zipOpen4</text>
</a>
</g>
</g>
<!-- Node22&#45;&gt;Node24 -->
<g id="edge3" class="edge">
<title>Node22&#45;&gt;Node24</title>
<path fill="none" stroke="#191970" d="M148.1173,-25.6822C165.6959,-22.8081 188.2458,-19.1213 207.3805,-15.9928"/>
<polygon fill="#191970" stroke="#191970" points="208.0135,-19.4359 217.3177,-14.3681 206.884,-12.5276 208.0135,-19.4359"/>
</g>
<!-- Node25 -->
<g id="node5" class="node">
<title>Node25</title>
<g id="a_node5"><a xlink:href="ioapi_8c.html#aa67e4de04de04bf2d1694febd74bd16f" target="_top" xlink:title="fill_fopen64_filefunc">
<polygon fill="#ffffff" stroke="#000000" points="346.1318,-.5 346.1318,-18.5 450.5303,-18.5 450.5303,-.5 346.1318,-.5"/>
<text text-anchor="middle" x="398.3311" y="-6.5" font-family="Helvetica,sans-Serif" font-size="10.00" fill="#000000">fill_fopen64_filefunc</text>
</a>
</g>
</g>
<!-- Node24&#45;&gt;Node25 -->
<g id="edge4" class="edge">
<title>Node24&#45;&gt;Node25</title>
<path fill="none" stroke="#191970" d="M276.6121,-9.5C293.4524,-9.5 315.2254,-9.5 335.6909,-9.5"/>
<polygon fill="#191970" stroke="#191970" points="335.9218,-13.0001 345.9218,-9.5 335.9218,-6.0001 335.9218,-13.0001"/>
</g>
</g>
</svg>
