<?xml version="1.0" encoding="UTF-8" standalone="no"?>
<!DOCTYPE svg PUBLIC "-//W3C//DTD SVG 1.1//EN"
 "http://www.w3.org/Graphics/SVG/1.1/DTD/svg11.dtd">
<!-- Generated by graphviz version 8.0.5 (20230430.1635)
 -->
<!-- Title: zipOpenNewFileInZip4_64 Pages: 1 -->
<svg width="719pt" height="101pt"
 viewBox="0.00 0.00 718.75 101.25" xmlns="http://www.w3.org/2000/svg" xmlns:xlink="http://www.w3.org/1999/xlink">
<g id="graph0" class="graph" transform="scale(1 1) rotate(0) translate(4 97.25)">
<title>zipOpenNewFileInZip4_64</title>
<!-- Node1 -->
<g id="node1" class="node">
<title>Node1</title>
<g id="a_node1"><a xlink:title=" ">
<polygon fill="#999999" stroke="#666666" points="130.75,-56.25 0,-56.25 0,-37 130.75,-37 130.75,-56.25"/>
<text text-anchor="middle" x="65.38" y="-42.75" font-family="Helvetica,sans-Serif" font-size="10.00">zipOpenNewFileInZip4_64</text>
</a>
</g>
</g>
<!-- Node2 -->
<g id="node2" class="node">
<title>Node2</title>
<g id="a_node2"><a xlink:href="zip_8c.html#a78566dab77b01784411c7812a49b8f5f" target="_top" xlink:title=" ">
<polygon fill="white" stroke="#666666" points="276.5,-61.88 166.75,-61.88 166.75,-31.38 276.5,-31.38 276.5,-61.88"/>
<text text-anchor="start" x="174.75" y="-48.38" font-family="Helvetica,sans-Serif" font-size="10.00">zipOpenNewFileInZip</text>
<text text-anchor="middle" x="221.62" y="-37.12" font-family="Helvetica,sans-Serif" font-size="10.00">_internal</text>
</a>
</g>
</g>
<!-- Node1&#45;&gt;Node2 -->
<g id="edge1" class="edge">
<title>Node1&#45;&gt;Node2</title>
<path fill="none" stroke="#63b8ff" d="M130.9,-46.62C139.16,-46.62 147.63,-46.62 155.9,-46.62"/>
<polygon fill="#63b8ff" stroke="#63b8ff" points="155.62,-50.13 165.62,-46.62 155.62,-43.13 155.62,-50.13"/>
</g>
<!-- Node3 -->
<g id="node3" class="node">
<title>Node3</title>
<g id="a_node3"><a xlink:href="crypt_8c.html#a953a11931a423879e848cdebd3f2028e" target="_top" xlink:title=" ">
<polygon fill="white" stroke="#666666" points="387.75,-56.25 329,-56.25 329,-37 387.75,-37 387.75,-56.25"/>
<text text-anchor="middle" x="358.38" y="-42.75" font-family="Helvetica,sans-Serif" font-size="10.00">crypthead</text>
</a>
</g>
</g>
<!-- Node2&#45;&gt;Node3 -->
<g id="edge2" class="edge">
<title>Node2&#45;&gt;Node3</title>
<path fill="none" stroke="#63b8ff" d="M276.66,-46.62C290.47,-46.62 305.07,-46.62 318,-46.62"/>
<polygon fill="#63b8ff" stroke="#63b8ff" points="317.86,-50.13 327.86,-46.62 317.86,-43.13 317.86,-50.13"/>
</g>
<!-- Node4 -->
<g id="node4" class="node">
<title>Node4</title>
<g id="a_node4"><a xlink:href="crypt_8c.html#ac5349111b2860fe3e63daaa442e196a8" target="_top" xlink:title=" ">
<polygon fill="white" stroke="#666666" points="524.5,-93.25 468,-93.25 468,-74 524.5,-74 524.5,-93.25"/>
<text text-anchor="middle" x="496.25" y="-79.75" font-family="Helvetica,sans-Serif" font-size="10.00">cryptrand</text>
</a>
</g>
</g>
<!-- Node2&#45;&gt;Node4 -->
<g id="edge6" class="edge">
<title>Node2&#45;&gt;Node4</title>
<path fill="none" stroke="#63b8ff" d="M276.63,-59.05C288.41,-61.48 300.84,-63.82 312.5,-65.62 362.04,-73.28 419.67,-78.32 456.76,-81.07"/>
<polygon fill="#63b8ff" stroke="#63b8ff" points="456.35,-84.62 466.58,-81.85 456.85,-77.64 456.35,-84.62"/>
</g>
<!-- Node7 -->
<g id="node7" class="node">
<title>Node7</title>
<g id="a_node7"><a xlink:href="zip_8c.html#ae470f753aef4cffe4f77a5ec2bcfbde1" target="_top" xlink:title=" ">
<polygon fill="white" stroke="#666666" points="404.25,-19.25 312.5,-19.25 312.5,0 404.25,0 404.25,-19.25"/>
<text text-anchor="middle" x="358.38" y="-5.75" font-family="Helvetica,sans-Serif" font-size="10.00">zipCloseFileInZip</text>
</a>
</g>
</g>
<!-- Node2&#45;&gt;Node7 -->
<g id="edge7" class="edge">
<title>Node2&#45;&gt;Node7</title>
<path fill="none" stroke="#63b8ff" d="M276.66,-31.79C287.75,-28.74 299.34,-25.56 310.17,-22.59"/>
<polygon fill="#63b8ff" stroke="#63b8ff" points="310.99,-25.72 319.7,-19.69 309.13,-18.97 310.99,-25.72"/>
</g>
<!-- Node3&#45;&gt;Node4 -->
<g id="edge3" class="edge">
<title>Node3&#45;&gt;Node4</title>
<path fill="none" stroke="#63b8ff" d="M388.19,-54.47C408.32,-59.95 435.39,-67.32 457.28,-73.28"/>
<polygon fill="#63b8ff" stroke="#63b8ff" points="456.3,-76.92 466.87,-76.17 458.14,-70.16 456.3,-76.92"/>
</g>
<!-- Node5 -->
<g id="node5" class="node">
<title>Node5</title>
<g id="a_node5"><a xlink:href="crypt_8c.html#af7f8340e687fdf86775997a8b047b407" target="_top" xlink:title=" ">
<polygon fill="white" stroke="#666666" points="523.75,-56.25 468.75,-56.25 468.75,-37 523.75,-37 523.75,-56.25"/>
<text text-anchor="middle" x="496.25" y="-42.75" font-family="Helvetica,sans-Serif" font-size="10.00">init_keys</text>
</a>
</g>
</g>
<!-- Node3&#45;&gt;Node5 -->
<g id="edge4" class="edge">
<title>Node3&#45;&gt;Node5</title>
<path fill="none" stroke="#63b8ff" d="M388.19,-46.62C408.36,-46.62 435.5,-46.62 457.41,-46.62"/>
<polygon fill="#63b8ff" stroke="#63b8ff" points="457.32,-50.13 467.32,-46.62 457.32,-43.13 457.32,-50.13"/>
</g>
<!-- Node6 -->
<g id="node6" class="node">
<title>Node6</title>
<g id="a_node6"><a xlink:href="crypt_8c.html#ab5d0ab24efa196a08ac9ffa7c50e18cc" target="_top" xlink:title=" ">
<polygon fill="white" stroke="#666666" points="685.25,-56.25 613.75,-56.25 613.75,-37 685.25,-37 685.25,-56.25"/>
<text text-anchor="middle" x="649.5" y="-42.75" font-family="Helvetica,sans-Serif" font-size="10.00">update_keys</text>
</a>
</g>
</g>
<!-- Node5&#45;&gt;Node6 -->
<g id="edge5" class="edge">
<title>Node5&#45;&gt;Node6</title>
<path fill="none" stroke="#63b8ff" d="M523.94,-46.62C545.59,-46.62 576.61,-46.62 602.27,-46.62"/>
<polygon fill="#63b8ff" stroke="#63b8ff" points="602.27,-50.13 612.27,-46.62 602.27,-43.13 602.27,-50.13"/>
</g>
<!-- Node8 -->
<g id="node8" class="node">
<title>Node8</title>
<g id="a_node8"><a xlink:href="zip_8c.html#ac90ee507f85e5f6586a2bfe90aad5ddc" target="_top" xlink:title=" ">
<polygon fill="white" stroke="#666666" points="552.25,-19.25 440.25,-19.25 440.25,0 552.25,0 552.25,-19.25"/>
<text text-anchor="middle" x="496.25" y="-5.75" font-family="Helvetica,sans-Serif" font-size="10.00">zipCloseFileInZipRaw</text>
</a>
</g>
</g>
<!-- Node7&#45;&gt;Node8 -->
<g id="edge8" class="edge">
<title>Node7&#45;&gt;Node8</title>
<path fill="none" stroke="#63b8ff" d="M404.62,-9.62C412.46,-9.62 420.75,-9.62 429.01,-9.62"/>
<polygon fill="#63b8ff" stroke="#63b8ff" points="428.8,-13.13 438.8,-9.62 428.8,-6.13 428.8,-13.13"/>
</g>
<!-- Node9 -->
<g id="node9" class="node">
<title>Node9</title>
<g id="a_node9"><a xlink:href="zip_8c.html#abed3466e1d5d1e4af5c0fdb68fec9fd2" target="_top" xlink:title=" ">
<polygon fill="white" stroke="#666666" points="710.75,-19.25 588.25,-19.25 588.25,0 710.75,0 710.75,-19.25"/>
<text text-anchor="middle" x="649.5" y="-5.75" font-family="Helvetica,sans-Serif" font-size="10.00">zipCloseFileInZipRaw64</text>
</a>
</g>
</g>
<!-- Node8&#45;&gt;Node9 -->
<g id="edge9" class="edge">
<title>Node8&#45;&gt;Node9</title>
<path fill="none" stroke="#63b8ff" d="M552.71,-9.62C560.68,-9.62 568.98,-9.62 577.21,-9.62"/>
<polygon fill="#63b8ff" stroke="#63b8ff" points="576.95,-13.13 586.95,-9.62 576.95,-6.13 576.95,-13.13"/>
</g>
</g>
</svg>
