<?xml version="1.0" encoding="UTF-8" standalone="no"?>
<!DOCTYPE svg PUBLIC "-//W3C//DTD SVG 1.1//EN"
 "http://www.w3.org/Graphics/SVG/1.1/DTD/svg11.dtd">
<!-- Generated by graphviz version 7.0.5 (20221223.1930)
 -->
<!-- Title: zipOpenNewFileInZip_internal Pages: 1 -->
<svg width="554pt" height="101pt"
 viewBox="0.00 0.00 554.00 101.00" xmlns="http://www.w3.org/2000/svg" xmlns:xlink="http://www.w3.org/1999/xlink">
<g id="graph0" class="graph" transform="scale(1 1) rotate(0) translate(4 97)">
<title>zipOpenNewFileInZip_internal</title>
<!-- Node1 -->
<g id="node1" class="node">
<title>Node1</title>
<g id="a_node1"><a xlink:title=" ">
<polygon fill="#999999" stroke="#666666" points="110,-61.5 0,-61.5 0,-31.5 110,-31.5 110,-61.5"/>
<text text-anchor="start" x="8" y="-49.5" font-family="Helvetica,sans-Serif" font-size="10.00">zipOpenNewFileInZip</text>
<text text-anchor="middle" x="55" y="-38.5" font-family="Helvetica,sans-Serif" font-size="10.00">_internal</text>
</a>
</g>
</g>
<!-- Node2 -->
<g id="node2" class="node">
<title>Node2</title>
<g id="a_node2"><a xlink:href="crypt_8c.html#a953a11931a423879e848cdebd3f2028e" target="_top" xlink:title=" ">
<polygon fill="white" stroke="#666666" points="221.5,-56 162.5,-56 162.5,-37 221.5,-37 221.5,-56"/>
<text text-anchor="middle" x="192" y="-44" font-family="Helvetica,sans-Serif" font-size="10.00">crypthead</text>
</a>
</g>
</g>
<!-- Node1&#45;&gt;Node2 -->
<g id="edge1" class="edge">
<title>Node1&#45;&gt;Node2</title>
<path fill="none" stroke="#63b8ff" d="M110.13,-46.5C123.72,-46.5 138.07,-46.5 150.84,-46.5"/>
<polygon fill="#63b8ff" stroke="#63b8ff" points="150.55,-50 160.55,-46.5 150.55,-43 150.55,-50"/>
</g>
<!-- Node3 -->
<g id="node3" class="node">
<title>Node3</title>
<g id="a_node3"><a xlink:href="crypt_8c.html#ac5349111b2860fe3e63daaa442e196a8" target="_top" xlink:title=" ">
<polygon fill="white" stroke="#666666" points="359,-93 302,-93 302,-74 359,-74 359,-93"/>
<text text-anchor="middle" x="330.5" y="-81" font-family="Helvetica,sans-Serif" font-size="10.00">cryptrand</text>
</a>
</g>
</g>
<!-- Node1&#45;&gt;Node3 -->
<g id="edge5" class="edge">
<title>Node1&#45;&gt;Node3</title>
<path fill="none" stroke="#63b8ff" d="M110.08,-58.93C121.87,-61.35 134.32,-63.7 146,-65.5 195.53,-73.13 253.11,-78.16 290.37,-80.92"/>
<polygon fill="#63b8ff" stroke="#63b8ff" points="289.98,-84.4 300.2,-81.62 290.48,-77.42 289.98,-84.4"/>
</g>
<!-- Node6 -->
<g id="node6" class="node">
<title>Node6</title>
<g id="a_node6"><a xlink:href="zip_8c.html#ae470f753aef4cffe4f77a5ec2bcfbde1" target="_top" xlink:title=" ">
<polygon fill="white" stroke="#666666" points="238,-19 146,-19 146,0 238,0 238,-19"/>
<text text-anchor="middle" x="192" y="-7" font-family="Helvetica,sans-Serif" font-size="10.00">zipCloseFileInZip</text>
</a>
</g>
</g>
<!-- Node1&#45;&gt;Node6 -->
<g id="edge6" class="edge">
<title>Node1&#45;&gt;Node6</title>
<path fill="none" stroke="#63b8ff" d="M110.13,-31.66C121.24,-28.62 132.85,-25.44 143.69,-22.47"/>
<polygon fill="#63b8ff" stroke="#63b8ff" points="144.48,-25.88 153.2,-19.86 142.63,-19.13 144.48,-25.88"/>
</g>
<!-- Node2&#45;&gt;Node3 -->
<g id="edge2" class="edge">
<title>Node2&#45;&gt;Node3</title>
<path fill="none" stroke="#63b8ff" d="M221.95,-54.35C241.94,-59.77 268.76,-67.04 290.61,-72.96"/>
<polygon fill="#63b8ff" stroke="#63b8ff" points="289.5,-76.28 300.07,-75.52 291.33,-69.53 289.5,-76.28"/>
</g>
<!-- Node4 -->
<g id="node4" class="node">
<title>Node4</title>
<g id="a_node4"><a xlink:href="crypt_8c.html#af7f8340e687fdf86775997a8b047b407" target="_top" xlink:title=" ">
<polygon fill="white" stroke="#666666" points="358.5,-56 302.5,-56 302.5,-37 358.5,-37 358.5,-56"/>
<text text-anchor="middle" x="330.5" y="-44" font-family="Helvetica,sans-Serif" font-size="10.00">init_keys</text>
</a>
</g>
</g>
<!-- Node2&#45;&gt;Node4 -->
<g id="edge3" class="edge">
<title>Node2&#45;&gt;Node4</title>
<path fill="none" stroke="#63b8ff" d="M221.95,-46.5C242.11,-46.5 269.23,-46.5 291.18,-46.5"/>
<polygon fill="#63b8ff" stroke="#63b8ff" points="290.94,-50 300.94,-46.5 290.94,-43 290.94,-50"/>
</g>
<!-- Node5 -->
<g id="node5" class="node">
<title>Node5</title>
<g id="a_node5"><a xlink:href="crypt_8c.html#ab5d0ab24efa196a08ac9ffa7c50e18cc" target="_top" xlink:title=" ">
<polygon fill="white" stroke="#666666" points="520.5,-56 448.5,-56 448.5,-37 520.5,-37 520.5,-56"/>
<text text-anchor="middle" x="484.5" y="-44" font-family="Helvetica,sans-Serif" font-size="10.00">update_keys</text>
</a>
</g>
</g>
<!-- Node4&#45;&gt;Node5 -->
<g id="edge4" class="edge">
<title>Node4&#45;&gt;Node5</title>
<path fill="none" stroke="#63b8ff" d="M358.67,-46.5C380.37,-46.5 411.28,-46.5 436.9,-46.5"/>
<polygon fill="#63b8ff" stroke="#63b8ff" points="436.74,-50 446.74,-46.5 436.74,-43 436.74,-50"/>
</g>
<!-- Node7 -->
<g id="node7" class="node">
<title>Node7</title>
<g id="a_node7"><a xlink:href="zip_8c.html#ac90ee507f85e5f6586a2bfe90aad5ddc" target="_top" xlink:title=" ">
<polygon fill="white" stroke="#666666" points="387,-19 274,-19 274,0 387,0 387,-19"/>
<text text-anchor="middle" x="330.5" y="-7" font-family="Helvetica,sans-Serif" font-size="10.00">zipCloseFileInZipRaw</text>
</a>
</g>
</g>
<!-- Node6&#45;&gt;Node7 -->
<g id="edge7" class="edge">
<title>Node6&#45;&gt;Node7</title>
<path fill="none" stroke="#63b8ff" d="M238.45,-9.5C246.15,-9.5 254.28,-9.5 262.39,-9.5"/>
<polygon fill="#63b8ff" stroke="#63b8ff" points="262.29,-13 272.29,-9.5 262.29,-6 262.29,-13"/>
</g>
<!-- Node8 -->
<g id="node8" class="node">
<title>Node8</title>
<g id="a_node8"><a xlink:href="zip_8c.html#abed3466e1d5d1e4af5c0fdb68fec9fd2" target="_top" xlink:title=" ">
<polygon fill="white" stroke="#666666" points="546,-19 423,-19 423,0 546,0 546,-19"/>
<text text-anchor="middle" x="484.5" y="-7" font-family="Helvetica,sans-Serif" font-size="10.00">zipCloseFileInZipRaw64</text>
</a>
</g>
</g>
<!-- Node7&#45;&gt;Node8 -->
<g id="edge8" class="edge">
<title>Node7&#45;&gt;Node8</title>
<path fill="none" stroke="#63b8ff" d="M387.24,-9.5C395.07,-9.5 403.21,-9.5 411.29,-9.5"/>
<polygon fill="#63b8ff" stroke="#63b8ff" points="411.13,-13 421.13,-9.5 411.13,-6 411.13,-13"/>
</g>
</g>
</svg>
