<?xml version="1.0" encoding="UTF-8" standalone="no"?>
<!DOCTYPE svg PUBLIC "-//W3C//DTD SVG 1.1//EN"
 "http://www.w3.org/Graphics/SVG/1.1/DTD/svg11.dtd">
<!-- Generated by graphviz version 8.0.5 (20230430.1635)
 -->
<!-- Title: zipOpen Pages: 1 -->
<svg width="450pt" height="76pt"
 viewBox="0.00 0.00 450.00 75.88" xmlns="http://www.w3.org/2000/svg" xmlns:xlink="http://www.w3.org/1999/xlink">
<g id="graph0" class="graph" transform="scale(1 1) rotate(0) translate(4 71.88)">
<title>zipOpen</title>
<!-- Node1 -->
<g id="node1" class="node">
<title>Node1</title>
<g id="a_node1"><a xlink:title=" ">
<polygon fill="#999999" stroke="#666666" points="52,-40.25 0,-40.25 0,-21 52,-21 52,-40.25"/>
<text text-anchor="middle" x="26" y="-26.75" font-family="Helvetica,sans-Serif" font-size="10.00">zipOpen</text>
</a>
</g>
</g>
<!-- Node2 -->
<g id="node2" class="node">
<title>Node2</title>
<g id="a_node2"><a xlink:href="zip_8c.html#aa1b472c66e7ac205fbb86ac0950cebe1" target="_top" xlink:title=" ">
<polygon fill="white" stroke="#666666" points="145.25,-40.25 88,-40.25 88,-21 145.25,-21 145.25,-40.25"/>
<text text-anchor="middle" x="116.62" y="-26.75" font-family="Helvetica,sans-Serif" font-size="10.00">zipOpen3</text>
</a>
</g>
</g>
<!-- Node1&#45;&gt;Node2 -->
<g id="edge1" class="edge">
<title>Node1&#45;&gt;Node2</title>
<path fill="none" stroke="#63b8ff" d="M52.16,-30.62C59.85,-30.62 68.48,-30.62 76.85,-30.62"/>
<polygon fill="#63b8ff" stroke="#63b8ff" points="76.6,-34.13 86.6,-30.62 76.6,-27.13 76.6,-34.13"/>
</g>
<!-- Node3 -->
<g id="node3" class="node">
<title>Node3</title>
<g id="a_node3"><a xlink:href="ioapi_8c.html#a0c90747a8b732158bc3666411776affe" target="_top" xlink:title=" ">
<polygon fill="white" stroke="#666666" points="303.75,-67.88 181.25,-67.88 181.25,-37.38 303.75,-37.38 303.75,-67.88"/>
<text text-anchor="start" x="189.25" y="-54.38" font-family="Helvetica,sans-Serif" font-size="10.00">fill_zlib_filefunc64</text>
<text text-anchor="middle" x="242.5" y="-43.12" font-family="Helvetica,sans-Serif" font-size="10.00">_32_def_from_filefunc32</text>
</a>
</g>
</g>
<!-- Node2&#45;&gt;Node3 -->
<g id="edge2" class="edge">
<title>Node2&#45;&gt;Node3</title>
<path fill="none" stroke="#63b8ff" d="M145.73,-35.62C153.19,-36.94 161.6,-38.43 170.25,-39.97"/>
<polygon fill="#63b8ff" stroke="#63b8ff" points="169.42,-43.56 179.88,-41.86 170.65,-36.66 169.42,-43.56"/>
</g>
<!-- Node4 -->
<g id="node4" class="node">
<title>Node4</title>
<g id="a_node4"><a xlink:href="zip_8c.html#addcccf3eebcef825f7f46a5a5cdda18a" target="_top" xlink:title=" ">
<polygon fill="white" stroke="#666666" points="271.12,-19.25 213.88,-19.25 213.88,0 271.12,0 271.12,-19.25"/>
<text text-anchor="middle" x="242.5" y="-5.75" font-family="Helvetica,sans-Serif" font-size="10.00">zipOpen4</text>
</a>
</g>
</g>
<!-- Node2&#45;&gt;Node4 -->
<g id="edge3" class="edge">
<title>Node2&#45;&gt;Node4</title>
<path fill="none" stroke="#63b8ff" d="M145.73,-25.86C162.6,-23 184.3,-19.32 202.77,-16.19"/>
<polygon fill="#63b8ff" stroke="#63b8ff" points="203.23,-19.49 212.5,-14.37 202.06,-12.59 203.23,-19.49"/>
</g>
<!-- Node5 -->
<g id="node5" class="node">
<title>Node5</title>
<g id="a_node5"><a xlink:href="ioapi_8c.html#aa67e4de04de04bf2d1694febd74bd16f" target="_top" xlink:title=" ">
<polygon fill="white" stroke="#666666" points="442,-19.25 339.75,-19.25 339.75,0 442,0 442,-19.25"/>
<text text-anchor="middle" x="390.88" y="-5.75" font-family="Helvetica,sans-Serif" font-size="10.00">fill_fopen64_filefunc</text>
</a>
</g>
</g>
<!-- Node4&#45;&gt;Node5 -->
<g id="edge4" class="edge">
<title>Node4&#45;&gt;Node5</title>
<path fill="none" stroke="#63b8ff" d="M271.38,-9.62C287.54,-9.62 308.57,-9.62 328.42,-9.62"/>
<polygon fill="#63b8ff" stroke="#63b8ff" points="328.29,-13.13 338.29,-9.62 328.29,-6.13 328.29,-13.13"/>
</g>
</g>
</svg>
