<?xml version="1.0" encoding="UTF-8" standalone="no"?>
<!DOCTYPE svg PUBLIC "-//W3C//DTD SVG 1.1//EN"
 "http://www.w3.org/Graphics/SVG/1.1/DTD/svg11.dtd">
<!-- Generated by graphviz version 2.40.1 (20161225.0304)
 -->
<!-- Title: zipOpen64 Pages: 1 -->
<svg width="470pt" height="74pt"
 viewBox="0.00 0.00 469.65 74.00" xmlns="http://www.w3.org/2000/svg" xmlns:xlink="http://www.w3.org/1999/xlink">
<g id="graph0" class="graph" transform="scale(1 1) rotate(0) translate(4 70)">
<title>zipOpen64</title>
<polygon fill="#ffffff" stroke="transparent" points="-4,4 -4,-70 465.6533,-70 465.6533,4 -4,4"/>
<!-- Node40 -->
<g id="node1" class="node">
<title>Node40</title>
<polygon fill="#bfbfbf" stroke="#000000" points="0,-21.5 0,-39.5 64.3691,-39.5 64.3691,-21.5 0,-21.5"/>
<text text-anchor="middle" x="32.1846" y="-27.5" font-family="Helvetica,sans-Serif" font-size="10.00" fill="#000000">zipOpen64</text>
</g>
<!-- Node41 -->
<g id="node2" class="node">
<title>Node41</title>
<g id="a_node2"><a xlink:href="zip_8c.html#aa1b472c66e7ac205fbb86ac0950cebe1" target="_top" xlink:title="zipOpen3">
<polygon fill="#ffffff" stroke="#000000" points="100.3691,-21.5 100.3691,-39.5 159.1768,-39.5 159.1768,-21.5 100.3691,-21.5"/>
<text text-anchor="middle" x="129.7729" y="-27.5" font-family="Helvetica,sans-Serif" font-size="10.00" fill="#000000">zipOpen3</text>
</a>
</g>
</g>
<!-- Node40&#45;&gt;Node41 -->
<g id="edge1" class="edge">
<title>Node40&#45;&gt;Node41</title>
<path fill="none" stroke="#191970" d="M64.4091,-30.5C72.6189,-30.5 81.5388,-30.5 90.0738,-30.5"/>
<polygon fill="#191970" stroke="#191970" points="90.2201,-34.0001 100.2201,-30.5 90.2201,-27.0001 90.2201,-34.0001"/>
</g>
<!-- Node42 -->
<g id="node3" class="node">
<title>Node42</title>
<g id="a_node3"><a xlink:href="ioapi_8c.html#a0c90747a8b732158bc3666411776affe" target="_top" xlink:title="fill_zlib_filefunc64\l_32_def_from_filefunc32">
<polygon fill="#ffffff" stroke="#000000" points="195.1768,-37.5 195.1768,-65.5 321.2549,-65.5 321.2549,-37.5 195.1768,-37.5"/>
<text text-anchor="start" x="203.1768" y="-53.5" font-family="Helvetica,sans-Serif" font-size="10.00" fill="#000000">fill_zlib_filefunc64</text>
<text text-anchor="middle" x="258.2158" y="-43.5" font-family="Helvetica,sans-Serif" font-size="10.00" fill="#000000">_32_def_from_filefunc32</text>
</a>
</g>
</g>
<!-- Node41&#45;&gt;Node42 -->
<g id="edge2" class="edge">
<title>Node41&#45;&gt;Node42</title>
<path fill="none" stroke="#191970" d="M159.2403,-35.3178C167.127,-36.6073 176.0143,-38.0603 185.1449,-39.5531"/>
<polygon fill="#191970" stroke="#191970" points="184.6785,-43.0233 195.1122,-41.1828 185.808,-36.115 184.6785,-43.0233"/>
</g>
<!-- Node43 -->
<g id="node4" class="node">
<title>Node43</title>
<g id="a_node4"><a xlink:href="zip_8c.html#addcccf3eebcef825f7f46a5a5cdda18a" target="_top" xlink:title="zipOpen4">
<polygon fill="#ffffff" stroke="#000000" points="228.812,-.5 228.812,-18.5 287.6196,-18.5 287.6196,-.5 228.812,-.5"/>
<text text-anchor="middle" x="258.2158" y="-6.5" font-family="Helvetica,sans-Serif" font-size="10.00" fill="#000000">zipOpen4</text>
</a>
</g>
</g>
<!-- Node41&#45;&gt;Node43 -->
<g id="edge3" class="edge">
<title>Node41&#45;&gt;Node43</title>
<path fill="none" stroke="#191970" d="M159.2403,-25.6822C176.8189,-22.8081 199.3688,-19.1213 218.5035,-15.9928"/>
<polygon fill="#191970" stroke="#191970" points="219.1366,-19.4359 228.4408,-14.3681 218.007,-12.5276 219.1366,-19.4359"/>
</g>
<!-- Node44 -->
<g id="node5" class="node">
<title>Node44</title>
<g id="a_node5"><a xlink:href="ioapi_8c.html#aa67e4de04de04bf2d1694febd74bd16f" target="_top" xlink:title="fill_fopen64_filefunc">
<polygon fill="#ffffff" stroke="#000000" points="357.2549,-.5 357.2549,-18.5 461.6533,-18.5 461.6533,-.5 357.2549,-.5"/>
<text text-anchor="middle" x="409.4541" y="-6.5" font-family="Helvetica,sans-Serif" font-size="10.00" fill="#000000">fill_fopen64_filefunc</text>
</a>
</g>
</g>
<!-- Node43&#45;&gt;Node44 -->
<g id="edge4" class="edge">
<title>Node43&#45;&gt;Node44</title>
<path fill="none" stroke="#191970" d="M287.7351,-9.5C304.5755,-9.5 326.3485,-9.5 346.814,-9.5"/>
<polygon fill="#191970" stroke="#191970" points="347.0449,-13.0001 357.0449,-9.5 347.0448,-6.0001 347.0449,-13.0001"/>
</g>
</g>
</svg>
