<?xml version="1.0" encoding="UTF-8" standalone="no"?>
<!DOCTYPE svg PUBLIC "-//W3C//DTD SVG 1.1//EN"
 "http://www.w3.org/Graphics/SVG/1.1/DTD/svg11.dtd">
<!-- Generated by graphviz version 8.0.5 (20230430.1635)
 -->
<!-- Title: zipOpen2_64 Pages: 1 -->
<svg width="313pt" height="27pt"
 viewBox="0.00 0.00 312.50 27.25" xmlns="http://www.w3.org/2000/svg" xmlns:xlink="http://www.w3.org/1999/xlink">
<g id="graph0" class="graph" transform="scale(1 1) rotate(0) translate(4 23.25)">
<title>zipOpen2_64</title>
<!-- Node1 -->
<g id="node1" class="node">
<title>Node1</title>
<g id="a_node1"><a xlink:title=" ">
<polygon fill="#999999" stroke="#666666" points="73,-19.25 0,-19.25 0,0 73,0 73,-19.25"/>
<text text-anchor="middle" x="36.5" y="-5.75" font-family="Helvetica,sans-Serif" font-size="10.00">zipOpen2_64</text>
</a>
</g>
</g>
<!-- Node2 -->
<g id="node2" class="node">
<title>Node2</title>
<g id="a_node2"><a xlink:href="zip_8c.html#addcccf3eebcef825f7f46a5a5cdda18a" target="_top" xlink:title=" ">
<polygon fill="white" stroke="#666666" points="166.25,-19.25 109,-19.25 109,0 166.25,0 166.25,-19.25"/>
<text text-anchor="middle" x="137.62" y="-5.75" font-family="Helvetica,sans-Serif" font-size="10.00">zipOpen4</text>
</a>
</g>
</g>
<!-- Node1&#45;&gt;Node2 -->
<g id="edge1" class="edge">
<title>Node1&#45;&gt;Node2</title>
<path fill="none" stroke="#63b8ff" d="M73.29,-9.62C81.29,-9.62 89.82,-9.62 97.94,-9.62"/>
<polygon fill="#63b8ff" stroke="#63b8ff" points="97.67,-13.13 107.67,-9.62 97.67,-6.13 97.67,-13.13"/>
</g>
<!-- Node3 -->
<g id="node3" class="node">
<title>Node3</title>
<g id="a_node3"><a xlink:href="ioapi_8c.html#aa67e4de04de04bf2d1694febd74bd16f" target="_top" xlink:title=" ">
<polygon fill="white" stroke="#666666" points="304.5,-19.25 202.25,-19.25 202.25,0 304.5,0 304.5,-19.25"/>
<text text-anchor="middle" x="253.38" y="-5.75" font-family="Helvetica,sans-Serif" font-size="10.00">fill_fopen64_filefunc</text>
</a>
</g>
</g>
<!-- Node2&#45;&gt;Node3 -->
<g id="edge2" class="edge">
<title>Node2&#45;&gt;Node3</title>
<path fill="none" stroke="#63b8ff" d="M166.74,-9.62C174.24,-9.62 182.63,-9.62 191.16,-9.62"/>
<polygon fill="#63b8ff" stroke="#63b8ff" points="190.98,-13.13 200.98,-9.62 190.98,-6.13 190.98,-13.13"/>
</g>
</g>
</svg>
