<?xml version="1.0" encoding="UTF-8" standalone="no"?>
<!DOCTYPE svg PUBLIC "-//W3C//DTD SVG 1.1//EN"
 "http://www.w3.org/Graphics/SVG/1.1/DTD/svg11.dtd">
<!-- Generated by graphviz version 2.40.1 (20161225.0304)
 -->
<!-- Title: zipOpen2 Pages: 1 -->
<svg width="369pt" height="74pt"
 viewBox="0.00 0.00 369.28 74.00" xmlns="http://www.w3.org/2000/svg" xmlns:xlink="http://www.w3.org/1999/xlink">
<g id="graph0" class="graph" transform="scale(1 1) rotate(0) translate(4 70)">
<title>zipOpen2</title>
<polygon fill="#ffffff" stroke="transparent" points="-4,4 -4,-70 365.2842,-70 365.2842,4 -4,4"/>
<!-- Node26 -->
<g id="node1" class="node">
<title>Node26</title>
<polygon fill="#bfbfbf" stroke="#000000" points="0,-21.5 0,-39.5 58.8076,-39.5 58.8076,-21.5 0,-21.5"/>
<text text-anchor="middle" x="29.4038" y="-27.5" font-family="Helvetica,sans-Serif" font-size="10.00" fill="#000000">zipOpen2</text>
</g>
<!-- Node27 -->
<g id="node2" class="node">
<title>Node27</title>
<g id="a_node2"><a xlink:href="ioapi_8c.html#a0c90747a8b732158bc3666411776affe" target="_top" xlink:title="fill_zlib_filefunc64\l_32_def_from_filefunc32">
<polygon fill="#ffffff" stroke="#000000" points="94.8076,-37.5 94.8076,-65.5 220.8857,-65.5 220.8857,-37.5 94.8076,-37.5"/>
<text text-anchor="start" x="102.8076" y="-53.5" font-family="Helvetica,sans-Serif" font-size="10.00" fill="#000000">fill_zlib_filefunc64</text>
<text text-anchor="middle" x="157.8467" y="-43.5" font-family="Helvetica,sans-Serif" font-size="10.00" fill="#000000">_32_def_from_filefunc32</text>
</a>
</g>
</g>
<!-- Node26&#45;&gt;Node27 -->
<g id="edge1" class="edge">
<title>Node26&#45;&gt;Node27</title>
<path fill="none" stroke="#191970" d="M58.8712,-35.3178C66.7578,-36.6073 75.6452,-38.0603 84.7757,-39.5531"/>
<polygon fill="#191970" stroke="#191970" points="84.3093,-43.0233 94.7431,-41.1828 85.4389,-36.115 84.3093,-43.0233"/>
</g>
<!-- Node28 -->
<g id="node3" class="node">
<title>Node28</title>
<g id="a_node3"><a xlink:href="zip_8c.html#addcccf3eebcef825f7f46a5a5cdda18a" target="_top" xlink:title="zipOpen4">
<polygon fill="#ffffff" stroke="#000000" points="128.4429,-.5 128.4429,-18.5 187.2505,-18.5 187.2505,-.5 128.4429,-.5"/>
<text text-anchor="middle" x="157.8467" y="-6.5" font-family="Helvetica,sans-Serif" font-size="10.00" fill="#000000">zipOpen4</text>
</a>
</g>
</g>
<!-- Node26&#45;&gt;Node28 -->
<g id="edge2" class="edge">
<title>Node26&#45;&gt;Node28</title>
<path fill="none" stroke="#191970" d="M58.8712,-25.6822C76.4498,-22.8081 98.9997,-19.1213 118.1344,-15.9928"/>
<polygon fill="#191970" stroke="#191970" points="118.7674,-19.4359 128.0716,-14.3681 117.6379,-12.5276 118.7674,-19.4359"/>
</g>
<!-- Node29 -->
<g id="node4" class="node">
<title>Node29</title>
<g id="a_node4"><a xlink:href="ioapi_8c.html#aa67e4de04de04bf2d1694febd74bd16f" target="_top" xlink:title="fill_fopen64_filefunc">
<polygon fill="#ffffff" stroke="#000000" points="256.8857,-.5 256.8857,-18.5 361.2842,-18.5 361.2842,-.5 256.8857,-.5"/>
<text text-anchor="middle" x="309.085" y="-6.5" font-family="Helvetica,sans-Serif" font-size="10.00" fill="#000000">fill_fopen64_filefunc</text>
</a>
</g>
</g>
<!-- Node28&#45;&gt;Node29 -->
<g id="edge3" class="edge">
<title>Node28&#45;&gt;Node29</title>
<path fill="none" stroke="#191970" d="M187.366,-9.5C204.2063,-9.5 225.9793,-9.5 246.4448,-9.5"/>
<polygon fill="#191970" stroke="#191970" points="246.6757,-13.0001 256.6757,-9.5 246.6757,-6.0001 246.6757,-13.0001"/>
</g>
</g>
</svg>
