<?xml version="1.0" encoding="UTF-8" standalone="no"?>
<!DOCTYPE svg PUBLIC "-//W3C//DTD SVG 1.1//EN"
 "http://www.w3.org/Graphics/SVG/1.1/DTD/svg11.dtd">
<!-- Generated by graphviz version 2.40.1 (20161225.0304)
 -->
<!-- Title: zipClose_64 Pages: 1 -->
<svg width="629pt" height="27pt"
 viewBox="0.00 0.00 628.85 27.00" xmlns="http://www.w3.org/2000/svg" xmlns:xlink="http://www.w3.org/1999/xlink">
<g id="graph0" class="graph" transform="scale(1 1) rotate(0) translate(4 23)">
<title>zipClose_64</title>
<polygon fill="#ffffff" stroke="transparent" points="-4,4 -4,-23 624.8457,-23 624.8457,4 -4,4"/>
<!-- Node10 -->
<g id="node1" class="node">
<title>Node10</title>
<polygon fill="#bfbfbf" stroke="#000000" points="0,-.5 0,-18.5 71.0342,-18.5 71.0342,-.5 0,-.5"/>
<text text-anchor="middle" x="35.5171" y="-6.5" font-family="Helvetica,sans-Serif" font-size="10.00" fill="#000000">zipClose_64</text>
</g>
<!-- Node11 -->
<g id="node2" class="node">
<title>Node11</title>
<g id="a_node2"><a xlink:href="zip_8c.html#a196f81458eca5e5951085bdf1399a4c9" target="_top" xlink:title="zipClose2_64">
<polygon fill="#ffffff" stroke="#000000" points="107.0342,-.5 107.0342,-18.5 183.6299,-18.5 183.6299,-.5 107.0342,-.5"/>
<text text-anchor="middle" x="145.332" y="-6.5" font-family="Helvetica,sans-Serif" font-size="10.00" fill="#000000">zipClose2_64</text>
</a>
</g>
</g>
<!-- Node10&#45;&gt;Node11 -->
<g id="edge1" class="edge">
<title>Node10&#45;&gt;Node11</title>
<path fill="none" stroke="#191970" d="M71.1709,-9.5C79.2743,-9.5 88.0183,-9.5 96.5616,-9.5"/>
<polygon fill="#191970" stroke="#191970" points="96.8265,-13.0001 106.8265,-9.5 96.8264,-6.0001 96.8265,-13.0001"/>
</g>
<!-- Node12 -->
<g id="node3" class="node">
<title>Node12</title>
<g id="a_node3"><a xlink:href="zip_8c.html#ae470f753aef4cffe4f77a5ec2bcfbde1" target="_top" xlink:title="zipCloseFileInZip">
<polygon fill="#ffffff" stroke="#000000" points="219.6299,-.5 219.6299,-18.5 312.3242,-18.5 312.3242,-.5 219.6299,-.5"/>
<text text-anchor="middle" x="265.9771" y="-6.5" font-family="Helvetica,sans-Serif" font-size="10.00" fill="#000000">zipCloseFileInZip</text>
</a>
</g>
</g>
<!-- Node11&#45;&gt;Node12 -->
<g id="edge2" class="edge">
<title>Node11&#45;&gt;Node12</title>
<path fill="none" stroke="#191970" d="M183.8366,-9.5C191.9653,-9.5 200.7048,-9.5 209.3431,-9.5"/>
<polygon fill="#191970" stroke="#191970" points="209.3946,-13.0001 219.3946,-9.5 209.3945,-6.0001 209.3946,-13.0001"/>
</g>
<!-- Node13 -->
<g id="node4" class="node">
<title>Node13</title>
<g id="a_node4"><a xlink:href="zip_8c.html#ac90ee507f85e5f6586a2bfe90aad5ddc" target="_top" xlink:title="zipCloseFileInZipRaw">
<polygon fill="#ffffff" stroke="#000000" points="348.3242,-.5 348.3242,-18.5 461.0234,-18.5 461.0234,-.5 348.3242,-.5"/>
<text text-anchor="middle" x="404.6738" y="-6.5" font-family="Helvetica,sans-Serif" font-size="10.00" fill="#000000">zipCloseFileInZipRaw</text>
</a>
</g>
</g>
<!-- Node12&#45;&gt;Node13 -->
<g id="edge3" class="edge">
<title>Node12&#45;&gt;Node13</title>
<path fill="none" stroke="#191970" d="M312.5469,-9.5C320.6035,-9.5 329.1215,-9.5 337.5944,-9.5"/>
<polygon fill="#191970" stroke="#191970" points="337.8729,-13.0001 347.8729,-9.5 337.8728,-6.0001 337.8729,-13.0001"/>
</g>
<!-- Node14 -->
<g id="node5" class="node">
<title>Node14</title>
<g id="a_node5"><a xlink:href="zip_8c.html#abed3466e1d5d1e4af5c0fdb68fec9fd2" target="_top" xlink:title="zipCloseFileInZipRaw64">
<polygon fill="#ffffff" stroke="#000000" points="497.0234,-.5 497.0234,-18.5 620.8457,-18.5 620.8457,-.5 497.0234,-.5"/>
<text text-anchor="middle" x="558.9346" y="-6.5" font-family="Helvetica,sans-Serif" font-size="10.00" fill="#000000">zipCloseFileInZipRaw64</text>
</a>
</g>
</g>
<!-- Node13&#45;&gt;Node14 -->
<g id="edge4" class="edge">
<title>Node13&#45;&gt;Node14</title>
<path fill="none" stroke="#191970" d="M461.2389,-9.5C469.5824,-9.5 478.2723,-9.5 486.8777,-9.5"/>
<polygon fill="#191970" stroke="#191970" points="486.9149,-13.0001 496.9149,-9.5 486.9148,-6.0001 486.9149,-13.0001"/>
</g>
</g>
</svg>
