<?xml version="1.0" encoding="UTF-8" standalone="no"?>
<!DOCTYPE svg PUBLIC "-//W3C//DTD SVG 1.1//EN"
 "http://www.w3.org/Graphics/SVG/1.1/DTD/svg11.dtd">
<!-- Generated by graphviz version 2.40.1 (20161225.0304)
 -->
<!-- Title: zipOpenNewFileInZip4_64 Pages: 1 -->
<svg width="579pt" height="27pt"
 viewBox="0.00 0.00 579.06 27.00" xmlns="http://www.w3.org/2000/svg" xmlns:xlink="http://www.w3.org/1999/xlink">
<g id="graph0" class="graph" transform="scale(1 1) rotate(0) translate(4 23)">
<title>zipOpenNewFileInZip4_64</title>
<polygon fill="#ffffff" stroke="transparent" points="-4,4 -4,-23 575.0576,-23 575.0576,4 -4,4"/>
<!-- Node75 -->
<g id="node1" class="node">
<title>Node75</title>
<polygon fill="#bfbfbf" stroke="#000000" points="0,-.5 0,-18.5 133.8418,-18.5 133.8418,-.5 0,-.5"/>
<text text-anchor="middle" x="66.9209" y="-6.5" font-family="Helvetica,sans-Serif" font-size="10.00" fill="#000000">zipOpenNewFileInZip4_64</text>
</g>
<!-- Node76 -->
<g id="node2" class="node">
<title>Node76</title>
<g id="a_node2"><a xlink:href="zip_8c.html#ae470f753aef4cffe4f77a5ec2bcfbde1" target="_top" xlink:title="zipCloseFileInZip">
<polygon fill="#ffffff" stroke="#000000" points="169.8418,-.5 169.8418,-18.5 262.5361,-18.5 262.5361,-.5 169.8418,-.5"/>
<text text-anchor="middle" x="216.189" y="-6.5" font-family="Helvetica,sans-Serif" font-size="10.00" fill="#000000">zipCloseFileInZip</text>
</a>
</g>
</g>
<!-- Node75&#45;&gt;Node76 -->
<g id="edge1" class="edge">
<title>Node75&#45;&gt;Node76</title>
<path fill="none" stroke="#191970" d="M134.1316,-9.5C142.5106,-9.5 151.0157,-9.5 159.2187,-9.5"/>
<polygon fill="#191970" stroke="#191970" points="159.4155,-13.0001 169.4155,-9.5 159.4155,-6.0001 159.4155,-13.0001"/>
</g>
<!-- Node77 -->
<g id="node3" class="node">
<title>Node77</title>
<g id="a_node3"><a xlink:href="zip_8c.html#ac90ee507f85e5f6586a2bfe90aad5ddc" target="_top" xlink:title="zipCloseFileInZipRaw">
<polygon fill="#ffffff" stroke="#000000" points="298.5361,-.5 298.5361,-18.5 411.2354,-18.5 411.2354,-.5 298.5361,-.5"/>
<text text-anchor="middle" x="354.8857" y="-6.5" font-family="Helvetica,sans-Serif" font-size="10.00" fill="#000000">zipCloseFileInZipRaw</text>
</a>
</g>
</g>
<!-- Node76&#45;&gt;Node77 -->
<g id="edge2" class="edge">
<title>Node76&#45;&gt;Node77</title>
<path fill="none" stroke="#191970" d="M262.7588,-9.5C270.8154,-9.5 279.3335,-9.5 287.8063,-9.5"/>
<polygon fill="#191970" stroke="#191970" points="288.0848,-13.0001 298.0848,-9.5 288.0847,-6.0001 288.0848,-13.0001"/>
</g>
<!-- Node78 -->
<g id="node4" class="node">
<title>Node78</title>
<g id="a_node4"><a xlink:href="zip_8c.html#abed3466e1d5d1e4af5c0fdb68fec9fd2" target="_top" xlink:title="zipCloseFileInZipRaw64">
<polygon fill="#ffffff" stroke="#000000" points="447.2354,-.5 447.2354,-18.5 571.0576,-18.5 571.0576,-.5 447.2354,-.5"/>
<text text-anchor="middle" x="509.1465" y="-6.5" font-family="Helvetica,sans-Serif" font-size="10.00" fill="#000000">zipCloseFileInZipRaw64</text>
</a>
</g>
</g>
<!-- Node77&#45;&gt;Node78 -->
<g id="edge3" class="edge">
<title>Node77&#45;&gt;Node78</title>
<path fill="none" stroke="#191970" d="M411.4508,-9.5C419.7944,-9.5 428.4843,-9.5 437.0896,-9.5"/>
<polygon fill="#191970" stroke="#191970" points="437.1268,-13.0001 447.1268,-9.5 437.1268,-6.0001 437.1268,-13.0001"/>
</g>
</g>
</svg>
