<?xml version="1.0" encoding="UTF-8" standalone="no"?>
<!DOCTYPE svg PUBLIC "-//W3C//DTD SVG 1.1//EN"
 "http://www.w3.org/Graphics/SVG/1.1/DTD/svg11.dtd">
<!-- Generated by graphviz version 7.0.5 (20221223.1930)
 -->
<!-- Title: zipOpen Pages: 1 -->
<svg width="453pt" height="76pt"
 viewBox="0.00 0.00 453.00 75.50" xmlns="http://www.w3.org/2000/svg" xmlns:xlink="http://www.w3.org/1999/xlink">
<g id="graph0" class="graph" transform="scale(1 1) rotate(0) translate(4 71.5)">
<title>zipOpen</title>
<!-- Node1 -->
<g id="node1" class="node">
<title>Node1</title>
<g id="a_node1"><a xlink:title=" ">
<polygon fill="#999999" stroke="#666666" points="53,-40 0,-40 0,-21 53,-21 53,-40"/>
<text text-anchor="middle" x="26.5" y="-28" font-family="Helvetica,sans-Serif" font-size="10.00">zipOpen</text>
</a>
</g>
</g>
<!-- Node2 -->
<g id="node2" class="node">
<title>Node2</title>
<g id="a_node2"><a xlink:href="zip_8c.html#aa1b472c66e7ac205fbb86ac0950cebe1" target="_top" xlink:title=" ">
<polygon fill="white" stroke="#666666" points="147,-40 89,-40 89,-21 147,-21 147,-40"/>
<text text-anchor="middle" x="118" y="-28" font-family="Helvetica,sans-Serif" font-size="10.00">zipOpen3</text>
</a>
</g>
</g>
<!-- Node1&#45;&gt;Node2 -->
<g id="edge1" class="edge">
<title>Node1&#45;&gt;Node2</title>
<path fill="none" stroke="#63b8ff" d="M53.39,-30.5C60.9,-30.5 69.27,-30.5 77.42,-30.5"/>
<polygon fill="#63b8ff" stroke="#63b8ff" points="77.15,-34 87.15,-30.5 77.15,-27 77.15,-34"/>
</g>
<!-- Node3 -->
<g id="node3" class="node">
<title>Node3</title>
<g id="a_node3"><a xlink:href="ioapi_8c.html#a0c90747a8b732158bc3666411776affe" target="_top" xlink:title=" ">
<polygon fill="white" stroke="#666666" points="306,-67.5 183,-67.5 183,-37.5 306,-37.5 306,-67.5"/>
<text text-anchor="start" x="191" y="-55.5" font-family="Helvetica,sans-Serif" font-size="10.00">fill_zlib_filefunc64</text>
<text text-anchor="middle" x="244.5" y="-44.5" font-family="Helvetica,sans-Serif" font-size="10.00">_32_def_from_filefunc32</text>
</a>
</g>
</g>
<!-- Node2&#45;&gt;Node3 -->
<g id="edge2" class="edge">
<title>Node2&#45;&gt;Node3</title>
<path fill="none" stroke="#63b8ff" d="M147.25,-35.49C154.58,-36.79 162.82,-38.24 171.32,-39.75"/>
<polygon fill="#63b8ff" stroke="#63b8ff" points="170.63,-43.18 181.09,-41.47 171.85,-36.28 170.63,-43.18"/>
</g>
<!-- Node4 -->
<g id="node4" class="node">
<title>Node4</title>
<g id="a_node4"><a xlink:href="zip_8c.html#addcccf3eebcef825f7f46a5a5cdda18a" target="_top" xlink:title=" ">
<polygon fill="white" stroke="#666666" points="273.5,-19 215.5,-19 215.5,0 273.5,0 273.5,-19"/>
<text text-anchor="middle" x="244.5" y="-7" font-family="Helvetica,sans-Serif" font-size="10.00">zipOpen4</text>
</a>
</g>
</g>
<!-- Node2&#45;&gt;Node4 -->
<g id="edge3" class="edge">
<title>Node2&#45;&gt;Node4</title>
<path fill="none" stroke="#63b8ff" d="M147.25,-25.73C164.04,-22.9 185.6,-19.27 204.05,-16.15"/>
<polygon fill="#63b8ff" stroke="#63b8ff" points="204.59,-19.61 213.87,-14.5 203.43,-12.71 204.59,-19.61"/>
</g>
<!-- Node5 -->
<g id="node5" class="node">
<title>Node5</title>
<g id="a_node5"><a xlink:href="ioapi_8c.html#aa67e4de04de04bf2d1694febd74bd16f" target="_top" xlink:title=" ">
<polygon fill="white" stroke="#666666" points="445,-19 342,-19 342,0 445,0 445,-19"/>
<text text-anchor="middle" x="393.5" y="-7" font-family="Helvetica,sans-Serif" font-size="10.00">fill_fopen64_filefunc</text>
</a>
</g>
</g>
<!-- Node4&#45;&gt;Node5 -->
<g id="edge4" class="edge">
<title>Node4&#45;&gt;Node5</title>
<path fill="none" stroke="#63b8ff" d="M273.84,-9.5C289.88,-9.5 310.61,-9.5 330.24,-9.5"/>
<polygon fill="#63b8ff" stroke="#63b8ff" points="330.11,-13 340.11,-9.5 330.11,-6 330.11,-13"/>
</g>
</g>
</svg>
